<?xml version="1.0" encoding="utf-8"?>
<!-- Generator: Adobe Illustrator 21.0.2, SVG Export Plug-In . SVG Version: 6.00 Build 0)  -->
<svg version="1.1" id="Capa_1" xmlns="http://www.w3.org/2000/svg" xmlns:xlink="http://www.w3.org/1999/xlink" x="0px" y="0px"
	 viewBox="0 0 40 600" style="enable-background:new 0 0 40 600;" xml:space="preserve">
<g>
	<rect id="XMLID_1796_" x="0" style="fill:#2A4690;" width="40" height="600"/>
	<polygon id="XMLID_1706_" style="fill:#FFFFFF;" points="25,309.8149 8,300 25,290.1851 	"/>
	<g id="XMLID_108_">
		<rect id="XMLID_1637_" style="opacity:0.25;fill-rule:evenodd;clip-rule:evenodd;fill:#020202;" width="40" height="40"/>
		<g id="XMLID_1539_">
			<g id="XMLID_1631_">
				<path id="XMLID_1636_" style="fill:#FFFFFF;" d="M30.7047,14.739H13.0971c-0.7561,0-1.3695-0.613-1.3695-1.3695
					S12.341,12,13.0971,12h17.6076c0.7561,0,1.3695,0.613,1.3695,1.3695S31.4608,14.739,30.7047,14.739z"/>
				<circle id="XMLID_1633_" style="fill:#FFFFFF;" cx="9.2953" cy="13.3695" r="1.3695"/>
			</g>
			<g id="XMLID_1593_">
				<path id="XMLID_1623_" style="fill:#FFFFFF;" d="M30.7047,21.3695H13.0971c-0.7561,0-1.3695-0.613-1.3695-1.3695
					s0.6134-1.3695,1.3695-1.3695h17.6076c0.7561,0,1.3695,0.613,1.3695,1.3695S31.4608,21.3695,30.7047,21.3695z"/>
				<circle id="XMLID_1594_" style="fill:#FFFFFF;" cx="9.2953" cy="20" r="1.3695"/>
			</g>
			<g id="XMLID_1547_">
				<path id="XMLID_1576_" style="fill:#FFFFFF;" d="M30.7047,28H13.0971c-0.7561,0-1.3695-0.613-1.3695-1.3695
					s0.6134-1.3695,1.3695-1.3695h17.6076c0.7561,0,1.3695,0.613,1.3695,1.3695S31.4608,28,30.7047,28z"/>
				<circle id="XMLID_1553_" style="fill:#FFFFFF;" cx="9.2953" cy="26.6305" r="1.3695"/>
			</g>
		</g>
	</g>
</g>
</svg>
