<?xml version="1.0" encoding="utf-8"?>
<!-- Generator: Adobe Illustrator 21.0.2, SVG Export Plug-In . SVG Version: 6.00 Build 0)  -->
<svg version="1.1" id="Capa_1" xmlns="http://www.w3.org/2000/svg" xmlns:xlink="http://www.w3.org/1999/xlink" x="0px" y="0px"
	 viewBox="0 0 986.631 525" style="enable-background:new 0 0 986.631 525;" xml:space="preserve">
<g>
	<rect x="0.5" y="0.5" style="opacity:0.82;fill:#020202;stroke:#093751;stroke-miterlimit:10;" width="985.631" height="524"/>
	
		<rect x="27.3515" y="75.8219" style="opacity:0.82;fill:#FFFFFF;stroke:#093751;stroke-miterlimit:10;" width="958.7795" height="431.6674"/>
	<g id="XMLID_5187_">
		<path id="XMLID_5196_" style="fill:#FFFFFF;stroke:#912D19;stroke-miterlimit:10;" d="M956.6074,33.2965
			c0.963,0.9631,0.963,2.5249,0,3.4879l-2.1796,2.1795l2.1797,2.1798c0.9631,0.9631,0.9628,2.5245-0.0002,3.4876
			c-0.9631,0.9631-2.5246,0.9633-3.4877,0.0003l-2.1797-2.1798l-2.1795,2.1795c-0.963,0.963-2.5248,0.963-3.4879-0.0001
			c-0.9631-0.9631-0.9628-2.5246,0.0002-3.4876l2.1796-2.1795l-2.1797-2.1798c-0.9631-0.9631-0.9631-2.5249,0-3.4879
			c0.963-0.9631,2.5248-0.963,3.4879,0.0001l2.1797,2.1798l2.1795-2.1795C954.0831,32.3334,955.6443,32.3334,956.6074,33.2965
			L956.6074,33.2965z M956.6074,33.2965"/>
		<path id="XMLID_5188_" style="fill:#C9452F;" d="M938.6832,51.2206c-6.7323-6.7323-6.7321-17.6867,0.0003-24.4191
			c6.7321-6.7321,17.6865-6.7323,24.4189,0c6.7324,6.7324,6.7327,17.6867,0.0002,24.4191S945.4156,57.953,938.6832,51.2206
			L938.6832,51.2206z M960.4324,29.4715c-5.2603-5.2602-13.819-5.26-19.0789,0c-5.2603,5.2603-5.2603,13.8192-0.0002,19.0792
			c5.2603,5.2603,13.8192,5.2603,19.0794,0C965.6926,43.2907,965.6926,34.7318,960.4324,29.4715L960.4324,29.4715z
			 M961.3837,28.5201"/>
	</g>
</g>
</svg>
