<?xml version="1.0" encoding="utf-8"?>
<!-- Generator: Adobe Illustrator 21.0.2, SVG Export Plug-In . SVG Version: 6.00 Build 0)  -->
<svg version="1.1" id="Capa_1" xmlns="http://www.w3.org/2000/svg" xmlns:xlink="http://www.w3.org/1999/xlink" x="0px" y="0px"
	 viewBox="0 0 131.1524 37.3281" style="enable-background:new 0 0 131.1524 37.3281;" xml:space="preserve">
<g>
	<g>
		<g>
			<polygon style="fill:#DDDBDB;" points="80.4583,36.8281 12.4583,36.8281 12.4583,10.467 80.4583,10.467 80.4583,23.6476 			"/>
		</g>
		<g>
			<g>
				<polygon points="80.958,37.3281 78.958,37.3281 78.958,36.3281 79.958,36.3281 79.958,35.3281 80.958,35.3281 				"/>
			</g>
			<g>
				<path d="M75.8633,37.3281h-3.0952v-1h3.0952V37.3281z M69.6729,37.3281h-3.0952v-1h3.0952V37.3281z M63.4824,37.3281h-3.0952v-1
					h3.0952V37.3281z M57.292,37.3281h-3.0952v-1h3.0952V37.3281z M51.1016,37.3281h-3.0952v-1h3.0952V37.3281z M44.9111,37.3281
					h-3.0957v-1h3.0957V37.3281z M38.7202,37.3281H35.625v-1h3.0952V37.3281z M32.5298,37.3281h-3.0952v-1h3.0952V37.3281z
					 M26.3394,37.3281h-3.0952v-1h3.0952V37.3281z M20.1489,37.3281h-3.0952v-1h3.0952V37.3281z"/>
			</g>
			<g>
				<polygon points="13.958,37.3281 11.958,37.3281 11.958,35.3281 12.958,35.3281 12.958,36.3281 13.958,36.3281 				"/>
			</g>
			<g>
				<path d="M12.958,31.9907h-1v-3.3374h1V31.9907z M12.958,25.3159h-1V21.979h1V25.3159z M12.958,18.6416h-1v-3.3374h1V18.6416z"/>
			</g>
			<g>
				<polygon points="12.958,11.9668 11.958,11.9668 11.958,9.9668 13.958,9.9668 13.958,10.9668 12.958,10.9668 				"/>
			</g>
			<g>
				<path d="M75.8633,10.9668h-3.0952v-1h3.0952V10.9668z M69.6729,10.9668h-3.0952v-1h3.0952V10.9668z M63.4824,10.9668h-3.0952v-1
					h3.0952V10.9668z M57.292,10.9668h-3.0952v-1h3.0952V10.9668z M51.1016,10.9668h-3.0957v-1h3.0957V10.9668z M44.9106,10.9668
					h-3.0952v-1h3.0952V10.9668z M38.7202,10.9668H35.625v-1h3.0952V10.9668z M32.5298,10.9668h-3.0952v-1h3.0952V10.9668z
					 M26.3394,10.9668h-3.0952v-1h3.0952V10.9668z M20.1489,10.9668h-3.0952v-1h3.0952V10.9668z"/>
			</g>
			<g>
				<polygon points="80.958,11.9668 79.958,11.9668 79.958,10.9668 78.958,10.9668 78.958,9.9668 80.958,9.9668 				"/>
			</g>
			<g>
				<path d="M80.958,31.9907h-1v-3.3374h1V31.9907z M80.958,25.3159h-1V21.979h1V25.3159z M80.958,18.6416h-1v-3.3374h1V18.6416z"/>
			</g>
		</g>
	</g>
	<g>
		<path d="M131.1523,24.21h-3v-1h3V24.21z M125.1523,24.21h-3v-1h3V24.21z M119.1523,24.21h-3v-1h3V24.21z M113.1523,24.21h-3v-1h3
			V24.21z M107.1523,24.21h-3v-1h3V24.21z M101.1523,24.21h-3v-1h3V24.21z M95.1523,24.21h-3v-1h3V24.21z M89.1523,24.21h-3v-1h3
			V24.21z M83.1523,24.21h-2.6938v-1h2.6938V24.21z"/>
	</g>
	<g>
		<path d="M26.498,28.8452v-8.5898h6.3691v1.4531h-4.6348v1.9043h4.3125v1.4473h-4.3125v2.3379h4.7988v1.4473H26.498z"/>
		<path d="M34.3672,22.6226h1.5176v0.8496c0.543-0.6602,1.1895-0.9902,1.9395-0.9902c0.3984,0,0.7441,0.082,1.0371,0.2461
			s0.5332,0.4121,0.7207,0.7441c0.2734-0.332,0.5684-0.5801,0.8848-0.7441s0.6543-0.2461,1.0137-0.2461
			c0.457,0,0.8438,0.0928,1.1602,0.2783s0.5527,0.458,0.709,0.8174c0.1133,0.2656,0.1699,0.6953,0.1699,1.2891v3.9785H41.873
			v-3.5566c0-0.6172-0.0566-1.0156-0.1699-1.1953c-0.1523-0.2344-0.3867-0.3516-0.7031-0.3516
			c-0.2305,0-0.4473,0.0703-0.6504,0.2109S40,24.2993,39.9102,24.5708s-0.1348,0.7002-0.1348,1.2861v2.9883h-1.6465v-3.4102
			c0-0.6055-0.0293-0.9961-0.0879-1.1719s-0.1494-0.3066-0.2725-0.3926s-0.29-0.1289-0.501-0.1289
			c-0.2539,0-0.4824,0.0684-0.6855,0.2051s-0.3486,0.334-0.4365,0.5918s-0.1318,0.6855-0.1318,1.2832v3.0234h-1.6465V22.6226z"/>
		<path d="M45.1602,21.7788v-1.5234h1.6465v1.5234H45.1602z M45.1602,28.8452v-6.2227h1.6465v6.2227H45.1602z"/>
		<path d="M47.9141,27.0698l1.6523-0.252c0.0703,0.3203,0.2129,0.5635,0.4277,0.7295s0.5156,0.249,0.9023,0.249
			c0.4258,0,0.7461-0.0781,0.9609-0.2344c0.1445-0.1094,0.2168-0.2559,0.2168-0.4395c0-0.125-0.0391-0.2285-0.1172-0.3105
			c-0.082-0.0781-0.2656-0.1504-0.5508-0.2168c-1.3281-0.293-2.1699-0.5605-2.5254-0.8027
			c-0.4922-0.3359-0.7383-0.8027-0.7383-1.4004c0-0.5391,0.2129-0.9922,0.6387-1.3594s1.0859-0.5508,1.9805-0.5508
			c0.8516,0,1.4844,0.1387,1.8984,0.416s0.6992,0.6875,0.8555,1.2305l-1.5527,0.2871c-0.0664-0.2422-0.1924-0.4277-0.3779-0.5566
			s-0.4502-0.1934-0.7939-0.1934c-0.4336,0-0.7441,0.0605-0.9316,0.1816c-0.125,0.0859-0.1875,0.1973-0.1875,0.334
			c0,0.1172,0.0547,0.2168,0.1641,0.2988c0.1484,0.1094,0.6611,0.2637,1.5381,0.4629s1.4893,0.4434,1.8369,0.7324
			c0.3438,0.293,0.5156,0.7012,0.5156,1.2246c0,0.5703-0.2383,1.0605-0.7148,1.4707s-1.1816,0.6152-2.1152,0.6152
			c-0.8477,0-1.5186-0.1719-2.0127-0.5156S48.0664,27.6597,47.9141,27.0698z"/>
		<path d="M54.7871,25.646c0-0.5469,0.1348-1.0762,0.4043-1.5879s0.6514-0.9023,1.1455-1.1719s1.0459-0.4043,1.6553-0.4043
			c0.9414,0,1.7129,0.3057,2.3145,0.917s0.9023,1.3838,0.9023,2.3174c0,0.9414-0.3037,1.7217-0.9111,2.3408
			s-1.3721,0.9287-2.2939,0.9287c-0.5703,0-1.1143-0.1289-1.6318-0.3867s-0.9111-0.6357-1.1807-1.1338
			S54.7871,26.3608,54.7871,25.646z M56.4746,25.7339c0,0.6172,0.1465,1.0898,0.4395,1.418s0.6543,0.4922,1.084,0.4922
			s0.79-0.1641,1.0811-0.4922s0.4365-0.8047,0.4365-1.4297c0-0.6094-0.1455-1.0781-0.4365-1.4063s-0.6514-0.4922-1.0811-0.4922
			s-0.791,0.1641-1.084,0.4922S56.4746,25.1167,56.4746,25.7339z"/>
		<path d="M64.0742,28.8452h-1.6465v-6.2227h1.5293v0.8848c0.2617-0.418,0.4971-0.6934,0.7061-0.8262s0.4463-0.1992,0.7119-0.1992
			c0.375,0,0.7363,0.1035,1.084,0.3105l-0.5098,1.4355c-0.2773-0.1797-0.5352-0.2695-0.7734-0.2695
			c-0.2305,0-0.4258,0.0635-0.5859,0.1904s-0.2861,0.3564-0.3779,0.6885s-0.1377,1.0273-0.1377,2.0859V28.8452z"/>
	</g>
	<g>
		<path style="fill:#F15A29;" d="M25.7451,9.0149c0,1.7634-0.7947,3.4017-2.1557,4.7606c-0.4537,0.453,4.0627,3.0972,3.4917,3.4824
			c-0.7754,0.5231-6.6843-1.2438-7.6395-0.8705c-1.8584,0.7264-4.0167,1.1422-6.3191,1.1422C6.1513,17.5296,0.5,13.7174,0.5,9.0149
			s5.6513-8.5147,12.6225-8.5147S25.7451,4.3123,25.7451,9.0149z"/>
		<path style="fill:#BF3D19;" d="M13.1226,18.0298C5.8867,18.0298,0,13.9858,0,9.0146C0,4.0439,5.8867,0,13.1226,0
			s13.1226,4.0439,13.1226,9.0146c0,1.7495-0.7183,3.4331-2.0815,4.8867c0.2979,0.3086,1.0034,0.8486,1.499,1.228
			c1.4697,1.1245,1.9829,1.562,1.9683,2.0552c-0.0059,0.1982-0.1045,0.376-0.27,0.4878c-0.5239,0.3521-1.7324,0.1641-4.3652-0.3491
			c-1.2012-0.2344-3.0166-0.5854-3.3745-0.4697C17.6543,17.623,15.4063,18.0298,13.1226,18.0298z M13.1226,1
			C6.438,1,1,4.5952,1,9.0146s5.438,8.0151,12.1226,8.0151c2.1602,0,4.2822-0.3833,6.1367-1.1084
			c0.563-0.2183,1.7964,0.0054,3.9277,0.4204c0.9487,0.1851,2.252,0.439,3.0337,0.5044c-0.3398-0.291-0.8081-0.6494-1.1655-0.9229
			c-1.4238-1.0889-1.9648-1.5459-1.9966-2.0254l-0.0146-0.2261l0.1919-0.25c1.3145-1.313,2.0093-2.8364,2.0093-4.4072
			C25.2451,4.5952,19.8071,1,13.1226,1z"/>
	</g>
</g>
</svg>
