<?xml version="1.0" encoding="utf-8"?>
<!-- Generator: Adobe Illustrator 21.0.2, SVG Export Plug-In . SVG Version: 6.00 Build 0)  -->
<svg version="1.1" id="Capa_1" xmlns="http://www.w3.org/2000/svg" xmlns:xlink="http://www.w3.org/1999/xlink" x="0px" y="0px"
	 viewBox="0 0 87.9224 53.373" style="enable-background:new 0 0 87.9224 53.373;" xml:space="preserve">
<g>
	<g>
		<path d="M18.8574,53.373l-0.8589-0.0107l0.0063-0.4956h-0.1475v-2.6475h1V53.373z M14.9995,53.3257l-3-0.0366l0.0117-1l3,0.0366
			L14.9995,53.3257z M8.9995,53.2524l-3-0.0366l0.0127-1l3,0.0366L8.9995,53.2524z M3,53.1792l-3-0.0366l0.0127-1l3,0.0366
			L3,53.1792z M18.8574,47.2192h-1v-3h1V47.2192z M87.9224,42.9434h-3v-1h3V42.9434z M81.9224,42.9434h-3v-1h3V42.9434z
			 M75.9224,42.9434h-3v-1h3V42.9434z M69.9224,42.9434h-3v-1h3V42.9434z M18.8574,41.2192h-1v-3h1V41.2192z M66.3784,40.4873h-1v-3
			h1V40.4873z M18.8574,35.2192h-1v-3h1V35.2192z M66.3784,34.4873h-1v-3h1V34.4873z M18.8574,29.2192h-1v-3h1V29.2192z
			 M66.3784,28.4873h-1v-3h1V28.4873z M18.8574,23.2192h-1v-3h1V23.2192z M66.3784,22.4873h-1v-3h1V22.4873z M18.8574,17.2192h-1
			v-2.6055h1.3945v1h-0.3945V17.2192z M66.3784,16.4873h-1v-0.8735H64.252v-1h2.1265V16.4873z M61.252,15.6138h-3v-1h3V15.6138z
			 M55.252,15.6138h-3v-1h3V15.6138z M49.252,15.6138h-3v-1h3V15.6138z M43.252,15.6138h-3v-1h3V15.6138z M37.252,15.6138h-3v-1h3
			V15.6138z M31.252,15.6138h-3v-1h3V15.6138z M25.252,15.6138h-3v-1h3V15.6138z"/>
	</g>
	<g>
		<path d="M19.4248,8.5898V0h2.5957l1.5586,5.8594L25.1201,0h2.6016v8.5898h-1.6113V1.8281l-1.7051,6.7617h-1.6699l-1.6992-6.7617
			v6.7617H19.4248z"/>
		<path d="M33.0361,6.6094l1.6406,0.2754c-0.2109,0.6016-0.5439,1.0596-0.999,1.374s-1.0244,0.4717-1.708,0.4717
			c-1.082,0-1.8828-0.3535-2.4023-1.0605c-0.4102-0.5664-0.6152-1.2813-0.6152-2.1445c0-1.0313,0.2695-1.8389,0.8086-2.4229
			s1.2207-0.876,2.0449-0.876c0.9258,0,1.6563,0.3057,2.1914,0.917s0.791,1.5479,0.7676,2.8096h-4.125
			c0.0117,0.4883,0.1445,0.8682,0.3984,1.1396S31.6084,7.5,31.9873,7.5c0.2578,0,0.4746-0.0703,0.6504-0.2109
			S32.9463,6.9219,33.0361,6.6094z M33.1299,4.9453c-0.0117-0.4766-0.1348-0.8389-0.3691-1.0869s-0.5195-0.3721-0.8555-0.3721
			c-0.3594,0-0.6563,0.1309-0.8906,0.3926s-0.3496,0.6172-0.3457,1.0664H33.1299z"/>
		<path d="M41.7666,8.5898h-1.6465V5.4141c0-0.6719-0.0352-1.1064-0.1055-1.3037s-0.1846-0.3506-0.3428-0.46
			s-0.3486-0.1641-0.5713-0.1641c-0.2852,0-0.541,0.0781-0.7676,0.2344s-0.3818,0.3633-0.4658,0.6211s-0.126,0.7344-0.126,1.4297
			v2.8184h-1.6465V2.3672h1.5293v0.9141c0.543-0.7031,1.2266-1.0547,2.0508-1.0547c0.3633,0,0.6953,0.0654,0.9961,0.1963
			s0.5283,0.2979,0.6826,0.501s0.2617,0.4336,0.3223,0.6914s0.0908,0.627,0.0908,1.1074V8.5898z"/>
		<path d="M42.8564,6.8145l1.6523-0.252c0.0703,0.3203,0.2129,0.5635,0.4277,0.7295s0.5156,0.249,0.9023,0.249
			c0.4258,0,0.7461-0.0781,0.9609-0.2344c0.1445-0.1094,0.2168-0.2559,0.2168-0.4395c0-0.125-0.0391-0.2285-0.1172-0.3105
			c-0.082-0.0781-0.2656-0.1504-0.5508-0.2168c-1.3281-0.293-2.1699-0.5605-2.5254-0.8027
			c-0.4922-0.3359-0.7383-0.8027-0.7383-1.4004c0-0.5391,0.2129-0.9922,0.6387-1.3594s1.0859-0.5508,1.9805-0.5508
			c0.8516,0,1.4844,0.1387,1.8984,0.416s0.6992,0.6875,0.8555,1.2305l-1.5527,0.2871c-0.0664-0.2422-0.1924-0.4277-0.3779-0.5566
			s-0.4502-0.1934-0.7939-0.1934c-0.4336,0-0.7441,0.0605-0.9316,0.1816c-0.125,0.0859-0.1875,0.1973-0.1875,0.334
			c0,0.1172,0.0547,0.2168,0.1641,0.2988c0.1484,0.1094,0.6611,0.2637,1.5381,0.4629s1.4893,0.4434,1.8369,0.7324
			c0.3438,0.293,0.5156,0.7012,0.5156,1.2246c0,0.5703-0.2383,1.0605-0.7148,1.4707s-1.1816,0.6152-2.1152,0.6152
			c-0.8477,0-1.5186-0.1719-2.0127-0.5156S43.0088,7.4043,42.8564,6.8145z"/>
		<path d="M51.3408,4.2656l-1.4941-0.2695c0.168-0.6016,0.457-1.0469,0.8672-1.3359s1.0195-0.4336,1.8281-0.4336
			c0.7344,0,1.2813,0.0869,1.6406,0.2607s0.6123,0.3945,0.7588,0.6621s0.2197,0.7588,0.2197,1.4736l-0.0176,1.9219
			c0,0.5469,0.0264,0.9502,0.0791,1.21s0.1514,0.5381,0.2959,0.835h-1.6289c-0.043-0.1094-0.0957-0.2715-0.1582-0.4863
			c-0.0273-0.0977-0.0469-0.1621-0.0586-0.1934c-0.2813,0.2734-0.582,0.4785-0.9023,0.6152s-0.6621,0.2051-1.0254,0.2051
			c-0.6406,0-1.1455-0.1738-1.5146-0.5215s-0.5537-0.7871-0.5537-1.3184c0-0.3516,0.084-0.665,0.252-0.9404
			s0.4033-0.4863,0.7061-0.6328s0.7393-0.2744,1.3096-0.3838c0.7695-0.1445,1.3027-0.2793,1.5996-0.4043V4.3652
			c0-0.3164-0.0781-0.542-0.2344-0.6768s-0.4512-0.2021-0.8848-0.2021c-0.293,0-0.5215,0.0576-0.6855,0.1729
			S51.4424,3.9766,51.3408,4.2656z M53.5439,5.6016c-0.2109,0.0703-0.5449,0.1543-1.002,0.252s-0.7559,0.1934-0.8965,0.2871
			c-0.2148,0.1523-0.3223,0.3457-0.3223,0.5801c0,0.2305,0.0859,0.4297,0.2578,0.5977s0.3906,0.252,0.6563,0.252
			c0.2969,0,0.5801-0.0977,0.8496-0.293c0.1992-0.1484,0.3301-0.3301,0.3926-0.5449c0.043-0.1406,0.0645-0.4082,0.0645-0.8027
			V5.6016z"/>
		<path d="M58.3955,2.3672v6.0293c0,0.793-0.0518,1.3525-0.1553,1.6787s-0.3027,0.5811-0.5977,0.7646s-0.6709,0.2754-1.1279,0.2754
			c-0.1641,0-0.3408-0.0146-0.5303-0.0439s-0.3936-0.0732-0.6123-0.1318l0.2871-1.4063c0.0781,0.0156,0.1514,0.0283,0.2197,0.0381
			s0.1318,0.0146,0.1904,0.0146c0.168,0,0.3057-0.0361,0.4131-0.1084s0.1787-0.1592,0.2139-0.2607s0.0527-0.4063,0.0527-0.9141
			V2.3672H58.3955z M56.749,1.5234V0h1.6465v1.5234H56.749z"/>
		<path d="M63.7217,6.6094l1.6406,0.2754c-0.2109,0.6016-0.5439,1.0596-0.999,1.374s-1.0244,0.4717-1.708,0.4717
			c-1.082,0-1.8828-0.3535-2.4023-1.0605c-0.4102-0.5664-0.6152-1.2813-0.6152-2.1445c0-1.0313,0.2695-1.8389,0.8086-2.4229
			s1.2207-0.876,2.0449-0.876c0.9258,0,1.6563,0.3057,2.1914,0.917s0.791,1.5479,0.7676,2.8096h-4.125
			c0.0117,0.4883,0.1445,0.8682,0.3984,1.1396S62.2939,7.5,62.6729,7.5c0.2578,0,0.4746-0.0703,0.6504-0.2109
			S63.6318,6.9219,63.7217,6.6094z M63.8154,4.9453c-0.0117-0.4766-0.1348-0.8389-0.3691-1.0869s-0.5195-0.3721-0.8555-0.3721
			c-0.3594,0-0.6563,0.1309-0.8906,0.3926s-0.3496,0.6172-0.3457,1.0664H63.8154z"/>
	</g>
	<g>
		<g>
			<rect x="28.3981" y="19.1774" style="fill:#EDC418;" width="26.2144" height="14.5969"/>
			<path style="fill:#B2951B;" d="M55.1123,34.2744H27.8979V18.6772h27.2144V34.2744z M28.8979,33.2744h25.2144V19.6772H28.8979
				V33.2744z"/>
		</g>
		<g>
			<polygon style="fill:#C4A81E;" points="28.4313,19.1774 41.5054,28.0727 53.9618,19.1774 			"/>
		</g>
	</g>
</g>
</svg>
