<?xml version="1.0" encoding="utf-8"?>
<!-- Generator: Adobe Illustrator 21.0.2, SVG Export Plug-In . SVG Version: 6.00 Build 0)  -->
<svg version="1.1" id="Capa_1" xmlns="http://www.w3.org/2000/svg" xmlns:xlink="http://www.w3.org/1999/xlink" x="0px" y="0px"
	 viewBox="0 0 119.1943 50.3154" style="enable-background:new 0 0 119.1943 50.3154;" xml:space="preserve">
<g>
	<g>
		<g>
			<polygon style="fill:#DDDBDB;" points="50.6942,23.4544 118.6942,23.4544 118.6942,49.8155 50.6942,49.8155 50.6942,36.635 			
				"/>
		</g>
		<g>
			<g>
				<polygon points="51.1943,24.9541 50.1943,24.9541 50.1943,22.9541 52.1943,22.9541 52.1943,23.9541 51.1943,23.9541 				"/>
			</g>
			<g>
				<path d="M114.0991,23.9541h-3.0952v-1h3.0952V23.9541z M107.9087,23.9541h-3.0952v-1h3.0952V23.9541z M101.7183,23.9541H98.623
					v-1h3.0952V23.9541z M95.5278,23.9541h-3.0952v-1h3.0952V23.9541z M89.3374,23.9541h-3.0957v-1h3.0957V23.9541z
					 M83.1465,23.9541h-3.0952v-1h3.0952V23.9541z M76.9561,23.9541h-3.0952v-1h3.0952V23.9541z M70.7656,23.9541h-3.0952v-1h3.0952
					V23.9541z M64.5752,23.9541H61.48v-1h3.0952V23.9541z M58.3848,23.9541h-3.0952v-1h3.0952V23.9541z"/>
			</g>
			<g>
				<polygon points="119.1943,24.9541 118.1943,24.9541 118.1943,23.9541 117.1943,23.9541 117.1943,22.9541 119.1943,22.9541 				
					"/>
			</g>
			<g>
				<path d="M119.1943,44.978h-1v-3.3374h1V44.978z M119.1943,38.3032h-1v-3.3369h1V38.3032z M119.1943,31.6289h-1v-3.3374h1
					V31.6289z"/>
			</g>
			<g>
				<polygon points="119.1943,50.3154 117.1943,50.3154 117.1943,49.3154 118.1943,49.3154 118.1943,48.3154 119.1943,48.3154 				
					"/>
			</g>
			<g>
				<path d="M114.0991,50.3154h-3.0952v-1h3.0952V50.3154z M107.9087,50.3154h-3.0952v-1h3.0952V50.3154z M101.7183,50.3154H98.623
					v-1h3.0952V50.3154z M95.5278,50.3154h-3.0952v-1h3.0952V50.3154z M89.3374,50.3154h-3.0952v-1h3.0952V50.3154z M83.147,50.3154
					h-3.0957v-1h3.0957V50.3154z M76.9561,50.3154h-3.0952v-1h3.0952V50.3154z M70.7656,50.3154h-3.0952v-1h3.0952V50.3154z
					 M64.5752,50.3154H61.48v-1h3.0952V50.3154z M58.3848,50.3154h-3.0952v-1h3.0952V50.3154z"/>
			</g>
			<g>
				<polygon points="52.1943,50.3154 50.1943,50.3154 50.1943,48.3154 51.1943,48.3154 51.1943,49.3154 52.1943,49.3154 				"/>
			</g>
			<g>
				<path d="M51.1943,44.978h-1v-3.3374h1V44.978z M51.1943,38.3032h-1v-3.3369h1V38.3032z M51.1943,31.6289h-1v-3.3374h1V31.6289z"
					/>
			</g>
		</g>
	</g>
	<g>
		<path d="M50.6943,37.0723H48v-1h2.6943V37.0723z M45,37.0723h-3v-1h3V37.0723z M39,37.0723h-3v-1h3V37.0723z M33,37.0723h-3v-1h3
			V37.0723z M27,37.0723h-3v-1h3V37.0723z M21,37.0723h-3v-1h3V37.0723z M15,37.0723h-3v-1h3V37.0723z M9,37.0723H6v-1h3V37.0723z
			 M3,37.0723H0v-1h3V37.0723z"/>
	</g>
	<g>
		<path d="M59.6294,41.3647v-8.5898h3.6504c0.918,0,1.585,0.0771,2.001,0.2314s0.749,0.4287,0.999,0.8232s0.375,0.8457,0.375,1.3535
			c0,0.6445-0.1895,1.1768-0.5684,1.5967s-0.9453,0.6846-1.6992,0.7939c0.375,0.2188,0.6846,0.459,0.9287,0.7207
			s0.5732,0.7266,0.9873,1.3945l1.0488,1.6758h-2.0742l-1.2539-1.8691c-0.4453-0.668-0.75-1.0889-0.9141-1.2627
			s-0.3379-0.293-0.5215-0.3574s-0.4746-0.0967-0.873-0.0967h-0.3516v3.5859H59.6294z M61.3638,36.4077h1.2832
			c0.832,0,1.3516-0.0352,1.5586-0.1055s0.3691-0.1914,0.4863-0.3633s0.1758-0.3867,0.1758-0.6445
			c0-0.2891-0.0771-0.5225-0.2314-0.7002s-0.3721-0.29-0.6533-0.3369c-0.1406-0.0195-0.5625-0.0293-1.2656-0.0293h-1.3535V36.4077z"
			/>
		<path d="M71.8813,39.3843l1.6406,0.2754c-0.2109,0.6016-0.5439,1.0596-0.999,1.374s-1.0244,0.4717-1.708,0.4717
			c-1.082,0-1.8828-0.3535-2.4023-1.0605c-0.4102-0.5664-0.6152-1.2813-0.6152-2.1445c0-1.0313,0.2695-1.8389,0.8086-2.4229
			s1.2207-0.876,2.0449-0.876c0.9258,0,1.6563,0.3057,2.1914,0.917s0.791,1.5479,0.7676,2.8096h-4.125
			c0.0117,0.4883,0.1445,0.8682,0.3984,1.1396s0.5703,0.4072,0.9492,0.4072c0.2578,0,0.4746-0.0703,0.6504-0.2109
			S71.7915,39.6968,71.8813,39.3843z M71.9751,37.7202c-0.0117-0.4766-0.1348-0.8389-0.3691-1.0869s-0.5195-0.3721-0.8555-0.3721
			c-0.3594,0-0.6563,0.1309-0.8906,0.3926s-0.3496,0.6172-0.3457,1.0664H71.9751z"/>
		<path d="M80.3774,36.9819l-1.623,0.293c-0.0547-0.3242-0.1787-0.5684-0.3721-0.7324s-0.4443-0.2461-0.7529-0.2461
			c-0.4102,0-0.7373,0.1416-0.9814,0.4248s-0.3662,0.7568-0.3662,1.4209c0,0.7383,0.124,1.2598,0.3721,1.5645
			s0.5811,0.457,0.999,0.457c0.3125,0,0.5684-0.0889,0.7676-0.2666s0.3398-0.4834,0.4219-0.917l1.6172,0.2754
			c-0.168,0.7422-0.4902,1.3027-0.9668,1.6816s-1.1152,0.5684-1.916,0.5684c-0.9102,0-1.6357-0.2871-2.1768-0.8613
			s-0.8115-1.3691-0.8115-2.3848c0-1.0273,0.2715-1.8271,0.8145-2.3994s1.2773-0.8584,2.2031-0.8584
			c0.7578,0,1.3604,0.1631,1.8076,0.4893S80.1821,36.314,80.3774,36.9819z"/>
		<path d="M85.229,39.3843l1.6406,0.2754c-0.2109,0.6016-0.5439,1.0596-0.999,1.374s-1.0244,0.4717-1.708,0.4717
			c-1.082,0-1.8828-0.3535-2.4023-1.0605c-0.4102-0.5664-0.6152-1.2813-0.6152-2.1445c0-1.0313,0.2695-1.8389,0.8086-2.4229
			s1.2207-0.876,2.0449-0.876c0.9258,0,1.6563,0.3057,2.1914,0.917s0.791,1.5479,0.7676,2.8096h-4.125
			c0.0117,0.4883,0.1445,0.8682,0.3984,1.1396s0.5703,0.4072,0.9492,0.4072c0.2578,0,0.4746-0.0703,0.6504-0.2109
			S85.1392,39.6968,85.229,39.3843z M85.3228,37.7202c-0.0117-0.4766-0.1348-0.8389-0.3691-1.0869s-0.5195-0.3721-0.8555-0.3721
			c-0.3594,0-0.6563,0.1309-0.8906,0.3926s-0.3496,0.6172-0.3457,1.0664H85.3228z"/>
		<path d="M88.2524,35.1421h1.5352v0.9141c0.1992-0.3125,0.4688-0.5664,0.8086-0.7617s0.7168-0.293,1.1309-0.293
			c0.7227,0,1.3359,0.2832,1.8398,0.8496s0.7559,1.3555,0.7559,2.3672c0,1.0391-0.2539,1.8467-0.7617,2.4229
			s-1.123,0.8643-1.8457,0.8643c-0.3438,0-0.6553-0.0684-0.9346-0.2051s-0.5732-0.3711-0.8818-0.7031v3.1348h-1.6465V35.1421z
			 M89.8813,38.1479c0,0.6992,0.1387,1.2158,0.416,1.5498s0.6152,0.501,1.0137,0.501c0.3828,0,0.7012-0.1533,0.9551-0.46
			s0.3809-0.8096,0.3809-1.5088c0-0.6523-0.1309-1.1367-0.3926-1.4531s-0.5859-0.4746-0.9727-0.4746
			c-0.4023,0-0.7363,0.1553-1.002,0.4658S89.8813,37.5386,89.8813,38.1479z"/>
		<path d="M98.4829,35.1421v1.3125h-1.125v2.5078c0,0.5078,0.0107,0.8037,0.0322,0.8877s0.0703,0.1533,0.1465,0.208
			s0.1689,0.082,0.2783,0.082c0.1523,0,0.373-0.0527,0.6621-0.1582l0.1406,1.2773c-0.3828,0.1641-0.8164,0.2461-1.3008,0.2461
			c-0.2969,0-0.5645-0.0498-0.8027-0.1494s-0.4131-0.2285-0.5244-0.3867s-0.1885-0.3721-0.2314-0.6416
			c-0.0352-0.1914-0.0527-0.5781-0.0527-1.1602v-2.7129h-0.7559v-1.3125h0.7559v-1.2363l1.6523-0.9609v2.1973H98.4829z"/>
		<path d="M99.2446,38.1655c0-0.5469,0.1348-1.0762,0.4043-1.5879s0.6514-0.9023,1.1455-1.1719s1.0459-0.4043,1.6553-0.4043
			c0.9414,0,1.7129,0.3057,2.3145,0.917s0.9023,1.3838,0.9023,2.3174c0,0.9414-0.3037,1.7217-0.9111,2.3408
			s-1.3721,0.9287-2.2939,0.9287c-0.5703,0-1.1143-0.1289-1.6318-0.3867s-0.9111-0.6357-1.1807-1.1338
			S99.2446,38.8804,99.2446,38.1655z M100.9321,38.2534c0,0.6172,0.1465,1.0898,0.4395,1.418s0.6543,0.4922,1.084,0.4922
			s0.79-0.1641,1.0811-0.4922s0.4365-0.8047,0.4365-1.4297c0-0.6094-0.1455-1.0781-0.4365-1.4063s-0.6514-0.4922-1.0811-0.4922
			s-0.791,0.1641-1.084,0.4922S100.9321,37.6362,100.9321,38.2534z"/>
		<path d="M108.5317,41.3647h-1.6465v-6.2227h1.5293v0.8848c0.2617-0.418,0.4971-0.6934,0.7061-0.8262s0.4463-0.1992,0.7119-0.1992
			c0.375,0,0.7363,0.1035,1.084,0.3105l-0.5098,1.4355c-0.2773-0.1797-0.5352-0.2695-0.7734-0.2695
			c-0.2305,0-0.4258,0.0635-0.5859,0.1904s-0.2861,0.3564-0.3779,0.6885s-0.1377,1.0273-0.1377,2.0859V41.3647z"/>
	</g>
	<g>
		<path style="fill:#20789E;" d="M87.5844,12.2176c2.0764-0.9908,3.5145-3.1032,3.5145-5.5569c0-3.4025-2.7583-6.1608-6.1605-6.1608
			c-3.4027,0-6.1608,2.7583-6.1608,6.1608c0,2.4539,1.4381,4.5661,3.5145,5.5569c-4.5207,1.6257-7.8632,7.2949-7.8632,14.0593
			c0,0.2288,0.0173,0.4515,0.0247,0.6776H95.423c0.0074-0.2261,0.0247-0.4488,0.0247-0.6776
			C95.4476,19.5124,92.1051,13.8433,87.5844,12.2176z"/>
		<path style="fill:#093751;" d="M95.9067,27.4546h-21.937l-0.0264-0.7241c-0.0073-0.1504-0.0146-0.3008-0.0146-0.4536
			c0-6.3652,2.9351-11.9946,7.2495-14.127c-1.7891-1.231-2.9004-3.2891-2.9004-5.4893C78.2778,2.9878,81.2656,0,84.9385,0
			s6.6606,2.9878,6.6606,6.6606c0,2.1997-1.1118,4.2583-2.9009,5.4893c4.3145,2.1323,7.2495,7.7617,7.2495,14.127
			c0,0.1528-0.0073,0.3032-0.0146,0.4536L95.9067,27.4546z M74.9321,26.4546h20.0122c0.002-0.0591,0.0034-0.1182,0.0034-0.1777
			c0-6.4063-3.0977-11.9937-7.5322-13.5884l-1.1279-0.4058l1.0815-0.5161c1.9619-0.937,3.23-2.9409,3.23-5.106
			C90.5991,3.5396,88.0596,1,84.9385,1s-5.6606,2.5396-5.6606,5.6606c0,2.165,1.2676,4.1694,3.2295,5.106l1.0815,0.5161
			l-1.1279,0.4058c-4.4346,1.5947-7.5322,7.1821-7.5322,13.5884C74.9287,26.3364,74.9302,26.3955,74.9321,26.4546z"/>
	</g>
</g>
</svg>
