<?xml version="1.0" encoding="utf-8"?>
<!-- Generator: Adobe Illustrator 21.0.2, SVG Export Plug-In . SVG Version: 6.00 Build 0)  -->
<svg version="1.1" id="Capa_1" xmlns="http://www.w3.org/2000/svg" xmlns:xlink="http://www.w3.org/1999/xlink" x="0px" y="0px"
	 viewBox="0 0 29.8165 31.2883" style="enable-background:new 0 0 29.8165 31.2883;" xml:space="preserve">
<style type="text/css">
	.st0{fill-rule:evenodd;clip-rule:evenodd;fill:#DDDDDD;}
	.st1{fill:#3B86B1;}
	.st2{opacity:0.25;fill-rule:evenodd;clip-rule:evenodd;fill:#020202;}
	.st3{fill:#FFFFFF;}
	.st4{opacity:0.5;}
	.st5{fill-rule:evenodd;clip-rule:evenodd;fill:#A8A8A8;}
	.st6{fill-rule:evenodd;clip-rule:evenodd;fill:#FFFFFF;}
	.st7{fill-rule:evenodd;clip-rule:evenodd;fill:#3B86B1;}
	.st8{opacity:0.5;fill:#2C6882;}
	.st9{opacity:0.75;fill-rule:evenodd;clip-rule:evenodd;fill:#282828;}
	.st10{opacity:0.5;fill:#FFFFFF;}
	.st11{fill-rule:evenodd;clip-rule:evenodd;fill:none;stroke:#FFFFFF;stroke-miterlimit:10;}
	.st12{fill:none;stroke:#FFFFFF;stroke-miterlimit:10;}
	.st13{fill:#FFFFFF;stroke:#3B86B1;stroke-width:1.7139;stroke-miterlimit:10;}
	.st14{fill-rule:evenodd;clip-rule:evenodd;}
	.st15{opacity:0.85;fill:#FFFFFF;}
	.st16{opacity:0.5;fill-rule:evenodd;clip-rule:evenodd;}
	.st17{fill-rule:evenodd;clip-rule:evenodd;fill:#FEFEFE;}
	.st18{fill:#312767;}
	.st19{opacity:0.48;}
	.st20{opacity:0.25;}
	.st21{fill-rule:evenodd;clip-rule:evenodd;fill:#020202;}
	.st22{fill:#757575;}
	.st23{opacity:0.25;clip-path:url(#XMLID_2411_);}
	.st24{fill:#4D4789;}
	.st25{fill:#FFFFFF;stroke:#312767;stroke-miterlimit:10;}
	.st26{fill:#3B86B1;stroke:#3B86B1;stroke-miterlimit:10;}
	.st27{fill:#FFFFFF;stroke:#FFFFFF;stroke-miterlimit:10;}
	.st28{fill:#ACABC9;}
	.st29{fill-rule:evenodd;clip-rule:evenodd;fill:#312767;}
	.st30{opacity:0.77;fill:#312767;}
	.st31{opacity:0.25;clip-path:url(#XMLID_2416_);}
	.st32{fill:#9490B2;stroke:#2D2D2D;stroke-width:0.25;stroke-miterlimit:10;}
	.st33{fill:#312767;stroke:#2D2D2D;stroke-width:0.25;stroke-miterlimit:10;}
	.st34{fill:#FCFCFC;}
	.st35{fill:#FFFFFF;stroke:#2D2D2D;stroke-width:0.25;stroke-miterlimit:10;}
	.st36{fill-rule:evenodd;clip-rule:evenodd;fill:#484849;stroke:#2D2D2D;stroke-width:0.25;stroke-miterlimit:10;}
	.st37{fill-rule:evenodd;clip-rule:evenodd;fill:#312767;stroke:#2D2D2D;stroke-width:0.25;stroke-miterlimit:10;}
	.st38{fill-rule:evenodd;clip-rule:evenodd;fill:#FFFFFF;stroke:#2D2D2D;stroke-width:0.25;stroke-miterlimit:10;}
	.st39{fill:#484849;stroke:#2D2D2D;stroke-width:0.25;stroke-miterlimit:10;}
	.st40{fill:#54518C;}
	.st41{opacity:0.25;fill-rule:evenodd;clip-rule:evenodd;fill:#FFFFFF;}
	.st42{fill:#D4A800;}
	.st43{fill:#00AEB3;}
	.st44{fill:#38353B;}
	.st45{fill:#FF8400;}
	.st46{fill:#BF3900;}
	.st47{fill:#00AA9C;}
	.st48{opacity:0.25;clip-path:url(#XMLID_2422_);}
	.st49{fill:none;stroke:#ACABC9;stroke-width:5;stroke-miterlimit:10;}
	.st50{opacity:0.25;clip-path:url(#XMLID_2423_);}
	.st51{fill:#DDDDDD;}
	.st52{opacity:0.25;fill-rule:evenodd;clip-rule:evenodd;fill:#FFFFFF;stroke:#303030;stroke-width:0.5;stroke-miterlimit:10;}
	.st53{fill:#3B86B1;stroke:#303030;stroke-width:0.5;stroke-miterlimit:10;}
	.st54{fill:#D4A800;stroke:#303030;stroke-width:0.5;stroke-miterlimit:10;}
	.st55{fill:#00AEB3;stroke:#303030;stroke-width:0.5;stroke-miterlimit:10;}
	.st56{fill:#FF8400;stroke:#303030;stroke-width:0.5;stroke-miterlimit:10;}
	.st57{fill:#BF3900;stroke:#303030;stroke-width:0.5;stroke-miterlimit:10;}
	.st58{fill:#00AA9C;stroke:#303030;stroke-width:0.5;stroke-miterlimit:10;}
	.st59{opacity:0.25;clip-path:url(#XMLID_2424_);}
	.st60{fill-rule:evenodd;clip-rule:evenodd;fill:#FFFFFF;stroke:#FFFFFF;stroke-miterlimit:10;}
	.st61{fill:#F79748;}
	.st62{fill:#FF7900;}
	.st63{fill:#DD7105;}
	.st64{fill:#02897C;}
	.st65{fill:#0EAD9A;}
	.st66{fill:#28C6AF;}
	.st67{fill:#4FE0C7;}
	.st68{fill:#00AA9C;stroke:#353535;stroke-width:0.5;stroke-miterlimit:10;}
	.st69{fill:#02897C;stroke:#353535;stroke-width:0.5;stroke-miterlimit:10;}
	.st70{fill:#0EAD9A;stroke:#353535;stroke-width:0.5;stroke-miterlimit:10;}
	.st71{fill:#28C6AF;stroke:#353535;stroke-width:0.5;stroke-miterlimit:10;}
	.st72{fill:#4FE0C7;stroke:#353535;stroke-width:0.5;stroke-miterlimit:10;}
	.st73{fill:#D37D00;}
	.st74{fill:#D14600;}
	.st75{fill:#E5B92E;}
	.st76{fill:#DD571B;}
	.st77{fill:#E28A17;}
	.st78{opacity:0.25;clip-path:url(#XMLID_2425_);}
	.st79{opacity:0.77;fill:#FFFFFF;}
	.st80{fill:#50565B;stroke:#656C70;stroke-miterlimit:10;}
	.st81{fill:#808589;stroke:#656C70;stroke-miterlimit:10;}
	.st82{fill:#252728;stroke:#000000;stroke-miterlimit:10;}
	.st83{fill:#1A1B1C;stroke:#000000;stroke-miterlimit:10;}
	.st84{fill:#A0A6AA;}
	.st85{fill:#262C35;stroke:#161A1E;stroke-miterlimit:10;}
	.st86{fill:#181D23;}
	.st87{fill:#EABA96;stroke:#E0AA86;stroke-miterlimit:10;}
	.st88{fill:#E0AA86;}
	.st89{stroke:#000000;stroke-width:0.75;stroke-linecap:square;stroke-linejoin:bevel;stroke-miterlimit:10;}
	.st90{fill:#0F1C3F;stroke:#182951;stroke-miterlimit:10;}
	.st91{fill:#132354;stroke:#3F6093;stroke-miterlimit:10;}
	.st92{fill:#0F1C3F;}
	.st93{fill:none;stroke:#3F6093;stroke-width:0.75;stroke-miterlimit:10;}
	.st94{fill:#DBA682;}
	.st95{fill:none;stroke:#E0AA86;stroke-miterlimit:10;}
	.st96{fill:none;stroke:#E0AA86;stroke-linejoin:bevel;stroke-miterlimit:10;}
	.st97{fill:#8A0A8E;stroke:#AC34B2;stroke-miterlimit:10;}
	.st98{fill:#810C87;}
	.st99{fill:#680B6D;}
	.st100{fill:#AC34B2;stroke:#AC34B2;stroke-width:0.5;stroke-miterlimit:10;}
	.st101{fill:none;stroke:#959DA0;stroke-width:0.5;stroke-miterlimit:10;}
	.st102{fill:#959DA0;stroke:#959DA0;stroke-width:0.5;stroke-miterlimit:10;}
	.st103{fill:none;stroke:#AC34B2;stroke-miterlimit:10;}
	.st104{fill:#282828;stroke:#000000;stroke-miterlimit:10;}
	.st105{fill:#EABA96;stroke:#E0AA86;stroke-width:0.5;stroke-miterlimit:10;}
	.st106{fill:#B7896A;}
	.st107{stroke:#000000;stroke-miterlimit:10;}
	.st108{fill:#C1A578;}
	.st109{stroke:#000000;stroke-width:0.25;stroke-linecap:round;stroke-linejoin:round;stroke-miterlimit:10;}
	.st110{fill:#FFFFFF;stroke:#000000;stroke-width:0.25;stroke-linecap:round;stroke-linejoin:round;stroke-miterlimit:10;}
	.st111{fill:#70582D;}
	.st112{stroke:#000000;stroke-linecap:round;stroke-linejoin:round;stroke-miterlimit:10;}
	.st113{fill:none;stroke:#D8A27D;stroke-width:0.75;stroke-miterlimit:10;}
	.st114{fill:#561409;}
	.st115{fill:#BA2A13;}
	.st116{fill:#9E3025;stroke:#4C2311;stroke-width:0.25;stroke-miterlimit:10;}
	.st117{fill:#871D08;stroke:#4C2311;stroke-width:0.25;stroke-miterlimit:10;}
	.st118{fill:#DDAC8A;}
	.st119{fill:#A5ABAD;stroke:#959DA0;stroke-width:0.5;stroke-miterlimit:10;}
	.st120{fill:#B1BABC;}
	.st121{fill:none;stroke:#153847;stroke-width:5;stroke-miterlimit:10;}
	.st122{fill:#3CA7AF;}
	.st123{fill:#3DAD8D;}
	.st124{fill:#3DAA61;}
	.st125{fill:#67A53F;}
	.st126{fill:#95A340;}
	.st127{opacity:0.25;clip-path:url(#XMLID_2426_);}
	.st128{opacity:0.25;clip-path:url(#XMLID_2427_);}
	.st129{fill:#F79748;stroke:#303030;stroke-width:0.5;stroke-miterlimit:10;}
	.st130{fill:#FF7900;stroke:#303030;stroke-width:0.5;stroke-miterlimit:10;}
	.st131{fill:#DD7105;stroke:#303030;stroke-width:0.5;stroke-miterlimit:10;}
	.st132{opacity:0.25;clip-path:url(#XMLID_2428_);}
	.st133{clip-path:url(#SVGID_2_);}
	.st134{fill:none;stroke:#3F6093;stroke-miterlimit:10;}
	.st135{fill:none;stroke:#3F6093;stroke-width:0.75;stroke-linecap:round;stroke-linejoin:round;}
	.st136{fill:none;stroke:#3F6093;stroke-width:0.75;stroke-linecap:round;stroke-linejoin:round;stroke-dasharray:0.9892,0.9892;}
	
		.st137{fill:none;stroke:#3F6093;stroke-width:0.75;stroke-linecap:round;stroke-linejoin:round;stroke-miterlimit:10;stroke-dasharray:1;}
	.st138{fill:#EAEAEA;stroke:#FFFFFF;stroke-width:0.25;stroke-miterlimit:10;}
	.st139{fill:#D8D8D8;}
	.st140{fill:#282828;stroke:#000000;stroke-width:0.75;stroke-miterlimit:10;}
	.st141{opacity:0.33;fill:#FFFFFF;}
	.st142{fill:none;stroke:#000000;stroke-width:1.5;stroke-linecap:round;stroke-linejoin:round;stroke-miterlimit:10;}
	.st143{clip-path:url(#SVGID_4_);}
	.st144{opacity:0.64;}
	.st145{fill:#1D1D1B;}
	.st146{fill:#C9C9C9;}
	.st147{fill:#545477;}
</style>
<g>
	<defs>
		
			<rect id="XMLID_2202_" x="-353.407" y="-448.073" transform="matrix(-1.836970e-16 1 -1 -1.836970e-16 -378.422 -104.7559)" width="433.1479" height="412.9682"/>
	</defs>
	<clipPath id="XMLID_2411_">
		<use xlink:href="#XMLID_2202_"  style="overflow:visible;"/>
	</clipPath>
	<g class="st23">
		<path class="st3" d="M-284.0748,64.1562c0.0486-0.2911,0.0401-0.5874,0.0591-0.8789l130.742,1.0233
			c0.5313,3.5998,3.2854,6.6133,7.0644,7.2421c4.6905,0.7804,9.1295-2.3839,9.9107-7.0794c0.3661-2.1991-0.16-4.3201-1.272-6.0558
			l104.424-74.6396c1.2443,1.3182,2.8833,2.2667,4.8055,2.5867c4.6912,0.7807,9.126-2.389,9.9072-7.0841
			c0.6718-4.0378-1.5845-7.8665-5.2192-9.36L17.8074-154.383c4.6377,0.6938,8.9904-2.4458,9.763-7.0896
			c0.7805-4.6907-2.3882-9.1304-7.0792-9.9107c-1.5555-0.2589-3.068-0.0516-4.4401,0.4733l-38.6026-122.038
			c2.0965-1.2495,3.6681-3.3498,4.0997-5.9443c0.7806-4.6907-2.3934-9.1314-7.0841-9.9117
			c-3.0734-0.5113-6.0231,0.6978-7.9151,2.8945l-101.7764-75.1574c0.6885-1.0008,1.1894-2.1542,1.4029-3.437
			c0.7805-4.6911-2.3929-9.1317-7.0836-9.9121c-4.6905-0.7804-9.1266,2.3937-9.9072,7.0848
			c-0.0508,0.3051-0.0425,0.6064-0.0598,0.9125l-125.0645-0.9771c0.1029-4.2188-2.8731-7.9889-7.1592-8.702
			c-4.6954-0.7814-9.1269,2.3938-9.9073,7.0845c-0.2456,1.4758-0.0632,2.9071,0.3938,4.2239l-107.4879,76.8255
			c-1.2152-1.1734-2.7807-2.0133-4.5616-2.3098c-4.6955-0.781-9.1317,2.3931-9.9121,7.0838
			c-0.5911,3.5533,1.0888,6.9533,3.9715,8.7322l-41.4238,124.1885c-0.2273-0.0574-0.445-0.142-0.6849-0.1818
			c-4.6996-0.782-9.1294,2.3839-9.9107,7.0791c-0.7804,4.6907,2.3839,9.1297,7.0838,9.9117
			c1.4802,0.2463,2.9224,0.0564,4.2501-0.404l39.243,124.0523c-2.0917,1.2512-3.6569,3.343-4.0883,5.9372
			c-0.7807,4.6907,2.3938,9.1266,7.0889,9.908c3.149,0.5239,6.1597-0.762,8.05-3.0658l101.3791,74.874
			c-0.7155,1.0209-1.2336,2.1906-1.4493,3.4877c-0.7814,4.6955,2.3873,9.1348,7.078,9.9155
			C-289.2866,72.0268-284.8562,68.8517-284.0748,64.1562z M-399.1339-21.0461c0.0282-0.1688,0.0109-0.3265,0.0333-0.4872
			l17.9964,1.1062c-0.0238,3.5699,2.5212,6.7369,6.1587,7.3423c2.8905,0.4811,5.66-0.8065,7.2411-3.0501l22.3457,16.9721
			l16.5437,12.5671c-0.1169,0.179-0.1943,0.3832-0.2925,0.5697l-70.5788-33.1509
			C-399.4343-19.7626-399.2426-20.3924-399.1339-21.0461z M-406.2167-30.9623c-0.6343-0.1057-1.2516-0.1114-1.8706-0.0795
			l0.4063-34.1684c1.1707-0.071,2.321-0.425,3.3793-1.0365l26.184,39.9164c-1.4931,1.1092-2.584,2.7583-2.9132,4.7366
			c-0.0204,0.1223-0.0054,0.2361-0.0204,0.3543l-18.0011-1.1068C-398.9899-26.528-401.9581-30.2539-406.2167-30.9623z
			 M-445.6313-160.5447c0.5395-3.2428-0.8249-6.3344-3.2618-8.2083l17.6037-25.2402c1.4507,0.8884,3.15,1.2723,4.828,1.1171
			l8.9683,59.6329l-2.2392,29.5695c-1.2537-0.1022-2.4682,0.087-3.5564,0.5585l-25.9003-51.8102
			C-447.3643-156.1961-446.0261-158.171-445.6313-160.5447z M-406.9974-293.2494c4.4984,0.4828,8.6608-2.5871,9.414-7.1137
			c0.3075-1.8471-0.0275-3.6368-0.798-5.1895l23.5222-10.1278c0.1848,0.3693,0.3747,0.7386,0.6207,1.0885
			c0.7845,1.0916,1.8067,1.8848,2.9333,2.4301l-6.0649,11.6892c-0.3601,0.4807-0.6479,1.0175-0.8425,1.6083l-28.8003,55.4644
			c-0.3958-0.1774-0.7919-0.3204-1.2387-0.3948c-0.2681-0.0445-0.5395-0.0656-0.8001-0.0703L-406.9974-293.2494z
			 M-276.3913-384.7996l20.6161,5.57c-0.2375,1.1051-0.2361,2.2596,0.0221,3.3797l-64.4951,32.2381
			c-0.2083-1.9137-1.1385-3.6379-2.5793-4.8487l32.7501-32.5788c1.1466,0.9734,2.5517,1.6756,4.1499,1.9416
			C-281.7119-378.3963-277.7363-380.894-276.3913-384.7996z M-165.0731-364.4033l-15.1187,14.6602
			c-1.0211-0.9475-2.3197-1.6175-3.8001-1.8638c-3.0836-0.513-6.0252,0.9683-7.5419,3.4932l-49.6746-26.2336
			c0.3798-0.8304,0.6407-1.7045,0.7138-2.6054L-165.0731-364.4033z M-137.102-379.1182l15.7729,18.6511
			c-0.6892,0.6584-1.2278,1.4282-1.6294,2.2453l-40.4019-6.7223l15.1705-14.7102c1.1948,1.1215,2.706,1.9382,4.4544,2.229
			C-141.2822-377.017-138.926-377.7066-137.102-379.1182z M-111.511-348.4969c0.0876-0.0629,0.1539-0.1434,0.2436-0.2154
			l33.6408,34.1725l-52.8681-13.1096c0.0275-0.107,0.0627-0.2025,0.08-0.3058c0.1916-1.1514,0.0168-2.2769-0.4271-3.2689
			l-0.3504-0.6231c-0.303-0.4994-0.6798-0.9343-1.1187-1.3165l11.8725-15.2972
			C-117.8185-346.6434-114.2521-346.5384-111.511-348.4969z M-25.8028-255.4125l1.3873,9.2537
			c-2.3591,0.3319-4.4077,1.788-5.5037,3.9046l-1.8631,0.3374l3.6861-13.6451C-27.3491-255.4091-26.5767-255.3483-25.8028-255.4125z
			 M-13.8251-130.5207c0.148,0.213,0.3211,0.3917,0.4835,0.5779l-11.2392,10.9106c-0.4902-0.2456-1.0092-0.4386-1.5776-0.5331
			c-1.0579-0.176-2.0781-0.0224-3.0046,0.3503l-15.4562-60.3552l0.293-0.7141c2.3588-0.9118,4.1961-2.9829,4.641-5.6569
			c0.2511-1.5088,0.0243-2.9907-0.5675-4.282l16.9176-41.2655c0.3785-0.0095,0.7437-0.0547,1.1108-0.1148l13.3794,88.9472
			c-1.1092,0.1923-2.1977,0.6102-3.1782,1.3066C-15.51-138.8578-16.3162-134.0118-13.8251-130.5207z M-33.1709-61.1663
			c-0.4661,2.8011,0.7318,5.4735,2.851,7.077L-44.4078-33.229c-0.3071-0.1573-0.6385-0.2854-0.9909-0.3438
			c-0.874-0.1454-1.7097,0.0588-2.3961,0.495l-5.1363-10.5538l25.9907-50.0435l0.6679,26.3484
			C-29.6595-67.1467-32.5915-64.6489-33.1709-61.1663z M-328.3686,12.841L-345.848-0.4327l-21.4698-16.314
			c0.4162-0.7325,0.7389-1.539,0.885-2.4179c0.5718-3.4357-1.3348-6.6945-4.4019-8.0018l1.9182-5.255l42.9546,43.6297
			C-326.8914,11.5412-327.7187,12.0994-328.3686,12.841z M-403.6092-66.6626c0.1923-0.1424,0.3506-0.3088,0.5303-0.458
			l33.6041,34.1327l-2.0302,5.5842c-0.3353-0.1043-0.6642-0.2168-1.0124-0.2748c-1.7673-0.2939-3.4738,0.0938-4.9116,0.9264
			L-403.6092-66.6626z M-408.7678-80.6545l-7.9725-53.019l7.4782-98.8223c0.9299,0.015,1.8128-0.1865,2.6041-0.586l2.7413,4.7454
			l24.5845,42.4763c-1.2709,0.8459-2.2038,2.1835-2.4729,3.8003c-0.4386,2.637,1.023,5.1453,3.3766,6.1553l-28.589,95.324
			C-407.5923-80.6664-408.181-80.6966-408.7678-80.6545z M-420.8745-205.0897c-0.9513-1.3369-2.2501-2.2674-3.6814-2.7814
			l13.0431-25.1196c0.4403,0.1987,0.8962,0.3611,1.3898,0.4433c0.0513,0.0085,0.0962,0.0017,0.1434,0.0095l-7.2339,95.6702
			l-8.4448-56.1065c1.045-0.213,2.0649-0.6224,2.9822-1.2866C-419.1847-196.7516-418.3778-201.6019-420.8745-205.0897z
			 M-310.7928-277.6474l7.0899-45.0165c3.9025,0.4658,7.5126-2.1889,8.1642-6.104c0.071-0.4274,0.0907-0.864,0.088-1.2849
			l56.6562,6.4855c-0.049,0.1753-0.1091,0.3346-0.1403,0.5228c-0.2229,1.3392,0.0676,2.6435,0.6965,3.7385l-66.6413,43.7724
			c-0.85-1.1317-2.1104-1.945-3.61-2.1947C-309.279-277.8594-310.0569-277.8292-310.7928-277.6474z M-320.2816-341.6129
			c0.0625-0.3758,0.0713-0.7464,0.0703-1.1184l64.7146-32.3369c0.2382,0.6873,0.5443,1.3708,0.9825,1.9895
			c2.5015,3.4884,7.3471,4.2946,10.8338,1.8026c0.0829-0.0639,0.1441-0.14,0.2266-0.2038l8.6941,43.8651
			c-1.7119,0.4498-3.149,1.6834-3.8237,3.3582l-56.9099-6.3826c-0.2908-3.275-2.7332-6.0724-6.122-6.6364
			c-2.9044-0.4831-5.6746,0.8092-7.2584,3.0722l-11.993-5.575C-320.606-340.3583-320.3903-340.96-320.2816-341.6129z
			 M-122.3356-350.2979c0.3632,0.5188,0.7931,0.953,1.2492,1.3474l-11.8727,15.2972c-0.2047-0.1305-0.4164-0.2528-0.64-0.3622
			l-0.664-0.2752c-0.2709-0.0836-0.5507-0.1739-0.8419-0.2221c-0.7427-0.1237-1.4721-0.0952-2.1653,0.0649l-0.6876,0.214
			c-1.5976,0.5745-2.8991,1.8359-3.4699,3.4945l-36.6534-11.7161c0.0549-0.213,0.1373-0.4168,0.1748-0.6428
			c0.1087-0.653,0.0936-1.2879,0.0382-1.9154l54.2561-8.2358C-123.4074-352.2154-122.9902-351.209-122.3356-350.2979z
			 M-132.86-324.1744l20.3667,28.4619c-1.0243,0.8442-1.7753,2.0184-2.0202,3.432l-79.9259-8.7876
			c-0.0119-0.4518-0.1169-0.8942-0.2968-1.2957l53.5501-24.08c0.7775,1.6266,2.2973,2.8555,4.2103,3.1738
			C-135.4813-323.0213-134.0247-323.3878-132.86-324.1744z M-58.0584-301.686l-2.1587,3.6837l-8.3858-8.5297l1.7243-0.6696
			l3.1126-1.2013C-63.5649-305.1961-61.2813-302.4351-58.0584-301.686z M-60.6363-297.2799l-36.8323,63.0343
			c-0.504-0.2528-1.0389-0.4627-1.6265-0.5606c-0.4607-0.0764-0.9142-0.0791-1.3644-0.0435l-1.1153-7.8122l-6.1684-43.0776
			c2.2418-0.4675,4.0736-2.2443,4.4709-4.6319c0.1532-0.9214,0.0511-1.8176-0.2117-2.6489l34.0546-13.1905L-60.6363-297.2799z
			 M-32.7915-258.609c1.0031,1.4034,2.3897,2.3588,3.9124,2.8439l-3.784,14.0059l-34.4798,6.2514l-27.3529,4.9639
			c-0.3382-1.365-1.1819-2.5633-2.3452-3.3508l36.7293-62.8536l27.9278,28.363C-34.6238-265.7383-34.9661-261.6514-32.7915-258.609z
			 M-64.7431-66.2603l10.9564,22.5155l-9.4951,18.2814c-2.2779-0.7651-4.8799-0.4834-6.9859,1.026
			c-0.8984,0.6377-1.5966,1.4391-2.1206,2.3227l-46.6863-25.3258c0.4016-0.6142,0.6798-1.326,0.8096-2.1064
			c0.1267-0.7614,0.0956-1.5053-0.0673-2.2086l32.4939-11.8516l13.245-4.8242c0.812,1.4778,2.2545,2.5918,4.0544,2.8915
			C-67.176-65.3128-65.8515-65.609-64.7431-66.2603z M-85.4085,6.8159l16.5867-17.8507c0.5269,0.2279,1.0637,0.3995,1.6207,0.5065
			L-85.4085,6.8159z M-153.1848,61.243l-96.8584-16.1163c0.0245-0.2371,0.0401-0.4756,0.0448-0.707l53.3556-0.2704
			c0.1755,2.5745,2.0812,4.7947,4.7461,5.2384c0.3759,0.0625,0.754,0.0819,1.1242,0.0663l1.3194-1.0511
			c2.6413,2.0095,6.358,2.1977,9.1966,0.1729c0.8611-0.6149,1.5359-1.3916,2.0576-2.2321l25.6,13.1471
			C-152.85,60.0431-153.0481,60.6233-153.1848,61.243z M-252.2315,39.0006l3.8186-6.1995l52.2362,8.6914
			c-0.1854,0.4189-0.3355,0.8572-0.4145,1.3317c-0.0343,0.2069-0.0289,0.4063-0.043,0.6068l-53.3854,0.2748
			C-250.172,41.8934-250.9626,40.2308-252.2315,39.0006z M-378.7071-186.2198l-22.7234-39.2634l-4.6078-7.9539
			c0.8731-0.5749,1.5594-1.3881,2.0146-2.3554l79.0103,30.4337l7.4032,2.8545c-0.0754,0.2487-0.161,0.5001-0.2049,0.7634
			c-0.1288,0.7753-0.0968,1.5438,0.0815,2.2691l-53.131,16.3392c-0.6999-1.8312-2.3007-3.2713-4.3782-3.6168
			C-376.4791-186.9553-377.6705-186.7335-378.7071-186.2198z M-231.3935-236.3731l-9.9967-39.5172
			c1.9651-0.6346,3.5159-2.2935,3.8791-4.475c0.1678-1.01,0.0428-1.997-0.2952-2.8983l36.8398-16.3164
			c0.2142,0.4848,0.5502,0.903,0.9635,1.2373l-28.344,62.5006c-0.4739-0.2286-0.9744-0.4135-1.5196-0.5038
			C-230.3838-236.4322-230.8917-236.4247-231.3935-236.3731z M-228.6288-318.8857l14.5992,8.7516l13.0434,7.8268
			c-0.1041,0.2484-0.1902,0.5045-0.2356,0.777c-0.072,0.4328-0.0552,0.8554,0.0369,1.2621l-34.8128,15.4216l-2.0958,0.9265
			c-0.6883-1.3219-1.8801-2.3415-3.3644-2.8008l7.1674-29.7784c0.0139,0.002,0.0326,0.0054,0.0517,0.0085
			C-231.9921-316.1172-229.844-317.1269-228.6288-318.8857z M-189.2099-338.1004l-3.5453,12.6833l-34.9281,2.5347
			c-0.0618-0.4691-0.2008-0.9125-0.3656-1.3457l35.841-17.8007C-191.6789-340.4194-190.6412-339.0197-189.2099-338.1004z
			 M-227.6829-321.1721c0.0564-0.3384,0.0669-0.6652,0.069-0.9937l34.6504-2.5181l-5.7074,20.3953
			c-0.8007,0.195-1.4911,0.6886-1.9652,1.3586l-27.6273-16.5807C-227.9904-320.0211-227.7832-320.5708-227.6829-321.1721z
			 M-108.4501-285.64l6.2229,43.5027l1.0603,7.3875c-2.2485,0.4522-4.0912,2.2368-4.4884,4.6245
			c-0.0518,0.3105-0.0577,0.6084-0.0589,0.903l-47.6117,2.617l-18.6648,1.0243c-0.1364-1.1242-0.6004-2.1672-1.3159-3.006
			l60.5687-58.5148c0.7839,0.7196,1.7754,1.2322,2.9035,1.4201C-109.3643-285.6036-108.9057-285.6046-108.4501-285.64z
			 M-62.358-149.6865c-0.4106,2.4675,1.096,4.7957,3.4193,5.52l-8.6636,47.044c-0.379-0.0438-0.7537-0.0533-1.1262-0.0231
			l-5.6072-38.9903l-2.194-15.232c1.9056-0.0163,3.6421-0.9883,4.6754-2.5259l9.5479,4.0129
			C-62.3173-149.8145-62.3472-149.7517-62.358-149.6865z M-77.5284-151.4327c0.089,0.015,0.1777,0.0054,0.2679,0.0156
			l7.8209,54.3653c-0.8506,0.1777-1.6306,0.5405-2.3027,1.0661l-0.8667-1.0039l-62.7347-71.6996
			c0.5489-0.7155,0.9501-1.5567,1.1079-2.5059c0.0056-0.0333,0.0014-0.0676,0.0077-0.1053l44.5796,11.7749l7.402,1.9606
			C-82.518-154.6252-80.4941-151.926-77.5284-151.4327z M-72.3877-14.1634l-28.4216,14.1999l-20.3496-45.5434
			c0.6272-0.3452,1.186-0.8028,1.646-1.3589l46.8045,25.37C-73.7991-19.2095-73.7543-16.4583-72.3877-14.1634z M-95.4081,12.1361
			l-5.075-11.359l28.527-14.2556c0.6606,0.8779,1.4731,1.5689,2.3724,2.0853l-22.3226,24.0498
			c-0.4697-0.3394-1.0121-0.5938-1.618-0.6947C-94.1869,11.8518-94.8239,11.9343-95.4081,12.1361z M-139.808,31.5607
			l-1.7664-10.2535l9.6024-4.7923l-1.6975,14.4108c-0.41-0.1454-0.8201-0.267-1.2619-0.3408
			C-136.689,30.2929-138.3931,30.6951-139.808,31.5607z M-141.7127,20.4827l-3.3741-19.549
			c0.5662,0.2534,1.1638,0.4641,1.803,0.5704c4.0282,0.6703,7.8431-2.0516,8.5132-6.0795c0.671-4.0326-2.0568-7.8434-6.0852-8.5137
			c-2.3871-0.3971-4.6768,0.4148-6.307,1.9691l-3.6233-21.0442c2.1631-0.5144,3.9154-2.2806,4.3034-4.6119
			c0.168-1.01,0.0368-1.9932-0.294-2.8793l17.7079-7.7816l0.3061-0.1274c0.8285,1.3793,2.2205,2.4176,3.9407,2.7036
			c0.0326,0.0058,0.0719,0.0024,0.105,0.0078l-7.1431,60.4058L-141.7127,20.4827z M-193.5267,38.688l-25.7892-43.9711
			c1.2514-0.845,2.1778-2.1736,2.4461-3.7853c0.1548-0.9309,0.0494-1.8373-0.221-2.6792l59.8223-23.548
			c0.5025,1.0739,1.3408,1.9569,2.3975,2.5436l-32.2678,67.653c-0.745,0.2385-1.4748,0.5612-2.1439,1.0396
			c-0.8332,0.5956-1.4877,1.3369-1.9999,2.1498C-192.0737,38.1421-192.8349,38.3347-193.5267,38.688z M-314.4718,13.6805
			c-1.0736,0.0384-2.1454,0.3241-3.1565,0.8269l-1.0454,0.2752c-0.3961-1.1911-1.1642-2.2365-2.2212-2.9391l50.8504-86.9298
			c0.4994,0.2474,1.0348,0.4573,1.6175,0.5541c1.3209,0.2198,2.6044-0.0642,3.6899-0.6662l38.8653,60.6035
			c-1.1561,0.851-1.9966,2.1311-2.2501,3.6542c-0.1158,0.6954-0.089,1.3759,0.0435,2.0309L-309.756,12.451L-314.4718,13.6805z
			 M-192.8729-99.6168l-32.4237-31.5888c0.5065-0.6934,0.8765-1.4966,1.0284-2.4084c0.1407-0.8456,0.0758-1.6732-0.1423-2.4532
			l14.9171-6.4536l64.2446-27.8018c0.3373,0.993,0.936,1.8655,1.7321,2.5385l-42.2799,66.5723l-0.5293,0.8296
			c-0.5477-0.3081-1.147-0.5385-1.7957-0.6465C-189.9077-101.326-191.622-100.7464-192.8729-99.6168z M-224.6406-136.748
			c-0.3469-0.816-0.8758-1.5271-1.5471-2.1074l7.235-12.7118l38.8337-68.2418c0.4831,0.2303,0.9971,0.422,1.5565,0.5151
			c1.4476,0.2409,2.8475-0.1009,3.9931-0.833l31.6447,43.2111c-1.3132,0.8395-2.2874,2.194-2.5628,3.8485
			c-0.1165,0.7002-0.081,1.3871,0.045,2.0506L-224.6406-136.748z M-180.758-220.1518l-18.9344,33.2977l-27.0641,47.5563
			c-0.6136-0.4063-1.31-0.6913-2.0778-0.8381l-1.0498-84.9879c2.3241-0.3809,4.2582-2.1651,4.6883-4.6051l41.8955,4.565
			C-183.393-223.1261-182.4038-221.2325-180.758-220.1518z M-231.7383-225.099c0.3808,0.0635,0.7637,0.0836,1.1381,0.0686
			l1.0494,84.8188c-1.6311-0.0979-3.1592,0.4933-4.2796,1.5675l-59.4807-47.5383l-14.2186-11.3597
			c0.4791-0.6737,0.8269-1.4568,0.9713-2.3259c0.1464-0.8789,0.0632-1.7428-0.1767-2.5364l23.885-8.7098l46.9367-17.109
			C-235.1302-226.6295-233.6276-225.4133-231.7383-225.099z M-293.6892-185.5644l59.374,47.453
			c-0.5966,0.7413-1.0321,1.6158-1.2002,2.6258c-0.3911,2.3503,0.7131,4.5966,2.6224,5.7789l-24.2849,34.3349l-7.3233,10.369
			c-0.6173-0.3832-1.3022-0.6512-2.054-0.7766c-0.8932-0.1484-1.7673-0.0618-2.5701,0.1763l-20.2482-54.6317l-20.5033-55.3651
			c0.7247-0.319,1.3681-0.7916,1.9056-1.3783L-293.6892-185.5644z M-256.6786-94.8299l24.432-34.5517
			c0.4492,0.2049,0.9088,0.373,1.4164,0.4576c1.946,0.3237,3.8254-0.3778,5.0865-1.7136l32.3668,31.5266
			c-0.6542,0.7651-1.1323,1.6949-1.3107,2.7668c-0.0679,0.4083-0.0863,0.8065-0.0649,1.2013l-67.3873,13.1025
			c-0.3513-0.9951-0.9679-1.876-1.7904-2.5341L-256.6786-94.8299z M-194.5751-93.9731c0.4212,1.5917,1.5222,2.9292,3.0183,3.661
			l-29.3107,74.874c-0.2249-0.0717-0.4479-0.1522-0.6925-0.1926c-1.2032-0.2005-2.3827,0.0095-3.4019,0.5018l-38.9088-60.6592
			c1.0196-0.8446,1.7673-2.0295,2.001-3.4343c0.0945-0.5691,0.0799-1.1174,0.0071-1.6657L-194.5751-93.9731z M-186.3076-90.4484
			l30.8287,48.1424c-1.1561,0.851-2.0015,2.1305-2.2557,3.6576c-0.1549,0.9308-0.0542,1.8363,0.2201,2.6839l-59.8228,23.548
			c-0.5595-1.1942-1.5343-2.1583-2.7621-2.7345l29.3116-74.8499c0.2577,0.0771,0.5188,0.1641,0.796,0.2103
			C-188.6709-89.5708-187.3895-89.8409-186.3076-90.4484z M-178.4539,37.7425c-1.8177-2.5443-4.8862-3.6386-7.7697-3.0895
			l8.605-18.0392l23.3841-49.0376c0.3813,0.1454,0.7722,0.2633,1.1952,0.3336c0.5218,0.087,1.0355,0.0758,1.5368,0.0238
			l3.7267,21.6122c-0.7895,0.9699-1.3688,2.1291-1.5886,3.4504c-0.5122,3.0783,0.9654,6.0146,3.4847,7.5349l3.4937,20.2835
			l-35.5809,17.7766C-178.1181,38.3103-178.2625,38.0157-178.4539,37.7425z M-123.994-44.8149
			c0.7598,0.02,1.5028-0.1169,2.185-0.3853l20.3511,45.5635l-29.6328,14.8056L-123.994-44.8149z M-129.1114-48.1973l-17.9458,7.8771
			c-0.8014-1.539-2.274-2.7063-4.1114-3.0121c-1.3303-0.2215-2.602,0.0496-3.6931,0.6557l-17.1882-26.8366l-13.6413-21.301
			c0.4124-0.3034,0.7681-0.669,1.087-1.0749l55.7635,38.6125c-0.321,0.5647-0.5636,1.1813-0.6762,1.8577
			C-129.7056-50.286-129.5415-49.1819-129.1114-48.1973z M-184.1793-92.4705c0.356-0.6023,0.626-1.2679,0.7479-2.0007
			c0.3667-2.2045-0.5979-4.3017-2.2869-5.5295l0.6404-1.0049l42.1335-66.3304c0.6377,0.406,1.3571,0.6992,2.1464,0.8303
			c0.5453,0.0907,1.0758,0.0683,1.5973,0.0102l3.3696,25.9336l10.978,84.4804c-1.4429,0.2524-2.7279,1.0382-3.5939,2.2083
			L-184.1793-92.4705z M-122.9503-56.1077c-0.4043-0.0672-0.8011-0.0903-1.1959-0.069L-137.509-159.041l-0.9798-7.5537
			c1.0236-0.2596,1.944-0.7967,2.6749-1.5305l17.5167,20.0134l46.009,52.5909c-0.8208,0.8099-1.4079,1.8716-1.612,3.0984
			c-0.2448,1.4707,0.1099,2.8826,0.8588,4.0411l-46.2925,34.4885C-120.1835-55.029-121.4463-55.8573-122.9503-56.1077z
			 M-90.2018-160.4099l-43.9778-11.6162c0.0387-1.9453-0.9169-3.7221-2.4585-4.7903l33.6306-47.5118
			c0.6146,0.3727,1.2939,0.6448,2.041,0.7691c0.785,0.1308,1.5597,0.0904,2.2849-0.088l19.0625,61.7858
			c-1.2511,0.7872-2.1797,2.0425-2.5217,3.575L-90.2018-160.4099z M-137.2648-177.172c-0.5067-0.263-1.0602-0.4807-1.6617-0.5806
			c-1.1937-0.1987-2.3559-0.0058-3.3729,0.4726l-16.4216-22.4153l-15.2709-20.857c1.0095-0.8415,1.7564-2.0214,1.9895-3.4221
			c0.05-0.3007,0.0559-0.5945,0.0556-0.8843l66.283-3.6498c0.1721,1.4921,0.9298,2.8307,2.0809,3.751L-137.2648-177.172z
			 M-173.7934-229.117c-0.7841-0.7151-1.776-1.2278-2.8993-1.4147c-0.7143-0.1189-1.4118-0.0802-2.081,0.0547l-18.2519-67.1818
			c1.2601-0.3167,2.2757-1.3406,2.5254-2.6955l79.9269,8.7835c-0.0678,1.4809,0.4352,2.8687,1.3481,3.9433L-173.7934-229.117z
			 M-210.6213-273.1958l11.2234-24.7514c0.3073,0.1576,0.6338,0.284,0.9862,0.3428c0.2256,0.0374,0.4456,0.0503,0.6693,0.0439
			l9.2797,34.1623l8.9984,33.1207c-1.91,0.6523-3.4152,2.2667-3.7833,4.3934l-41.4658-4.5086l-0.4212-0.0506
			c0.1029-2.0697-0.902-3.9854-2.5769-5.0658L-210.6213-273.1958z M-236.4328-231.6617c-0.1603,0.9635-0.0421,1.9107,0.2585,2.7719
			l-47.3892,17.2751l-23.4053,8.5243c-0.7454-1.7034-2.3061-3.0066-4.2847-3.3358c-0.1172-0.0197-0.2357-0.0058-0.354-0.0204
			l2.3183-59.9719c1.9637-0.0452,3.733-1.0987,4.7291-2.7342l33.0096,17.3023l35.6262,18.6698
			C-236.1525-232.7063-236.3428-232.2022-236.4328-231.6617z M-310.3596-266.4902c0.1131,0.0187,0.2354,0.0099,0.3537,0.0245
			l-2.3184,59.9726c-2.1814,0.0476-4.1241,1.3569-5.0298,3.3168l-27.2756-10.5083l-59.1365-22.7846
			c0.0754-0.2484,0.1651-0.4991,0.209-0.7621c0.14-0.8415,0.0741-1.664-0.1414-2.4294l46.7148-15.8944l42.2962-14.3891
			C-313.9605-268.1858-312.3804-266.8265-310.3596-266.4902z M-317.5032-198.7961c0.5663,1.4755,1.7054,2.6988,3.2251,3.29
			l-29.937,92.8056c-0.1631-0.037-0.3034-0.0941-0.4682-0.1213c-0.8785-0.1464-1.7371-0.0669-2.5351,0.1719l-26.6838-73.2596
			c1.7092-0.7495,3.0254-2.3031,3.3539-4.2773c0.1308-0.7851,0.089-1.5502-0.0812-2.2691L-317.5032-198.7961z M-343.533-102.5049
			l13.0948-40.5541l16.8566-52.2491c0.1525,0.0398,0.2972,0.1023,0.4569,0.1291c0.8928,0.1485,1.7574,0.0608,2.5704-0.1807
			l40.7515,109.9961c-1.5067,0.6673-2.6785,1.9888-3.148,3.6498l-18.9657-4.1359l-48.069-10.4862
			C-339.5789-99.0117-341.0992-101.5444-343.533-102.5049z M-291.9172-85.121l18.7835,4.1013
			c-0.3312,2.2487,0.6809,4.3832,2.4614,5.5828L-321.522,11.493c-0.4943-0.2514-1.0304-0.4566-1.6083-0.5524
			c-0.5643-0.0941-1.1031-0.0771-1.6409-0.0075L-344.204-91.6813c1.9174-0.4923,3.4782-1.9762,4.0459-3.9637L-291.9172-85.121z
			 M-347.8986-92.0013l-21.2629,58.1771l-33.3113-33.8331c1.9069-2.0544,2.5239-4.9801,1.6881-7.6209l50.5331-18.6073
			C-349.6638-93.063-348.8536-92.4165-347.8986-92.0013z M-359.3487-58.6027l12.1292-33.155
			c0.2215,0.0612,0.4403,0.1406,0.6655,0.178c0.5592,0.0931,1.099,0.072,1.6358,0.0116l19.3282,101.993l-43.0131-43.6875
			L-359.3487-58.6027z M-307.8619,16.9199c-1.148-1.6059-2.8011-2.6156-4.5881-3.0236l12.5196-3.2784l72.0417-18.839
			c0.3873,1.1558,1.1194,2.1567,2.1135,2.8582l-6.3744,10.353l-5.8794,9.5611c-3.7972-0.3177-7.2703,2.2973-7.906,6.1183
			c-0.3051,1.8332,0.1199,3.6036,1.0202,5.0722l-3.8067,6.1866l-57.7681-9.6118
			C-306.2798,20.4722-306.6929,18.5445-307.8619,16.9199z M-244.4726,26.3951c1.1007,1.4245,2.6998,2.4682,4.6173,2.7872
			c4.0279,0.6703,7.8434-2.0567,8.5134-6.0847c0.6601-3.9667-1.9742-7.699-5.8957-8.458l8.0779-13.1321l3.9994-6.5025
			c0.5313,0.2911,1.1031,0.512,1.7282,0.6159c1.2455,0.2072,2.4468-0.0177,3.4918-0.549l12.8153,21.8537l12.9789,22.1181
			c-0.6519,0.4373-1.2122,1.0155-1.639,1.6929l-52.1703-8.6806L-244.4726,26.3951z M-177.6039,39.3132l35.3594-17.6682
			l1.7841,10.3534c-1.3744,1.0606-2.3754,2.6088-2.6819,4.4512c-0.09,0.5405-0.1018,1.0749-0.0729,1.5964l-33.8204,3.9749
			C-177.0719,41.1069-177.2429,40.19-177.6039,39.3132z M-132.9915,31.2363l1.7887-15.1053l30.0756-15.0264l5.061,11.3281
			c-0.9898,0.55-1.7362,1.5227-1.9372,2.7304c-0.122,0.7331-0.02,1.4554,0.2448,2.0985l-32.234,16.7347
			C-130.6944,32.8164-131.7228,31.8536-132.9915,31.2363z M-58.9904-21.8465l10.0583-6.0782l-9.1672,8.7339
			C-58.2262-20.1105-58.5228-21.0002-58.9904-21.8465z M-48.3732-32.6184c-0.4916,0.4878-0.8488,1.1238-0.9708,1.8573
			c-0.1165,0.7002-0.0124,1.3793,0.2596,1.98l-10.3065,6.2355c-0.0197-0.0272-0.0289-0.0578-0.0526-0.0907
			c-0.814-1.1449-1.8944-1.9674-3.0845-2.5079l9.1849-17.6957L-48.3732-32.6184z M-92.1312-62.0748l-26.4256,9.6345
			c-0.1111-0.2888-0.2383-0.5707-0.3919-0.8378l5.4862-4.0867L-72.6-87.811c0.8398,0.99,2.0034,1.7197,3.39,1.9504
			c0.3474,0.0577,0.6927,0.0717,1.0328,0.0612l0.0761,0.9638c-2.2091,0.9703-3.9035,2.9971-4.3297,5.5591
			c-0.2526,1.5179-0.019,3.0155,0.5899,4.3194c-0.708,0.7712-1.2128,1.7449-1.399,2.8636c-0.1751,1.0525-0.027,2.0774,0.3358,3.0022
			L-92.1312-62.0748z M-63.922-85.3622c-1.2081-0.2008-2.3853-0.0639-3.4772,0.2861l-0.0618-0.7882
			c2.3907-0.3455,4.3951-2.176,4.8128-4.686c0.197-1.1843,0.0109-2.3312-0.4584-3.3416l13.8233-7.5438l17.3817-9.4779
			c0.2076,0.3193,0.4371,0.6231,0.7002,0.8989l-27.034,29.3758C-59.1362-83.035-61.2196-84.9124-63.922-85.3622z M-63.4662-94.5167
			c-0.7654-1.2047-1.9643-2.0996-3.434-2.4696l7.8592-42.6472l0.8021-4.3537c1.1854,0.1879,2.3267-0.0815,3.2861-0.6512
			l23.8067,26.6875c-0.8013,0.8086-1.3769,1.8573-1.5788,3.0702c-0.1962,1.1796-0.0061,2.332,0.4626,3.3467L-63.4662-94.5167z
			 M-30.6005-118.4156l-23.7624-26.6314c0.91-0.7376,1.5658-1.7778,1.7717-3.0141c0.3722-2.2372-0.8257-4.354-2.7829-5.2788
			l10.2367-24.9732l15.2293,59.4525C-30.1439-118.7214-30.3834-118.5872-30.6005-118.4156z M-56.0426-153.591
			c-0.2059-0.0679-0.4024-0.1349-0.6185-0.1709c-2.3877-0.3972-4.6518,0.9893-5.4573,3.188l-9.3899-3.9484
			c0.248-0.5042,0.4503-1.0216,0.5458-1.5947c0.3973-2.3876-0.7598-4.6673-2.7301-5.8305l6.7894-10.0324l25.6219-37.8416
			l-4.1755,15.4572c-0.1074-0.0228-0.2057-0.0683-0.3139-0.0863c-4.0279-0.67-7.838,2.0533-8.5082,6.0813
			c-0.6703,4.0279,2.0527,7.8377,6.0806,8.5079c0.9073,0.1508,1.7979,0.1108,2.6523-0.0612l0.1138,0.4488L-56.0426-153.591z
			 M-44.675-194.157l4.7852-17.7273l13.6609-20.1823c0.5186,0.2215,1.0546,0.3975,1.6326,0.494
			c0.1694,0.0278,0.3363,0.0122,0.5067,0.0306l-16.6171,40.533C-41.5998-192.4617-42.9767-193.5944-44.675-194.157z
			 M-26.8762-232.387l-12.4373,18.3769l7.3264-27.139l1.6786-0.3054c-0.1599,0.4376-0.2879,0.8894-0.3678,1.3688
			C-31.2088-236.885-29.5796-233.8461-26.8762-232.387z M-40.7097-211.9482l-33.6291,49.6756
			c-0.4143-0.1797-0.8485-0.3289-1.3181-0.407c-1.1706-0.195-2.3165-0.0136-3.3206,0.4471l-19.0226-61.6488
			c1.8264-0.7005,3.2511-2.2946,3.5966-4.372c0.0883-0.5307,0.0801-1.0637,0.0168-1.5811l44.2918-8.0385l17.222-3.1191
			L-40.7097-211.9482z M-195.0965-302.9841c-0.507-0.6978-1.2777-1.203-2.1945-1.3555c-0.1738-0.0289-0.3423-0.0327-0.5159-0.0327
			l5.703-20.3715l35.9249-2.6003l14.4732-1.0552c0.0367,0.4454,0.1349,0.8721,0.2744,1.2822L-195.0965-302.9841z
			 M-155.0848-328.1428l-36.8194,2.6646l3.4266-12.2345c0.6387,0.3139,1.3204,0.5721,2.0583,0.6948
			c3.5339,0.5881,6.9034-1.4306,8.1213-4.6574l36.658,11.7171c-0.0077,0.0469-0.0245,0.0876-0.0314,0.1298
			c-0.0399,0.2399-0.0352,0.4726-0.0459,0.7121L-155.0848-328.1428z M-192.5048-345.5273
			c-0.1549,0.9312-0.1029,1.8376,0.0717,2.7026l-35.9694,17.8761c-0.4114-0.7202-0.9727-1.3498-1.6552-1.8352l-0.6261-0.3605
			c-0.5194-0.2748-1.0725-0.4926-1.6837-0.5942c-0.5732-0.0955-1.1371-0.073-1.6902-0.001l-8.7706-44.3027
			c0.4909-0.4838,0.9312-1.0093,1.2676-1.5811l49.6646,26.2366C-192.1668-346.8037-192.3946-346.1895-192.5048-345.5273z
			 M-237.8614-318.6978c0.7083,0.9394,1.7017,1.6453,2.8786,2.0055l-7.1681,29.7831c-0.0231-0.0037-0.0312-0.0146-0.0452-0.017
			c-3.1116-0.5178-6.0507,1.5872-6.5667,4.689c-0.0768,0.4607-0.0805,0.919-0.0493,1.3681l-20.2451,2.7998l-34.7925,4.8228
			c-0.1271-0.601-0.3537-1.1554-0.6482-1.6779L-237.8614-318.6978z M-275.8505-276.4033l27.1386-3.7629
			c0.4617,2.2504,2.2419,4.0925,4.6435,4.492c0.672,0.1118,1.3345,0.0771,1.981-0.033l3.962,15.6669l6.0197,23.7657
			c-1.4371,0.3363-2.69,1.2193-3.4894,2.4529l-35.2892-18.4927l-33.3555-17.4854c0.1974-0.4312,0.3547-0.8826,0.4369-1.3763
			c0.0765-0.4607,0.0795-0.9142,0.0482-1.3637L-275.8505-276.4033z M-314.8458-273.8104c-0.0846,0.2463-0.1651,0.4987-0.209,0.762
			c-0.1393,0.8364-0.0781,1.6582,0.1328,2.4226l-42.5276,14.4761l-46.479,15.8089c-0.4193-1.0216-1.133-1.8985-2.0537-2.5205
			l29.6883-49.7663c0.7271,0.565,1.588,0.993,2.5704,1.1565c2.4063,0.4005,4.6985-0.778,5.8598-2.7631L-314.8458-273.8104z
			 M-376.8466-293.1111l-26.6736,44.7423l25.0533-48.2433C-378.351-295.2738-377.7643-294.0413-376.8466-293.1111z
			 M-377.7422-175.6748c0.2079,0.054,0.4023,0.1349,0.6282,0.1726c0.8789,0.1461,1.7381,0.0622,2.5351-0.1722l26.6797,73.2545
			c-1.7089,0.7491-3.0165,2.3092-3.345,4.2834c-0.2157,1.2971,0.0428,2.5572,0.6315,3.6355l-50.4142,18.5593
			c-0.2263-0.5259-0.4804-1.0314-0.8249-1.5138c-1.1286-1.5791-2.744-2.5816-4.4964-2.9941L-377.7422-175.6748z M-306.6324,23.1139
			l57.4487,9.5588l-3.6093,5.872c-0.9513-0.7573-2.0758-1.3114-3.3637-1.5258c-3.0837-0.513-6.0255,0.9686-7.5428,3.4983
			l-42.9516-17.3197C-306.6457,23.1649-306.6362,23.1374-306.6324,23.1139z M-152.2417,58.7677l-25.5501-13.129
			c0.4216-0.8813,0.6618-1.8315,0.7316-2.8008l33.9573-3.9858c0.5076,2.9003,2.7649,5.2998,5.8292,5.8098
			c3.8874,0.6465,7.5647-1.9776,8.2122-5.8693c0.2409-1.4473,0.0228-2.865-0.5373-4.1128l32.2189-16.7034
			c0.0272,0.0388,0.0487,0.0853,0.0807,0.1247l-41.524,38.8079c-1.2085-1.186-2.7541-2.0567-4.5589-2.3567
			C-147.0246,53.9462-150.4972,55.7447-152.2417,58.7677z M-91.1295,13.3894l24.9812-23.8004
			c1.6895,0.0927,3.4174-0.3343,4.9076-1.3956c2.1327-1.5241,3.2465-3.9226,3.2363-6.3588l9.8671-9.4001
			c0.451,0.3696,0.9896,0.6428,1.6149,0.7467c1.5088,0.251,2.9397-0.5395,3.6002-1.84l8.1737,2.9829
			c-0.2993,0.67-0.55,1.3623-0.6761,2.1193c-0.322,1.9361,0.0521,3.8098,0.9057,5.4154l-55.8941,32.944
			C-90.5526,14.2774-90.7982,13.8069-91.1295,13.3894z M-34.3808-26.4024l-8.2657-3.0124c0.0173-0.0747,0.0486-0.1467,0.0611-0.2218
			c0.1595-0.9587-0.1072-1.8825-0.6431-2.6092l0.2348-0.2215l-0.284,0.1699c-0.1299-0.176-0.2871-0.3377-0.4512-0.4807
			l14.0693-20.839c0.7685,0.4614,1.6341,0.8031,2.574,0.9598c0.6301,0.1046,1.2489,0.1012,1.8575,0.0435l-1.5127,21.8942
			C-29.9316-30.7917-32.8407-29.0971-34.3808-26.4024z M-53.3704-44.5353l-10.7669-22.117c1.1029-0.85,1.9086-2.0924,2.1542-3.5683
			c0.0673-0.4043,0.0858-0.8072,0.0644-1.202c2.0865-1.0148,3.673-2.9727,4.0812-5.4259c0.1729-1.0389,0.1113-2.0632-0.1299-3.0213
			l27.2997-29.6649c0.7411,0.5966,1.6277,1.044,2.6383,1.2122c0.2397,0.0398,0.4768,0.036,0.7177,0.0418l0.3251,12.9361
			L-53.3704-44.5353z M-26.591-108.2865c2.5244-0.2218,4.6832-2.1087,5.1181-4.7223c0.3739-2.2463-0.627-4.3884-2.3763-5.6019
			l11.0675-10.7509c0.7787,0.7189,1.6674,1.2723,2.6236,1.6199L-26.298-96.6645L-26.591-108.2865z M-31.052-269.3806
			c-0.1836,0.1437-0.3511,0.3085-0.5212,0.4594l-28.1181-28.5544l2.3773-4.0673c1.6611,0.2038,3.2528-0.159,4.6054-0.9435
			L-31.052-269.3806z M-63.691-310.0717c-0.0493,0.2959-0.0455,0.5915-0.0567,0.8939l-3.112,1.1969l-2.2941,0.8983l-5.8922-5.984
			l11.4027,2.8245C-63.6534-310.181-63.6817-310.1281-63.691-310.0717z M-69.9739-306.7698l-33.7499,13.072
			c-0.4128-0.8846-1.0601-1.6399-1.8587-2.212l-0.6078-0.3815c-0.5444-0.2983-1.1281-0.5354-1.7721-0.6425
			c-1.4289-0.2378-2.8087,0.103-3.9453,0.8069l-20.3953-28.4908c0.6953-0.6091,1.2428-1.3725,1.583-2.2582l54.1764,13.4341
			L-69.9739-306.7698z M-123.3132-357.4547c-0.3931,1.0841-0.5339,2.2487-0.4211,3.4024l-54.2469,8.2372
			c-0.2553-1.2502-0.8454-2.3775-1.6644-3.3202l15.5643-15.1029L-123.3132-357.4547z M-321.2339-339.052l11.9352,5.5455
			c-0.3887,0.7087-0.6894,1.4697-0.8293,2.3109c-0.6577,3.9528,1.9589,7.678,5.8631,8.4533l-7.2054,45.3348
			c-1.3617,0.5219-2.4865,1.5618-3.1187,2.9251l-52.9547-20.399c0.1729-0.4009,0.3109-0.8228,0.386-1.2737
			c0.4263-2.562-0.9485-4.9832-3.1755-6.0541l-0.6785-0.2773c-0.2704-0.0886-0.5398-0.1817-0.8405-0.232
			c-0.5079-0.0842-1.0124-0.0713-1.5128-0.0244l-0.7267,0.1013c-0.5534,0.1305-1.082,0.3465-1.5686,0.6326l5.0903-9.8085
			c2.3231,0.8409,5.0016,0.5667,7.1653-0.9716c3.0926-2.2141,4.0632-6.2745,2.5015-9.6063l28.9851-14.4785
			c0.905,0.6533,1.9443,1.1446,3.1238,1.3409C-325.697-335.0177-322.7481-336.5118-321.2339-339.052z M-412.2303-233.3522
			l-13.13,25.2654c-0.4787-0.1134-0.9659-0.1753-1.4687-0.2008l14.5471-25.1016
			C-412.2646-233.377-412.2477-233.3641-412.2303-233.3522z M-433.5052-196.0626c0.4515,0.6258,0.9716,1.1572,1.5584,1.6073
			l-17.0098,24.3732l15.2531-26.3274C-433.6305-196.2956-433.5826-196.1767-433.5052-196.0626z M-413.0603-95.1204
			c0.6631-3.9854-1.9959-7.7459-5.9508-8.4764l2.0021-26.4599l7.4422,49.5013c-0.6931,0.1311-1.3776,0.3547-2.0303,0.6767
			l-5.0854-10.0772C-414.8334-91.0246-413.4381-92.85-413.0603-95.1204z M-309.6639,27.7489
			c1.3916-0.9907,2.2969-2.3663,2.7967-3.8628l42.8429,17.2772c-0.284,0.6047-0.5252,1.2407-0.6418,1.9409
			c-0.2511,1.5088-0.0224,2.9812,0.5674,4.2824l-21.0479,11.022c-1.2485-2.1349-3.3858-3.7177-6.0133-4.1546
			c-2.068-0.3441-4.0737,0.0999-5.7412,1.0926l-14.0541-26.8611C-310.5105,28.2793-310.0753,28.0425-309.6639,27.7489z
			 M-283.9633,62.4698c-0.0401-1.1802-0.3459-2.3034-0.8252-3.3399l21.0958-11.0475c1.0767,1.802,2.8759,3.1541,5.1082,3.5258
			c3.0033,0.4997,5.8811-0.886,7.4297-3.2852l0.7583,0.6095c0.0938,0.0156,0.1875,0.0357,0.2813,0.0513
			c0.3757,0.0625,0.7542,0.1111,1.1303,0.1736l-1.8305-1.4829c0.2796-0.5476,0.497-1.1296,0.6393-1.7486l96.844,16.1139
			c-0.0571,0.4882-0.079,0.9679-0.053,1.4503L-283.9633,62.4698z M-33.6783-16.8371L-138.04,57.7447
			c-0.0681-0.0836-0.1525-0.1556-0.2256-0.2402l41.515-38.8102c0.5294,0.4749,1.1921,0.8167,1.9492,0.9428
			c2.1148,0.352,4.1212-1.0821,4.4729-3.1969c0.0438-0.2633,0.059-0.5262,0.0533-0.7834l56.1659-33.0969
			C-33.9687-17.2384-33.8295-17.0315-33.6783-16.8371z M-24.4225-30.3433c-0.3589-0.108-0.7106-0.2297-1.0914-0.2929
			c-0.1452-0.0241-0.2779-0.0122-0.4204-0.0265l1.5263-22.0613c2.9192-0.5915,5.3175-2.9017,5.8353-6.0133
			c0.6703-4.0279-2.0563-7.8434-6.0847-8.5137c-0.3051-0.0506-0.5957-0.0462-0.8979-0.0581l-0.7026-27.6822l16.9055-32.5394
			c2.1201,0.5222,4.4422,0.1838,6.3605-1.1877c3.4874-2.496,4.2936-7.342,1.8018-10.8287
			c-0.1532-0.2089-0.3195-0.4009-0.4855-0.5928l16.0567-15.5959c0.7928,0.5185,1.6701,0.935,2.6352,1.1728L-24.4225-30.3433z
			 M15.2948-170.606c-2.4089,1.184-4.2405,3.4537-4.7152,6.3062c-0.5297,3.1823,0.7833,6.2073,3.1386,8.0768l-15.9645,15.5055
			c-1.5913-1.4677-3.6995-2.1808-5.8001-2.0374l-13.3792-89.0053c2.688-0.741,4.8539-2.9598,5.3428-5.8971
			c0.6701-4.0279-2.0576-7.8394-6.0855-8.5093c-0.4841-0.0805-0.9672-0.1077-1.442-0.0996l-1.3938-9.2452
			c1.0685-0.2086,2.1031-0.621,3.0405-1.291c3.4923-2.4954,4.2993-7.3464,1.8035-10.8382
			c-1.4503-2.0238-3.6931-3.1167-6.0062-3.2068l-0.2675-20.8916c1.1124-0.0659,2.1896-0.3261,3.1597-0.7882L15.2948-170.606z
			 M-33.954-305.2685c-0.7313,1.0277-1.2722,2.2178-1.4935,3.5482c-0.7812,4.6951,2.3931,9.1307,7.0836,9.9114
			c0.3765,0.0625,0.749,0.086,1.1194,0.0948l0.2667,20.8668c-1.1672,0.0765-2.3129,0.4318-3.3812,1.0457l-21.6611-33.1064
			c1.5021-1.1028,2.5934-2.7569,2.9226-4.7352c0.671-4.033-2.0511-7.8475-6.0838-8.5185c-3.6987-0.6156-7.1818,1.6497-8.2556,5.1422
			l-12.6865-3.149l-34.5343-35.0752c2.7325-2.6323,3.217-6.9082,0.9528-10.0813c-2.4962-3.4874-7.3422-4.2939-10.8289-1.802
			c-0.0696,0.0415-0.1174,0.0962-0.1775,0.1393l-15.7688-18.6453c0.2686-0.25,0.5208-0.5171,0.7552-0.7967L-33.954-305.2685z
			 M-150.9332-385.6075c0.0781,2.0272,0.8645,3.9212,2.1572,5.3824l-15.5758,15.1158l-76.0796-12.6588
			c-0.0343-1.5081-0.5032-3.0158-1.4473-4.3367c-2.4916-3.4867-7.3372-4.2929-10.8334-1.8026
			c-1.3932,0.9998-2.3475,2.3815-2.8426,3.9028l-20.63-5.5723c0.0544-0.2083,0.1339-0.3978,0.1692-0.6095
			c0.0218-0.1315,0.0102-0.264,0.0275-0.3961L-150.9332-385.6075z M-399.5644-307.3534l107.23-76.6407
			c0.4124,0.8894,0.9821,1.7041,1.6627,2.4019l-32.7966,32.6288c-0.8565-0.5724-1.8261-0.9849-2.8979-1.1633
			c-4.0231-0.6693-7.8377,2.0527-8.509,6.0857c-0.4213,2.5334,0.5099,4.9778,2.2514,6.6149l-28.6753,14.3321
			c-0.1104-0.1777-0.1855-0.3642-0.303-0.529c-2.5004-3.4925-7.3464-4.2986-10.8338-1.8026
			c-2.9071,2.0863-3.9209,5.801-2.7393,9.0019l-23.6099,10.1615C-399.017-306.6393-399.2692-307.0096-399.5644-307.3534z
			 M-409.8716-294.0898c0.6519,0.3207,1.3345,0.5697,2.0666,0.7301l-2.0594,49.534c-1.6464,0.1994-3.1222,1.1133-4.0388,2.4722
			c-0.3064,0.7654-0.622,1.5291-0.9146,2.3014c-0.3228,1.999,0.4641,3.9175,1.8852,5.1585l-14.845,25.6465
			c-1.3725,0.09-2.7308,0.5018-3.9256,1.3559c-3.115,2.2304-4.0779,6.335-2.4641,9.6705l-16.0188,27.649
			c-0.3425-0.1781-0.6856-0.3506-1.0546-0.4848L-409.8716-294.0898z M-450.5276-154.1387c0.2246-0.1026,0.4383-0.2263,0.6516-0.3452
			l25.8718,51.7514c-1.8672,1.0613-3.2696,2.9-3.6498,5.184c-0.6703,4.0279,2.0479,7.837,6.0853,8.509
			c1.471,0.2446,2.9031,0.0292,4.1703-0.533l5.094,10.083c-0.1281,0.0751-0.2521,0.1515-0.372,0.2331
			c-3.4911,2.4913-4.2987,7.3457-1.802,10.829c1.4453,2.0272,3.6834,3.1194,5.9865,3.2125l-0.4029,34.2367
			c-0.8524,0.1288-1.6721,0.3835-2.4383,0.7488L-450.5276-154.1387z M-400.4973-17.6691c0.1715-0.247,0.3261-0.5109,0.4709-0.7719
			l70.5876,33.1571c-0.1019,0.2922-0.2045,0.5894-0.2575,0.9088c-0.1954,1.1748,0.0177,2.302,0.4885,3.3029
			c1.7918,1.134,3.6144,2.229,5.449,3.3073c0.6472-0.0278,1.2737-0.194,1.8597-0.4345c0.0598,1.4398,0.5011,2.8799,1.4061,4.1465
			c2.034,2.8405,5.6213,3.8675,8.7679,2.8113l14.1414,27.0306c-0.5599,0.4043-1.0827,0.8775-1.5339,1.4109L-400.4973-17.6691z"/>
	</g>
</g>
<g>
	<path class="st1" d="M18.7007,10.1318c-1.0755-0.8544-2.4223-1.325-3.7933-1.325c-1.8739,0-3.617,0.8409-4.7817,2.3069
		c-2.0936,2.6349-1.6529,6.4817,0.9821,8.5752c0.4365,0.3469,0.9223,0.6187,1.4325,0.8315v-2.2141
		c-0.0727-0.048-0.1462-0.0946-0.2154-0.1496c-1.7896-1.4222-2.089-4.0356-0.667-5.8254c0.7911-0.9959,1.9757-1.5673,3.2495-1.5673
		c0.9443,0,1.8348,0.3114,2.5759,0.9002c1.7903,1.4221,2.0894,4.0355,0.667,5.8254c-0.3267,0.4114-0.7233,0.7455-1.1632,1.0016
		v1.9177l0.5715,0.001c0.8153-0.3934,1.542-0.9699,2.1243-1.7027C21.7763,16.0721,21.3356,12.2254,18.7007,10.1318z"/>
	<path id="XMLID_2400_" class="st1" d="M19.9718,31.2883c1.1559,0,2.0927-0.9371,2.0927-2.0928v-5.352
		c0-1.5601-1.2646-2.8247-2.8248-2.8247l-2.8607-0.0049v-4.1844c0-0.8833-0.6867-1.6357-1.5695-1.667
		c-0.9267-0.0329-1.6884,0.7085-1.6884,1.6279v7.3109l-0.4273-0.8908c-0.233-0.486-0.6721-0.762-1.1254-0.762
		c-0.2086,0-0.4201,0.0586-0.6156,0.1807c-0.6211,0.3895-0.849,1.2798-0.5079,1.9893c0,0,1.4095,3.3,2.4159,5.4613
		c0.3433,0.7374,1.0831,1.2084,1.8965,1.2084H19.9718z M19.9718,31.2883"/>
	<g>
		<path class="st1" d="M25.3427,13.7151c-0.3193-2.7881-1.7053-5.2853-3.9028-7.0311c-1.8505-1.4708-4.1707-2.2804-6.5325-2.2804
			c-3.225,0-6.224,1.4472-8.2294,3.9708c-3.6041,4.5361-2.8455,11.1583,1.6903,14.7622c0.4127,0.3279,0.852,0.6176,1.3066,0.8782
			c-0.0399-0.6633,0.249-1.3242,0.7929-1.6653c0.043-0.0268,0.0888-0.038,0.1329-0.0598c-0.3525-0.2051-0.6939-0.4304-1.015-0.6856
			c-3.6912-2.9325-4.3081-8.3214-1.3759-12.0124c1.6319-2.0534,4.0731-3.2314,6.6976-3.2314c1.9211,0,3.809,0.6591,5.315,1.8559
			c1.7882,1.4208,2.9162,3.4526,3.1757,5.7215c0.1305,1.1365,0.0374,2.2618-0.2745,3.3442
			c-0.1497,0.5192,0.1497,1.0616,0.6691,1.2115c0.5187,0.15,1.0615-0.1492,1.2112-0.6688
			C25.3885,16.4926,25.5021,15.1099,25.3427,13.7151z"/>
	</g>
	<path class="st1" d="M29.7172,13.2139c-0.4529-3.9568-2.4195-7.5001-5.5382-9.9778C21.5525,1.1494,18.2597,0,14.9074,0
		C10.3317,0,6.0757,2.054,3.2298,5.6354C-1.8845,12.0723-0.808,21.47,5.6291,26.5845c1.8452,1.4661,4.022,2.4575,6.3146,2.9247
		c-0.3487-0.7784-0.6974-1.5694-1.009-2.2813c-1.4738-0.4755-2.8654-1.2043-4.0881-2.1758
		c-5.592-4.4431-6.5272-12.6073-2.0841-18.1994c2.472-3.1114,6.1698-4.8954,10.145-4.8954c2.912,0,5.7725,0.9982,8.0546,2.8112
		c2.7088,2.1524,4.4176,5.231,4.8111,8.6682c0.1875,1.6384,0.0693,3.2648-0.3515,4.8343c-0.2627,0.9779-0.6425,1.9263-1.1293,2.8187
		c-0.2588,0.4745-0.0843,1.0689,0.3903,1.3279c0.4746,0.2586,1.0688,0.0839,1.3276-0.3902
		c0.5613-1.0285,0.9992-2.1219,1.3014-3.2491C29.7966,16.9699,29.933,15.098,29.7172,13.2139z"/>
</g>
</svg>
