<?xml version="1.0" encoding="utf-8"?>
<!-- Generator: Adobe Illustrator 21.0.2, SVG Export Plug-In . SVG Version: 6.00 Build 0)  -->
<svg version="1.1" id="Capa_1" xmlns="http://www.w3.org/2000/svg" xmlns:xlink="http://www.w3.org/1999/xlink" x="0px" y="0px"
	 viewBox="0 0 260.5961 789.2435" style="enable-background:new 0 0 260.5961 789.2435;" xml:space="preserve">
<g>
	<path style="fill:#593A11;" d="M34.0463,766.5446c0,0-2.2978-6.1273-1.0212-7.4039s50.04-1.5319,50.04-1.5319l48.8401-21.2714
		c0,0,0.9446,7.2296,0.6893,9.0167c-0.2553,1.7872-6.6654,6.2524-17.8714,8.6804c-15.3184,3.319-17.1055,7.9145-29.1049,12.51
		S51.9177,770.1188,34.0463,766.5446z"/>
	<path style="fill:#593A11;" d="M222.8136,719.5026c0,0-1.3468,17.845,7.744,27.2725s25.9257,14.3096,28.2826,22.7271
		c2.3569,8.4174-0.3367,10.9427-2.0202,13.1312c-1.6835,2.1885-20.5386,9.2592-40.067,5.5555s-17.1716-16.4982-26.2624-20.2018
		c-9.0908-3.7037-12.3749-8.0326-12.3749-8.0326s-2.9098-7.1524-0.2162-13.5497c2.6936-6.3973,6.1939-28.9224,6.1939-28.9224
		L222.8136,719.5026z"/>
	<path style="fill:#76531E;stroke:#664614;stroke-miterlimit:10;" d="M222.8136,713.442c0,0-1.3468,17.845,7.744,27.2725
		c9.0908,9.4275,25.9257,13.4679,28.2826,21.8853c2.3569,8.4175,0.6734,13.468,0.6734,13.468s-23.2321,9.7642-42.7606,6.0605
		s-17.1716-16.4982-26.2624-20.2019c-9.0908-3.7037-12.4578-14.8147-12.4578-14.8147s0-16.1615,2.6936-22.5587
		c2.6936-6.3973,3.367-13.1312,3.367-13.1312L222.8136,713.442z"/>
	<path style="fill:#76531E;stroke:#664614;stroke-miterlimit:10;" d="M85.3628,714.7397c0,0-2.0424,10.9781-12.7653,16.0843
		c-10.7229,5.1061-39.1887,7.9991-40.9351,17.0803c-0.5302,2.757,0.6892,10.9219,0.6892,10.9219s24.9274,5.9536,41.267,3.9111
		c16.3396-2.0425,18.8927-9.7017,28.339-11.7441c9.4463-2.0425,27.5731-5.8721,29.3602-13.7866
		c-0.7596-9.6233-4.8508-16.5949-4.8508-16.5949l-3.319-8.9357L85.3628,714.7397z"/>
	<path style="fill:#C39145;stroke:#664614;stroke-miterlimit:10;" d="M55.138,344.4212c0,0-5.0505,71.7166,0,123.2314
		s11.111,112.1204,16.1615,136.3626c5.0505,24.2422,14.1413,56.5652,7.0706,62.6258c-7.0706,6.0605-7.0706,15.1514-2.0202,26.2625
		c5.0505,11.111,7.0707,27.2725,7.0707,27.2725s12.1211-11.111,27.2725,1.0101s23.2321,13.1312,23.2321,13.1312
		s-1.0101-10.101-1.0101-18.1817s-7.0707-16.1615-4.0404-36.3633c3.0303-20.2019,5.0505-32.323-1.0101-52.5249
		c-6.0606-20.2018,3.0303-63.6359,0-84.8478c-3.0303-21.212-4.0404-120.2011-4.0404-120.2011l-11.111-69.6965
		C112.7134,352.5019,83.4206,360.5826,55.138,344.4212z"/>
	<path style="opacity:0.4;fill:#545454;" d="M117.7638,632.2978c3.0303,26.2625,0,51.5148,4.0404,77.7772
		c1.0101,3.0303,4.0404,5.0505,4.0404,9.0908c-0.4877,4.8765,0.4469,9.2773,2.3297,13.2121c3.7911,1.6916,5.751,1.9393,5.751,1.9393
		s-1.0101-10.101-1.0101-18.1817s-7.0707-16.1615-4.0404-36.3633c3.0303-20.2019,5.0505-32.323-1.0101-52.5249
		c-6.0606-20.2018,3.0303-63.6359,0-84.8478c-3.0303-21.212-4.0404-120.2011-4.0404-120.2011l-11.111-69.6965
		c0,0-3.2474,0.8921-8.6132,1.4897c-5.124,16.8159-2.7581,34.2699,5.5829,50.0251c-8.0807,1.0101-23.2322,6.0606-18.1817,12.1211
		c5.0505,6.0606,20.2019-6.0605,25.2523,4.0404c6.0606,13.1312,6.0606,30.3028,3.0303,42.424
		c-3.0303,10.1009-7.0706,24.2422-4.0404,34.3432c4.0404,10.1009,5.0505,22.2221,5.0505,33.3331
		C117.7638,564.6215,111.7033,597.9547,117.7638,632.2978z"/>
	<path style="fill:#CFAC81;" d="M121.6548,728.925c-3.0948-1.868-6.7527-4.3719-10.9616-7.739
		c-15.1514-12.1211-27.2725-1.0101-27.2725-1.0101s-2.0202-16.1615-7.0707-27.2725c-5.0505-11.111-5.0505-20.2019,2.0202-26.2625
		c7.0707-6.0605-2.0202-38.3835-7.0706-62.6258c-5.0505-24.2422-11.111-84.8478-16.1615-136.3626s0-123.2314,0-123.2314
		l10.8556,5.0807c-2.2562,40.1247-16.431,77.813-6.8152,119.1608c6.0606,27.2725,1.0101,52.5248,8.0807,78.7873
		c3.0303,8.0807,6.0606,16.1615,7.0706,24.2422c5.0505,32.323,3.0303,61.6157,15.1514,91.9185
		c3.0303,7.0706-3.0303,12.1211-7.0707,18.1817c-7.0707,9.0908,0,20.2018,6.0606,27.2725
		c7.0707,8.0807,21.212-3.0303,28.2826,9.0908L121.6548,728.925z"/>
	<path style="fill:#C39145;stroke:#664614;stroke-miterlimit:10;" d="M114.8557,350.0245
		c-10.4642,2.5919-10.351,42.9962,3.1849,57.3283c0,0,12.7396,54.1434,13.5359,77.234
		c0.7962,23.0906,22.2943,66.0868,23.8868,122.6189s10.351,38.2189,10.351,48.5699s-10.351,18.3132-7.9623,32.6453
		s17.517,26.2755,15.9245,34.2378s3.9811,15.1283,3.9811,15.1283s3.9811-12.7396,23.8868-15.1283s22.2944,1.5925,22.2944,1.5925
		s7.166-23.0906,3.1849-31.8491s-8.7585-7.166-8.7585-16.7208c0-9.5547-12.7396-94.751-15.1283-124.2114
		c-2.3887-29.4604-11.1472-157.653-11.1472-157.653l-17.4016-56.4237C174.6881,337.3933,121.9774,348.2606,114.8557,350.0245z"/>
	<path style="opacity:0.4;fill:#545454;" d="M172.3089,684.8227c-3.0303,1.0101-5.0505-3.0303-8.0807-2.0202
		c-1.0101-5.0505-2.0202-10.101,1.0101-14.1413c7.0707-8.0807,4.0404-18.1817,1.0101-27.2725
		c-14.1413-43.434-4.0404-92.9286-24.2422-136.3626c-1.0101-3.0303,1.0101-8.0807,0-11.111
		c-2.0202-4.0404-7.0706-8.0807-7.0706-12.1211c-2.0202-24.2422-9.0909-48.4845-7.0707-71.7166
		c0-4.0404,10.1009-3.0303,16.1615-6.0606c-6.0606-6.0605-16.1615,1.0101-20.2019-5.0504
		c-3.0303-3.0303-5.0505-9.0909-7.0706-14.1413c-4.7715-7.9525-6.4116-17.1562-7.8797-26.1342
		c-3.4972,13.2934-0.8287,38.0789,9.1665,48.6622c0,0,12.7397,54.1434,13.5359,77.234
		c0.7962,23.0906,22.2943,66.0869,23.8868,122.619c1.5925,56.5322,10.351,38.2189,10.351,48.5698
		c0,10.351-10.351,18.3132-7.9623,32.6453c2.3887,14.3321,17.517,26.2755,15.9246,34.2377
		c-1.5925,7.9623,3.9811,15.1284,3.9811,15.1284s0.9876-3.1539,4.4295-6.6172c-1.8354-7.1748-5.2175-14.5732-6.848-21.0948
		C173.319,703.0043,173.319,693.9135,172.3089,684.8227z"/>
	<path style="opacity:0.4;fill:#545454;" d="M227.1237,692.4021c-3.9812-8.7585-8.7585-7.1661-8.7585-16.7208
		s-12.7396-94.751-15.1283-124.2114c-2.3887-29.4604-11.1472-157.6529-11.1472-157.6529l-17.4016-56.4237
		c0,0-3.4735,0.7161-8.7513,1.8092c2.8793,13.2408,10.677,23.7131,13.4427,37.5416c7.0706,36.3634,18.1817,69.6965,11.111,106.0598
		c-3.0303,20.2019-1.0101,41.4138,7.0707,59.5955c3.0303,6.0605-1.0101,15.1514-4.0404,21.212
		c-3.0303,12.1211,7.0706,23.2322,11.111,34.3432c2.0202,4.0403-3.0303,9.0908-3.0303,13.1312
		c-2.0202,26.2625,8.0807,49.4946,11.111,75.757c1.0101,4.0404,7.0707,7.0707,10.1009,11.111
		c5.1272,8.0571-3.0178,17.1746-4.4196,24.2751c4.7153,0.6494,5.5448,2.0222,5.5448,2.0222S231.1048,701.1606,227.1237,692.4021z"/>
	<path style="fill:none;stroke:#664614;stroke-miterlimit:10;" d="M99.5821,412.0974c0,0,30.3028-8.0807,40.4037-7.0706"/>
	<path style="fill:#DEE0E2;stroke:#575A5B;stroke-miterlimit:10;" d="M84.0661,155.0432l21.5834,37.2989
		c0,0,6.17,142.8591,4.2337,157.0585s-61.961-7.0997-61.961-7.0997l-9.6814-165.9587L84.0661,155.0432z"/>
	<path style="fill:#DEE0E2;stroke:#575A5B;stroke-miterlimit:10;" d="M134.1304,154.0331l-27.6439,37.2989
		c0,0,0.815,141.933,2.7512,156.1324c1.9363,14.1994,66.0871-5.1634,66.0871-5.1634l-9.2895-168.5404L134.1304,154.0331z"/>
	<path style="fill:#76531E;stroke:#664614;stroke-miterlimit:10;" d="M54.509,337.6385c-1.5696-1.0126-1.9621,6.3768-0.4905,7.3579
		c1.4716,0.981,21.3379,13.2442,59.599,9.0747c38.2611-4.1695,58.1275-10.7916,61.0706-16.6779s0.2453-10.0558-0.981-9.0748
		c-1.2263,0.9811-13.4745,15.204-59.1085,17.9043C73.149,348.6754,62.1121,342.5438,54.509,337.6385z"/>
	<path style="opacity:0.4;fill:#545454;" d="M98.5721,321.189c-5.0505-59.0905-9.7299-149.6486-7.0707-161.6149
		c2.6591-11.9664-7.4176-10.0908-7.4176-10.0908c-1.3924,0.9408-2.8274,1.8717-4.2877,2.7934c0,0-58.5328,35.4272-61.0227,36.8613
		c0.1981,1.648,0.8377,3.5029,2.1546,5.5516c5.9832,9.3071,25.9271,89.7476,25.2623,114.3452
		c-0.6648,24.5975,2.2137,128.6518,2.2137,128.6518s40.3334,14.2796,46.9813-9.6531
		C102.0334,404.1007,103.5441,379.3619,98.5721,321.189z"/>
	<path style="fill:#619BBC;stroke:#2F4A56;stroke-miterlimit:10;" d="M80.0435,143.4227
		c-24.5975,16.6199-61.1614,30.5807-61.1614,30.5807s-7.9776,5.3184-1.9944,14.6255c5.9832,9.3072,25.9271,89.7477,25.2623,114.3452
		s-2.6592,133.6243-2.6592,133.6243s45.2062,9.3072,51.8542-14.6255c6.648-23.9327,10.6368-57.1726,2.6592-115.01
		s-15.9551-142.2667-13.296-154.233C83.3675,140.7635,80.0435,143.4227,80.0435,143.4227z"/>
	<path style="opacity:0.4;fill:#545454;" d="M140.1191,146.4529c24.5975,16.6199,61.1614,34.6211,61.1614,34.6211
		s7.9776,5.3184,1.9944,14.6255c-5.9832,9.3072-30.4179,90.2849-25.2623,114.3452c5.3402,24.9218,12.5049,72.7348,15.174,107.3042
		c0,0-48.5729,34.8427-55.2209,10.91s-19.7849-56.388-11.8073-114.2254s15.9551-146.3071,13.2959-158.2734
		C136.7952,143.7937,140.1191,146.4529,140.1191,146.4529z"/>
	<path style="fill:#619BBC;stroke:#2F4A56;stroke-miterlimit:10;" d="M141.1292,138.3722
		c24.5975,16.6199,61.1614,34.6211,61.1614,34.6211s7.9776,5.3184,1.9944,14.6255c-5.9832,9.3072-25.9271,89.7477-25.2623,114.3452
		s18.69,106.7129,18.69,106.7129s-52.0889,35.434-58.7369,11.5013c-6.648-23.9327-19.7849-56.388-11.8073-114.2254
		s15.9551-146.3071,13.296-158.2734S141.1292,138.3722,141.1292,138.3722z"/>
	<path style="opacity:0.4;fill:#545454;" d="M133.5886,139.7089c8.7542,14.478,29.2927,53.535,25.589,84.8479
		s-34.3432,119.5277-33.3331,140.0663c0,0-0.3367-50.8414-1.6835-85.1845s7.744-70.3698,6.734-101.0094
		C129.8849,147.7896,133.5886,139.7089,133.5886,139.7089z"/>
	<path style="fill:#95B9FF;" d="M139.4446,141.1044c-0.1618-4.2066,1.6846-2.7322,1.6846-2.7322
		c24.5975,16.6199,61.1614,34.621,61.1614,34.621s7.9776,5.3184,1.9944,14.6256c-0.4351,0.6768-0.9459,1.74-1.5153,3.1203
		l-1.1681-11.4682c0,0-21.212-8.5858-39.3936-18.6867C150.0593,153.8349,142.8772,145.7382,139.4446,141.1044z"/>
	<path style="fill:#619BBC;stroke:#2F4A56;stroke-miterlimit:10;" d="M131.5684,134.6584
		c8.7542,14.478,29.2927,53.535,25.589,84.8479s-32.828,117.5075-31.8179,138.0461c0,0-1.8518-48.8212-3.1986-83.1644
		s7.744-70.3698,6.734-101.0093C127.8648,142.7392,131.5684,134.6584,131.5684,134.6584z"/>
	<path style="opacity:0.4;fill:#545454;" d="M86.4509,136.8469c0,0-35.7744,24.7102-28.9104,73.4634
		c0.7018,4.9848,17.2355,0.5394,17.2355,0.5394s-16.1725,8.0294-15.7538,10.7625c8.45,55.1631,29.1626,91.9907,32.5295,120.9467
		c0.2643,2.2728,5.8471,13.0493,6.0313,13.588c2.163,6.3233-2.3585-99.2193-6.0817-124.3512
		C88.0008,208.1665,86.4509,136.8469,86.4509,136.8469z"/>
	<path style="fill:#FFA96A;stroke:#6B4429;stroke-miterlimit:10;" d="M130.8951,116.4767l0.3367,40.7404
		c-10.7579,11.8356-20.8997,23.6361-25.5823,35.1249c-5.6329-12.8557-11.9251-20.8244-18.8618-24.0139l0.6734-41.0771
		L130.8951,116.4767z"/>
	<path style="fill:#619BBC;stroke:#2F4A56;stroke-miterlimit:10;" d="M86.4509,133.8167c0,0-33.7542,24.7101-26.8902,73.4634
		c0.7018,4.9848,17.2355,0.5394,17.2355,0.5394s-16.1725,8.0294-15.7538,10.7625c8.45,55.1631,32.1425,100.9235,35.5095,129.8795
		c0.2643,2.2728,0.847,4.1165,1.0313,4.6551c2.163,6.3233-2.3585-99.2193-6.0817-124.3512
		C88.0008,205.1362,86.4509,133.8167,86.4509,133.8167z"/>
	<path style="opacity:0.4;fill:#545454;" d="M110.4124,220.4146l50.752,19.173c2.7783,1.0496,4.0556,4.2582,2.7587,6.93
		l-40.3553,83.1379c-1.1392,2.3468-3.8782,3.4399-6.3201,2.5222L73.477,315.7289c-2.6318-0.989-3.9493-3.9369-2.9307-6.5574
		l33.3739-85.862C104.924,220.7271,107.8207,219.4355,110.4124,220.4146z"/>
	<path style="fill:#DEE0E2;stroke:#575A5B;stroke-miterlimit:10;" d="M89.4685,133.5562c0,0,0,27.4631,5.1957,32.065
		s9.9326,19.57,10.9785,29.3061c0,0-6.3766-17.4302-24.7843-26.9309C72.6574,163.7636,82.3429,137.2674,89.4685,133.5562z"/>
	<path style="fill:#518496;" d="M147.5626,190.7669c-2.1299,4.0824-7.174-3.4756-10.5463-9.6879
		c-3.3724-6.2122-7.6363-6.99-7.6363-6.99l-0.2336-3.8878c0,0,17.4339-12.8027,17.6038-11.5945
		C148.5436,171.3604,149.6924,186.6846,147.5626,190.7669z"/>
	<path style="fill:#9DB2AA;stroke:#6F7B7F;stroke-miterlimit:10;" d="M109.9858,217.5705l50.752,19.173
		c2.7783,1.0496,4.0555,4.2582,2.7587,6.93l-40.3553,83.1379c-1.1391,2.3468-3.8782,3.4399-6.3201,2.5222l-43.7707-16.4489
		c-2.6318-0.989-3.9493-3.9369-2.9307-6.5574l33.3739-85.8621C104.4974,217.883,107.3941,216.5914,109.9858,217.5705z"/>
	<g>
		<path style="fill:#CE8757;stroke:#6B4429;stroke-width:0.9442;stroke-miterlimit:10;" d="M211.2052,425.219
			c1.7,5.0079-0.0352,11.5154,0.1223,14.1151c0.1575,2.5996-6.289,9.9428-7.0935,12.877
			c-0.8045,2.9342-1.3214,10.8697,2.9901,7.0478c4.3115-3.8219,11.0132-13.6832,11.0132-13.6832s1.9291-8.2481,2.3105-11.3254"/>
		<path style="fill:#CE8757;stroke:#6B4429;stroke-miterlimit:10;" d="M216.0619,424.9116
			c0.9673,6.0771,0.9083,15.1443,0.5789,18.1567s-9.1635,10.1697-10.6619,13.3771c-1.4984,3.2074-3.6481,12.2073,2.0466,8.6698
			c5.6947-3.5376,15.1279-14.8613,15.1279-14.8613s4.6154-6.1302,5.6566-9.5848"/>
		<path style="fill:#EA9860;stroke:#6B4429;stroke-miterlimit:10;" d="M218.4069,439.021
			c-0.4006,4.7542-1.1817,8.429-2.2111,11.1115c-1.0857,2.8292-9.0918,10.2338-10.5676,13.4517
			c-1.4758,3.2178-3.5622,12.2327,2.1075,8.6552c5.6697-3.5775,15.023-14.9673,15.023-14.9673s4.5722-6.1625,5.5891-9.6243"/>
		<path style="fill:#CC8352;" d="M208.8695,415.2535c0,0,5.2942,24.1351,15.571,30.3635
			c10.2769,6.2284,9.9655-8.4084,9.3426-14.9482c-0.6228-6.5399-3.7371-16.0382-10.2769-16.3496
			C216.9665,414.0078,208.8695,415.2535,208.8695,415.2535z"/>
		<path style="fill:#FFA96A;stroke:#6B4429;stroke-miterlimit:10;" d="M205.5188,404.4963c0,0-3.2622,13.2246-3.1362,16.9318
			c0.1259,3.7072-6.3995,15.558-8.0036,19.324c-1.6041,3.7659,4.6081,4.5446,8.4449,0.9503
			c3.8368-3.5944,8.0623-17.594,12.247-18.231c0,0,1.412,5.148,2.8661,11.5318c1.454,6.3838,2.0286,16.014,1.8906,19.2353
			s-9.0137,11.4406-10.379,14.951c-1.3653,3.5104-3.015,13.2162,2.7821,9.0604c5.7971-4.1558,15.016-16.8405,15.016-16.8405
			s4.4691-6.8324,5.3317-10.5732s3.1362-16.9318,1.1292-25.0288c-2.0071-8.097-6.8419-19.3145-5.6781-28.7564L205.5188,404.4963z"/>
		<path style="fill:#DEE0E2;stroke:#6C6D6D;stroke-miterlimit:10;" d="M230.4108,390.6014c0,0,3.6751,20.0782-0.0365,20.9525
			c-3.7116,0.8744-29.1485,0.9902-30.7449-1.9486s0.7839-20.9779,0.7839-20.9779L230.4108,390.6014z"/>
		<path style="fill:#619BBC;stroke:#2F4A56;stroke-miterlimit:10;" d="M203.7686,180.7143c0,0,11.3656,46.5369,13.3063,81.6393
			s13.8373,54.9012,16.2461,81.7568c2.4088,26.8556,0.4095,56.1057,0.4095,56.1057s-28.2234,6.1966-35.2039-1.0489
			c-6.9805-7.2455-8.6198-77.5263-12.0156-89.3831s-4.6923-48.2685-8.6538-58.7898c-4.1865-11.1189-3.3071-37.9376,6.7205-50.0601"
			/>
	</g>
	<path style="fill:#CE8452;" d="M87.461,127.2511l-0.1483,9.0455c3.072,3.1374,6.2441,5.1886,9.0633,5.3704
		c7.9782,0.5147,31.1408,0.772,33.7144-2.831c0.2547-0.3567,0.5875-0.8829,0.9766-1.5419l-0.172-20.8174L87.461,127.2511z"/>
	<path style="fill:#95B9FF;" d="M76.4928,150.3483l-0.737-4.1322c-24.3364,15.3609-56.8737,27.7873-56.8737,27.7873
		s-4.851,3.2353-4.1491,9.074c2.49-1.4341,4.2325-3.561,6.8992-3.653C29.5871,179.15,76.4928,150.3483,76.4928,150.3483z"/>
	<path style="fill:#DEE0E2;stroke:#575A5B;stroke-miterlimit:10;" d="M130.8951,127.5878c0,0,9.9658-0.1623,13.6931,11.7297
		c3.7274,11.892,3.9048,42.5983,1.7749,46.6806s-4.9698-1.065-8.3422-7.2772c-3.3724-6.2122-8.8746-8.5197-8.8746-8.5197
		s-12.4245,4.6148-22.7191,21.8316c0,0,0.8875-15.2644,11.3595-23.784S131.7209,137.1646,130.8951,127.5878z"/>
	<path style="fill:#D3D3D3;" d="M89.5321,136.2817c0,0,0,25.2498,4.777,29.4809c4.777,4.231,9.9087,18.2528,10.8703,27.2042
		c0,0-6.6392-16.2854-23.5635-25.0205C74.0759,164.0547,82.9808,139.6938,89.5321,136.2817z"/>
	<path style="fill:#DEE0E2;stroke:#575A5B;stroke-miterlimit:10;" d="M87.461,127.2511c0,0-17.845,14.1413-19.8652,20.5386
		c-2.0202,6.3972,1.0101,10.4376,1.3468,19.5285c0.3367,9.0908,1.3468,22.5587,6.734,23.2321
		c1.2868,0.9184,2.5595-14.8763,5.5643-22.2227c0.4293-1.0495-1.103-10.7737,2.4323-16.8342S91.8381,129.6079,87.461,127.2511z"/>
	<path style="fill:#EDEEEF;" d="M75.3485,145.1186c4.5597-4.5598,12.1593-15.9591,12.1593-15.9591l-2.6308,0.2046
		c-5.0187,4.1841-15.7417,13.5503-17.2811,18.4254c-2.0202,6.3972,1.0101,10.4376,1.3468,19.5285
		c0.3367,9.0908,1.3468,22.5588,6.7339,23.2321c0.4907,0.3503,0.9799-1.7359,1.5634-4.8512
		c-2.3407-4.5304-3.7359-12.3024-5.3112-20.4416C69.6489,153.4781,70.7888,149.6783,75.3485,145.1186z"/>
	<path style="fill:#FFA96A;stroke:#6B4429;stroke-width:0.7398;stroke-miterlimit:10;" d="M70.4204,83.6694
		c0,0-4.5326-8.906-7.616-6.2832c-4.8885,4.1582,0.5998,15.9937,2.5038,21.7057c1.904,5.712,4.7314,2.856,4.7314,2.856"/>
	<path style="fill:#FFA96A;stroke:#6B4429;stroke-width:0.7398;stroke-miterlimit:10;" d="M137.9104,80.003
		c0,0,5.2787-7.5673,9.2771-4.3305c3.9984,3.2368,0.3808,18.2785-3.808,22.4673c-4.1888,4.1888-5.9024-0.952-5.9024-0.952"/>
	<path style="fill:#FFA96A;stroke:#6B4429;stroke-miterlimit:10;" d="M103.1449,11.262
		c-19.8139,0.6192-35.0012,6.1767-35.5159,20.8463s1.2868,35.0012,3.3457,40.9205c2.0589,5.9193-4.1178,22.9052-0.7721,35.7733
		s14.1549,28.3098,22.1331,28.8245s31.1408,0.7721,33.7144-2.831c2.5736-3.6031,12.8681-23.9346,13.3828-34.7438
		s0.1058-22.8217-2.2247-32.1438c-2.2727-9.0908,5.5704-32.9688,0.1658-41.7191C131.9694,17.4387,119.616,10.7473,103.1449,11.262z"
		/>
	<path style="opacity:0.4;fill:#3F4142;" d="M88.3635,31.9352c6.5656-3.5253,15.5116-8.2187,26.3701-6.7671
		s25.5049,13.8938,7.5757,29.8613c0,0-0.5051-1.0368,0-3.1105c0.505-2.0737,8.3333-21.9812-9.8484-22.6034
		S88.3635,31.9352,88.3635,31.9352z"/>
	<path style="fill:#564F4C;stroke:#473F3D;stroke-miterlimit:10;" d="M90.5341,58.1019c0,0-2.3163-3.3457-9.7797-2.831
		c-7.4635,0.5147-8.7503,7.7209-8.7503,7.7209s1.2868,0.5147,3.3457-0.5147c2.0589-1.0294,8.2356-3.6031,10.8092-3.0883
		C88.7326,59.9034,90.5341,58.1019,90.5341,58.1019z"/>
	<path style="fill:#564F4C;stroke:#473F3D;stroke-miterlimit:10;" d="M109.8363,56.815c-1.1321-2.4906,7.9782-3.0883,10.0371-2.831
		c2.0589,0.2574,2.3163,2.831,5.4046,3.3457c3.0883,0.5147,3.6031,2.5736,2.831,3.3457c-0.7721,0.7721-5.9193,0.2574-9.265-2.0589
		C115.4982,56.3003,111.1231,59.646,109.8363,56.815z"/>
	<path style="fill:#CE8452;" d="M90.5702,99.4151c0.1727,1.6208,1.0763,6.1075,7.0738,6.1544
		c6.9152,0.054,10.3636-6.3207,10.3636-6.3207"/>
	<path style="fill:#FFA96A;stroke:#6B4429;stroke-linecap:round;stroke-linejoin:round;stroke-miterlimit:10;" d="M97.284,69.6538
		c0,0,0.1497,11.9718-3.1425,18.5563c-3.2923,6.5845-5.6866,12.2711-0.4489,14.1417s8.7224,0.5179,11.8222-1.4965
		c2.2229-1.4446,2.6188-2.1699,2.6188-2.1699"/>
	
		<path style="fill:#FFA96A;stroke:#6B4429;stroke-width:0.8981;stroke-linecap:round;stroke-linejoin:round;stroke-miterlimit:10;" d="
		M92.26,114.0439c3.6111,6.0785,19.5466,2.788,22.733,0.512"/>
	<path style="fill:#CE8452;" d="M99.4138,122.874c2.8619-1.5151,9.0908-4.7138,14.6464-2.1885"/>
	<path style="fill:#FFA96A;stroke:#6B4429;stroke-width:0.7398;stroke-miterlimit:10;" d="M66.4913,84.2054
		c-2.9719-0.9144-2.0574,5.4865,0.2286,6.8581c2.286,1.3716,1.3716,4.5721,1.143,5.9437"/>
	<path style="fill:#FFA96A;stroke:#6B4429;stroke-width:0.7398;stroke-miterlimit:10;" d="M142.8035,82.1852
		c2.9719-0.9144,2.0574,5.4865-0.2286,6.8581c-2.2861,1.3716-1.3716,4.5721-1.143,5.9437"/>
	<path style="fill:#FCBD92;" d="M73.6565,110.4161C70.3107,97.548,76.0639,80.9684,74.005,75.049
		c-1.5053-4.3277-1.3455-18.1378-1.1903-29.4472c0.0571-4.1594-1.3168-3.1261-1.1784-7.0707
		c0.0809-2.3056,2.9369-4.3573,3.7037-6.2289c-0.7907,0.374-3.9687-1.674-4.7812-1.3244c-1.0251,0.4411-2.008,0.3822-2.8564,0.0428
		c-0.0314,0.3582-0.0604,0.7179-0.0734,1.0876c-0.5147,14.6696,1.2868,35.0012,3.3457,40.9205
		c2.0589,5.9194-4.1178,22.9052-0.7721,35.7733c2.4524,9.4325,8.9151,20.2405,15.3334,25.5459
		c1.2613,0.9182,4.8058,3.0631,7.3929,2.8329C81.5267,132.4909,74.7541,114.6375,73.6565,110.4161z"/>
	<path style="fill:#CE8452;" d="M137.0982,58.141c-0.2305-1.2169-0.5174-2.4228-0.9941-3.5946
		c-0.2525-0.6208-0.4633-1.2298-0.6495-1.8357c-0.6442,5.314-1.037,10.0959-0.2666,13.1772
		c2.3305,9.322,2.7395,21.3345,2.2247,32.1438c-0.5147,10.8092-10.8092,31.1408-13.3828,34.7438
		c-2.1451,3.0031-22.2052,4.4189-33.4487,4.5094c0.5964,0.1834,1.1833,0.3049,1.7545,0.3418
		c7.9782,0.5147,31.1408,0.772,33.7144-2.831c2.5736-3.603,12.8681-23.9346,13.3828-34.7438
		c0.5147-10.8092,0.1058-22.8217-2.2247-32.1438C136.6071,65.5038,136.7163,62.0604,137.0982,58.141z"/>
	<path style="fill:#564F4C;stroke:#473F3D;stroke-linecap:round;stroke-linejoin:round;stroke-miterlimit:10;" d="M68.6059,24.8949
		c0,0-6.0606,10.4376-10.4376,12.7945c-4.3771,2.3569-2.6936,6.0606,1.3468,11.4477s10.7743,34.3432,10.7743,34.3432
		s2.3569-7.4073,1.0101-12.4578c-1.3468-5.0505-1.3468-12.7945,1.3468-18.8551s-5.3872-7.4915-3.367-15.3198
		C71.03,30.0637,71.552,26.2417,68.6059,24.8949z"/>
	<path style="fill:#564F4C;stroke:#473F3D;stroke-miterlimit:10;" d="M134.4922,23.6437c0,0,4.0881,9.747,8.6875,11.6334
		c4.5995,1.8865,3.3123,5.7458-0.1428,11.5258c-3.4552,5.78-4.0953,35.2812-4.0953,35.2812s-1.4876-7.1216-2.3067-12.284
		c-0.5944-3.7466-1.1635-11.6905-3.3102-18.611c-1.965-6.3344,4.5746-8.0136,1.7472-15.5878
		C132.6217,29.0376,131.703,25.2911,134.4922,23.6437z"/>
	<path style="opacity:0.4;fill:#3F4142;" d="M119.0264,19.4236c0,0,7.3232-0.2525,10.1009,12.1211s1.5993,17.0032,0.5892,24.8315
		c4.1198-0.7392,13.1733-13.4679,10.2693-23.9055C137.8347,24.739,125.087,14.6256,119.0264,19.4236z"/>
	<path style="fill:#474241;" d="M143.0369,46.8029c3.4552-5.7799,4.7423-9.6393,0.1429-11.5258
		c-0.1228-0.0503-0.2433-0.1272-0.3652-0.1885c0.2227,3.4407-0.4046,6.4681-1.8185,9.8397
		c-1.662,3.9632-3.7106,16.0796-4.1586,26.1052c0.8393,4.9923,2.1042,11.0506,2.1042,11.0506S139.5818,52.5829,143.0369,46.8029z"/>
	<path style="fill:#726A67;" d="M71.2995,71.0225c-1.3468-5.0505-1.3468-12.7945,1.3468-18.855
		c2.6936-6.0606-5.3871-7.4916-3.367-15.3198c1.3143-5.0929,1.9357-8.5161,0.9175-10.4763l-2.096,1.2171l-0.3367,7.5757
		c0,0-3.7037,5.7239-0.6734,9.4276c3.0303,3.7036,4.3771,5.7238,2.3569,11.2793s1.5151,14.1413,0.8417,18.6867
		c-0.2016,1.3608-0.6002,3.0089-1.0269,4.672c0.6397,2.5877,1.0269,4.2505,1.0269,4.2505S72.6463,76.073,71.2995,71.0225z"/>
	<path style="fill:#564F4C;stroke:#473F3D;stroke-linecap:round;stroke-linejoin:round;stroke-miterlimit:10;" d="M129.1274,33.5649
		c-1.7677-1.5151,2.5252-11.6161,5.808-12.3736c3.2828-0.7576,2.8276,1.578,6.1104,7.386s0.5492,17.2068-0.9153,16.6576
		C130.3416,41.564,130.8951,35.08,129.1274,33.5649z"/>
	
		<path style="fill:#564F4C;stroke:#473F3D;stroke-width:0.9442;stroke-linecap:round;stroke-linejoin:round;stroke-miterlimit:10;" d="
		M65.4915,39.7815c0,0-4.2929-23.1867,10.1009-31.741s26.7675-11.2557,45.2017-0.6753s15.909,11.0306,16.6665,14.4073
		s-6.6741,8.7298-11.4721,6.9289c-4.7979-1.8009-18.472-6.214-32.6133,0.0892S70.2894,44.5088,65.4915,39.7815z"/>
	<path style="fill:#726A67;" d="M82.5296,34.1495c3.0969-1.8824,6.5787-3.8817,10.4869-5.6237
		c3.414-1.5217,6.7972-2.3037,10.0351-2.5967c0.0221-0.0355,0.0438-0.0691,0.0658-0.1047
		c7.414-11.9475,20.8646-12.0536,31.1725-9.8817c-1.8539-1.5079-4.9192-3.5457-10.0345-6.5642
		C110.2757,10.9504,85.7384,16.2579,82.5296,34.1495z"/>
	<path style="fill:#726A67;" d="M77.6126,36.6299c0,0-6.5656-16.8835,7.8282-24.7625c8.5335-4.6711,20.3508-7.0472,30.7165-6.9415
		c-1.7213-0.8232-3.3922-1.5274-5.0168-2.1116c-16.1154,0.2395-32.1729,4.49-36.8107,10.6289
		c-6.8463,9.0623-2.7863,21.9155-1.1187,26.2167c1.3491-0.6595,2.8222-1.5182,4.4275-2.4975
		C77.6209,36.8269,77.6126,36.6299,77.6126,36.6299z"/>
	<path style="fill:#564F4C;" d="M77.6126,36.6299c0,0,0.0083,0.197,0.026,0.5325c1.5109-0.9217,3.1392-1.948,4.891-3.0129
		c3.2088-17.8916,27.7461-23.1991,41.7259-24.771c-1.0651-0.6285-2.2111-1.2957-3.4614-2.0134
		c-1.5899-0.9125-3.1319-1.7195-4.6368-2.4392c-10.3657-0.1057-22.183,2.2704-30.7165,6.9415
		C71.047,19.7464,77.6126,36.6299,77.6126,36.6299z"/>
	<path style="fill:#726A67;stroke:#473F3D;stroke-linecap:round;stroke-linejoin:round;stroke-miterlimit:10;" d="M89.9863,31.0396
		c6.5656-4.2929,14.8989-9.0908,25.7574-7.3232s25.5049,16.9191,7.5757,36.3634c0,0-0.5051-1.2626,0-3.7878
		c0.505-2.5252,8.3333-28.7877-9.8484-29.5452S89.9863,31.0396,89.9863,31.0396z"/>
	<g style="opacity:0.4;">
		<path style="fill:#545454;" d="M54.8013,295.2633c0,0,6.0606,1.3468,11.111,1.6835c5.0505,0.3367,11.6699-2.9921,20.0874-2.6554
			c8.4174,0.3367,8.5319-6.0988,12.2356-17.2098c3.7037-11.1111,1.1784-21.0436-6.5656-21.717
			c-7.744-0.6734-14.3097-0.8417-23.7372,7.5757c-9.4275,8.4174-15.1514,7.744-15.1514,7.744L54.8013,295.2633z"/>
		<path style="fill:#545454;" d="M85.7775,255.5329c6.432-0.085,26.4507-1.8091,28.8139,0.9621
			c2.3631,2.7711,13.3036,9.6469,18.3667,14.7739c2.6975,2.7315-6.6247,4.1766-10.5406,2.6068
			c-3.9159-1.5698-10.2742-6.5794-13.7368-7.1858s-13.5725-0.0851-13.5725-0.0851"/>
		<path style="fill:#545454;" d="M94.2831,265.4057c8.0076,1.5999,18.9412,4.1841,20.2879,6.437
			c1.8686,3.126,11.5113,11.7277,15.6499,17.6262c2.2049,3.1425-7.2278,3.015-10.8276,0.8151
			c-3.5998-2.2-9.0351-8.1985-12.3483-9.373c-2.2908-0.8121-7.8047-1.6218-10.9896-2.0442"/>
		<path style="fill:#545454;" d="M92.413,272.2862c7.2051,2.0425,15.7093,4.8941,16.7611,6.9831
			c1.5485,3.0757,10.2791,13.7434,13.7788,19.589c1.8645,3.1143-7.0222,2.3492-10.2666,0.0285
			c-3.2444-2.3207-8.1852-10.246-11.2294-11.5801c-1.5221-0.6671-7.571-2.089-10.3023-2.7034"/>
		<path style="fill:#545454;" d="M90.7592,284.4825c5.9944,1.9396,12.4957,4.4283,13.3125,6.172
			c1.2938,2.7619,8.7557,12.4256,11.7075,17.6888c1.5726,2.804-6.276,1.9037-9.0902-0.2324
			c-2.8142-2.1361-6.9896-9.2767-9.6513-10.5342c-2.6617-1.2575-10.9416-3.0785-10.9416-3.0785"/>
		<path style="fill:#545454;" d="M64.1396,266.217c5.3834-3.1781,3.1196-15.3979,8.1701-18.7649
			c5.0505-3.367,9.0908-2.0202,18.1817-14.1413c6.8567-9.1423,9.0908,7.4074,1.6835,14.8147
			c-3.6341,3.6342-8.0807,7.4073-8.0807,7.4073"/>
	</g>
	<path style="fill:#564F4C;stroke:#473F3D;stroke-linecap:round;stroke-linejoin:round;stroke-miterlimit:10;" d="M86.956,32.0497
		c0,0,13.3837-11.3636,30.5553-11.111s22.4746,7.3232,22.4746,20.2019s-9.3434,20.4544-9.3434,20.4544
		s6.5656-24.7473-4.2929-32.5755S95.2892,27.2518,86.956,32.0497z"/>
	<path style="fill:#D3D3D3;" d="M130.8951,127.5877c0.8259,9.5769-2.6362,32.1414-13.1082,40.661
		c-10.4721,8.5196-11.3596,23.784-11.3596,23.784c10.2946-17.2168,22.719-21.8316,22.719-21.8316
		S134.6829,155.1969,130.8951,127.5877z"/>
	<path style="opacity:0.4;fill:#545454;" d="M38.9765,266.644c1.525-0.7534,9.3429-0.459,11.2198,1.042
		c0.0205,0.0164,0.0367,0.0348,0.057,0.0512c1.1954-22.6478-0.8391-33.0795-0.8391-33.0795
		c0-23.5688-10.3818-40.6385-10.3818-40.6385l-0.805-0.3001c3.8745,5.0127,0.3444,16.4008,0.4124,27.134
		C38.6398,220.8531,40.2803,242.5936,38.9765,266.644z"/>
	<path style="fill:#619BBC;stroke:#2F4A56;stroke-miterlimit:10;" d="M16.1119,182.3056c0,0-16.1744,111.4881-15.5968,122.4636
		c0.5777,10.9755,25.417,8.3809,25.417,8.3809s13.2861,3.1755,15.5968-6.067c2.3106-9.2425,5.7766-88.9626,5.7766-88.9626
		c-0.1093-17.2589-13.3235-29.1517-13.3235-29.1517"/>
	<path style="opacity:0.4;fill:#545454;" d="M58.6044,310.3966c6.6655-6.925,7.3665-14.0169,6.6836-20.8454
		c-0.6828-6.8286-3.9804-24.7697-8.9589-23.606c-3.3592-0.1981-7.4586-0.2286-15.8136,0.2628
		c-0.9975,0.0587-1.9592,0.1654-2.9003,0.2974c2.8601,15.09,4.7469,28.6221,4.5348,36.4687
		c-0.1109,4.1015-0.2589,8.1468-0.4282,16.0464C47.5124,319.0205,57.6498,311.3884,58.6044,310.3966z"/>
	<path style="fill:#273F49;stroke:#2F4A56;stroke-linecap:round;stroke-linejoin:round;stroke-miterlimit:10;" d="M62.2448,285.522
		c-0.6828-6.8286-2.751-23.7695-7.7295-22.6057c-9.026,3.3275-10.0488,17.7521-9.7749,26.7029
		c0.4202,13.7268,4.1747,17.776,9.5632,19.0143c1.1789,0.2709,2.7978-1.2075,3.7524-2.1993
		C64.7216,299.5091,62.9276,292.3506,62.2448,285.522z"/>
	<g>
		<path style="fill:#FFA96A;stroke:#6B4429;stroke-linecap:round;stroke-linejoin:round;stroke-miterlimit:10;" d="
			M55.8114,293.2431c0,0,6.0606,1.3468,11.111,1.6835s11.6699-2.9921,20.0874-2.6554s8.5319-6.0988,12.2356-17.2098
			s1.1784-21.0436-6.5656-21.717s-14.3097-0.8417-23.7372,7.5757s-15.1514,7.744-15.1514,7.744L55.8114,293.2431z"/>
		<path style="fill:#FFA96A;stroke:#6B4429;stroke-linecap:round;stroke-linejoin:round;stroke-miterlimit:10;" d="
			M86.7876,253.5127c6.432-0.085,26.4507-1.8091,28.8139,0.9621c2.3631,2.7712,13.3036,9.6469,18.3667,14.7739
			c2.6975,2.7315-6.6247,4.1765-10.5406,2.6068c-3.9159-1.5698-10.2742-6.5794-13.7368-7.1858s-13.5725-0.0851-13.5725-0.0851"/>
		<path style="fill:#FFA96A;stroke:#6B4429;stroke-linecap:round;stroke-linejoin:round;stroke-miterlimit:10;" d="
			M95.2932,263.3855c8.0076,1.5999,18.9412,4.1841,20.2879,6.437c1.8686,3.126,11.5113,11.7277,15.6499,17.6262
			c2.2049,3.1426-7.2277,3.015-10.8275,0.8151c-3.5998-2.2-9.0351-8.1985-12.3483-9.373
			c-2.2908-0.8121-7.8047-1.6218-10.9896-2.0442"/>
		<path style="fill:#FFA96A;stroke:#6B4429;stroke-linecap:round;stroke-linejoin:round;stroke-miterlimit:10;" d="
			M93.4231,270.2661c7.2051,2.0425,15.7093,4.8941,16.7611,6.9831c1.5485,3.0757,10.2791,13.7434,13.7788,19.589
			c1.8646,3.1143-7.0222,2.3492-10.2666,0.0285s-8.1852-10.246-11.2294-11.5801c-1.5221-0.6671-7.571-2.089-10.3023-2.7033"/>
		<path style="fill:#FFA96A;stroke:#6B4429;stroke-linecap:round;stroke-linejoin:round;stroke-miterlimit:10;" d="
			M91.7693,282.4624c5.9944,1.9396,12.4957,4.4283,13.3125,6.172c1.2938,2.7619,8.7557,12.4256,11.7075,17.6888
			c1.5726,2.804-6.276,1.9037-9.0902-0.2324c-2.8142-2.136-6.9896-9.2766-9.6513-10.5342
			c-2.6617-1.2575-10.9416-3.0785-10.9416-3.0785"/>
		
			<path style="fill:#FFA96A;stroke:#6B4429;stroke-width:0.9149;stroke-linecap:round;stroke-linejoin:round;stroke-miterlimit:10;" d="
			M65.1497,264.1969c4.925-2.9075,3.47-12.5467,8.0905-15.627c4.6205-3.0803,7.7008-3.3883,16.0176-14.4774
			c6.2729-8.3639,8.3168,6.7767,1.5402,13.5533c-3.3247,3.3247-5.3725,6.7767-5.3725,6.7767"/>
	</g>
	<path style="fill:#DEE0E2;stroke:#575A5B;stroke-miterlimit:10;" d="M42.6919,264.8657c0,0,6.0991,0.3396,9.5133,1.3639
		c3.4143,1.0243,6.5135,1.31,6.5135,1.31s-4.1213,5.2538-2.2971,15.6225c1.237,7.0313,3.5124,10.8956,7.6095,11.5784
		c4.0971,0.6829-0.4481,2.0623-3.8624,3.7695c-3.4143,1.7071-19.0132,6.4733-29.0853,4.7661
		C21.0113,301.5691,42.6919,264.8657,42.6919,264.8657z"/>
	<path style="fill:#619BBC;stroke:#2F4A56;stroke-linecap:round;stroke-linejoin:round;stroke-miterlimit:10;" d="M3.4034,309.9681
		c0,0,4.0436,6.3542,10.3978,8.0872c6.2542,1.7057,29.8462-1.1957,40.5024-9.4219c-5.3886-1.2383-9.143-5.2875-9.5632-19.0143
		c-0.274-8.9508,0.7488-23.3753,9.7749-26.7029c-3.3592-0.1981-8.6751-0.23-17.03,0.2614
		C17.8448,264.3331,9.18,280.5075,9.18,280.5075"/>
	<path style="fill:#95B9FF;" d="M21.1624,187.356l-5.0505-5.0505c0,0-16.1744,111.4881-15.5968,122.4636
		c0.1752,3.3292,2.5885,5.9636,5.8579,8.0237c-0.4646-0.924-0.3068-2.0366-0.8074-2.9732
		C0.2799,299.93,19.5075,187.7377,21.1624,187.356z"/>
	<path style="fill:#619BBC;stroke:#2F4A56;stroke-linecap:round;stroke-linejoin:round;stroke-miterlimit:10;" d="M54.5153,262.9163
		c-0.1619-0.0096-0.3326-0.0183-0.5037-0.0271l-0.06,0.2627C54.1375,263.0706,54.3221,262.9875,54.5153,262.9163z"/>
	<path style="fill:#95B9FF;" d="M32.3786,266.857c8.2245-1.6449,15.8393-2.1822,19.3083-2.3517
		c0.6878-0.5387,1.4413-0.9936,2.2647-1.3533l0.06-0.2627c-3.3792-0.1725-8.5741-0.1792-16.5263,0.2885
		C17.8448,264.3331,9.18,280.5075,9.18,280.5075c-0.3269-0.3863-1.7922,1.8202-2.2203,5.2448
		c-0.2103,1.6825,1.8193-2.0334,1.8193-2.0334S21.1781,269.097,32.3786,266.857z"/>
	<path style="opacity:0.4;fill:#545454;" d="M203.5771,399.1672c-3.7099-3.8507-8.5027-23.636-9.6731-44.1044
		c-1.0319-18.0456,1.6518-36.6221-2.3425-45.2787c-7.4821-16.2154-7.7229-48.2685-11.6844-58.7897
		c-3.5772-9.5009-0.4208-30.459,5.9465-43.922c-0.353-2.7581-0.6984-5.5223-1.1303-8.2801l-0.1156,0.1218
		c-10.0276,12.1225-10.907,38.9412-6.7205,50.0601c3.9615,10.5213,5.2579,46.9329,8.6538,58.7897
		c3.3958,11.8568,5.0351,82.1377,12.0156,89.3832c1.3352,1.386,3.4514,2.2771,5.995,2.8168
		C204.1788,399.7163,203.8555,399.4561,203.5771,399.1672z"/>
	<path style="opacity:0.4;fill:#545454;" d="M233.321,344.1104c-2.4088-26.8556-14.3054-46.6545-16.2461-81.7569
		c-1.9407-35.1023-13.3063-81.6393-13.3063-81.6393l-3.6772,3.8743c3.0837,13.6138,11.6111,67.9141,11.933,75.7448
		c1.4439,35.1263,11.9156,40.0606,14.3245,66.9162c2.4088,26.8555,2.3312,70.9462,2.3312,70.9462s-18.455,4.0497-29.2089,1.768
		c8.2532,5.957,34.2593,0.2522,34.2593,0.2522S235.7299,370.9659,233.321,344.1104z"/>
	<g>
		<path style="fill:#452109;" d="M128.1923,74.1007c0,0-0.4632-7.2951-7.2539-6.5553c-6.7907,0.7397-12.9132,0.8566-12.7135,8.2514
			C108.0932,78.0857,120.7594,78.0186,128.1923,74.1007z"/>
		<path style="fill:#FFFFFF;" d="M128.2968,75.6615c0,0-1.0045-6.488-7.7952-5.7483s-12.6589,2.5577-12.3503,7.0972
			C108.0196,79.2994,120.8639,79.5794,128.2968,75.6615z"/>
		<g>
			<defs>
				<path id="SVGID_9_" d="M128.2968,75.6615c0,0-1.0045-6.488-7.7952-5.7483s-12.6589,2.5577-12.3503,7.0972
					C108.0196,79.2994,120.8639,79.5794,128.2968,75.6615z"/>
			</defs>
			<clipPath id="SVGID_2_">
				<use xlink:href="#SVGID_9_"  style="overflow:visible;"/>
			</clipPath>
			
				<ellipse transform="matrix(0.9978 -0.0668 0.0668 0.9978 -4.7283 8.0174)" style="clip-path:url(#SVGID_2_);fill:#A85715;" cx="117.5009" cy="74.6995" rx="5.4794" ry="5.4794"/>
			
				<ellipse transform="matrix(0.9978 -0.0668 0.0668 0.9978 -4.7283 8.0174)" style="clip-path:url(#SVGID_2_);fill:#3D1800;" cx="117.5009" cy="74.6995" rx="3.1862" ry="3.1862"/>
			
				<ellipse transform="matrix(0.9978 -0.0668 0.0668 0.9978 -4.7274 7.7951)" style="clip-path:url(#SVGID_2_);fill:#FFFFFF;" cx="114.1776" cy="74.5755" rx="1.4132" ry="1.4132"/>
		</g>
		<path style="fill:#452109;" d="M74.3998,76.8503c0,0-0.5097-7.2356,6.2666-7.4066c6.7762-0.1709,12.8128-0.866,13.5948,6.4329
			C94.6936,78.1102,82.2281,79.7199,74.3998,76.8503z"/>
		<path style="fill:#FFFFFF;" d="M74.5035,78.3991c0,0,0.1295-6.5135,6.9057-6.6845c6.7762-0.1709,12.7878,0.8406,13.0849,5.3459
			C94.9265,79.2941,82.3318,81.2687,74.5035,78.3991z"/>
		<g>
			<defs>
				<path id="SVGID_11_" d="M74.5035,78.3991c0,0,0.1295-6.5135,6.9057-6.6845c6.7762-0.1709,12.7878,0.8406,13.0849,5.3459
					C94.9265,79.2941,82.3318,81.2687,74.5035,78.3991z"/>
			</defs>
			<clipPath id="SVGID_4_">
				<use xlink:href="#SVGID_11_"  style="overflow:visible;"/>
			</clipPath>
			
				<ellipse transform="matrix(0.9978 -0.0668 0.0668 0.9978 -4.8895 5.8485)" style="clip-path:url(#SVGID_4_);fill:#A85715;" cx="84.9936" cy="76.0247" rx="5.4373" ry="5.4373"/>
			
				<ellipse transform="matrix(0.9978 -0.0668 0.0668 0.9978 -4.8895 5.8485)" style="clip-path:url(#SVGID_4_);fill:#3D1800;" cx="84.9936" cy="76.0247" rx="3.1617" ry="3.1617"/>
			
				<ellipse transform="matrix(0.9978 -0.0668 0.0668 0.9978 -4.8447 6.0645)" style="clip-path:url(#SVGID_4_);fill:#FFFFFF;" cx="88.2455" cy="75.4631" rx="1.4024" ry="1.4024"/>
		</g>
	</g>
</g>
</svg>
