<?xml version="1.0" encoding="utf-8"?>
<!-- Generator: Adobe Illustrator 21.0.2, SVG Export Plug-In . SVG Version: 6.00 Build 0)  -->
<svg version="1.1" id="Capa_1" xmlns="http://www.w3.org/2000/svg" xmlns:xlink="http://www.w3.org/1999/xlink" x="0px" y="0px"
	 viewBox="0 0 261.0824 192.0538" style="enable-background:new 0 0 261.0824 192.0538;" xml:space="preserve">
<g id="Key_Word_3_">
	<g id="Blooming_2_">
		<path style="fill:#888989;" d="M131.0025,163.5147c-9.9641-8.7986-5.4329-29.3303-5.4329-29.3303h-14.8492H95.8722
			c0,0,4.5305,20.5318-5.4336,29.3303c-9.965,8.7988-21.6045,8.7988-21.6045,8.7988v4.9506h41.8864h41.8849v-4.9506
			C152.6054,172.3135,140.9675,172.3135,131.0025,163.5147z"/>
		<rect x="68.834" y="172.3135" style="opacity:0.3;fill:#FFFFFF;" width="83.7714" height="4.9506"/>
		<path style="fill:#CCCCCC;" d="M221.441,120.9862c0,7.2897-5.91,13.1981-13.1982,13.1981H13.1981
			C5.9092,134.1843,0,128.2759,0,120.9862V13.1982C0,5.9101,5.9092,0,13.1981,0h195.0447c7.2881,0,13.1982,5.9101,13.1982,13.1982
			V120.9862z"/>
		<path style="fill:#888989;" d="M0,13.1982v107.788c0,2.561,0.7411,4.944,2.003,6.9656H219.438
			c1.262-2.0216,2.003-4.4046,2.003-6.9656V13.1982c0-3.4164-1.3091-6.5201-3.4416-8.8626H3.4398C1.309,6.6781,0,9.7818,0,13.1982z"
			/>
		<rect x="9.5314" y="8.8005" style="fill:#E2E2E2;" width="202.3782" height="114.5687"/>
		<rect x="29.6051" y="82.1245" style="fill:#9AC900;" width="21.6045" height="41.2447"/>
		<rect x="66.2671" y="69.686" style="fill:#C3DF00;" width="21.6045" height="53.6833"/>
		<rect x="103.2501" y="43.498" style="fill:#DFC300;" width="21.6045" height="79.8712"/>
		<rect x="141.8766" y="29.7488" style="fill:#E85F00;" width="21.6045" height="93.6205"/>
		<rect x="178.7235" y="17.3071" style="fill:#E53400;" width="21.6029" height="106.1379"/>
		<g>
			<g>
				<polygon style="fill:#34495E;" points="23.9336,98.6752 21.9405,96.0184 84.7536,48.9074 152.0735,41.8832 199.482,13.8771 
					201.1708,16.7372 153.1389,45.1113 86.0122,52.1154 				"/>
			</g>
			<circle style="fill:#0CC1B0;" cx="22.9362" cy="97.3464" r="5.4"/>
			<circle style="fill:#0CC1B0;" cx="85.3831" cy="50.5122" r="5.4007"/>
			<circle style="fill:#0CC1B0;" cx="152.6056" cy="43.4976" r="5.4003"/>
			<circle style="fill:#0CC1B0;" cx="200.3266" cy="15.3071" r="5.4007"/>
		</g>
	</g>
	<g id="Lens_3_">
		<path style="fill:#CE6405;" d="M260.0751,177.2792c2.4551,5.1522,0.2681,11.316-4.8834,13.7696l0,0
			c-5.1497,2.4516-11.3134,0.2637-13.7669-4.885l-24.2856-50.9827c-2.451-5.1507-0.2664-11.3145,4.8833-13.7678l0,0
			c5.1515-2.4536,11.3145-0.2657,13.7687,4.8833L260.0751,177.2792z"/>
		<path style="opacity:0.2;fill:#FFFFFF;" d="M256.8184,174.0863c2.0829,4.3675,0.2278,9.5986-4.1423,11.6774l0,0
			c-4.369,2.0838-9.5977,0.2286-11.6789-4.1407l-20.6013-43.2476c-2.0804-4.369-0.2261-9.5986,4.1431-11.6789l0,0
			c4.3692-2.0821,9.5995-0.2269,11.6807,4.1422L256.8184,174.0863z"/>
		
			<ellipse transform="matrix(0.9028 -0.43 0.43 0.9028 -10.6648 91.5628)" style="fill:#C6C6C6;" cx="197.2348" cy="69.3755" rx="37.079" ry="37.079"/>
		<path style="opacity:0.1;" d="M230.7237,121.3358c-2.6735-1.2117-5.8429-1.2838-8.7013,0.0774
			c-2.4912,1.1862-4.2808,3.2466-5.1951,5.6362c1.9099,1.0385,5.1943,0.8452,8.4073-0.6856
			C227.9233,125.0833,229.9121,123.1759,230.7237,121.3358z"/>
		<rect x="183.9497" y="29.7488" style="fill:#E84621;" width="27.9599" height="79.987"/>
		<path style="fill:#242828;" d="M240.0359,48.988c-11.2606-23.6387-39.5507-33.6742-63.1886-22.4137
			c-23.6394,11.2606-33.6725,39.5508-22.4136,63.1895c10.4314,21.8977,35.474,32.1046,57.8978,24.5426l5.2867,11.0977
			c0,0,8.3038,3.2517,11.2925-4.6581l-5.6102-11.7798C242.7918,96.1679,250.347,70.6338,240.0359,48.988z M213.18,102.8511
			c-18.4872,8.8036-40.6135,0.9561-49.4199-17.5304c-8.8072-18.4865-0.9578-40.6144,17.5286-49.4199
			c18.4882-8.8072,40.6145-0.9595,49.4217,17.5286C239.5157,71.9176,231.6673,94.044,213.18,102.8511z"/>
		<path style="opacity:0.2;" d="M199.4265,32.1349c-6.0672-0.3713-12.3076,0.7378-18.1832,3.5374
			c-17.5362,8.3535-25.4888,28.6901-18.7452,46.5379C159.9673,47.0169,184.8378,35.7211,199.4265,32.1349z"/>
	</g>
</g>
</svg>
