<?xml version="1.0" encoding="utf-8"?>
<!-- Generator: Adobe Illustrator 21.0.2, SVG Export Plug-In . SVG Version: 6.00 Build 0)  -->
<svg version="1.1" id="Capa_1" xmlns="http://www.w3.org/2000/svg" xmlns:xlink="http://www.w3.org/1999/xlink" x="0px" y="0px"
	 viewBox="0 0 198.5996 144.029" style="enable-background:new 0 0 198.5996 144.029;" xml:space="preserve">
<g>
	<path style="fill:#FFFFFF;" d="M168.5125,119.4805c18.5554-12.6436,30.0872-30.3229,30.0872-49.8925
		C198.5996,31.1556,154.1416,0,99.2998,0S0,31.1556,0,69.5881s44.458,69.5881,99.2998,69.5881
		c14.5251,0,28.3213-2.1863,40.7563-6.1137c10.3059,7.0668,29.085,14.7513,58.5435,8.8878
		C198.5996,141.9503,177.6763,134.3805,168.5125,119.4805z"/>
	<g>
		<g>
			<path style="fill:#53BB9B;" d="M54.7299,64.0258c0.1124-13.1522,10.6945-23.7947,23.821-24.0188V29.4291
				c-9.1049,0.0562-17.3591,3.6309-23.5317,9.4018l-5.5211-1.4772l1.5688,5.8576c-4.4032,5.7944-7.0635,12.9863-7.1114,20.8145
				H54.7299z"/>
			<g>
				<path style="fill:#53BB9B;" d="M43.0827,21.4642c3.5929,0,6.5161,2.0393,6.5161,4.5469c0,1.5356-1.131,2.9642-3.0259,3.8184
					l-0.732,0.3289l0.0229,0.8007c0.0076,0.2561-0.0132,0.5322-0.0819,0.8146c-0.0438-0.197-0.1062-0.3934-0.1888-0.5863
					l-0.3615-0.8423l-0.9083,0.1221c-0.4358,0.0583-0.8417,0.0868-1.2406,0.0868c-3.5928,0-6.5154-2.04-6.5154-4.5428
					C36.5673,23.5035,39.4899,21.4642,43.0827,21.4642 M43.0827,20.2618c-4.2631,0-7.722,2.5728-7.722,5.7493
					c0,3.1737,3.4589,5.7487,7.722,5.7487c0.4794,0,0.9465-0.0375,1.403-0.1c0.6238,1.4593-0.5009,3.3021-0.5009,3.3021
					c2.8372-0.8812,3.1085-3.0613,3.0814-4.0348c2.2377-1.0068,3.7358-2.8296,3.7358-4.9161
					C50.8019,22.8346,47.3458,20.2618,43.0827,20.2618L43.0827,20.2618z"/>
				<g>
					<circle style="fill:#53BB9B;" cx="39.7589" cy="26.587" r="0.7866"/>
					<circle style="fill:#53BB9B;" cx="43.083" cy="26.587" r="0.7865"/>
					<circle style="fill:#53BB9B;" cx="46.4065" cy="26.587" r="0.7866"/>
				</g>
				<path style="fill:#53BB9B;" d="M35.113,25.8009c-3.7115,0-6.7193,2.239-6.7193,5.0041c0,1.8179,1.3051,3.4027,3.2493,4.2804
					c-0.0229,0.8452,0.2165,2.7436,2.6839,3.5109c0,0-0.979-1.6028-0.4351-2.8733c0.3962,0.0534,0.8021,0.0868,1.2212,0.0868
					c3.7115,0,6.7194-2.2433,6.7194-5.0049C41.8324,28.04,38.8245,25.8009,35.113,25.8009z M31.7887,32.8672
					c-0.435,0-0.7861-0.3525-0.7861-0.7875c0-0.4344,0.3511-0.7862,0.7861-0.7862c0.4343,0,0.7875,0.3518,0.7875,0.7862
					C32.5762,32.5147,32.223,32.8672,31.7887,32.8672z M35.113,32.8672c-0.4343,0-0.7875-0.3525-0.7875-0.7875
					c0-0.4344,0.3532-0.7862,0.7875-0.7862c0.4337,0,0.7862,0.3518,0.7862,0.7862C35.8991,32.5147,35.5467,32.8672,35.113,32.8672z
					 M38.4352,32.8672c-0.4336,0-0.7868-0.3525-0.7868-0.7875c0-0.4344,0.3532-0.7862,0.7868-0.7862
					c0.4343,0,0.7868,0.3518,0.7868,0.7862C39.222,32.5147,38.8695,32.8672,38.4352,32.8672z"/>
			</g>
		</g>
		<g>
			<path style="fill:#F48C37;" d="M57.9598,92.096c5.7542,4.3034,12.8621,6.8977,20.5911,6.9442V88.4651
				c-13.1252-0.2248-23.7086-10.868-23.821-24.0215H43.9555c0.05,8.4811,3.1453,16.2315,8.2299,22.2453l-2.0073,7.4909
				L57.9598,92.096z"/>
			<g>
				<g>
					<path style="fill:#F48C37;" d="M38.9743,94.4607c4.0327,0,7.3133,3.282,7.3133,7.314c0,4.0341-3.2806,7.314-7.3133,7.314
						c-4.0334,0-7.3126-3.2799-7.3126-7.314C31.6617,97.7427,34.9409,94.4607,38.9743,94.4607 M38.9743,92.6456
						c-5.043,0-9.1306,4.0868-9.1306,9.1291c0,5.0423,4.0875,9.1298,9.1306,9.1298c5.0437,0,9.1285-4.0875,9.1285-9.1298
						C48.1028,96.7324,44.018,92.6456,38.9743,92.6456L38.9743,92.6456z"/>
				</g>
				<g>
					<path style="fill:#F48C37;" d="M41.3321,105.3481c-0.2318,0-0.4643-0.0902-0.6425-0.2685l-2.6235-2.6249v-7.1641
						c0-0.5003,0.4066-0.9069,0.9083-0.9069c0.5017,0,0.9075,0.4066,0.9075,0.9069v6.4134l2.0934,2.0927
						c0.3539,0.3553,0.3539,0.9305,0,1.283C41.7983,105.2579,41.5652,105.3481,41.3321,105.3481z"/>
				</g>
			</g>
		</g>
		<g>
			<path style="fill:#F04946;" d="M107.0055,93.4997l-1.7888-6.6791c5.1547-6.0324,8.2986-13.8301,8.3507-22.375l-10.3573-0.0021
				C103.0949,77.7414,92.2914,88.4859,78.97,88.4859v10.5544c7.9892-0.0479,15.3191-2.8116,21.1719-7.3793L107.0055,93.4997z"/>
			<g>
				<path style="fill:#F04946;" d="M114.6247,122.8855c0,1.0813,0.5268,1.6231,1.5814,1.6231c1.0559,0,1.5852-0.5418,1.5852-1.6231
					v-14.9915h1.6218v14.9915c0,1.0813,0.5293,1.6231,1.5852,1.6231s1.5826-0.5418,1.5826-1.6231V97.6149h0.7731v9.3493
					c0,0.5697,0.1932,0.9803,0.5797,1.2379c0.3864,0.2564,0.7869,0.2564,1.1999,0c0.4118-0.2576,0.6164-0.6682,0.6164-1.2379
					v-9.6575c0-1.0825-0.3599-1.9691-1.08-2.6701c-0.7225-0.6934-1.7026-1.0445-2.9367-1.0445h-6.2624
					c-1.1848,0-2.1511,0.3409-2.8975,1.0067c-0.7477,0.6719-1.1203,1.5473-1.1203,2.6297v9.8166
					c0,0.5128,0.2046,0.8754,0.6176,1.0837c0.4131,0.2022,0.8134,0.2022,1.2,0c0.3865-0.2084,0.5797-0.5709,0.5797-1.0837v-9.4302
					h0.7742V122.8855z M114.6247,122.8855"/>
				<path style="fill:#F04946;" d="M115.2399,89.3809c0,0.9043,0.3246,1.6787,0.9663,2.3204
					c0.6429,0.6428,1.4159,0.965,2.3202,0.965c0.8981,0,1.661-0.3222,2.2787-0.965c0.6201-0.6417,0.9283-1.416,0.9283-2.3204
					c0-0.898-0.3082-1.6711-0.9283-2.3139c-0.6177-0.6467-1.3806-0.97-2.2787-0.97c-0.9043,0-1.6773,0.3233-2.3202,0.97
					C115.5645,87.7098,115.2399,88.4829,115.2399,89.3809L115.2399,89.3809z M115.2399,89.3809"/>
			</g>
		</g>
		<g>
			<path style="fill:#348EA9;" d="M105.044,41.4586l1.2801-4.787l-4.7842,1.2829c-6.0567-5.2532-13.9299-8.4728-22.57-8.5255
				v10.5571c13.3215,0,24.1249,10.7445,24.2401,24.0396l10.3573,0.0014C113.5153,55.3872,110.2972,47.5139,105.044,41.4586z"/>
			<g>
				<path style="fill:#348EA9;" d="M115.837,33.2419l-0.4378-0.1596c0.0354-0.3178,0.0257-0.6397-0.0354-0.9645l0.4198-0.1916
					c0.2637-0.1214,0.3781-0.4323,0.2561-0.6959l-0.2429-0.5329c-0.1228-0.2637-0.433-0.3768-0.6974-0.2561l-0.4205,0.1901
					c-0.204-0.2526-0.4434-0.4719-0.707-0.6515l0.161-0.4358c0.0999-0.2699-0.0416-0.5725-0.3102-0.6716l-0.5502-0.2054
					c-0.2643-0.0936-0.5779,0.0479-0.6744,0.3102l-0.1596,0.4357c-0.3178-0.0326-0.6425-0.0229-0.9624,0.0368l-0.195-0.4198
					c-0.1207-0.2623-0.4323-0.3782-0.6945-0.2574l-0.5336,0.2449c-0.263,0.1221-0.3788,0.435-0.2574,0.6973l0.195,0.4191
					c-0.2554,0.206-0.4746,0.4441-0.6557,0.7091l-0.4343-0.1624c-0.2602-0.0964-0.5773,0.0472-0.6744,0.3116l-0.2026,0.5502
					c-0.0485,0.1319-0.0409,0.272,0.0174,0.4004c0.0575,0.127,0.1637,0.2234,0.2942,0.2727l0.4351,0.1623
					c-0.0347,0.315-0.0236,0.6398,0.0347,0.9603l-0.4198,0.1943c-0.2609,0.1207-0.3767,0.4336-0.256,0.6945l0.2463,0.535
					c0.12,0.2623,0.4323,0.3774,0.6938,0.256l0.4212-0.1936c0.206,0.254,0.4441,0.4733,0.7078,0.653l-0.1589,0.4343
					c-0.0507,0.1319-0.0465,0.2762,0.0146,0.4017c0.0576,0.1284,0.1637,0.2249,0.2942,0.2734l0.5509,0.2026
					c0.1304,0.0492,0.272,0.0444,0.4004-0.0146c0.127-0.0569,0.2234-0.1631,0.2727-0.2949l0.1609-0.4364
					c0.3185,0.0367,0.6397,0.0222,0.9631-0.0354l0.1929,0.4205c0.1194,0.2608,0.4336,0.3767,0.6945,0.256l0.535-0.2456
					c0.2609-0.1179,0.3761-0.4316,0.2553-0.6932l-0.1928-0.4225c0.2546-0.2047,0.4732-0.4441,0.6529-0.707l0.4343,0.1616
					c0.1332,0.0472,0.2734,0.0423,0.4032-0.0159c0.127-0.059,0.222-0.1658,0.2713-0.297l0.2034-0.5482
					C116.2464,33.6464,116.1069,33.3432,115.837,33.2419L115.837,33.2419z M112.9533,34.6129
					c-0.2768,0.1256-0.5676,0.1894-0.868,0.1894c-0.8069,0-1.5466-0.4739-1.8824-1.2038c-0.4794-1.0401-0.0229-2.2732,1.0145-2.7532
					c0.2761-0.127,0.5655-0.1901,0.8646-0.1901c0.8097,0,1.548,0.4739,1.8858,1.2059
					C114.4451,32.9005,113.9914,34.1348,112.9533,34.6129L112.9533,34.6129z M112.9533,34.6129"/>
				<path style="fill:#348EA9;" d="M126.517,25.515l-0.7307-0.2692c0.0569-0.5336,0.0375-1.0783-0.0625-1.6181l0.7064-0.3268
					c0.4434-0.2005,0.6348-0.7265,0.4336-1.1699l-0.4135-0.8957c-0.2026-0.4413-0.7265-0.6349-1.1685-0.4323l-0.7085,0.3254
					c-0.3462-0.4267-0.748-0.7945-1.1885-1.097l0.2685-0.7327c0.1679-0.4552-0.0652-0.9624-0.5204-1.1317l-0.9257-0.3442
					c-0.4419-0.1616-0.9693,0.0819-1.1323,0.5211l-0.2713,0.7341c-0.5322-0.0562-1.0769-0.0395-1.6173,0.0604l-0.3261-0.7043
					c-0.2026-0.4427-0.7278-0.637-1.1699-0.433l-0.8972,0.4122c-0.4406,0.204-0.6335,0.7293-0.4309,1.1684l0.3268,0.707
					c-0.4281,0.3477-0.7959,0.7487-1.0997,1.1914l-0.7313-0.2699c-0.4406-0.1631-0.9694,0.0805-1.1338,0.5218l-0.34,0.9249
					c-0.0819,0.2227-0.0729,0.4608,0.0284,0.6731c0.0964,0.2158,0.272,0.3781,0.4933,0.4601l0.7321,0.2685
					c-0.0597,0.5349-0.0389,1.0796,0.061,1.6202l-0.7063,0.3247c-0.4406,0.2026-0.6363,0.7279-0.4336,1.1684l0.4135,0.8972
					c0.2033,0.442,0.7293,0.6363,1.1699,0.4337l0.7084-0.3275c0.3442,0.4289,0.7459,0.7966,1.1886,1.0991l-0.2706,0.7313
					c-0.0798,0.222-0.0694,0.4614,0.0257,0.6738c0.0985,0.2164,0.2768,0.3774,0.4954,0.4593l0.9257,0.3414
					c0.222,0.0819,0.4614,0.0722,0.6751-0.0264c0.2137-0.0978,0.3774-0.274,0.4586-0.4947l0.2699-0.7313
					c0.5322,0.0562,1.0782,0.0382,1.6188-0.061l0.3247,0.707c0.2026,0.4392,0.7279,0.6349,1.1699,0.4323l0.8957-0.4142
					c0.442-0.204,0.6349-0.7271,0.4323-1.1684l-0.3268-0.7077c0.4281-0.3456,0.7972-0.7487,1.0997-1.1907l0.7328,0.2713
					c0.2199,0.0819,0.4586,0.0722,0.6751-0.0284c0.2123-0.0971,0.3747-0.2734,0.4565-0.4927l0.3414-0.927
					C127.208,26.1943,126.9742,25.6836,126.517,25.515L126.517,25.515z M121.6703,27.8179
					c-0.4628,0.2123-0.9534,0.3199-1.4564,0.3199c-1.3565,0-2.6006-0.7938-3.1668-2.0254c-0.8056-1.7457-0.0402-3.8211,1.7055-4.626
					c0.4628-0.2123,0.952-0.3199,1.4564-0.3199c1.3579,0,2.602,0.7945,3.1682,2.0282
					C124.1821,24.9405,123.4147,27.0145,121.6703,27.8179L121.6703,27.8179z M121.6703,27.8179"/>
			</g>
		</g>
	</g>
	<g>
		<g>
			<path style="fill:#348EA9;" d="M158.6286,56.3827V34.9619c-11.8223,0.0737-21.386,9.6743-21.386,21.5143
				c0,2.655,0.5029,5.1845,1.3817,7.5324L158.6286,56.3827z"/>
			<path style="fill:#53BB9B;" d="M158.8996,34.9619V56.148l14.9808-14.9795C170.0244,37.3583,164.739,34.9988,158.8996,34.9619z"/>
			<path style="fill:#F48C37;" d="M158.9309,56.5015l10.2188,18.821c6.6364-3.6655,11.1351-10.7292,11.1351-18.8463
				c0-5.8933-2.3738-11.2299-6.2113-15.1152L158.9309,56.5015z"/>
			<path style="fill:#F04946;" d="M158.7023,56.6454l-19.9837,7.6197c3.1224,8.0305,10.9092,13.7321,20.0451,13.7321
				c3.671,0,7.125-0.9245,10.1485-2.5458L158.7023,56.6454z"/>
		</g>
		<text transform="matrix(1 0 0 1 168.5092 60.5661)" style="fill:#F0F0F0; font-family:'Roboto-Black'; font-size:4.3313px;">31%</text>
		<text transform="matrix(1 0 0 1 143.8197 50.6735)" style="fill:#F0F0F0; font-family:'Roboto-Black'; font-size:4.3313px;">29%</text>
		<text transform="matrix(1 0 0 1 150.4486 72.8151)" style="fill:#F0F0F0; font-family:'Roboto-Black'; font-size:4.3313px;">30%</text>
		<text transform="matrix(1 0 0 1 160.3324 44.2086)" style="fill:#F0F0F0; font-family:'Roboto-Black'; font-size:4.3313px;">10%</text>
	</g>
</g>
</svg>
