<?xml version="1.0" encoding="utf-8"?>
<!-- Generator: Adobe Illustrator 21.0.2, SVG Export Plug-In . SVG Version: 6.00 Build 0)  -->
<svg version="1.1" id="Capa_1" xmlns="http://www.w3.org/2000/svg" xmlns:xlink="http://www.w3.org/1999/xlink" x="0px" y="0px"
	 viewBox="0 0 343 483.6726" style="enable-background:new 0 0 343 483.6726;" xml:space="preserve">
<g>
	<defs>
		<rect id="SVGID_15_" y="0" width="343" height="483.6726"/>
	</defs>
	<clipPath id="SVGID_2_">
		<use xlink:href="#SVGID_15_"  style="overflow:visible;"/>
	</clipPath>
	<g style="clip-path:url(#SVGID_2_);">
		<g>
			<path style="fill:#50565B;stroke:#656C70;stroke-miterlimit:10;" d="M260.9293,412.7117l-1.9553-3.5978
				c0,0,10.6369,2.9721,10.7151-3.5978s0.3911-59.4415,0.3911-59.4415l3.7542-0.4693l-0.3911,64.7599l-2.0335,3.9888l-5.2011-0.3911
				L260.9293,412.7117"/>
			<path style="fill:#808589;stroke:#656C70;stroke-miterlimit:10;" d="M260.9293,412.7117c0,0,11.1062,1.5164,11.1062-5.3424
				v-61.7639h9.0726v61.7639c0,0,1.2254,13.3653-9.5419,13.3983l-10.7673,0.0331L260.9293,412.7117z"/>
			<path style="fill:#252728;stroke:#000000;stroke-miterlimit:10;" d="M192.7348,492.4764h13.2825
				c1.7552,0,3.201-1.3785,3.2845-3.1317l2.3536-49.4149h-24.5587l2.3536,49.4149
				C189.5338,491.0978,190.9796,492.4764,192.7348,492.4764z"/>
			<path style="fill:#262C35;stroke:#161A1E;stroke-miterlimit:10;" d="M238.3293,213.9925c0,0,4.197-11.2373,34.4629-10.6302
				c0,0,31.9319-8.6505,35.2639,61.5397v62.9056c0,0,2.499,43.4041-33.5979,42.19c0,0-38.3183,2.8922-37.7629-30.7276
				L238.3293,213.9925"/>
			<path style="fill:#181D23;" d="M256.6875,209.8122c0,0,28.0445-12.0346,34.4309,53.2839l3.8874,71.6356
				c0,0,1.1107,26.7671-22.2135,27.3741s-1.1107,1.5935-1.1107,1.5935s-30.5435,2.0488-32.0707-27.3931l-6.5252-99.8597
				C233.0856,236.4465,236.6953,209.281,256.6875,209.8122z"/>
			<path style="fill:#50565B;stroke:#656C70;stroke-miterlimit:10;" d="M175.5363,445.3464h51.1209
				c2.6753,0,4.8642-2.1889,4.8642-4.8642V428.654c0-1.7995-1.4724-3.2719-3.2719-3.2719h-54.3056
				c-1.7995,0-3.2719,1.4724-3.2719,3.2719v11.8281C170.6721,443.1575,172.861,445.3464,175.5363,445.3464z"/>
			<path style="fill:#262C35;stroke:#161A1E;stroke-miterlimit:10;" d="M162.5766,432.1084
				c-5.1173-0.2222,13.8723,1.9395,42.4013,2.5028c11.3649,0.2244,33.4644-1.2514,33.4644-1.2514
				c5.3068,0,25.5129-3.1285,25.5129-14.0782v-6.5699c0-11.9926-20.2061-15.3297-25.5129-15.3297c0,0-21.8547-0.3611-33.1329,0
				c-24.2463,0.7763-55.9861,2.5028-55.9861,2.5028c-5.3068,0-13.5848,6.5648-13.5848,11.5754v7.8213
				C136.4292,426.79,157.2699,432.1084,162.5766,432.1084z"/>
			<path style="fill:#181D23;" d="M263.817,411.1195c0,0-64.7957,13.2577-127.0081-3.0555s0,0,0,0s1.4041,15.2846,27.414,18.726
				c0,0,61.1315,5.3185,85.1533,0c0,0,0.329,4.3349-10.1069,6.5474c-10.4359,2.2124,0,0,0,0s20.9306-0.3806,24.5476-12.5367
				c3.6171-12.156,0,0,0,0V411.1195"/>
		</g>
		<path style="fill:#C39145;" d="M133.4858,323.7613c15.6566,9.6922,67.7201,19.4811,89.0566,14.8428
			c0,0,12.9874,42.6729,3.7107,55.6604c-9.2767,12.9874-1.8716,11.318-23.9917,18.3077
			c-18.2357,5.7623-60.552-7.2971-64.2627-32.3443C134.2879,355.1807,133.4858,323.7613,133.4858,323.7613z"/>
		<g>
			<path style="fill:#C39145;stroke:#664614;stroke-miterlimit:10;" d="M145.1188,350.1349c0,0-94.098,12.8913-107.2131,16.3886
				s-20.1098,9.6177-14.4266,36.7222s6.7257,127.6959,6.7257,127.6959s4.6026-2.8437,8.3491-0.9277
				c5.3987,2.761,7.6347,8.2959,17.9577,7.0055c17.4868-2.1859,20.3861-10.407,20.3861-10.407s-0.6173-43.802-0.1801-57.3542
				c0.4372-13.5522-3.3907-42.4054-5.1394-45.9028c-1.7487-3.4973,6.6537-9.1805,6.6537-9.1805s65.1382-5.0222,86.5595-1.962
				s28.4475-5.0327,26.2616-24.7053C188.8672,367.835,145.1188,350.1349,145.1188,350.1349z"/>
			<path style="fill:#CFAC81;" d="M86.9766,370.0234c12.0597-2.783,24.1195-2.783,34.3239-6.4937
				c9.4844-4.3111,27.774-0.617,30.309-10.501c-3.9204-1.853-6.4908-2.8938-6.4908-2.8938s-94.0979,12.8912-107.213,16.3885
				s-20.1098,9.6177-14.4266,36.7222c5.6832,27.1045,6.7257,127.6959,6.7257,127.6959s4.6026-2.8438,8.3491-0.9277
				c1.1222,0.5739,2.1058,1.2695,3.0557,1.9969c1.5157-5.4862-3.7997-11.8217-3.7997-17.2704
				c0.9277-34.3239,0.9277-69.5755-8.3491-102.044c-2.783-12.0598-4.6384-28.7579,0-36.1793
				C40.593,359.8191,66.5678,374.6618,86.9766,370.0234z"/>
			<path style="opacity:0.4;fill:#545454;" d="M139.4367,367.6001c-28.7579,5.566-61.4575,21.2861-64.6585,35.5302
				c-9.2767,0.9277-10.9935,9.5662-10.0658,16.0598c2.783,37.1069,0,73.2862,4.6384,110.3931
				c0.1982,1.1886,0.4269,2.3616,0.6639,3.5302c5.6539-3.0308,6.8829-6.5009,6.8829-6.5009s-0.6172-43.8021-0.1801-57.3543
				c0.4371-13.5522-3.3907-42.4054-5.1393-45.9028c-1.7487-3.4973,6.6537-9.1805,6.6537-9.1805s39.4632-24.5078,60.8846-21.4476
				C159.4178,395.6274,150.66,365.3554,139.4367,367.6001z"/>
		</g>
		<path style="fill:#C39145;" d="M133.4858,323.7613c15.6566,9.6922,67.7201,19.4811,89.0566,14.8428
			c0,0,12.9874,42.6729,3.7107,55.6604c-9.2767,12.9874-1.8716,11.318-23.9917,18.3077
			c-18.2357,5.7623-16.681-44.7876-41.9986-44.4041C129.6496,368.6319,133.4858,323.7613,133.4858,323.7613z"/>
		<g>
			<path style="fill:#C39145;stroke:#664614;stroke-miterlimit:10;" d="M160.572,366.9312
				c-17.1481,1.1088-51.6597,12.7997-67.9695,21.0822c-12.1023,6.1458-19.1462,10.3919-13.463,37.4964
				c5.6832,27.1045,16.0024,114.7085,16.0024,114.7085s4.6026-2.8438,8.3491-0.9277c5.3987,2.761,7.6348,8.2958,17.9577,7.0055
				c17.4868-2.1859,16.6754-10.407,16.6754-10.407s1.2381-43.802,1.6752-57.3542c0.4372-13.5522-5.246-42.4054-6.9947-45.9028
				c-1.7487-3.4973,6.6537-9.1805,6.6537-9.1805s27.9027-1.7456,49.4526-7.528c20.8995-5.6079,50.7116-8.7434,48.5258-28.416"/>
			<path style="fill:#CFAC81;" d="M105.5301,535.1492c-2.783-7.4214-5.566-14.8428-6.4937-21.3365
				c-0.9277-23.1918-6.4937-44.5283-11.1321-66.7924c-4.6384-17.6258-6.4937-39.8899,8.3491-51.022
				c12.9874-8.3491,28.7579-11.1321,42.673-16.6981c7.4214-2.783,16.6981-1.8553,23.1918-5.566c2.86-1.716,6.4226-2.377,9.171-3.934
				l-10.7172-2.869c-17.1481,1.1088-51.6595,12.7997-67.9695,21.0823c-12.1022,6.1458-19.1462,10.3918-13.4629,37.4964
				c5.6832,27.1045,16.0025,114.7084,16.0025,114.7084s4.6026-2.8437,8.3491-0.9277c0.7628,0.3901,1.4591,0.8386,2.1273,1.3124
				C105.9726,538.7145,106.0718,536.7744,105.5301,535.1492z"/>
			<path style="opacity:0.4;fill:#545454;" d="M185.6899,359.5978c-1.9156,7.6044,8.3224,14.2441,10.8831,19.2055
				c1.5419,2.9874,9.2827,20.0057,8.2303,24.9775c-14.3897,2.9532-30.0888-1.2141-44.5406,3.3496
				c-12.9874,3.7107-25.9748,4.6384-38.0346,10.2044c-5.566,2.783-7.4214,12.9874-2.783,19.4811
				c0.9277,0.9277,6.4937-0.9277,6.4937,0c11.6969,35.9263,0.0736,71.8529,1.0355,108.4569
				c11.7718-3.0169,11.1497-9.3836,11.1497-9.3836s1.2382-43.802,1.6753-57.3542c0.4371-13.5522-5.246-42.4054-6.9947-45.9028
				c-1.7487-3.4973,6.6537-9.1805,6.6537-9.1805s27.9027-1.7456,49.4526-7.528c5.9945-1.6085,15.4104-3.941,21.9061-5.5912
				C226.9679,406.2291,185.6899,359.5978,185.6899,359.5978z"/>
		</g>
		<g>
			<path style="fill:#CE8452;stroke:#6B4429;stroke-miterlimit:10;" d="M57.3954,182.7877c0,0,3.9134,7.1014,4.8939,10.9518
				s-8.105,7.5881-9.1541,4.9384s-6.5488-11.6903-4.4081-12.6655C50.8677,185.0373,55.4577,181.737,57.3954,182.7877z"/>
			<path style="fill:#FFA96A;stroke:#6B4429;stroke-linecap:round;stroke-linejoin:round;stroke-miterlimit:10;" d="
				M104.4024,276.8795c-10.7995-21.5647-31.1428-33.6981-30.7312-49.7202c1.3513-5.152,1.4681-12.1693-0.5714-19.9938
				c-2.0394-7.8245-1.9185-9.6577-3.7929-11.1062c-1.8743-1.4485-5.2651-4.1211-13.7762-0.5971
				c-8.5111,3.5239-18.6441,9.4394-16.3922,18.0789c2.2519,8.6396,8.0575,19.796,12.0436,23.2363
				c7.8118,6.7421,22.2293,57.678,30.4107,65.5322C89.7743,310.1637,115.2019,298.4442,104.4024,276.8795z"/>
			<path style="fill:#FFA96A;stroke:#6B4429;stroke-linecap:round;stroke-linejoin:round;stroke-miterlimit:10;" d="
				M59.2712,200.4069c-1.1018-4.2274-1.2036-12.2407-1.0685-14.5219c0.1516-2.5598-0.8398-7.5115-6.2938-6.041
				c-3.7755,1.0179-4.1345,3.6619-3.5667,7.5634c0.5473,3.7592,1.5315,12.9981,3.142,16.9334
				c0.8336-0.0288,2.0803-0.2251,3.8271-0.875C57.6543,202.5942,58.7686,201.2624,59.2712,200.4069z"/>
			<path style="fill:#CE8452;stroke:#6B4429;stroke-miterlimit:10;" d="M57.8807,209.0722c3.4111-1.269,3.3621-3.7542,1.8391-7.3004
				c-0.1657-0.3858-0.3142-0.8488-0.4486-1.3648c-0.5026,0.8555-1.6169,2.1873-3.9599,3.0589
				c-1.7468,0.6499-2.9935,0.8461-3.8271,0.875c0.0609,0.149,0.1225,0.2926,0.1853,0.4258
				C53.3903,208.418,54.4696,210.3412,57.8807,209.0722z"/>
			<path style="fill:#FFA96A;stroke:#6B4429;stroke-linecap:round;stroke-linejoin:round;stroke-miterlimit:10;" d="
				M44.9878,211.0571c-1.6373-3.0497-3.0806-9.4166-3.3544-11.2776c-0.3072-2.0883-1.9749-5.7487-6.2837-2.9651
				c-2.9827,1.9268-2.8346,4.1435-1.6987,7.0905c1.0945,2.8395,3.483,9.9244,5.4959,12.5908c0.6917-0.269,1.7003-0.7936,3.05-1.8279
				C44.0073,213.2804,44.7127,211.8885,44.9878,211.0571z"/>
			<path style="fill:#CE8452;stroke:#6B4429;stroke-miterlimit:10;" d="M45.2944,218.385c2.6356-2.0197,2.1734-3.9892,0.2995-6.3707
				c-0.2038-0.2591-0.4064-0.5849-0.6062-0.9572c-0.275,0.8313-0.9805,2.2233-2.7908,3.6106
				c-1.3497,1.0343-2.3583,1.5589-3.05,1.8279c0.0761,0.101,0.152,0.1975,0.227,0.2852
				C41.4309,219.188,42.6588,220.4048,45.2944,218.385z"/>
			<path style="fill:#FFA96A;stroke:#6B4429;stroke-linecap:round;stroke-linejoin:round;stroke-miterlimit:10;" d="
				M52.4762,206.3766c-1.6758-3.9492-3.4534-13.9784-3.6382-16.2547c-0.2074-2.5542-1.8753-7.2395-7.0482-4.7042
				c-3.5809,1.755-3.5662,4.4335-2.4624,8.1675c1.0637,3.5978,3.8823,14.66,6.019,18.2199
				c0.8179-0.1943,2.0198-0.6359,3.6517-1.6243C51.1869,208.8551,52.0999,207.3202,52.4762,206.3766z"/>
			<path style="fill:#CE8452;stroke:#6B4429;stroke-miterlimit:10;" d="M52.3133,215.1975
				c3.1866-1.9301,2.7917-4.3708,0.7955-7.5644c-0.2172-0.3474-0.4281-0.7744-0.6326-1.2565
				c-0.3763,0.9436-1.2893,2.4785-3.4781,3.8042c-1.6318,0.9884-2.8338,1.43-3.6517,1.6243c0.0808,0.1348,0.1616,0.2642,0.242,0.383
				C47.7944,215.4461,49.1267,217.1276,52.3133,215.1975z"/>
			<path style="fill:#CE8452;" d="M63.2512,221.2945c0,0-2.2072-1.5355-2.2839-3.2744c-0.0767-1.7389-2.4441,1.3536-4.4575,0.2836
				c-2.0134-1.07-3.9338-4.2808-3.9338-4.2808s9.807-4.0657,13.2882-0.4512s3.8399,4.9908,3.8399,4.9908l-5.3158,2.309
				L63.2512,221.2945z"/>
			<path style="fill:#FFA96A;stroke:#6B4429;stroke-linecap:round;stroke-linejoin:round;stroke-miterlimit:10;" d="
				M65.4886,235.389c0,0,7.4776-1.1724,9.7685-8.4621c2.2909-7.2897,2.9869-13.8072,1.1396-16.8751s-10.6086-6.246-13.2771-6.1473
				c-2.6685,0.0986-5.2029,3.0085-6.9342,3.8314c-1.7313,0.8229-6.386,0.7664-7.3166,2.3643
				c-0.9306,1.5979,2.0394,7.8245,6.1149,7.3813c4.0754-0.4432,5.024-3.1207,8.3053-2.0168
				c0.7436,0.2502,1.4017,0.5262,1.9749,0.8035c1.956,0.9464,2.9228,1.9078,2.9228,1.9078s-2.1061-2.4981-3.653-0.3132
				c-1.5469,2.1848-3.2292,5.4929-3.1131,9.3837"/>
			<path style="fill:#E8AD85;stroke:#7C5337;stroke-linecap:round;stroke-linejoin:round;stroke-miterlimit:10;" d="
				M54.1415,210.2095c0.6388,0.7918,0.9671,1.5988,0.8908,2.4257c0,0-3.2087,1.7593-4.9713-0.9077"/>
			<path style="fill:#FFA96A;stroke:#6B4429;stroke-linecap:round;stroke-linejoin:round;stroke-miterlimit:10;" d="
				M71.1257,199.1378c0,0-3.0433-16.363-4.1441-21.1864c-1.1008-4.8235-10.7414-25.9381-12.6722-29.1446
				s-3.2677,7.6014-0.7433,14.8856s5.696,18.2522,5.696,18.2522s0.3903,6.7033,1.272,12.8848"/>
			<path style="fill:#CE8452;" d="M53.566,163.6924c2.5244,7.2841,5.696,18.2522,5.696,18.2522s0.3903,6.7032,1.2721,12.8848
				l1.2591,0.5123c0,0,0.4365-9.7156-0.6046-14.0599s-4.9101-14.5038-5.9624-18.3837c-1.0523-3.8798-1.3794-8.0378-1.3794-8.0378
				l-1.0433-3.2246C51.4646,153.3873,52.2202,159.809,53.566,163.6924z"/>
		</g>
		<path style="fill:#CE8452;" d="M51.1821,236.7773c7.8118,6.7421,22.2292,57.6777,30.4106,65.5321
			c-7.2227-13.2882-16.9655-44.2625-18.5173-45.6536c-1.7944-1.6084-1.7235-2.2024-2.8979-7.8275
			c-1.1744-5.6251-3.809-11.9635-5.5201-16.3757c-1.4919-3.8472-4.4324-5.4335-13.7108-13.3162
			C43.7166,226.4671,48.0208,234.0489,51.1821,236.7773z"/>
		<g>
			
				<path style="fill:#E1E9F5;stroke:#7788A1;stroke-width:0.691;stroke-linecap:round;stroke-linejoin:round;stroke-miterlimit:10;" d="
				M75.0154,232.1556c3.2362,1.2743,4.6549,9.2935,4.6549,9.2935s-6.4907,13.7065-18.2528,14.8658
				c-2.9189-1.243-4.9184-11.2311-4.9184-11.2311C59.6669,245.2617,72.0833,241.8897,75.0154,232.1556z"/>
			<g>
				<path style="fill:#EDF2F9;" d="M77.2869,244.3324c1.5125-1.6797,2.3834-2.8833,2.3834-2.8833s-1.3911-7.9389-4.6047-9.2706
					l-0.0814,0.0686c-0.4292,1.3889-1.0547,2.6118-1.8174,3.6904C76.1451,238.4689,77.572,240.4332,77.2869,244.3324z"/>
				<path style="fill:#C7D7EE;" d="M56.5205,245.2724c0,0,1.981,9.8247,4.8971,11.0425c0.8948-0.0884,1.7572-0.2765,2.5938-0.5312
					c-1.6766-1.2367-1.7634-2.03-3.4616-7.119c-0.4157-1.2455-0.9795-2.3206-1.377-3.6477
					C58.05,245.228,57.1213,245.3045,56.5205,245.2724z"/>
			</g>
		</g>
		<g>
			<path style="fill:#619BBC;stroke:#2F4A56;stroke-linecap:round;stroke-linejoin:round;stroke-miterlimit:10;" d="
				M138.7918,195.0611c-1.002-0.3926-1.623-1.1099-1.9351-1.9266c-0.2575-0.1624-0.4955-0.3551-0.7055-0.5721
				c-5.7563,8.6055-10.9688,19.7582-14.7501,28.9112c-2.5316,6.1282-16.6614,39.198-19.5928,47.6119
				c-4.2995-8.4139-23.2659-38.0288-23.2659-38.0288c-0.0001,9.121-21.5972,19.6702-21.5972,19.6702
				s14.4409,42.0525,27.9636,57.7062c10.2368,11.85,18.8538,10.0977,28.8206,4.0394c7.4936-4.5549,41.5938-55.8704,44.0878-68.5403
				c0.9795-4.975,1.2427-16.7057,0.5889-28.7952C154.4771,206.3527,148.5555,198.8857,138.7918,195.0611z"/>
			<path style="fill:#95B9FF;" d="M136.8495,193.1118c-0.1035-0.0656-0.2118-0.1236-0.3082-0.199
				c-5.9105,8.6796-11.2736,20.1292-15.1401,29.4884c-2.5316,6.1282-16.6614,39.198-19.5928,47.6119
				c-4.2995-8.4139-23.2659-38.0288-23.2659-38.0288c0,1.256-0.4207,2.5389-1.127,3.8179c0.1395,0.4993,0.2328,1.0413,0.2697,1.6401
				c0.3037,4.9308,8.391,13.4006,13.3745,22.1949c4.9835,8.7943,8.208,10.4677,10.2601,15.6404
				c2.0519,5.1728,3.2244,6.3453,2.6381,8.9836c0,0,1.7684-6.4556,0.4446-9.2372s1.3143-6.5925,6.0047-15.9731
				c4.6902-9.3806,17.0023-45.6136,21.3994-51.2417c2.723-3.4851,4.3596-8.4729,6.6219-12.9335
				C137.6363,194.4601,137.1181,193.8292,136.8495,193.1118z"/>
			<path style="opacity:0.4;fill:#545454;" d="M84.9088,307.8469c10.2368,11.85,18.8538,10.0977,28.8207,4.0394
				c7.4936-4.5549,41.5936-55.2841,44.0878-67.954c0.3279-1.666,0.5748-4.0951,0.7347-7.0363
				c-2.4476,2.2777-4.4807,4.1317-5.7113,5.1808c-5.9352,5.06-22.2066,38.0322-29.8284,49.1716
				c-7.6217,11.1395-12.0189,15.5566-19.9338,20.2469c-7.9149,4.6903-12.0089-0.2932-18.458-7.3286
				c-6.4492-7.0354-22.4128-51.6519-24.4251-53.4383c-0.459-0.4073-0.8056-0.7571-1.0883-1.1268
				c-1.3287,0.7173-2.1619,1.1253-2.1619,1.1253S71.3861,292.1931,84.9088,307.8469z"/>
		</g>
		<path style="fill:#DEE0E2;stroke:#575A5B;stroke-miterlimit:10;" d="M219.2955,166.0569l-42.51,47.5985
			c0,0-6.5797,116.5461-4.8013,129.587c12.0598,7.4214,57.8182,8.1352,57.8182,8.1352l11.2934-158.8821L219.2955,166.0569z"/>
		<path style="fill:#DEE0E2;stroke:#575A5B;stroke-miterlimit:10;" d="M171.0565,176.2614l5.729,37.3941
			c0,0-6.5797,116.5461-4.8013,129.587c-19.4811,0-28.7579-12.9874-28.7579-12.9874s-9.7406-132.6572-2.783-137.7594
			C147.4009,187.3934,171.0565,176.2614,171.0565,176.2614z"/>
		<path style="fill:#619BBC;stroke:#2F4A56;stroke-linecap:round;stroke-linejoin:round;stroke-miterlimit:10;" d="
			M224.5523,167.6031c1.1113,4.5612,35.7154,26.5933,43.5701,34.6949c1.4251,7.8376-7.815,41.1282-9.8693,55.7183
			c-0.6441,4.5782-11.3325,47.0352-14.3743,72.2388c-4.3291,35.87,11.7505,47.0021,14.8428,67.4109
			c2.6205,17.295-49.4759,12.369-49.4759,12.369c-7.4213-43.9099-27.2117-45.1468-26.2035-54.819
			c-2.4304-8.0599,8.2153-72.7648,11.345-94.2813C197.5169,239.4182,216.8395,180.9374,224.5523,167.6031z"/>
		<path style="opacity:0.4;fill:#545454;" d="M222.6969,164.8201c1.1113,4.5612,5.1022,5.2568,12.957,13.3584
			c1.4251,7.8376-1.3213,23.5024-3.3756,38.0925c-0.6441,4.5782-15.0791,7.8883-15.0791,7.8883l13.5143,12.8458
			c-15.6483,23.0813-43.0145,76.73-46.1065,103.3236c-0.2428,2.0873-1.6107-0.7697-1.5648-2.7385
			c0.1965-8.4161,12.8537-75.5478,15.9834-97.0643C202.1552,219.0094,214.9842,178.1544,222.6969,164.8201z"/>
		<path style="fill:#619BBC;stroke:#2F4A56;stroke-linecap:round;stroke-linejoin:round;stroke-miterlimit:10;" d="
			M219.9139,159.254c1.1113,4.5612,5.1022,5.2568,12.957,13.3584c1.4251,7.8376-2.249,28.1408-4.3033,42.7309
			c-0.6441,4.5782-15.0791,7.8883-15.0791,7.8883l13.5143,12.8458c-15.6483,23.0813-39.3744,75.2668-42.4663,101.8604
			c-0.2428,2.0873-0.4841-1.1618-0.5666-4.0583c-0.2396-8.4149,8.2153-72.7648,11.345-94.2813
			C198.4445,218.0817,212.2012,172.5883,219.9139,159.254z"/>
		<path style="opacity:0.4;fill:#545454;" d="M142.7625,192.4956c-5.5084,1.2241-6.0299,4.6384-5.566,8.8129
			s1.8553,32.0047-1.8553,50.5582c-3.7107,18.5535,2.3192,54.2688-1.8553,68.6478c-4.1745,14.3789-8.8796,32.3828-8.8796,32.3828
			s8.49,1.2117,12.5005,0.3205c5.5518-1.2337,4.8785-9.3831,11.8087-16.042c8.0827-7.7663,9.9559-36.1093,12.2751-56.5181
			c2.3192-20.4088,7.0831-100.2218,7.0831-100.2218S151.1116,190.6403,142.7625,192.4956z"/>
		<path style="fill:#619BBC;stroke:#2F4A56;stroke-linecap:round;stroke-linejoin:round;stroke-miterlimit:10;" d="
			M139.9795,190.6403c-5.5084,1.2241-6.0299,4.6384-5.566,8.8129c0.4638,4.1745,1.8553,32.0047-1.8553,50.5582
			c-3.7107,18.5535,2.3192,54.2689-1.8553,68.6478c-4.1745,14.3789-6.31,34.357-6.31,34.357s5.9204-0.7626,9.9309-1.6538
			c5.5518-1.2337,4.8785-9.3831,11.8087-16.042c8.0827-7.7663,8.2261-34.7508,10.5453-55.1596s8.8129-101.5802,8.8129-101.5802
			S148.3285,188.7849,139.9795,190.6403z"/>
		<path style="opacity:0.4;fill:#545454;" d="M258.1754,394.7627c-4.0664-18.6385-18.4156-30.3779-14.2966-64.5077
			c1.3949-11.5578,4.3977-26.7424,7.3027-40.2399c-1.9783-28.9162-3.5775-52.0305-3.5775-52.0305
			c0.0625-9.8573-3.1798-20.3163,0.3787-24.9198l-0.7392,0.2758c0,0-9.5349,15.6766-9.5349,37.322
			c0.165,10.5697,1.4064,68.3388-0.7582,91.5306c-2.1646,23.1918,13.0093,65.6555,18.5536,62.4633
			c0.3286-0.1892,0.6192-0.3132,0.8841-0.4458c0.5724-0.5369,1.0519-1.1176,1.4322-1.7427
			c0.2217-0.5996,0.4351-1.4186,0.6541-2.5867C258.4034,398.574,258.3019,396.8416,258.1754,394.7627z"/>
		<path style="fill:#619BBC;stroke:#2F4A56;stroke-linecap:round;stroke-linejoin:round;stroke-miterlimit:10;" d="
			M169.2012,171.623c0,0-21.8003,27.8302-20.4088,32.0047l10.6682,9.2767l-16.8226,8.627c-0.5774,0.2617-1.1211,1.293-0.646,2.3637
			c3.5848,8.0792,14.7869,46.2016,8.6557,91.981c0,0,8.8129-25.0471,11.1321-56.1242
			C164.099,228.6749,164.5628,181.3635,169.2012,171.623z"/>
		<g>
			<path style="opacity:0.4;fill:#545454;" d="M163.1341,234.799l-46.611,17.6085c-2.5511,0.9639-3.7243,3.9109-2.533,6.3642
				l37.0625,76.3545c1.0464,2.1552,3.5612,3.159,5.8044,2.3164l40.1989-15.1063c2.4171-0.9087,3.6273-3.6165,2.6915-6.0226
				l-30.6504-78.8563C168.1747,235.0861,165.5149,233.8998,163.1341,234.799z"/>
			<path style="fill:#9DB2AA;stroke:#6F7B7F;stroke-miterlimit:10;" d="M163.5263,232.1871l-46.611,17.6086
				c-2.5511,0.9639-3.7242,3.9109-2.5338,6.3641l37.0625,76.3545c1.0464,2.1553,3.5622,3.159,5.8044,2.3165l40.1997-15.1072
				c2.417-0.9078,3.6264-3.6156,2.6915-6.0217l-30.6512-78.8563C168.5669,232.4739,165.9063,231.2876,163.5263,232.1871z"/>
			<g style="opacity:0.4;">
				<path style="fill:#545454;" d="M214.2077,303.54c0,0-5.566,1.2375-10.2044,1.5464c-4.6384,0.3089-10.718-2.7477-18.4483-2.4388
					c-7.7303,0.3089-7.8354-5.6014-11.2372-15.8058c-3.4017-10.2044-1.0825-19.3262,6.0299-19.9449
					c7.1125-0.6178,13.1423-0.7728,21.8003,6.9575c8.6581,7.7312,13.9151,7.1125,13.9151,7.1125L214.2077,303.54z"/>
				<path style="fill:#545454;" d="M185.7588,267.0518c-5.9067-0.0778-24.2926-1.6615-26.4622,0.8833
					c-2.1707,2.5456-12.2183,8.86-16.8684,13.569c-2.4768,2.5085,6.0842,3.8358,9.6807,2.3935
					c3.5966-1.4413,9.4362-6.0426,12.616-6.5996c3.1799-0.5562,12.4648-0.0779,12.4648-0.0779"/>
				<path style="fill:#545454;" d="M177.9478,276.1194c-7.3543,1.4685-17.3956,3.842-18.6322,5.9111
					c-1.7168,2.871-10.5722,10.7707-14.3736,16.1881c-2.0247,2.8863,6.6387,2.7695,9.9445,0.7484
					c3.3057-2.0203,8.2974-7.5292,11.3404-8.6082c2.1035-0.7456,7.1677-1.4894,10.093-1.8771"/>
				<path style="fill:#545454;" d="M179.6646,282.4382c-6.6169,1.8753-14.4269,4.4943-15.3927,6.4131
					c-1.4223,2.8247-9.4407,12.6223-12.655,17.9908c-1.7122,2.86,6.4494,2.157,9.429,0.0262
					c2.9796-2.1316,7.5174-9.4099,10.3131-10.6356c1.3978-0.6125,6.9539-1.9188,9.4615-2.4832"/>
				<path style="fill:#545454;" d="M181.1838,293.6391c-5.5054,1.781-11.4763,4.0667-12.2265,5.6684
					c-1.1876,2.5366-8.041,11.412-10.7525,16.2452c-1.444,2.5755,5.7645,1.7484,8.3491-0.2129
					c2.5846-1.9623,6.4194-8.5203,8.8636-9.6754c2.4451-1.1542,10.0486-2.8265,10.0486-2.8265"/>
				<path style="fill:#545454;" d="M205.6312,276.864c-4.9437-2.9189-2.8646-14.1416-7.5029-17.2336
					c-4.6384-3.0919-8.349-1.8553-16.6981-12.9874c-6.297-8.3966-8.3491,6.8026-1.5464,13.6062
					c3.3375,3.3375,7.4214,6.8026,7.4214,6.8026"/>
			</g>
			<path style="fill:#619BBC;stroke:#2F4A56;stroke-miterlimit:10;" d="M268.2936,202.5827c0,0,14.8546,102.3906,14.3246,112.4709
				c-0.5309,10.0803-23.3431,7.6968-23.3431,7.6968s-12.202,2.9171-14.3246-5.5715c-2.1217-8.4886-5.3052-81.704-5.3052-81.704
				c0.1006-15.8502,12.2365-26.7725,12.2365-26.7725"/>
			<path style="opacity:0.4;fill:#545454;" d="M210.7144,317.4389c-6.1214-6.3606-6.7646-12.8733-6.1377-19.1451
				c0.6269-6.2709,3.6554-22.7479,8.2277-21.6798c3.0855-0.1812,25.404,2.5738,33.0764,3.0249
				c0.9168,0.0534,1.7992,0.1522,2.6644,0.2726c-2.6272,13.859-4.3602,26.2875-4.1646,33.4932
				c0.1015,3.7669,0.2374,7.4821,0.3932,14.7378C239.4551,328.1425,211.5914,318.3493,210.7144,317.4389z"/>
			<path style="fill:#273F49;stroke:#2F4A56;stroke-linecap:round;stroke-linejoin:round;stroke-miterlimit:10;" d="
				M207.3716,294.594c0.6269-6.2717,2.5266-19.9748,7.0989-18.9059c8.2892,3.0558,9.2287,15.3754,8.9777,23.5959
				c-0.3859,12.6069-3.8348,13.5427-8.7839,14.6797c-1.0817,0.2491-2.5692-1.1089-3.4461-2.0193
				C205.0968,305.5848,206.7446,300.8649,207.3716,294.594z"/>
			<g>
				<path style="fill:#FFA96A;stroke:#6B4429;stroke-linecap:round;stroke-linejoin:round;stroke-miterlimit:10;" d="
					M213.28,301.6847c0,0-5.566,1.2375-10.2044,1.5464c-4.6384,0.3089-10.718-2.7477-18.4483-2.4388
					c-7.7303,0.3089-7.8354-5.6014-11.2372-15.8058c-3.4017-10.2044-1.0825-19.3262,6.0299-19.9449
					c7.1125-0.6178,13.1423-0.7728,21.8003,6.9576c8.6581,7.7312,13.9151,7.1125,13.9151,7.1125L213.28,301.6847z"/>
				<path style="fill:#FFA96A;stroke:#6B4429;stroke-linecap:round;stroke-linejoin:round;stroke-miterlimit:10;" d="
					M184.8311,265.1965c-5.9067-0.0778-24.2926-1.6615-26.4622,0.8833c-2.1707,2.5456-12.2183,8.86-16.8684,13.569
					c-2.4768,2.5085,6.0842,3.8358,9.6807,2.3935c3.5966-1.4413,9.4362-6.0426,12.616-6.5996
					c3.1799-0.5562,12.4648-0.0779,12.4648-0.0779"/>
				<path style="fill:#FFA96A;stroke:#6B4429;stroke-linecap:round;stroke-linejoin:round;stroke-miterlimit:10;" d="
					M177.0201,274.264c-7.3543,1.4685-17.3956,3.842-18.6322,5.9111c-1.7168,2.871-10.5722,10.7707-14.3736,16.1881
					c-2.0247,2.8863,6.6387,2.7695,9.9445,0.7484c3.3057-2.0203,8.2974-7.5292,11.3404-8.6082
					c2.1035-0.7456,7.1677-1.4894,10.093-1.8771"/>
				<path style="fill:#FFA96A;stroke:#6B4429;stroke-linecap:round;stroke-linejoin:round;stroke-miterlimit:10;" d="
					M178.7369,280.5829c-6.6169,1.8753-14.4269,4.4943-15.3927,6.4131c-1.4223,2.8247-9.4407,12.6223-12.655,17.9908
					c-1.7122,2.86,6.4494,2.157,9.429,0.0262c2.9796-2.1316,7.5174-9.4099,10.3131-10.6356
					c1.3978-0.6125,6.9539-1.9188,9.4615-2.4832"/>
				<path style="fill:#FFA96A;stroke:#6B4429;stroke-linecap:round;stroke-linejoin:round;stroke-miterlimit:10;" d="
					M180.2561,291.7838c-5.5054,1.781-11.4763,4.0667-12.2265,5.6684c-1.1876,2.5366-8.041,11.412-10.7525,16.2452
					c-1.444,2.5755,5.7645,1.7484,8.3491-0.2129c2.5846-1.9623,6.4194-8.5203,8.8636-9.6754
					c2.4451-1.1542,10.0486-2.8265,10.0486-2.8265"/>
				
					<path style="fill:#FFA96A;stroke:#6B4429;stroke-width:0.9149;stroke-linecap:round;stroke-linejoin:round;stroke-miterlimit:10;" d="
					M204.7036,275.0087c-4.5232-2.6698-3.187-11.5226-7.4304-14.3517c-4.2435-2.8292-7.0717-3.1119-14.7106-13.2963
					c-5.7608-7.6814-7.6379,6.2238-1.4142,12.4474c3.053,3.0539,4.9337,6.2238,4.9337,6.2238"/>
			</g>
			<path style="fill:#DEE0E2;stroke:#575A5B;stroke-miterlimit:10;" d="M243.8823,280.2613c0,0-24.1548-2.4714-27.2902-1.5301
				c-3.1354,0.9404-5.9819-0.6523-5.9819-0.6523s3.785,4.8249,2.1099,14.3472c-1.137,6.4584-3.226,10.0069-6.9892,10.6338
				c-3.7624,0.6277,0.4122,1.8943,3.5476,3.4624c3.1354,1.5672,36.0152,8.7278,45.2648,7.1596
				C263.7938,312.1147,243.8823,280.2613,243.8823,280.2613z"/>
			<path style="fill:#619BBC;stroke:#2F4A56;stroke-linecap:round;stroke-linejoin:round;stroke-miterlimit:10;" d="
				M279.9647,319.8278c0,0-3.7134,5.836-9.5485,7.4277c-5.7445,1.5664-45.9642-5.7364-55.7519-13.2918
				c4.9491-1.137,8.398-3.0005,8.7839-15.6074c0.2509-8.2205-0.6885-19.6125-8.9777-22.6682
				c3.0855-0.1821,26.5211,2.572,34.1934,3.0231c18.0381,1.0609,25.9966,15.9154,25.9966,15.9154"/>
			<path style="fill:#95B9FF;" d="M263.6552,207.221l4.6383-4.6384c0,0,14.8546,102.3906,14.3246,112.4709
				c-0.1612,3.0575-2.3772,5.4773-5.3803,7.3688c0.4266-0.8479,0.2817-1.8698,0.7419-2.7304
				C282.8337,310.6091,265.1754,207.5717,263.6552,207.221z"/>
			<path style="fill:#95B9FF;" d="M253.3548,282.0904c-7.5537-1.5111-33.1009-4.787-36.287-4.9427
				c-0.6315-0.4946-1.3236-0.9132-2.0792-1.243l-0.0561-0.2419c3.1037-0.1577,26.4287,2.619,33.7314,3.0484
				c18.0381,1.0609,25.9966,15.9154,25.9966,15.9154c0.2998-0.3543,1.6451,1.6723,2.0383,4.8167
				c0.193,1.5455-1.6705-1.8671-1.6705-1.8671S263.6407,284.1477,253.3548,282.0904z"/>
		</g>
		<g>
			<path style="fill:#FFA96A;stroke:#6B4429;stroke-miterlimit:10;" d="M217.7781,125.4268c0,0-4.5125,43.4131-0.9603,51.1901
				c-0.0734,3.3551-36.6168,26.0786-40.9172,36.6299c-5.1729-11.8065-3.2687-19.1278-3.2687-24.4289l0.6179-37.7252
				L217.7781,125.4268z"/>
			<path style="fill:#CE8452;" d="M217.7781,125.4268c0.5897-4.9803-44.5283,25.6659-44.5283,25.6659l-0.1359,8.3074
				c2.821,2.8813,16.6356,5.253,19.2247,5.4202c7.3271,0.4725,9.0412-3.8054,14.2784-11.1321
				C213.4196,144.1719,217.7781,125.4268,217.7781,125.4268"/>
			<path style="fill:#C6C6C6;stroke:#575A5B;stroke-linecap:round;stroke-linejoin:round;stroke-miterlimit:10;" d="
				M193.6622,190.6403c-9.6183,7.8246-17.8124,24.4289-17.8124,24.4289c11.1321-13.2968,27.9642-17.4097,27.9642-17.4097
				S203.2796,182.8157,193.6622,190.6403z"/>
			<g>
				<path style="fill:#FFA96A;stroke:#6B4429;stroke-miterlimit:10;" d="M195.0999,38.3008
					c-12.4276-0.6373-37.1295,12.105-36.8805,27.7849c0.2482,15.6798,2.6697,32.5134,2.6697,32.5134s-4.9327,9.0956-4.6836,14.3223
					c0.2492,5.2263,1.5065,32.175,5.2952,40.8624c2.4433,5.6028,29.6348,9.7995,33.8483,7.2176
					c2.0891-1.2806,17.422-19.164,21.1553-32.3548c3.7333-13.1913,13.1904-51.5194,7.4658-64.7107
					C218.2464,50.7452,214.5131,39.2964,195.0999,38.3008z"/>
				<path style="fill:#FCBD92;" d="M161.161,86.0007c-1.1233-6.3225,1.1442-8.4713,1.0626-13.6387
					c-0.0905-5.7056-3.0992-8.4356,1.4187-13.9173c7.3652-8.9379,23.8967-19.0744,32.5039-20.0709
					c-0.347-0.0253-0.6885-0.0548-1.0463-0.0729c-12.4276-0.6373-37.1295,12.105-36.8805,27.7849
					c0.2482,15.6798,2.6697,32.5134,2.6697,32.5134S161.7245,89.1734,161.161,86.0007z"/>
				<path style="fill:#FCBD92;" d="M163.6424,152.0685c-3.7886-8.6874-4.4046-33.9207-4.6538-39.147
					c-0.2491-5.2268,1.9006-14.3223,1.9006-14.3223s-4.9327,9.0956-4.6836,14.3223c0.2492,5.2263,1.5065,32.175,5.2952,40.8624
					c0.9421,2.1611,5.5643,4.1125,11.1285,5.5456C179.9419,161.2129,165.6028,156.5651,163.6424,152.0685z"/>
				<path style="fill:#CE8452;" d="M192.566,161.0014c-0.4521,0.2772-1.1822,0.472-2.1063,0.5993
					c2.2965,0.0847,4.0576-0.0897,4.8893-0.5993c2.0891-1.2806,17.422-19.164,21.1553-32.3548
					c0.3062-1.0835,0.6514-2.3364,1.0237-3.7316C209.6075,142.9553,194.6551,159.7208,192.566,161.0014z"/>
				<path style="opacity:0.4;fill:#3F4142;" d="M179.6738,55.1548c6.3433-3.4145,14.782-5.6938,24.5797-3.2261
					c9.7985,2.4664,22.0159,17.4763,4.0875,33.8673c0,0-0.3614-1.1958,0.299-3.4665c0.6586-2.2716,9.7179-23.8422-6.8606-25.958
					C185.2026,54.256,179.6738,55.1548,179.6738,55.1548z"/>
				<path style="fill:#564F4C;stroke:#473F3D;stroke-miterlimit:10;" d="M191.0169,79.9102c-1.04-2.287,7.3271-2.836,9.2178-2.6
					c1.8907,0.2365,2.1272,2.6,4.9636,3.0729s3.3094,2.3635,2.6,3.0724c-0.7093,0.7093-5.4364,0.2365-8.5094-1.8907
					C196.216,79.4377,192.1982,82.5103,191.0169,79.9102z"/>
				<path style="fill:#CE8452;" d="M167.2045,119.9728c-0.0163,1.4975,0.3261,5.6869,5.7925,6.3732
					c3.3447,0.4199,5.9936-0.9164,7.7421-2.2635"/>
				<path style="fill:#FFA96A;stroke:#6B4429;stroke-linecap:round;stroke-linejoin:round;stroke-miterlimit:10;" d="
					M180.024,94.4715c-0.4825,3.4599-2.5336,10.6643-7.3966,15.3611c-4.8631,4.6954-8.6752,8.8894-4.709,12.1105
					c3.9634,3.2201,7.396,3.1132,10.6963,2.316c2.3662-0.5717,2.9306-1.0794,2.9306-1.0794"/>
				<path style="fill:#CE8452;" d="M184.6917,147.0727c-2.6281-1.3915-8.3491-4.329-13.4513-2.0098"/>
				<path style="fill:#564F4C;stroke:#473F3D;stroke-linecap:round;stroke-linejoin:round;stroke-miterlimit:10;" d="
					M163.6642,51.8875c0,0-5.1312,8.1058-7.4504,9.2613s-3.3411,4.7389-0.9449,10.4404c2.9316,6.9761,5.6204,27.0098,5.6204,27.0098
					c0.0435-1.1813,0.2365-5.1941-0.0371-6.2169c-1.2366-4.6384-2.0628-11.8709-0.7737-17.3916
					c1.3852-5.9312-2.4732-6.1073-0.6178-13.2968C161.0686,55.4632,166.3693,53.1246,163.6642,51.8875z"/>
				<path style="fill:#564F4C;stroke:#473F3D;stroke-miterlimit:10;" d="M238.321,69.7103
					c1.0138,6.8769-2.1009,21.0239-5.7291,26.0319c-3.6282,5.0089-9.3999,17.4374-9.3999,17.4374s-3.7107,4.0256-3.5875-0.7732
					c0.4638-18.0316-1.7865-24.2341-3.1906-30.7383c-1.2856-5.9546,5.816-8.7675,3.8429-15.9254
					C218.5454,59.5403,237.6551,65.1938,238.321,69.7103z"/>
				<path style="fill:#564F4C;stroke:#473F3D;stroke-linecap:round;stroke-linejoin:round;stroke-miterlimit:10;" d="
					M216.9292,55.6358c-1.2927-1.7031,9.0123-8.123,12.1069-8.1665c3.0938-0.0435,10.2968,15.8864,10.2987,21.6459
					c0.0054,14.8935-8.6707,19.8471-12.9268,14.8935C220.1507,76.7249,218.2229,57.339,216.9292,55.6358z"/>
				
					<path style="fill:#564F4C;stroke:#473F3D;stroke-width:1.034;stroke-linecap:round;stroke-linejoin:round;stroke-miterlimit:10;" d="
					M159.1269,59.1631c0,0-1.1825-17.7934,12.3796-24.3228c13.565-6.5299,25.1016-8.3577,41.9094,0.7965
					c16.8059,9.1556,15.6331,7.5128,16.2466,10.2814c0.6134,2.7691-9.7812,7.6412-14.1812,6.0344
					c-4.399-1.6083-16.9549-5.6044-30.2247-0.8986C171.9859,55.7597,163.4498,63.1512,159.1269,59.1631z"/>
				<path style="fill:#726A67;" d="M175.0656,55.0898c2.9189-1.438,6.1981-2.9614,9.8652-4.2612
					c3.2026-1.1367,6.3598-1.6719,9.3661-1.8138c0.0231-0.0294,0.0434-0.0547,0.0647-0.0832
					c7.1832-9.4975,20.5805-9.5562,30.0772-7.4826c-1.6776-1.2824-4.3022-2.061-8.9639-4.6678
					C202.4793,37.643,178.5067,40.6328,175.0656,55.0898z"/>
				<path style="fill:#726A67;" d="M170.4427,56.9611c0,0-3.4542-12.7341,10.0898-18.7149
					c8.0313-3.5457,19.0454-5.125,28.6498-4.7318c-1.5745-0.7199-3.1033-1.3428-4.5942-1.8659
					c-14.9419-0.2856-29.9339,2.6933-34.3922,7.5493c-6.582,7.1676-5.3447,16.549-3.9101,20.0972
					c1.2668-0.4961,2.6543-1.1519,4.1685-1.8994C170.446,57.1214,170.4427,56.9611,170.4427,56.9611z"/>
				<path style="fill:#564F4C;" d="M170.4427,56.9611c0,0,0.0032,0.1603,0.0117,0.4344c1.4232-0.705,2.9586-1.4909,4.6111-2.3057
					c3.4412-14.457,27.4138-17.4468,40.4093-18.3085c-0.9688-0.5429-0.9204-0.5228-2.0589-1.1445
					c-1.4488-0.7889-2.8587-1.4912-4.2336-2.1225c-9.6044-0.3932-20.6185,1.1861-28.6498,4.7318
					C166.9886,44.2269,170.4427,56.9611,170.4427,56.9611z"/>
				<path style="fill:#726A67;stroke:#473F3D;stroke-linecap:round;stroke-linejoin:round;stroke-miterlimit:10;" d="
					M180.269,54.7661c6.3451-3.4149,14.3463-7.1541,24.1439-4.6868c9.7968,2.4672,22.0141,17.4776,4.0876,33.8678
					c0,0-0.3624-1.1945,0.2971-3.4661c0.6586-2.2712,9.8774-25.6909-6.7021-27.8071
					C185.5179,50.5594,180.269,54.7661,180.269,54.7661z"/>
				<path style="fill:#564F4C;stroke:#473F3D;stroke-linecap:round;stroke-linejoin:round;stroke-miterlimit:10;" d="
					M177.4179,55.4528c0,0,13.136-9.3515,28.8303-7.777c15.6917,1.574,19.9921,8.4595,18.9847,20.2439
					c-1.0074,11.7848-10.15,17.9868-10.15,17.9868s7.9441-22.1328-1.3797-30.1448
					C204.3803,47.7492,185.4191,51.7145,177.4179,55.4528z"/>
				<path style="fill:#564F4C;stroke:#473F3D;stroke-miterlimit:10;" d="M179.8386,79.4078c0,0-1.7149-3.3198-8.5747-3.7302
					c-6.8578-0.4095-8.879,6.0027-8.879,6.0027s1.1116,0.6197,3.1083-0.0751c1.9977-0.6949,7.9251-2.3119,10.2089-1.5406
					C177.9851,80.8369,179.8386,79.4078,179.8386,79.4078z"/>
				
					<path style="fill:#FFA96A;stroke:#6B4429;stroke-width:0.8981;stroke-linecap:round;stroke-linejoin:round;stroke-miterlimit:10;" d="
					M164.7177,133.1246c3.0919,2.783,15.7342,7.112,25.8018,0.6183"/>
				<path style="fill:#FFA96A;stroke:#6B4429;stroke-width:0.7398;stroke-miterlimit:10;" d="M219.2511,105.1988
					c0,0,6.7239-8.0189,10.9147-3.9608c4.1926,4.059-1.4061,20.6879-6.5589,24.9992c-5.153,4.3109-6.5726-1.6687-6.5726-1.6687"/>
				<path style="fill:#FFA96A;stroke:#6B4429;stroke-width:0.7398;stroke-miterlimit:10;" d="M224.5581,108.1549
					c3.4516-0.7338,1.7746,6.4045-0.9459,7.7248c-2.7205,1.3195-2.0084,5.0271-1.8888,6.6002"/>
			</g>
			<path style="fill:#DEE0E2;stroke:#575A5B;stroke-linecap:round;stroke-linejoin:round;stroke-miterlimit:10;" d="
				M215.7388,155.2343c0,0,1.0826,1.4572-2.1643,7.2995c-3.2469,5.8424-19.7901,27.3333-19.7901,27.3333
				s-0.9277,1.392,2.3192,1.5464c3.2469,0.1545,9.2758,8.504,13.1414,12.0598s9.8964,6.7519,12.8334,5.9271
				c2.937-0.8249-4.1745-5.7726-3.8656-13.194s0.1549-17.7802,2.0103-23.8101
				C222.0785,166.3663,222.3865,155.5436,215.7388,155.2343z"/>
			<path style="fill:#C6C6C6;stroke:#575A5B;stroke-linecap:round;stroke-linejoin:round;stroke-miterlimit:10;" d="
				M168.5526,190.3314c1.7004,4.1745,0.6486,10.5133,2.504,14.6879c1.8553,4.1745,4.7942,7.2669,4.7933,10.0499
				s0.4629-10.1161-1.3924-14.8758c-1.8553-4.7598-1.2366-37.6596-1.2366-37.6596s-4.3295,7.7901-4.3295,13.1555
				C168.8913,181.0546,166.8521,186.1568,168.5526,190.3314z"/>
			<path style="fill:#DEE0E2;stroke:#575A5B;stroke-miterlimit:10;" d="M173.2208,162.5337c0,0-6.0289,11.8723-9.5856,14.9647
				c-3.5567,3.0924-9.1218,26.2951-6.0299,34.6387c0,0,0.4638-7.3385,3.7107-11.9438c3.2468-4.6053,7.5754-10.9441,8.0392-14.0365
				S169.5101,172.307,173.2208,162.5337z"/>
		</g>
		<g>
			<path style="fill:#452109;" d="M207.125,101.343c0,0,0.8113-6.6641-5.444-7.1407c-6.2554-0.4766-11.8024-1.403-12.8685,5.3067
				C188.3078,101.5532,199.7542,103.6273,207.125,101.343z"/>
			<path style="fill:#FFFFFF;" d="M206.9563,102.7697c0,0,0.1866-6.0267-6.0688-6.5033c-6.2554-0.4766-11.8596,0.1757-12.346,4.326
				C188.0368,102.6366,199.5855,105.054,206.9563,102.7697z"/>
			<g>
				<defs>
					<path id="SVGID_17_" d="M206.9563,102.7697c0,0,0.1866-6.0267-6.0688-6.5033c-6.2554-0.4766-11.8596,0.1757-12.346,4.326
						C188.0368,102.6366,199.5855,105.054,206.9563,102.7697z"/>
				</defs>
				<clipPath id="SVGID_4_">
					<use xlink:href="#SVGID_17_"  style="overflow:visible;"/>
				</clipPath>
				
					<ellipse transform="matrix(0.1174 -0.9931 0.9931 0.1174 74.8067 284.3363)" style="clip-path:url(#SVGID_4_);fill:#A85715;" cx="197.3718" cy="100.0817" rx="5.0323" ry="5.0323"/>
				
					<ellipse transform="matrix(0.1174 -0.9931 0.9931 0.1174 74.8067 284.3363)" style="clip-path:url(#SVGID_4_);fill:#3D1800;" cx="197.3718" cy="100.0817" rx="2.5494" ry="2.5494"/>
				
					<ellipse transform="matrix(0.1174 -0.9931 0.9931 0.1174 72.8445 280.7844)" style="clip-path:url(#SVGID_4_);fill:#FFFFFF;" cx="194.3924" cy="99.4096" rx="1.2979" ry="1.2979"/>
			</g>
			<path style="fill:#452109;" d="M161.0868,96.8154c0,0,0.3435-5.9423,5.8765-5.3713s10.5188,0.638,10.3904,6.6604
				C177.4715,99.9677,167.1574,99.9714,161.0868,96.8154z"/>
			<path style="fill:#FFFFFF;" d="M161.0089,98.0868c0,0,0.788-5.2877,6.321-4.7166s10.3197,2.0244,10.0892,5.7223
				C177.537,100.9557,167.0795,101.2428,161.0089,98.0868z"/>
			<g>
				<defs>
					<path id="SVGID_19_" d="M161.0089,98.0868c0,0,0.788-5.2877,6.321-4.7166s10.3197,2.0244,10.0892,5.7223
						C177.537,100.9557,167.0795,101.2428,161.0089,98.0868z"/>
				</defs>
				<clipPath id="SVGID_6_">
					<use xlink:href="#SVGID_19_"  style="overflow:visible;"/>
				</clipPath>
				
					<ellipse transform="matrix(0.0612 -0.9981 0.9981 0.0612 62.3377 260.7824)" style="clip-path:url(#SVGID_6_);fill:#A85715;" cx="169.7954" cy="97.2538" rx="4.4619" ry="4.4619"/>
				
					<ellipse transform="matrix(0.0612 -0.9981 0.9981 0.0612 62.3377 260.7824)" style="clip-path:url(#SVGID_6_);fill:#3D1800;" cx="169.7954" cy="97.2538" rx="2.3098" ry="2.3098"/>
				
					<ellipse transform="matrix(0.0612 -0.9981 0.9981 0.0612 61.6201 256.0762)" style="clip-path:url(#SVGID_6_);fill:#FFFFFF;" cx="166.9349" cy="95.2821" rx="1.1508" ry="1.1508"/>
			</g>
		</g>
		<path style="fill:#619BBC;stroke:#2F4A56;stroke-linecap:round;stroke-linejoin:round;stroke-miterlimit:10;" d="
			M258.7216,397.6659c-0.1499-0.9901-0.3388-1.9529-0.5462-2.9032c0.1265,2.0788,0.228,3.8113,0.2989,5.1187
			c-0.219,1.1681-0.4324,1.9871-0.6541,2.5867C258.6541,401.097,259.0008,399.5087,258.7216,397.6659z"/>
		<path style="opacity:0.4;fill:#545454;" d="M257.8202,402.468c-0.3803,0.625-0.8597,1.2057-1.4322,1.7427
			C256.9596,403.9243,257.4057,403.5888,257.8202,402.468z"/>
	</g>
</g>
</svg>
