<?xml version="1.0" encoding="utf-8"?>
<!-- Generator: Adobe Illustrator 21.0.2, SVG Export Plug-In . SVG Version: 6.00 Build 0)  -->
<svg version="1.1" id="Capa_1" xmlns="http://www.w3.org/2000/svg" xmlns:xlink="http://www.w3.org/1999/xlink" x="0px" y="0px"
	 viewBox="0 0 137.1094 21.2988" style="enable-background:new 0 0 137.1094 21.2988;" xml:space="preserve">
<g>
	<path style="fill:#C9452F;" d="M0,21.0059V0h1.8896v21.0059H0z"/>
	<path style="fill:#C9452F;" d="M14.3115,21.0059V10.0195c0-0.3613-0.0684-0.7007-0.2051-1.0181s-0.3223-0.5933-0.5566-0.8276
		s-0.5103-0.4199-0.8276-0.5566s-0.6567-0.2051-1.0181-0.2051h-1.2012c-0.3613,0-0.7007,0.0684-1.0181,0.2051
		S8.8916,7.9395,8.6572,8.1738S8.2373,8.6841,8.1006,9.0015s-0.2051,0.6567-0.2051,1.0181v10.9863H6.0938v-15h0.6006l0.9814,1.5234
		c0.4102-0.5566,0.9253-0.9985,1.5454-1.3257s1.2964-0.4907,2.0288-0.4907h0.4541c0.6055,0,1.1768,0.1147,1.7139,0.3442
		s1.0059,0.5444,1.4063,0.9448s0.7153,0.8691,0.9448,1.4063s0.3442,1.1084,0.3442,1.7139v10.8838H14.3115z"/>
	<path style="fill:#C9452F;" d="M25.1807,21.0059c-0.5469,0-1.062-0.1025-1.5454-0.3076s-0.9033-0.4883-1.2598-0.8496
		s-0.6396-0.7813-0.8496-1.2598s-0.3149-0.9912-0.3149-1.5381V7.7197h-2.6953V6.0059h2.6953V2.4023l1.8018-0.293v3.8965h3.8086
		v1.7139h-3.8086v9.4189c0,0.3027,0.0562,0.5835,0.1685,0.8423s0.2661,0.4858,0.4614,0.6812s0.4248,0.3491,0.6885,0.4614
		s0.5469,0.1685,0.8496,0.1685h1.6406v1.7139H25.1807z"/>
	<path style="fill:#C9452F;" d="M34.541,7.7197c-0.3613,0-0.7007,0.0684-1.0181,0.2051s-0.5933,0.3223-0.8276,0.5566
		s-0.4199,0.5103-0.5566,0.8276s-0.2051,0.6567-0.2051,1.0181v10.6787h-1.8018v-15h0.6006l0.9814,1.5234
		c0.4102-0.5566,0.9253-0.9985,1.5454-1.3257s1.2964-0.4907,2.0288-0.4907h1.0547v2.0068H34.541z"/>
	<path style="fill:#C9452F;" d="M48.4204,18.6035c-0.2295,0.5371-0.5444,1.0059-0.9448,1.4063s-0.8691,0.7153-1.4063,0.9448
		s-1.1084,0.3442-1.7139,0.3442h-1.2012c-0.6055,0-1.1768-0.1147-1.7139-0.3442s-1.0059-0.5444-1.4063-0.9448
		s-0.7153-0.8691-0.9448-1.4063s-0.3442-1.1084-0.3442-1.7139v-6.7676c0-0.6055,0.1147-1.1768,0.3442-1.7139
		s0.5444-1.0059,0.9448-1.4063s0.8691-0.7153,1.4063-0.9448s1.1084-0.3442,1.7139-0.3442h1.2012
		c0.6055,0,1.1768,0.1147,1.7139,0.3442s1.0059,0.5444,1.4063,0.9448s0.7153,0.8691,0.9448,1.4063s0.3442,1.1084,0.3442,1.7139
		v6.7676C48.7646,17.4951,48.6499,18.0664,48.4204,18.6035z M46.9629,10.0195c0-0.3613-0.0684-0.7007-0.2051-1.0181
		s-0.3223-0.5933-0.5566-0.8276s-0.5103-0.4199-0.8276-0.5566s-0.6567-0.2051-1.0181-0.2051h-1.2012
		c-0.3613,0-0.7007,0.0684-1.0181,0.2051s-0.5933,0.3223-0.8276,0.5566s-0.4199,0.5103-0.5566,0.8276s-0.2051,0.6567-0.2051,1.0181
		v6.9727c0,0.3613,0.0684,0.7007,0.2051,1.0181s0.3223,0.5933,0.5566,0.8276s0.5103,0.4199,0.8276,0.5566
		s0.6567,0.2051,1.0181,0.2051h1.2012c0.3613,0,0.7007-0.0684,1.0181-0.2051s0.5933-0.3223,0.8276-0.5566
		s0.4199-0.5103,0.5566-0.8276s0.2051-0.6567,0.2051-1.0181V10.0195z"/>
	<path style="fill:#C9452F;" d="M61.7871,21.0059l-0.9961-1.5234c-0.4102,0.5566-0.9229,0.9985-1.5381,1.3257
		s-1.2891,0.4907-2.0215,0.4907h-0.4541c-0.6055,0-1.1768-0.1147-1.7139-0.3442s-1.0059-0.5444-1.4063-0.9448
		s-0.7153-0.8691-0.9448-1.4063s-0.3442-1.1084-0.3442-1.7139v-6.7676c0-0.6055,0.1147-1.1768,0.3442-1.7139
		s0.5444-1.0059,0.9448-1.4063s0.8691-0.7153,1.4063-0.9448s1.1084-0.3442,1.7139-0.3442h0.4541
		c0.6738,0,1.2988,0.1367,1.875,0.4102s1.0693,0.6543,1.4795,1.1426V0h1.8018v21.0059H61.7871z M60.5859,10.0195
		c0-0.3613-0.0684-0.7007-0.2051-1.0181s-0.3223-0.5933-0.5566-0.8276s-0.5103-0.4199-0.8276-0.5566s-0.6567-0.2051-1.0181-0.2051
		h-1.2012c-0.3613,0-0.7007,0.0684-1.0181,0.2051s-0.5933,0.3223-0.8276,0.5566s-0.4199,0.5103-0.5566,0.8276
		s-0.2051,0.6567-0.2051,1.0181v6.9727c0,0.3613,0.0684,0.7007,0.2051,1.0181s0.3223,0.5933,0.5566,0.8276
		s0.5103,0.4199,0.8276,0.5566s0.6567,0.2051,1.0181,0.2051h1.2012c0.3613,0,0.7007-0.0684,1.0181-0.2051
		s0.5933-0.3223,0.8276-0.5566s0.4199-0.5103,0.5566-0.8276s0.2051-0.6567,0.2051-1.0181V10.0195z"/>
	<path style="fill:#C9452F;" d="M75.4102,21.0059l-0.9961-1.5234c-0.4102,0.5566-0.9229,0.9985-1.5381,1.3257
		s-1.2891,0.4907-2.0215,0.4907h-0.4541c-0.6055,0-1.1768-0.1147-1.7139-0.3442s-1.0059-0.5444-1.4063-0.9448
		s-0.7153-0.8691-0.9448-1.4063s-0.3442-1.1084-0.3442-1.7139V6.0059h1.8018v10.9863c0,0.3613,0.0684,0.7007,0.2051,1.0181
		s0.3223,0.5933,0.5566,0.8276s0.5103,0.4199,0.8276,0.5566s0.6567,0.2051,1.0181,0.2051h1.2012
		c0.3613,0,0.7007-0.0684,1.0181-0.2051s0.5933-0.3223,0.8276-0.5566s0.4199-0.5103,0.5566-0.8276s0.2051-0.6567,0.2051-1.0181
		V6.0059h1.8018v15H75.4102z"/>
	<path style="fill:#C9452F;" d="M89.2896,18.6035c-0.2295,0.5371-0.5444,1.0059-0.9448,1.4063s-0.8691,0.7153-1.4063,0.9448
		s-1.1084,0.3442-1.7139,0.3442h-1.2012c-0.6055,0-1.1768-0.1147-1.7139-0.3442s-1.0059-0.5444-1.4063-0.9448
		s-0.7153-0.8691-0.9448-1.4063s-0.3442-1.1084-0.3442-1.7139v-6.7676c0-0.6055,0.1147-1.1768,0.3442-1.7139
		s0.5444-1.0059,0.9448-1.4063s0.8691-0.7153,1.4063-0.9448s1.1084-0.3442,1.7139-0.3442h1.2012
		c0.6055,0,1.1768,0.1147,1.7139,0.3442s1.0059,0.5444,1.4063,0.9448s0.7153,0.8691,0.9448,1.4063s0.3442,1.1084,0.3442,1.7139
		v0.6006l-1.8018,0.293v-0.9961c0-0.3613-0.0684-0.7007-0.2051-1.0181s-0.3223-0.5933-0.5566-0.8276s-0.5103-0.4199-0.8276-0.5566
		s-0.6567-0.2051-1.0181-0.2051h-1.2012c-0.3613,0-0.7007,0.0684-1.0181,0.2051s-0.5933,0.3223-0.8276,0.5566
		s-0.4199,0.5103-0.5566,0.8276s-0.2051,0.6567-0.2051,1.0181v6.9727c0,0.3613,0.0684,0.7007,0.2051,1.0181
		s0.3223,0.5933,0.5566,0.8276s0.5103,0.4199,0.8276,0.5566s0.6567,0.2051,1.0181,0.2051h1.2012
		c0.3613,0,0.7007-0.0684,1.0181-0.2051s0.5933-0.3223,0.8276-0.5566s0.4199-0.5103,0.5566-0.8276s0.2051-0.6567,0.2051-1.0181
		v-0.9961l1.8018,0.293v0.6006C89.6338,17.4951,89.519,18.0664,89.2896,18.6035z"/>
	<path style="fill:#C9452F;" d="M102.9126,18.6035c-0.2295,0.5371-0.5444,1.0059-0.9448,1.4063s-0.8691,0.7153-1.4063,0.9448
		s-1.1084,0.3442-1.7139,0.3442h-1.2012c-0.6055,0-1.1768-0.1147-1.7139-0.3442s-1.0059-0.5444-1.4063-0.9448
		s-0.7153-0.8691-0.9448-1.4063s-0.3442-1.1084-0.3442-1.7139v-6.7676c0-0.6055,0.1147-1.1768,0.3442-1.7139
		s0.5444-1.0059,0.9448-1.4063s0.8691-0.7153,1.4063-0.9448s1.1084-0.3442,1.7139-0.3442h1.2012
		c0.6055,0,1.1768,0.1147,1.7139,0.3442s1.0059,0.5444,1.4063,0.9448s0.7153,0.8691,0.9448,1.4063s0.3442,1.1084,0.3442,1.7139
		v0.6006l-1.8018,0.293v-0.9961c0-0.3613-0.0684-0.7007-0.2051-1.0181s-0.3223-0.5933-0.5566-0.8276s-0.5103-0.4199-0.8276-0.5566
		s-0.6567-0.2051-1.0181-0.2051h-1.2012c-0.3613,0-0.7007,0.0684-1.0181,0.2051s-0.5933,0.3223-0.8276,0.5566
		s-0.4199,0.5103-0.5566,0.8276s-0.2051,0.6567-0.2051,1.0181v6.9727c0,0.3613,0.0684,0.7007,0.2051,1.0181
		s0.3223,0.5933,0.5566,0.8276s0.5103,0.4199,0.8276,0.5566s0.6567,0.2051,1.0181,0.2051h1.2012
		c0.3613,0,0.7007-0.0684,1.0181-0.2051s0.5933-0.3223,0.8276-0.5566s0.4199-0.5103,0.5566-0.8276s0.2051-0.6567,0.2051-1.0181
		v-0.9961l1.8018,0.293v0.6006C103.2568,17.4951,103.1421,18.0664,102.9126,18.6035z"/>
	<path style="fill:#C9452F;" d="M107.3145,2.4023V0h2.0947v2.4023H107.3145z M107.4609,21.0059v-15h1.8018v15H107.4609z"/>
	<path style="fill:#C9452F;" d="M123.1421,18.6035c-0.2295,0.5371-0.5444,1.0059-0.9448,1.4063s-0.8691,0.7153-1.4063,0.9448
		s-1.1084,0.3442-1.7139,0.3442h-1.2012c-0.6055,0-1.1768-0.1147-1.7139-0.3442s-1.0059-0.5444-1.4063-0.9448
		s-0.7153-0.8691-0.9448-1.4063s-0.3442-1.1084-0.3442-1.7139v-6.7676c0-0.6055,0.1147-1.1768,0.3442-1.7139
		s0.5444-1.0059,0.9448-1.4063s0.8691-0.7153,1.4063-0.9448s1.1084-0.3442,1.7139-0.3442h1.2012
		c0.6055,0,1.1768,0.1147,1.7139,0.3442s1.0059,0.5444,1.4063,0.9448s0.7153,0.8691,0.9448,1.4063s0.3442,1.1084,0.3442,1.7139
		v6.7676C123.4863,17.4951,123.3716,18.0664,123.1421,18.6035z M121.6846,10.0195c0-0.3613-0.0684-0.7007-0.2051-1.0181
		s-0.3223-0.5933-0.5566-0.8276s-0.5103-0.4199-0.8276-0.5566s-0.6567-0.2051-1.0181-0.2051h-1.2012
		c-0.3613,0-0.7007,0.0684-1.0181,0.2051s-0.5933,0.3223-0.8276,0.5566s-0.4199,0.5103-0.5566,0.8276s-0.2051,0.6567-0.2051,1.0181
		v6.9727c0,0.3613,0.0684,0.7007,0.2051,1.0181s0.3223,0.5933,0.5566,0.8276s0.5103,0.4199,0.8276,0.5566
		s0.6567,0.2051,1.0181,0.2051h1.2012c0.3613,0,0.7007-0.0684,1.0181-0.2051s0.5933-0.3223,0.8276-0.5566
		s0.4199-0.5103,0.5566-0.8276s0.2051-0.6567,0.2051-1.0181V10.0195z M117.7295,3.6035h-1.3477L118.7695,0h3.0029L117.7295,3.6035z"
		/>
	<path style="fill:#C9452F;" d="M135.3076,21.0059V10.0195c0-0.3613-0.0684-0.7007-0.2051-1.0181s-0.3223-0.5933-0.5566-0.8276
		s-0.5103-0.4199-0.8276-0.5566s-0.6567-0.2051-1.0181-0.2051h-1.2012c-0.3613,0-0.7007,0.0684-1.0181,0.2051
		s-0.5933,0.3223-0.8276,0.5566s-0.4199,0.5103-0.5566,0.8276s-0.2051,0.6567-0.2051,1.0181v10.9863h-1.8018v-15h0.6006
		l0.9814,1.5234c0.4102-0.5566,0.9253-0.9985,1.5454-1.3257s1.2964-0.4907,2.0288-0.4907h0.4541
		c0.6055,0,1.1768,0.1147,1.7139,0.3442s1.0059,0.5444,1.4063,0.9448s0.7153,0.8691,0.9448,1.4063s0.3442,1.1084,0.3442,1.7139
		v10.8838H135.3076z"/>
</g>
</svg>
