<?xml version="1.0" encoding="utf-8"?>
<!-- Generator: Adobe Illustrator 21.0.2, SVG Export Plug-In . SVG Version: 6.00 Build 0)  -->
<svg version="1.1" id="Capa_1" xmlns="http://www.w3.org/2000/svg" xmlns:xlink="http://www.w3.org/1999/xlink" x="0px" y="0px"
	 viewBox="0 0 136.4469 625.9857" style="enable-background:new 0 0 136.4469 625.9857;" xml:space="preserve">
<g>
	<g id="XMLID_4417_">
		<path style="fill-rule:evenodd;clip-rule:evenodd;fill:#FFFFFF;" d="M135.8607,312.9933
			c0-116.3348-14.6729-224.1998-39.6881-312.9933H0v625.9857h96.1729C121.1878,537.1921,135.8607,429.3275,135.8607,312.9933z"/>
	</g>
	<g id="XMLID_4236_">
		<path id="XMLID_4416_" style="fill-rule:evenodd;clip-rule:evenodd;" d="M74.1211,276.8734c4.5319,0,8.2252,3.718,8.2252,8.2747
			c0,4.5567-3.6932,8.2728-8.2252,8.2728c-4.5301,0-8.2272-3.7161-8.2272-8.2728C65.8939,280.5914,69.591,276.8734,74.1211,276.8734
			"/>
		<path id="XMLID_4410_" style="fill-rule:evenodd;clip-rule:evenodd;" d="M44.1611,303.5769v0.0305l-0.04,0.3043
			c0,0.426,0.2416,0.7436,0.7265,0.9528c0.4887,0.2073,1.2418,0.3119,2.2612,0.3119c0.7759,0,1.3826-0.0875,1.8238-0.2567
			c0.4431-0.1711,0.6637-0.4051,0.6637-0.7036c0-0.4526-0.8748-0.8159-2.615-1.1012c-0.2035-0.0323-0.3556-0.057-0.4545-0.0723
			c-0.1122-0.0209-0.2757-0.0475-0.4887-0.0818c-2.7652-0.4526-4.5453-0.9433-5.3307-1.472
			c-0.3823-0.2606-0.6752-0.563-0.8729-0.9148c-0.1901-0.3518-0.289-0.7512-0.289-1.1886c0-1.0821,0.6352-1.9056,1.9056-2.4704
			c1.2704-0.5648,3.1303-0.8482,5.578-0.8482c2.4191,0,4.2105,0.2643,5.3763,0.793c1.1639,0.5325,1.7478,1.3503,1.7478,2.4476
			v0.1274h-4.5815v-0.0494c0-0.3803-0.2282-0.6637-0.6922-0.8577c-0.464-0.1959-1.1449-0.2948-2.0387-0.2948
			c-0.6942,0-1.2305,0.0685-1.6032,0.2073c-0.3785,0.1388-0.5667,0.3385-0.5667,0.5934c0,0.4583,0.9985,0.8463,2.9953,1.1696
			c0.3842,0.0571,0.6865,0.1046,0.9052,0.1388c1.4226,0.2377,2.4362,0.4431,3.0391,0.6143c0.6028,0.1693,1.122,0.3727,1.5613,0.6047
			c0.485,0.2663,0.8672,0.6048,1.1297,1.0117c0.2644,0.407,0.3975,0.852,0.3975,1.3389c0,1.1144-0.6941,1.9702-2.0768,2.5712
			c-1.3845,0.601-3.3794,0.9015-5.9773,0.9015c-2.5693,0-4.4293-0.2891-5.5799-0.8653c-1.1505-0.58-1.7192-1.5043-1.7192-2.7804
			v-0.1617H44.1611z M56.7091,307.1998v-10.9676h13.0576v2.364h-8.1548v1.7477h7.5406v2.3335h-7.5406v2.1281h8.4648v2.3943H56.7091z
			 M72.123,307.1998v-10.9676h6.2055l6.641,7.358v-7.358h4.7108v10.9676h-6.4356l-6.4261-7.3846v7.3846H72.123z M102.3481,302.8257
			l-2.3468-3.9861l-2.4799,3.9861H102.3481z M94.8779,307.1998h-4.9162l7.59-10.9676h5.4391l7.2401,10.9676h-5.46l-1.105-1.9797
			h-7.6071L94.8779,307.1998z"/>
		<path id="XMLID_4409_" style="fill-rule:evenodd;clip-rule:evenodd;" d="M50.1894,345.8644l-4.3798-4.1174l13.3334-23.1409
			c0.7265-1.2628-0.1825-2.8394-1.6393-2.8394H35.6749v-5.7891h35.1336L50.1894,345.8644z"/>
		<path id="XMLID_4407_" style="fill-rule:evenodd;clip-rule:evenodd;" d="M97.6714,345.8644l4.3798-4.1174l-13.3334-23.1409
			c-0.7265-1.2628,0.1825-2.8394,1.6393-2.8394h21.8287v-5.7891H77.0523L97.6714,345.8644z"/>
		<path id="XMLID_4239_" style="fill-rule:evenodd;clip-rule:evenodd;" d="M73.8826,316.096l0.0475-0.0818l19.7976,32.724
			l-5.2565,2.7348L75.714,330.1084c-0.7512-1.259-2.575-1.2609-3.3224,0c-4.2524,7.1678-12.6735,21.3647-12.6735,21.3647
			l-5.1462-2.5446C54.5718,348.9284,72.8251,317.8951,73.8826,316.096"/>
	</g>
	<path id="XMLID_4232_" style="fill:#2A4690;" d="M136.3,318.6046c2.2771-124.8297-22.6157-290.8483-26.4429-315.5521
		c-0.2479-1.6-0.8101-2.7005-1.4718-3.0525H95.5389c0.6714,0,1.3027,0.8125,1.6833,2.1772
		C121.8656,90.5542,136.3,197.6076,136.3,312.9933c0,2.2768-0.0156,4.5443-0.0268,6.8143
		C136.2817,319.4022,136.2925,319.0185,136.3,318.6046z"/>
	<path id="XMLID_60_" style="fill:#2A4690;" d="M136.3,306.5991c2.2771,124.8297-22.6157,290.8483-26.4429,315.5521
		c-0.2479,1.6-0.8101,2.7006-1.4718,3.0525H95.5389c0.6714,0,1.3027-0.8125,1.6833-2.1772
		C121.8656,534.6495,136.3,427.5961,136.3,312.2104c0-2.2768-0.0156-4.5442-0.0268-6.8143
		C136.2817,305.8015,136.2925,306.1852,136.3,306.5991z"/>
</g>
</svg>
