<?xml version="1.0" encoding="utf-8"?>
<!-- Generator: Adobe Illustrator 21.0.2, SVG Export Plug-In . SVG Version: 6.00 Build 0)  -->
<svg version="1.1" id="Capa_1" xmlns="http://www.w3.org/2000/svg" xmlns:xlink="http://www.w3.org/1999/xlink" x="0px" y="0px"
	 viewBox="0 0 1045.631 40" style="enable-background:new 0 0 1045.631 40;" xml:space="preserve">
<g>
	<rect id="XMLID_5167_" x="40" style="opacity:0.5;" width="1005.631" height="40"/>
	<g>
		<rect id="XMLID_5166_" y="0" style="fill:#312767;" width="40" height="40"/>
		<g id="XMLID_5162_" style="opacity:0.87;">
			<g>
				<g style="opacity:0.25;">
					<rect y="0" style="fill-rule:evenodd;clip-rule:evenodd;fill:#020202;" width="40" height="40"/>
				</g>
			</g>
		</g>
		<g id="XMLID_5153_">
			<path id="XMLID_5157_" style="fill:#FFFFFF;" d="M28.8648,19.2595l-8.4604-6.9787c-0.3911-0.3228-0.9567-0.3228-1.3485,0
				l-8.4597,6.9787c-0.2442,0.2015-0.3856,0.5015-0.3856,0.8174v10.5303c0,0.5848,0.4746,1.0594,1.0594,1.0594h16.92
				c0.585,0,1.0594-0.4746,1.0594-1.0594V20.0769C29.2496,19.761,29.109,19.461,28.8648,19.2595L28.8648,19.2595z M20.8506,29.5478
				h-2.2402v-5.8656h2.2402V29.5478z M27.1307,29.5478h-4.1611v-6.9251c0-0.5855-0.4745-1.0594-1.0594-1.0594H17.551
				c-0.5857,0-1.0594,0.4739-1.0594,1.0594v6.9251h-4.162v-8.9715l7.4009-6.1049l7.4002,6.1049V29.5478z M27.1307,29.5478"/>
			<path id="XMLID_5154_" style="fill:#FFFFFF;" d="M31.8018,17.1345c-2.3604-1.8906-4.5854-3.6976-7.001-5.6869
				c-0.7222-0.6491-1.4802-1.2629-2.2148-1.8569c-0.718-0.582-1.4615-1.1836-2.1471-1.8009c-0.4028-0.3621-1.0146-0.3621-1.4174,0
				c-0.6856,0.6173-1.4285,1.2189-2.1471,1.8009c-0.734,0.594-1.4928,1.2078-2.2142,1.8569
				c-2.4161,1.9893-4.6412,3.7963-7.0008,5.6869C7.2027,17.5,7.1289,18.1671,7.4944,18.6237
				c0.3657,0.4566,1.0333,0.5304,1.4892,0.1647c2.3733-1.9008,4.6109-3.719,7.0416-5.7199
				c0.0117-0.0104,0.0235-0.0199,0.0351-0.0304c0.6856-0.6173,1.4285-1.2187,2.1471-1.8009
				c0.5029-0.4063,1.0167-0.8228,1.523-1.2533c0.5057,0.4305,1.0202,0.847,1.5229,1.2533c0.7188,0.5822,1.4617,1.1836,2.1471,1.8009
				c0.0118,0.0104,0.0235,0.0199,0.0353,0.0304c2.4305,2.0009,4.6674,3.8191,7.0409,5.7199
				c0.1958,0.1559,0.4296,0.2325,0.6622,0.2325c0.3102,0,0.618-0.136,0.8269-0.3973C32.332,18.1671,32.2582,17.5,31.8018,17.1345
				L31.8018,17.1345z M31.8018,17.1345"/>
		</g>
	</g>
</g>
</svg>
