<?xml version="1.0" encoding="utf-8"?>
<!-- Generator: Adobe Illustrator 21.0.2, SVG Export Plug-In . SVG Version: 6.00 Build 0)  -->
<svg version="1.1" id="Capa_1" xmlns="http://www.w3.org/2000/svg" xmlns:xlink="http://www.w3.org/1999/xlink" x="0px" y="0px"
	 viewBox="0 0 244.2437 35.4242" style="enable-background:new 0 0 244.2437 35.4242;" xml:space="preserve">
<g>
	<rect id="XMLID_4411_" y="0" style="fill-rule:evenodd;clip-rule:evenodd;fill:#C9452F;" width="244.2437" height="35.4242"/>
	<g>
		<g>
			<path style="fill:#FFFFFF;" d="M56.6063,20.1035v-2.1709h5.6074v5.1328c-0.5449,0.5273-1.335,0.9922-2.3691,1.3926
				c-1.0342,0.4014-2.0811,0.6025-3.1416,0.6025c-1.3477,0-2.5225-0.2822-3.5244-0.8486c-1.002-0.5645-1.7549-1.373-2.2588-2.4258
				c-0.5039-1.0508-0.7559-2.1953-0.7559-3.4316c0-1.3418,0.2813-2.5342,0.8438-3.5771s1.3857-1.8428,2.4697-2.3994
				c0.8262-0.4277,1.8545-0.6416,3.085-0.6416c1.5996,0,2.8486,0.3359,3.748,1.0068s1.4785,1.5977,1.7363,2.7813l-2.584,0.4834
				c-0.1816-0.6328-0.5234-1.1318-1.0244-1.499c-0.501-0.3652-1.126-0.5488-1.876-0.5488c-1.1367,0-2.041,0.3604-2.7119,1.0811
				s-1.0059,1.79-1.0059,3.208c0,1.5293,0.3398,2.6758,1.0195,3.4414c0.6797,0.7637,1.5703,1.1465,2.6719,1.1465
				c0.5449,0,1.0908-0.1064,1.6387-0.3203s1.0186-0.4736,1.4111-0.7783v-1.6348H56.6063z"/>
			<path style="fill:#FFFFFF;" d="M70.0008,21.8701l2.4609,0.4131c-0.3164,0.9023-0.8164,1.5898-1.499,2.0615
				s-1.5361,0.707-2.5615,0.707c-1.623,0-2.8242-0.5303-3.6035-1.5908c-0.6152-0.8496-0.9229-1.9219-0.9229-3.2168
				c0-1.5469,0.4043-2.7578,1.2129-3.6338c0.8086-0.876,1.8311-1.3145,3.0674-1.3145c1.3887,0,2.4844,0.459,3.2871,1.375
				c0.8027,0.918,1.1865,2.3223,1.1514,4.2148h-6.1875c0.0176,0.7324,0.2168,1.3027,0.5977,1.709
				c0.3809,0.4082,0.8555,0.6113,1.4238,0.6113c0.3867,0,0.7119-0.1055,0.9756-0.3164S69.866,22.3388,70.0008,21.8701z
				 M70.1414,19.374c-0.0176-0.7148-0.2021-1.2578-0.5537-1.6309c-0.3516-0.3711-0.7793-0.5576-1.2832-0.5576
				c-0.5391,0-0.9844,0.1963-1.3359,0.5889s-0.5244,0.9258-0.5186,1.5996H70.1414z"/>
			<path style="fill:#FFFFFF;" d="M83.0965,24.8408h-2.4697v-4.7637c0-1.0078-0.0527-1.6592-0.1582-1.9551
				s-0.2773-0.5264-0.5146-0.6904s-0.5225-0.2461-0.8564-0.2461c-0.4277,0-0.8115,0.1172-1.1514,0.3516
				s-0.5732,0.5449-0.6992,0.9316s-0.1885,1.1016-0.1885,2.1445v4.2275h-2.4697v-9.334h2.2939v1.3711
				c0.8145-1.0547,1.8398-1.582,3.0762-1.582c0.5449,0,1.043,0.0986,1.4941,0.2949s0.792,0.4463,1.0234,0.751
				s0.3926,0.6504,0.4834,1.0371s0.1367,0.9404,0.1367,1.6611V24.8408z"/>
			<path style="fill:#FFFFFF;" d="M91.0067,21.8701l2.4609,0.4131c-0.3164,0.9023-0.8164,1.5898-1.499,2.0615
				s-1.5361,0.707-2.5615,0.707c-1.623,0-2.8242-0.5303-3.6035-1.5908c-0.6152-0.8496-0.9229-1.9219-0.9229-3.2168
				c0-1.5469,0.4043-2.7578,1.2129-3.6338c0.8086-0.876,1.8311-1.3145,3.0674-1.3145c1.3887,0,2.4844,0.459,3.2871,1.375
				c0.8027,0.918,1.1865,2.3223,1.1514,4.2148h-6.1875c0.0176,0.7324,0.2168,1.3027,0.5977,1.709
				c0.3809,0.4082,0.8555,0.6113,1.4238,0.6113c0.3867,0,0.7119-0.1055,0.9756-0.3164S90.8719,22.3388,91.0067,21.8701z
				 M91.1473,19.374c-0.0176-0.7148-0.2021-1.2578-0.5537-1.6309c-0.3516-0.3711-0.7793-0.5576-1.2832-0.5576
				c-0.5391,0-0.9844,0.1963-1.3359,0.5889s-0.5244,0.9258-0.5186,1.5996H91.1473z"/>
			<path style="fill:#FFFFFF;" d="M97.9764,24.8408h-2.4697v-9.334h2.2939v1.3271c0.3926-0.627,0.7451-1.04,1.0586-1.2393
				s0.6699-0.2988,1.0684-0.2988c0.5625,0,1.1045,0.1553,1.626,0.4658l-0.7646,2.1533c-0.416-0.2695-0.8027-0.4043-1.1602-0.4043
				c-0.3457,0-0.6387,0.0957-0.8789,0.2852c-0.2402,0.1914-0.4297,0.5352-0.5674,1.0332s-0.2061,1.541-0.2061,3.1289V24.8408z"/>
			<path style="fill:#FFFFFF;" d="M104.4627,18.3545l-2.2412-0.4043c0.252-0.9023,0.6855-1.5703,1.3008-2.0039
				c0.6152-0.4336,1.5293-0.6504,2.7422-0.6504c1.1016,0,1.9219,0.1309,2.4609,0.3906c0.5391,0.2617,0.918,0.5928,1.1377,0.9941
				s0.3301,1.1377,0.3301,2.21l-0.0264,2.8828c0,0.8203,0.0391,1.4258,0.1182,1.8154s0.2275,0.8066,0.4443,1.252h-2.4434
				c-0.0645-0.1641-0.1436-0.4072-0.2373-0.7295c-0.041-0.1465-0.0703-0.2432-0.0879-0.29
				c-0.4219,0.4102-0.873,0.7178-1.3535,0.9229s-0.9932,0.3076-1.5381,0.3076c-0.9609,0-1.7188-0.2607-2.2725-0.7822
				s-0.8301-1.1807-0.8301-1.9775c0-0.5273,0.126-0.998,0.3779-1.4102c0.252-0.4141,0.6045-0.7305,1.0586-0.9492
				c0.4541-0.2207,1.1094-0.4121,1.9648-0.5762c1.1543-0.2168,1.9541-0.4189,2.3994-0.6064v-0.2461
				c0-0.4746-0.1172-0.8135-0.3516-1.0146c-0.2344-0.2031-0.6768-0.3037-1.3271-0.3037c-0.4395,0-0.7822,0.0869-1.0283,0.2588
				C104.8143,17.6181,104.6151,17.9209,104.4627,18.3545z M107.7674,20.3584c-0.3164,0.1055-0.8174,0.2314-1.5029,0.3779
				s-1.1338,0.29-1.3447,0.4307c-0.3223,0.2285-0.4834,0.5186-0.4834,0.8701c0,0.3457,0.1289,0.6445,0.3867,0.8965
				s0.5859,0.3779,0.9844,0.3779c0.4453,0,0.8701-0.1465,1.2744-0.4395c0.2988-0.2227,0.4951-0.4951,0.5889-0.8174
				c0.0645-0.2109,0.0967-0.6123,0.0967-1.2041V20.3584z"/>
			<path style="fill:#FFFFFF;" d="M112.6278,24.8408V11.956h2.4697v12.8848H112.6278z"/>
			<path style="fill:#FFFFFF;" d="M117.6287,14.2412V11.956h2.4697v2.2852H117.6287z M117.6287,24.8408v-9.334h2.4697v9.334
				H117.6287z"/>
			<path style="fill:#FFFFFF;" d="M131.1903,24.8408h-2.2939v-1.3711c-0.3809,0.5332-0.8311,0.9307-1.3496,1.1914
				c-0.5186,0.2598-1.041,0.3906-1.5684,0.3906c-1.0723,0-1.9912-0.4316-2.7559-1.2969c-0.7646-0.8633-1.1465-2.0693-1.1465-3.6162
				c0-1.582,0.3721-2.7842,1.1162-3.6084c0.7441-0.8223,1.6846-1.2344,2.8213-1.2344c1.043,0,1.9453,0.4336,2.707,1.3008V11.956
				h2.4697V24.8408z M124.5985,19.9717c0,0.9961,0.1377,1.7168,0.4131,2.1621c0.3984,0.6445,0.9551,0.9668,1.6699,0.9668
				c0.5684,0,1.0518-0.2422,1.4502-0.7246c0.3984-0.4844,0.5977-1.2061,0.5977-2.167c0-1.0723-0.1934-1.8438-0.5801-2.3154
				s-0.8818-0.708-1.4854-0.708c-0.5859,0-1.0771,0.2334-1.4727,0.6982C124.7957,18.3506,124.5985,19.0459,124.5985,19.9717z"/>
			<path style="fill:#FFFFFF;" d="M135.4705,18.3545l-2.2412-0.4043c0.252-0.9023,0.6855-1.5703,1.3008-2.0039
				c0.6152-0.4336,1.5293-0.6504,2.7422-0.6504c1.1016,0,1.9219,0.1309,2.4609,0.3906c0.5391,0.2617,0.918,0.5928,1.1377,0.9941
				s0.3301,1.1377,0.3301,2.21l-0.0264,2.8828c0,0.8203,0.0391,1.4258,0.1182,1.8154s0.2275,0.8066,0.4443,1.252h-2.4434
				c-0.0645-0.1641-0.1436-0.4072-0.2373-0.7295c-0.041-0.1465-0.0703-0.2432-0.0879-0.29
				c-0.4219,0.4102-0.873,0.7178-1.3535,0.9229s-0.9932,0.3076-1.5381,0.3076c-0.9609,0-1.7188-0.2607-2.2725-0.7822
				s-0.8301-1.1807-0.8301-1.9775c0-0.5273,0.126-0.998,0.3779-1.4102c0.252-0.4141,0.6045-0.7305,1.0586-0.9492
				c0.4541-0.2207,1.1094-0.4121,1.9648-0.5762c1.1543-0.2168,1.9541-0.4189,2.3994-0.6064v-0.2461
				c0-0.4746-0.1172-0.8135-0.3516-1.0146c-0.2344-0.2031-0.6768-0.3037-1.3271-0.3037c-0.4395,0-0.7822,0.0869-1.0283,0.2588
				C135.8221,17.6181,135.6229,17.9209,135.4705,18.3545z M138.7752,20.3584c-0.3164,0.1055-0.8174,0.2314-1.5029,0.3779
				s-1.1338,0.29-1.3447,0.4307c-0.3223,0.2285-0.4834,0.5186-0.4834,0.8701c0,0.3457,0.1289,0.6445,0.3867,0.8965
				s0.5859,0.3779,0.9844,0.3779c0.4453,0,0.8701-0.1465,1.2744-0.4395c0.2988-0.2227,0.4951-0.4951,0.5889-0.8174
				c0.0645-0.2109,0.0967-0.6123,0.0967-1.2041V20.3584z"/>
			<path style="fill:#FFFFFF;" d="M152.1961,24.8408h-2.2939v-1.3711c-0.3809,0.5332-0.8311,0.9307-1.3496,1.1914
				c-0.5186,0.2598-1.041,0.3906-1.5684,0.3906c-1.0723,0-1.9912-0.4316-2.7559-1.2969c-0.7646-0.8633-1.1465-2.0693-1.1465-3.6162
				c0-1.582,0.3721-2.7842,1.1162-3.6084c0.7441-0.8223,1.6846-1.2344,2.8213-1.2344c1.043,0,1.9453,0.4336,2.707,1.3008V11.956
				h2.4697V24.8408z M145.6043,19.9717c0,0.9961,0.1377,1.7168,0.4131,2.1621c0.3984,0.6445,0.9551,0.9668,1.6699,0.9668
				c0.5684,0,1.0518-0.2422,1.4502-0.7246c0.3984-0.4844,0.5977-1.2061,0.5977-2.167c0-1.0723-0.1934-1.8438-0.5801-2.3154
				s-0.8818-0.708-1.4854-0.708c-0.5859,0-1.0771,0.2334-1.4727,0.6982C145.8016,18.3506,145.6043,19.0459,145.6043,19.9717z"/>
			<path style="fill:#FFFFFF;" d="M160.036,21.8701l2.4609,0.4131c-0.3164,0.9023-0.8164,1.5898-1.499,2.0615
				s-1.5361,0.707-2.5615,0.707c-1.623,0-2.8242-0.5303-3.6035-1.5908c-0.6152-0.8496-0.9229-1.9219-0.9229-3.2168
				c0-1.5469,0.4043-2.7578,1.2129-3.6338c0.8086-0.876,1.8311-1.3145,3.0674-1.3145c1.3887,0,2.4844,0.459,3.2871,1.375
				c0.8027,0.918,1.1865,2.3223,1.1514,4.2148h-6.1875c0.0176,0.7324,0.2168,1.3027,0.5977,1.709
				c0.3809,0.4082,0.8555,0.6113,1.4238,0.6113c0.3867,0,0.7119-0.1055,0.9756-0.3164S159.9012,22.3388,160.036,21.8701z
				 M160.1766,19.374c-0.0176-0.7148-0.2021-1.2578-0.5537-1.6309c-0.3516-0.3711-0.7793-0.5576-1.2832-0.5576
				c-0.5391,0-0.9844,0.1963-1.3359,0.5889s-0.5244,0.9258-0.5186,1.5996H160.1766z"/>
			<path style="fill:#FFFFFF;" d="M163.7713,22.1777l2.4785-0.3779c0.1055,0.4805,0.3193,0.8457,0.6416,1.0938
				c0.3223,0.25,0.7734,0.374,1.3535,0.374c0.6387,0,1.1191-0.1172,1.4414-0.3516c0.2168-0.1641,0.3252-0.3838,0.3252-0.6592
				c0-0.1875-0.0586-0.3428-0.1758-0.4658c-0.123-0.1172-0.3984-0.2256-0.8262-0.3252c-1.9922-0.4395-3.2549-0.8408-3.7881-1.2041
				c-0.7383-0.5039-1.1074-1.2041-1.1074-2.1006c0-0.8086,0.3193-1.4883,0.958-2.0391c0.6387-0.5508,1.6289-0.8262,2.9707-0.8262
				c1.2773,0,2.2266,0.208,2.8477,0.624c0.6211,0.416,1.0488,1.0312,1.2832,1.8457l-2.3291,0.4307
				c-0.0996-0.3633-0.2891-0.6416-0.5674-0.835s-0.6748-0.29-1.1904-0.29c-0.6504,0-1.1162,0.0908-1.3975,0.2725
				c-0.1875,0.1289-0.2813,0.2959-0.2813,0.501c0,0.1758,0.082,0.3252,0.2461,0.4482c0.2227,0.1641,0.9912,0.3955,2.3066,0.6943
				s2.2344,0.665,2.7559,1.0986c0.5156,0.4395,0.7734,1.0518,0.7734,1.8369c0,0.8555-0.3574,1.5908-1.0723,2.2061
				s-1.7725,0.9229-3.1729,0.9229c-1.2715,0-2.2783-0.2578-3.0195-0.7734S163.9998,23.0625,163.7713,22.1777z"/>
		</g>
	</g>
	<g>
		<path style="fill:#FFFFFF;" d="M21.7925,20.1089l-6.341,12.5671c-0.1314,0.2317-0.4251,0.3134-0.6573,0.182l-3.6013-2.0417
			c-0.2318-0.1316-0.3134-0.4264-0.1821-0.6576l7.5252-11.8956L21.7925,20.1089z"/>
		<path style="fill:#EAB7B0;" d="M19.0825,21.0185l-1.6856-0.9555l1.139-1.7998l3.2565,1.8457l-6.341,12.5671
			c-0.1314,0.2317-0.4251,0.3134-0.6573,0.182l-1.8335-1.04L19.0825,21.0185z"/>
		<polygon style="fill:#D0D2D3;" points="16.9516,20.768 18.536,18.2632 21.7925,20.1089 20.457,22.7553 		"/>
		<polygon style="fill:#A6A8AB;" points="18.6733,21.7394 20.1926,19.2068 21.8517,20.1477 20.4587,22.7518 		"/>
		<path style="fill:#2B2B38;" d="M16.0281,6.6409c-2.6634,4.7008-1.0129,10.671,3.688,13.3355
			c4.7008,2.6644,10.6715,1.0136,13.336-3.6873c2.6647-4.7009,1.0134-10.6714-3.6877-13.336
			C24.6634,0.2889,18.6929,1.9399,16.0281,6.6409z M17.3522,7.3908c2.2496-3.9701,7.2918-5.3636,11.2617-3.1139
			c3.9703,2.2499,5.3639,7.2921,3.1141,11.262c-2.2502,3.9698-7.2921,5.3636-11.2621,3.1134
			C16.4963,16.4031,15.1028,11.3604,17.3522,7.3908z"/>
		
			<ellipse transform="matrix(0.4931 -0.87 0.87 0.4931 2.4653 27.1609)" style="opacity:0.3;fill:#E6E6E7;" cx="24.5405" cy="11.4649" rx="8.6495" ry="8.6495"/>
		<path style="opacity:0.5;fill:#FFFFFF;" d="M31.5006,8.9568c0.9883,2.9663-0.0012,6.3522-2.6681,8.2826
			c-2.6667,1.9299-6.1922,1.8112-8.7012-0.0541c0,0,4.2727-1.728,6.5137-3.35C28.9554,12.1637,31.5006,8.9568,31.5006,8.9568z"/>
	</g>
</g>
</svg>
