<?xml version="1.0" encoding="utf-8"?>
<!-- Generator: Adobe Illustrator 21.0.2, SVG Export Plug-In . SVG Version: 6.00 Build 0)  -->
<svg version="1.1" id="Capa_1" xmlns="http://www.w3.org/2000/svg" xmlns:xlink="http://www.w3.org/1999/xlink" x="0px" y="0px"
	 viewBox="0 0 232.1131 29.3904" style="enable-background:new 0 0 232.1131 29.3904;" xml:space="preserve">
<g>
	<polygon style="fill:#FFFFFF;" points="224.1131,29.3904 0,29.3904 0,0 224.1131,0 232.1131,13.8521 	"/>
	<polygon id="XMLID_5182_" style="fill-rule:evenodd;clip-rule:evenodd;fill:#C9452F;" points="17.4187,6.065 18.7976,10.7373 
		23.9285,10.815 19.9461,13.6499 21.4011,18.4732 17.4978,15.5655 13.3611,18.4732 14.8914,13.8804 10.8347,10.815 15.7342,10.8916 
			"/>
	<g>
		<g>
			<path style="fill:#C9452F;" d="M31.9686,19.351V9.3296h1.9961l2.3721,7.0957c0.2188,0.6611,0.3784,1.1553,0.4785,1.4834
				c0.1138-0.3643,0.2915-0.9004,0.5332-1.6064l2.3994-6.9727h1.7842V19.351h-1.2783v-8.3877l-2.9121,8.3877h-1.1963l-2.8984-8.5312
				v8.5312H31.9686z"/>
			<path style="fill:#C9452F;" d="M48.4843,17.0132l1.2715,0.1572c-0.2007,0.7432-0.5718,1.3193-1.1143,1.7295
				s-1.2349,0.6152-2.0781,0.6152c-1.062,0-1.9038-0.3271-2.5259-0.9805c-0.6221-0.6543-0.9331-1.5713-0.9331-2.752
				c0-1.2217,0.3145-2.1689,0.9434-2.8438s1.4448-1.0117,2.4473-1.0117c0.9707,0,1.7637,0.3301,2.3789,0.9912
				s0.9229,1.5908,0.9229,2.7891c0,0.0732-0.0024,0.1826-0.0068,0.3281h-5.4141c0.0454,0.7979,0.271,1.4082,0.6768,1.832
				s0.9116,0.6357,1.5176,0.6357c0.4512,0,0.8364-0.1182,1.1553-0.3555S48.2973,17.5327,48.4843,17.0132z M44.4442,15.0239h4.0537
				c-0.0547-0.6104-0.2095-1.0684-0.4648-1.374c-0.3921-0.4736-0.8999-0.7109-1.5244-0.7109c-0.5649,0-1.04,0.1895-1.4253,0.5674
				S44.4852,14.3901,44.4442,15.0239z M45.7704,11.1889l0.9092-1.9141h1.6133l-1.5039,1.9141H45.7704z"/>
			<path style="fill:#C9452F;" d="M53.9872,18.2505l0.1777,1.0869c-0.3462,0.0732-0.6563,0.1094-0.9297,0.1094
				c-0.4468,0-0.793-0.0703-1.0391-0.2119s-0.4194-0.3271-0.5195-0.5576c-0.1001-0.2295-0.1504-0.7139-0.1504-1.4521v-4.1768
				h-0.9023v-0.957h0.9023v-1.7979l1.2236-0.7383v2.5361h1.2373v0.957h-1.2373v4.2451c0,0.3506,0.0215,0.5762,0.0649,0.6768
				s0.1138,0.1797,0.2119,0.2393s0.2383,0.0889,0.4204,0.0889C53.5839,18.2983,53.764,18.2827,53.9872,18.2505z"/>
			<path style="fill:#C9452F;" d="M54.7323,15.7212c0-1.3447,0.3735-2.3398,1.1211-2.9873
				c0.6245-0.5381,1.3853-0.8066,2.2832-0.8066c0.998,0,1.814,0.3271,2.4473,0.9805c0.6333,0.6543,0.9502,1.5576,0.9502,2.7109
				c0,0.9346-0.1401,1.6689-0.4204,2.2051c-0.2803,0.5352-0.688,0.9512-1.2236,1.2471s-1.1201,0.4443-1.7534,0.4443
				c-1.0161,0-1.8379-0.3262-2.4644-0.9775S54.7323,16.9467,54.7323,15.7212z M55.997,15.7212c0,0.9297,0.2026,1.626,0.6084,2.0889
				c0.4058,0.4619,0.916,0.6934,1.5313,0.6934c0.6108,0,1.1187-0.2324,1.5244-0.6973s0.6084-1.1738,0.6084-2.126
				c0-0.8975-0.2041-1.5781-0.6118-2.04c-0.4077-0.4629-0.915-0.6943-1.521-0.6943c-0.6152,0-1.1255,0.2305-1.5313,0.6904
				S55.997,14.7915,55.997,15.7212z"/>
			<path style="fill:#C9452F;" d="M67.6864,19.351v-0.916c-0.4604,0.7197-1.1372,1.0801-2.0303,1.0801
				c-0.5786,0-1.1108-0.1592-1.5962-0.4785c-0.4854-0.3193-0.8613-0.7646-1.1279-1.3359c-0.2666-0.5723-0.3999-1.2295-0.3999-1.9727
				c0-0.7246,0.1206-1.3818,0.3623-1.9727c0.2417-0.5898,0.604-1.042,1.0869-1.3564c0.4829-0.3145,1.023-0.4717,1.6201-0.4717
				c0.4375,0,0.8271,0.0918,1.1689,0.2773c0.3418,0.1836,0.6196,0.4248,0.834,0.7207V9.3296h1.2236V19.351H67.6864z M63.7968,15.728
				c0,0.9297,0.1958,1.625,0.5879,2.085c0.3921,0.46,0.8545,0.6904,1.3877,0.6904c0.5376,0,0.9946-0.2197,1.3706-0.6602
				c0.376-0.4395,0.564-1.1104,0.564-2.0127c0-0.9932-0.1914-1.7227-0.5742-2.1875s-0.8545-0.6973-1.415-0.6973
				c-0.5469,0-1.0039,0.2236-1.3706,0.6699C63.9804,14.062,63.7968,14.7661,63.7968,15.728z"/>
			<path style="fill:#C9452F;" d="M70.3046,15.7212c0-1.3447,0.3735-2.3398,1.1211-2.9873
				c0.6245-0.5381,1.3853-0.8066,2.2832-0.8066c0.998,0,1.814,0.3271,2.4473,0.9805c0.6333,0.6543,0.9502,1.5576,0.9502,2.7109
				c0,0.9346-0.1401,1.6689-0.4204,2.2051c-0.2803,0.5352-0.688,0.9512-1.2236,1.2471s-1.1201,0.4443-1.7534,0.4443
				c-1.0161,0-1.8379-0.3262-2.4644-0.9775S70.3046,16.9467,70.3046,15.7212z M71.5692,15.7212c0,0.9297,0.2026,1.626,0.6084,2.0889
				c0.4058,0.4619,0.916,0.6934,1.5313,0.6934c0.6108,0,1.1187-0.2324,1.5244-0.6973s0.6084-1.1738,0.6084-2.126
				c0-0.8975-0.2041-1.5781-0.6118-2.04c-0.4077-0.4629-0.915-0.6943-1.521-0.6943c-0.6152,0-1.1255,0.2305-1.5313,0.6904
				S71.5692,14.7915,71.5692,15.7212z"/>
			<path style="fill:#C9452F;" d="M78.0565,17.184l1.2168-0.1914c0.0684,0.4873,0.2588,0.8613,0.5708,1.1211
				s0.7485,0.3896,1.3091,0.3896c0.5649,0,0.9844-0.1152,1.2578-0.3457c0.2734-0.2295,0.4102-0.5,0.4102-0.8096
				c0-0.2783-0.1206-0.4971-0.3623-0.6563c-0.1685-0.1094-0.5879-0.248-1.2578-0.417c-0.9023-0.2275-1.5278-0.4248-1.8765-0.5918
				c-0.3486-0.166-0.6128-0.3965-0.793-0.6895c-0.1802-0.2949-0.27-0.6191-0.27-0.9746c0-0.3232,0.0742-0.623,0.2222-0.8984
				c0.1479-0.2764,0.3496-0.5049,0.605-0.6875c0.1914-0.1416,0.4521-0.2607,0.7827-0.3594c0.3306-0.0977,0.6846-0.1465,1.063-0.1465
				c0.5698,0,1.0698,0.082,1.5005,0.2461s0.7485,0.3867,0.9536,0.666c0.2051,0.2813,0.3462,0.6553,0.4238,1.125l-1.2031,0.1641
				c-0.0547-0.374-0.2129-0.665-0.4751-0.875s-0.6323-0.3145-1.1108-0.3145c-0.5649,0-0.9683,0.0938-1.21,0.2803
				s-0.3623,0.4053-0.3623,0.6563c0,0.1592,0.0503,0.3027,0.1504,0.4307c0.1001,0.1318,0.2573,0.2412,0.4717,0.3281
				c0.123,0.0459,0.4854,0.1504,1.0869,0.3145c0.8706,0.2324,1.4775,0.4229,1.8218,0.5703
				c0.3442,0.1484,0.6143,0.3643,0.8101,0.6465c0.1958,0.2822,0.2939,0.6338,0.2939,1.0527c0,0.4102-0.1196,0.7969-0.3589,1.1582
				c-0.2393,0.3633-0.5845,0.6426-1.0356,0.8418c-0.4512,0.1973-0.9614,0.2969-1.5313,0.2969c-0.9434,0-1.6621-0.1963-2.1567-0.5879
				S78.1933,17.9546,78.0565,17.184z"/>
			<path style="fill:#C9452F;" d="M94.1483,19.351v-0.916c-0.4604,0.7197-1.1372,1.0801-2.0303,1.0801
				c-0.5786,0-1.1108-0.1592-1.5962-0.4785s-0.8613-0.7646-1.1279-1.3359c-0.2666-0.5723-0.3999-1.2295-0.3999-1.9727
				c0-0.7246,0.1206-1.3818,0.3623-1.9727c0.2417-0.5898,0.604-1.042,1.0869-1.3564s1.0229-0.4717,1.6201-0.4717
				c0.4375,0,0.8271,0.0918,1.1689,0.2773c0.3418,0.1836,0.6196,0.4248,0.834,0.7207V9.3296h1.2236V19.351H94.1483z M90.2587,15.728
				c0,0.9297,0.1958,1.625,0.5879,2.085s0.8545,0.6904,1.3877,0.6904c0.5376,0,0.9946-0.2197,1.3706-0.6602
				c0.376-0.4395,0.564-1.1104,0.564-2.0127c0-0.9932-0.1914-1.7227-0.5742-2.1875s-0.8545-0.6973-1.415-0.6973
				c-0.5469,0-1.0039,0.2236-1.3706,0.6699S90.2587,14.7661,90.2587,15.728z"/>
			<path style="fill:#C9452F;" d="M97.2313,10.7446v-1.415h1.2305v1.415H97.2313z M97.2313,19.351v-7.2598h1.2305v7.2598H97.2313z"
				/>
			<path style="fill:#C9452F;" d="M99.8427,17.184l1.2168-0.1914c0.0684,0.4873,0.2588,0.8613,0.5708,1.1211
				s0.7485,0.3896,1.3091,0.3896c0.5649,0,0.9844-0.1152,1.2578-0.3457c0.2734-0.2295,0.4102-0.5,0.4102-0.8096
				c0-0.2783-0.1206-0.4971-0.3623-0.6563c-0.1685-0.1094-0.5879-0.248-1.2578-0.417c-0.9023-0.2275-1.5278-0.4248-1.8765-0.5918
				c-0.3486-0.166-0.6128-0.3965-0.793-0.6895c-0.1802-0.2949-0.27-0.6191-0.27-0.9746c0-0.3232,0.0742-0.623,0.2222-0.8984
				c0.1479-0.2764,0.3496-0.5049,0.605-0.6875c0.1914-0.1416,0.4521-0.2607,0.7827-0.3594c0.3306-0.0977,0.6846-0.1465,1.063-0.1465
				c0.5698,0,1.0698,0.082,1.5005,0.2461s0.7485,0.3867,0.9536,0.666c0.2051,0.2813,0.3462,0.6553,0.4238,1.125l-1.2031,0.1641
				c-0.0547-0.374-0.2129-0.665-0.4751-0.875s-0.6323-0.3145-1.1108-0.3145c-0.5649,0-0.9683,0.0938-1.21,0.2803
				s-0.3623,0.4053-0.3623,0.6563c0,0.1592,0.0503,0.3027,0.1504,0.4307c0.1001,0.1318,0.2573,0.2412,0.4717,0.3281
				c0.123,0.0459,0.4854,0.1504,1.0869,0.3145c0.8706,0.2324,1.4775,0.4229,1.8218,0.5703
				c0.3442,0.1484,0.6143,0.3643,0.8101,0.6465c0.1958,0.2822,0.2939,0.6338,0.2939,1.0527c0,0.4102-0.1196,0.7969-0.3589,1.1582
				c-0.2393,0.3633-0.5845,0.6426-1.0356,0.8418c-0.4512,0.1973-0.9614,0.2969-1.5313,0.2969c-0.9434,0-1.6621-0.1963-2.1567-0.5879
				S99.9794,17.9546,99.8427,17.184z"/>
			<path style="fill:#C9452F;" d="M112.0722,16.6919l1.21,0.1572c-0.1323,0.834-0.4707,1.4863-1.0151,1.959
				c-0.5444,0.4707-1.2134,0.707-2.0063,0.707c-0.9937,0-1.792-0.3242-2.396-0.9746c-0.604-0.6484-0.9058-1.5801-0.9058-2.792
				c0-0.7842,0.1299-1.4697,0.3896-2.0576s0.6553-1.0293,1.186-1.3223c0.5308-0.2949,1.1084-0.4414,1.7329-0.4414
				c0.7886,0,1.4331,0.1992,1.9346,0.5977c0.5015,0.3994,0.8228,0.9658,0.9639,1.6992l-1.1963,0.1846
				c-0.1138-0.4873-0.3154-0.8545-0.605-1.1006s-0.6392-0.3691-1.0493-0.3691c-0.6196,0-1.1235,0.2227-1.5107,0.666
				c-0.3872,0.4453-0.5811,1.1475-0.5811,2.1094c0,0.9756,0.187,1.6836,0.5605,2.126s0.8613,0.6631,1.4629,0.6631
				c0.4829,0,0.8862-0.1484,1.21-0.4443S111.9857,17.3071,112.0722,16.6919z"/>
			<path style="fill:#C9452F;" d="M114.3212,19.351v-7.2598h1.1074v1.1006c0.2827-0.5146,0.5435-0.8545,0.7827-1.0186
				s0.5024-0.2461,0.7896-0.2461c0.4146,0,0.8364,0.1318,1.2646,0.3965l-0.4238,1.1416c-0.3008-0.1777-0.6016-0.2666-0.9023-0.2666
				c-0.269,0-0.5103,0.0811-0.7246,0.2422c-0.2144,0.1621-0.3667,0.3867-0.458,0.6738c-0.1367,0.4375-0.2051,0.916-0.2051,1.4355
				v3.8008H114.3212z"/>
			<path style="fill:#C9452F;" d="M123.9667,17.0132l1.2715,0.1572c-0.2007,0.7432-0.5718,1.3193-1.1143,1.7295
				s-1.2349,0.6152-2.0781,0.6152c-1.062,0-1.9038-0.3271-2.5259-0.9805c-0.6221-0.6543-0.9331-1.5713-0.9331-2.752
				c0-1.2217,0.3145-2.1689,0.9434-2.8438s1.4448-1.0117,2.4473-1.0117c0.9707,0,1.7637,0.3301,2.3789,0.9912
				s0.9229,1.5908,0.9229,2.7891c0,0.0732-0.0024,0.1826-0.0068,0.3281h-5.4141c0.0454,0.7979,0.271,1.4082,0.6768,1.832
				s0.9116,0.6357,1.5176,0.6357c0.4512,0,0.8364-0.1182,1.1553-0.3555S123.7797,17.5327,123.9667,17.0132z M119.9267,15.0239
				h4.0537c-0.0547-0.6104-0.2095-1.0684-0.4648-1.374c-0.3921-0.4736-0.8999-0.7109-1.5244-0.7109
				c-0.5649,0-1.04,0.1895-1.4253,0.5674S119.9677,14.3901,119.9267,15.0239z"/>
			<path style="fill:#C9452F;" d="M129.4696,18.2505l0.1777,1.0869c-0.3462,0.0732-0.6563,0.1094-0.9297,0.1094
				c-0.4468,0-0.793-0.0703-1.0391-0.2119s-0.4194-0.3271-0.5195-0.5576c-0.1001-0.2295-0.1504-0.7139-0.1504-1.4521v-4.1768
				h-0.9023v-0.957h0.9023v-1.7979l1.2236-0.7383v2.5361h1.2373v0.957h-1.2373v4.2451c0,0.3506,0.0215,0.5762,0.0649,0.6768
				s0.1138,0.1797,0.2119,0.2393s0.2383,0.0889,0.4204,0.0889C129.0663,18.2983,129.2465,18.2827,129.4696,18.2505z"/>
			<path style="fill:#C9452F;" d="M130.2147,15.7212c0-1.3447,0.3735-2.3398,1.1211-2.9873
				c0.6245-0.5381,1.3853-0.8066,2.2832-0.8066c0.998,0,1.814,0.3271,2.4473,0.9805c0.6333,0.6543,0.9502,1.5576,0.9502,2.7109
				c0,0.9346-0.1401,1.6689-0.4204,2.2051c-0.2803,0.5352-0.688,0.9512-1.2236,1.2471s-1.1201,0.4443-1.7534,0.4443
				c-1.0161,0-1.8379-0.3262-2.4644-0.9775S130.2147,16.9467,130.2147,15.7212z M131.4794,15.7212
				c0,0.9297,0.2026,1.626,0.6084,2.0889c0.4058,0.4619,0.916,0.6934,1.5313,0.6934c0.6108,0,1.1187-0.2324,1.5244-0.6973
				s0.6084-1.1738,0.6084-2.126c0-0.8975-0.2041-1.5781-0.6118-2.04c-0.4077-0.4629-0.915-0.6943-1.521-0.6943
				c-0.6152,0-1.1255,0.2305-1.5313,0.6904S131.4794,14.7915,131.4794,15.7212z"/>
			<path style="fill:#C9452F;" d="M137.9667,17.184l1.2168-0.1914c0.0684,0.4873,0.2588,0.8613,0.5708,1.1211
				s0.7485,0.3896,1.3091,0.3896c0.5649,0,0.9844-0.1152,1.2578-0.3457c0.2734-0.2295,0.4102-0.5,0.4102-0.8096
				c0-0.2783-0.1206-0.4971-0.3623-0.6563c-0.1685-0.1094-0.5879-0.248-1.2578-0.417c-0.9023-0.2275-1.5278-0.4248-1.8765-0.5918
				c-0.3486-0.166-0.6128-0.3965-0.793-0.6895c-0.1802-0.2949-0.27-0.6191-0.27-0.9746c0-0.3232,0.0742-0.623,0.2222-0.8984
				c0.1479-0.2764,0.3496-0.5049,0.605-0.6875c0.1914-0.1416,0.4521-0.2607,0.7827-0.3594c0.3306-0.0977,0.6846-0.1465,1.063-0.1465
				c0.5698,0,1.0698,0.082,1.5005,0.2461s0.7485,0.3867,0.9536,0.666c0.2051,0.2813,0.3462,0.6553,0.4238,1.125l-1.2031,0.1641
				c-0.0547-0.374-0.2129-0.665-0.4751-0.875s-0.6323-0.3145-1.1108-0.3145c-0.5649,0-0.9683,0.0938-1.21,0.2803
				s-0.3623,0.4053-0.3623,0.6563c0,0.1592,0.0503,0.3027,0.1504,0.4307c0.1001,0.1318,0.2573,0.2412,0.4717,0.3281
				c0.123,0.0459,0.4854,0.1504,1.0869,0.3145c0.8706,0.2324,1.4775,0.4229,1.8218,0.5703
				c0.3442,0.1484,0.6143,0.3643,0.8101,0.6465c0.1958,0.2822,0.2939,0.6338,0.2939,1.0527c0,0.4102-0.1196,0.7969-0.3589,1.1582
				c-0.2393,0.3633-0.5845,0.6426-1.0356,0.8418c-0.4512,0.1973-0.9614,0.2969-1.5313,0.2969c-0.9434,0-1.6621-0.1963-2.1567-0.5879
				S138.1034,17.9546,137.9667,17.184z"/>
		</g>
	</g>
</g>
</svg>
