<?xml version="1.0" encoding="utf-8"?>
<!-- Generator: Adobe Illustrator 21.0.2, SVG Export Plug-In . SVG Version: 6.00 Build 0)  -->
<svg version="1.1" id="Capa_1" xmlns="http://www.w3.org/2000/svg" xmlns:xlink="http://www.w3.org/1999/xlink" x="0px" y="0px"
	 viewBox="0 0 232.1131 36.0571" style="enable-background:new 0 0 232.1131 36.0571;" xml:space="preserve">
<g>
	<polygon style="fill:#FFFFFF;" points="224.1131,36.0571 0,36.0571 0,0 224.1131,0 232.1131,16.9942 	"/>
	<polygon id="XMLID_4642_" style="fill-rule:evenodd;clip-rule:evenodd;fill:#C9452F;" points="18.1082,2.8208 19.4871,7.4931 
		24.6181,7.5708 20.6356,10.4057 22.0906,15.229 18.1873,12.3213 14.0506,15.229 15.5809,10.6362 11.5242,7.5708 16.4237,7.6474 	
		"/>
	<g>
		<g>
			<path style="fill:#C9452F;" d="M32.6986,16.1027V6.0812h3.4521c0.7793,0,1.374,0.0479,1.7842,0.1436
				c0.5742,0.1318,1.0635,0.3711,1.4697,0.7178c0.5283,0.4463,0.9238,1.0176,1.1855,1.7129
				c0.2627,0.6943,0.3936,1.4883,0.3936,2.3818c0,0.7607-0.0889,1.4355-0.2666,2.0234s-0.4063,1.0742-0.6836,1.46
				c-0.2783,0.3848-0.582,0.6875-0.9131,0.9082c-0.3301,0.2217-0.7285,0.3887-1.1963,0.5029
				c-0.4668,0.1143-1.0039,0.1709-1.6094,0.1709H32.6986z M34.0248,14.9201h2.1396c0.6602,0,1.1787-0.0615,1.5547-0.1846
				s0.6758-0.2959,0.8994-0.5195c0.3145-0.3145,0.5596-0.7373,0.7344-1.2676c0.1758-0.5313,0.2637-1.1748,0.2637-1.9316
				c0-1.0479-0.1719-1.8535-0.5166-2.416c-0.3438-0.5635-0.7617-0.9404-1.2539-1.1318c-0.3555-0.1367-0.9277-0.2051-1.7158-0.2051
				h-2.1055V14.9201z"/>
			<path style="fill:#C9452F;" d="M47.6215,13.7648l1.2715,0.1572c-0.2012,0.7432-0.5723,1.3193-1.1143,1.7295
				c-0.543,0.4102-1.2354,0.6152-2.0781,0.6152c-1.0625,0-1.9043-0.3271-2.5264-0.9805c-0.6221-0.6543-0.9326-1.5713-0.9326-2.752
				c0-1.2217,0.3145-2.1689,0.9434-2.8438s1.4443-1.0117,2.4473-1.0117c0.9707,0,1.7637,0.3301,2.3789,0.9912
				s0.9229,1.5908,0.9229,2.7891c0,0.0732-0.0029,0.1826-0.0068,0.3281h-5.4141c0.0449,0.7979,0.2705,1.4082,0.6768,1.832
				c0.4053,0.4238,0.9111,0.6357,1.5176,0.6357c0.4512,0,0.8359-0.1182,1.1553-0.3555
				C47.181,14.6622,47.434,14.2843,47.6215,13.7648z M43.5814,11.7755h4.0537c-0.0547-0.6104-0.21-1.0684-0.4648-1.374
				c-0.3926-0.4736-0.9004-0.7109-1.5244-0.7109c-0.5654,0-1.04,0.1895-1.4258,0.5674
				C43.8353,10.6359,43.6224,11.1417,43.5814,11.7755z"/>
			<path style="fill:#C9452F;" d="M50.7318,16.1027V9.7999h-1.0869v-0.957h1.0869V8.0705c0-0.4873,0.043-0.8496,0.1299-1.0869
				c0.1182-0.3193,0.3271-0.5781,0.625-0.7754c0.2988-0.1992,0.7168-0.2979,1.2549-0.2979c0.3457,0,0.7285,0.041,1.1484,0.123
				l-0.1846,1.0732c-0.2559-0.0459-0.4971-0.0684-0.7246-0.0684c-0.374,0-0.6387,0.0801-0.793,0.2393
				c-0.1553,0.1592-0.2324,0.458-0.2324,0.8955v0.6699h1.415v0.957h-1.415v6.3027H50.7318z"/>
			<path style="fill:#C9452F;" d="M54.3344,7.4962v-1.415h1.2305v1.415H54.3344z M54.3344,16.1027V8.8429h1.2305v7.2598H54.3344z"/>
			<path style="fill:#C9452F;" d="M57.4379,16.1027V8.8429h1.1074v1.0322c0.5332-0.7979,1.3027-1.1963,2.3105-1.1963
				c0.4375,0,0.8398,0.0781,1.2061,0.2363c0.3672,0.1563,0.6416,0.3633,0.8242,0.6182c0.1816,0.2549,0.3096,0.5586,0.3828,0.9092
				c0.0449,0.2275,0.0684,0.627,0.0684,1.1963v4.4639h-1.2305v-4.416c0-0.501-0.0479-0.876-0.1436-1.125
				c-0.0957-0.248-0.2656-0.4463-0.5098-0.5938c-0.2432-0.1484-0.5293-0.2227-0.8574-0.2227c-0.5244,0-0.9766,0.166-1.3574,0.499
				c-0.3799,0.333-0.5703,0.9639-0.5703,1.8936v3.9648H57.4379z"/>
			<path style="fill:#C9452F;" d="M65.2309,7.4962v-1.415h1.2305v1.415H65.2309z M65.2309,16.1027V8.8429h1.2305v7.2598H65.2309z"/>
			<path style="fill:#C9452F;" d="M73.0717,13.4435l1.21,0.1572c-0.1328,0.834-0.4707,1.4863-1.0156,1.959
				c-0.5439,0.4707-1.2129,0.707-2.0059,0.707c-0.9941,0-1.792-0.3242-2.3965-0.9746c-0.6035-0.6484-0.9053-1.5801-0.9053-2.792
				c0-0.7842,0.1299-1.4697,0.3896-2.0576s0.6553-1.0293,1.1855-1.3223c0.5313-0.2949,1.1084-0.4414,1.7334-0.4414
				c0.7881,0,1.4326,0.1992,1.9346,0.5977c0.501,0.3994,0.8223,0.9658,0.9639,1.6992l-1.1963,0.1846
				c-0.1143-0.4873-0.3154-0.8545-0.6055-1.1006c-0.2891-0.2461-0.6387-0.3691-1.0488-0.3691c-0.6201,0-1.124,0.2227-1.5107,0.666
				c-0.3877,0.4453-0.5811,1.1475-0.5811,2.1094c0,0.9756,0.1865,1.6836,0.5605,2.126c0.373,0.4424,0.8613,0.6631,1.4629,0.6631
				c0.4824,0,0.8857-0.1484,1.21-0.4443C72.7797,14.5148,72.9848,14.0587,73.0717,13.4435z"/>
			<path style="fill:#C9452F;" d="M75.3412,7.4962v-1.415h1.2305v1.415H75.3412z M75.3412,16.1027V8.8429h1.2305v7.2598H75.3412z"/>
			<path style="fill:#C9452F;" d="M77.9867,12.4728c0-1.3447,0.373-2.3398,1.1211-2.9873c0.624-0.5381,1.3848-0.8066,2.2832-0.8066
				c0.998,0,1.8135,0.3271,2.4473,0.9805c0.6328,0.6543,0.9502,1.5576,0.9502,2.7109c0,0.9346-0.1406,1.6689-0.4209,2.2051
				c-0.2803,0.5352-0.6875,0.9512-1.2236,1.2471c-0.5352,0.2959-1.1201,0.4443-1.7529,0.4443c-1.0166,0-1.8379-0.3262-2.4648-0.9775
				C78.3002,14.6378,77.9867,13.6984,77.9867,12.4728z M79.2514,12.4728c0,0.9297,0.2021,1.626,0.6084,2.0889
				c0.4053,0.4619,0.916,0.6934,1.5313,0.6934c0.6104,0,1.1182-0.2324,1.5244-0.6973c0.4053-0.4648,0.6084-1.1738,0.6084-2.126
				c0-0.8975-0.2041-1.5781-0.6123-2.04c-0.4072-0.4629-0.915-0.6943-1.5205-0.6943c-0.6152,0-1.126,0.2305-1.5313,0.6904
				C79.4535,10.8478,79.2514,11.5431,79.2514,12.4728z M80.7074,7.9406l0.9092-1.9141h1.6133L81.726,7.9406H80.7074z"/>
			<path style="fill:#C9452F;" d="M86.2309,16.1027V8.8429h1.1074v1.0322c0.5332-0.7979,1.3027-1.1963,2.3105-1.1963
				c0.4375,0,0.8398,0.0781,1.2061,0.2363c0.3672,0.1563,0.6416,0.3633,0.8242,0.6182c0.1816,0.2549,0.3096,0.5586,0.3828,0.9092
				c0.0449,0.2275,0.0684,0.627,0.0684,1.1963v4.4639h-1.2305v-4.416c0-0.501-0.0479-0.876-0.1436-1.125
				c-0.0957-0.248-0.2656-0.4463-0.5098-0.5938c-0.2432-0.1484-0.5293-0.2227-0.8574-0.2227c-0.5244,0-0.9766,0.166-1.3574,0.499
				c-0.3799,0.333-0.5703,0.9639-0.5703,1.8936v3.9648H86.2309z"/>
			<path style="fill:#C9452F;" d="M102.6166,16.1027v-0.916c-0.4609,0.7197-1.1377,1.0801-2.0303,1.0801
				c-0.5791,0-1.1113-0.1592-1.5967-0.4785s-0.8613-0.7646-1.1279-1.3359c-0.2666-0.5723-0.3994-1.2295-0.3994-1.9727
				c0-0.7246,0.1201-1.3818,0.3623-1.9727c0.2412-0.5898,0.6035-1.042,1.0869-1.3564c0.4824-0.3145,1.0225-0.4717,1.6201-0.4717
				c0.4375,0,0.8271,0.0918,1.1689,0.2773c0.3418,0.1836,0.6191,0.4248,0.834,0.7207V6.0812h1.2236v10.0215H102.6166z
				 M98.7269,12.4796c0,0.9297,0.1953,1.625,0.5879,2.085c0.3916,0.46,0.8545,0.6904,1.3877,0.6904
				c0.5371,0,0.9941-0.2197,1.3701-0.6602c0.376-0.4395,0.5645-1.1104,0.5645-2.0127c0-0.9932-0.1914-1.7227-0.5742-2.1875
				s-0.8545-0.6973-1.415-0.6973c-0.5469,0-1.0039,0.2236-1.3711,0.6699C98.9105,10.8136,98.7269,11.5177,98.7269,12.4796z"/>
			<path style="fill:#C9452F;" d="M110.6625,13.7648l1.2715,0.1572c-0.2012,0.7432-0.5723,1.3193-1.1143,1.7295
				c-0.543,0.4102-1.2354,0.6152-2.0781,0.6152c-1.0625,0-1.9043-0.3271-2.5264-0.9805c-0.6221-0.6543-0.9326-1.5713-0.9326-2.752
				c0-1.2217,0.3145-2.1689,0.9434-2.8438s1.4443-1.0117,2.4473-1.0117c0.9707,0,1.7637,0.3301,2.3789,0.9912
				s0.9229,1.5908,0.9229,2.7891c0,0.0732-0.0029,0.1826-0.0068,0.3281h-5.4141c0.0449,0.7979,0.2705,1.4082,0.6768,1.832
				c0.4053,0.4238,0.9111,0.6357,1.5176,0.6357c0.4512,0,0.8359-0.1182,1.1553-0.3555
				C110.2221,14.6622,110.475,14.2843,110.6625,13.7648z M106.6225,11.7755h4.0537c-0.0547-0.6104-0.21-1.0684-0.4648-1.374
				c-0.3926-0.4736-0.9004-0.7109-1.5244-0.7109c-0.5654,0-1.04,0.1895-1.4258,0.5674
				C106.8764,10.6359,106.6635,11.1417,106.6225,11.7755z"/>
			<path style="fill:#C9452F;" d="M122.0785,16.1027v-0.916c-0.4609,0.7197-1.1377,1.0801-2.0303,1.0801
				c-0.5791,0-1.1113-0.1592-1.5967-0.4785s-0.8613-0.7646-1.1279-1.3359c-0.2666-0.5723-0.3994-1.2295-0.3994-1.9727
				c0-0.7246,0.1201-1.3818,0.3623-1.9727c0.2412-0.5898,0.6035-1.042,1.0869-1.3564c0.4824-0.3145,1.0225-0.4717,1.6201-0.4717
				c0.4375,0,0.8271,0.0918,1.1689,0.2773c0.3418,0.1836,0.6191,0.4248,0.834,0.7207V6.0812h1.2236v10.0215H122.0785z
				 M118.1889,12.4796c0,0.9297,0.1953,1.625,0.5879,2.085c0.3916,0.46,0.8545,0.6904,1.3877,0.6904
				c0.5371,0,0.9941-0.2197,1.3701-0.6602c0.376-0.4395,0.5645-1.1104,0.5645-2.0127c0-0.9932-0.1914-1.7227-0.5742-2.1875
				s-0.8545-0.6973-1.415-0.6973c-0.5469,0-1.0039,0.2236-1.3711,0.6699C118.3725,10.8136,118.1889,11.5177,118.1889,12.4796z"/>
			<path style="fill:#C9452F;" d="M129.892,15.2072c-0.4561,0.3877-0.8945,0.6611-1.3164,0.8203
				c-0.4209,0.1592-0.874,0.2393-1.3564,0.2393c-0.7979,0-1.4111-0.1953-1.8389-0.584c-0.4287-0.3906-0.6426-0.8877-0.6426-1.4941
				c0-0.3555,0.0811-0.6797,0.2422-0.9746c0.1621-0.293,0.374-0.5293,0.6357-0.707c0.2627-0.1777,0.5576-0.3125,0.8857-0.4033
				c0.2412-0.0635,0.6055-0.125,1.0938-0.1846c0.9932-0.1182,1.7246-0.2598,2.1943-0.4238
				c0.0039-0.1689,0.0068-0.2754,0.0068-0.3213c0-0.501-0.1162-0.8545-0.3486-1.0596c-0.3145-0.2783-0.7822-0.417-1.4014-0.417
				c-0.5791,0-1.0059,0.1016-1.2822,0.3037c-0.2754,0.2031-0.4795,0.5625-0.6113,1.0771l-1.2031-0.1641
				c0.1094-0.5146,0.2891-0.9307,0.54-1.2471c0.25-0.3174,0.6123-0.5605,1.0869-0.7324c0.4736-0.1699,1.0225-0.2559,1.6475-0.2559
				c0.6191,0,1.123,0.0732,1.5107,0.2188c0.3867,0.1455,0.6719,0.3291,0.8545,0.5508c0.1816,0.2207,0.3096,0.5,0.3828,0.8369
				c0.041,0.21,0.0615,0.5879,0.0615,1.1348v1.6406c0,1.1436,0.0264,1.8672,0.0781,2.1709
				c0.0527,0.3027,0.1563,0.5928,0.3115,0.8711h-1.2852C130.0101,15.8478,129.9281,15.549,129.892,15.2072z M129.7894,12.4591
				c-0.4473,0.1826-1.1172,0.3369-2.0098,0.4648c-0.5059,0.0732-0.8643,0.1553-1.0732,0.2461
				c-0.21,0.0908-0.3721,0.2246-0.4854,0.3994c-0.1143,0.1758-0.1709,0.3711-0.1709,0.585c0,0.3281,0.124,0.6016,0.3721,0.8203
				c0.249,0.2188,0.6123,0.3281,1.0908,0.3281c0.4736,0,0.8955-0.1035,1.2646-0.3115c0.3691-0.207,0.6396-0.4902,0.8135-0.8506
				c0.1318-0.2783,0.1982-0.6885,0.1982-1.2305V12.4591z"/>
			<path style="fill:#C9452F;" d="M135.6273,15.0021l0.1777,1.0869c-0.3467,0.0732-0.6563,0.1094-0.9297,0.1094
				c-0.4473,0-0.793-0.0703-1.0391-0.2119s-0.4199-0.3271-0.5195-0.5576c-0.1006-0.2295-0.1504-0.7139-0.1504-1.4521V9.7999h-0.9023
				v-0.957h0.9023V7.0451l1.2236-0.7383v2.5361h1.2373v0.957H134.39v4.2451c0,0.3506,0.0215,0.5762,0.0645,0.6768
				c0.0439,0.1006,0.1143,0.1797,0.2119,0.2393c0.0986,0.0596,0.2383,0.0889,0.4209,0.0889
				C135.224,15.0499,135.4037,15.0343,135.6273,15.0021z"/>
			<path style="fill:#C9452F;" d="M136.3725,12.4728c0-1.3447,0.373-2.3398,1.1211-2.9873c0.624-0.5381,1.3848-0.8066,2.2832-0.8066
				c0.998,0,1.8135,0.3271,2.4473,0.9805c0.6328,0.6543,0.9502,1.5576,0.9502,2.7109c0,0.9346-0.1406,1.6689-0.4209,2.2051
				c-0.2803,0.5352-0.6875,0.9512-1.2236,1.2471c-0.5352,0.2959-1.1201,0.4443-1.7529,0.4443c-1.0166,0-1.8379-0.3262-2.4648-0.9775
				C136.6859,14.6378,136.3725,13.6984,136.3725,12.4728z M137.6371,12.4728c0,0.9297,0.2021,1.626,0.6084,2.0889
				c0.4053,0.4619,0.916,0.6934,1.5313,0.6934c0.6104,0,1.1182-0.2324,1.5244-0.6973c0.4053-0.4648,0.6084-1.1738,0.6084-2.126
				c0-0.8975-0.2041-1.5781-0.6123-2.04c-0.4072-0.4629-0.915-0.6943-1.5205-0.6943c-0.6152,0-1.126,0.2305-1.5313,0.6904
				C137.8392,10.8478,137.6371,11.5431,137.6371,12.4728z"/>
			<path style="fill:#C9452F;" d="M144.9379,16.1027v-1.4014h1.4014v1.4014c0,0.5146-0.0918,0.9307-0.2734,1.248
				c-0.1826,0.3164-0.4717,0.5615-0.8682,0.7344l-0.3418-0.5264c0.2598-0.1143,0.4512-0.2813,0.5742-0.5029
				c0.123-0.2207,0.1914-0.5381,0.2051-0.9531H144.9379z"/>
			<path style="fill:#C9452F;" d="M152.4027,7.4962v-1.415h1.2305v1.415H152.4027z M152.4027,16.1027V8.8429h1.2305v7.2598H152.4027
				z"/>
			<path style="fill:#C9452F;" d="M155.5062,16.1027V8.8429h1.1074v1.0322c0.5332-0.7979,1.3027-1.1963,2.3105-1.1963
				c0.4375,0,0.8398,0.0781,1.2061,0.2363c0.3672,0.1563,0.6416,0.3633,0.8242,0.6182c0.1816,0.2549,0.3096,0.5586,0.3828,0.9092
				c0.0449,0.2275,0.0684,0.627,0.0684,1.1963v4.4639h-1.2305v-4.416c0-0.501-0.0479-0.876-0.1436-1.125
				c-0.0957-0.248-0.2656-0.4463-0.5098-0.5938c-0.2432-0.1484-0.5293-0.2227-0.8574-0.2227c-0.5244,0-0.9766,0.166-1.3574,0.499
				c-0.3799,0.333-0.5703,0.9639-0.5703,1.8936v3.9648H155.5062z"/>
			<path style="fill:#C9452F;" d="M163.5863,16.1027V9.7999h-1.0869v-0.957h1.0869V8.0705c0-0.4873,0.043-0.8496,0.1299-1.0869
				c0.1182-0.3193,0.3271-0.5781,0.625-0.7754c0.2988-0.1992,0.7168-0.2979,1.2549-0.2979c0.3457,0,0.7285,0.041,1.1484,0.123
				L166.56,7.1066c-0.2559-0.0459-0.4971-0.0684-0.7246-0.0684c-0.374,0-0.6387,0.0801-0.793,0.2393
				c-0.1553,0.1592-0.2324,0.458-0.2324,0.8955v0.6699h1.415v0.957h-1.415v6.3027H163.5863z"/>
			<path style="fill:#C9452F;" d="M166.724,12.4728c0-1.3447,0.373-2.3398,1.1211-2.9873c0.624-0.5381,1.3848-0.8066,2.2832-0.8066
				c0.998,0,1.8135,0.3271,2.4473,0.9805c0.6328,0.6543,0.9502,1.5576,0.9502,2.7109c0,0.9346-0.1406,1.6689-0.4209,2.2051
				c-0.2803,0.5352-0.6875,0.9512-1.2236,1.2471c-0.5352,0.2959-1.1201,0.4443-1.7529,0.4443c-1.0166,0-1.8379-0.3262-2.4648-0.9775
				C167.0375,14.6378,166.724,13.6984,166.724,12.4728z M167.9887,12.4728c0,0.9297,0.2021,1.626,0.6084,2.0889
				c0.4053,0.4619,0.916,0.6934,1.5313,0.6934c0.6104,0,1.1182-0.2324,1.5244-0.6973c0.4053-0.4648,0.6084-1.1738,0.6084-2.126
				c0-0.8975-0.2041-1.5781-0.6123-2.04c-0.4072-0.4629-0.915-0.6943-1.5205-0.6943c-0.6152,0-1.126,0.2305-1.5313,0.6904
				C168.1908,10.8478,167.9887,11.5431,167.9887,12.4728z"/>
			<path style="fill:#C9452F;" d="M174.9545,16.1027V8.8429h1.1074v1.1006c0.2822-0.5146,0.543-0.8545,0.7822-1.0186
				s0.5029-0.2461,0.79-0.2461c0.4141,0,0.8359,0.1318,1.2646,0.3965l-0.4238,1.1416c-0.3008-0.1777-0.6016-0.2666-0.9023-0.2666
				c-0.2695,0-0.5107,0.0811-0.7246,0.2422c-0.2148,0.1621-0.3672,0.3867-0.458,0.6738c-0.1367,0.4375-0.2051,0.916-0.2051,1.4355
				v3.8008H174.9545z"/>
			<path style="fill:#C9452F;" d="M179.6303,16.1027V8.8429h1.1006v1.0186c0.2275-0.3555,0.5303-0.6416,0.9092-0.8584
				c0.3779-0.2158,0.8086-0.3242,1.292-0.3242c0.5371,0,0.9785,0.1113,1.3223,0.335c0.3447,0.2236,0.5869,0.5352,0.7285,0.9365
				c0.5742-0.8477,1.3213-1.2715,2.2422-1.2715c0.7197,0,1.2734,0.1992,1.6611,0.5977c0.3867,0.3994,0.5811,1.0137,0.5811,1.8428
				v4.9834h-1.2236v-4.5732c0-0.4922-0.04-0.8467-0.1201-1.0635c-0.0791-0.2158-0.2246-0.3906-0.4336-0.5225
				c-0.21-0.1318-0.4561-0.1982-0.7383-0.1982c-0.5107,0-0.9346,0.1699-1.2715,0.5098c-0.3379,0.3389-0.5059,0.8828-0.5059,1.6299
				v4.2178h-1.2305v-4.7168c0-0.5469-0.1006-0.957-0.3008-1.2305c-0.2012-0.2734-0.5293-0.4102-0.9844-0.4102
				c-0.3467,0-0.667,0.0908-0.9609,0.2734s-0.5068,0.4492-0.6387,0.7998c-0.1328,0.3506-0.1982,0.8564-0.1982,1.5176v3.7666
				H179.6303z"/>
			<path style="fill:#C9452F;" d="M196.0297,15.2072c-0.4561,0.3877-0.8945,0.6611-1.3164,0.8203
				c-0.4209,0.1592-0.874,0.2393-1.3564,0.2393c-0.7979,0-1.4111-0.1953-1.8389-0.584c-0.4287-0.3906-0.6426-0.8877-0.6426-1.4941
				c0-0.3555,0.0811-0.6797,0.2422-0.9746c0.1621-0.293,0.374-0.5293,0.6357-0.707c0.2627-0.1777,0.5576-0.3125,0.8857-0.4033
				c0.2412-0.0635,0.6055-0.125,1.0938-0.1846c0.9932-0.1182,1.7246-0.2598,2.1943-0.4238
				c0.0039-0.1689,0.0068-0.2754,0.0068-0.3213c0-0.501-0.1162-0.8545-0.3486-1.0596c-0.3145-0.2783-0.7822-0.417-1.4014-0.417
				c-0.5791,0-1.0059,0.1016-1.2822,0.3037c-0.2754,0.2031-0.4795,0.5625-0.6113,1.0771l-1.2031-0.1641
				c0.1094-0.5146,0.2891-0.9307,0.54-1.2471c0.25-0.3174,0.6123-0.5605,1.0869-0.7324c0.4736-0.1699,1.0225-0.2559,1.6475-0.2559
				c0.6191,0,1.123,0.0732,1.5107,0.2188c0.3867,0.1455,0.6719,0.3291,0.8545,0.5508c0.1816,0.2207,0.3096,0.5,0.3828,0.8369
				c0.041,0.21,0.0615,0.5879,0.0615,1.1348v1.6406c0,1.1436,0.0264,1.8672,0.0781,2.1709
				c0.0527,0.3027,0.1563,0.5928,0.3115,0.8711h-1.2852C196.1478,15.8478,196.0658,15.549,196.0297,15.2072z M195.9271,12.4591
				c-0.4473,0.1826-1.1172,0.3369-2.0098,0.4648c-0.5059,0.0732-0.8643,0.1553-1.0732,0.2461
				c-0.21,0.0908-0.3721,0.2246-0.4854,0.3994c-0.1143,0.1758-0.1709,0.3711-0.1709,0.585c0,0.3281,0.124,0.6016,0.3721,0.8203
				c0.249,0.2188,0.6123,0.3281,1.0908,0.3281c0.4736,0,0.8955-0.1035,1.2646-0.3115c0.3691-0.207,0.6396-0.4902,0.8135-0.8506
				c0.1318-0.2783,0.1982-0.6885,0.1982-1.2305V12.4591z"/>
			<path style="fill:#C9452F;" d="M203.8158,13.4435l1.21,0.1572c-0.1328,0.834-0.4707,1.4863-1.0156,1.959
				c-0.5439,0.4707-1.2129,0.707-2.0059,0.707c-0.9941,0-1.792-0.3242-2.3965-0.9746c-0.6035-0.6484-0.9053-1.5801-0.9053-2.792
				c0-0.7842,0.1299-1.4697,0.3896-2.0576s0.6553-1.0293,1.1855-1.3223c0.5313-0.2949,1.1084-0.4414,1.7334-0.4414
				c0.7881,0,1.4326,0.1992,1.9346,0.5977c0.501,0.3994,0.8223,0.9658,0.9639,1.6992l-1.1963,0.1846
				c-0.1143-0.4873-0.3154-0.8545-0.6055-1.1006c-0.2891-0.2461-0.6387-0.3691-1.0488-0.3691c-0.6201,0-1.124,0.2227-1.5107,0.666
				c-0.3877,0.4453-0.5811,1.1475-0.5811,2.1094c0,0.9756,0.1865,1.6836,0.5605,2.126c0.373,0.4424,0.8613,0.6631,1.4629,0.6631
				c0.4824,0,0.8857-0.1484,1.21-0.4443C203.5238,14.5148,203.7289,14.0587,203.8158,13.4435z"/>
			<path style="fill:#C9452F;" d="M206.0853,7.4962v-1.415h1.2305v1.415H206.0853z M206.0853,16.1027V8.8429h1.2305v7.2598H206.0853
				z"/>
			<path style="fill:#C9452F;" d="M208.7309,12.4728c0-1.3447,0.373-2.3398,1.1211-2.9873c0.624-0.5381,1.3848-0.8066,2.2832-0.8066
				c0.998,0,1.8135,0.3271,2.4473,0.9805c0.6328,0.6543,0.9502,1.5576,0.9502,2.7109c0,0.9346-0.1406,1.6689-0.4209,2.2051
				c-0.2803,0.5352-0.6875,0.9512-1.2236,1.2471c-0.5352,0.2959-1.1201,0.4443-1.7529,0.4443c-1.0166,0-1.8379-0.3262-2.4648-0.9775
				C209.0443,14.6378,208.7309,13.6984,208.7309,12.4728z M209.9955,12.4728c0,0.9297,0.2021,1.626,0.6084,2.0889
				c0.4053,0.4619,0.916,0.6934,1.5313,0.6934c0.6104,0,1.1182-0.2324,1.5244-0.6973c0.4053-0.4648,0.6084-1.1738,0.6084-2.126
				c0-0.8975-0.2041-1.5781-0.6123-2.04c-0.4072-0.4629-0.915-0.6943-1.5205-0.6943c-0.6152,0-1.126,0.2305-1.5313,0.6904
				C210.1976,10.8478,209.9955,11.5431,209.9955,12.4728z M211.4516,7.9406l0.9092-1.9141h1.6133l-1.5039,1.9141H211.4516z"/>
			<path style="fill:#C9452F;" d="M216.975,16.1027V8.8429h1.1074v1.0322c0.5332-0.7979,1.3027-1.1963,2.3105-1.1963
				c0.4375,0,0.8398,0.0781,1.2061,0.2363c0.3672,0.1563,0.6416,0.3633,0.8242,0.6182c0.1816,0.2549,0.3096,0.5586,0.3828,0.9092
				c0.0449,0.2275,0.0684,0.627,0.0684,1.1963v4.4639h-1.2305v-4.416c0-0.501-0.0479-0.876-0.1436-1.125
				c-0.0957-0.248-0.2656-0.4463-0.5098-0.5938c-0.2432-0.1484-0.5293-0.2227-0.8574-0.2227c-0.5244,0-0.9766,0.166-1.3574,0.499
				c-0.3799,0.333-0.5703,0.9639-0.5703,1.8936v3.9648H216.975z"/>
			<path style="fill:#C9452F;" d="M32.4867,32.8986L32.35,31.7433c0.2686,0.0732,0.5029,0.1094,0.7041,0.1094
				c0.2734,0,0.4922-0.0459,0.6563-0.1367s0.2979-0.2188,0.4033-0.3828c0.0771-0.123,0.2021-0.4287,0.376-0.916
				c0.0225-0.0684,0.0586-0.1689,0.1094-0.3008l-2.7549-7.2734h1.3262l1.5107,4.2041c0.1953,0.5332,0.3711,1.0938,0.5264,1.6816
				c0.1406-0.5654,0.3096-1.1162,0.5059-1.6543l1.5518-4.2314h1.2305l-2.7617,7.3828c-0.2969,0.7979-0.5264,1.3467-0.6904,1.6475
				c-0.2188,0.4053-0.4697,0.7031-0.752,0.8916c-0.2832,0.1895-0.6201,0.2842-1.0117,0.2842
				C33.0424,33.049,32.7777,32.9992,32.4867,32.8986z"/>
			<path style="fill:#C9452F;" d="M48.1683,27.4435l1.21,0.1572c-0.1328,0.834-0.4707,1.4863-1.0156,1.959
				c-0.5439,0.4707-1.2129,0.707-2.0059,0.707c-0.9941,0-1.792-0.3242-2.3965-0.9746c-0.6035-0.6484-0.9053-1.5801-0.9053-2.792
				c0-0.7842,0.1299-1.4697,0.3896-2.0576s0.6553-1.0293,1.1855-1.3223c0.5313-0.2949,1.1084-0.4414,1.7334-0.4414
				c0.7881,0,1.4326,0.1992,1.9346,0.5977c0.501,0.3994,0.8223,0.9658,0.9639,1.6992l-1.1963,0.1846
				c-0.1143-0.4873-0.3154-0.8545-0.6055-1.1006c-0.2891-0.2461-0.6387-0.3691-1.0488-0.3691c-0.6201,0-1.124,0.2227-1.5107,0.666
				c-0.3877,0.4453-0.5811,1.1475-0.5811,2.1094c0,0.9756,0.1865,1.6836,0.5605,2.126c0.373,0.4424,0.8613,0.6631,1.4629,0.6631
				c0.4824,0,0.8857-0.1484,1.21-0.4443C47.8764,28.5148,48.0814,28.0587,48.1683,27.4435z"/>
			<path style="fill:#C9452F;" d="M49.973,26.4728c0-1.3447,0.373-2.3398,1.1211-2.9873c0.624-0.5381,1.3848-0.8066,2.2832-0.8066
				c0.998,0,1.8135,0.3271,2.4473,0.9805c0.6328,0.6543,0.9502,1.5576,0.9502,2.7109c0,0.9346-0.1406,1.6689-0.4209,2.2051
				c-0.2803,0.5352-0.6875,0.9512-1.2236,1.2471c-0.5352,0.2959-1.1201,0.4443-1.7529,0.4443c-1.0166,0-1.8379-0.3262-2.4648-0.9775
				C50.2865,28.6378,49.973,27.6984,49.973,26.4728z M51.2377,26.4728c0,0.9297,0.2021,1.626,0.6084,2.0889
				c0.4053,0.4619,0.916,0.6934,1.5313,0.6934c0.6104,0,1.1182-0.2324,1.5244-0.6973c0.4053-0.4648,0.6084-1.1738,0.6084-2.126
				c0-0.8975-0.2041-1.5781-0.6123-2.04c-0.4072-0.4629-0.915-0.6943-1.5205-0.6943c-0.6152,0-1.126,0.2305-1.5313,0.6904
				C51.4398,24.8478,51.2377,25.5431,51.2377,26.4728z"/>
			<path style="fill:#C9452F;" d="M58.2172,30.1027v-7.2598h1.1074v1.0322c0.5332-0.7979,1.3027-1.1963,2.3105-1.1963
				c0.4375,0,0.8398,0.0781,1.2061,0.2363c0.3672,0.1563,0.6416,0.3633,0.8242,0.6182c0.1816,0.2549,0.3096,0.5586,0.3828,0.9092
				c0.0449,0.2275,0.0684,0.627,0.0684,1.1963v4.4639h-1.2305v-4.416c0-0.501-0.0479-0.876-0.1436-1.125
				c-0.0957-0.248-0.2656-0.4463-0.5098-0.5938c-0.2432-0.1484-0.5293-0.2227-0.8574-0.2227c-0.5244,0-0.9766,0.166-1.3574,0.499
				c-0.3799,0.333-0.5703,0.9639-0.5703,1.8936v3.9648H58.2172z"/>
			<path style="fill:#C9452F;" d="M65.5453,26.4728c0-1.3447,0.373-2.3398,1.1211-2.9873c0.624-0.5381,1.3848-0.8066,2.2832-0.8066
				c0.998,0,1.8135,0.3271,2.4473,0.9805c0.6328,0.6543,0.9502,1.5576,0.9502,2.7109c0,0.9346-0.1406,1.6689-0.4209,2.2051
				c-0.2803,0.5352-0.6875,0.9512-1.2236,1.2471c-0.5352,0.2959-1.1201,0.4443-1.7529,0.4443c-1.0166,0-1.8379-0.3262-2.4648-0.9775
				C65.8588,28.6378,65.5453,27.6984,65.5453,26.4728z M66.81,26.4728c0,0.9297,0.2021,1.626,0.6084,2.0889
				c0.4053,0.4619,0.916,0.6934,1.5313,0.6934c0.6104,0,1.1182-0.2324,1.5244-0.6973c0.4053-0.4648,0.6084-1.1738,0.6084-2.126
				c0-0.8975-0.2041-1.5781-0.6123-2.04c-0.4072-0.4629-0.915-0.6943-1.5205-0.6943c-0.6152,0-1.126,0.2305-1.5313,0.6904
				C67.0121,24.8478,66.81,25.5431,66.81,26.4728z"/>
			<path style="fill:#C9452F;" d="M78.5267,27.4435l1.21,0.1572c-0.1328,0.834-0.4707,1.4863-1.0156,1.959
				c-0.5439,0.4707-1.2129,0.707-2.0059,0.707c-0.9941,0-1.792-0.3242-2.3965-0.9746c-0.6035-0.6484-0.9053-1.5801-0.9053-2.792
				c0-0.7842,0.1299-1.4697,0.3896-2.0576s0.6553-1.0293,1.1855-1.3223c0.5313-0.2949,1.1084-0.4414,1.7334-0.4414
				c0.7881,0,1.4326,0.1992,1.9346,0.5977c0.501,0.3994,0.8223,0.9658,0.9639,1.6992l-1.1963,0.1846
				c-0.1143-0.4873-0.3154-0.8545-0.6055-1.1006c-0.2891-0.2461-0.6387-0.3691-1.0488-0.3691c-0.6201,0-1.124,0.2227-1.5107,0.666
				c-0.3877,0.4453-0.5811,1.1475-0.5811,2.1094c0,0.9756,0.1865,1.6836,0.5605,2.126c0.373,0.4424,0.8613,0.6631,1.4629,0.6631
				c0.4824,0,0.8857-0.1484,1.21-0.4443C78.2348,28.5148,78.4398,28.0587,78.5267,27.4435z"/>
			<path style="fill:#C9452F;" d="M80.7963,21.4962v-1.415h1.2305v1.415H80.7963z M80.7963,30.1027v-7.2598h1.2305v7.2598H80.7963z"
				/>
			<path style="fill:#C9452F;" d="M83.8998,30.1027v-7.2598h1.1006v1.0186c0.2275-0.3555,0.5303-0.6416,0.9092-0.8584
				c0.3779-0.2158,0.8086-0.3242,1.292-0.3242c0.5371,0,0.9785,0.1113,1.3223,0.335c0.3447,0.2236,0.5869,0.5352,0.7285,0.9365
				c0.5742-0.8477,1.3213-1.2715,2.2422-1.2715c0.7197,0,1.2734,0.1992,1.6611,0.5977c0.3867,0.3994,0.5811,1.0137,0.5811,1.8428
				v4.9834h-1.2236v-4.5732c0-0.4922-0.04-0.8467-0.1201-1.0635c-0.0791-0.2158-0.2246-0.3906-0.4336-0.5225
				c-0.21-0.1318-0.4561-0.1982-0.7383-0.1982c-0.5107,0-0.9346,0.1699-1.2715,0.5098c-0.3379,0.3389-0.5059,0.8828-0.5059,1.6299
				v4.2178h-1.2305v-4.7168c0-0.5469-0.1006-0.957-0.3008-1.2305c-0.2012-0.2734-0.5293-0.4102-0.9844-0.4102
				c-0.3467,0-0.667,0.0908-0.9609,0.2734s-0.5068,0.4492-0.6387,0.7998c-0.1328,0.3506-0.1982,0.8564-0.1982,1.5176v3.7666H83.8998
				z"/>
			<path style="fill:#C9452F;" d="M95.5687,21.4962v-1.415h1.2305v1.415H95.5687z M95.5687,30.1027v-7.2598h1.2305v7.2598H95.5687z"
				/>
			<path style="fill:#C9452F;" d="M103.642,27.7648l1.2715,0.1572c-0.2012,0.7432-0.5723,1.3193-1.1143,1.7295
				c-0.543,0.4102-1.2354,0.6152-2.0781,0.6152c-1.0625,0-1.9043-0.3271-2.5264-0.9805c-0.6221-0.6543-0.9326-1.5713-0.9326-2.752
				c0-1.2217,0.3145-2.1689,0.9434-2.8438s1.4443-1.0117,2.4473-1.0117c0.9707,0,1.7637,0.3301,2.3789,0.9912
				s0.9229,1.5908,0.9229,2.7891c0,0.0732-0.0029,0.1826-0.0068,0.3281h-5.4141c0.0449,0.7979,0.2705,1.4082,0.6768,1.832
				c0.4053,0.4238,0.9111,0.6357,1.5176,0.6357c0.4512,0,0.8359-0.1182,1.1553-0.3555
				C103.2016,28.6622,103.4545,28.2843,103.642,27.7648z M99.6019,25.7755h4.0537c-0.0547-0.6104-0.21-1.0684-0.4648-1.374
				c-0.3926-0.4736-0.9004-0.7109-1.5244-0.7109c-0.5654,0-1.04,0.1895-1.4258,0.5674
				C99.8559,24.6359,99.643,25.1417,99.6019,25.7755z"/>
			<path style="fill:#C9452F;" d="M106.4584,30.1027v-7.2598h1.1074v1.0322c0.5332-0.7979,1.3027-1.1963,2.3105-1.1963
				c0.4375,0,0.8398,0.0781,1.2061,0.2363c0.3672,0.1563,0.6416,0.3633,0.8242,0.6182c0.1816,0.2549,0.3096,0.5586,0.3828,0.9092
				c0.0449,0.2275,0.0684,0.627,0.0684,1.1963v4.4639h-1.2305v-4.416c0-0.501-0.0479-0.876-0.1436-1.125
				c-0.0957-0.248-0.2656-0.4463-0.5098-0.5938c-0.2432-0.1484-0.5293-0.2227-0.8574-0.2227c-0.5244,0-0.9766,0.166-1.3574,0.499
				c-0.3799,0.333-0.5703,0.9639-0.5703,1.8936v3.9648H106.4584z"/>
			<path style="fill:#C9452F;" d="M116.931,29.0021l0.1777,1.0869c-0.3467,0.0732-0.6563,0.1094-0.9297,0.1094
				c-0.4473,0-0.793-0.0703-1.0391-0.2119s-0.4199-0.3271-0.5195-0.5576c-0.1006-0.2295-0.1504-0.7139-0.1504-1.4521v-4.1768
				h-0.9023v-0.957h0.9023v-1.7979l1.2236-0.7383v2.5361h1.2373v0.957h-1.2373v4.2451c0,0.3506,0.0215,0.5762,0.0645,0.6768
				c0.0439,0.1006,0.1143,0.1797,0.2119,0.2393c0.0986,0.0596,0.2383,0.0889,0.4209,0.0889
				C116.5277,29.0499,116.7074,29.0343,116.931,29.0021z"/>
			<path style="fill:#C9452F;" d="M117.6762,26.4728c0-1.3447,0.373-2.3398,1.1211-2.9873c0.624-0.5381,1.3848-0.8066,2.2832-0.8066
				c0.998,0,1.8135,0.3271,2.4473,0.9805c0.6328,0.6543,0.9502,1.5576,0.9502,2.7109c0,0.9346-0.1406,1.6689-0.4209,2.2051
				c-0.2803,0.5352-0.6875,0.9512-1.2236,1.2471c-0.5352,0.2959-1.1201,0.4443-1.7529,0.4443c-1.0166,0-1.8379-0.3262-2.4648-0.9775
				C117.9896,28.6378,117.6762,27.6984,117.6762,26.4728z M118.9408,26.4728c0,0.9297,0.2021,1.626,0.6084,2.0889
				c0.4053,0.4619,0.916,0.6934,1.5313,0.6934c0.6104,0,1.1182-0.2324,1.5244-0.6973c0.4053-0.4648,0.6084-1.1738,0.6084-2.126
				c0-0.8975-0.2041-1.5781-0.6123-2.04c-0.4072-0.4629-0.915-0.6943-1.5205-0.6943c-0.6152,0-1.126,0.2305-1.5313,0.6904
				C119.143,24.8478,118.9408,25.5431,118.9408,26.4728z"/>
		</g>
	</g>
</g>
</svg>
