<?xml version="1.0" encoding="utf-8"?>
<!-- Generator: Adobe Illustrator 21.0.2, SVG Export Plug-In . SVG Version: 6.00 Build 0)  -->
<svg version="1.1" id="Capa_1" xmlns="http://www.w3.org/2000/svg" xmlns:xlink="http://www.w3.org/1999/xlink" x="0px" y="0px"
	 viewBox="0 0 232.1131 29.3904" style="enable-background:new 0 0 232.1131 29.3904;" xml:space="preserve">
<g>
	<polygon style="fill:#FFFFFF;" points="224.1131,29.3904 0,29.3904 0,0 224.1131,0 232.1131,13.8521 	"/>
	<polygon id="XMLID_4419_" style="fill:#C9452F;" points="18.1082,1.287 19.4871,5.9593 24.6181,6.037 20.6356,8.8719 
		22.0906,13.6952 18.1873,10.7875 14.0506,13.6952 15.5809,9.1024 11.5242,6.037 16.4237,6.1136 	"/>
	<g>
		<g>
			<path style="fill:#C9452F;" d="M32.6986,12.6943V2.6728h3.4521c0.7793,0,1.374,0.0479,1.7842,0.1436
				c0.5742,0.1318,1.064,0.3711,1.4697,0.7178c0.5288,0.4463,0.9238,1.0176,1.186,1.7129c0.2622,0.6943,0.3931,1.4883,0.3931,2.3818
				c0,0.7607-0.0889,1.4355-0.2666,2.0234s-0.4058,1.0742-0.6836,1.46c-0.2778,0.3848-0.582,0.6875-0.9126,0.9082
				c-0.3306,0.2217-0.729,0.3887-1.1963,0.5029s-1.0039,0.1709-1.6099,0.1709H32.6986z M34.0248,11.5116h2.1396
				c0.6606,0,1.1792-0.0615,1.5552-0.1846s0.6758-0.2959,0.8989-0.5195c0.3145-0.3145,0.5596-0.7373,0.7349-1.2676
				c0.1753-0.5313,0.2632-1.1748,0.2632-1.9316c0-1.0479-0.1719-1.8535-0.5161-2.416c-0.3442-0.5635-0.7622-0.9404-1.2544-1.1318
				c-0.3555-0.1367-0.9272-0.2051-1.7158-0.2051h-2.1055V11.5116z"/>
			<path style="fill:#C9452F;" d="M47.3891,11.7987c-0.4556,0.3877-0.8945,0.6611-1.3159,0.8203s-0.874,0.2393-1.3569,0.2393
				c-0.7974,0-1.4106-0.1953-1.8389-0.584c-0.4282-0.3906-0.6426-0.8877-0.6426-1.4941c0-0.3555,0.0811-0.6797,0.2427-0.9746
				c0.1616-0.293,0.3735-0.5293,0.6357-0.707s0.5571-0.3125,0.8853-0.4033c0.2417-0.0635,0.606-0.125,1.0938-0.1846
				c0.9937-0.1182,1.7251-0.2598,2.1943-0.4238c0.0044-0.1689,0.0068-0.2754,0.0068-0.3213c0-0.501-0.1162-0.8545-0.3486-1.0596
				c-0.3145-0.2783-0.7817-0.417-1.4014-0.417c-0.5786,0-1.0059,0.1016-1.2817,0.3037c-0.2759,0.2031-0.4795,0.5625-0.6118,1.0771
				l-1.2031-0.1641c0.1094-0.5146,0.2896-0.9307,0.54-1.2471c0.2505-0.3174,0.6128-0.5605,1.0869-0.7324
				c0.4741-0.1699,1.0229-0.2559,1.6475-0.2559c0.6196,0,1.1235,0.0732,1.5107,0.2188s0.6724,0.3291,0.8545,0.5508
				c0.1821,0.2207,0.3101,0.5,0.3828,0.8369c0.041,0.21,0.0615,0.5879,0.0615,1.1348v1.6406c0,1.1436,0.0264,1.8672,0.0786,2.1709
				c0.0522,0.3027,0.1563,0.5928,0.311,0.8711h-1.2852C47.5077,12.4394,47.4257,12.1405,47.3891,11.7987z M47.2865,9.0507
				c-0.4468,0.1826-1.1167,0.3369-2.0098,0.4648c-0.5059,0.0732-0.8638,0.1553-1.0732,0.2461s-0.3716,0.2246-0.4854,0.3994
				c-0.1138,0.1758-0.1709,0.3711-0.1709,0.585c0,0.3281,0.124,0.6016,0.3726,0.8203s0.6118,0.3281,1.0903,0.3281
				c0.4741,0,0.8955-0.1035,1.2646-0.3115c0.3691-0.207,0.6401-0.4902,0.8135-0.8506c0.1323-0.2783,0.1982-0.6885,0.1982-1.2305
				V9.0507z"/>
			<path style="fill:#C9452F;" d="M53.1244,11.5937l0.1777,1.0869c-0.3462,0.0732-0.6563,0.1094-0.9297,0.1094
				c-0.4468,0-0.793-0.0703-1.0391-0.2119s-0.4194-0.3271-0.5195-0.5576c-0.1001-0.2295-0.1504-0.7139-0.1504-1.4521V6.3915h-0.9023
				v-0.957h0.9023V3.6366l1.2236-0.7383v2.5361h1.2373v0.957h-1.2373v4.2451c0,0.3506,0.0215,0.5762,0.0649,0.6768
				s0.1138,0.1797,0.2119,0.2393s0.2383,0.0889,0.4204,0.0889C52.7211,11.6415,52.9013,11.6259,53.1244,11.5937z"/>
			<path style="fill:#C9452F;" d="M53.8695,9.0644c0-1.3447,0.3735-2.3398,1.1211-2.9873c0.6245-0.5381,1.3853-0.8066,2.2832-0.8066
				c0.998,0,1.814,0.3271,2.4473,0.9805c0.6333,0.6543,0.9502,1.5576,0.9502,2.7109c0,0.9346-0.1401,1.6689-0.4204,2.2051
				c-0.2803,0.5352-0.688,0.9512-1.2236,1.2471s-1.1201,0.4443-1.7534,0.4443c-1.0161,0-1.8379-0.3262-2.4644-0.9775
				S53.8695,10.29,53.8695,9.0644z M55.1342,9.0644c0,0.9297,0.2026,1.626,0.6084,2.0889c0.4058,0.4619,0.916,0.6934,1.5313,0.6934
				c0.6108,0,1.1187-0.2324,1.5244-0.6973s0.6084-1.1738,0.6084-2.126c0-0.8975-0.2041-1.5781-0.6118-2.04
				c-0.4077-0.4629-0.915-0.6943-1.521-0.6943c-0.6152,0-1.1255,0.2305-1.5313,0.6904S55.1342,8.1347,55.1342,9.0644z"/>
			<path style="fill:#C9452F;" d="M62.435,12.6943v-1.4014h1.4014v1.4014c0,0.5146-0.0913,0.9307-0.2734,1.248
				c-0.1821,0.3164-0.4717,0.5615-0.8682,0.7344l-0.3418-0.5264c0.2598-0.1143,0.4512-0.2813,0.5742-0.5029
				c0.123-0.2207,0.1914-0.5381,0.2051-0.9531H62.435z"/>
			<path style="fill:#C9452F;" d="M69.8998,4.0878v-1.415h1.2305v1.415H69.8998z M69.8998,12.6943V5.4345h1.2305v7.2598H69.8998z"/>
			<path style="fill:#C9452F;" d="M73.0033,12.6943V5.4345h1.1074v1.0322c0.5332-0.7979,1.3032-1.1963,2.3105-1.1963
				c0.4375,0,0.8398,0.0781,1.2065,0.2363c0.3667,0.1563,0.6416,0.3633,0.8237,0.6182s0.3101,0.5586,0.3828,0.9092
				c0.0454,0.2275,0.0684,0.627,0.0684,1.1963v4.4639h-1.2305v-4.416c0-0.501-0.0479-0.876-0.1436-1.125
				c-0.0957-0.248-0.2656-0.4463-0.5093-0.5938c-0.2437-0.1484-0.5298-0.2227-0.8579-0.2227c-0.5239,0-0.9766,0.166-1.3569,0.499
				s-0.5708,0.9639-0.5708,1.8936v3.9648H73.0033z"/>
			<path style="fill:#C9452F;" d="M81.0834,12.6943V6.3915h-1.0869v-0.957h1.0869V4.662c0-0.4873,0.0435-0.8496,0.1299-1.0869
				c0.1187-0.3193,0.3271-0.5781,0.6255-0.7754c0.2983-0.1992,0.7168-0.2979,1.2544-0.2979c0.3462,0,0.729,0.041,1.1484,0.123
				L84.057,3.6982c-0.2554-0.0459-0.4966-0.0684-0.7246-0.0684c-0.3735,0-0.6382,0.0801-0.793,0.2393
				c-0.1548,0.1592-0.2324,0.458-0.2324,0.8955v0.6699h1.415v0.957h-1.415v6.3027H81.0834z"/>
			<path style="fill:#C9452F;" d="M84.2211,9.0644c0-1.3447,0.3735-2.3398,1.1211-2.9873c0.6245-0.5381,1.3853-0.8066,2.2832-0.8066
				c0.998,0,1.814,0.3271,2.4473,0.9805c0.6333,0.6543,0.9502,1.5576,0.9502,2.7109c0,0.9346-0.1401,1.6689-0.4204,2.2051
				c-0.2803,0.5352-0.688,0.9512-1.2236,1.2471s-1.1201,0.4443-1.7534,0.4443c-1.0161,0-1.8379-0.3262-2.4644-0.9775
				S84.2211,10.29,84.2211,9.0644z M85.4858,9.0644c0,0.9297,0.2026,1.626,0.6084,2.0889c0.4058,0.4619,0.916,0.6934,1.5313,0.6934
				c0.6108,0,1.1187-0.2324,1.5244-0.6973s0.6084-1.1738,0.6084-2.126c0-0.8975-0.2041-1.5781-0.6118-2.04
				c-0.4077-0.4629-0.915-0.6943-1.521-0.6943c-0.6152,0-1.1255,0.2305-1.5313,0.6904S85.4858,8.1347,85.4858,9.0644z"/>
			<path style="fill:#C9452F;" d="M92.4516,12.6943V5.4345h1.1074v1.1006c0.2827-0.5146,0.5435-0.8545,0.7827-1.0186
				s0.5024-0.2461,0.7896-0.2461c0.4146,0,0.8364,0.1318,1.2646,0.3965l-0.4238,1.1416c-0.3008-0.1777-0.6016-0.2666-0.9023-0.2666
				c-0.269,0-0.5103,0.0811-0.7246,0.2422c-0.2144,0.1621-0.3667,0.3867-0.458,0.6738c-0.1367,0.4375-0.2051,0.916-0.2051,1.4355
				v3.8008H92.4516z"/>
			<path style="fill:#C9452F;" d="M97.1274,12.6943V5.4345h1.1006V6.453c0.228-0.3555,0.5308-0.6416,0.9092-0.8584
				c0.3784-0.2158,0.8091-0.3242,1.292-0.3242c0.5376,0,0.9785,0.1113,1.3228,0.335s0.5869,0.5352,0.728,0.9365
				c0.5742-0.8477,1.3218-1.2715,2.2422-1.2715c0.7202,0,1.2739,0.1992,1.6611,0.5977c0.3872,0.3994,0.5811,1.0137,0.5811,1.8428
				v4.9834h-1.2236V8.121c0-0.4922-0.04-0.8467-0.1196-1.0635c-0.0796-0.2158-0.2246-0.3906-0.4341-0.5225
				s-0.4556-0.1982-0.7383-0.1982c-0.5103,0-0.9341,0.1699-1.2715,0.5098c-0.3374,0.3389-0.5059,0.8828-0.5059,1.6299v4.2178
				h-1.2305V7.9775c0-0.5469-0.1001-0.957-0.3008-1.2305s-0.5288-0.4102-0.9844-0.4102c-0.3462,0-0.6665,0.0908-0.9604,0.2734
				s-0.5068,0.4492-0.6392,0.7998s-0.1982,0.8564-0.1982,1.5176v3.7666H97.1274z"/>
			<path style="fill:#C9452F;" d="M113.5268,11.7987c-0.4556,0.3877-0.8945,0.6611-1.3159,0.8203s-0.874,0.2393-1.3569,0.2393
				c-0.7974,0-1.4106-0.1953-1.8389-0.584c-0.4282-0.3906-0.6426-0.8877-0.6426-1.4941c0-0.3555,0.0811-0.6797,0.2427-0.9746
				c0.1616-0.293,0.3735-0.5293,0.6357-0.707s0.5571-0.3125,0.8853-0.4033c0.2417-0.0635,0.606-0.125,1.0938-0.1846
				c0.9937-0.1182,1.7251-0.2598,2.1943-0.4238c0.0044-0.1689,0.0068-0.2754,0.0068-0.3213c0-0.501-0.1162-0.8545-0.3486-1.0596
				c-0.3145-0.2783-0.7817-0.417-1.4014-0.417c-0.5786,0-1.0059,0.1016-1.2817,0.3037c-0.2759,0.2031-0.4795,0.5625-0.6118,1.0771
				l-1.2031-0.1641c0.1094-0.5146,0.2896-0.9307,0.54-1.2471c0.2505-0.3174,0.6128-0.5605,1.0869-0.7324
				c0.4741-0.1699,1.0229-0.2559,1.6475-0.2559c0.6196,0,1.1235,0.0732,1.5107,0.2188s0.6724,0.3291,0.8545,0.5508
				c0.1821,0.2207,0.3101,0.5,0.3828,0.8369c0.041,0.21,0.0615,0.5879,0.0615,1.1348v1.6406c0,1.1436,0.0264,1.8672,0.0786,2.1709
				c0.0522,0.3027,0.1563,0.5928,0.311,0.8711h-1.2852C113.6454,12.4394,113.5634,12.1405,113.5268,11.7987z M113.4242,9.0507
				c-0.4468,0.1826-1.1167,0.3369-2.0098,0.4648c-0.5059,0.0732-0.8638,0.1553-1.0732,0.2461s-0.3716,0.2246-0.4854,0.3994
				c-0.1138,0.1758-0.1709,0.3711-0.1709,0.585c0,0.3281,0.124,0.6016,0.3726,0.8203s0.6118,0.3281,1.0903,0.3281
				c0.4741,0,0.8955-0.1035,1.2646-0.3115c0.3691-0.207,0.6401-0.4902,0.8135-0.8506c0.1323-0.2783,0.1982-0.6885,0.1982-1.2305
				V9.0507z"/>
			<path style="fill:#C9452F;" d="M121.3129,10.0351l1.21,0.1572c-0.1323,0.834-0.4707,1.4863-1.0151,1.959
				c-0.5444,0.4707-1.2134,0.707-2.0063,0.707c-0.9937,0-1.792-0.3242-2.396-0.9746c-0.604-0.6484-0.9058-1.5801-0.9058-2.792
				c0-0.7842,0.1299-1.4697,0.3896-2.0576s0.6553-1.0293,1.186-1.3223c0.5308-0.2949,1.1084-0.4414,1.7329-0.4414
				c0.7886,0,1.4331,0.1992,1.9346,0.5977c0.5015,0.3994,0.8228,0.9658,0.9639,1.6992l-1.1963,0.1846
				c-0.1138-0.4873-0.3154-0.8545-0.605-1.1006s-0.6392-0.3691-1.0493-0.3691c-0.6196,0-1.1235,0.2227-1.5107,0.666
				c-0.3872,0.4453-0.5811,1.1475-0.5811,2.1094c0,0.9756,0.187,1.6836,0.5605,2.126s0.8613,0.6631,1.4629,0.6631
				c0.4829,0,0.8862-0.1484,1.21-0.4443S121.2265,10.6503,121.3129,10.0351z"/>
			<path style="fill:#C9452F;" d="M123.5824,4.0878v-1.415h1.2305v1.415H123.5824z M123.5824,12.6943V5.4345h1.2305v7.2598H123.5824
				z"/>
			<path style="fill:#C9452F;" d="M126.2279,9.0644c0-1.3447,0.3735-2.3398,1.1211-2.9873
				c0.6245-0.5381,1.3852-0.8066,2.2832-0.8066c0.998,0,1.814,0.3271,2.4473,0.9805c0.6333,0.6543,0.9502,1.5576,0.9502,2.7109
				c0,0.9346-0.1401,1.6689-0.4204,2.2051c-0.2803,0.5352-0.688,0.9512-1.2236,1.2471s-1.1201,0.4443-1.7534,0.4443
				c-1.0161,0-1.8379-0.3262-2.4643-0.9775S126.2279,10.29,126.2279,9.0644z M127.4926,9.0644c0,0.9297,0.2026,1.626,0.6084,2.0889
				c0.4058,0.4619,0.916,0.6934,1.5313,0.6934c0.6108,0,1.1187-0.2324,1.5244-0.6973s0.6084-1.1738,0.6084-2.126
				c0-0.8975-0.2041-1.5781-0.6118-2.04c-0.4077-0.4629-0.915-0.6943-1.521-0.6943c-0.6152,0-1.1255,0.2305-1.5313,0.6904
				C127.6952,7.4394,127.4926,8.1347,127.4926,9.0644z M128.9486,4.5321l0.9092-1.9141h1.6133l-1.5039,1.9141H128.9486z"/>
			<path style="fill:#C9452F;" d="M134.4721,12.6943V5.4345h1.1074v1.0322c0.5332-0.7979,1.3032-1.1963,2.3105-1.1963
				c0.4375,0,0.8398,0.0781,1.2065,0.2363c0.3667,0.1563,0.6416,0.3633,0.8237,0.6182s0.3101,0.5586,0.3828,0.9092
				c0.0454,0.2275,0.0684,0.627,0.0684,1.1963v4.4639h-1.2305v-4.416c0-0.501-0.0479-0.876-0.1436-1.125
				c-0.0957-0.248-0.2656-0.4463-0.5093-0.5938c-0.2437-0.1484-0.5298-0.2227-0.8579-0.2227c-0.5239,0-0.9766,0.166-1.3569,0.499
				s-0.5708,0.9639-0.5708,1.8936v3.9648H134.4721z"/>
			<path style="fill:#C9452F;" d="M146.0932,15.4902l-0.1367-1.1553c0.269,0.0732,0.5034,0.1094,0.7041,0.1094
				c0.2734,0,0.4922-0.0459,0.6563-0.1367s0.2983-0.2188,0.4033-0.3828c0.0776-0.123,0.2026-0.4287,0.376-0.916
				c0.0229-0.0684,0.0591-0.1689,0.1094-0.3008l-2.7549-7.2734h1.3262l1.5107,4.2041c0.1958,0.5332,0.3716,1.0938,0.5264,1.6816
				c0.1411-0.5654,0.3101-1.1162,0.5059-1.6543l1.5518-4.2314h1.2305l-2.7617,7.3828c-0.2964,0.7979-0.5264,1.3467-0.6904,1.6475
				c-0.2188,0.4053-0.4692,0.7031-0.752,0.8916c-0.2827,0.1895-0.6196,0.2842-1.0117,0.2842
				C146.6493,15.6405,146.3847,15.5907,146.0932,15.4902z"/>
			<path style="fill:#C9452F;" d="M37.2787,24.0351l1.21,0.1572c-0.1323,0.834-0.4707,1.4863-1.0151,1.959
				c-0.5444,0.4707-1.2134,0.707-2.0063,0.707c-0.9937,0-1.792-0.3242-2.396-0.9746c-0.604-0.6484-0.9058-1.5801-0.9058-2.792
				c0-0.7842,0.1299-1.4697,0.3896-2.0576s0.6553-1.0293,1.186-1.3223c0.5308-0.2949,1.1084-0.4414,1.7329-0.4414
				c0.7886,0,1.4331,0.1992,1.9346,0.5977c0.5015,0.3994,0.8228,0.9658,0.9639,1.6992l-1.1963,0.1846
				c-0.1138-0.4873-0.3154-0.8545-0.605-1.1006s-0.6392-0.3691-1.0493-0.3691c-0.6196,0-1.1235,0.2227-1.5107,0.666
				c-0.3872,0.4453-0.5811,1.1475-0.5811,2.1094c0,0.9756,0.187,1.6836,0.5605,2.126s0.8613,0.6631,1.4629,0.6631
				c0.4829,0,0.8862-0.1484,1.21-0.4443S37.1923,24.6503,37.2787,24.0351z"/>
			<path style="fill:#C9452F;" d="M39.0834,23.0644c0-1.3447,0.3735-2.3398,1.1211-2.9873
				c0.6245-0.5381,1.3853-0.8066,2.2832-0.8066c0.998,0,1.814,0.3271,2.4473,0.9805c0.6333,0.6543,0.9502,1.5576,0.9502,2.7109
				c0,0.9346-0.1401,1.6689-0.4204,2.2051c-0.2803,0.5352-0.688,0.9512-1.2236,1.2471s-1.1201,0.4443-1.7534,0.4443
				c-1.0161,0-1.8379-0.3262-2.4644-0.9775S39.0834,24.29,39.0834,23.0644z M40.3481,23.0644c0,0.9297,0.2026,1.626,0.6084,2.0889
				c0.4058,0.4619,0.916,0.6934,1.5313,0.6934c0.6108,0,1.1187-0.2324,1.5244-0.6973s0.6084-1.1738,0.6084-2.126
				c0-0.8975-0.2041-1.5781-0.6118-2.04c-0.4077-0.4629-0.915-0.6943-1.521-0.6943c-0.6152,0-1.1255,0.2305-1.5313,0.6904
				S40.3481,22.1347,40.3481,23.0644z"/>
			<path style="fill:#C9452F;" d="M47.3275,26.6943v-7.2598h1.1074v1.0322c0.5332-0.7979,1.3032-1.1963,2.3105-1.1963
				c0.4375,0,0.8398,0.0781,1.2065,0.2363c0.3667,0.1563,0.6416,0.3633,0.8237,0.6182s0.3101,0.5586,0.3828,0.9092
				c0.0454,0.2275,0.0684,0.627,0.0684,1.1963v4.4639h-1.2305v-4.416c0-0.501-0.0479-0.876-0.1436-1.125
				c-0.0957-0.248-0.2656-0.4463-0.5093-0.5938c-0.2437-0.1484-0.5298-0.2227-0.8579-0.2227c-0.5239,0-0.9766,0.166-1.3569,0.499
				s-0.5708,0.9639-0.5708,1.8936v3.9648H47.3275z"/>
			<path style="fill:#C9452F;" d="M54.6557,23.0644c0-1.3447,0.3735-2.3398,1.1211-2.9873
				c0.6245-0.5381,1.3853-0.8066,2.2832-0.8066c0.998,0,1.814,0.3271,2.4473,0.9805c0.6333,0.6543,0.9502,1.5576,0.9502,2.7109
				c0,0.9346-0.1401,1.6689-0.4204,2.2051c-0.2803,0.5352-0.688,0.9512-1.2236,1.2471s-1.1201,0.4443-1.7534,0.4443
				c-1.0161,0-1.8379-0.3262-2.4644-0.9775S54.6557,24.29,54.6557,23.0644z M55.9203,23.0644c0,0.9297,0.2026,1.626,0.6084,2.0889
				c0.4058,0.4619,0.916,0.6934,1.5313,0.6934c0.6108,0,1.1187-0.2324,1.5244-0.6973s0.6084-1.1738,0.6084-2.126
				c0-0.8975-0.2041-1.5781-0.6118-2.04c-0.4077-0.4629-0.915-0.6943-1.521-0.6943c-0.6152,0-1.1255,0.2305-1.5313,0.6904
				S55.9203,22.1347,55.9203,23.0644z"/>
			<path style="fill:#C9452F;" d="M67.6371,24.0351l1.21,0.1572c-0.1323,0.834-0.4707,1.4863-1.0151,1.959
				c-0.5444,0.4707-1.2134,0.707-2.0063,0.707c-0.9937,0-1.792-0.3242-2.396-0.9746c-0.604-0.6484-0.9058-1.5801-0.9058-2.792
				c0-0.7842,0.1299-1.4697,0.3896-2.0576s0.6553-1.0293,1.186-1.3223c0.5308-0.2949,1.1084-0.4414,1.7329-0.4414
				c0.7886,0,1.4331,0.1992,1.9346,0.5977c0.5015,0.3994,0.8228,0.9658,0.9639,1.6992l-1.1963,0.1846
				c-0.1138-0.4873-0.3154-0.8545-0.605-1.1006s-0.6392-0.3691-1.0493-0.3691c-0.6196,0-1.1235,0.2227-1.5107,0.666
				c-0.3872,0.4453-0.5811,1.1475-0.5811,2.1094c0,0.9756,0.187,1.6836,0.5606,2.126c0.3735,0.4424,0.8613,0.6631,1.4629,0.6631
				c0.4829,0,0.8862-0.1484,1.21-0.4443S67.5507,24.6503,67.6371,24.0351z"/>
			<path style="fill:#C9452F;" d="M69.9067,18.0878v-1.415h1.2305v1.415H69.9067z M69.9067,26.6943v-7.2598h1.2305v7.2598H69.9067z"
				/>
			<path style="fill:#C9452F;" d="M73.0102,26.6943v-7.2598h1.1006v1.0186c0.228-0.3555,0.5308-0.6416,0.9092-0.8584
				c0.3784-0.2158,0.8091-0.3242,1.292-0.3242c0.5376,0,0.9785,0.1113,1.3228,0.335s0.5869,0.5352,0.728,0.9365
				c0.5742-0.8477,1.3218-1.2715,2.2422-1.2715c0.7202,0,1.2739,0.1992,1.6611,0.5977c0.3872,0.3994,0.5811,1.0137,0.5811,1.8428
				v4.9834h-1.2236V22.121c0-0.4922-0.04-0.8467-0.1196-1.0635c-0.0796-0.2158-0.2246-0.3906-0.4341-0.5225
				s-0.4556-0.1982-0.7383-0.1982c-0.5103,0-0.9341,0.1699-1.2715,0.5098c-0.3374,0.3389-0.5059,0.8828-0.5059,1.6299v4.2178
				h-1.2305v-4.7168c0-0.5469-0.1001-0.957-0.3008-1.2305s-0.5288-0.4102-0.9844-0.4102c-0.3462,0-0.6665,0.0908-0.9604,0.2734
				s-0.5068,0.4492-0.6392,0.7998s-0.1982,0.8564-0.1982,1.5176v3.7666H73.0102z"/>
			<path style="fill:#C9452F;" d="M84.6791,18.0878v-1.415h1.2305v1.415H84.6791z M84.6791,26.6943v-7.2598h1.2305v7.2598H84.6791z"
				/>
			<path style="fill:#C9452F;" d="M92.7524,24.3564l1.2715,0.1572c-0.2007,0.7432-0.5718,1.3193-1.1143,1.7295
				s-1.2349,0.6152-2.0781,0.6152c-1.062,0-1.9038-0.3271-2.5259-0.9805c-0.6221-0.6543-0.9331-1.5713-0.9331-2.752
				c0-1.2217,0.3145-2.1689,0.9434-2.8438s1.4448-1.0117,2.4473-1.0117c0.9707,0,1.7637,0.3301,2.3789,0.9912
				s0.9229,1.5908,0.9229,2.7891c0,0.0732-0.0024,0.1826-0.0068,0.3281H88.644c0.0454,0.7979,0.271,1.4082,0.6768,1.832
				s0.9116,0.6357,1.5176,0.6357c0.4512,0,0.8364-0.1182,1.1553-0.3555S92.5653,24.8759,92.7524,24.3564z M88.7123,22.3671h4.0537
				c-0.0547-0.6104-0.2095-1.0684-0.4648-1.374c-0.3921-0.4736-0.8999-0.7109-1.5244-0.7109c-0.5649,0-1.04,0.1895-1.4253,0.5674
				S88.7533,21.7333,88.7123,22.3671z"/>
			<path style="fill:#C9452F;" d="M95.5688,26.6943v-7.2598h1.1074v1.0322c0.5332-0.7979,1.3032-1.1963,2.3105-1.1963
				c0.4375,0,0.8398,0.0781,1.2065,0.2363c0.3667,0.1563,0.6416,0.3633,0.8237,0.6182s0.3101,0.5586,0.3828,0.9092
				c0.0454,0.2275,0.0684,0.627,0.0684,1.1963v4.4639h-1.2305v-4.416c0-0.501-0.0479-0.876-0.1436-1.125
				c-0.0957-0.248-0.2656-0.4463-0.5093-0.5938c-0.2437-0.1484-0.5298-0.2227-0.8579-0.2227c-0.5239,0-0.9766,0.166-1.3569,0.499
				s-0.5708,0.9639-0.5708,1.8936v3.9648H95.5688z"/>
			<path style="fill:#C9452F;" d="M106.0414,25.5937l0.1777,1.0869c-0.3462,0.0732-0.6563,0.1094-0.9297,0.1094
				c-0.4468,0-0.793-0.0703-1.0391-0.2119s-0.4194-0.3271-0.5195-0.5576c-0.1001-0.2295-0.1504-0.7139-0.1504-1.4521v-4.1768
				h-0.9023v-0.957h0.9023v-1.7979l1.2236-0.7383v2.5361h1.2373v0.957h-1.2373v4.2451c0,0.3506,0.0215,0.5762,0.0649,0.6768
				s0.1138,0.1797,0.2119,0.2393s0.2383,0.0889,0.4204,0.0889C105.6381,25.6415,105.8183,25.6259,106.0414,25.5937z"/>
			<path style="fill:#C9452F;" d="M106.7865,23.0644c0-1.3447,0.3735-2.3398,1.1211-2.9873
				c0.6245-0.5381,1.3853-0.8066,2.2832-0.8066c0.998,0,1.814,0.3271,2.4473,0.9805c0.6333,0.6543,0.9502,1.5576,0.9502,2.7109
				c0,0.9346-0.1401,1.6689-0.4204,2.2051c-0.2803,0.5352-0.688,0.9512-1.2236,1.2471s-1.1201,0.4443-1.7534,0.4443
				c-1.0161,0-1.8379-0.3262-2.4644-0.9775S106.7865,24.29,106.7865,23.0644z M108.0512,23.0644
				c0,0.9297,0.2026,1.626,0.6084,2.0889c0.4058,0.4619,0.916,0.6934,1.5313,0.6934c0.6108,0,1.1187-0.2324,1.5244-0.6973
				s0.6084-1.1738,0.6084-2.126c0-0.8975-0.2041-1.5781-0.6118-2.04c-0.4077-0.4629-0.915-0.6943-1.521-0.6943
				c-0.6152,0-1.1255,0.2305-1.5313,0.6904S108.0512,22.1347,108.0512,23.0644z"/>
		</g>
	</g>
</g>
</svg>
