<?xml version="1.0" encoding="utf-8"?>
<!-- Generator: Adobe Illustrator 21.0.2, SVG Export Plug-In . SVG Version: 6.00 Build 0)  -->
<svg version="1.1" id="Capa_1" xmlns="http://www.w3.org/2000/svg" xmlns:xlink="http://www.w3.org/1999/xlink" x="0px" y="0px"
	 viewBox="0 0 244.2437 35.4242" style="enable-background:new 0 0 244.2437 35.4242;" xml:space="preserve">
<g>
	<rect id="XMLID_5173_" style="fill-rule:evenodd;clip-rule:evenodd;fill:#C9452F;" width="244.2437" height="35.4242"/>
	<g>
		<g>
			<path style="fill:#FFFFFF;" d="M50.5769,24.0994V11.2146h3.8936l2.3379,8.7891l2.3115-8.7891h3.9023v12.8848h-2.417V13.9568
				l-2.5576,10.1426h-2.5049l-2.5488-10.1426v10.1426H50.5769z"/>
			<path style="fill:#FFFFFF;" d="M70.9939,21.1287l2.4609,0.4131c-0.3164,0.9023-0.8164,1.5898-1.499,2.0615
				s-1.5361,0.707-2.5615,0.707c-1.623,0-2.8242-0.5303-3.6035-1.5908c-0.6152-0.8496-0.9229-1.9219-0.9229-3.2168
				c0-1.5469,0.4043-2.7578,1.2129-3.6338s1.8311-1.3145,3.0674-1.3145c1.3887,0,2.4844,0.459,3.2871,1.375
				c0.8027,0.918,1.1865,2.3223,1.1514,4.2148h-6.1875c0.0176,0.7324,0.2168,1.3027,0.5977,1.709
				c0.3809,0.4082,0.8555,0.6113,1.4238,0.6113c0.3867,0,0.7119-0.1055,0.9756-0.3164S70.8592,21.5974,70.9939,21.1287z
				 M71.1346,18.6326c-0.0176-0.7148-0.2021-1.2578-0.5537-1.6309c-0.3516-0.3711-0.7793-0.5576-1.2832-0.5576
				c-0.5391,0-0.9844,0.1963-1.3359,0.5889s-0.5244,0.9258-0.5186,1.5996H71.1346z M67.9793,13.6228l1.2129-2.6279h2.7686
				l-2.417,2.6279H67.9793z"/>
			<path style="fill:#FFFFFF;" d="M79.8797,14.7654v1.9688h-1.6875v3.7617c0,0.7617,0.0156,1.2061,0.0479,1.332
				s0.1055,0.2295,0.2197,0.3115s0.2539,0.123,0.418,0.123c0.2285,0,0.5596-0.0791,0.9932-0.2373l0.2109,1.916
				c-0.5742,0.2461-1.2246,0.3691-1.9512,0.3691c-0.4453,0-0.8467-0.0742-1.2041-0.2246c-0.3574-0.1484-0.6201-0.3418-0.7871-0.5801
				c-0.167-0.2363-0.2822-0.5576-0.3467-0.9619c-0.0527-0.2871-0.0791-0.8672-0.0791-1.7402v-4.0693h-1.1338v-1.9688h1.1338v-1.8545
				l2.4785-1.4414v3.2959H79.8797z"/>
			<path style="fill:#FFFFFF;" d="M81.0222,19.3005c0-0.8203,0.2021-1.6143,0.6064-2.3818s0.9766-1.3535,1.7178-1.7578
				s1.5693-0.6064,2.4834-0.6064c1.4121,0,2.5693,0.459,3.4717,1.375c0.9023,0.918,1.3535,2.0762,1.3535,3.4766
				c0,1.4121-0.4561,2.583-1.3672,3.5117s-2.0576,1.3926-3.4404,1.3926c-0.8555,0-1.6719-0.1934-2.4482-0.5801
				s-1.3662-0.9531-1.7705-1.7012C81.2244,21.283,81.0222,20.3728,81.0222,19.3005z M83.5535,19.4324
				c0,0.9258,0.2197,1.6348,0.6592,2.127s0.9814,0.7383,1.626,0.7383s1.1846-0.2461,1.6211-0.7383s0.6553-1.207,0.6553-2.1445
				c0-0.9141-0.2188-1.6172-0.6553-2.1094s-0.9766-0.7383-1.6211-0.7383s-1.1865,0.2461-1.626,0.7383
				S83.5535,18.5066,83.5535,19.4324z"/>
			<path style="fill:#FFFFFF;" d="M101.1492,24.0994h-2.2939v-1.3711c-0.3809,0.5332-0.8311,0.9307-1.3496,1.1914
				c-0.5186,0.2598-1.041,0.3906-1.5684,0.3906c-1.0723,0-1.9912-0.4316-2.7559-1.2969c-0.7646-0.8633-1.1465-2.0693-1.1465-3.6162
				c0-1.582,0.3721-2.7842,1.1162-3.6084c0.7441-0.8223,1.6846-1.2344,2.8213-1.2344c1.043,0,1.9453,0.4336,2.707,1.3008v-4.6406
				h2.4697V24.0994z M94.5574,19.2302c0,0.9961,0.1377,1.7168,0.4131,2.1621c0.3984,0.6445,0.9551,0.9668,1.6699,0.9668
				c0.5684,0,1.0518-0.2422,1.4502-0.7246c0.3984-0.4844,0.5977-1.2061,0.5977-2.167c0-1.0723-0.1934-1.8438-0.5801-2.3154
				s-0.8818-0.708-1.4854-0.708c-0.5859,0-1.0771,0.2334-1.4727,0.6982C94.7547,17.6091,94.5574,18.3044,94.5574,19.2302z"/>
			<path style="fill:#FFFFFF;" d="M103.0125,19.3005c0-0.8203,0.2021-1.6143,0.6064-2.3818s0.9766-1.3535,1.7178-1.7578
				s1.5693-0.6064,2.4834-0.6064c1.4121,0,2.5693,0.459,3.4717,1.375c0.9023,0.918,1.3535,2.0762,1.3535,3.4766
				c0,1.4121-0.4561,2.583-1.3672,3.5117s-2.0576,1.3926-3.4404,1.3926c-0.8555,0-1.6719-0.1934-2.4482-0.5801
				s-1.3662-0.9531-1.7705-1.7012C103.2146,21.283,103.0125,20.3728,103.0125,19.3005z M105.5437,19.4324
				c0,0.9258,0.2197,1.6348,0.6592,2.127s0.9814,0.7383,1.626,0.7383s1.1846-0.2461,1.6211-0.7383s0.6553-1.207,0.6553-2.1445
				c0-0.9141-0.2188-1.6172-0.6553-2.1094s-0.9766-0.7383-1.6211-0.7383s-1.1865,0.2461-1.626,0.7383
				S105.5437,18.5066,105.5437,19.4324z"/>
			<path style="fill:#FFFFFF;" d="M113.7088,21.4363l2.4785-0.3779c0.1055,0.4805,0.3193,0.8457,0.6416,1.0938
				c0.3223,0.25,0.7734,0.374,1.3535,0.374c0.6387,0,1.1191-0.1172,1.4414-0.3516c0.2168-0.1641,0.3252-0.3838,0.3252-0.6592
				c0-0.1875-0.0586-0.3428-0.1758-0.4658c-0.123-0.1172-0.3984-0.2256-0.8262-0.3252c-1.9922-0.4395-3.2549-0.8408-3.7881-1.2041
				c-0.7383-0.5039-1.1074-1.2041-1.1074-2.1006c0-0.8086,0.3193-1.4883,0.958-2.0391s1.6289-0.8262,2.9707-0.8262
				c1.2773,0,2.2266,0.208,2.8477,0.624s1.0488,1.0313,1.2832,1.8457l-2.3291,0.4307c-0.0996-0.3633-0.2891-0.6416-0.5674-0.835
				s-0.6748-0.29-1.1904-0.29c-0.6504,0-1.1162,0.0908-1.3975,0.2725c-0.1875,0.1289-0.2813,0.2959-0.2813,0.501
				c0,0.1758,0.082,0.3252,0.2461,0.4482c0.2227,0.1641,0.9912,0.3955,2.3066,0.6943s2.2344,0.665,2.7559,1.0986
				c0.5156,0.4395,0.7734,1.0518,0.7734,1.8369c0,0.8555-0.3574,1.5908-1.0723,2.2061s-1.7725,0.9229-3.1729,0.9229
				c-1.2715,0-2.2783-0.2578-3.0195-0.7734S113.9373,22.321,113.7088,21.4363z"/>
		</g>
	</g>
	<g>
		<path style="fill:#FFFFFF;" d="M31.7102,6.2449c-2.7328-2.4091-6.2472-3.9496-10.1161-4.1912v14.3074L31.7102,6.2449z"/>
		<path style="fill:#F9CA35;" d="M21.5941,18.6987v12.687c6.8262-0.4268,12.2315-6.0954,12.2315-13.0293
			c0-3.3083-1.2326-6.3276-3.2613-8.6285L21.5941,18.6987z"/>
		<path style="fill:#2B2B38;" d="M7.7096,18.3565c0,6.9339,5.4049,12.6029,12.231,13.0293V5.327
			C13.1145,5.7534,7.7096,11.4226,7.7096,18.3565z"/>
	</g>
</g>
</svg>
