<?xml version="1.0" encoding="utf-8"?>
<!-- Generator: Adobe Illustrator 21.0.2, SVG Export Plug-In . SVG Version: 6.00 Build 0)  -->
<svg version="1.1" id="Capa_1" xmlns="http://www.w3.org/2000/svg" xmlns:xlink="http://www.w3.org/1999/xlink" x="0px" y="0px"
	 viewBox="0 0 244.2437 35.4242" style="enable-background:new 0 0 244.2437 35.4242;" xml:space="preserve">
<g>
	<rect id="XMLID_5169_" y="0" style="fill-rule:evenodd;clip-rule:evenodd;fill:#C9452F;" width="244.2437" height="35.4242"/>
	<g>
		<g>
			<path style="fill:#FFFFFF;" d="M58.4534,19.2102l2.5225,0.7998c-0.3867,1.4063-1.0298,2.4512-1.9292,3.1328
				c-0.8994,0.6836-2.0405,1.0244-3.4233,1.0244c-1.7109,0-3.1172-0.585-4.2188-1.7529c-1.1016-1.1699-1.6523-2.7676-1.6523-4.7949
				c0-2.1445,0.5537-3.8105,1.6611-4.9961c1.1074-1.1875,2.5635-1.7803,4.3682-1.7803c1.5762,0,2.8564,0.4658,3.8408,1.3975
				c0.5859,0.5508,1.0254,1.3418,1.3184,2.373l-2.5752,0.6152c-0.1523-0.668-0.4702-1.1953-0.9536-1.582
				s-1.0708-0.5801-1.7622-0.5801c-0.9551,0-1.73,0.3428-2.3247,1.0283s-0.8921,1.7959-0.8921,3.3311
				c0,1.6289,0.293,2.7891,0.8789,3.4805s1.3477,1.0371,2.2852,1.0371c0.6914,0,1.2861-0.2197,1.7842-0.6592
				S58.2366,20.1536,58.4534,19.2102z"/>
			<path style="fill:#FFFFFF;" d="M65.0365,17.4612l-2.2412-0.4043c0.252-0.9023,0.6855-1.5703,1.3008-2.0039
				s1.5293-0.6504,2.7422-0.6504c1.1016,0,1.9219,0.1309,2.4609,0.3906c0.5391,0.2617,0.9185,0.5928,1.1382,0.9941
				s0.3296,1.1377,0.3296,2.21l-0.0264,2.8828c0,0.8203,0.0396,1.4258,0.1187,1.8154s0.2271,0.8066,0.4438,1.252h-2.4434
				c-0.0645-0.1641-0.1436-0.4072-0.2373-0.7295c-0.041-0.1465-0.0703-0.2432-0.0879-0.29
				c-0.4219,0.4102-0.873,0.7178-1.3535,0.9229s-0.9932,0.3076-1.5381,0.3076c-0.9609,0-1.7183-0.2607-2.272-0.7822
				s-0.8306-1.1807-0.8306-1.9775c0-0.5273,0.126-0.998,0.3779-1.4102c0.252-0.4141,0.605-0.7305,1.0591-0.9492
				c0.4541-0.2207,1.1089-0.4121,1.9644-0.5762c1.1543-0.2168,1.9541-0.4189,2.3994-0.6064v-0.2461
				c0-0.4746-0.1172-0.8135-0.3516-1.0146c-0.2344-0.2031-0.6768-0.3037-1.3271-0.3037c-0.4395,0-0.7822,0.0869-1.0283,0.2588
				C65.388,16.7249,65.1888,17.0276,65.0365,17.4612z M68.3411,19.4651c-0.3164,0.1055-0.8174,0.2314-1.5029,0.3779
				s-1.1338,0.29-1.3447,0.4307c-0.3223,0.2285-0.4834,0.5186-0.4834,0.8701c0,0.3457,0.1289,0.6445,0.3867,0.8965
				s0.5859,0.3779,0.9844,0.3779c0.4453,0,0.8701-0.1465,1.2744-0.4395c0.2988-0.2227,0.4951-0.4951,0.5889-0.8174
				c0.0645-0.2109,0.0967-0.6123,0.0967-1.2041V19.4651z"/>
			<path style="fill:#FFFFFF;" d="M75.5658,23.9475H73.096v-9.334H75.39v1.3271c0.3926-0.627,0.7456-1.04,1.0591-1.2393
				s0.6694-0.2988,1.0679-0.2988c0.5625,0,1.1045,0.1553,1.626,0.4658l-0.7646,2.1533c-0.416-0.2695-0.8027-0.4043-1.1602-0.4043
				c-0.3457,0-0.6387,0.0957-0.8789,0.2852c-0.2402,0.1914-0.4292,0.5352-0.5669,1.0332s-0.2065,1.541-0.2065,3.1289V23.9475z"/>
			<path style="fill:#FFFFFF;" d="M82.0521,17.4612l-2.2412-0.4043c0.252-0.9023,0.6855-1.5703,1.3008-2.0039
				s1.5293-0.6504,2.7422-0.6504c1.1016,0,1.9219,0.1309,2.4609,0.3906c0.5391,0.2617,0.9185,0.5928,1.1382,0.9941
				s0.3296,1.1377,0.3296,2.21l-0.0264,2.8828c0,0.8203,0.0396,1.4258,0.1187,1.8154s0.2271,0.8066,0.4438,1.252h-2.4434
				c-0.0645-0.1641-0.1436-0.4072-0.2373-0.7295c-0.041-0.1465-0.0703-0.2432-0.0879-0.29
				c-0.4219,0.4102-0.873,0.7178-1.3535,0.9229s-0.9932,0.3076-1.5381,0.3076c-0.9609,0-1.7183-0.2607-2.272-0.7822
				s-0.8306-1.1807-0.8306-1.9775c0-0.5273,0.126-0.998,0.3779-1.4102c0.252-0.4141,0.605-0.7305,1.0591-0.9492
				c0.4541-0.2207,1.1089-0.4121,1.9644-0.5762c1.1543-0.2168,1.9541-0.4189,2.3994-0.6064v-0.2461
				c0-0.4746-0.1172-0.8135-0.3516-1.0146c-0.2344-0.2031-0.6768-0.3037-1.3271-0.3037c-0.4395,0-0.7822,0.0869-1.0283,0.2588
				C82.4036,16.7249,82.2044,17.0276,82.0521,17.4612z M85.3568,19.4651c-0.3164,0.1055-0.8174,0.2314-1.5029,0.3779
				s-1.1338,0.29-1.3447,0.4307c-0.3223,0.2285-0.4834,0.5186-0.4834,0.8701c0,0.3457,0.1289,0.6445,0.3867,0.8965
				s0.5859,0.3779,0.9844,0.3779c0.4453,0,0.8701-0.1465,1.2744-0.4395c0.2988-0.2227,0.4951-0.4951,0.5889-0.8174
				c0.0645-0.2109,0.0967-0.6123,0.0967-1.2041V19.4651z"/>
			<path style="fill:#FFFFFF;" d="M98.3558,17.3733l-2.4346,0.4395c-0.082-0.4863-0.2681-0.8525-0.5581-1.0986
				s-0.6665-0.3691-1.1294-0.3691c-0.6152,0-1.106,0.2129-1.4722,0.6377s-0.5493,1.1348-0.5493,2.1309
				c0,1.1074,0.186,1.8896,0.5581,2.3467s0.8716,0.6855,1.4985,0.6855c0.4688,0,0.8525-0.1328,1.1514-0.3994
				s0.5098-0.7256,0.6328-1.376l2.4258,0.4131c-0.252,1.1133-0.7354,1.9541-1.4502,2.5225s-1.6729,0.8525-2.874,0.8525
				c-1.3652,0-2.4536-0.4307-3.2651-1.292s-1.2173-2.0537-1.2173-3.5771c0-1.541,0.4072-2.7402,1.2217-3.5996
				c0.8145-0.8574,1.916-1.2871,3.3047-1.2871c1.1367,0,2.0405,0.2451,2.7114,0.7344S98.0628,16.3713,98.3558,17.3733z"/>
			<path style="fill:#FFFFFF;" d="M104.5081,14.6135v1.9688h-1.6875v3.7617c0,0.7617,0.0161,1.2061,0.0483,1.332
				s0.1055,0.2295,0.2197,0.3115s0.2534,0.123,0.4175,0.123c0.2285,0,0.5596-0.0791,0.9932-0.2373l0.2109,1.916
				c-0.5742,0.2461-1.2246,0.3691-1.9512,0.3691c-0.4453,0-0.8467-0.0742-1.2041-0.2246c-0.3574-0.1484-0.6196-0.3418-0.7866-0.5801
				c-0.167-0.2363-0.2827-0.5576-0.3472-0.9619c-0.0527-0.2871-0.0791-0.8672-0.0791-1.7402v-4.0693h-1.1338v-1.9688h1.1338V12.759
				l2.4785-1.4414v3.2959H104.5081z"/>
			<path style="fill:#FFFFFF;" d="M111.6273,20.9768l2.4609,0.4131c-0.3164,0.9023-0.8159,1.5898-1.4985,2.0615
				s-1.5366,0.707-2.562,0.707c-1.623,0-2.8242-0.5303-3.6035-1.5908c-0.6152-0.8496-0.9229-1.9219-0.9229-3.2168
				c0-1.5469,0.4043-2.7578,1.2129-3.6338s1.8311-1.3145,3.0674-1.3145c1.3887,0,2.4844,0.459,3.2871,1.375
				c0.8027,0.918,1.1865,2.3223,1.1514,4.2148h-6.1875c0.0176,0.7324,0.2168,1.3027,0.5977,1.709
				c0.3809,0.4082,0.8555,0.6113,1.4238,0.6113c0.3867,0,0.7119-0.1055,0.9756-0.3164S111.4925,21.4456,111.6273,20.9768z
				 M111.7679,18.4807c-0.0176-0.7148-0.2021-1.2578-0.5537-1.6309c-0.3516-0.3711-0.7793-0.5576-1.2832-0.5576
				c-0.5391,0-0.9844,0.1963-1.3359,0.5889s-0.5244,0.9258-0.5186,1.5996H111.7679z"/>
			<path style="fill:#FFFFFF;" d="M118.597,23.9475h-2.4697v-9.334h2.2939v1.3271c0.3926-0.627,0.7456-1.04,1.0591-1.2393
				s0.6694-0.2988,1.0679-0.2988c0.5625,0,1.1045,0.1553,1.626,0.4658l-0.7646,2.1533c-0.416-0.2695-0.8027-0.4043-1.1602-0.4043
				c-0.3457,0-0.6387,0.0957-0.8789,0.2852c-0.2402,0.1914-0.4292,0.5352-0.5669,1.0332s-0.2065,1.541-0.2065,3.1289V23.9475z"/>
			<path style="fill:#FFFFFF;" d="M123.0531,13.471l1.2129-2.6279h2.7686l-2.417,2.6279H123.0531z M123.2376,23.9475v-9.334h2.4697
				v9.334H123.2376z"/>
			<path style="fill:#FFFFFF;" d="M127.3685,21.2844l2.4785-0.3779c0.1055,0.4805,0.3193,0.8457,0.6416,1.0938
				c0.3223,0.25,0.7734,0.374,1.3535,0.374c0.6387,0,1.1191-0.1172,1.4414-0.3516c0.2168-0.1641,0.3252-0.3838,0.3252-0.6592
				c0-0.1875-0.0586-0.3428-0.1758-0.4658c-0.123-0.1172-0.3984-0.2256-0.8262-0.3252c-1.9922-0.4395-3.2549-0.8408-3.7881-1.2041
				c-0.7383-0.5039-1.1074-1.2041-1.1074-2.1006c0-0.8086,0.3193-1.4883,0.958-2.0391s1.6289-0.8262,2.9707-0.8262
				c1.2773,0,2.2266,0.208,2.8477,0.624s1.0488,1.0313,1.2832,1.8457l-2.3291,0.4307c-0.0996-0.3633-0.2886-0.6416-0.5669-0.835
				s-0.6753-0.29-1.1909-0.29c-0.6504,0-1.1162,0.0908-1.3975,0.2725c-0.1875,0.1289-0.2813,0.2959-0.2813,0.501
				c0,0.1758,0.082,0.3252,0.2461,0.4482c0.2227,0.1641,0.9917,0.3955,2.3071,0.6943s2.2339,0.665,2.7554,1.0986
				c0.5156,0.4395,0.7734,1.0518,0.7734,1.8369c0,0.8555-0.3574,1.5908-1.0723,2.2061s-1.7725,0.9229-3.1729,0.9229
				c-1.2715,0-2.2778-0.2578-3.019-0.7734S127.597,22.1692,127.3685,21.2844z"/>
			<path style="fill:#FFFFFF;" d="M142.5296,14.6135v1.9688h-1.6875v3.7617c0,0.7617,0.0161,1.2061,0.0483,1.332
				s0.1055,0.2295,0.2197,0.3115s0.2534,0.123,0.4175,0.123c0.2285,0,0.5596-0.0791,0.9932-0.2373l0.2109,1.916
				c-0.5742,0.2461-1.2246,0.3691-1.9512,0.3691c-0.4453,0-0.8467-0.0742-1.2041-0.2246c-0.3574-0.1484-0.6196-0.3418-0.7866-0.5801
				c-0.167-0.2363-0.2827-0.5576-0.3472-0.9619c-0.0527-0.2871-0.0791-0.8672-0.0791-1.7402v-4.0693h-1.1338v-1.9688h1.1338V12.759
				l2.4785-1.4414v3.2959H142.5296z"/>
			<path style="fill:#FFFFFF;" d="M144.2435,13.3479v-2.2852h2.4697v2.2852H144.2435z M144.2435,23.9475v-9.334h2.4697v9.334
				H144.2435z"/>
			<path style="fill:#FFFFFF;" d="M157.3831,17.3733l-2.4346,0.4395c-0.082-0.4863-0.2681-0.8525-0.5581-1.0986
				s-0.6665-0.3691-1.1294-0.3691c-0.6152,0-1.106,0.2129-1.4722,0.6377s-0.5493,1.1348-0.5493,2.1309
				c0,1.1074,0.186,1.8896,0.5581,2.3467s0.8716,0.6855,1.4985,0.6855c0.4688,0,0.8525-0.1328,1.1514-0.3994
				s0.5098-0.7256,0.6328-1.376l2.4258,0.4131c-0.252,1.1133-0.7354,1.9541-1.4502,2.5225s-1.6729,0.8525-2.874,0.8525
				c-1.3652,0-2.4536-0.4307-3.2651-1.292s-1.2173-2.0537-1.2173-3.5771c0-1.541,0.4072-2.7402,1.2217-3.5996
				c0.8145-0.8574,1.916-1.2871,3.3047-1.2871c1.1367,0,2.0405,0.2451,2.7114,0.7344S157.0902,16.3713,157.3831,17.3733z"/>
			<path style="fill:#FFFFFF;" d="M161.1009,17.4612l-2.2412-0.4043c0.252-0.9023,0.6855-1.5703,1.3008-2.0039
				s1.5293-0.6504,2.7422-0.6504c1.1016,0,1.9219,0.1309,2.4609,0.3906c0.5391,0.2617,0.9185,0.5928,1.1382,0.9941
				s0.3296,1.1377,0.3296,2.21l-0.0264,2.8828c0,0.8203,0.0396,1.4258,0.1187,1.8154s0.2271,0.8066,0.4438,1.252h-2.4434
				c-0.0645-0.1641-0.1436-0.4072-0.2373-0.7295c-0.041-0.1465-0.0703-0.2432-0.0879-0.29
				c-0.4219,0.4102-0.873,0.7178-1.3535,0.9229s-0.9932,0.3076-1.5381,0.3076c-0.9609,0-1.7183-0.2607-2.272-0.7822
				s-0.8306-1.1807-0.8306-1.9775c0-0.5273,0.126-0.998,0.3779-1.4102c0.252-0.4141,0.605-0.7305,1.0591-0.9492
				c0.4541-0.2207,1.1089-0.4121,1.9644-0.5762c1.1543-0.2168,1.9541-0.4189,2.3994-0.6064v-0.2461
				c0-0.4746-0.1172-0.8135-0.3516-1.0146c-0.2344-0.2031-0.6768-0.3037-1.3271-0.3037c-0.4395,0-0.7822,0.0869-1.0283,0.2588
				C161.4525,16.7249,161.2533,17.0276,161.1009,17.4612z M164.4056,19.4651c-0.3164,0.1055-0.8174,0.2314-1.5029,0.3779
				s-1.1338,0.29-1.3447,0.4307c-0.3223,0.2285-0.4834,0.5186-0.4834,0.8701c0,0.3457,0.1289,0.6445,0.3867,0.8965
				s0.5859,0.3779,0.9844,0.3779c0.4453,0,0.8701-0.1465,1.2744-0.4395c0.2988-0.2227,0.4951-0.4951,0.5889-0.8174
				c0.0645-0.2109,0.0967-0.6123,0.0967-1.2041V19.4651z"/>
			<path style="fill:#FFFFFF;" d="M168.3958,21.2844l2.4785-0.3779c0.1055,0.4805,0.3193,0.8457,0.6416,1.0938
				c0.3223,0.25,0.7734,0.374,1.3535,0.374c0.6387,0,1.1191-0.1172,1.4414-0.3516c0.2168-0.1641,0.3252-0.3838,0.3252-0.6592
				c0-0.1875-0.0586-0.3428-0.1758-0.4658c-0.123-0.1172-0.3984-0.2256-0.8262-0.3252c-1.9922-0.4395-3.2549-0.8408-3.7881-1.2041
				c-0.7383-0.5039-1.1074-1.2041-1.1074-2.1006c0-0.8086,0.3193-1.4883,0.958-2.0391s1.6289-0.8262,2.9707-0.8262
				c1.2773,0,2.2266,0.208,2.8477,0.624s1.0488,1.0313,1.2832,1.8457l-2.3291,0.4307c-0.0996-0.3633-0.2886-0.6416-0.5669-0.835
				s-0.6753-0.29-1.1909-0.29c-0.6504,0-1.1162,0.0908-1.3975,0.2725c-0.1875,0.1289-0.2813,0.2959-0.2813,0.501
				c0,0.1758,0.082,0.3252,0.2461,0.4482c0.2227,0.1641,0.9917,0.3955,2.3071,0.6943s2.2339,0.665,2.7554,1.0986
				c0.5156,0.4395,0.7734,1.0518,0.7734,1.8369c0,0.8555-0.3574,1.5908-1.0723,2.2061s-1.7725,0.9229-3.1729,0.9229
				c-1.2715,0-2.2778-0.2578-3.019-0.7734S168.6243,22.1692,168.3958,21.2844z"/>
		</g>
	</g>
	<g>
		<path style="fill:#F9CA35;" d="M29.7008,11.651c-0.1956-5.2234-4.4898-9.399-9.7608-9.399c-5.3967,0-9.7708,4.3747-9.7708,9.7709
			c1.0711,6.0949,4.0152,6.8415,5.6212,13.2128c3.4871,2.321,3.219,1.7849,8.8343,0.4574c0.8025-5.8639,5.0851-9.401,5.0851-13.6702
			C29.7154,11.8958,29.7105,11.7724,29.7008,11.651z"/>
		<g>
			<path style="fill:#E8AF2E;" d="M29.7098,12.0229c0.0056-0.1271,0.0007-0.2505-0.009-0.3719
				c-0.1924-5.1272-4.3344-9.2424-9.4724-9.392v24.4932c0.965-0.1608,2.2508-0.5517,4.3963-1.0591
				C25.4272,19.8292,29.7098,16.2921,29.7098,12.0229z"/>
		</g>
		<path style="fill:#A6A8AB;" d="M16.8501,28.1843v3.015c0,0.9265,0.6015,1.6787,1.3434,1.6787h4.0313
			c0.7408,0,1.3424-0.7522,1.3424-1.6787v-3.015H16.8501z"/>
		<g>
			<path style="fill:#D0D2D3;" d="M16.8501,28.1843v3.015c0,0.9265,0.6015,1.6787,1.3434,1.6787h1.9918v-4.6938H16.8501z"/>
			<path style="fill:#A6A8AB;" d="M23.5673,31.1993v-3.015h-3.382v4.6938h2.0396C22.9657,32.8781,23.5673,32.1258,23.5673,31.1993z"
				/>
		</g>
		<g>
			<path style="fill:none;stroke:#2B2B38;stroke-width:0.75;stroke-linecap:round;stroke-miterlimit:10;" d="M15.5239,13.8793
				c0,0,1.8517,4.2513,2.4113,5.829c0.5601,1.5765,0.5759,5.3426,0.5759,5.3426"/>
			<path style="fill:none;stroke:#2B2B38;stroke-width:0.75;stroke-linecap:round;stroke-miterlimit:10;" d="M25.0304,13.8793
				c0,0-1.8511,4.2513-2.4109,5.829c-0.5598,1.5765-0.5757,5.3426-0.5757,5.3426"/>
		</g>
		<path style="fill:#2B2B38;" d="M15.1764,24.4856v4.8888c0,0.9273,0.7519,1.6791,1.6775,1.6791h6.7086
			c0.9265,0,1.6787-0.7517,1.6787-1.6791v-4.8888H15.1764z"/>
		<g>
			
				<ellipse style="fill:none;stroke:#2B2B38;stroke-width:0.5;stroke-linecap:round;stroke-miterlimit:10;" cx="17.353" cy="15.4329" rx="0.9746" ry="1.279"/>
			
				<ellipse style="fill:none;stroke:#2B2B38;stroke-width:0.5;stroke-linecap:round;stroke-miterlimit:10;" cx="19.3023" cy="15.4329" rx="0.9749" ry="1.279"/>
			
				<ellipse style="fill:none;stroke:#2B2B38;stroke-width:0.5;stroke-linecap:round;stroke-miterlimit:10;" cx="21.252" cy="15.4329" rx="0.9748" ry="1.279"/>
			
				<ellipse style="fill:none;stroke:#2B2B38;stroke-width:0.5;stroke-linecap:round;stroke-miterlimit:10;" cx="23.2018" cy="15.4329" rx="0.9745" ry="1.279"/>
		</g>
		<path style="fill:#4B4B70;" d="M25.582,25.9593c0,0.1336-0.1029,0.2415-0.2297,0.2415H15.0174
			c-0.1267,0-0.2295-0.1079-0.2295-0.2415V25.54c0-0.1332,0.1028-0.2414,0.2295-0.2414h10.3348
			c0.1269,0,0.2297,0.1081,0.2297,0.2414V25.9593z"/>
		<path style="fill:#4B4B70;" d="M25.582,27.4021c0,0.1332-0.1029,0.2417-0.2297,0.2417H15.0174
			c-0.1267,0-0.2295-0.1085-0.2295-0.2417v-0.4191c0-0.1332,0.1028-0.2416,0.2295-0.2416h10.3348
			c0.1269,0,0.2297,0.1084,0.2297,0.2416V27.4021z"/>
		<path style="fill:#4B4B70;" d="M25.6054,28.845c0,0.1336-0.1026,0.2414-0.2297,0.2414H15.0408
			c-0.1265,0-0.229-0.1078-0.229-0.2414v-0.4191c0-0.1334,0.1025-0.2415,0.229-0.2415h10.3348c0.1271,0,0.2297,0.1081,0.2297,0.2415
			V28.845z"/>
	</g>
</g>
</svg>
