<?xml version="1.0" encoding="utf-8"?>
<!-- Generator: Adobe Illustrator 21.0.2, SVG Export Plug-In . SVG Version: 6.00 Build 0)  -->
<svg version="1.1" id="Capa_1" xmlns="http://www.w3.org/2000/svg" xmlns:xlink="http://www.w3.org/1999/xlink" x="0px" y="0px"
	 viewBox="0 0 248.0399 296.9896" style="enable-background:new 0 0 248.0399 296.9896;" xml:space="preserve">
<g>
	<g>
		<g>
			<g id="XMLID_4646_">
				<g>
					<polygon style="fill-rule:evenodd;clip-rule:evenodd;fill:#A8A8A8;" points="233.6108,58.1387 247.6374,40.3532 
						237.2122,20.1843 233.6108,20.1868 					"/>
				</g>
			</g>
			<rect id="XMLID_4644_" y="0" style="fill-rule:evenodd;clip-rule:evenodd;fill:#FFFFFF;" width="247.6374" height="40.3532"/>
			<g>
				<g>
					<path d="M58.3033,22.57v-2.1709h5.6074v5.1328c-0.5449,0.5273-1.3345,0.9922-2.3687,1.3926
						c-1.0342,0.4014-2.0815,0.6025-3.1421,0.6025c-1.3477,0-2.5225-0.2822-3.5244-0.8486c-1.002-0.5645-1.7549-1.373-2.2588-2.4258
						c-0.5039-1.0508-0.7559-2.1953-0.7559-3.4316c0-1.3418,0.2813-2.5342,0.8438-3.5771s1.3857-1.8428,2.4697-2.3994
						c0.8262-0.4277,1.8545-0.6416,3.085-0.6416c1.5996,0,2.8491,0.3359,3.7485,1.0068s1.478,1.5977,1.7358,2.7813l-2.584,0.4834
						c-0.1816-0.6328-0.5229-1.1318-1.0239-1.499c-0.501-0.3652-1.1265-0.5488-1.8765-0.5488c-1.1367,0-2.0405,0.3604-2.7114,1.0811
						s-1.0063,1.79-1.0063,3.208c0,1.5293,0.3398,2.6758,1.0195,3.4414c0.6797,0.7637,1.5703,1.1465,2.6719,1.1465
						c0.5449,0,1.0913-0.1064,1.6392-0.3203s1.0181-0.4736,1.4106-0.7783V22.57H58.3033z"/>
					<path d="M71.6978,24.3366l2.4609,0.4131c-0.3164,0.9023-0.8159,1.5898-1.4985,2.0615s-1.5366,0.707-2.562,0.707
						c-1.623,0-2.8242-0.5303-3.6035-1.5908c-0.6152-0.8496-0.9229-1.9219-0.9229-3.2168c0-1.5469,0.4043-2.7578,1.2129-3.6338
						s1.8311-1.3145,3.0674-1.3145c1.3887,0,2.4844,0.459,3.2871,1.375c0.8027,0.918,1.1865,2.3223,1.1514,4.2148h-6.1875
						c0.0176,0.7324,0.2168,1.3027,0.5977,1.709c0.3809,0.4082,0.8555,0.6113,1.4238,0.6113c0.3867,0,0.7119-0.1055,0.9756-0.3164
						S71.563,24.8053,71.6978,24.3366z M71.8384,21.8405c-0.0176-0.7148-0.2021-1.2578-0.5537-1.6309
						c-0.3516-0.3711-0.7793-0.5576-1.2832-0.5576c-0.5391,0-0.9844,0.1963-1.3359,0.5889s-0.5244,0.9258-0.5186,1.5996H71.8384z"/>
					<path d="M84.7935,27.3073h-2.4697v-4.7637c0-1.0078-0.0527-1.6592-0.1582-1.9551s-0.2769-0.5264-0.5142-0.6904
						s-0.5229-0.2461-0.8569-0.2461c-0.4277,0-0.8115,0.1172-1.1514,0.3516s-0.5728,0.5449-0.6987,0.9316
						s-0.189,1.1016-0.189,2.1445v4.2275h-2.4697v-9.334h2.2939v1.3711c0.8145-1.0547,1.8398-1.582,3.0762-1.582
						c0.5449,0,1.043,0.0986,1.4941,0.2949s0.7925,0.4463,1.0239,0.751s0.3926,0.6504,0.4834,1.0371s0.1362,0.9404,0.1362,1.6611
						V27.3073z"/>
					<path d="M92.7037,24.3366l2.4609,0.4131c-0.3164,0.9023-0.8159,1.5898-1.4985,2.0615s-1.5366,0.707-2.562,0.707
						c-1.623,0-2.8242-0.5303-3.6035-1.5908c-0.6152-0.8496-0.9229-1.9219-0.9229-3.2168c0-1.5469,0.4043-2.7578,1.2129-3.6338
						s1.8311-1.3145,3.0674-1.3145c1.3887,0,2.4844,0.459,3.2871,1.375c0.8027,0.918,1.1865,2.3223,1.1514,4.2148h-6.1875
						c0.0176,0.7324,0.2168,1.3027,0.5977,1.709c0.3809,0.4082,0.8555,0.6113,1.4238,0.6113c0.3867,0,0.7119-0.1055,0.9756-0.3164
						S92.5689,24.8053,92.7037,24.3366z M92.8443,21.8405c-0.0176-0.7148-0.2021-1.2578-0.5537-1.6309
						c-0.3516-0.3711-0.7793-0.5576-1.2832-0.5576c-0.5391,0-0.9844,0.1963-1.3359,0.5889s-0.5244,0.9258-0.5186,1.5996H92.8443z"/>
					<path d="M99.6734,27.3073h-2.4697v-9.334h2.2939v1.3271c0.3926-0.627,0.7456-1.04,1.0591-1.2393s0.6694-0.2988,1.0679-0.2988
						c0.5625,0,1.1045,0.1553,1.626,0.4658l-0.7646,2.1533c-0.416-0.2695-0.8027-0.4043-1.1602-0.4043
						c-0.3457,0-0.6387,0.0957-0.8789,0.2852c-0.2402,0.1914-0.4292,0.5352-0.5669,1.0332s-0.2065,1.541-0.2065,3.1289V27.3073z"/>
					<path d="M106.1597,20.821l-2.2412-0.4043c0.252-0.9023,0.6855-1.5703,1.3008-2.0039s1.5293-0.6504,2.7422-0.6504
						c1.1016,0,1.9219,0.1309,2.4609,0.3906c0.5391,0.2617,0.9185,0.5928,1.1382,0.9941s0.3296,1.1377,0.3296,2.21l-0.0264,2.8828
						c0,0.8203,0.0396,1.4258,0.1187,1.8154s0.2271,0.8066,0.4438,1.252h-2.4434c-0.0645-0.1641-0.1436-0.4072-0.2373-0.7295
						c-0.041-0.1465-0.0703-0.2432-0.0879-0.29c-0.4219,0.4102-0.873,0.7178-1.3535,0.9229s-0.9932,0.3076-1.5381,0.3076
						c-0.9609,0-1.7183-0.2607-2.272-0.7822s-0.8306-1.1807-0.8306-1.9775c0-0.5273,0.126-0.998,0.3779-1.4102
						c0.252-0.4141,0.605-0.7305,1.0591-0.9492c0.4541-0.2207,1.1089-0.4121,1.9644-0.5762
						c1.1543-0.2168,1.9541-0.4189,2.3994-0.6064v-0.2461c0-0.4746-0.1172-0.8135-0.3516-1.0146
						c-0.2344-0.2031-0.6768-0.3037-1.3271-0.3037c-0.4395,0-0.7822,0.0869-1.0283,0.2588
						C106.5113,20.0846,106.312,20.3874,106.1597,20.821z M109.4644,22.8249c-0.3164,0.1055-0.8174,0.2314-1.5029,0.3779
						s-1.1338,0.29-1.3447,0.4307c-0.3223,0.2285-0.4834,0.5186-0.4834,0.8701c0,0.3457,0.1289,0.6445,0.3867,0.8965
						s0.5859,0.3779,0.9844,0.3779c0.4453,0,0.8701-0.1465,1.2744-0.4395c0.2988-0.2227,0.4951-0.4951,0.5889-0.8174
						c0.0645-0.2109,0.0967-0.6123,0.0967-1.2041V22.8249z"/>
					<path d="M114.3247,27.3073V14.4225h2.4697v12.8848H114.3247z"/>
					<path d="M119.3257,16.7077v-2.2852h2.4697v2.2852H119.3257z M119.3257,27.3073v-9.334h2.4697v9.334H119.3257z"/>
					<path d="M132.8873,27.3073h-2.2939v-1.3711c-0.3809,0.5332-0.8306,0.9307-1.3491,1.1914
						c-0.5186,0.2598-1.0415,0.3906-1.5689,0.3906c-1.0723,0-1.9907-0.4316-2.7554-1.2969c-0.7646-0.8633-1.147-2.0693-1.147-3.6162
						c0-1.582,0.3721-2.7842,1.1162-3.6084c0.7441-0.8223,1.6846-1.2344,2.8213-1.2344c1.043,0,1.9453,0.4336,2.707,1.3008v-4.6406
						h2.4697V27.3073z M126.2954,22.4382c0,0.9961,0.1377,1.7168,0.4131,2.1621c0.3984,0.6445,0.9551,0.9668,1.6699,0.9668
						c0.5684,0,1.0518-0.2422,1.4502-0.7246c0.3984-0.4844,0.5977-1.2061,0.5977-2.167c0-1.0723-0.1934-1.8438-0.5801-2.3154
						s-0.8818-0.708-1.4854-0.708c-0.5859,0-1.0767,0.2334-1.4722,0.6982C126.4932,20.8171,126.2954,21.5124,126.2954,22.4382z"/>
					<path d="M137.1675,20.821l-2.2412-0.4043c0.252-0.9023,0.6855-1.5703,1.3008-2.0039s1.5293-0.6504,2.7422-0.6504
						c1.1016,0,1.9219,0.1309,2.4609,0.3906c0.5391,0.2617,0.9185,0.5928,1.1382,0.9941s0.3296,1.1377,0.3296,2.21l-0.0264,2.8828
						c0,0.8203,0.0396,1.4258,0.1187,1.8154s0.2271,0.8066,0.4438,1.252h-2.4434c-0.0645-0.1641-0.1436-0.4072-0.2373-0.7295
						c-0.041-0.1465-0.0703-0.2432-0.0879-0.29c-0.4219,0.4102-0.873,0.7178-1.3535,0.9229s-0.9932,0.3076-1.5381,0.3076
						c-0.9609,0-1.7183-0.2607-2.272-0.7822s-0.8306-1.1807-0.8306-1.9775c0-0.5273,0.126-0.998,0.3779-1.4102
						c0.252-0.4141,0.605-0.7305,1.0591-0.9492c0.4541-0.2207,1.1089-0.4121,1.9644-0.5762
						c1.1543-0.2168,1.9541-0.4189,2.3994-0.6064v-0.2461c0-0.4746-0.1172-0.8135-0.3516-1.0146
						c-0.2344-0.2031-0.6768-0.3037-1.3271-0.3037c-0.4395,0-0.7822,0.0869-1.0283,0.2588
						C137.5191,20.0846,137.3199,20.3874,137.1675,20.821z M140.4722,22.8249c-0.3164,0.1055-0.8174,0.2314-1.5029,0.3779
						s-1.1338,0.29-1.3447,0.4307c-0.3223,0.2285-0.4834,0.5186-0.4834,0.8701c0,0.3457,0.1289,0.6445,0.3867,0.8965
						s0.5859,0.3779,0.9844,0.3779c0.4453,0,0.8701-0.1465,1.2744-0.4395c0.2988-0.2227,0.4951-0.4951,0.5889-0.8174
						c0.0645-0.2109,0.0967-0.6123,0.0967-1.2041V22.8249z"/>
					<path d="M153.8931,27.3073h-2.2939v-1.3711c-0.3809,0.5332-0.8306,0.9307-1.3491,1.1914
						c-0.5186,0.2598-1.0415,0.3906-1.5688,0.3906c-1.0723,0-1.9907-0.4316-2.7554-1.2969c-0.7646-0.8633-1.147-2.0693-1.147-3.6162
						c0-1.582,0.3721-2.7842,1.1162-3.6084c0.7441-0.8223,1.6846-1.2344,2.8213-1.2344c1.043,0,1.9453,0.4336,2.707,1.3008v-4.6406
						h2.4697V27.3073z M147.3013,22.4382c0,0.9961,0.1377,1.7168,0.4131,2.1621c0.3984,0.6445,0.9551,0.9668,1.6699,0.9668
						c0.5684,0,1.0518-0.2422,1.4502-0.7246c0.3984-0.4844,0.5977-1.2061,0.5977-2.167c0-1.0723-0.1934-1.8438-0.5801-2.3154
						s-0.8818-0.708-1.4854-0.708c-0.5859,0-1.0767,0.2334-1.4722,0.6982C147.4991,20.8171,147.3013,21.5124,147.3013,22.4382z"/>
					<path d="M161.733,24.3366l2.4609,0.4131c-0.3164,0.9023-0.8159,1.5898-1.4985,2.0615s-1.5366,0.707-2.562,0.707
						c-1.623,0-2.8242-0.5303-3.6035-1.5908c-0.6152-0.8496-0.9229-1.9219-0.9229-3.2168c0-1.5469,0.4043-2.7578,1.2129-3.6338
						s1.8311-1.3145,3.0674-1.3145c1.3887,0,2.4844,0.459,3.2871,1.375c0.8027,0.918,1.1865,2.3223,1.1514,4.2148h-6.1875
						c0.0176,0.7324,0.2168,1.3027,0.5977,1.709c0.3809,0.4082,0.8555,0.6113,1.4238,0.6113c0.3867,0,0.7119-0.1055,0.9756-0.3164
						S161.5982,24.8053,161.733,24.3366z M161.8736,21.8405c-0.0176-0.7148-0.2021-1.2578-0.5537-1.6309
						c-0.3516-0.3711-0.7793-0.5576-1.2832-0.5576c-0.5391,0-0.9844,0.1963-1.3359,0.5889s-0.5244,0.9258-0.5186,1.5996H161.8736z"
						/>
					<path d="M165.4683,24.6442l2.4785-0.3779c0.1055,0.4805,0.3193,0.8457,0.6416,1.0938c0.3223,0.25,0.7734,0.374,1.3535,0.374
						c0.6387,0,1.1191-0.1172,1.4414-0.3516c0.2168-0.1641,0.3252-0.3838,0.3252-0.6592c0-0.1875-0.0586-0.3428-0.1758-0.4658
						c-0.123-0.1172-0.3984-0.2256-0.8262-0.3252c-1.9922-0.4395-3.2549-0.8408-3.7881-1.2041
						c-0.7383-0.5039-1.1074-1.2041-1.1074-2.1006c0-0.8086,0.3193-1.4883,0.958-2.0391s1.6289-0.8262,2.9707-0.8262
						c1.2773,0,2.2266,0.208,2.8477,0.624s1.0488,1.0313,1.2832,1.8457l-2.3291,0.4307c-0.0996-0.3633-0.2886-0.6416-0.5669-0.835
						s-0.6753-0.29-1.1909-0.29c-0.6504,0-1.1162,0.0908-1.3975,0.2725c-0.1875,0.1289-0.2813,0.2959-0.2813,0.501
						c0,0.1758,0.082,0.3252,0.2461,0.4482c0.2227,0.1641,0.9917,0.3955,2.3071,0.6943s2.2339,0.665,2.7554,1.0986
						c0.5156,0.4395,0.7734,1.0518,0.7734,1.8369c0,0.8555-0.3574,1.5908-1.0723,2.2061s-1.7725,0.9229-3.1729,0.9229
						c-1.2715,0-2.2778-0.2578-3.019-0.7734S165.6968,25.529,165.4683,24.6442z"/>
				</g>
			</g>
			<polygon id="XMLID_4640_" style="opacity:0.5;fill:#2C6882;" points="233.6108,47.5236 0,40.3532 233.611,40.3532 			"/>
		</g>
		<g>
			<g id="XMLID_4636_">
				<g>
					<polygon style="fill-rule:evenodd;clip-rule:evenodd;fill:#A8A8A8;" points="233.6108,194.4441 247.6374,176.6586 
						237.2122,156.4897 233.6108,156.4922 					"/>
				</g>
			</g>
			
				<rect id="XMLID_4565_" y="136.3054" style="fill-rule:evenodd;clip-rule:evenodd;fill:#FFFFFF;" width="247.6374" height="40.3532"/>
			<g>
				<g>
					<path d="M60.5533,158.1257l2.5225,0.7998c-0.3867,1.4063-1.0298,2.4512-1.9292,3.1328
						c-0.8994,0.6836-2.0405,1.0244-3.4233,1.0244c-1.7109,0-3.1172-0.585-4.2188-1.7529
						c-1.1016-1.1699-1.6523-2.7676-1.6523-4.7949c0-2.1445,0.5537-3.8105,1.6611-4.9961c1.1074-1.1875,2.5635-1.7803,4.3682-1.7803
						c1.5762,0,2.8564,0.4658,3.8408,1.3975c0.5859,0.5508,1.0254,1.3418,1.3184,2.373l-2.5752,0.6152
						c-0.1523-0.668-0.4702-1.1953-0.9536-1.582s-1.0708-0.5801-1.7622-0.5801c-0.9551,0-1.73,0.3428-2.3247,1.0283
						s-0.8921,1.7959-0.8921,3.3311c0,1.6289,0.293,2.7891,0.8789,3.4805s1.3477,1.0371,2.2852,1.0371
						c0.6914,0,1.2861-0.2197,1.7842-0.6592S60.3365,159.069,60.5533,158.1257z"/>
					<path d="M67.1363,156.3766l-2.2412-0.4043c0.252-0.9023,0.6855-1.5703,1.3008-2.0039s1.5293-0.6504,2.7422-0.6504
						c1.1016,0,1.9219,0.1309,2.4609,0.3906c0.5391,0.2617,0.9185,0.5928,1.1382,0.9941s0.3296,1.1377,0.3296,2.21l-0.0264,2.8828
						c0,0.8203,0.0396,1.4258,0.1187,1.8154s0.2271,0.8066,0.4438,1.252h-2.4434c-0.0645-0.1641-0.1436-0.4072-0.2373-0.7295
						c-0.041-0.1465-0.0703-0.2432-0.0879-0.29c-0.4219,0.4102-0.873,0.7178-1.3535,0.9229s-0.9932,0.3076-1.5381,0.3076
						c-0.9609,0-1.7183-0.2607-2.272-0.7822s-0.8306-1.1807-0.8306-1.9775c0-0.5273,0.126-0.998,0.3779-1.4102
						c0.252-0.4141,0.605-0.7305,1.0591-0.9492c0.4541-0.2207,1.1089-0.4121,1.9644-0.5762
						c1.1543-0.2168,1.9541-0.4189,2.3994-0.6064v-0.2461c0-0.4746-0.1172-0.8135-0.3516-1.0146
						c-0.2344-0.2031-0.6768-0.3037-1.3271-0.3037c-0.4395,0-0.7822,0.0869-1.0283,0.2588
						C67.4878,155.6403,67.2886,155.943,67.1363,156.3766z M70.441,158.3805c-0.3164,0.1055-0.8174,0.2314-1.5029,0.3779
						s-1.1338,0.29-1.3447,0.4307c-0.3223,0.2285-0.4834,0.5186-0.4834,0.8701c0,0.3457,0.1289,0.6445,0.3867,0.8965
						s0.5859,0.3779,0.9844,0.3779c0.4453,0,0.8701-0.1465,1.2744-0.4395c0.2988-0.2227,0.4951-0.4951,0.5889-0.8174
						c0.0645-0.2109,0.0967-0.6123,0.0967-1.2041V158.3805z"/>
					<path d="M77.6656,162.863h-2.4697v-9.334h2.2939v1.3271c0.3926-0.627,0.7456-1.04,1.0591-1.2393s0.6694-0.2988,1.0679-0.2988
						c0.5625,0,1.1045,0.1553,1.626,0.4658l-0.7646,2.1533c-0.416-0.2695-0.8027-0.4043-1.1602-0.4043
						c-0.3457,0-0.6387,0.0957-0.8789,0.2852c-0.2402,0.1914-0.4292,0.5352-0.5669,1.0332s-0.2065,1.541-0.2065,3.1289V162.863z"/>
					<path d="M84.1519,156.3766l-2.2412-0.4043c0.252-0.9023,0.6855-1.5703,1.3008-2.0039s1.5293-0.6504,2.7422-0.6504
						c1.1016,0,1.9219,0.1309,2.4609,0.3906c0.5391,0.2617,0.9185,0.5928,1.1382,0.9941s0.3296,1.1377,0.3296,2.21l-0.0264,2.8828
						c0,0.8203,0.0396,1.4258,0.1187,1.8154s0.2271,0.8066,0.4438,1.252h-2.4434c-0.0645-0.1641-0.1436-0.4072-0.2373-0.7295
						c-0.041-0.1465-0.0703-0.2432-0.0879-0.29c-0.4219,0.4102-0.873,0.7178-1.3535,0.9229s-0.9932,0.3076-1.5381,0.3076
						c-0.9609,0-1.7183-0.2607-2.272-0.7822s-0.8306-1.1807-0.8306-1.9775c0-0.5273,0.126-0.998,0.3779-1.4102
						c0.252-0.4141,0.605-0.7305,1.0591-0.9492c0.4541-0.2207,1.1089-0.4121,1.9644-0.5762
						c1.1543-0.2168,1.9541-0.4189,2.3994-0.6064v-0.2461c0-0.4746-0.1172-0.8135-0.3516-1.0146
						c-0.2344-0.2031-0.6768-0.3037-1.3271-0.3037c-0.4395,0-0.7822,0.0869-1.0283,0.2588
						C84.5035,155.6403,84.3042,155.943,84.1519,156.3766z M87.4566,158.3805c-0.3164,0.1055-0.8174,0.2314-1.5029,0.3779
						s-1.1338,0.29-1.3447,0.4307c-0.3223,0.2285-0.4834,0.5186-0.4834,0.8701c0,0.3457,0.1289,0.6445,0.3867,0.8965
						s0.5859,0.3779,0.9844,0.3779c0.4453,0,0.8701-0.1465,1.2744-0.4395c0.2988-0.2227,0.4951-0.4951,0.5889-0.8174
						c0.0645-0.2109,0.0967-0.6123,0.0967-1.2041V158.3805z"/>
					<path d="M100.4556,156.2887l-2.4346,0.4395c-0.082-0.4863-0.2681-0.8525-0.5581-1.0986s-0.6665-0.3691-1.1294-0.3691
						c-0.6152,0-1.106,0.2129-1.4722,0.6377s-0.5493,1.1348-0.5493,2.1309c0,1.1074,0.186,1.8896,0.5581,2.3467
						s0.8716,0.6855,1.4985,0.6855c0.4688,0,0.8525-0.1328,1.1514-0.3994s0.5098-0.7256,0.6328-1.376l2.4258,0.4131
						c-0.252,1.1133-0.7354,1.9541-1.4502,2.5225s-1.6729,0.8525-2.874,0.8525c-1.3652,0-2.4536-0.4307-3.2651-1.292
						s-1.2173-2.0537-1.2173-3.5771c0-1.541,0.4072-2.7402,1.2217-3.5996c0.8145-0.8574,1.916-1.2871,3.3047-1.2871
						c1.1367,0,2.0405,0.2451,2.7114,0.7344S100.1626,155.2868,100.4556,156.2887z"/>
					<path d="M106.6079,153.529v1.9688h-1.6875v3.7617c0,0.7617,0.0161,1.2061,0.0483,1.332s0.1055,0.2295,0.2197,0.3115
						s0.2534,0.123,0.4175,0.123c0.2285,0,0.5596-0.0791,0.9932-0.2373l0.2109,1.916c-0.5742,0.2461-1.2246,0.3691-1.9512,0.3691
						c-0.4453,0-0.8467-0.0742-1.2041-0.2246c-0.3574-0.1484-0.6196-0.3418-0.7866-0.5801
						c-0.167-0.2363-0.2827-0.5576-0.3472-0.9619c-0.0527-0.2871-0.0791-0.8672-0.0791-1.7402v-4.0693h-1.1338v-1.9688h1.1338
						v-1.8545l2.4785-1.4414v3.2959H106.6079z"/>
					<path d="M113.7271,159.8923l2.4609,0.4131c-0.3164,0.9023-0.8159,1.5898-1.4985,2.0615s-1.5366,0.707-2.562,0.707
						c-1.623,0-2.8242-0.5303-3.6035-1.5908c-0.6152-0.8496-0.9229-1.9219-0.9229-3.2168c0-1.5469,0.4043-2.7578,1.2129-3.6338
						s1.8311-1.3145,3.0674-1.3145c1.3887,0,2.4844,0.459,3.2871,1.375c0.8027,0.918,1.1865,2.3223,1.1514,4.2148h-6.1875
						c0.0176,0.7324,0.2168,1.3027,0.5977,1.709c0.3809,0.4082,0.8555,0.6113,1.4238,0.6113c0.3867,0,0.7119-0.1055,0.9756-0.3164
						S113.5923,160.361,113.7271,159.8923z M113.8677,157.3962c-0.0176-0.7148-0.2021-1.2578-0.5537-1.6309
						c-0.3516-0.3711-0.7793-0.5576-1.2832-0.5576c-0.5391,0-0.9844,0.1963-1.3359,0.5889s-0.5244,0.9258-0.5186,1.5996H113.8677z"
						/>
					<path d="M120.6968,162.863h-2.4697v-9.334h2.2939v1.3271c0.3926-0.627,0.7456-1.04,1.0591-1.2393s0.6694-0.2988,1.0679-0.2988
						c0.5625,0,1.1045,0.1553,1.626,0.4658l-0.7646,2.1533c-0.416-0.2695-0.8027-0.4043-1.1602-0.4043
						c-0.3457,0-0.6387,0.0957-0.8789,0.2852c-0.2402,0.1914-0.4292,0.5352-0.5669,1.0332s-0.2065,1.541-0.2065,3.1289V162.863z"/>
					<path d="M125.1529,152.3864l1.2129-2.6279h2.7686l-2.417,2.6279H125.1529z M125.3374,162.863v-9.334h2.4697v9.334H125.3374z"/>
					<path d="M129.4683,160.1999l2.4785-0.3779c0.1055,0.4805,0.3193,0.8457,0.6416,1.0938c0.3223,0.25,0.7734,0.374,1.3535,0.374
						c0.6387,0,1.1191-0.1172,1.4414-0.3516c0.2168-0.1641,0.3252-0.3838,0.3252-0.6592c0-0.1875-0.0586-0.3428-0.1758-0.4658
						c-0.123-0.1172-0.3984-0.2256-0.8262-0.3252c-1.9922-0.4395-3.2549-0.8408-3.7881-1.2041
						c-0.7383-0.5039-1.1074-1.2041-1.1074-2.1006c0-0.8086,0.3193-1.4883,0.958-2.0391s1.6289-0.8262,2.9707-0.8262
						c1.2773,0,2.2266,0.208,2.8477,0.624s1.0488,1.0313,1.2832,1.8457l-2.3291,0.4307c-0.0996-0.3633-0.2886-0.6416-0.5669-0.835
						s-0.6753-0.29-1.1909-0.29c-0.6504,0-1.1162,0.0908-1.3975,0.2725c-0.1875,0.1289-0.2813,0.2959-0.2813,0.501
						c0,0.1758,0.082,0.3252,0.2461,0.4482c0.2227,0.1641,0.9917,0.3955,2.3071,0.6943s2.2339,0.665,2.7554,1.0986
						c0.5156,0.4395,0.7734,1.0518,0.7734,1.8369c0,0.8555-0.3574,1.5908-1.0723,2.2061s-1.7725,0.9229-3.1729,0.9229
						c-1.2715,0-2.2778-0.2578-3.019-0.7734S129.6968,161.0846,129.4683,160.1999z"/>
					<path d="M144.6294,153.529v1.9688h-1.6875v3.7617c0,0.7617,0.0161,1.2061,0.0483,1.332s0.1055,0.2295,0.2197,0.3115
						s0.2534,0.123,0.4175,0.123c0.2285,0,0.5596-0.0791,0.9932-0.2373l0.2109,1.916c-0.5742,0.2461-1.2246,0.3691-1.9512,0.3691
						c-0.4453,0-0.8467-0.0742-1.2041-0.2246c-0.3574-0.1484-0.6196-0.3418-0.7866-0.5801
						c-0.167-0.2363-0.2827-0.5576-0.3472-0.9619c-0.0527-0.2871-0.0791-0.8672-0.0791-1.7402v-4.0693h-1.1338v-1.9688h1.1338
						v-1.8545l2.4785-1.4414v3.2959H144.6294z"/>
					<path d="M146.3433,152.2634v-2.2852h2.4697v2.2852H146.3433z M146.3433,162.863v-9.334h2.4697v9.334H146.3433z"/>
					<path d="M159.483,156.2887l-2.4346,0.4395c-0.082-0.4863-0.2681-0.8525-0.5581-1.0986s-0.6665-0.3691-1.1294-0.3691
						c-0.6152,0-1.106,0.2129-1.4722,0.6377s-0.5493,1.1348-0.5493,2.1309c0,1.1074,0.186,1.8896,0.5581,2.3467
						s0.8716,0.6855,1.4985,0.6855c0.4688,0,0.8525-0.1328,1.1514-0.3994s0.5098-0.7256,0.6328-1.376l2.4258,0.4131
						c-0.252,1.1133-0.7354,1.9541-1.4502,2.5225s-1.6729,0.8525-2.874,0.8525c-1.3652,0-2.4536-0.4307-3.2651-1.292
						s-1.2173-2.0537-1.2173-3.5771c0-1.541,0.4072-2.7402,1.2217-3.5996c0.8145-0.8574,1.916-1.2871,3.3047-1.2871
						c1.1367,0,2.0405,0.2451,2.7114,0.7344S159.19,155.2868,159.483,156.2887z"/>
					<path d="M163.2007,156.3766l-2.2412-0.4043c0.252-0.9023,0.6855-1.5703,1.3008-2.0039s1.5293-0.6504,2.7422-0.6504
						c1.1016,0,1.9219,0.1309,2.4609,0.3906c0.5391,0.2617,0.9185,0.5928,1.1382,0.9941s0.3296,1.1377,0.3296,2.21l-0.0264,2.8828
						c0,0.8203,0.0396,1.4258,0.1187,1.8154s0.2271,0.8066,0.4438,1.252h-2.4434c-0.0645-0.1641-0.1436-0.4072-0.2373-0.7295
						c-0.041-0.1465-0.0703-0.2432-0.0879-0.29c-0.4219,0.4102-0.873,0.7178-1.3535,0.9229s-0.9932,0.3076-1.5381,0.3076
						c-0.9609,0-1.7183-0.2607-2.272-0.7822s-0.8306-1.1807-0.8306-1.9775c0-0.5273,0.126-0.998,0.3779-1.4102
						c0.252-0.4141,0.605-0.7305,1.0591-0.9492c0.4541-0.2207,1.1089-0.4121,1.9644-0.5762
						c1.1543-0.2168,1.9541-0.4189,2.3994-0.6064v-0.2461c0-0.4746-0.1172-0.8135-0.3516-1.0146
						c-0.2344-0.2031-0.6768-0.3037-1.3271-0.3037c-0.4395,0-0.7822,0.0869-1.0283,0.2588
						C163.5523,155.6403,163.3531,155.943,163.2007,156.3766z M166.5054,158.3805c-0.3164,0.1055-0.8174,0.2314-1.5029,0.3779
						s-1.1338,0.29-1.3447,0.4307c-0.3223,0.2285-0.4834,0.5186-0.4834,0.8701c0,0.3457,0.1289,0.6445,0.3867,0.8965
						s0.5859,0.3779,0.9844,0.3779c0.4453,0,0.8701-0.1465,1.2744-0.4395c0.2988-0.2227,0.4951-0.4951,0.5889-0.8174
						c0.0645-0.2109,0.0967-0.6123,0.0967-1.2041V158.3805z"/>
					<path d="M170.4957,160.1999l2.4785-0.3779c0.1055,0.4805,0.3193,0.8457,0.6416,1.0938c0.3223,0.25,0.7734,0.374,1.3535,0.374
						c0.6387,0,1.1191-0.1172,1.4414-0.3516c0.2168-0.1641,0.3252-0.3838,0.3252-0.6592c0-0.1875-0.0586-0.3428-0.1758-0.4658
						c-0.123-0.1172-0.3984-0.2256-0.8262-0.3252c-1.9922-0.4395-3.2549-0.8408-3.7881-1.2041
						c-0.7383-0.5039-1.1074-1.2041-1.1074-2.1006c0-0.8086,0.3193-1.4883,0.958-2.0391s1.6289-0.8262,2.9707-0.8262
						c1.2773,0,2.2266,0.208,2.8477,0.624s1.0488,1.0313,1.2832,1.8457l-2.3291,0.4307c-0.0996-0.3633-0.2886-0.6416-0.5669-0.835
						s-0.6753-0.29-1.1909-0.29c-0.6504,0-1.1162,0.0908-1.3975,0.2725c-0.1875,0.1289-0.2813,0.2959-0.2813,0.501
						c0,0.1758,0.082,0.3252,0.2461,0.4482c0.2227,0.1641,0.9917,0.3955,2.3071,0.6943s2.2339,0.665,2.7554,1.0986
						c0.5156,0.4395,0.7734,1.0518,0.7734,1.8369c0,0.8555-0.3574,1.5908-1.0723,2.2061s-1.7725,0.9229-3.1729,0.9229
						c-1.2715,0-2.2778-0.2578-3.019-0.7734S170.7242,161.0846,170.4957,160.1999z"/>
				</g>
			</g>
			<polygon id="XMLID_4507_" style="opacity:0.5;fill:#2C6882;" points="233.6108,183.829 0,176.6586 233.611,176.6586 			"/>
		</g>
		<g>
			<g id="XMLID_4474_">
				<g>
					<polygon style="fill-rule:evenodd;clip-rule:evenodd;fill:#A8A8A8;" points="234.0133,257.1743 248.0399,239.3888 
						237.6147,219.2199 234.0133,219.2224 					"/>
				</g>
			</g>
			
				<rect id="XMLID_4467_" x="0.4025" y="199.0356" style="fill-rule:evenodd;clip-rule:evenodd;fill:#FFFFFF;" width="247.6374" height="40.3532"/>
			<g>
				<g>
					<path d="M52.6768,225.5929v-12.8848h3.8936l2.3379,8.7891l2.3115-8.7891h3.9023v12.8848h-2.417v-10.1426l-2.5576,10.1426
						h-2.5049l-2.5488-10.1426v10.1426H52.6768z"/>
					<path d="M73.0938,222.6222l2.4609,0.4131c-0.3164,0.9023-0.8159,1.5898-1.4985,2.0615s-1.5366,0.707-2.562,0.707
						c-1.623,0-2.8242-0.5303-3.6035-1.5908c-0.6152-0.8496-0.9229-1.9219-0.9229-3.2168c0-1.5469,0.4043-2.7578,1.2129-3.6338
						s1.8311-1.3145,3.0674-1.3145c1.3887,0,2.4844,0.459,3.2871,1.375c0.8027,0.918,1.1865,2.3223,1.1514,4.2148h-6.1875
						c0.0176,0.7324,0.2168,1.3027,0.5977,1.709c0.3809,0.4082,0.8555,0.6113,1.4238,0.6113c0.3867,0,0.7119-0.1055,0.9756-0.3164
						S72.959,223.091,73.0938,222.6222z M73.2344,220.1261c-0.0176-0.7148-0.2021-1.2578-0.5537-1.6309
						c-0.3516-0.3711-0.7793-0.5576-1.2832-0.5576c-0.5391,0-0.9844,0.1963-1.3359,0.5889s-0.5244,0.9258-0.5186,1.5996H73.2344z
						 M70.0791,215.1164l1.2129-2.6279h2.7686l-2.417,2.6279H70.0791z"/>
					<path d="M81.9795,216.259v1.9688H80.292v3.7617c0,0.7617,0.0161,1.2061,0.0483,1.332s0.1055,0.2295,0.2197,0.3115
						s0.2534,0.123,0.4175,0.123c0.2285,0,0.5596-0.0791,0.9932-0.2373l0.2109,1.916c-0.5742,0.2461-1.2246,0.3691-1.9512,0.3691
						c-0.4453,0-0.8467-0.0742-1.2041-0.2246c-0.3574-0.1484-0.6196-0.3418-0.7866-0.5801
						c-0.167-0.2363-0.2827-0.5576-0.3472-0.9619c-0.0527-0.2871-0.0791-0.8672-0.0791-1.7402v-4.0693h-1.1338v-1.9688h1.1338
						v-1.8545l2.4785-1.4414v3.2959H81.9795z"/>
					<path d="M83.1221,220.7941c0-0.8203,0.2021-1.6143,0.6064-2.3818s0.9771-1.3535,1.7183-1.7578s1.5688-0.6064,2.4829-0.6064
						c1.4121,0,2.5693,0.459,3.4717,1.375c0.9023,0.918,1.3535,2.0762,1.3535,3.4766c0,1.4121-0.4556,2.583-1.3667,3.5117
						s-2.0581,1.3926-3.4409,1.3926c-0.8555,0-1.6714-0.1934-2.4478-0.5801s-1.3667-0.9531-1.771-1.7012
						C83.3243,222.7765,83.1221,221.8664,83.1221,220.7941z M85.6534,220.9259c0,0.9258,0.2197,1.6348,0.6592,2.127
						s0.9814,0.7383,1.626,0.7383s1.1851-0.2461,1.6216-0.7383s0.6548-1.207,0.6548-2.1445c0-0.9141-0.2183-1.6172-0.6548-2.1094
						s-0.9771-0.7383-1.6216-0.7383s-1.1865,0.2461-1.626,0.7383S85.6534,220.0002,85.6534,220.9259z"/>
					<path d="M103.2491,225.5929h-2.2939v-1.3711c-0.3809,0.5332-0.8306,0.9307-1.3491,1.1914
						c-0.5186,0.2598-1.0415,0.3906-1.5688,0.3906c-1.0723,0-1.9907-0.4316-2.7554-1.2969c-0.7646-0.8633-1.147-2.0693-1.147-3.6162
						c0-1.582,0.3721-2.7842,1.1162-3.6084c0.7441-0.8223,1.6846-1.2344,2.8213-1.2344c1.043,0,1.9453,0.4336,2.707,1.3008v-4.6406
						h2.4697V225.5929z M96.6573,220.7238c0,0.9961,0.1377,1.7168,0.4131,2.1621c0.3984,0.6445,0.9551,0.9668,1.6699,0.9668
						c0.5684,0,1.0518-0.2422,1.4502-0.7246c0.3984-0.4844,0.5977-1.2061,0.5977-2.167c0-1.0723-0.1934-1.8438-0.5801-2.3154
						s-0.8818-0.708-1.4854-0.708c-0.5859,0-1.0767,0.2334-1.4722,0.6982C96.855,219.1027,96.6573,219.798,96.6573,220.7238z"/>
					<path d="M105.1123,220.7941c0-0.8203,0.2021-1.6143,0.6064-2.3818s0.9771-1.3535,1.7183-1.7578s1.5688-0.6064,2.4829-0.6064
						c1.4121,0,2.5693,0.459,3.4717,1.375c0.9023,0.918,1.3535,2.0762,1.3535,3.4766c0,1.4121-0.4556,2.583-1.3667,3.5117
						s-2.0581,1.3926-3.4409,1.3926c-0.8555,0-1.6714-0.1934-2.4478-0.5801s-1.3667-0.9531-1.771-1.7012
						C105.3145,222.7765,105.1123,221.8664,105.1123,220.7941z M107.6436,220.9259c0,0.9258,0.2197,1.6348,0.6592,2.127
						s0.9814,0.7383,1.626,0.7383s1.1851-0.2461,1.6216-0.7383s0.6548-1.207,0.6548-2.1445c0-0.9141-0.2183-1.6172-0.6548-2.1094
						s-0.9771-0.7383-1.6216-0.7383s-1.1865,0.2461-1.626,0.7383S107.6436,220.0002,107.6436,220.9259z"/>
					<path d="M115.8086,222.9299l2.4785-0.3779c0.1055,0.4805,0.3193,0.8457,0.6416,1.0938c0.3223,0.25,0.7734,0.374,1.3535,0.374
						c0.6387,0,1.1191-0.1172,1.4414-0.3516c0.2168-0.1641,0.3252-0.3838,0.3252-0.6592c0-0.1875-0.0586-0.3428-0.1758-0.4658
						c-0.123-0.1172-0.3984-0.2256-0.8262-0.3252c-1.9922-0.4395-3.2549-0.8408-3.7881-1.2041
						c-0.7383-0.5039-1.1074-1.2041-1.1074-2.1006c0-0.8086,0.3193-1.4883,0.958-2.0391s1.6289-0.8262,2.9707-0.8262
						c1.2773,0,2.2266,0.208,2.8477,0.624s1.0488,1.0313,1.2832,1.8457l-2.3291,0.4307c-0.0996-0.3633-0.2886-0.6416-0.5669-0.835
						s-0.6753-0.29-1.1909-0.29c-0.6504,0-1.1162,0.0908-1.3975,0.2725c-0.1875,0.1289-0.2813,0.2959-0.2813,0.501
						c0,0.1758,0.082,0.3252,0.2461,0.4482c0.2227,0.1641,0.9917,0.3955,2.3071,0.6943s2.2339,0.665,2.7554,1.0986
						c0.5156,0.4395,0.7734,1.0518,0.7734,1.8369c0,0.8555-0.3574,1.5908-1.0723,2.2061s-1.7725,0.9229-3.1729,0.9229
						c-1.2715,0-2.2778-0.2578-3.019-0.7734S116.0371,223.8146,115.8086,222.9299z"/>
				</g>
			</g>
			<polygon id="XMLID_4416_" style="opacity:0.5;fill:#2C6882;" points="234.0133,246.5592 0.4025,239.3888 234.0135,239.3888 			
				"/>
		</g>
	</g>
	<g id="XMLID_4410_">
		<polygon id="XMLID_4415_" style="fill:none;stroke:#FFFFFF;stroke-miterlimit:10;" points="17.3572,53.9008 18.7361,58.5731 
			23.867,58.6508 19.8846,61.4857 21.3396,66.309 17.4363,63.4013 13.2996,66.309 14.8299,61.7162 10.7732,58.6508 15.6727,58.7274 
					"/>
		<polygon id="XMLID_4414_" style="fill-rule:evenodd;clip-rule:evenodd;fill:none;stroke:#FFFFFF;stroke-miterlimit:10;" points="
			17.3572,95.4347 18.7361,100.107 23.867,100.1847 19.8846,103.0196 21.3396,107.8429 17.4363,104.9352 13.2996,107.8429 
			14.8299,103.2501 10.7732,100.1847 15.6727,100.2613 		"/>
		
			<line id="XMLID_4413_" style="fill:none;stroke:#FFFFFF;stroke-miterlimit:10;" x1="11.6119" y1="87.0216" x2="233.611" y2="87.0216"/>
		<g>
			<path style="fill:#FFFFFF;" d="M31.9478,65.3078V55.2863h3.4521c0.7793,0,1.374,0.0479,1.7842,0.1436
				c0.5742,0.1318,1.064,0.3711,1.4697,0.7178c0.5288,0.4463,0.9238,1.0176,1.186,1.7129c0.2622,0.6943,0.3931,1.4883,0.3931,2.3818
				c0,0.7607-0.0889,1.4355-0.2666,2.0234s-0.4058,1.0742-0.6836,1.46c-0.2778,0.3848-0.582,0.6875-0.9126,0.9082
				c-0.3306,0.2217-0.729,0.3887-1.1963,0.5029s-1.0039,0.1709-1.6099,0.1709H31.9478z M33.274,64.1252h2.1396
				c0.6606,0,1.1792-0.0615,1.5552-0.1846c0.376-0.123,0.6758-0.2959,0.8989-0.5195c0.3145-0.3145,0.5596-0.7373,0.7349-1.2676
				c0.1753-0.5313,0.2632-1.1748,0.2632-1.9316c0-1.0479-0.1719-1.8535-0.5161-2.416c-0.3442-0.5635-0.7622-0.9404-1.2544-1.1318
				c-0.3555-0.1367-0.9272-0.2051-1.7158-0.2051H33.274V64.1252z"/>
			<path style="fill:#FFFFFF;" d="M46.6382,64.4123c-0.4556,0.3877-0.8945,0.6611-1.3159,0.8203s-0.874,0.2393-1.3569,0.2393
				c-0.7974,0-1.4106-0.1953-1.8389-0.584c-0.4282-0.3906-0.6426-0.8877-0.6426-1.4941c0-0.3555,0.0811-0.6797,0.2427-0.9746
				c0.1616-0.293,0.3735-0.5293,0.6357-0.707s0.5571-0.3125,0.8853-0.4033c0.2417-0.0635,0.606-0.125,1.0938-0.1846
				c0.9937-0.1182,1.7251-0.2598,2.1943-0.4238c0.0044-0.1689,0.0068-0.2754,0.0068-0.3213c0-0.501-0.1162-0.8545-0.3486-1.0596
				c-0.3145-0.2783-0.7817-0.417-1.4014-0.417c-0.5786,0-1.0059,0.1016-1.2817,0.3037c-0.2759,0.2031-0.4795,0.5625-0.6118,1.0771
				l-1.2031-0.1641c0.1094-0.5146,0.2896-0.9307,0.54-1.2471c0.2505-0.3174,0.6128-0.5605,1.0869-0.7324
				c0.4741-0.1699,1.0229-0.2559,1.6475-0.2559c0.6196,0,1.1235,0.0732,1.5107,0.2188s0.6724,0.3291,0.8545,0.5508
				c0.1821,0.2207,0.3101,0.5,0.3828,0.8369c0.041,0.21,0.0615,0.5879,0.0615,1.1348v1.6406c0,1.1436,0.0264,1.8672,0.0786,2.1709
				c0.0522,0.3027,0.1563,0.5928,0.311,0.8711h-1.2852C46.7569,65.0529,46.6748,64.7541,46.6382,64.4123z M46.5357,61.6642
				c-0.4468,0.1826-1.1167,0.3369-2.0098,0.4648c-0.5059,0.0732-0.8638,0.1553-1.0732,0.2461s-0.3716,0.2246-0.4854,0.3994
				c-0.1138,0.1758-0.1709,0.3711-0.1709,0.585c0,0.3281,0.124,0.6016,0.3726,0.8203c0.2485,0.2188,0.6118,0.3281,1.0903,0.3281
				c0.4741,0,0.8955-0.1035,1.2646-0.3115c0.3691-0.207,0.6401-0.4902,0.8135-0.8506c0.1323-0.2783,0.1982-0.6885,0.1982-1.2305
				V61.6642z"/>
			<path style="fill:#FFFFFF;" d="M52.3736,64.2072l0.1777,1.0869c-0.3462,0.0732-0.6563,0.1094-0.9297,0.1094
				c-0.4468,0-0.793-0.0703-1.0391-0.2119s-0.4194-0.3271-0.5195-0.5576c-0.1001-0.2295-0.1504-0.7139-0.1504-1.4522V59.005h-0.9023
				v-0.957h0.9023v-1.7979l1.2236-0.7383v2.5361h1.2373v0.957h-1.2373v4.2451c0,0.3506,0.0215,0.5762,0.0649,0.6768
				c0.0435,0.1006,0.1138,0.1797,0.2119,0.2393s0.2383,0.0889,0.4204,0.0889C51.9703,64.2551,52.1504,64.2394,52.3736,64.2072z"/>
			<path style="fill:#FFFFFF;" d="M53.1187,61.6779c0-1.3447,0.3735-2.3398,1.1211-2.9873
				c0.6245-0.5381,1.3853-0.8066,2.2832-0.8066c0.998,0,1.814,0.3271,2.4473,0.9805c0.6333,0.6543,0.9502,1.5576,0.9502,2.7109
				c0,0.9346-0.1401,1.6689-0.4204,2.2051c-0.2803,0.5352-0.688,0.9512-1.2236,1.2471s-1.1201,0.4443-1.7534,0.4443
				c-1.0161,0-1.8379-0.3262-2.4644-0.9775C53.4322,63.8429,53.1187,62.9035,53.1187,61.6779z M54.3833,61.6779
				c0,0.9297,0.2026,1.626,0.6084,2.0889c0.4058,0.4619,0.916,0.6934,1.5313,0.6934c0.6108,0,1.1187-0.2324,1.5244-0.6973
				c0.4058-0.4648,0.6084-1.1738,0.6084-2.126c0-0.8975-0.2041-1.5781-0.6118-2.04c-0.4077-0.4629-0.915-0.6943-1.521-0.6943
				c-0.6152,0-1.1255,0.2305-1.5313,0.6904S54.3833,60.7482,54.3833,61.6779z"/>
			<path style="fill:#FFFFFF;" d="M61.6841,65.3078v-1.4014h1.4014v1.4014c0,0.5146-0.0913,0.9307-0.2734,1.248
				c-0.1821,0.3164-0.4717,0.5615-0.8682,0.7344l-0.3418-0.5264c0.2598-0.1143,0.4512-0.2813,0.5742-0.5029
				c0.123-0.2207,0.1914-0.5381,0.2051-0.9531H61.6841z"/>
			<path style="fill:#FFFFFF;" d="M69.149,56.7013v-1.415h1.2305v1.415H69.149z M69.149,65.3078V58.048h1.2305v7.2598H69.149z"/>
			<path style="fill:#FFFFFF;" d="M72.2525,65.3078V58.048h1.1074v1.0322c0.5332-0.7979,1.3032-1.1963,2.3105-1.1963
				c0.4375,0,0.8398,0.0781,1.2065,0.2363c0.3667,0.1563,0.6416,0.3633,0.8237,0.6182s0.3101,0.5586,0.3828,0.9092
				c0.0454,0.2275,0.0684,0.627,0.0684,1.1963v4.4639h-1.2305v-4.416c0-0.501-0.0479-0.876-0.1436-1.125
				c-0.0957-0.248-0.2656-0.4463-0.5093-0.5938c-0.2437-0.1484-0.5298-0.2227-0.8579-0.2227c-0.5239,0-0.9766,0.166-1.3569,0.499
				s-0.5708,0.9639-0.5708,1.8936v3.9648H72.2525z"/>
			<path style="fill:#FFFFFF;" d="M80.3326,65.3078V59.005h-1.0869v-0.957h1.0869v-0.7725c0-0.4873,0.0435-0.8496,0.1299-1.0869
				c0.1187-0.3193,0.3271-0.5781,0.6255-0.7754c0.2983-0.1992,0.7168-0.2979,1.2544-0.2979c0.3462,0,0.729,0.041,1.1484,0.123
				l-0.1846,1.0732c-0.2554-0.0459-0.4966-0.0684-0.7246-0.0684c-0.3735,0-0.6382,0.0801-0.793,0.2393s-0.2324,0.458-0.2324,0.8955
				v0.6699h1.415v0.957h-1.415v6.3027H80.3326z"/>
			<path style="fill:#FFFFFF;" d="M83.4703,61.6779c0-1.3447,0.3735-2.3398,1.1211-2.9873
				c0.6245-0.5381,1.3853-0.8066,2.2832-0.8066c0.998,0,1.814,0.3271,2.4473,0.9805c0.6333,0.6543,0.9502,1.5576,0.9502,2.7109
				c0,0.9346-0.1401,1.6689-0.4204,2.2051c-0.2803,0.5352-0.688,0.9512-1.2236,1.2471s-1.1201,0.4443-1.7534,0.4443
				c-1.0161,0-1.8379-0.3262-2.4644-0.9775C83.7837,63.8429,83.4703,62.9035,83.4703,61.6779z M84.7349,61.6779
				c0,0.9297,0.2026,1.626,0.6084,2.0889c0.4058,0.4619,0.916,0.6934,1.5313,0.6934c0.6108,0,1.1187-0.2324,1.5244-0.6973
				c0.4058-0.4648,0.6084-1.1738,0.6084-2.126c0-0.8975-0.2041-1.5781-0.6118-2.04c-0.4077-0.4629-0.915-0.6943-1.521-0.6943
				c-0.6152,0-1.1255,0.2305-1.5313,0.6904S84.7349,60.7482,84.7349,61.6779z"/>
			<path style="fill:#FFFFFF;" d="M91.7007,65.3078V58.048h1.1074v1.1006c0.2827-0.5146,0.5435-0.8545,0.7827-1.0186
				s0.5024-0.2461,0.7896-0.2461c0.4146,0,0.8364,0.1318,1.2646,0.3965l-0.4238,1.1416c-0.3008-0.1777-0.6016-0.2666-0.9023-0.2666
				c-0.269,0-0.5103,0.0811-0.7246,0.2422c-0.2144,0.1621-0.3667,0.3867-0.458,0.6738c-0.1367,0.4375-0.2051,0.916-0.2051,1.4355
				v3.8008H91.7007z"/>
			<path style="fill:#FFFFFF;" d="M96.3765,65.3078V58.048h1.1006v1.0186c0.228-0.3555,0.5308-0.6416,0.9092-0.8584
				c0.3784-0.2158,0.8091-0.3242,1.292-0.3242c0.5376,0,0.9785,0.1113,1.3228,0.335s0.5869,0.5352,0.728,0.9365
				c0.5742-0.8477,1.3218-1.2715,2.2422-1.2715c0.7202,0,1.2739,0.1992,1.6611,0.5977c0.3872,0.3994,0.5811,1.0137,0.5811,1.8428
				v4.9834h-1.2236v-4.5732c0-0.4922-0.04-0.8467-0.1196-1.0635c-0.0796-0.2158-0.2246-0.3906-0.4341-0.5225
				s-0.4556-0.1982-0.7383-0.1982c-0.5103,0-0.9341,0.1699-1.2715,0.5098c-0.3374,0.3389-0.5059,0.8828-0.5059,1.6299v4.2178H100.69
				V60.591c0-0.5469-0.1001-0.957-0.3008-1.2305s-0.5288-0.4102-0.9844-0.4102c-0.3462,0-0.6665,0.0908-0.9604,0.2734
				s-0.5068,0.4492-0.6392,0.7998S97.607,60.88,97.607,61.5412v3.7666H96.3765z"/>
			<path style="fill:#FFFFFF;" d="M112.7759,64.4123c-0.4556,0.3877-0.8945,0.6611-1.3159,0.8203s-0.874,0.2393-1.3569,0.2393
				c-0.7974,0-1.4106-0.1953-1.8389-0.584c-0.4282-0.3906-0.6426-0.8877-0.6426-1.4941c0-0.3555,0.0811-0.6797,0.2427-0.9746
				c0.1616-0.293,0.3735-0.5293,0.6357-0.707s0.5571-0.3125,0.8853-0.4033c0.2417-0.0635,0.606-0.125,1.0938-0.1846
				c0.9937-0.1182,1.7251-0.2598,2.1943-0.4238c0.0044-0.1689,0.0068-0.2754,0.0068-0.3213c0-0.501-0.1162-0.8545-0.3486-1.0596
				c-0.3145-0.2783-0.7817-0.417-1.4014-0.417c-0.5786,0-1.0059,0.1016-1.2817,0.3037c-0.2759,0.2031-0.4795,0.5625-0.6118,1.0771
				l-1.2031-0.1641c0.1094-0.5146,0.2896-0.9307,0.54-1.2471c0.2505-0.3174,0.6128-0.5605,1.0869-0.7324
				c0.4741-0.1699,1.0229-0.2559,1.6475-0.2559c0.6196,0,1.1235,0.0732,1.5107,0.2188s0.6724,0.3291,0.8545,0.5508
				c0.1821,0.2207,0.3101,0.5,0.3828,0.8369c0.041,0.21,0.0615,0.5879,0.0615,1.1348v1.6406c0,1.1436,0.0264,1.8672,0.0786,2.1709
				c0.0522,0.3027,0.1563,0.5928,0.311,0.8711h-1.2852C112.8946,65.0529,112.8125,64.7541,112.7759,64.4123z M112.6734,61.6642
				c-0.4468,0.1826-1.1167,0.3369-2.0098,0.4648c-0.5059,0.0732-0.8638,0.1553-1.0732,0.2461s-0.3716,0.2246-0.4854,0.3994
				c-0.1138,0.1758-0.1709,0.3711-0.1709,0.585c0,0.3281,0.124,0.6016,0.3726,0.8203c0.2485,0.2188,0.6118,0.3281,1.0903,0.3281
				c0.4741,0,0.8955-0.1035,1.2646-0.3115c0.3691-0.207,0.6401-0.4902,0.8135-0.8506c0.1323-0.2783,0.1982-0.6885,0.1982-1.2305
				V61.6642z"/>
			<path style="fill:#FFFFFF;" d="M120.562,62.6486l1.21,0.1572c-0.1323,0.834-0.4707,1.4863-1.0151,1.959
				c-0.5444,0.4707-1.2134,0.707-2.0063,0.707c-0.9937,0-1.792-0.3242-2.396-0.9746c-0.604-0.6484-0.9058-1.5801-0.9058-2.792
				c0-0.7842,0.1299-1.4697,0.3896-2.0576s0.6553-1.0293,1.186-1.3223c0.5308-0.2949,1.1084-0.4414,1.7329-0.4414
				c0.7886,0,1.4331,0.1992,1.9346,0.5977c0.5015,0.3994,0.8228,0.9658,0.9639,1.6992l-1.1963,0.1846
				c-0.1138-0.4873-0.3154-0.8545-0.605-1.1006s-0.6392-0.3691-1.0493-0.3691c-0.6196,0-1.1235,0.2227-1.5107,0.666
				c-0.3872,0.4453-0.5811,1.1475-0.5811,2.1094c0,0.9756,0.187,1.6836,0.5605,2.126c0.3735,0.4424,0.8613,0.6631,1.4629,0.6631
				c0.4829,0,0.8862-0.1484,1.21-0.4443C120.2705,63.7199,120.4756,63.2638,120.562,62.6486z"/>
			<path style="fill:#FFFFFF;" d="M122.8316,56.7013v-1.415h1.2305v1.415H122.8316z M122.8316,65.3078V58.048h1.2305v7.2598
				H122.8316z"/>
			<path style="fill:#FFFFFF;" d="M125.4771,61.6779c0-1.3447,0.3735-2.3398,1.1211-2.9873
				c0.6245-0.5381,1.3853-0.8066,2.2832-0.8066c0.998,0,1.814,0.3271,2.4473,0.9805c0.6333,0.6543,0.9502,1.5576,0.9502,2.7109
				c0,0.9346-0.1401,1.6689-0.4204,2.2051c-0.2803,0.5352-0.688,0.9512-1.2236,1.2471s-1.1201,0.4443-1.7534,0.4443
				c-1.0161,0-1.8379-0.3262-2.4644-0.9775C125.7906,63.8429,125.4771,62.9035,125.4771,61.6779z M126.7417,61.6779
				c0,0.9297,0.2026,1.626,0.6084,2.0889c0.4058,0.4619,0.916,0.6934,1.5313,0.6934c0.6108,0,1.1187-0.2324,1.5244-0.6973
				c0.4058-0.4648,0.6084-1.1738,0.6084-2.126c0-0.8975-0.2041-1.5781-0.6118-2.04c-0.4077-0.4629-0.915-0.6943-1.521-0.6943
				c-0.6152,0-1.1255,0.2305-1.5313,0.6904S126.7417,60.7482,126.7417,61.6779z M128.1978,57.1457l0.9092-1.9141h1.6133
				l-1.5039,1.9141H128.1978z"/>
			<path style="fill:#FFFFFF;" d="M133.7212,65.3078V58.048h1.1074v1.0322c0.5332-0.7979,1.3032-1.1963,2.3105-1.1963
				c0.4375,0,0.8398,0.0781,1.2065,0.2363c0.3667,0.1563,0.6416,0.3633,0.8237,0.6182s0.3101,0.5586,0.3828,0.9092
				c0.0454,0.2275,0.0684,0.627,0.0684,1.1963v4.4639h-1.2305v-4.416c0-0.501-0.0479-0.876-0.1436-1.125
				c-0.0957-0.248-0.2656-0.4463-0.5093-0.5938c-0.2437-0.1484-0.5298-0.2227-0.8579-0.2227c-0.5239,0-0.9766,0.166-1.3569,0.499
				s-0.5708,0.9639-0.5708,1.8936v3.9648H133.7212z"/>
			<path style="fill:#FFFFFF;" d="M145.3423,68.1037l-0.1367-1.1553c0.269,0.0732,0.5034,0.1094,0.7041,0.1094
				c0.2734,0,0.4922-0.0459,0.6563-0.1367s0.2983-0.2188,0.4033-0.3828c0.0776-0.123,0.2026-0.4287,0.376-0.916
				c0.0229-0.0684,0.0591-0.1689,0.1094-0.3008l-2.7549-7.2734h1.3262l1.5107,4.2041c0.1958,0.5332,0.3716,1.0938,0.5264,1.6816
				c0.1411-0.5654,0.3101-1.1162,0.5059-1.6543l1.5518-4.2314h1.2305l-2.7617,7.3828c-0.2964,0.7979-0.5264,1.3467-0.6904,1.6475
				c-0.2188,0.4053-0.4692,0.7031-0.752,0.8916c-0.2827,0.1895-0.6196,0.2842-1.0117,0.2842
				C145.8985,68.2541,145.6338,68.2043,145.3423,68.1037z"/>
			<path style="fill:#FFFFFF;" d="M36.5279,76.6486l1.21,0.1572c-0.1323,0.834-0.4707,1.4863-1.0151,1.959
				c-0.5444,0.4707-1.2134,0.707-2.0063,0.707c-0.9937,0-1.792-0.3242-2.396-0.9746c-0.604-0.6484-0.9058-1.5801-0.9058-2.792
				c0-0.7842,0.1299-1.4697,0.3896-2.0576s0.6553-1.0293,1.186-1.3223c0.5308-0.2949,1.1084-0.4414,1.7329-0.4414
				c0.7886,0,1.4331,0.1992,1.9346,0.5977c0.5015,0.3994,0.8228,0.9658,0.9639,1.6992l-1.1963,0.1846
				c-0.1138-0.4873-0.3154-0.8545-0.605-1.1006s-0.6392-0.3691-1.0493-0.3691c-0.6196,0-1.1235,0.2227-1.5107,0.666
				c-0.3872,0.4453-0.5811,1.1475-0.5811,2.1094c0,0.9756,0.187,1.6836,0.5605,2.126s0.8613,0.6631,1.4629,0.6631
				c0.4829,0,0.8862-0.1484,1.21-0.4443S36.4414,77.2638,36.5279,76.6486z"/>
			<path style="fill:#FFFFFF;" d="M38.3326,75.6779c0-1.3447,0.3735-2.3398,1.1211-2.9873
				c0.6245-0.5381,1.3853-0.8066,2.2832-0.8066c0.998,0,1.814,0.3271,2.4473,0.9805c0.6333,0.6543,0.9502,1.5576,0.9502,2.7109
				c0,0.9346-0.1401,1.6689-0.4204,2.2051c-0.2803,0.5352-0.688,0.9512-1.2236,1.2471s-1.1201,0.4443-1.7534,0.4443
				c-1.0161,0-1.8379-0.3262-2.4644-0.9775S38.3326,76.9035,38.3326,75.6779z M39.5972,75.6779c0,0.9297,0.2026,1.626,0.6084,2.0889
				c0.4058,0.4619,0.916,0.6934,1.5313,0.6934c0.6108,0,1.1187-0.2324,1.5244-0.6973s0.6084-1.1738,0.6084-2.126
				c0-0.8975-0.2041-1.5781-0.6118-2.04c-0.4077-0.4629-0.915-0.6943-1.521-0.6943c-0.6152,0-1.1255,0.2305-1.5313,0.6904
				S39.5972,74.7482,39.5972,75.6779z"/>
			<path style="fill:#FFFFFF;" d="M46.5767,79.3078V72.048h1.1074v1.0322c0.5332-0.7979,1.3032-1.1963,2.3105-1.1963
				c0.4375,0,0.8398,0.0781,1.2065,0.2363c0.3667,0.1563,0.6416,0.3633,0.8237,0.6182s0.3101,0.5586,0.3828,0.9092
				c0.0454,0.2275,0.0684,0.627,0.0684,1.1963v4.4639h-1.2305v-4.416c0-0.501-0.0479-0.876-0.1436-1.125
				c-0.0957-0.248-0.2656-0.4463-0.5093-0.5938c-0.2437-0.1484-0.5298-0.2227-0.8579-0.2227c-0.5239,0-0.9766,0.166-1.3569,0.499
				s-0.5708,0.9639-0.5708,1.8936v3.9648H46.5767z"/>
			<path style="fill:#FFFFFF;" d="M53.9048,75.6779c0-1.3447,0.3735-2.3398,1.1211-2.9873
				c0.6245-0.5381,1.3853-0.8066,2.2832-0.8066c0.998,0,1.814,0.3271,2.4473,0.9805c0.6333,0.6543,0.9502,1.5576,0.9502,2.7109
				c0,0.9346-0.1401,1.6689-0.4204,2.2051c-0.2803,0.5352-0.688,0.9512-1.2236,1.2471s-1.1201,0.4443-1.7534,0.4443
				c-1.0161,0-1.8379-0.3262-2.4644-0.9775S53.9048,76.9035,53.9048,75.6779z M55.1695,75.6779c0,0.9297,0.2026,1.626,0.6084,2.0889
				c0.4058,0.4619,0.916,0.6934,1.5313,0.6934c0.6108,0,1.1187-0.2324,1.5244-0.6973s0.6084-1.1738,0.6084-2.126
				c0-0.8975-0.2041-1.5781-0.6118-2.04c-0.4077-0.4629-0.915-0.6943-1.521-0.6943c-0.6152,0-1.1255,0.2305-1.5313,0.6904
				S55.1695,74.7482,55.1695,75.6779z"/>
			<path style="fill:#FFFFFF;" d="M66.8863,76.6486l1.21,0.1572c-0.1323,0.834-0.4707,1.4863-1.0151,1.959
				c-0.5444,0.4707-1.2134,0.707-2.0063,0.707c-0.9937,0-1.792-0.3242-2.396-0.9746c-0.604-0.6484-0.9058-1.5801-0.9058-2.792
				c0-0.7842,0.1299-1.4697,0.3896-2.0576s0.6553-1.0293,1.186-1.3223c0.5308-0.2949,1.1084-0.4414,1.7329-0.4414
				c0.7886,0,1.4331,0.1992,1.9346,0.5977c0.5015,0.3994,0.8228,0.9658,0.9639,1.6992l-1.1963,0.1846
				c-0.1138-0.4873-0.3154-0.8545-0.605-1.1006s-0.6392-0.3691-1.0493-0.3691c-0.6196,0-1.1235,0.2227-1.5107,0.666
				c-0.3872,0.4453-0.5811,1.1475-0.5811,2.1094c0,0.9756,0.187,1.6836,0.5605,2.126s0.8613,0.6631,1.4629,0.6631
				c0.4829,0,0.8862-0.1484,1.21-0.4443S66.7998,77.2638,66.8863,76.6486z"/>
			<path style="fill:#FFFFFF;" d="M69.1558,70.7013v-1.415h1.2305v1.415H69.1558z M69.1558,79.3078V72.048h1.2305v7.2598H69.1558z"
				/>
			<path style="fill:#FFFFFF;" d="M72.2593,79.3078V72.048h1.1006v1.0186c0.228-0.3555,0.5308-0.6416,0.9092-0.8584
				c0.3784-0.2158,0.8091-0.3242,1.292-0.3242c0.5376,0,0.9785,0.1113,1.3228,0.335s0.5869,0.5352,0.728,0.9365
				c0.5742-0.8477,1.3218-1.2715,2.2422-1.2715c0.7202,0,1.2739,0.1992,1.6611,0.5977c0.3872,0.3994,0.5811,1.0137,0.5811,1.8428
				v4.9834h-1.2236v-4.5732c0-0.4922-0.04-0.8467-0.1196-1.0635c-0.0796-0.2158-0.2246-0.3906-0.4341-0.5225
				s-0.4556-0.1982-0.7383-0.1982c-0.5103,0-0.9341,0.1699-1.2715,0.5098c-0.3374,0.3389-0.5059,0.8828-0.5059,1.6299v4.2178
				h-1.2305V74.591c0-0.5469-0.1001-0.957-0.3008-1.2305s-0.5288-0.4102-0.9844-0.4102c-0.3462,0-0.6665,0.0908-0.9604,0.2734
				s-0.5068,0.4492-0.6392,0.7998s-0.1982,0.8564-0.1982,1.5176v3.7666H72.2593z"/>
			<path style="fill:#FFFFFF;" d="M83.9283,70.7013v-1.415h1.2305v1.415H83.9283z M83.9283,79.3078V72.048h1.2305v7.2598H83.9283z"
				/>
			<path style="fill:#FFFFFF;" d="M92.0015,76.9699l1.2715,0.1572c-0.2007,0.7432-0.5718,1.3193-1.1143,1.7295
				s-1.2349,0.6152-2.0781,0.6152c-1.062,0-1.9038-0.3271-2.5259-0.9805c-0.6221-0.6543-0.9331-1.5713-0.9331-2.752
				c0-1.2217,0.3145-2.1689,0.9434-2.8438s1.4448-1.0117,2.4473-1.0117c0.9707,0,1.7637,0.3301,2.3789,0.9912
				s0.9229,1.5908,0.9229,2.7891c0,0.0732-0.0024,0.1826-0.0068,0.3281h-5.4141c0.0454,0.7979,0.271,1.4082,0.6768,1.832
				s0.9116,0.6357,1.5176,0.6357c0.4512,0,0.8364-0.1182,1.1553-0.3555S91.8145,77.4894,92.0015,76.9699z M87.9615,74.9806h4.0537
				c-0.0547-0.6104-0.2095-1.0684-0.4648-1.374c-0.3921-0.4736-0.8999-0.7109-1.5244-0.7109c-0.5649,0-1.04,0.1895-1.4253,0.5674
				S88.0025,74.3468,87.9615,74.9806z"/>
			<path style="fill:#FFFFFF;" d="M94.8179,79.3078V72.048h1.1074v1.0322c0.5332-0.7979,1.3032-1.1963,2.3105-1.1963
				c0.4375,0,0.8398,0.0781,1.2065,0.2363c0.3667,0.1563,0.6416,0.3633,0.8237,0.6182s0.3101,0.5586,0.3828,0.9092
				c0.0454,0.2275,0.0684,0.627,0.0684,1.1963v4.4639h-1.2305v-4.416c0-0.501-0.0479-0.876-0.1436-1.125
				c-0.0957-0.248-0.2656-0.4463-0.5093-0.5938c-0.2437-0.1484-0.5298-0.2227-0.8579-0.2227c-0.5239,0-0.9766,0.166-1.3569,0.499
				s-0.5708,0.9639-0.5708,1.8936v3.9648H94.8179z"/>
			<path style="fill:#FFFFFF;" d="M105.2906,78.2072l0.1777,1.0869c-0.3462,0.0732-0.6563,0.1094-0.9297,0.1094
				c-0.4468,0-0.793-0.0703-1.0391-0.2119s-0.4194-0.3271-0.5195-0.5576c-0.1001-0.2295-0.1504-0.7139-0.1504-1.4521v-4.1768
				h-0.9023v-0.957h0.9023v-1.7979l1.2236-0.7383v2.5361h1.2373v0.957h-1.2373v4.2451c0,0.3506,0.0215,0.5762,0.0649,0.6768
				s0.1138,0.1797,0.2119,0.2393s0.2383,0.0889,0.4204,0.0889C104.8872,78.2551,105.0674,78.2394,105.2906,78.2072z"/>
			<path style="fill:#FFFFFF;" d="M106.0357,75.6779c0-1.3447,0.3735-2.3398,1.1211-2.9873
				c0.6245-0.5381,1.3853-0.8066,2.2832-0.8066c0.998,0,1.814,0.3271,2.4473,0.9805c0.6333,0.6543,0.9502,1.5576,0.9502,2.7109
				c0,0.9346-0.1401,1.6689-0.4204,2.2051c-0.2803,0.5352-0.688,0.9512-1.2236,1.2471s-1.1201,0.4443-1.7534,0.4443
				c-1.0161,0-1.8379-0.3262-2.4644-0.9775S106.0357,76.9035,106.0357,75.6779z M107.3003,75.6779
				c0,0.9297,0.2026,1.626,0.6084,2.0889c0.4058,0.4619,0.916,0.6934,1.5313,0.6934c0.6108,0,1.1187-0.2324,1.5244-0.6973
				s0.6084-1.1738,0.6084-2.126c0-0.8975-0.2041-1.5781-0.6118-2.04c-0.4077-0.4629-0.915-0.6943-1.521-0.6943
				c-0.6152,0-1.1255,0.2305-1.5313,0.6904S107.3003,74.7482,107.3003,75.6779z"/>
		</g>
		<g>
			<path style="fill:#FFFFFF;" d="M31.9478,108.715V98.6935h3.4521c0.7793,0,1.374,0.0479,1.7842,0.1436
				c0.5742,0.1318,1.064,0.3711,1.4697,0.7178c0.5288,0.4463,0.9238,1.0176,1.186,1.7129c0.2622,0.6943,0.3931,1.4883,0.3931,2.3818
				c0,0.7607-0.0889,1.4355-0.2666,2.0234s-0.4058,1.0742-0.6836,1.46c-0.2778,0.3848-0.582,0.6875-0.9126,0.9082
				c-0.3306,0.2217-0.729,0.3887-1.1963,0.5029s-1.0039,0.1709-1.6099,0.1709H31.9478z M33.274,107.5324h2.1396
				c0.6606,0,1.1792-0.0615,1.5552-0.1846s0.6758-0.2959,0.8989-0.5195c0.3145-0.3145,0.5596-0.7373,0.7349-1.2676
				c0.1753-0.5313,0.2632-1.1748,0.2632-1.9316c0-1.0479-0.1719-1.8535-0.5161-2.416c-0.3442-0.5635-0.7622-0.9404-1.2544-1.1318
				c-0.3555-0.1367-0.9272-0.2051-1.7158-0.2051H33.274V107.5324z"/>
			<path style="fill:#FFFFFF;" d="M46.8706,106.3771l1.2715,0.1572c-0.2007,0.7432-0.5718,1.3193-1.1143,1.7295
				s-1.2349,0.6152-2.0781,0.6152c-1.062,0-1.9038-0.3271-2.5259-0.9805c-0.6221-0.6543-0.9331-1.5713-0.9331-2.752
				c0-1.2217,0.3145-2.1689,0.9434-2.8438s1.4448-1.0117,2.4473-1.0117c0.9707,0,1.7637,0.3301,2.3789,0.9912
				s0.9229,1.5908,0.9229,2.7891c0,0.0732-0.0024,0.1826-0.0068,0.3281h-5.4141c0.0454,0.7979,0.271,1.4082,0.6768,1.832
				s0.9116,0.6357,1.5176,0.6357c0.4512,0,0.8364-0.1182,1.1553-0.3555S46.6836,106.8967,46.8706,106.3771z M42.8306,104.3879
				h4.0537c-0.0547-0.6104-0.2095-1.0684-0.4648-1.374c-0.3921-0.4736-0.8999-0.7109-1.5244-0.7109
				c-0.5649,0-1.04,0.1895-1.4253,0.5674S42.8716,103.7541,42.8306,104.3879z"/>
			<path style="fill:#FFFFFF;" d="M49.981,108.715v-6.3027h-1.0869v-0.957h1.0869v-0.7725c0-0.4873,0.0435-0.8496,0.1299-1.0869
				c0.1187-0.3193,0.3271-0.5781,0.6255-0.7754c0.2983-0.1992,0.7168-0.2979,1.2544-0.2979c0.3462,0,0.729,0.041,1.1484,0.123
				l-0.1846,1.0732c-0.2554-0.0459-0.4966-0.0684-0.7246-0.0684c-0.3735,0-0.6382,0.0801-0.793,0.2393s-0.2324,0.458-0.2324,0.8955
				v0.6699h1.415v0.957h-1.415v6.3027H49.981z"/>
			<path style="fill:#FFFFFF;" d="M53.5835,100.1086v-1.415h1.2305v1.415H53.5835z M53.5835,108.715v-7.2598h1.2305v7.2598H53.5835z
				"/>
			<path style="fill:#FFFFFF;" d="M56.6871,108.715v-7.2598h1.1074v1.0322c0.5332-0.7979,1.3032-1.1963,2.3105-1.1963
				c0.4375,0,0.8398,0.0781,1.2065,0.2363c0.3667,0.1563,0.6416,0.3633,0.8237,0.6182s0.3101,0.5586,0.3828,0.9092
				c0.0454,0.2275,0.0684,0.627,0.0684,1.1963v4.4639H61.356v-4.416c0-0.501-0.0479-0.876-0.1436-1.125
				c-0.0957-0.248-0.2656-0.4463-0.5093-0.5938c-0.2437-0.1484-0.5298-0.2227-0.8579-0.2227c-0.5239,0-0.9766,0.166-1.3569,0.499
				s-0.5708,0.9639-0.5708,1.8936v3.9648H56.6871z"/>
			<path style="fill:#FFFFFF;" d="M64.48,100.1086v-1.415h1.2305v1.415H64.48z M64.48,108.715v-7.2598h1.2305v7.2598H64.48z"/>
			<path style="fill:#FFFFFF;" d="M72.3208,106.0558l1.21,0.1572c-0.1323,0.834-0.4707,1.4863-1.0151,1.959
				c-0.5444,0.4707-1.2134,0.707-2.0063,0.707c-0.9937,0-1.792-0.3242-2.396-0.9746c-0.604-0.6484-0.9058-1.5801-0.9058-2.792
				c0-0.7842,0.1299-1.4697,0.3896-2.0576s0.6553-1.0293,1.186-1.3223c0.5308-0.2949,1.1084-0.4414,1.7329-0.4414
				c0.7886,0,1.4331,0.1992,1.9346,0.5977c0.5015,0.3994,0.8228,0.9658,0.9639,1.6992l-1.1963,0.1846
				c-0.1138-0.4873-0.3154-0.8545-0.605-1.1006s-0.6392-0.3691-1.0493-0.3691c-0.6196,0-1.1235,0.2227-1.5107,0.666
				c-0.3872,0.4453-0.5811,1.1475-0.5811,2.1094c0,0.9756,0.187,1.6836,0.5605,2.126s0.8613,0.6631,1.4629,0.6631
				c0.4829,0,0.8862-0.1484,1.21-0.4443S72.2344,106.6711,72.3208,106.0558z"/>
			<path style="fill:#FFFFFF;" d="M74.5904,100.1086v-1.415h1.2305v1.415H74.5904z M74.5904,108.715v-7.2598h1.2305v7.2598H74.5904z
				"/>
			<path style="fill:#FFFFFF;" d="M77.2359,105.0851c0-1.3447,0.3735-2.3398,1.1211-2.9873
				c0.6245-0.5381,1.3853-0.8066,2.2832-0.8066c0.998,0,1.814,0.3271,2.4473,0.9805c0.6333,0.6543,0.9502,1.5576,0.9502,2.7109
				c0,0.9346-0.1401,1.6689-0.4204,2.2051c-0.2803,0.5352-0.688,0.9512-1.2236,1.2471s-1.1201,0.4443-1.7534,0.4443
				c-1.0161,0-1.8379-0.3262-2.4644-0.9775S77.2359,106.3107,77.2359,105.0851z M78.5005,105.0851
				c0,0.9297,0.2026,1.626,0.6084,2.0889c0.4058,0.4619,0.916,0.6934,1.5313,0.6934c0.6108,0,1.1187-0.2324,1.5244-0.6973
				s0.6084-1.1738,0.6084-2.126c0-0.8975-0.2041-1.5781-0.6118-2.04c-0.4077-0.4629-0.915-0.6943-1.521-0.6943
				c-0.6152,0-1.1255,0.2305-1.5313,0.6904S78.5005,104.1554,78.5005,105.0851z M79.9566,100.5529l0.9092-1.9141h1.6133
				l-1.5039,1.9141H79.9566z"/>
			<path style="fill:#FFFFFF;" d="M85.48,108.715v-7.2598h1.1074v1.0322c0.5332-0.7979,1.3032-1.1963,2.3105-1.1963
				c0.4375,0,0.8398,0.0781,1.2065,0.2363c0.3667,0.1563,0.6416,0.3633,0.8237,0.6182s0.3101,0.5586,0.3828,0.9092
				c0.0454,0.2275,0.0684,0.627,0.0684,1.1963v4.4639H90.149v-4.416c0-0.501-0.0479-0.876-0.1436-1.125
				c-0.0957-0.248-0.2656-0.4463-0.5093-0.5938c-0.2437-0.1484-0.5298-0.2227-0.8579-0.2227c-0.5239,0-0.9766,0.166-1.3569,0.499
				s-0.5708,0.9639-0.5708,1.8936v3.9648H85.48z"/>
			<path style="fill:#FFFFFF;" d="M101.8658,108.715v-0.916c-0.4604,0.7197-1.1372,1.0801-2.0303,1.0801
				c-0.5786,0-1.1108-0.1592-1.5962-0.4785s-0.8613-0.7646-1.1279-1.3359c-0.2666-0.5723-0.3999-1.2295-0.3999-1.9727
				c0-0.7246,0.1206-1.3818,0.3623-1.9727c0.2417-0.5898,0.604-1.042,1.0869-1.3564s1.0229-0.4717,1.6201-0.4717
				c0.4375,0,0.8271,0.0918,1.1689,0.2773c0.3418,0.1836,0.6196,0.4248,0.834,0.7207v-3.5957h1.2236v10.0215H101.8658z
				 M97.9761,105.092c0,0.9297,0.1958,1.625,0.5879,2.085s0.8545,0.6904,1.3877,0.6904c0.5376,0,0.9946-0.2197,1.3706-0.6602
				c0.376-0.4395,0.564-1.1104,0.564-2.0127c0-0.9932-0.1914-1.7227-0.5742-2.1875s-0.8545-0.6973-1.415-0.6973
				c-0.5469,0-1.0039,0.2236-1.3706,0.6699S97.9761,104.1301,97.9761,105.092z"/>
			<path style="fill:#FFFFFF;" d="M109.9117,106.3771l1.2715,0.1572c-0.2007,0.7432-0.5718,1.3193-1.1143,1.7295
				s-1.2349,0.6152-2.0781,0.6152c-1.062,0-1.9038-0.3271-2.5259-0.9805c-0.6221-0.6543-0.9331-1.5713-0.9331-2.752
				c0-1.2217,0.3145-2.1689,0.9434-2.8438s1.4448-1.0117,2.4473-1.0117c0.9707,0,1.7637,0.3301,2.3789,0.9912
				s0.9229,1.5908,0.9229,2.7891c0,0.0732-0.0024,0.1826-0.0068,0.3281h-5.4141c0.0454,0.7979,0.271,1.4082,0.6768,1.832
				s0.9116,0.6357,1.5176,0.6357c0.4512,0,0.8364-0.1182,1.1553-0.3555S109.7246,106.8967,109.9117,106.3771z M105.8716,104.3879
				h4.0537c-0.0547-0.6104-0.2095-1.0684-0.4648-1.374c-0.3921-0.4736-0.8999-0.7109-1.5244-0.7109
				c-0.5649,0-1.04,0.1895-1.4253,0.5674S105.9126,103.7541,105.8716,104.3879z"/>
			<path style="fill:#FFFFFF;" d="M121.3277,108.715v-0.916c-0.4604,0.7197-1.1372,1.0801-2.0303,1.0801
				c-0.5786,0-1.1108-0.1592-1.5962-0.4785s-0.8613-0.7646-1.1279-1.3359c-0.2666-0.5723-0.3999-1.2295-0.3999-1.9727
				c0-0.7246,0.1206-1.3818,0.3623-1.9727c0.2417-0.5898,0.604-1.042,1.0869-1.3564s1.0229-0.4717,1.6201-0.4717
				c0.4375,0,0.8271,0.0918,1.1689,0.2773c0.3418,0.1836,0.6196,0.4248,0.834,0.7207v-3.5957h1.2236v10.0215H121.3277z
				 M117.438,105.092c0,0.9297,0.1958,1.625,0.5879,2.085s0.8545,0.6904,1.3877,0.6904c0.5376,0,0.9946-0.2197,1.3706-0.6602
				c0.376-0.4395,0.564-1.1104,0.564-2.0127c0-0.9932-0.1914-1.7227-0.5742-2.1875s-0.8545-0.6973-1.415-0.6973
				c-0.5469,0-1.0039,0.2236-1.3706,0.6699S117.438,104.1301,117.438,105.092z"/>
			<path style="fill:#FFFFFF;" d="M129.1412,107.8195c-0.4556,0.3877-0.8945,0.6611-1.3159,0.8203
				c-0.4214,0.1592-0.874,0.2393-1.3569,0.2393c-0.7974,0-1.4106-0.1953-1.8389-0.584c-0.4282-0.3906-0.6426-0.8877-0.6426-1.4941
				c0-0.3555,0.0811-0.6797,0.2427-0.9746c0.1616-0.293,0.3735-0.5293,0.6357-0.707s0.5571-0.3125,0.8853-0.4033
				c0.2417-0.0635,0.606-0.125,1.0938-0.1846c0.9937-0.1182,1.7251-0.2598,2.1943-0.4238c0.0044-0.1689,0.0068-0.2754,0.0068-0.3213
				c0-0.501-0.1162-0.8545-0.3486-1.0596c-0.3145-0.2783-0.7817-0.417-1.4014-0.417c-0.5786,0-1.0059,0.1016-1.2817,0.3037
				c-0.2759,0.2031-0.4795,0.5625-0.6118,1.0771l-1.2031-0.1641c0.1094-0.5146,0.2896-0.9307,0.54-1.2471
				c0.2505-0.3174,0.6128-0.5605,1.0869-0.7324c0.4741-0.1699,1.0229-0.2559,1.6475-0.2559c0.6196,0,1.1235,0.0732,1.5107,0.2188
				s0.6724,0.3291,0.8545,0.5508c0.1821,0.2207,0.3101,0.5,0.3828,0.8369c0.041,0.21,0.0615,0.5879,0.0615,1.1348v1.6406
				c0,1.1436,0.0264,1.8672,0.0786,2.1709c0.0522,0.3027,0.1563,0.5928,0.311,0.8711h-1.2852
				C129.2598,108.4601,129.1778,108.1613,129.1412,107.8195z M129.0386,105.0715c-0.4468,0.1826-1.1167,0.3369-2.0098,0.4648
				c-0.5059,0.0732-0.8638,0.1553-1.0732,0.2461s-0.3716,0.2246-0.4854,0.3994c-0.1138,0.1758-0.1709,0.3711-0.1709,0.585
				c0,0.3281,0.124,0.6016,0.3726,0.8203s0.6118,0.3281,1.0903,0.3281c0.4741,0,0.8955-0.1035,1.2647-0.3115
				c0.3691-0.207,0.6401-0.4902,0.8135-0.8506c0.1323-0.2783,0.1982-0.6885,0.1982-1.2305V105.0715z"/>
			<path style="fill:#FFFFFF;" d="M134.8765,107.6144l0.1777,1.0869c-0.3462,0.0732-0.6563,0.1094-0.9297,0.1094
				c-0.4468,0-0.793-0.0703-1.0391-0.2119s-0.4194-0.3271-0.5195-0.5576c-0.1001-0.2295-0.1504-0.7139-0.1504-1.4521v-4.1768
				h-0.9023v-0.957h0.9023v-1.7979l1.2236-0.7383v2.5361h1.2373v0.957h-1.2373v4.2451c0,0.3506,0.0215,0.5762,0.0649,0.6768
				s0.1138,0.1797,0.2119,0.2393s0.2383,0.0889,0.4204,0.0889C134.4732,107.6623,134.6534,107.6467,134.8765,107.6144z"/>
			<path style="fill:#FFFFFF;" d="M135.6216,105.0851c0-1.3447,0.3735-2.3398,1.1211-2.9873
				c0.6245-0.5381,1.3853-0.8066,2.2832-0.8066c0.998,0,1.814,0.3271,2.4473,0.9805c0.6333,0.6543,0.9502,1.5576,0.9502,2.7109
				c0,0.9346-0.1401,1.6689-0.4204,2.2051c-0.2803,0.5352-0.688,0.9512-1.2236,1.2471s-1.1201,0.4443-1.7534,0.4443
				c-1.0161,0-1.8379-0.3262-2.4644-0.9775S135.6216,106.3107,135.6216,105.0851z M136.8863,105.0851
				c0,0.9297,0.2026,1.626,0.6084,2.0889c0.4058,0.4619,0.916,0.6934,1.5313,0.6934c0.6108,0,1.1187-0.2324,1.5244-0.6973
				s0.6084-1.1738,0.6084-2.126c0-0.8975-0.2041-1.5781-0.6118-2.04c-0.4077-0.4629-0.915-0.6943-1.521-0.6943
				c-0.6152,0-1.1255,0.2305-1.5313,0.6904S136.8863,104.1554,136.8863,105.0851z"/>
			<path style="fill:#FFFFFF;" d="M144.1871,108.715v-1.4014h1.4014v1.4014c0,0.5146-0.0913,0.9307-0.2734,1.248
				c-0.1821,0.3164-0.4717,0.5615-0.8682,0.7344l-0.3418-0.5264c0.2598-0.1143,0.4512-0.2813,0.5742-0.5029
				c0.123-0.2207,0.1914-0.5381,0.2051-0.9531H144.1871z"/>
			<path style="fill:#FFFFFF;" d="M151.6519,100.1086v-1.415h1.2305v1.415H151.6519z M151.6519,108.715v-7.2598h1.2305v7.2598
				H151.6519z"/>
			<path style="fill:#FFFFFF;" d="M154.7554,108.715v-7.2598h1.1074v1.0322c0.5332-0.7979,1.3032-1.1963,2.3105-1.1963
				c0.4375,0,0.8398,0.0781,1.2065,0.2363c0.3667,0.1563,0.6416,0.3633,0.8237,0.6182s0.3101,0.5586,0.3828,0.9092
				c0.0454,0.2275,0.0684,0.627,0.0684,1.1963v4.4639h-1.2305v-4.416c0-0.501-0.0479-0.876-0.1436-1.125
				c-0.0957-0.248-0.2656-0.4463-0.5093-0.5938c-0.2437-0.1484-0.5298-0.2227-0.8579-0.2227c-0.5239,0-0.9766,0.166-1.3569,0.499
				s-0.5708,0.9639-0.5708,1.8936v3.9648H154.7554z"/>
			<path style="fill:#FFFFFF;" d="M162.8355,108.715v-6.3027h-1.0869v-0.957h1.0869v-0.7725c0-0.4873,0.0435-0.8496,0.1299-1.0869
				c0.1187-0.3193,0.3271-0.5781,0.6255-0.7754c0.2983-0.1992,0.7168-0.2979,1.2544-0.2979c0.3462,0,0.729,0.041,1.1484,0.123
				l-0.1846,1.0732c-0.2554-0.0459-0.4966-0.0684-0.7246-0.0684c-0.3735,0-0.6382,0.0801-0.793,0.2393s-0.2324,0.458-0.2324,0.8955
				v0.6699h1.415v0.957h-1.415v6.3027H162.8355z"/>
			<path style="fill:#FFFFFF;" d="M165.9732,105.0851c0-1.3447,0.3735-2.3398,1.1211-2.9873
				c0.6245-0.5381,1.3853-0.8066,2.2832-0.8066c0.998,0,1.814,0.3271,2.4473,0.9805c0.6333,0.6543,0.9502,1.5576,0.9502,2.7109
				c0,0.9346-0.1401,1.6689-0.4204,2.2051c-0.2803,0.5352-0.688,0.9512-1.2236,1.2471s-1.1201,0.4443-1.7534,0.4443
				c-1.0161,0-1.8379-0.3262-2.4644-0.9775S165.9732,106.3107,165.9732,105.0851z M167.2378,105.0851
				c0,0.9297,0.2026,1.626,0.6084,2.0889c0.4058,0.4619,0.916,0.6934,1.5313,0.6934c0.6108,0,1.1187-0.2324,1.5244-0.6973
				s0.6084-1.1738,0.6084-2.126c0-0.8975-0.2041-1.5781-0.6118-2.04c-0.4077-0.4629-0.915-0.6943-1.521-0.6943
				c-0.6152,0-1.1255,0.2305-1.5313,0.6904S167.2378,104.1554,167.2378,105.0851z"/>
			<path style="fill:#FFFFFF;" d="M174.2037,108.715v-7.2598h1.1074v1.1006c0.2827-0.5146,0.5435-0.8545,0.7827-1.0186
				s0.5024-0.2461,0.7896-0.2461c0.4146,0,0.8364,0.1318,1.2646,0.3965l-0.4238,1.1416c-0.3008-0.1777-0.6016-0.2666-0.9023-0.2666
				c-0.269,0-0.5103,0.0811-0.7246,0.2422c-0.2144,0.1621-0.3667,0.3867-0.458,0.6738c-0.1367,0.4375-0.2051,0.916-0.2051,1.4355
				v3.8008H174.2037z"/>
			<path style="fill:#FFFFFF;" d="M178.8794,108.715v-7.2598h1.1006v1.0186c0.228-0.3555,0.5308-0.6416,0.9092-0.8584
				c0.3784-0.2158,0.8091-0.3242,1.292-0.3242c0.5376,0,0.9785,0.1113,1.3228,0.335s0.5869,0.5352,0.728,0.9365
				c0.5742-0.8477,1.3218-1.2715,2.2422-1.2715c0.7202,0,1.2739,0.1992,1.6611,0.5977c0.3872,0.3994,0.5811,1.0137,0.5811,1.8428
				v4.9834h-1.2236v-4.5732c0-0.4922-0.04-0.8467-0.1196-1.0635c-0.0796-0.2158-0.2246-0.3906-0.4341-0.5225
				s-0.4556-0.1982-0.7383-0.1982c-0.5103,0-0.9341,0.1699-1.2715,0.5098c-0.3374,0.3389-0.5059,0.8828-0.5059,1.6299v4.2178
				h-1.2305v-4.7168c0-0.5469-0.1001-0.957-0.3008-1.2305s-0.5288-0.4102-0.9844-0.4102c-0.3462,0-0.6665,0.0908-0.9604,0.2734
				s-0.5068,0.4492-0.6392,0.7998s-0.1982,0.8564-0.1982,1.5176v3.7666H178.8794z"/>
			<path style="fill:#FFFFFF;" d="M195.2789,107.8195c-0.4556,0.3877-0.8945,0.6611-1.3159,0.8203s-0.874,0.2393-1.3569,0.2393
				c-0.7974,0-1.4106-0.1953-1.8389-0.584c-0.4282-0.3906-0.6426-0.8877-0.6426-1.4941c0-0.3555,0.0811-0.6797,0.2427-0.9746
				c0.1616-0.293,0.3735-0.5293,0.6357-0.707s0.5571-0.3125,0.8853-0.4033c0.2417-0.0635,0.606-0.125,1.0938-0.1846
				c0.9937-0.1182,1.7251-0.2598,2.1943-0.4238c0.0044-0.1689,0.0068-0.2754,0.0068-0.3213c0-0.501-0.1162-0.8545-0.3486-1.0596
				c-0.3145-0.2783-0.7817-0.417-1.4014-0.417c-0.5786,0-1.0059,0.1016-1.2817,0.3037c-0.2759,0.2031-0.4795,0.5625-0.6118,1.0771
				l-1.2031-0.1641c0.1094-0.5146,0.2896-0.9307,0.54-1.2471c0.2505-0.3174,0.6128-0.5605,1.0869-0.7324
				c0.4741-0.1699,1.0229-0.2559,1.6475-0.2559c0.6196,0,1.1235,0.0732,1.5107,0.2188s0.6724,0.3291,0.8545,0.5508
				c0.1821,0.2207,0.3101,0.5,0.3828,0.8369c0.041,0.21,0.0615,0.5879,0.0615,1.1348v1.6406c0,1.1436,0.0264,1.8672,0.0786,2.1709
				c0.0522,0.3027,0.1563,0.5928,0.311,0.8711h-1.2852C195.3975,108.4601,195.3155,108.1613,195.2789,107.8195z M195.1763,105.0715
				c-0.4468,0.1826-1.1167,0.3369-2.0098,0.4648c-0.5059,0.0732-0.8638,0.1553-1.0732,0.2461s-0.3716,0.2246-0.4854,0.3994
				c-0.1138,0.1758-0.1709,0.3711-0.1709,0.585c0,0.3281,0.124,0.6016,0.3726,0.8203s0.6118,0.3281,1.0903,0.3281
				c0.4741,0,0.8955-0.1035,1.2646-0.3115c0.3691-0.207,0.6401-0.4902,0.8135-0.8506c0.1323-0.2783,0.1982-0.6885,0.1982-1.2305
				V105.0715z"/>
			<path style="fill:#FFFFFF;" d="M203.065,106.0558l1.21,0.1572c-0.1323,0.834-0.4707,1.4863-1.0151,1.959
				c-0.5444,0.4707-1.2134,0.707-2.0063,0.707c-0.9937,0-1.792-0.3242-2.396-0.9746c-0.604-0.6484-0.9058-1.5801-0.9058-2.792
				c0-0.7842,0.1299-1.4697,0.3896-2.0576s0.6553-1.0293,1.186-1.3223c0.5308-0.2949,1.1084-0.4414,1.7329-0.4414
				c0.7886,0,1.4331,0.1992,1.9346,0.5977c0.5015,0.3994,0.8228,0.9658,0.9639,1.6992l-1.1963,0.1846
				c-0.1138-0.4873-0.3154-0.8545-0.605-1.1006s-0.6392-0.3691-1.0493-0.3691c-0.6196,0-1.1235,0.2227-1.5107,0.666
				c-0.3872,0.4453-0.5811,1.1475-0.5811,2.1094c0,0.9756,0.187,1.6836,0.5605,2.126s0.8613,0.6631,1.4629,0.6631
				c0.4829,0,0.8862-0.1484,1.21-0.4443S202.9786,106.6711,203.065,106.0558z"/>
			<path style="fill:#FFFFFF;" d="M205.3345,100.1086v-1.415h1.2305v1.415H205.3345z M205.3345,108.715v-7.2598h1.2305v7.2598
				H205.3345z"/>
			<path style="fill:#FFFFFF;" d="M207.98,105.0851c0-1.3447,0.3735-2.3398,1.1211-2.9873
				c0.6245-0.5381,1.3853-0.8066,2.2832-0.8066c0.998,0,1.814,0.3271,2.4473,0.9805c0.6333,0.6543,0.9502,1.5576,0.9502,2.7109
				c0,0.9346-0.1401,1.6689-0.4204,2.2051c-0.2803,0.5352-0.688,0.9512-1.2236,1.2471s-1.1201,0.4443-1.7534,0.4443
				c-1.0161,0-1.8379-0.3262-2.4644-0.9775S207.98,106.3107,207.98,105.0851z M209.2447,105.0851
				c0,0.9297,0.2026,1.626,0.6084,2.0889c0.4058,0.4619,0.916,0.6934,1.5313,0.6934c0.6108,0,1.1187-0.2324,1.5244-0.6973
				s0.6084-1.1738,0.6084-2.126c0-0.8975-0.2041-1.5781-0.6118-2.04c-0.4077-0.4629-0.915-0.6943-1.521-0.6943
				c-0.6152,0-1.1255,0.2305-1.5313,0.6904S209.2447,104.1554,209.2447,105.0851z M210.7007,100.5529l0.9092-1.9141h1.6133
				l-1.5039,1.9141H210.7007z"/>
			<path style="fill:#FFFFFF;" d="M216.2242,108.715v-7.2598h1.1074v1.0322c0.5332-0.7979,1.3032-1.1963,2.3105-1.1963
				c0.4375,0,0.8398,0.0781,1.2065,0.2363c0.3667,0.1563,0.6416,0.3633,0.8237,0.6182s0.3101,0.5586,0.3828,0.9092
				c0.0454,0.2275,0.0684,0.627,0.0684,1.1963v4.4639h-1.2305v-4.416c0-0.501-0.0479-0.876-0.1436-1.125
				c-0.0957-0.248-0.2656-0.4463-0.5093-0.5938c-0.2437-0.1484-0.5298-0.2227-0.8579-0.2227c-0.5239,0-0.9766,0.166-1.3569,0.499
				s-0.5708,0.9639-0.5708,1.8936v3.9648H216.2242z"/>
			<path style="fill:#FFFFFF;" d="M31.7359,125.5109l-0.1367-1.1553c0.269,0.0732,0.5034,0.1094,0.7041,0.1094
				c0.2734,0,0.4922-0.0459,0.6563-0.1367s0.2983-0.2188,0.4033-0.3828c0.0776-0.123,0.2026-0.4287,0.376-0.916
				c0.0229-0.0684,0.0591-0.1689,0.1094-0.3008l-2.7549-7.2734h1.3262l1.5107,4.2041c0.1958,0.5332,0.3716,1.0938,0.5264,1.6816
				c0.1411-0.5654,0.3101-1.1162,0.5059-1.6543l1.5518-4.2314h1.2305l-2.7617,7.3828c-0.2964,0.7979-0.5264,1.3467-0.6904,1.6475
				c-0.2188,0.4053-0.4692,0.7031-0.752,0.8916c-0.2827,0.1895-0.6196,0.2842-1.0117,0.2842
				C32.292,125.6613,32.0274,125.6115,31.7359,125.5109z"/>
			<path style="fill:#FFFFFF;" d="M47.4175,120.0558l1.21,0.1572c-0.1323,0.834-0.4707,1.4863-1.0151,1.959
				c-0.5444,0.4707-1.2134,0.707-2.0063,0.707c-0.9937,0-1.792-0.3242-2.396-0.9746c-0.604-0.6484-0.9058-1.5801-0.9058-2.792
				c0-0.7842,0.1299-1.4697,0.3896-2.0576s0.6553-1.0293,1.186-1.3223c0.5308-0.2949,1.1084-0.4414,1.7329-0.4414
				c0.7886,0,1.4331,0.1992,1.9346,0.5977c0.5015,0.3994,0.8228,0.9658,0.9639,1.6992l-1.1963,0.1846
				c-0.1138-0.4873-0.3154-0.8545-0.605-1.1006s-0.6392-0.3691-1.0493-0.3691c-0.6196,0-1.1235,0.2227-1.5107,0.666
				c-0.3872,0.4453-0.5811,1.1475-0.5811,2.1094c0,0.9756,0.187,1.6836,0.5605,2.126s0.8613,0.6631,1.4629,0.6631
				c0.4829,0,0.8862-0.1484,1.21-0.4443S47.3311,120.6711,47.4175,120.0558z"/>
			<path style="fill:#FFFFFF;" d="M49.2222,119.0851c0-1.3447,0.3735-2.3398,1.1211-2.9873
				c0.6245-0.5381,1.3853-0.8066,2.2832-0.8066c0.998,0,1.814,0.3271,2.4473,0.9805c0.6333,0.6543,0.9502,1.5576,0.9502,2.7109
				c0,0.9346-0.1401,1.6689-0.4204,2.2051c-0.2803,0.5352-0.688,0.9512-1.2236,1.2471s-1.1201,0.4443-1.7534,0.4443
				c-1.0161,0-1.8379-0.3262-2.4644-0.9775S49.2222,120.3107,49.2222,119.0851z M50.4869,119.0851
				c0,0.9297,0.2026,1.626,0.6084,2.0889c0.4058,0.4619,0.916,0.6934,1.5313,0.6934c0.6108,0,1.1187-0.2324,1.5244-0.6973
				s0.6084-1.1738,0.6084-2.126c0-0.8975-0.2041-1.5781-0.6118-2.04c-0.4077-0.4629-0.915-0.6943-1.521-0.6943
				c-0.6152,0-1.1255,0.2305-1.5313,0.6904S50.4869,118.1554,50.4869,119.0851z"/>
			<path style="fill:#FFFFFF;" d="M57.4664,122.715v-7.2598h1.1074v1.0322c0.5332-0.7979,1.3032-1.1963,2.3105-1.1963
				c0.4375,0,0.8398,0.0781,1.2065,0.2363c0.3667,0.1563,0.6416,0.3633,0.8237,0.6182s0.3101,0.5586,0.3828,0.9092
				c0.0454,0.2275,0.0684,0.627,0.0684,1.1963v4.4639h-1.2305v-4.416c0-0.501-0.0479-0.876-0.1436-1.125
				c-0.0957-0.248-0.2656-0.4463-0.5093-0.5938c-0.2437-0.1484-0.5298-0.2227-0.8579-0.2227c-0.5239,0-0.9766,0.166-1.3569,0.499
				s-0.5708,0.9639-0.5708,1.8936v3.9648H57.4664z"/>
			<path style="fill:#FFFFFF;" d="M64.7945,119.0851c0-1.3447,0.3735-2.3398,1.1211-2.9873
				c0.6245-0.5381,1.3853-0.8066,2.2832-0.8066c0.998,0,1.814,0.3271,2.4473,0.9805c0.6333,0.6543,0.9502,1.5576,0.9502,2.7109
				c0,0.9346-0.1401,1.6689-0.4204,2.2051c-0.2803,0.5352-0.688,0.9512-1.2236,1.2471s-1.1201,0.4443-1.7534,0.4443
				c-1.0161,0-1.8379-0.3262-2.4644-0.9775S64.7945,120.3107,64.7945,119.0851z M66.0591,119.0851
				c0,0.9297,0.2026,1.626,0.6084,2.0889c0.4058,0.4619,0.916,0.6934,1.5313,0.6934c0.6108,0,1.1187-0.2324,1.5244-0.6973
				s0.6084-1.1738,0.6084-2.126c0-0.8975-0.2041-1.5781-0.6118-2.04c-0.4077-0.4629-0.915-0.6943-1.521-0.6943
				c-0.6152,0-1.1255,0.2305-1.5313,0.6904S66.0591,118.1554,66.0591,119.0851z"/>
			<path style="fill:#FFFFFF;" d="M77.7759,120.0558l1.21,0.1572c-0.1323,0.834-0.4707,1.4863-1.0151,1.959
				c-0.5444,0.4707-1.2134,0.707-2.0063,0.707c-0.9937,0-1.792-0.3242-2.396-0.9746c-0.604-0.6484-0.9058-1.5801-0.9058-2.792
				c0-0.7842,0.1299-1.4697,0.3896-2.0576s0.6553-1.0293,1.186-1.3223c0.5308-0.2949,1.1084-0.4414,1.7329-0.4414
				c0.7886,0,1.4331,0.1992,1.9346,0.5977c0.5015,0.3994,0.8228,0.9658,0.9639,1.6992l-1.1963,0.1846
				c-0.1138-0.4873-0.3154-0.8545-0.605-1.1006s-0.6392-0.3691-1.0493-0.3691c-0.6196,0-1.1235,0.2227-1.5107,0.666
				c-0.3872,0.4453-0.5811,1.1475-0.5811,2.1094c0,0.9756,0.187,1.6836,0.5605,2.126s0.8613,0.6631,1.4629,0.6631
				c0.4829,0,0.8862-0.1484,1.21-0.4443S77.6895,120.6711,77.7759,120.0558z"/>
			<path style="fill:#FFFFFF;" d="M80.0454,114.1086v-1.415h1.2305v1.415H80.0454z M80.0454,122.715v-7.2598h1.2305v7.2598H80.0454z
				"/>
			<path style="fill:#FFFFFF;" d="M83.149,122.715v-7.2598h1.1006v1.0186c0.228-0.3555,0.5308-0.6416,0.9092-0.8584
				c0.3784-0.2158,0.8091-0.3242,1.292-0.3242c0.5376,0,0.9785,0.1113,1.3228,0.335s0.5869,0.5352,0.728,0.9365
				c0.5742-0.8477,1.3218-1.2715,2.2422-1.2715c0.7202,0,1.2739,0.1992,1.6611,0.5977c0.3872,0.3994,0.5811,1.0137,0.5811,1.8428
				v4.9834h-1.2236v-4.5732c0-0.4922-0.04-0.8467-0.1196-1.0635c-0.0796-0.2158-0.2246-0.3906-0.4341-0.5225
				s-0.4556-0.1982-0.7383-0.1982c-0.5103,0-0.9341,0.1699-1.2715,0.5098c-0.3374,0.3389-0.5059,0.8828-0.5059,1.6299v4.2178
				h-1.2305v-4.7168c0-0.5469-0.1001-0.957-0.3008-1.2305s-0.5288-0.4102-0.9844-0.4102c-0.3462,0-0.6665,0.0908-0.9604,0.2734
				s-0.5068,0.4492-0.6392,0.7998s-0.1982,0.8564-0.1982,1.5176v3.7666H83.149z"/>
			<path style="fill:#FFFFFF;" d="M94.8179,114.1086v-1.415h1.2305v1.415H94.8179z M94.8179,122.715v-7.2598h1.2305v7.2598H94.8179z
				"/>
			<path style="fill:#FFFFFF;" d="M102.8912,120.3771l1.2715,0.1572c-0.2007,0.7432-0.5718,1.3193-1.1143,1.7295
				s-1.2349,0.6152-2.0781,0.6152c-1.062,0-1.9038-0.3271-2.5259-0.9805c-0.6221-0.6543-0.9331-1.5713-0.9331-2.752
				c0-1.2217,0.3145-2.1689,0.9434-2.8438s1.4448-1.0117,2.4473-1.0117c0.9707,0,1.7637,0.3301,2.3789,0.9912
				s0.9229,1.5908,0.9229,2.7891c0,0.0732-0.0024,0.1826-0.0068,0.3281h-5.4141c0.0454,0.7979,0.271,1.4082,0.6768,1.832
				s0.9116,0.6357,1.5176,0.6357c0.4512,0,0.8364-0.1182,1.1553-0.3555S102.7041,120.8967,102.8912,120.3771z M98.8511,118.3879
				h4.0537c-0.0547-0.6104-0.2095-1.0684-0.4648-1.374c-0.3921-0.4736-0.8999-0.7109-1.5244-0.7109
				c-0.5649,0-1.04,0.1895-1.4253,0.5674S98.8921,117.7541,98.8511,118.3879z"/>
			<path style="fill:#FFFFFF;" d="M105.7076,122.715v-7.2598h1.1074v1.0322c0.5332-0.7979,1.3032-1.1963,2.3105-1.1963
				c0.4375,0,0.8398,0.0781,1.2065,0.2363c0.3667,0.1563,0.6416,0.3633,0.8237,0.6182s0.3101,0.5586,0.3828,0.9092
				c0.0454,0.2275,0.0684,0.627,0.0684,1.1963v4.4639h-1.2305v-4.416c0-0.501-0.0479-0.876-0.1436-1.125
				c-0.0957-0.248-0.2656-0.4463-0.5093-0.5938c-0.2437-0.1484-0.5298-0.2227-0.8579-0.2227c-0.5239,0-0.9766,0.166-1.3569,0.499
				s-0.5708,0.9639-0.5708,1.8936v3.9648H105.7076z"/>
			<path style="fill:#FFFFFF;" d="M116.1802,121.6144l0.1777,1.0869c-0.3462,0.0732-0.6563,0.1094-0.9297,0.1094
				c-0.4468,0-0.793-0.0703-1.0391-0.2119s-0.4194-0.3271-0.5195-0.5576c-0.1001-0.2295-0.1504-0.7139-0.1504-1.4521v-4.1768
				h-0.9023v-0.957h0.9023v-1.7979l1.2236-0.7383v2.5361h1.2373v0.957h-1.2373v4.2451c0,0.3506,0.0215,0.5762,0.0649,0.6768
				s0.1138,0.1797,0.2119,0.2393s0.2383,0.0889,0.4204,0.0889C115.7769,121.6623,115.9571,121.6467,116.1802,121.6144z"/>
			<path style="fill:#FFFFFF;" d="M116.9253,119.0851c0-1.3447,0.3735-2.3398,1.1211-2.9873
				c0.6245-0.5381,1.3853-0.8066,2.2832-0.8066c0.998,0,1.814,0.3271,2.4473,0.9805c0.6333,0.6543,0.9502,1.5576,0.9502,2.7109
				c0,0.9346-0.1401,1.6689-0.4204,2.2051c-0.2803,0.5352-0.688,0.9512-1.2236,1.2471s-1.1201,0.4443-1.7534,0.4443
				c-1.0161,0-1.8379-0.3262-2.4644-0.9775S116.9253,120.3107,116.9253,119.0851z M118.19,119.0851
				c0,0.9297,0.2026,1.626,0.6084,2.0889c0.4058,0.4619,0.916,0.6934,1.5313,0.6934c0.6108,0,1.1187-0.2324,1.5244-0.6973
				s0.6084-1.1738,0.6084-2.126c0-0.8975-0.2041-1.5781-0.6118-2.04c-0.4077-0.4629-0.915-0.6943-1.521-0.6943
				c-0.6152,0-1.1255,0.2305-1.5313,0.6904S118.19,118.1554,118.19,119.0851z"/>
		</g>
	</g>
	<g id="XMLID_60_">
		<polygon id="XMLID_4409_" style="fill:none;stroke:#FFFFFF;stroke-miterlimit:10;" points="17.3572,252.7416 18.7361,257.4139 
			23.867,257.4916 19.8846,260.3265 21.3396,265.1498 17.4363,262.2421 13.2996,265.1498 14.8299,260.557 10.7732,257.4916 
			15.6727,257.5682 		"/>
		<polygon id="XMLID_4407_" style="fill-rule:evenodd;clip-rule:evenodd;fill:none;stroke:#FFFFFF;stroke-miterlimit:10;" points="
			17.3572,283.2754 18.7361,287.9477 23.867,288.0254 19.8846,290.8603 21.3396,295.6836 17.4363,292.7759 13.2996,295.6836 
			14.8299,291.0908 10.7732,288.0254 15.6727,288.102 		"/>
		
			<line id="XMLID_4239_" style="fill:none;stroke:#FFFFFF;stroke-miterlimit:10;" x1="11.6119" y1="274.8624" x2="233.611" y2="274.8624"/>
		<g>
			<path style="fill:#FFFFFF;" d="M31.9068,264.1486v-10.0215h1.9961l2.3721,7.0957c0.2188,0.6611,0.3784,1.1553,0.4785,1.4834
				c0.1138-0.3643,0.2915-0.9004,0.5332-1.6064l2.3994-6.9726h1.7842v10.0215h-1.2783v-8.3877l-2.9121,8.3877h-1.1963
				l-2.8984-8.5312v8.5312H31.9068z"/>
			<path style="fill:#FFFFFF;" d="M48.4224,261.8107l1.2715,0.1572c-0.2007,0.7432-0.5718,1.3193-1.1143,1.7295
				s-1.2349,0.6152-2.0781,0.6152c-1.062,0-1.9038-0.3271-2.5259-0.9805c-0.6221-0.6543-0.9331-1.5713-0.9331-2.752
				c0-1.2217,0.3145-2.1689,0.9434-2.8438s1.4448-1.0117,2.4473-1.0117c0.9707,0,1.7637,0.3301,2.3789,0.9912
				s0.9229,1.5908,0.9229,2.7891c0,0.0732-0.0024,0.1826-0.0068,0.3281H44.314c0.0454,0.7979,0.271,1.4082,0.6768,1.832
				s0.9116,0.6357,1.5176,0.6357c0.4512,0,0.8364-0.1182,1.1553-0.3555S48.2354,262.3302,48.4224,261.8107z M44.3824,259.8214
				h4.0537c-0.0547-0.6104-0.2095-1.0684-0.4648-1.374c-0.3921-0.4736-0.8999-0.7109-1.5244-0.7109
				c-0.5649,0-1.04,0.1895-1.4253,0.5674S44.4234,259.1877,44.3824,259.8214z M45.7085,255.9865l0.9092-1.9141h1.6133
				l-1.5039,1.9141H45.7085z"/>
			<path style="fill:#FFFFFF;" d="M53.9253,263.048l0.1777,1.0869c-0.3462,0.0732-0.6563,0.1094-0.9297,0.1094
				c-0.4468,0-0.793-0.0703-1.0391-0.2119s-0.4194-0.3271-0.5195-0.5576c-0.1001-0.2295-0.1504-0.7139-0.1504-1.4521v-4.1768
				h-0.9023v-0.957h0.9023v-1.7978l1.2236-0.7383v2.5361h1.2373v0.957H52.688v4.2451c0,0.3506,0.0215,0.5762,0.0649,0.6768
				s0.1138,0.1797,0.2119,0.2393s0.2383,0.0889,0.4204,0.0889C53.522,263.0959,53.7022,263.0802,53.9253,263.048z"/>
			<path style="fill:#FFFFFF;" d="M54.6705,260.5187c0-1.3447,0.3735-2.3398,1.1211-2.9873
				c0.6245-0.5381,1.3853-0.8066,2.2832-0.8066c0.998,0,1.814,0.3271,2.4473,0.9805c0.6333,0.6543,0.9502,1.5576,0.9502,2.7109
				c0,0.9346-0.1401,1.6689-0.4204,2.2051c-0.2803,0.5352-0.688,0.9512-1.2236,1.2471s-1.1201,0.4443-1.7534,0.4443
				c-1.0161,0-1.8379-0.3262-2.4644-0.9775S54.6705,261.7443,54.6705,260.5187z M55.9351,260.5187
				c0,0.9297,0.2026,1.626,0.6084,2.0889c0.4058,0.4619,0.916,0.6934,1.5313,0.6934c0.6108,0,1.1187-0.2324,1.5244-0.6973
				s0.6084-1.1738,0.6084-2.126c0-0.8975-0.2041-1.5781-0.6118-2.04c-0.4077-0.4629-0.915-0.6943-1.521-0.6943
				c-0.6152,0-1.1255,0.2305-1.5313,0.6904S55.9351,259.589,55.9351,260.5187z"/>
			<path style="fill:#FFFFFF;" d="M67.6245,264.1486v-0.916c-0.4604,0.7197-1.1372,1.0801-2.0303,1.0801
				c-0.5786,0-1.1108-0.1592-1.5962-0.4785c-0.4854-0.3193-0.8613-0.7646-1.1279-1.3359c-0.2666-0.5723-0.3999-1.2295-0.3999-1.9727
				c0-0.7246,0.1206-1.3818,0.3623-1.9727c0.2417-0.5898,0.604-1.042,1.0869-1.3564c0.4829-0.3145,1.0229-0.4717,1.6201-0.4717
				c0.4375,0,0.8271,0.0918,1.1689,0.2773c0.3418,0.1836,0.6196,0.4248,0.834,0.7207v-3.5957h1.2236v10.0215H67.6245z
				 M63.7349,260.5255c0,0.9297,0.1958,1.625,0.5879,2.085c0.3921,0.46,0.8545,0.6904,1.3877,0.6904
				c0.5376,0,0.9946-0.2197,1.3706-0.6602c0.376-0.4395,0.564-1.1104,0.564-2.0127c0-0.9932-0.1914-1.7227-0.5742-2.1875
				s-0.8545-0.6973-1.415-0.6973c-0.5469,0-1.0039,0.2236-1.3706,0.6699C63.9185,258.8595,63.7349,259.5636,63.7349,260.5255z"/>
			<path style="fill:#FFFFFF;" d="M70.2427,260.5187c0-1.3447,0.3735-2.3398,1.1211-2.9873
				c0.6245-0.5381,1.3853-0.8066,2.2832-0.8066c0.998,0,1.814,0.3271,2.4473,0.9805c0.6333,0.6543,0.9502,1.5576,0.9502,2.7109
				c0,0.9346-0.1401,1.6689-0.4204,2.2051c-0.2803,0.5352-0.688,0.9512-1.2236,1.2471s-1.1201,0.4443-1.7534,0.4443
				c-1.0161,0-1.8379-0.3262-2.4644-0.9775S70.2427,261.7443,70.2427,260.5187z M71.5074,260.5187
				c0,0.9297,0.2026,1.626,0.6084,2.0889c0.4058,0.4619,0.916,0.6934,1.5313,0.6934c0.6108,0,1.1187-0.2324,1.5244-0.6973
				s0.6084-1.1738,0.6084-2.126c0-0.8975-0.2041-1.5781-0.6118-2.04c-0.4077-0.4629-0.915-0.6943-1.521-0.6943
				c-0.6152,0-1.1255,0.2305-1.5313,0.6904S71.5074,259.589,71.5074,260.5187z"/>
			<path style="fill:#FFFFFF;" d="M77.9947,261.9816l1.2168-0.1914c0.0684,0.4873,0.2588,0.8613,0.5708,1.1211
				s0.7485,0.3896,1.3091,0.3896c0.5649,0,0.9844-0.1152,1.2578-0.3457c0.2734-0.2295,0.4102-0.5,0.4102-0.8096
				c0-0.2783-0.1206-0.4971-0.3623-0.6563c-0.1685-0.1094-0.5879-0.248-1.2578-0.417c-0.9023-0.2275-1.5278-0.4248-1.8765-0.5918
				c-0.3486-0.166-0.6128-0.3965-0.793-0.6895c-0.1802-0.2949-0.27-0.6191-0.27-0.9746c0-0.3232,0.0742-0.623,0.2222-0.8984
				c0.1479-0.2764,0.3496-0.5049,0.605-0.6875c0.1914-0.1416,0.4521-0.2607,0.7827-0.3594c0.3306-0.0977,0.6846-0.1465,1.063-0.1465
				c0.5698,0,1.0698,0.082,1.5005,0.2461s0.7485,0.3867,0.9536,0.666c0.2051,0.2813,0.3462,0.6553,0.4238,1.125l-1.2031,0.1641
				c-0.0547-0.374-0.2129-0.665-0.4751-0.875s-0.6323-0.3145-1.1108-0.3145c-0.5649,0-0.9683,0.0938-1.21,0.2803
				s-0.3623,0.4053-0.3623,0.6563c0,0.1592,0.0503,0.3027,0.1504,0.4307c0.1001,0.1318,0.2573,0.2412,0.4717,0.3281
				c0.123,0.0459,0.4854,0.1504,1.0869,0.3145c0.8706,0.2324,1.4775,0.4229,1.8218,0.5703
				c0.3442,0.1484,0.6143,0.3643,0.8101,0.6465s0.2939,0.6338,0.2939,1.0527c0,0.4102-0.1196,0.7969-0.3589,1.1582
				c-0.2393,0.3633-0.5845,0.6426-1.0356,0.8418c-0.4512,0.1973-0.9614,0.2969-1.5313,0.2969c-0.9434,0-1.6621-0.1963-2.1567-0.5879
				S78.1314,262.7521,77.9947,261.9816z"/>
			<path style="fill:#FFFFFF;" d="M89.3833,255.5422v-1.415h1.2305v1.415H89.3833z M89.3833,264.1486v-7.2598h1.2305v7.2598H89.3833
				z"/>
			<path style="fill:#FFFFFF;" d="M92.4869,264.1486v-7.2598h1.1074v1.0322c0.5332-0.7979,1.3032-1.1963,2.3105-1.1963
				c0.4375,0,0.8398,0.0781,1.2065,0.2363c0.3667,0.1563,0.6416,0.3633,0.8237,0.6182s0.3101,0.5586,0.3828,0.9092
				c0.0454,0.2275,0.0684,0.627,0.0684,1.1963v4.4639h-1.2305v-4.416c0-0.501-0.0479-0.876-0.1436-1.125
				c-0.0957-0.248-0.2656-0.4463-0.5093-0.5938c-0.2437-0.1484-0.5298-0.2227-0.8579-0.2227c-0.5239,0-0.9766,0.166-1.3569,0.499
				s-0.5708,0.9639-0.5708,1.8936v3.9648H92.4869z"/>
			<path style="fill:#FFFFFF;" d="M102.9595,263.048l0.1777,1.0869c-0.3462,0.0732-0.6563,0.1094-0.9297,0.1094
				c-0.4468,0-0.793-0.0703-1.0391-0.2119s-0.4194-0.3271-0.5195-0.5576c-0.1001-0.2295-0.1504-0.7139-0.1504-1.4521v-4.1768
				h-0.9023v-0.957h0.9023v-1.7978l1.2236-0.7383v2.5361h1.2373v0.957h-1.2373v4.2451c0,0.3506,0.0215,0.5762,0.0649,0.6768
				s0.1138,0.1797,0.2119,0.2393s0.2383,0.0889,0.4204,0.0889C102.5562,263.0959,102.7364,263.0802,102.9595,263.048z"/>
			<path style="fill:#FFFFFF;" d="M109.1324,261.8107l1.2715,0.1572c-0.2007,0.7432-0.5718,1.3193-1.1143,1.7295
				s-1.2349,0.6152-2.0781,0.6152c-1.062,0-1.9038-0.3271-2.5259-0.9805c-0.6221-0.6543-0.9331-1.5713-0.9331-2.752
				c0-1.2217,0.3145-2.1689,0.9434-2.8438s1.4448-1.0117,2.4473-1.0117c0.9707,0,1.7637,0.3301,2.3789,0.9912
				s0.9229,1.5908,0.9229,2.7891c0,0.0732-0.0024,0.1826-0.0068,0.3281h-5.4141c0.0454,0.7979,0.271,1.4082,0.6768,1.832
				s0.9116,0.6357,1.5176,0.6357c0.4512,0,0.8364-0.1182,1.1553-0.3555S108.9454,262.3302,109.1324,261.8107z M105.0923,259.8214
				h4.0537c-0.0547-0.6104-0.2095-1.0684-0.4648-1.374c-0.3921-0.4736-0.8999-0.7109-1.5244-0.7109
				c-0.5649,0-1.04,0.1895-1.4253,0.5674S105.1333,259.1877,105.0923,259.8214z"/>
			<path style="fill:#FFFFFF;" d="M111.9351,264.1486v-7.2598h1.1074v1.1006c0.2827-0.5146,0.5435-0.8545,0.7827-1.0186
				s0.5024-0.2461,0.7896-0.2461c0.4146,0,0.8364,0.1318,1.2646,0.3965l-0.4238,1.1416c-0.3008-0.1777-0.6016-0.2666-0.9023-0.2666
				c-0.269,0-0.5103,0.0811-0.7246,0.2422c-0.2144,0.1621-0.3667,0.3867-0.458,0.6738c-0.1367,0.4375-0.2051,0.916-0.2051,1.4355
				v3.8008H111.9351z"/>
			<path style="fill:#FFFFFF;" d="M121.3482,263.2531c-0.4556,0.3877-0.8945,0.6611-1.3159,0.8203s-0.874,0.2393-1.3569,0.2393
				c-0.7974,0-1.4106-0.1953-1.8389-0.584c-0.4282-0.3906-0.6426-0.8877-0.6426-1.4941c0-0.3555,0.0811-0.6797,0.2427-0.9746
				c0.1616-0.293,0.3735-0.5293,0.6357-0.707s0.5571-0.3125,0.8853-0.4033c0.2417-0.0635,0.606-0.125,1.0938-0.1846
				c0.9937-0.1182,1.7251-0.2598,2.1943-0.4238c0.0044-0.1689,0.0068-0.2754,0.0068-0.3213c0-0.501-0.1162-0.8545-0.3486-1.0596
				c-0.3145-0.2783-0.7817-0.417-1.4014-0.417c-0.5786,0-1.0059,0.1016-1.2817,0.3037c-0.2759,0.2031-0.4795,0.5625-0.6118,1.0771
				l-1.2031-0.1641c0.1094-0.5146,0.2896-0.9307,0.54-1.2471c0.2505-0.3174,0.6128-0.5605,1.0869-0.7324
				c0.4741-0.1699,1.0229-0.2559,1.6475-0.2559c0.6196,0,1.1235,0.0732,1.5107,0.2188s0.6724,0.3291,0.8545,0.5508
				c0.1821,0.2207,0.3101,0.5,0.3828,0.8369c0.041,0.21,0.0615,0.5879,0.0615,1.1348v1.6406c0,1.1436,0.0264,1.8672,0.0786,2.1709
				c0.0522,0.3027,0.1563,0.5928,0.311,0.8711h-1.2852C121.4668,263.8937,121.3848,263.5949,121.3482,263.2531z M121.2456,260.505
				c-0.4468,0.1826-1.1167,0.3369-2.0098,0.4648c-0.5059,0.0732-0.8638,0.1553-1.0732,0.2461s-0.3716,0.2246-0.4854,0.3994
				c-0.1138,0.1758-0.1709,0.3711-0.1709,0.585c0,0.3281,0.124,0.6016,0.3726,0.8203s0.6118,0.3281,1.0903,0.3281
				c0.4741,0,0.8955-0.1035,1.2646-0.3115c0.3691-0.207,0.6401-0.4902,0.8135-0.8506c0.1323-0.2783,0.1982-0.6885,0.1982-1.2305
				V260.505z"/>
			<path style="fill:#FFFFFF;" d="M127.0835,263.048l0.1777,1.0869c-0.3462,0.0732-0.6563,0.1094-0.9297,0.1094
				c-0.4468,0-0.793-0.0703-1.0391-0.2119s-0.4194-0.3271-0.5195-0.5576c-0.1001-0.2295-0.1504-0.7139-0.1504-1.4521v-4.1768
				h-0.9023v-0.957h0.9023v-1.7978l1.2236-0.7383v2.5361h1.2373v0.957h-1.2373v4.2451c0,0.3506,0.0215,0.5762,0.0649,0.6768
				s0.1138,0.1797,0.2119,0.2393s0.2383,0.0889,0.4204,0.0889C126.6802,263.0959,126.8604,263.0802,127.0835,263.048z"/>
			<path style="fill:#FFFFFF;" d="M128.2935,255.5422v-1.415h1.2305v1.415H128.2935z M128.2935,264.1486v-7.2598h1.2305v7.2598
				H128.2935z"/>
			<path style="fill:#FFFFFF;" d="M133.4136,264.1486l-2.7617-7.2598h1.2988l1.5586,4.3477
				c0.1685,0.4697,0.3237,0.957,0.4648,1.4629c0.1094-0.3828,0.2622-0.8428,0.458-1.3809l1.6133-4.4297h1.2646l-2.748,7.2598
				H133.4136z"/>
			<path style="fill:#FFFFFF;" d="M137.939,260.5187c0-1.3447,0.3735-2.3398,1.1211-2.9873
				c0.6245-0.5381,1.3853-0.8066,2.2832-0.8066c0.998,0,1.814,0.3271,2.4473,0.9805c0.6333,0.6543,0.9502,1.5576,0.9502,2.7109
				c0,0.9346-0.1401,1.6689-0.4204,2.2051c-0.2803,0.5352-0.688,0.9512-1.2236,1.2471s-1.1201,0.4443-1.7534,0.4443
				c-1.0161,0-1.8379-0.3262-2.4644-0.9775S137.939,261.7443,137.939,260.5187z M139.2037,260.5187
				c0,0.9297,0.2026,1.626,0.6084,2.0889c0.4058,0.4619,0.916,0.6934,1.5313,0.6934c0.6108,0,1.1187-0.2324,1.5244-0.6973
				s0.6084-1.1738,0.6084-2.126c0-0.8975-0.2041-1.5781-0.6118-2.04c-0.4077-0.4629-0.915-0.6943-1.521-0.6943
				c-0.6152,0-1.1255,0.2305-1.5313,0.6904S139.2037,259.589,139.2037,260.5187z"/>
			<path style="fill:#FFFFFF;" d="M145.691,261.9816l1.2168-0.1914c0.0684,0.4873,0.2588,0.8613,0.5708,1.1211
				s0.7485,0.3896,1.3091,0.3896c0.5649,0,0.9844-0.1152,1.2578-0.3457c0.2734-0.2295,0.4102-0.5,0.4102-0.8096
				c0-0.2783-0.1206-0.4971-0.3623-0.6563c-0.1685-0.1094-0.5879-0.248-1.2578-0.417c-0.9023-0.2275-1.5278-0.4248-1.8765-0.5918
				c-0.3486-0.166-0.6128-0.3965-0.793-0.6895c-0.1802-0.2949-0.27-0.6191-0.27-0.9746c0-0.3232,0.0742-0.623,0.2222-0.8984
				c0.1479-0.2764,0.3496-0.5049,0.605-0.6875c0.1914-0.1416,0.4521-0.2607,0.7827-0.3594c0.3306-0.0977,0.6846-0.1465,1.063-0.1465
				c0.5698,0,1.0698,0.082,1.5005,0.2461s0.7485,0.3867,0.9536,0.666c0.2051,0.2813,0.3462,0.6553,0.4238,1.125l-1.2031,0.1641
				c-0.0547-0.374-0.2129-0.665-0.4751-0.875s-0.6323-0.3145-1.1108-0.3145c-0.5649,0-0.9683,0.0938-1.21,0.2803
				s-0.3623,0.4053-0.3623,0.6563c0,0.1592,0.0503,0.3027,0.1504,0.4307c0.1001,0.1318,0.2573,0.2412,0.4717,0.3281
				c0.123,0.0459,0.4854,0.1504,1.0869,0.3145c0.8706,0.2324,1.4775,0.4229,1.8218,0.5703
				c0.3442,0.1484,0.6143,0.3643,0.8101,0.6465s0.2939,0.6338,0.2939,1.0527c0,0.4102-0.1196,0.7969-0.3589,1.1582
				c-0.2393,0.3633-0.5845,0.6426-1.0356,0.8418c-0.4512,0.1973-0.9614,0.2969-1.5313,0.2969c-0.9434,0-1.6621-0.1963-2.1567-0.5879
				S145.8277,262.7521,145.691,261.9816z"/>
		</g>
		<g>
			<path style="fill:#FFFFFF;" d="M31.9068,296.5558v-10.0215h1.9961l2.3721,7.0957c0.2188,0.6611,0.3784,1.1553,0.4785,1.4834
				c0.1138-0.3643,0.2915-0.9004,0.5332-1.6064l2.3994-6.9727h1.7842v10.0215h-1.2783v-8.3877l-2.9121,8.3877h-1.1963
				l-2.8984-8.5313v8.5313H31.9068z"/>
			<path style="fill:#FFFFFF;" d="M48.4224,294.2179l1.2715,0.1572c-0.2007,0.7432-0.5718,1.3193-1.1143,1.7295
				s-1.2349,0.6152-2.0781,0.6152c-1.062,0-1.9038-0.3271-2.5259-0.9805c-0.6221-0.6543-0.9331-1.5713-0.9331-2.752
				c0-1.2217,0.3145-2.1689,0.9434-2.8438s1.4448-1.0117,2.4473-1.0117c0.9707,0,1.7637,0.3301,2.3789,0.9912
				s0.9229,1.5908,0.9229,2.7891c0,0.0732-0.0024,0.1826-0.0068,0.3281H44.314c0.0454,0.7979,0.271,1.4082,0.6768,1.832
				s0.9116,0.6357,1.5176,0.6357c0.4512,0,0.8364-0.1182,1.1553-0.3555S48.2354,294.7375,48.4224,294.2179z M44.3824,292.2287
				h4.0537c-0.0547-0.6104-0.2095-1.0684-0.4648-1.374c-0.3921-0.4736-0.8999-0.7109-1.5244-0.7109
				c-0.5649,0-1.04,0.1895-1.4253,0.5674S44.4234,291.5949,44.3824,292.2287z M45.7085,288.3937l0.9092-1.9141h1.6133
				l-1.5039,1.9141H45.7085z"/>
			<path style="fill:#FFFFFF;" d="M53.9253,295.4552l0.1777,1.0869c-0.3462,0.0732-0.6563,0.1094-0.9297,0.1094
				c-0.4468,0-0.793-0.0703-1.0391-0.2119s-0.4194-0.3271-0.5195-0.5576c-0.1001-0.2295-0.1504-0.7139-0.1504-1.4521v-4.1768
				h-0.9023v-0.957h0.9023v-1.7979l1.2236-0.7383v2.5361h1.2373v0.957H52.688v4.2451c0,0.3506,0.0215,0.5762,0.0649,0.6768
				s0.1138,0.1797,0.2119,0.2393s0.2383,0.0889,0.4204,0.0889C53.522,295.5031,53.7022,295.4875,53.9253,295.4552z"/>
			<path style="fill:#FFFFFF;" d="M54.6705,292.9259c0-1.3447,0.3735-2.3398,1.1211-2.9873
				c0.6245-0.5381,1.3853-0.8066,2.2832-0.8066c0.998,0,1.814,0.3271,2.4473,0.9805c0.6333,0.6543,0.9502,1.5576,0.9502,2.7109
				c0,0.9346-0.1401,1.6689-0.4204,2.2051c-0.2803,0.5352-0.688,0.9512-1.2236,1.2471s-1.1201,0.4443-1.7534,0.4443
				c-1.0161,0-1.8379-0.3262-2.4644-0.9775S54.6705,294.1515,54.6705,292.9259z M55.9351,292.9259
				c0,0.9297,0.2026,1.626,0.6084,2.0889c0.4058,0.4619,0.916,0.6934,1.5313,0.6934c0.6108,0,1.1187-0.2324,1.5244-0.6973
				s0.6084-1.1738,0.6084-2.126c0-0.8975-0.2041-1.5781-0.6118-2.04c-0.4077-0.4629-0.915-0.6943-1.521-0.6943
				c-0.6152,0-1.1255,0.2305-1.5313,0.6904S55.9351,291.9962,55.9351,292.9259z"/>
			<path style="fill:#FFFFFF;" d="M67.6245,296.5558v-0.916c-0.4604,0.7197-1.1372,1.0801-2.0303,1.0801
				c-0.5786,0-1.1108-0.1592-1.5962-0.4785c-0.4854-0.3193-0.8613-0.7646-1.1279-1.3359c-0.2666-0.5723-0.3999-1.2295-0.3999-1.9727
				c0-0.7246,0.1206-1.3818,0.3623-1.9727c0.2417-0.5898,0.604-1.042,1.0869-1.3564c0.4829-0.3145,1.0229-0.4717,1.6201-0.4717
				c0.4375,0,0.8271,0.0918,1.1689,0.2773c0.3418,0.1836,0.6196,0.4248,0.834,0.7207v-3.5957h1.2236v10.0215H67.6245z
				 M63.7349,292.9328c0,0.9297,0.1958,1.625,0.5879,2.085c0.3921,0.46,0.8545,0.6904,1.3877,0.6904
				c0.5376,0,0.9946-0.2197,1.3706-0.6602c0.376-0.4395,0.564-1.1104,0.564-2.0127c0-0.9932-0.1914-1.7227-0.5742-2.1875
				s-0.8545-0.6973-1.415-0.6973c-0.5469,0-1.0039,0.2236-1.3706,0.6699C63.9185,291.2668,63.7349,291.9709,63.7349,292.9328z"/>
			<path style="fill:#FFFFFF;" d="M70.2427,292.9259c0-1.3447,0.3735-2.3398,1.1211-2.9873
				c0.6245-0.5381,1.3853-0.8066,2.2832-0.8066c0.998,0,1.814,0.3271,2.4473,0.9805c0.6333,0.6543,0.9502,1.5576,0.9502,2.7109
				c0,0.9346-0.1401,1.6689-0.4204,2.2051c-0.2803,0.5352-0.688,0.9512-1.2236,1.2471s-1.1201,0.4443-1.7534,0.4443
				c-1.0161,0-1.8379-0.3262-2.4644-0.9775S70.2427,294.1515,70.2427,292.9259z M71.5074,292.9259
				c0,0.9297,0.2026,1.626,0.6084,2.0889c0.4058,0.4619,0.916,0.6934,1.5313,0.6934c0.6108,0,1.1187-0.2324,1.5244-0.6973
				s0.6084-1.1738,0.6084-2.126c0-0.8975-0.2041-1.5781-0.6118-2.04c-0.4077-0.4629-0.915-0.6943-1.521-0.6943
				c-0.6152,0-1.1255,0.2305-1.5313,0.6904S71.5074,291.9962,71.5074,292.9259z"/>
			<path style="fill:#FFFFFF;" d="M77.9947,294.3888l1.2168-0.1914c0.0684,0.4873,0.2588,0.8613,0.5708,1.1211
				s0.7485,0.3896,1.3091,0.3896c0.5649,0,0.9844-0.1152,1.2578-0.3457c0.2734-0.2295,0.4102-0.5,0.4102-0.8096
				c0-0.2783-0.1206-0.4971-0.3623-0.6563c-0.1685-0.1094-0.5879-0.248-1.2578-0.417c-0.9023-0.2275-1.5278-0.4248-1.8765-0.5918
				c-0.3486-0.166-0.6128-0.3965-0.793-0.6895c-0.1802-0.2949-0.27-0.6191-0.27-0.9746c0-0.3232,0.0742-0.623,0.2222-0.8984
				c0.1479-0.2764,0.3496-0.5049,0.605-0.6875c0.1914-0.1416,0.4521-0.2607,0.7827-0.3594c0.3306-0.0977,0.6846-0.1465,1.063-0.1465
				c0.5698,0,1.0698,0.082,1.5005,0.2461s0.7485,0.3867,0.9536,0.666c0.2051,0.2813,0.3462,0.6553,0.4238,1.125l-1.2031,0.1641
				c-0.0547-0.374-0.2129-0.665-0.4751-0.875s-0.6323-0.3145-1.1108-0.3145c-0.5649,0-0.9683,0.0938-1.21,0.2803
				s-0.3623,0.4053-0.3623,0.6563c0,0.1592,0.0503,0.3027,0.1504,0.4307c0.1001,0.1318,0.2573,0.2412,0.4717,0.3281
				c0.123,0.0459,0.4854,0.1504,1.0869,0.3145c0.8706,0.2324,1.4775,0.4229,1.8218,0.5703
				c0.3442,0.1484,0.6143,0.3643,0.8101,0.6465s0.2939,0.6338,0.2939,1.0527c0,0.4102-0.1196,0.7969-0.3589,1.1582
				c-0.2393,0.3633-0.5845,0.6426-1.0356,0.8418c-0.4512,0.1973-0.9614,0.2969-1.5313,0.2969c-0.9434,0-1.6621-0.1963-2.1567-0.5879
				S78.1314,295.1593,77.9947,294.3888z"/>
			<path style="fill:#FFFFFF;" d="M94.0865,296.5558v-0.916c-0.4604,0.7197-1.1372,1.0801-2.0303,1.0801
				c-0.5786,0-1.1108-0.1592-1.5962-0.4785s-0.8613-0.7646-1.1279-1.3359c-0.2666-0.5723-0.3999-1.2295-0.3999-1.9727
				c0-0.7246,0.1206-1.3818,0.3623-1.9727c0.2417-0.5898,0.604-1.042,1.0869-1.3564s1.0229-0.4717,1.6201-0.4717
				c0.4375,0,0.8271,0.0918,1.1689,0.2773c0.3418,0.1836,0.6196,0.4248,0.834,0.7207v-3.5957h1.2236v10.0215H94.0865z
				 M90.1968,292.9328c0,0.9297,0.1958,1.625,0.5879,2.085s0.8545,0.6904,1.3877,0.6904c0.5376,0,0.9946-0.2197,1.3706-0.6602
				c0.376-0.4395,0.564-1.1104,0.564-2.0127c0-0.9932-0.1914-1.7227-0.5742-2.1875s-0.8545-0.6973-1.415-0.6973
				c-0.5469,0-1.0039,0.2236-1.3706,0.6699S90.1968,291.9709,90.1968,292.9328z"/>
			<path style="fill:#FFFFFF;" d="M97.1695,287.9494v-1.415h1.2305v1.415H97.1695z M97.1695,296.5558v-7.2598h1.2305v7.2598H97.1695
				z"/>
			<path style="fill:#FFFFFF;" d="M99.7808,294.3888l1.2168-0.1914c0.0684,0.4873,0.2588,0.8613,0.5708,1.1211
				s0.7485,0.3896,1.3091,0.3896c0.5649,0,0.9844-0.1152,1.2578-0.3457c0.2734-0.2295,0.4102-0.5,0.4102-0.8096
				c0-0.2783-0.1206-0.4971-0.3623-0.6563c-0.1685-0.1094-0.5879-0.248-1.2578-0.417c-0.9023-0.2275-1.5278-0.4248-1.8765-0.5918
				c-0.3486-0.166-0.6128-0.3965-0.793-0.6895c-0.1802-0.2949-0.27-0.6191-0.27-0.9746c0-0.3232,0.0742-0.623,0.2222-0.8984
				c0.1479-0.2764,0.3496-0.5049,0.605-0.6875c0.1914-0.1416,0.4521-0.2607,0.7827-0.3594c0.3306-0.0977,0.6846-0.1465,1.063-0.1465
				c0.5698,0,1.0698,0.082,1.5005,0.2461s0.7485,0.3867,0.9536,0.666c0.2051,0.2813,0.3462,0.6553,0.4238,1.125l-1.2031,0.1641
				c-0.0547-0.374-0.2129-0.665-0.4751-0.875s-0.6323-0.3145-1.1108-0.3145c-0.5649,0-0.9683,0.0938-1.21,0.2803
				s-0.3623,0.4053-0.3623,0.6563c0,0.1592,0.0503,0.3027,0.1504,0.4307c0.1001,0.1318,0.2573,0.2412,0.4717,0.3281
				c0.123,0.0459,0.4854,0.1504,1.0869,0.3145c0.8706,0.2324,1.4775,0.4229,1.8218,0.5703
				c0.3442,0.1484,0.6143,0.3643,0.8101,0.6465s0.2939,0.6338,0.2939,1.0527c0,0.4102-0.1196,0.7969-0.3589,1.1582
				c-0.2393,0.3633-0.5845,0.6426-1.0356,0.8418c-0.4512,0.1973-0.9614,0.2969-1.5313,0.2969c-0.9434,0-1.6621-0.1963-2.1567-0.5879
				S99.9175,295.1593,99.7808,294.3888z"/>
			<path style="fill:#FFFFFF;" d="M112.0103,293.8966l1.21,0.1572c-0.1323,0.834-0.4707,1.4863-1.0151,1.959
				c-0.5444,0.4707-1.2134,0.707-2.0063,0.707c-0.9937,0-1.792-0.3242-2.396-0.9746c-0.604-0.6484-0.9058-1.5801-0.9058-2.792
				c0-0.7842,0.1299-1.4697,0.3896-2.0576s0.6553-1.0293,1.186-1.3223c0.5308-0.2949,1.1084-0.4414,1.7329-0.4414
				c0.7886,0,1.4331,0.1992,1.9346,0.5977c0.5015,0.3994,0.8228,0.9658,0.9639,1.6992l-1.1963,0.1846
				c-0.1138-0.4873-0.3154-0.8545-0.605-1.1006s-0.6392-0.3691-1.0493-0.3691c-0.6196,0-1.1235,0.2227-1.5107,0.666
				c-0.3872,0.4453-0.5811,1.1475-0.5811,2.1094c0,0.9756,0.187,1.6836,0.5605,2.126s0.8613,0.6631,1.4629,0.6631
				c0.4829,0,0.8862-0.1484,1.21-0.4443S111.9239,294.5119,112.0103,293.8966z"/>
			<path style="fill:#FFFFFF;" d="M114.2593,296.5558v-7.2598h1.1074v1.1006c0.2827-0.5146,0.5435-0.8545,0.7827-1.0186
				s0.5024-0.2461,0.7896-0.2461c0.4146,0,0.8364,0.1318,1.2646,0.3965l-0.4238,1.1416c-0.3008-0.1777-0.6016-0.2666-0.9023-0.2666
				c-0.269,0-0.5103,0.0811-0.7246,0.2422c-0.2144,0.1621-0.3667,0.3867-0.458,0.6738c-0.1367,0.4375-0.2051,0.916-0.2051,1.4355
				v3.8008H114.2593z"/>
			<path style="fill:#FFFFFF;" d="M123.9048,294.2179l1.2715,0.1572c-0.2007,0.7432-0.5718,1.3193-1.1143,1.7295
				s-1.2349,0.6152-2.0781,0.6152c-1.062,0-1.9038-0.3271-2.5259-0.9805c-0.6221-0.6543-0.9331-1.5713-0.9331-2.752
				c0-1.2217,0.3145-2.1689,0.9434-2.8438s1.4448-1.0117,2.4473-1.0117c0.9707,0,1.7637,0.3301,2.3789,0.9912
				s0.9229,1.5908,0.9229,2.7891c0,0.0732-0.0024,0.1826-0.0068,0.3281h-5.4141c0.0454,0.7979,0.271,1.4082,0.6768,1.832
				s0.9116,0.6357,1.5176,0.6357c0.4512,0,0.8364-0.1182,1.1553-0.3555S123.7178,294.7375,123.9048,294.2179z M119.8648,292.2287
				h4.0537c-0.0547-0.6104-0.2095-1.0684-0.4648-1.374c-0.3921-0.4736-0.8999-0.7109-1.5244-0.7109
				c-0.5649,0-1.04,0.1895-1.4253,0.5674S119.9058,291.5949,119.8648,292.2287z"/>
			<path style="fill:#FFFFFF;" d="M129.4078,295.4552l0.1777,1.0869c-0.3462,0.0732-0.6563,0.1094-0.9297,0.1094
				c-0.4468,0-0.793-0.0703-1.0391-0.2119s-0.4194-0.3271-0.5195-0.5576c-0.1001-0.2295-0.1504-0.7139-0.1504-1.4521v-4.1768
				h-0.9023v-0.957h0.9023v-1.7979l1.2236-0.7383v2.5361h1.2373v0.957h-1.2373v4.2451c0,0.3506,0.0215,0.5762,0.0649,0.6768
				s0.1138,0.1797,0.2119,0.2393s0.2383,0.0889,0.4204,0.0889C129.0044,295.5031,129.1846,295.4875,129.4078,295.4552z"/>
			<path style="fill:#FFFFFF;" d="M130.1529,292.9259c0-1.3447,0.3735-2.3398,1.1211-2.9873
				c0.6245-0.5381,1.3853-0.8066,2.2832-0.8066c0.998,0,1.814,0.3271,2.4473,0.9805c0.6333,0.6543,0.9502,1.5576,0.9502,2.7109
				c0,0.9346-0.1401,1.6689-0.4204,2.2051c-0.2803,0.5352-0.688,0.9512-1.2236,1.2471s-1.1201,0.4443-1.7534,0.4443
				c-1.0161,0-1.8379-0.3262-2.4644-0.9775S130.1529,294.1515,130.1529,292.9259z M131.4175,292.9259
				c0,0.9297,0.2026,1.626,0.6084,2.0889c0.4058,0.4619,0.916,0.6934,1.5313,0.6934c0.6108,0,1.1187-0.2324,1.5244-0.6973
				s0.6084-1.1738,0.6084-2.126c0-0.8975-0.2041-1.5781-0.6118-2.04c-0.4077-0.4629-0.915-0.6943-1.521-0.6943
				c-0.6152,0-1.1255,0.2305-1.5313,0.6904S131.4175,291.9962,131.4175,292.9259z"/>
			<path style="fill:#FFFFFF;" d="M137.9048,294.3888l1.2168-0.1914c0.0684,0.4873,0.2588,0.8613,0.5708,1.1211
				s0.7485,0.3896,1.3091,0.3896c0.5649,0,0.9844-0.1152,1.2578-0.3457c0.2734-0.2295,0.4102-0.5,0.4102-0.8096
				c0-0.2783-0.1206-0.4971-0.3623-0.6563c-0.1685-0.1094-0.5879-0.248-1.2578-0.417c-0.9023-0.2275-1.5278-0.4248-1.8765-0.5918
				c-0.3486-0.166-0.6128-0.3965-0.793-0.6895c-0.1802-0.2949-0.27-0.6191-0.27-0.9746c0-0.3232,0.0742-0.623,0.2222-0.8984
				c0.1479-0.2764,0.3496-0.5049,0.605-0.6875c0.1914-0.1416,0.4521-0.2607,0.7827-0.3594c0.3306-0.0977,0.6846-0.1465,1.063-0.1465
				c0.5698,0,1.0698,0.082,1.5005,0.2461s0.7485,0.3867,0.9536,0.666c0.2051,0.2813,0.3462,0.6553,0.4238,1.125l-1.2031,0.1641
				c-0.0547-0.374-0.2129-0.665-0.4751-0.875s-0.6323-0.3145-1.1108-0.3145c-0.5649,0-0.9683,0.0938-1.21,0.2803
				s-0.3623,0.4053-0.3623,0.6563c0,0.1592,0.0503,0.3027,0.1504,0.4307c0.1001,0.1318,0.2573,0.2412,0.4717,0.3281
				c0.123,0.0459,0.4854,0.1504,1.0869,0.3145c0.8706,0.2324,1.4775,0.4229,1.8218,0.5703
				c0.3442,0.1484,0.6143,0.3643,0.8101,0.6465s0.2939,0.6338,0.2939,1.0527c0,0.4102-0.1196,0.7969-0.3589,1.1582
				c-0.2393,0.3633-0.5845,0.6426-1.0356,0.8418c-0.4512,0.1973-0.9614,0.2969-1.5313,0.2969c-0.9434,0-1.6621-0.1963-2.1567-0.5879
				S138.0415,295.1593,137.9048,294.3888z"/>
		</g>
	</g>
	<g>
		<path style="fill:#DD4E31;" d="M33.8096,207.7451c-2.7328-2.4091-6.2472-3.9496-10.1161-4.1912v14.3074L33.8096,207.7451z"/>
		<path style="fill:#F9CA35;" d="M23.6935,220.1989v12.687c6.8262-0.4268,12.2315-6.0953,12.2315-13.0293
			c0-3.3083-1.2326-6.3276-3.2613-8.6285L23.6935,220.1989z"/>
		<path style="fill:#2B2B38;" d="M9.809,219.8566c0,6.9339,5.4049,12.6029,12.231,13.0293v-26.0587
			C15.2139,207.2535,9.809,212.9227,9.809,219.8566z"/>
	</g>
	<g>
		<path style="fill:#F9CA35;" d="M31.8002,150.568c-0.1956-5.2234-4.4898-9.399-9.7608-9.399c-5.3967,0-9.7708,4.3747-9.7708,9.7709
			c1.0711,6.0949,4.0152,6.8415,5.6212,13.2128c3.4871,2.321,3.219,1.7849,8.8343,0.4574c0.8025-5.8639,5.0851-9.401,5.0851-13.6702
			C31.8148,150.8128,31.8099,150.6894,31.8002,150.568z"/>
		<g>
			<path style="fill:#E8AF2E;" d="M31.8092,150.9399c0.0056-0.1271,0.0007-0.2505-0.009-0.3719
				c-0.1924-5.1272-4.3344-9.2424-9.4724-9.392v24.4931c0.965-0.1608,2.2508-0.5517,4.3963-1.0591
				C27.5266,158.7462,31.8092,155.2091,31.8092,150.9399z"/>
		</g>
		<path style="fill:#A6A8AB;" d="M18.9495,167.1013v3.015c0,0.9265,0.6015,1.6787,1.3434,1.6787h4.0313
			c0.7408,0,1.3424-0.7522,1.3424-1.6787v-3.015H18.9495z"/>
		<g>
			<path style="fill:#D0D2D3;" d="M18.9495,167.1013v3.015c0,0.9265,0.6015,1.6787,1.3434,1.6787h1.9918v-4.6938H18.9495z"/>
			<path style="fill:#A6A8AB;" d="M25.6666,170.1163v-3.015h-3.382v4.6938h2.0396
				C25.065,171.7951,25.6666,171.0428,25.6666,170.1163z"/>
		</g>
		<g>
			<path style="fill:none;stroke:#2B2B38;stroke-width:0.75;stroke-linecap:round;stroke-miterlimit:10;" d="M17.6233,152.7963
				c0,0,1.8517,4.2513,2.4113,5.829c0.5601,1.5765,0.5759,5.3427,0.5759,5.3427"/>
			<path style="fill:none;stroke:#2B2B38;stroke-width:0.75;stroke-linecap:round;stroke-miterlimit:10;" d="M27.1298,152.7963
				c0,0-1.8511,4.2513-2.4109,5.829c-0.5598,1.5765-0.5757,5.3427-0.5757,5.3427"/>
		</g>
		<path style="fill:#2B2B38;" d="M17.2758,163.4026v4.8888c0,0.9273,0.7519,1.6791,1.6775,1.6791h6.7086
			c0.9265,0,1.6787-0.7517,1.6787-1.6791v-4.8888H17.2758z"/>
		<g>
			
				<ellipse style="fill:none;stroke:#2B2B38;stroke-width:0.5;stroke-linecap:round;stroke-miterlimit:10;" cx="19.4524" cy="154.3499" rx="0.9746" ry="1.279"/>
			
				<ellipse style="fill:none;stroke:#2B2B38;stroke-width:0.5;stroke-linecap:round;stroke-miterlimit:10;" cx="21.4016" cy="154.3499" rx="0.9749" ry="1.279"/>
			
				<ellipse style="fill:none;stroke:#2B2B38;stroke-width:0.5;stroke-linecap:round;stroke-miterlimit:10;" cx="23.3514" cy="154.3499" rx="0.9748" ry="1.279"/>
			
				<ellipse style="fill:none;stroke:#2B2B38;stroke-width:0.5;stroke-linecap:round;stroke-miterlimit:10;" cx="25.3011" cy="154.3499" rx="0.9745" ry="1.279"/>
		</g>
		<path style="fill:#4B4B70;" d="M27.6813,164.8763c0,0.1336-0.1029,0.2415-0.2297,0.2415H17.1168
			c-0.1267,0-0.2295-0.1079-0.2295-0.2415v-0.4193c0-0.1332,0.1028-0.2414,0.2295-0.2414h10.3348
			c0.1269,0,0.2297,0.1081,0.2297,0.2414V164.8763z"/>
		<path style="fill:#4B4B70;" d="M27.6813,166.3191c0,0.1332-0.1029,0.2417-0.2297,0.2417H17.1168
			c-0.1267,0-0.2295-0.1085-0.2295-0.2417v-0.4191c0-0.1332,0.1028-0.2416,0.2295-0.2416h10.3348
			c0.1269,0,0.2297,0.1084,0.2297,0.2416V166.3191z"/>
		<path style="fill:#4B4B70;" d="M27.7047,167.762c0,0.1336-0.1026,0.2414-0.2297,0.2414H17.1402
			c-0.1265,0-0.229-0.1078-0.229-0.2414v-0.4192c0-0.1333,0.1025-0.2415,0.229-0.2415H27.475c0.1271,0,0.2297,0.1081,0.2297,0.2415
			V167.762z"/>
	</g>
	<g>
		<path style="fill:#DD4E31;" d="M23.4665,22.6495l-6.5127,12.9074c-0.1349,0.2379-0.4366,0.3219-0.6751,0.1869l-3.6989-2.0969
			c-0.2381-0.1352-0.3219-0.4379-0.1871-0.6754l7.729-12.2177L23.4665,22.6495z"/>
		<path style="fill:#BC3F2A;" d="M20.6831,23.5837l-1.7312-0.9814l1.1699-1.8485l3.3447,1.8957l-6.5127,12.9074
			c-0.1349,0.2379-0.4366,0.3219-0.6751,0.1869l-1.8831-1.0681L20.6831,23.5837z"/>
		<polygon style="fill:#D0D2D3;" points="18.4945,23.3264 20.1218,20.7538 23.4665,22.6495 22.0948,25.3675 		"/>
		<polygon style="fill:#A6A8AB;" points="20.2628,24.3241 21.8233,21.723 23.5273,22.6893 22.0965,25.3639 		"/>
		<path style="fill:#2B2B38;" d="M17.546,8.8167c-2.7356,4.828-1.0403,10.96,3.7879,13.6966
			c4.828,2.7366,10.9605,1.0411,13.6971-3.7871c2.7368-4.8282,1.0408-10.9604-3.7876-13.6971
			C26.4152,2.2928,20.283,3.9884,17.546,8.8167z M18.906,9.587c2.3105-4.0776,7.4893-5.5089,11.5666-3.1982
			c4.0779,2.3108,5.5091,7.4895,3.1985,11.567c-2.3112,4.0773-7.4895,5.5089-11.567,3.1977
			C18.0269,18.8433,16.5956,13.664,18.906,9.587z"/>
		
			<ellipse transform="matrix(0.4931 -0.87 0.87 0.4931 1.345 29.8511)" style="opacity:0.3;fill:#E6E6E7;" cx="26.2889" cy="13.7714" rx="8.8837" ry="8.8837"/>
		<path style="opacity:0.5;fill:#FFFFFF;" d="M33.4375,11.1954c1.0151,3.0466-0.0013,6.5242-2.7404,8.5069
			c-2.7389,1.9822-6.3598,1.8603-8.9368-0.0556c0,0,4.3884-1.7748,6.6901-3.4408C30.8233,14.4891,33.4375,11.1954,33.4375,11.1954z"
			/>
	</g>
</g>
</svg>
