<?xml version="1.0" encoding="utf-8"?>
<!-- Generator: Adobe Illustrator 21.0.2, SVG Export Plug-In . SVG Version: 6.00 Build 0)  -->
<svg version="1.1" id="Capa_1" xmlns="http://www.w3.org/2000/svg" xmlns:xlink="http://www.w3.org/1999/xlink" x="0px" y="0px"
	 viewBox="0 0 232.1131 29.3904" style="enable-background:new 0 0 232.1131 29.3904;" xml:space="preserve">
<g>
	<polygon style="fill:#FFFFFF;" points="224.1131,29.3904 0,29.3904 0,0 224.1131,0 232.1131,13.8521 	"/>
	<polygon id="XMLID_5176_" style="fill:#C9452F;" points="17.4187,8.4911 18.7976,13.1634 23.9285,13.2411 19.9461,16.076 
		21.4011,20.8993 17.4978,17.9916 13.3611,20.8993 14.8914,16.3065 10.8347,13.2411 15.7342,13.3177 	"/>
	<g>
		<g>
			<path style="fill:#C9452F;" d="M31.9687,20.9043V10.8828h1.9961l2.3721,7.0957c0.2188,0.6611,0.3784,1.1553,0.4785,1.4834
				c0.1138-0.3643,0.2915-0.9004,0.5332-1.6064l2.3994-6.9727h1.7842v10.0215h-1.2783v-8.3877l-2.9121,8.3877h-1.1963
				l-2.8984-8.5313v8.5313H31.9687z"/>
			<path style="fill:#C9452F;" d="M48.4843,18.5664l1.2715,0.1572c-0.2007,0.7432-0.5718,1.3193-1.1143,1.7295
				s-1.2349,0.6152-2.0781,0.6152c-1.062,0-1.9038-0.3271-2.5259-0.9805c-0.6221-0.6543-0.9331-1.5713-0.9331-2.752
				c0-1.2217,0.3145-2.1689,0.9434-2.8438s1.4448-1.0117,2.4473-1.0117c0.9707,0,1.7637,0.3301,2.3789,0.9912
				s0.9229,1.5908,0.9229,2.7891c0,0.0732-0.0024,0.1826-0.0068,0.3281h-5.4141c0.0454,0.7979,0.271,1.4082,0.6768,1.832
				s0.9116,0.6357,1.5176,0.6357c0.4512,0,0.8364-0.1182,1.1553-0.3555S48.2973,19.0859,48.4843,18.5664z M44.4442,16.5772h4.0537
				c-0.0547-0.6104-0.2095-1.0684-0.4648-1.374c-0.3921-0.4736-0.8999-0.7109-1.5244-0.7109c-0.5649,0-1.04,0.1895-1.4253,0.5674
				S44.4853,15.9434,44.4442,16.5772z M45.7704,12.7422l0.9092-1.9141h1.6133l-1.5039,1.9141H45.7704z"/>
			<path style="fill:#C9452F;" d="M53.9872,19.8037l0.1777,1.0869C53.8188,20.9639,53.5087,21,53.2353,21
				c-0.4468,0-0.793-0.0703-1.0391-0.2119s-0.4194-0.3271-0.5195-0.5576c-0.1001-0.2295-0.1504-0.7139-0.1504-1.4521v-4.1768
				h-0.9023v-0.957h0.9023v-1.7979l1.2236-0.7383v2.5361h1.2373v0.957h-1.2373v4.2451c0,0.3506,0.0215,0.5762,0.0649,0.6768
				s0.1138,0.1797,0.2119,0.2393s0.2383,0.0889,0.4204,0.0889C53.5839,19.8516,53.7641,19.8359,53.9872,19.8037z"/>
			<path style="fill:#C9452F;" d="M54.7323,17.2744c0-1.3447,0.3735-2.3398,1.1211-2.9873
				c0.6245-0.5381,1.3853-0.8066,2.2832-0.8066c0.998,0,1.814,0.3271,2.4473,0.9805c0.6333,0.6543,0.9502,1.5576,0.9502,2.7109
				c0,0.9346-0.1401,1.6689-0.4204,2.2051c-0.2803,0.5352-0.688,0.9512-1.2236,1.2471s-1.1201,0.4443-1.7534,0.4443
				c-1.0161,0-1.8379-0.3262-2.4644-0.9775S54.7323,18.5,54.7323,17.2744z M55.997,17.2744c0,0.9297,0.2026,1.626,0.6084,2.0889
				c0.4058,0.4619,0.916,0.6934,1.5313,0.6934c0.6108,0,1.1187-0.2324,1.5244-0.6973s0.6084-1.1738,0.6084-2.126
				c0-0.8975-0.2041-1.5781-0.6118-2.04c-0.4077-0.4629-0.915-0.6943-1.521-0.6943c-0.6152,0-1.1255,0.2305-1.5313,0.6904
				S55.997,16.3447,55.997,17.2744z"/>
			<path style="fill:#C9452F;" d="M67.6864,20.9043v-0.916c-0.4604,0.7197-1.1372,1.0801-2.0303,1.0801
				c-0.5786,0-1.1108-0.1592-1.5962-0.4785c-0.4854-0.3193-0.8613-0.7646-1.1279-1.3359c-0.2666-0.5723-0.3999-1.2295-0.3999-1.9727
				c0-0.7246,0.1206-1.3818,0.3623-1.9727c0.2417-0.5898,0.604-1.042,1.0869-1.3564c0.4829-0.3145,1.023-0.4717,1.6201-0.4717
				c0.4375,0,0.8271,0.0918,1.1689,0.2773c0.3418,0.1836,0.6196,0.4248,0.834,0.7207v-3.5957h1.2236v10.0215H67.6864z
				 M63.7968,17.2813c0,0.9297,0.1958,1.625,0.5879,2.085c0.3921,0.46,0.8545,0.6904,1.3877,0.6904
				c0.5376,0,0.9946-0.2197,1.3706-0.6602c0.376-0.4395,0.564-1.1104,0.564-2.0127c0-0.9932-0.1914-1.7227-0.5742-2.1875
				s-0.8545-0.6973-1.415-0.6973c-0.5469,0-1.0039,0.2236-1.3706,0.6699C63.9804,15.6152,63.7968,16.3193,63.7968,17.2813z"/>
			<path style="fill:#C9452F;" d="M70.3046,17.2744c0-1.3447,0.3735-2.3398,1.1211-2.9873
				c0.6245-0.5381,1.3853-0.8066,2.2832-0.8066c0.998,0,1.814,0.3271,2.4473,0.9805c0.6333,0.6543,0.9502,1.5576,0.9502,2.7109
				c0,0.9346-0.1401,1.6689-0.4204,2.2051c-0.2803,0.5352-0.688,0.9512-1.2236,1.2471s-1.1201,0.4443-1.7534,0.4443
				c-1.0161,0-1.8379-0.3262-2.4644-0.9775S70.3046,18.5,70.3046,17.2744z M71.5693,17.2744c0,0.9297,0.2026,1.626,0.6084,2.0889
				c0.4058,0.4619,0.916,0.6934,1.5313,0.6934c0.6108,0,1.1187-0.2324,1.5244-0.6973s0.6084-1.1738,0.6084-2.126
				c0-0.8975-0.2041-1.5781-0.6118-2.04c-0.4077-0.4629-0.915-0.6943-1.521-0.6943c-0.6152,0-1.1255,0.2305-1.5313,0.6904
				S71.5693,16.3447,71.5693,17.2744z"/>
			<path style="fill:#C9452F;" d="M78.0566,18.7373l1.2168-0.1914c0.0684,0.4873,0.2588,0.8613,0.5708,1.1211
				s0.7485,0.3896,1.3091,0.3896c0.5649,0,0.9844-0.1152,1.2578-0.3457c0.2734-0.2295,0.4102-0.5,0.4102-0.8096
				c0-0.2783-0.1206-0.4971-0.3623-0.6563c-0.1685-0.1094-0.5879-0.248-1.2578-0.417c-0.9023-0.2275-1.5278-0.4248-1.8765-0.5918
				c-0.3486-0.166-0.6128-0.3965-0.793-0.6895c-0.1802-0.2949-0.27-0.6191-0.27-0.9746c0-0.3232,0.0742-0.623,0.2222-0.8984
				c0.1479-0.2764,0.3496-0.5049,0.605-0.6875c0.1914-0.1416,0.4521-0.2607,0.7827-0.3594c0.3306-0.0977,0.6846-0.1465,1.063-0.1465
				c0.5698,0,1.0698,0.082,1.5005,0.2461s0.7485,0.3867,0.9536,0.666c0.2051,0.2813,0.3462,0.6553,0.4238,1.125l-1.2031,0.1641
				c-0.0547-0.374-0.2129-0.665-0.4751-0.875s-0.6323-0.3145-1.1108-0.3145c-0.5649,0-0.9683,0.0938-1.21,0.2803
				s-0.3623,0.4053-0.3623,0.6563c0,0.1592,0.0503,0.3027,0.1504,0.4307c0.1001,0.1318,0.2573,0.2412,0.4717,0.3281
				c0.123,0.0459,0.4854,0.1504,1.0869,0.3145c0.8706,0.2324,1.4775,0.4229,1.8218,0.5703
				c0.3442,0.1484,0.6143,0.3643,0.8101,0.6465s0.2939,0.6338,0.2939,1.0527c0,0.4102-0.1196,0.7969-0.3589,1.1582
				c-0.2393,0.3633-0.5845,0.6426-1.0356,0.8418c-0.4512,0.1973-0.9614,0.2969-1.5313,0.2969c-0.9434,0-1.6621-0.1963-2.1567-0.5879
				S78.1933,19.5078,78.0566,18.7373z"/>
			<path style="fill:#C9452F;" d="M89.4452,12.2979v-1.415h1.2305v1.415H89.4452z M89.4452,20.9043v-7.2598h1.2305v7.2598H89.4452z"
				/>
			<path style="fill:#C9452F;" d="M92.5487,20.9043v-7.2598h1.1074v1.0322c0.5332-0.7979,1.3032-1.1963,2.3105-1.1963
				c0.4375,0,0.8398,0.0781,1.2065,0.2363c0.3667,0.1563,0.6416,0.3633,0.8237,0.6182s0.3101,0.5586,0.3828,0.9092
				c0.0454,0.2275,0.0684,0.627,0.0684,1.1963v4.4639h-1.2305v-4.416c0-0.501-0.0479-0.876-0.1436-1.125
				c-0.0957-0.248-0.2656-0.4463-0.5093-0.5938c-0.2437-0.1484-0.5298-0.2227-0.8579-0.2227c-0.5239,0-0.9766,0.166-1.3569,0.499
				s-0.5708,0.9639-0.5708,1.8936v3.9648H92.5487z"/>
			<path style="fill:#C9452F;" d="M103.0214,19.8037l0.1777,1.0869C102.8529,20.9639,102.5429,21,102.2694,21
				c-0.4468,0-0.793-0.0703-1.0391-0.2119s-0.4194-0.3271-0.5195-0.5576c-0.1001-0.2295-0.1504-0.7139-0.1504-1.4521v-4.1768
				h-0.9023v-0.957h0.9023v-1.7979l1.2236-0.7383v2.5361h1.2373v0.957h-1.2373v4.2451c0,0.3506,0.0215,0.5762,0.0649,0.6768
				s0.1138,0.1797,0.2119,0.2393s0.2383,0.0889,0.4204,0.0889C102.6181,19.8516,102.7983,19.8359,103.0214,19.8037z"/>
			<path style="fill:#C9452F;" d="M109.1943,18.5664l1.2715,0.1572c-0.2007,0.7432-0.5718,1.3193-1.1143,1.7295
				s-1.2349,0.6152-2.0781,0.6152c-1.062,0-1.9038-0.3271-2.5259-0.9805c-0.6221-0.6543-0.9331-1.5713-0.9331-2.752
				c0-1.2217,0.3145-2.1689,0.9434-2.8438s1.4448-1.0117,2.4473-1.0117c0.9707,0,1.7637,0.3301,2.3789,0.9912
				s0.9229,1.5908,0.9229,2.7891c0,0.0732-0.0024,0.1826-0.0068,0.3281h-5.4141c0.0454,0.7979,0.271,1.4082,0.6768,1.832
				s0.9116,0.6357,1.5176,0.6357c0.4512,0,0.8364-0.1182,1.1553-0.3555S109.0072,19.0859,109.1943,18.5664z M105.1542,16.5772
				h4.0537c-0.0547-0.6104-0.2095-1.0684-0.4648-1.374c-0.3921-0.4736-0.8999-0.7109-1.5244-0.7109
				c-0.5649,0-1.04,0.1895-1.4253,0.5674S105.1952,15.9434,105.1542,16.5772z"/>
			<path style="fill:#C9452F;" d="M111.997,20.9043v-7.2598h1.1074v1.1006c0.2827-0.5146,0.5435-0.8545,0.7827-1.0186
				s0.5024-0.2461,0.7896-0.2461c0.4146,0,0.8364,0.1318,1.2646,0.3965l-0.4238,1.1416c-0.3008-0.1777-0.6016-0.2666-0.9023-0.2666
				c-0.269,0-0.5103,0.0811-0.7246,0.2422c-0.2144,0.1621-0.3667,0.3867-0.458,0.6738c-0.1367,0.4375-0.2051,0.916-0.2051,1.4355
				v3.8008H111.997z"/>
			<path style="fill:#C9452F;" d="M121.4101,20.0088c-0.4556,0.3877-0.8945,0.6611-1.3159,0.8203s-0.874,0.2393-1.3569,0.2393
				c-0.7974,0-1.4106-0.1953-1.8389-0.584c-0.4282-0.3906-0.6426-0.8877-0.6426-1.4941c0-0.3555,0.0811-0.6797,0.2427-0.9746
				c0.1616-0.293,0.3735-0.5293,0.6357-0.707s0.5571-0.3125,0.8853-0.4033c0.2417-0.0635,0.606-0.125,1.0938-0.1846
				c0.9937-0.1182,1.7251-0.2598,2.1943-0.4238c0.0044-0.1689,0.0068-0.2754,0.0068-0.3213c0-0.501-0.1162-0.8545-0.3486-1.0596
				c-0.3145-0.2783-0.7817-0.417-1.4014-0.417c-0.5786,0-1.0059,0.1016-1.2817,0.3037c-0.2759,0.2031-0.4795,0.5625-0.6118,1.0771
				l-1.2031-0.1641c0.1094-0.5146,0.2896-0.9307,0.54-1.2471c0.2505-0.3174,0.6128-0.5605,1.0869-0.7324
				c0.4741-0.1699,1.0229-0.2559,1.6475-0.2559c0.6196,0,1.1235,0.0732,1.5107,0.2188s0.6724,0.3291,0.8545,0.5508
				c0.1821,0.2207,0.3101,0.5,0.3828,0.8369c0.041,0.21,0.0615,0.5879,0.0615,1.1348v1.6406c0,1.1436,0.0264,1.8672,0.0786,2.1709
				c0.0522,0.3027,0.1563,0.5928,0.311,0.8711h-1.2852C121.5287,20.6494,121.4467,20.3506,121.4101,20.0088z M121.3075,17.2608
				c-0.4468,0.1826-1.1167,0.3369-2.0098,0.4648c-0.5059,0.0732-0.8638,0.1553-1.0732,0.2461s-0.3716,0.2246-0.4854,0.3994
				c-0.1138,0.1758-0.1709,0.3711-0.1709,0.585c0,0.3281,0.124,0.6016,0.3726,0.8203s0.6118,0.3281,1.0903,0.3281
				c0.4741,0,0.8955-0.1035,1.2646-0.3115c0.3691-0.207,0.6401-0.4902,0.8135-0.8506c0.1323-0.2783,0.1982-0.6885,0.1982-1.2305
				V17.2608z"/>
			<path style="fill:#C9452F;" d="M127.1454,19.8037l0.1777,1.0869C126.977,20.9639,126.6669,21,126.3935,21
				c-0.4468,0-0.793-0.0703-1.0391-0.2119s-0.4194-0.3271-0.5195-0.5576c-0.1001-0.2295-0.1504-0.7139-0.1504-1.4521v-4.1768
				h-0.9023v-0.957h0.9023v-1.7979l1.2236-0.7383v2.5361h1.2373v0.957h-1.2373v4.2451c0,0.3506,0.0215,0.5762,0.0649,0.6768
				s0.1138,0.1797,0.2119,0.2393s0.2383,0.0889,0.4204,0.0889C126.7421,19.8516,126.9223,19.8359,127.1454,19.8037z"/>
			<path style="fill:#C9452F;" d="M128.3554,12.2979v-1.415h1.2305v1.415H128.3554z M128.3554,20.9043v-7.2598h1.2305v7.2598
				H128.3554z"/>
			<path style="fill:#C9452F;" d="M133.4755,20.9043l-2.7617-7.2598h1.2988l1.5586,4.3477c0.1685,0.4697,0.3237,0.957,0.4648,1.4629
				c0.1094-0.3828,0.2622-0.8428,0.458-1.3809l1.6133-4.4297h1.2646l-2.748,7.2598H133.4755z"/>
			<path style="fill:#C9452F;" d="M138.0009,17.2744c0-1.3447,0.3735-2.3398,1.1211-2.9873
				c0.6245-0.5381,1.3853-0.8066,2.2832-0.8066c0.998,0,1.814,0.3271,2.4473,0.9805c0.6333,0.6543,0.9502,1.5576,0.9502,2.7109
				c0,0.9346-0.1401,1.6689-0.4204,2.2051c-0.2803,0.5352-0.688,0.9512-1.2236,1.2471s-1.1201,0.4443-1.7534,0.4443
				c-1.0161,0-1.8379-0.3262-2.4644-0.9775S138.0009,18.5,138.0009,17.2744z M139.2655,17.2744c0,0.9297,0.2026,1.626,0.6084,2.0889
				c0.4058,0.4619,0.916,0.6934,1.5313,0.6934c0.6108,0,1.1187-0.2324,1.5244-0.6973s0.6084-1.1738,0.6084-2.126
				c0-0.8975-0.2041-1.5781-0.6118-2.04c-0.4077-0.4629-0.915-0.6943-1.521-0.6943c-0.6152,0-1.1255,0.2305-1.5313,0.6904
				S139.2655,16.3447,139.2655,17.2744z"/>
			<path style="fill:#C9452F;" d="M145.7528,18.7373l1.2168-0.1914c0.0684,0.4873,0.2588,0.8613,0.5708,1.1211
				s0.7485,0.3896,1.3091,0.3896c0.5649,0,0.9844-0.1152,1.2578-0.3457c0.2734-0.2295,0.4102-0.5,0.4102-0.8096
				c0-0.2783-0.1206-0.4971-0.3623-0.6563c-0.1685-0.1094-0.5879-0.248-1.2578-0.417c-0.9023-0.2275-1.5278-0.4248-1.8765-0.5918
				c-0.3486-0.166-0.6128-0.3965-0.793-0.6895c-0.1802-0.2949-0.27-0.6191-0.27-0.9746c0-0.3232,0.0742-0.623,0.2222-0.8984
				c0.1479-0.2764,0.3496-0.5049,0.605-0.6875c0.1914-0.1416,0.4521-0.2607,0.7827-0.3594c0.3306-0.0977,0.6846-0.1465,1.063-0.1465
				c0.5698,0,1.0698,0.082,1.5005,0.2461s0.7485,0.3867,0.9536,0.666c0.2051,0.2813,0.3462,0.6553,0.4238,1.125l-1.2031,0.1641
				c-0.0547-0.374-0.2129-0.665-0.4751-0.875s-0.6323-0.3145-1.1108-0.3145c-0.5649,0-0.9683,0.0938-1.21,0.2803
				s-0.3623,0.4053-0.3623,0.6563c0,0.1592,0.0503,0.3027,0.1504,0.4307c0.1001,0.1318,0.2573,0.2412,0.4717,0.3281
				c0.123,0.0459,0.4854,0.1504,1.0869,0.3145c0.8706,0.2324,1.4775,0.4229,1.8218,0.5703
				c0.3442,0.1484,0.6143,0.3643,0.8101,0.6465s0.2939,0.6338,0.2939,1.0527c0,0.4102-0.1196,0.7969-0.3589,1.1582
				c-0.2393,0.3633-0.5845,0.6426-1.0356,0.8418c-0.4512,0.1973-0.9614,0.2969-1.5313,0.2969c-0.9434,0-1.6621-0.1963-2.1567-0.5879
				S145.8896,19.5078,145.7528,18.7373z"/>
		</g>
	</g>
</g>
</svg>
