<?xml version="1.0" encoding="utf-8"?>
<!-- Generator: Adobe Illustrator 21.0.2, SVG Export Plug-In . SVG Version: 6.00 Build 0)  -->
<svg version="1.1" id="Capa_1" xmlns="http://www.w3.org/2000/svg" xmlns:xlink="http://www.w3.org/1999/xlink" x="0px" y="0px"
	 viewBox="0 0 233.7635 600.375" style="enable-background:new 0 0 233.7635 600.375;" xml:space="preserve">
<g>
	<rect id="XMLID_5151_" y="0" style="fill:#2A4690;" width="233.611" height="600"/>
	<g id="XMLID_5015_">
		<path style="fill-rule:evenodd;clip-rule:evenodd;fill:#FFFFFF;" d="M116.9582,475.2683
			c-43.4149,0-83.6689,13.5115-116.8057,36.5466v88.5601h233.611v-88.5603C200.6267,488.7798,160.3728,475.2683,116.9582,475.2683z"
			/>
	</g>
	<g id="XMLID_4828_">
		<path id="XMLID_5014_" style="fill-rule:evenodd;clip-rule:evenodd;" d="M116.121,505.9879c4.5319,0,8.2252,3.718,8.2252,8.2747
			s-3.6932,8.2728-8.2252,8.2728c-4.5301,0-8.2272-3.7161-8.2272-8.2728S111.591,505.9879,116.121,505.9879"/>
		<path id="XMLID_4837_" style="fill-rule:evenodd;clip-rule:evenodd;" d="M86.1611,532.6915v0.0305l-0.04,0.3043
			c0,0.426,0.2416,0.7436,0.7265,0.9528c0.4887,0.2073,1.2418,0.3119,2.2612,0.3119c0.7759,0,1.3826-0.0875,1.8238-0.2568
			c0.4431-0.1711,0.6637-0.405,0.6637-0.7036c0-0.4526-0.8748-0.8159-2.615-1.1012c-0.2035-0.0323-0.3556-0.057-0.4545-0.0722
			c-0.1122-0.0209-0.2757-0.0476-0.4887-0.0818c-2.7652-0.4526-4.5453-0.9433-5.3307-1.472
			c-0.3823-0.2606-0.6752-0.5629-0.8729-0.9148c-0.1901-0.3518-0.289-0.7512-0.289-1.1886c0-1.0821,0.6352-1.9056,1.9056-2.4704
			c1.2704-0.5648,3.1303-0.8482,5.578-0.8482c2.4191,0,4.2105,0.2643,5.3763,0.793c1.1639,0.5325,1.7478,1.3503,1.7478,2.4476
			v0.1274h-4.5815v-0.0494c0-0.3804-0.2282-0.6637-0.6922-0.8577c-0.464-0.1959-1.1449-0.2947-2.0387-0.2947
			c-0.6942,0-1.2305,0.0685-1.6032,0.2073c-0.3785,0.1389-0.5667,0.3385-0.5667,0.5934c0,0.4583,0.9985,0.8463,2.9953,1.1696
			c0.3841,0.057,0.6865,0.1046,0.9052,0.1388c1.4226,0.2377,2.4362,0.4431,3.0391,0.6143c0.6028,0.1693,1.122,0.3727,1.5613,0.6048
			c0.485,0.2662,0.8672,0.6047,1.1296,1.0117c0.2644,0.407,0.3975,0.8521,0.3975,1.3389c0,1.1144-0.6941,1.9703-2.0768,2.5712
			c-1.3845,0.601-3.3794,0.9014-5.9773,0.9014c-2.5693,0-4.4293-0.2891-5.5799-0.8653c-1.1505-0.5801-1.7192-1.5043-1.7192-2.7804
			v-0.1617H86.1611z M98.709,536.3144v-10.9676h13.0577v2.3639h-8.1548v1.7477h7.5406v2.3335h-7.5406v2.1281h8.4648v2.3943H98.709z
			 M114.123,536.3144v-10.9676h6.2055l6.641,7.358v-7.358h4.7108v10.9676h-6.4356l-6.4261-7.3846v7.3846H114.123z
			 M144.3481,531.9403l-2.3468-3.9862l-2.4799,3.9862H144.3481z M136.8779,536.3144h-4.9162l7.59-10.9676h5.4391l7.2401,10.9676
			h-5.46l-1.105-1.9797h-7.6071L136.8779,536.3144z"/>
		<path id="XMLID_4835_" style="fill-rule:evenodd;clip-rule:evenodd;" d="M92.1894,574.979l-4.3798-4.1174l13.3334-23.1409
			c0.7265-1.2628-0.1825-2.8394-1.6393-2.8394H77.6749v-5.789h35.1336L92.1894,574.979z"/>
		<path id="XMLID_4831_" style="fill-rule:evenodd;clip-rule:evenodd;" d="M139.6714,574.979l4.3798-4.1174l-13.3334-23.1409
			c-0.7265-1.2628,0.1825-2.8394,1.6393-2.8394h21.8287v-5.789h-35.1336L139.6714,574.979z"/>
		<path id="XMLID_4830_" style="fill-rule:evenodd;clip-rule:evenodd;" d="M115.8826,545.2106l0.0475-0.0818l19.7976,32.724
			l-5.2565,2.7348l-12.7572-21.3647c-0.7512-1.259-2.575-1.2609-3.3224,0c-4.2524,7.1678-12.6735,21.3647-12.6735,21.3647
			l-5.1462-2.5446C96.5718,578.043,114.8251,547.0096,115.8826,545.2106"/>
	</g>
	<path id="XMLID_4824_" style="opacity:0.5;fill:#2C6882;" d="M119.0522,474.8638C72.4672,472.767,10.5109,495.6893,1.2917,499.2136
		c-0.5971,0.2283-1.0078,0.746-1.1392,1.3553v11.8296c0-0.6182,0.3032-1.1996,0.8125-1.55
		c32.9813-22.6928,72.9325-35.9847,115.9932-35.9847c0.8497,0,1.6959,0.0144,2.543,0.0247
		C119.3499,474.8807,119.2067,474.8707,119.0522,474.8638z"/>
	<path id="XMLID_4675_" style="opacity:0.5;fill:#2C6882;" d="M114.5719,474.8638c46.5851-2.0968,108.5414,20.8256,117.7606,24.3499
		c0.5971,0.2283,1.0078,0.746,1.1392,1.3553v11.8296c0-0.6182-0.3032-1.1996-0.8125-1.55
		c-32.9813-22.6928-72.9325-35.9847-115.9932-35.9847c-0.8497,0-1.6959,0.0144-2.543,0.0247
		C114.2743,474.8807,114.4175,474.8707,114.5719,474.8638z"/>
	<g>
		<g>
			<path style="fill:#AFD4E8;" d="M39.4572,24.3721v26.9473h-2.6523V24.3721h-7.0293v-2.5283h16.7109v2.5283H39.4572z"/>
			<path style="fill:#AFD4E8;" d="M61.7482,47.9483c-0.3223,0.7539-0.7637,1.4116-1.3252,1.9731
				c-0.5625,0.5625-1.2207,1.0044-1.9736,1.3262c-0.7539,0.3218-1.5557,0.4829-2.4053,0.4829h-1.6855
				c-0.8496,0-1.6514-0.1611-2.4043-0.4829c-0.7539-0.3218-1.4121-0.7637-1.9736-1.3262c-0.5615-0.5615-1.0039-1.2192-1.3252-1.9731
				c-0.3223-0.7534-0.4834-1.5552-0.4834-2.4048v-9.4961c0-0.8496,0.1611-1.6514,0.4834-2.4053
				c0.3213-0.7534,0.7637-1.4111,1.3252-1.9731c0.5615-0.5615,1.2197-1.0034,1.9736-1.3257
				c0.7529-0.3218,1.5547-0.4829,2.4043-0.4829h1.6855c0.8496,0,1.6514,0.1611,2.4053,0.4829
				c0.7529,0.3223,1.4111,0.7642,1.9736,1.3257c0.5615,0.562,1.0029,1.2197,1.3252,1.9731
				c0.3223,0.7539,0.4834,1.5557,0.4834,2.4053v4.9536H50.7004v4.6865c0,0.5068,0.0957,0.9834,0.2871,1.4282
				c0.1924,0.4458,0.4531,0.8325,0.7813,1.1616c0.3291,0.3286,0.7158,0.5894,1.1621,0.7808
				c0.4443,0.1924,0.9209,0.2881,1.4277,0.2881h1.6855c0.5068,0,0.9834-0.0957,1.4287-0.2881
				c0.4453-0.1914,0.833-0.4521,1.1611-0.7808c0.3291-0.3291,0.5898-0.7158,0.7813-1.1616
				c0.1924-0.4448,0.2881-0.9214,0.2881-1.4282v-1.3979l2.5283,0.4111v0.8428C62.2316,46.3931,62.0705,47.1948,61.7482,47.9483z
				 M59.7033,35.9033c0-0.5068-0.0957-0.9829-0.2881-1.4287c-0.1914-0.4448-0.4521-0.8325-0.7813-1.1611
				c-0.3281-0.3291-0.7158-0.5889-1.1611-0.7813c-0.4453-0.1914-0.9219-0.2876-1.4287-0.2876h-1.6855
				c-0.5068,0-0.9834,0.0962-1.4277,0.2876c-0.4463,0.1924-0.833,0.4521-1.1621,0.7813c-0.3281,0.3286-0.5889,0.7163-0.7813,1.1611
				c-0.1914,0.4458-0.2871,0.9219-0.2871,1.4287v3.1245h9.0029V35.9033z M54.1535,26.9004h-1.8916l3.3506-5.0566h4.2139
				L54.1535,26.9004z"/>
			<path style="fill:#AFD4E8;" d="M80.8644,47.9483c-0.3223,0.7539-0.7637,1.4116-1.3252,1.9731
				c-0.5625,0.5625-1.2207,1.0044-1.9736,1.3262c-0.7539,0.3218-1.5557,0.4829-2.4053,0.4829h-1.6855
				c-0.8496,0-1.6514-0.1611-2.4043-0.4829c-0.7539-0.3218-1.4121-0.7637-1.9736-1.3262c-0.5615-0.5615-1.0039-1.2192-1.3252-1.9731
				c-0.3223-0.7534-0.4834-1.5552-0.4834-2.4048v-9.4961c0-0.8496,0.1611-1.6514,0.4834-2.4053
				c0.3213-0.7534,0.7637-1.4111,1.3252-1.9731c0.5615-0.5615,1.2197-1.0034,1.9736-1.3257
				c0.7529-0.3218,1.5547-0.4829,2.4043-0.4829h1.6855c0.8496,0,1.6514,0.1611,2.4053,0.4829
				c0.7529,0.3223,1.4111,0.7642,1.9736,1.3257c0.5615,0.562,1.0029,1.2197,1.3252,1.9731
				c0.3223,0.7539,0.4834,1.5557,0.4834,2.4053v0.8428l-2.5283,0.4111v-1.3979c0-0.5068-0.0957-0.9829-0.2881-1.4287
				c-0.1914-0.4448-0.4521-0.8325-0.7813-1.1611c-0.3281-0.3291-0.7158-0.5889-1.1611-0.7813
				c-0.4453-0.1914-0.9219-0.2876-1.4287-0.2876h-1.6855c-0.5068,0-0.9834,0.0962-1.4277,0.2876
				c-0.4463,0.1924-0.833,0.4521-1.1621,0.7813c-0.3281,0.3286-0.5889,0.7163-0.7813,1.1611
				c-0.1914,0.4458-0.2871,0.9219-0.2871,1.4287v9.7842c0,0.5068,0.0957,0.9834,0.2871,1.4282
				c0.1924,0.4458,0.4531,0.8325,0.7813,1.1616c0.3291,0.3286,0.7158,0.5894,1.1621,0.7808
				c0.4443,0.1924,0.9209,0.2881,1.4277,0.2881h1.6855c0.5068,0,0.9834-0.0957,1.4287-0.2881
				c0.4453-0.1914,0.833-0.4521,1.1611-0.7808c0.3291-0.3291,0.5898-0.7158,0.7813-1.1616
				c0.1924-0.4448,0.2881-0.9214,0.2881-1.4282v-1.3979l2.5283,0.4111v0.8428C81.3478,46.3931,81.1867,47.1948,80.8644,47.9483z"/>
			<path style="fill:#AFD4E8;" d="M97.9348,51.3194v-15.416c0-0.5068-0.0957-0.9829-0.2881-1.4287
				c-0.1914-0.4448-0.4521-0.8325-0.7813-1.1611c-0.3281-0.3291-0.7158-0.5889-1.1611-0.7813
				c-0.4453-0.1914-0.9219-0.2876-1.4287-0.2876H92.59c-0.5068,0-0.9834,0.0962-1.4277,0.2876
				c-0.4463,0.1924-0.833,0.4521-1.1621,0.7813c-0.3281,0.3286-0.5889,0.7163-0.7813,1.1611
				c-0.1914,0.4458-0.2871,0.9219-0.2871,1.4287v15.416h-2.5283V30.2715h0.8428l1.377,2.1377
				c0.5752-0.7812,1.2979-1.4009,2.1689-1.8603c0.8701-0.459,1.8184-0.6885,2.8467-0.6885h0.6367
				c0.8496,0,1.6514,0.1611,2.4053,0.4829c0.7529,0.3223,1.4111,0.7642,1.9736,1.3257c0.5615,0.562,1.0029,1.2197,1.3252,1.9731
				c0.3223,0.7539,0.4834,1.5557,0.4834,2.4053v15.272H97.9348z"/>
			<path style="fill:#AFD4E8;" d="M106.1564,25.2149v-3.3711h2.9395v3.3711H106.1564z M106.3625,51.3194V30.2715h2.5283v21.0478
				H106.3625z"/>
			<path style="fill:#AFD4E8;" d="M128.3664,47.9483c-0.3223,0.7539-0.7637,1.4116-1.3252,1.9731
				c-0.5625,0.5625-1.2207,1.0044-1.9736,1.3262c-0.7539,0.3218-1.5557,0.4829-2.4053,0.4829h-1.6855
				c-0.8496,0-1.6514-0.1611-2.4043-0.4829c-0.7539-0.3218-1.4121-0.7637-1.9736-1.3262c-0.5615-0.5615-1.0039-1.2192-1.3252-1.9731
				c-0.3223-0.7534-0.4834-1.5552-0.4834-2.4048v-9.4961c0-0.8496,0.1611-1.6514,0.4834-2.4053
				c0.3213-0.7534,0.7637-1.4111,1.3252-1.9731c0.5615-0.5615,1.2197-1.0034,1.9736-1.3257
				c0.7529-0.3218,1.5547-0.4829,2.4043-0.4829h1.6855c0.8496,0,1.6514,0.1611,2.4053,0.4829
				c0.7529,0.3223,1.4111,0.7642,1.9736,1.3257c0.5615,0.562,1.0029,1.2197,1.3252,1.9731
				c0.3223,0.7539,0.4834,1.5557,0.4834,2.4053v0.8428l-2.5283,0.4111v-1.3979c0-0.5068-0.0957-0.9829-0.2881-1.4287
				c-0.1914-0.4448-0.4521-0.8325-0.7813-1.1611c-0.3281-0.3291-0.7158-0.5889-1.1611-0.7813
				c-0.4453-0.1914-0.9219-0.2876-1.4287-0.2876h-1.6855c-0.5068,0-0.9834,0.0962-1.4277,0.2876
				c-0.4463,0.1924-0.833,0.4521-1.1621,0.7813c-0.3281,0.3286-0.5889,0.7163-0.7813,1.1611
				c-0.1914,0.4458-0.2871,0.9219-0.2871,1.4287v9.7842c0,0.5068,0.0957,0.9834,0.2871,1.4282
				c0.1924,0.4458,0.4531,0.8325,0.7813,1.1616c0.3291,0.3286,0.7158,0.5894,1.1621,0.7808
				c0.4443,0.1924,0.9209,0.2881,1.4277,0.2881h1.6855c0.5068,0,0.9834-0.0957,1.4287-0.2881
				c0.4453-0.1914,0.833-0.4521,1.1611-0.7808c0.3291-0.3291,0.5898-0.7158,0.7813-1.1616
				c0.1924-0.4448,0.2881-0.9214,0.2881-1.4282v-1.3979l2.5283,0.4111v0.8428C128.8498,46.3931,128.6887,47.1948,128.3664,47.9483z"
				/>
			<path style="fill:#AFD4E8;" d="M147.1223,51.3194l-1.3975-2.0967c-0.5762,0.7539-1.2959,1.3604-2.1592,1.8193
				s-1.8086,0.6885-2.8359,0.6885h-0.6377c-0.8496,0-1.6514-0.1611-2.4043-0.4829c-0.7539-0.3218-1.4121-0.7637-1.9736-1.3262
				c-0.5615-0.5615-1.0039-1.2192-1.3252-1.9731c-0.3223-0.7534-0.4834-1.5552-0.4834-2.4048v-0.2056
				c0-0.8496,0.1611-1.6509,0.4834-2.4048c0.3213-0.7534,0.7637-1.4111,1.3252-1.9731s1.2197-1.0039,1.9736-1.3262
				c0.7529-0.3218,1.5547-0.4829,2.4043-0.4829h5.3447v-3.2476c0-0.5068-0.0957-0.9829-0.2881-1.4287
				c-0.1914-0.4448-0.4521-0.8325-0.7813-1.1611c-0.3281-0.3291-0.7158-0.5889-1.1611-0.7813
				c-0.4453-0.1914-0.9219-0.2876-1.4287-0.2876h-1.4795c-0.5068,0-0.9834,0.0962-1.4287,0.2876
				c-0.4453,0.1924-0.832,0.4521-1.1611,0.7813c-0.3291,0.3286-0.5898,0.7163-0.7813,1.1611
				c-0.1924,0.4458-0.2881,0.9219-0.2881,1.4287v0.7607l-2.5283-0.4111v-0.2056c0-0.8496,0.1611-1.6514,0.4834-2.4053
				c0.3223-0.7534,0.7637-1.4111,1.3262-1.9731c0.5615-0.5615,1.2188-1.0034,1.9727-1.3257
				c0.7539-0.3218,1.5557-0.4829,2.4053-0.4829h1.4795c0.8496,0,1.6514,0.1611,2.4053,0.4829
				c0.7529,0.3223,1.4111,0.7642,1.9736,1.3257c0.5615,0.562,1.0029,1.2197,1.3252,1.9731
				c0.3223,0.7539,0.4834,1.5557,0.4834,2.4053v15.272H147.1223z M145.4367,41.124h-5.3447c-0.5068,0-0.9834,0.0962-1.4277,0.2881
				c-0.4463,0.1919-0.833,0.4556-1.1621,0.791c-0.3281,0.3359-0.5889,0.7266-0.7813,1.1719
				c-0.1914,0.4453-0.2871,0.9219-0.2871,1.4287v0.8838c0,0.5068,0.0957,0.9834,0.2871,1.4282
				c0.1924,0.4458,0.4531,0.8325,0.7813,1.1616c0.3291,0.3286,0.7158,0.5894,1.1621,0.7808
				c0.4443,0.1924,0.9209,0.2881,1.4277,0.2881h1.6855c0.5068,0,0.9834-0.0957,1.4287-0.2881
				c0.4453-0.1914,0.833-0.4521,1.1611-0.7808c0.3291-0.3291,0.5898-0.7158,0.7813-1.1616
				c0.1924-0.4448,0.2881-0.9214,0.2881-1.4282V41.124z"/>
			<path style="fill:#AFD4E8;" d="M167.4924,45.9751c0,0.8496-0.1719,1.6274-0.5137,2.333
				c-0.3428,0.7061-0.8096,1.312-1.3984,1.8188c-0.5889,0.5073-1.2705,0.9014-2.0449,1.1821s-1.5859,0.4214-2.4355,0.4214h-1.6855
				c-0.8496,0-1.6621-0.1611-2.4355-0.4829c-0.7744-0.3218-1.4531-0.7637-2.0352-1.3262c-0.583-0.5615-1.0488-1.2192-1.3975-1.9731
				c-0.3496-0.7534-0.5244-1.5552-0.5244-2.4048v-0.8428l2.5283-0.4111v1.3979c0,0.5068,0.1055,0.9834,0.3184,1.4282
				c0.2119,0.4458,0.4961,0.8325,0.8535,1.1616c0.3555,0.3286,0.7666,0.5894,1.2324,0.7808c0.4658,0.1924,0.9531,0.2881,1.46,0.2881
				h1.6855c0.5068,0,0.9932-0.0752,1.459-0.2261s0.8809-0.3667,1.2441-0.6475c0.3623-0.2808,0.6504-0.6201,0.8633-1.0176
				c0.2119-0.3975,0.3184-0.8496,0.3184-1.3564c0-0.7534-0.165-1.3701-0.4932-1.8501c-0.3291-0.4795-0.7646-0.8804-1.3057-1.2026
				c-0.541-0.3218-1.1582-0.5889-1.8496-0.8013c-0.6924-0.2124-1.4014-0.4248-2.1279-0.6372s-1.4355-0.4556-2.127-0.73
				c-0.6924-0.2739-1.3086-0.6338-1.8496-1.0791c-0.542-0.4448-0.9766-1.0034-1.3057-1.6753
				c-0.3291-0.6709-0.4932-1.5068-0.4932-2.5073c0-0.8496,0.1641-1.6274,0.4932-2.333s0.7744-1.312,1.3359-1.8193
				c0.5615-0.5068,1.2158-0.9009,1.9629-1.1816s1.5449-0.4214,2.3945-0.4214h1.4805c0.8496,0,1.6514,0.1611,2.4043,0.4829
				c0.7539,0.3223,1.4111,0.7642,1.9736,1.3257c0.5615,0.562,1.0039,1.2197,1.3262,1.9731
				c0.3213,0.7539,0.4824,1.5557,0.4824,2.4053v0.082l-2.5283,0.4111v-0.6372c0-0.5068-0.0957-0.9829-0.2871-1.4287
				c-0.1924-0.4448-0.4521-0.8325-0.7813-1.1611c-0.3291-0.3291-0.7168-0.5889-1.1611-0.7813
				c-0.4463-0.1914-0.9219-0.2876-1.4287-0.2876h-1.4805c-0.5068,0-0.9834,0.0752-1.4287,0.2261s-0.832,0.3667-1.1611,0.6475
				c-0.3281,0.2808-0.5889,0.6201-0.7813,1.0176c-0.1914,0.3975-0.2871,0.8496-0.2871,1.3564c0,0.7266,0.1641,1.3188,0.4932,1.7778
				c0.3291,0.4595,0.7637,0.8467,1.3047,1.1616c0.542,0.3154,1.1582,0.5791,1.8506,0.791c0.6914,0.2129,1.3975,0.4316,2.1172,0.6582
				c0.7188,0.2261,1.4248,0.4829,2.1172,0.7705c0.6914,0.2881,1.3086,0.6577,1.8496,1.1099s0.9766,1.0176,1.3057,1.6958
				C167.3273,44.1353,167.4924,44.9751,167.4924,45.9751z"/>
		</g>
		<g>
			<g>
				<path style="fill:#FFFFFF;" d="M72.5217,66.1641l-0.5586-0.855c-0.2305,0.3125-0.5176,0.5605-0.8633,0.7441
					s-0.7236,0.2754-1.1348,0.2754h-0.2549c-0.3398,0-0.6602-0.0645-0.9619-0.1934c-0.3008-0.1289-0.5645-0.3052-0.7891-0.5303
					c-0.2246-0.2246-0.4014-0.4878-0.5303-0.7891s-0.1934-0.6221-0.1934-0.9619v-3.7979c0-0.3398,0.0645-0.6606,0.1934-0.9619
					s0.3057-0.5645,0.5303-0.7891c0.2246-0.2251,0.4883-0.4019,0.7891-0.5303c0.3018-0.1289,0.6221-0.1934,0.9619-0.1934h0.2549
					c0.3779,0,0.7295,0.0767,1.0527,0.23c0.3232,0.1538,0.5996,0.3672,0.8301,0.6416v-4.0776h1.0107v11.7886H72.5217z
					 M71.8478,59.9986c0-0.2026-0.0381-0.3931-0.1152-0.5713s-0.1807-0.333-0.3125-0.4648
					c-0.1309-0.1313-0.2861-0.2354-0.4639-0.312c-0.1787-0.0767-0.3691-0.1152-0.5713-0.1152h-0.6748
					c-0.2021,0-0.3926,0.0386-0.5713,0.1152c-0.1777,0.0767-0.333,0.1807-0.4639,0.312c-0.1318,0.1318-0.2363,0.2866-0.3125,0.4648
					c-0.0771,0.1782-0.1152,0.3687-0.1152,0.5713v3.9131c0,0.2026,0.0381,0.3931,0.1152,0.5713
					c0.0762,0.1782,0.1807,0.333,0.3125,0.4644c0.1309,0.1318,0.2861,0.2358,0.4639,0.3125
					c0.1787,0.0767,0.3691,0.1152,0.5713,0.1152h0.6748c0.2021,0,0.3926-0.0386,0.5713-0.1152
					c0.1777-0.0767,0.333-0.1807,0.4639-0.3125c0.1318-0.1313,0.2354-0.2861,0.3125-0.4644s0.1152-0.3687,0.1152-0.5713V59.9986z"/>
				<path style="fill:#FFFFFF;" d="M80.3117,64.8159c-0.1289,0.3013-0.3057,0.5645-0.5303,0.7891
					c-0.2256,0.2251-0.4883,0.4014-0.79,0.5303c-0.3008,0.1289-0.6221,0.1934-0.9609,0.1934h-0.6748
					c-0.3398,0-0.6602-0.0645-0.9619-0.1934c-0.3008-0.1289-0.5645-0.3052-0.7891-0.5303
					c-0.2246-0.2246-0.4014-0.4878-0.5303-0.7891s-0.1934-0.6221-0.1934-0.9619v-3.7979c0-0.3398,0.0645-0.6606,0.1934-0.9619
					s0.3057-0.5645,0.5303-0.7891c0.2246-0.2251,0.4883-0.4019,0.7891-0.5303c0.3018-0.1289,0.6221-0.1934,0.9619-0.1934h0.6748
					c0.3389,0,0.6602,0.0645,0.9609,0.1934c0.3018,0.1284,0.5645,0.3052,0.79,0.5303c0.2246,0.2246,0.4014,0.4878,0.5303,0.7891
					c0.1279,0.3013,0.1924,0.6221,0.1924,0.9619v1.981h-4.6113v1.8745c0,0.2026,0.0381,0.3931,0.1152,0.5713
					c0.0762,0.1782,0.1807,0.333,0.3125,0.4644c0.1309,0.1318,0.2861,0.2358,0.4639,0.3125
					c0.1787,0.0767,0.3691,0.1152,0.5713,0.1152h0.6748c0.2021,0,0.3926-0.0386,0.5713-0.1152
					c0.1777-0.0767,0.333-0.1807,0.4639-0.3125c0.1318-0.1313,0.2354-0.2861,0.3125-0.4644s0.1152-0.3687,0.1152-0.5713v-0.5591
					l1.0107,0.1646v0.3369C80.5041,64.1939,80.4396,64.5147,80.3117,64.8159z M79.4934,59.9986
					c0-0.2026-0.0381-0.3931-0.1152-0.5713s-0.1807-0.333-0.3125-0.4648c-0.1309-0.1313-0.2861-0.2354-0.4639-0.312
					c-0.1787-0.0767-0.3691-0.1152-0.5713-0.1152h-0.6748c-0.2021,0-0.3926,0.0386-0.5713,0.1152
					c-0.1777,0.0767-0.333,0.1807-0.4639,0.312c-0.1318,0.1318-0.2363,0.2866-0.3125,0.4648
					c-0.0771,0.1782-0.1152,0.3687-0.1152,0.5713v1.2495h3.6006V59.9986z"/>
			</g>
		</g>
		<g>
			<g>
				<path style="fill:#FFFFFF;" d="M54.2668,98.9356l-0.5586-0.855c-0.2305,0.3125-0.5176,0.5605-0.8633,0.7441
					s-0.7236,0.2754-1.1348,0.2754h-0.2549c-0.3398,0-0.6602-0.0645-0.9619-0.1934c-0.3008-0.1289-0.5645-0.3052-0.7891-0.5303
					c-0.2246-0.2246-0.4014-0.4878-0.5303-0.7891s-0.1934-0.6221-0.1934-0.9619v-3.7979c0-0.3398,0.0645-0.6606,0.1934-0.9619
					s0.3057-0.5645,0.5303-0.7891c0.2246-0.2251,0.4883-0.4019,0.7891-0.5303c0.3018-0.1289,0.6221-0.1934,0.9619-0.1934h0.2549
					c0.3779,0,0.7295,0.0767,1.0527,0.23c0.3232,0.1538,0.5996,0.3672,0.8301,0.6416V87.147h1.0107v11.7886H54.2668z M53.593,92.77
					c0-0.2026-0.0381-0.3931-0.1152-0.5713s-0.1807-0.333-0.3125-0.4648c-0.1309-0.1313-0.2861-0.2354-0.4639-0.312
					c-0.1787-0.0767-0.3691-0.1152-0.5713-0.1152h-0.6748c-0.2021,0-0.3926,0.0386-0.5713,0.1152
					c-0.1777,0.0767-0.333,0.1807-0.4639,0.312c-0.1318,0.1318-0.2363,0.2866-0.3125,0.4648
					c-0.0771,0.1782-0.1152,0.3687-0.1152,0.5713v3.9131c0,0.2026,0.0381,0.3931,0.1152,0.5713
					c0.0762,0.1782,0.1807,0.333,0.3125,0.4644c0.1309,0.1318,0.2861,0.2358,0.4639,0.3125
					c0.1787,0.0767,0.3691,0.1152,0.5713,0.1152h0.6748c0.2021,0,0.3926-0.0386,0.5713-0.1152
					c0.1777-0.0767,0.333-0.1807,0.4639-0.3125c0.1318-0.1313,0.2354-0.2861,0.3125-0.4644s0.1152-0.3687,0.1152-0.5713V92.77z"/>
				<path style="fill:#FFFFFF;" d="M62.0568,97.5874c-0.1289,0.3013-0.3057,0.5645-0.5303,0.7891
					c-0.2256,0.2251-0.4883,0.4014-0.79,0.5303c-0.3008,0.1289-0.6221,0.1934-0.9609,0.1934h-0.6748
					c-0.3398,0-0.6602-0.0645-0.9619-0.1934c-0.3008-0.1289-0.5645-0.3052-0.7891-0.5303
					c-0.2246-0.2246-0.4014-0.4878-0.5303-0.7891s-0.1934-0.6221-0.1934-0.9619v-3.7979c0-0.3398,0.0645-0.6606,0.1934-0.9619
					s0.3057-0.5645,0.5303-0.7891c0.2246-0.2251,0.4883-0.4019,0.7891-0.5303c0.3018-0.1289,0.6221-0.1934,0.9619-0.1934h0.6748
					c0.3389,0,0.6602,0.0645,0.9609,0.1934c0.3018,0.1284,0.5645,0.3052,0.79,0.5303c0.2246,0.2246,0.4014,0.4878,0.5303,0.7891
					c0.1279,0.3013,0.1924,0.6221,0.1924,0.9619v1.981h-4.6113v1.8745c0,0.2026,0.0381,0.3931,0.1152,0.5713
					c0.0762,0.1782,0.1807,0.333,0.3125,0.4644c0.1309,0.1318,0.2861,0.2358,0.4639,0.3125
					c0.1787,0.0767,0.3691,0.1152,0.5713,0.1152h0.6748c0.2021,0,0.3926-0.0386,0.5713-0.1152
					c0.1777-0.0767,0.333-0.1807,0.4639-0.3125c0.1318-0.1313,0.2354-0.2861,0.3125-0.4644s0.1152-0.3687,0.1152-0.5713V96.124
					l1.0107,0.1646v0.3369C62.2492,96.9653,62.1848,97.2861,62.0568,97.5874z M61.2385,92.77c0-0.2026-0.0381-0.3931-0.1152-0.5713
					s-0.1807-0.333-0.3125-0.4648c-0.1309-0.1313-0.2861-0.2354-0.4639-0.312c-0.1787-0.0767-0.3691-0.1152-0.5713-0.1152h-0.6748
					c-0.2021,0-0.3926,0.0386-0.5713,0.1152c-0.1777,0.0767-0.333,0.1807-0.4639,0.312c-0.1318,0.1318-0.2363,0.2866-0.3125,0.4648
					c-0.0771,0.1782-0.1152,0.3687-0.1152,0.5713v1.2495h3.6006V92.77z"/>
			</g>
		</g>
		<g>
			<g>
				<path style="fill:#FFFFFF;" d="M92.6271,73.4834l-5.208-8.1934H85.05v8.1934h-1.7275V54.2852h6.0918
					c0.6514,0,1.2627,0.1226,1.834,0.3682s1.0713,0.582,1.5,1.0107c0.4277,0.4282,0.7646,0.9302,1.0107,1.5059
					c0.2451,0.5757,0.3682,1.1895,0.3682,1.8413v1.5527c0,0.6519-0.123,1.2651-0.3682,1.8408
					c-0.2461,0.5757-0.583,1.0776-1.0107,1.5063c-0.4287,0.4282-0.9287,0.7651-1.5,1.0107s-1.1826,0.3682-1.834,0.3682l5.208,8.1934
					H92.6271z M92.3996,59.0112c0-0.4287-0.0801-0.8281-0.2402-1.1982c-0.1611-0.3706-0.3799-0.6963-0.6563-0.9775
					c-0.2773-0.2813-0.6006-0.502-0.9707-0.6626s-0.7695-0.2412-1.1982-0.2412H85.05v7.7114h4.2842
					c0.4287,0,0.8281-0.0801,1.1982-0.2407s0.6934-0.3818,0.9707-0.6626c0.2764-0.2813,0.4951-0.6069,0.6563-0.9775
					c0.1602-0.3701,0.2402-0.77,0.2402-1.1982V59.0112z"/>
				<path style="fill:#FFFFFF;" d="M106.2092,71.2876c-0.21,0.4912-0.4971,0.9194-0.8633,1.2856
					c-0.3662,0.3657-0.7949,0.6538-1.2852,0.8633c-0.4912,0.2095-1.0137,0.3145-1.5664,0.3145h-1.0977
					c-0.5537,0-1.0762-0.105-1.5664-0.3145c-0.4912-0.2095-0.9199-0.4976-1.2852-0.8633c-0.3662-0.3662-0.6543-0.7944-0.8643-1.2856
					c-0.209-0.4907-0.3145-1.0127-0.3145-1.5664v-6.1851c0-0.5532,0.1055-1.0752,0.3145-1.5664
					c0.21-0.4907,0.498-0.9189,0.8643-1.2852c0.3652-0.3657,0.7939-0.6538,1.2852-0.8638c0.4902-0.2095,1.0127-0.3145,1.5664-0.3145
					h1.0977c0.5527,0,1.0752,0.105,1.5664,0.3145c0.4902,0.21,0.9189,0.498,1.2852,0.8638
					c0.3662,0.3662,0.6533,0.7944,0.8633,1.2852c0.21,0.4912,0.3145,1.0132,0.3145,1.5664v3.2266h-7.5107v3.0522
					c0,0.3306,0.0625,0.6406,0.1875,0.9307s0.2949,0.542,0.5088,0.7563c0.2148,0.2144,0.4668,0.3838,0.7568,0.5088
					s0.6006,0.1875,0.9307,0.1875h1.0977c0.3301,0,0.6406-0.0625,0.9307-0.1875s0.542-0.2944,0.7559-0.5088
					c0.2148-0.2144,0.3838-0.4663,0.5088-0.7563s0.1875-0.6001,0.1875-0.9307v-0.9102l1.6465,0.2676v0.5488
					C106.5236,70.2749,106.4191,70.7969,106.2092,71.2876z M104.8771,63.4424c0-0.3301-0.0625-0.6401-0.1875-0.9307
					c-0.125-0.2896-0.2939-0.542-0.5088-0.7563c-0.2139-0.2139-0.4658-0.3833-0.7559-0.5088c-0.29-0.1245-0.6006-0.187-0.9307-0.187
					h-1.0977c-0.3301,0-0.6406,0.0625-0.9307,0.187c-0.29,0.1255-0.542,0.2949-0.7568,0.5088
					c-0.2139,0.2144-0.3838,0.4668-0.5088,0.7563c-0.125,0.2905-0.1875,0.6006-0.1875,0.9307v2.0352h5.8643V63.4424z"/>
				<path style="fill:#FFFFFF;" d="M118.6603,71.2876c-0.21,0.4912-0.4971,0.9194-0.8633,1.2856
					c-0.3662,0.3657-0.7949,0.6538-1.2852,0.8633c-0.4912,0.2095-1.0137,0.3145-1.5664,0.3145h-1.0977
					c-0.5537,0-1.0762-0.105-1.5664-0.3145c-0.4912-0.2095-0.9199-0.4976-1.2852-0.8633c-0.3662-0.3662-0.6543-0.7944-0.8643-1.2856
					c-0.209-0.4907-0.3145-1.0127-0.3145-1.5664v-6.1851c0-0.5532,0.1055-1.0752,0.3145-1.5664
					c0.21-0.4907,0.498-0.9189,0.8643-1.2852c0.3652-0.3657,0.7939-0.6538,1.2852-0.8638c0.4902-0.2095,1.0127-0.3145,1.5664-0.3145
					h1.0977c0.5527,0,1.0752,0.105,1.5664,0.3145c0.4902,0.21,0.9189,0.498,1.2852,0.8638
					c0.3662,0.3662,0.6533,0.7944,0.8633,1.2852c0.21,0.4912,0.3145,1.0132,0.3145,1.5664v0.5488l-1.6465,0.2681v-0.9106
					c0-0.3301-0.0625-0.6401-0.1875-0.9307c-0.125-0.2896-0.2939-0.542-0.5088-0.7563c-0.2139-0.2139-0.4658-0.3833-0.7559-0.5088
					c-0.29-0.1245-0.6006-0.187-0.9307-0.187h-1.0977c-0.3301,0-0.6406,0.0625-0.9307,0.187
					c-0.29,0.1255-0.542,0.2949-0.7568,0.5088c-0.2139,0.2144-0.3838,0.4668-0.5088,0.7563
					c-0.125,0.2905-0.1875,0.6006-0.1875,0.9307v6.3726c0,0.3306,0.0625,0.6406,0.1875,0.9307s0.2949,0.542,0.5088,0.7563
					c0.2148,0.2144,0.4668,0.3838,0.7568,0.5088s0.6006,0.1875,0.9307,0.1875h1.0977c0.3301,0,0.6406-0.0625,0.9307-0.1875
					s0.542-0.2944,0.7559-0.5088c0.2148-0.2144,0.3838-0.4663,0.5088-0.7563s0.1875-0.6001,0.1875-0.9307v-0.9102l1.6465,0.2676
					v0.5488C118.9748,70.2749,118.8703,70.7969,118.6603,71.2876z"/>
				<path style="fill:#FFFFFF;" d="M131.1105,71.2876c-0.21,0.4912-0.4971,0.9194-0.8633,1.2856
					c-0.3662,0.3657-0.7949,0.6538-1.2852,0.8633c-0.4912,0.2095-1.0137,0.3145-1.5664,0.3145h-1.0977
					c-0.5537,0-1.0762-0.105-1.5664-0.3145c-0.4912-0.2095-0.9199-0.4976-1.2852-0.8633c-0.3662-0.3662-0.6543-0.7944-0.8643-1.2856
					c-0.209-0.4907-0.3145-1.0127-0.3145-1.5664v-6.1851c0-0.5532,0.1055-1.0752,0.3145-1.5664
					c0.21-0.4907,0.498-0.9189,0.8643-1.2852c0.3652-0.3657,0.7939-0.6538,1.2852-0.8638c0.4902-0.2095,1.0127-0.3145,1.5664-0.3145
					h1.0977c0.5527,0,1.0752,0.105,1.5664,0.3145c0.4902,0.21,0.9189,0.498,1.2852,0.8638
					c0.3662,0.3662,0.6533,0.7944,0.8633,1.2852c0.21,0.4912,0.3145,1.0132,0.3145,1.5664v6.1851
					C131.425,70.2749,131.3205,70.7969,131.1105,71.2876z M129.7785,63.4424c0-0.3301-0.0625-0.6401-0.1875-0.9307
					c-0.125-0.2896-0.2939-0.542-0.5088-0.7563c-0.2139-0.2139-0.4658-0.3833-0.7559-0.5088c-0.29-0.1245-0.6006-0.187-0.9307-0.187
					h-1.0977c-0.3301,0-0.6406,0.0625-0.9307,0.187c-0.29,0.1255-0.542,0.2949-0.7568,0.5088
					c-0.2139,0.2144-0.3838,0.4668-0.5088,0.7563c-0.125,0.2905-0.1875,0.6006-0.1875,0.9307v6.3726
					c0,0.3306,0.0625,0.6406,0.1875,0.9307s0.2949,0.542,0.5088,0.7563c0.2148,0.2144,0.4668,0.3838,0.7568,0.5088
					s0.6006,0.1875,0.9307,0.1875h1.0977c0.3301,0,0.6406-0.0625,0.9307-0.1875s0.542-0.2944,0.7559-0.5088
					c0.2148-0.2144,0.3838-0.4663,0.5088-0.7563s0.1875-0.6001,0.1875-0.9307V63.4424z"/>
				<path style="fill:#FFFFFF;" d="M135.2678,73.4834V54.2852h1.6475v19.1982H135.2678z"/>
				<path style="fill:#FFFFFF;" d="M149.5998,71.2876c-0.21,0.4912-0.4971,0.9194-0.8633,1.2856
					c-0.3662,0.3657-0.7949,0.6538-1.2852,0.8633c-0.4912,0.2095-1.0137,0.3145-1.5664,0.3145h-1.0977
					c-0.5537,0-1.0762-0.105-1.5664-0.3145c-0.4912-0.2095-0.9199-0.4976-1.2852-0.8633c-0.3662-0.3662-0.6543-0.7944-0.8643-1.2856
					c-0.209-0.4907-0.3145-1.0127-0.3145-1.5664v-6.1851c0-0.5532,0.1055-1.0752,0.3145-1.5664
					c0.21-0.4907,0.498-0.9189,0.8643-1.2852c0.3652-0.3657,0.7939-0.6538,1.2852-0.8638c0.4902-0.2095,1.0127-0.3145,1.5664-0.3145
					h1.0977c0.5527,0,1.0752,0.105,1.5664,0.3145c0.4902,0.21,0.9189,0.498,1.2852,0.8638
					c0.3662,0.3662,0.6533,0.7944,0.8633,1.2852c0.21,0.4912,0.3145,1.0132,0.3145,1.5664v3.2266h-7.5107v3.0522
					c0,0.3306,0.0625,0.6406,0.1875,0.9307s0.2949,0.542,0.5088,0.7563c0.2148,0.2144,0.4668,0.3838,0.7568,0.5088
					s0.6006,0.1875,0.9307,0.1875h1.0977c0.3301,0,0.6406-0.0625,0.9307-0.1875s0.542-0.2944,0.7559-0.5088
					c0.2148-0.2144,0.3838-0.4663,0.5088-0.7563s0.1875-0.6001,0.1875-0.9307v-0.9102l1.6465,0.2676v0.5488
					C149.9142,70.2749,149.8098,70.7969,149.5998,71.2876z M148.2678,63.4424c0-0.3301-0.0625-0.6401-0.1875-0.9307
					c-0.125-0.2896-0.2939-0.542-0.5088-0.7563c-0.2139-0.2139-0.4658-0.3833-0.7559-0.5088c-0.29-0.1245-0.6006-0.187-0.9307-0.187
					h-1.0977c-0.3301,0-0.6406,0.0625-0.9307,0.187c-0.29,0.1255-0.542,0.2949-0.7568,0.5088
					c-0.2139,0.2144-0.3838,0.4668-0.5088,0.7563c-0.125,0.2905-0.1875,0.6006-0.1875,0.9307v2.0352h5.8643V63.4424z"/>
				<path style="fill:#FFFFFF;" d="M162.051,71.2876c-0.21,0.4912-0.4971,0.9194-0.8633,1.2856
					c-0.3662,0.3657-0.7949,0.6538-1.2852,0.8633c-0.4912,0.2095-1.0137,0.3145-1.5664,0.3145h-1.0977
					c-0.5537,0-1.0762-0.105-1.5664-0.3145c-0.4912-0.2095-0.9199-0.4976-1.2852-0.8633c-0.3662-0.3662-0.6543-0.7944-0.8643-1.2856
					c-0.209-0.4907-0.3145-1.0127-0.3145-1.5664v-6.1851c0-0.5532,0.1055-1.0752,0.3145-1.5664
					c0.21-0.4907,0.498-0.9189,0.8643-1.2852c0.3652-0.3657,0.7939-0.6538,1.2852-0.8638c0.4902-0.2095,1.0127-0.3145,1.5664-0.3145
					h1.0977c0.5527,0,1.0752,0.105,1.5664,0.3145c0.4902,0.21,0.9189,0.498,1.2852,0.8638
					c0.3662,0.3662,0.6533,0.7944,0.8633,1.2852c0.21,0.4912,0.3145,1.0132,0.3145,1.5664v0.5488l-1.6465,0.2681v-0.9106
					c0-0.3301-0.0625-0.6401-0.1875-0.9307c-0.125-0.2896-0.2939-0.542-0.5088-0.7563c-0.2139-0.2139-0.4658-0.3833-0.7559-0.5088
					c-0.29-0.1245-0.6006-0.187-0.9307-0.187h-1.0977c-0.3301,0-0.6406,0.0625-0.9307,0.187
					c-0.29,0.1255-0.542,0.2949-0.7568,0.5088c-0.2139,0.2144-0.3838,0.4668-0.5088,0.7563
					c-0.125,0.2905-0.1875,0.6006-0.1875,0.9307v6.3726c0,0.3306,0.0625,0.6406,0.1875,0.9307s0.2949,0.542,0.5088,0.7563
					c0.2148,0.2144,0.4668,0.3838,0.7568,0.5088s0.6006,0.1875,0.9307,0.1875h1.0977c0.3301,0,0.6406-0.0625,0.9307-0.1875
					s0.542-0.2944,0.7559-0.5088c0.2148-0.2144,0.3838-0.4663,0.5088-0.7563s0.1875-0.6001,0.1875-0.9307v-0.9102l1.6465,0.2676
					v0.5488C162.3654,70.2749,162.2609,70.7969,162.051,71.2876z"/>
				<path style="fill:#FFFFFF;" d="M174.5012,71.2876c-0.21,0.4912-0.4971,0.9194-0.8633,1.2856
					c-0.3662,0.3657-0.7949,0.6538-1.2852,0.8633c-0.4912,0.2095-1.0137,0.3145-1.5664,0.3145h-1.0977
					c-0.5537,0-1.0762-0.105-1.5664-0.3145c-0.4912-0.2095-0.9199-0.4976-1.2852-0.8633c-0.3662-0.3662-0.6543-0.7944-0.8643-1.2856
					c-0.209-0.4907-0.3145-1.0127-0.3145-1.5664v-6.1851c0-0.5532,0.1055-1.0752,0.3145-1.5664
					c0.21-0.4907,0.498-0.9189,0.8643-1.2852c0.3652-0.3657,0.7939-0.6538,1.2852-0.8638c0.4902-0.2095,1.0127-0.3145,1.5664-0.3145
					h1.0977c0.5527,0,1.0752,0.105,1.5664,0.3145c0.4902,0.21,0.9189,0.498,1.2852,0.8638
					c0.3662,0.3662,0.6533,0.7944,0.8633,1.2852c0.21,0.4912,0.3145,1.0132,0.3145,1.5664v0.5488l-1.6465,0.2681v-0.9106
					c0-0.3301-0.0625-0.6401-0.1875-0.9307c-0.125-0.2896-0.2939-0.542-0.5088-0.7563c-0.2139-0.2139-0.4658-0.3833-0.7559-0.5088
					c-0.29-0.1245-0.6006-0.187-0.9307-0.187h-1.0977c-0.3301,0-0.6406,0.0625-0.9307,0.187
					c-0.29,0.1255-0.542,0.2949-0.7568,0.5088c-0.2139,0.2144-0.3838,0.4668-0.5088,0.7563
					c-0.125,0.2905-0.1875,0.6006-0.1875,0.9307v6.3726c0,0.3306,0.0625,0.6406,0.1875,0.9307s0.2949,0.542,0.5088,0.7563
					c0.2148,0.2144,0.4668,0.3838,0.7568,0.5088s0.6006,0.1875,0.9307,0.1875h1.0977c0.3301,0,0.6406-0.0625,0.9307-0.1875
					s0.542-0.2944,0.7559-0.5088c0.2148-0.2144,0.3838-0.4663,0.5088-0.7563s0.1875-0.6001,0.1875-0.9307v-0.9102l1.6465,0.2676
					v0.5488C174.8156,70.2749,174.7111,70.7969,174.5012,71.2876z"/>
				<path style="fill:#FFFFFF;" d="M178.5246,56.4805v-2.1953h1.915v2.1953H178.5246z M178.6584,73.4834V59.7739h1.6475v13.7095
					H178.6584z"/>
				<path style="fill:#FFFFFF;" d="M192.9904,71.2876c-0.21,0.4912-0.4971,0.9194-0.8633,1.2856
					c-0.3662,0.3657-0.7949,0.6538-1.2852,0.8633c-0.4912,0.2095-1.0137,0.3145-1.5664,0.3145h-1.0977
					c-0.5537,0-1.0762-0.105-1.5664-0.3145c-0.4912-0.2095-0.9199-0.4976-1.2852-0.8633c-0.3662-0.3662-0.6543-0.7944-0.8643-1.2856
					c-0.209-0.4907-0.3145-1.0127-0.3145-1.5664v-6.1851c0-0.5532,0.1055-1.0752,0.3145-1.5664
					c0.21-0.4907,0.498-0.9189,0.8643-1.2852c0.3652-0.3657,0.7939-0.6538,1.2852-0.8638c0.4902-0.2095,1.0127-0.3145,1.5664-0.3145
					h1.0977c0.5527,0,1.0752,0.105,1.5664,0.3145c0.4902,0.21,0.9189,0.498,1.2852,0.8638
					c0.3662,0.3662,0.6533,0.7944,0.8633,1.2852c0.21,0.4912,0.3145,1.0132,0.3145,1.5664v6.1851
					C193.3049,70.2749,193.2004,70.7969,192.9904,71.2876z M191.6584,63.4424c0-0.3301-0.0625-0.6401-0.1875-0.9307
					c-0.125-0.2896-0.2939-0.542-0.5088-0.7563c-0.2139-0.2139-0.4658-0.3833-0.7559-0.5088c-0.29-0.1245-0.6006-0.187-0.9307-0.187
					h-1.0977c-0.3301,0-0.6406,0.0625-0.9307,0.187c-0.29,0.1255-0.542,0.2949-0.7568,0.5088
					c-0.2139,0.2144-0.3838,0.4668-0.5088,0.7563c-0.125,0.2905-0.1875,0.6006-0.1875,0.9307v6.3726
					c0,0.3306,0.0625,0.6406,0.1875,0.9307s0.2949,0.542,0.5088,0.7563c0.2148,0.2144,0.4668,0.3838,0.7568,0.5088
					s0.6006,0.1875,0.9307,0.1875h1.0977c0.3301,0,0.6406-0.0625,0.9307-0.1875s0.542-0.2944,0.7559-0.5088
					c0.2148-0.2144,0.3838-0.4663,0.5088-0.7563s0.1875-0.6001,0.1875-0.9307V63.4424z M188.0441,57.5786h-1.2324l2.1826-3.2935
					h2.7441L188.0441,57.5786z"/>
				<path style="fill:#FFFFFF;" d="M204.1086,73.4834v-10.041c0-0.3301-0.0625-0.6401-0.1875-0.9307
					c-0.125-0.2896-0.2939-0.542-0.5088-0.7563c-0.2139-0.2139-0.4658-0.3833-0.7559-0.5088c-0.29-0.1245-0.6006-0.187-0.9307-0.187
					h-1.0977c-0.3301,0-0.6406,0.0625-0.9307,0.187c-0.29,0.1255-0.542,0.2949-0.7568,0.5088
					c-0.2139,0.2144-0.3838,0.4668-0.5088,0.7563c-0.125,0.2905-0.1875,0.6006-0.1875,0.9307v10.041h-1.6465V59.7739h0.5488
					l0.8975,1.3926c0.375-0.5088,0.8457-0.9126,1.4121-1.2114c0.5664-0.2993,1.1846-0.4487,1.8545-0.4487h0.415
					c0.5527,0,1.0752,0.105,1.5664,0.3145c0.4902,0.21,0.9189,0.498,1.2852,0.8638c0.3662,0.3662,0.6533,0.7944,0.8633,1.2852
					c0.21,0.4912,0.3145,1.0132,0.3145,1.5664v9.9473H204.1086z"/>
			</g>
		</g>
		<g>
			<path style="fill:#AFD4E8;" d="M78.5441,95.6167c-0.3145,0.7324-0.7461,1.3735-1.2959,1.9229
				c-0.5488,0.5493-1.1934,0.9814-1.9316,1.2959c-0.7373,0.3149-1.5244,0.4722-2.3604,0.4722h-7.793V74.6909h7.793
				c0.8359,0,1.623,0.1577,2.3604,0.4722c0.7383,0.3149,1.3828,0.7466,1.9316,1.2959c0.5498,0.5493,0.9814,1.1934,1.2959,1.9312
				c0.3145,0.7383,0.4727,1.5254,0.4727,2.3604v12.5146C79.0168,94.1006,78.8586,94.8848,78.5441,95.6167z M76.8019,80.7505
				c0-0.5493-0.1025-1.061-0.3086-1.5361c-0.2061-0.4746-0.4893-0.8926-0.8506-1.2534c-0.3604-0.3604-0.7783-0.6436-1.2529-0.8496
				s-0.9863-0.3091-1.5361-0.3091h-5.4766v20.394h5.4766c0.5498,0,1.0615-0.103,1.5361-0.3091s0.8926-0.4863,1.2529-0.8413
				c0.3613-0.3545,0.6445-0.7695,0.8506-1.2446c0.2061-0.4746,0.3086-0.9868,0.3086-1.5361V80.7505z"/>
			<path style="fill:#AFD4E8;" d="M94.6203,99.3076l-1.167-1.751c-0.4805,0.6294-1.082,1.1357-1.8027,1.519
				s-1.5107,0.5752-2.3691,0.5752h-0.5322c-0.71,0-1.3789-0.1348-2.0078-0.4033c-0.6299-0.2686-1.1797-0.6377-1.6484-1.1074
				c-0.4697-0.4688-0.8389-1.0181-1.1074-1.6479c-0.2686-0.6289-0.4033-1.2988-0.4033-2.0083V94.312
				c0-0.7095,0.1348-1.3789,0.4033-2.0083s0.6377-1.1787,1.1074-1.6479c0.4688-0.4692,1.0186-0.8384,1.6484-1.1074
				c0.6289-0.2686,1.2979-0.4033,2.0078-0.4033h4.4639v-2.7124c0-0.4229-0.0801-0.8208-0.2402-1.1929
				c-0.1611-0.3716-0.3779-0.6953-0.6523-0.9697c-0.2754-0.2749-0.5986-0.4922-0.9707-0.6523s-0.7695-0.2407-1.1924-0.2407h-1.2363
				c-0.4238,0-0.8213,0.0806-1.1934,0.2407s-0.6953,0.3774-0.9697,0.6523c-0.2744,0.2744-0.4922,0.5981-0.6523,0.9697
				c-0.1602,0.3721-0.2402,0.77-0.2402,1.1929v0.6353l-2.1113-0.3433v-0.1719c0-0.7095,0.1348-1.3789,0.4033-2.0083
				s0.6377-1.1787,1.1074-1.6479c0.4688-0.4692,1.0186-0.8384,1.6475-1.1074c0.6299-0.2686,1.2988-0.4033,2.0088-0.4033h1.2363
				c0.709,0,1.3789,0.1348,2.0078,0.4033c0.6299,0.269,1.1787,0.6382,1.6484,1.1074c0.4688,0.4692,0.8379,1.0186,1.1074,1.6479
				c0.2686,0.6294,0.4033,1.2988,0.4033,2.0083v12.7549H94.6203z M93.2131,90.793h-4.4639c-0.4229,0-0.8213,0.0801-1.1924,0.2402
				c-0.3721,0.1606-0.6953,0.3809-0.9707,0.6611c-0.2744,0.2808-0.4922,0.6069-0.6523,0.9785
				c-0.1602,0.3721-0.2402,0.7695-0.2402,1.1929v0.7383c0,0.4233,0.0801,0.8213,0.2402,1.1929
				c0.1602,0.3721,0.3779,0.6953,0.6523,0.9702c0.2754,0.2744,0.5986,0.4922,0.9707,0.6523
				c0.3711,0.1602,0.7695,0.2402,1.1924,0.2402h1.4082c0.4229,0,0.8203-0.0801,1.1924-0.2402s0.6953-0.3779,0.9707-0.6523
				c0.2744-0.2749,0.4912-0.5981,0.6523-0.9702c0.1602-0.3716,0.2402-0.7695,0.2402-1.1929V90.793z"/>
			<path style="fill:#AFD4E8;" d="M105.9504,99.3076c-0.6416,0-1.2451-0.1201-1.8115-0.3604s-1.0586-0.5723-1.4756-0.9956
				c-0.418-0.4233-0.75-0.9155-0.9961-1.4766c-0.2461-0.5605-0.3691-1.1611-0.3691-1.8022V83.7378h-3.1582V81.729h3.1582v-4.2227
				l2.1113-0.3433v4.5659h4.4639v2.0088h-4.4639v11.0381c0,0.3545,0.0664,0.6836,0.1973,0.9868
				c0.1318,0.3032,0.3125,0.5693,0.541,0.7983s0.498,0.4092,0.8066,0.5405c0.3096,0.1318,0.6416,0.1978,0.9961,0.1978h1.9229v2.0083
				H105.9504z"/>
			<path style="fill:#AFD4E8;" d="M123.092,96.4922c-0.2695,0.6299-0.6387,1.1792-1.1074,1.6479
				c-0.4697,0.4697-1.0186,0.8389-1.6484,1.1074c-0.6289,0.2686-1.2988,0.4033-2.0078,0.4033h-1.4082
				c-0.71,0-1.3789-0.1348-2.0078-0.4033c-0.6299-0.2686-1.1797-0.6377-1.6484-1.1074c-0.4697-0.4688-0.8389-1.0181-1.1074-1.6479
				c-0.2686-0.6289-0.4033-1.2988-0.4033-2.0083v-7.9312c0-0.7095,0.1348-1.3789,0.4033-2.0083s0.6377-1.1787,1.1074-1.6479
				c0.4688-0.4692,1.0186-0.8384,1.6484-1.1074c0.6289-0.2686,1.2979-0.4033,2.0078-0.4033h1.4082
				c0.709,0,1.3789,0.1348,2.0078,0.4033c0.6299,0.269,1.1787,0.6382,1.6484,1.1074c0.4688,0.4692,0.8379,1.0186,1.1074,1.6479
				c0.2686,0.6294,0.4033,1.2988,0.4033,2.0083v7.9312C123.4953,95.1934,123.3605,95.8633,123.092,96.4922z M121.384,86.4326
				c0-0.4229-0.0801-0.8208-0.2402-1.1929c-0.1611-0.3716-0.3779-0.6953-0.6523-0.9697c-0.2754-0.2749-0.5986-0.4922-0.9707-0.6523
				s-0.7695-0.2407-1.1924-0.2407h-1.4082c-0.4229,0-0.8213,0.0806-1.1924,0.2407c-0.3721,0.1602-0.6953,0.3774-0.9707,0.6523
				c-0.2744,0.2744-0.4922,0.5981-0.6523,0.9697c-0.1602,0.3721-0.2402,0.77-0.2402,1.1929v8.1714
				c0,0.4233,0.0801,0.8213,0.2402,1.1929c0.1602,0.3721,0.3779,0.6953,0.6523,0.9702c0.2754,0.2744,0.5986,0.4922,0.9707,0.6523
				c0.3711,0.1602,0.7695,0.2402,1.1924,0.2402h1.4082c0.4229,0,0.8203-0.0801,1.1924-0.2402s0.6953-0.3779,0.9707-0.6523
				c0.2744-0.2749,0.4912-0.5981,0.6523-0.9702c0.1602-0.3716,0.2402-0.7695,0.2402-1.1929V86.4326z"/>
			<path style="fill:#AFD4E8;" d="M139.8019,94.8443c0,0.71-0.1426,1.3594-0.4287,1.9487s-0.6758,1.0957-1.167,1.519
				c-0.4922,0.4233-1.0625,0.7524-1.708,0.9868c-0.6475,0.2349-1.3252,0.3521-2.0352,0.3521h-1.4072
				c-0.71,0-1.3877-0.1348-2.0342-0.4033s-1.2129-0.6377-1.6992-1.1074c-0.4873-0.4688-0.876-1.0181-1.168-1.6479
				c-0.291-0.6289-0.4375-1.2988-0.4375-2.0083v-0.7041l2.1113-0.3433v1.1675c0,0.4233,0.0889,0.8213,0.2666,1.1929
				c0.1768,0.3721,0.4141,0.6953,0.7119,0.9702c0.2979,0.2744,0.6406,0.4922,1.0303,0.6523
				c0.3887,0.1602,0.7949,0.2402,1.2188,0.2402h1.4072c0.4238,0,0.8301-0.063,1.2197-0.189
				c0.3887-0.1255,0.7344-0.3062,1.0381-0.5405c0.3027-0.2344,0.543-0.5176,0.7207-0.8496s0.2666-0.7095,0.2666-1.1333
				c0-0.6294-0.1377-1.144-0.4121-1.5449c-0.2744-0.4004-0.6387-0.7354-1.0898-1.0044c-0.4521-0.2686-0.9678-0.4917-1.5449-0.6694
				c-0.5781-0.1772-1.1709-0.3545-1.7773-0.5322c-0.6064-0.1772-1.1982-0.3804-1.7764-0.6094
				c-0.5781-0.2285-1.0928-0.5288-1.5449-0.9009s-0.8154-0.8384-1.0898-1.3994c-0.2754-0.5605-0.4121-1.2588-0.4121-2.0942
				c0-0.7095,0.1367-1.3589,0.4121-1.9482c0.2744-0.5894,0.6465-1.0957,1.1152-1.5195c0.4697-0.4229,1.0156-0.752,1.6396-0.9868
				c0.624-0.2344,1.29-0.3521,2-0.3521h1.2354c0.71,0,1.3799,0.1348,2.0088,0.4033c0.6299,0.269,1.1787,0.6382,1.6484,1.1074
				c0.4688,0.4692,0.8379,1.0186,1.1064,1.6479c0.2695,0.6294,0.4043,1.2988,0.4043,2.0083v0.0688l-2.1123,0.3433v-0.5322
				c0-0.4229-0.0801-0.8208-0.2402-1.1929c-0.1602-0.3716-0.377-0.6953-0.6523-0.9697c-0.2744-0.2749-0.5977-0.4922-0.9697-0.6523
				s-0.7695-0.2407-1.1934-0.2407h-1.2354c-0.4238,0-0.8213,0.0635-1.1934,0.189c-0.3721,0.126-0.6953,0.3062-0.9697,0.541
				c-0.2744,0.2344-0.4922,0.5176-0.6523,0.8496s-0.2402,0.7095-0.2402,1.1328c0,0.6069,0.1367,1.1016,0.4121,1.4849
				c0.2744,0.3838,0.6377,0.707,1.0898,0.9702s0.9668,0.4834,1.5449,0.6606c0.5781,0.1777,1.167,0.3604,1.7686,0.5493
				c0.6006,0.189,1.1895,0.4033,1.7676,0.644c0.5781,0.2402,1.0928,0.5493,1.5449,0.9268c0.4521,0.3779,0.8154,0.8496,1.0898,1.4165
				C139.6652,93.3081,139.8019,94.0093,139.8019,94.8443z"/>
		</g>
	</g>
</g>
</svg>
