<?xml version="1.0" encoding="utf-8"?>
<!-- Generator: Adobe Illustrator 21.0.2, SVG Export Plug-In . SVG Version: 6.00 Build 0)  -->
<svg version="1.1" id="Capa_1" xmlns="http://www.w3.org/2000/svg" xmlns:xlink="http://www.w3.org/1999/xlink" x="0px" y="0px"
	 viewBox="0 0 155.4549 74.254" style="enable-background:new 0 0 155.4549 74.254;" xml:space="preserve">
<g>
	<rect id="XMLID_4175_" x="0.5409" y="0" style="opacity:0.5;fill:#FFFFFF;" width="154.914" height="74.254"/>
	<rect id="XMLID_4169_" x="0" style="fill:#C9452F;" width="155.3363" height="48.1538"/>
	<g>
		<path d="M30.6731,57.4566h2.9063c0.6543,0,1.1543,0.0498,1.498,0.1504c0.4619,0.1357,0.8574,0.3779,1.1875,0.7256
			c0.3291,0.3467,0.5801,0.7725,0.752,1.2754s0.2578,1.123,0.2578,1.8613c0,0.6475-0.0811,1.2061-0.2422,1.6758
			c-0.1973,0.5723-0.4785,1.0361-0.8438,1.3906c-0.2754,0.2686-0.6475,0.4785-1.1172,0.6289
			c-0.3506,0.1104-0.8193,0.166-1.4063,0.166h-2.9922V57.4566z M32.2629,58.7886v5.2158h1.1875
			c0.4434,0,0.7637-0.0254,0.9609-0.0762c0.2578-0.0645,0.4717-0.1729,0.6416-0.3271s0.3096-0.4072,0.417-0.7598
			s0.1602-0.834,0.1602-1.4424s-0.0527-1.0762-0.1602-1.4023c-0.1074-0.3252-0.2578-0.5801-0.4512-0.7617
			c-0.1934-0.1836-0.4395-0.3066-0.7363-0.3711c-0.2217-0.0498-0.6572-0.0752-1.3047-0.0752H32.2629z"/>
		<path d="M38.6223,65.3306v-7.874h5.8379v1.332h-4.248v1.7451h3.9531v1.3271h-3.9531v2.1436h4.3984v1.3262H38.6223z"/>
		<path d="M45.5559,62.7681l1.5469-0.1504c0.0928,0.5195,0.2822,0.9014,0.5664,1.1445c0.2852,0.2432,0.6689,0.3652,1.1523,0.3652
			c0.5117,0,0.8975-0.1084,1.1572-0.3252s0.3896-0.4697,0.3896-0.7598c0-0.1865-0.0547-0.3447-0.1641-0.4756
			s-0.2998-0.2441-0.5713-0.3408c-0.1865-0.0645-0.6113-0.1787-1.2734-0.3438c-0.8525-0.2109-1.4502-0.4707-1.7939-0.7783
			c-0.4834-0.4336-0.7256-0.9619-0.7256-1.585c0-0.4014,0.1143-0.7764,0.3418-1.125c0.2275-0.3496,0.5547-0.6152,0.9824-0.7979
			s0.9443-0.2734,1.5498-0.2734c0.9883,0,1.7324,0.2158,2.2314,0.6494c0.5,0.4336,0.7617,1.0117,0.7871,1.7354l-1.5898,0.0693
			c-0.0684-0.4043-0.2139-0.6953-0.4375-0.873c-0.2236-0.1768-0.5596-0.2656-1.0078-0.2656c-0.4609,0-0.8232,0.0947-1.084,0.2842
			c-0.1689,0.1221-0.2529,0.2852-0.2529,0.4893c0,0.1865,0.0791,0.3457,0.2363,0.4775c0.2002,0.1689,0.6875,0.3438,1.4609,0.5273
			c0.7734,0.1816,1.3457,0.3711,1.7158,0.5664c0.3711,0.1953,0.6611,0.4619,0.8701,0.7998c0.21,0.3389,0.3145,0.7568,0.3145,1.2549
			c0,0.4512-0.125,0.873-0.376,1.2676c-0.251,0.3936-0.6055,0.6865-1.0635,0.8779s-1.0293,0.2871-1.7139,0.2871
			c-0.9951,0-1.7598-0.2305-2.293-0.6904S45.6594,63.649,45.5559,62.7681z"/>
		<path d="M58.3333,62.4361l1.542,0.4883c-0.2363,0.8594-0.6289,1.498-1.1787,1.915s-1.2471,0.626-2.0918,0.626
			c-1.0459,0-1.9053-0.3574-2.5781-1.0723c-0.6738-0.7139-1.0098-1.6904-1.0098-2.9297c0-1.3105,0.3379-2.3281,1.0146-3.0537
			c0.6768-0.7246,1.5664-1.0869,2.6689-1.0869c0.9639,0,1.7461,0.2842,2.3477,0.8535c0.3584,0.3369,0.627,0.8203,0.8057,1.4502
			l-1.5732,0.376c-0.0938-0.4082-0.2881-0.7305-0.583-0.9668c-0.2959-0.2363-0.6543-0.3545-1.0771-0.3545
			c-0.584,0-1.0576,0.21-1.4209,0.6279c-0.3633,0.4199-0.5449,1.0977-0.5449,2.0361c0,0.9951,0.1787,1.7041,0.5371,2.127
			s0.8232,0.6338,1.3965,0.6338c0.4229,0,0.7861-0.1348,1.0908-0.4023C57.9827,63.4342,58.2014,63.0123,58.3333,62.4361z"/>
		<path d="M68.3391,65.3306h-1.7285l-0.6875-1.7891h-3.1484l-0.6494,1.7891h-1.6865l3.0664-7.874h1.6816L68.3391,65.3306z
			 M65.4124,62.2154l-1.085-2.9219l-1.0635,2.9219H65.4124z"/>
		<path d="M69.1878,65.3306v-7.874h3.3467c0.8408,0,1.4521,0.0703,1.834,0.2119c0.3809,0.1416,0.6865,0.3936,0.916,0.7549
			c0.2285,0.3613,0.3438,0.7754,0.3438,1.2412c0,0.5898-0.1738,1.0781-0.5215,1.4629s-0.8662,0.6279-1.5576,0.7285
			c0.3438,0.2002,0.6279,0.4199,0.8516,0.6602s0.5254,0.666,0.9053,1.2783l0.9609,1.5361h-1.9014l-1.1494-1.7129
			c-0.4082-0.6133-0.6875-0.999-0.8379-1.1582s-0.3096-0.2686-0.4785-0.3271c-0.168-0.0596-0.4346-0.0889-0.7998-0.0889h-0.3223
			v3.2871H69.1878z M70.7776,60.7867h1.1768c0.7617,0,1.2383-0.0322,1.4277-0.0967c0.1904-0.0645,0.3389-0.1758,0.4463-0.333
			s0.1611-0.3545,0.1611-0.5908c0-0.2646-0.0703-0.4785-0.2119-0.6416s-0.3408-0.2666-0.5986-0.3096
			c-0.1289-0.0176-0.5156-0.0264-1.1602-0.0264h-1.2412V60.7867z"/>
		<path d="M80.7883,62.4361V61.109h3.4277v3.1367c-0.334,0.3223-0.8164,0.6064-1.4482,0.8516s-1.2715,0.3682-1.9199,0.3682
			c-0.8232,0-1.542-0.1729-2.1533-0.5186c-0.6133-0.3457-1.0732-0.8398-1.3809-1.4824s-0.4619-1.3418-0.4619-2.0977
			c0-0.8203,0.1719-1.5488,0.5156-2.1865c0.3438-0.6367,0.8467-1.126,1.5088-1.4658c0.5059-0.2617,1.1338-0.3916,1.8857-0.3916
			c0.9775,0,1.7412,0.2041,2.291,0.6143s0.9033,0.9766,1.0605,1.7002l-1.5791,0.2949c-0.1113-0.3867-0.3193-0.6914-0.626-0.915
			c-0.3057-0.2236-0.6885-0.3359-1.1465-0.3359c-0.6943,0-1.2471,0.2197-1.6572,0.6611c-0.4102,0.4395-0.6152,1.0938-0.6152,1.96
			c0,0.9346,0.208,1.6357,0.623,2.1025c0.416,0.4678,0.96,0.7012,1.6328,0.7012c0.334,0,0.667-0.0654,1.002-0.1963
			s0.6221-0.2891,0.8623-0.4756v-0.998H80.7883z"/>
		<path d="M92.7825,65.3306H91.054l-0.6875-1.7891H87.218l-0.6494,1.7891h-1.6865l3.0664-7.874h1.6816L92.7825,65.3306z
			 M89.8557,62.2154l-1.085-2.9219l-1.0635,2.9219H89.8557z"/>
		<path d="M93.6311,65.3306v-7.874h3.3467c0.8408,0,1.4521,0.0703,1.834,0.2119c0.3809,0.1416,0.6865,0.3936,0.916,0.7549
			c0.2285,0.3613,0.3438,0.7754,0.3438,1.2412c0,0.5898-0.1738,1.0781-0.5215,1.4629s-0.8662,0.6279-1.5576,0.7285
			c0.3438,0.2002,0.6279,0.4199,0.8516,0.6602s0.5254,0.666,0.9053,1.2783l0.9609,1.5361h-1.9014l-1.1494-1.7129
			c-0.4082-0.6133-0.6875-0.999-0.8379-1.1582s-0.3096-0.2686-0.4785-0.3271c-0.168-0.0596-0.4346-0.0889-0.7998-0.0889H95.221
			v3.2871H93.6311z M95.221,60.7867h1.1768c0.7617,0,1.2383-0.0322,1.4277-0.0967c0.1904-0.0645,0.3389-0.1758,0.4463-0.333
			s0.1611-0.3545,0.1611-0.5908c0-0.2646-0.0703-0.4785-0.2119-0.6416s-0.3408-0.2666-0.5986-0.3096
			c-0.1289-0.0176-0.5156-0.0264-1.1602-0.0264H95.221V60.7867z"/>
		<path d="M104.6262,65.3306v-7.874h2.5508c0.9668,0,1.5967,0.0391,1.8906,0.1182c0.4512,0.1182,0.8291,0.375,1.1328,0.7705
			c0.3047,0.3955,0.457,0.9072,0.457,1.5342c0,0.4824-0.0879,0.8896-0.2637,1.2188c-0.1748,0.3291-0.3975,0.5879-0.668,0.7764
			c-0.2705,0.1875-0.5449,0.3125-0.8242,0.373c-0.3799,0.0752-0.9297,0.1123-1.6494,0.1123h-1.0362v2.9707H104.6262z
			 M106.216,58.7886v2.2344h0.8692c0.627,0,1.0459-0.041,1.2578-0.124c0.2109-0.082,0.376-0.2109,0.4961-0.3867
			c0.1201-0.1748,0.1797-0.3789,0.1797-0.6113c0-0.2871-0.084-0.5234-0.252-0.709c-0.168-0.1865-0.3809-0.3027-0.6387-0.3496
			c-0.1904-0.0361-0.5713-0.0537-1.1445-0.0537H106.216z"/>
		<path d="M111.9573,57.4566h2.9063c0.6543,0,1.1543,0.0498,1.498,0.1504c0.4619,0.1357,0.8574,0.3779,1.1875,0.7256
			c0.3291,0.3467,0.5801,0.7725,0.752,1.2754s0.2578,1.123,0.2578,1.8613c0,0.6475-0.0811,1.2061-0.2422,1.6758
			c-0.1973,0.5723-0.4785,1.0361-0.8438,1.3906c-0.2754,0.2686-0.6475,0.4785-1.1172,0.6289
			c-0.3506,0.1104-0.8193,0.166-1.4063,0.166h-2.9922V57.4566z M113.5471,58.7886v5.2158h1.1875
			c0.4434,0,0.7637-0.0254,0.9609-0.0762c0.2578-0.0645,0.4717-0.1729,0.6416-0.3271s0.3096-0.4072,0.417-0.7598
			s0.1602-0.834,0.1602-1.4424s-0.0527-1.0762-0.1602-1.4023c-0.1074-0.3252-0.2578-0.5801-0.4512-0.7617
			c-0.1934-0.1836-0.4395-0.3066-0.7363-0.3711c-0.2217-0.0498-0.6572-0.0752-1.3047-0.0752H113.5471z"/>
		<path d="M119.9172,65.3306v-7.874h5.3984v1.332h-3.8086v1.8643h3.2871v1.332h-3.2871v3.3457H119.9172z"/>
	</g>
	<g id="XMLID_4149_">
		<path id="XMLID_4159_" style="fill:#FFFFFF;" d="M76.3324,15.2399h-4.7892c-0.7382,0-1.3367,0.5985-1.3367,1.3367
			s0.5985,1.3367,1.3367,1.3367h4.7892c0.7382,0,1.3367-0.5985,1.3367-1.3367S77.0706,15.2399,76.3324,15.2399z"/>
		<path id="XMLID_4158_" style="fill:#FFFFFF;" d="M76.3324,20.7946h-4.7892c-0.7382,0-1.3367,0.5985-1.3367,1.3367
			s0.5985,1.3367,1.3367,1.3367h4.7892c0.7382,0,1.3367-0.5985,1.3367-1.3367S77.0706,20.7946,76.3324,20.7946z"/>
		<path id="XMLID_4157_" style="fill:#FFFFFF;" d="M81.9523,30.1538v1.3018h0.6877c0.834,0,0.834-0.4989,0.834-0.6629
			c0-0.1582,0-0.6389-0.834-0.6389L81.9523,30.1538L81.9523,30.1538z"/>
		<path id="XMLID_4151_" style="fill:#FFFFFF;" d="M92.1053,27.6941H89.93V14.1447c0-0.3506-0.139-0.6866-0.3871-0.9343
			l-5.2466-5.2469c-0.2481-0.2476-0.5837-0.3867-0.9342-0.3867H67.5728c-1.4305,0-2.5941,1.1637-2.5941,2.5942v27.8114
			c0,1.4306,1.1637,2.5943,2.5941,2.5943h19.763c1.4304,0,2.5941-1.1638,2.5941-2.5943v-2.6776h2.1752
			c1.1306,0,2.0472-0.9165,2.0472-2.0472v-3.5165C94.1524,28.6107,93.2358,27.6941,92.1053,27.6941z M87.1128,37.6884H67.7957
			v-27.223h13.7311v3.8831c0,0.9406,0.7623,1.7027,1.7025,1.7027h3.8835v11.6429h-6.6102c-1.1307,0-2.0472,0.9166-2.0472,2.0472
			v3.5165c0,1.1307,0.9165,2.0472,2.0472,2.0472h6.6102V37.6884L87.1128,37.6884z M84.3196,30.7926
			c0,0.9304-0.6437,1.5085-1.6798,1.5085h-0.6877v0.8c0,0.2064-0.1673,0.374-0.3738,0.374h-0.0978
			c-0.2066,0-0.374-0.1676-0.374-0.374v-3.4189c0-0.2064,0.1674-0.374,0.374-0.374h1.1593
			C83.676,29.3081,84.3196,29.8768,84.3196,30.7926z M86.44,33.4751h-1.3451c-0.2066,0-0.374-0.1676-0.374-0.374v-3.4189
			c0-0.2064,0.1673-0.374,0.374-0.374H86.44c1.1716,0,2.1249,0.9357,2.1249,2.086C88.5649,32.5416,87.6118,33.4751,86.44,33.4751z
			 M91.8001,29.7797c0,0.2067-0.1674,0.374-0.374,0.374h-1.5189v0.8958h1.294c0.2065,0,0.374,0.1671,0.374,0.3738v0.0979
			c0,0.2064-0.1675,0.374-0.374,0.374h-1.294v1.2057c0,0.2064-0.1673,0.374-0.3739,0.374h-0.0977
			c-0.2067,0-0.374-0.1676-0.374-0.374v-3.4189c0-0.2064,0.1673-0.374,0.374-0.374h1.9905c0.2067,0,0.374,0.1676,0.374,0.374
			V29.7797L91.8001,29.7797z"/>
		<path id="XMLID_4150_" style="fill:#FFFFFF;" d="M86.44,30.1538h-0.8736v2.4757H86.44c0.7053,0,1.2792-0.5545,1.2792-1.2353
			C87.7193,30.7102,87.1455,30.1538,86.44,30.1538z"/>
	</g>
</g>
</svg>
