<?xml version="1.0" encoding="utf-8"?>
<!-- Generator: Adobe Illustrator 21.0.2, SVG Export Plug-In . SVG Version: 6.00 Build 0)  -->
<svg version="1.1" id="Capa_1" xmlns="http://www.w3.org/2000/svg" xmlns:xlink="http://www.w3.org/1999/xlink" x="0px" y="0px"
	 viewBox="0 0 154.914 74.254" style="enable-background:new 0 0 154.914 74.254;" xml:space="preserve">
<g>
	<rect id="XMLID_4177_" y="0" style="opacity:0.5;fill:#FFFFFF;" width="154.914" height="74.254"/>
	<rect id="XMLID_4173_" style="fill:#C9452F;" width="154.914" height="48.1538"/>
	<g>
		<path d="M38.5369,57.4566h3.1475c0.623,0,1.0879,0.0264,1.3936,0.0781c0.3066,0.0518,0.5801,0.1602,0.8223,0.3252
			c0.2412,0.1641,0.4424,0.3838,0.6045,0.6572c0.1602,0.2744,0.2412,0.5811,0.2412,0.9209c0,0.3691-0.0996,0.708-0.2979,1.0156
			c-0.1992,0.3076-0.4688,0.5391-0.8086,0.6934c0.4795,0.1387,0.8486,0.377,1.1064,0.7139s0.3867,0.7324,0.3867,1.1865
			c0,0.3584-0.083,0.707-0.25,1.0449c-0.166,0.3389-0.3936,0.6094-0.6816,0.8115s-0.6436,0.3262-1.0664,0.373
			c-0.2646,0.0283-0.9043,0.0469-1.917,0.0537h-2.6807V57.4566z M40.1267,58.7672v1.8213h1.042
			c0.6191,0,1.0039-0.0098,1.1543-0.0273c0.2725-0.0322,0.4863-0.126,0.6426-0.2822c0.1553-0.1553,0.2334-0.3604,0.2334-0.6143
			c0-0.2441-0.0674-0.4414-0.2012-0.5938c-0.1348-0.1523-0.334-0.2441-0.5986-0.2773c-0.1582-0.0176-0.6113-0.0264-1.3594-0.0264
			H40.1267z M40.1267,61.899v2.1055h1.4717c0.5732,0,0.9365-0.0166,1.0898-0.0488c0.2363-0.043,0.4297-0.1475,0.5781-0.3145
			c0.1484-0.166,0.2227-0.3887,0.2227-0.668c0-0.2363-0.0576-0.4375-0.1719-0.6016c-0.1143-0.165-0.2803-0.2852-0.4971-0.3604
			s-0.6865-0.1123-1.4092-0.1123H40.1267z"/>
		<path d="M46.4275,65.3306v-7.874h1.5898v7.874H46.4275z"/>
		<path d="M49.5378,57.4566h3.1475c0.623,0,1.0879,0.0264,1.3936,0.0781c0.3066,0.0518,0.5801,0.1602,0.8223,0.3252
			c0.2412,0.1641,0.4424,0.3838,0.6045,0.6572c0.1602,0.2744,0.2412,0.5811,0.2412,0.9209c0,0.3691-0.0996,0.708-0.2979,1.0156
			c-0.1992,0.3076-0.4688,0.5391-0.8086,0.6934c0.4795,0.1387,0.8486,0.377,1.1064,0.7139s0.3867,0.7324,0.3867,1.1865
			c0,0.3584-0.083,0.707-0.25,1.0449c-0.166,0.3389-0.3936,0.6094-0.6816,0.8115s-0.6436,0.3262-1.0664,0.373
			c-0.2646,0.0283-0.9043,0.0469-1.917,0.0537h-2.6807V57.4566z M51.1277,58.7672v1.8213h1.042
			c0.6191,0,1.0039-0.0098,1.1543-0.0273c0.2725-0.0322,0.4863-0.126,0.6426-0.2822c0.1553-0.1553,0.2334-0.3604,0.2334-0.6143
			c0-0.2441-0.0674-0.4414-0.2012-0.5938c-0.1348-0.1523-0.334-0.2441-0.5986-0.2773c-0.1582-0.0176-0.6113-0.0264-1.3594-0.0264
			H51.1277z M51.1277,61.899v2.1055h1.4717c0.5732,0,0.9365-0.0166,1.0898-0.0488c0.2363-0.043,0.4297-0.1475,0.5781-0.3145
			c0.1484-0.166,0.2227-0.3887,0.2227-0.668c0-0.2363-0.0576-0.4375-0.1719-0.6016c-0.1143-0.165-0.2803-0.2852-0.4971-0.3604
			s-0.6865-0.1123-1.4092-0.1123H51.1277z"/>
		<path d="M57.5193,65.3306v-7.8096h1.5898v6.4834h3.9531v1.3262H57.5193z"/>
		<path d="M64.1462,65.3306v-7.874h1.5898v7.874H64.1462z"/>
		<path d="M66.9294,61.442c0-0.8018,0.1191-1.4756,0.3594-2.0195c0.1787-0.4014,0.4238-0.7607,0.7334-1.0801
			c0.3096-0.3184,0.6484-0.5547,1.0176-0.709c0.4902-0.207,1.0566-0.3105,1.6973-0.3105c1.1602,0,2.0889,0.3594,2.7852,1.0791
			s1.0439,1.7207,1.0439,3.0029c0,1.2705-0.3447,2.2656-1.0361,2.9834s-1.6152,1.0771-2.7715,1.0771
			c-1.1709,0-2.1016-0.3574-2.793-1.0723C67.2742,63.6793,66.9294,62.6949,66.9294,61.442z M68.5671,61.3883
			c0,0.8916,0.2061,1.5674,0.6182,2.0273c0.4111,0.46,0.9336,0.6904,1.5684,0.6904c0.6328,0,1.1533-0.2285,1.5596-0.6846
			c0.4063-0.457,0.6104-1.1416,0.6104-2.0547c0-0.9023-0.1982-1.5752-0.5938-2.0195s-0.9219-0.666-1.5762-0.666
			c-0.6563,0-1.1836,0.2246-1.585,0.6738S68.5671,60.482,68.5671,61.3883z"/>
		<path d="M79.4705,62.4361V61.109h3.4277v3.1367c-0.334,0.3223-0.8164,0.6064-1.4482,0.8516s-1.2715,0.3682-1.9199,0.3682
			c-0.8232,0-1.542-0.1729-2.1533-0.5186c-0.6133-0.3457-1.0732-0.8398-1.3809-1.4824s-0.4619-1.3418-0.4619-2.0977
			c0-0.8203,0.1719-1.5488,0.5156-2.1865c0.3438-0.6367,0.8467-1.126,1.5088-1.4658c0.5059-0.2617,1.1338-0.3916,1.8857-0.3916
			c0.9775,0,1.7412,0.2041,2.291,0.6143s0.9033,0.9766,1.0605,1.7002l-1.5791,0.2949c-0.1113-0.3867-0.3193-0.6914-0.626-0.915
			c-0.3057-0.2236-0.6885-0.3359-1.1465-0.3359c-0.6943,0-1.2471,0.2197-1.6572,0.6611c-0.4102,0.4395-0.6152,1.0938-0.6152,1.96
			c0,0.9346,0.208,1.6357,0.623,2.1025c0.416,0.4678,0.96,0.7012,1.6328,0.7012c0.334,0,0.667-0.0654,1.002-0.1963
			s0.6221-0.2891,0.8623-0.4756v-0.998H79.4705z"/>
		<path d="M84.3699,65.3306v-7.874h3.3467c0.8408,0,1.4521,0.0703,1.834,0.2119c0.3809,0.1416,0.6865,0.3936,0.916,0.7549
			c0.2285,0.3613,0.3438,0.7754,0.3438,1.2412c0,0.5898-0.1738,1.0781-0.5215,1.4629s-0.8662,0.6279-1.5576,0.7285
			c0.3438,0.2002,0.6279,0.4199,0.8516,0.6602s0.5254,0.666,0.9053,1.2783l0.9609,1.5361h-1.9014l-1.1494-1.7129
			c-0.4082-0.6133-0.6875-0.999-0.8379-1.1582s-0.3096-0.2686-0.4785-0.3271c-0.168-0.0596-0.4346-0.0889-0.7998-0.0889h-0.3223
			v3.2871H84.3699z M85.9597,60.7867h1.1768c0.7617,0,1.2383-0.0322,1.4277-0.0967c0.1904-0.0645,0.3389-0.1758,0.4463-0.333
			s0.1611-0.3545,0.1611-0.5908c0-0.2646-0.0703-0.4785-0.2119-0.6416s-0.3408-0.2666-0.5986-0.3096
			c-0.1289-0.0176-0.5156-0.0264-1.1602-0.0264h-1.2412V60.7867z"/>
		<path d="M99.408,65.3306h-1.7285l-0.6875-1.7891h-3.1484l-0.6494,1.7891h-1.6865l3.0664-7.874h1.6816L99.408,65.3306z
			 M96.4812,62.2154l-1.085-2.9219l-1.0635,2.9219H96.4812z"/>
		<path d="M100.2615,65.3306v-7.874h5.3984v1.332h-3.8086v1.8643h3.2871v1.332h-3.2871v3.3457H100.2615z"/>
		<path d="M106.739,57.0054l0.7412-1.6064h1.6914l-1.4766,1.6064H106.739z M106.9216,65.3306v-7.874h1.5898v7.874H106.9216z"/>
		<path d="M117.1267,65.3306h-1.7285l-0.6875-1.7891h-3.1484l-0.6494,1.7891h-1.6865l3.0664-7.874h1.6816L117.1267,65.3306z
			 M114.1999,62.2154l-1.085-2.9219l-1.0635,2.9219H114.1999z"/>
	</g>
	<g id="XMLID_4113_">
		<path id="XMLID_4114_" style="fill:#FFFFFF;" d="M63.5822,14.2595l7.0442,2.3697c0.5778,0.2528,3.3309,1.2589,8.2146,0.0486
			c6.1676-1.5279,19.5199-4.1789,19.6556-4.2076L97.996,9.9598c0,0-0.0386,0.01-0.0871,0.0199L85.1841,8.1841
			c-1.4009-0.1943-3.6572-0.1407-5.0493,0.132l-17.0145,3.2973c-2.2127-0.1121-4.3146,1.2452-5.0194,3.4542
			c-0.4084,1.2689-0.2964,2.6262,0.3162,3.8079c0.3163,0.6089,0.7397,1.1294,1.2502,1.5565
			c-0.7683,0.5989-1.3672,1.4208-1.6885,2.4132c-0.4035,1.2688-0.2914,2.6262,0.3213,3.8128
			c0.3312,0.6425,0.7932,1.183,1.3423,1.615c-0.7534,0.594-1.3474,1.4158-1.6636,2.3933c-0.4035,1.2751-0.2914,2.6261,0.3213,3.8141
			c0.6126,1.1867,1.6486,2.0621,2.9187,2.4705l12.2678,3.9199c0.6712,0.2142,1.7744,0.2627,2.4655,0.1021l21.5334-4.9323
			c0,0-0.132-0.5541-0.2864-1.2452c-0.1569-0.6848-0.8468-1.1182-1.5328-0.9625l-19.6021,4.4902
			c-0.6911,0.1594-1.7956,0.1108-2.4668-0.1033L61.997,34.5141c-0.6176-0.1992-1.1232-0.6276-1.4258-1.2066
			c-0.2964-0.579-0.3549-1.2402-0.1557-1.8579c0.4135-1.2838,1.7857-1.9849,3.0694-1.5814
			c0.005-0.0137,7.0965,2.2526,10.0015,3.1765c0.6712,0.2142,1.7744,0.2627,2.4655,0.1071l21.5334-4.9323
			c0,0-0.132-0.5591-0.2864-1.2502c-0.1569-0.6849-0.8418-1.1182-1.5328-0.9576l-19.6021,4.489
			c-0.6911,0.1557-1.7956,0.1071-2.4668-0.107L61.997,26.6879c-0.6176-0.1992-1.1232-0.6276-1.4258-1.2066
			c-0.2964-0.579-0.3549-1.2402-0.1557-1.8579c0.4135-1.2838,1.7857-1.9849,3.0694-1.5814c0,0,7.1899,2.2912,10.1173,3.2251
			c0.6762,0.2192,1.7807,0.2627,2.4667,0.1071l21.5335-4.9323c0,0-0.127-0.5591-0.2877-1.2502
			c-0.1556-0.6861-0.8418-1.1182-1.5316-0.9575l-19.6021,4.484c-0.6911,0.1606-1.7906,0.1121-2.4667-0.1021l-11.5954-3.7058
			c-0.6226-0.1992-1.1294-0.6276-1.4258-1.2066c-0.3013-0.579-0.3549-1.2402-0.1557-1.8579
			C60.9461,14.5658,62.3183,13.8511,63.5822,14.2595L63.5822,14.2595z M63.5822,14.2595"/>
	</g>
</g>
</svg>
