<?xml version="1.0" encoding="utf-8"?>
<!-- Generator: Adobe Illustrator 21.0.2, SVG Export Plug-In . SVG Version: 6.00 Build 0)  -->
<svg version="1.1" id="Capa_1" xmlns="http://www.w3.org/2000/svg" xmlns:xlink="http://www.w3.org/1999/xlink" x="0px" y="0px"
	 viewBox="0 0 155.1651 74.254" style="enable-background:new 0 0 155.1651 74.254;" xml:space="preserve">
<g>
	<rect id="XMLID_4196_" x="0" style="opacity:0.5;fill:#FFFFFF;" width="154.914" height="74.254"/>
	<rect id="XMLID_4190_" x="0" y="0" style="fill:#C9452F;" width="155.1651" height="48.1538"/>
	<g>
		<path d="M23.6966,65.3312h-1.7285l-0.6875-1.7891h-3.1484l-0.6494,1.7891h-1.6865l3.0664-7.874h1.6816L23.6966,65.3312z
			 M20.7699,62.216l-1.085-2.9219l-1.0635,2.9219H20.7699z"/>
		<path d="M29.5775,62.4367l1.542,0.4883c-0.2363,0.8594-0.6289,1.498-1.1787,1.915s-1.2471,0.626-2.0918,0.626
			c-1.0459,0-1.9053-0.3574-2.5781-1.0723c-0.6738-0.7139-1.0098-1.6904-1.0098-2.9297c0-1.3105,0.3379-2.3281,1.0146-3.0537
			c0.6768-0.7246,1.5664-1.0869,2.6689-1.0869c0.9639,0,1.7461,0.2842,2.3477,0.8535c0.3584,0.3369,0.627,0.8203,0.8057,1.4502
			l-1.5732,0.376c-0.0938-0.4082-0.2881-0.7305-0.583-0.9668c-0.2959-0.2363-0.6543-0.3545-1.0771-0.3545
			c-0.584,0-1.0576,0.21-1.4209,0.6279c-0.3633,0.4199-0.5449,1.0977-0.5449,2.0361c0,0.9951,0.1787,1.7041,0.5371,2.127
			s0.8232,0.6338,1.3965,0.6338c0.4229,0,0.7861-0.1348,1.0908-0.4023C29.2269,63.4347,29.4457,63.0128,29.5775,62.4367z"/>
		<path d="M34.2552,65.3312v-6.542h-2.3359v-1.332h6.2578v1.332h-2.332v6.542H34.2552z"/>
		<path d="M39.1537,65.3312v-7.874h1.5898v7.874H39.1537z"/>
		<path d="M44.267,65.3312l-2.8145-7.874h1.7246l1.9922,5.8271l1.9287-5.8271h1.6865l-2.8203,7.874H44.267z"/>
		<path d="M49.5472,65.3312v-7.874h1.5898v7.874H49.5472z"/>
		<path d="M52.6459,57.4572h2.9063c0.6543,0,1.1543,0.0498,1.498,0.1504c0.4619,0.1357,0.8574,0.3779,1.1875,0.7256
			c0.3291,0.3467,0.5801,0.7725,0.752,1.2754s0.2578,1.123,0.2578,1.8613c0,0.6475-0.0811,1.2061-0.2422,1.6758
			c-0.1973,0.5723-0.4785,1.0361-0.8438,1.3906c-0.2754,0.2686-0.6475,0.4785-1.1172,0.6289
			c-0.3506,0.1104-0.8193,0.166-1.4063,0.166h-2.9922V57.4572z M54.2357,58.7892v5.2158h1.1875
			c0.4434,0,0.7637-0.0254,0.9609-0.0762c0.2578-0.0645,0.4717-0.1729,0.6416-0.3271s0.3096-0.4072,0.417-0.7598
			c0.1074-0.3525,0.1602-0.834,0.1602-1.4424s-0.0528-1.0762-0.1602-1.4023c-0.1074-0.3252-0.2578-0.5801-0.4512-0.7617
			c-0.1934-0.1836-0.4395-0.3066-0.7363-0.3711c-0.2217-0.0498-0.6572-0.0752-1.3047-0.0752H54.2357z"/>
		<path d="M67.6947,65.3312h-1.7285l-0.6875-1.7891h-3.1484l-0.6494,1.7891h-1.6865l3.0664-7.874h1.6816L67.6947,65.3312z
			 M64.7679,62.216l-1.085-2.9219l-1.0635,2.9219H64.7679z"/>
		<path d="M68.5326,57.4572h2.9063c0.6543,0,1.1543,0.0498,1.498,0.1504c0.4619,0.1357,0.8574,0.3779,1.1875,0.7256
			c0.3291,0.3467,0.5801,0.7725,0.752,1.2754s0.2578,1.123,0.2578,1.8613c0,0.6475-0.0811,1.2061-0.2422,1.6758
			c-0.1973,0.5723-0.4785,1.0361-0.8438,1.3906c-0.2754,0.2686-0.6475,0.4785-1.1172,0.6289
			c-0.3506,0.1104-0.8193,0.166-1.4063,0.166h-2.9922V57.4572z M70.1224,58.7892v5.2158h1.1875
			c0.4434,0,0.7637-0.0254,0.9609-0.0762c0.2578-0.0645,0.4717-0.1729,0.6416-0.3271s0.3096-0.4072,0.417-0.7598
			s0.1602-0.834,0.1602-1.4424s-0.0527-1.0762-0.1602-1.4023c-0.1074-0.3252-0.2578-0.5801-0.4512-0.7617
			c-0.1934-0.1836-0.4395-0.3066-0.7363-0.3711c-0.2217-0.0498-0.6572-0.0752-1.3047-0.0752H70.1224z"/>
		<path d="M79.5326,57.4572h2.9063c0.6543,0,1.1543,0.0498,1.498,0.1504c0.4619,0.1357,0.8574,0.3779,1.1875,0.7256
			c0.3291,0.3467,0.5801,0.7725,0.752,1.2754s0.2578,1.123,0.2578,1.8613c0,0.6475-0.0811,1.2061-0.2422,1.6758
			c-0.1973,0.5723-0.4785,1.0361-0.8438,1.3906c-0.2754,0.2686-0.6475,0.4785-1.1172,0.6289
			c-0.3506,0.1104-0.8193,0.166-1.4063,0.166h-2.9922V57.4572z M81.1224,58.7892v5.2158h1.1875
			c0.4434,0,0.7637-0.0254,0.9609-0.0762c0.2578-0.0645,0.4717-0.1729,0.6416-0.3271s0.3096-0.4072,0.417-0.7598
			s0.1602-0.834,0.1602-1.4424s-0.0527-1.0762-0.1602-1.4023c-0.1074-0.3252-0.2578-0.5801-0.4512-0.7617
			c-0.1934-0.1836-0.4395-0.3066-0.7363-0.3711c-0.2217-0.0498-0.6572-0.0752-1.3047-0.0752H81.1224z"/>
		<path d="M87.433,65.3312v-7.874h1.5898v7.874H87.433z"/>
		<path d="M90.5326,57.4572h2.9063c0.6543,0,1.1543,0.0498,1.498,0.1504c0.4619,0.1357,0.8574,0.3779,1.1875,0.7256
			c0.3291,0.3467,0.5801,0.7725,0.752,1.2754s0.2578,1.123,0.2578,1.8613c0,0.6475-0.0811,1.2061-0.2422,1.6758
			c-0.1973,0.5723-0.4785,1.0361-0.8438,1.3906c-0.2754,0.2686-0.6475,0.4785-1.1172,0.6289
			c-0.3506,0.1104-0.8193,0.166-1.4063,0.166h-2.9922V57.4572z M92.1224,58.7892v5.2158h1.1875
			c0.4434,0,0.7637-0.0254,0.9609-0.0762c0.2578-0.0645,0.4717-0.1729,0.6416-0.3271s0.3096-0.4072,0.417-0.7598
			s0.1602-0.834,0.1602-1.4424s-0.0527-1.0762-0.1602-1.4023c-0.1074-0.3252-0.2578-0.5801-0.4512-0.7617
			c-0.1934-0.1836-0.4395-0.3066-0.7363-0.3711c-0.2217-0.0498-0.6572-0.0752-1.3047-0.0752H92.1224z"/>
		<path d="M105.5814,65.3312h-1.7285l-0.6875-1.7891h-3.1484l-0.6494,1.7891H97.681l3.0664-7.874h1.6816L105.5814,65.3312z
			 M102.6547,62.216l-1.085-2.9219l-1.0635,2.9219H102.6547z M100.6566,57.006l0.7412-1.6064h1.6914l-1.4766,1.6064H100.6566z"/>
		<path d="M111.4623,62.4367l1.542,0.4883c-0.2363,0.8594-0.6289,1.498-1.1787,1.915s-1.2471,0.626-2.0918,0.626
			c-1.0459,0-1.9053-0.3574-2.5781-1.0723c-0.6738-0.7139-1.0098-1.6904-1.0098-2.9297c0-1.3105,0.3379-2.3281,1.0146-3.0537
			c0.6768-0.7246,1.5664-1.0869,2.6689-1.0869c0.9639,0,1.7461,0.2842,2.3477,0.8535c0.3584,0.3369,0.627,0.8203,0.8057,1.4502
			l-1.5732,0.376c-0.0938-0.4082-0.2881-0.7305-0.583-0.9668c-0.2959-0.2363-0.6543-0.3545-1.0771-0.3545
			c-0.584,0-1.0576,0.21-1.4209,0.6279c-0.3633,0.4199-0.5449,1.0977-0.5449,2.0361c0,0.9951,0.1787,1.7041,0.5371,2.127
			s0.8232,0.6338,1.3965,0.6338c0.4229,0,0.7861-0.1348,1.0908-0.4023C111.1117,63.4347,111.3304,63.0128,111.4623,62.4367z"/>
		<path d="M116.14,65.3312v-6.542h-2.3359v-1.332h6.2578v1.332h-2.332v6.542H116.14z"/>
		<path d="M121.0384,65.3312v-7.874h1.5898v7.874H121.0384z"/>
		<path d="M129.181,62.4367l1.542,0.4883c-0.2363,0.8594-0.6289,1.498-1.1787,1.915s-1.2471,0.626-2.0918,0.626
			c-1.0459,0-1.9053-0.3574-2.5781-1.0723c-0.6738-0.7139-1.0098-1.6904-1.0098-2.9297c0-1.3105,0.3379-2.3281,1.0146-3.0537
			c0.6768-0.7246,1.5664-1.0869,2.6689-1.0869c0.9639,0,1.7461,0.2842,2.3476,0.8535c0.3584,0.3369,0.627,0.8203,0.8057,1.4502
			l-1.5732,0.376c-0.0938-0.4082-0.2881-0.7305-0.583-0.9668c-0.2959-0.2363-0.6543-0.3545-1.0771-0.3545
			c-0.584,0-1.0576,0.21-1.4209,0.6279c-0.3633,0.4199-0.5449,1.0977-0.5449,2.0361c0,0.9951,0.1787,1.7041,0.5371,2.127
			s0.8232,0.6338,1.3965,0.6338c0.4229,0,0.7861-0.1348,1.0908-0.4023C128.8304,63.4347,129.0492,63.0128,129.181,62.4367z"/>
		<path d="M139.1869,65.3312h-1.7285l-0.6875-1.7891h-3.1484l-0.6494,1.7891h-1.6865l3.0664-7.874h1.6816L139.1869,65.3312z
			 M136.2601,62.216l-1.085-2.9219l-1.0635,2.9219H136.2601z"/>
	</g>
	<path id="XMLID_4178_" style="fill-rule:evenodd;clip-rule:evenodd;fill:#FEFEFE;" d="M90.0926,18.2012v16.9964
		c0,2.0984-1.7515,3.8499-4.0334,3.8499H66.0953c-2.2798,0-4.027-1.7515-4.027-3.8499V15.0491c0-2.2752,1.7472-4.0279,4.027-4.0279
		H83.086l-4.0288,4.0279H66.0953v20.1486h19.9639V22.2335L90.0926,18.2012z M87.113,9.7962L85.7147,11.37l4.2057,4.2068
		l1.4006-1.4027L87.113,9.7962z M89.9204,6.9944L88.52,8.3924l4.1991,4.3814l1.4095-1.4038L89.9204,6.9944z M71.5291,25.3834
		l4.1991,4.3825L88.52,16.9786l-4.208-4.2048L71.5291,25.3834z M70.1241,31.1631h4.0314l-4.0314-4.0279V31.1631z"/>
</g>
</svg>
