<?xml version="1.0" encoding="utf-8"?>
<!-- Generator: Adobe Illustrator 21.0.2, SVG Export Plug-In . SVG Version: 6.00 Build 0)  -->
<svg version="1.1" id="Capa_1" xmlns="http://www.w3.org/2000/svg" xmlns:xlink="http://www.w3.org/1999/xlink" x="0px" y="0px"
	 viewBox="0 0 154.914 74.254" style="enable-background:new 0 0 154.914 74.254;" xml:space="preserve">
<g>
	<rect id="XMLID_4197_" style="opacity:0.5;fill:#FFFFFF;" width="154.914" height="74.254"/>
	<rect id="XMLID_4188_" x="0" y="0" style="fill:#C9452F;" width="154.914" height="48.1538"/>
	<g>
		<path d="M52.5834,62.4367v-1.3271h3.4277v3.1367c-0.334,0.3223-0.8164,0.6064-1.4482,0.8516s-1.2715,0.3682-1.9199,0.3682
			c-0.8232,0-1.542-0.1729-2.1533-0.5186c-0.6133-0.3457-1.0732-0.8398-1.3809-1.4824s-0.4619-1.3418-0.4619-2.0977
			c0-0.8203,0.1719-1.5488,0.5156-2.1865c0.3438-0.6367,0.8467-1.126,1.5088-1.4658c0.5059-0.2617,1.1338-0.3916,1.8857-0.3916
			c0.9775,0,1.7412,0.2041,2.291,0.6143s0.9033,0.9766,1.0605,1.7002l-1.5791,0.2949c-0.1113-0.3867-0.3193-0.6914-0.626-0.915
			c-0.3057-0.2236-0.6885-0.3359-1.1465-0.3359c-0.6943,0-1.2471,0.2197-1.6572,0.6611c-0.4102,0.4395-0.6152,1.0938-0.6152,1.96
			c0,0.9346,0.208,1.6357,0.623,2.1025c0.416,0.4678,0.96,0.7012,1.6328,0.7012c0.334,0,0.667-0.0654,1.002-0.1963
			s0.6221-0.2891,0.8623-0.4756v-0.998H52.5834z"/>
		<path d="M57.5199,65.3312v-7.8096h1.5898v6.4834h3.9531v1.3262H57.5199z"/>
		<path d="M63.8735,61.4425c0-0.8018,0.1191-1.4756,0.3594-2.0195c0.1787-0.4014,0.4238-0.7607,0.7334-1.0801
			c0.3096-0.3184,0.6484-0.5547,1.0176-0.709c0.4902-0.207,1.0566-0.3105,1.6973-0.3105c1.1602,0,2.0889,0.3594,2.7852,1.0791
			s1.0439,1.7207,1.0439,3.0029c0,1.2705-0.3447,2.2656-1.0361,2.9834s-1.6152,1.0771-2.7715,1.0771
			c-1.1709,0-2.1016-0.3574-2.793-1.0723C64.2182,63.6798,63.8735,62.6954,63.8735,61.4425z M65.5112,61.3888
			c0,0.8916,0.2061,1.5674,0.6182,2.0273c0.4111,0.46,0.9336,0.6904,1.5684,0.6904c0.6328,0,1.1533-0.2285,1.5596-0.6846
			c0.4063-0.457,0.6104-1.1416,0.6104-2.0547c0-0.9023-0.1982-1.5752-0.5938-2.0195s-0.9219-0.666-1.5762-0.666
			c-0.6563,0-1.1836,0.2246-1.585,0.6738S65.5112,60.4826,65.5112,61.3888z"/>
		<path d="M72.3491,62.7687l1.5469-0.1504c0.0928,0.5195,0.2822,0.9014,0.5664,1.1445c0.2852,0.2432,0.6689,0.3652,1.1523,0.3652
			c0.5117,0,0.8975-0.1084,1.1572-0.3252s0.3896-0.4697,0.3896-0.7598c0-0.1865-0.0547-0.3447-0.1641-0.4756
			s-0.2998-0.2441-0.5713-0.3408c-0.1865-0.0645-0.6113-0.1787-1.2734-0.3438c-0.8525-0.2109-1.4502-0.4707-1.7939-0.7783
			c-0.4834-0.4336-0.7256-0.9619-0.7256-1.585c0-0.4014,0.1143-0.7764,0.3418-1.125c0.2275-0.3496,0.5547-0.6152,0.9824-0.7979
			s0.9443-0.2734,1.5498-0.2734c0.9883,0,1.7324,0.2158,2.2314,0.6494c0.5,0.4336,0.7617,1.0117,0.7871,1.7354l-1.5898,0.0693
			c-0.0684-0.4043-0.2139-0.6953-0.4375-0.873c-0.2236-0.1768-0.5596-0.2656-1.0078-0.2656c-0.4609,0-0.8232,0.0947-1.084,0.2842
			c-0.1689,0.1221-0.2529,0.2852-0.2529,0.4893c0,0.1865,0.0791,0.3457,0.2363,0.4775c0.2002,0.1689,0.6875,0.3438,1.4609,0.5273
			c0.7734,0.1816,1.3457,0.3711,1.7158,0.5664c0.3711,0.1953,0.6611,0.4619,0.8701,0.7998c0.21,0.3389,0.3145,0.7568,0.3145,1.2549
			c0,0.4512-0.125,0.873-0.376,1.2676c-0.251,0.3936-0.6055,0.6865-1.0635,0.8779s-1.0293,0.2871-1.7139,0.2871
			c-0.9951,0-1.7598-0.2305-2.293-0.6904S72.4526,63.6495,72.3491,62.7687z"/>
		<path d="M87.1889,65.3312h-1.7285l-0.6875-1.7891h-3.1484l-0.6494,1.7891h-1.6865l3.0664-7.874h1.6816L87.1889,65.3312z
			 M84.2621,62.216l-1.085-2.9219l-1.0635,2.9219H84.2621z"/>
		<path d="M88.0385,65.3312v-7.874h3.3467c0.8408,0,1.4521,0.0703,1.834,0.2119c0.3809,0.1416,0.6865,0.3936,0.916,0.7549
			c0.2285,0.3613,0.3438,0.7754,0.3438,1.2412c0,0.5898-0.1738,1.0781-0.5215,1.4629s-0.8662,0.6279-1.5576,0.7285
			c0.3438,0.2002,0.6279,0.4199,0.8516,0.6602s0.5254,0.666,0.9053,1.2783l0.9609,1.5361h-1.9014l-1.1494-1.7129
			c-0.4082-0.6133-0.6875-0.999-0.8379-1.1582s-0.3096-0.2686-0.4785-0.3271c-0.168-0.0596-0.4346-0.0889-0.7998-0.0889h-0.3223
			v3.2871H88.0385z M89.6283,60.7872h1.1768c0.7617,0,1.2383-0.0322,1.4277-0.0967c0.1904-0.0645,0.3389-0.1758,0.4463-0.333
			s0.1611-0.3545,0.1611-0.5908c0-0.2646-0.0703-0.4785-0.2119-0.6416s-0.3408-0.2666-0.5986-0.3096
			c-0.1289-0.0176-0.5156-0.0264-1.1602-0.0264h-1.2412V60.7872z"/>
		<path d="M95.9282,65.3312v-7.874h1.5898v7.874H95.9282z"/>
		<path d="M98.7114,61.4425c0-0.8018,0.1191-1.4756,0.3594-2.0195c0.1787-0.4014,0.4238-0.7607,0.7334-1.0801
			c0.3096-0.3184,0.6484-0.5547,1.0176-0.709c0.4902-0.207,1.0566-0.3105,1.6973-0.3105c1.1602,0,2.0889,0.3594,2.7852,1.0791
			s1.0439,1.7207,1.0439,3.0029c0,1.2705-0.3447,2.2656-1.0361,2.9834s-1.6152,1.0771-2.7715,1.0771
			c-1.1709,0-2.1016-0.3574-2.793-1.0723C99.0561,63.6798,98.7114,62.6954,98.7114,61.4425z M100.3491,61.3888
			c0,0.8916,0.2061,1.5674,0.6182,2.0273c0.4111,0.46,0.9336,0.6904,1.5684,0.6904c0.6328,0,1.1533-0.2285,1.5596-0.6846
			c0.4063-0.457,0.6104-1.1416,0.6104-2.0547c0-0.9023-0.1982-1.5752-0.5938-2.0195s-0.9219-0.666-1.5762-0.666
			c-0.6563,0-1.1836,0.2246-1.585,0.6738S100.3491,60.4826,100.3491,61.3888z"/>
	</g>
	<g id="XMLID_4125_">
		<path id="XMLID_4145_" style="fill:#FFFFFF;" d="M90.7354,39.6927l-3.4169-3.4229c0.7146-1.1294,1.1355-2.4626,1.1355-3.8977
			c0-4.0131-3.2716-7.2846-7.2847-7.2846c-4.0146,0-7.2862,3.2716-7.2862,7.2846c0,4.0205,3.2716,7.2862,7.2862,7.2862
			c1.4276,0,2.7667-0.4209,3.8902-1.1355l3.4229,3.4229c0.31,0.3101,0.7205,0.4688,1.1294,0.4688
			c0.4044,0,0.8134-0.1588,1.1235-0.4688C91.3616,41.3195,91.3616,40.3128,90.7354,39.6927L90.7354,39.6927z M81.1694,37.3813
			c-2.7623,0-5.0092-2.247-5.0092-5.0092c0-2.7607,2.247-5.0077,5.0092-5.0077c2.7608,0,5.0077,2.247,5.0077,5.0077
			C86.1771,35.1343,83.9302,37.3813,81.1694,37.3813L81.1694,37.3813z M81.1694,37.3813"/>
		<path id="XMLID_4142_" style="fill:#FFFFFF;" d="M75.2239,26.4041h-8.6433c-0.2921,0-0.5258,0.2337-0.5258,0.5273v0.5258
			c0,0.2876,0.2337,0.5213,0.5258,0.5213h7.409C74.3401,27.4048,74.749,26.879,75.2239,26.4041L75.2239,26.4041z M75.2239,26.4041"
			/>
		<path id="XMLID_4138_" style="fill:#FFFFFF;" d="M70.2386,11.1907h6.8517c0.8598,0,1.5624-0.7025,1.5624-1.5624v-0.03
			c0-0.8598-0.7026-1.5564-1.5624-1.5564H76.283c-0.433,0-0.7789-0.3505-0.7789-0.7835v-0.03c0-1.0006-0.8134-1.814-1.8186-1.814
			h-0.0419c-1.0006,0-1.8141,0.8134-1.8141,1.814v0.03c0,0.4329-0.3505,0.7835-0.7834,0.7835h-0.8074
			c-0.8598,0-1.5564,0.6966-1.5564,1.5564v0.03C68.6822,10.4882,69.3788,11.1907,70.2386,11.1907L70.2386,11.1907z M73.6675,6.4631
			c0.4329,0,0.7835,0.3565,0.7835,0.7894c0,0.4329-0.3505,0.7894-0.7835,0.7894c-0.4389,0-0.7909-0.3565-0.7909-0.7894
			C72.8766,6.8196,73.2286,6.4631,73.6675,6.4631L73.6675,6.4631z M73.6675,6.4631"/>
		<path id="XMLID_4135_" style="fill:#FFFFFF;" d="M66.5806,31.1257c-0.2921,0-0.5258,0.2412-0.5258,0.5273v0.5273
			c0,0.2861,0.2337,0.5258,0.5258,0.5258h6.1732c-0.0045-0.1109-0.0165-0.2217-0.0165-0.328c0-0.4269,0.0405-0.8419,0.0988-1.2524
			H66.5806z M66.5806,31.1257"/>
		<path id="XMLID_4132_" style="fill:#FFFFFF;" d="M81.2742,23.2569v-0.5273c0-0.2861-0.2337-0.5213-0.5273-0.5213H66.5806
			c-0.2921,0-0.5258,0.2352-0.5258,0.5213v0.5273c0,0.2921,0.2337,0.5258,0.5258,0.5258h14.1664
			C81.0405,23.7827,81.2742,23.549,81.2742,23.2569L81.2742,23.2569z M81.2742,23.2569"/>
		<path id="XMLID_4129_" style="fill:#FFFFFF;" d="M64.4804,35.8489V14.8593h18.3682v9.2515
			c0.9422,0.1932,1.8246,0.5498,2.6215,1.0231V11.6701c0-1.0187-0.8254-1.8425-1.838-1.8425h-3.9547
			c-0.1184,1.3572-1.2239,2.4102-2.587,2.4102h-6.8517c-1.3632,0-2.4702-1.053-2.587-2.3818H63.697
			c-1.0186,0-1.838,0.8194-1.838,1.838v24.9383c0,1.0186,0.8253,1.844,1.838,1.844h11.6677
			c-0.7789-0.743-1.4171-1.6328-1.8725-2.6274H64.4804z M64.4804,35.8489"/>
		<path id="XMLID_4126_" style="fill:#FFFFFF;" d="M81.2742,18.008c0-0.2876-0.2337-0.5213-0.5273-0.5213H66.5806
			c-0.2921,0-0.5258,0.2336-0.5258,0.5213v0.5258c0,0.2936,0.2337,0.5273,0.5258,0.5273h14.1664
			c0.2936,0,0.5273-0.2337,0.5273-0.5273V18.008z M81.2742,18.008"/>
	</g>
</g>
</svg>
