<?xml version="1.0" encoding="utf-8"?>
<!-- Generator: Adobe Illustrator 21.0.2, SVG Export Plug-In . SVG Version: 6.00 Build 0)  -->
<svg version="1.1" id="Capa_1" xmlns="http://www.w3.org/2000/svg" xmlns:xlink="http://www.w3.org/1999/xlink" x="0px" y="0px"
	 viewBox="0 0 154.914 74.254" style="enable-background:new 0 0 154.914 74.254;" xml:space="preserve">
<g>
	<rect id="XMLID_4198_" style="opacity:0.5;fill:#FFFFFF;" width="154.914" height="74.254"/>
	<rect id="XMLID_4194_" y="0" style="fill:#C9452F;" width="154.914" height="48.1538"/>
	<g>
		<path d="M18.7478,65.3312v-7.874h2.3789l1.4287,5.3711l1.4131-5.3711h2.3848v7.874h-1.4775v-6.1982l-1.5635,6.1982H21.782
			l-1.5576-6.1982v6.1982H18.7478z"/>
		<path d="M35.032,65.3312h-1.7285l-0.6875-1.7891h-3.1484l-0.6494,1.7891h-1.6865l3.0664-7.874h1.6816L35.032,65.3312z
			 M32.1052,62.216l-1.085-2.9219l-1.0635,2.9219H32.1052z"/>
		<path d="M35.8767,65.3312v-7.874h2.5508c0.9668,0,1.5967,0.0391,1.8906,0.1182c0.4512,0.1182,0.8291,0.375,1.1328,0.7705
			c0.3047,0.3955,0.457,0.9072,0.457,1.5342c0,0.4824-0.0879,0.8896-0.2637,1.2188c-0.1748,0.3291-0.3975,0.5879-0.668,0.7764
			c-0.2705,0.1875-0.5449,0.3125-0.8242,0.373c-0.3799,0.0752-0.9297,0.1123-1.6494,0.1123h-1.0361v2.9707H35.8767z
			 M37.4665,58.7892v2.2344h0.8691c0.627,0,1.0459-0.041,1.2578-0.124c0.2109-0.082,0.376-0.2109,0.4961-0.3867
			c0.1201-0.1748,0.1797-0.3789,0.1797-0.6113c0-0.2871-0.084-0.5234-0.252-0.709c-0.168-0.1865-0.3809-0.3027-0.6387-0.3496
			c-0.1904-0.0361-0.5713-0.0537-1.1445-0.0537H37.4665z"/>
		<path d="M49.4968,65.3312h-1.7285l-0.6875-1.7891h-3.1484l-0.6494,1.7891h-1.6865l3.0664-7.874h1.6816L49.4968,65.3312z
			 M46.5701,62.216l-1.085-2.9219l-1.0635,2.9219H46.5701z"/>
		<path d="M52.9841,57.4572h2.9063c0.6543,0,1.1543,0.0498,1.498,0.1504c0.4619,0.1357,0.8574,0.3779,1.1875,0.7256
			c0.3291,0.3467,0.5801,0.7725,0.752,1.2754s0.2578,1.123,0.2578,1.8613c0,0.6475-0.0811,1.2061-0.2422,1.6758
			c-0.1973,0.5723-0.4785,1.0361-0.8438,1.3906c-0.2754,0.2686-0.6475,0.4785-1.1172,0.6289
			c-0.3506,0.1104-0.8193,0.166-1.4063,0.166h-2.9922V57.4572z M54.574,58.7892v5.2158h1.1875c0.4434,0,0.7637-0.0254,0.9609-0.0762
			c0.2578-0.0645,0.4717-0.1729,0.6416-0.3271s0.3096-0.4072,0.417-0.7598s0.1602-0.834,0.1602-1.4424s-0.0527-1.0762-0.1602-1.4023
			c-0.1074-0.3252-0.2578-0.5801-0.4512-0.7617c-0.1934-0.1836-0.4395-0.3066-0.7363-0.3711
			c-0.2217-0.0498-0.6572-0.0752-1.3047-0.0752H54.574z"/>
		<path d="M60.9333,65.3312v-7.874h5.8379v1.332h-4.2481v1.7451h3.9531v1.3271h-3.9531v2.1436h4.3984v1.3262H60.9333z"/>
		<path d="M76.363,62.4367l1.542,0.4883c-0.2363,0.8594-0.6289,1.498-1.1787,1.915s-1.2471,0.626-2.0918,0.626
			c-1.0459,0-1.9053-0.3574-2.5781-1.0723c-0.6738-0.7139-1.0098-1.6904-1.0098-2.9297c0-1.3105,0.3379-2.3281,1.0146-3.0537
			c0.6768-0.7246,1.5664-1.0869,2.6689-1.0869c0.9639,0,1.7461,0.2842,2.3477,0.8535c0.3584,0.3369,0.627,0.8203,0.8057,1.4502
			l-1.5732,0.376c-0.0938-0.4082-0.2881-0.7305-0.583-0.9668c-0.2959-0.2363-0.6543-0.3545-1.0771-0.3545
			c-0.584,0-1.0576,0.21-1.4209,0.6279c-0.3633,0.4199-0.5449,1.0977-0.5449,2.0361c0,0.9951,0.1787,1.7041,0.5371,2.127
			s0.8232,0.6338,1.3965,0.6338c0.4229,0,0.7861-0.1348,1.0908-0.4023C76.0124,63.4347,76.2312,63.0128,76.363,62.4367z"/>
		<path d="M78.947,61.4425c0-0.8018,0.1191-1.4756,0.3594-2.0195c0.1787-0.4014,0.4238-0.7607,0.7334-1.0801
			c0.3096-0.3184,0.6484-0.5547,1.0176-0.709c0.4902-0.207,1.0566-0.3105,1.6973-0.3105c1.1602,0,2.0889,0.3594,2.7852,1.0791
			s1.0439,1.7207,1.0439,3.0029c0,1.2705-0.3447,2.2656-1.0361,2.9834s-1.6152,1.0771-2.7715,1.0771
			c-1.1709,0-2.1016-0.3574-2.793-1.0723C79.2917,63.6798,78.947,62.6954,78.947,61.4425z M80.5847,61.3888
			c0,0.8916,0.2061,1.5674,0.6182,2.0273c0.4111,0.46,0.9336,0.6904,1.5684,0.6904c0.6328,0,1.1533-0.2285,1.5596-0.6846
			c0.4063-0.457,0.6104-1.1416,0.6104-2.0547c0-0.9023-0.1982-1.5752-0.5938-2.0195s-0.9219-0.666-1.5762-0.666
			c-0.6563,0-1.1836,0.2246-1.585,0.6738S80.5847,60.4826,80.5847,61.3888z"/>
		<path d="M87.8415,65.3312v-7.874h1.5469l3.2227,5.2588v-5.2588h1.4766v7.874h-1.5947l-3.1748-5.1348v5.1348H87.8415z"/>
		<path d="M97.5408,65.3312v-6.542h-2.3359v-1.332h6.2578v1.332h-2.332v6.542H97.5408z"/>
		<path d="M102.488,65.3312v-7.874h5.8379v1.332h-4.248v1.7451h3.9531v1.3271h-3.9531v2.1436h4.3984v1.3262H102.488z"/>
		<path d="M109.8406,65.3312v-7.874h1.5469l3.2227,5.2588v-5.2588h1.4766v7.874h-1.5947l-3.1748-5.1348v5.1348H109.8406z"/>
		<path d="M117.7205,65.3312v-7.874h1.5898v7.874H117.7205z"/>
		<path d="M120.8201,57.4572h2.9063c0.6543,0,1.1543,0.0498,1.498,0.1504c0.4619,0.1357,0.8574,0.3779,1.1875,0.7256
			c0.3291,0.3467,0.5801,0.7725,0.752,1.2754s0.2578,1.123,0.2578,1.8613c0,0.6475-0.0811,1.2061-0.2422,1.6758
			c-0.1973,0.5723-0.4785,1.0361-0.8438,1.3906c-0.2754,0.2686-0.6475,0.4785-1.1172,0.6289
			c-0.3506,0.1104-0.8193,0.166-1.4063,0.166h-2.9922V57.4572z M122.4099,58.7892v5.2158h1.1875
			c0.4434,0,0.7637-0.0254,0.9609-0.0762c0.2578-0.0645,0.4717-0.1729,0.6416-0.3271s0.3096-0.4072,0.417-0.7598
			s0.1602-0.834,0.1602-1.4424s-0.0527-1.0762-0.1602-1.4023c-0.1074-0.3252-0.2578-0.5801-0.4512-0.7617
			c-0.1934-0.1836-0.4395-0.3066-0.7363-0.3711c-0.2217-0.0498-0.6572-0.0752-1.3047-0.0752H122.4099z"/>
		<path d="M128.447,61.4425c0-0.8018,0.1191-1.4756,0.3594-2.0195c0.1787-0.4014,0.4238-0.7607,0.7334-1.0801
			c0.3096-0.3184,0.6484-0.5547,1.0176-0.709c0.4902-0.207,1.0566-0.3105,1.6973-0.3105c1.1602,0,2.0889,0.3594,2.7852,1.0791
			s1.0439,1.7207,1.0439,3.0029c0,1.2705-0.3447,2.2656-1.0361,2.9834s-1.6152,1.0771-2.7715,1.0771
			c-1.1709,0-2.1016-0.3574-2.793-1.0723C128.7917,63.6798,128.447,62.6954,128.447,61.4425z M130.0847,61.3888
			c0,0.8916,0.2061,1.5674,0.6182,2.0273c0.4111,0.46,0.9336,0.6904,1.5684,0.6904c0.6328,0,1.1533-0.2285,1.5596-0.6846
			c0.4063-0.457,0.6104-1.1416,0.6104-2.0547c0-0.9023-0.1982-1.5752-0.5938-2.0195s-0.9219-0.666-1.5762-0.666
			c-0.6563,0-1.1836,0.2246-1.585,0.6738S130.0847,60.4826,130.0847,61.3888z"/>
	</g>
	<g id="XMLID_4117_">
		<path id="XMLID_4118_" style="fill:#FFFFFF;" d="M73.6763,7.6205V17.773c0,0.6216,0.5028,1.1249,1.125,1.1249h3.951v3.0548
			H63.6609c-0.6216,0-1.125,0.5034-1.125,1.125v4.0153h-3.951c-0.6222,0-1.125,0.5029-1.125,1.125v10.1525
			c0,0.6216,0.5028,1.125,1.125,1.125h10.1525c0.6216,0,1.1249-0.5034,1.1249-1.125V28.218c0-0.6221-0.5033-1.125-1.1249-1.125
			h-3.9605v-2.8993h13.9664v2.8993h-3.951c-0.6222,0-1.125,0.5029-1.125,1.125v10.1525c0,0.6216,0.5028,1.125,1.125,1.125h10.1519
			c0.6222,0,1.125-0.5034,1.125-1.125V28.218c0-0.6221-0.5028-1.125-1.125-1.125h-3.951v-2.8993h13.9664v2.8993h-3.9511
			c-0.6221,0-1.1249,0.5029-1.1249,1.125v10.1525c0,0.6216,0.5028,1.125,1.1249,1.125h10.1521c0.6222,0,1.125-0.5034,1.125-1.125
			V28.218c0-0.6221-0.5028-1.125-1.125-1.125h-3.951v-4.0153c0-0.6216-0.5029-1.125-1.125-1.125H80.9933v-3.0548h3.951
			c0.6222,0,1.125-0.5033,1.125-1.1249V7.6205c0-0.6222-0.5028-1.125-1.125-1.125H74.7924
			C74.1791,6.4955,73.6763,6.9983,73.6763,7.6205L73.6763,7.6205z M67.6124,37.2361h-7.9025v-7.9114h7.9025V37.2361z
			 M83.8194,37.2361h-7.9116v-7.9114h7.9116V37.2361z M100.0268,37.2361h-7.9025v-7.9114h7.9114v7.9114H100.0268z M75.9173,8.7366
			h7.9116v7.9114h-7.9116V8.7366z M75.9173,8.7366"/>
	</g>
</g>
</svg>
