<?xml version="1.0" encoding="utf-8"?>
<!-- Generator: Adobe Illustrator 21.0.2, SVG Export Plug-In . SVG Version: 6.00 Build 0)  -->
<svg version="1.1" id="Capa_1" xmlns="http://www.w3.org/2000/svg" xmlns:xlink="http://www.w3.org/1999/xlink" x="0px" y="0px"
	 viewBox="0 0 130.3966 35.3892" style="enable-background:new 0 0 130.3966 35.3892;" xml:space="preserve">
<g>
	<g id="XMLID_5172_">
		<polygon id="XMLID_5175_" style="fill:#FFFFFF;stroke:#3B86B1;stroke-width:1.7139;stroke-miterlimit:10;" points="
			114.743,0.8569 129.265,17.6946 114.743,34.5322 101.5239,34.5322 116.0459,17.6946 101.5239,0.8569 114.743,0.8569 		"/>
	</g>
	<polygon id="XMLID_5171_" style="fill:#2A4690;" points="14.522,0.8569 97.5239,0.8569 112.0459,17.6946 97.5239,34.5322 
		14.522,34.5321 0,17.6945 	"/>
	<g>
		<g>
			<path style="fill:#FFFFFF;" d="M39.3778,22.8582h-2.4697v-9.3076c-0.9023,0.8438-1.9658,1.4678-3.1904,1.8721v-2.2412
				c0.6445-0.2109,1.3447-0.6104,2.1006-1.2002c0.7559-0.5879,1.2744-1.2754,1.5557-2.0605h2.0039V22.8582z"/>
			<path style="fill:#FFFFFF;" d="M57.1581,22.8582h-2.2939v-1.3711c-0.3809,0.5332-0.8311,0.9307-1.3496,1.1914
				c-0.5186,0.2598-1.041,0.3906-1.5684,0.3906c-1.0723,0-1.9912-0.4316-2.7559-1.2969c-0.7646-0.8633-1.1465-2.0693-1.1465-3.6162
				c0-1.582,0.3721-2.7842,1.1162-3.6084c0.7441-0.8223,1.6846-1.2344,2.8213-1.2344c1.043,0,1.9453,0.4336,2.707,1.3008V9.9734
				h2.4697V22.8582z M50.5663,17.989c0,0.9961,0.1377,1.7168,0.4131,2.1621c0.3984,0.6445,0.9551,0.9668,1.6699,0.9668
				c0.5684,0,1.0518-0.2422,1.4502-0.7246c0.3984-0.4844,0.5977-1.2061,0.5977-2.167c0-1.0723-0.1934-1.8438-0.5801-2.3154
				s-0.8818-0.708-1.4854-0.708c-0.5859,0-1.0771,0.2334-1.4727,0.6982C50.7635,16.3679,50.5663,17.0632,50.5663,17.989z"/>
			<path style="fill:#FFFFFF;" d="M64.9979,19.8875l2.4609,0.4131c-0.3164,0.9023-0.8164,1.5898-1.499,2.0615
				s-1.5361,0.707-2.5615,0.707c-1.623,0-2.8242-0.5303-3.6035-1.5908c-0.6152-0.8496-0.9229-1.9219-0.9229-3.2168
				c0-1.5469,0.4043-2.7578,1.2129-3.6338s1.8311-1.3145,3.0674-1.3145c1.3887,0,2.4844,0.459,3.2871,1.375
				c0.8027,0.918,1.1865,2.3223,1.1514,4.2148h-6.1875c0.0176,0.7324,0.2168,1.3027,0.5977,1.709
				c0.3809,0.4082,0.8555,0.6113,1.4238,0.6113c0.3867,0,0.7119-0.1055,0.9756-0.3164S64.8632,20.3562,64.9979,19.8875z
				 M65.1385,17.3914c-0.0176-0.7148-0.2021-1.2578-0.5537-1.6309c-0.3516-0.3711-0.7793-0.5576-1.2832-0.5576
				c-0.5391,0-0.9844,0.1963-1.3359,0.5889s-0.5244,0.9258-0.5186,1.5996H65.1385z"/>
			<path style="fill:#FFFFFF;" d="M73.9891,19.4392l2.3906-0.29c0.0762,0.6094,0.2813,1.0752,0.6152,1.3975
				s0.7383,0.4834,1.2129,0.4834c0.5098,0,0.9385-0.1934,1.2871-0.5801s0.5234-0.9082,0.5234-1.5645
				c0-0.6211-0.167-1.1133-0.501-1.4766s-0.7412-0.5449-1.2217-0.5449c-0.3164,0-0.6943,0.0615-1.1338,0.1846l0.2725-2.0127
				c0.668,0.0176,1.1777-0.127,1.5293-0.4355c0.3516-0.3066,0.5273-0.7158,0.5273-1.2256c0-0.4336-0.1289-0.7793-0.3867-1.0371
				s-0.6006-0.3867-1.0283-0.3867c-0.4219,0-0.7822,0.1465-1.0811,0.4395s-0.4805,0.7207-0.5449,1.2832l-2.2764-0.3867
				c0.1582-0.7793,0.3965-1.4014,0.7158-1.8682c0.3193-0.4648,0.7646-0.8311,1.3359-1.0977s1.2119-0.4004,1.9209-0.4004
				c1.2129,0,2.1855,0.3867,2.918,1.1602c0.6035,0.6328,0.9053,1.3477,0.9053,2.1445c0,1.1309-0.6182,2.0332-1.8545,2.707
				c0.7383,0.1582,1.3281,0.5127,1.7705,1.0635s0.6641,1.2158,0.6641,1.9951c0,1.1309-0.4131,2.0947-1.2393,2.8916
				s-1.8545,1.1953-3.085,1.1953c-1.166,0-2.1328-0.335-2.9004-1.0068C74.5575,21.4011,74.1122,20.5232,73.9891,19.4392z"/>
		</g>
	</g>
</g>
</svg>
