<?xml version="1.0" encoding="utf-8"?>
<!-- Generator: Adobe Illustrator 21.0.2, SVG Export Plug-In . SVG Version: 6.00 Build 0)  -->
<svg version="1.1" id="Capa_1" xmlns="http://www.w3.org/2000/svg" xmlns:xlink="http://www.w3.org/1999/xlink" x="0px" y="0px"
	 viewBox="0 0 149.671 35.3892" style="enable-background:new 0 0 149.671 35.3892;" xml:space="preserve">
<g>
	<g id="XMLID_5186_">
		<polygon id="XMLID_5187_" style="fill:#FFFFFF;stroke:#3B86B1;stroke-width:1.7139;stroke-miterlimit:10;" points="
			134.0174,0.8569 148.5394,17.6946 134.0174,34.5322 120.7983,34.5322 135.3203,17.6946 120.7983,0.8569 134.0174,0.8569 		"/>
	</g>
	<polygon id="XMLID_5185_" style="fill:#2A4690;" points="33.7964,0.8569 116.7983,0.8569 131.3203,17.6946 116.7983,34.5322 
		33.7964,34.5321 19.2744,17.6945 	"/>
	<g>
		<g>
			<path style="fill:#FFFFFF;" d="M60.6745,20.5627v2.2939h-8.6572c0.0938-0.8672,0.375-1.6885,0.8438-2.4648
				s1.3945-1.8066,2.7773-3.0898c1.1133-1.0371,1.7959-1.7402,2.0479-2.1094c0.3398-0.5098,0.5098-1.0137,0.5098-1.5117
				c0-0.5508-0.1475-0.9736-0.4434-1.2695s-0.7051-0.4443-1.2266-0.4443c-0.5156,0-0.9258,0.1553-1.2305,0.4658
				s-0.4805,0.8262-0.5273,1.5469l-2.4609-0.2461c0.1465-1.3594,0.6064-2.335,1.3799-2.9268s1.7402-0.8877,2.9004-0.8877
				c1.2715,0,2.2705,0.3428,2.9971,1.0283s1.0898,1.5381,1.0898,2.5576c0,0.5801-0.1035,1.1328-0.3115,1.6563
				c-0.208,0.5254-0.5381,1.0742-0.9893,1.6484c-0.2988,0.3809-0.8379,0.9287-1.6172,1.6436s-1.2725,1.1895-1.4805,1.4238
				s-0.377,0.4629-0.5059,0.6855H60.6745z"/>
			<path style="fill:#FFFFFF;" d="M76.4333,22.8567h-2.2939v-1.3711c-0.3809,0.5332-0.8301,0.9307-1.3486,1.1914
				c-0.5186,0.2598-1.042,0.3906-1.5693,0.3906c-1.0723,0-1.9902-0.4316-2.7549-1.2969c-0.7646-0.8633-1.1475-2.0693-1.1475-3.6162
				c0-1.582,0.3721-2.7842,1.1162-3.6084c0.7441-0.8223,1.6846-1.2344,2.8213-1.2344c1.043,0,1.9453,0.4336,2.707,1.3008V9.9719
				h2.4697V22.8567z M69.8415,17.9875c0,0.9961,0.1377,1.7168,0.4131,2.1621c0.3984,0.6445,0.9551,0.9668,1.6699,0.9668
				c0.5684,0,1.0518-0.2422,1.4502-0.7246c0.3984-0.4844,0.5977-1.2061,0.5977-2.167c0-1.0723-0.1934-1.8438-0.5801-2.3154
				s-0.8818-0.708-1.4854-0.708c-0.5859,0-1.0762,0.2334-1.4717,0.6982C70.0397,16.3664,69.8415,17.0618,69.8415,17.9875z"/>
			<path style="fill:#FFFFFF;" d="M84.2731,19.886l2.4609,0.4131c-0.3164,0.9023-0.8154,1.5898-1.498,2.0615
				s-1.5371,0.707-2.5625,0.707c-1.623,0-2.8242-0.5303-3.6035-1.5908c-0.6152-0.8496-0.9229-1.9219-0.9229-3.2168
				c0-1.5469,0.4043-2.7578,1.2129-3.6338s1.8311-1.3145,3.0674-1.3145c1.3887,0,2.4844,0.459,3.2871,1.375
				c0.8027,0.918,1.1865,2.3223,1.1514,4.2148h-6.1875c0.0176,0.7324,0.2168,1.3027,0.5977,1.709
				c0.3809,0.4082,0.8555,0.6113,1.4238,0.6113c0.3867,0,0.7119-0.1055,0.9756-0.3164S84.1384,20.3547,84.2731,19.886z
				 M84.4137,17.3899c-0.0176-0.7148-0.2021-1.2578-0.5537-1.6309c-0.3516-0.3711-0.7793-0.5576-1.2832-0.5576
				c-0.5391,0-0.9844,0.1963-1.3359,0.5889s-0.5244,0.9258-0.5186,1.5996H84.4137z"/>
			<path style="fill:#FFFFFF;" d="M93.2643,19.4377l2.3906-0.29c0.0762,0.6094,0.2813,1.0752,0.6152,1.3975
				s0.7383,0.4834,1.2129,0.4834c0.5098,0,0.9395-0.1934,1.2881-0.5801s0.5225-0.9082,0.5225-1.5645
				c0-0.6211-0.167-1.1133-0.501-1.4766s-0.7412-0.5449-1.2217-0.5449c-0.3164,0-0.6943,0.0615-1.1338,0.1846l0.2725-2.0127
				c0.668,0.0176,1.1777-0.127,1.5293-0.4355c0.3516-0.3066,0.5273-0.7158,0.5273-1.2256c0-0.4336-0.1289-0.7793-0.3867-1.0371
				s-0.6006-0.3867-1.0283-0.3867c-0.4219,0-0.7822,0.1465-1.0811,0.4395s-0.4805,0.7207-0.5449,1.2832l-2.2764-0.3867
				c0.1582-0.7793,0.3975-1.4014,0.7168-1.8682c0.3193-0.4648,0.7646-0.8311,1.3359-1.0977s1.2109-0.4004,1.9199-0.4004
				c1.2129,0,2.1855,0.3867,2.918,1.1602c0.6035,0.6328,0.9053,1.3477,0.9053,2.1445c0,1.1309-0.6182,2.0332-1.8545,2.707
				c0.7383,0.1582,1.3291,0.5127,1.7715,1.0635s0.6631,1.2158,0.6631,1.9951c0,1.1309-0.4131,2.0947-1.2393,2.8916
				s-1.8545,1.1953-3.085,1.1953c-1.166,0-2.1328-0.335-2.9004-1.0068C93.8327,21.3997,93.3874,20.5217,93.2643,19.4377z"/>
		</g>
	</g>
	<g id="XMLID_5168_">
		<polygon id="XMLID_5179_" style="fill:#FFFFFF;stroke:#3B86B1;stroke-width:1.7139;stroke-miterlimit:10;" points="
			15.6536,34.5322 1.1316,17.6946 15.6536,0.8569 28.8727,0.8569 14.3508,17.6946 28.8727,34.5322 15.6536,34.5322 		"/>
	</g>
</g>
</svg>
