<?xml version="1.0" encoding="utf-8"?>
<!-- Generator: Adobe Illustrator 21.0.2, SVG Export Plug-In . SVG Version: 6.00 Build 0)  -->
<svg version="1.1" id="Capa_1" xmlns="http://www.w3.org/2000/svg" xmlns:xlink="http://www.w3.org/1999/xlink" x="0px" y="0px"
	 viewBox="0 0 130.3376 35.3892" style="enable-background:new 0 0 130.3376 35.3892;" xml:space="preserve">
<g>
	<g id="XMLID_5181_">
		<polygon id="XMLID_5184_" style="fill:#FFFFFF;stroke:#3B86B1;stroke-width:1.7139;stroke-miterlimit:10;" points="
			15.6536,34.5322 1.1316,17.6946 15.6536,0.8569 28.8727,0.8569 14.3508,17.6946 28.8727,34.5322 15.6536,34.5322 		"/>
	</g>
	<polygon id="XMLID_5179_" style="fill:#2A4690;" points="115.8157,34.5323 32.8137,34.5322 18.2918,17.6946 32.8137,0.8569 
		115.8157,0.857 130.3376,17.6947 	"/>
	<g>
		<g>
			<path style="fill:#FFFFFF;" d="M53.4724,20.5611v2.2939h-8.6572c0.0938-0.8672,0.375-1.6885,0.8438-2.4648
				s1.3945-1.8066,2.7773-3.0898c1.1133-1.0371,1.7959-1.7402,2.0479-2.1094c0.3398-0.5098,0.5098-1.0137,0.5098-1.5117
				c0-0.5508-0.1479-0.9736-0.4438-1.2695s-0.7046-0.4443-1.2261-0.4443c-0.5156,0-0.9258,0.1553-1.2305,0.4658
				s-0.4805,0.8262-0.5273,1.5469l-2.4609-0.2461c0.1465-1.3594,0.6064-2.335,1.3799-2.9268s1.7402-0.8877,2.9004-0.8877
				c1.2715,0,2.2705,0.3428,2.9971,1.0283s1.0898,1.5381,1.0898,2.5576c0,0.5801-0.104,1.1328-0.312,1.6563
				c-0.208,0.5254-0.5376,1.0742-0.9888,1.6484c-0.2988,0.3809-0.8379,0.9287-1.6172,1.6436s-1.2729,1.1895-1.481,1.4238
				s-0.3765,0.4629-0.5054,0.6855H53.4724z"/>
			<path style="fill:#FFFFFF;" d="M69.2312,22.8551h-2.2939V21.484c-0.3809,0.5332-0.8306,0.9307-1.3491,1.1914
				c-0.5186,0.2598-1.0415,0.3906-1.5688,0.3906c-1.0723,0-1.9907-0.4316-2.7554-1.2969c-0.7646-0.8633-1.147-2.0693-1.147-3.6162
				c0-1.582,0.3721-2.7842,1.1162-3.6084c0.7441-0.8223,1.6846-1.2344,2.8213-1.2344c1.043,0,1.9453,0.4336,2.707,1.3008V9.9703
				h2.4697V22.8551z M62.6394,17.9859c0,0.9961,0.1377,1.7168,0.4131,2.1621c0.3984,0.6445,0.9551,0.9668,1.6699,0.9668
				c0.5684,0,1.0518-0.2422,1.4502-0.7246c0.3984-0.4844,0.5977-1.2061,0.5977-2.167c0-1.0723-0.1934-1.8438-0.5801-2.3154
				c-0.3867-0.4717-0.8818-0.708-1.4854-0.708c-0.5859,0-1.0767,0.2334-1.4722,0.6982
				C62.8371,16.3648,62.6394,17.0601,62.6394,17.9859z"/>
			<path style="fill:#FFFFFF;" d="M77.071,19.8844l2.4609,0.4131c-0.3164,0.9023-0.8159,1.5898-1.4985,2.0615
				s-1.5366,0.707-2.562,0.707c-1.623,0-2.8242-0.5303-3.6035-1.5908c-0.6152-0.8496-0.9229-1.9219-0.9229-3.2168
				c0-1.5469,0.4043-2.7578,1.2129-3.6338s1.8311-1.3145,3.0674-1.3145c1.3887,0,2.4844,0.459,3.2871,1.375
				c0.8027,0.918,1.1865,2.3223,1.1514,4.2148h-6.1875c0.0176,0.7324,0.2168,1.3027,0.5977,1.709
				c0.3809,0.4082,0.8555,0.6113,1.4238,0.6113c0.3867,0,0.7119-0.1055,0.9756-0.3164S76.9362,20.3531,77.071,19.8844z
				 M77.2116,17.3883c-0.0176-0.7148-0.2021-1.2578-0.5537-1.6309c-0.3516-0.3711-0.7793-0.5576-1.2832-0.5576
				c-0.5391,0-0.9844,0.1963-1.3359,0.5889c-0.3516,0.3926-0.5244,0.9258-0.5186,1.5996H77.2116z"/>
			<path style="fill:#FFFFFF;" d="M94.4909,20.5611v2.2939h-8.6572c0.0938-0.8672,0.375-1.6885,0.8438-2.4648
				s1.3945-1.8066,2.7773-3.0898c1.1133-1.0371,1.7959-1.7402,2.0479-2.1094c0.3398-0.5098,0.5098-1.0137,0.5098-1.5117
				c0-0.5508-0.1479-0.9736-0.4438-1.2695s-0.7046-0.4443-1.2261-0.4443c-0.5156,0-0.9258,0.1553-1.2305,0.4658
				s-0.4805,0.8262-0.5273,1.5469l-2.4609-0.2461c0.1465-1.3594,0.6064-2.335,1.3799-2.9268s1.7402-0.8877,2.9004-0.8877
				c1.2715,0,2.2705,0.3428,2.9971,1.0283s1.0898,1.5381,1.0898,2.5576c0,0.5801-0.104,1.1328-0.312,1.6563
				c-0.208,0.5254-0.5376,1.0742-0.9888,1.6484c-0.2988,0.3809-0.8379,0.9287-1.6172,1.6436s-1.2729,1.1895-1.481,1.4238
				s-0.3765,0.4629-0.5054,0.6855H94.4909z"/>
		</g>
	</g>
</g>
</svg>
