<?xml version="1.0" encoding="utf-8"?>
<!-- Generator: Adobe Illustrator 21.0.2, SVG Export Plug-In . SVG Version: 6.00 Build 0)  -->
<svg version="1.1" id="Capa_1" xmlns="http://www.w3.org/2000/svg" xmlns:xlink="http://www.w3.org/1999/xlink" x="0px" y="0px"
	 viewBox="0 0 108.8324 36.9451" style="enable-background:new 0 0 108.8324 36.9451;" xml:space="preserve">
<g>
	<g>
		<g>
			<path d="M47.4261,23.586V12.1329h3.7109c1.4063,0,2.3232,0.0576,2.75,0.1719c0.6563,0.1719,1.2061,0.5459,1.6484,1.1211
				s0.6641,1.3193,0.6641,2.2305c0,0.7031-0.1279,1.2939-0.3828,1.7734s-0.5791,0.8555-0.9727,1.1289s-0.793,0.4541-1.1992,0.543
				c-0.5518,0.1094-1.3516,0.1641-2.3984,0.1641h-1.5078v4.3203H47.4261z M49.7386,14.0704v3.25h1.2656
				c0.9111,0,1.5205-0.0596,1.8281-0.1797s0.5479-0.3076,0.7227-0.5625s0.2617-0.5518,0.2617-0.8906
				c0-0.417-0.1221-0.7607-0.3672-1.0313s-0.5547-0.4404-0.9297-0.5078c-0.2764-0.0518-0.8311-0.0781-1.6641-0.0781H49.7386z"/>
			<path d="M60.184,23.586h-2.1953v-8.2969h2.0391v1.1797c0.3486-0.5576,0.6631-0.9248,0.9414-1.1016s0.5947-0.2656,0.9492-0.2656
				c0.5,0,0.9814,0.1377,1.4453,0.4141l-0.6797,1.9141c-0.3701-0.2393-0.7139-0.3594-1.0313-0.3594
				c-0.3076,0-0.5674,0.085-0.7813,0.2539s-0.3818,0.4756-0.5039,0.918s-0.1836,1.3701-0.1836,2.7813V23.586z"/>
			<path d="M63.8011,19.3204c0-0.7295,0.1797-1.4346,0.5391-2.1172s0.8682-1.2031,1.5273-1.5625
				c0.6592-0.3594,1.3945-0.5391,2.207-0.5391c1.2549,0,2.2842,0.4072,3.0859,1.2227c0.8018,0.8154,1.2031,1.8447,1.2031,3.0898
				c0,1.2549-0.4053,2.2959-1.2148,3.1211s-1.8291,1.2383-3.0586,1.2383c-0.7607,0-1.4854-0.1719-2.1758-0.5156
				s-1.2148-0.8477-1.5742-1.5117S63.8011,20.2735,63.8011,19.3204z M66.0511,19.4376c0,0.8232,0.1953,1.4531,0.5859,1.8906
				s0.8721,0.6563,1.4453,0.6563s1.0537-0.2188,1.4414-0.6563s0.582-1.0732,0.582-1.9063c0-0.8125-0.1943-1.4375-0.582-1.875
				s-0.8682-0.6563-1.4414-0.6563s-1.0547,0.2188-1.4453,0.6563S66.0511,18.6143,66.0511,19.4376z"/>
			<path d="M81.3168,17.7423l-2.1641,0.3906c-0.0732-0.4326-0.2383-0.7578-0.4961-0.9766s-0.5928-0.3281-1.0039-0.3281
				c-0.5469,0-0.9834,0.1885-1.3086,0.5664s-0.4883,1.0088-0.4883,1.8945c0,0.9844,0.165,1.6797,0.4961,2.0859
				s0.7744,0.6094,1.332,0.6094c0.417,0,0.7578-0.1182,1.0234-0.3555s0.4531-0.6445,0.5625-1.2227l2.1563,0.3672
				c-0.2236,0.9893-0.6533,1.7373-1.2891,2.2422s-1.4873,0.7578-2.5547,0.7578c-1.2139,0-2.1807-0.3828-2.9023-1.1484
				s-1.082-1.8252-1.082-3.1797c0-1.3701,0.3623-2.4365,1.0859-3.1992c0.7236-0.7627,1.7031-1.1445,2.9375-1.1445
				c1.0107,0,1.8135,0.2178,2.4102,0.6523C80.6283,16.1885,81.056,16.8516,81.3168,17.7423z"/>
			<path d="M87.7855,20.9454l2.1875,0.3672c-0.2813,0.8018-0.7256,1.4131-1.332,1.832s-1.3662,0.6289-2.2773,0.6289
				c-1.4424,0-2.5107-0.4717-3.2031-1.4141c-0.5469-0.7549-0.8203-1.708-0.8203-2.8594c0-1.375,0.3594-2.4521,1.0781-3.2305
				c0.7188-0.7783,1.6279-1.168,2.7266-1.168c1.2344,0,2.208,0.4072,2.9219,1.2227c0.7139,0.8154,1.0547,2.0635,1.0234,3.7461h-5.5
				c0.0156,0.6514,0.1924,1.1572,0.5313,1.5195s0.7607,0.543,1.2656,0.543c0.3438,0,0.6328-0.0938,0.8672-0.2813
				S87.6654,21.3624,87.7855,20.9454z M87.9105,18.7266c-0.0156-0.6357-0.1797-1.1182-0.4922-1.4492s-0.6924-0.4961-1.1406-0.4961
				c-0.4795,0-0.875,0.1748-1.1875,0.5234s-0.4658,0.8232-0.4609,1.4219H87.9105z"/>
			<path d="M91.1058,21.2188l2.2031-0.3359c0.0938,0.4268,0.2842,0.751,0.5703,0.9727s0.6875,0.332,1.2031,0.332
				c0.5674,0,0.9951-0.1045,1.2813-0.3125c0.1924-0.1455,0.2891-0.3408,0.2891-0.5859c0-0.167-0.0518-0.3047-0.1563-0.4141
				c-0.1094-0.1045-0.3545-0.2002-0.7344-0.2891c-1.7705-0.3906-2.8936-0.7471-3.3672-1.0703
				c-0.6563-0.4482-0.9844-1.0703-0.9844-1.8672c0-0.7188,0.2842-1.3232,0.8516-1.8125c0.5674-0.4893,1.4482-0.7344,2.6406-0.7344
				c1.1357,0,1.9795,0.1846,2.5313,0.5547c0.5518,0.3701,0.9326,0.917,1.1406,1.6406l-2.0703,0.3828
				c-0.0889-0.3232-0.2568-0.5703-0.5039-0.7422s-0.6006-0.2578-1.0586-0.2578c-0.5781,0-0.9922,0.0811-1.2422,0.2422
				c-0.167,0.1143-0.25,0.2627-0.25,0.4453c0,0.1563,0.0732,0.2891,0.2188,0.3984c0.1982,0.1455,0.8818,0.3516,2.0508,0.6172
				s1.9854,0.5908,2.4492,0.9766c0.458,0.3906,0.6875,0.9346,0.6875,1.6328c0,0.7607-0.3174,1.4141-0.9531,1.9609
				s-1.5752,0.8203-2.8203,0.8203c-1.1299,0-2.0244-0.2295-2.6836-0.6875S91.309,22.005,91.1058,21.2188z"/>
			<path d="M100.2699,19.3204c0-0.7295,0.1797-1.4346,0.5391-2.1172s0.8682-1.2031,1.5273-1.5625
				c0.6592-0.3594,1.3945-0.5391,2.207-0.5391c1.2549,0,2.2842,0.4072,3.0859,1.2227c0.8018,0.8154,1.2031,1.8447,1.2031,3.0898
				c0,1.2549-0.4053,2.2959-1.2148,3.1211s-1.8291,1.2383-3.0586,1.2383c-0.7607,0-1.4854-0.1719-2.1758-0.5156
				s-1.2148-0.8477-1.5742-1.5117S100.2699,20.2735,100.2699,19.3204z M102.5199,19.4376c0,0.8232,0.1953,1.4531,0.5859,1.8906
				s0.8721,0.6563,1.4453,0.6563s1.0537-0.2188,1.4414-0.6563s0.582-1.0732,0.582-1.9063c0-0.8125-0.1943-1.4375-0.582-1.875
				s-0.8682-0.6563-1.4414-0.6563s-1.0547,0.2188-1.4453,0.6563S102.5199,18.6143,102.5199,19.4376z"/>
		</g>
		<circle style="fill:#F9CA35;" cx="18.4725" cy="18.4725" r="18.4725"/>
	</g>
	<g id="XMLID_5275_">
		<path id="XMLID_5276_" style="fill-rule:evenodd;clip-rule:evenodd;" d="M29.409,15.8647l-2.3531-0.5525
			c-0.145-0.2784-0.145-0.6948-0.4173-0.9705l1.3842-1.936c0.4155-0.693,0.2759-1.3851-0.1361-1.9385l-1.5274-1.5247
			c-0.2723-0.2759-0.6896-0.4138-1.1032-0.4138c-0.2757,0-0.5551,0.1379-0.831,0.2768l-1.934,1.2446
			c-0.4225-0.1398-0.693-0.2759-0.9723-0.4164l-0.5534-2.2117c-0.1396-0.831-0.6912-1.2481-1.5203-1.2481h-2.0774
			c-0.693,0-1.2535,0.4171-1.3931,1.2481l-0.5464,2.2117c-0.2775,0.1405-0.693,0.2766-0.9671,0.4164L12.52,8.8053
			c-0.2759-0.1389-0.5516-0.2768-0.831-0.2768c-0.4173,0-0.8291,0.1379-1.1085,0.4138l-1.5205,1.5247
			c-0.4137,0.5534-0.5516,1.2455-0.1377,1.9385l1.3824,1.936c-0.2757,0.2757-0.4155,0.6921-0.4155,0.9705l-2.3495,0.5525
			c-0.6984,0.1387-1.2482,0.693-1.2482,1.3833v2.0774c0,0.83,0.5498,1.3878,1.2482,1.5231l2.3495,0.5534
			c0,0.2784,0.1398,0.5541,0.4155,0.9687l-1.3824,1.9376c-0.4139,0.5543-0.2759,1.3862,0.1377,1.9387l1.5205,1.3833
			c0.2793,0.4164,0.6912,0.5569,1.1085,0.5569c0.2793,0,0.5551-0.1405,0.831-0.2757l1.9411-1.3887
			c0.2741,0.1396,0.6896,0.2793,0.9671,0.4155l0.5464,2.354c0.1396,0.693,0.7001,1.2446,1.3931,1.2446h2.0774
			c0.8291,0,1.3808-0.5516,1.5203-1.2446l0.5534-2.354c0.2793-0.1361,0.5498-0.2759,0.9723-0.4155l1.934,1.3887
			c0.2759,0.1352,0.5552,0.2757,0.831,0.2757c0.4137,0,0.831-0.1405,1.1032-0.5569l1.5274-1.3833
			c0.412-0.5525,0.5516-1.3844,0.1361-1.9387l-1.3842-1.9376c0.2723-0.4146,0.2723-0.6903,0.4173-1.1058l2.3531-0.4164
			c0.6912-0.1352,1.2446-0.693,1.2446-1.5231v-2.0774C30.6536,16.5577,30.1002,16.0033,29.409,15.8647L29.409,15.8647z
			 M20.686,19.1892c-0.4119,0.9662-1.241,1.524-2.217,1.524c-0.6912,0-1.241-0.2811-1.6548-0.6983
			c-0.1396-0.1352-0.2775-0.2759-0.2775-0.2759c-0.2812-0.4137-0.4226-0.9671-0.4226-1.3817c0-1.3842,0.976-2.354,2.3549-2.354
			c0.6948,0,1.3897,0.2768,1.8051,0.6932c0.4119,0.4119,0.5516,0.9696,0.5516,1.6608
			C20.8257,18.6332,20.8257,18.9108,20.686,19.1892L20.686,19.1892z M18.469,23.6188c2.9065,0,5.1235-2.217,5.2631-4.9855
			c0-0.137,0-0.137,0-0.2759c0-1.3842-0.4119-2.4927-1.241-3.4625c-0.9723-1.1058-2.3567-1.9367-4.0221-1.9367
			c-2.9047,0-5.394,2.4929-5.394,5.3992c0,0.968,0.4102,1.9385,0.8273,2.7669c0.1379,0.1405,0.1379,0.2775,0.2793,0.4155
			C15.1506,22.7878,16.6746,23.6188,18.469,23.6188L18.469,23.6188z M29.1279,17.6661v-0.4182v2.0774V17.6661z"/>
	</g>
</g>
</svg>
