<?xml version="1.0" encoding="utf-8"?>
<!-- Generator: Adobe Illustrator 21.0.2, SVG Export Plug-In . SVG Version: 6.00 Build 0)  -->
<svg version="1.1" id="Capa_1" xmlns="http://www.w3.org/2000/svg" xmlns:xlink="http://www.w3.org/1999/xlink" x="0px" y="0px"
	 viewBox="0 0 546.1973 31.6758" style="enable-background:new 0 0 546.1973 31.6758;" xml:space="preserve">
<g>
	<path style="fill:#C9452F;" d="M11.8359,20.9397c-0.2784,0.7329-0.6605,1.3742-1.1464,1.9239
		c-0.4859,0.5497-1.0553,0.982-1.7082,1.2969c-0.6529,0.3149-1.3488,0.4724-2.0878,0.4724H0V0h6.8935
		c0.739,0,1.4349,0.1575,2.0878,0.4724c0.6529,0.3149,1.2223,0.7472,1.7082,1.2969c0.4859,0.5497,0.868,1.1939,1.1464,1.9325
		s0.4176,1.526,0.4176,2.3619v12.5226C12.2535,19.4223,12.1143,20.2068,11.8359,20.9397z M10.2947,6.0637
		c0-0.5497-0.0911-1.0622-0.2733-1.5374c-0.1822-0.4753-0.4327-0.8932-0.7516-1.254C8.951,2.9116,8.5815,2.6282,8.1614,2.4221
		s-0.8731-0.3092-1.359-0.3092H1.9587V22.52h4.8437c0.4859,0,0.9389-0.1031,1.359-0.3092s0.7896-0.4867,1.1084-0.8417
		c0.3189-0.355,0.5694-0.7701,0.7516-1.2454c0.1822-0.4753,0.2733-0.9877,0.2733-1.5374V6.0637z"/>
	<path style="fill:#C9452F;" d="M26.3214,21.8158c-0.2379,0.6299-0.5643,1.1795-0.9794,1.6491
		c-0.415,0.4695-0.9009,0.8388-1.4577,1.108c-0.5567,0.2691-1.1489,0.4037-1.7765,0.4037h-1.2451
		c-0.6276,0-1.2198-0.1346-1.7765-0.4037c-0.5567-0.2691-1.0426-0.6384-1.4577-1.108c-0.415-0.4695-0.7415-1.0192-0.9794-1.6491
		s-0.3568-1.2998-0.3568-2.0098v-7.9361c0-0.71,0.1189-1.3799,0.3568-2.0098c0.2379-0.6299,0.5643-1.1795,0.9794-1.6491
		c0.415-0.4695,0.9009-0.8388,1.4577-1.108s1.1489-0.4037,1.7765-0.4037h1.2451c0.6276,0,1.2198,0.1346,1.7765,0.4037
		s1.0426,0.6384,1.4577,1.108c0.415,0.4695,0.7415,1.0192,0.9794,1.6491c0.2379,0.6299,0.3568,1.2998,0.3568,2.0098v4.1398H18.16
		v3.9165c0,0.4237,0.0709,0.8217,0.2126,1.1939c0.1417,0.3722,0.334,0.6957,0.577,0.9705c0.2429,0.2748,0.5289,0.4924,0.8579,0.6528
		c0.329,0.1603,0.6807,0.2405,1.0553,0.2405h1.2451c0.3745,0,0.7263-0.0802,1.0553-0.2405c0.329-0.1603,0.615-0.3779,0.8579-0.6528
		c0.2429-0.2748,0.4353-0.5984,0.577-0.9705c0.1417-0.3722,0.2126-0.7701,0.2126-1.1939v-1.1681l1.8676,0.3436v0.7043
		C26.6782,20.516,26.5593,21.1859,26.3214,21.8158z M24.8106,11.7496c0-0.4237-0.0709-0.8217-0.2126-1.1939
		c-0.1417-0.3722-0.334-0.6957-0.577-0.9705c-0.2429-0.2748-0.5289-0.4924-0.8579-0.6528c-0.329-0.1603-0.6807-0.2405-1.0553-0.2405
		h-1.2451c-0.3745,0-0.7263,0.0802-1.0553,0.2405c-0.329,0.1603-0.615,0.3779-0.8579,0.6528s-0.4353,0.5984-0.577,0.9705
		c-0.1417,0.3722-0.2126,0.7701-0.2126,1.1939v2.611h6.6506V11.7496z"/>
	<path style="fill:#C9452F;" d="M35.7583,2.0098c-0.3138,0-0.6048,0.0658-0.8731,0.1975c-0.2682,0.1317-0.5036,0.3121-0.7061,0.5411
		c-0.2024,0.229-0.3619,0.4982-0.4783,0.8074s-0.1746,0.6413-0.1746,0.9963v2.4908h3.629v2.0098h-3.629v15.5802h-1.8676V9.0527
		h-2.809V7.0429h2.809V4.6552c0-0.6413,0.1063-1.2454,0.3189-1.8123s0.5061-1.0622,0.8807-1.4859s0.8098-0.7558,1.3058-0.9963
		S35.1914,0,35.7583,0h1.7158v2.0098H35.7583z"/>
	<path style="fill:#C9452F;" d="M39.8124,2.8172V0h2.1713v2.8172H39.8124z M39.9642,24.6329v-17.59h1.8676v17.59H39.9642z"/>
	<path style="fill:#C9452F;" d="M54.7078,24.6329V11.7496c0-0.4237-0.0709-0.8217-0.2126-1.1939
		c-0.1417-0.3722-0.334-0.6957-0.577-0.9705s-0.5289-0.4924-0.8579-0.6528c-0.329-0.1603-0.6807-0.2405-1.0553-0.2405H50.76
		c-0.3745,0-0.7263,0.0802-1.0553,0.2405c-0.329,0.1603-0.615,0.3779-0.8579,0.6528s-0.4353,0.5984-0.577,0.9705
		s-0.2126,0.7701-0.2126,1.1939v12.8833h-1.8676v-17.59h0.6225l1.0173,1.7865c0.4252-0.6528,0.9591-1.171,1.6019-1.5546
		c0.6428-0.3836,1.3438-0.5755,2.103-0.5755h0.4707c0.6276,0,1.2198,0.1346,1.7765,0.4037c0.5567,0.2691,1.0426,0.6384,1.4577,1.108
		c0.415,0.4695,0.7415,1.0192,0.9794,1.6491c0.2379,0.6299,0.3568,1.2998,0.3568,2.0098v12.7631H54.7078z"/>
	<path style="fill:#C9452F;" d="M60.7814,2.8172V0h2.1713v2.8172H60.7814z M60.9333,24.6329v-17.59h1.8676v17.59H60.9333z"/>
	<path style="fill:#C9452F;" d="M77.1877,21.8158c-0.2379,0.6299-0.5643,1.1795-0.9794,1.6491
		c-0.415,0.4695-0.9009,0.8388-1.4577,1.108c-0.5567,0.2691-1.1489,0.4037-1.7765,0.4037h-1.2451
		c-0.6276,0-1.2198-0.1346-1.7765-0.4037c-0.5567-0.2691-1.0426-0.6384-1.4577-1.108c-0.415-0.4695-0.7415-1.0192-0.9794-1.6491
		c-0.2379-0.6299-0.3568-1.2998-0.3568-2.0098v-7.9361c0-0.71,0.1189-1.3799,0.3568-2.0098
		c0.2379-0.6299,0.5643-1.1795,0.9794-1.6491c0.415-0.4695,0.9009-0.8388,1.4577-1.108c0.5567-0.2691,1.1489-0.4037,1.7765-0.4037
		h1.2451c0.6276,0,1.2198,0.1346,1.7765,0.4037s1.0426,0.6384,1.4577,1.108c0.415,0.4695,0.7415,1.0192,0.9794,1.6491
		c0.2379,0.6299,0.3568,1.2998,0.3568,2.0098v0.7043l-1.8676,0.3436v-1.1681c0-0.4237-0.0709-0.8217-0.2126-1.1939
		s-0.334-0.6957-0.577-0.9705c-0.2429-0.2748-0.5289-0.4924-0.8579-0.6528c-0.329-0.1603-0.6807-0.2405-1.0553-0.2405h-1.2451
		c-0.3745,0-0.7263,0.0802-1.0553,0.2405c-0.329,0.1603-0.615,0.3779-0.8579,0.6528s-0.4353,0.5984-0.577,0.9705
		c-0.1417,0.3722-0.2126,0.7701-0.2126,1.1939v8.1766c0,0.4237,0.0709,0.8217,0.2126,1.1939
		c0.1417,0.3722,0.334,0.6957,0.577,0.9705c0.2429,0.2748,0.5289,0.4924,0.8579,0.6528s0.6807,0.2405,1.0553,0.2405h1.2451
		c0.3745,0,0.7263-0.0802,1.0553-0.2405c0.329-0.1603,0.6149-0.3779,0.8579-0.6528c0.243-0.2748,0.4353-0.5984,0.577-0.9705
		s0.2126-0.7701,0.2126-1.1939v-1.1681l1.8676,0.3436v0.7043C77.5445,20.516,77.4256,21.1859,77.1877,21.8158z"/>
	<path style="fill:#C9452F;" d="M81.7505,2.8172V0h2.1713v2.8172H81.7505z M81.9023,24.6329v-17.59H83.77v17.59H81.9023z"/>
	<path style="fill:#C9452F;" d="M98.1568,21.8158c-0.2379,0.6299-0.5643,1.1795-0.9794,1.6491
		c-0.415,0.4695-0.9009,0.8388-1.4577,1.108c-0.5567,0.2691-1.1489,0.4037-1.7765,0.4037h-1.2451
		c-0.6276,0-1.2198-0.1346-1.7765-0.4037c-0.5567-0.2691-1.0426-0.6384-1.4577-1.108c-0.415-0.4695-0.7415-1.0192-0.9794-1.6491
		c-0.2379-0.6299-0.3568-1.2998-0.3568-2.0098v-7.9361c0-0.71,0.1189-1.3799,0.3568-2.0098
		c0.2379-0.6299,0.5643-1.1795,0.9794-1.6491c0.415-0.4695,0.9009-0.8388,1.4577-1.108c0.5567-0.2691,1.1489-0.4037,1.7765-0.4037
		h1.2451c0.6276,0,1.2198,0.1346,1.7765,0.4037c0.5567,0.2691,1.0426,0.6384,1.4577,1.108c0.415,0.4695,0.7415,1.0192,0.9794,1.6491
		c0.2379,0.6299,0.3568,1.2998,0.3568,2.0098v7.9361C98.5136,20.516,98.3947,21.1859,98.1568,21.8158z M96.646,11.7496
		c0-0.4237-0.0709-0.8217-0.2126-1.1939s-0.334-0.6957-0.577-0.9705c-0.2429-0.2748-0.5289-0.4924-0.8579-0.6528
		c-0.329-0.1603-0.6807-0.2405-1.0553-0.2405h-1.2451c-0.3745,0-0.7263,0.0802-1.0553,0.2405
		c-0.329,0.1603-0.615,0.3779-0.8579,0.6528s-0.4353,0.5984-0.577,0.9705c-0.1417,0.3722-0.2126,0.7701-0.2126,1.1939v8.1766
		c0,0.4237,0.0709,0.8217,0.2126,1.1939c0.1417,0.3722,0.334,0.6957,0.577,0.9705c0.2429,0.2748,0.5289,0.4924,0.8579,0.6528
		s0.6807,0.2405,1.0553,0.2405h1.2451c0.3745,0,0.7263-0.0802,1.0553-0.2405c0.329-0.1603,0.6149-0.3779,0.8579-0.6528
		c0.243-0.2748,0.4353-0.5984,0.577-0.9705s0.2126-0.7701,0.2126-1.1939V11.7496z M92.5463,4.2257h-1.3969L93.6244,0h3.1127
		L92.5463,4.2257z"/>
	<path style="fill:#C9452F;" d="M110.7671,24.6329V11.7496c0-0.4237-0.0709-0.8217-0.2126-1.1939
		c-0.1417-0.3722-0.3341-0.6957-0.577-0.9705s-0.5289-0.4924-0.8579-0.6528c-0.329-0.1603-0.6807-0.2405-1.0553-0.2405h-1.2451
		c-0.3745,0-0.7263,0.0802-1.0553,0.2405c-0.329,0.1603-0.615,0.3779-0.8579,0.6528s-0.4353,0.5984-0.577,0.9705
		s-0.2126,0.7701-0.2126,1.1939v12.8833h-1.8676v-17.59h0.6225l1.0173,1.7865c0.4251-0.6528,0.9591-1.171,1.6019-1.5546
		c0.6428-0.3836,1.3438-0.5755,2.103-0.5755h0.4707c0.6276,0,1.2198,0.1346,1.7765,0.4037c0.5567,0.2691,1.0426,0.6384,1.4577,1.108
		c0.415,0.4695,0.7415,1.0192,0.9794,1.6491c0.2379,0.6299,0.3568,1.2998,0.3568,2.0098v12.7631H110.7671z"/>
	<path style="fill:#C9452F;" d="M133.2849,24.6329l-1.0325-1.7865c-0.4252,0.6528-0.9566,1.1709-1.5943,1.5546
		s-1.3362,0.5755-2.0954,0.5755h-0.4707c-0.6276,0-1.2198-0.1346-1.7765-0.4037c-0.5567-0.2691-1.0426-0.6384-1.4577-1.108
		c-0.415-0.4695-0.7415-1.0192-0.9794-1.6491c-0.2379-0.6299-0.3568-1.2998-0.3568-2.0098v-7.9361
		c0-0.71,0.1189-1.3799,0.3568-2.0098c0.2379-0.6299,0.5643-1.1795,0.9794-1.6491c0.415-0.4695,0.9009-0.8388,1.4577-1.108
		c0.5567-0.2691,1.1489-0.4037,1.7765-0.4037h0.4707c0.6985,0,1.3463,0.1603,1.9436,0.481
		c0.5972,0.3207,1.1084,0.7673,1.5336,1.3399V0h1.8676v24.6329H133.2849z M132.0398,11.7496c0-0.4237-0.0709-0.8217-0.2126-1.1939
		c-0.1417-0.3722-0.334-0.6957-0.577-0.9705c-0.243-0.2748-0.5289-0.4924-0.8579-0.6528c-0.329-0.1603-0.6808-0.2405-1.0553-0.2405
		h-1.2451c-0.3745,0-0.7263,0.0802-1.0553,0.2405c-0.329,0.1603-0.6149,0.3779-0.8579,0.6528
		c-0.243,0.2748-0.4353,0.5984-0.577,0.9705s-0.2126,0.7701-0.2126,1.1939v8.1766c0,0.4237,0.0709,0.8217,0.2126,1.1939
		s0.334,0.6957,0.577,0.9705c0.2429,0.2748,0.5289,0.4924,0.8579,0.6528c0.329,0.1603,0.6807,0.2405,1.0553,0.2405h1.2451
		c0.3745,0,0.7263-0.0802,1.0553-0.2405c0.329-0.1603,0.6149-0.3779,0.8579-0.6528c0.2429-0.2748,0.4353-0.5984,0.577-0.9705
		c0.1417-0.3722,0.2126-0.7701,0.2126-1.1939V11.7496z"/>
	<path style="fill:#C9452F;" d="M147.6717,21.8158c-0.2379,0.6299-0.5643,1.1795-0.9794,1.6491
		c-0.415,0.4695-0.9009,0.8388-1.4577,1.108c-0.5567,0.2691-1.1489,0.4037-1.7765,0.4037h-1.2451
		c-0.6276,0-1.2198-0.1346-1.7765-0.4037c-0.5567-0.2691-1.0426-0.6384-1.4577-1.108c-0.415-0.4695-0.7415-1.0192-0.9794-1.6491
		s-0.3568-1.2998-0.3568-2.0098v-7.9361c0-0.71,0.1189-1.3799,0.3568-2.0098c0.2379-0.6299,0.5643-1.1795,0.9794-1.6491
		c0.415-0.4695,0.9009-0.8388,1.4577-1.108s1.1489-0.4037,1.7765-0.4037h1.2451c0.6276,0,1.2198,0.1346,1.7765,0.4037
		c0.5567,0.2691,1.0426,0.6384,1.4577,1.108c0.415,0.4695,0.7415,1.0192,0.9794,1.6491c0.2379,0.6299,0.3568,1.2998,0.3568,2.0098
		v4.1398h-8.5182v3.9165c0,0.4237,0.0709,0.8217,0.2126,1.1939c0.1417,0.3722,0.3341,0.6957,0.577,0.9705
		c0.243,0.2748,0.5289,0.4924,0.8579,0.6528c0.329,0.1603,0.6808,0.2405,1.0553,0.2405h1.2451c0.3745,0,0.7263-0.0802,1.0553-0.2405
		c0.329-0.1603,0.615-0.3779,0.8579-0.6528c0.243-0.2748,0.4353-0.5984,0.577-0.9705c0.1417-0.3722,0.2126-0.7701,0.2126-1.1939
		v-1.1681l1.8676,0.3436v0.7043C148.0285,20.516,147.9096,21.1859,147.6717,21.8158z M146.1609,11.7496
		c0-0.4237-0.0708-0.8217-0.2126-1.1939c-0.1417-0.3722-0.334-0.6957-0.577-0.9705c-0.2429-0.2748-0.5289-0.4924-0.8579-0.6528
		c-0.329-0.1603-0.6807-0.2405-1.0553-0.2405h-1.2451c-0.3745,0-0.7263,0.0802-1.0553,0.2405
		c-0.329,0.1603-0.6149,0.3779-0.8579,0.6528c-0.2429,0.2748-0.4353,0.5984-0.577,0.9705
		c-0.1417,0.3722-0.2126,0.7701-0.2126,1.1939v2.611h6.6506V11.7496z"/>
	<path style="fill:#C9452F;" d="M168.6787,24.6329l-1.0325-1.7865c-0.4251,0.6528-0.9566,1.1709-1.5943,1.5546
		s-1.3362,0.5755-2.0954,0.5755h-0.4707c-0.6276,0-1.2198-0.1346-1.7765-0.4037c-0.5567-0.2691-1.0426-0.6384-1.4577-1.108
		c-0.415-0.4695-0.7415-1.0192-0.9794-1.6491c-0.2379-0.6299-0.3568-1.2998-0.3568-2.0098v-7.9361
		c0-0.71,0.1189-1.3799,0.3568-2.0098c0.2379-0.6299,0.5643-1.1795,0.9794-1.6491c0.415-0.4695,0.9009-0.8388,1.4577-1.108
		c0.5567-0.2691,1.1489-0.4037,1.7765-0.4037h0.4707c0.6985,0,1.3463,0.1603,1.9435,0.481
		c0.5972,0.3207,1.1084,0.7673,1.5336,1.3399V0h1.8676v24.6329H168.6787z M167.4336,11.7496c0-0.4237-0.0709-0.8217-0.2126-1.1939
		c-0.1417-0.3722-0.3341-0.6957-0.577-0.9705c-0.243-0.2748-0.5289-0.4924-0.8579-0.6528c-0.329-0.1603-0.6808-0.2405-1.0553-0.2405
		h-1.2451c-0.3745,0-0.7263,0.0802-1.0553,0.2405c-0.329,0.1603-0.615,0.3779-0.8579,0.6528
		c-0.243,0.2748-0.4353,0.5984-0.577,0.9705c-0.1417,0.3722-0.2126,0.7701-0.2126,1.1939v8.1766
		c0,0.4237,0.0708,0.8217,0.2126,1.1939c0.1417,0.3722,0.334,0.6957,0.577,0.9705c0.2429,0.2748,0.5289,0.4924,0.8579,0.6528
		c0.329,0.1603,0.6807,0.2405,1.0553,0.2405h1.2451c0.3745,0,0.7263-0.0802,1.0553-0.2405c0.329-0.1603,0.6149-0.3779,0.8579-0.6528
		c0.2429-0.2748,0.4353-0.5984,0.577-0.9705c0.1417-0.3722,0.2126-0.7701,0.2126-1.1939V11.7496z"/>
	<path style="fill:#C9452F;" d="M182.7998,24.6329l-1.0325-1.7521c-0.4252,0.6299-0.9566,1.1366-1.5943,1.5202
		s-1.3362,0.5755-2.0954,0.5755h-0.4707c-0.6276,0-1.2198-0.1346-1.7765-0.4037c-0.5567-0.2691-1.0426-0.6384-1.4577-1.108
		c-0.415-0.4695-0.7415-1.0192-0.9794-1.6491s-0.3568-1.2998-0.3568-2.0098v-0.1718c0-0.71,0.1189-1.3799,0.3568-2.0098
		c0.2379-0.6299,0.5643-1.1795,0.9794-1.6491c0.415-0.4695,0.9009-0.8388,1.4577-1.108s1.1489-0.4037,1.7765-0.4037h3.9478v-2.7141
		c0-0.4237-0.0709-0.8217-0.2126-1.1939c-0.1417-0.3722-0.334-0.6957-0.577-0.9705c-0.243-0.2748-0.5289-0.4924-0.8579-0.6528
		c-0.329-0.1603-0.6808-0.2405-1.0553-0.2405h-1.0932c-0.3745,0-0.7263,0.0802-1.0553,0.2405
		c-0.329,0.1603-0.6149,0.3779-0.8579,0.6528c-0.2429,0.2748-0.4353,0.5984-0.577,0.9705
		c-0.1417,0.3722-0.2126,0.7701-0.2126,1.1939v0.6356l-1.8676-0.3436v-0.1718c0-0.71,0.1189-1.3799,0.3568-2.0098
		c0.2379-0.6299,0.5643-1.1795,0.9794-1.6491c0.415-0.4695,0.9009-0.8388,1.4577-1.108s1.1489-0.4037,1.7765-0.4037h1.0932
		c0.6276,0,1.2198,0.1346,1.7765,0.4037s1.0426,0.6384,1.4577,1.108c0.415,0.4695,0.7415,1.0192,0.9794,1.6491
		c0.2379,0.6299,0.3568,1.2998,0.3568,2.0098v12.7631H182.7998z M181.5547,16.1127h-3.9478c-0.3745,0-0.7263,0.0802-1.0553,0.2405
		c-0.329,0.1603-0.6149,0.3808-0.8579,0.6613c-0.2429,0.2806-0.4353,0.6069-0.577,0.9791
		c-0.1417,0.3722-0.2126,0.7701-0.2126,1.1939v0.7386c0,0.4237,0.0709,0.8217,0.2126,1.1939
		c0.1417,0.3722,0.334,0.6957,0.577,0.9705c0.243,0.2748,0.5289,0.4924,0.8579,0.6528c0.329,0.1603,0.6808,0.2405,1.0553,0.2405
		h1.2451c0.3745,0,0.7263-0.0802,1.0553-0.2405c0.329-0.1603,0.6149-0.3779,0.8579-0.6528c0.2429-0.2748,0.4353-0.5984,0.577-0.9705
		c0.1417-0.3722,0.2126-0.7701,0.2126-1.1939V16.1127z"/>
	<path style="fill:#C9452F;" d="M192.8212,24.6329c-0.5669,0-1.1008-0.1202-1.6019-0.3607
		c-0.5011-0.2405-0.9363-0.5726-1.3058-0.9963c-0.3695-0.4237-0.663-0.9161-0.8807-1.4773s-0.3265-1.1624-0.3265-1.8037V9.0527
		h-2.7938V7.0429h2.7938V2.8172l1.8676-0.3436v4.5693h3.9478v2.0098h-3.9478V20.098c0,0.355,0.0582,0.6842,0.1746,0.9877
		s0.2758,0.5697,0.4783,0.7988c0.2025,0.229,0.4403,0.4094,0.7137,0.5411c0.2733,0.1317,0.5669,0.1975,0.8807,0.1975h1.7006v2.0098
		H192.8212z"/>
	<path style="fill:#C9452F;" d="M207.9824,21.8158c-0.2379,0.6299-0.5643,1.1795-0.9794,1.6491
		c-0.415,0.4695-0.9009,0.8388-1.4577,1.108c-0.5567,0.2691-1.1489,0.4037-1.7765,0.4037h-1.2451
		c-0.6276,0-1.2198-0.1346-1.7765-0.4037c-0.5567-0.2691-1.0426-0.6384-1.4577-1.108c-0.415-0.4695-0.7415-1.0192-0.9794-1.6491
		s-0.3568-1.2998-0.3568-2.0098v-7.9361c0-0.71,0.1189-1.3799,0.3568-2.0098c0.2379-0.6299,0.5643-1.1795,0.9794-1.6491
		c0.415-0.4695,0.9009-0.8388,1.4577-1.108s1.1489-0.4037,1.7765-0.4037h1.2451c0.6276,0,1.2198,0.1346,1.7765,0.4037
		c0.5567,0.2691,1.0426,0.6384,1.4577,1.108c0.415,0.4695,0.7415,1.0192,0.9794,1.6491c0.2379,0.6299,0.3568,1.2998,0.3568,2.0098
		v7.9361C208.3392,20.516,208.2203,21.1859,207.9824,21.8158z M206.4716,11.7496c0-0.4237-0.0708-0.8217-0.2126-1.1939
		c-0.1417-0.3722-0.334-0.6957-0.577-0.9705c-0.2429-0.2748-0.5289-0.4924-0.8579-0.6528c-0.329-0.1603-0.6807-0.2405-1.0553-0.2405
		h-1.2451c-0.3745,0-0.7263,0.0802-1.0553,0.2405c-0.329,0.1603-0.6149,0.3779-0.8579,0.6528
		c-0.2429,0.2748-0.4353,0.5984-0.577,0.9705c-0.1417,0.3722-0.2126,0.7701-0.2126,1.1939v8.1766
		c0,0.4237,0.0709,0.8217,0.2126,1.1939c0.1417,0.3722,0.3341,0.6957,0.577,0.9705c0.243,0.2748,0.5289,0.4924,0.8579,0.6528
		c0.329,0.1603,0.6808,0.2405,1.0553,0.2405h1.2451c0.3745,0,0.7263-0.0802,1.0553-0.2405c0.329-0.1603,0.615-0.3779,0.8579-0.6528
		c0.243-0.2748,0.4353-0.5984,0.577-0.9705c0.1417-0.3722,0.2126-0.7701,0.2126-1.1939V11.7496z"/>
	<path style="fill:#C9452F;" d="M212.8641,29.5629h-0.7896v-7.5754h2.3383L212.8641,29.5629z"/>
	<path style="fill:#C9452F;" d="M226.0741,2.8172V0h2.1713v2.8172H226.0741z M226.226,24.6329v-17.59h1.8676v17.59H226.226z"/>
	<path style="fill:#C9452F;" d="M240.9696,24.6329V11.7496c0-0.4237-0.0709-0.8217-0.2126-1.1939
		c-0.1417-0.3722-0.334-0.6957-0.577-0.9705s-0.5289-0.4924-0.8579-0.6528c-0.329-0.1603-0.6807-0.2405-1.0553-0.2405h-1.2451
		c-0.3745,0-0.7263,0.0802-1.0553,0.2405c-0.329,0.1603-0.615,0.3779-0.8579,0.6528c-0.243,0.2748-0.4353,0.5984-0.577,0.9705
		s-0.2126,0.7701-0.2126,1.1939v12.8833h-1.8676v-17.59h0.6225l1.0173,1.7865c0.4252-0.6528,0.9591-1.171,1.6019-1.5546
		c0.6428-0.3836,1.3438-0.5755,2.103-0.5755h0.4707c0.6276,0,1.2198,0.1346,1.7765,0.4037s1.0426,0.6384,1.4577,1.108
		c0.415,0.4695,0.7415,1.0192,0.9794,1.6491c0.2379,0.6299,0.3568,1.2998,0.3568,2.0098v12.7631H240.9696z"/>
	<path style="fill:#C9452F;" d="M251.9173,2.0098c-0.3138,0-0.6048,0.0658-0.8731,0.1975
		c-0.2682,0.1317-0.5036,0.3121-0.7061,0.5411s-0.3619,0.4982-0.4783,0.8074s-0.1746,0.6413-0.1746,0.9963v2.4908h3.629v2.0098
		h-3.629v15.5802h-1.8676V9.0527h-2.809V7.0429h2.809V4.6552c0-0.6413,0.1063-1.2454,0.3189-1.8123
		c0.2126-0.5669,0.5061-1.0622,0.8807-1.4859c0.3745-0.4237,0.8098-0.7558,1.3058-0.9963C250.8189,0.1202,251.3504,0,251.9173,0
		h1.7158v2.0098H251.9173z"/>
	<path style="fill:#C9452F;" d="M265.5297,21.8158c-0.2379,0.6299-0.5643,1.1795-0.9793,1.6491
		c-0.415,0.4695-0.9009,0.8388-1.4577,1.108c-0.5567,0.2691-1.1489,0.4037-1.7765,0.4037h-1.2451
		c-0.6276,0-1.2198-0.1346-1.7765-0.4037c-0.5568-0.2691-1.0426-0.6384-1.4577-1.108c-0.415-0.4695-0.7415-1.0192-0.9794-1.6491
		s-0.3568-1.2998-0.3568-2.0098v-7.9361c0-0.71,0.1189-1.3799,0.3568-2.0098c0.2379-0.6299,0.5643-1.1795,0.9794-1.6491
		c0.415-0.4695,0.9009-0.8388,1.4577-1.108c0.5567-0.2691,1.1489-0.4037,1.7765-0.4037h1.2451c0.6276,0,1.2198,0.1346,1.7765,0.4037
		s1.0426,0.6384,1.4577,1.108c0.415,0.4695,0.7415,1.0192,0.9793,1.6491c0.2379,0.6299,0.3568,1.2998,0.3568,2.0098v7.9361
		C265.8865,20.516,265.7675,21.1859,265.5297,21.8158z M264.0189,11.7496c0-0.4237-0.0709-0.8217-0.2126-1.1939
		c-0.1417-0.3722-0.334-0.6957-0.577-0.9705s-0.5289-0.4924-0.8579-0.6528c-0.329-0.1603-0.6807-0.2405-1.0553-0.2405h-1.2451
		c-0.3745,0-0.7263,0.0802-1.0553,0.2405c-0.329,0.1603-0.6149,0.3779-0.8579,0.6528s-0.4353,0.5984-0.577,0.9705
		s-0.2126,0.7701-0.2126,1.1939v8.1766c0,0.4237,0.0709,0.8217,0.2126,1.1939s0.334,0.6957,0.577,0.9705
		c0.243,0.2748,0.5289,0.4924,0.8579,0.6528s0.6808,0.2405,1.0553,0.2405h1.2451c0.3745,0,0.7263-0.0802,1.0553-0.2405
		c0.329-0.1603,0.615-0.3779,0.8579-0.6528c0.243-0.2748,0.4353-0.5984,0.577-0.9705c0.1417-0.3722,0.2126-0.7701,0.2126-1.1939
		V11.7496z"/>
	<path style="fill:#C9452F;" d="M274.1921,9.0527c-0.3745,0-0.7263,0.0802-1.0553,0.2405c-0.329,0.1603-0.615,0.3779-0.8579,0.6528
		c-0.243,0.2748-0.4353,0.5984-0.577,0.9705s-0.2126,0.7701-0.2126,1.1939v12.5226h-1.8676v-17.59h0.6225l1.0173,1.7865
		c0.4251-0.6528,0.9591-1.171,1.6019-1.5546c0.6428-0.3836,1.3438-0.5755,2.103-0.5755h1.0932v2.3534H274.1921z"/>
	<path style="fill:#C9452F;" d="M294.9638,24.6329V11.7496c0-0.4237-0.0709-0.8217-0.2126-1.1939s-0.334-0.6957-0.577-0.9705
		c-0.2429-0.2748-0.5289-0.4924-0.8579-0.6528c-0.329-0.1603-0.6808-0.2405-1.0553-0.2405h-0.9262
		c-0.3745,0-0.7263,0.0802-1.0553,0.2405c-0.329,0.1603-0.6175,0.3779-0.8655,0.6528s-0.4429,0.5984-0.5846,0.9705
		c-0.1417,0.3722-0.2126,0.7701-0.2126,1.1939v12.8833h-1.8524V11.7496c0-0.4237-0.0709-0.8217-0.2126-1.1939
		s-0.3366-0.6957-0.5846-0.9705c-0.248-0.2748-0.5365-0.4924-0.8655-0.6528c-0.329-0.1603-0.6808-0.2405-1.0553-0.2405h-0.9262
		c-0.3745,0-0.7263,0.0802-1.0553,0.2405c-0.329,0.1603-0.615,0.3779-0.8579,0.6528s-0.4353,0.5984-0.577,0.9705
		s-0.2126,0.7701-0.2126,1.1939v12.8833h-1.8676v-17.59h0.6226l1.0173,1.7865c0.4252-0.6528,0.9591-1.171,1.6019-1.5546
		c0.6428-0.3836,1.3438-0.5755,2.103-0.5755h0.1519c0.8806,0,1.6753,0.2462,2.3839,0.7386s1.2552,1.1452,1.6399,1.9583
		c0.1923-0.4008,0.4302-0.7673,0.7137-1.0994c0.2834-0.3321,0.5972-0.6155,0.9414-0.8503c0.3441-0.2348,0.7187-0.418,1.1236-0.5497
		c0.4049-0.1317,0.825-0.1975,1.2603-0.1975h0.1518c0.6276,0,1.2198,0.1346,1.7765,0.4037c0.5568,0.2691,1.0426,0.6384,1.4577,1.108
		c0.415,0.4695,0.7415,1.0192,0.9794,1.6491c0.2379,0.6299,0.3568,1.2998,0.3568,2.0098v12.7631H294.9638z"/>
	<path style="fill:#C9452F;" d="M310.3305,24.6329l-1.0325-1.7521c-0.4251,0.6299-0.9576,1.1366-1.5948,1.5202
		c-0.6377,0.3836-1.3362,0.5755-2.0954,0.5755h-0.4707c-0.6276,0-1.2198-0.1346-1.7765-0.4037
		c-0.5567-0.2691-1.0426-0.6384-1.4577-1.108c-0.415-0.4695-0.7415-1.0192-0.9793-1.6491s-0.3568-1.2998-0.3568-2.0098v-0.1718
		c0-0.71,0.119-1.3799,0.3568-2.0098c0.2379-0.6299,0.5643-1.1795,0.9793-1.6491c0.415-0.4695,0.9009-0.8388,1.4577-1.108
		c0.5568-0.2691,1.1489-0.4037,1.7765-0.4037h3.9483v-2.7141c0-0.4237-0.0708-0.8217-0.2126-1.1939s-0.334-0.6957-0.577-0.9705
		c-0.2434-0.2748-0.5294-0.4924-0.8584-0.6528c-0.329-0.1603-0.6808-0.2405-1.0553-0.2405h-1.0932
		c-0.3745,0-0.7263,0.0802-1.0553,0.2405c-0.329,0.1603-0.615,0.3779-0.8579,0.6528c-0.243,0.2748-0.4353,0.5984-0.577,0.9705
		s-0.2126,0.7701-0.2126,1.1939v0.6356l-1.8676-0.3436v-0.1718c0-0.71,0.1189-1.3799,0.3568-2.0098
		c0.2379-0.6299,0.5643-1.1795,0.9794-1.6491c0.415-0.4695,0.9009-0.8388,1.4577-1.108c0.5567-0.2691,1.1489-0.4037,1.7765-0.4037
		h1.0932c0.6276,0,1.2198,0.1346,1.776,0.4037c0.5567,0.2691,1.0426,0.6384,1.4576,1.108c0.415,0.4695,0.741,1.0192,0.9799,1.6491
		c0.2369,0.6299,0.3563,1.2998,0.3563,2.0098v12.7631H310.3305z M309.0854,16.1127h-3.9483c-0.3745,0-0.7263,0.0802-1.0553,0.2405
		c-0.329,0.1603-0.615,0.3808-0.8579,0.6613c-0.243,0.2806-0.4353,0.6069-0.577,0.9791c-0.1417,0.3722-0.2126,0.7701-0.2126,1.1939
		v0.7386c0,0.4237,0.0709,0.8217,0.2126,1.1939c0.1417,0.3722,0.334,0.6957,0.577,0.9705c0.243,0.2748,0.5289,0.4924,0.8579,0.6528
		c0.329,0.1603,0.6807,0.2405,1.0553,0.2405h1.2451c0.3745,0,0.7263-0.0802,1.0553-0.2405s0.615-0.3779,0.8584-0.6528
		c0.243-0.2748,0.4353-0.5984,0.577-0.9705s0.2126-0.7701,0.2126-1.1939V16.1127z"/>
	<path style="fill:#C9452F;" d="M324.7168,21.8158c-0.2379,0.6299-0.5638,1.1795-0.9789,1.6491
		c-0.415,0.4695-0.9009,0.8388-1.4577,1.108c-0.5568,0.2691-1.1489,0.4037-1.7765,0.4037h-1.2451
		c-0.6276,0-1.2198-0.1346-1.7765-0.4037c-0.5568-0.2691-1.0426-0.6384-1.4577-1.108c-0.415-0.4695-0.742-1.0192-0.9789-1.6491
		c-0.2389-0.6299-0.3573-1.2998-0.3573-2.0098v-7.9361c0-0.71,0.1184-1.3799,0.3573-2.0098
		c0.2368-0.6299,0.5638-1.1795,0.9789-1.6491c0.415-0.4695,0.9009-0.8388,1.4577-1.108c0.5567-0.2691,1.1489-0.4037,1.7765-0.4037
		h1.2451c0.6276,0,1.2198,0.1346,1.7765,0.4037c0.5567,0.2691,1.0426,0.6384,1.4577,1.108c0.415,0.4695,0.741,1.0192,0.9789,1.6491
		c0.2379,0.6299,0.3573,1.2998,0.3573,2.0098v0.7043l-1.8676,0.3436v-1.1681c0-0.4237-0.0709-0.8217-0.2126-1.1939
		c-0.1417-0.3722-0.334-0.6957-0.577-0.9705s-0.5294-0.4924-0.8584-0.6528c-0.329-0.1603-0.6802-0.2405-1.0548-0.2405h-1.2451
		c-0.3745,0-0.7268,0.0802-1.0548,0.2405c-0.33,0.1603-0.6155,0.3779-0.8584,0.6528c-0.243,0.2748-0.4353,0.5984-0.577,0.9705
		s-0.2126,0.7701-0.2126,1.1939v8.1766c0,0.4237,0.0709,0.8217,0.2126,1.1939s0.334,0.6957,0.577,0.9705
		c0.2429,0.2748,0.5284,0.4924,0.8584,0.6528c0.328,0.1603,0.6802,0.2405,1.0548,0.2405h1.2451
		c0.3745,0,0.7258-0.0802,1.0548-0.2405s0.6154-0.3779,0.8584-0.6528c0.243-0.2748,0.4353-0.5984,0.577-0.9705
		c0.1417-0.3722,0.2126-0.7701,0.2126-1.1939v-1.1681l1.8676,0.3436v0.7043C325.0741,20.516,324.9547,21.1859,324.7168,21.8158z"/>
	<path style="fill:#C9452F;" d="M329.2801,2.8172V0h2.1713v2.8172H329.2801z M329.4319,24.6329v-17.59h1.8676v17.59H329.4319z"/>
	<path style="fill:#C9452F;" d="M345.6848,21.8158c-0.2379,0.6299-0.5638,1.1795-0.9789,1.6491
		c-0.415,0.4695-0.9009,0.8388-1.4577,1.108c-0.5567,0.2691-1.1489,0.4037-1.7765,0.4037h-1.2451
		c-0.6276,0-1.2198-0.1346-1.7765-0.4037c-0.5568-0.2691-1.0426-0.6384-1.4577-1.108c-0.415-0.4695-0.742-1.0192-0.9789-1.6491
		c-0.2389-0.6299-0.3573-1.2998-0.3573-2.0098v-7.9361c0-0.71,0.1184-1.3799,0.3573-2.0098
		c0.2369-0.6299,0.5638-1.1795,0.9789-1.6491c0.415-0.4695,0.9009-0.8388,1.4577-1.108c0.5567-0.2691,1.1489-0.4037,1.7765-0.4037
		h1.2451c0.6276,0,1.2198,0.1346,1.7765,0.4037s1.0426,0.6384,1.4577,1.108c0.415,0.4695,0.741,1.0192,0.9789,1.6491
		c0.2379,0.6299,0.3573,1.2998,0.3573,2.0098v7.9361C346.0422,20.516,345.9227,21.1859,345.6848,21.8158z M344.1745,11.7496
		c0-0.4237-0.0708-0.8217-0.2126-1.1939s-0.334-0.6957-0.577-0.9705s-0.5294-0.4924-0.8584-0.6528
		c-0.329-0.1603-0.6802-0.2405-1.0548-0.2405h-1.2451c-0.3745,0-0.7268,0.0802-1.0548,0.2405
		c-0.33,0.1603-0.6154,0.3779-0.8584,0.6528s-0.4353,0.5984-0.577,0.9705s-0.2126,0.7701-0.2126,1.1939v8.1766
		c0,0.4237,0.0709,0.8217,0.2126,1.1939s0.334,0.6957,0.577,0.9705c0.243,0.2748,0.5284,0.4924,0.8584,0.6528
		c0.328,0.1603,0.6802,0.2405,1.0548,0.2405h1.2451c0.3745,0,0.7258-0.0802,1.0548-0.2405s0.6154-0.3779,0.8584-0.6528
		c0.243-0.2748,0.4353-0.5984,0.577-0.9705s0.2126-0.7701,0.2126-1.1939V11.7496z M340.0749,4.2257h-1.3969L341.1529,0h3.1127
		L340.0749,4.2257z"/>
	<path style="fill:#C9452F;" d="M358.2956,24.6329V11.7496c0-0.4237-0.0708-0.8217-0.2126-1.1939s-0.334-0.6957-0.577-0.9705
		s-0.5294-0.4924-0.8584-0.6528c-0.329-0.1603-0.6802-0.2405-1.0548-0.2405h-1.2451c-0.3745,0-0.7268,0.0802-1.0548,0.2405
		c-0.33,0.1603-0.6154,0.3779-0.8584,0.6528s-0.4353,0.5984-0.577,0.9705s-0.2126,0.7701-0.2126,1.1939v12.8833h-1.8676v-17.59
		H350.4l1.0173,1.7865c0.4251-0.6528,0.9586-1.171,1.6024-1.5546c0.6418-0.3836,1.3433-0.5755,2.1025-0.5755h0.4707
		c0.6276,0,1.2198,0.1346,1.7765,0.4037s1.0426,0.6384,1.4577,1.108c0.415,0.4695,0.741,1.0192,0.9789,1.6491
		c0.2379,0.6299,0.3573,1.2998,0.3573,2.0098v12.7631H358.2956z"/>
	<path style="fill:#C9452F;" d="M373.5717,31.6758h-1.8069l2.7635-8.5545l-5.0411-16.0784h1.8676l4.0541,13.3299l0.0607,0.9104
		l0.0607-0.9104l4.0389-13.3299h1.8676L373.5717,31.6758z"/>
	<path style="fill:#C9452F;" d="M400.4848,21.8158c-0.2379,0.6299-0.5638,1.1795-0.9789,1.6491
		c-0.415,0.4695-0.9009,0.8388-1.4577,1.108c-0.5567,0.2691-1.1489,0.4037-1.7765,0.4037h-1.2451
		c-0.6276,0-1.2198-0.1346-1.7765-0.4037c-0.5568-0.2691-1.0426-0.6384-1.4577-1.108c-0.415-0.4695-0.742-1.0192-0.9789-1.6491
		c-0.2389-0.6299-0.3573-1.2998-0.3573-2.0098v-7.9361c0-0.71,0.1184-1.3799,0.3573-2.0098
		c0.2369-0.6299,0.5638-1.1795,0.9789-1.6491c0.415-0.4695,0.9009-0.8388,1.4577-1.108c0.5567-0.2691,1.1489-0.4037,1.7765-0.4037
		h1.2451c0.6276,0,1.2198,0.1346,1.7765,0.4037c0.5568,0.2691,1.0426,0.6384,1.4577,1.108c0.415,0.4695,0.741,1.0192,0.9789,1.6491
		c0.2379,0.6299,0.3573,1.2998,0.3573,2.0098v0.7043l-1.8676,0.3436v-1.1681c0-0.4237-0.0709-0.8217-0.2126-1.1939
		s-0.334-0.6957-0.577-0.9705s-0.5294-0.4924-0.8584-0.6528c-0.329-0.1603-0.6802-0.2405-1.0548-0.2405h-1.2451
		c-0.3745,0-0.7268,0.0802-1.0548,0.2405c-0.33,0.1603-0.6154,0.3779-0.8584,0.6528s-0.4353,0.5984-0.577,0.9705
		s-0.2126,0.7701-0.2126,1.1939v8.1766c0,0.4237,0.0709,0.8217,0.2126,1.1939s0.334,0.6957,0.577,0.9705
		c0.243,0.2748,0.5284,0.4924,0.8584,0.6528c0.328,0.1603,0.6802,0.2405,1.0548,0.2405h1.2451c0.3745,0,0.7258-0.0802,1.0548-0.2405
		s0.6154-0.3779,0.8584-0.6528c0.243-0.2748,0.4353-0.5984,0.577-0.9705s0.2126-0.7701,0.2126-1.1939v-1.1681l1.8676,0.3436v0.7043
		C400.8421,20.516,400.7227,21.1859,400.4848,21.8158z"/>
	<path style="fill:#C9452F;" d="M414.6059,21.8158c-0.2379,0.6299-0.5638,1.1795-0.9789,1.6491
		c-0.415,0.4695-0.9009,0.8388-1.4577,1.108c-0.5567,0.2691-1.1489,0.4037-1.7765,0.4037h-1.2451
		c-0.6276,0-1.2198-0.1346-1.7765-0.4037c-0.5568-0.2691-1.0426-0.6384-1.4577-1.108c-0.415-0.4695-0.742-1.0192-0.9789-1.6491
		c-0.2389-0.6299-0.3573-1.2998-0.3573-2.0098v-7.9361c0-0.71,0.1184-1.3799,0.3573-2.0098
		c0.2369-0.6299,0.5638-1.1795,0.9789-1.6491c0.415-0.4695,0.9009-0.8388,1.4577-1.108c0.5567-0.2691,1.1489-0.4037,1.7765-0.4037
		h1.2451c0.6276,0,1.2198,0.1346,1.7765,0.4037s1.0426,0.6384,1.4577,1.108c0.415,0.4695,0.741,1.0192,0.9789,1.6491
		c0.2379,0.6299,0.3573,1.2998,0.3573,2.0098v7.9361C414.9632,20.516,414.8438,21.1859,414.6059,21.8158z M413.0956,11.7496
		c0-0.4237-0.0708-0.8217-0.2126-1.1939s-0.334-0.6957-0.577-0.9705s-0.5294-0.4924-0.8584-0.6528
		c-0.329-0.1603-0.6802-0.2405-1.0548-0.2405h-1.2451c-0.3745,0-0.7268,0.0802-1.0548,0.2405
		c-0.33,0.1603-0.6154,0.3779-0.8584,0.6528s-0.4353,0.5984-0.577,0.9705s-0.2126,0.7701-0.2126,1.1939v8.1766
		c0,0.4237,0.0709,0.8217,0.2126,1.1939s0.334,0.6957,0.577,0.9705c0.243,0.2748,0.5284,0.4924,0.8584,0.6528
		c0.328,0.1603,0.6802,0.2405,1.0548,0.2405h1.2451c0.3745,0,0.7258-0.0802,1.0548-0.2405s0.6154-0.3779,0.8584-0.6528
		c0.243-0.2748,0.4353-0.5984,0.577-0.9705s0.2126-0.7701,0.2126-1.1939V11.7496z"/>
	<path style="fill:#C9452F;" d="M427.2167,24.6329V11.7496c0-0.4237-0.0708-0.8217-0.2126-1.1939s-0.334-0.6957-0.577-0.9705
		s-0.5294-0.4924-0.8584-0.6528c-0.329-0.1603-0.6802-0.2405-1.0548-0.2405h-1.2451c-0.3745,0-0.7268,0.0802-1.0548,0.2405
		c-0.33,0.1603-0.6154,0.3779-0.8584,0.6528s-0.4353,0.5984-0.577,0.9705s-0.2126,0.7701-0.2126,1.1939v12.8833h-1.8676v-17.59
		h0.6225l1.0173,1.7865c0.4251-0.6528,0.9586-1.171,1.6024-1.5546c0.6418-0.3836,1.3433-0.5755,2.1025-0.5755h0.4707
		c0.6276,0,1.2198,0.1346,1.7765,0.4037s1.0426,0.6384,1.4577,1.108c0.415,0.4695,0.741,1.0192,0.9789,1.6491
		c0.2379,0.6299,0.3573,1.2998,0.3573,2.0098v12.7631H427.2167z"/>
	<path style="fill:#C9452F;" d="M442.8481,21.8158c-0.2379,0.6299-0.5638,1.1795-0.9789,1.6491
		c-0.415,0.4695-0.9009,0.8388-1.4577,1.108c-0.5567,0.2691-1.1489,0.4037-1.7765,0.4037H437.39
		c-0.6276,0-1.2198-0.1346-1.7765-0.4037c-0.5568-0.2691-1.0426-0.6384-1.4577-1.108c-0.415-0.4695-0.742-1.0192-0.9789-1.6491
		c-0.2389-0.6299-0.3573-1.2998-0.3573-2.0098v-7.9361c0-0.71,0.1184-1.3799,0.3573-2.0098
		c0.2369-0.6299,0.5638-1.1795,0.9789-1.6491c0.415-0.4695,0.9009-0.8388,1.4577-1.108c0.5567-0.2691,1.1489-0.4037,1.7765-0.4037
		h1.2451c0.6276,0,1.2198,0.1346,1.7765,0.4037s1.0426,0.6384,1.4577,1.108c0.415,0.4695,0.741,1.0192,0.9789,1.6491
		c0.2379,0.6299,0.3573,1.2998,0.3573,2.0098v7.9361C443.2054,20.516,443.086,21.1859,442.8481,21.8158z M441.3378,11.7496
		c0-0.4237-0.0709-0.8217-0.2126-1.1939c-0.1417-0.3722-0.334-0.6957-0.577-0.9705s-0.5294-0.4924-0.8584-0.6528
		c-0.329-0.1603-0.6802-0.2405-1.0548-0.2405H437.39c-0.3745,0-0.7268,0.0802-1.0548,0.2405
		c-0.33,0.1603-0.6154,0.3779-0.8584,0.6528s-0.4353,0.5984-0.577,0.9705s-0.2126,0.7701-0.2126,1.1939v8.1766
		c0,0.4237,0.0709,0.8217,0.2126,1.1939s0.334,0.6957,0.577,0.9705c0.243,0.2748,0.5284,0.4924,0.8584,0.6528
		c0.328,0.1603,0.6802,0.2405,1.0548,0.2405h1.2451c0.3745,0,0.7258-0.0802,1.0548-0.2405s0.6154-0.3779,0.8584-0.6528
		c0.243-0.2748,0.4353-0.5984,0.577-0.9705c0.1417-0.3722,0.2126-0.7701,0.2126-1.1939V11.7496z"/>
	<path style="fill:#C9452F;" d="M456.9692,21.8158c-0.2379,0.6299-0.5638,1.1795-0.9789,1.6491
		c-0.415,0.4695-0.9009,0.8388-1.4577,1.108c-0.5568,0.2691-1.1489,0.4037-1.7765,0.4037h-1.2451
		c-0.6276,0-1.2198-0.1346-1.7765-0.4037c-0.5568-0.2691-1.0426-0.6384-1.4577-1.108c-0.415-0.4695-0.742-1.0192-0.9789-1.6491
		c-0.2389-0.6299-0.3573-1.2998-0.3573-2.0098v-7.9361c0-0.71,0.1184-1.3799,0.3573-2.0098
		c0.2368-0.6299,0.5638-1.1795,0.9789-1.6491c0.415-0.4695,0.9009-0.8388,1.4577-1.108c0.5567-0.2691,1.1489-0.4037,1.7765-0.4037
		h1.2451c0.6276,0,1.2198,0.1346,1.7765,0.4037c0.5567,0.2691,1.0426,0.6384,1.4577,1.108c0.415,0.4695,0.741,1.0192,0.9789,1.6491
		c0.2379,0.6299,0.3573,1.2998,0.3573,2.0098v0.7043l-1.8676,0.3436v-1.1681c0-0.4237-0.0709-0.8217-0.2126-1.1939
		c-0.1417-0.3722-0.334-0.6957-0.577-0.9705s-0.5294-0.4924-0.8584-0.6528c-0.329-0.1603-0.6802-0.2405-1.0548-0.2405h-1.2451
		c-0.3745,0-0.7268,0.0802-1.0548,0.2405c-0.33,0.1603-0.6155,0.3779-0.8584,0.6528c-0.243,0.2748-0.4353,0.5984-0.577,0.9705
		s-0.2126,0.7701-0.2126,1.1939v8.1766c0,0.4237,0.0709,0.8217,0.2126,1.1939s0.334,0.6957,0.577,0.9705
		c0.2429,0.2748,0.5284,0.4924,0.8584,0.6528c0.328,0.1603,0.6802,0.2405,1.0548,0.2405h1.2451
		c0.3745,0,0.7258-0.0802,1.0548-0.2405s0.6154-0.3779,0.8584-0.6528c0.243-0.2748,0.4353-0.5984,0.577-0.9705
		c0.1417-0.3722,0.2126-0.7701,0.2126-1.1939v-1.1681l1.8676,0.3436v0.7043C457.3265,20.516,457.2071,21.1859,456.9692,21.8158z"/>
	<path style="fill:#C9452F;" d="M461.5325,2.8172V0h2.1713v2.8172H461.5325z M461.6843,24.6329v-17.59h1.8676v17.59H461.6843z"/>
	<path style="fill:#C9452F;" d="M484.3226,24.6329V11.7496c0-0.4237-0.0709-0.8217-0.2126-1.1939s-0.334-0.6957-0.577-0.9705
		s-0.5294-0.4924-0.8584-0.6528c-0.329-0.1603-0.6802-0.2405-1.0548-0.2405h-0.9262c-0.3745,0-0.7268,0.0802-1.0558,0.2405
		c-0.329,0.1603-0.6175,0.3779-0.8645,0.6528c-0.249,0.2748-0.4434,0.5984-0.5851,0.9705s-0.2126,0.7701-0.2126,1.1939v12.8833
		h-1.8524V11.7496c0-0.4237-0.0708-0.8217-0.2126-1.1939s-0.3371-0.6957-0.5851-0.9705c-0.248-0.2748-0.5365-0.4924-0.8645-0.6528
		c-0.33-0.1603-0.6812-0.2405-1.0558-0.2405h-0.9262c-0.3745,0-0.7268,0.0802-1.0548,0.2405
		c-0.33,0.1603-0.6154,0.3779-0.8584,0.6528s-0.4353,0.5984-0.577,0.9705s-0.2126,0.7701-0.2126,1.1939v12.8833h-1.8676v-17.59
		h0.6225l1.0173,1.7865c0.4251-0.6528,0.9586-1.171,1.6024-1.5546c0.6418-0.3836,1.3433-0.5755,2.1025-0.5755h0.1518
		c0.8807,0,1.6753,0.2462,2.3839,0.7386s1.2552,1.1452,1.6399,1.9583c0.1923-0.4008,0.4302-0.7673,0.7136-1.0994
		c0.2834-0.3321,0.5973-0.6155,0.9414-0.8503c0.3442-0.2348,0.7187-0.418,1.1236-0.5497c0.4049-0.1317,0.825-0.1975,1.2603-0.1975
		h0.1519c0.6276,0,1.2198,0.1346,1.7765,0.4037c0.5568,0.2691,1.0426,0.6384,1.4577,1.108c0.415,0.4695,0.741,1.0192,0.9789,1.6491
		c0.2379,0.6299,0.3573,1.2998,0.3573,2.0098v12.7631H484.3226z"/>
	<path style="fill:#C9452F;" d="M490.3962,2.8172V0h2.1713v2.8172H490.3962z M490.548,24.6329v-17.59h1.8676v17.59H490.548z"/>
	<path style="fill:#C9452F;" d="M506.8029,21.8158c-0.2379,0.6299-0.5638,1.1795-0.9789,1.6491
		c-0.415,0.4695-0.9009,0.8388-1.4576,1.108c-0.5568,0.2691-1.1489,0.4037-1.7766,0.4037h-1.2451
		c-0.6276,0-1.2198-0.1346-1.7765-0.4037c-0.5567-0.2691-1.0426-0.6384-1.4576-1.108c-0.415-0.4695-0.742-1.0192-0.9789-1.6491
		c-0.2389-0.6299-0.3573-1.2998-0.3573-2.0098v-7.9361c0-0.71,0.1184-1.3799,0.3573-2.0098
		c0.2369-0.6299,0.5638-1.1795,0.9789-1.6491c0.415-0.4695,0.9009-0.8388,1.4576-1.108c0.5568-0.2691,1.1489-0.4037,1.7765-0.4037
		h1.2451c0.6276,0,1.2198,0.1346,1.7766,0.4037c0.5567,0.2691,1.0426,0.6384,1.4576,1.108c0.415,0.4695,0.741,1.0192,0.9789,1.6491
		c0.2379,0.6299,0.3573,1.2998,0.3573,2.0098v4.1398h-8.5182v3.9165c0,0.4237,0.0709,0.8217,0.2126,1.1939
		c0.1417,0.3722,0.3341,0.6957,0.577,0.9705c0.243,0.2748,0.5284,0.4924,0.8584,0.6528c0.328,0.1603,0.6803,0.2405,1.0548,0.2405
		h1.2451c0.3745,0,0.7258-0.0802,1.0548-0.2405c0.329-0.1603,0.6155-0.3779,0.8584-0.6528c0.243-0.2748,0.4353-0.5984,0.577-0.9705
		c0.1417-0.3722,0.2126-0.7701,0.2126-1.1939v-1.1681l1.8676,0.3436v0.7043C507.1603,20.516,507.0408,21.1859,506.8029,21.8158z
		 M505.2927,11.7496c0-0.4237-0.0709-0.8217-0.2126-1.1939c-0.1417-0.3722-0.334-0.6957-0.577-0.9705
		c-0.2429-0.2748-0.5294-0.4924-0.8584-0.6528c-0.329-0.1603-0.6802-0.2405-1.0548-0.2405h-1.2451
		c-0.3745,0-0.7268,0.0802-1.0548,0.2405c-0.33,0.1603-0.6154,0.3779-0.8584,0.6528c-0.2429,0.2748-0.4353,0.5984-0.577,0.9705
		c-0.1417,0.3722-0.2126,0.7701-0.2126,1.1939v2.611h6.6506V11.7496z"/>
	<path style="fill:#C9452F;" d="M519.4138,24.6329V11.7496c0-0.4237-0.0709-0.8217-0.2126-1.1939s-0.334-0.6957-0.577-0.9705
		c-0.243-0.2748-0.5294-0.4924-0.8584-0.6528c-0.329-0.1603-0.6802-0.2405-1.0548-0.2405h-1.2451
		c-0.3746,0-0.7268,0.0802-1.0548,0.2405c-0.33,0.1603-0.6154,0.3779-0.8584,0.6528c-0.2429,0.2748-0.4352,0.5984-0.577,0.9705
		s-0.2126,0.7701-0.2126,1.1939v12.8833h-1.8676v-17.59h0.6226l1.0173,1.7865c0.4252-0.6528,0.9586-1.171,1.6024-1.5546
		c0.6418-0.3836,1.3433-0.5755,2.1025-0.5755h0.4707c0.6276,0,1.2198,0.1346,1.7766,0.4037
		c0.5567,0.2691,1.0426,0.6384,1.4576,1.108c0.415,0.4695,0.741,1.0192,0.9789,1.6491c0.2379,0.6299,0.3573,1.2998,0.3573,2.0098
		v12.7631H519.4138z"/>
	<path style="fill:#C9452F;" d="M530.6802,24.6329c-0.5668,0-1.1013-0.1202-1.6014-0.3607
		c-0.5021-0.2405-0.9374-0.5726-1.3058-0.9963c-0.3705-0.4237-0.664-0.9161-0.8806-1.4773c-0.2187-0.5611-0.327-1.1624-0.327-1.8037
		V9.0527h-2.7939V7.0429h2.7939V2.8172l1.8676-0.3436v4.5693h3.9478v2.0098h-3.9478V20.098c0,0.355,0.0577,0.6842,0.1741,0.9877
		c0.1165,0.3035,0.2764,0.5697,0.4788,0.7988c0.2025,0.229,0.4404,0.4094,0.7136,0.5411c0.2733,0.1317,0.5669,0.1975,0.8807,0.1975
		h1.7006v2.0098H530.6802z"/>
	<path style="fill:#C9452F;" d="M545.84,21.8158c-0.2379,0.6299-0.5638,1.1795-0.9789,1.6491
		c-0.415,0.4695-0.9009,0.8388-1.4576,1.108c-0.5568,0.2691-1.1489,0.4037-1.7766,0.4037h-1.2451
		c-0.6276,0-1.2197-0.1346-1.7765-0.4037c-0.5568-0.2691-1.0427-0.6384-1.4576-1.108c-0.415-0.4695-0.742-1.0192-0.9789-1.6491
		c-0.2389-0.6299-0.3574-1.2998-0.3574-2.0098v-7.9361c0-0.71,0.1185-1.3799,0.3574-2.0098
		c0.2369-0.6299,0.5638-1.1795,0.9789-1.6491c0.415-0.4695,0.9009-0.8388,1.4576-1.108s1.1489-0.4037,1.7765-0.4037h1.2451
		c0.6276,0,1.2198,0.1346,1.7766,0.4037c0.5567,0.2691,1.0426,0.6384,1.4576,1.108c0.415,0.4695,0.741,1.0192,0.9789,1.6491
		c0.2379,0.6299,0.3573,1.2998,0.3573,2.0098v7.9361C546.1973,20.516,546.0778,21.1859,545.84,21.8158z M544.3297,11.7496
		c0-0.4237-0.0709-0.8217-0.2126-1.1939s-0.334-0.6957-0.577-0.9705c-0.243-0.2748-0.5294-0.4924-0.8585-0.6528
		c-0.329-0.1603-0.6802-0.2405-1.0547-0.2405h-1.2451c-0.3745,0-0.7267,0.0802-1.0547,0.2405
		c-0.33,0.1603-0.6155,0.3779-0.8584,0.6528s-0.4353,0.5984-0.577,0.9705c-0.1417,0.3722-0.2126,0.7701-0.2126,1.1939v8.1766
		c0,0.4237,0.0709,0.8217,0.2126,1.1939c0.1417,0.3722,0.334,0.6957,0.577,0.9705c0.2429,0.2748,0.5284,0.4924,0.8584,0.6528
		c0.328,0.1603,0.6802,0.2405,1.0547,0.2405h1.2451c0.3745,0,0.7258-0.0802,1.0547-0.2405c0.329-0.1603,0.6155-0.3779,0.8585-0.6528
		c0.2429-0.2748,0.4352-0.5984,0.577-0.9705s0.2126-0.7701,0.2126-1.1939V11.7496z"/>
</g>
</svg>
