<?xml version="1.0" encoding="utf-8"?>
<!-- Generator: Adobe Illustrator 21.0.2, SVG Export Plug-In . SVG Version: 6.00 Build 0)  -->
<svg version="1.1" id="Capa_1" xmlns="http://www.w3.org/2000/svg" xmlns:xlink="http://www.w3.org/1999/xlink" x="0px" y="0px"
	 viewBox="0 0 204.266 219.3291" style="enable-background:new 0 0 204.266 219.3291;" xml:space="preserve">
<g>
	<g id="Document_4_">
		<path style="fill:#3F3F3F;" d="M31.5339,115.6923c0,0,3.3142-17.1684,4.2182-17.1684c0.9026,0,4.2155,0.5015,18.0743,4.0147
			c13.8587,3.5164,25.6081,6.5282,25.6081,6.5282s5.1212,1.5044,6.3263-1.9571c1.2049-3.4647,0.6031-3.4647,7.5311-1.6594
			c6.9294,1.8082,17.4739,4.82,17.4739,4.82s3.3143,1.2067,3.3143,3.6167s0,4.2153,0,4.2153l10.8438,2.7141
			c0,0,4.2185,0.9026,2.1077,8.1329c-2.1077,7.2302-25.9063,90.3797-25.9063,90.3797L31.5339,115.6923z"/>
		<path style="fill:#F1C40F;" d="M29.727,113.887c0,0,3.3127-17.1714,4.2169-17.1714c0.9042,0,4.2185,0.5015,18.0756,4.0147
			c13.8572,3.5165,25.6083,6.5282,25.6083,6.5282s5.1195,1.5074,6.3244-1.9573c1.2067-3.4647,0.6034-3.4647,7.5327-1.6562
			c6.9278,1.8053,17.4739,4.817,17.4739,4.817s3.3127,1.2065,3.3127,3.6167c0,2.41,0,4.2182,0,4.2182l10.844,2.7112
			c0,0,4.2183,0.9026,2.1107,8.1329c-2.1107,7.2303-25.9076,90.3796-25.9076,90.3796L29.727,113.887z"/>
		<path style="fill:#4C4C4C;" d="M102.9049,213.1109l-17.1441-81.1498c0,0,0.904-3.6135-4.8218-5.7227
			c-5.7227-2.1093-9.0355-2.4102-9.0355-2.4102s1.0061-6.0235-5.2212-7.832c-6.2273-1.8082-24.6038-7.5341-24.6038-7.5341
			l-2.7125,1.8083v2.1093L3.5156,101.2348l-3.5148,1.3038l20.9887,76.7216l80.1359,40.0689L102.9049,213.1109z"/>
		<path style="fill:#E67E22;" d="M101.1253,219.3291l-18.0756-85.5595c0,0,0.9026-3.6138-4.82-5.7229
			c-5.7245-2.1091-9.0387-2.41-9.0387-2.41s1.0075-6.0267-5.2212-7.832c-6.2273-1.8085-24.6038-7.5343-24.6038-7.5343
			l-2.7111,3.9176L0.8031,103.0401c0,0-1.8069-3.0118,0,5.7258c1.8082,8.7347,17.4739,72.3025,17.4739,72.3025L101.1253,219.3291z"
			/>
	</g>
	<path style="fill:#FFFFFF;stroke:#C7C5C5;stroke-width:0.5821;stroke-miterlimit:10;" d="M75.799,73.1769l-3.8955,50.6513
		c0,0,4.0937,1.0084,7.675,1.9265c3.756,0.9628,5.5542,2.1104,6.1824,5.2065c2.5781,12.7049,10.7309,50.7936,10.7309,50.7936
		l70.699-59.4896L75.799,73.1769z"/>
	<g>
		<g>
			
				<circle style="fill:#FFFFFF;stroke:#C7C5C5;stroke-width:0.5821;stroke-miterlimit:10;" cx="138.8353" cy="65.4307" r="63.5057"/>
			<circle style="fill:#DD4E31;" cx="138.8353" cy="65.4308" r="43.0095"/>
		</g>
		<path style="fill:none;stroke:#00A0AB;stroke-width:3.85;stroke-linecap:round;stroke-linejoin:round;stroke-miterlimit:10;" d="
			M202.341,65.4307c0-35.073-28.4323-63.5057-63.5057-63.5057c-35.073,0-63.5057,28.4327-63.5057,63.5057"/>
		<g>
			<g>
				<path style="fill:#FFFFFF;" d="M125.3444,68.692c0,2.541-0.8428,4.4941-2.5264,5.8564c-1.5,1.208-3.4521,1.8115-5.8574,1.8115
					c-1.3438,0-2.5557-0.1318-3.6367-0.3945c-0.0576-0.3994-0.1504-1.0566-0.2773-1.9717c-0.0781-0.5059-0.1846-1.1729-0.3213-2.001
					c1.0713,0.5938,2.1279,0.8906,3.1699,0.8906c2.4043,0,3.6074-0.7588,3.6074-2.2783c0-1.3633-0.9502-2.0449-2.8486-2.0449
					c-1.168,0-2.2783,0.2441-3.3301,0.7305l-1.5918-1.5771c0.3701-1.5479,0.9004-4.0605,1.5918-7.5361
					c0.292-1.7822,0.6279-3.9971,1.0078-6.6455h8.1641h1.0518c0.2051-0.0195,0.502-0.0684,0.8916-0.1455l-1.3145,7.2002h-6.2227
					l-0.6279,2.3662c1.1006-0.2832,2.2109-0.4238,3.3301-0.4238c1.5869,0,2.9355,0.5791,4.0459,1.7383
					C124.779,65.4547,125.3444,66.9303,125.3444,68.692z"/>
				<path style="fill:#FFFFFF;" d="M143.3727,64.2086c0,3.2422-0.7939,6.0654-2.3809,8.4707
					c-1.6162,2.4541-3.5439,3.6807-5.7832,3.6807c-2.4248,0-4.4307-1.2217-6.0176-3.666c-1.5088-2.3369-2.2637-5.1455-2.2637-8.4268
					c0-3.6807,0.8623-6.5049,2.585-8.4717c1.5-1.7031,3.4277-2.5557,5.7842-2.5557c2.2783,0,4.1523,0.8857,5.623,2.6582
					C142.5554,57.8746,143.3727,60.6451,143.3727,64.2086z M137.3991,67.4654c0-2.7266-0.7295-4.0898-2.1904-4.0898
					c-1.4316,0-2.1465,1.4072-2.1465,4.2207c0,1.0811,0.1895,2.0449,0.5693,2.8926c0.418,0.9346,0.9443,1.4014,1.5771,1.4014
					c0.6133,0,1.1396-0.4863,1.5771-1.46C137.195,69.5152,137.3991,68.5269,137.3991,67.4654z"/>
				<path style="fill:#FFFFFF;" d="M154.2878,59.3883c0,1.8213-0.4551,3.4033-1.3652,4.7471
					c-0.9102,1.3438-1.999,2.0156-3.2646,2.0156c-1.3818,0-2.5215-0.6768-3.417-2.0303c-0.8574-1.2949-1.2852-2.8721-1.2852-4.7324
					c0-2.0537,0.4766-3.6514,1.4307-4.79c0.8672-1.0322,1.9668-1.5479,3.3008-1.5479c1.3242,0,2.4004,0.5156,3.2285,1.5479
					C153.8307,55.7369,154.2878,57.3346,154.2878,59.3883z M164.1032,54.6422L150.4909,76.856l-2.3369-1.1826l12.3848-22.5937
					L164.1032,54.6422z M150.8854,61.273c0-1.2568-0.4092-1.8848-1.2275-1.8848c-0.8174,0-1.2266,0.6377-1.2266,1.9141
					c0,0.4863,0.1123,0.9297,0.3359,1.3291c0.2334,0.4375,0.5303,0.6572,0.8906,0.6572c0.3311,0,0.623-0.2295,0.877-0.6865
					C150.7682,62.1832,150.8854,61.7398,150.8854,61.273z M167.2429,69.5973c0.0098,1.8311-0.4404,3.4248-1.3506,4.7832
					c-0.9111,1.3584-2.0039,2.0381-3.2793,2.0381c-1.373,0-2.5117-0.6816-3.418-2.0449c-0.876-1.3047-1.3145-2.877-1.3145-4.7178
					c0-2.0635,0.4775-3.6709,1.4316-4.8193c0.8662-1.0322,1.9766-1.5478,3.3301-1.5478c1.3047,0,2.3711,0.5156,3.1982,1.5478
					C166.7556,65.9664,167.2233,67.5533,167.2429,69.5973z M163.8249,71.5113c0-1.2764-0.4033-1.9141-1.2119-1.9141
					c-0.8379,0-1.2559,0.6377-1.2559,1.9141c0,0.4863,0.1113,0.9395,0.3359,1.3574c0.2529,0.4482,0.5596,0.6719,0.9199,0.6719
					c0.3408,0,0.6377-0.2285,0.8906-0.6865C163.7184,72.4361,163.8249,71.9879,163.8249,71.5113z"/>
			</g>
		</g>
	</g>
</g>
</svg>
