<?xml version="1.0" encoding="utf-8"?>
<!-- Generator: Adobe Illustrator 21.0.2, SVG Export Plug-In . SVG Version: 6.00 Build 0)  -->
<svg version="1.1" id="Capa_1" xmlns="http://www.w3.org/2000/svg" xmlns:xlink="http://www.w3.org/1999/xlink" x="0px" y="0px"
	 viewBox="0 0 934.8945 416.1718" style="enable-background:new 0 0 934.8945 416.1718;" xml:space="preserve">
<polygon style="fill:#FFFFFF;stroke:#093751;stroke-miterlimit:10;" points="934.3945,400.5428 663.9632,400.5428 
	643.6335,415.5428 624.6331,400.5428 0.5,400.5428 0.5,0.5 934.3945,0.5 "/>
<polygon style="fill:#DD4E31;" points="152.4399,37.7616 0.7733,37.7616 0.7733,11.4574 152.4399,11.4574 164.4399,24.6095 "/>
<g>
	<path style="fill:#FFFFFF;" d="M21.9231,30.9021c-0.2324,0.5415-0.5518,1.0156-0.958,1.4219s-0.8809,0.7256-1.4219,0.9585
		c-0.542,0.2329-1.1221,0.3491-1.7393,0.3491H16.509c-0.6182,0-1.2002-0.1162-1.7461-0.3491s-1.0215-0.5522-1.4277-0.9585
		s-0.7256-0.8804-0.959-1.4219c-0.2324-0.5415-0.3486-1.1216-0.3486-1.7393v-9.7754c0-0.6177,0.1162-1.1978,0.3486-1.7393
		c0.2334-0.5415,0.5527-1.0156,0.959-1.4219c0.4063-0.4063,0.8818-0.7256,1.4277-0.9585s1.1279-0.3491,1.7461-0.3491h1.2949
		c0.6172,0,1.1973,0.1162,1.7393,0.3491c0.541,0.2329,1.0156,0.5522,1.4219,0.9585c0.4063,0.4063,0.7256,0.8804,0.958,1.4219
		c0.2334,0.5415,0.3496,1.1216,0.3496,1.7393v0.7363l-1.6377,0.2539v-0.9902c0-0.4063-0.0762-0.7852-0.2285-1.1362
		s-0.3604-0.6582-0.6221-0.9204c-0.2627-0.2622-0.5693-0.4697-0.9209-0.6221c-0.3506-0.1523-0.7295-0.2285-1.1357-0.2285h-1.1426
		c-0.4063,0-0.7852,0.0762-1.1367,0.2285c-0.3506,0.1523-0.6602,0.3599-0.9268,0.6221s-0.4756,0.5693-0.6279,0.9204
		s-0.2285,0.73-0.2285,1.1362v9.7754c0,0.4063,0.0762,0.7852,0.2285,1.1362s0.3613,0.6602,0.6279,0.9268
		s0.5762,0.4761,0.9268,0.6284c0.3516,0.1523,0.7305,0.2285,1.1367,0.2285h1.1426c0.4063,0,0.7852-0.0762,1.1357-0.2285
		c0.3516-0.1523,0.6582-0.3618,0.9209-0.6284c0.2617-0.2666,0.4697-0.5757,0.6221-0.9268s0.2285-0.73,0.2285-1.1362v-0.9902
		l1.6377,0.2666v0.7236C22.2727,29.7806,22.1565,30.3606,21.9231,30.9021z"/>
	<path style="fill:#FFFFFF;" d="M33.7805,31.2957c-0.1982,0.4653-0.4717,0.8716-0.8184,1.2188
		c-0.3477,0.3472-0.7539,0.6201-1.2188,0.8188c-0.4658,0.1987-0.9609,0.2983-1.4854,0.2983h-1.041
		c-0.5254,0-1.0205-0.0996-1.4854-0.2983c-0.4658-0.1987-0.8721-0.4717-1.2188-0.8188c-0.3477-0.3472-0.6201-0.7534-0.8193-1.2188
		c-0.1982-0.4653-0.2979-0.9604-0.2979-1.4854v-5.8652c0-0.5249,0.0996-1.02,0.2979-1.4854
		c0.1992-0.4653,0.4717-0.8716,0.8193-1.2188c0.3467-0.3472,0.7529-0.6201,1.2188-0.8188c0.4648-0.1987,0.96-0.2983,1.4854-0.2983
		h1.041c0.5244,0,1.0195,0.0996,1.4854,0.2983c0.4648,0.1987,0.8711,0.4717,1.2188,0.8188
		c0.3467,0.3472,0.6201,0.7534,0.8184,1.2188c0.1992,0.4653,0.2988,0.9604,0.2988,1.4854v5.8652
		C34.0793,30.3352,33.9797,30.8304,33.7805,31.2957z M32.5178,23.8562c0-0.313-0.0596-0.6074-0.1777-0.8823
		c-0.1191-0.2749-0.2793-0.5142-0.4824-0.7173c-0.2031-0.2031-0.4424-0.3638-0.7178-0.4824
		c-0.2744-0.1187-0.5693-0.1777-0.8818-0.1777h-1.041c-0.3135,0-0.6074,0.0591-0.8828,0.1777
		c-0.2744,0.1187-0.5137,0.2793-0.7168,0.4824s-0.3643,0.4424-0.4824,0.7173c-0.1191,0.2749-0.1777,0.5693-0.1777,0.8823v6.043
		c0,0.313,0.0586,0.6074,0.1777,0.8823c0.1182,0.2749,0.2793,0.5142,0.4824,0.7173s0.4424,0.3638,0.7168,0.4824
		c0.2754,0.1187,0.5693,0.1777,0.8828,0.1777h1.041c0.3125,0,0.6074-0.0591,0.8818-0.1777
		c0.2754-0.1187,0.5146-0.2793,0.7178-0.4824c0.2031-0.2031,0.3633-0.4424,0.4824-0.7173c0.1182-0.2749,0.1777-0.5693,0.1777-0.8823
		V23.8562z"/>
	<path style="fill:#FFFFFF;" d="M44.3245,33.3777v-9.5215c0-0.313-0.0596-0.6074-0.1777-0.8823
		c-0.1191-0.2749-0.2793-0.5142-0.4824-0.7173s-0.4424-0.3638-0.7178-0.4824c-0.2744-0.1187-0.5693-0.1777-0.8818-0.1777h-1.041
		c-0.3135,0-0.6074,0.0591-0.8828,0.1777c-0.2744,0.1187-0.5137,0.2793-0.7168,0.4824s-0.3643,0.4424-0.4824,0.7173
		c-0.1191,0.2749-0.1777,0.5693-0.1777,0.8823v9.5215h-1.5615v-13h0.5205l0.8506,1.3203c0.3555-0.4824,0.8018-0.8652,1.3389-1.1489
		c0.5381-0.2837,1.124-0.4253,1.7588-0.4253h0.3936c0.5244,0,1.0195,0.0996,1.4854,0.2983
		c0.4648,0.1987,0.8711,0.4717,1.2188,0.8188c0.3467,0.3472,0.6201,0.7534,0.8184,1.2188c0.1992,0.4653,0.2988,0.9604,0.2988,1.4854
		v9.4326H44.3245z"/>
	<path style="fill:#FFFFFF;" d="M57.3938,31.2957c-0.1982,0.4653-0.4717,0.8716-0.8184,1.2188
		c-0.3477,0.3472-0.7539,0.6201-1.2188,0.8188c-0.4658,0.1987-0.9609,0.2983-1.4854,0.2983h-1.041
		c-0.5254,0-1.0205-0.0996-1.4854-0.2983c-0.4658-0.1987-0.8721-0.4717-1.2188-0.8188c-0.3477-0.3472-0.6201-0.7534-0.8193-1.2188
		c-0.1982-0.4653-0.2979-0.9604-0.2979-1.4854v-5.8652c0-0.5249,0.0996-1.02,0.2979-1.4854
		c0.1992-0.4653,0.4717-0.8716,0.8193-1.2188c0.3467-0.3472,0.7529-0.6201,1.2188-0.8188c0.4648-0.1987,0.96-0.2983,1.4854-0.2983
		h1.041c0.5244,0,1.0195,0.0996,1.4854,0.2983c0.4648,0.1987,0.8711,0.4717,1.2188,0.8188
		c0.3467,0.3472,0.6201,0.7534,0.8184,1.2188c0.1992,0.4653,0.2988,0.9604,0.2988,1.4854v5.8652
		C57.6926,30.3352,57.593,30.8304,57.3938,31.2957z M56.1311,23.8562c0-0.313-0.0596-0.6074-0.1777-0.8823
		c-0.1191-0.2749-0.2793-0.5142-0.4824-0.7173s-0.4424-0.3638-0.7178-0.4824c-0.2744-0.1187-0.5693-0.1777-0.8818-0.1777h-1.041
		c-0.3135,0-0.6074,0.0591-0.8828,0.1777c-0.2744,0.1187-0.5137,0.2793-0.7168,0.4824s-0.3643,0.4424-0.4824,0.7173
		c-0.1191,0.2749-0.1777,0.5693-0.1777,0.8823v6.043c0,0.313,0.0586,0.6074,0.1777,0.8823
		c0.1182,0.2749,0.2793,0.5142,0.4824,0.7173s0.4424,0.3638,0.7168,0.4824c0.2754,0.1187,0.5693,0.1777,0.8828,0.1777h1.041
		c0.3125,0,0.6074-0.0591,0.8818-0.1777c0.2754-0.1187,0.5146-0.2793,0.7178-0.4824s0.3633-0.4424,0.4824-0.7173
		c0.1182-0.2749,0.1777-0.5693,0.1777-0.8823V23.8562z"/>
	<path style="fill:#FFFFFF;" d="M69.2004,31.2957c-0.1982,0.4653-0.4717,0.8716-0.8184,1.2188
		c-0.3477,0.3472-0.7539,0.6201-1.2188,0.8188c-0.4658,0.1987-0.9609,0.2983-1.4854,0.2983h-1.041
		c-0.5254,0-1.0205-0.0996-1.4853-0.2983c-0.4658-0.1987-0.8721-0.4717-1.2188-0.8188c-0.3477-0.3472-0.6201-0.7534-0.8193-1.2188
		c-0.1982-0.4653-0.2979-0.9604-0.2979-1.4854v-5.8652c0-0.5249,0.0996-1.02,0.2979-1.4854
		c0.1992-0.4653,0.4717-0.8716,0.8193-1.2188c0.3467-0.3472,0.7529-0.6201,1.2188-0.8188c0.4648-0.1987,0.96-0.2983,1.4853-0.2983
		h1.041c0.5244,0,1.0195,0.0996,1.4854,0.2983c0.4648,0.1987,0.8711,0.4717,1.2188,0.8188
		c0.3467,0.3472,0.6201,0.7534,0.8184,1.2188c0.1992,0.4653,0.2988,0.9604,0.2988,1.4854v0.5205l-1.5615,0.2539v-0.8633
		c0-0.313-0.0596-0.6074-0.1777-0.8823c-0.1191-0.2749-0.2793-0.5142-0.4824-0.7173s-0.4424-0.3638-0.7178-0.4824
		c-0.2744-0.1187-0.5693-0.1777-0.8818-0.1777h-1.041c-0.3135,0-0.6074,0.0591-0.8828,0.1777
		c-0.2744,0.1187-0.5137,0.2793-0.7168,0.4824s-0.3643,0.4424-0.4824,0.7173c-0.1191,0.2749-0.1777,0.5693-0.1777,0.8823v6.043
		c0,0.313,0.0586,0.6074,0.1777,0.8823c0.1182,0.2749,0.2793,0.5142,0.4824,0.7173s0.4424,0.3638,0.7168,0.4824
		c0.2754,0.1187,0.5693,0.1777,0.8828,0.1777h1.041c0.3125,0,0.6074-0.0591,0.8818-0.1777
		c0.2754-0.1187,0.5146-0.2793,0.7178-0.4824s0.3633-0.4424,0.4824-0.7173c0.1182-0.2749,0.1777-0.5693,0.1777-0.8823v-0.8633
		l1.5615,0.2539v0.5205C69.4993,30.3352,69.3996,30.8304,69.2004,31.2957z"/>
	<path style="fill:#FFFFFF;" d="M73.0159,17.2547v-2.082h1.8154v2.082H73.0159z M73.1428,33.3777v-13h1.5615v13H73.1428z"/>
	<path style="fill:#FFFFFF;" d="M92.0715,33.3777v-9.5215c0-0.313-0.0596-0.6074-0.1777-0.8823
		c-0.1191-0.2749-0.2793-0.5142-0.4824-0.7173s-0.4424-0.3638-0.7178-0.4824c-0.2744-0.1187-0.5693-0.1777-0.8818-0.1777h-0.7744
		c-0.3135,0-0.6074,0.0591-0.8828,0.1777c-0.2744,0.1187-0.5156,0.2793-0.7236,0.4824c-0.207,0.2031-0.3701,0.4424-0.4883,0.7173
		c-0.1191,0.2749-0.1777,0.5693-0.1777,0.8823v9.5215H85.216v-9.5215c0-0.313-0.0596-0.6074-0.1777-0.8823
		c-0.1191-0.2749-0.2813-0.5142-0.4893-0.7173c-0.207-0.2031-0.4482-0.3638-0.7236-0.4824
		c-0.2744-0.1187-0.5693-0.1777-0.8818-0.1777h-0.7744c-0.3135,0-0.6074,0.0591-0.8828,0.1777
		c-0.2744,0.1187-0.5137,0.2793-0.7168,0.4824s-0.3643,0.4424-0.4824,0.7173c-0.1191,0.2749-0.1777,0.5693-0.1777,0.8823v9.5215
		h-1.5615v-13h0.5205l0.8506,1.3203c0.3555-0.4824,0.8018-0.8652,1.3389-1.1489c0.5381-0.2837,1.124-0.4253,1.7588-0.4253h0.127
		c0.7363,0,1.4004,0.1821,1.9932,0.5459c0.5918,0.3638,1.0488,0.8462,1.3711,1.4473c0.1602-0.2964,0.3594-0.5669,0.5967-0.8125
		c0.2363-0.2456,0.499-0.4551,0.7871-0.6284c0.2871-0.1733,0.6006-0.3091,0.9395-0.4063c0.3379-0.0972,0.6895-0.146,1.0537-0.146
		h0.127c0.5244,0,1.0195,0.0996,1.4854,0.2983c0.4648,0.1987,0.8711,0.4717,1.2188,0.8188
		c0.3467,0.3472,0.6201,0.7534,0.8184,1.2188c0.1992,0.4653,0.2988,0.9604,0.2988,1.4854v9.4326H92.0715z"/>
	<path style="fill:#FFFFFF;" d="M97.1496,17.2547v-2.082h1.8154v2.082H97.1496z M97.2766,33.3777v-13h1.5615v13H97.2766z"/>
	<path style="fill:#FFFFFF;" d="M110.8664,31.2957c-0.1982,0.4653-0.4717,0.8716-0.8184,1.2188
		c-0.3477,0.3472-0.7539,0.6201-1.2188,0.8188c-0.4658,0.1987-0.9609,0.2983-1.4854,0.2983h-1.041
		c-0.5254,0-1.0205-0.0996-1.4854-0.2983c-0.4658-0.1987-0.8721-0.4717-1.2188-0.8188c-0.3477-0.3472-0.6201-0.7534-0.8193-1.2188
		c-0.1982-0.4653-0.2979-0.9604-0.2979-1.4854v-5.8652c0-0.5249,0.0996-1.02,0.2979-1.4854
		c0.1992-0.4653,0.4717-0.8716,0.8193-1.2188c0.3467-0.3472,0.7529-0.6201,1.2188-0.8188c0.4648-0.1987,0.96-0.2983,1.4854-0.2983
		h1.041c0.5244,0,1.0195,0.0996,1.4854,0.2983c0.4648,0.1987,0.8711,0.4717,1.2188,0.8188
		c0.3467,0.3472,0.6201,0.7534,0.8184,1.2188c0.1992,0.4653,0.2988,0.9604,0.2988,1.4854v3.0596h-7.1221v2.8945
		c0,0.313,0.0586,0.6074,0.1777,0.8823c0.1182,0.2749,0.2793,0.5142,0.4824,0.7173s0.4424,0.3638,0.7168,0.4824
		c0.2754,0.1187,0.5693,0.1777,0.8828,0.1777h1.041c0.3125,0,0.6074-0.0591,0.8818-0.1777
		c0.2754-0.1187,0.5146-0.2793,0.7178-0.4824s0.3633-0.4424,0.4824-0.7173c0.1182-0.2749,0.1777-0.5693,0.1777-0.8823v-0.8633
		l1.5615,0.2539v0.5205C111.1653,30.3352,111.0657,30.8304,110.8664,31.2957z M109.6037,23.8562
		c0-0.313-0.0596-0.6074-0.1777-0.8823c-0.1191-0.2749-0.2793-0.5142-0.4824-0.7173s-0.4424-0.3638-0.7178-0.4824
		c-0.2744-0.1187-0.5693-0.1777-0.8818-0.1777h-1.041c-0.3135,0-0.6074,0.0591-0.8828,0.1777
		c-0.2744,0.1187-0.5137,0.2793-0.7168,0.4824s-0.3643,0.4424-0.4824,0.7173c-0.1191,0.2749-0.1777,0.5693-0.1777,0.8823v1.9297
		h5.5605V23.8562z"/>
	<path style="fill:#FFFFFF;" d="M121.4104,33.3777v-9.5215c0-0.313-0.0596-0.6074-0.1777-0.8823
		c-0.1191-0.2749-0.2793-0.5142-0.4824-0.7173s-0.4424-0.3638-0.7178-0.4824c-0.2744-0.1187-0.5693-0.1777-0.8818-0.1777h-1.041
		c-0.3135,0-0.6074,0.0591-0.8828,0.1777c-0.2744,0.1187-0.5137,0.2793-0.7168,0.4824s-0.3643,0.4424-0.4824,0.7173
		c-0.1191,0.2749-0.1777,0.5693-0.1777,0.8823v9.5215h-1.5615v-13h0.5205l0.8506,1.3203c0.3555-0.4824,0.8018-0.8652,1.3389-1.1489
		c0.5381-0.2837,1.124-0.4253,1.7588-0.4253h0.3936c0.5244,0,1.0195,0.0996,1.4854,0.2983
		c0.4648,0.1987,0.8711,0.4717,1.2188,0.8188c0.3467,0.3472,0.6201,0.7534,0.8184,1.2188c0.1992,0.4653,0.2988,0.9604,0.2988,1.4854
		v9.4326H121.4104z"/>
	<path style="fill:#FFFFFF;" d="M130.8303,33.3777c-0.4746,0-0.9209-0.0889-1.3398-0.2666s-0.7822-0.4233-1.0918-0.7363
		c-0.3086-0.313-0.5537-0.6772-0.7363-1.0918c-0.1816-0.4146-0.2725-0.8589-0.2725-1.333v-8.0869h-2.3359v-1.4854h2.3359v-3.123
		l1.5615-0.2539v3.377h3.3008v1.4854h-3.3008v8.1631c0,0.2622,0.0488,0.5059,0.1455,0.73c0.0977,0.2241,0.2305,0.4209,0.4004,0.5903
		c0.1689,0.1694,0.3682,0.3027,0.5967,0.3999s0.4736,0.146,0.7363,0.146h1.4219v1.4854H130.8303z"/>
	<path style="fill:#FFFFFF;" d="M143.5061,31.2957c-0.1982,0.4653-0.4717,0.8716-0.8184,1.2188
		c-0.3477,0.3472-0.7539,0.6201-1.2188,0.8188c-0.4658,0.1987-0.9609,0.2983-1.4854,0.2983h-1.041
		c-0.5254,0-1.0205-0.0996-1.4854-0.2983c-0.4658-0.1987-0.8721-0.4717-1.2188-0.8188c-0.3477-0.3472-0.6201-0.7534-0.8193-1.2188
		c-0.1982-0.4653-0.2979-0.9604-0.2979-1.4854v-5.8652c0-0.5249,0.0996-1.02,0.2979-1.4854
		c0.1992-0.4653,0.4717-0.8716,0.8193-1.2188c0.3467-0.3472,0.7529-0.6201,1.2188-0.8188c0.4648-0.1987,0.96-0.2983,1.4854-0.2983
		h1.041c0.5244,0,1.0195,0.0996,1.4854,0.2983c0.4648,0.1987,0.8711,0.4717,1.2188,0.8188
		c0.3467,0.3472,0.6201,0.7534,0.8184,1.2188c0.1992,0.4653,0.2988,0.9604,0.2988,1.4854v5.8652
		C143.8049,30.3352,143.7053,30.8304,143.5061,31.2957z M142.2434,23.8562c0-0.313-0.0596-0.6074-0.1777-0.8823
		c-0.1191-0.2749-0.2793-0.5142-0.4824-0.7173s-0.4424-0.3638-0.7178-0.4824c-0.2744-0.1187-0.5693-0.1777-0.8818-0.1777h-1.041
		c-0.3135,0-0.6074,0.0591-0.8828,0.1777c-0.2744,0.1187-0.5137,0.2793-0.7168,0.4824s-0.3643,0.4424-0.4824,0.7173
		c-0.1191,0.2749-0.1777,0.5693-0.1777,0.8823v6.043c0,0.313,0.0586,0.6074,0.1777,0.8823
		c0.1182,0.2749,0.2793,0.5142,0.4824,0.7173s0.4424,0.3638,0.7168,0.4824c0.2754,0.1187,0.5693,0.1777,0.8828,0.1777h1.041
		c0.3125,0,0.6074-0.0591,0.8818-0.1777c0.2754-0.1187,0.5146-0.2793,0.7178-0.4824s0.3633-0.4424,0.4824-0.7173
		c0.1182-0.2749,0.1777-0.5693,0.1777-0.8823V23.8562z"/>
</g>
</svg>
