<?xml version="1.0" encoding="utf-8"?>
<!-- Generator: Adobe Illustrator 21.0.2, SVG Export Plug-In . SVG Version: 6.00 Build 0)  -->
<svg version="1.1" id="Capa_1" xmlns="http://www.w3.org/2000/svg" xmlns:xlink="http://www.w3.org/1999/xlink" x="0px" y="0px"
	 viewBox="0 0 442.6588 432.5831" style="enable-background:new 0 0 442.6588 432.5831;" xml:space="preserve">
<g>
	<defs>
		<rect id="SVGID_64_" x="196" y="-570.0455" width="442.6588" height="460.6301"/>
	</defs>
	<clipPath id="SVGID_2_">
		<use xlink:href="#SVGID_64_"  style="overflow:visible;"/>
	</clipPath>
	<g style="clip-path:url(#SVGID_2_);">
		<g>
			<path style="fill:#593A11;" d="M339.8113,232.741c0,0-2.2978-6.1273-1.0212-7.4039c1.2765-1.2765,50.04-1.5318,50.04-1.5318
				l48.8401-21.2714c0,0,0.9446,7.2296,0.6893,9.0167c-0.2553,1.7871-6.6654,6.2524-17.8715,8.6804
				c-15.3184,3.319-17.1055,7.9145-29.1049,12.51C379.3838,237.3365,357.6827,236.3153,339.8113,232.741z"/>
			<path style="fill:#76531E;stroke:#664614;stroke-miterlimit:10;" d="M391.1279,180.9361c0,0-2.0424,10.9782-12.7653,16.0843
				c-10.7228,5.1061-39.1887,7.9991-40.9351,17.0803c-0.5302,2.757,0.6892,10.9219,0.6892,10.9219s24.9275,5.9536,41.2671,3.9111
				s18.8926-9.7016,28.339-11.7441c9.4463-2.0424,27.5731-5.872,29.3602-13.7865c-0.7596-9.6233-4.8508-16.5949-4.8508-16.5949
				l-3.319-8.9357L391.1279,180.9361z"/>
			<path style="fill:#C39145;stroke:#664614;stroke-miterlimit:10;" d="M360.9031-189.3824c0,0-5.0504,71.7166,0,123.2314
				c5.0505,51.5148,11.111,112.1204,16.1615,136.3626s14.1413,56.5652,7.0706,62.6258c-7.0706,6.0606-7.0706,15.1514-2.0202,26.2624
				s7.0706,27.2725,7.0706,27.2725s12.1211-11.111,27.2725,1.0101s23.2321,13.1312,23.2321,13.1312s-1.0101-10.1009-1.0101-18.1817
				s-7.0707-16.1615-4.0404-36.3634c3.0303-20.2019,5.0504-32.323-1.0101-52.5249c-6.0606-20.2019,3.0303-63.6359,0-84.8479
				s-4.0404-120.2011-4.0404-120.2011l-11.111-69.6964C418.4784-181.3017,389.1857-173.2209,360.9031-189.3824z"/>
			<path style="opacity:0.4;fill:#545454;" d="M423.5289,98.4942c3.0303,26.2624,0,51.5148,4.0404,77.7772
				c1.0101,3.0303,4.0404,5.0505,4.0404,9.0909c-0.4876,4.8764,0.4469,9.2773,2.3297,13.2121
				c3.7911,1.6916,5.751,1.9393,5.751,1.9393s-1.0101-10.1009-1.0101-18.1817s-7.0707-16.1615-4.0404-36.3634
				c3.0303-20.2019,5.0504-32.323-1.0101-52.5249c-6.0606-20.2019,3.0303-63.6359,0-84.8479s-4.0404-120.2011-4.0404-120.2011
				l-11.111-69.6964c0,0-3.2474,0.892-8.6132,1.4897c-5.124,16.8159-2.7581,34.2699,5.5829,50.0251
				c-8.0807,1.0101-23.2321,6.0606-18.1817,12.1211c5.0505,6.0606,20.2019-6.0606,25.2523,4.0404
				c6.0605,13.1312,6.0605,30.3028,3.0303,42.4239c-3.0303,10.1009-7.0706,24.2422-4.0404,34.3432
				c4.0404,10.1009,5.0505,22.2221,5.0505,33.3331C423.5289,30.818,417.4683,64.1511,423.5289,98.4942z"/>
			<path style="fill:#CFAC81;" d="M427.4198,195.1215c-3.0948-1.868-6.7527-4.3719-10.9616-7.739
				c-15.1514-12.1211-27.2725-1.0101-27.2725-1.0101s-2.0202-16.1615-7.0706-27.2725s-5.0505-20.2019,2.0202-26.2624
				c7.0707-6.0606-2.0202-38.3835-7.0706-62.6258s-11.111-84.8479-16.1615-136.3626c-5.0504-51.5148,0-123.2314,0-123.2314
				l10.8556,5.0807c-2.2562,40.1247-16.431,77.813-6.8152,119.1608c6.0606,27.2725,1.0101,52.5249,8.0807,78.7873
				c3.0303,8.0807,6.0606,16.1615,7.0706,24.2422c5.0505,32.323,3.0303,61.6157,15.1514,91.9185
				c3.0303,7.0706-3.0303,12.1211-7.0707,18.1817c-7.0706,9.0908,0,20.2019,6.0606,27.2725
				c7.0706,8.0807,21.2119-3.0303,28.2826,9.0908L427.4198,195.1215z"/>
			<path style="fill:#C39145;stroke:#664614;stroke-miterlimit:10;" d="M420.6207-183.779
				c-10.4642,2.5919-10.3509,42.9963,3.1849,57.3283c0,0,12.7396,54.1434,13.5359,77.234
				c0.7962,23.0906,22.2943,66.0868,23.8868,122.6189c1.5925,56.5321,10.351,38.2189,10.351,48.5698s-10.351,18.3132-7.9622,32.6453
				c2.3887,14.3321,17.517,26.2755,15.9245,34.2378c-1.5924,7.9623,3.9811,15.1283,3.9811,15.1283s3.9811-12.7396,23.8868-15.1283
				c19.9056-2.3887,22.2944,1.5925,22.2944,1.5925s7.166-23.0906,3.1849-31.8491c-3.9811-8.7585-8.7585-7.166-8.7585-16.7208
				c0-9.5547-12.7396-94.751-15.1283-124.2114c-2.3887-29.4604-11.1472-157.6529-11.1472-157.6529l-17.4016-56.4237
				C480.4532-196.4103,427.7424-185.543,420.6207-183.779z"/>
			<path style="opacity:0.4;fill:#545454;" d="M478.0739,151.0191c-3.0303,1.0101-5.0505-3.0303-8.0807-2.0202
				c-1.0101-5.0505-2.0202-10.1009,1.0101-14.1413c7.0707-8.0807,4.0404-18.1817,1.0101-27.2725
				c-14.1413-43.434-4.0404-92.9286-24.2422-136.3626c-1.0101-3.0303,1.0101-8.0807,0-11.111
				c-2.0202-4.0404-7.0706-8.0807-7.0706-12.1211c-2.0202-24.2422-9.0909-48.4845-7.0706-71.7166
				c0-4.0404,10.1009-3.0303,16.1615-6.0606c-6.0606-6.0605-16.1615,1.0101-20.2019-5.0505
				c-3.0303-3.0303-5.0505-9.0908-7.0706-14.1413c-4.7715-7.9525-6.4116-17.1562-7.8797-26.1343
				c-3.4973,13.2934-0.8287,38.0789,9.1665,48.6622c0,0,12.7397,54.1434,13.5359,77.234s22.2943,66.0868,23.8868,122.619
				c1.5924,56.5321,10.351,38.2189,10.351,48.5698c0,10.351-10.351,18.3132-7.9623,32.6453
				c2.3888,14.3321,17.5171,26.2755,15.9246,34.2377c-1.5924,7.9623,3.9811,15.1283,3.9811,15.1283s0.9876-3.1539,4.4295-6.6173
				c-1.8354-7.1748-5.2175-14.5732-6.848-21.0948C479.084,169.2008,479.084,160.11,478.0739,151.0191z"/>
		</g>
	</g>
</g>
<g>
	<defs>
		<rect id="SVGID_70_" y="-23.837" width="442.6588" height="460.6301"/>
	</defs>
	<clipPath id="SVGID_4_">
		<use xlink:href="#SVGID_70_"  style="overflow:visible;"/>
	</clipPath>
	<g style="clip-path:url(#SVGID_4_);">
		<g>
			<path style="fill:#CE8452;stroke:#6B4429;stroke-miterlimit:10;" d="M44.0815,180.6742c0,0,4.0073,7.2719,5.0114,11.2148
				c1.0041,3.9429-8.2996,7.7702-9.3739,5.057c-1.0743-2.7132-6.706-11.971-4.5139-12.9696S42.0973,179.5983,44.0815,180.6742z"/>
			<path style="fill:#FFA96A;stroke:#6B4429;stroke-linecap:round;stroke-linejoin:round;stroke-miterlimit:10;" d="
				M92.2171,277.025c-11.0588-22.0824-31.8905-34.5072-31.469-50.9139c1.3838-5.2757,1.5033-12.4614-0.5851-20.4738
				s-1.9646-9.8895-3.8839-11.3728c-1.9193-1.4833-5.3915-4.22-14.107-0.6115c-8.7155,3.6086-19.0917,9.666-16.7857,18.513
				c2.306,8.847,8.251,20.2713,12.3328,23.7941c7.9994,6.904,22.763,59.0628,31.1409,67.1055S103.2759,299.1075,92.2171,277.025z"/>
			<path style="fill:#FFA96A;stroke:#6B4429;stroke-linecap:round;stroke-linejoin:round;stroke-miterlimit:10;" d="
				M46.0024,198.7164c-1.1282-4.3289-1.2325-12.5345-1.0942-14.8706c0.1552-2.6213-0.8599-7.6919-6.445-6.1861
				c-3.8662,1.0424-4.2338,3.7498-3.6523,7.745c0.5604,3.8495,1.5683,13.3101,3.2175,17.34c0.8536-0.0295,2.1302-0.2305,3.919-0.896
				C44.3467,200.9562,45.4877,199.5925,46.0024,198.7164z"/>
			<path style="fill:#CE8452;stroke:#6B4429;stroke-miterlimit:10;" d="M44.5785,207.5897c3.493-1.2995,3.4428-3.8443,1.8832-7.4757
				c-0.1697-0.395-0.3217-0.8692-0.4593-1.3976c-0.5147,0.8761-1.6557,2.2398-4.055,3.1324
				c-1.7888,0.6655-3.0654,0.8664-3.919,0.896c0.0623,0.1526,0.1255,0.2997,0.1897,0.436
				C39.9803,206.9199,41.0855,208.8892,44.5785,207.5897z"/>
			<path style="fill:#FFA96A;stroke:#6B4429;stroke-linecap:round;stroke-linejoin:round;stroke-miterlimit:10;" d="
				M31.376,209.6224c-1.6766-3.1229-3.1546-9.6427-3.4349-11.5484c-0.3146-2.1384-2.0224-5.8867-6.4346-3.0363
				c-3.0543,1.9731-2.9026,4.243-1.7395,7.2607c1.1208,2.9077,3.5666,10.1627,5.6279,12.8931
				c0.7083-0.2755,1.7412-0.8127,3.1233-1.8718C30.3719,211.899,31.0943,210.4737,31.376,209.6224z"/>
			<path style="fill:#CE8452;stroke:#6B4429;stroke-miterlimit:10;" d="M31.69,217.1262c2.6989-2.0682,2.2256-4.085,0.3067-6.5237
				c-0.2087-0.2653-0.4162-0.5989-0.6208-0.9801c-0.2816,0.8513-1.004,2.2767-2.8578,3.6973
				c-1.3821,1.0591-2.4149,1.5963-3.1233,1.8718c0.078,0.1034,0.1556,0.2022,0.2325,0.2921
				C27.7337,217.9485,28.9911,219.1944,31.69,217.1262z"/>
			<path style="fill:#FFA96A;stroke:#6B4429;stroke-linecap:round;stroke-linejoin:round;stroke-miterlimit:10;" d="
				M39.0442,204.8295c-1.716-4.044-3.5363-14.314-3.7255-16.645c-0.2124-2.6156-1.9203-7.4133-7.2174-4.8171
				c-3.6668,1.7971-3.6518,4.5399-2.5215,8.3636c1.0893,3.6842,3.9755,15.012,6.1635,18.6573
				c0.8375-0.199,2.0683-0.6512,3.7393-1.6633C37.7239,207.3675,38.6588,205.7958,39.0442,204.8295z"/>
			<path style="fill:#CE8452;stroke:#6B4429;stroke-miterlimit:10;" d="M38.8774,213.8622c3.2631-1.9764,2.8587-4.4757,0.8146-7.746
				c-0.2224-0.3557-0.4384-0.793-0.6478-1.2867c-0.3854,0.9663-1.3203,2.538-3.5616,3.8955
				c-1.671,1.0121-2.9018,1.4643-3.7393,1.6633c0.0827,0.1381,0.1655,0.2705,0.2479,0.3922
				C34.25,214.1167,35.6143,215.8386,38.8774,213.8622z"/>
			<path style="fill:#CE8452;" d="M50.0779,220.1055c0,0-2.2602-1.5723-2.3388-3.353s-2.5027,1.3861-4.5645,0.2904
				c-2.0617-1.0957-4.0282-4.3835-4.0282-4.3835s10.0424-4.1633,13.6072-0.462c3.5648,3.7013,3.9321,5.1106,3.9321,5.1106
				l-5.4435,2.3644L50.0779,220.1055z"/>
			<path style="fill:#FFA96A;stroke:#6B4429;stroke-linecap:round;stroke-linejoin:round;stroke-miterlimit:10;" d="
				M52.369,234.5385c0,0,7.6571-1.2006,10.003-8.6653c2.3459-7.4647,3.0587-14.1387,1.1669-17.2803s-10.8633-6.3959-13.5959-6.2949
				c-2.7325,0.101-5.3278,3.0807-7.1007,3.9234s-6.5394,0.7848-7.4923,2.4211c-0.9529,1.6363,2.0884,8.0124,6.2617,7.5585
				s5.1446-3.1957,8.5047-2.0652c0.7615,0.2562,1.4354,0.5388,2.0223,0.8228c2.0029,0.9691,2.9929,1.9536,2.9929,1.9536
				s-2.1566-2.5581-3.7407-0.3208c-1.584,2.2373-3.3067,5.6248-3.1878,9.609"/>
			<path style="fill:#E8AD85;stroke:#7C5337;stroke-linecap:round;stroke-linejoin:round;stroke-miterlimit:10;" d="
				M40.7495,208.7544c0.6542,0.8108,0.9903,1.6372,0.9121,2.484c0,0-3.2857,1.8015-5.0906-0.9295"/>
			<path style="fill:#FFA96A;stroke:#6B4429;stroke-linecap:round;stroke-linejoin:round;stroke-miterlimit:10;" d="
				M58.1414,197.4169c0,0-3.1164-16.7558-4.2436-21.6951s-10.9993-26.5609-12.9765-29.8443s-3.3461,7.784-0.7612,15.243
				c2.5849,7.459,5.8328,18.6904,5.8328,18.6904s0.3996,6.8642,1.3025,13.1941"/>
			<path style="fill:#CE8452;" d="M40.1601,161.1205c2.585,7.459,5.8328,18.6904,5.8328,18.6904s0.3997,6.8642,1.3026,13.1941
				l1.2893,0.5246c0,0,0.447-9.9489-0.6191-14.3975c-1.0661-4.4486-5.028-14.8521-6.1056-18.8251
				c-1.0776-3.973-1.4125-8.2307-1.4125-8.2307l-1.0683-3.302C38.0083,150.568,38.782,157.1438,40.1601,161.1205z"/>
		</g>
		<path style="fill:#CE8452;" d="M37.7191,235.9601c7.9994,6.904,22.7629,59.0625,31.1408,67.1055
			c-7.3961-13.6072-17.3728-45.3252-18.9618-46.7497c-1.8374-1.647-1.7649-2.2553-2.9675-8.0155
			c-1.2026-5.7602-3.9005-12.2507-5.6526-16.7688c-1.5277-3.9396-4.5388-5.5639-14.0399-13.6359
			C30.0743,225.4024,34.4818,233.1661,37.7191,235.9601z"/>
		<g>
			
				<path style="fill:#E1E9F5;stroke:#7788A1;stroke-width:0.691;stroke-linecap:round;stroke-linejoin:round;stroke-miterlimit:10;" d="
				M62.1245,231.2274c3.3139,1.3049,4.7667,9.5167,4.7667,9.5167s-6.6465,14.0355-18.6911,15.2227
				c-2.989-1.2728-5.0365-11.5008-5.0365-11.5008C46.4075,244.6481,59.122,241.1952,62.1245,231.2274z"/>
			<g>
				<path style="fill:#EDF2F9;" d="M64.4506,243.6965c1.5488-1.72,2.4407-2.9525,2.4407-2.9525s-1.4245-8.1295-4.7152-9.4932
					l-0.0833,0.0703c-0.4395,1.4222-1.08,2.6745-1.861,3.7789C63.2814,237.6923,64.7426,239.7037,64.4506,243.6965z"/>
				<path style="fill:#C7D7EE;" d="M43.1856,244.6591c0,0,2.0285,10.0606,5.0146,11.3076c0.9163-0.0905,1.7994-0.2832,2.6561-0.544
					c-1.7169-1.2664-1.8058-2.0787-3.5447-7.29c-0.4257-1.2754-1.003-2.3763-1.4101-3.7353
					C44.7518,244.6136,43.8008,244.692,43.1856,244.6591z"/>
			</g>
		</g>
		<g>
			<path style="fill:#619BBC;stroke:#2F4A56;stroke-linecap:round;stroke-linejoin:round;stroke-miterlimit:10;" d="
				M127.4321,193.2422c-1.026-0.402-1.6619-1.1365-1.9815-1.9728c-0.2637-0.1663-0.5074-0.3636-0.7224-0.5858
				c-5.8945,8.8122-11.2321,20.2326-15.1043,29.6053c-2.5924,6.2753-17.0614,40.1391-20.0632,48.755
				c-4.4028-8.616-23.8245-38.9418-23.8245-38.9418c-0.0001,9.34-22.1157,20.1425-22.1157,20.1425s14.7876,43.0621,28.635,59.0916
				c10.4826,12.1345,19.3064,10.3402,29.5125,4.1364c7.6735-4.6643,42.5924-57.2118,45.1463-70.1858
				c1.0031-5.0944,1.2726-17.1068,0.603-29.4865C143.494,204.805,137.4302,197.1587,127.4321,193.2422z"/>
			<path style="fill:#95B9FF;" d="M125.4432,191.2462c-0.106-0.0671-0.2169-0.1266-0.3156-0.2037
				c-6.0524,8.8879-11.5443,20.6124-15.5036,30.1964c-2.5924,6.2753-17.0614,40.1391-20.0632,48.755
				c-4.4028-8.616-23.8245-38.9418-23.8245-38.9418c0,1.2862-0.4308,2.5999-1.154,3.9095c0.1429,0.5113,0.2384,1.0663,0.2762,1.6795
				c0.311,5.0491,8.5924,13.7223,13.6956,22.7278c5.1032,9.0055,8.405,10.719,10.5064,16.016
				c2.1012,5.2969,3.3018,6.4977,2.7014,9.1993c0,0,1.8108-6.6105,0.4553-9.459c-1.3556-2.8484,1.3458-6.7508,6.1489-16.3566
				c4.8028-9.6058,17.4105-46.7087,21.9132-52.472c2.7884-3.5687,4.4642-8.6763,6.7809-13.244
				C126.2489,192.6268,125.7182,191.9808,125.4432,191.2462z"/>
			<path style="opacity:0.4;fill:#545454;" d="M72.2555,308.7359c10.4826,12.1345,19.3065,10.3402,29.5126,4.1364
				c7.6735-4.6643,42.5922-56.6114,45.1463-69.5855c0.3358-1.706,0.5886-4.1934,0.7524-7.2052
				c-2.5064,2.3324-4.5883,4.2309-5.8484,5.3052c-6.0777,5.1815-22.7398,38.9453-30.5445,50.3522
				c-7.8047,11.4069-12.3075,15.9301-20.4124,20.733c-8.1049,4.8029-12.2972-0.3002-18.9012-7.5045
				c-6.604-7.2044-22.9509-52.8921-25.0115-54.7214c-0.47-0.4171-0.8249-0.7752-1.1144-1.1539
				c-1.3606,0.7345-2.2138,1.1523-2.2138,1.1523S58.4081,292.7063,72.2555,308.7359z"/>
		</g>
		<g>
			<path style="fill:#CE8452;stroke:#6B4429;stroke-miterlimit:10;" d="M395.801,178.6742c0,0-4.0073,7.2719-5.0114,11.2148
				c-1.0041,3.9429,8.2996,7.7702,9.3739,5.057c1.0743-2.7132,6.706-11.971,4.5139-12.9696S397.7852,177.5983,395.801,178.6742z"/>
			<path style="fill:#FFA96A;stroke:#6B4429;stroke-linecap:round;stroke-linejoin:round;stroke-miterlimit:10;" d="
				M347.6654,275.025c11.0588-22.0824,31.8905-34.5072,31.469-50.9139c-1.3838-5.2757-1.5033-12.4614,0.5851-20.4738
				s1.9646-9.8895,3.8839-11.3728s5.3915-4.22,14.107-0.6115c8.7155,3.6086,19.0917,9.666,16.7857,18.513
				c-2.3059,8.847-8.2509,20.2713-12.3328,23.7941c-7.9994,6.904-22.763,59.0628-31.1408,67.1055
				C362.6447,309.1084,336.6066,297.1075,347.6654,275.025z"/>
			<path style="fill:#FFA96A;stroke:#6B4429;stroke-linecap:round;stroke-linejoin:round;stroke-miterlimit:10;" d="
				M393.8801,196.7164c1.1282-4.3289,1.2325-12.5345,1.0942-14.8706c-0.1552-2.6213,0.8599-7.6919,6.4449-6.1861
				c3.8662,1.0424,4.2338,3.7498,3.6523,7.745c-0.5604,3.8495-1.5683,13.3101-3.2175,17.34
				c-0.8536-0.0295-2.1302-0.2305-3.919-0.896C395.5358,198.9562,394.3948,197.5925,393.8801,196.7164z"/>
			<path style="fill:#CE8452;stroke:#6B4429;stroke-miterlimit:10;" d="M395.304,205.5897
				c-3.493-1.2995-3.4428-3.8443-1.8832-7.4757c0.1696-0.395,0.3217-0.8692,0.4593-1.3976c0.5147,0.8761,1.6557,2.2398,4.055,3.1324
				c1.7888,0.6655,3.0654,0.8664,3.919,0.896c-0.0623,0.1526-0.1255,0.2997-0.1897,0.436
				C399.9022,204.9199,398.797,206.8892,395.304,205.5897z"/>
			<path style="fill:#FFA96A;stroke:#6B4429;stroke-linecap:round;stroke-linejoin:round;stroke-miterlimit:10;" d="
				M408.5065,207.6224c1.6766-3.1229,3.1546-9.6427,3.4349-11.5484c0.3145-2.1384,2.0223-5.8867,6.4346-3.0363
				c3.0543,1.9731,2.9026,4.243,1.7395,7.2607c-1.1208,2.9077-3.5667,10.1627-5.6279,12.8931
				c-0.7083-0.2755-1.7412-0.8127-3.1233-1.8718C409.5106,209.899,408.7882,208.4737,408.5065,207.6224z"/>
			<path style="fill:#CE8452;stroke:#6B4429;stroke-miterlimit:10;" d="M408.1925,215.1262
				c-2.6989-2.0682-2.2256-4.085-0.3067-6.5237c0.2087-0.2653,0.4162-0.5989,0.6208-0.9801
				c0.2816,0.8513,1.004,2.2767,2.8578,3.6973c1.3821,1.0591,2.4149,1.5963,3.1233,1.8718
				c-0.078,0.1034-0.1556,0.2022-0.2325,0.2921C412.1488,215.9485,410.8914,217.1944,408.1925,215.1262z"/>
			<path style="fill:#FFA96A;stroke:#6B4429;stroke-linecap:round;stroke-linejoin:round;stroke-miterlimit:10;" d="
				M400.8383,202.8295c1.716-4.044,3.5363-14.314,3.7256-16.645c0.2124-2.6156,1.9203-7.4133,7.2174-4.8171
				c3.6668,1.7971,3.6519,4.5399,2.5215,8.3636c-1.0893,3.6842-3.9755,15.012-6.1635,18.6573
				c-0.8375-0.199-2.0683-0.6512-3.7393-1.6633C402.1586,205.3675,401.2236,203.7958,400.8383,202.8295z"/>
			<path style="fill:#CE8452;stroke:#6B4429;stroke-miterlimit:10;" d="M401.0051,211.8622
				c-3.2631-1.9764-2.8587-4.4757-0.8146-7.746c0.2224-0.3557,0.4384-0.793,0.6478-1.2867c0.3854,0.9663,1.3203,2.538,3.5616,3.8955
				c1.671,1.0121,2.9018,1.4643,3.7393,1.6633c-0.0827,0.1381-0.1655,0.2705-0.2478,0.3922
				C405.6325,212.1167,404.2682,213.8386,401.0051,211.8622z"/>
			<path style="fill:#CE8452;" d="M389.8046,218.1055c0,0,2.2602-1.5723,2.3388-3.353s2.5027,1.3861,4.5645,0.2904
				c2.0617-1.0957,4.0282-4.3835,4.0282-4.3835s-10.0424-4.1633-13.6072-0.462c-3.5648,3.7013-3.9321,5.1106-3.9321,5.1106
				l5.4435,2.3644L389.8046,218.1055z"/>
			<path style="fill:#FFA96A;stroke:#6B4429;stroke-linecap:round;stroke-linejoin:round;stroke-miterlimit:10;" d="
				M387.5135,232.5385c0,0-7.6571-1.2006-10.0031-8.6653s-3.0587-14.1387-1.1669-17.2803
				c1.8918-3.1416,10.8633-6.3959,13.5959-6.2949c2.7325,0.101,5.3278,3.0807,7.1007,3.9234
				c1.7729,0.8427,6.5393,0.7848,7.4923,2.4211c0.9529,1.6363-2.0884,8.0124-6.2617,7.5585
				c-4.1732-0.4539-5.1446-3.1957-8.5046-2.0652c-0.7615,0.2562-1.4354,0.5388-2.0223,0.8228
				c-2.003,0.9691-2.9929,1.9536-2.9929,1.9536s2.1566-2.5581,3.7407-0.3208c1.5841,2.2373,3.3067,5.6248,3.1879,9.609"/>
			<path style="fill:#E8AD85;stroke:#7C5337;stroke-linecap:round;stroke-linejoin:round;stroke-miterlimit:10;" d="
				M399.133,206.7544c-0.6542,0.8108-0.9903,1.6372-0.9121,2.484c0,0,3.2857,1.8015,5.0906-0.9295"/>
			<path style="fill:#FFA96A;stroke:#6B4429;stroke-linecap:round;stroke-linejoin:round;stroke-miterlimit:10;" d="
				M381.7411,195.4169c0,0,3.1164-16.7558,4.2436-21.6951c1.1272-4.9393,10.9993-26.5609,12.9765-29.8443
				c1.9772-3.2834,3.3462,7.784,0.7612,15.243c-2.5849,7.459-5.8328,18.6904-5.8328,18.6904s-0.3996,6.8642-1.3026,13.1941"/>
			<path style="fill:#CE8452;" d="M399.7224,159.1205c-2.585,7.459-5.8328,18.6904-5.8328,18.6904s-0.3997,6.8642-1.3026,13.1941
				l-1.2893,0.5246c0,0-0.4469-9.9489,0.6191-14.3975s5.028-14.8521,6.1056-18.8251c1.0776-3.973,1.4125-8.2307,1.4125-8.2307
				l1.0683-3.302C401.8741,148.568,401.1005,155.1438,399.7224,159.1205z"/>
		</g>
		<path style="fill:#CE8452;" d="M402.1634,233.9601c-7.9994,6.904-22.7629,59.0625-31.1407,67.1055
			c7.3961-13.6072,17.3728-45.3252,18.9619-46.7497c1.8374-1.647,1.7649-2.2553,2.9675-8.0155s3.9005-12.2507,5.6526-16.7688
			c1.5277-3.9396,4.5388-5.5639,14.0399-13.6359C409.8082,223.4024,405.4006,231.1661,402.1634,233.9601z"/>
		<g>
			
				<path style="fill:#E1E9F5;stroke:#7788A1;stroke-width:0.691;stroke-linecap:round;stroke-linejoin:round;stroke-miterlimit:10;" d="
				M377.758,229.2274c-3.3139,1.3049-4.7667,9.5167-4.7667,9.5167s6.6465,14.0355,18.691,15.2227
				c2.989-1.2728,5.0365-11.5008,5.0365-11.5008C393.475,242.6481,380.7604,239.1952,377.758,229.2274z"/>
			<g>
				<path style="fill:#EDF2F9;" d="M375.4319,241.6965c-1.5488-1.72-2.4406-2.9525-2.4406-2.9525s1.4245-8.1295,4.7152-9.4932
					l0.0833,0.0703c0.4395,1.4222,1.08,2.6745,1.861,3.7789C376.6011,235.6923,375.1399,237.7037,375.4319,241.6965z"/>
				<path style="fill:#C7D7EE;" d="M396.6969,242.6591c0,0-2.0285,10.0606-5.0146,11.3076
					c-0.9163-0.0905-1.7994-0.2832-2.6561-0.544c1.7169-1.2664,1.8058-2.0787,3.5447-7.29c0.4257-1.2754,1.003-2.3763,1.4101-3.7353
					C395.1307,242.6136,396.0816,242.692,396.6969,242.6591z"/>
			</g>
		</g>
		<g>
			<path style="fill:#619BBC;stroke:#2F4A56;stroke-linecap:round;stroke-linejoin:round;stroke-miterlimit:10;" d="
				M312.4503,191.2422c1.026-0.402,1.662-1.1365,1.9815-1.9728c0.2637-0.1663,0.5074-0.3636,0.7224-0.5858
				c5.8945,8.8122,11.2321,20.2326,15.1042,29.6053c2.5924,6.2753,17.0614,40.1391,20.0632,48.755
				c4.4028-8.616,23.8245-38.9418,23.8245-38.9418c0.0001,9.34,22.1157,20.1425,22.1157,20.1425s-14.7876,43.0621-28.6349,59.0916
				c-10.4826,12.1345-19.3064,10.3402-29.5125,4.1364c-7.6736-4.6643-42.5924-57.2118-45.1463-70.1858
				c-1.0031-5.0944-1.2726-17.1068-0.603-29.4865C296.3885,202.805,302.4523,195.1587,312.4503,191.2422z"/>
			<path style="fill:#95B9FF;" d="M314.4393,189.2462c0.106-0.0671,0.2169-0.1266,0.3156-0.2037
				c6.0524,8.8879,11.5443,20.6124,15.5036,30.1964c2.5924,6.2753,17.0614,40.1391,20.0632,48.755
				c4.4028-8.616,23.8245-38.9418,23.8245-38.9418c0,1.2862,0.4308,2.5999,1.154,3.9095c-0.1429,0.5113-0.2384,1.0663-0.2762,1.6795
				c-0.311,5.0491-8.5924,13.7223-13.6956,22.7278s-8.405,10.719-10.5064,16.016c-2.1012,5.2969-3.3018,6.4977-2.7014,9.1993
				c0,0-1.8108-6.6105-0.4553-9.459c1.3556-2.8484-1.3458-6.7508-6.1489-16.3566c-4.8028-9.6058-17.4105-46.7087-21.9132-52.472
				c-2.7884-3.5687-4.4642-8.6763-6.7809-13.244C313.6336,190.6268,314.1642,189.9808,314.4393,189.2462z"/>
			<path style="opacity:0.4;fill:#545454;" d="M367.627,306.7359c-10.4826,12.1345-19.3065,10.3402-29.5127,4.1364
				c-7.6735-4.6643-42.5922-56.6114-45.1463-69.5855c-0.3358-1.706-0.5886-4.1934-0.7523-7.2052
				c2.5064,2.3324,4.5883,4.2309,5.8484,5.3052c6.0776,5.1815,22.7398,38.9453,30.5445,50.3522
				c7.8047,11.4069,12.3075,15.9301,20.4124,20.733c8.1049,4.8029,12.2972-0.3002,18.9012-7.5045
				c6.604-7.2044,22.9509-52.8921,25.0115-54.7214c0.47-0.4171,0.8249-0.7752,1.1144-1.1539
				c1.3606,0.7345,2.2138,1.1523,2.2138,1.1523S381.4744,290.7063,367.627,306.7359z"/>
		</g>
		<g>
			<path style="fill:#C39145;stroke:#664614;stroke-miterlimit:10;" d="M164.9031,356.8261c0,0-5.0505,71.7166,0,123.2314
				c5.0505,51.5147,11.111,112.1204,16.1615,136.3626c5.0505,24.2422,14.1413,56.5652,7.0707,62.6259
				c-7.0707,6.0605-7.0707,15.1514-2.0202,26.2624c5.0505,11.111,7.0706,27.2725,7.0706,27.2725s12.1211-11.111,27.2725,1.0101
				c15.1514,12.1211,23.2322,13.1312,23.2322,13.1312s-1.0101-10.1009-1.0101-18.1816s-7.0706-16.1615-4.0404-36.3634
				c3.0303-20.2018,5.0505-32.323-1.0101-52.5248s3.0303-63.6359,0-84.8478c-3.0303-21.212-4.0404-120.2011-4.0404-120.2011
				l-11.111-69.6964C222.4784,364.9069,193.1857,372.9876,164.9031,356.8261z"/>
			<path style="opacity:0.4;fill:#545454;" d="M227.5289,644.7028c3.0303,26.2625,0,51.5148,4.0404,77.7772
				c1.0101,3.0303,4.0404,5.0504,4.0404,9.0908c-0.4877,4.8764,0.4469,9.2773,2.3297,13.2121
				c3.7911,1.6916,5.751,1.9393,5.751,1.9393s-1.0101-10.1009-1.0101-18.1816s-7.0706-16.1615-4.0404-36.3634
				c3.0303-20.2018,5.0505-32.323-1.0101-52.5248s3.0303-63.6359,0-84.8478c-3.0303-21.212-4.0404-120.2011-4.0404-120.2011
				l-11.111-69.6964c0,0-3.2473,0.892-8.6132,1.4897c-5.124,16.8159-2.7581,34.2699,5.5829,50.0251
				c-8.0807,1.0101-23.2321,6.0605-18.1817,12.1211c5.0505,6.0605,20.2019-6.0606,25.2523,4.0404
				c6.0606,13.1312,6.0606,30.3028,3.0303,42.4239c-3.0303,10.1009-7.0707,24.2422-4.0404,34.3432
				c4.0404,10.101,5.0505,22.222,5.0505,33.3331C227.5289,577.0265,221.4683,610.3596,227.5289,644.7028z"/>
			<path style="fill:#CFAC81;" d="M231.4198,741.33c-3.0948-1.868-6.7527-4.3719-10.9616-7.739
				c-15.1514-12.1212-27.2725-1.0101-27.2725-1.0101s-2.0202-16.1615-7.0706-27.2725c-5.0505-11.111-5.0505-20.2018,2.0202-26.2624
				c7.0706-6.0606-2.0202-38.3836-7.0707-62.6259c-5.0505-24.2422-11.111-84.8478-16.1615-136.3626
				c-5.0505-51.5148,0-123.2314,0-123.2314l10.8556,5.0807c-2.2562,40.1247-16.431,77.813-6.8152,119.1608
				c6.0606,27.2725,1.0101,52.5249,8.0807,78.7873c3.0303,8.0807,6.0606,16.1615,7.0707,24.2422
				c5.0505,32.3229,3.0303,61.6157,15.1514,91.9185c3.0303,7.0707-3.0303,12.1212-7.0706,18.1817
				c-7.0707,9.0908,0,20.2019,6.0606,27.2725c7.0706,8.0807,21.212-3.0303,28.2826,9.0909L231.4198,741.33z"/>
			<path style="fill:#C39145;stroke:#664614;stroke-miterlimit:10;" d="M224.6207,362.4295
				c-10.4642,2.5919-10.351,42.9962,3.1849,57.3283c0,0,12.7396,54.1434,13.5359,77.234
				c0.7962,23.0906,22.2944,66.0869,23.8868,122.619c1.5925,56.5321,10.351,38.2189,10.351,48.5698s-10.351,18.3132-7.9622,32.6453
				c2.3887,14.3321,17.517,26.2755,15.9245,34.2377c-1.5924,7.9623,3.9811,15.1284,3.9811,15.1284s3.9811-12.7396,23.8868-15.1284
				c19.9057-2.3887,22.2943,1.5925,22.2943,1.5925s7.166-23.0906,3.1849-31.8491s-8.7585-7.1661-8.7585-16.7208
				c0-9.5547-12.7396-94.751-15.1283-124.2114c-2.3887-29.4604-11.1472-157.6529-11.1472-157.6529l-17.4016-56.4237
				C284.4532,349.7982,231.7424,360.6655,224.6207,362.4295z"/>
			<path style="opacity:0.4;fill:#545454;" d="M282.0739,697.2276c-3.0303,1.0101-5.0505-3.0303-8.0807-2.0201
				c-1.0101-5.0505-2.0202-10.101,1.0101-14.1414c7.0707-8.0807,4.0404-18.1816,1.0101-27.2725
				c-14.1413-43.434-4.0404-92.9286-24.2422-136.3626c-1.0101-3.0303,1.0101-8.0807,0-11.111
				c-2.0202-4.0404-7.0706-8.0807-7.0706-12.1211c-2.0202-24.2422-9.0908-48.4845-7.0706-71.7166
				c0-4.0404,10.1009-3.0303,16.1615-6.0605c-6.0605-6.0606-16.1615,1.0101-20.2019-5.0505
				c-3.0303-3.0303-5.0505-9.0909-7.0707-14.1413c-4.7715-7.9525-6.4116-17.1563-7.8797-26.1343
				c-3.4972,13.2934-0.8287,38.0789,9.1665,48.6622c0,0,12.7397,54.1434,13.5359,77.234
				c0.7962,23.0906,22.2943,66.0868,23.8868,122.619c1.5924,56.5321,10.351,38.2189,10.351,48.5698s-10.351,18.3132-7.9623,32.6453
				c2.3888,14.3322,17.5171,26.2755,15.9246,34.2378c-1.5924,7.9623,3.9811,15.1284,3.9811,15.1284s0.9876-3.154,4.4295-6.6173
				c-1.8354-7.1747-5.2175-14.5732-6.848-21.0947C283.084,715.4093,283.084,706.3185,282.0739,697.2276z"/>
			<path style="opacity:0.4;fill:#545454;" d="M336.8888,704.807c-3.9812-8.7585-8.7585-7.166-8.7585-16.7207
				c0-9.5547-12.7396-94.751-15.1283-124.2114c-2.3887-29.4604-11.1472-157.653-11.1472-157.653l-17.4016-56.4237
				c0,0-3.4735,0.7161-8.7513,1.8092c2.8793,13.2408,10.677,23.7131,13.4427,37.5417
				c7.0706,36.3633,18.1817,69.6964,11.111,106.0598c-3.0303,20.2018-1.0101,41.4138,7.0706,59.5955
				c3.0303,6.0605-1.0101,15.1514-4.0404,21.212c-3.0303,12.1211,7.0706,23.2321,11.111,34.3431
				c2.0202,4.0404-3.0303,9.0909-3.0303,13.1312c-2.0202,26.2625,8.0807,49.4946,11.111,75.757
				c1.0101,4.0403,7.0707,7.0707,10.101,11.111c5.1272,8.0571-3.0178,17.1746-4.4196,24.275
				c4.7153,0.6494,5.5448,2.0222,5.5448,2.0222S340.8699,713.5656,336.8888,704.807z"/>
			<path style="fill:none;stroke:#664614;stroke-miterlimit:10;" d="M209.3472,424.5024c0,0,30.3028-8.0807,40.4037-7.0707"/>
			<path style="fill:#DEE0E2;stroke:#575A5B;stroke-miterlimit:10;" d="M193.8311,167.4481l21.5833,37.2989
				c0,0,6.17,142.8591,4.2337,157.0585c-1.9363,14.1994-61.961-7.0997-61.961-7.0997l-9.6814-165.9587L193.8311,167.4481z"/>
			<path style="fill:#DEE0E2;stroke:#575A5B;stroke-miterlimit:10;" d="M243.8954,166.438l-27.6439,37.2989
				c0,0,0.815,141.933,2.7513,156.1324s66.0871-5.1634,66.0871-5.1634l-9.2895-168.5404L243.8954,166.438z"/>
			<path style="fill:#76531E;stroke:#664614;stroke-miterlimit:10;" d="M164.274,350.0435
				c-1.5696-1.0126-1.9621,6.3769-0.4905,7.3579c1.4716,0.981,21.3379,13.2442,59.599,9.0747
				c38.2611-4.1695,58.1275-10.7916,61.0706-16.6779c2.9431-5.8863,0.2453-10.0558-0.981-9.0747
				c-1.2263,0.981-13.4745,15.204-59.1085,17.9042C182.9141,361.0804,171.8772,354.9488,164.274,350.0435z"/>
			<path style="opacity:0.4;fill:#545454;" d="M208.3371,333.594c-5.0505-59.0905-9.7298-149.6487-7.0706-161.615
				c2.6591-11.9664-7.4176-10.0908-7.4176-10.0908c-1.3924,0.9408-2.8274,1.8717-4.2876,2.7934c0,0-58.5328,35.4272-61.0228,36.8613
				c0.1982,1.648,0.8377,3.5029,2.1546,5.5516c5.9832,9.3071,25.9271,89.7477,25.2623,114.3452
				c-0.6649,24.5975,2.2137,128.6518,2.2137,128.6518s40.3334,14.2796,46.9814-9.653
				C211.7984,416.5056,213.3091,391.7668,208.3371,333.594z"/>
			<path style="fill:#619BBC;stroke:#2F4A56;stroke-miterlimit:10;" d="M189.8085,155.8276
				c-24.5975,16.6199-61.1614,30.5807-61.1614,30.5807s-7.9776,5.3184-1.9944,14.6255
				c5.9832,9.3072,25.9271,89.7477,25.2623,114.3452s-2.6592,133.6243-2.6592,133.6243s45.2062,9.3072,51.8542-14.6255
				s10.6368-57.1726,2.6592-115.01c-7.9776-57.8374-15.9552-142.2667-13.296-154.2331S189.8085,155.8276,189.8085,155.8276z"/>
			<path style="opacity:0.4;fill:#545454;" d="M249.8842,158.8579c24.5975,16.6199,61.1614,34.6211,61.1614,34.6211
				s7.9776,5.3184,1.9944,14.6255c-5.9832,9.3072-30.4179,90.2849-25.2623,114.3452c5.3402,24.9218,12.5049,72.7349,15.174,107.3042
				c0,0-48.5729,34.8427-55.2209,10.91c-6.648-23.9327-19.7849-56.388-11.8073-114.2254
				c7.9776-57.8374,15.9552-146.3071,13.296-158.2734C246.5602,156.1987,249.8842,158.8579,249.8842,158.8579z"/>
			<path style="fill:#619BBC;stroke:#2F4A56;stroke-miterlimit:10;" d="M250.8943,150.7771
				c24.5975,16.6199,61.1614,34.6211,61.1614,34.6211s7.9776,5.3184,1.9944,14.6255
				c-5.9832,9.3072-25.9271,89.7477-25.2623,114.3452c0.6648,24.5975,18.69,106.7129,18.69,106.7129
				s-52.0889,35.434-58.7369,11.5013c-6.648-23.9327-19.7849-56.388-11.8073-114.2254s15.9551-146.3071,13.2959-158.2734
				C247.5703,148.1179,250.8943,150.7771,250.8943,150.7771z"/>
			<path style="opacity:0.4;fill:#545454;" d="M243.3537,152.1138c8.7541,14.478,29.2927,53.535,25.589,84.8479
				s-34.3432,119.5277-33.3331,140.0663c0,0-0.3367-50.8414-1.6835-85.1846c-1.3468-34.3432,7.744-70.3698,6.7339-101.0093
				C239.65,160.1946,243.3537,152.1138,243.3537,152.1138z"/>
			<path style="fill:#95B9FF;" d="M249.2096,153.5093c-0.1618-4.2066,1.6846-2.7322,1.6846-2.7322
				c24.5975,16.6199,61.1614,34.621,61.1614,34.621s7.9776,5.3184,1.9944,14.6256c-0.4351,0.6768-0.9459,1.7401-1.5153,3.1203
				l-1.1681-11.4682c0,0-21.2119-8.5858-39.3936-18.6867C259.8244,166.2399,252.6423,158.1431,249.2096,153.5093z"/>
			<path style="fill:#619BBC;stroke:#2F4A56;stroke-miterlimit:10;" d="M241.3335,147.0634
				c8.7541,14.478,29.2927,53.535,25.589,84.8479s-32.828,117.5076-31.8179,138.0461c0,0-1.8518-48.8212-3.1986-83.1644
				c-1.3468-34.3432,7.744-70.3698,6.7339-101.0093C237.6298,155.1441,241.3335,147.0634,241.3335,147.0634z"/>
			<path style="opacity:0.4;fill:#545454;" d="M196.216,149.2519c0,0-35.7744,24.7101-28.9104,73.4634
				c0.7018,4.9848,17.2355,0.5394,17.2355,0.5394s-16.1725,8.0294-15.7538,10.7625c8.45,55.1632,29.1626,91.9906,32.5296,120.9467
				c0.2643,2.2728,5.8471,13.0493,6.0313,13.5879c2.163,6.3234-2.3585-99.2193-6.0817-124.3511
				C197.7658,220.5714,196.216,149.2519,196.216,149.2519z"/>
			<path style="fill:#FFA96A;stroke:#6B4429;stroke-miterlimit:10;" d="M240.6601,128.8817l0.3367,40.7404
				c-10.758,11.8356-20.8997,23.6361-25.5823,35.1249c-5.6329-12.8557-11.9251-20.8244-18.8618-24.0139l0.6734-41.0771
				L240.6601,128.8817z"/>
			<path style="fill:#619BBC;stroke:#2F4A56;stroke-miterlimit:10;" d="M196.216,146.2216c0,0-33.7542,24.7102-26.8902,73.4634
				c0.7018,4.9848,17.2355,0.5394,17.2355,0.5394s-16.1725,8.0294-15.7538,10.7625c8.45,55.1631,32.1425,100.9235,35.5095,129.8795
				c0.2643,2.2728,0.847,4.1165,1.0313,4.6551c2.163,6.3233-2.3585-99.2193-6.0817-124.3512
				C197.7658,217.5411,196.216,146.2216,196.216,146.2216z"/>
			<path style="fill:#DEE0E2;stroke:#575A5B;stroke-miterlimit:10;" d="M199.2335,145.9611c0,0,0,27.4631,5.1957,32.065
				s9.9326,19.57,10.9785,29.3061c0,0-6.3766-17.4302-24.7843-26.9309C182.4224,176.1685,192.108,149.6723,199.2335,145.9611z"/>
			<path style="fill:#518496;" d="M257.3276,203.1718c-2.1299,4.0824-7.174-3.4756-10.5463-9.6879
				c-3.3724-6.2122-7.6363-6.99-7.6363-6.99l-0.2336-3.8878c0,0,17.4339-12.8027,17.6038-11.5945
				C258.3087,183.7653,259.4575,199.0895,257.3276,203.1718z"/>
			<path style="fill:#CE8452;" d="M197.2261,139.656l-0.1483,9.0455c3.072,3.1374,6.2441,5.1886,9.0633,5.3704
				c7.9782,0.5147,31.1408,0.7721,33.7144-2.831c0.2547-0.3566,0.5875-0.8829,0.9766-1.5419l-0.172-20.8174L197.2261,139.656z"/>
			<path style="fill:#95B9FF;" d="M186.2579,162.7532l-0.737-4.1322c-24.3365,15.361-56.8737,27.7873-56.8737,27.7873
				s-4.851,3.2353-4.1491,9.074c2.49-1.4341,4.2325-3.561,6.8992-3.653C139.3521,191.555,186.2579,162.7532,186.2579,162.7532z"/>
			<path style="fill:#DEE0E2;stroke:#575A5B;stroke-miterlimit:10;" d="M240.6601,139.9927c0,0,9.9658-0.1623,13.6932,11.7297
				c3.7273,11.892,3.9048,42.5983,1.7749,46.6806c-2.1299,4.0823-4.9698-1.065-8.3421-7.2772s-8.8746-8.5197-8.8746-8.5197
				s-12.4245,4.6148-22.7191,21.8316c0,0,0.8875-15.2644,11.3595-23.784S241.4859,149.5696,240.6601,139.9927z"/>
			<path style="fill:#D3D3D3;" d="M199.2972,148.6866c0,0,0,25.2498,4.777,29.4809c4.777,4.231,9.9087,18.2528,10.8703,27.2042
				c0,0-6.6393-16.2854-23.5635-25.0205C183.8409,176.4596,192.7459,152.0988,199.2972,148.6866z"/>
			<path style="fill:#DEE0E2;stroke:#575A5B;stroke-miterlimit:10;" d="M197.2261,139.656c0,0-17.845,14.1413-19.8652,20.5386
				s1.0101,10.4376,1.3468,19.5285c0.3367,9.0909,1.3468,22.5588,6.734,23.2321c1.2868,0.9184,2.5595-14.8763,5.5643-22.2227
				c0.4292-1.0495-1.1031-10.7737,2.4323-16.8343C196.9736,157.8377,201.6031,142.0129,197.2261,139.656z"/>
			<path style="fill:#EDEEEF;" d="M185.1136,157.5236c4.5597-4.5598,12.1593-15.9591,12.1593-15.9591l-2.6308,0.2046
				c-5.0187,4.1841-15.7417,13.5503-17.2811,18.4255c-2.0202,6.3972,1.0101,10.4376,1.3468,19.5285
				c0.3367,9.0908,1.3468,22.5588,6.7339,23.2321c0.4907,0.3502,0.9799-1.7359,1.5634-4.8512
				c-2.3407-4.5304-3.7359-12.3024-5.3112-20.4416C179.4139,165.883,180.5539,162.0833,185.1136,157.5236z"/>
			<path style="fill:#FFA96A;stroke:#6B4429;stroke-width:0.7398;stroke-miterlimit:10;" d="M180.1854,96.0743
				c0,0-4.5326-8.906-7.616-6.2832c-4.8885,4.1582,0.5998,15.9937,2.5038,21.7057s4.7314,2.856,4.7314,2.856"/>
			<path style="fill:#FFA96A;stroke:#6B4429;stroke-width:0.7398;stroke-miterlimit:10;" d="M247.6754,92.408
				c0,0,5.2787-7.5673,9.2771-4.3305c3.9984,3.2368,0.3808,18.2785-3.808,22.4673c-4.1888,4.1888-5.9024-0.952-5.9024-0.952"/>
			<path style="fill:#FFA96A;stroke:#6B4429;stroke-miterlimit:10;" d="M212.9099,23.667
				c-19.8139,0.6192-35.0012,6.1767-35.5159,20.8463s1.2868,35.0012,3.3457,40.9205s-4.1178,22.9052-0.7721,35.7733
				s14.1549,28.3098,22.1331,28.8245c7.9782,0.5147,31.1408,0.7721,33.7144-2.831c2.5736-3.6031,12.8681-23.9346,13.3828-34.7438
				s0.1058-22.8217-2.2247-32.1438c-2.2727-9.0908,5.5704-32.9688,0.1658-41.7191S229.3811,23.1522,212.9099,23.667z"/>
			<path style="opacity:0.4;fill:#3F4142;" d="M198.1285,44.3401c6.5656-3.5253,15.5116-8.2187,26.3701-6.7671
				s25.5049,13.8938,7.5757,29.8613c0,0-0.505-1.0368,0-3.1105c0.5051-2.0737,8.3333-21.9812-9.8484-22.6034
				S198.1285,44.3401,198.1285,44.3401z"/>
			<path style="fill:#564F4C;stroke:#473F3D;stroke-miterlimit:10;" d="M200.2992,70.5068c0,0-2.3163-3.3457-9.7797-2.831
				c-7.4635,0.5147-8.7503,7.7209-8.7503,7.7209s1.2868,0.5147,3.3457-0.5147s8.2356-3.6031,10.8092-3.0883
				C198.4977,72.3083,200.2992,70.5068,200.2992,70.5068z"/>
			<path style="fill:#564F4C;stroke:#473F3D;stroke-miterlimit:10;" d="M219.6013,69.22c-1.1321-2.4906,7.9782-3.0883,10.0371-2.831
				c2.0589,0.2574,2.3163,2.831,5.4046,3.3457c3.0883,0.5147,3.6031,2.5736,2.831,3.3457c-0.7721,0.7721-5.9193,0.2574-9.265-2.0589
				C225.2633,68.7053,220.8881,72.051,219.6013,69.22z"/>
			<path style="fill:#CE8452;" d="M200.3353,111.8201c0.1727,1.6208,1.0763,6.1075,7.0739,6.1544
				c6.9152,0.054,10.3636-6.3207,10.3636-6.3207"/>
			<path style="fill:#FFA96A;stroke:#6B4429;stroke-linecap:round;stroke-linejoin:round;stroke-miterlimit:10;" d="
				M207.049,82.0588c0,0,0.1497,11.9718-3.1425,18.5563c-3.2923,6.5845-5.6866,12.2711-0.4489,14.1417s8.7224,0.5179,11.8222-1.4965
				c2.2229-1.4446,2.6188-2.1699,2.6188-2.1699"/>
			
				<path style="fill:#FFA96A;stroke:#6B4429;stroke-width:0.8981;stroke-linecap:round;stroke-linejoin:round;stroke-miterlimit:10;" d="
				M202.025,126.4489c3.6111,6.0785,19.5466,2.788,22.733,0.512"/>
			<path style="fill:#CE8452;" d="M209.1788,135.2789c2.8619-1.5151,9.0908-4.7138,14.6464-2.1885"/>
			<path style="fill:#FFA96A;stroke:#6B4429;stroke-width:0.7398;stroke-miterlimit:10;" d="M176.2563,96.6104
				c-2.9719-0.9144-2.0574,5.4865,0.2286,6.8581c2.286,1.3716,1.3716,4.5721,1.143,5.9437"/>
			<path style="fill:#FFA96A;stroke:#6B4429;stroke-width:0.7398;stroke-miterlimit:10;" d="M252.5686,94.5902
				c2.9719-0.9144,2.0574,5.4865-0.2286,6.8581s-1.3716,4.5721-1.143,5.9437"/>
			<path style="fill:#FCBD92;" d="M183.4215,122.8211c-3.3457-12.8681,2.4074-29.4478,0.3485-35.3671
				c-1.5053-4.3277-1.3455-18.1378-1.1903-29.4472c0.0571-4.1594-1.3168-3.1261-1.1785-7.0707
				c0.0809-2.3056,2.9369-4.3573,3.7037-6.2289c-0.7907,0.374-3.9687-1.674-4.7812-1.3244
				c-1.0251,0.4411-2.008,0.3822-2.8564,0.0428c-0.0314,0.3582-0.0604,0.7179-0.0734,1.0877
				c-0.5147,14.6696,1.2868,35.0012,3.3457,40.9205c2.0589,5.9194-4.1178,22.9052-0.7721,35.7733
				c2.4524,9.4325,8.9151,20.2405,15.3334,25.5459c1.2613,0.9182,4.8058,3.0631,7.3929,2.8329
				C191.2918,144.8959,184.5191,127.0424,183.4215,122.8211z"/>
			<path style="fill:#CE8452;" d="M246.8633,70.5459c-0.2305-1.2169-0.5174-2.4228-0.9941-3.5946
				c-0.2525-0.6208-0.4633-1.2298-0.6495-1.8357c-0.6442,5.314-1.037,10.0959-0.2666,13.1772
				c2.3306,9.322,2.7395,21.3345,2.2247,32.1438c-0.5147,10.8092-10.8092,31.1408-13.3828,34.7438
				c-2.1451,3.0031-22.2052,4.4189-33.4487,4.5094c0.5964,0.1834,1.1833,0.3049,1.7545,0.3418
				c7.9782,0.5147,31.1408,0.7721,33.7144-2.831c2.5736-3.603,12.8681-23.9346,13.3828-34.7438
				c0.5147-10.8092,0.1058-22.8217-2.2247-32.1438C246.3721,77.9088,246.4814,74.4653,246.8633,70.5459z"/>
			<path style="fill:#564F4C;stroke:#473F3D;stroke-linecap:round;stroke-linejoin:round;stroke-miterlimit:10;" d="
				M178.371,37.2999c0,0-6.0606,10.4376-10.4376,12.7945c-4.3771,2.3569-2.6936,6.0606,1.3468,11.4477
				s10.7743,34.3432,10.7743,34.3432s2.3569-7.4073,1.0101-12.4578c-1.3468-5.0505-1.3468-12.7945,1.3468-18.8551
				c2.6936-6.0606-5.3872-7.4915-3.367-15.3198C180.7951,42.4687,181.3171,38.6466,178.371,37.2999z"/>
			<path style="fill:#564F4C;stroke:#473F3D;stroke-miterlimit:10;" d="M244.2573,36.0487c0,0,4.0881,9.747,8.6875,11.6334
				c4.5994,1.8865,3.3123,5.7458-0.1429,11.5258c-3.4551,5.78-4.0953,35.2812-4.0953,35.2812s-1.4876-7.1216-2.3067-12.284
				c-0.5944-3.7466-1.1635-11.6905-3.3102-18.611c-1.965-6.3344,4.5746-8.0136,1.7472-15.5878
				C242.3867,41.4425,241.4681,37.696,244.2573,36.0487z"/>
			<path style="opacity:0.4;fill:#3F4142;" d="M228.7915,31.8285c0,0,7.3232-0.2525,10.1009,12.1211
				c2.7778,12.3736,1.5993,17.0032,0.5892,24.8315c4.1198-0.7392,13.1733-13.4679,10.2693-23.9055
				C247.5998,37.1439,234.8521,27.0306,228.7915,31.8285z"/>
			<path style="fill:#474241;" d="M252.8019,59.2079c3.4552-5.7799,4.7423-9.6393,0.1428-11.5258
				c-0.1227-0.0503-0.2433-0.1272-0.3652-0.1885c0.2227,3.4407-0.4046,6.4681-1.8185,9.8397
				c-1.662,3.9632-3.7106,16.0796-4.1586,26.1052c0.8393,4.9923,2.1042,11.0506,2.1042,11.0506S249.3468,64.9879,252.8019,59.2079z"
				/>
			<path style="fill:#726A67;" d="M181.0646,83.4274c-1.3468-5.0505-1.3468-12.7945,1.3468-18.855
				c2.6936-6.0606-5.3871-7.4916-3.367-15.3198c1.3143-5.0929,1.9357-8.5161,0.9176-10.4763l-2.096,1.2171l-0.3367,7.5757
				c0,0-3.7037,5.7239-0.6734,9.4276c3.0303,3.7036,4.3771,5.7238,2.3569,11.2793s1.5151,14.1413,0.8417,18.6867
				c-0.2016,1.3608-0.6002,3.0089-1.0269,4.672c0.6398,2.5877,1.0269,4.2505,1.0269,4.2505S182.4113,88.4779,181.0646,83.4274z"/>
			<path style="fill:#564F4C;stroke:#473F3D;stroke-linecap:round;stroke-linejoin:round;stroke-miterlimit:10;" d="
				M238.8924,45.9698c-1.7677-1.5151,2.5252-11.6161,5.808-12.3736c3.2828-0.7576,2.8276,1.578,6.1104,7.386
				s0.5491,17.2068-0.9153,16.6576C240.1067,53.969,240.6601,47.485,238.8924,45.9698z"/>
			
				<path style="fill:#564F4C;stroke:#473F3D;stroke-width:0.9442;stroke-linecap:round;stroke-linejoin:round;stroke-miterlimit:10;" d="
				M175.2565,52.1864c0,0-4.2929-23.1867,10.1009-31.741c14.3938-8.5543,26.7675-11.2557,45.2017-0.6753
				s15.909,11.0306,16.6665,14.4073s-6.6741,8.7298-11.4721,6.9289c-4.7979-1.8009-18.472-6.214-32.6133,0.0892
				S180.0545,56.9138,175.2565,52.1864z"/>
			<path style="fill:#726A67;" d="M192.2947,46.5545c3.0969-1.8824,6.5787-3.8817,10.4869-5.6237
				c3.414-1.5217,6.7972-2.3037,10.0351-2.5967c0.0221-0.0355,0.0438-0.0691,0.0658-0.1047
				c7.414-11.9475,20.8646-12.0536,31.1725-9.8817c-1.8539-1.5079-4.9192-3.5457-10.0345-6.5642
				C220.0408,23.3553,195.5035,28.6628,192.2947,46.5545z"/>
			<path style="fill:#726A67;" d="M187.3777,49.0348c0,0-6.5656-16.8835,7.8282-24.7625
				c8.5335-4.6711,20.3508-7.0472,30.7165-6.9415c-1.7213-0.8232-3.3922-1.5274-5.0168-2.1116
				c-16.1154,0.2395-32.1729,4.49-36.8107,10.6289c-6.8463,9.0623-2.7863,21.9155-1.1187,26.2167
				c1.3491-0.6595,2.8222-1.5182,4.4275-2.4975C187.386,49.2318,187.3777,49.0348,187.3777,49.0348z"/>
			<path style="fill:#564F4C;" d="M187.3777,49.0348c0,0,0.0083,0.197,0.026,0.5325c1.5109-0.9217,3.1391-1.948,4.891-3.0129
				c3.2088-17.8916,27.7461-23.1991,41.7259-24.771c-1.0651-0.6285-2.2111-1.2957-3.4614-2.0134
				c-1.5899-0.9125-3.1319-1.7195-4.6368-2.4392c-10.3657-0.1057-22.183,2.2704-30.7165,6.9415
				C180.8121,32.1513,187.3777,49.0348,187.3777,49.0348z"/>
			<path style="fill:#726A67;stroke:#473F3D;stroke-linecap:round;stroke-linejoin:round;stroke-miterlimit:10;" d="
				M199.7513,43.4446c6.5656-4.2929,14.8989-9.0908,25.7574-7.3232s25.5049,16.9191,7.5757,36.3634c0,0-0.5051-1.2626,0-3.7878
				s8.3333-28.7877-9.8484-29.5452C205.0543,38.3941,199.7513,43.4446,199.7513,43.4446z"/>
			<path style="fill:#564F4C;stroke:#473F3D;stroke-linecap:round;stroke-linejoin:round;stroke-miterlimit:10;" d="
				M196.721,44.4547c0,0,13.3837-11.3636,30.5553-11.111c17.1716,0.2525,22.4746,7.3232,22.4746,20.2019
				s-9.3434,20.4544-9.3434,20.4544s6.5656-24.7473-4.2929-32.5755S205.0543,39.6567,196.721,44.4547z"/>
			<path style="fill:#D3D3D3;" d="M240.6601,139.9927c0.8259,9.5769-2.6362,32.1414-13.1082,40.661
				c-10.4721,8.5196-11.3595,23.7841-11.3595,23.7841c10.2946-17.2168,22.719-21.8316,22.719-21.8316
				S244.448,167.6019,240.6601,139.9927z"/>
			<path style="fill:#619BBC;stroke:#2F4A56;stroke-linecap:round;stroke-linejoin:round;stroke-miterlimit:10;" d="
				M164.2803,275.3212c-0.1619-0.0096-0.3326-0.0183-0.5037-0.0271l-0.0601,0.2627
				C163.9025,275.4756,164.0871,275.3924,164.2803,275.3212z"/>
			<g>
				<path style="fill:#452109;" d="M237.9574,86.5057c0,0-0.4631-7.2951-7.2539-6.5553s-12.9131,0.8566-12.7135,8.2514
					C217.8582,90.4907,230.5244,90.4236,237.9574,86.5057z"/>
				<path style="fill:#FFFFFF;" d="M238.0619,88.0665c0,0-1.0045-6.488-7.7952-5.7483c-6.7907,0.7397-12.6589,2.5577-12.3503,7.0972
					C217.7847,91.7044,230.6289,91.9843,238.0619,88.0665z"/>
				<g>
					<defs>
						<path id="SVGID_72_" d="M238.0619,88.0665c0,0-1.0045-6.488-7.7952-5.7483c-6.7907,0.7397-12.6589,2.5577-12.3503,7.0972
							C217.7847,91.7044,230.6289,91.9843,238.0619,88.0665z"/>
					</defs>
					<clipPath id="SVGID_6_">
						<use xlink:href="#SVGID_72_"  style="overflow:visible;"/>
					</clipPath>
					
						<ellipse transform="matrix(0.9978 -0.0668 0.0668 0.9978 -5.3118 15.3787)" style="clip-path:url(#SVGID_6_);fill:#A85715;" cx="227.2659" cy="87.1045" rx="5.4794" ry="5.4794"/>
					
						<ellipse transform="matrix(0.9978 -0.0668 0.0668 0.9978 -5.3118 15.3787)" style="clip-path:url(#SVGID_6_);fill:#3D1800;" cx="227.2659" cy="87.1045" rx="3.1862" ry="3.1862"/>
					
						<ellipse transform="matrix(0.9978 -0.0668 0.0668 0.9978 -5.311 15.1564)" style="clip-path:url(#SVGID_6_);fill:#FFFFFF;" cx="223.9426" cy="86.9805" rx="1.4132" ry="1.4132"/>
				</g>
				<path style="fill:#452109;" d="M184.1649,89.2552c0,0-0.5097-7.2356,6.2666-7.4066c6.7762-0.1709,12.8128-0.866,13.5948,6.4329
					C204.4587,90.5151,191.9932,92.1249,184.1649,89.2552z"/>
				<path style="fill:#FFFFFF;" d="M184.2686,90.804c0,0,0.1295-6.5135,6.9057-6.6845s12.7879,0.8406,13.0849,5.3459
					C204.6916,91.699,192.0969,93.6737,184.2686,90.804z"/>
				<g>
					<defs>
						<path id="SVGID_74_" d="M184.2686,90.804c0,0,0.1295-6.5135,6.9057-6.6845s12.7879,0.8406,13.0849,5.3459
							C204.6916,91.699,192.0969,93.6737,184.2686,90.804z"/>
					</defs>
					<clipPath id="SVGID_8_">
						<use xlink:href="#SVGID_74_"  style="overflow:visible;"/>
					</clipPath>
					
						<ellipse transform="matrix(0.9978 -0.0668 0.0668 0.9978 -5.473 13.2098)" style="clip-path:url(#SVGID_8_);fill:#A85715;" cx="194.7586" cy="88.4296" rx="5.4373" ry="5.4373"/>
					
						<ellipse transform="matrix(0.9978 -0.0668 0.0668 0.9978 -5.473 13.2098)" style="clip-path:url(#SVGID_8_);fill:#3D1800;" cx="194.7586" cy="88.4296" rx="3.1617" ry="3.1617"/>
					
						<ellipse transform="matrix(0.9978 -0.0668 0.0668 0.9978 -5.4282 13.4258)" style="clip-path:url(#SVGID_8_);fill:#FFFFFF;" cx="198.0106" cy="87.868" rx="1.4024" ry="1.4024"/>
				</g>
			</g>
		</g>
	</g>
</g>
</svg>
