<?xml version="1.0" encoding="utf-8"?>
<!-- Generator: Adobe Illustrator 21.0.2, SVG Export Plug-In . SVG Version: 6.00 Build 0)  -->
<svg version="1.1" id="Capa_1" xmlns="http://www.w3.org/2000/svg" xmlns:xlink="http://www.w3.org/1999/xlink" x="0px" y="0px"
	 viewBox="0 0 563.2648 376.4839" style="enable-background:new 0 0 563.2648 376.4839;" xml:space="preserve">
<g>
	<g id="Data_13_">
		<path style="fill:#44BACA;" d="M468.5942,119.6582l-36.2783,9.1948c6.4409,14.0977,10.0332,29.77,10.0332,46.2847
			c0,34.3755-15.5586,65.1123-40.0117,85.5693c-19.3608,16.1973-44.2939,25.9492-71.5103,25.9492
			c-13.3267,0-26.106-2.3398-37.9536-6.6284l-10.0205,35.6724c15.0498,5.1333,31.1851,7.9238,47.9741,7.9238
			c35.6929,0,68.4429-12.5967,94.0508-33.585c33.23-27.2295,54.4375-68.5884,54.4375-114.9014
			C479.3154,155.522,475.5038,136.7998,468.5942,119.6582z"/>
		<path style="fill:#2A4690;" d="M280.8174,75.438l-14.7173-33.9726c-49.5776,24.0512-83.7598,74.8675-83.7598,133.6722
			c0,65.218,42.0471,120.6111,100.5125,140.5625l10.0204-35.6721c-42.9048-15.5284-73.5664-56.6283-73.5664-104.8905
			C219.3069,131.5286,244.3406,93.7699,280.8174,75.438z"/>
		<path style="fill:#2B2B38;" d="M330.8271,63.6154c45.0796,0,83.9071,26.7491,101.4887,65.2375l36.2784-9.1949
			c-21.9773-54.5256-75.3733-93.0106-137.7671-93.0106c-23.2029,0-45.1627,5.3287-64.7269,14.8179l14.7173,33.9726
			C295.8593,67.8784,312.8456,63.6154,330.8271,63.6154z"/>
	</g>
	<g id="Controlling_12_">
		<g id="Correction_13_">
			<g id="Active_51_">
				<g id="Active1_28_">
					<path style="fill-rule:evenodd;clip-rule:evenodd;fill:#2B2B38;" d="M359.2778,218.5575
						c2.2386,1.428,4.1861,3.2252,5.7803,5.2928l10.0374-1.7419l3.7991,12.0783l-9.1186,4.6689
						c-0.0595,1.3289-0.2355,2.6591-0.5326,3.9951c-0.2631,1.1827-0.6086,2.3197-1.0389,3.408l6.6379,7.9552l-8.5587,9.3271
						l-8.4771-5.4755c-2.2906,1.2473-4.802,2.1019-7.4224,2.5011l-3.4767,9.4808l-12.3624-2.7497l0.5018-9.9762
						c-2.2389-1.42-4.1911-3.221-5.7828-5.2935l-10.04,1.7415l-3.7971-12.0752l9.1223-4.6734
						c0.0591-1.3208,0.231-2.6574,0.5282-3.9936c0.263-1.1826,0.6126-2.3189,1.0414-3.4128l-6.6384-7.9471l8.5594-9.3295
						l8.4719,5.4741c2.2945-1.2463,4.8058-2.1008,7.429-2.4939l3.4702-9.4823l12.3636,2.7499L359.2778,218.5575z"/>
					<path style="opacity:0.5;fill-rule:evenodd;clip-rule:evenodd;" d="M343.5843,254.002
						c8.8546,1.9694,17.6803-3.6401,19.6483-12.4882c1.9691-8.8531-3.6479-17.6698-12.5025-19.6392
						c-8.8467-1.9677-17.6727,3.6364-19.6418,12.4896C329.1203,243.2123,334.7375,252.0342,343.5843,254.002L343.5843,254.002z"/>
					<path style="opacity:0.5;fill-rule:evenodd;clip-rule:evenodd;fill:#FFFFFF;" d="M344.7913,248.5938
						c5.8718,1.306,11.7233-2.4173,13.0282-8.284c1.3054-5.8691-2.4173-11.7166-8.2891-13.0226
						c-5.8679-1.3052-11.7183,2.4131-13.0237,8.2821C335.2018,241.4361,338.9233,247.2886,344.7913,248.5938L344.7913,248.5938z"/>
				</g>
				<g id="Active_52_">
					<path style="fill-rule:evenodd;clip-rule:evenodd;fill:#E74C3C;" d="M379.5704,135.9934
						c3.8098,0.992,7.3707,2.6433,10.5586,4.8363l13.3668-7.0219l10.8472,15.3073l-10.7365,10.7359
						c0.5165,1.8963,0.8804,3.8539,1.0664,5.8757c0.1667,1.7829,0.1929,3.5482,0.0837,5.2834l12.978,8.1925l-7.8324,17.0503
						l-14.4433-3.8727c-2.6674,2.8058-5.8201,5.1515-9.3323,6.8991l-0.5983,14.955l-18.6843,1.7391l-3.8293-14.2975
						c-3.8032-0.985-7.3735-2.6358-10.5619-4.8344l-13.3654,7.0224l-10.8524-15.3086l10.7451-10.7367
						c-0.5179-1.8911-0.881-3.8514-1.0701-5.871c-0.1651-1.7909-0.1866-3.5523-0.0827-5.2887l-12.9766-8.1922l7.833-17.0475
						l14.4454,3.8705c2.6626-2.804,5.8155-5.1499,9.3296-6.8942l0.5951-14.9583l18.6841-1.7394L379.5704,135.9934z"/>
					<path style="opacity:0.5;fill-rule:evenodd;clip-rule:evenodd;" d="M365.5263,194.7383
						c14.274,3.1749,28.5045-5.8782,31.6767-20.1406c3.174-14.2701-5.8803-28.4885-20.1544-31.6634
						c-14.2676-3.1734-28.494,5.8669-31.668,20.137C342.2085,177.3336,351.2587,191.5648,365.5263,194.7383L365.5263,194.7383z"/>
					<path style="opacity:0.5;fill-rule:evenodd;clip-rule:evenodd;fill:#FFFFFF;" d="M372.7903,184.9403
						c8.879-0.8266,15.4423-8.7371,14.6148-17.6066c-0.8255-8.872-8.7402-15.4281-17.6134-14.6028
						c-8.8712,0.8283-15.4361,8.7332-14.6084,17.6083C356.008,179.2081,363.921,185.7664,372.7903,184.9403L372.7903,184.9403z"/>
				</g>
			</g>
			<g id="Active_49_">
				<g id="Active1_27_">
					<path style="fill-rule:evenodd;clip-rule:evenodd;fill:#E74C3C;" d="M288.776,189.9267
						c1.5439-0.6539,3.1746-1.0214,4.8193-1.1101l2.6821-5.8325l7.6307,2.3452l-0.8398,6.4056
						c0.666,0.5086,1.2938,1.0776,1.8829,1.7112c0.5168,0.5531,0.9869,1.1425,1.3986,1.7558l6.4985-0.5973l1.7839,7.7778
						l-5.8788,2.4381c-0.1714,1.6386-0.6276,3.2452-1.358,4.7467l3.6768,5.1986l-5.8486,5.4287l-4.9967-3.8264
						c-1.5399,0.6581-3.1725,1.0213-4.8175,1.1062l-2.6861,5.8322l-7.6285-2.3491l0.8394-6.4055
						c-0.6638-0.5004-1.2957-1.0735-1.8829-1.7031c-0.5186-0.5613-0.9848-1.1464-1.4004-1.76l-6.5007,0.6054l-1.7757-7.7817
						l5.8727-2.4421c0.1714-1.6347,0.6276-3.2452,1.358-4.7467l-3.6789-5.1947l5.8546-5.4287L288.776,189.9267z"/>
					<path style="opacity:0.5;fill-rule:evenodd;clip-rule:evenodd;" d="M301.559,210.7496
						c4.1876-3.8909,4.4337-10.4781,0.5467-14.6677c-3.8887-4.1857-10.4759-4.4279-14.6656-0.5328
						c-4.1858,3.883-4.434,10.4702-0.547,14.6599C290.7839,214.3944,297.3712,214.6407,301.559,210.7496L301.559,210.7496z"/>
					<path style="opacity:0.5;fill-rule:evenodd;clip-rule:evenodd;fill:#FFFFFF;" d="M299.1836,208.1868
						c2.779-2.5792,2.9364-6.9504,0.3593-9.7234c-2.5774-2.7772-6.9444-2.9386-9.7216-0.3593
						c-2.779,2.5792-2.9403,6.9465-0.3633,9.7234C292.0354,210.6085,296.4045,210.7699,299.1836,208.1868L299.1836,208.1868z"/>
				</g>
				<g id="Active1_26_">
					<path style="fill-rule:evenodd;clip-rule:evenodd;fill:#D6B825;" d="M252.0714,194.819
						c1.0199-0.4319,2.0971-0.6747,3.1836-0.7333l1.7718-3.8529l5.0408,1.5492l-0.5547,4.2315
						c0.4399,0.336,0.8547,0.7119,1.2438,1.1304c0.3413,0.3654,0.6519,0.7547,0.9239,1.1599l4.2928-0.3946l1.1784,5.138
						l-3.8835,1.6106c-0.1132,1.0825-0.4146,2.1437-0.8971,3.1356l2.4289,3.4341l-3.8635,3.5862l-3.3008-2.5277
						c-1.0173,0.4347-2.0957,0.6747-3.1824,0.7307l-1.7744,3.8527l-5.0393-1.5518l0.5545-4.2315
						c-0.4386-0.3306-0.8559-0.7091-1.2439-1.1251c-0.3426-0.3708-0.6505-0.7573-0.9251-1.1626l-4.2943,0.3999l-1.173-5.1405
						l3.8795-1.6132c0.1132-1.0799,0.4146-2.1438,0.8971-3.1356l-2.4303-3.4316l3.8675-3.5861L252.0714,194.819z"/>
					<path style="opacity:0.5;fill-rule:evenodd;clip-rule:evenodd;" d="M260.5157,208.5745
						c2.7663-2.5703,2.9289-6.9217,0.3611-9.6894c-2.5688-2.7651-6.9203-2.925-9.688-0.352
						c-2.7651,2.5651-2.929,6.9165-0.3613,9.6842C253.3978,210.9822,257.7493,211.145,260.5157,208.5745L260.5157,208.5745z"/>
					<path style="opacity:0.5;fill-rule:evenodd;clip-rule:evenodd;fill:#FFFFFF;" d="M258.9465,206.8815
						c1.8358-1.7038,1.9398-4.5914,0.2374-6.4232c-1.7026-1.8346-4.5874-1.9412-6.422-0.2374
						c-1.8358,1.7038-1.9424,4.5888-0.2399,6.4232C254.2245,208.4813,257.1107,208.5879,258.9465,206.8815L258.9465,206.8815z"/>
				</g>
				<g id="Active_50_">
					<path style="fill-rule:evenodd;clip-rule:evenodd;fill:#2A4690;" d="M255.6224,149.0464
						c1.8768-1.6265,4.008-2.878,6.2884-3.7498l1.1403-9.4528l11.8243-0.1535l1.7316,9.4125
						c1.1664,0.4117,2.3127,0.9245,3.4289,1.5542c0.9869,0.5488,1.909,1.1664,2.7729,1.8445l8.8939-3.8061l6.0462,10.1714
						l-7.1766,6.1107c0.5007,2.3855,0.5894,4.8599,0.2383,7.3098l7.5498,5.6587l-5.7819,10.3167l-8.7889-3.128
						c-1.8708,1.6265-4.008,2.8858-6.2888,3.7498l-1.1382,9.4527l-11.8282,0.1574l-1.7276-9.4207
						c-1.1664-0.4074-2.3146-0.9203-3.4308-1.5457c-0.9847-0.5531-1.9092-1.1746-2.7708-1.8448l-8.8982,3.8022l-6.0441-10.1672
						l7.1763-6.1111c-0.5025-2.3894-0.5912-4.8638-0.2379-7.3137l-7.548-5.6548l5.7801-10.3207L255.6224,149.0464z"/>
					<path style="opacity:0.5;fill-rule:evenodd;clip-rule:evenodd;" d="M281.0834,177.353
						c6.7585-6.2724,7.1521-16.9,0.8818-23.6446c-6.2702-6.7567-16.8879-7.1442-23.6404-0.8718
						c-6.7528,6.2684-7.1524,16.8879-0.8822,23.6404C263.7133,183.2258,274.3366,183.6211,281.0834,177.353L281.0834,177.353z"/>
					<path style="opacity:0.5;fill-rule:evenodd;clip-rule:evenodd;fill:#FFFFFF;" d="M278.6011,170.0755
						c2.7466-4.904,0.9887-11.1401-3.9094-13.8849c-4.8998-2.7448-11.132-0.9847-13.8785,3.9193
						c-2.7487,4.8998-0.993,11.132,3.909,13.8807C269.6181,176.7354,275.8584,174.9715,278.6011,170.0755L278.6011,170.0755z"/>
				</g>
			</g>
		</g>
	</g>
	<g>
		<defs>
			
				<rect id="SVGID_69_" x="0" y="51.3895" transform="matrix(-1 -4.490420e-11 4.490420e-11 -1 231.6074 429.3741)" width="231.6074" height="326.5952"/>
		</defs>
		<clipPath id="SVGID_2_">
			<use xlink:href="#SVGID_69_"  style="overflow:visible;"/>
		</clipPath>
		<g style="clip-path:url(#SVGID_2_);">
			<g>
				<path style="fill:#50565B;stroke:#656C70;stroke-miterlimit:10;" d="M55.4174,330.069l1.3203-2.4294
					c0,0-7.1825,2.0069-7.2353-2.4294c-0.0528-4.4362-0.2641-40.1373-0.2641-40.1373l-2.535-0.3169l0.2641,43.7285l1.3731,2.6934
					l3.512-0.2641L55.4174,330.069"/>
				<path style="fill:#808589;stroke:#656C70;stroke-miterlimit:10;" d="M55.4174,330.069c0,0-7.4993,1.0239-7.4993-3.6074v-41.7054
					h-6.1262v41.7054c0,0-0.8274,9.0247,6.4431,9.0471l7.2705,0.0223L55.4174,330.069z"/>
				<path style="fill:#252728;stroke:#000000;stroke-miterlimit:10;" d="M101.4651,383.9293h-8.9689
					c-1.1852,0-2.1614-0.9308-2.2178-2.1147l-1.5893-33.367h16.583l-1.5893,33.367
					C103.6265,382.9984,102.6503,383.9293,101.4651,383.9293z"/>
				<path style="fill:#262C35;stroke:#161A1E;stroke-miterlimit:10;" d="M70.6778,195.8858c0,0-2.834-7.5879-23.2707-7.178
					c0,0-21.5617-5.8411-23.8116,41.5541v42.4764c0,0-1.6874,29.3082,22.6866,28.4883c0,0,25.874,1.9529,25.499-20.7485
					L70.6778,195.8858"/>
				<path style="fill:#181D23;" d="M58.2817,193.0631c0,0-18.9368-8.1262-23.2491,35.9794l-2.6249,48.3712
					c0,0-0.75,18.0742,14.9994,18.4841c15.7494,0.4099,0.75,1.076,0.75,1.076s20.6242,1.3834,21.6554-18.4969l4.4061-67.4293
					C74.2186,211.0476,71.7812,192.7044,58.2817,193.0631z"/>
				<path style="fill:#50565B;stroke:#656C70;stroke-miterlimit:10;" d="M111.4985,352.1052H80.1391
					c-2.6753,0-4.8642-2.1889-4.8642-4.8642v-5.3445c0-1.7995,1.4723-3.2719,3.2719-3.2719h34.5442
					c1.7995,0,3.2719,1.4723,3.2719,3.2719v5.3445C116.3627,349.9163,114.1738,352.1052,111.4985,352.1052z"/>
				<path style="fill:#262C35;stroke:#161A1E;stroke-miterlimit:10;" d="M121.8291,343.1664c3.4554-0.15-9.3672,1.3097-28.6311,1.69
					c-7.6741,0.1515-22.5965-0.845-22.5965-0.845c-3.5833,0-17.2273-2.1125-17.2273-9.5062v-4.4362
					c0-8.0979,13.644-10.3512,17.2273-10.3512c0,0,14.7572-0.2439,22.3727,0c16.3721,0.5242,37.8041,1.69,37.8041,1.69
					c3.5833,0,9.173,4.4328,9.173,7.8162v5.2812C139.4849,339.5752,125.4125,343.1664,121.8291,343.1664z"/>
				<path style="fill:#181D23;" d="M53.4675,328.9939c0,0,43.7527,8.9521,85.761-2.0632c42.0083-11.0153,0,0,0,0
					s-0.9481,10.3208-18.511,12.6446c0,0-41.2784,3.5912-57.499,0c0,0-0.2222,2.9271,6.8246,4.421c7.0468,1.4939,0,0,0,0
					s-14.1332-0.257-16.5755-8.4652c-2.4424-8.2082,0,0,0,0V328.9939"/>
			</g>
			<path style="fill:#C39145;" d="M141.4724,270.0061c-10.572,6.5446-45.7273,13.1544-60.1346,10.0224
				c0,0-8.7696,28.8145-2.5056,37.5841c6.264,8.7696,1.2638,7.6424,16.2002,12.3621c12.3135,3.8909,40.8872-4.9273,43.3928-21.8402
				C140.9308,291.2217,141.4724,270.0061,141.4724,270.0061z"/>
			<g>
				<path style="fill:#C39145;stroke:#664614;stroke-miterlimit:10;" d="M133.6173,287.8146c0,0,63.5388,8.7047,72.3946,11.0662
					c8.8558,2.3616,13.5789,6.4943,9.7414,24.7963s-4.5415,86.2254-4.5415,86.2254s-3.1078-1.9202-5.6376-0.6264
					c-3.6454,1.8644-5.1553,5.6017-12.1258,4.7304c-11.8078-1.476-13.7655-7.0272-13.7655-7.0272s0.4168-29.5769,0.1216-38.7279
					c-0.2952-9.151,2.2895-28.6338,3.4703-30.9954c1.1808-2.3615-4.4929-6.1991-4.4929-6.1991s-43.9839-3.3912-58.4484-1.3248
					c-14.4645,2.0663-19.2089-3.3983-17.7329-16.682C104.0766,299.7664,133.6173,287.8146,133.6173,287.8146z"/>
				<path style="fill:#CFAC81;" d="M172.8773,301.2441c-8.1432-1.8792-16.2865-1.8792-23.1769-4.3848
					c-6.4043-2.911-18.7541-0.4167-20.4659-7.0907c2.6472-1.2513,4.3828-1.954,4.3828-1.954s63.5387,8.7047,72.3945,11.0662
					s13.579,6.4943,9.7414,24.7963c-3.8376,18.302-4.5415,86.2254-4.5415,86.2254s-3.1078-1.9202-5.6376-0.6264
					c-0.7578,0.3875-1.422,0.8572-2.0633,1.3484c-1.0235-3.7045,2.5657-7.9825,2.5657-11.6617
					c-0.6264-23.1769-0.6264-46.9802,5.6376-68.9042c1.8792-8.1432,3.132-19.4185,0-24.4297
					C204.1974,294.3537,186.6581,304.3762,172.8773,301.2441z"/>
				<path style="opacity:0.4;fill:#545454;" d="M137.4541,299.6078c19.4185,3.7584,41.4986,14.3732,43.66,23.9914
					c6.264,0.6264,7.4232,6.4594,6.7968,10.8443c-1.8792,25.0561,0,49.4857-3.132,74.5418
					c-0.1338,0.8026-0.2883,1.5947-0.4483,2.3838c-3.8177-2.0466-4.6476-4.3897-4.6476-4.3897s0.4167-29.5769,0.1216-38.7279
					c-0.2952-9.151,2.2895-28.6338,3.4703-30.9954c1.1808-2.3615-4.4929-6.1991-4.4929-6.1991s-26.6471-16.5486-41.1117-14.4823
					C123.9621,318.533,129.8757,298.0921,137.4541,299.6078z"/>
			</g>
			<path style="fill:#C39145;" d="M141.4724,270.0061c-10.572,6.5446-45.7273,13.1544-60.1346,10.0224
				c0,0-8.7696,28.8145-2.5056,37.5841c6.264,8.7696,1.2638,7.6424,16.2002,12.3621c12.3135,3.8909,11.2637-30.2424,28.3591-29.9834
				C144.0628,300.3045,141.4724,270.0061,141.4724,270.0061z"/>
			<g>
				<path style="fill:#C39145;stroke:#664614;stroke-miterlimit:10;" d="M123.1827,299.1561
					c11.5791,0.7487,34.8827,8.6429,45.8957,14.2356c8.172,4.1499,12.9283,7.017,9.0907,25.319s-10.8055,77.4558-10.8055,77.4558
					s-3.1078-1.9202-5.6376-0.6264c-3.6454,1.8643-5.1553,5.6017-12.1258,4.7304c-11.8078-1.476-11.2599-7.0272-11.2599-7.0272
					s-0.836-29.5769-1.1312-38.7279c-0.2952-9.151,3.5423-28.6338,4.7231-30.9954c1.1808-2.3616-4.4929-6.1991-4.4929-6.1991
					s-18.841-1.1787-33.3923-5.0832c-14.1122-3.7867-34.2425-5.9039-32.7666-19.1876"/>
				<path style="fill:#CFAC81;" d="M160.3492,412.7437c1.8792-5.0112,3.7584-10.0224,4.3848-14.4072
					c0.6264-15.6601,4.3848-30.0673,7.5168-45.101c3.132-11.9016,4.3848-26.9353-5.6376-34.4521
					c-8.7696-5.6376-19.4185-7.5168-28.8145-11.2752c-5.0112-1.8792-11.2752-1.2528-15.66-3.7584
					c-1.9312-1.1587-4.3368-1.605-6.1926-2.6564l7.2366-1.9373c11.5791,0.7487,34.8826,8.6429,45.8957,14.2356
					c8.1719,4.1499,12.9283,7.017,9.0907,25.3191c-3.8375,18.302-10.8055,77.4557-10.8055,77.4557s-3.1078-1.9202-5.6376-0.6264
					c-0.5151,0.2634-0.9853,0.5663-1.4365,0.8862C160.0504,415.1512,159.9834,413.8411,160.3492,412.7437z"/>
				<path style="opacity:0.4;fill:#545454;" d="M106.2221,294.2043c1.2935,5.1348-5.6196,9.6182-7.3487,12.9683
					c-1.0412,2.0172-6.268,13.5087-5.5574,16.8658c9.7165,1.9941,20.3171-0.8199,30.0756,2.2618
					c8.7696,2.5056,17.5392,3.132,25.6825,6.8904c3.7584,1.8792,5.0112,8.7696,1.8792,13.1544
					c-0.6264,0.6264-4.3848-0.6264-4.3848,0c-7.8982,24.2589-0.0497,48.5179-0.6992,73.2344
					c-7.9488-2.0372-7.5288-6.3362-7.5288-6.3362s-0.8361-29.5769-1.1312-38.7279c-0.2952-9.151,3.5423-28.6338,4.7231-30.9954
					c1.1808-2.3615-4.4929-6.1991-4.4929-6.1991s-18.841-1.1787-33.3924-5.0833c-4.0477-1.0861-10.4058-2.6611-14.7919-3.7754
					C78.3495,325.6916,106.2221,294.2043,106.2221,294.2043z"/>
			</g>
			<g>
				<path style="fill:#CE8452;stroke:#6B4429;stroke-miterlimit:10;" d="M192.8517,174.815c0,0-2.6425,4.7951-3.3046,7.3951
					c-0.6621,2.6,5.4728,5.1237,6.1812,3.3346c0.7084-1.7891,4.422-7.8938,2.9765-8.5522
					C197.2595,176.3341,194.1601,174.1056,192.8517,174.815z"/>
				<path style="fill:#FFA96A;stroke:#6B4429;stroke-linecap:round;stroke-linejoin:round;stroke-miterlimit:10;" d="
					M161.1107,238.3496c7.2923-14.5614,21.0289-22.7543,20.7509-33.5731c-0.9125-3.4788-0.9913-8.2172,0.3858-13.5006
					c1.3771-5.2834,1.2955-6.5212,2.5611-7.4993c1.2656-0.9781,3.5552-2.7827,9.3023-0.4032
					c5.7471,2.3795,12.5892,6.3738,11.0687,12.2076s-5.4408,13.367-8.1323,15.69c-5.2749,4.5525-15.0101,38.9465-20.5345,44.25
					S153.8184,252.9109,161.1107,238.3496z"/>
				<path style="fill:#FFA96A;stroke:#6B4429;stroke-linecap:round;stroke-linejoin:round;stroke-miterlimit:10;" d="
					M191.5851,186.7122c0.7439-2.8545,0.8127-8.2654,0.7215-9.8058c-0.1024-1.7285,0.567-5.0721,4.2499-4.0791
					c2.5494,0.6873,2.7918,2.4727,2.4084,5.1071c-0.3695,2.5384-1.0342,8.7768-2.1216,11.4341
					c-0.5629-0.0195-1.4047-0.152-2.5842-0.5908C192.6768,188.1892,191.9245,187.2899,191.5851,186.7122z"/>
				<path style="fill:#CE8452;stroke:#6B4429;stroke-miterlimit:10;" d="M192.524,192.5634
					c-2.3033-0.8569-2.2702-2.535-1.2418-4.9296c0.1119-0.2605,0.2122-0.5732,0.3029-0.9216
					c0.3394,0.5777,1.0918,1.4769,2.6739,2.0655c1.1795,0.4388,2.0213,0.5713,2.5842,0.5908
					c-0.0411,0.1006-0.0827,0.1976-0.1251,0.2875C195.5561,192.1217,194.8273,193.4202,192.524,192.5634z"/>
				<path style="fill:#FFA96A;stroke:#6B4429;stroke-linecap:round;stroke-linejoin:round;stroke-miterlimit:10;" d="
					M201.2298,193.9037c1.1056-2.0592,2.0802-6.3584,2.265-7.6151c0.2074-1.4101,1.3336-3.8817,4.243-2.0022
					c2.014,1.3011,1.914,2.7979,1.147,4.7878c-0.739,1.9173-2.3519,6.7014-3.7111,8.5018
					c-0.4671-0.1817-1.1481-0.5359-2.0595-1.2343C201.8919,195.405,201.4156,194.465,201.2298,193.9037z"/>
				<path style="fill:#CE8452;stroke:#6B4429;stroke-miterlimit:10;" d="M201.0228,198.8518
					c-1.7797-1.3638-1.4676-2.6937-0.2022-4.3018c0.1376-0.1749,0.2744-0.3949,0.4093-0.6463
					c0.1857,0.5613,0.6621,1.5013,1.8845,2.438c0.9114,0.6984,1.5924,1.0526,2.0595,1.2343
					c-0.0514,0.0682-0.1026,0.1333-0.1533,0.1926C203.6316,199.394,202.8024,200.2156,201.0228,198.8518z"/>
				<path style="fill:#FFA96A;stroke:#6B4429;stroke-linecap:round;stroke-linejoin:round;stroke-miterlimit:10;" d="
					M196.1733,190.7432c1.1315-2.6666,2.3318-9.4388,2.4566-10.9758c0.1401-1.7247,1.2663-4.8884,4.7592-3.1765
					c2.4179,1.1851,2.4081,2.9937,1.6627,5.515c-0.7183,2.4294-2.6215,9.899-4.0643,12.3028
					c-0.5523-0.1312-1.3639-0.4294-2.4657-1.0968C197.0439,192.4168,196.4274,191.3804,196.1733,190.7432z"/>
				<path style="fill:#CE8452;stroke:#6B4429;stroke-miterlimit:10;" d="M196.2833,196.6995
					c-2.1517-1.3033-1.8851-2.9513-0.5372-5.1078c0.1466-0.2346,0.2891-0.5229,0.4272-0.8484
					c0.2541,0.6372,0.8706,1.6736,2.3485,2.5687c1.1019,0.6674,1.9135,0.9656,2.4657,1.0968
					c-0.0546,0.091-0.1091,0.1784-0.1634,0.2586C199.3347,196.8673,198.435,198.0027,196.2833,196.6995z"/>
				<path style="fill:#CE8452;" d="M188.8976,200.8164c0,0,1.4904-1.0368,1.5422-2.211c0.0518-1.1742,1.6503,0.914,3.0099,0.1915
					c1.3595-0.7225,2.6562-2.8905,2.6562-2.8905s-6.6221-2.7453-8.9727-0.3047s-2.5929,3.37-2.5929,3.37l3.5895,1.5591
					L188.8976,200.8164z"/>
				<path style="fill:#FFA96A;stroke:#6B4429;stroke-linecap:round;stroke-linejoin:round;stroke-miterlimit:10;" d="
					M187.3869,210.3336c0,0-5.0492-0.7917-6.5961-5.714c-1.5469-4.9223-2.0169-9.3232-0.7695-11.3948
					c1.2474-2.0716,7.1634-4.2175,8.9652-4.1509c1.8019,0.0666,3.5132,2.0314,4.6823,2.5871s4.3121,0.5175,4.9405,1.5965
					s-1.3771,5.2834-4.129,4.9841s-3.3924-2.1072-5.608-1.3618c-0.5021,0.1689-0.9465,0.3553-1.3335,0.5426
					c-1.3208,0.639-1.9736,1.2882-1.9736,1.2882s1.4221-1.6868,2.4666-0.2115c1.0445,1.4753,2.1805,3.709,2.1021,6.3363"/>
				<path style="fill:#E8AD85;stroke:#7C5337;stroke-linecap:round;stroke-linejoin:round;stroke-miterlimit:10;" d="
					M195.0488,193.3313c-0.4314,0.5346-0.653,1.0796-0.6015,1.6379c0,0,2.1666,1.188,3.3568-0.6129"/>
				<path style="fill:#FFA96A;stroke:#6B4429;stroke-linecap:round;stroke-linejoin:round;stroke-miterlimit:10;" d="
					M183.5804,185.8553c0,0,2.055-11.0489,2.7983-14.3059s7.2531-17.5145,8.5568-19.6796
					c1.3038-2.1651,2.2065,5.1328,0.5019,10.0513c-1.7045,4.9185-3.8462,12.3246-3.8462,12.3246s-0.2635,4.5263-0.8589,8.7003"/>
				<path style="fill:#CE8452;" d="M195.4375,161.9211c-1.7046,4.9185-3.8462,12.3246-3.8462,12.3246s-0.2636,4.5263-0.8589,8.7003
					l-0.8502,0.3459c0,0-0.2947-6.5604,0.4082-9.4938c0.703-2.9334,3.3155-9.7936,4.0261-12.4134
					c0.7106-2.6198,0.9314-5.4274,0.9314-5.4274l0.7045-2.1774C196.8564,154.9627,196.3462,159.2989,195.4375,161.9211z"/>
			</g>
			<path style="fill:#CE8452;" d="M197.0471,211.271c-5.2749,4.5526-15.0101,38.9463-20.5345,44.2499
				c4.877-8.9727,11.4558-29.8878,12.5036-30.8271c1.2116-1.0861,1.1638-1.4872,1.9568-5.2855
				c0.793-3.7983,2.572-8.0782,3.7274-11.0575c1.0074-2.5978,2.9929-3.6689,9.2581-8.9916
				C202.0882,204.3092,199.1818,209.4286,197.0471,211.271z"/>
			<g>
				
					<path style="fill:#E1E9F5;stroke:#7788A1;stroke-width:0.691;stroke-linecap:round;stroke-linejoin:round;stroke-miterlimit:10;" d="
					M180.954,208.1502c-2.1852,0.8604-3.1432,6.2754-3.1432,6.2754s4.3828,9.2552,12.325,10.038
					c1.9709-0.8393,3.3211-7.5837,3.3211-7.5837C191.3179,217,182.9338,214.7231,180.954,208.1502z"/>
				<g>
					<path style="fill:#EDF2F9;" d="M179.4202,216.3725c-1.0213-1.1342-1.6094-1.9469-1.6094-1.9469s0.9393-5.3606,3.1093-6.2599
						l0.0549,0.0464c0.2898,0.9379,0.7122,1.7636,1.2272,2.4919C180.1911,212.4133,179.2276,213.7396,179.4202,216.3725z"/>
					<path style="fill:#C7D7EE;" d="M193.4425,217.0072c0,0-1.3376,6.6341-3.3067,7.4563
						c-0.6042-0.0597-1.1866-0.1867-1.7514-0.3587c1.1321-0.8351,1.1908-1.3707,2.3374-4.8071
						c0.2807-0.841,0.6614-1.567,0.9298-2.4631C192.4097,216.9772,193.0368,217.0289,193.4425,217.0072z"/>
				</g>
			</g>
			<g>
				<path style="fill:#619BBC;stroke:#2F4A56;stroke-linecap:round;stroke-linejoin:round;stroke-miterlimit:10;" d="
					M137.8896,183.1025c0.6766-0.2651,1.0959-0.7494,1.3066-1.3009c0.1739-0.1097,0.3346-0.2398,0.4764-0.3863
					c3.8869,5.8108,7.4066,13.3416,9.9599,19.522c1.7095,4.138,11.2505,26.468,13.2298,32.1495
					c2.9032-5.6814,15.7101-25.6785,15.7101-25.6785c0.0001,6.1589,14.5833,13.2821,14.5833,13.2821
					s-9.7511,28.3955-18.8821,38.9655c-6.9123,8.0016-12.7308,6.8184-19.4608,2.7276c-5.06-3.0757-28.0858-37.7259-29.7698-46.2811
					c-0.6614-3.3593-0.8391-11.2804-0.3976-19.4436C127.2982,190.7271,131.2968,185.6851,137.8896,183.1025z"/>
				<path style="fill:#95B9FF;" d="M139.2011,181.7863c0.0699-0.0443,0.143-0.0835,0.2081-0.1344
					c3.991,5.8608,7.6124,13.592,10.2232,19.9117c1.7095,4.138,11.2505,26.468,13.2298,32.1495
					c2.9032-5.6814,15.7101-25.6785,15.7101-25.6785c0,0.8481,0.2841,1.7144,0.761,2.578
					c-0.0942,0.3372-0.1572,0.7031-0.1821,1.1075c-0.2051,3.3294-5.6659,9.0486-9.031,14.9869
					c-3.3651,5.9383-5.5423,7.0682-6.928,10.5611c-1.3855,3.4929-2.1773,4.2846-1.7813,6.0661c0,0-1.1941-4.3591-0.3002-6.2373
					c0.8939-1.8783-0.8875-4.4515-4.0546-10.7857c-3.167-6.3341-11.4806-30.8001-14.4498-34.6005
					c-1.8387-2.3532-2.9438-5.7212-4.4714-8.7332C138.6698,182.6967,139.0197,182.2707,139.2011,181.7863z"/>
				<path style="opacity:0.4;fill:#545454;" d="M174.2735,259.26c-6.9123,8.0016-12.7309,6.8184-19.4609,2.7276
					c-5.06-3.0757-28.0857-37.33-29.7698-45.8853c-0.2214-1.125-0.3882-2.7652-0.4961-4.7512
					c1.6527,1.538,3.0256,2.7899,3.8565,3.4983c4.0077,3.4167,14.9948,25.6809,20.1413,33.2027s8.1156,10.5045,13.4601,13.6715
					c5.3444,3.1671,8.1089-0.1979,12.4636-4.9485c4.3547-4.7506,15.134-34.8775,16.4928-36.0837
					c0.3099-0.275,0.5439-0.5112,0.7348-0.7609c0.8972,0.4843,1.4598,0.7598,1.4598,0.7598S183.4046,248.69,174.2735,259.26z"/>
			</g>
			<path style="fill:#DEE0E2;stroke:#575A5B;stroke-miterlimit:10;" d="M83.5302,163.5178l28.7044,32.1404
				c0,0,4.4429,78.6966,3.2421,87.5023c-8.1432,5.0112-39.0412,5.4932-39.0412,5.4932l-7.6258-107.2836L83.5302,163.5178z"/>
			<path style="fill:#DEE0E2;stroke:#575A5B;stroke-miterlimit:10;" d="M116.1031,170.4082l-3.8685,25.25
				c0,0,4.4429,78.6966,3.2421,87.5023c13.1544,0,19.4185-8.7696,19.4185-8.7696s6.5772-89.5755,1.8792-93.0207
				S116.1031,170.4082,116.1031,170.4082z"/>
			<path style="fill:#619BBC;stroke:#2F4A56;stroke-linecap:round;stroke-linejoin:round;stroke-miterlimit:10;" d="
				M79.9807,164.5618c-0.7504,3.0799-24.1165,17.9568-29.4203,23.4274c-0.9623,5.2922,5.277,27.7714,6.6642,37.6232
				c0.4349,3.0914,7.6521,31.76,9.7061,48.7786c2.9232,24.2209-7.9344,31.7377-10.0224,45.5185
				c-1.7694,11.6783,33.4081,8.352,33.4081,8.352c5.0112-29.6497,18.3744-30.4849,17.6936-37.016
				c1.6411-5.4424-5.5473-49.1337-7.6606-63.6625C98.236,213.0542,85.1886,173.5656,79.9807,164.5618z"/>
			<path style="opacity:0.4;fill:#545454;" d="M81.2335,162.6826c-0.7504,3.0799-3.4452,3.5496-8.7491,9.0201
				c-0.9623,5.2922,0.8922,15.8698,2.2793,25.7216c0.4349,3.0914,10.1821,5.3265,10.1821,5.3265l-9.1254,8.674
				c10.5664,15.5854,29.0451,51.8112,31.1329,69.7682c0.1639,1.4094,1.0876-0.5197,1.0566-1.8491
				c-0.1326-5.6829-8.6793-51.0129-10.7926-65.5417C95.104,199.2734,86.4414,171.6864,81.2335,162.6826z"/>
			<path style="fill:#619BBC;stroke:#2F4A56;stroke-linecap:round;stroke-linejoin:round;stroke-miterlimit:10;" d="
				M83.1127,158.9242c-0.7504,3.0799-3.4452,3.5496-8.7491,9.0201c-0.9623,5.2922,1.5186,19.0018,2.9057,28.8536
				c0.4349,3.0914,10.1821,5.3265,10.1821,5.3265l-9.1254,8.674c10.5664,15.5854,26.5872,50.8232,28.675,68.7802
				c0.1639,1.4094,0.3269-0.7845,0.3826-2.7403c0.1618-5.6821-5.5473-49.1337-7.6606-63.6625
				C97.6096,198.647,88.3206,167.928,83.1127,158.9242z"/>
			<path style="opacity:0.4;fill:#545454;" d="M135.2084,181.3702c3.7195,0.8266,4.0716,3.132,3.7584,5.9508
				s-1.2528,21.6109,1.2528,34.1389c2.5056,12.528-1.566,36.6445,1.2528,46.3537c2.8188,9.7092,5.9959,21.8661,5.9959,21.8661
				s-5.7328,0.8182-8.4409,0.2164c-3.7488-0.8331-3.2942-6.3358-7.9737-10.8322c-5.4577-5.2441-6.7226-24.3824-8.2886-38.1633
				s-4.7828-67.6738-4.7828-67.6738S129.5708,180.1174,135.2084,181.3702z"/>
			<path style="fill:#619BBC;stroke:#2F4A56;stroke-linecap:round;stroke-linejoin:round;stroke-miterlimit:10;" d="
				M137.0876,180.1174c3.7195,0.8266,4.0716,3.132,3.7584,5.9508c-0.3132,2.8188-1.2528,21.6109,1.2528,34.1389
				c2.5056,12.528-1.566,36.6445,1.2528,46.3537s4.2608,23.1992,4.2608,23.1992s-3.9977-0.5149-6.7057-1.1167
				c-3.7488-0.8331-3.2942-6.3358-7.9737-10.8322c-5.4577-5.2441-5.5546-23.4652-7.1206-37.246
				c-1.566-13.7809-5.9508-68.591-5.9508-68.591S131.45,178.8646,137.0876,180.1174z"/>
			<path style="opacity:0.4;fill:#545454;" d="M57.277,317.9491c2.7458-12.5854,12.435-20.5124,9.6536-43.5582
				c-0.9419-7.8043-2.9695-18.0575-4.9311-27.1716c1.3358-19.5254,2.4157-35.1331,2.4157-35.1331
				c-0.0422-6.6561,2.1471-13.7184-0.2557-16.8268l0.4992,0.1862c0,0,6.4384,10.5855,6.4384,25.2013
				c-0.1114,7.1371-0.9497,46.1451,0.5119,61.8052c1.4616,15.66-8.7844,44.3333-12.5281,42.1777
				c-0.2219-0.1278-0.4181-0.2115-0.597-0.301c-0.3865-0.3626-0.7103-0.7547-0.9671-1.1767
				c-0.1497-0.4049-0.2938-0.9579-0.4417-1.7466C57.1231,320.5226,57.1916,319.3528,57.277,317.9491z"/>
			<path style="fill:#619BBC;stroke:#2F4A56;stroke-linecap:round;stroke-linejoin:round;stroke-miterlimit:10;" d="
				M117.3559,167.2762c0,0,14.7204,18.7921,13.7808,21.6109l-7.2036,6.264l11.3593,5.8253c0.3899,0.1767,0.757,0.8731,0.4362,1.5961
				c-2.4206,5.4554-9.9847,31.1972-5.8447,62.1093c0,0-5.9508-16.9128-7.5168-37.8973
				C120.8012,205.7999,120.488,173.8534,117.3559,167.2762z"/>
			<g>
				<path style="opacity:0.4;fill:#545454;" d="M121.4527,209.9352l31.4736,11.89c1.7226,0.6509,2.5148,2.6408,1.7104,4.2974
					l-25.0261,51.5576c-0.7066,1.4553-2.4047,2.1331-3.9193,1.5641l-27.1439-10.2004c-1.6321-0.6136-2.4493-2.442-1.8174-4.0667
					l20.6964-53.2469C118.0491,210.129,119.8451,209.328,121.4527,209.9352z"/>
				<path style="fill:#9DB2AA;stroke:#6F7B7F;stroke-miterlimit:10;" d="M121.1878,208.1715l31.4736,11.89
					c1.7226,0.6508,2.5148,2.6408,1.711,4.2973l-25.0261,51.5576c-0.7066,1.4553-2.4053,2.1331-3.9193,1.5642l-27.1444-10.201
					c-1.6321-0.613-2.4487-2.4414-1.8174-4.0661l20.697-53.2469C117.7842,208.3651,119.5808,207.5641,121.1878,208.1715z"/>
				<g style="opacity:0.4;">
					<path style="fill:#545454;" d="M86.9658,256.3519c0,0,3.7584,0.8356,6.8904,1.0442c3.132,0.2086,7.2373-1.8553,12.4571-1.6467
						c5.2198,0.2086,5.2908-3.7823,7.5878-10.6727c2.297-6.8904,0.7309-13.0498-4.0716-13.4676
						c-4.8026-0.4172-8.8742-0.5218-14.7204,4.698c-5.8463,5.2204-9.396,4.8026-9.396,4.8026L86.9658,256.3519z"/>
					<path style="fill:#545454;" d="M106.1756,231.7136c3.9884-0.0526,16.4033-1.1219,17.8684,0.5965
						c1.4657,1.7189,8.2503,5.9826,11.3903,9.1623c1.6724,1.6938-4.1083,2.59-6.5368,1.6162
						c-2.4286-0.9732-6.3717-4.0802-8.5188-4.4563c-2.1472-0.3756-8.4167-0.0526-8.4167-0.0526"/>
					<path style="fill:#545454;" d="M111.4499,237.8363c4.9659,0.9916,11.7462,2.5943,12.5812,3.9914
						c1.1592,1.9386,7.1388,7.2728,9.7056,10.9308c1.3672,1.9489-4.4827,1.8701-6.7149,0.5053
						c-2.2321-1.3642-5.6027-5.084-7.6575-5.8126c-1.4204-0.5034-4.8399-1.0057-6.8152-1.2675"/>
					<path style="fill:#545454;" d="M110.2906,242.1031c4.468,1.2663,9.7416,3.0347,10.3938,4.3304
						c0.9604,1.9073,6.3747,8.5231,8.5451,12.1481c1.1562,1.9312-4.3549,1.4565-6.3668,0.0177
						c-2.0119-1.4394-5.076-6.3539-6.9638-7.1816c-0.9439-0.4136-4.6956-1.2957-6.3888-1.6768"/>
					<path style="fill:#545454;" d="M109.2648,249.6664c3.7174,1.2026,7.7493,2.746,8.2558,3.8275
						c0.8019,1.7128,5.4296,7.7059,7.2605,10.9694c0.9751,1.7391-3.8924,1.1806-5.6376-0.1438
						c-1.7452-1.325-4.3346-5.7532-5.9851-6.5332c-1.651-0.7794-6.7852-1.9086-6.7852-1.9086"/>
					<path style="fill:#545454;" d="M92.7569,238.3392c3.3382-1.971,1.9343-9.549,5.0663-11.6368
						c3.132-2.0878,5.6376-1.2528,11.2752-8.7696c4.252-5.6697,5.6376,4.5934,1.0442,9.1874
						c-2.2536,2.2536-5.0112,4.5934-5.0112,4.5934"/>
				</g>
				<path style="fill:#619BBC;stroke:#2F4A56;stroke-miterlimit:10;" d="M50.4448,188.1814c0,0-10.0304,69.1382-9.6725,75.9448
					c0.3585,6.8066,15.7622,5.1972,15.7622,5.1972s8.2393,1.9697,9.6725-3.7621c1.4326-5.7318,3.5823-55.1698,3.5823-55.1698
					c-0.0679-10.7027-8.2626-18.0779-8.2626-18.0779"/>
				<path style="opacity:0.4;fill:#545454;" d="M89.3245,265.7369c4.1334-4.2949,4.5677-8.6926,4.1444-12.9275
					c-0.4233-4.2344-2.4683-15.3603-5.5557-14.6391c-2.0835-0.1224-17.1538,1.7379-22.3345,2.0425
					c-0.6191,0.0361-1.2149,0.1028-1.7991,0.1841c1.774,9.3581,2.9442,17.7504,2.8121,22.6159
					c-0.0685,2.5436-0.1603,5.0522-0.2655,9.9515C69.9177,272.9644,88.7324,266.3517,89.3245,265.7369z"/>
				<path style="fill:#273F49;stroke:#2F4A56;stroke-linecap:round;stroke-linejoin:round;stroke-miterlimit:10;" d="
					M91.5818,250.3111c-0.4233-4.2349-1.7061-13.4878-4.7935-12.766c-5.5972,2.0634-6.2316,10.3821-6.0621,15.9329
					c0.2606,8.5127,2.5894,9.1446,5.9313,9.9123c0.7304,0.1682,1.7348-0.7487,2.327-1.3636
					C93.1178,257.7326,92.0051,254.5455,91.5818,250.3111z"/>
				<g>
					<path style="fill:#FFA96A;stroke:#6B4429;stroke-linecap:round;stroke-linejoin:round;stroke-miterlimit:10;" d="
						M87.5922,255.099c0,0,3.7584,0.8356,6.8904,1.0442c3.132,0.2086,7.2373-1.8553,12.4571-1.6467
						c5.2198,0.2086,5.2908-3.7823,7.5878-10.6727c2.297-6.8904,0.7309-13.0498-4.0716-13.4677
						c-4.8026-0.4172-8.8742-0.5218-14.7204,4.698c-5.8463,5.2204-9.396,4.8026-9.396,4.8026L87.5922,255.099z"/>
					<path style="fill:#FFA96A;stroke:#6B4429;stroke-linecap:round;stroke-linejoin:round;stroke-miterlimit:10;" d="
						M106.802,230.4608c3.9884-0.0526,16.4033-1.1219,17.8684,0.5965c1.4657,1.7189,8.2503,5.9827,11.3902,9.1623
						c1.6724,1.6939-4.1083,2.59-6.5368,1.6162c-2.4286-0.9732-6.3717-4.0802-8.5188-4.4563
						c-2.1472-0.3756-8.4167-0.0526-8.4167-0.0526"/>
					<path style="fill:#FFA96A;stroke:#6B4429;stroke-linecap:round;stroke-linejoin:round;stroke-miterlimit:10;" d="
						M112.0763,236.5835c4.9659,0.9916,11.7462,2.5943,12.5812,3.9914c1.1592,1.9386,7.1388,7.2728,9.7056,10.9308
						c1.3672,1.9489-4.4827,1.8701-6.7149,0.5053c-2.2321-1.3642-5.6027-5.084-7.6575-5.8126
						c-1.4204-0.5034-4.8399-1.0057-6.8152-1.2675"/>
					<path style="fill:#FFA96A;stroke:#6B4429;stroke-linecap:round;stroke-linejoin:round;stroke-miterlimit:10;" d="
						M110.917,240.8503c4.468,1.2663,9.7416,3.0347,10.3938,4.3304c0.9604,1.9073,6.3747,8.5231,8.5451,12.1481
						c1.1562,1.9312-4.3549,1.4565-6.3668,0.0177c-2.0119-1.4394-5.076-6.3539-6.9638-7.1816
						c-0.9439-0.4136-4.6956-1.2957-6.3888-1.6768"/>
					<path style="fill:#FFA96A;stroke:#6B4429;stroke-linecap:round;stroke-linejoin:round;stroke-miterlimit:10;" d="
						M109.8912,248.4136c3.7174,1.2026,7.7493,2.746,8.2558,3.8275c0.8019,1.7128,5.4296,7.7059,7.2605,10.9694
						c0.9751,1.7391-3.8924,1.1806-5.6376-0.1437c-1.7452-1.325-4.3346-5.7533-5.9851-6.5332
						c-1.651-0.7794-6.7852-1.9086-6.7852-1.9086"/>
					
						<path style="fill:#FFA96A;stroke:#6B4429;stroke-width:0.9149;stroke-linecap:round;stroke-linejoin:round;stroke-miterlimit:10;" d="
						M93.3833,237.0864c3.0543-1.8027,2.152-7.7805,5.0173-9.6909c2.8653-1.9104,4.7751-2.1013,9.9332-8.9782
						c3.8899-5.1868,5.1574,4.2025,0.9549,8.405c-2.0615,2.0621-3.3315,4.2025-3.3315,4.2025"/>
				</g>
				<path style="fill:#DEE0E2;stroke:#575A5B;stroke-miterlimit:10;" d="M66.9282,240.6331c0,0,16.3103-1.6688,18.4274-1.0332
					c2.1172,0.635,4.0392-0.4404,4.0392-0.4404s-2.5558,3.258-1.4247,9.6878c0.7677,4.3609,2.1783,6.7571,4.7194,7.1804
					c2.5405,0.4239-0.2783,1.2791-2.3955,2.338c-2.1172,1.0583-24.3189,5.8933-30.5646,4.8345
					C53.4832,262.1418,66.9282,240.6331,66.9282,240.6331z"/>
				<path style="fill:#619BBC;stroke:#2F4A56;stroke-linecap:round;stroke-linejoin:round;stroke-miterlimit:10;" d="M42.564,267.35
					c0,0,2.5074,3.9407,6.4475,5.0155c3.8789,1.0577,31.0369-3.8734,37.6459-8.9752c-3.3419-0.7677-5.6707-2.026-5.9313-10.5387
					c-0.1694-5.5508,0.4649-13.2431,6.0621-15.3065c-2.0835-0.123-17.9081,1.7367-23.0887,2.0413
					c-12.18,0.7164-17.554,10.7467-17.554,10.7467"/>
				<path style="fill:#95B9FF;" d="M53.5768,191.3134l-3.132-3.132c0,0-10.0304,69.1382-9.6725,75.9448
					c0.1089,2.0646,1.6052,3.6985,3.633,4.9757c-0.2881-0.5725-0.1902-1.2626-0.501-1.8437
					C40.6267,261.1252,52.5503,191.5502,53.5768,191.3134z"/>
				<path style="fill:#95B9FF;" d="M60.532,241.8682c5.1005-1.0204,22.3511-3.2324,24.5025-3.3375
					c0.4264-0.334,0.8938-0.6166,1.404-0.8393l0.0379-0.1633c-2.0957-0.1065-17.8457,1.7685-22.7768,2.0584
					c-12.18,0.7164-17.554,10.7467-17.554,10.7467c-0.2025-0.2392-1.1109,1.1292-1.3763,3.2525
					c-0.1303,1.0436,1.128-1.2608,1.128-1.2608S53.5865,243.2574,60.532,241.8682z"/>
			</g>
			<g>
				<path style="fill:#FFA96A;stroke:#6B4429;stroke-miterlimit:10;" d="M84.5548,136.0827c0,0,3.047,29.3143,0.6485,34.5656
					c0.0496,2.2655,24.7252,17.6093,27.629,24.734c3.4929-7.9722,2.2071-12.9158,2.2071-16.4954l-0.4172-25.4736L84.5548,136.0827z"
					/>
				<path style="fill:#CE8452;" d="M84.5548,136.0827c-0.3982-3.3629,30.0673,17.3307,30.0673,17.3307l0.0918,5.6095
					c-1.9049,1.9456-11.233,3.5471-12.9813,3.6599c-4.9476,0.319-6.105-2.5695-9.6413-7.5168
					C87.4979,148.7401,84.5548,136.0827,84.5548,136.0827"/>
				<path style="fill:#C6C6C6;stroke:#575A5B;stroke-linecap:round;stroke-linejoin:round;stroke-miterlimit:10;" d="
					M100.8389,180.1174c6.4947,5.2835,12.0277,16.4954,12.0277,16.4954c-7.5168-8.9785-18.8826-11.7558-18.8826-11.7558
					S94.3448,174.834,100.8389,180.1174z"/>
				<g>
					<path style="fill:#FFA96A;stroke:#6B4429;stroke-miterlimit:10;" d="M99.8681,77.2517
						c8.3916-0.4303,25.0714,8.1738,24.9032,18.7615c-0.1676,10.5876-1.8027,21.9543-1.8027,21.9543s3.3308,6.1417,3.1626,9.671
						c-0.1683,3.529-1.0173,21.7259-3.5755,27.5919c-1.6498,3.7832-20.0106,6.617-22.8557,4.8736
						c-1.4107-0.8647-11.764-12.9403-14.2849-21.8473c-2.5209-8.9073-8.9067-34.788-5.0412-43.6952
						C84.2386,85.6546,86.7595,77.924,99.8681,77.2517z"/>
					<path style="fill:#FCBD92;" d="M122.785,109.4606c0.7585-4.2692-0.7726-5.7202-0.7175-9.2094
						c0.0611-3.8526,2.0927-5.6961-0.958-9.3975c-4.9733-6.0353-16.136-12.8798-21.9479-13.5527
						c0.2343-0.0171,0.4649-0.037,0.7065-0.0492c8.3916-0.4303,25.0714,8.1738,24.9032,18.7615
						c-0.1676,10.5876-1.8027,21.9543-1.8027,21.9543S122.4045,111.6029,122.785,109.4606z"/>
					<path style="fill:#FCBD92;" d="M121.1095,154.0722c2.5582-5.8661,2.9742-22.9046,3.1424-26.4337
						c0.1682-3.5293-1.2834-9.671-1.2834-9.671s3.3308,6.1417,3.1626,9.671c-0.1683,3.529-1.0173,21.7259-3.5755,27.5919
						c-0.6362,1.4593-3.7572,2.7769-7.5144,3.7446C110.1034,160.2469,119.7857,157.1085,121.1095,154.0722z"/>
					<path style="fill:#CE8452;" d="M101.5791,160.1041c0.3052,0.1872,0.7983,0.3187,1.4222,0.4047
						c-1.5507,0.0572-2.7399-0.0606-3.3014-0.4047c-1.4107-0.8647-11.764-12.9403-14.2849-21.8473
						c-0.2068-0.7316-0.4399-1.5777-0.6912-2.5197C90.072,147.9186,100.1684,159.2394,101.5791,160.1041z"/>
					<path style="opacity:0.4;fill:#3F4142;" d="M110.2844,88.6322c-4.2833-2.3056-9.9814-3.8447-16.5972-2.1784
						c-6.6164,1.6654-14.866,11.8007-2.76,22.8686c0,0,0.244-0.8074-0.2019-2.3407c-0.4447-1.5339-6.5619-16.0992,4.6326-17.5279
						C106.5511,88.0253,110.2844,88.6322,110.2844,88.6322z"/>
					<path style="fill:#564F4C;stroke:#473F3D;stroke-miterlimit:10;" d="M102.6251,105.348
						c0.7023-1.5443-4.9476-1.915-6.2242-1.7556c-1.2767,0.1597-1.4363,1.7556-3.3516,2.075
						c-1.9153,0.3193-2.2346,1.5959-1.7556,2.0746c0.479,0.4789,3.6709,0.1597,5.7459-1.2767
						C99.1144,105.029,101.8274,107.1037,102.6251,105.348z"/>
					<path style="fill:#CE8452;" d="M118.7041,132.3999c0.011,1.0111-0.2202,3.84-3.9113,4.3035
						c-2.2585,0.2835-4.0471-0.6188-5.2278-1.5284"/>
					<path style="fill:#FFA96A;stroke:#6B4429;stroke-linecap:round;stroke-linejoin:round;stroke-miterlimit:10;" d="
						M110.0479,115.1804c0.3258,2.3363,1.7108,7.201,4.9945,10.3724c3.2837,3.1705,5.8579,6.0025,3.1797,8.1775
						c-2.6762,2.1744-4.994,2.1021-7.2226,1.5639c-1.5978-0.3861-1.9789-0.7289-1.9789-0.7289"/>
					<path style="fill:#CE8452;" d="M106.8962,150.6988c1.7746-0.9396,5.6376-2.9231,9.0828-1.3571"/>
					<path style="fill:#564F4C;stroke:#473F3D;stroke-linecap:round;stroke-linejoin:round;stroke-miterlimit:10;" d="
						M121.0947,86.426c0,0,3.4648,5.4734,5.0308,6.2536c1.566,0.7802,2.2561,3.1999,0.6381,7.0498
						c-1.9796,4.7105-3.7951,18.2381-3.7951,18.2381c-0.0294-0.7977-0.1597-3.5073,0.0251-4.1979
						c0.835-3.132,1.3929-8.0157,0.5224-11.7435c-0.9353-4.005,1.67-4.1239,0.4172-8.9785
						C122.8474,88.8404,119.2682,87.2613,121.0947,86.426z"/>
					<path style="fill:#564F4C;stroke:#473F3D;stroke-miterlimit:10;" d="M70.6835,98.4607
						c-0.6845,4.6436,1.4186,14.1962,3.8685,17.5778c2.4499,3.3822,6.3472,11.7744,6.3472,11.7744s2.5056,2.7182,2.4224-0.5221
						c-0.3132-12.1757,1.2063-16.3638,2.1544-20.7557c0.8681-4.0208-3.9272-5.9202-2.5949-10.7534
						C84.0367,91.5935,71.1331,95.4109,70.6835,98.4607z"/>
					<path style="fill:#564F4C;stroke:#473F3D;stroke-linecap:round;stroke-linejoin:round;stroke-miterlimit:10;" d="
						M78.7276,108.1155c-2.8739,3.3449-8.7323,0-8.7287-10.0567c0.0013-3.889,4.865-14.6455,6.9541-14.6161
						c2.0896,0.0294,9.0479,4.3643,8.175,5.5143C84.2545,90.107,82.9528,103.1972,78.7276,108.1155z"/>
					
						<path style="fill:#564F4C;stroke:#473F3D;stroke-width:1.034;stroke-linecap:round;stroke-linejoin:round;stroke-miterlimit:10;" d="
						M124.1585,91.3388c0,0,0.7985-12.0148-8.3592-16.4237c-9.1596-4.4092-16.9496-5.6435-28.2989,0.5378
						c-11.348,6.1822-10.5561,5.073-10.9704,6.9424c-0.4142,1.8698,6.6047,5.1596,9.5757,4.0747
						c2.9704-1.086,11.4486-3.7843,20.4089-0.6068C115.4756,89.0406,121.2395,94.0317,124.1585,91.3388z"/>
					<path style="fill:#726A67;" d="M113.3961,88.5883c-1.971-0.971-4.1852-1.9997-6.6614-2.8773
						c-2.1625-0.7675-4.2944-1.1289-6.3243-1.2248c-0.0156-0.0198-0.0293-0.037-0.0437-0.0562
						c-4.8504-6.4131-13.8968-6.4527-20.3094-5.0525c1.1328-0.8659,2.905-1.3917,6.0528-3.1519
						C94.8852,76.8075,111.0725,78.8264,113.3961,88.5883z"/>
					<path style="fill:#726A67;" d="M116.5176,89.8519c0,0,2.3324-8.5986-6.8131-12.6371
						c-5.423-2.3942-12.8602-3.4606-19.3455-3.1951c1.0632-0.4861,2.0955-0.9067,3.1022-1.26
						c10.0894-0.1929,20.2125,1.8186,23.223,5.0976c4.4444,4.8399,3.6089,11.1746,2.6402,13.5704
						c-0.8554-0.335-1.7923-0.7778-2.8147-1.2826C116.5154,89.9601,116.5176,89.8519,116.5176,89.8519z"/>
					<path style="fill:#564F4C;" d="M116.5176,89.8519c0,0-0.0022,0.1083-0.0079,0.2933c-0.961-0.476-1.9977-1.0067-3.1136-1.5569
						c-2.3236-9.7619-18.5109-11.7808-27.286-12.3627c0.6542-0.3666,0.6215-0.353,1.3903-0.7728
						c0.9783-0.5327,1.9303-1.007,2.8587-1.4332c6.4852-0.2655,13.9224,0.8009,19.3455,3.1951
						C118.85,81.2533,116.5176,89.8519,116.5176,89.8519z"/>
					<path style="fill:#726A67;stroke:#473F3D;stroke-linecap:round;stroke-linejoin:round;stroke-miterlimit:10;" d="
						M109.8825,88.3697c-4.2845-2.3058-9.6872-4.8307-16.3029-3.1647c-6.6152,1.666-14.8648,11.8016-2.7601,22.8689
						c0,0,0.2447-0.8066-0.2006-2.3404c-0.4447-1.5336-6.6696-17.3475,4.5255-18.7765
						C106.3382,85.5292,109.8825,88.3697,109.8825,88.3697z"/>
					<path style="fill:#564F4C;stroke:#473F3D;stroke-linecap:round;stroke-linejoin:round;stroke-miterlimit:10;" d="
						M111.8076,88.8334c0,0-8.87-6.3145-19.4674-5.2513c-10.5957,1.0628-13.4995,5.7122-12.8193,13.6695
						c0.6802,7.9576,6.8537,12.1454,6.8537,12.1454s-5.3642-14.9449,0.9316-20.355
						C93.6016,83.6317,106.4049,86.3092,111.8076,88.8334z"/>
					<path style="fill:#564F4C;stroke:#473F3D;stroke-miterlimit:10;" d="M110.1731,105.0088c0,0,1.158-2.2416,5.79-2.5188
						c4.6307-0.2765,5.9955,4.0533,5.9955,4.0533s-0.7506,0.4184-2.0988-0.0507c-1.3489-0.4692-5.3513-1.5611-6.8935-1.0403
						C111.4247,105.9738,110.1731,105.0088,110.1731,105.0088z"/>
					
						<path style="fill:#FFA96A;stroke:#6B4429;stroke-width:0.8981;stroke-linecap:round;stroke-linejoin:round;stroke-miterlimit:10;" d="
						M120.3833,141.2805c-2.0878,1.8792-10.6243,4.8023-17.4224,0.4175"/>
					<path style="fill:#FFA96A;stroke:#6B4429;stroke-width:0.7398;stroke-miterlimit:10;" d="M83.5602,122.4239
						c0,0-4.5402-5.4147-7.3701-2.6745c-2.831,2.7408,0.9494,13.9693,4.4288,16.8805c3.4795,2.9109,4.4381-1.1268,4.4381-1.1268"/>
					<path style="fill:#FFA96A;stroke:#6B4429;stroke-width:0.7398;stroke-miterlimit:10;" d="M79.9767,124.42
						c-2.3307-0.4955-1.1983,4.3246,0.6387,5.2161c1.837,0.891,1.3562,3.3945,1.2754,4.4567"/>
				</g>
				<path style="fill:#DEE0E2;stroke:#575A5B;stroke-linecap:round;stroke-linejoin:round;stroke-miterlimit:10;" d="
					M85.9319,156.2099c0,0-0.731,0.9839,1.4614,4.9289c2.1924,3.945,13.363,18.4566,13.363,18.4566s0.6264,0.9399-1.566,1.0442
					s-6.2634,5.7422-8.8736,8.1432c-2.6102,2.401-6.6824,4.5591-8.6656,4.0022c-1.9832-0.557,2.8188-3.8979,2.6102-8.9091
					c-0.2086-5.0112-0.1046-12.0059-1.3574-16.0775C81.651,163.7267,81.4431,156.4188,85.9319,156.2099z"/>
				<path style="fill:#C6C6C6;stroke:#575A5B;stroke-linecap:round;stroke-linejoin:round;stroke-miterlimit:10;" d="
					M117.7939,179.9088c-1.1482,2.8188-0.438,7.099-1.6908,9.9178c-1.2528,2.8188-3.2373,4.9069-3.2366,6.7861
					c0.0006,1.8792-0.3126-6.8308,0.9402-10.0447c1.2528-3.214,0.835-25.4293,0.835-25.4293s2.9234,5.2602,2.9234,8.8831
					C117.5652,173.6448,118.9421,177.09,117.7939,179.9088z"/>
				<path style="fill:#DEE0E2;stroke:#575A5B;stroke-miterlimit:10;" d="M114.6417,161.1388c0,0,4.071,8.0166,6.4726,10.1047
					c2.4016,2.0881,6.1594,17.7555,4.0716,23.3895c0,0-0.3132-4.9553-2.5056-8.0649c-2.1924-3.1097-5.1152-7.3899-5.4284-9.478
					C116.9388,175.0019,117.1474,167.738,114.6417,161.1388z"/>
			</g>
			<g>
				<path style="fill:#452109;" d="M91.7482,119.8203c0,0-0.5479-4.4999,3.676-4.8217s7.9695-0.9474,8.6893,3.5833
					C104.4544,119.9623,96.7253,121.3628,91.7482,119.8203z"/>
				<path style="fill:#FFFFFF;" d="M91.8621,120.7837c0,0-0.126-4.0695,4.0979-4.3913c4.2239-0.3219,8.0081,0.1186,8.3365,2.9211
					C104.6374,120.6938,96.8392,122.3261,91.8621,120.7837z"/>
				<g>
					<defs>
						<path id="SVGID_71_" d="M91.8621,120.7837c0,0-0.126-4.0695,4.0979-4.3913c4.2239-0.3219,8.0081,0.1186,8.3365,2.9211
							C104.6374,120.6938,96.8392,122.3261,91.8621,120.7837z"/>
					</defs>
					<clipPath id="SVGID_4_">
						<use xlink:href="#SVGID_71_"  style="overflow:visible;"/>
					</clipPath>
					
						<ellipse transform="matrix(0.9931 -0.1174 0.1174 0.9931 -13.2893 12.3696)" style="clip-path:url(#SVGID_4_);fill:#A85715;" cx="98.334" cy="118.9686" rx="3.398" ry="3.398"/>
					
						<ellipse transform="matrix(0.9931 -0.1174 0.1174 0.9931 -13.2893 12.3696)" style="clip-path:url(#SVGID_4_);fill:#3D1800;" cx="98.334" cy="118.9686" rx="1.7215" ry="1.7215"/>
					
						<ellipse transform="matrix(0.9931 -0.1174 0.1174 0.9931 -13.2221 12.6027)" style="clip-path:url(#SVGID_4_);fill:#FFFFFF;" cx="100.3458" cy="118.5148" rx="0.8764" ry="0.8764"/>
				</g>
				<path style="fill:#452109;" d="M122.8351,116.7631c0,0-0.232-4.0125-3.968-3.6269c-3.7361,0.3856-7.1028,0.4308-7.016,4.4974
					C111.7715,118.8917,118.736,118.8942,122.8351,116.7631z"/>
				<path style="fill:#FFFFFF;" d="M122.8877,117.6216c0,0-0.5321-3.5704-4.2682-3.1848s-6.9682,1.367-6.8127,3.8639
					C111.7273,119.5588,118.7886,119.7527,122.8877,117.6216z"/>
				<g>
					<defs>
						<path id="SVGID_73_" d="M122.8877,117.6216c0,0-0.5321-3.5704-4.2682-3.1848s-6.9682,1.367-6.8127,3.8639
							C111.7273,119.5588,118.7886,119.7527,122.8877,117.6216z"/>
					</defs>
					<clipPath id="SVGID_6_">
						<use xlink:href="#SVGID_73_"  style="overflow:visible;"/>
					</clipPath>
					
						<ellipse transform="matrix(0.9981 -0.0612 0.0612 0.9981 -6.9413 7.3731)" style="clip-path:url(#SVGID_6_);fill:#A85715;" cx="116.9547" cy="117.0591" rx="3.0128" ry="3.0128"/>
					
						<ellipse transform="matrix(0.9981 -0.0612 0.0612 0.9981 -6.9413 7.3731)" style="clip-path:url(#SVGID_6_);fill:#3D1800;" cx="116.9547" cy="117.0591" rx="1.5597" ry="1.5597"/>
					
						<ellipse transform="matrix(0.9981 -0.0612 0.0612 0.9981 -6.8563 7.4888)" style="clip-path:url(#SVGID_6_);fill:#FFFFFF;" cx="118.8862" cy="115.7278" rx="0.7771" ry="0.7771"/>
				</g>
			</g>
			<path style="fill:#619BBC;stroke:#2F4A56;stroke-linecap:round;stroke-linejoin:round;stroke-miterlimit:10;" d="
				M56.9082,319.9095c0.1012-0.6686,0.2288-1.3187,0.3688-1.9604c-0.0854,1.4037-0.1539,2.5735-0.2018,3.4563
				c0.1479,0.7887,0.2919,1.3417,0.4417,1.7466C56.9538,322.2262,56.7196,321.1537,56.9082,319.9095z"/>
			<path style="opacity:0.4;fill:#545454;" d="M57.5169,323.152c0.2568,0.4221,0.5805,0.8141,0.9671,1.1767
				C58.0979,324.1354,57.7967,323.9088,57.5169,323.152z"/>
		</g>
	</g>
	<g>
		<path style="fill:#2A4690;" d="M123.7004,21.7555V10.3024h8.2812v1.3516h-6.7656v3.5078h6.3359v1.3438h-6.3359v3.8984h7.0312
			v1.3516H123.7004z"/>
		<path style="fill:#2A4690;" d="M133.2238,21.7555l3.0313-4.3125l-2.8047-3.9844h1.7578l1.2734,1.9453
			c0.2393,0.3701,0.4326,0.6797,0.5781,0.9297c0.2295-0.3438,0.4404-0.6484,0.6328-0.9141l1.3984-1.9609h1.6797l-2.8672,3.9063
			l3.0859,4.3906h-1.7266l-1.7031-2.5781l-0.4531-0.6953l-2.1797,3.2734H133.2238z"/>
		<path style="fill:#2A4690;" d="M142.1613,24.9352V13.4587h1.2813v1.0781c0.3018-0.4219,0.6436-0.7383,1.0234-0.9492
			s0.8408-0.3164,1.3828-0.3164c0.708,0,1.333,0.1826,1.875,0.5469s0.9502,0.8789,1.2266,1.543s0.4141,1.3916,0.4141,2.1836
			c0,0.8486-0.1523,1.6133-0.457,2.293s-0.7471,1.2002-1.3281,1.5625s-1.1914,0.543-1.832,0.543
			c-0.4688,0-0.8896-0.0986-1.2617-0.2969s-0.6787-0.4482-0.918-0.75v4.0391H142.1613z M143.4348,17.654
			c0,1.0674,0.2158,1.8564,0.6484,2.3672s0.9561,0.7656,1.5703,0.7656c0.625,0,1.1602-0.2646,1.6055-0.793s0.668-1.3477,0.668-2.457
			c0-1.0576-0.2178-1.8486-0.6523-2.375s-0.9541-0.7891-1.5586-0.7891c-0.5986,0-1.1289,0.2803-1.5898,0.8398
			S143.4348,16.5866,143.4348,17.654z"/>
		<path style="fill:#2A4690;" d="M156.7394,19.0837l1.4531,0.1797c-0.2295,0.8486-0.6533,1.5078-1.2734,1.9766
			s-1.4111,0.7031-2.375,0.7031c-1.2139,0-2.1758-0.374-2.8867-1.1211s-1.0664-1.7959-1.0664-3.1445
			c0-1.3955,0.3594-2.4795,1.0781-3.25s1.6514-1.1563,2.7969-1.1563c1.1094,0,2.0156,0.3779,2.7188,1.1328
			s1.0547,1.8174,1.0547,3.1875c0,0.083-0.0029,0.208-0.0078,0.375h-6.1875c0.0518,0.9111,0.3096,1.6094,0.7734,2.0938
			s1.042,0.7266,1.7344,0.7266c0.5156,0,0.9561-0.1357,1.3203-0.4063S156.5256,19.6774,156.7394,19.0837z M152.1223,16.8102h4.6328
			c-0.0625-0.6982-0.2393-1.2217-0.5313-1.5703c-0.4482-0.542-1.0283-0.8125-1.7422-0.8125c-0.6455,0-1.1885,0.2158-1.6289,0.6484
			S152.1691,16.0866,152.1223,16.8102z"/>
		<path style="fill:#2A4690;" d="M159.9426,21.7555v-8.2969h1.2656v1.2578c0.3232-0.5889,0.6211-0.9766,0.8945-1.1641
			s0.5742-0.2813,0.9023-0.2813c0.4736,0,0.9561,0.1514,1.4453,0.4531l-0.4844,1.3047c-0.3438-0.2031-0.6875-0.3047-1.0313-0.3047
			c-0.3076,0-0.583,0.0928-0.8281,0.2773s-0.4189,0.4414-0.5234,0.7695c-0.1563,0.5-0.2344,1.0469-0.2344,1.6406v4.3438H159.9426z"
			/>
		<path style="fill:#2A4690;" d="M165.2941,11.9196v-1.6172h1.4063v1.6172H165.2941z M165.2941,21.7555v-8.2969h1.4063v8.2969
			H165.2941z"/>
		<path style="fill:#2A4690;" d="M174.5207,19.0837l1.4531,0.1797c-0.2295,0.8486-0.6533,1.5078-1.2734,1.9766
			s-1.4111,0.7031-2.375,0.7031c-1.2139,0-2.1758-0.374-2.8867-1.1211s-1.0664-1.7959-1.0664-3.1445
			c0-1.3955,0.3594-2.4795,1.0781-3.25s1.6514-1.1563,2.7969-1.1563c1.1094,0,2.0156,0.3779,2.7188,1.1328
			s1.0547,1.8174,1.0547,3.1875c0,0.083-0.0029,0.208-0.0078,0.375h-6.1875c0.0518,0.9111,0.3096,1.6094,0.7734,2.0938
			s1.042,0.7266,1.7344,0.7266c0.5156,0,0.9561-0.1357,1.3203-0.4063S174.3068,19.6774,174.5207,19.0837z M169.9035,16.8102h4.6328
			c-0.0625-0.6982-0.2393-1.2217-0.5313-1.5703c-0.4482-0.542-1.0283-0.8125-1.7422-0.8125c-0.6455,0-1.1885,0.2158-1.6289,0.6484
			S169.9504,16.0866,169.9035,16.8102z"/>
		<path style="fill:#2A4690;" d="M177.7394,21.7555v-8.2969h1.2656v1.1797c0.6094-0.9111,1.4893-1.3672,2.6406-1.3672
			c0.5,0,0.96,0.0898,1.3789,0.2695s0.7334,0.415,0.9414,0.707s0.3545,0.6377,0.4375,1.0391
			c0.0518,0.2607,0.0781,0.7158,0.0781,1.3672v5.1016h-1.4063v-5.0469c0-0.5732-0.0547-1.001-0.1641-1.2852
			s-0.3037-0.5107-0.582-0.6797s-0.6055-0.2539-0.9805-0.2539c-0.5986,0-1.1162,0.1904-1.5508,0.5703s-0.6523,1.1016-0.6523,2.1641
			v4.5313H177.7394z"/>
		<path style="fill:#2A4690;" d="M192.0519,18.7165l1.3828,0.1797c-0.1514,0.9531-0.5381,1.6992-1.1602,2.2383
			s-1.3867,0.8086-2.293,0.8086c-1.1357,0-2.0479-0.3711-2.7383-1.1133s-1.0352-1.8057-1.0352-3.1914
			c0-0.8955,0.1484-1.6797,0.4453-2.3516s0.749-1.1758,1.3555-1.5117s1.2666-0.5039,1.9805-0.5039
			c0.9014,0,1.6377,0.2275,2.2109,0.6836s0.9404,1.1025,1.1016,1.9414l-1.3672,0.2109c-0.1299-0.5576-0.3604-0.9766-0.6914-1.2578
			s-0.7305-0.4219-1.1992-0.4219c-0.708,0-1.2842,0.2539-1.7266,0.7617s-0.6641,1.3115-0.6641,2.4102
			c0,1.1143,0.2139,1.9248,0.6406,2.4297s0.9844,0.7578,1.6719,0.7578c0.5518,0,1.0127-0.1689,1.3828-0.5078
			S191.9533,19.4196,192.0519,18.7165z"/>
		<path style="fill:#2A4690;" d="M194.6457,11.9196v-1.6172h1.4063v1.6172H194.6457z M194.6457,21.7555v-8.2969h1.4063v8.2969
			H194.6457z"/>
		<path style="fill:#2A4690;" d="M203.6066,20.7321c-0.5205,0.4424-1.0225,0.7549-1.5039,0.9375s-0.999,0.2734-1.5508,0.2734
			c-0.9111,0-1.6123-0.2227-2.1016-0.668s-0.7344-1.0146-0.7344-1.707c0-0.4063,0.0928-0.7773,0.2773-1.1133
			s0.4268-0.6055,0.7266-0.8086s0.6367-0.3564,1.0117-0.4609c0.2764-0.0732,0.6924-0.1436,1.25-0.2109
			c1.1357-0.1357,1.9717-0.2969,2.5078-0.4844c0.0049-0.1924,0.0078-0.3154,0.0078-0.3672c0-0.5732-0.1328-0.9766-0.3984-1.2109
			c-0.3594-0.3174-0.8936-0.4766-1.6016-0.4766c-0.6611,0-1.1494,0.1162-1.4648,0.3477s-0.5479,0.6416-0.6992,1.2305l-1.375-0.1875
			c0.125-0.5889,0.3311-1.0635,0.6172-1.4258s0.7002-0.6406,1.2422-0.8359s1.1689-0.293,1.8828-0.293
			c0.708,0,1.2842,0.083,1.7266,0.25s0.7686,0.376,0.9766,0.6289s0.3545,0.5713,0.4375,0.957
			c0.0469,0.2393,0.0703,0.6719,0.0703,1.2969v1.875c0,1.3076,0.0303,2.1338,0.0898,2.4805s0.1787,0.6787,0.3555,0.9961h-1.4688
			C203.7424,21.4635,203.6486,21.1227,203.6066,20.7321z M203.4894,17.5915c-0.5107,0.208-1.2764,0.3857-2.2969,0.5313
			c-0.5781,0.083-0.9873,0.1768-1.2266,0.2813s-0.4248,0.2568-0.5547,0.457s-0.1953,0.4229-0.1953,0.668
			c0,0.375,0.1416,0.6875,0.4258,0.9375s0.6992,0.375,1.2461,0.375c0.542,0,1.0234-0.1182,1.4453-0.3555
			s0.7314-0.5615,0.9297-0.9727c0.1514-0.3174,0.2266-0.7861,0.2266-1.4063V17.5915z"/>
		<path style="fill:#2A4690;" d="M206.5285,19.279l1.3906-0.2188c0.0781,0.5576,0.2959,0.9844,0.6523,1.2813
			s0.8555,0.4453,1.4961,0.4453c0.6455,0,1.125-0.1318,1.4375-0.3945s0.4688-0.5713,0.4688-0.9258
			c0-0.3174-0.1377-0.5674-0.4141-0.75c-0.1924-0.125-0.6719-0.2842-1.4375-0.4766c-1.0313-0.2607-1.7461-0.4854-2.1445-0.6758
			s-0.7002-0.4531-0.9063-0.7891s-0.3086-0.707-0.3086-1.1133c0-0.3701,0.085-0.7119,0.2539-1.0273s0.3994-0.5771,0.6914-0.7852
			c0.2188-0.1611,0.5166-0.2979,0.8945-0.4102s0.7822-0.168,1.2148-0.168c0.6514,0,1.2227,0.0938,1.7148,0.2813
			s0.8555,0.4414,1.0898,0.7617s0.3955,0.749,0.4844,1.2852l-1.375,0.1875c-0.0625-0.4268-0.2432-0.7607-0.543-1
			s-0.7227-0.3594-1.2695-0.3594c-0.6455,0-1.1064,0.1064-1.3828,0.3203s-0.4141,0.4639-0.4141,0.75
			c0,0.1826,0.0576,0.3467,0.1719,0.4922c0.1143,0.1514,0.2939,0.2764,0.5391,0.375c0.1406,0.0518,0.5547,0.1719,1.2422,0.3594
			c0.9951,0.2656,1.6885,0.4834,2.082,0.6523s0.7021,0.415,0.9258,0.7383s0.3359,0.7236,0.3359,1.2031
			c0,0.4688-0.1367,0.9102-0.4102,1.3242s-0.668,0.7344-1.1836,0.9609s-1.0986,0.3398-1.75,0.3398
			c-1.0781,0-1.8994-0.2236-2.4648-0.6719S206.6848,20.1589,206.5285,19.279z"/>
	</g>
	<g>
		<path style="fill:#2B2B38;" d="M507.2121,49.4655l-4.4375-11.4531h1.6406l2.9766,8.3203c0.2393,0.667,0.4404,1.292,0.6016,1.875
			c0.1768-0.625,0.3828-1.25,0.6172-1.875l3.0938-8.3203h1.5469l-4.4844,11.4531H507.2121z"/>
		<path style="fill:#2B2B38;" d="M518.6574,48.4421c-0.5205,0.4424-1.0225,0.7549-1.5039,0.9375s-0.999,0.2734-1.5508,0.2734
			c-0.9111,0-1.6123-0.2227-2.1016-0.668s-0.7344-1.0146-0.7344-1.707c0-0.4063,0.0928-0.7773,0.2773-1.1133
			s0.4268-0.6055,0.7266-0.8086s0.6367-0.3564,1.0117-0.4609c0.2764-0.0732,0.6924-0.1436,1.25-0.2109
			c1.1357-0.1357,1.9717-0.2969,2.5078-0.4844c0.0049-0.1924,0.0078-0.3154,0.0078-0.3672c0-0.5732-0.1328-0.9766-0.3984-1.2109
			c-0.3594-0.3174-0.8936-0.4766-1.6016-0.4766c-0.6611,0-1.1494,0.1162-1.4648,0.3477s-0.5479,0.6416-0.6992,1.2305l-1.375-0.1875
			c0.125-0.5889,0.3311-1.0635,0.6172-1.4258s0.7002-0.6406,1.2422-0.8359s1.1689-0.293,1.8828-0.293
			c0.708,0,1.2842,0.083,1.7266,0.25s0.7686,0.376,0.9766,0.6289s0.3545,0.5713,0.4375,0.957
			c0.0469,0.2393,0.0703,0.6719,0.0703,1.2969v1.875c0,1.3076,0.0303,2.1338,0.0898,2.4805s0.1787,0.6787,0.3555,0.9961h-1.4688
			C518.7932,49.1735,518.6994,48.8327,518.6574,48.4421z M518.5402,45.3014c-0.5107,0.208-1.2764,0.3857-2.2969,0.5313
			c-0.5781,0.083-0.9873,0.1768-1.2266,0.2813s-0.4248,0.2568-0.5547,0.457s-0.1953,0.4229-0.1953,0.668
			c0,0.375,0.1416,0.6875,0.4258,0.9375s0.6992,0.375,1.2461,0.375c0.542,0,1.0234-0.1182,1.4453-0.3555
			s0.7314-0.5615,0.9297-0.9727c0.1514-0.3174,0.2266-0.7861,0.2266-1.4063V45.3014z"/>
		<path style="fill:#2B2B38;" d="M522.1105,49.4655V38.0124h1.4063v11.4531H522.1105z"/>
		<path style="fill:#2B2B38;" d="M525.173,45.3171c0-1.5361,0.4268-2.6748,1.2813-3.4141c0.7139-0.6143,1.583-0.9219,2.6094-0.9219
			c1.1406,0,2.0732,0.374,2.7969,1.1211s1.0859,1.7803,1.0859,3.0977c0,1.0674-0.1602,1.9072-0.4805,2.5195
			s-0.7861,1.0869-1.3984,1.4258s-1.2803,0.5078-2.0039,0.5078c-1.1611,0-2.1006-0.3721-2.8164-1.1172
			S525.173,46.7184,525.173,45.3171z M526.6183,45.3171c0,1.0625,0.2314,1.8584,0.6953,2.3867s1.0469,0.793,1.75,0.793
			c0.6982,0,1.2783-0.2656,1.7422-0.7969s0.6953-1.3408,0.6953-2.4297c0-1.0264-0.2334-1.8037-0.6992-2.332
			s-1.0459-0.793-1.7383-0.793c-0.7031,0-1.2861,0.2627-1.75,0.7891S526.6183,44.2546,526.6183,45.3171z"/>
		<path style="fill:#2B2B38;" d="M534.5793,49.4655v-8.2969h1.2656v1.2578c0.3232-0.5889,0.6211-0.9766,0.8945-1.1641
			s0.5742-0.2813,0.9023-0.2813c0.4736,0,0.9561,0.1514,1.4453,0.4531l-0.4844,1.3047c-0.3438-0.2031-0.6875-0.3047-1.0313-0.3047
			c-0.3076,0-0.583,0.0928-0.8281,0.2773s-0.4189,0.4414-0.5234,0.7695c-0.1563,0.5-0.2344,1.0469-0.2344,1.6406v4.3438H534.5793z"
			/>
		<path style="fill:#2B2B38;" d="M545.6027,46.7936l1.4531,0.1797c-0.2295,0.8486-0.6533,1.5078-1.2734,1.9766
			s-1.4111,0.7031-2.375,0.7031c-1.2139,0-2.1758-0.374-2.8867-1.1211s-1.0664-1.7959-1.0664-3.1445
			c0-1.3955,0.3594-2.4795,1.0781-3.25s1.6514-1.1563,2.7969-1.1563c1.1094,0,2.0156,0.3779,2.7188,1.1328
			s1.0547,1.8174,1.0547,3.1875c0,0.083-0.0029,0.208-0.0078,0.375h-6.1875c0.0518,0.9111,0.3096,1.6094,0.7734,2.0938
			s1.042,0.7266,1.7344,0.7266c0.5156,0,0.9561-0.1357,1.3203-0.4063S545.3889,47.3874,545.6027,46.7936z M540.9855,44.5202h4.6328
			c-0.0625-0.6982-0.2393-1.2217-0.5313-1.5703c-0.4482-0.542-1.0283-0.8125-1.7422-0.8125c-0.6455,0-1.1885,0.2158-1.6289,0.6484
			S541.0324,43.7966,540.9855,44.5202z"/>
		<path style="fill:#2B2B38;" d="M548.259,46.9889l1.3906-0.2188c0.0781,0.5576,0.2959,0.9844,0.6523,1.2813
			s0.8555,0.4453,1.4961,0.4453c0.6455,0,1.125-0.1318,1.4375-0.3945s0.4688-0.5713,0.4688-0.9258
			c0-0.3174-0.1377-0.5674-0.4141-0.75c-0.1924-0.125-0.6719-0.2842-1.4375-0.4766c-1.0313-0.2607-1.7461-0.4854-2.1445-0.6758
			s-0.7002-0.4531-0.9063-0.7891s-0.3086-0.707-0.3086-1.1133c0-0.3701,0.085-0.7119,0.2539-1.0273s0.3994-0.5771,0.6914-0.7852
			c0.2188-0.1611,0.5166-0.2979,0.8945-0.4102s0.7822-0.168,1.2148-0.168c0.6514,0,1.2227,0.0938,1.7148,0.2813
			s0.8555,0.4414,1.0898,0.7617s0.3955,0.749,0.4844,1.2852l-1.375,0.1875c-0.0625-0.4268-0.2432-0.7607-0.543-1
			s-0.7227-0.3594-1.2695-0.3594c-0.6455,0-1.1064,0.1064-1.3828,0.3203s-0.4141,0.4639-0.4141,0.75
			c0,0.1826,0.0576,0.3467,0.1719,0.4922c0.1143,0.1514,0.2939,0.2764,0.5391,0.375c0.1406,0.0518,0.5547,0.1719,1.2422,0.3594
			c0.9951,0.2656,1.6885,0.4834,2.082,0.6523s0.7021,0.415,0.9258,0.7383s0.3359,0.7236,0.3359,1.2031
			c0,0.4688-0.1367,0.9102-0.4102,1.3242s-0.668,0.7344-1.1836,0.9609s-1.0986,0.3398-1.75,0.3398
			c-1.0781,0-1.8994-0.2236-2.4648-0.6719S548.4152,47.8688,548.259,46.9889z"/>
	</g>
	<g>
		<path style="fill:#3AA7AF;" d="M482.2648,295.4225v-11.4531h1.5156v11.4531H482.2648z"/>
		<path style="fill:#3AA7AF;" d="M486.2726,295.4225v-8.2969h1.2656v1.1797c0.6094-0.9111,1.4893-1.3672,2.6406-1.3672
			c0.5,0,0.96,0.0898,1.3789,0.2695s0.7334,0.415,0.9414,0.707s0.3545,0.6377,0.4375,1.0391
			c0.0518,0.2607,0.0781,0.7158,0.0781,1.3672v5.1016h-1.4063v-5.0469c0-0.5732-0.0547-1.001-0.1641-1.2852
			s-0.3037-0.5107-0.582-0.6797s-0.6055-0.2539-0.9805-0.2539c-0.5986,0-1.1162,0.1904-1.5508,0.5703s-0.6523,1.1016-0.6523,2.1641
			v4.5313H486.2726z"/>
		<path style="fill:#3AA7AF;" d="M495.507,295.4225v-7.2031h-1.2422v-1.0938h1.2422v-0.8828c0-0.5576,0.0498-0.9717,0.1484-1.2422
			c0.1357-0.3643,0.374-0.6602,0.7148-0.8867s0.8193-0.3398,1.4336-0.3398c0.3955,0,0.833,0.0469,1.3125,0.1406l-0.2109,1.2266
			c-0.292-0.0518-0.5674-0.0781-0.8281-0.0781c-0.4268,0-0.7295,0.0908-0.9063,0.2734s-0.2656,0.5234-0.2656,1.0234v0.7656h1.6172
			v1.0938h-1.6172v7.2031H495.507z"/>
		<path style="fill:#3AA7AF;" d="M499.093,291.2741c0-1.5361,0.4268-2.6748,1.2813-3.4141c0.7139-0.6143,1.583-0.9219,2.6094-0.9219
			c1.1406,0,2.0732,0.374,2.7969,1.1211s1.0859,1.7803,1.0859,3.0977c0,1.0674-0.1602,1.9072-0.4805,2.5195
			s-0.7861,1.0869-1.3984,1.4258s-1.2803,0.5078-2.0039,0.5078c-1.1611,0-2.1006-0.3721-2.8164-1.1172
			S499.093,292.6755,499.093,291.2741z M500.5383,291.2741c0,1.0625,0.2314,1.8584,0.6953,2.3867s1.0469,0.793,1.75,0.793
			c0.6982,0,1.2783-0.2656,1.7422-0.7969s0.6953-1.3408,0.6953-2.4297c0-1.0264-0.2334-1.8037-0.6992-2.332
			s-1.0459-0.793-1.7383-0.793c-0.7031,0-1.2861,0.2627-1.75,0.7891S500.5383,290.2116,500.5383,291.2741z"/>
		<path style="fill:#3AA7AF;" d="M508.4992,295.4225v-8.2969h1.2656v1.2578c0.3232-0.5889,0.6211-0.9766,0.8945-1.1641
			s0.5742-0.2813,0.9023-0.2813c0.4736,0,0.9561,0.1514,1.4453,0.4531l-0.4844,1.3047c-0.3438-0.2031-0.6875-0.3047-1.0313-0.3047
			c-0.3076,0-0.583,0.0928-0.8281,0.2773s-0.4189,0.4414-0.5234,0.7695c-0.1563,0.5-0.2344,1.0469-0.2344,1.6406v4.3438H508.4992z"
			/>
		<path style="fill:#3AA7AF;" d="M513.843,295.4225v-8.2969h1.2578v1.1641c0.2607-0.4063,0.6064-0.7334,1.0391-0.9805
			s0.9248-0.3711,1.4766-0.3711c0.6143,0,1.1182,0.1279,1.5117,0.3828s0.6709,0.6123,0.832,1.0703
			c0.6563-0.9688,1.5107-1.4531,2.5625-1.4531c0.8232,0,1.4561,0.2275,1.8984,0.6836s0.6641,1.1572,0.6641,2.1055v5.6953h-1.3984
			v-5.2266c0-0.5625-0.0459-0.9678-0.1367-1.2148s-0.2568-0.4463-0.4961-0.5977s-0.5205-0.2266-0.8438-0.2266
			c-0.583,0-1.0674,0.1943-1.4531,0.582s-0.5781,1.0088-0.5781,1.8633v4.8203h-1.4063v-5.3906c0-0.625-0.1143-1.0938-0.3438-1.4063
			s-0.6045-0.4688-1.125-0.4688c-0.3955,0-0.7617,0.1045-1.0977,0.3125s-0.5791,0.5127-0.7305,0.9141s-0.2266,0.9795-0.2266,1.7344
			v4.3047H513.843z"/>
		<path style="fill:#3AA7AF;" d="M532.5851,294.3991c-0.5205,0.4424-1.0225,0.7549-1.5039,0.9375s-0.999,0.2734-1.5508,0.2734
			c-0.9111,0-1.6123-0.2227-2.1016-0.668s-0.7344-1.0146-0.7344-1.707c0-0.4063,0.0928-0.7773,0.2773-1.1133
			s0.4268-0.6055,0.7266-0.8086s0.6367-0.3564,1.0117-0.4609c0.2764-0.0732,0.6924-0.1436,1.25-0.2109
			c1.1357-0.1357,1.9717-0.2969,2.5078-0.4844c0.0049-0.1924,0.0078-0.3154,0.0078-0.3672c0-0.5732-0.1328-0.9766-0.3984-1.2109
			c-0.3594-0.3174-0.8936-0.4766-1.6016-0.4766c-0.6611,0-1.1494,0.1162-1.4648,0.3477s-0.5479,0.6416-0.6992,1.2305l-1.375-0.1875
			c0.125-0.5889,0.3311-1.0635,0.6172-1.4258s0.7002-0.6406,1.2422-0.8359s1.1689-0.293,1.8828-0.293
			c0.708,0,1.2842,0.083,1.7266,0.25s0.7686,0.376,0.9766,0.6289s0.3545,0.5713,0.4375,0.957
			c0.0469,0.2393,0.0703,0.6719,0.0703,1.2969v1.875c0,1.3076,0.0303,2.1338,0.0898,2.4805s0.1787,0.6787,0.3555,0.9961h-1.4688
			C532.7209,295.1306,532.6271,294.7897,532.5851,294.3991z M532.468,291.2585c-0.5107,0.208-1.2764,0.3857-2.2969,0.5313
			c-0.5781,0.083-0.9873,0.1768-1.2266,0.2813s-0.4248,0.2568-0.5547,0.457s-0.1953,0.4229-0.1953,0.668
			c0,0.375,0.1416,0.6875,0.4258,0.9375s0.6992,0.375,1.2461,0.375c0.542,0,1.0234-0.1182,1.4453-0.3555
			s0.7314-0.5615,0.9297-0.9727c0.1514-0.3174,0.2266-0.7861,0.2266-1.4063V291.2585z"/>
		<path style="fill:#3AA7AF;" d="M541.4836,292.3835l1.3828,0.1797c-0.1514,0.9531-0.5381,1.6992-1.1602,2.2383
			s-1.3867,0.8086-2.293,0.8086c-1.1357,0-2.0479-0.3711-2.7383-1.1133s-1.0352-1.8057-1.0352-3.1914
			c0-0.8955,0.1484-1.6797,0.4453-2.3516s0.749-1.1758,1.3555-1.5117s1.2666-0.5039,1.9805-0.5039
			c0.9014,0,1.6377,0.2275,2.2109,0.6836s0.9404,1.1025,1.1016,1.9414l-1.3672,0.2109c-0.1299-0.5576-0.3604-0.9766-0.6914-1.2578
			s-0.7305-0.4219-1.1992-0.4219c-0.708,0-1.2842,0.2539-1.7266,0.7617s-0.6641,1.3115-0.6641,2.4102
			c0,1.1143,0.2139,1.9248,0.6406,2.4297s0.9844,0.7578,1.6719,0.7578c0.5518,0,1.0127-0.1689,1.3828-0.5078
			S541.3849,293.0866,541.4836,292.3835z"/>
		<path style="fill:#3AA7AF;" d="M544.0773,285.5866v-1.6172h1.4063v1.6172H544.0773z M544.0773,295.4225v-8.2969h1.4063v8.2969
			H544.0773z"/>
		<path style="fill:#3AA7AF;" d="M547.1008,291.2741c0-1.5361,0.4268-2.6748,1.2813-3.4141
			c0.7139-0.6143,1.583-0.9219,2.6094-0.9219c1.1406,0,2.0732,0.374,2.7969,1.1211s1.0859,1.7803,1.0859,3.0977
			c0,1.0674-0.1602,1.9072-0.4805,2.5195s-0.7861,1.0869-1.3984,1.4258s-1.2803,0.5078-2.0039,0.5078
			c-1.1611,0-2.1006-0.3721-2.8164-1.1172S547.1008,292.6755,547.1008,291.2741z M548.5461,291.2741
			c0,1.0625,0.2314,1.8584,0.6953,2.3867s1.0469,0.793,1.75,0.793c0.6982,0,1.2783-0.2656,1.7422-0.7969
			s0.6953-1.3408,0.6953-2.4297c0-1.0264-0.2334-1.8037-0.6992-2.332s-1.0459-0.793-1.7383-0.793
			c-0.7031,0-1.2861,0.2627-1.75,0.7891S548.5461,290.2116,548.5461,291.2741z M550.2101,286.0944l1.0391-2.1875h1.8438
			l-1.7188,2.1875H550.2101z"/>
		<path style="fill:#3AA7AF;" d="M556.5226,295.4225v-8.2969h1.2656v1.1797c0.6094-0.9111,1.4893-1.3672,2.6406-1.3672
			c0.5,0,0.96,0.0898,1.3789,0.2695s0.7334,0.415,0.9414,0.707s0.3545,0.6377,0.4375,1.0391
			c0.0518,0.2607,0.0781,0.7158,0.0781,1.3672v5.1016h-1.4063v-5.0469c0-0.5732-0.0547-1.001-0.1641-1.2852
			s-0.3037-0.5107-0.582-0.6797s-0.6055-0.2539-0.9805-0.2539c-0.5986,0-1.1162,0.1904-1.5508,0.5703s-0.6523,1.1016-0.6523,2.1641
			v4.5313H556.5226z"/>
	</g>
	<g>
		<g>
			<path style="fill:none;stroke:#2A4690;stroke-width:2;stroke-miterlimit:10;" d="M230.47,81.6963
				c-17.305-0.1936-59.7015,0.2471-59.7015,0.2471V33.7932"/>
			<g>
				
					<ellipse transform="matrix(0.0313 -0.9995 0.9995 0.0313 141.2259 309.1309)" style="fill:#2A4690;" cx="230.091" cy="81.7082" rx="7.5195" ry="7.5195"/>
			</g>
			<g>
				<circle style="fill:#2A4690;" cx="170.7685" cy="34.167" r="7.5195"/>
			</g>
		</g>
	</g>
	<g>
		<g>
			<polyline style="fill:none;stroke:#2B2B38;stroke-width:2;stroke-miterlimit:10;" points="404.6775,64.6101 404.6775,1 
				529.5701,1 529.5701,26.2581 			"/>
			<g>
				<circle style="fill:#2B2B38;" cx="529.5701" cy="25.8821" r="7.5195"/>
			</g>
		</g>
	</g>
	<g>
		<g>
			<polyline style="fill:none;stroke:#44BACA;stroke-width:2;stroke-miterlimit:10;" points="450.0765,225.9468 522.2368,225.9468 
				522.2368,270.8728 			"/>
			<g>
				<circle style="fill:#44BACA;" cx="522.2368" cy="270.4968" r="7.5195"/>
			</g>
		</g>
	</g>
	<g>
		<path style="fill:#E74C3C;" d="M264.3517,118.653l-8.543-8.0371l1.5781-1.6787l8.9941,1.8711l-5.7051-5.3672l1.5078-1.6025
			l8.543,8.0361l-1.627,1.7314l-8.8125-1.7969l5.5723,5.2412L264.3517,118.653z"/>
		<path style="fill:#E74C3C;" d="M276.6213,106.8376l-0.8164-0.9756c0.0527,0.5469-0.0293,1.0811-0.248,1.6055
			c-0.2188,0.5234-0.543,0.9658-0.9727,1.3252c-0.4375,0.3662-0.9102,0.5986-1.4199,0.6973
			c-0.5078,0.0986-0.9863,0.0391-1.4316-0.1787c-0.4473-0.2178-0.9277-0.6338-1.4395-1.2471l-3.4512-4.124l1.7246-1.4424
			l2.5059,2.9941c0.7656,0.917,1.2676,1.4521,1.5039,1.6055s0.4883,0.2207,0.7578,0.2012c0.2676-0.0205,0.5313-0.1377,0.7891-0.3535
			c0.2949-0.2461,0.4922-0.5479,0.5898-0.9043c0.0977-0.3574,0.0898-0.6914-0.0254-1.002
			c-0.1133-0.3115-0.5605-0.9336-1.3418-1.8662l-2.3008-2.749l1.7246-1.4434l5.4531,6.5176L276.6213,106.8376z"/>
		<path style="fill:#E74C3C;" d="M282.424,99.3132l2.0684-0.9385c0.2188,0.8418,0.1914,1.6152-0.084,2.3184
			c-0.2773,0.7031-0.8027,1.3154-1.5762,1.8359c-1.2266,0.8252-2.4023,1.0352-3.5313,0.6299
			c-0.8945-0.3291-1.6719-0.9824-2.3301-1.96c-0.7871-1.1689-1.0977-2.2891-0.9316-3.3613c0.166-1.0732,0.7148-1.9238,1.6484-2.5518
			c1.0488-0.7061,2.1094-0.916,3.1816-0.6318c1.0723,0.2852,2.0762,1.1504,3.0117,2.5977l-4.6738,3.1445
			c0.3867,0.5449,0.8262,0.874,1.3203,0.9883c0.4961,0.1133,0.957,0.0264,1.3867-0.2627c0.291-0.1963,0.4844-0.4414,0.5762-0.7344
			C282.5822,100.0934,282.5588,99.736,282.424,99.3132z M281.2619,97.3561c-0.377-0.5303-0.793-0.8477-1.248-0.9492
			c-0.4551-0.1025-0.8711-0.0264-1.252,0.2305c-0.4082,0.2734-0.6445,0.6484-0.7109,1.123
			c-0.0645,0.4756,0.0742,0.9658,0.4219,1.4717L281.2619,97.3561z"/>
		<path style="fill:#E74C3C;" d="M289.3107,98.3473l-7.0332-5.8721l2.082-1.1152l3.459,3.0664l1.0918,1.0576
			c-0.0645-0.3818-0.1113-0.6328-0.1387-0.751c-0.0488-0.2471-0.0898-0.4961-0.1289-0.748l-0.623-4.5859l2.0371-1.0928l1.0371,9.085
			L289.3107,98.3473z"/>
		<path style="fill:#E74C3C;" d="M294.3908,89.2682l-2.0273,0.4375c-0.0996-0.8467,0.0332-1.5586,0.4004-2.1377
			c0.3672-0.5781,1.0605-1.0781,2.082-1.499c0.9258-0.3828,1.6621-0.5576,2.2051-0.5254c0.5449,0.0322,0.9785,0.1787,1.3027,0.4404
			c0.3242,0.2607,0.6738,0.8428,1.0449,1.7451l0.9805,2.4355c0.2832,0.6904,0.5273,1.1855,0.7285,1.4863
			c0.2031,0.2998,0.4727,0.6006,0.8086,0.8994l-2.0566,0.8486c-0.1094-0.1152-0.2617-0.293-0.4512-0.5313
			c-0.0859-0.1094-0.1445-0.1807-0.1758-0.2139c-0.2129,0.4912-0.4844,0.9072-0.8184,1.2461
			c-0.334,0.3398-0.7285,0.6045-1.1875,0.793c-0.8086,0.334-1.5371,0.3779-2.1836,0.1309c-0.6465-0.2461-1.1094-0.7051-1.3848-1.376
			c-0.1836-0.4434-0.2422-0.8828-0.1719-1.3184c0.0684-0.4346,0.2559-0.8232,0.5605-1.166c0.3066-0.3428,0.791-0.7314,1.4531-1.167
			c0.8965-0.583,1.5-1.0303,1.8086-1.3428l-0.0859-0.207c-0.1641-0.3994-0.3809-0.6436-0.6484-0.7324
			c-0.2656-0.0889-0.6738-0.0205-1.2207,0.2051c-0.3711,0.1533-0.6289,0.3447-0.7754,0.5752
			C294.4299,88.526,294.3693,88.8503,294.3908,89.2682z M297.8674,89.8073c-0.2285,0.1982-0.6074,0.4785-1.1328,0.8398
			c-0.5273,0.3613-0.8535,0.6377-0.9824,0.8291c-0.1914,0.3037-0.2266,0.6045-0.1055,0.9004
			c0.1211,0.291,0.332,0.4971,0.6367,0.6201c0.3047,0.1221,0.625,0.1143,0.9609-0.0244c0.375-0.1543,0.6816-0.4248,0.9199-0.8115
			c0.1738-0.292,0.2441-0.5889,0.2109-0.8926c-0.0195-0.2002-0.1309-0.5488-0.3359-1.0469L297.8674,89.8073z"/>
		<path style="fill:#E74C3C;" d="M301.8224,90.0065l2.0645-0.9766c0.2168,0.3916,0.498,0.6543,0.8438,0.7871
			s0.7734,0.124,1.2793-0.0273c0.5566-0.167,0.9453-0.3945,1.1641-0.6826c0.1465-0.2002,0.1836-0.4199,0.1113-0.6602
			c-0.0488-0.1631-0.1387-0.2832-0.2734-0.3604c-0.1387-0.0703-0.4063-0.0928-0.8066-0.0684
			c-1.8516,0.1367-3.0566,0.1162-3.6172-0.0615c-0.7754-0.2471-1.2793-0.7607-1.5137-1.543
			c-0.2109-0.7051-0.1094-1.3809,0.3027-2.0283c0.4141-0.6465,1.2051-1.1455,2.375-1.4961c1.1152-0.333,1.9961-0.3994,2.6465-0.1982
			s1.1836,0.626,1.6016,1.2744l-1.9199,0.9834c-0.1816-0.29-0.418-0.4844-0.7109-0.5801s-0.666-0.0762-1.1152,0.0576
			c-0.5664,0.1699-0.9492,0.3711-1.1465,0.6025c-0.1309,0.1611-0.168,0.3311-0.1152,0.5107
			c0.0449,0.1533,0.1563,0.2617,0.332,0.3262c0.2363,0.085,0.9668,0.0859,2.1934,0.0039c1.2246-0.083,2.1211-0.0029,2.6895,0.2393
			c0.5645,0.249,0.9492,0.7148,1.1543,1.4004c0.2227,0.7461,0.1035,1.4805-0.3594,2.2031
			c-0.4648,0.7236-1.3066,1.2676-2.5273,1.6328c-1.1094,0.332-2.0547,0.3701-2.834,0.1133
			C302.8596,91.2028,302.2541,90.7184,301.8224,90.0065z"/>
		<path style="fill:#E74C3C;" d="M320.5822,85.4176l2.2715,0.0596c-0.1719,0.8535-0.5352,1.5361-1.0898,2.0479
			c-0.5566,0.5127-1.2949,0.833-2.2207,0.9629c-1.4629,0.2061-2.6133-0.1191-3.4492-0.9766
			c-0.6621-0.6875-1.0762-1.6152-1.2402-2.7822c-0.1973-1.3945,0.0137-2.5381,0.6328-3.4307
			c0.6172-0.8916,1.4824-1.417,2.5977-1.5732c1.252-0.1768,2.2969,0.0977,3.1387,0.8223c0.8398,0.7256,1.3633,1.9434,1.5723,3.6533
			l-5.5781,0.7852c0.1094,0.6582,0.3594,1.1465,0.7559,1.4648c0.3945,0.3193,0.8477,0.4424,1.3613,0.3701
			c0.3477-0.0488,0.627-0.1855,0.8379-0.4092S320.5197,85.8571,320.5822,85.4176z M320.3928,83.1491
			c-0.1074-0.6416-0.3418-1.1084-0.707-1.3994c-0.3633-0.291-0.7734-0.4043-1.2266-0.3398
			c-0.4863,0.0684-0.8633,0.3018-1.1309,0.7002c-0.2656,0.3984-0.3555,0.9014-0.2637,1.5078L320.3928,83.1491z"/>
		<path style="fill:#E74C3C;" d="M323.7971,87.694l2.8867-4.4951l-3.0977-4l2.7422-0.1104l1.5957,2.2744l1.4902-2.3975
			l2.6367-0.1055l-2.7168,4.1367l3.3203,4.3428l-2.7578,0.1104l-1.832-2.5605l-1.6367,2.6992L323.7971,87.694z"/>
		<path style="fill:#E74C3C;" d="M334.1584,78.8971l2.0918,0.1328l-0.0801,1.2461c0.2988-0.4092,0.6895-0.7314,1.168-0.9688
			c0.4805-0.2363,1.002-0.3369,1.5664-0.3018c0.9863,0.0625,1.7969,0.502,2.4355,1.3174c0.6367,0.8154,0.9121,1.9121,0.8242,3.291
			c-0.0898,1.416-0.5059,2.4951-1.2461,3.2363c-0.7422,0.7412-1.6055,1.0801-2.5898,1.0186
			c-0.4688-0.0303-0.8887-0.1504-1.2559-0.3604c-0.3691-0.2109-0.75-0.5557-1.1426-1.0352l-0.2695,4.2725l-2.2441-0.1426
			L334.1584,78.8971z M336.1174,83.1344c-0.0605,0.9531,0.084,1.6689,0.4336,2.1484c0.3496,0.4785,0.7949,0.7354,1.3379,0.7695
			c0.5215,0.0332,0.9688-0.1484,1.3418-0.5439s0.5898-1.0703,0.6484-2.0234c0.0566-0.8887-0.0801-1.5605-0.4082-2.0137
			c-0.3301-0.4541-0.7578-0.6982-1.2852-0.7314c-0.5488-0.0342-1.0176,0.1484-1.4063,0.5488
			C336.3908,81.6882,336.1701,82.3044,336.1174,83.1344z"/>
		<path style="fill:#E74C3C;" d="M348.6799,86.2829l2.1445,0.7451c-0.4219,0.7617-0.9746,1.3027-1.6582,1.6221
			c-0.6855,0.3193-1.4883,0.4004-2.4082,0.2441c-1.457-0.2471-2.4531-0.9063-2.9922-1.9766
			c-0.4219-0.8564-0.5352-1.8652-0.3379-3.0283c0.2363-1.3877,0.7832-2.4131,1.6426-3.0762s1.8438-0.9004,2.9531-0.7119
			c1.2461,0.2109,2.1602,0.79,2.7402,1.7344c0.582,0.9463,0.7129,2.2646,0.3926,3.958l-5.5547-0.9424
			c-0.0957,0.6602-0.0039,1.2021,0.2773,1.625c0.2793,0.4238,0.6738,0.6787,1.1836,0.7656
			c0.3477,0.0586,0.6563,0.0137,0.9238-0.1357C348.256,86.9577,348.4865,86.6823,348.6799,86.2829z M349.1857,84.0632
			c0.0938-0.6436,0.0098-1.1592-0.248-1.5469c-0.2598-0.3877-0.6152-0.6201-1.0684-0.6963
			c-0.4824-0.083-0.9121,0.0254-1.2871,0.3242c-0.377,0.2988-0.6133,0.751-0.709,1.3574L349.1857,84.0632z"/>
		<path style="fill:#E74C3C;" d="M354.1877,90.2995l-2.1758-0.5645l2.1328-8.2256l2.0215,0.5244l-0.3027,1.1699
			c0.4883-0.4629,0.8945-0.7461,1.2148-0.8506c0.3223-0.1035,0.6582-0.1104,1.0098-0.0186
			c0.4961,0.1279,0.9375,0.3887,1.3262,0.7813l-1.166,1.7236c-0.3047-0.333-0.6152-0.54-0.9297-0.6221
			c-0.3047-0.0791-0.584-0.0615-0.8398,0.0508c-0.2559,0.1133-0.5,0.373-0.7344,0.7803c-0.2363,0.4082-0.5352,1.3115-0.8984,2.71
			L354.1877,90.2995z"/>
		<path style="fill:#E74C3C;" d="M358.092,91.4089l2.627-8.0811l2.1387,0.6953l-2.627,8.0811L358.092,91.4089z M361.0744,82.2321
			l0.6445-1.9775l2.1367,0.6943l-0.6426,1.9785L361.0744,82.2321z"/>
		<path style="fill:#E74C3C;" d="M367.7932,92.11l1.9297,1.1992c-0.5801,0.6504-1.2383,1.0557-1.9746,1.2168
			c-0.7383,0.1611-1.5391,0.0645-2.4023-0.29c-1.3672-0.5615-2.1953-1.4238-2.4844-2.5869
			c-0.2246-0.9277-0.1133-1.9375,0.3359-3.0273c0.5352-1.3027,1.2949-2.1826,2.2773-2.6406c0.9844-0.458,1.998-0.4736,3.0391-0.0459
			c1.168,0.4805,1.9316,1.2461,2.291,2.2959s0.1953,2.3652-0.4883,3.9473l-5.2109-2.1406c-0.2383,0.623-0.2676,1.1709-0.0879,1.6455
			c0.1797,0.4756,0.5098,0.8105,0.9883,1.0078c0.3262,0.1338,0.6367,0.1572,0.9316,0.0703
			C367.2326,92.6755,367.5178,92.4577,367.7932,92.11z M368.7756,90.0563c0.2324-0.6074,0.2637-1.1289,0.0977-1.5645
			c-0.168-0.4346-0.4629-0.7393-0.8887-0.9131c-0.4531-0.1865-0.8965-0.1758-1.3281,0.0332s-0.7617,0.5986-0.9902,1.168
			L368.7756,90.0563z"/>
		<path style="fill:#E74C3C;" d="M377.1447,99.8512l-1.9785-1.0693l2.0605-3.8154c0.4375-0.8066,0.6758-1.3516,0.7207-1.6348
			c0.043-0.2822,0.0059-0.54-0.1133-0.7744s-0.3125-0.4238-0.5801-0.5684c-0.3418-0.1846-0.7012-0.2568-1.0742-0.2168
			c-0.373,0.041-0.6953,0.1885-0.9629,0.4443c-0.2676,0.2549-0.6289,0.8008-1.0801,1.6357l-1.8281,3.3857l-1.9785-1.0684
			l4.0391-7.4766l1.8379,0.9932l-0.5938,1.0977c1.1074-0.4922,2.1582-0.4707,3.1484,0.0645
			c0.4355,0.2363,0.793,0.5303,1.0684,0.8828c0.2773,0.3525,0.4414,0.7002,0.4961,1.0449c0.0527,0.3438,0.0332,0.6904-0.0625,1.04
			c-0.0938,0.3486-0.2969,0.8115-0.6094,1.3887L377.1447,99.8512z"/>
		<path style="fill:#E74C3C;" d="M388.3342,100.1657l-2.0547-0.9229c0.1895-0.4072,0.2383-0.7783,0.1465-1.1123
			s-0.3105-0.6201-0.6582-0.8584c-0.4609-0.3164-0.9395-0.4092-1.4336-0.2783s-0.9961,0.5703-1.5078,1.3184
			c-0.5703,0.8311-0.834,1.5146-0.7891,2.0498c0.0449,0.5342,0.3027,0.9629,0.7734,1.2852c0.3516,0.2412,0.709,0.3389,1.0703,0.292
			c0.3613-0.0459,0.7559-0.2822,1.1816-0.707l1.6113,1.5576c-0.7637,0.707-1.5586,1.0898-2.3887,1.1484
			c-0.8281,0.0596-1.6934-0.2197-2.5957-0.8379c-1.0254-0.7021-1.6211-1.5859-1.7891-2.6504
			c-0.166-1.0645,0.1426-2.168,0.9258-3.3125c0.793-1.1572,1.7168-1.8486,2.7695-2.0752c1.0527-0.2256,2.1016,0.0186,3.1445,0.7334
			c0.8535,0.585,1.4063,1.2334,1.6602,1.9463C388.6525,98.4538,388.631,99.2624,388.3342,100.1657z"/>
		<path style="fill:#E74C3C;" d="M386.092,106.0866l5.3125-6.6318l1.7539,1.4063l-5.3125,6.6309L386.092,106.0866z
			 M392.1252,98.5553l1.3008-1.623l1.7539,1.4053l-1.3008,1.624L392.1252,98.5553z"/>
		<path style="fill:#E74C3C;" d="M394.7385,105.6208l-1.2422-1.6602c0.7266-0.4453,1.4297-0.6211,2.1094-0.5273
			c0.6797,0.0928,1.4219,0.5156,2.2305,1.2676c0.7344,0.6836,1.1992,1.2803,1.3965,1.7881s0.2441,0.9639,0.1426,1.3682
			c-0.1035,0.4033-0.4883,0.9619-1.1523,1.6768l-1.8066,1.9033c-0.5098,0.5469-0.8594,0.9746-1.0469,1.2832
			c-0.1895,0.3086-0.3516,0.6777-0.4824,1.1094l-1.627-1.5166c0.0586-0.1494,0.1563-0.3604,0.2949-0.6328
			c0.0625-0.123,0.1035-0.2061,0.1211-0.248c-0.5371,0.0117-1.0273-0.0635-1.4746-0.2246c-0.4473-0.1621-0.8535-0.4121-1.2148-0.75
			c-0.6406-0.5967-0.9844-1.2402-1.0293-1.9307c-0.0449-0.6914,0.1797-1.3018,0.6738-1.833
			c0.3281-0.3506,0.7031-0.5859,1.127-0.7051c0.4258-0.1191,0.8574-0.1104,1.2949,0.0254c0.4395,0.1348,0.9941,0.4141,1.666,0.835
			c0.9043,0.5723,1.5625,0.9336,1.9746,1.085l0.1523-0.1631c0.2949-0.3164,0.4277-0.6152,0.3965-0.8945
			c-0.0313-0.2803-0.2637-0.6221-0.6953-1.0254c-0.293-0.2734-0.5762-0.4277-0.8457-0.4658
			C395.4299,105.3483,395.1076,105.4264,394.7385,105.6208z M395.6955,109.0055c-0.2754-0.126-0.6875-0.3525-1.2363-0.6807
			c-0.5469-0.3271-0.9336-0.5098-1.1621-0.5479c-0.3574-0.0479-0.6445,0.0459-0.8613,0.2803
			c-0.2148,0.2305-0.3145,0.5088-0.2988,0.8369s0.1543,0.6152,0.4199,0.8623c0.2969,0.2764,0.6719,0.4424,1.123,0.498
			c0.3359,0.0371,0.6367-0.0225,0.8984-0.1787c0.1738-0.1006,0.4453-0.3477,0.8125-0.7422L395.6955,109.0055z"/>
		<path style="fill:#E74C3C;" d="M397.174,112.696l1.748,1.4668c-0.2656,0.3613-0.3867,0.7266-0.3633,1.0967
			s0.2109,0.7539,0.5586,1.1504c0.3848,0.4365,0.7539,0.6943,1.1074,0.7734c0.2422,0.0498,0.457-0.0078,0.6465-0.1738
			c0.127-0.1123,0.1992-0.2461,0.2129-0.4004c0.0059-0.1543-0.0859-0.4072-0.2754-0.7598c-0.8965-1.626-1.3809-2.7305-1.4531-3.3135
			c-0.0996-0.8076,0.1563-1.4814,0.7695-2.0205c0.5527-0.4854,1.209-0.6758,1.9707-0.5703c0.7598,0.1055,1.543,0.6172,2.3496,1.5342
			c0.7676,0.873,1.1973,1.6475,1.2852,2.3223c0.0898,0.6738-0.0742,1.3369-0.4902,1.9863l-1.6934-1.333
			c0.1875-0.2871,0.2637-0.583,0.2285-0.8896s-0.207-0.6367-0.5176-0.9883c-0.3906-0.4453-0.7324-0.709-1.0254-0.792
			c-0.2012-0.0508-0.3711-0.0146-0.5117,0.1084c-0.1211,0.1064-0.1738,0.252-0.1582,0.4385c0.0215,0.251,0.3262,0.915,0.9121,1.9941
			s0.8887,1.9268,0.9043,2.5439c0.0098,0.6172-0.2539,1.1611-0.7891,1.6338c-0.5859,0.5137-1.3027,0.7119-2.1543,0.5928
			c-0.8496-0.1191-1.6953-0.6572-2.5371-1.6143c-0.7656-0.8691-1.1934-1.7119-1.2871-2.5293
			C396.5178,114.1364,396.7053,113.3844,397.174,112.696z"/>
	</g>
</g>
</svg>
