<?xml version="1.0" encoding="utf-8"?>
<!-- Generator: Adobe Illustrator 21.0.2, SVG Export Plug-In . SVG Version: 6.00 Build 0)  -->
<svg version="1.1" id="Capa_1" xmlns="http://www.w3.org/2000/svg" xmlns:xlink="http://www.w3.org/1999/xlink" x="0px" y="0px"
	 viewBox="0 0 604.6352 67.4195" style="enable-background:new 0 0 604.6352 67.4195;" xml:space="preserve">
<g>
	<polyline style="fill:none;stroke:#093751;stroke-miterlimit:10;" points="0.5,67.4195 0.5,20.1009 604.1352,20.1009 
		604.1352,67.4195 	"/>
	<g>
		
			<rect x="102.9099" y="-59.3185" transform="matrix(6.123234e-17 -1 1 6.123234e-17 102.9099 146.6907)" style="fill:#CED3D6;" width="43.7808" height="162.4179"/>
		
			<rect x="106.0112" y="-55.1555" transform="matrix(6.123234e-17 -1 1 6.123234e-17 102.9099 146.6907)" style="fill:#FFFFFF;" width="37.5782" height="154.0917"/>
		
			<rect x="108.0378" y="-52.3702" transform="matrix(6.123234e-17 -1 1 6.123234e-17 102.9099 146.6907)" style="fill:#2B2B38;" width="33.5249" height="148.5213"/>
		<g id="Map4_11_">
			<polygon style="fill:#EAF4F4;" points="59.3937,11.6028 59.3937,32.178 86.4584,32.178 86.4584,17.8772 80.4402,11.6028 			"/>
			<polygon style="opacity:0.1;" points="80.5534,17.7023 86.6619,23.8107 86.6619,17.7023 82.2329,15.2085 			"/>
			<polygon style="fill:#E8E8E8;" points="86.4584,17.8889 80.4392,17.984 80.4392,11.6028 			"/>
			<g>
				<rect x="63.1441" y="18.8446" style="fill:#0F3854;" width="3.4269" height="3.4281"/>
				<rect x="63.1441" y="23.0395" style="fill:#00B09E;" width="3.4269" height="0.7712"/>
				<rect x="66.571" y="23.0395" style="fill:#DD3401;" width="4.6462" height="0.7712"/>
				<rect x="71.2171" y="23.0395" style="fill:#0F3854;" width="4.7546" height="0.7712"/>
				<rect x="67.7891" y="18.8446" style="opacity:0.8;fill:#0F3854;" width="3.4281" height="3.4281"/>
				<rect x="72.5448" y="18.8446" style="opacity:0.7;fill:#0F3854;" width="3.4269" height="3.4281"/>
			</g>
		</g>
		<g>
			<path style="fill:#FFFFFF;" d="M122.9279,26.5114c-0.1816,0.4209-0.4297,0.7891-0.7451,1.1045s-0.6846,0.5635-1.1084,0.7441
				c-0.4248,0.1816-0.876,0.2715-1.3564,0.2715h-4.4756V14.4929h4.4756c0.4805,0,0.9316,0.0908,1.3564,0.2715
				c0.4238,0.1807,0.793,0.4287,1.1084,0.7441s0.5635,0.6855,0.7451,1.1094c0.1807,0.4238,0.2705,0.876,0.2705,1.3555v7.1875
				C123.1984,25.6413,123.1086,26.0915,122.9279,26.5114z M121.9269,17.9734c0-0.3154-0.0596-0.6094-0.1777-0.8818
				c-0.1182-0.2734-0.2813-0.5127-0.4883-0.7197s-0.4463-0.3701-0.7197-0.4883c-0.2725-0.1182-0.5664-0.1777-0.8818-0.1777h-3.1455
				v11.7129h3.1455c0.3154,0,0.6094-0.0586,0.8818-0.1777c0.2734-0.1182,0.5127-0.2793,0.7197-0.4824
				c0.207-0.2041,0.3701-0.4424,0.4883-0.7148s0.1777-0.5674,0.1777-0.8828V17.9734z"/>
			<path style="fill:#FFFFFF;" d="M132.1613,28.6316l-0.6709-1.0059c-0.2764,0.3613-0.6211,0.6523-1.0352,0.873
				c-0.4141,0.2197-0.8672,0.3301-1.3604,0.3301h-0.3057c-0.4082,0-0.792-0.0771-1.1543-0.2314
				c-0.3613-0.1543-0.6768-0.3662-0.9463-0.6367c-0.2695-0.2686-0.4814-0.585-0.6357-0.9463s-0.2314-0.7461-0.2314-1.1533v-0.0986
				c0-0.4072,0.0771-0.792,0.2314-1.1533s0.3662-0.6768,0.6357-0.9463s0.585-0.4814,0.9463-0.6367
				c0.3623-0.1543,0.7461-0.2314,1.1543-0.2314h2.5635V21.237c0-0.2432-0.0459-0.4717-0.1387-0.6855
				c-0.0918-0.2129-0.2168-0.3994-0.374-0.5566c-0.1582-0.1582-0.3438-0.2822-0.5576-0.375
				c-0.2139-0.0918-0.4414-0.1377-0.6846-0.1377h-0.71c-0.2432,0-0.4717,0.0459-0.6855,0.1377
				c-0.2139,0.0928-0.3994,0.2168-0.5566,0.375c-0.1582,0.1572-0.2832,0.3438-0.375,0.5566
				c-0.0918,0.2139-0.1377,0.4424-0.1377,0.6855v0.3652l-1.2129-0.1973v-0.0986c0-0.4082,0.0771-0.792,0.2314-1.1543
				c0.1543-0.3613,0.3662-0.6768,0.6357-0.9463s0.585-0.4814,0.9463-0.6357c0.3623-0.1543,0.7461-0.2314,1.1543-0.2314h0.71
				c0.4072,0,0.792,0.0771,1.1533,0.2314s0.6768,0.3662,0.9463,0.6357s0.4814,0.585,0.6357,0.9463
				c0.1543,0.3623,0.2324,0.7461,0.2324,1.1543v7.3252H132.1613z M131.3527,23.7409h-2.5635c-0.2432,0-0.4717,0.0469-0.6855,0.1387
				c-0.2139,0.0918-0.3994,0.2188-0.5566,0.3789c-0.1582,0.1611-0.2832,0.3486-0.375,0.5625s-0.1377,0.4424-0.1377,0.6855v0.4238
				c0,0.2432,0.0459,0.4717,0.1377,0.6846c0.0918,0.2139,0.2168,0.3994,0.375,0.5576c0.1572,0.1572,0.3428,0.2822,0.5566,0.374
				c0.2139,0.0928,0.4424,0.1387,0.6855,0.1387h0.8086c0.2432,0,0.4707-0.0459,0.6846-0.1387
				c0.2139-0.0918,0.3994-0.2168,0.5576-0.374c0.1572-0.1582,0.2822-0.3438,0.374-0.5576c0.0928-0.2129,0.1387-0.4414,0.1387-0.6846
				V23.7409z"/>
			<path style="fill:#FFFFFF;" d="M138.6682,28.6316c-0.3682,0-0.7148-0.0693-1.04-0.207
				c-0.3262-0.1377-0.6084-0.3281-0.8486-0.5723c-0.2402-0.2432-0.4307-0.5254-0.5713-0.8477
				c-0.1416-0.3223-0.2119-0.667-0.2119-1.0352v-6.2803h-1.8145v-1.1533h1.8145v-2.4258l1.2119-0.1973v2.623h2.5635v1.1533h-2.5635
				v6.3398c0,0.2031,0.0381,0.3926,0.1143,0.5664c0.0752,0.1748,0.1787,0.3271,0.3105,0.459
				c0.1309,0.1309,0.2852,0.2344,0.4629,0.3105c0.1777,0.0752,0.3682,0.1133,0.5723,0.1133h1.1035v1.1533H138.6682z"/>
			<path style="fill:#FFFFFF;" d="M148.5129,27.0144c-0.1543,0.3613-0.3662,0.6777-0.6357,0.9463
				c-0.2695,0.2705-0.585,0.4824-0.9463,0.6367s-0.7461,0.2314-1.1533,0.2314h-0.8086c-0.4082,0-0.792-0.0771-1.1543-0.2314
				c-0.3613-0.1543-0.6768-0.3662-0.9463-0.6367c-0.2695-0.2686-0.4814-0.585-0.6357-0.9463s-0.2314-0.7461-0.2314-1.1533v-4.5547
				c0-0.4082,0.0771-0.792,0.2314-1.1543c0.1543-0.3613,0.3662-0.6768,0.6357-0.9463s0.585-0.4814,0.9463-0.6357
				c0.3623-0.1543,0.7461-0.2314,1.1543-0.2314h0.8086c0.4072,0,0.792,0.0771,1.1533,0.2314s0.6768,0.3662,0.9463,0.6357
				s0.4814,0.585,0.6357,0.9463c0.1543,0.3623,0.2324,0.7461,0.2324,1.1543v4.5547
				C148.7453,26.2683,148.6672,26.653,148.5129,27.0144z M147.5324,21.237c0-0.2432-0.0459-0.4717-0.1387-0.6855
				c-0.0918-0.2129-0.2168-0.3994-0.374-0.5566c-0.1582-0.1582-0.3438-0.2822-0.5576-0.375
				c-0.2139-0.0918-0.4414-0.1377-0.6846-0.1377h-0.8086c-0.2432,0-0.4717,0.0459-0.6855,0.1377
				c-0.2139,0.0928-0.3994,0.2168-0.5566,0.375c-0.1582,0.1572-0.2832,0.3438-0.375,0.5566
				c-0.0918,0.2139-0.1377,0.4424-0.1377,0.6855v4.6934c0,0.2432,0.0459,0.4717,0.1377,0.6846
				c0.0918,0.2139,0.2168,0.3994,0.375,0.5576c0.1572,0.1572,0.3428,0.2822,0.5566,0.374c0.2139,0.0928,0.4424,0.1387,0.6855,0.1387
				h0.8086c0.2432,0,0.4707-0.0459,0.6846-0.1387c0.2139-0.0918,0.3994-0.2168,0.5576-0.374
				c0.1572-0.1582,0.2822-0.3438,0.374-0.5576c0.0928-0.2129,0.1387-0.4414,0.1387-0.6846V21.237z"/>
		</g>
	</g>
	<g>
		
			<rect x="280.0057" y="-59.3185" transform="matrix(6.123234e-17 -1 1 6.123234e-17 280.0057 323.7866)" style="fill:#CED3D6;" width="43.7808" height="162.4179"/>
		
			<rect x="283.1071" y="-55.1555" transform="matrix(6.123234e-17 -1 1 6.123234e-17 280.0057 323.7866)" style="fill:#FFFFFF;" width="37.5782" height="154.0917"/>
		
			<rect x="285.1337" y="-52.3702" transform="matrix(6.123234e-17 -1 1 6.123234e-17 280.0057 323.7866)" style="fill:#F9CA35;" width="33.5249" height="148.5213"/>
		<g>
			<path d="M272.384,28.6316V14.4929h1.2715v14.1387H272.384z"/>
			<path d="M282.0168,28.6316V21.237c0-0.2432-0.0459-0.4717-0.1387-0.6855c-0.0918-0.2129-0.2168-0.3994-0.374-0.5566
				c-0.1582-0.1582-0.3438-0.2822-0.5576-0.375c-0.2139-0.0918-0.4414-0.1377-0.6846-0.1377h-0.8086
				c-0.2432,0-0.4717,0.0459-0.6855,0.1377c-0.2139,0.0928-0.3994,0.2168-0.5566,0.375c-0.1582,0.1572-0.2832,0.3438-0.375,0.5566
				c-0.0918,0.2139-0.1377,0.4424-0.1377,0.6855v7.3945h-1.2129V18.5359h0.4043l0.6602,1.0254
				c0.2764-0.375,0.623-0.6719,1.04-0.8926c0.418-0.2197,0.873-0.3301,1.3662-0.3301h0.3057c0.4072,0,0.792,0.0771,1.1533,0.2314
				s0.6768,0.3662,0.9463,0.6357s0.4814,0.585,0.6357,0.9463c0.1543,0.3623,0.2324,0.7461,0.2324,1.1543v7.3252H282.0168z"/>
			<path d="M289.1252,15.6462c-0.2041,0-0.3936,0.0381-0.5674,0.1143c-0.1738,0.0752-0.3271,0.1787-0.458,0.3105
				c-0.1318,0.1309-0.2354,0.2852-0.3105,0.4629c-0.0762,0.1777-0.1133,0.3682-0.1133,0.5723v1.4297h2.3555v1.1533h-2.3555v8.9424
				h-1.2129v-8.9424h-1.8242v-1.1533h1.8242v-1.3711c0-0.3682,0.0684-0.7148,0.207-1.04c0.1377-0.3252,0.3281-0.6094,0.5713-0.8525
				s0.5264-0.4336,0.8486-0.5723c0.3213-0.1377,0.667-0.207,1.0352-0.207h1.1133v1.1533H289.1252z"/>
			<path d="M297.9641,27.0144c-0.1543,0.3613-0.3662,0.6777-0.6357,0.9463c-0.2695,0.2705-0.585,0.4824-0.9463,0.6367
				s-0.7461,0.2314-1.1533,0.2314h-0.8086c-0.4082,0-0.792-0.0771-1.1543-0.2314c-0.3613-0.1543-0.6768-0.3662-0.9463-0.6367
				c-0.2695-0.2686-0.4814-0.585-0.6357-0.9463s-0.2314-0.7461-0.2314-1.1533v-4.5547c0-0.4082,0.0771-0.792,0.2314-1.1543
				c0.1543-0.3613,0.3662-0.6768,0.6357-0.9463s0.585-0.4814,0.9463-0.6357c0.3623-0.1543,0.7461-0.2314,1.1543-0.2314h0.8086
				c0.4072,0,0.792,0.0771,1.1533,0.2314s0.6768,0.3662,0.9463,0.6357s0.4814,0.585,0.6357,0.9463
				c0.1543,0.3623,0.2324,0.7461,0.2324,1.1543v4.5547C298.1965,26.2683,298.1183,26.653,297.9641,27.0144z M296.9836,21.237
				c0-0.2432-0.0459-0.4717-0.1387-0.6855c-0.0918-0.2129-0.2168-0.3994-0.374-0.5566c-0.1582-0.1582-0.3438-0.2822-0.5576-0.375
				c-0.2139-0.0918-0.4414-0.1377-0.6846-0.1377h-0.8086c-0.2432,0-0.4717,0.0459-0.6855,0.1377
				c-0.2139,0.0928-0.3994,0.2168-0.5566,0.375c-0.1582,0.1572-0.2832,0.3438-0.375,0.5566
				c-0.0918,0.2139-0.1377,0.4424-0.1377,0.6855v4.6934c0,0.2432,0.0459,0.4717,0.1377,0.6846
				c0.0918,0.2139,0.2168,0.3994,0.375,0.5576c0.1572,0.1572,0.3428,0.2822,0.5566,0.374c0.2139,0.0928,0.4424,0.1387,0.6855,0.1387
				h0.8086c0.2432,0,0.4707-0.0459,0.6846-0.1387c0.2139-0.0918,0.3994-0.2168,0.5576-0.374
				c0.1572-0.1582,0.2822-0.3438,0.374-0.5576c0.0928-0.2129,0.1387-0.4414,0.1387-0.6846V21.237z"/>
			<path d="M303.5891,19.6892c-0.2432,0-0.4717,0.0459-0.6855,0.1377c-0.2139,0.0928-0.3994,0.2168-0.5566,0.375
				c-0.1582,0.1572-0.2832,0.3438-0.375,0.5566c-0.0918,0.2139-0.1377,0.4424-0.1377,0.6855v7.1875h-1.2129V18.5359h0.4043
				l0.6602,1.0254c0.2764-0.375,0.623-0.6719,1.04-0.8926c0.418-0.2197,0.873-0.3301,1.3662-0.3301h0.71v1.3506H303.5891z"/>
			<path d="M317.0764,28.6316V21.237c0-0.2432-0.0469-0.4717-0.1387-0.6855c-0.0918-0.2129-0.2168-0.3994-0.374-0.5566
				c-0.1582-0.1582-0.3438-0.2822-0.5576-0.375c-0.2139-0.0918-0.4424-0.1377-0.6846-0.1377h-0.6016
				c-0.2432,0-0.4717,0.0459-0.6855,0.1377c-0.2139,0.0928-0.4014,0.2168-0.5615,0.375c-0.1611,0.1572-0.2881,0.3438-0.3799,0.5566
				c-0.0918,0.2139-0.1387,0.4424-0.1387,0.6855v7.3945h-1.2021V21.237c0-0.2432-0.0459-0.4717-0.1387-0.6855
				c-0.0918-0.2129-0.2178-0.3994-0.3789-0.5566c-0.1611-0.1582-0.3486-0.2822-0.5625-0.375
				c-0.2139-0.0918-0.4414-0.1377-0.6846-0.1377h-0.6016c-0.2432,0-0.4717,0.0459-0.6855,0.1377
				c-0.2139,0.0928-0.3994,0.2168-0.5566,0.375c-0.1582,0.1572-0.2832,0.3438-0.375,0.5566
				c-0.0918,0.2139-0.1377,0.4424-0.1377,0.6855v7.3945h-1.2129V18.5359h0.4043l0.6602,1.0254
				c0.2764-0.375,0.623-0.6719,1.04-0.8926c0.418-0.2197,0.873-0.3301,1.3662-0.3301h0.0986c0.5713,0,1.0869,0.1416,1.5479,0.4238
				c0.46,0.2822,0.8145,0.6572,1.0645,1.124c0.125-0.2305,0.2793-0.4404,0.4639-0.6309c0.1836-0.1904,0.3877-0.3535,0.6113-0.4883
				c0.2227-0.1348,0.4658-0.2402,0.7295-0.3154c0.2627-0.0752,0.5352-0.1133,0.8184-0.1133h0.0986
				c0.4072,0,0.792,0.0771,1.1533,0.2314s0.6768,0.3662,0.9463,0.6357s0.4814,0.585,0.6357,0.9463
				c0.1543,0.3623,0.2314,0.7461,0.2314,1.1543v7.3252H317.0764z"/>
			<path d="M327.0549,28.6316l-0.6709-1.0059c-0.2764,0.3613-0.6211,0.6523-1.0352,0.873
				c-0.4141,0.2197-0.8672,0.3301-1.3604,0.3301h-0.3057c-0.4082,0-0.792-0.0771-1.1543-0.2314
				c-0.3613-0.1543-0.6768-0.3662-0.9463-0.6367c-0.2695-0.2686-0.4814-0.585-0.6357-0.9463s-0.2314-0.7461-0.2314-1.1533v-0.0986
				c0-0.4072,0.0771-0.792,0.2314-1.1533s0.3662-0.6768,0.6357-0.9463s0.585-0.4814,0.9463-0.6367
				c0.3623-0.1543,0.7461-0.2314,1.1543-0.2314h2.5635V21.237c0-0.2432-0.0459-0.4717-0.1387-0.6855
				c-0.0918-0.2129-0.2168-0.3994-0.374-0.5566c-0.1582-0.1582-0.3438-0.2822-0.5576-0.375
				c-0.2139-0.0918-0.4414-0.1377-0.6846-0.1377h-0.71c-0.2432,0-0.4717,0.0459-0.6855,0.1377
				c-0.2139,0.0928-0.3994,0.2168-0.5566,0.375c-0.1582,0.1572-0.2832,0.3438-0.375,0.5566
				c-0.0918,0.2139-0.1377,0.4424-0.1377,0.6855v0.3652l-1.2129-0.1973v-0.0986c0-0.4082,0.0771-0.792,0.2314-1.1543
				c0.1543-0.3613,0.3662-0.6768,0.6357-0.9463s0.585-0.4814,0.9463-0.6357c0.3623-0.1543,0.7461-0.2314,1.1543-0.2314h0.71
				c0.4072,0,0.792,0.0771,1.1533,0.2314s0.6768,0.3662,0.9463,0.6357s0.4814,0.585,0.6357,0.9463
				c0.1543,0.3623,0.2324,0.7461,0.2324,1.1543v7.3252H327.0549z M326.2463,23.7409h-2.5635c-0.2432,0-0.4717,0.0469-0.6855,0.1387
				s-0.3994,0.2188-0.5566,0.3789c-0.1582,0.1611-0.2832,0.3486-0.375,0.5625s-0.1377,0.4424-0.1377,0.6855v0.4238
				c0,0.2432,0.0459,0.4717,0.1377,0.6846c0.0918,0.2139,0.2168,0.3994,0.375,0.5576c0.1572,0.1572,0.3428,0.2822,0.5566,0.374
				c0.2139,0.0928,0.4424,0.1387,0.6855,0.1387h0.8086c0.2432,0,0.4707-0.0459,0.6846-0.1387
				c0.2139-0.0918,0.3994-0.2168,0.5576-0.374c0.1572-0.1582,0.2822-0.3438,0.374-0.5576c0.0928-0.2129,0.1387-0.4414,0.1387-0.6846
				V23.7409z"/>
			<path d="M336.3957,27.0144c-0.1543,0.3613-0.3662,0.6777-0.6357,0.9463c-0.2695,0.2705-0.585,0.4824-0.9463,0.6367
				s-0.7461,0.2314-1.1533,0.2314h-0.8086c-0.4082,0-0.792-0.0771-1.1543-0.2314c-0.3613-0.1543-0.6768-0.3662-0.9463-0.6367
				c-0.2695-0.2686-0.4814-0.585-0.6357-0.9463s-0.2314-0.7461-0.2314-1.1533v-4.5547c0-0.4082,0.0771-0.792,0.2314-1.1543
				c0.1543-0.3613,0.3662-0.6768,0.6357-0.9463s0.585-0.4814,0.9463-0.6357c0.3623-0.1543,0.7461-0.2314,1.1543-0.2314h0.8086
				c0.4072,0,0.792,0.0771,1.1533,0.2314s0.6768,0.3662,0.9463,0.6357s0.4814,0.585,0.6357,0.9463
				c0.1543,0.3623,0.2324,0.7461,0.2324,1.1543v0.4043l-1.2129,0.1963V21.237c0-0.2432-0.0459-0.4717-0.1387-0.6855
				c-0.0918-0.2129-0.2168-0.3994-0.374-0.5566c-0.1582-0.1582-0.3438-0.2822-0.5576-0.375
				c-0.2139-0.0918-0.4414-0.1377-0.6846-0.1377h-0.8086c-0.2432,0-0.4717,0.0459-0.6855,0.1377
				c-0.2139,0.0928-0.3994,0.2168-0.5566,0.375c-0.1582,0.1572-0.2832,0.3438-0.375,0.5566
				c-0.0918,0.2139-0.1377,0.4424-0.1377,0.6855v4.6934c0,0.2432,0.0459,0.4717,0.1377,0.6846
				c0.0918,0.2139,0.2168,0.3994,0.375,0.5576c0.1572,0.1572,0.3428,0.2822,0.5566,0.374c0.2139,0.0928,0.4424,0.1387,0.6855,0.1387
				h0.8086c0.2432,0,0.4707-0.0459,0.6846-0.1387c0.2139-0.0918,0.3994-0.2168,0.5576-0.374
				c0.1572-0.1582,0.2822-0.3438,0.374-0.5576c0.0928-0.2129,0.1387-0.4414,0.1387-0.6846v-0.6709l1.2129,0.1973v0.4043
				C336.6281,26.2683,336.55,26.653,336.3957,27.0144z"/>
			<path d="M339.3586,16.1101v-1.6172h1.4102v1.6172H339.3586z M339.4572,28.6316V18.5359h1.2129v10.0957H339.4572z"/>
			<path d="M350.0119,27.0144c-0.1543,0.3613-0.3662,0.6777-0.6357,0.9463c-0.2695,0.2705-0.585,0.4824-0.9463,0.6367
				s-0.7461,0.2314-1.1533,0.2314h-0.8086c-0.4082,0-0.792-0.0771-1.1543-0.2314c-0.3613-0.1543-0.6768-0.3662-0.9463-0.6367
				c-0.2695-0.2686-0.4814-0.585-0.6357-0.9463s-0.2314-0.7461-0.2314-1.1533v-4.5547c0-0.4082,0.0771-0.792,0.2314-1.1543
				c0.1543-0.3613,0.3662-0.6768,0.6357-0.9463s0.585-0.4814,0.9463-0.6357c0.3623-0.1543,0.7461-0.2314,1.1543-0.2314h0.8086
				c0.4072,0,0.792,0.0771,1.1533,0.2314s0.6768,0.3662,0.9463,0.6357s0.4814,0.585,0.6357,0.9463
				c0.1543,0.3623,0.2324,0.7461,0.2324,1.1543v4.5547C350.2443,26.2683,350.1662,26.653,350.0119,27.0144z M349.0314,21.237
				c0-0.2432-0.0459-0.4717-0.1387-0.6855c-0.0918-0.2129-0.2168-0.3994-0.374-0.5566c-0.1582-0.1582-0.3438-0.2822-0.5576-0.375
				c-0.2139-0.0918-0.4414-0.1377-0.6846-0.1377h-0.8086c-0.2432,0-0.4717,0.0459-0.6855,0.1377
				c-0.2139,0.0928-0.3994,0.2168-0.5566,0.375c-0.1582,0.1572-0.2832,0.3438-0.375,0.5566
				c-0.0918,0.2139-0.1377,0.4424-0.1377,0.6855v4.6934c0,0.2432,0.0459,0.4717,0.1377,0.6846
				c0.0918,0.2139,0.2168,0.3994,0.375,0.5576c0.1572,0.1572,0.3428,0.2822,0.5566,0.374c0.2139,0.0928,0.4424,0.1387,0.6855,0.1387
				h0.8086c0.2432,0,0.4707-0.0459,0.6846-0.1387c0.2139-0.0918,0.3994-0.2168,0.5576-0.374
				c0.1572-0.1582,0.2822-0.3438,0.374-0.5576c0.0928-0.2129,0.1387-0.4414,0.1387-0.6846V21.237z M346.3693,16.9187h-0.9072
				l1.6074-2.4258h2.0205L346.3693,16.9187z"/>
			<path d="M358.2004,28.6316V21.237c0-0.2432-0.0459-0.4717-0.1387-0.6855c-0.0918-0.2129-0.2168-0.3994-0.374-0.5566
				c-0.1582-0.1582-0.3438-0.2822-0.5576-0.375c-0.2139-0.0918-0.4414-0.1377-0.6846-0.1377h-0.8086
				c-0.2432,0-0.4717,0.0459-0.6855,0.1377c-0.2139,0.0928-0.3994,0.2168-0.5566,0.375c-0.1582,0.1572-0.2832,0.3438-0.375,0.5566
				c-0.0918,0.2139-0.1377,0.4424-0.1377,0.6855v7.3945h-1.2129V18.5359h0.4043l0.6602,1.0254
				c0.2764-0.375,0.623-0.6719,1.04-0.8926c0.418-0.2197,0.873-0.3301,1.3662-0.3301h0.3057c0.4072,0,0.792,0.0771,1.1533,0.2314
				s0.6768,0.3662,0.9463,0.6357s0.4814,0.585,0.6357,0.9463c0.1543,0.3623,0.2324,0.7461,0.2324,1.1543v7.3252H358.2004z"/>
		</g>
		<g id="Concept_13_">
			<g id="Board_13_">
				<path style="fill-rule:evenodd;clip-rule:evenodd;fill:#F39C12;" d="M236.8034,10.2298l17.4117,0.092
					c0.6574,0.0035,1.1906,0.5858,1.1869,1.2954l-0.1201,22.7367c-0.0037,0.7096-0.5432,1.289-1.2005,1.2855l-17.4117-0.092
					c-0.655-0.0035-1.1911-0.5885-1.1873-1.2981l0.1201-22.7367C235.6062,10.803,236.1484,10.2263,236.8034,10.2298
					L236.8034,10.2298z"/>
				
					<rect x="233.9101" y="13.9951" transform="matrix(0.0053 -1 1 0.0053 221.2135 268.2522)" style="fill-rule:evenodd;clip-rule:evenodd;fill:#E6E6E6;" width="23.0665" height="17.8767"/>
				<polygon style="fill-rule:evenodd;clip-rule:evenodd;fill:#474646;" points="241.8115,7.7232 249.236,7.7624 249.2167,11.4199 
					248.803,11.4178 248.8198,8.2278 242.1978,8.1928 242.181,11.3828 241.7922,11.3807 				"/>
				<path style="fill-rule:evenodd;clip-rule:evenodd;fill:#D84848;" d="M241.2118,9.8995l8.5989,0.0454
					c0.1795,0.0009,0.3239,0.1616,0.3228,0.3553l-0.0087,1.6399c-0.001,0.1942-0.147,0.3501-0.3266,0.3492l-8.5989-0.0454
					c-0.1772-0.0009-0.3243-0.1583-0.3233-0.3526l0.0087-1.6399C240.8858,10.0576,241.0347,9.8985,241.2118,9.8995L241.2118,9.8995z
					"/>
				<path style="opacity:0.2;fill-rule:evenodd;clip-rule:evenodd;fill:#231F20;" d="M245.3032,9.9211l4.5075,0.0238
					c0.1795,0.0009,0.3239,0.1616,0.3228,0.3553l-0.0087,1.6399c-0.001,0.1942-0.147,0.3501-0.3266,0.3492l-4.5075-0.0238
					L245.3032,9.9211z"/>
				<path style="opacity:0.1;fill-rule:evenodd;clip-rule:evenodd;fill:#231F20;" d="M245.3013,10.2747l8.9137,0.0471
					c0.6574,0.0035,1.1906,0.5858,1.1869,1.2954l-0.1201,22.7367c-0.0037,0.7096-0.5432,1.289-1.2005,1.2855l-8.9137-0.0471
					L245.3013,10.2747z"/>
			</g>
			<g id="Paragraph_13_">
				
					<rect x="245.0603" y="9.4053" transform="matrix(0.0053 -1 1 0.0053 228.057 261.103)" style="fill-rule:evenodd;clip-rule:evenodd;fill:#4D4D4D;" width="0.4224" height="13.0274"/>
				
					<rect x="245.0548" y="10.4125" transform="matrix(0.0053 -1 1 0.0053 227.0445 262.0995)" style="fill-rule:evenodd;clip-rule:evenodd;fill:#336699;" width="0.4228" height="13.0274"/>
				
					<rect x="245.0498" y="11.3507" transform="matrix(0.0053 -1 1 0.0053 226.1015 263.0278)" style="fill-rule:evenodd;clip-rule:evenodd;fill:#4D4D4D;" width="0.4228" height="13.0274"/>
				
					<rect x="245.0445" y="12.3581" transform="matrix(0.0053 -1 1 0.0053 225.0887 264.0246)" style="fill-rule:evenodd;clip-rule:evenodd;fill:#4D4D4D;" width="0.4228" height="13.0274"/>
				
					<rect x="245.0407" y="13.3427" transform="matrix(0.0053 -1 1 0.0053 224.0989 264.9988)" style="fill-rule:evenodd;clip-rule:evenodd;fill:#336699;" width="0.4201" height="13.0274"/>
				
					<rect x="245.0344" y="14.28" transform="matrix(0.0053 -1 1 0.0053 223.1568 265.9262)" style="fill-rule:evenodd;clip-rule:evenodd;fill:#4D4D4D;" width="0.4228" height="13.0274"/>
				
					<rect x="245.0304" y="15.2884" transform="matrix(0.0053 -1 1 0.0053 222.1431 266.924)" style="fill-rule:evenodd;clip-rule:evenodd;fill:#4D4D4D;" width="0.4201" height="13.0274"/>
			</g>
			<g id="Diagram_13_">
				
					<rect x="244.7322" y="26.2926" transform="matrix(0.0053 -1 1 0.0053 210.8058 277.535)" style="fill-rule:evenodd;clip-rule:evenodd;fill:#4D4D4D;" width="0.3465" height="13.0274"/>
				<path style="fill-rule:evenodd;clip-rule:evenodd;fill:#FF6633;" d="M239.5784,29.0501L239.5784,29.0501
					c0.1871,0.001,0.341,0.1399,0.3401,0.3064l-0.0167,3.1599l-0.6839-0.0036l0.0167-3.1599
					C239.2355,29.1864,239.3885,29.0491,239.5784,29.0501L239.5784,29.0501z"/>
				<path style="fill-rule:evenodd;clip-rule:evenodd;fill:#0056A3;" d="M240.9046,28.6818L240.9046,28.6818
					c0.1871,0.001,0.3413,0.1552,0.3403,0.3396l-0.0185,3.5021l-0.6838-0.0036l0.0185-3.5021
					C240.562,28.8334,240.7151,28.6808,240.9046,28.6818L240.9046,28.6818z"/>
				<path style="fill-rule:evenodd;clip-rule:evenodd;fill:#FF6633;" d="M242.2268,29.0772L242.2268,29.0772
					c0.1875,0.001,0.3418,0.1399,0.3409,0.3068l-0.0168,3.1726l-0.6842-0.0036l0.0168-3.1726
					C241.8843,29.2134,242.0373,29.0762,242.2268,29.0772L242.2268,29.0772z"/>
				<path style="fill-rule:evenodd;clip-rule:evenodd;fill:#0056A3;" d="M243.6693,27.2855L243.6693,27.2855
					c0.1871,0.001,0.3411,0.2102,0.3397,0.4646l-0.0254,4.814l-0.6843-0.0036l0.0254-4.814
					C243.326,27.4921,243.4798,27.2845,243.6693,27.2855L243.6693,27.2855z"/>
				<path style="fill-rule:evenodd;clip-rule:evenodd;fill:#FF6633;" d="M245.0473,29.246L245.0473,29.246
					c0.1894,0.001,0.3415,0.1331,0.3406,0.2953l-0.016,3.0302l-0.6843-0.0036l0.016-3.0302
					C244.7044,29.3755,244.8602,29.245,245.0473,29.246L245.0473,29.246z"/>
				<path style="fill-rule:evenodd;clip-rule:evenodd;fill:#0056A3;" d="M246.4506,30.5895l0.0028,0
					c0.1871,0.001,0.3389,0.0805,0.3384,0.177l-0.0096,1.8123l-0.6819-0.0036l0.0096-1.8123
					C246.1105,30.6664,246.2636,30.5885,246.4506,30.5895L246.4506,30.5895z"/>
				<path style="fill-rule:evenodd;clip-rule:evenodd;fill:#0056A3;" d="M247.9231,27.3254L247.9231,27.3254
					c0.1891,0.001,0.3407,0.2102,0.3393,0.465l-0.0253,4.7962l-0.6819-0.0036l0.0253-4.7962
					C247.5819,27.532,247.7356,27.3244,247.9231,27.3254L247.9231,27.3254z"/>
				<path style="fill-rule:evenodd;clip-rule:evenodd;fill:#33CC99;" d="M249.1814,27.6809L249.1814,27.6809
					c0.1871,0.001,0.3415,0.1972,0.3402,0.4341l-0.0237,4.4782l-0.6847-0.0036l0.0237-4.4782
					C248.8382,27.8744,248.9947,27.6799,249.1814,27.6809L249.1814,27.6809z"/>
				<path style="fill-rule:evenodd;clip-rule:evenodd;fill:#FF6633;" d="M250.3377,26.4695L250.3377,26.4695
					c0.1895,0.001,0.3409,0.2431,0.3393,0.5393l-0.0295,5.5905l-0.6843-0.0036l0.0295-5.5905
					C249.9942,26.709,250.1506,26.4685,250.3377,26.4695L250.3377,26.4695z"/>
				
					<rect x="252.3221" y="27.538" transform="matrix(0.0053 -1 1 0.0053 223.3828 280.8579)" style="fill-rule:evenodd;clip-rule:evenodd;fill:#FF6633;" width="1.0842" height="1.2159"/>
				
					<rect x="252.3127" y="29.3372" transform="matrix(0.0053 -1 1 0.0053 221.5742 282.6382)" style="fill-rule:evenodd;clip-rule:evenodd;fill:#33CC99;" width="1.0841" height="1.2159"/>
				
					<rect x="252.3031" y="31.1759" transform="matrix(0.0053 -1 1 0.0053 219.7259 284.4574)" style="fill-rule:evenodd;clip-rule:evenodd;fill:#0056A3;" width="1.0838" height="1.2159"/>
			</g>
		</g>
	</g>
	<g>
		
			<rect x="458.1706" y="-59.3185" transform="matrix(6.123234e-17 -1 1 6.123234e-17 458.1706 501.9514)" style="fill:#CED3D6;" width="43.7808" height="162.4179"/>
		
			<rect x="461.2719" y="-55.1555" transform="matrix(6.123234e-17 -1 1 6.123234e-17 458.1706 501.9514)" style="fill:#FFFFFF;" width="37.5782" height="154.0917"/>
		
			<rect x="463.2986" y="-52.3702" transform="matrix(6.123234e-17 -1 1 6.123234e-17 458.1706 501.9514)" style="fill:#DD4E31;" width="33.5249" height="148.5213"/>
		<g>
			<path style="fill:#FFFFFF;" d="M452.3264,26.7087c-0.1816,0.4209-0.4297,0.7891-0.7451,1.1045s-0.6836,0.5635-1.1035,0.7441
				c-0.4209,0.1807-0.8711,0.2715-1.3516,0.2715h-1.0049c-0.4805,0-0.9316-0.0908-1.3564-0.2715
				c-0.4238-0.1807-0.793-0.4287-1.1084-0.7441s-0.5645-0.6836-0.7451-1.1045c-0.1807-0.4199-0.2705-0.8701-0.2705-1.3506v-7.5918
				c0-0.4795,0.0898-0.9297,0.2705-1.3506s0.4297-0.7891,0.7451-1.1045s0.6846-0.5635,1.1084-0.7441
				c0.4248-0.1807,0.876-0.2715,1.3564-0.2715h1.0049c0.4805,0,0.9307,0.0908,1.3516,0.2715
				c0.4199,0.1807,0.7881,0.4287,1.1035,0.7441s0.5635,0.6836,0.7451,1.1045c0.1807,0.4209,0.2705,0.8711,0.2705,1.3506v0.5723
				l-1.2715,0.1973v-0.7695c0-0.3154-0.0596-0.6094-0.1777-0.8818c-0.1182-0.2734-0.2793-0.5117-0.4834-0.7148
				c-0.2031-0.2041-0.4414-0.3652-0.7148-0.4834c-0.2725-0.1182-0.5664-0.1777-0.8818-0.1777h-0.8877
				c-0.3154,0-0.6094,0.0596-0.8818,0.1777c-0.2734,0.1182-0.5127,0.2793-0.7197,0.4834c-0.207,0.2031-0.3701,0.4414-0.4883,0.7148
				c-0.1182,0.2725-0.1777,0.5664-0.1777,0.8818v7.5918c0,0.3154,0.0596,0.6094,0.1777,0.8828
				c0.1182,0.2725,0.2813,0.5127,0.4883,0.7197s0.4463,0.3691,0.7197,0.4873c0.2725,0.1191,0.5664,0.1777,0.8818,0.1777h0.8877
				c0.3154,0,0.6094-0.0586,0.8818-0.1777c0.2734-0.1182,0.5117-0.2803,0.7148-0.4873c0.2041-0.207,0.3652-0.4473,0.4834-0.7197
				c0.1182-0.2734,0.1777-0.5674,0.1777-0.8828v-0.7686l1.2715,0.207v0.5615C452.5969,25.8386,452.507,26.2888,452.3264,26.7087z"/>
			<path style="fill:#FFFFFF;" d="M461.5344,27.0144c-0.1543,0.3613-0.3662,0.6777-0.6357,0.9463
				c-0.2695,0.2705-0.585,0.4824-0.9463,0.6367s-0.7461,0.2314-1.1533,0.2314h-0.8086c-0.4082,0-0.792-0.0771-1.1543-0.2314
				c-0.3613-0.1543-0.6768-0.3662-0.9463-0.6367c-0.2695-0.2686-0.4814-0.585-0.6357-0.9463s-0.2314-0.7461-0.2314-1.1533v-4.5547
				c0-0.4082,0.0771-0.792,0.2314-1.1543c0.1543-0.3613,0.3662-0.6768,0.6357-0.9463s0.585-0.4814,0.9463-0.6357
				c0.3623-0.1543,0.7461-0.2314,1.1543-0.2314h0.8086c0.4072,0,0.792,0.0771,1.1533,0.2314s0.6768,0.3662,0.9463,0.6357
				s0.4814,0.585,0.6357,0.9463c0.1543,0.3623,0.2324,0.7461,0.2324,1.1543v4.5547
				C461.7668,26.2683,461.6887,26.653,461.5344,27.0144z M460.5539,21.237c0-0.2432-0.0459-0.4717-0.1387-0.6855
				c-0.0918-0.2129-0.2168-0.3994-0.374-0.5566c-0.1582-0.1582-0.3438-0.2822-0.5576-0.375
				c-0.2139-0.0918-0.4414-0.1377-0.6846-0.1377h-0.8086c-0.2432,0-0.4717,0.0459-0.6855,0.1377
				c-0.2139,0.0928-0.3994,0.2168-0.5566,0.375c-0.1582,0.1572-0.2832,0.3438-0.375,0.5566
				c-0.0918,0.2139-0.1377,0.4424-0.1377,0.6855v4.6934c0,0.2432,0.0459,0.4717,0.1377,0.6846
				c0.0918,0.2139,0.2168,0.3994,0.375,0.5576c0.1572,0.1572,0.3428,0.2822,0.5566,0.374c0.2139,0.0928,0.4424,0.1387,0.6855,0.1387
				h0.8086c0.2432,0,0.4707-0.0459,0.6846-0.1387c0.2139-0.0918,0.3994-0.2168,0.5576-0.374
				c0.1572-0.1582,0.2822-0.3438,0.374-0.5576c0.0928-0.2129,0.1387-0.4414,0.1387-0.6846V21.237z"/>
			<path style="fill:#FFFFFF;" d="M469.7228,28.6316V21.237c0-0.2432-0.0459-0.4717-0.1387-0.6855
				c-0.0918-0.2129-0.2168-0.3994-0.374-0.5566c-0.1582-0.1582-0.3438-0.2822-0.5576-0.375
				c-0.2139-0.0918-0.4414-0.1377-0.6846-0.1377h-0.8086c-0.2432,0-0.4717,0.0459-0.6855,0.1377
				c-0.2139,0.0928-0.3994,0.2168-0.5566,0.375c-0.1582,0.1572-0.2832,0.3438-0.375,0.5566
				c-0.0918,0.2139-0.1377,0.4424-0.1377,0.6855v7.3945h-1.2129V18.5359h0.4043l0.6602,1.0254
				c0.2764-0.375,0.623-0.6719,1.04-0.8926c0.418-0.2197,0.873-0.3301,1.3662-0.3301h0.3057c0.4072,0,0.792,0.0771,1.1533,0.2314
				s0.6768,0.3662,0.9463,0.6357s0.4814,0.585,0.6357,0.9463c0.1543,0.3623,0.2324,0.7461,0.2324,1.1543v7.3252H469.7228z"/>
			<path style="fill:#FFFFFF;" d="M479.8732,27.0144c-0.1543,0.3613-0.3662,0.6777-0.6357,0.9463
				c-0.2695,0.2705-0.585,0.4824-0.9463,0.6367s-0.7461,0.2314-1.1533,0.2314h-0.8086c-0.4082,0-0.792-0.0771-1.1543-0.2314
				c-0.3613-0.1543-0.6768-0.3662-0.9463-0.6367c-0.2695-0.2686-0.4814-0.585-0.6357-0.9463s-0.2314-0.7461-0.2314-1.1533v-4.5547
				c0-0.4082,0.0771-0.792,0.2314-1.1543c0.1543-0.3613,0.3662-0.6768,0.6357-0.9463s0.585-0.4814,0.9463-0.6357
				c0.3623-0.1543,0.7461-0.2314,1.1543-0.2314h0.8086c0.4072,0,0.792,0.0771,1.1533,0.2314s0.6768,0.3662,0.9463,0.6357
				s0.4814,0.585,0.6357,0.9463c0.1543,0.3623,0.2324,0.7461,0.2324,1.1543v4.5547
				C480.1057,26.2683,480.0275,26.653,479.8732,27.0144z M478.8928,21.237c0-0.2432-0.0459-0.4717-0.1387-0.6855
				c-0.0918-0.2129-0.2168-0.3994-0.374-0.5566c-0.1582-0.1582-0.3438-0.2822-0.5576-0.375
				c-0.2139-0.0918-0.4414-0.1377-0.6846-0.1377h-0.8086c-0.2432,0-0.4717,0.0459-0.6855,0.1377
				c-0.2139,0.0928-0.3994,0.2168-0.5566,0.375c-0.1582,0.1572-0.2832,0.3438-0.375,0.5566
				c-0.0918,0.2139-0.1377,0.4424-0.1377,0.6855v4.6934c0,0.2432,0.0459,0.4717,0.1377,0.6846
				c0.0918,0.2139,0.2168,0.3994,0.375,0.5576c0.1572,0.1572,0.3428,0.2822,0.5566,0.374c0.2139,0.0928,0.4424,0.1387,0.6855,0.1387
				h0.8086c0.2432,0,0.4707-0.0459,0.6846-0.1387c0.2139-0.0918,0.3994-0.2168,0.5576-0.374
				c0.1572-0.1582,0.2822-0.3438,0.374-0.5576c0.0928-0.2129,0.1387-0.4414,0.1387-0.6846V21.237z"/>
			<path style="fill:#FFFFFF;" d="M489.0422,27.0144c-0.1543,0.3613-0.3662,0.6777-0.6357,0.9463
				c-0.2695,0.2705-0.585,0.4824-0.9463,0.6367s-0.7461,0.2314-1.1533,0.2314h-0.8086c-0.4082,0-0.792-0.0771-1.1543-0.2314
				c-0.3613-0.1543-0.6768-0.3662-0.9463-0.6367c-0.2695-0.2686-0.4814-0.585-0.6357-0.9463s-0.2314-0.7461-0.2314-1.1533v-4.5547
				c0-0.4082,0.0771-0.792,0.2314-1.1543c0.1543-0.3613,0.3662-0.6768,0.6357-0.9463s0.585-0.4814,0.9463-0.6357
				c0.3623-0.1543,0.7461-0.2314,1.1543-0.2314h0.8086c0.4072,0,0.792,0.0771,1.1533,0.2314s0.6768,0.3662,0.9463,0.6357
				s0.4814,0.585,0.6357,0.9463c0.1543,0.3623,0.2324,0.7461,0.2324,1.1543v0.4043l-1.2129,0.1963V21.237
				c0-0.2432-0.0459-0.4717-0.1387-0.6855c-0.0918-0.2129-0.2168-0.3994-0.374-0.5566c-0.1582-0.1582-0.3438-0.2822-0.5576-0.375
				c-0.2139-0.0918-0.4414-0.1377-0.6846-0.1377h-0.8086c-0.2432,0-0.4717,0.0459-0.6855,0.1377
				c-0.2139,0.0928-0.3994,0.2168-0.5566,0.375c-0.1582,0.1572-0.2832,0.3438-0.375,0.5566
				c-0.0918,0.2139-0.1377,0.4424-0.1377,0.6855v4.6934c0,0.2432,0.0459,0.4717,0.1377,0.6846
				c0.0918,0.2139,0.2168,0.3994,0.375,0.5576c0.1572,0.1572,0.3428,0.2822,0.5566,0.374c0.2139,0.0928,0.4424,0.1387,0.6855,0.1387
				h0.8086c0.2432,0,0.4707-0.0459,0.6846-0.1387c0.2139-0.0918,0.3994-0.2168,0.5576-0.374
				c0.1572-0.1582,0.2822-0.3438,0.374-0.5576c0.0928-0.2129,0.1387-0.4414,0.1387-0.6846v-0.6709l1.2129,0.1973v0.4043
				C489.2746,26.2683,489.1965,26.653,489.0422,27.0144z"/>
			<path style="fill:#FFFFFF;" d="M492.0051,16.1101v-1.6172h1.4102v1.6172H492.0051z M492.1037,28.6316V18.5359h1.2129v10.0957
				H492.1037z"/>
			<path style="fill:#FFFFFF;" d="M506.8049,28.6316V21.237c0-0.2432-0.0469-0.4717-0.1387-0.6855
				c-0.0918-0.2129-0.2168-0.3994-0.374-0.5566c-0.1582-0.1582-0.3438-0.2822-0.5576-0.375
				c-0.2139-0.0918-0.4424-0.1377-0.6846-0.1377h-0.6016c-0.2432,0-0.4717,0.0459-0.6855,0.1377
				c-0.2139,0.0928-0.4014,0.2168-0.5615,0.375c-0.1611,0.1572-0.2881,0.3438-0.3799,0.5566
				c-0.0918,0.2139-0.1387,0.4424-0.1387,0.6855v7.3945h-1.2021V21.237c0-0.2432-0.0459-0.4717-0.1387-0.6855
				c-0.0918-0.2129-0.2178-0.3994-0.3789-0.5566c-0.1611-0.1582-0.3486-0.2822-0.5625-0.375
				c-0.2139-0.0918-0.4414-0.1377-0.6846-0.1377h-0.6016c-0.2432,0-0.4717,0.0459-0.6855,0.1377
				c-0.2139,0.0928-0.3994,0.2168-0.5566,0.375c-0.1582,0.1572-0.2832,0.3438-0.375,0.5566
				c-0.0918,0.2139-0.1377,0.4424-0.1377,0.6855v7.3945h-1.2129V18.5359h0.4043l0.6602,1.0254
				c0.2764-0.375,0.623-0.6719,1.04-0.8926c0.418-0.2197,0.873-0.3301,1.3662-0.3301h0.0986c0.5713,0,1.0869,0.1416,1.5479,0.4238
				c0.46,0.2822,0.8145,0.6572,1.0645,1.124c0.125-0.2305,0.2793-0.4404,0.4639-0.6309c0.1836-0.1904,0.3877-0.3535,0.6113-0.4883
				c0.2227-0.1348,0.4658-0.2402,0.7295-0.3154c0.2627-0.0752,0.5352-0.1133,0.8184-0.1133h0.0986
				c0.4072,0,0.792,0.0771,1.1533,0.2314s0.6768,0.3662,0.9463,0.6357s0.4814,0.585,0.6357,0.9463
				c0.1543,0.3623,0.2314,0.7461,0.2314,1.1543v7.3252H506.8049z"/>
			<path style="fill:#FFFFFF;" d="M510.7482,16.1101v-1.6172h1.4102v1.6172H510.7482z M510.8469,28.6316V18.5359h1.2129v10.0957
				H510.8469z"/>
			<path style="fill:#FFFFFF;" d="M521.4006,27.0144c-0.1543,0.3613-0.3662,0.6777-0.6357,0.9463
				c-0.2695,0.2705-0.585,0.4824-0.9463,0.6367s-0.7461,0.2314-1.1533,0.2314h-0.8086c-0.4082,0-0.792-0.0771-1.1543-0.2314
				c-0.3613-0.1543-0.6768-0.3662-0.9463-0.6367c-0.2695-0.2686-0.4814-0.585-0.6357-0.9463s-0.2314-0.7461-0.2314-1.1533v-4.5547
				c0-0.4082,0.0771-0.792,0.2314-1.1543c0.1543-0.3613,0.3662-0.6768,0.6357-0.9463s0.585-0.4814,0.9463-0.6357
				c0.3623-0.1543,0.7461-0.2314,1.1543-0.2314h0.8086c0.4072,0,0.792,0.0771,1.1533,0.2314s0.6768,0.3662,0.9463,0.6357
				s0.4814,0.585,0.6357,0.9463c0.1543,0.3623,0.2324,0.7461,0.2324,1.1543v2.376h-5.5313v2.248
				c0,0.2432,0.0459,0.4717,0.1377,0.6846c0.0918,0.2139,0.2168,0.3994,0.375,0.5576c0.1572,0.1572,0.3428,0.2822,0.5566,0.374
				c0.2139,0.0928,0.4424,0.1387,0.6855,0.1387h0.8086c0.2432,0,0.4707-0.0459,0.6846-0.1387
				c0.2139-0.0918,0.3994-0.2168,0.5576-0.374c0.1572-0.1582,0.2822-0.3438,0.374-0.5576c0.0928-0.2129,0.1387-0.4414,0.1387-0.6846
				v-0.6709l1.2129,0.1973v0.4043C521.633,26.2683,521.5549,26.653,521.4006,27.0144z M520.4201,21.237
				c0-0.2432-0.0459-0.4717-0.1387-0.6855c-0.0918-0.2129-0.2168-0.3994-0.374-0.5566c-0.1582-0.1582-0.3438-0.2822-0.5576-0.375
				c-0.2139-0.0918-0.4414-0.1377-0.6846-0.1377h-0.8086c-0.2432,0-0.4717,0.0459-0.6855,0.1377
				c-0.2139,0.0928-0.3994,0.2168-0.5566,0.375c-0.1582,0.1572-0.2832,0.3438-0.375,0.5566
				c-0.0918,0.2139-0.1377,0.4424-0.1377,0.6855v1.499h4.3184V21.237z"/>
			<path style="fill:#FFFFFF;" d="M529.59,28.6316V21.237c0-0.2432-0.0459-0.4717-0.1387-0.6855
				c-0.0918-0.2129-0.2168-0.3994-0.374-0.5566c-0.1582-0.1582-0.3438-0.2822-0.5576-0.375
				c-0.2139-0.0918-0.4414-0.1377-0.6846-0.1377h-0.8086c-0.2432,0-0.4717,0.0459-0.6855,0.1377
				c-0.2139,0.0928-0.3994,0.2168-0.5566,0.375c-0.1582,0.1572-0.2832,0.3438-0.375,0.5566
				c-0.0918,0.2139-0.1377,0.4424-0.1377,0.6855v7.3945h-1.2129V18.5359h0.4043l0.6602,1.0254
				c0.2764-0.375,0.623-0.6719,1.04-0.8926c0.418-0.2197,0.873-0.3301,1.3662-0.3301h0.3057c0.4072,0,0.792,0.0771,1.1533,0.2314
				s0.6768,0.3662,0.9463,0.6357s0.4814,0.585,0.6357,0.9463c0.1543,0.3623,0.2324,0.7461,0.2324,1.1543v7.3252H529.59z"/>
			<path style="fill:#FFFFFF;" d="M536.9055,28.6316c-0.3682,0-0.7148-0.0693-1.04-0.207
				c-0.3262-0.1377-0.6084-0.3281-0.8486-0.5723c-0.2402-0.2432-0.4307-0.5254-0.5713-0.8477
				c-0.1416-0.3223-0.2119-0.667-0.2119-1.0352v-6.2803h-1.8145v-1.1533h1.8145v-2.4258l1.2119-0.1973v2.623h2.5635v1.1533h-2.5635
				v6.3398c0,0.2031,0.0381,0.3926,0.1143,0.5664c0.0752,0.1748,0.1787,0.3271,0.3105,0.459
				c0.1309,0.1309,0.2852,0.2344,0.4629,0.3105c0.1777,0.0752,0.3682,0.1133,0.5723,0.1133h1.1035v1.1533H536.9055z"/>
			<path style="fill:#FFFFFF;" d="M546.7492,27.0144c-0.1543,0.3613-0.3662,0.6777-0.6357,0.9463
				c-0.2695,0.2705-0.585,0.4824-0.9463,0.6367s-0.7461,0.2314-1.1533,0.2314h-0.8086c-0.4082,0-0.792-0.0771-1.1543-0.2314
				c-0.3613-0.1543-0.6768-0.3662-0.9463-0.6367c-0.2695-0.2686-0.4814-0.585-0.6357-0.9463s-0.2314-0.7461-0.2314-1.1533v-4.5547
				c0-0.4082,0.0771-0.792,0.2314-1.1543c0.1543-0.3613,0.3662-0.6768,0.6357-0.9463s0.585-0.4814,0.9463-0.6357
				c0.3623-0.1543,0.7461-0.2314,1.1543-0.2314h0.8086c0.4072,0,0.792,0.0771,1.1533,0.2314s0.6768,0.3662,0.9463,0.6357
				s0.4814,0.585,0.6357,0.9463c0.1543,0.3623,0.2324,0.7461,0.2324,1.1543v4.5547
				C546.9816,26.2683,546.9035,26.653,546.7492,27.0144z M545.7687,21.237c0-0.2432-0.0459-0.4717-0.1387-0.6855
				c-0.0918-0.2129-0.2168-0.3994-0.374-0.5566c-0.1582-0.1582-0.3438-0.2822-0.5576-0.375
				c-0.2139-0.0918-0.4414-0.1377-0.6846-0.1377h-0.8086c-0.2432,0-0.4717,0.0459-0.6855,0.1377
				c-0.2139,0.0928-0.3994,0.2168-0.5566,0.375c-0.1582,0.1572-0.2832,0.3438-0.375,0.5566
				c-0.0918,0.2139-0.1377,0.4424-0.1377,0.6855v4.6934c0,0.2432,0.0459,0.4717,0.1377,0.6846
				c0.0918,0.2139,0.2168,0.3994,0.375,0.5576c0.1572,0.1572,0.3428,0.2822,0.5566,0.374c0.2139,0.0928,0.4424,0.1387,0.6855,0.1387
				h0.8086c0.2432,0,0.4707-0.0459,0.6846-0.1387c0.2139-0.0918,0.3994-0.2168,0.5576-0.374
				c0.1572-0.1582,0.2822-0.3438,0.374-0.5576c0.0928-0.2129,0.1387-0.4414,0.1387-0.6846V21.237z"/>
		</g>
		<g id="Data_12_">
			<path style="fill:#44BACA;" d="M432.3475,32.3712l-2.059-2.6794c-1.7686,1.4796-4.0462,2.3704-6.5323,2.3704
				c-1.2174,0-2.3847-0.2137-3.467-0.6055l-0.9153,3.2586c1.3748,0.4689,2.8487,0.7239,4.3824,0.7239
				C427.0166,35.4392,430.0083,34.2885,432.3475,32.3712z"/>
			<path style="fill:#F9CA35;" d="M430.2885,29.6918l2.059,2.6794c3.0355-2.4873,4.9728-6.2654,4.9728-10.496
				c0-1.7918-0.3482-3.5021-0.9794-5.0679l-3.314,0.8399c0.5883,1.2878,0.9165,2.7195,0.9165,4.228
				C433.9435,25.0153,432.5222,27.8231,430.2885,29.6918z"/>
			<path style="fill:#2A4690;" d="M419.1879,12.7678l-1.3444-3.1033c-4.5288,2.197-7.6513,6.839-7.6513,12.2107
				c0,5.9575,3.8409,11.0176,9.1816,12.8401l0.9153-3.2586c-3.9193-1.4185-6.7202-5.1729-6.7202-9.5815
				C413.569,17.8916,415.8558,14.4424,419.1879,12.7678z"/>
			<path style="fill:#2B2B38;" d="M423.7562,11.6879c4.1179,0,7.6647,2.4435,9.2708,5.9593l3.314-0.8399
				c-2.0076-4.9808-6.8852-8.4963-12.5847-8.4963c-2.1195,0-4.1255,0.4868-5.9127,1.3536l1.3444,3.1033
				C420.562,12.0773,422.1136,11.6879,423.7562,11.6879z"/>
		</g>
		<g id="Controlling_11_">
			<g id="Correction_12_">
				<g id="Active_47_">
					<g id="Active1_25_">
						<path style="fill-rule:evenodd;clip-rule:evenodd;fill:#FFFFFF;" d="M423.9768,24.4353
							c0.2739,0.0997,0.5255,0.2459,0.7456,0.4295l1.0342-0.4259l0.6951,1.2039l-0.866,0.7177
							c0.0253,0.1438,0.0381,0.2906,0.0381,0.4409c0,0.133-0.0099,0.2631-0.0301,0.39l0.901,0.6943l-0.6949,1.2036l-1.039-0.3847
							c-0.2158,0.1883-0.4645,0.3397-0.7359,0.445l-0.1466,1.0989h-1.3905l-0.184-1.0811
							c-0.2738-0.0988-0.5259-0.2453-0.7459-0.4295l-1.0345,0.426l-0.6948-1.2036l0.8662-0.7183
							c-0.0251-0.143-0.0386-0.2903-0.0386-0.4406c0-0.133,0.0104-0.2631,0.0303-0.3906l-0.9009-0.6935l0.6949-1.2039l1.0384,0.3847
							c0.2162-0.1883,0.465-0.3397,0.7368-0.4444l0.1459-1.099h1.3906L423.9768,24.4353z"/>
						<path style="opacity:0.5;fill-rule:evenodd;clip-rule:evenodd;" d="M423.1398,28.608c0.9959,0,1.808-0.8116,1.808-1.8067
							c0-0.9957-0.8122-1.8067-1.808-1.8067c-0.995,0-1.8073,0.811-1.8073,1.8067C421.3324,27.7965,422.1447,28.608,423.1398,28.608
							L423.1398,28.608z"/>
						<path style="opacity:0.5;fill-rule:evenodd;clip-rule:evenodd;fill:#FFFFFF;" d="M423.1402,27.9997
							c0.6604,0,1.1988-0.5385,1.1988-1.1984c0-0.6601-0.5384-1.1981-1.1988-1.1981c-0.66,0-1.1983,0.5379-1.1983,1.1981
							C421.9419,27.4612,422.4802,27.9997,423.1402,27.9997L423.1402,27.9997z"/>
					</g>
					<g id="Active_48_">
						<path style="fill-rule:evenodd;clip-rule:evenodd;fill:#F9CA35;" d="M426.4723,14.1539
							c0.4319,0.0155,0.8529,0.1076,1.2469,0.2666l1.2651-1.0712l1.5274,1.3819l-0.8947,1.4065
							c0.1006,0.1909,0.1862,0.392,0.2544,0.6043c0.0604,0.1871,0.1053,0.3757,0.1349,0.5642l1.5862,0.5686l-0.433,2.014
							l-1.6402-0.0708c-0.219,0.3643-0.5009,0.6908-0.8357,0.9618l0.2924,1.617l-1.961,0.6318l-0.7512-1.441
							c-0.4311-0.0149-0.8531-0.1067-1.2472-0.2663l-1.265,1.0712l-1.528-1.382l0.8957-1.4068
							c-0.1006-0.1903-0.1862-0.3918-0.2546-0.6037c-0.0604-0.188-0.1047-0.3763-0.1349-0.5648l-1.586-0.5686l0.4331-2.0137
							l1.6404,0.0705c0.2185-0.364,0.5005-0.6905,0.8355-0.9613l-0.2928-1.6173l1.9609-0.6318L426.4723,14.1539z"/>
						<path style="opacity:0.5;fill-rule:evenodd;clip-rule:evenodd;" d="M426.3675,20.7844c1.6054,0,2.9147-1.3094,2.9147-2.9136
							c0-1.605-1.3093-2.913-2.9147-2.913c-1.6047,0-2.9139,1.308-2.9139,2.913C423.4536,19.475,424.7628,20.7844,426.3675,20.7844
							L426.3675,20.7844z"/>
						<path style="opacity:0.5;fill-rule:evenodd;clip-rule:evenodd;fill:#FFFFFF;" d="M426.9124,19.5612
							c0.9319-0.3002,1.4467-1.3045,1.1466-2.2353c-0.3-0.9311-1.3045-1.4451-2.2357-1.1452
							c-0.931,0.3002-1.4461,1.3039-1.1459,2.2353C424.9772,19.3469,425.9816,19.8612,426.9124,19.5612L426.9124,19.5612z"/>
					</g>
				</g>
				<g id="Active_45_">
					<g id="Active1_24_">
						<path style="fill-rule:evenodd;clip-rule:evenodd;fill:#E74C3C;" d="M418.3199,22.3207
							c0.1118-0.0474,0.2299-0.074,0.3491-0.0804l0.1943-0.4225l0.5527,0.1699l-0.0608,0.464
							c0.0482,0.0368,0.0937,0.0781,0.1364,0.1239c0.0374,0.0401,0.0715,0.0828,0.1013,0.1272l0.4707-0.0433l0.1292,0.5634
							l-0.4258,0.1766c-0.0124,0.1187-0.0454,0.2351-0.0984,0.3438l0.2663,0.3765l-0.4236,0.3932l-0.3619-0.2772
							c-0.1115,0.0477-0.2298,0.074-0.3489,0.0801l-0.1946,0.4224l-0.5525-0.1702l0.0608-0.464
							c-0.0481-0.0362-0.0938-0.0778-0.1364-0.1234c-0.0376-0.0407-0.0713-0.083-0.1014-0.1275l-0.4708,0.0438l-0.1286-0.5636
							l0.4254-0.1769c0.0124-0.1184,0.0454-0.2351,0.0984-0.3438l-0.2665-0.3763l0.424-0.3932L418.3199,22.3207z"/>
						<path style="opacity:0.5;fill-rule:evenodd;clip-rule:evenodd;" d="M419.2458,23.829
							c0.3033-0.2818,0.3211-0.7589,0.0396-1.0624c-0.2816-0.3032-0.7588-0.3207-1.0622-0.0386
							c-0.3032,0.2813-0.3212,0.7584-0.0396,1.0618C418.4653,24.093,418.9424,24.1108,419.2458,23.829L419.2458,23.829z"/>
						<path style="opacity:0.5;fill-rule:evenodd;clip-rule:evenodd;fill:#FFFFFF;" d="M419.0737,23.6433
							c0.2013-0.1868,0.2127-0.5034,0.026-0.7043c-0.1867-0.2012-0.503-0.2128-0.7042-0.026
							c-0.2013,0.1868-0.213,0.5031-0.0263,0.7043C418.556,23.8187,418.8724,23.8304,419.0737,23.6433L419.0737,23.6433z"/>
					</g>
					<g id="Active_46_">
						<path style="fill-rule:evenodd;clip-rule:evenodd;fill:#2A4690;" d="M416.1711,18.4813
							c0.136-0.1178,0.2903-0.2085,0.4555-0.2716l0.0826-0.6847l0.8564-0.0111l0.1254,0.6818
							c0.0845,0.0298,0.1675,0.067,0.2484,0.1126c0.0715,0.0398,0.1382,0.0845,0.2008,0.1336l0.6442-0.2757l0.4379,0.7367
							l-0.5198,0.4426c0.0363,0.1728,0.0427,0.352,0.0173,0.5295l0.5468,0.4099l-0.4188,0.7473l-0.6366-0.2266
							c-0.1355,0.1178-0.2903,0.209-0.4555,0.2716l-0.0824,0.6847l-0.8568,0.0114l-0.1251-0.6823
							c-0.0845-0.0295-0.1677-0.0667-0.2485-0.112c-0.0713-0.0401-0.1383-0.0851-0.2007-0.1336l-0.6445,0.2754l-0.4378-0.7364
							l0.5198-0.4426c-0.0364-0.1731-0.0428-0.3523-0.0172-0.5297l-0.5467-0.4096l0.4187-0.7475L416.1711,18.4813z"/>
						<path style="opacity:0.5;fill-rule:evenodd;clip-rule:evenodd;" d="M418.0153,20.5315
							c0.4895-0.4543,0.518-1.2241,0.0639-1.7126c-0.4542-0.4894-1.2232-0.5175-1.7123-0.0631
							c-0.4891,0.454-0.5181,1.2232-0.0639,1.7123C416.7571,20.9569,417.5266,20.9855,418.0153,20.5315L418.0153,20.5315z"/>
						<path style="opacity:0.5;fill-rule:evenodd;clip-rule:evenodd;fill:#FFFFFF;" d="M417.8355,20.0044
							c0.1989-0.3552,0.0716-0.8069-0.2831-1.0057c-0.3549-0.1988-0.8063-0.0713-1.0052,0.2839
							c-0.1991,0.3549-0.0719,0.8063,0.2831,1.0054C417.1848,20.4868,417.6368,20.359,417.8355,20.0044L417.8355,20.0044z"/>
					</g>
				</g>
			</g>
		</g>
	</g>
</g>
</svg>
