<?xml version="1.0" encoding="utf-8"?>
<!-- Generator: Adobe Illustrator 21.0.2, SVG Export Plug-In . SVG Version: 6.00 Build 0)  -->
<svg version="1.1" id="Capa_1" xmlns="http://www.w3.org/2000/svg" xmlns:xlink="http://www.w3.org/1999/xlink" x="0px" y="0px"
	 viewBox="0 0 137.5135 137.5143" style="enable-background:new 0 0 137.5135 137.5143;" xml:space="preserve">
<g id="Data_12_">
	<path style="fill:#44BACA;" d="M112.3064,121.9628l-10.4374-13.5821c-8.965,7.5002-20.5101,12.0157-33.1126,12.0157
		c-6.1708,0-12.0882-1.0833-17.5744-3.0692l-4.6399,16.5179c6.9688,2.377,14.4401,3.6693,22.2143,3.6693
		C85.2838,137.5143,100.4486,131.6814,112.3064,121.9628z"/>
	<path style="fill:#F9CA35;" d="M101.869,108.3807l10.4374,13.5821c15.387-12.6084,25.2071-31.7596,25.2071-53.2048
		c0-9.0829-1.765-17.7523-4.9644-25.6896l-16.7986,4.2577c2.9824,6.5279,4.6459,13.7851,4.6459,21.432
		C120.3964,84.6755,113.1919,98.9081,101.869,108.3807z"/>
	<path style="fill:#2A4690;" d="M45.5995,22.5923L38.7847,6.8614C15.828,17.9982,0,41.5286,0,68.7579
		c0,30.199,19.4698,55.8487,46.5421,65.0871l4.6399-16.5179c-19.8669-7.1904-34.0647-26.2216-34.0647-48.5693
		C17.1173,48.5649,28.709,31.0809,45.5995,22.5923z"/>
	<path style="fill:#2B2B38;" d="M68.7564,17.1179c20.874,0,38.853,12.3861,46.9941,30.208l16.7986-4.2577
		C122.3726,17.8204,97.6477,0,68.7564,0c-10.744,0-20.9125,2.4675-29.9716,6.8614l6.8148,15.7309
		C52.5646,19.0919,60.4301,17.1179,68.7564,17.1179z"/>
</g>
<g id="Controlling_11_">
	<g id="Correction_12_">
		<g id="Active_47_">
			<g id="Active1_25_">
				<path style="fill-rule:evenodd;clip-rule:evenodd;fill:#FFFFFF;" d="M69.8745,81.7354
					c1.3887,0.5053,2.6638,1.2463,3.7797,2.1769l5.2424-2.1591l3.5233,6.1026l-4.3896,3.6383
					c0.1283,0.7291,0.1934,1.473,0.1934,2.2347c0,0.6743-0.0504,1.3338-0.1526,1.9769l4.5673,3.5197l-3.5226,6.1012l-5.2669-1.9503
					c-1.0937,0.9544-2.3547,1.7221-3.7301,2.2556l-0.7431,5.5706h-7.0482l-0.9328-5.4803c-1.3879-0.5009-2.6661-1.2434-3.7812-2.177
					l-5.2439,2.1592l-3.5219-6.1011l4.391-3.6411c-0.1275-0.7247-0.1956-1.4716-0.1956-2.2334c0-0.6742,0.0526-1.3338,0.1534-1.9799
					L48.63,88.2336l3.5227-6.1026l5.2639,1.9502c1.0959-0.9543,2.357-1.722,3.7345-2.2525l0.7394-5.5706h7.0489L69.8745,81.7354z"/>
				<path style="opacity:0.5;fill-rule:evenodd;clip-rule:evenodd;" d="M65.6317,102.8871c5.0483,0,9.1651-4.1139,9.1651-9.1584
					c0-5.0475-4.1168-9.1584-9.1651-9.1584c-5.0438,0-9.1614,4.111-9.1614,9.1584
					C56.4703,98.7733,60.5879,102.8871,65.6317,102.8871L65.6317,102.8871z"/>
				<path style="opacity:0.5;fill-rule:evenodd;clip-rule:evenodd;fill:#FFFFFF;" d="M65.6339,99.8033
					c3.3477,0,6.0767-2.7298,6.0767-6.0746c0-3.3462-2.729-6.073-6.0767-6.073c-3.3455,0-6.0745,2.7269-6.0745,6.073
					C59.5595,97.0735,62.2884,99.8033,65.6339,99.8033L65.6339,99.8033z"/>
			</g>
			<g id="Active_48_">
				<path style="fill-rule:evenodd;clip-rule:evenodd;fill:#F9CA35;" d="M82.5245,29.6182
					c2.1896,0.0786,4.3236,0.5454,6.3204,1.3515l6.4131-5.4298l7.7424,7.0051l-4.5354,7.1297
					c0.5097,0.9678,0.944,1.9873,1.2893,3.0632c0.306,0.9484,0.5335,1.9043,0.6839,2.8601l8.0403,2.8825l-2.1948,10.2091
					l-8.3144-0.3587c-1.11,1.8466-2.5394,3.5019-4.2362,4.8756l1.482,8.1967l-9.9402,3.2024l-3.8079-7.3045
					c-2.1851-0.0756-4.3242-0.541-6.322-1.3501l-6.4123,5.4299l-7.7454-7.0052l4.54-7.1311
					c-0.5098-0.9648-0.944-1.9858-1.2908-3.0602c-0.3061-0.953-0.5306-1.9073-0.684-2.8631l-8.0395-2.8825l2.1955-10.2076
					l8.3153,0.3572c1.1077-1.845,2.537-3.5004,4.2353-4.8726l-1.4841-8.1981l9.9401-3.2026L82.5245,29.6182z"/>
				<path style="opacity:0.5;fill-rule:evenodd;clip-rule:evenodd;" d="M81.9932,63.2288c8.1381,0,14.775-6.6377,14.775-14.7691
					c0-8.1359-6.6369-14.7661-14.775-14.7661c-8.1345,0-14.7707,6.6302-14.7707,14.7661
					C67.2226,56.5911,73.8588,63.2288,81.9932,63.2288L81.9932,63.2288z"/>
				<path style="opacity:0.5;fill-rule:evenodd;clip-rule:evenodd;fill:#FFFFFF;" d="M84.7555,57.0283
					c4.7237-1.5219,7.3334-6.6124,5.8122-11.3309c-1.5205-4.72-6.6124-7.3253-11.3331-5.8048
					c-4.7193,1.5219-7.3305,6.6095-5.8085,11.331C74.9458,55.942,80.037,58.5487,84.7555,57.0283L84.7555,57.0283z"/>
			</g>
		</g>
		<g id="Active_45_">
			<g id="Active1_24_">
				<path style="fill-rule:evenodd;clip-rule:evenodd;fill:#E74C3C;" d="M41.1996,71.0164c0.5668-0.2401,1.1656-0.375,1.7694-0.4076
					l0.9848-2.1414l2.8017,0.861l-0.3083,2.3519c0.2445,0.1867,0.475,0.3957,0.6913,0.6283
					c0.1897,0.2031,0.3623,0.4195,0.5135,0.6447l2.386-0.2193l0.655,2.8557l-2.1585,0.8952
					c-0.0629,0.6016-0.2304,1.1915-0.4986,1.7428l1.35,1.9087l-2.1473,1.9932l-1.8346-1.4049
					c-0.5654,0.2416-1.1648,0.375-1.7688,0.4061l-0.9862,2.1413l-2.8009-0.8625l0.3082-2.3518
					c-0.2437-0.1837-0.4757-0.3941-0.6913-0.6253c-0.1904-0.2061-0.3616-0.4209-0.5142-0.6462l-2.3868,0.2223l-0.652-2.8571
					l2.1562-0.8966c0.0629-0.6002,0.2304-1.1915,0.4986-1.7428l-1.3507-1.9073l2.1496-1.9932L41.1996,71.0164z"/>
				<path style="opacity:0.5;fill-rule:evenodd;clip-rule:evenodd;" d="M45.893,78.6617c1.5375-1.4286,1.6279-3.8471,0.2007-5.3854
					c-1.4278-1.5368-3.8463-1.6257-5.3846-0.1956c-1.5368,1.4257-1.628,3.8442-0.2008,5.3825
					C41.9368,79.9999,44.3554,80.0904,45.893,78.6617L45.893,78.6617z"/>
				<path style="opacity:0.5;fill-rule:evenodd;clip-rule:evenodd;fill:#FFFFFF;" d="M45.0208,77.7208
					c1.0203-0.947,1.0781-2.5519,0.1319-3.57c-0.9463-1.0197-2.5497-1.0789-3.5694-0.1319c-1.0203,0.947-1.0796,2.5505-0.1334,3.57
					C42.3963,78.6099,44.0005,78.6692,45.0208,77.7208L45.0208,77.7208z"/>
			</g>
			<g id="Active_46_">
				<path style="fill-rule:evenodd;clip-rule:evenodd;fill:#2A4690;" d="M30.3073,51.554c0.6891-0.5972,1.4716-1.0567,2.3088-1.3768
					l0.4187-3.4707l4.3414-0.0564l0.6358,3.4559c0.4282,0.1511,0.8491,0.3394,1.2589,0.5706
					c0.3623,0.2015,0.7009,0.4282,1.0181,0.6772l3.2655-1.3974l2.2199,3.7345l-2.6349,2.2436
					c0.1838,0.8758,0.2164,1.7843,0.0875,2.6839l2.772,2.0776l-2.1229,3.7878l-3.2269-1.1485
					c-0.6869,0.5972-1.4716,1.0596-2.309,1.3768l-0.4179,3.4706l-4.3428,0.0578l-0.6343-3.4589
					c-0.4283-0.1496-0.8498-0.3379-1.2596-0.5675c-0.3616-0.2031-0.701-0.4313-1.0173-0.6773l-3.267,1.396L25.182,61.2
					l2.6348-2.2437c-0.1845-0.8773-0.2171-1.7858-0.0874-2.6853l-2.7713-2.0762l2.1222-3.7893L30.3073,51.554z"/>
				<path style="opacity:0.5;fill-rule:evenodd;clip-rule:evenodd;" d="M39.6555,61.9469c2.4814-2.3029,2.6259-6.205,0.3238-8.6813
					c-2.3022-2.4808-6.2005-2.623-8.6797-0.3201c-2.4793,2.3015-2.626,6.2005-0.3239,8.6797
					C33.2779,64.1032,37.1783,64.2483,39.6555,61.9469L39.6555,61.9469z"/>
				<path style="opacity:0.5;fill-rule:evenodd;clip-rule:evenodd;fill:#FFFFFF;" d="M38.7441,59.275
					c1.0084-1.8006,0.363-4.0902-1.4353-5.0979c-1.799-1.0078-4.0872-0.3615-5.0956,1.439
					c-1.0092,1.799-0.3646,4.0872,1.4352,5.0964C35.4459,61.7202,37.7371,61.0725,38.7441,59.275L38.7441,59.275z"/>
			</g>
		</g>
	</g>
</g>
</svg>
