<?xml version="1.0" encoding="utf-8"?>
<!-- Generator: Adobe Illustrator 21.0.2, SVG Export Plug-In . SVG Version: 6.00 Build 0)  -->
<svg version="1.1" id="Capa_1" xmlns="http://www.w3.org/2000/svg" xmlns:xlink="http://www.w3.org/1999/xlink" x="0px" y="0px"
	 viewBox="0 0 104.0785 36.9451" style="enable-background:new 0 0 104.0785 36.9451;" xml:space="preserve">
<g>
	<g>
		<path d="M46.2113,23.5855V12.1324h8.4922v1.9375h-6.1797v2.5391h5.75v1.9297h-5.75v3.1172h6.3984v1.9297H46.2113z"/>
		<path d="M64.4144,23.5855h-2.1953v-4.2344c0-0.8955-0.0469-1.4756-0.1406-1.7383s-0.2461-0.4678-0.457-0.6133
			s-0.4648-0.2188-0.7617-0.2188c-0.3799,0-0.7217,0.1045-1.0234,0.3125s-0.5088,0.4844-0.6211,0.8281s-0.168,0.9795-0.168,1.9063
			v3.7578h-2.1953v-8.2969h2.0391v1.2188c0.7236-0.9375,1.6357-1.4063,2.7344-1.4063c0.4844,0,0.9268,0.0869,1.3281,0.2617
			s0.7041,0.3975,0.9102,0.668s0.3486,0.5781,0.4297,0.9219s0.1211,0.8359,0.1211,1.4766V23.5855z"/>
		<path d="M70.4457,15.2886v1.75h-1.5v3.3438c0,0.6768,0.0146,1.0713,0.043,1.1836s0.0938,0.2041,0.1953,0.2773
			s0.2256,0.1094,0.3711,0.1094c0.2031,0,0.4971-0.0703,0.8828-0.2109l0.1875,1.7031c-0.5107,0.2188-1.0889,0.3281-1.7344,0.3281
			c-0.3955,0-0.7529-0.0664-1.0703-0.1992s-0.5508-0.3047-0.6992-0.5156s-0.251-0.4961-0.3086-0.8555
			c-0.0469-0.2549-0.0703-0.7705-0.0703-1.5469v-3.6172h-1.0078v-1.75h1.0078v-1.6484l2.2031-1.2813v2.9297H70.4457z"/>
		<path d="M74.0707,23.5855h-2.1953v-8.2969h2.0391v1.1797c0.3486-0.5576,0.6631-0.9248,0.9414-1.1016s0.5947-0.2656,0.9492-0.2656
			c0.5,0,0.9814,0.1377,1.4453,0.4141l-0.6797,1.9141c-0.3701-0.2393-0.7139-0.3594-1.0313-0.3594
			c-0.3076,0-0.5674,0.085-0.7813,0.2539s-0.3818,0.4756-0.5039,0.918s-0.1836,1.3701-0.1836,2.7813V23.5855z"/>
		<path d="M79.8363,17.8199l-1.9922-0.3594c0.2236-0.8018,0.6094-1.3955,1.1563-1.7813s1.3594-0.5781,2.4375-0.5781
			c0.9795,0,1.708,0.1162,2.1875,0.3477s0.8164,0.5264,1.0117,0.8828s0.293,1.0117,0.293,1.9648l-0.0234,2.5625
			c0,0.7295,0.0352,1.2666,0.1055,1.6133s0.2021,0.7178,0.3945,1.1133h-2.1719c-0.0576-0.1455-0.1279-0.3623-0.2109-0.6484
			c-0.0361-0.1299-0.0625-0.2158-0.0781-0.2578c-0.375,0.3643-0.7764,0.6377-1.2031,0.8203s-0.8828,0.2734-1.3672,0.2734
			c-0.8545,0-1.5273-0.2314-2.0195-0.6953s-0.7383-1.0498-0.7383-1.7578c0-0.4688,0.1123-0.8867,0.3359-1.2539
			s0.5381-0.6484,0.9414-0.8438s0.9854-0.3662,1.7461-0.5117c1.0264-0.1924,1.7373-0.3721,2.1328-0.5391v-0.2188
			c0-0.4219-0.1045-0.7227-0.3125-0.9023s-0.6016-0.2695-1.1797-0.2695c-0.3906,0-0.6953,0.0771-0.9141,0.2305
			S79.972,17.4341,79.8363,17.8199z M82.7738,19.6011c-0.2813,0.0938-0.7266,0.2061-1.3359,0.3359s-1.0078,0.2578-1.1953,0.3828
			c-0.2861,0.2031-0.4297,0.4609-0.4297,0.7734c0,0.3076,0.1143,0.5732,0.3438,0.7969s0.5205,0.3359,0.875,0.3359
			c0.3955,0,0.7734-0.1299,1.1328-0.3906c0.2656-0.1982,0.4404-0.4404,0.5234-0.7266c0.0576-0.1875,0.0859-0.5439,0.0859-1.0703
			V19.6011z"/>
		<path d="M94.7035,23.5855h-2.0391v-1.2188c-0.3389,0.4736-0.7383,0.8271-1.1992,1.0586s-0.9258,0.3477-1.3945,0.3477
			c-0.9531,0-1.7695-0.3838-2.4492-1.1523s-1.0195-1.8398-1.0195-3.2148c0-1.4063,0.3311-2.4756,0.9922-3.207
			s1.4971-1.0977,2.5078-1.0977c0.9268,0,1.7295,0.3857,2.4063,1.1563v-4.125h2.1953V23.5855z M88.8441,19.2574
			c0,0.8857,0.1221,1.5264,0.3672,1.9219c0.3545,0.5732,0.8486,0.8594,1.4844,0.8594c0.5049,0,0.9346-0.2148,1.2891-0.6445
			s0.5313-1.0713,0.5313-1.9258c0-0.9531-0.1719-1.6396-0.5156-2.0586s-0.7842-0.6289-1.3203-0.6289
			c-0.5205,0-0.957,0.207-1.3086,0.6211S88.8441,18.4341,88.8441,19.2574z"/>
		<path d="M98.5082,17.8199l-1.9922-0.3594c0.2236-0.8018,0.6094-1.3955,1.1563-1.7813s1.3594-0.5781,2.4375-0.5781
			c0.9795,0,1.708,0.1162,2.1875,0.3477s0.8164,0.5264,1.0117,0.8828s0.293,1.0117,0.293,1.9648l-0.0234,2.5625
			c0,0.7295,0.0352,1.2666,0.1055,1.6133s0.2021,0.7178,0.3945,1.1133h-2.1719c-0.0576-0.1455-0.1279-0.3623-0.2109-0.6484
			c-0.0361-0.1299-0.0625-0.2158-0.0781-0.2578c-0.375,0.3643-0.7764,0.6377-1.2031,0.8203s-0.8828,0.2734-1.3672,0.2734
			c-0.8545,0-1.5273-0.2314-2.0195-0.6953s-0.7383-1.0498-0.7383-1.7578c0-0.4688,0.1123-0.8867,0.3359-1.2539
			s0.5381-0.6484,0.9414-0.8438s0.9854-0.3662,1.7461-0.5117c1.0264-0.1924,1.7373-0.3721,2.1328-0.5391v-0.2188
			c0-0.4219-0.1045-0.7227-0.3125-0.9023s-0.6016-0.2695-1.1797-0.2695c-0.3906,0-0.6953,0.0771-0.9141,0.2305
			S98.6439,17.4341,98.5082,17.8199z M101.4457,19.6011c-0.2813,0.0938-0.7266,0.2061-1.3359,0.3359s-1.0078,0.2578-1.1953,0.3828
			c-0.2861,0.2031-0.4297,0.4609-0.4297,0.7734c0,0.3076,0.1143,0.5732,0.3438,0.7969s0.5205,0.3359,0.875,0.3359
			c0.3955,0,0.7734-0.1299,1.1328-0.3906c0.2656-0.1982,0.4404-0.4404,0.5234-0.7266c0.0576-0.1875,0.0859-0.5439,0.0859-1.0703
			V19.6011z"/>
	</g>
	<circle style="fill:#F9CA35;" cx="18.4725" cy="18.4725" r="18.4725"/>
	<g>
		<path d="M7.8007,12.5676l2.3093,6.383l-2.3093,6.3844c2.9322-2.5563,7.6617-4.9698,11.474-6.3844
			C15.4623,17.5374,10.7329,15.1239,7.8007,12.5676z"/>
		<path d="M10.6696,6.9034v5.5835c0.5064,0.5048,1.2459,1.1314,2.2947,1.8216V9.0068h12.0471V27.938H12.9643v-4.6
			c-0.6723,0.3543-1.4387,0.8353-2.2947,1.4751v5.2286h16.6365V6.9034H10.6696z"/>
		<rect x="3.0833" y="17.6118" width="9.0417" height="2.5"/>
	</g>
</g>
</svg>
