<?xml version="1.0" encoding="utf-8"?>
<!-- Generator: Adobe Illustrator 21.0.2, SVG Export Plug-In . SVG Version: 6.00 Build 0)  -->
<svg version="1.1" id="Capa_1" xmlns="http://www.w3.org/2000/svg" xmlns:xlink="http://www.w3.org/1999/xlink" x="0px" y="0px"
	 viewBox="0 0 78.5352 110.0622" style="enable-background:new 0 0 78.5352 110.0622;" xml:space="preserve">
<g id="Concept_13_">
	<g id="Board_13_">
		<path style="fill-rule:evenodd;clip-rule:evenodd;fill:#F39C12;" d="M5.2085,9.8824l68.6472,0.3627
			c2.5918,0.0137,4.6943,2.3095,4.6795,5.1071l-0.4736,89.6418c-0.0148,2.7976-2.1415,5.0818-4.7332,5.0681l-68.6472-0.3627
			c-2.5824-0.0136-4.6958-2.3203-4.681-5.1179l0.4736-89.6418C0.4884,12.1422,2.6261,9.8688,5.2085,9.8824L5.2085,9.8824z"/>
		
			<rect x="-6.1986" y="24.7274" transform="matrix(0.0053 -1 1 0.0053 -20.902 98.9228)" style="fill-rule:evenodd;clip-rule:evenodd;fill:#E6E6E6;" width="90.942" height="70.4807"/>
		<polygon style="fill-rule:evenodd;clip-rule:evenodd;fill:#474646;" points="24.9537,0 54.2256,0.1546 54.1494,14.5747 
			52.5181,14.5661 52.5845,1.9893 26.4768,1.8513 26.4103,14.4281 24.8775,14.42 		"/>
		<path style="fill-rule:evenodd;clip-rule:evenodd;fill:#D84848;" d="M22.5893,8.5801l33.902,0.1791
			c0.7078,0.0037,1.2769,0.6369,1.2728,1.4009l-0.0342,6.4654c-0.004,0.7658-0.5797,1.3803-1.2875,1.3766l-33.902-0.1791
			c-0.6985-0.0037-1.2786-0.6243-1.2745-1.3901l0.0342-6.4654C21.3041,9.2035,21.8908,8.5764,22.5893,8.5801L22.5893,8.5801z"/>
		<path style="opacity:0.2;fill-rule:evenodd;clip-rule:evenodd;fill:#231F20;" d="M38.7199,8.6653l17.7713,0.0939
			c0.7078,0.0037,1.2769,0.6369,1.2728,1.4009l-0.0342,6.4654c-0.004,0.7658-0.5797,1.3803-1.2875,1.3766l-17.7713-0.0939
			L38.7199,8.6653z"/>
		<path style="opacity:0.1;fill-rule:evenodd;clip-rule:evenodd;fill:#231F20;" d="M38.7126,10.0594l35.1431,0.1857
			c2.5918,0.0137,4.6943,2.3095,4.6795,5.1071l-0.4736,89.6418c-0.0148,2.7976-2.1415,5.0818-4.7332,5.0681l-35.1431-0.1857
			L38.7126,10.0594z"/>
	</g>
	<g id="Paragraph_13_">
		
			<rect x="37.7624" y="6.6316" transform="matrix(0.0053 -1 1 0.0053 6.0792 70.7364)" style="fill-rule:evenodd;clip-rule:evenodd;fill:#4D4D4D;" width="1.6655" height="51.3617"/>
		
			<rect x="37.7406" y="10.6027" transform="matrix(0.0053 -1 1 0.0053 2.0873 74.6654)" style="fill-rule:evenodd;clip-rule:evenodd;fill:#336699;" width="1.6671" height="51.3617"/>
		
			<rect x="37.721" y="14.3015" transform="matrix(0.0053 -1 1 0.0053 -1.6309 78.3252)" style="fill-rule:evenodd;clip-rule:evenodd;fill:#4D4D4D;" width="1.6671" height="51.3617"/>
		
			<rect x="37.7001" y="18.2734" transform="matrix(0.0053 -1 1 0.0053 -5.6236 82.2551)" style="fill-rule:evenodd;clip-rule:evenodd;fill:#4D4D4D;" width="1.6671" height="51.3617"/>
		
			<rect x="37.685" y="22.1555" transform="matrix(0.0053 -1 1 0.0053 -9.5261 86.0962)" style="fill-rule:evenodd;clip-rule:evenodd;fill:#336699;" width="1.6561" height="51.3617"/>
		
			<rect x="37.6601" y="25.8506" transform="matrix(0.0053 -1 1 0.0053 -13.2406 89.7523)" style="fill-rule:evenodd;clip-rule:evenodd;fill:#4D4D4D;" width="1.6669" height="51.3617"/>
		
			<rect x="37.6445" y="29.8265" transform="matrix(0.0053 -1 1 0.0053 -17.2372 93.6861)" style="fill-rule:evenodd;clip-rule:evenodd;fill:#4D4D4D;" width="1.6561" height="51.3617"/>
	</g>
	<g id="Diagram_13_">
		
			<rect x="36.4686" y="73.2116" transform="matrix(0.0053 -1 1 0.0053 -61.9357 135.5212)" style="fill-rule:evenodd;clip-rule:evenodd;fill:#4D4D4D;" width="1.3661" height="51.3617"/>
		<path style="fill-rule:evenodd;clip-rule:evenodd;fill:#FF6633;" d="M16.1492,84.0834L16.1492,84.0834
			c0.7375,0.0039,1.3445,0.5514,1.341,1.208l-0.0658,12.4582l-2.6963-0.0142l0.0658-12.4582
			C14.7973,84.6206,15.4007,84.0795,16.1492,84.0834L16.1492,84.0834z"/>
		<path style="fill-rule:evenodd;clip-rule:evenodd;fill:#0056A3;" d="M21.3779,82.6313L21.3779,82.6313
			c0.7375,0.0039,1.3456,0.612,1.3417,1.3388l-0.0729,13.8072l-2.6961-0.0142l0.0729-13.8072
			C20.0274,83.229,20.6308,82.6273,21.3779,82.6313L21.3779,82.6313z"/>
		<path style="fill-rule:evenodd;clip-rule:evenodd;fill:#FF6633;" d="M26.5908,84.19L26.5908,84.19
			c0.7392,0.0039,1.3475,0.5515,1.344,1.2095l-0.0661,12.5083l-2.6977-0.0143l0.0661-12.5083
			C25.2406,84.7272,25.8437,84.1861,26.5908,84.19L26.5908,84.19z"/>
		<path style="fill-rule:evenodd;clip-rule:evenodd;fill:#0056A3;" d="M32.278,77.1262L32.278,77.1262
			c0.7375,0.0039,1.3447,0.8289,1.3394,1.8317L33.517,97.9376l-2.698-0.0143l0.1003-18.9797
			C30.9247,77.9408,31.5311,77.1223,32.278,77.1262L32.278,77.1262z"/>
		<path style="fill-rule:evenodd;clip-rule:evenodd;fill:#FF6633;" d="M37.7109,84.8556L37.7109,84.8556
			c0.7469,0.0039,1.3462,0.5248,1.3429,1.1641l-0.0631,11.9469l-2.698-0.0143l0.0631-11.9469
			C36.3591,85.3661,36.9733,84.8517,37.7109,84.8556L37.7109,84.8556z"/>
		<path style="fill-rule:evenodd;clip-rule:evenodd;fill:#0056A3;" d="M43.2438,90.1527l0.011,0.0001
			c0.7375,0.0039,1.3363,0.3172,1.3343,0.6978l-0.0377,7.1454l-2.6884-0.0142l0.0378-7.1454
			C41.9028,90.4557,42.5063,90.1488,43.2438,90.1527L43.2438,90.1527z"/>
		<path style="fill-rule:evenodd;clip-rule:evenodd;fill:#0056A3;" d="M49.0492,77.2834L49.0492,77.2834
			c0.7455,0.0039,1.343,0.8289,1.3377,1.8333L50.287,98.0262l-2.6884-0.0142l0.0999-18.9095
			C47.7038,78.098,48.31,77.2794,49.0492,77.2834L49.0492,77.2834z"/>
		<path style="fill-rule:evenodd;clip-rule:evenodd;fill:#33CC99;" d="M54.0102,78.685L54.0102,78.685
			c0.7375,0.0039,1.3463,0.7774,1.3414,1.7117l-0.0933,17.6558l-2.6994-0.0143l0.0933-17.6558
			C52.6572,79.4482,53.2741,78.6811,54.0102,78.685L54.0102,78.685z"/>
		<path style="fill-rule:evenodd;clip-rule:evenodd;fill:#FF6633;" d="M58.5688,73.9091L58.5688,73.9091
			c0.7469,0.004,1.344,0.9584,1.3378,2.1264l-0.1164,22.0409l-2.698-0.0143l0.1164-22.041
			C57.2148,74.8533,57.8313,73.9052,58.5688,73.9091L58.5688,73.9091z"/>
		
			<rect x="66.3928" y="78.1217" transform="matrix(0.0053 -1 1 0.0053 -12.3493 148.6223)" style="fill-rule:evenodd;clip-rule:evenodd;fill:#FF6633;" width="4.2746" height="4.7937"/>
		
			<rect x="66.3555" y="85.2154" transform="matrix(0.0053 -1 1 0.0053 -19.4802 155.6411)" style="fill-rule:evenodd;clip-rule:evenodd;fill:#33CC99;" width="4.2743" height="4.7937"/>
		
			<rect x="66.3179" y="92.4644" transform="matrix(0.0053 -1 1 0.0053 -26.7672 162.8134)" style="fill-rule:evenodd;clip-rule:evenodd;fill:#0056A3;" width="4.2729" height="4.7937"/>
	</g>
</g>
</svg>
