<?xml version="1.0" encoding="utf-8"?>
<!-- Generator: Adobe Illustrator 21.0.2, SVG Export Plug-In . SVG Version: 6.00 Build 0)  -->
<svg version="1.1" id="Capa_1" xmlns="http://www.w3.org/2000/svg" xmlns:xlink="http://www.w3.org/1999/xlink" x="0px" y="0px"
	 viewBox="0 0 156.8555 21.5918" style="enable-background:new 0 0 156.8555 21.5918;" xml:space="preserve">
<g>
	<path style="fill:#C9452F;" d="M11.8213,21.2988h-0.6006l-1.0986-1.6846c-0.459,0.6055-1.0156,1.0864-1.6699,1.4429
		s-1.3818,0.5347-2.1826,0.5347H5.1709c-0.7129,0-1.3843-0.1343-2.0142-0.4028s-1.1792-0.6372-1.6479-1.106
		s-0.8374-1.0156-1.106-1.6406S0,17.1484,0,16.4355V5.1563c0-0.7129,0.1343-1.3818,0.4028-2.0068S1.04,1.9775,1.5088,1.5088
		s1.0181-0.8374,1.6479-1.106S4.458,0,5.1709,0H6.665c0.7129,0,1.3818,0.1343,2.0068,0.4028s1.1719,0.6372,1.6406,1.106
		s0.8374,1.0156,1.106,1.6406s0.4028,1.2939,0.4028,2.0068v0.8496l-1.8896,0.293V5.1563c0-0.4688-0.0879-0.9058-0.2637-1.311
		s-0.415-0.7593-0.7178-1.062s-0.6567-0.542-1.062-0.7178s-0.8423-0.2637-1.311-0.2637H5.2588c-0.4688,0-0.9058,0.0879-1.311,0.2637
		S3.186,2.4805,2.8784,2.7832s-0.5493,0.6567-0.7251,1.062s-0.2637,0.8423-0.2637,1.311v11.2793
		c0,0.4688,0.0879,0.9058,0.2637,1.311s0.4175,0.7617,0.7251,1.0693s0.6641,0.5493,1.0693,0.7251s0.8423,0.2637,1.311,0.2637h1.3184
		c0.4688,0,0.9058-0.0879,1.311-0.2637s0.7593-0.4175,1.062-0.7251s0.542-0.6641,0.7178-1.0693s0.2637-0.8423,0.2637-1.311v-4.3799
		H6.5771v-1.8018h5.2441V21.2988z"/>
	<path style="fill:#C9452F;" d="M25.4077,18.8965c-0.2295,0.5371-0.5444,1.0059-0.9448,1.4063s-0.8691,0.7153-1.4063,0.9448
		s-1.1084,0.3442-1.7139,0.3442h-1.2012c-0.6055,0-1.1768-0.1147-1.7139-0.3442s-1.0059-0.5444-1.4063-0.9448
		s-0.7153-0.8691-0.9448-1.4063s-0.3442-1.1084-0.3442-1.7139V10.415c0-0.6055,0.1147-1.1768,0.3442-1.7139
		s0.5444-1.0059,0.9448-1.4063s0.8691-0.7153,1.4063-0.9448s1.1084-0.3442,1.7139-0.3442h1.2012
		c0.6055,0,1.1768,0.1147,1.7139,0.3442s1.0059,0.5444,1.4063,0.9448s0.7153,0.8691,0.9448,1.4063s0.3442,1.1084,0.3442,1.7139
		v3.5303h-8.2178v3.3398c0,0.3613,0.0684,0.7007,0.2051,1.0181s0.3223,0.5933,0.5566,0.8276s0.5103,0.4199,0.8276,0.5566
		s0.6567,0.2051,1.0181,0.2051h1.2012c0.3613,0,0.7007-0.0684,1.0181-0.2051s0.5933-0.3223,0.8276-0.5566
		s0.4199-0.5103,0.5566-0.8276s0.2051-0.6567,0.2051-1.0181v-0.9961l1.8018,0.293v0.6006
		C25.752,17.7881,25.6372,18.3594,25.4077,18.8965z M23.9502,10.3125c0-0.3613-0.0684-0.7007-0.2051-1.0181
		s-0.3223-0.5933-0.5566-0.8276s-0.5103-0.4199-0.8276-0.5566s-0.6567-0.2051-1.0181-0.2051h-1.2012
		c-0.3613,0-0.7007,0.0684-1.0181,0.2051s-0.5933,0.3223-0.8276,0.5566s-0.4199,0.5103-0.5566,0.8276s-0.2051,0.6567-0.2051,1.0181
		v2.2266h6.416V10.3125z"/>
	<path style="fill:#C9452F;" d="M37.5732,21.2988V10.3125c0-0.3613-0.0684-0.7007-0.2051-1.0181s-0.3223-0.5933-0.5566-0.8276
		s-0.5103-0.4199-0.8276-0.5566s-0.6567-0.2051-1.0181-0.2051h-1.2012c-0.3613,0-0.7007,0.0684-1.0181,0.2051
		s-0.5933,0.3223-0.8276,0.5566s-0.4199,0.5103-0.5566,0.8276s-0.2051,0.6567-0.2051,1.0181v10.9863h-1.8018v-15h0.6006
		l0.9814,1.5234c0.4102-0.5566,0.9253-0.9985,1.5454-1.3257s1.2964-0.4907,2.0288-0.4907h0.4541
		c0.6055,0,1.1768,0.1147,1.7139,0.3442s1.0059,0.5444,1.4063,0.9448s0.7153,0.8691,0.9448,1.4063s0.3442,1.1084,0.3442,1.7139
		v10.8838H37.5732z"/>
	<path style="fill:#C9452F;" d="M52.6538,18.8965c-0.2295,0.5371-0.5444,1.0059-0.9448,1.4063s-0.8691,0.7153-1.4063,0.9448
		s-1.1084,0.3442-1.7139,0.3442h-1.2012c-0.6055,0-1.1768-0.1147-1.7139-0.3442s-1.0059-0.5444-1.4063-0.9448
		s-0.7153-0.8691-0.9448-1.4063s-0.3442-1.1084-0.3442-1.7139V10.415c0-0.6055,0.1147-1.1768,0.3442-1.7139
		s0.5444-1.0059,0.9448-1.4063s0.8691-0.7153,1.4063-0.9448s1.1084-0.3442,1.7139-0.3442h1.2012
		c0.6055,0,1.1768,0.1147,1.7139,0.3442s1.0059,0.5444,1.4063,0.9448s0.7153,0.8691,0.9448,1.4063s0.3442,1.1084,0.3442,1.7139
		v3.5303h-8.2178v3.3398c0,0.3613,0.0684,0.7007,0.2051,1.0181s0.3223,0.5933,0.5566,0.8276s0.5103,0.4199,0.8276,0.5566
		s0.6567,0.2051,1.0181,0.2051h1.2012c0.3613,0,0.7007-0.0684,1.0181-0.2051s0.5933-0.3223,0.8276-0.5566
		s0.4199-0.5103,0.5566-0.8276s0.2051-0.6567,0.2051-1.0181v-0.9961l1.8018,0.293v0.6006
		C52.998,17.7881,52.8833,18.3594,52.6538,18.8965z M51.1963,10.3125c0-0.3613-0.0684-0.7007-0.2051-1.0181
		s-0.3223-0.5933-0.5566-0.8276s-0.5103-0.4199-0.8276-0.5566s-0.6567-0.2051-1.0181-0.2051h-1.2012
		c-0.3613,0-0.7007,0.0684-1.0181,0.2051s-0.5933,0.3223-0.8276,0.5566s-0.4199,0.5103-0.5566,0.8276s-0.2051,0.6567-0.2051,1.0181
		v2.2266h6.416V10.3125z"/>
	<path style="fill:#C9452F;" d="M61.0107,8.0127c-0.3613,0-0.7007,0.0684-1.0181,0.2051S59.3994,8.54,59.165,8.7744
		s-0.4199,0.5103-0.5566,0.8276s-0.2051,0.6567-0.2051,1.0181v10.6787h-1.8018v-15h0.6006l0.9814,1.5234
		c0.4102-0.5566,0.9253-0.9985,1.5454-1.3257s1.2964-0.4907,2.0288-0.4907h1.0547v2.0068H61.0107z"/>
	<path style="fill:#C9452F;" d="M74.6338,21.2988l-0.9961-1.4941c-0.4102,0.5371-0.9229,0.9692-1.5381,1.2964
		s-1.2891,0.4907-2.0215,0.4907H69.624c-0.6055,0-1.1768-0.1147-1.7139-0.3442s-1.0059-0.5444-1.4063-0.9448
		s-0.7153-0.8691-0.9448-1.4063s-0.3442-1.1084-0.3442-1.7139v-0.1465c0-0.6055,0.1147-1.1768,0.3442-1.7139
		s0.5444-1.0059,0.9448-1.4063s0.8691-0.7153,1.4063-0.9448s1.1084-0.3442,1.7139-0.3442h3.8086v-2.3145
		c0-0.3613-0.0684-0.7007-0.2051-1.0181s-0.3223-0.5933-0.5566-0.8276s-0.5103-0.4199-0.8276-0.5566s-0.6567-0.2051-1.0181-0.2051
		h-1.0547c-0.3613,0-0.7007,0.0684-1.0181,0.2051s-0.5933,0.3223-0.8276,0.5566s-0.4199,0.5103-0.5566,0.8276
		s-0.2051,0.6567-0.2051,1.0181v0.542l-1.8018-0.293V10.415c0-0.6055,0.1147-1.1768,0.3442-1.7139s0.5444-1.0059,0.9448-1.4063
		s0.8691-0.7153,1.4063-0.9448s1.1084-0.3442,1.7139-0.3442h1.0547c0.6055,0,1.1768,0.1147,1.7139,0.3442
		s1.0059,0.5444,1.4063,0.9448s0.7153,0.8691,0.9448,1.4063s0.3442,1.1084,0.3442,1.7139v10.8838H74.6338z M73.4326,14.0332H69.624
		c-0.3613,0-0.7007,0.0684-1.0181,0.2051s-0.5933,0.3247-0.8276,0.564s-0.4199,0.5176-0.5566,0.835s-0.2051,0.6567-0.2051,1.0181
		v0.6299c0,0.3613,0.0684,0.7007,0.2051,1.0181s0.3223,0.5933,0.5566,0.8276s0.5103,0.4199,0.8276,0.5566
		s0.6567,0.2051,1.0181,0.2051h1.2012c0.3613,0,0.7007-0.0684,1.0181-0.2051s0.5933-0.3223,0.8276-0.5566
		s0.4199-0.5103,0.5566-0.8276s0.2051-0.6567,0.2051-1.0181V14.0332z"/>
	<path style="fill:#C9452F;" d="M79.4385,21.2988V0.293h1.8018v21.0059H79.4385z"/>
	<path style="fill:#C9452F;" d="M85.8984,2.6953V0.293h2.0947v2.4023H85.8984z M86.0449,21.2988v-15h1.8018v15H86.0449z"/>
	<path style="fill:#C9452F;" d="M101.4697,21.2988l-0.9961-1.5234c-0.4102,0.5566-0.9229,0.9985-1.5381,1.3257
		s-1.2891,0.4907-2.0215,0.4907H96.46c-0.6055,0-1.1768-0.1147-1.7139-0.3442s-1.0059-0.5444-1.4063-0.9448
		s-0.7153-0.8691-0.9448-1.4063s-0.3442-1.1084-0.3442-1.7139V10.415c0-0.6055,0.1147-1.1768,0.3442-1.7139
		s0.5444-1.0059,0.9448-1.4063s0.8691-0.7153,1.4063-0.9448s1.1084-0.3442,1.7139-0.3442h0.4541
		c0.6738,0,1.2988,0.1367,1.875,0.4102s1.0693,0.6543,1.4795,1.1426V0.293h1.8018v21.0059H101.4697z M100.2686,10.3125
		c0-0.3613-0.0684-0.7007-0.2051-1.0181s-0.3223-0.5933-0.5566-0.8276s-0.5103-0.4199-0.8276-0.5566s-0.6567-0.2051-1.0181-0.2051
		H96.46c-0.3613,0-0.7007,0.0684-1.0181,0.2051s-0.5933,0.3223-0.8276,0.5566s-0.4199,0.5103-0.5566,0.8276
		s-0.2051,0.6567-0.2051,1.0181v6.9727c0,0.3613,0.0684,0.7007,0.2051,1.0181s0.3223,0.5933,0.5566,0.8276
		s0.5103,0.4199,0.8276,0.5566s0.6567,0.2051,1.0181,0.2051h1.2012c0.3613,0,0.7007-0.0684,1.0181-0.2051
		s0.5933-0.3223,0.8276-0.5566s0.4199-0.5103,0.5566-0.8276s0.2051-0.6567,0.2051-1.0181V10.3125z"/>
	<path style="fill:#C9452F;" d="M115.0928,21.2988l-0.9961-1.4941c-0.4102,0.5371-0.9229,0.9692-1.5381,1.2964
		s-1.2891,0.4907-2.0215,0.4907h-0.4541c-0.6055,0-1.1768-0.1147-1.7139-0.3442s-1.0059-0.5444-1.4063-0.9448
		s-0.7153-0.8691-0.9448-1.4063s-0.3442-1.1084-0.3442-1.7139v-0.1465c0-0.6055,0.1147-1.1768,0.3442-1.7139
		s0.5444-1.0059,0.9448-1.4063s0.8691-0.7153,1.4063-0.9448s1.1084-0.3442,1.7139-0.3442h3.8086v-2.3145
		c0-0.3613-0.0684-0.7007-0.2051-1.0181s-0.3223-0.5933-0.5566-0.8276s-0.5103-0.4199-0.8276-0.5566s-0.6567-0.2051-1.0181-0.2051
		h-1.0547c-0.3613,0-0.7007,0.0684-1.0181,0.2051s-0.5933,0.3223-0.8276,0.5566s-0.4199,0.5103-0.5566,0.8276
		s-0.2051,0.6567-0.2051,1.0181v0.542l-1.8018-0.293V10.415c0-0.6055,0.1147-1.1768,0.3442-1.7139s0.5444-1.0059,0.9448-1.4063
		s0.8691-0.7153,1.4063-0.9448s1.1084-0.3442,1.7139-0.3442h1.0547c0.6055,0,1.1768,0.1147,1.7139,0.3442
		s1.0059,0.5444,1.4063,0.9448s0.7153,0.8691,0.9448,1.4063s0.3442,1.1084,0.3442,1.7139v10.8838H115.0928z M113.8916,14.0332
		h-3.8086c-0.3613,0-0.7007,0.0684-1.0181,0.2051s-0.5933,0.3247-0.8276,0.564s-0.4199,0.5176-0.5566,0.835
		s-0.2051,0.6567-0.2051,1.0181v0.6299c0,0.3613,0.0684,0.7007,0.2051,1.0181s0.3223,0.5933,0.5566,0.8276
		s0.5103,0.4199,0.8276,0.5566s0.6567,0.2051,1.0181,0.2051h1.2012c0.3613,0,0.7007-0.0684,1.0181-0.2051
		s0.5933-0.3223,0.8276-0.5566s0.4199-0.5103,0.5566-0.8276s0.2051-0.6567,0.2051-1.0181V14.0332z"/>
	<path style="fill:#C9452F;" d="M128.7158,21.2988l-0.9961-1.5234c-0.4102,0.5566-0.9229,0.9985-1.5381,1.3257
		s-1.2891,0.4907-2.0215,0.4907h-0.4541c-0.6055,0-1.1768-0.1147-1.7139-0.3442s-1.0059-0.5444-1.4063-0.9448
		s-0.7153-0.8691-0.9448-1.4063s-0.3442-1.1084-0.3442-1.7139V10.415c0-0.6055,0.1147-1.1768,0.3442-1.7139
		s0.5444-1.0059,0.9448-1.4063s0.8691-0.7153,1.4063-0.9448s1.1084-0.3442,1.7139-0.3442h0.4541
		c0.6738,0,1.2988,0.1367,1.875,0.4102s1.0693,0.6543,1.4795,1.1426V0.293h1.8018v21.0059H128.7158z M127.5146,10.3125
		c0-0.3613-0.0684-0.7007-0.2051-1.0181s-0.3223-0.5933-0.5566-0.8276s-0.5103-0.4199-0.8276-0.5566s-0.6567-0.2051-1.0181-0.2051
		h-1.2012c-0.3613,0-0.7007,0.0684-1.0181,0.2051s-0.5933,0.3223-0.8276,0.5566s-0.4199,0.5103-0.5566,0.8276
		s-0.2051,0.6567-0.2051,1.0181v6.9727c0,0.3613,0.0684,0.7007,0.2051,1.0181s0.3223,0.5933,0.5566,0.8276
		s0.5103,0.4199,0.8276,0.5566s0.6567,0.2051,1.0181,0.2051h1.2012c0.3613,0,0.7007-0.0684,1.0181-0.2051
		s0.5933-0.3223,0.8276-0.5566s0.4199-0.5103,0.5566-0.8276s0.2051-0.6567,0.2051-1.0181V10.3125z"/>
	<path style="fill:#C9452F;" d="M142.5952,18.8965c-0.2295,0.5371-0.5444,1.0059-0.9448,1.4063s-0.8691,0.7153-1.4063,0.9448
		s-1.1084,0.3442-1.7139,0.3442h-1.2012c-0.6055,0-1.1768-0.1147-1.7139-0.3442s-1.0059-0.5444-1.4063-0.9448
		s-0.7153-0.8691-0.9448-1.4063s-0.3442-1.1084-0.3442-1.7139V10.415c0-0.6055,0.1147-1.1768,0.3442-1.7139
		s0.5444-1.0059,0.9448-1.4063s0.8691-0.7153,1.4063-0.9448s1.1084-0.3442,1.7139-0.3442h1.2012
		c0.6055,0,1.1768,0.1147,1.7139,0.3442s1.0059,0.5444,1.4063,0.9448s0.7153,0.8691,0.9448,1.4063s0.3442,1.1084,0.3442,1.7139
		v3.5303h-8.2178v3.3398c0,0.3613,0.0684,0.7007,0.2051,1.0181s0.3223,0.5933,0.5566,0.8276s0.5103,0.4199,0.8276,0.5566
		s0.6567,0.2051,1.0181,0.2051h1.2012c0.3613,0,0.7007-0.0684,1.0181-0.2051s0.5933-0.3223,0.8276-0.5566
		s0.4199-0.5103,0.5566-0.8276s0.2051-0.6567,0.2051-1.0181v-0.9961l1.8018,0.293v0.6006
		C142.9395,17.7881,142.8247,18.3594,142.5952,18.8965z M141.1377,10.3125c0-0.3613-0.0684-0.7007-0.2051-1.0181
		s-0.3223-0.5933-0.5566-0.8276s-0.5103-0.4199-0.8276-0.5566s-0.6567-0.2051-1.0181-0.2051h-1.2012
		c-0.3613,0-0.7007,0.0684-1.0181,0.2051s-0.5933,0.3223-0.8276,0.5566s-0.4199,0.5103-0.5566,0.8276s-0.2051,0.6567-0.2051,1.0181
		v2.2266h6.416V10.3125z"/>
	<path style="fill:#C9452F;" d="M156.8555,17.4902c0,0.6055-0.1221,1.1597-0.3662,1.6626s-0.5762,0.9351-0.9961,1.2964
		s-0.9058,0.6421-1.4575,0.8423s-1.1304,0.3003-1.7358,0.3003h-1.2012c-0.6055,0-1.1841-0.1147-1.7358-0.3442
		s-1.0352-0.5444-1.4502-0.9448s-0.7471-0.8691-0.9961-1.4063s-0.3735-1.1084-0.3735-1.7139V16.582l1.8018-0.293v0.9961
		c0,0.3613,0.0757,0.7007,0.2271,1.0181s0.354,0.5933,0.6079,0.8276s0.5469,0.4199,0.8789,0.5566s0.6787,0.2051,1.04,0.2051h1.2012
		c0.3613,0,0.708-0.0537,1.04-0.1611s0.6274-0.2612,0.8862-0.4614s0.4639-0.4419,0.6152-0.7251s0.2271-0.6055,0.2271-0.9668
		c0-0.5371-0.1172-0.9766-0.3516-1.3184s-0.5444-0.6274-0.9302-0.8569s-0.8252-0.4199-1.3184-0.5713s-0.9985-0.3027-1.5161-0.4541
		s-1.0229-0.3247-1.5161-0.52s-0.9326-0.4517-1.3184-0.769s-0.6958-0.7153-0.9302-1.1938s-0.3516-1.0742-0.3516-1.7871
		c0-0.6055,0.1172-1.1597,0.3516-1.6626s0.5518-0.9351,0.9521-1.2964s0.8667-0.6421,1.3989-0.8423s1.1011-0.3003,1.7065-0.3003
		h1.0547c0.6055,0,1.1768,0.1147,1.7139,0.3442s1.0059,0.5444,1.4063,0.9448s0.7153,0.8691,0.9448,1.4063
		s0.3442,1.1084,0.3442,1.7139v0.0586l-1.8018,0.293v-0.4541c0-0.3613-0.0684-0.7007-0.2051-1.0181s-0.3223-0.5933-0.5566-0.8276
		s-0.5103-0.4199-0.8276-0.5566s-0.6567-0.2051-1.0181-0.2051h-1.0547c-0.3613,0-0.7007,0.0537-1.0181,0.1611
		s-0.5933,0.2612-0.8276,0.4614s-0.4199,0.4419-0.5566,0.7251s-0.2051,0.6055-0.2051,0.9668c0,0.5176,0.1172,0.9399,0.3516,1.2671
		s0.5444,0.603,0.9302,0.8276s0.8252,0.4126,1.3184,0.564s0.9961,0.3076,1.5088,0.4688s1.0156,0.3442,1.5088,0.5493
		s0.9326,0.4688,1.3184,0.791s0.6958,0.7251,0.9302,1.2085S156.8555,16.7773,156.8555,17.4902z"/>
</g>
</svg>
