<?xml version="1.0" encoding="utf-8"?>
<!-- Generator: Adobe Illustrator 21.0.2, SVG Export Plug-In . SVG Version: 6.00 Build 0)  -->
<svg version="1.1" id="Capa_1" xmlns="http://www.w3.org/2000/svg" xmlns:xlink="http://www.w3.org/1999/xlink" x="0px" y="0px"
	 viewBox="0 0 558.2673 434.7835" style="enable-background:new 0 0 558.2673 434.7835;" xml:space="preserve">
<polygon style="fill:#CED3D6;" points="270.6564,0 0,434.7835 558.2673,434.7835 "/>
<polygon style="fill:#FFFFFF;" points="271.2596,17.2682 19.8609,424.1245 538.4064,424.1245 "/>
<polygon style="fill:#2B2B38;" points="104.463,312.7206 449.9261,312.7206 515.7142,414.3661 42.5531,414.3661 "/>
<polygon style="fill:#F9CA35;" points="104.463,312.7206 449.9261,312.7206 380.2972,205.141 169.9873,205.141 "/>
<polygon style="fill:#DD4E31;" points="274.001,37.7379 382.3495,205.141 172.0396,205.141 "/>
<g>
	<path style="fill:#F9F9F9;" d="M215.8415,190.688c-0.2539,0.5908-0.6016,1.1074-1.0449,1.5498
		c-0.4424,0.4424-0.959,0.791-1.5488,1.0449c-0.5908,0.2529-1.2227,0.3799-1.8955,0.3799h-1.4111
		c-0.6738,0-1.3076-0.127-1.9023-0.3799c-0.5947-0.2539-1.1143-0.6025-1.5566-1.0449s-0.791-0.959-1.0449-1.5498
		c-0.2529-0.5898-0.3799-1.2217-0.3799-1.8945v-10.6533c0-0.6729,0.127-1.3047,0.3799-1.8955
		c0.2539-0.5898,0.6025-1.1064,1.0449-1.5488c0.4424-0.4434,0.9619-0.791,1.5566-1.0449c0.5947-0.2529,1.2285-0.3799,1.9023-0.3799
		h1.4111c0.6729,0,1.3047,0.127,1.8955,0.3799c0.5898,0.2539,1.1064,0.6016,1.5488,1.0449c0.4434,0.4424,0.791,0.959,1.0449,1.5488
		c0.2529,0.5908,0.3799,1.2227,0.3799,1.8955v0.8027l-1.7842,0.2764v-1.0791c0-0.4424-0.083-0.8555-0.249-1.2383
		c-0.166-0.3818-0.3926-0.7168-0.6777-1.0029c-0.2861-0.2852-0.6211-0.5117-1.0029-0.6777c-0.3828-0.166-0.7959-0.249-1.2383-0.249
		h-1.2451c-0.4434,0-0.8555,0.083-1.2383,0.249s-0.7197,0.3926-1.0098,0.6777c-0.291,0.2861-0.5195,0.6211-0.6855,1.0029
		c-0.166,0.3828-0.249,0.7959-0.249,1.2383v10.6533c0,0.4424,0.083,0.8555,0.249,1.2383s0.3945,0.7188,0.6855,1.0098
		c0.29,0.29,0.627,0.5186,1.0098,0.6846s0.7949,0.249,1.2383,0.249h1.2451c0.4424,0,0.8555-0.083,1.2383-0.249
		c0.3818-0.166,0.7168-0.3945,1.0029-0.6846c0.2852-0.291,0.5117-0.627,0.6777-1.0098s0.249-0.7959,0.249-1.2383v-1.0791
		l1.7842,0.29v0.7891C216.2214,189.4663,216.0945,190.0982,215.8415,190.688z"/>
	<path style="fill:#F9F9F9;" d="M228.7634,191.1177c-0.2168,0.5068-0.5146,0.9502-0.8926,1.3281s-0.8213,0.6758-1.3281,0.8916
		c-0.5078,0.2168-1.0469,0.3252-1.6191,0.3252h-1.1338c-0.5723,0-1.1123-0.1084-1.6191-0.3252
		c-0.5068-0.2158-0.9502-0.5137-1.3281-0.8916s-0.6758-0.8213-0.8926-1.3281c-0.2168-0.5078-0.3242-1.0469-0.3242-1.6191v-6.3916
		c0-0.5713,0.1074-1.1113,0.3242-1.6182c0.2168-0.5078,0.5146-0.9502,0.8926-1.3281c0.3779-0.3789,0.8213-0.6758,1.3281-0.8926
		s1.0469-0.3252,1.6191-0.3252h1.1338c0.5723,0,1.1113,0.1084,1.6191,0.3252c0.5068,0.2168,0.9502,0.5137,1.3281,0.8926
		c0.3779,0.3779,0.6758,0.8203,0.8926,1.3281c0.2158,0.5068,0.3252,1.0469,0.3252,1.6182v6.3916
		C229.0886,190.0708,228.9792,190.6099,228.7634,191.1177z M227.3865,183.0103c0-0.3408-0.0645-0.6621-0.1934-0.9619
		c-0.1299-0.2988-0.3047-0.5596-0.5264-0.7813c-0.2207-0.2217-0.4814-0.3965-0.7813-0.5254
		c-0.2998-0.1299-0.6201-0.1943-0.9619-0.1943h-1.1338c-0.3418,0-0.6621,0.0645-0.9619,0.1943
		c-0.2998,0.1289-0.5605,0.3037-0.7813,0.5254c-0.2217,0.2217-0.3965,0.4824-0.5264,0.7813
		c-0.1289,0.2998-0.1934,0.6211-0.1934,0.9619v6.585c0,0.3418,0.0645,0.6621,0.1934,0.9619
		c0.1299,0.2998,0.3047,0.5605,0.5264,0.7813c0.2207,0.2217,0.4814,0.3975,0.7813,0.5264s0.6201,0.1934,0.9619,0.1934h1.1338
		c0.3418,0,0.6621-0.0645,0.9619-0.1934s0.5605-0.3047,0.7813-0.5264c0.2217-0.2207,0.3965-0.4814,0.5264-0.7813
		c0.1289-0.2998,0.1934-0.6201,0.1934-0.9619V183.0103z"/>
	<path style="fill:#F9F9F9;" d="M240.2527,193.3862v-10.376c0-0.3408-0.0645-0.6621-0.1934-0.9619
		c-0.1299-0.2988-0.3047-0.5596-0.5264-0.7813c-0.2207-0.2217-0.4814-0.3965-0.7813-0.5254
		c-0.2998-0.1299-0.6201-0.1943-0.9619-0.1943h-1.1338c-0.3418,0-0.6621,0.0645-0.9619,0.1943
		c-0.2998,0.1289-0.5605,0.3037-0.7813,0.5254c-0.2217,0.2217-0.3965,0.4824-0.5264,0.7813
		c-0.1289,0.2998-0.1934,0.6211-0.1934,0.9619v10.376h-1.7012v-14.167h0.5664l0.9277,1.4395c0.3867-0.5264,0.873-0.9434,1.459-1.252
		c0.5859-0.3096,1.2246-0.4639,1.916-0.4639h0.4287c0.5723,0,1.1113,0.1084,1.6191,0.3252
		c0.5068,0.2168,0.9502,0.5137,1.3281,0.8926c0.3779,0.3779,0.6758,0.8203,0.8926,1.3281c0.2158,0.5068,0.3252,1.0469,0.3252,1.6182
		v10.2793H240.2527z"/>
	<path style="fill:#F9F9F9;" d="M254.4958,191.1177c-0.2168,0.5068-0.5146,0.9502-0.8926,1.3281s-0.8213,0.6758-1.3281,0.8916
		c-0.5078,0.2168-1.0469,0.3252-1.6191,0.3252h-1.1338c-0.5723,0-1.1123-0.1084-1.6191-0.3252
		c-0.5068-0.2158-0.9502-0.5137-1.3281-0.8916s-0.6758-0.8213-0.8926-1.3281c-0.2168-0.5078-0.3242-1.0469-0.3242-1.6191v-6.3916
		c0-0.5713,0.1074-1.1113,0.3242-1.6182c0.2168-0.5078,0.5146-0.9502,0.8926-1.3281c0.3779-0.3789,0.8213-0.6758,1.3281-0.8926
		s1.0469-0.3252,1.6191-0.3252h1.1338c0.5723,0,1.1113,0.1084,1.6191,0.3252c0.5068,0.2168,0.9502,0.5137,1.3281,0.8926
		c0.3779,0.3779,0.6758,0.8203,0.8926,1.3281c0.2158,0.5068,0.3252,1.0469,0.3252,1.6182v6.3916
		C254.821,190.0708,254.7117,190.6099,254.4958,191.1177z M253.1189,183.0103c0-0.3408-0.0645-0.6621-0.1934-0.9619
		c-0.1299-0.2988-0.3047-0.5596-0.5264-0.7813c-0.2207-0.2217-0.4814-0.3965-0.7813-0.5254
		c-0.2998-0.1299-0.6201-0.1943-0.9619-0.1943h-1.1338c-0.3418,0-0.6621,0.0645-0.9619,0.1943
		c-0.2998,0.1289-0.5605,0.3037-0.7813,0.5254c-0.2217,0.2217-0.3965,0.4824-0.5264,0.7813
		c-0.1289,0.2998-0.1934,0.6211-0.1934,0.9619v6.585c0,0.3418,0.0645,0.6621,0.1934,0.9619
		c0.1299,0.2998,0.3047,0.5605,0.5264,0.7813c0.2207,0.2217,0.4814,0.3975,0.7813,0.5264s0.6201,0.1934,0.9619,0.1934h1.1338
		c0.3418,0,0.6621-0.0645,0.9619-0.1934s0.5605-0.3047,0.7813-0.5264c0.2217-0.2207,0.3965-0.4814,0.5264-0.7813
		c0.1289-0.2998,0.1934-0.6201,0.1934-0.9619V183.0103z"/>
	<path style="fill:#F9F9F9;" d="M267.362,191.1177c-0.2168,0.5068-0.5146,0.9502-0.8926,1.3281s-0.8213,0.6758-1.3281,0.8916
		c-0.5078,0.2168-1.0469,0.3252-1.6191,0.3252h-1.1338c-0.5723,0-1.1123-0.1084-1.6191-0.3252
		c-0.5068-0.2158-0.9502-0.5137-1.3281-0.8916s-0.6758-0.8213-0.8926-1.3281c-0.2168-0.5078-0.3242-1.0469-0.3242-1.6191v-6.3916
		c0-0.5713,0.1074-1.1113,0.3242-1.6182c0.2168-0.5078,0.5146-0.9502,0.8926-1.3281c0.3779-0.3789,0.8213-0.6758,1.3281-0.8926
		s1.0469-0.3252,1.6191-0.3252h1.1338c0.5723,0,1.1113,0.1084,1.6191,0.3252c0.5068,0.2168,0.9502,0.5137,1.3281,0.8926
		c0.3779,0.3779,0.6758,0.8203,0.8926,1.3281c0.2158,0.5068,0.3252,1.0469,0.3252,1.6182v0.5674l-1.7021,0.2764v-0.9404
		c0-0.3408-0.0645-0.6621-0.1934-0.9619c-0.1299-0.2988-0.3047-0.5596-0.5264-0.7813c-0.2207-0.2217-0.4814-0.3965-0.7813-0.5254
		c-0.2998-0.1299-0.6201-0.1943-0.9619-0.1943h-1.1338c-0.3418,0-0.6621,0.0645-0.9619,0.1943
		c-0.2998,0.1289-0.5605,0.3037-0.7813,0.5254c-0.2217,0.2217-0.3965,0.4824-0.5264,0.7813
		c-0.1289,0.2998-0.1934,0.6211-0.1934,0.9619v6.585c0,0.3418,0.0645,0.6621,0.1934,0.9619
		c0.1299,0.2998,0.3047,0.5605,0.5264,0.7813c0.2207,0.2217,0.4814,0.3975,0.7813,0.5264s0.6201,0.1934,0.9619,0.1934h1.1338
		c0.3418,0,0.6621-0.0645,0.9619-0.1934s0.5605-0.3047,0.7813-0.5264c0.2217-0.2207,0.3965-0.4814,0.5264-0.7813
		c0.1289-0.2998,0.1934-0.6201,0.1934-0.9619v-0.9404l1.7021,0.2764v0.5674C267.6872,190.0708,267.5779,190.6099,267.362,191.1177z"
		/>
	<path style="fill:#F9F9F9;" d="M271.5193,175.8159v-2.2686h1.9785v2.2686H271.5193z M271.657,193.3862v-14.167h1.7021v14.167
		H271.657z"/>
	<path style="fill:#F9F9F9;" d="M292.2849,193.3862v-10.376c0-0.3408-0.0645-0.6621-0.1943-0.9619
		c-0.1289-0.2988-0.3037-0.5596-0.5254-0.7813s-0.4824-0.3965-0.7813-0.5254c-0.2998-0.1299-0.6211-0.1943-0.9619-0.1943h-0.8438
		c-0.3418,0-0.6621,0.0645-0.9619,0.1943c-0.2998,0.1289-0.5625,0.3037-0.7881,0.5254c-0.2266,0.2217-0.4033,0.4824-0.5332,0.7813
		c-0.1289,0.2998-0.1934,0.6211-0.1934,0.9619v10.376h-1.6875v-10.376c0-0.3408-0.0645-0.6621-0.1943-0.9619
		c-0.1289-0.2988-0.3066-0.5596-0.5322-0.7813c-0.2266-0.2217-0.4893-0.3965-0.7891-0.5254
		c-0.2998-0.1299-0.6201-0.1943-0.9609-0.1943h-0.8438c-0.3418,0-0.6621,0.0645-0.9619,0.1943
		c-0.2998,0.1289-0.5605,0.3037-0.7813,0.5254c-0.2217,0.2217-0.3965,0.4824-0.5264,0.7813
		c-0.1289,0.2998-0.1934,0.6211-0.1934,0.9619v10.376h-1.7012v-14.167h0.5664l0.9277,1.4395c0.3867-0.5264,0.873-0.9434,1.459-1.252
		c0.5859-0.3096,1.2246-0.4639,1.916-0.4639h0.1387c0.8027,0,1.5264,0.1982,2.1719,0.5947s1.1436,0.9229,1.4941,1.5771
		c0.1748-0.3223,0.3916-0.6182,0.6504-0.8857c0.2578-0.2666,0.5439-0.4951,0.8574-0.6846c0.3135-0.1885,0.6553-0.3359,1.0244-0.4424
		c0.3682-0.1064,0.751-0.1592,1.1475-0.1592h0.1387c0.5723,0,1.1113,0.1084,1.6191,0.3252
		c0.5068,0.2168,0.9492,0.5137,1.3281,0.8926c0.3779,0.3779,0.6748,0.8203,0.8916,1.3281c0.2168,0.5068,0.3252,1.0469,0.3252,1.6182
		v10.2793H292.2849z"/>
	<path style="fill:#F9F9F9;" d="M297.8191,175.8159v-2.2686h1.9785v2.2686H297.8191z M297.9568,193.3862v-14.167h1.7021v14.167
		H297.9568z"/>
	<path style="fill:#F9F9F9;" d="M312.7673,191.1177c-0.2168,0.5068-0.5146,0.9502-0.8926,1.3281s-0.8213,0.6758-1.3281,0.8916
		c-0.5078,0.2168-1.0469,0.3252-1.6191,0.3252h-1.1338c-0.5723,0-1.1123-0.1084-1.6191-0.3252
		c-0.5068-0.2158-0.9502-0.5137-1.3281-0.8916s-0.6758-0.8213-0.8926-1.3281c-0.2168-0.5078-0.3242-1.0469-0.3242-1.6191v-6.3916
		c0-0.5713,0.1074-1.1113,0.3242-1.6182c0.2168-0.5078,0.5146-0.9502,0.8926-1.3281c0.3779-0.3789,0.8213-0.6758,1.3281-0.8926
		s1.0469-0.3252,1.6191-0.3252h1.1338c0.5723,0,1.1113,0.1084,1.6191,0.3252c0.5068,0.2168,0.9502,0.5137,1.3281,0.8926
		c0.3779,0.3779,0.6758,0.8203,0.8926,1.3281c0.2158,0.5068,0.3252,1.0469,0.3252,1.6182v3.334h-7.7617v3.1543
		c0,0.3418,0.0645,0.6621,0.1934,0.9619c0.1299,0.2998,0.3047,0.5605,0.5264,0.7813c0.2207,0.2217,0.4814,0.3975,0.7813,0.5264
		s0.6201,0.1934,0.9619,0.1934h1.1338c0.3418,0,0.6621-0.0645,0.9619-0.1934s0.5605-0.3047,0.7813-0.5264
		c0.2217-0.2207,0.3965-0.4814,0.5264-0.7813c0.1289-0.2998,0.1934-0.6201,0.1934-0.9619v-0.9404l1.7021,0.2764v0.5674
		C313.0925,190.0708,312.9831,190.6099,312.7673,191.1177z M311.3904,183.0103c0-0.3408-0.0645-0.6621-0.1934-0.9619
		c-0.1299-0.2988-0.3047-0.5596-0.5264-0.7813c-0.2207-0.2217-0.4814-0.3965-0.7813-0.5254
		c-0.2998-0.1299-0.6201-0.1943-0.9619-0.1943h-1.1338c-0.3418,0-0.6621,0.0645-0.9619,0.1943
		c-0.2998,0.1289-0.5605,0.3037-0.7813,0.5254c-0.2217,0.2217-0.3965,0.4824-0.5264,0.7813
		c-0.1289,0.2998-0.1934,0.6211-0.1934,0.9619v2.1025h6.0596V183.0103z"/>
	<path style="fill:#F9F9F9;" d="M324.2566,193.3862v-10.376c0-0.3408-0.0645-0.6621-0.1934-0.9619
		c-0.1299-0.2988-0.3047-0.5596-0.5264-0.7813c-0.2207-0.2217-0.4814-0.3965-0.7813-0.5254
		c-0.2998-0.1299-0.6201-0.1943-0.9619-0.1943h-1.1338c-0.3418,0-0.6621,0.0645-0.9619,0.1943
		c-0.2998,0.1289-0.5605,0.3037-0.7813,0.5254c-0.2217,0.2217-0.3965,0.4824-0.5264,0.7813
		c-0.1289,0.2998-0.1934,0.6211-0.1934,0.9619v10.376h-1.7012v-14.167h0.5664l0.9277,1.4395c0.3867-0.5264,0.873-0.9434,1.459-1.252
		c0.5859-0.3096,1.2246-0.4639,1.916-0.4639h0.4287c0.5723,0,1.1113,0.1084,1.6191,0.3252
		c0.5068,0.2168,0.9502,0.5137,1.3281,0.8926c0.3779,0.3779,0.6758,0.8203,0.8926,1.3281c0.2158,0.5068,0.3252,1.0469,0.3252,1.6182
		v10.2793H324.2566z"/>
	<path style="fill:#F9F9F9;" d="M334.5222,193.3862c-0.5166,0-1.0029-0.0967-1.46-0.291c-0.4561-0.1934-0.8535-0.4609-1.1895-0.8018
		c-0.3369-0.3408-0.6045-0.7383-0.8027-1.1904c-0.1982-0.4512-0.2969-0.9355-0.2969-1.4521v-8.8125h-2.5459v-1.6191h2.5459v-3.4033
		l1.7012-0.2764v3.6797h3.5967v1.6191h-3.5967v8.8955c0,0.2861,0.0527,0.5508,0.1592,0.7959
		c0.1055,0.2441,0.251,0.459,0.4355,0.6426c0.1846,0.1846,0.4014,0.3301,0.6504,0.4365c0.249,0.1055,0.5166,0.1582,0.8027,0.1582
		h1.5488v1.6191H334.5222z"/>
	<path style="fill:#F9F9F9;" d="M348.3366,191.1177c-0.2168,0.5068-0.5146,0.9502-0.8926,1.3281s-0.8213,0.6758-1.3281,0.8916
		c-0.5078,0.2168-1.0469,0.3252-1.6191,0.3252h-1.1338c-0.5723,0-1.1123-0.1084-1.6191-0.3252
		c-0.5068-0.2158-0.9502-0.5137-1.3281-0.8916s-0.6758-0.8213-0.8926-1.3281c-0.2168-0.5078-0.3242-1.0469-0.3242-1.6191v-6.3916
		c0-0.5713,0.1074-1.1113,0.3242-1.6182c0.2168-0.5078,0.5146-0.9502,0.8926-1.3281c0.3779-0.3789,0.8213-0.6758,1.3281-0.8926
		s1.0469-0.3252,1.6191-0.3252h1.1338c0.5723,0,1.1113,0.1084,1.6191,0.3252c0.5068,0.2168,0.9502,0.5137,1.3281,0.8926
		c0.3779,0.3779,0.6758,0.8203,0.8926,1.3281c0.2158,0.5068,0.3252,1.0469,0.3252,1.6182v6.3916
		C348.6618,190.0708,348.5525,190.6099,348.3366,191.1177z M346.9597,183.0103c0-0.3408-0.0645-0.6621-0.1934-0.9619
		c-0.1299-0.2988-0.3047-0.5596-0.5264-0.7813c-0.2207-0.2217-0.4814-0.3965-0.7813-0.5254
		c-0.2998-0.1299-0.6201-0.1943-0.9619-0.1943h-1.1338c-0.3418,0-0.6621,0.0645-0.9619,0.1943
		c-0.2998,0.1289-0.5605,0.3037-0.7813,0.5254c-0.2217,0.2217-0.3965,0.4824-0.5264,0.7813
		c-0.1289,0.2998-0.1934,0.6211-0.1934,0.9619v6.585c0,0.3418,0.0645,0.6621,0.1934,0.9619
		c0.1299,0.2998,0.3047,0.5605,0.5264,0.7813c0.2207,0.2217,0.4814,0.3975,0.7813,0.5264s0.6201,0.1934,0.9619,0.1934h1.1338
		c0.3418,0,0.6621-0.0645,0.9619-0.1934s0.5605-0.3047,0.7813-0.5264c0.2217-0.2207,0.3965-0.4814,0.5264-0.7813
		c0.1289-0.2998,0.1934-0.6201,0.1934-0.9619V183.0103z"/>
</g>
<g>
	<path d="M218.4704,268.0269V248.188h1.7852v19.8389H218.4704z"/>
	<path d="M231.987,268.0269v-10.376c0-0.3408-0.0645-0.6621-0.1934-0.9619c-0.1299-0.2988-0.3047-0.5596-0.5264-0.7813
		c-0.2207-0.2217-0.4814-0.3965-0.7813-0.5254c-0.2998-0.1299-0.6201-0.1943-0.9619-0.1943h-1.1338
		c-0.3418,0-0.6621,0.0645-0.9619,0.1943c-0.2998,0.1289-0.5605,0.3037-0.7813,0.5254c-0.2217,0.2217-0.3965,0.4824-0.5264,0.7813
		c-0.1289,0.2998-0.1934,0.6211-0.1934,0.9619v10.376h-1.7012v-14.167h0.5664l0.9277,1.4395c0.3867-0.5264,0.873-0.9434,1.459-1.252
		c0.5859-0.3096,1.2246-0.4639,1.916-0.4639h0.4287c0.5723,0,1.1113,0.1084,1.6191,0.3252
		c0.5068,0.2168,0.9502,0.5137,1.3281,0.8926c0.3779,0.3779,0.6758,0.8203,0.8926,1.3281c0.2158,0.5068,0.3252,1.0469,0.3252,1.6182
		v10.2793H231.987z"/>
	<path d="M241.9617,249.8062c-0.2861,0-0.5508,0.0537-0.7949,0.1592c-0.2451,0.1064-0.459,0.252-0.6436,0.4365
		s-0.3301,0.4004-0.4355,0.6494c-0.1064,0.249-0.1592,0.5166-0.1592,0.8027v2.0059h3.3066v1.6191h-3.3066v12.5479h-1.7021V255.479
		h-2.5596v-1.6191h2.5596v-1.9229c0-0.5166,0.0967-1.0029,0.291-1.46c0.1934-0.4561,0.4609-0.8545,0.8018-1.1963
		c0.3418-0.3408,0.7383-0.6084,1.1904-0.8027c0.4512-0.1934,0.9355-0.29,1.4521-0.29h1.5635v1.6182H241.9617z"/>
	<path d="M254.365,265.7583c-0.2168,0.5068-0.5146,0.9502-0.8926,1.3281s-0.8213,0.6758-1.3281,0.8916
		c-0.5078,0.2168-1.0469,0.3252-1.6191,0.3252h-1.1338c-0.5723,0-1.1123-0.1084-1.6191-0.3252
		c-0.5068-0.2158-0.9502-0.5137-1.3281-0.8916s-0.6758-0.8213-0.8926-1.3281c-0.2168-0.5078-0.3242-1.0469-0.3242-1.6191v-6.3916
		c0-0.5713,0.1074-1.1113,0.3242-1.6182c0.2168-0.5078,0.5146-0.9502,0.8926-1.3281c0.3779-0.3789,0.8213-0.6758,1.3281-0.8926
		s1.0469-0.3252,1.6191-0.3252h1.1338c0.5723,0,1.1113,0.1084,1.6191,0.3252c0.5068,0.2168,0.9502,0.5137,1.3281,0.8926
		c0.3779,0.3779,0.6758,0.8203,0.8926,1.3281c0.2158,0.5068,0.3252,1.0469,0.3252,1.6182v6.3916
		C254.6902,264.7115,254.5808,265.2505,254.365,265.7583z M252.988,257.6509c0-0.3408-0.0645-0.6621-0.1934-0.9619
		c-0.1299-0.2988-0.3047-0.5596-0.5264-0.7813c-0.2207-0.2217-0.4814-0.3965-0.7813-0.5254
		c-0.2998-0.1299-0.6201-0.1943-0.9619-0.1943h-1.1338c-0.3418,0-0.6621,0.0645-0.9619,0.1943
		c-0.2998,0.1289-0.5605,0.3037-0.7813,0.5254c-0.2217,0.2217-0.3965,0.4824-0.5264,0.7813
		c-0.1289,0.2998-0.1934,0.6211-0.1934,0.9619v6.585c0,0.3418,0.0645,0.6621,0.1934,0.9619
		c0.1299,0.2998,0.3047,0.5605,0.5264,0.7813c0.2207,0.2217,0.4814,0.3975,0.7813,0.5264s0.6201,0.1934,0.9619,0.1934h1.1338
		c0.3418,0,0.6621-0.0645,0.9619-0.1934s0.5605-0.3047,0.7813-0.5264c0.2217-0.2207,0.3965-0.4814,0.5264-0.7813
		c0.1289-0.2998,0.1934-0.6201,0.1934-0.9619V257.6509z"/>
	<path d="M262.2575,255.479c-0.3418,0-0.6621,0.0645-0.9619,0.1934s-0.5605,0.3047-0.7813,0.5254
		c-0.2217,0.2217-0.3965,0.4824-0.5264,0.7822c-0.1289,0.2998-0.1934,0.6201-0.1934,0.9609v10.0859h-1.7012v-14.167h0.5664
		l0.9277,1.4395c0.3867-0.5264,0.873-0.9434,1.459-1.252c0.5859-0.3096,1.2246-0.4639,1.916-0.4639h0.9961v1.8955H262.2575z"/>
	<path d="M281.1833,268.0269v-10.376c0-0.3408-0.0645-0.6621-0.1943-0.9619c-0.1289-0.2988-0.3037-0.5596-0.5254-0.7813
		c-0.2217-0.2217-0.4824-0.3965-0.7813-0.5254c-0.2998-0.1299-0.6211-0.1943-0.9619-0.1943h-0.8438
		c-0.3418,0-0.6621,0.0645-0.9619,0.1943c-0.2998,0.1289-0.5625,0.3037-0.7881,0.5254c-0.2266,0.2217-0.4033,0.4824-0.5332,0.7813
		c-0.1289,0.2998-0.1934,0.6211-0.1934,0.9619v10.376h-1.6875v-10.376c0-0.3408-0.0645-0.6621-0.1943-0.9619
		c-0.1289-0.2988-0.3066-0.5596-0.5322-0.7813c-0.2266-0.2217-0.4893-0.3965-0.7891-0.5254
		c-0.2998-0.1299-0.6201-0.1943-0.9609-0.1943h-0.8438c-0.3418,0-0.6621,0.0645-0.9619,0.1943
		c-0.2998,0.1289-0.5605,0.3037-0.7813,0.5254c-0.2217,0.2217-0.3965,0.4824-0.5264,0.7813
		c-0.1289,0.2998-0.1934,0.6211-0.1934,0.9619v10.376h-1.7012v-14.167h0.5664l0.9277,1.4395c0.3867-0.5264,0.873-0.9434,1.459-1.252
		c0.5859-0.3096,1.2246-0.4639,1.916-0.4639h0.1387c0.8027,0,1.5264,0.1982,2.1719,0.5947s1.1436,0.9229,1.4941,1.5771
		c0.1748-0.3223,0.3916-0.6182,0.6504-0.8857c0.2578-0.2666,0.5439-0.4951,0.8574-0.6846c0.3135-0.1885,0.6553-0.3359,1.0244-0.4424
		c0.3682-0.1064,0.751-0.1592,1.1475-0.1592h0.1387c0.5723,0,1.1113,0.1084,1.6191,0.3252
		c0.5068,0.2168,0.9492,0.5137,1.3281,0.8926c0.3779,0.3779,0.6748,0.8203,0.8916,1.3281c0.2168,0.5068,0.3252,1.0469,0.3252,1.6182
		v10.2793H281.1833z"/>
	<path d="M295.1843,268.0269l-0.9414-1.4111c-0.3867,0.5078-0.8711,0.915-1.4521,1.2246c-0.5811,0.3086-1.2178,0.4629-1.9092,0.4629
		h-0.4287c-0.5723,0-1.1123-0.1084-1.6191-0.3252c-0.5068-0.2158-0.9502-0.5137-1.3281-0.8916s-0.6758-0.8213-0.8926-1.3281
		c-0.2168-0.5078-0.3242-1.0469-0.3242-1.6191v-0.1387c0-0.5713,0.1074-1.1113,0.3242-1.6182s0.5146-0.9502,0.8926-1.3281
		s0.8213-0.6758,1.3281-0.8926s1.0469-0.3252,1.6191-0.3252h3.5967v-2.1855c0-0.3408-0.0645-0.6621-0.1934-0.9619
		c-0.1299-0.2988-0.3047-0.5596-0.5264-0.7813c-0.2207-0.2217-0.4814-0.3965-0.7813-0.5254
		c-0.2998-0.1299-0.6201-0.1943-0.9619-0.1943h-0.9961c-0.3408,0-0.6611,0.0645-0.9609,0.1943
		c-0.2998,0.1289-0.5605,0.3037-0.7822,0.5254c-0.2207,0.2217-0.3965,0.4824-0.5254,0.7813
		c-0.1289,0.2998-0.1934,0.6211-0.1934,0.9619v0.5117l-1.7021-0.2764v-0.1387c0-0.5713,0.1084-1.1113,0.3252-1.6182
		c0.2168-0.5078,0.5137-0.9502,0.8926-1.3281c0.3779-0.3789,0.8203-0.6758,1.3281-0.8926c0.5068-0.2168,1.0469-0.3252,1.6182-0.3252
		h0.9961c0.5723,0,1.1113,0.1084,1.6191,0.3252c0.5068,0.2168,0.9502,0.5137,1.3281,0.8926
		c0.3779,0.3779,0.6758,0.8203,0.8926,1.3281c0.2158,0.5068,0.3252,1.0469,0.3252,1.6182v10.2793H295.1843z M294.0495,261.1646
		h-3.5967c-0.3418,0-0.6621,0.0645-0.9619,0.1943c-0.2998,0.1289-0.5605,0.3066-0.7813,0.5322
		c-0.2217,0.2266-0.3965,0.4893-0.5264,0.7891c-0.1289,0.2998-0.1934,0.6201-0.1934,0.9609v0.5947
		c0,0.3418,0.0645,0.6621,0.1934,0.9619c0.1299,0.2998,0.3047,0.5605,0.5264,0.7813c0.2207,0.2217,0.4814,0.3975,0.7813,0.5264
		s0.6201,0.1934,0.9619,0.1934h1.1338c0.3418,0,0.6621-0.0645,0.9619-0.1934s0.5605-0.3047,0.7813-0.5264
		c0.2217-0.2207,0.3965-0.4814,0.5264-0.7813c0.1289-0.2998,0.1934-0.6201,0.1934-0.9619V261.1646z"/>
	<path d="M308.2927,265.7583c-0.2168,0.5068-0.5146,0.9502-0.8926,1.3281s-0.8213,0.6758-1.3281,0.8916
		c-0.5078,0.2168-1.0469,0.3252-1.6191,0.3252h-1.1338c-0.5723,0-1.1123-0.1084-1.6191-0.3252
		c-0.5068-0.2158-0.9502-0.5137-1.3281-0.8916s-0.6758-0.8213-0.8926-1.3281c-0.2168-0.5078-0.3242-1.0469-0.3242-1.6191v-6.3916
		c0-0.5713,0.1074-1.1113,0.3242-1.6182c0.2168-0.5078,0.5146-0.9502,0.8926-1.3281c0.3779-0.3789,0.8213-0.6758,1.3281-0.8926
		s1.0469-0.3252,1.6191-0.3252h1.1338c0.5723,0,1.1113,0.1084,1.6191,0.3252c0.5068,0.2168,0.9502,0.5137,1.3281,0.8926
		c0.3779,0.3779,0.6758,0.8203,0.8926,1.3281c0.2158,0.5068,0.3252,1.0469,0.3252,1.6182v0.5674l-1.7021,0.2764v-0.9404
		c0-0.3408-0.0645-0.6621-0.1934-0.9619c-0.1299-0.2988-0.3047-0.5596-0.5264-0.7813c-0.2207-0.2217-0.4814-0.3965-0.7813-0.5254
		c-0.2998-0.1299-0.6201-0.1943-0.9619-0.1943h-1.1338c-0.3418,0-0.6621,0.0645-0.9619,0.1943
		c-0.2998,0.1289-0.5605,0.3037-0.7813,0.5254c-0.2217,0.2217-0.3965,0.4824-0.5264,0.7813
		c-0.1289,0.2998-0.1934,0.6211-0.1934,0.9619v6.585c0,0.3418,0.0645,0.6621,0.1934,0.9619
		c0.1299,0.2998,0.3047,0.5605,0.5264,0.7813c0.2207,0.2217,0.4814,0.3975,0.7813,0.5264s0.6201,0.1934,0.9619,0.1934h1.1338
		c0.3418,0,0.6621-0.0645,0.9619-0.1934s0.5605-0.3047,0.7813-0.5264c0.2217-0.2207,0.3965-0.4814,0.5264-0.7813
		c0.1289-0.2998,0.1934-0.6201,0.1934-0.9619v-0.9404l1.7021,0.2764v0.5674C308.6179,264.7115,308.5085,265.2505,308.2927,265.7583z
		"/>
	<path d="M312.4499,250.4566v-2.2686h1.9785v2.2686H312.4499z M312.5876,268.0269v-14.167h1.7021v14.167H312.5876z"/>
	<path d="M327.3982,265.7583c-0.2168,0.5068-0.5146,0.9502-0.8926,1.3281s-0.8213,0.6758-1.3281,0.8916
		c-0.5078,0.2168-1.0469,0.3252-1.6191,0.3252h-1.1338c-0.5723,0-1.1123-0.1084-1.6191-0.3252
		c-0.5068-0.2158-0.9502-0.5137-1.3281-0.8916s-0.6758-0.8213-0.8926-1.3281c-0.2168-0.5078-0.3242-1.0469-0.3242-1.6191v-6.3916
		c0-0.5713,0.1074-1.1113,0.3242-1.6182c0.2168-0.5078,0.5146-0.9502,0.8926-1.3281c0.3779-0.3789,0.8213-0.6758,1.3281-0.8926
		s1.0469-0.3252,1.6191-0.3252h1.1338c0.5723,0,1.1113,0.1084,1.6191,0.3252c0.5068,0.2168,0.9502,0.5137,1.3281,0.8926
		c0.3779,0.3779,0.6758,0.8203,0.8926,1.3281c0.2158,0.5068,0.3252,1.0469,0.3252,1.6182v6.3916
		C327.7234,264.7115,327.614,265.2505,327.3982,265.7583z M326.0212,257.6509c0-0.3408-0.0645-0.6621-0.1934-0.9619
		c-0.1299-0.2988-0.3047-0.5596-0.5264-0.7813c-0.2207-0.2217-0.4814-0.3965-0.7813-0.5254
		c-0.2998-0.1299-0.6201-0.1943-0.9619-0.1943h-1.1338c-0.3418,0-0.6621,0.0645-0.9619,0.1943
		c-0.2998,0.1289-0.5605,0.3037-0.7813,0.5254c-0.2217,0.2217-0.3965,0.4824-0.5264,0.7813
		c-0.1289,0.2998-0.1934,0.6211-0.1934,0.9619v6.585c0,0.3418,0.0645,0.6621,0.1934,0.9619
		c0.1299,0.2998,0.3047,0.5605,0.5264,0.7813c0.2207,0.2217,0.4814,0.3975,0.7813,0.5264s0.6201,0.1934,0.9619,0.1934h1.1338
		c0.3418,0,0.6621-0.0645,0.9619-0.1934s0.5605-0.3047,0.7813-0.5264c0.2217-0.2207,0.3965-0.4814,0.5264-0.7813
		c0.1289-0.2998,0.1934-0.6201,0.1934-0.9619V257.6509z M322.2859,251.5913h-1.2725l2.2549-3.4033h2.8359L322.2859,251.5913z"/>
	<path d="M338.8874,268.0269v-10.376c0-0.3408-0.0645-0.6621-0.1934-0.9619c-0.1299-0.2988-0.3047-0.5596-0.5264-0.7813
		c-0.2207-0.2217-0.4814-0.3965-0.7813-0.5254c-0.2998-0.1299-0.6201-0.1943-0.9619-0.1943h-1.1338
		c-0.3418,0-0.6621,0.0645-0.9619,0.1943c-0.2998,0.1289-0.5605,0.3037-0.7813,0.5254c-0.2217,0.2217-0.3965,0.4824-0.5264,0.7813
		c-0.1289,0.2998-0.1934,0.6211-0.1934,0.9619v10.376h-1.7012v-14.167h0.5664l0.9277,1.4395c0.3867-0.5264,0.873-0.9434,1.459-1.252
		c0.5859-0.3096,1.2246-0.4639,1.916-0.4639h0.4287c0.5723,0,1.1113,0.1084,1.6191,0.3252
		c0.5068,0.2168,0.9502,0.5137,1.3281,0.8926c0.3779,0.3779,0.6758,0.8203,0.8926,1.3281c0.2158,0.5068,0.3252,1.0469,0.3252,1.6182
		v10.2793H338.8874z"/>
</g>
<g>
	<path style="fill:#FFFFFF;" d="M261.7136,369.5982c-0.2539,0.5908-0.6016,1.1064-1.0439,1.5498
		c-0.4434,0.4424-0.9619,0.791-1.5566,1.0439c-0.5947,0.2539-1.2295,0.3809-1.9023,0.3809h-6.2812v-19.8389h6.2812
		c0.6729,0,1.3076,0.127,1.9023,0.3799c0.5947,0.2539,1.1133,0.6025,1.5566,1.0449c0.4424,0.4424,0.79,0.9619,1.0439,1.5566
		s0.3809,1.2285,0.3809,1.9023v10.085C262.0945,368.3765,261.9675,369.0083,261.7136,369.5982z M260.3093,357.6177
		c0-0.4434-0.083-0.8555-0.249-1.2383s-0.3936-0.7197-0.6846-1.0098c-0.29-0.291-0.627-0.5195-1.0098-0.6855
		s-0.7959-0.249-1.2383-0.249h-4.4131v16.4355h4.4131c0.4424,0,0.8555-0.083,1.2383-0.249s0.7197-0.3916,1.0098-0.6777
		c0.291-0.2852,0.5186-0.6201,0.6846-1.0029s0.249-0.7949,0.249-1.2383V357.6177z"/>
	<path style="fill:#FFFFFF;" d="M274.6706,372.5728l-0.9414-1.4111c-0.3867,0.5078-0.8711,0.915-1.4521,1.2246
		c-0.5811,0.3086-1.2178,0.4629-1.9092,0.4629h-0.4287c-0.5723,0-1.1123-0.1084-1.6191-0.3252
		c-0.5068-0.2158-0.9502-0.5137-1.3281-0.8916s-0.6758-0.8213-0.8926-1.3281c-0.2168-0.5078-0.3242-1.0469-0.3242-1.6191v-0.1387
		c0-0.5713,0.1074-1.1113,0.3242-1.6182s0.5146-0.9502,0.8926-1.3281s0.8213-0.6758,1.3281-0.8926s1.0469-0.3252,1.6191-0.3252
		h3.5967v-2.1855c0-0.3408-0.0645-0.6621-0.1934-0.9619c-0.1299-0.2988-0.3047-0.5596-0.5264-0.7813
		c-0.2207-0.2217-0.4814-0.3965-0.7813-0.5254c-0.2998-0.1299-0.6201-0.1943-0.9619-0.1943h-0.9961
		c-0.3408,0-0.6611,0.0645-0.9609,0.1943c-0.2998,0.1289-0.5605,0.3037-0.7822,0.5254c-0.2207,0.2217-0.3965,0.4824-0.5254,0.7813
		c-0.1289,0.2998-0.1934,0.6211-0.1934,0.9619v0.5117l-1.7021-0.2764v-0.1387c0-0.5713,0.1084-1.1113,0.3252-1.6182
		c0.2168-0.5078,0.5137-0.9502,0.8926-1.3281c0.3779-0.3789,0.8203-0.6758,1.3281-0.8926c0.5068-0.2168,1.0469-0.3252,1.6182-0.3252
		h0.9961c0.5723,0,1.1113,0.1084,1.6191,0.3252c0.5068,0.2168,0.9502,0.5137,1.3281,0.8926
		c0.3779,0.3779,0.6758,0.8203,0.8926,1.3281c0.2158,0.5068,0.3252,1.0469,0.3252,1.6182v10.2793H274.6706z M273.5359,365.7105
		h-3.5967c-0.3418,0-0.6621,0.0645-0.9619,0.1943c-0.2998,0.1289-0.5605,0.3066-0.7813,0.5322
		c-0.2217,0.2266-0.3965,0.4893-0.5264,0.7891c-0.1289,0.2998-0.1934,0.6201-0.1934,0.9609v0.5947
		c0,0.3418,0.0645,0.6621,0.1934,0.9619c0.1299,0.2998,0.3047,0.5605,0.5264,0.7813c0.2207,0.2217,0.4814,0.3975,0.7813,0.5264
		s0.6201,0.1934,0.9619,0.1934h1.1338c0.3418,0,0.6621-0.0645,0.9619-0.1934s0.5605-0.3047,0.7813-0.5264
		c0.2217-0.2207,0.3965-0.4814,0.5264-0.7813c0.1289-0.2998,0.1934-0.6201,0.1934-0.9619V365.7105z"/>
	<path style="fill:#FFFFFF;" d="M283.8015,372.5728c-0.5166,0-1.0029-0.0967-1.46-0.291c-0.4561-0.1934-0.8535-0.4609-1.1895-0.8018
		c-0.3369-0.3408-0.6045-0.7383-0.8027-1.1904c-0.1982-0.4512-0.2969-0.9355-0.2969-1.4521v-8.8125h-2.5459v-1.6191h2.5459v-3.4033
		l1.7012-0.2764v3.6797h3.5967v1.6191h-3.5967v8.8955c0,0.2861,0.0527,0.5508,0.1592,0.7959
		c0.1055,0.2441,0.251,0.459,0.4355,0.6426c0.1846,0.1846,0.4014,0.3301,0.6504,0.4365c0.249,0.1055,0.5166,0.1582,0.8027,0.1582
		h1.5488v1.6191H283.8015z"/>
	<path style="fill:#FFFFFF;" d="M297.615,370.3042c-0.2168,0.5068-0.5146,0.9502-0.8926,1.3281s-0.8213,0.6758-1.3281,0.8916
		c-0.5078,0.2168-1.0469,0.3252-1.6191,0.3252h-1.1338c-0.5723,0-1.1123-0.1084-1.6191-0.3252
		c-0.5068-0.2158-0.9502-0.5137-1.3281-0.8916s-0.6758-0.8213-0.8926-1.3281c-0.2168-0.5078-0.3242-1.0469-0.3242-1.6191v-6.3916
		c0-0.5713,0.1074-1.1113,0.3242-1.6182c0.2168-0.5078,0.5146-0.9502,0.8926-1.3281c0.3779-0.3789,0.8213-0.6758,1.3281-0.8926
		s1.0469-0.3252,1.6191-0.3252h1.1338c0.5723,0,1.1113,0.1084,1.6191,0.3252c0.5068,0.2168,0.9502,0.5137,1.3281,0.8926
		c0.3779,0.3779,0.6758,0.8203,0.8926,1.3281c0.2158,0.5068,0.3252,1.0469,0.3252,1.6182v6.3916
		C297.9402,369.2574,297.8308,369.7964,297.615,370.3042z M296.238,362.1968c0-0.3408-0.0645-0.6621-0.1934-0.9619
		c-0.1299-0.2988-0.3047-0.5596-0.5264-0.7813c-0.2207-0.2217-0.4814-0.3965-0.7813-0.5254
		c-0.2998-0.1299-0.6201-0.1943-0.9619-0.1943h-1.1338c-0.3418,0-0.6621,0.0645-0.9619,0.1943
		c-0.2998,0.1289-0.5605,0.3037-0.7813,0.5254c-0.2217,0.2217-0.3965,0.4824-0.5264,0.7813
		c-0.1289,0.2998-0.1934,0.6211-0.1934,0.9619v6.585c0,0.3418,0.0645,0.6621,0.1934,0.9619
		c0.1299,0.2998,0.3047,0.5605,0.5264,0.7813c0.2207,0.2217,0.4814,0.3975,0.7813,0.5264s0.6201,0.1934,0.9619,0.1934h1.1338
		c0.3418,0,0.6621-0.0645,0.9619-0.1934s0.5605-0.3047,0.7813-0.5264c0.2217-0.2207,0.3965-0.4814,0.5264-0.7813
		c0.1289-0.2998,0.1934-0.6201,0.1934-0.9619V362.1968z"/>
</g>
<polygon style="fill:#CED3D6;" points="486.862,118.7059 510.8098,118.7059 510.8098,366.4735 486.862,327.8369 "/>
<polygon style="fill:#CED3D6;" points="464.6316,123.29 498.8359,68.4795 533.0403,123.29 "/>
<polygon style="fill:#CED3D6;" points="464.6316,123.29 498.8359,68.4795 533.0403,123.29 "/>
<polygon style="fill:#2A4690;" points="490.2388,118.7059 507.433,118.7059 507.433,352.1103 490.2388,325.0125 "/>
<polygon style="fill:#2A4690;" points="470.6208,120.5859 498.8359,74.5969 527.051,120.5859 "/>
</svg>
