<?xml version="1.0" encoding="utf-8"?>
<!-- Generator: Adobe Illustrator 21.0.2, SVG Export Plug-In . SVG Version: 6.00 Build 0)  -->
<svg version="1.1" id="Capa_1" xmlns="http://www.w3.org/2000/svg" xmlns:xlink="http://www.w3.org/1999/xlink" x="0px" y="0px"
	 viewBox="0 0 314.6667 226.8569" style="enable-background:new 0 0 314.6667 226.8569;" xml:space="preserve">
<polygon style="fill:#CED3D6;" points="0,35.0216 38.6667,0 178.6667,8.9957 178.6667,35.0216 230,62.8965 273.7153,45.6311 
	314.6667,131.4274 233.3333,226.8569 162.6231,141.0785 146,173.2114 24.6667,134.5555 "/>
<g>
	<g id="Document_4_">
		<path style="fill:#3F3F3F;" d="M60.5341,45.1844c0,0,3.3142-17.1684,4.2182-17.1684c0.9026,0,4.2155,0.5015,18.0743,4.0147
			c13.8587,3.5164,25.6081,6.5282,25.6081,6.5282s5.1212,1.5044,6.3263-1.9571c1.2049-3.4647,0.6031-3.4647,7.5311-1.6594
			c6.9294,1.8082,17.4739,4.82,17.4739,4.82s3.3143,1.2067,3.3143,3.6167c0,2.41,0,4.2153,0,4.2153l10.8438,2.7141
			c0,0,4.2185,0.9026,2.1077,8.1329c-2.1077,7.2302-25.9063,90.3797-25.9063,90.3797L60.5341,45.1844z"/>
		<path style="fill:#F1C40F;" d="M58.7272,43.3791c0,0,3.3127-17.1714,4.2169-17.1714s4.2185,0.5015,18.0756,4.0147
			c13.8572,3.5165,25.6083,6.5282,25.6083,6.5282s5.1195,1.5074,6.3244-1.9573c1.2067-3.4647,0.6034-3.4647,7.5327-1.6562
			c6.9278,1.8053,17.4739,4.817,17.4739,4.817s3.3127,1.2065,3.3127,3.6167c0,2.41,0,4.2182,0,4.2182l10.844,2.7112
			c0,0,4.2183,0.9026,2.1107,8.1329c-2.1107,7.2303-25.9076,90.3796-25.9076,90.3796L58.7272,43.3791z"/>
		<path style="fill:#4C4C4C;" d="M131.905,142.603l-17.144-81.1498c0,0,0.904-3.6135-4.8218-5.7227
			c-5.7227-2.1093-9.0356-2.4102-9.0356-2.4102s1.0061-6.0235-5.2212-7.832c-6.2273-1.8082-24.6038-7.5341-24.6038-7.5341
			l-2.7125,1.8083v2.1093L32.5157,30.7269l-3.5148,1.3038l20.9887,76.7216l80.1359,40.0689L131.905,142.603z"/>
		<path style="fill:#E67E22;" d="M130.1255,148.8212l-18.0756-85.5595c0,0,0.9026-3.6138-4.82-5.7229
			c-5.7245-2.1091-9.0387-2.41-9.0387-2.41s1.0075-6.0267-5.2212-7.832c-6.2273-1.8085-24.6038-7.5343-24.6038-7.5343L65.655,43.68
			L29.8032,32.5321c0,0-1.8069-3.0118,0,5.7258c1.8082,8.7347,17.4739,72.3025,17.4739,72.3025L130.1255,148.8212z"/>
	</g>
	<g>
		<g>
			<path d="M168.6585,97.7779V86.3248h1.5156v11.4531H168.6585z"/>
			<path d="M172.6663,97.7779V89.481h1.2656v1.1797c0.6094-0.9111,1.4893-1.3672,2.6406-1.3672c0.5,0,0.96,0.0898,1.3789,0.2695
				s0.7334,0.415,0.9414,0.707s0.3545,0.6377,0.4375,1.0391c0.0518,0.2607,0.0781,0.7158,0.0781,1.3672v5.1016h-1.4063V92.731
				c0-0.5732-0.0547-1.001-0.1641-1.2852s-0.3037-0.5107-0.582-0.6797s-0.6055-0.2539-0.9805-0.2539
				c-0.5986,0-1.1162,0.1904-1.5508,0.5703s-0.6523,1.1016-0.6523,2.1641v4.5313H172.6663z"/>
			<path d="M181.9007,97.7779v-7.2031h-1.2422V89.481h1.2422v-0.8828c0-0.5576,0.0498-0.9717,0.1484-1.2422
				c0.1357-0.3643,0.374-0.6602,0.7148-0.8867s0.8193-0.3398,1.4336-0.3398c0.3955,0,0.833,0.0469,1.3125,0.1406l-0.2109,1.2266
				c-0.292-0.0518-0.5674-0.0781-0.8281-0.0781c-0.4268,0-0.7295,0.0908-0.9063,0.2734s-0.2656,0.5234-0.2656,1.0234v0.7656h1.6172
				v1.0938h-1.6172v7.2031H181.9007z"/>
			<path d="M185.4866,93.6295c0-1.5361,0.4268-2.6748,1.2813-3.4141c0.7139-0.6143,1.583-0.9219,2.6094-0.9219
				c1.1406,0,2.0732,0.374,2.7969,1.1211s1.0859,1.7803,1.0859,3.0977c0,1.0674-0.1602,1.9072-0.4805,2.5195
				s-0.7861,1.0869-1.3984,1.4258s-1.2803,0.5078-2.0039,0.5078c-1.1611,0-2.1006-0.3721-2.8164-1.1172
				S185.4866,95.0308,185.4866,93.6295z M186.932,93.6295c0,1.0625,0.2314,1.8584,0.6953,2.3867s1.0469,0.793,1.75,0.793
				c0.6982,0,1.2783-0.2656,1.7422-0.7969s0.6953-1.3408,0.6953-2.4297c0-1.0264-0.2334-1.8037-0.6992-2.332
				s-1.0459-0.793-1.7383-0.793c-0.7031,0-1.2861,0.2627-1.75,0.7891S186.932,92.567,186.932,93.6295z"/>
			<path d="M194.8929,97.7779V89.481h1.2656v1.2578c0.3232-0.5889,0.6211-0.9766,0.8945-1.1641s0.5742-0.2813,0.9023-0.2813
				c0.4736,0,0.9561,0.1514,1.4453,0.4531l-0.4844,1.3047c-0.3438-0.2031-0.6875-0.3047-1.0313-0.3047
				c-0.3076,0-0.583,0.0928-0.8281,0.2773s-0.4189,0.4414-0.5234,0.7695c-0.1563,0.5-0.2344,1.0469-0.2344,1.6406v4.3438H194.8929z"
				/>
			<path d="M200.2366,97.7779V89.481h1.2578v1.1641c0.2607-0.4063,0.6064-0.7334,1.0391-0.9805s0.9248-0.3711,1.4766-0.3711
				c0.6143,0,1.1182,0.1279,1.5117,0.3828s0.6709,0.6123,0.832,1.0703c0.6563-0.9688,1.5107-1.4531,2.5625-1.4531
				c0.8232,0,1.4561,0.2275,1.8984,0.6836s0.6641,1.1572,0.6641,2.1055v5.6953h-1.3984v-5.2266
				c0-0.5625-0.0459-0.9678-0.1367-1.2148s-0.2568-0.4463-0.4961-0.5977s-0.5205-0.2266-0.8438-0.2266
				c-0.583,0-1.0674,0.1943-1.4531,0.582s-0.5781,1.0088-0.5781,1.8633v4.8203h-1.4063v-5.3906c0-0.625-0.1143-1.0938-0.3438-1.4063
				s-0.6045-0.4688-1.125-0.4688c-0.3955,0-0.7617,0.1045-1.0977,0.3125s-0.5791,0.5127-0.7305,0.9141s-0.2266,0.9795-0.2266,1.7344
				v4.3047H200.2366z"/>
			<path d="M218.9788,96.7545c-0.5205,0.4424-1.0225,0.7549-1.5039,0.9375s-0.999,0.2734-1.5508,0.2734
				c-0.9111,0-1.6123-0.2227-2.1016-0.668s-0.7344-1.0146-0.7344-1.707c0-0.4063,0.0928-0.7773,0.2773-1.1133
				s0.4268-0.6055,0.7266-0.8086s0.6367-0.3564,1.0117-0.4609c0.2764-0.0732,0.6924-0.1436,1.25-0.2109
				c1.1357-0.1357,1.9717-0.2969,2.5078-0.4844c0.0049-0.1924,0.0078-0.3154,0.0078-0.3672c0-0.5732-0.1328-0.9766-0.3984-1.2109
				c-0.3594-0.3174-0.8936-0.4766-1.6016-0.4766c-0.6611,0-1.1494,0.1162-1.4648,0.3477s-0.5479,0.6416-0.6992,1.2305l-1.375-0.1875
				c0.125-0.5889,0.3311-1.0635,0.6172-1.4258s0.7002-0.6406,1.2422-0.8359s1.1689-0.293,1.8828-0.293
				c0.708,0,1.2842,0.083,1.7266,0.25s0.7686,0.376,0.9766,0.6289s0.3545,0.5713,0.4375,0.957
				c0.0469,0.2393,0.0703,0.6719,0.0703,1.2969v1.875c0,1.3076,0.0303,2.1338,0.0898,2.4805s0.1787,0.6787,0.3555,0.9961h-1.4688
				C219.1146,97.4859,219.0208,97.1451,218.9788,96.7545z M218.8616,93.6139c-0.5107,0.208-1.2764,0.3857-2.2969,0.5313
				c-0.5781,0.083-0.9873,0.1768-1.2266,0.2813s-0.4248,0.2568-0.5547,0.457s-0.1953,0.4229-0.1953,0.668
				c0,0.375,0.1416,0.6875,0.4258,0.9375s0.6992,0.375,1.2461,0.375c0.542,0,1.0234-0.1182,1.4453-0.3555
				s0.7314-0.5615,0.9297-0.9727c0.1514-0.3174,0.2266-0.7861,0.2266-1.4063V93.6139z"/>
			<path d="M227.8773,94.7389l1.3828,0.1797c-0.1514,0.9531-0.5381,1.6992-1.1602,2.2383s-1.3867,0.8086-2.293,0.8086
				c-1.1357,0-2.0479-0.3711-2.7383-1.1133s-1.0352-1.8057-1.0352-3.1914c0-0.8955,0.1484-1.6797,0.4453-2.3516
				s0.749-1.1758,1.3555-1.5117s1.2666-0.5039,1.9805-0.5039c0.9014,0,1.6377,0.2275,2.2109,0.6836s0.9404,1.1025,1.1016,1.9414
				l-1.3672,0.2109c-0.1299-0.5576-0.3604-0.9766-0.6914-1.2578s-0.7305-0.4219-1.1992-0.4219c-0.708,0-1.2842,0.2539-1.7266,0.7617
				s-0.6641,1.3115-0.6641,2.4102c0,1.1143,0.2139,1.9248,0.6406,2.4297s0.9844,0.7578,1.6719,0.7578
				c0.5518,0,1.0127-0.1689,1.3828-0.5078S227.7786,95.442,227.8773,94.7389z"/>
			<path d="M230.471,87.942v-1.6172h1.4063v1.6172H230.471z M230.471,97.7779V89.481h1.4063v8.2969H230.471z"/>
			<path d="M233.4945,93.6295c0-1.5361,0.4268-2.6748,1.2813-3.4141c0.7139-0.6143,1.583-0.9219,2.6094-0.9219
				c1.1406,0,2.0732,0.374,2.7969,1.1211s1.0859,1.7803,1.0859,3.0977c0,1.0674-0.1602,1.9072-0.4805,2.5195
				s-0.7861,1.0869-1.3984,1.4258s-1.2803,0.5078-2.0039,0.5078c-1.1611,0-2.1006-0.3721-2.8164-1.1172
				S233.4945,95.0308,233.4945,93.6295z M234.9398,93.6295c0,1.0625,0.2314,1.8584,0.6953,2.3867s1.0469,0.793,1.75,0.793
				c0.6982,0,1.2783-0.2656,1.7422-0.7969s0.6953-1.3408,0.6953-2.4297c0-1.0264-0.2334-1.8037-0.6992-2.332
				s-1.0459-0.793-1.7383-0.793c-0.7031,0-1.2861,0.2627-1.75,0.7891S234.9398,92.567,234.9398,93.6295z M236.6038,88.4498
				l1.0391-2.1875h1.8438l-1.7188,2.1875H236.6038z"/>
			<path d="M242.9163,97.7779V89.481h1.2656v1.1797c0.6094-0.9111,1.4893-1.3672,2.6406-1.3672c0.5,0,0.96,0.0898,1.3789,0.2695
				s0.7334,0.415,0.9414,0.707s0.3545,0.6377,0.4375,1.0391c0.0518,0.2607,0.0781,0.7158,0.0781,1.3672v5.1016h-1.4063V92.731
				c0-0.5732-0.0547-1.001-0.1641-1.2852s-0.3037-0.5107-0.582-0.6797s-0.6055-0.2539-0.9805-0.2539
				c-0.5986,0-1.1162,0.1904-1.5508,0.5703s-0.6523,1.1016-0.6523,2.1641v4.5313H242.9163z"/>
		</g>
	</g>
	<g>
		<g>
			<path d="M176.5726,114.628l1.5156,0.3828c-0.3174,1.2451-0.8896,2.1943-1.7148,2.8477s-1.835,0.9805-3.0273,0.9805
				c-1.2344,0-2.2383-0.251-3.0117-0.7539s-1.3623-1.2305-1.7656-2.1836s-0.6055-1.9766-0.6055-3.0703
				c0-1.1924,0.2275-2.2334,0.6836-3.1211s1.1045-1.5625,1.9453-2.0234s1.7666-0.6914,2.7773-0.6914
				c1.1455,0,2.1094,0.292,2.8906,0.875s1.3252,1.4033,1.6328,2.4609l-1.4922,0.3516c-0.2656-0.833-0.6514-1.4404-1.1563-1.8203
				s-1.1406-0.5703-1.9063-0.5703c-0.8799,0-1.6162,0.2109-2.207,0.6328s-1.0068,0.9883-1.2461,1.6992s-0.3594,1.4443-0.3594,2.1992
				c0,0.9736,0.1416,1.8242,0.4258,2.5508s0.7256,1.2695,1.3242,1.6289s1.2471,0.5391,1.9453,0.5391
				c0.8486,0,1.5674-0.2451,2.1563-0.7344S176.3646,115.5919,176.5726,114.628z"/>
			<path d="M179.2523,114.4952c0-1.5361,0.4268-2.6748,1.2813-3.4141c0.7139-0.6143,1.583-0.9219,2.6094-0.9219
				c1.1406,0,2.0732,0.374,2.7969,1.1211s1.0859,1.7803,1.0859,3.0977c0,1.0674-0.1602,1.9072-0.4805,2.5195
				s-0.7861,1.0869-1.3984,1.4258s-1.2803,0.5078-2.0039,0.5078c-1.1611,0-2.1006-0.3721-2.8164-1.1172
				S179.2523,115.8966,179.2523,114.4952z M180.6976,114.4952c0,1.0625,0.2314,1.8584,0.6953,2.3867s1.0469,0.793,1.75,0.793
				c0.6982,0,1.2783-0.2656,1.7422-0.7969s0.6953-1.3408,0.6953-2.4297c0-1.0264-0.2334-1.8037-0.6992-2.332
				s-1.0459-0.793-1.7383-0.793c-0.7031,0-1.2861,0.2627-1.75,0.7891S180.6976,113.4327,180.6976,114.4952z"/>
			<path d="M188.6741,118.6436v-8.2969h1.2656v1.1797c0.6094-0.9111,1.4893-1.3672,2.6406-1.3672c0.5,0,0.96,0.0898,1.3789,0.2695
				s0.7334,0.415,0.9414,0.707s0.3545,0.6377,0.4375,1.0391c0.0518,0.2607,0.0781,0.7158,0.0781,1.3672v5.1016h-1.4063v-5.0469
				c0-0.5732-0.0547-1.001-0.1641-1.2852s-0.3037-0.5107-0.582-0.6797s-0.6055-0.2539-0.9805-0.2539
				c-0.5986,0-1.1162,0.1904-1.5508,0.5703s-0.6523,1.1016-0.6523,2.1641v4.5313H188.6741z"/>
			<path d="M197.0491,114.4952c0-1.5361,0.4268-2.6748,1.2813-3.4141c0.7139-0.6143,1.583-0.9219,2.6094-0.9219
				c1.1406,0,2.0732,0.374,2.7969,1.1211s1.0859,1.7803,1.0859,3.0977c0,1.0674-0.1602,1.9072-0.4805,2.5195
				s-0.7861,1.0869-1.3984,1.4258s-1.2803,0.5078-2.0039,0.5078c-1.1611,0-2.1006-0.3721-2.8164-1.1172
				S197.0491,115.8966,197.0491,114.4952z M198.4945,114.4952c0,1.0625,0.2314,1.8584,0.6953,2.3867s1.0469,0.793,1.75,0.793
				c0.6982,0,1.2783-0.2656,1.7422-0.7969s0.6953-1.3408,0.6953-2.4297c0-1.0264-0.2334-1.8037-0.6992-2.332
				s-1.0459-0.793-1.7383-0.793c-0.7031,0-1.2861,0.2627-1.75,0.7891S198.4945,113.4327,198.4945,114.4952z"/>
			<path d="M211.8851,115.6046l1.3828,0.1797c-0.1514,0.9531-0.5381,1.6992-1.1602,2.2383s-1.3867,0.8086-2.293,0.8086
				c-1.1357,0-2.0479-0.3711-2.7383-1.1133s-1.0352-1.8057-1.0352-3.1914c0-0.8955,0.1484-1.6797,0.4453-2.3516
				s0.749-1.1758,1.3555-1.5117s1.2666-0.5039,1.9805-0.5039c0.9014,0,1.6377,0.2275,2.2109,0.6836s0.9404,1.1025,1.1016,1.9414
				l-1.3672,0.2109c-0.1299-0.5576-0.3604-0.9766-0.6914-1.2578s-0.7305-0.4219-1.1992-0.4219c-0.708,0-1.2842,0.2539-1.7266,0.7617
				s-0.6641,1.3115-0.6641,2.4102c0,1.1143,0.2139,1.9248,0.6406,2.4297s0.9844,0.7578,1.6719,0.7578
				c0.5518,0,1.0127-0.1689,1.3828-0.5078S211.7865,116.3077,211.8851,115.6046z"/>
			<path d="M214.4788,108.8077v-1.6172h1.4063v1.6172H214.4788z M214.4788,118.6436v-8.2969h1.4063v8.2969H214.4788z"/>
			<path d="M218.0257,118.6436v-8.2969h1.2578v1.1641c0.2607-0.4063,0.6064-0.7334,1.0391-0.9805s0.9248-0.3711,1.4766-0.3711
				c0.6143,0,1.1182,0.1279,1.5117,0.3828s0.6709,0.6123,0.832,1.0703c0.6563-0.9688,1.5107-1.4531,2.5625-1.4531
				c0.8232,0,1.4561,0.2275,1.8984,0.6836s0.6641,1.1572,0.6641,2.1055v5.6953h-1.3984v-5.2266
				c0-0.5625-0.0459-0.9678-0.1367-1.2148s-0.2568-0.4463-0.4961-0.5977s-0.5205-0.2266-0.8438-0.2266
				c-0.583,0-1.0674,0.1943-1.4531,0.582s-0.5781,1.0088-0.5781,1.8633v4.8203h-1.4063v-5.3906c0-0.625-0.1143-1.0938-0.3438-1.4063
				s-0.6045-0.4688-1.125-0.4688c-0.3955,0-0.7617,0.1045-1.0977,0.3125s-0.5791,0.5127-0.7305,0.9141s-0.2266,0.9795-0.2266,1.7344
				v4.3047H218.0257z"/>
			<path d="M231.3616,108.8077v-1.6172h1.4063v1.6172H231.3616z M231.3616,118.6436v-8.2969h1.4063v8.2969H231.3616z"/>
			<path d="M240.5882,115.9718l1.4531,0.1797c-0.2295,0.8486-0.6533,1.5078-1.2734,1.9766s-1.4111,0.7031-2.375,0.7031
				c-1.2139,0-2.1758-0.374-2.8867-1.1211s-1.0664-1.7959-1.0664-3.1445c0-1.3955,0.3594-2.4795,1.0781-3.25
				s1.6514-1.1563,2.7969-1.1563c1.1094,0,2.0156,0.3779,2.7188,1.1328s1.0547,1.8174,1.0547,3.1875
				c0,0.083-0.0029,0.208-0.0078,0.375h-6.1875c0.0518,0.9111,0.3096,1.6094,0.7734,2.0938s1.042,0.7266,1.7344,0.7266
				c0.5156,0,0.9561-0.1357,1.3203-0.4063S240.3743,116.5655,240.5882,115.9718z M235.971,113.6983h4.6328
				c-0.0625-0.6982-0.2393-1.2217-0.5313-1.5703c-0.4482-0.542-1.0283-0.8125-1.7422-0.8125c-0.6455,0-1.1885,0.2158-1.6289,0.6484
				S236.0179,112.9747,235.971,113.6983z"/>
			<path d="M243.807,118.6436v-8.2969h1.2656v1.1797c0.6094-0.9111,1.4893-1.3672,2.6406-1.3672c0.5,0,0.96,0.0898,1.3789,0.2695
				s0.7334,0.415,0.9414,0.707s0.3545,0.6377,0.4375,1.0391c0.0518,0.2607,0.0781,0.7158,0.0781,1.3672v5.1016h-1.4063v-5.0469
				c0-0.5732-0.0547-1.001-0.1641-1.2852s-0.3037-0.5107-0.582-0.6797s-0.6055-0.2539-0.9805-0.2539
				c-0.5986,0-1.1162,0.1904-1.5508,0.5703s-0.6523,1.1016-0.6523,2.1641v4.5313H243.807z"/>
			<path d="M255.7757,117.3858l0.2031,1.2422c-0.3955,0.083-0.75,0.125-1.0625,0.125c-0.5107,0-0.9063-0.0811-1.1875-0.2422
				s-0.4795-0.374-0.5938-0.6367s-0.1719-0.8164-0.1719-1.6602v-4.7734h-1.0313v-1.0938h1.0313v-2.0547l1.3984-0.8438v2.8984h1.4141
				v1.0938h-1.4141v4.8516c0,0.4014,0.0244,0.6592,0.0742,0.7734s0.1299,0.2061,0.2422,0.2734s0.2725,0.1016,0.4805,0.1016
				C255.3148,117.4405,255.5208,117.422,255.7757,117.3858z"/>
			<path d="M256.6273,114.4952c0-1.5361,0.4268-2.6748,1.2813-3.4141c0.7139-0.6143,1.583-0.9219,2.6094-0.9219
				c1.1406,0,2.0732,0.374,2.7969,1.1211s1.0859,1.7803,1.0859,3.0977c0,1.0674-0.1602,1.9072-0.4805,2.5195
				s-0.7861,1.0869-1.3984,1.4258s-1.2803,0.5078-2.0039,0.5078c-1.1611,0-2.1006-0.3721-2.8164-1.1172
				S256.6273,115.8966,256.6273,114.4952z M258.0726,114.4952c0,1.0625,0.2314,1.8584,0.6953,2.3867s1.0469,0.793,1.75,0.793
				c0.6982,0,1.2783-0.2656,1.7422-0.7969s0.6953-1.3408,0.6953-2.4297c0-1.0264-0.2334-1.8037-0.6992-2.332
				s-1.0459-0.793-1.7383-0.793c-0.7031,0-1.2861,0.2627-1.75,0.7891S258.0726,113.4327,258.0726,114.4952z"/>
		</g>
	</g>
	<g>
		<g>
			<path d="M168.4007,76.8736V65.4205h3.9453c0.8906,0,1.5703,0.0547,2.0391,0.1641c0.6563,0.1514,1.2158,0.4248,1.6797,0.8203
				c0.6045,0.5107,1.0557,1.1631,1.3555,1.957s0.4492,1.7021,0.4492,2.7227c0,0.8701-0.1016,1.6406-0.3047,2.3125
				s-0.4639,1.2275-0.7813,1.668s-0.665,0.7861-1.043,1.0391s-0.833,0.4443-1.3672,0.5742s-1.1475,0.1953-1.8398,0.1953H168.4007z
				 M169.9163,75.5221h2.4453c0.7549,0,1.3477-0.0703,1.7773-0.2109s0.7725-0.3389,1.0273-0.5938
				c0.3594-0.3594,0.6396-0.8428,0.8398-1.4492s0.3008-1.3428,0.3008-2.207c0-1.1982-0.1963-2.1182-0.5898-2.7617
				s-0.8711-1.0742-1.4336-1.293c-0.4063-0.1563-1.0596-0.2344-1.9609-0.2344h-2.4063V75.5221z"/>
			<path d="M185.1898,75.8502c-0.5205,0.4424-1.0225,0.7549-1.5039,0.9375s-0.999,0.2734-1.5508,0.2734
				c-0.9111,0-1.6123-0.2227-2.1016-0.668s-0.7344-1.0146-0.7344-1.707c0-0.4063,0.0928-0.7773,0.2773-1.1133
				s0.4268-0.6055,0.7266-0.8086s0.6367-0.3564,1.0117-0.4609c0.2764-0.0732,0.6924-0.1436,1.25-0.2109
				c1.1357-0.1357,1.9717-0.2969,2.5078-0.4844c0.0049-0.1924,0.0078-0.3154,0.0078-0.3672c0-0.5732-0.1328-0.9766-0.3984-1.2109
				c-0.3594-0.3174-0.8936-0.4766-1.6016-0.4766c-0.6611,0-1.1494,0.1162-1.4648,0.3477s-0.5479,0.6416-0.6992,1.2305l-1.375-0.1875
				c0.125-0.5889,0.3311-1.0635,0.6172-1.4258s0.7002-0.6406,1.2422-0.8359s1.1689-0.293,1.8828-0.293
				c0.708,0,1.2842,0.083,1.7266,0.25s0.7686,0.376,0.9766,0.6289s0.3545,0.5713,0.4375,0.957
				c0.0469,0.2393,0.0703,0.6719,0.0703,1.2969v1.875c0,1.3076,0.0303,2.1338,0.0898,2.4805s0.1787,0.6787,0.3555,0.9961h-1.4688
				C185.3255,76.5816,185.2318,76.2408,185.1898,75.8502z M185.0726,72.7096c-0.5107,0.208-1.2764,0.3857-2.2969,0.5313
				c-0.5781,0.083-0.9873,0.1768-1.2266,0.2813s-0.4248,0.2568-0.5547,0.457s-0.1953,0.4229-0.1953,0.668
				c0,0.375,0.1416,0.6875,0.4258,0.9375s0.6992,0.375,1.2461,0.375c0.542,0,1.0234-0.1182,1.4453-0.3555
				s0.7314-0.5615,0.9297-0.9727c0.1514-0.3174,0.2266-0.7861,0.2266-1.4063V72.7096z"/>
			<path d="M191.7445,75.6158l0.2031,1.2422c-0.3955,0.083-0.75,0.125-1.0625,0.125c-0.5107,0-0.9063-0.0811-1.1875-0.2422
				s-0.4795-0.374-0.5938-0.6367s-0.1719-0.8164-0.1719-1.6602v-4.7734h-1.0313v-1.0938h1.0313v-2.0547l1.3984-0.8438v2.8984h1.4141
				v1.0938h-1.4141v4.8516c0,0.4014,0.0244,0.6592,0.0742,0.7734s0.1299,0.2061,0.2422,0.2734s0.2725,0.1016,0.4805,0.1016
				C191.2835,75.6705,191.4896,75.6519,191.7445,75.6158z"/>
			<path d="M192.596,72.7252c0-1.5361,0.4268-2.6748,1.2813-3.4141c0.7139-0.6143,1.583-0.9219,2.6094-0.9219
				c1.1406,0,2.0732,0.374,2.7969,1.1211s1.0859,1.7803,1.0859,3.0977c0,1.0674-0.1602,1.9072-0.4805,2.5195
				s-0.7861,1.0869-1.3984,1.4258s-1.2803,0.5078-2.0039,0.5078c-1.1611,0-2.1006-0.3721-2.8164-1.1172
				S192.596,74.1265,192.596,72.7252z M194.0413,72.7252c0,1.0625,0.2314,1.8584,0.6953,2.3867s1.0469,0.793,1.75,0.793
				c0.6982,0,1.2783-0.2656,1.7422-0.7969s0.6953-1.3408,0.6953-2.4297c0-1.0264-0.2334-1.8037-0.6992-2.332
				s-1.0459-0.793-1.7383-0.793c-0.7031,0-1.2861,0.2627-1.75,0.7891S194.0413,71.6627,194.0413,72.7252z"/>
		</g>
	</g>
</g>
<g>
	<defs>
		<rect id="SVGID_64_" x="-348.5911" y="-614.4727" width="442.6588" height="460.6301"/>
	</defs>
	<clipPath id="SVGID_2_">
		<use xlink:href="#SVGID_64_"  style="overflow:visible;"/>
	</clipPath>
	<g style="clip-path:url(#SVGID_2_);">
		<g>
			<path style="fill:#593A11;" d="M-16.0125,141.2718c0,0-1.3468,17.845,7.7441,27.2725
				c9.0908,9.4276,25.9257,14.3097,28.2826,22.7271s-0.3367,10.9427-2.0202,13.1312s-20.5386,9.2592-40.067,5.5555
				c-19.5285-3.7037-17.1716-16.4982-26.2624-20.2019s-12.3749-8.0326-12.3749-8.0326s-2.9098-7.1524-0.2162-13.5497
				c2.6936-6.3973,6.1939-28.9224,6.1939-28.9224L-16.0125,141.2718z"/>
			<path style="fill:#76531E;stroke:#664614;stroke-miterlimit:10;" d="M-16.0125,135.2113c0,0-1.3468,17.845,7.7441,27.2725
				c9.0908,9.4275,25.9257,13.4679,28.2826,21.8853c2.3569,8.4174,0.6734,13.4679,0.6734,13.4679s-23.2322,9.7642-42.7606,6.0606
				c-19.5285-3.7037-17.1716-16.4982-26.2624-20.2019s-12.4578-14.8147-12.4578-14.8147s0-16.1615,2.6936-22.5587
				c2.6936-6.3973,3.367-13.1312,3.367-13.1312L-16.0125,135.2113z"/>
		</g>
	</g>
</g>
</svg>
