<?xml version="1.0" encoding="utf-8"?>
<!-- Generator: Adobe Illustrator 21.0.2, SVG Export Plug-In . SVG Version: 6.00 Build 0)  -->
<svg version="1.1" id="Capa_1" xmlns="http://www.w3.org/2000/svg" xmlns:xlink="http://www.w3.org/1999/xlink" x="0px" y="0px"
	 viewBox="0 0 375.7183 27.0117" style="enable-background:new 0 0 375.7183 27.0117;" xml:space="preserve">
<g>
	<path style="fill:#C9452F;" d="M11.4185,17.8564c-0.2686,0.625-0.6372,1.1719-1.106,1.6406s-1.0181,0.8374-1.6479,1.106
		s-1.3013,0.4028-2.0142,0.4028H0V0h6.6504c0.7129,0,1.3843,0.1343,2.0142,0.4028s1.1792,0.6372,1.6479,1.106
		s0.8374,1.0181,1.106,1.6479s0.4028,1.3013,0.4028,2.0142v10.6787C11.8213,16.5625,11.687,17.2314,11.4185,17.8564z M9.9316,5.1709
		c0-0.4688-0.0879-0.9058-0.2637-1.311S9.2505,3.0981,8.9429,2.7905S8.2788,2.2412,7.8735,2.0654s-0.8423-0.2637-1.311-0.2637
		H1.8896v17.4023h4.6729c0.4688,0,0.9058-0.0879,1.311-0.2637s0.7617-0.415,1.0693-0.7178s0.5493-0.6567,0.7251-1.062
		s0.2637-0.8423,0.2637-1.311V5.1709z"/>
	<path style="fill:#C9452F;" d="M25.1367,21.0059l-0.9961-1.4941c-0.4102,0.5371-0.9229,0.9692-1.5381,1.2964
		s-1.2891,0.4907-2.0215,0.4907H20.127c-0.6055,0-1.1768-0.1147-1.7139-0.3442s-1.0059-0.5444-1.4063-0.9448
		s-0.7153-0.8691-0.9448-1.4063s-0.3442-1.1084-0.3442-1.7139v-0.1465c0-0.6055,0.1147-1.1768,0.3442-1.7139
		s0.5444-1.0059,0.9448-1.4063s0.8691-0.7153,1.4063-0.9448s1.1084-0.3442,1.7139-0.3442h3.8086v-2.3145
		c0-0.3613-0.0684-0.7007-0.2051-1.0181s-0.3223-0.5933-0.5566-0.8276s-0.5103-0.4199-0.8276-0.5566s-0.6567-0.2051-1.0181-0.2051
		h-1.0547c-0.3613,0-0.7007,0.0684-1.0181,0.2051s-0.5933,0.3223-0.8276,0.5566s-0.4199,0.5103-0.5566,0.8276
		s-0.2051,0.6567-0.2051,1.0181v0.542l-1.8018-0.293v-0.1465c0-0.6055,0.1147-1.1768,0.3442-1.7139s0.5444-1.0059,0.9448-1.4063
		s0.8691-0.7153,1.4063-0.9448s1.1084-0.3442,1.7139-0.3442h1.0547c0.6055,0,1.1768,0.1147,1.7139,0.3442
		s1.0059,0.5444,1.4063,0.9448s0.7153,0.8691,0.9448,1.4063s0.3442,1.1084,0.3442,1.7139v10.8838H25.1367z M23.9355,13.7402H20.127
		c-0.3613,0-0.7007,0.0684-1.0181,0.2051s-0.5933,0.3247-0.8276,0.564s-0.4199,0.5176-0.5566,0.835s-0.2051,0.6567-0.2051,1.0181
		v0.6299c0,0.3613,0.0684,0.7007,0.2051,1.0181s0.3223,0.5933,0.5566,0.8276s0.5103,0.4199,0.8276,0.5566
		s0.6567,0.2051,1.0181,0.2051h1.2012c0.3613,0,0.7007-0.0684,1.0181-0.2051s0.5933-0.3223,0.8276-0.5566
		s0.4199-0.5103,0.5566-0.8276s0.2051-0.6567,0.2051-1.0181V13.7402z"/>
	<path style="fill:#C9452F;" d="M34.8047,21.0059c-0.5469,0-1.062-0.1025-1.5454-0.3076s-0.9033-0.4883-1.2598-0.8496
		s-0.6396-0.7813-0.8496-1.2598s-0.3149-0.9912-0.3149-1.5381V7.7197h-2.6953V6.0059h2.6953V2.4023l1.8018-0.293v3.8965h3.8086
		v1.7139h-3.8086v9.4189c0,0.3027,0.0562,0.5835,0.1685,0.8423s0.2661,0.4858,0.4614,0.6812s0.4248,0.3491,0.6885,0.4614
		s0.5469,0.1685,0.8496,0.1685h1.6406v1.7139H34.8047z"/>
	<path style="fill:#C9452F;" d="M49.4312,18.6035c-0.2295,0.5371-0.5444,1.0059-0.9448,1.4063s-0.8691,0.7153-1.4063,0.9448
		s-1.1084,0.3442-1.7139,0.3442H44.165c-0.6055,0-1.1768-0.1147-1.7139-0.3442s-1.0059-0.5444-1.4063-0.9448
		s-0.7153-0.8691-0.9448-1.4063s-0.3442-1.1084-0.3442-1.7139v-6.7676c0-0.6055,0.1147-1.1768,0.3442-1.7139
		s0.5444-1.0059,0.9448-1.4063s0.8691-0.7153,1.4063-0.9448s1.1084-0.3442,1.7139-0.3442h1.2012
		c0.6055,0,1.1768,0.1147,1.7139,0.3442s1.0059,0.5444,1.4063,0.9448s0.7153,0.8691,0.9448,1.4063s0.3442,1.1084,0.3442,1.7139
		v6.7676C49.7754,17.4951,49.6606,18.0664,49.4312,18.6035z M47.9736,10.0195c0-0.3613-0.0684-0.7007-0.2051-1.0181
		s-0.3223-0.5933-0.5566-0.8276s-0.5103-0.4199-0.8276-0.5566s-0.6567-0.2051-1.0181-0.2051H44.165
		c-0.3613,0-0.7007,0.0684-1.0181,0.2051s-0.5933,0.3223-0.8276,0.5566s-0.4199,0.5103-0.5566,0.8276s-0.2051,0.6567-0.2051,1.0181
		v6.9727c0,0.3613,0.0684,0.7007,0.2051,1.0181s0.3223,0.5933,0.5566,0.8276s0.5103,0.4199,0.8276,0.5566
		s0.6567,0.2051,1.0181,0.2051h1.2012c0.3613,0,0.7007-0.0684,1.0181-0.2051s0.5933-0.3223,0.8276-0.5566
		s0.4199-0.5103,0.5566-0.8276s0.2051-0.6567,0.2051-1.0181V10.0195z"/>
	<path style="fill:#C9452F;" d="M54.1406,25.21h-0.7617v-6.46h2.2559L54.1406,25.21z"/>
	<path style="fill:#C9452F;" d="M66.8848,2.4023V0h2.0947v2.4023H66.8848z M67.0313,21.0059v-15h1.8018v15H67.0313z"/>
	<path style="fill:#C9452F;" d="M81.2549,21.0059V10.0195c0-0.3613-0.0684-0.7007-0.2051-1.0181s-0.3223-0.5933-0.5566-0.8276
		s-0.5103-0.4199-0.8276-0.5566s-0.6567-0.2051-1.0181-0.2051h-1.2012c-0.3613,0-0.7007,0.0684-1.0181,0.2051
		s-0.5933,0.3223-0.8276,0.5566s-0.4199,0.5103-0.5566,0.8276s-0.2051,0.6567-0.2051,1.0181v10.9863h-1.8018v-15h0.6006
		l0.9814,1.5234c0.4102-0.5566,0.9253-0.9985,1.5454-1.3257s1.2964-0.4907,2.0288-0.4907h0.4541
		c0.6055,0,1.1768,0.1147,1.7139,0.3442s1.0059,0.5444,1.4063,0.9448s0.7153,0.8691,0.9448,1.4063s0.3442,1.1084,0.3442,1.7139
		v10.8838H81.2549z"/>
	<path style="fill:#C9452F;" d="M91.8164,1.7139c-0.3027,0-0.5835,0.0562-0.8423,0.1685s-0.4858,0.2661-0.6812,0.4614
		s-0.3491,0.4248-0.4614,0.6885s-0.1685,0.5469-0.1685,0.8496v2.124h3.501v1.7139h-3.501v13.2861h-1.8018V7.7197h-2.71V6.0059h2.71
		V3.9697c0-0.5469,0.1025-1.062,0.3076-1.5454s0.4883-0.9058,0.8496-1.2671s0.7813-0.6445,1.2598-0.8496S91.2695,0,91.8164,0h1.6553
		v1.7139H91.8164z"/>
	<path style="fill:#C9452F;" d="M104.9487,18.6035c-0.2295,0.5371-0.5444,1.0059-0.9448,1.4063s-0.8691,0.7153-1.4063,0.9448
		s-1.1084,0.3442-1.7139,0.3442h-1.2012c-0.6055,0-1.1768-0.1147-1.7139-0.3442s-1.0059-0.5444-1.4063-0.9448
		s-0.7153-0.8691-0.9448-1.4063s-0.3442-1.1084-0.3442-1.7139v-6.7676c0-0.6055,0.1147-1.1768,0.3442-1.7139
		s0.5444-1.0059,0.9448-1.4063s0.8691-0.7153,1.4063-0.9448s1.1084-0.3442,1.7139-0.3442h1.2012
		c0.6055,0,1.1768,0.1147,1.7139,0.3442s1.0059,0.5444,1.4063,0.9448s0.7153,0.8691,0.9448,1.4063s0.3442,1.1084,0.3442,1.7139
		v6.7676C105.293,17.4951,105.1782,18.0664,104.9487,18.6035z M103.4912,10.0195c0-0.3613-0.0684-0.7007-0.2051-1.0181
		s-0.3223-0.5933-0.5566-0.8276s-0.5103-0.4199-0.8276-0.5566s-0.6567-0.2051-1.0181-0.2051h-1.2012
		c-0.3613,0-0.7007,0.0684-1.0181,0.2051s-0.5933,0.3223-0.8276,0.5566s-0.4199,0.5103-0.5566,0.8276s-0.2051,0.6567-0.2051,1.0181
		v6.9727c0,0.3613,0.0684,0.7007,0.2051,1.0181s0.3223,0.5933,0.5566,0.8276s0.5103,0.4199,0.8276,0.5566
		s0.6567,0.2051,1.0181,0.2051h1.2012c0.3613,0,0.7007-0.0684,1.0181-0.2051s0.5933-0.3223,0.8276-0.5566
		s0.4199-0.5103,0.5566-0.8276s0.2051-0.6567,0.2051-1.0181V10.0195z"/>
	<path style="fill:#C9452F;" d="M113.3057,7.7197c-0.3613,0-0.7007,0.0684-1.0181,0.2051s-0.5933,0.3223-0.8276,0.5566
		s-0.4199,0.5103-0.5566,0.8276s-0.2051,0.6567-0.2051,1.0181v10.6787h-1.8018v-15h0.6006l0.9814,1.5234
		c0.4102-0.5566,0.9253-0.9985,1.5454-1.3257s1.2964-0.4907,2.0288-0.4907h1.0547v2.0068H113.3057z"/>
	<path style="fill:#C9452F;" d="M133.3447,21.0059V10.0195c0-0.3613-0.0684-0.7007-0.2051-1.0181s-0.3223-0.5933-0.5566-0.8276
		s-0.5103-0.4199-0.8276-0.5566s-0.6567-0.2051-1.0181-0.2051h-0.8936c-0.3613,0-0.7007,0.0684-1.0181,0.2051
		s-0.5957,0.3223-0.835,0.5566s-0.4272,0.5103-0.564,0.8276s-0.2051,0.6567-0.2051,1.0181v10.9863h-1.7871V10.0195
		c0-0.3613-0.0684-0.7007-0.2051-1.0181s-0.3247-0.5933-0.564-0.8276s-0.5176-0.4199-0.835-0.5566s-0.6567-0.2051-1.0181-0.2051
		h-0.8936c-0.3613,0-0.7007,0.0684-1.0181,0.2051s-0.5933,0.3223-0.8276,0.5566s-0.4199,0.5103-0.5566,0.8276
		s-0.2051,0.6567-0.2051,1.0181v10.9863h-1.8018v-15h0.6006l0.9814,1.5234c0.4102-0.5566,0.9253-0.9985,1.5454-1.3257
		s1.2964-0.4907,2.0288-0.4907h0.1465c0.8496,0,1.6162,0.21,2.2998,0.6299s1.2109,0.9766,1.582,1.6699
		c0.1855-0.3418,0.415-0.6543,0.6885-0.9375s0.5762-0.5249,0.9082-0.7251s0.6934-0.3564,1.084-0.4688s0.7959-0.1685,1.2158-0.1685
		h0.1465c0.6055,0,1.1768,0.1147,1.7139,0.3442s1.0059,0.5444,1.4063,0.9448s0.7153,0.8691,0.9448,1.4063
		s0.3442,1.1084,0.3442,1.7139v10.8838H133.3447z"/>
	<path style="fill:#C9452F;" d="M148.1689,21.0059l-0.9961-1.4941c-0.4102,0.5371-0.9229,0.9692-1.5381,1.2964
		s-1.2891,0.4907-2.0215,0.4907h-0.4541c-0.6055,0-1.1768-0.1147-1.7139-0.3442s-1.0059-0.5444-1.4063-0.9448
		s-0.7153-0.8691-0.9448-1.4063s-0.3442-1.1084-0.3442-1.7139v-0.1465c0-0.6055,0.1147-1.1768,0.3442-1.7139
		s0.5444-1.0059,0.9448-1.4063s0.8691-0.7153,1.4063-0.9448s1.1084-0.3442,1.7139-0.3442h3.8086v-2.3145
		c0-0.3613-0.0684-0.7007-0.2051-1.0181s-0.3223-0.5933-0.5566-0.8276s-0.5103-0.4199-0.8276-0.5566s-0.6567-0.2051-1.0181-0.2051
		h-1.0547c-0.3613,0-0.7007,0.0684-1.0181,0.2051s-0.5933,0.3223-0.8276,0.5566s-0.4199,0.5103-0.5566,0.8276
		s-0.2051,0.6567-0.2051,1.0181v0.542l-1.8018-0.293v-0.1465c0-0.6055,0.1147-1.1768,0.3442-1.7139s0.5444-1.0059,0.9448-1.4063
		s0.8691-0.7153,1.4063-0.9448s1.1084-0.3442,1.7139-0.3442h1.0547c0.6055,0,1.1768,0.1147,1.7139,0.3442
		s1.0059,0.5444,1.4063,0.9448s0.7153,0.8691,0.9448,1.4063s0.3442,1.1084,0.3442,1.7139v10.8838H148.1689z M146.9678,13.7402
		h-3.8086c-0.3613,0-0.7007,0.0684-1.0181,0.2051s-0.5933,0.3247-0.8276,0.564s-0.4199,0.5176-0.5566,0.835
		s-0.2051,0.6567-0.2051,1.0181v0.6299c0,0.3613,0.0684,0.7007,0.2051,1.0181s0.3223,0.5933,0.5566,0.8276
		s0.5103,0.4199,0.8276,0.5566s0.6567,0.2051,1.0181,0.2051h1.2012c0.3613,0,0.7007-0.0684,1.0181-0.2051
		s0.5933-0.3223,0.8276-0.5566s0.4199-0.5103,0.5566-0.8276s0.2051-0.6567,0.2051-1.0181V13.7402z"/>
	<path style="fill:#C9452F;" d="M162.0483,18.6035c-0.2295,0.5371-0.5444,1.0059-0.9448,1.4063s-0.8691,0.7153-1.4063,0.9448
		s-1.1084,0.3442-1.7139,0.3442h-1.2012c-0.6055,0-1.1768-0.1147-1.7139-0.3442s-1.0059-0.5444-1.4063-0.9448
		s-0.7153-0.8691-0.9448-1.4063s-0.3442-1.1084-0.3442-1.7139v-6.7676c0-0.6055,0.1147-1.1768,0.3442-1.7139
		s0.5444-1.0059,0.9448-1.4063s0.8691-0.7153,1.4063-0.9448s1.1084-0.3442,1.7139-0.3442h1.2012
		c0.6055,0,1.1768,0.1147,1.7139,0.3442s1.0059,0.5444,1.4063,0.9448s0.7153,0.8691,0.9448,1.4063s0.3442,1.1084,0.3442,1.7139
		v0.6006l-1.8018,0.293v-0.9961c0-0.3613-0.0684-0.7007-0.2051-1.0181s-0.3223-0.5933-0.5566-0.8276s-0.5103-0.4199-0.8276-0.5566
		s-0.6567-0.2051-1.0181-0.2051h-1.2012c-0.3613,0-0.7007,0.0684-1.0181,0.2051s-0.5933,0.3223-0.8276,0.5566
		s-0.4199,0.5103-0.5566,0.8276s-0.2051,0.6567-0.2051,1.0181v6.9727c0,0.3613,0.0684,0.7007,0.2051,1.0181
		s0.3223,0.5933,0.5566,0.8276s0.5103,0.4199,0.8276,0.5566s0.6567,0.2051,1.0181,0.2051h1.2012
		c0.3613,0,0.7007-0.0684,1.0181-0.2051s0.5933-0.3223,0.8276-0.5566s0.4199-0.5103,0.5566-0.8276s0.2051-0.6567,0.2051-1.0181
		v-0.9961l1.8018,0.293v0.6006C162.3926,17.4951,162.2778,18.0664,162.0483,18.6035z"/>
	<path style="fill:#C9452F;" d="M166.4502,2.4023V0h2.0947v2.4023H166.4502z M166.5967,21.0059v-15h1.8018v15H166.5967z"/>
	<path style="fill:#C9452F;" d="M182.2778,18.6035c-0.2295,0.5371-0.5444,1.0059-0.9448,1.4063s-0.8691,0.7153-1.4063,0.9448
		s-1.1084,0.3442-1.7139,0.3442h-1.2012c-0.6055,0-1.1768-0.1147-1.7139-0.3442s-1.0059-0.5444-1.4063-0.9448
		s-0.7153-0.8691-0.9448-1.4063s-0.3442-1.1084-0.3442-1.7139v-6.7676c0-0.6055,0.1147-1.1768,0.3442-1.7139
		s0.5444-1.0059,0.9448-1.4063s0.8691-0.7153,1.4063-0.9448s1.1084-0.3442,1.7139-0.3442h1.2012
		c0.6055,0,1.1768,0.1147,1.7139,0.3442s1.0059,0.5444,1.4063,0.9448s0.7153,0.8691,0.9448,1.4063s0.3442,1.1084,0.3442,1.7139
		v6.7676C182.6221,17.4951,182.5073,18.0664,182.2778,18.6035z M180.8203,10.0195c0-0.3613-0.0684-0.7007-0.2051-1.0181
		s-0.3223-0.5933-0.5566-0.8276s-0.5103-0.4199-0.8276-0.5566s-0.6567-0.2051-1.0181-0.2051h-1.2012
		c-0.3613,0-0.7007,0.0684-1.0181,0.2051s-0.5933,0.3223-0.8276,0.5566s-0.4199,0.5103-0.5566,0.8276s-0.2051,0.6567-0.2051,1.0181
		v6.9727c0,0.3613,0.0684,0.7007,0.2051,1.0181s0.3223,0.5933,0.5566,0.8276s0.5103,0.4199,0.8276,0.5566
		s0.6567,0.2051,1.0181,0.2051h1.2012c0.3613,0,0.7007-0.0684,1.0181-0.2051s0.5933-0.3223,0.8276-0.5566
		s0.4199-0.5103,0.5566-0.8276s0.2051-0.6567,0.2051-1.0181V10.0195z M176.8652,3.6035h-1.3477L177.9053,0h3.0029L176.8652,3.6035z"
		/>
	<path style="fill:#C9452F;" d="M194.4434,21.0059V10.0195c0-0.3613-0.0684-0.7007-0.2051-1.0181s-0.3223-0.5933-0.5566-0.8276
		s-0.5103-0.4199-0.8276-0.5566s-0.6567-0.2051-1.0181-0.2051h-1.2012c-0.3613,0-0.7007,0.0684-1.0181,0.2051
		s-0.5933,0.3223-0.8276,0.5566s-0.4199,0.5103-0.5566,0.8276s-0.2051,0.6567-0.2051,1.0181v10.9863h-1.8018v-15h0.6006
		l0.9814,1.5234c0.4102-0.5566,0.9253-0.9985,1.5454-1.3257s1.2964-0.4907,2.0288-0.4907h0.4541
		c0.6055,0,1.1768,0.1147,1.7139,0.3442s1.0059,0.5444,1.4063,0.9448s0.7153,0.8691,0.9448,1.4063s0.3442,1.1084,0.3442,1.7139
		v10.8838H194.4434z"/>
	<path style="fill:#C9452F;" d="M209.1797,27.0117h-1.7432l2.666-7.2949l-4.8633-13.7109h1.8018l3.9111,11.3672l0.0586,0.7764
		l0.0586-0.7764l3.8965-11.3672h1.8018L209.1797,27.0117z"/>
	<path style="fill:#C9452F;" d="M235.144,18.6035c-0.2295,0.5371-0.5444,1.0059-0.9448,1.4063s-0.8691,0.7153-1.4063,0.9448
		s-1.1084,0.3442-1.7139,0.3442h-1.2012c-0.6055,0-1.1768-0.1147-1.7139-0.3442s-1.0059-0.5444-1.4063-0.9448
		s-0.7153-0.8691-0.9448-1.4063s-0.3442-1.1084-0.3442-1.7139v-6.7676c0-0.6055,0.1147-1.1768,0.3442-1.7139
		s0.5444-1.0059,0.9448-1.4063s0.8691-0.7153,1.4063-0.9448s1.1084-0.3442,1.7139-0.3442h1.2012
		c0.6055,0,1.1768,0.1147,1.7139,0.3442s1.0059,0.5444,1.4063,0.9448s0.7153,0.8691,0.9448,1.4063s0.3442,1.1084,0.3442,1.7139
		v0.6006l-1.8018,0.293v-0.9961c0-0.3613-0.0684-0.7007-0.2051-1.0181s-0.3223-0.5933-0.5566-0.8276s-0.5103-0.4199-0.8276-0.5566
		s-0.6567-0.2051-1.0181-0.2051h-1.2012c-0.3613,0-0.7007,0.0684-1.0181,0.2051s-0.5933,0.3223-0.8276,0.5566
		s-0.4199,0.5103-0.5566,0.8276s-0.2051,0.6567-0.2051,1.0181v6.9727c0,0.3613,0.0684,0.7007,0.2051,1.0181
		s0.3223,0.5933,0.5566,0.8276s0.5103,0.4199,0.8276,0.5566s0.6567,0.2051,1.0181,0.2051h1.2012
		c0.3613,0,0.7007-0.0684,1.0181-0.2051s0.5933-0.3223,0.8276-0.5566s0.4199-0.5103,0.5566-0.8276s0.2051-0.6567,0.2051-1.0181
		v-0.9961l1.8018,0.293v0.6006C235.4883,17.4951,235.3735,18.0664,235.144,18.6035z"/>
	<path style="fill:#C9452F;" d="M248.7671,18.6035c-0.2295,0.5371-0.5444,1.0059-0.9448,1.4063s-0.8691,0.7153-1.4063,0.9448
		s-1.1084,0.3442-1.7139,0.3442h-1.2012c-0.6055,0-1.1768-0.1147-1.7139-0.3442s-1.0059-0.5444-1.4063-0.9448
		s-0.7153-0.8691-0.9448-1.4063s-0.3442-1.1084-0.3442-1.7139v-6.7676c0-0.6055,0.1147-1.1768,0.3442-1.7139
		s0.5444-1.0059,0.9448-1.4063s0.8691-0.7153,1.4063-0.9448s1.1084-0.3442,1.7139-0.3442h1.2012
		c0.6055,0,1.1768,0.1147,1.7139,0.3442s1.0059,0.5444,1.4063,0.9448s0.7153,0.8691,0.9448,1.4063s0.3442,1.1084,0.3442,1.7139
		v6.7676C249.1113,17.4951,248.9966,18.0664,248.7671,18.6035z M247.3096,10.0195c0-0.3613-0.0684-0.7007-0.2051-1.0181
		s-0.3223-0.5933-0.5566-0.8276s-0.5103-0.4199-0.8276-0.5566s-0.6567-0.2051-1.0181-0.2051h-1.2012
		c-0.3613,0-0.7007,0.0684-1.0181,0.2051s-0.5933,0.3223-0.8276,0.5566s-0.4199,0.5103-0.5566,0.8276s-0.2051,0.6567-0.2051,1.0181
		v6.9727c0,0.3613,0.0684,0.7007,0.2051,1.0181s0.3223,0.5933,0.5566,0.8276s0.5103,0.4199,0.8276,0.5566
		s0.6567,0.2051,1.0181,0.2051h1.2012c0.3613,0,0.7007-0.0684,1.0181-0.2051s0.5933-0.3223,0.8276-0.5566
		s0.4199-0.5103,0.5566-0.8276s0.2051-0.6567,0.2051-1.0181V10.0195z"/>
	<path style="fill:#C9452F;" d="M260.9326,21.0059V10.0195c0-0.3613-0.0684-0.7007-0.2051-1.0181s-0.3223-0.5933-0.5566-0.8276
		s-0.5103-0.4199-0.8276-0.5566s-0.6567-0.2051-1.0181-0.2051h-1.2012c-0.3613,0-0.7007,0.0684-1.0181,0.2051
		s-0.5933,0.3223-0.8276,0.5566s-0.4199,0.5103-0.5566,0.8276s-0.2051,0.6567-0.2051,1.0181v10.9863h-1.8018v-15h0.6006
		l0.9814,1.5234c0.4102-0.5566,0.9253-0.9985,1.5454-1.3257s1.2964-0.4907,2.0288-0.4907h0.4541
		c0.6055,0,1.1768,0.1147,1.7139,0.3442s1.0059,0.5444,1.4063,0.9448s0.7153,0.8691,0.9448,1.4063s0.3442,1.1084,0.3442,1.7139
		v10.8838H260.9326z"/>
	<path style="fill:#C9452F;" d="M276.0132,18.6035c-0.2295,0.5371-0.5444,1.0059-0.9448,1.4063s-0.8691,0.7153-1.4063,0.9448
		s-1.1084,0.3442-1.7139,0.3442h-1.2012c-0.6055,0-1.1768-0.1147-1.7139-0.3442s-1.0059-0.5444-1.4063-0.9448
		s-0.7153-0.8691-0.9448-1.4063s-0.3442-1.1084-0.3442-1.7139v-6.7676c0-0.6055,0.1147-1.1768,0.3442-1.7139
		s0.5444-1.0059,0.9448-1.4063s0.8691-0.7153,1.4063-0.9448s1.1084-0.3442,1.7139-0.3442h1.2012
		c0.6055,0,1.1768,0.1147,1.7139,0.3442s1.0059,0.5444,1.4063,0.9448s0.7153,0.8691,0.9448,1.4063s0.3442,1.1084,0.3442,1.7139
		v6.7676C276.3574,17.4951,276.2427,18.0664,276.0132,18.6035z M274.5557,10.0195c0-0.3613-0.0684-0.7007-0.2051-1.0181
		s-0.3223-0.5933-0.5566-0.8276s-0.5103-0.4199-0.8276-0.5566s-0.6567-0.2051-1.0181-0.2051h-1.2012
		c-0.3613,0-0.7007,0.0684-1.0181,0.2051s-0.5933,0.3223-0.8276,0.5566s-0.4199,0.5103-0.5566,0.8276s-0.2051,0.6567-0.2051,1.0181
		v6.9727c0,0.3613,0.0684,0.7007,0.2051,1.0181s0.3223,0.5933,0.5566,0.8276s0.5103,0.4199,0.8276,0.5566
		s0.6567,0.2051,1.0181,0.2051h1.2012c0.3613,0,0.7007-0.0684,1.0181-0.2051s0.5933-0.3223,0.8276-0.5566
		s0.4199-0.5103,0.5566-0.8276s0.2051-0.6567,0.2051-1.0181V10.0195z"/>
	<path style="fill:#C9452F;" d="M289.6362,18.6035c-0.2295,0.5371-0.5444,1.0059-0.9448,1.4063s-0.8691,0.7153-1.4063,0.9448
		s-1.1084,0.3442-1.7139,0.3442h-1.2012c-0.6055,0-1.1768-0.1147-1.7139-0.3442s-1.0059-0.5444-1.4063-0.9448
		s-0.7153-0.8691-0.9448-1.4063s-0.3442-1.1084-0.3442-1.7139v-6.7676c0-0.6055,0.1147-1.1768,0.3442-1.7139
		s0.5444-1.0059,0.9448-1.4063s0.8691-0.7153,1.4063-0.9448s1.1084-0.3442,1.7139-0.3442h1.2012
		c0.6055,0,1.1768,0.1147,1.7139,0.3442s1.0059,0.5444,1.4063,0.9448s0.7153,0.8691,0.9448,1.4063s0.3442,1.1084,0.3442,1.7139
		v0.6006l-1.8018,0.293v-0.9961c0-0.3613-0.0684-0.7007-0.2051-1.0181s-0.3223-0.5933-0.5566-0.8276s-0.5103-0.4199-0.8276-0.5566
		s-0.6567-0.2051-1.0181-0.2051h-1.2012c-0.3613,0-0.7007,0.0684-1.0181,0.2051s-0.5933,0.3223-0.8276,0.5566
		s-0.4199,0.5103-0.5566,0.8276s-0.2051,0.6567-0.2051,1.0181v6.9727c0,0.3613,0.0684,0.7007,0.2051,1.0181
		s0.3223,0.5933,0.5566,0.8276s0.5103,0.4199,0.8276,0.5566s0.6567,0.2051,1.0181,0.2051h1.2012
		c0.3613,0,0.7007-0.0684,1.0181-0.2051s0.5933-0.3223,0.8276-0.5566s0.4199-0.5103,0.5566-0.8276s0.2051-0.6567,0.2051-1.0181
		v-0.9961l1.8018,0.293v0.6006C289.9805,17.4951,289.8657,18.0664,289.6362,18.6035z"/>
	<path style="fill:#C9452F;" d="M294.0381,2.4023V0h2.0947v2.4023H294.0381z M294.1846,21.0059v-15h1.8018v15H294.1846z"/>
	<path style="fill:#C9452F;" d="M316.0259,21.0059V10.0195c0-0.3613-0.0684-0.7007-0.2051-1.0181s-0.3223-0.5933-0.5566-0.8276
		s-0.5107-0.4199-0.8281-0.5566s-0.6563-0.2051-1.0176-0.2051h-0.8936c-0.3613,0-0.7012,0.0684-1.0186,0.2051
		s-0.5957,0.3223-0.834,0.5566c-0.2402,0.2344-0.4277,0.5103-0.5645,0.8276s-0.2051,0.6567-0.2051,1.0181v10.9863h-1.7871V10.0195
		c0-0.3613-0.0684-0.7007-0.2051-1.0181s-0.3252-0.5933-0.5645-0.8276s-0.5176-0.4199-0.834-0.5566
		c-0.3184-0.1367-0.6572-0.2051-1.0186-0.2051h-0.8936c-0.3613,0-0.7012,0.0684-1.0176,0.2051
		c-0.3184,0.1367-0.5938,0.3223-0.8281,0.5566s-0.4199,0.5103-0.5566,0.8276s-0.2051,0.6567-0.2051,1.0181v10.9863h-1.8018v-15
		h0.6006l0.9814,1.5234c0.4102-0.5566,0.9248-0.9985,1.5459-1.3257c0.6191-0.3271,1.2959-0.4907,2.0283-0.4907h0.1465
		c0.8496,0,1.6162,0.21,2.2998,0.6299s1.2109,0.9766,1.582,1.6699c0.1855-0.3418,0.415-0.6543,0.6885-0.9375
		s0.5762-0.5249,0.9082-0.7251s0.6934-0.3564,1.084-0.4688s0.7959-0.1685,1.2158-0.1685h0.1465
		c0.6055,0,1.1768,0.1147,1.7139,0.3442s1.0059,0.5444,1.4063,0.9448s0.7148,0.8691,0.9443,1.4063s0.3447,1.1084,0.3447,1.7139
		v10.8838H316.0259z"/>
	<path style="fill:#C9452F;" d="M321.8853,2.4023V0h2.0947v2.4023H321.8853z M322.0317,21.0059v-15h1.8018v15H322.0317z"/>
	<path style="fill:#C9452F;" d="M337.7114,18.6035c-0.2295,0.5371-0.5439,1.0059-0.9443,1.4063s-0.8691,0.7153-1.4063,0.9448
		s-1.1084,0.3442-1.7139,0.3442h-1.2012c-0.6055,0-1.1768-0.1147-1.7139-0.3442s-1.0059-0.5444-1.4063-0.9448
		s-0.7158-0.8691-0.9443-1.4063c-0.2305-0.5371-0.3447-1.1084-0.3447-1.7139v-6.7676c0-0.6055,0.1143-1.1768,0.3447-1.7139
		c0.2285-0.5371,0.5439-1.0059,0.9443-1.4063s0.8691-0.7153,1.4063-0.9448s1.1084-0.3442,1.7139-0.3442h1.2012
		c0.6055,0,1.1768,0.1147,1.7139,0.3442s1.0059,0.5444,1.4063,0.9448s0.7148,0.8691,0.9443,1.4063s0.3447,1.1084,0.3447,1.7139
		v3.5303h-8.2178v3.3398c0,0.3613,0.0684,0.7007,0.2051,1.0181s0.3223,0.5933,0.5566,0.8276s0.5098,0.4199,0.8281,0.5566
		c0.3164,0.1367,0.6563,0.2051,1.0176,0.2051h1.2012c0.3613,0,0.7002-0.0684,1.0176-0.2051s0.5938-0.3223,0.8281-0.5566
		s0.4199-0.5103,0.5566-0.8276s0.2051-0.6567,0.2051-1.0181v-0.9961l1.8018,0.293v0.6006
		C338.0562,17.4951,337.9409,18.0664,337.7114,18.6035z M336.2544,10.0195c0-0.3613-0.0684-0.7007-0.2051-1.0181
		s-0.3223-0.5933-0.5566-0.8276s-0.5107-0.4199-0.8281-0.5566s-0.6563-0.2051-1.0176-0.2051h-1.2012
		c-0.3613,0-0.7012,0.0684-1.0176,0.2051c-0.3184,0.1367-0.5938,0.3223-0.8281,0.5566s-0.4199,0.5103-0.5566,0.8276
		s-0.2051,0.6567-0.2051,1.0181v2.2266h6.416V10.0195z"/>
	<path style="fill:#C9452F;" d="M349.8774,21.0059V10.0195c0-0.3613-0.0684-0.7007-0.2051-1.0181s-0.3223-0.5933-0.5566-0.8276
		s-0.5107-0.4199-0.8281-0.5566s-0.6563-0.2051-1.0176-0.2051h-1.2012c-0.3613,0-0.7012,0.0684-1.0176,0.2051
		c-0.3184,0.1367-0.5938,0.3223-0.8281,0.5566s-0.4199,0.5103-0.5566,0.8276s-0.2051,0.6567-0.2051,1.0181v10.9863h-1.8018v-15
		h0.6006l0.9814,1.5234c0.4102-0.5566,0.9248-0.9985,1.5459-1.3257c0.6191-0.3271,1.2959-0.4907,2.0283-0.4907h0.4541
		c0.6055,0,1.1768,0.1147,1.7139,0.3442s1.0059,0.5444,1.4063,0.9448s0.7148,0.8691,0.9443,1.4063s0.3447,1.1084,0.3447,1.7139
		v10.8838H349.8774z"/>
	<path style="fill:#C9452F;" d="M360.7466,21.0059c-0.5469,0-1.0625-0.1025-1.5449-0.3076
		c-0.4844-0.2051-0.9043-0.4883-1.2598-0.8496c-0.3574-0.3613-0.6406-0.7813-0.8496-1.2598
		c-0.2109-0.4785-0.3154-0.9912-0.3154-1.5381V7.7197h-2.6953V6.0059h2.6953V2.4023l1.8018-0.293v3.8965h3.8086v1.7139h-3.8086
		v9.4189c0,0.3027,0.0557,0.5835,0.168,0.8423s0.2666,0.4858,0.4619,0.6812s0.4248,0.3491,0.6885,0.4614
		s0.5469,0.1685,0.8496,0.1685h1.6406v1.7139H360.7466z"/>
	<path style="fill:#C9452F;" d="M375.3735,18.6035c-0.2295,0.5371-0.5439,1.0059-0.9443,1.4063s-0.8691,0.7153-1.4063,0.9448
		s-1.1084,0.3442-1.7139,0.3442h-1.2012c-0.6055,0-1.1768-0.1147-1.7139-0.3442s-1.0059-0.5444-1.4063-0.9448
		s-0.7158-0.8691-0.9443-1.4063c-0.2305-0.5371-0.3447-1.1084-0.3447-1.7139v-6.7676c0-0.6055,0.1143-1.1768,0.3447-1.7139
		c0.2285-0.5371,0.5439-1.0059,0.9443-1.4063s0.8691-0.7153,1.4063-0.9448s1.1084-0.3442,1.7139-0.3442h1.2012
		c0.6055,0,1.1768,0.1147,1.7139,0.3442s1.0059,0.5444,1.4063,0.9448s0.7148,0.8691,0.9443,1.4063s0.3447,1.1084,0.3447,1.7139
		v6.7676C375.7183,17.4951,375.603,18.0664,375.3735,18.6035z M373.9165,10.0195c0-0.3613-0.0684-0.7007-0.2051-1.0181
		s-0.3223-0.5933-0.5566-0.8276s-0.5107-0.4199-0.8281-0.5566s-0.6563-0.2051-1.0176-0.2051h-1.2012
		c-0.3613,0-0.7012,0.0684-1.0176,0.2051c-0.3184,0.1367-0.5938,0.3223-0.8281,0.5566s-0.4199,0.5103-0.5566,0.8276
		s-0.2051,0.6567-0.2051,1.0181v6.9727c0,0.3613,0.0684,0.7007,0.2051,1.0181s0.3223,0.5933,0.5566,0.8276
		s0.5098,0.4199,0.8281,0.5566c0.3164,0.1367,0.6563,0.2051,1.0176,0.2051h1.2012c0.3613,0,0.7002-0.0684,1.0176-0.2051
		s0.5938-0.3223,0.8281-0.5566s0.4199-0.5103,0.5566-0.8276s0.2051-0.6567,0.2051-1.0181V10.0195z"/>
</g>
</svg>
