<?xml version="1.0" encoding="utf-8"?>
<!-- Generator: Adobe Illustrator 21.0.2, SVG Export Plug-In . SVG Version: 6.00 Build 0)  -->
<svg version="1.1" id="Capa_1" xmlns="http://www.w3.org/2000/svg" xmlns:xlink="http://www.w3.org/1999/xlink" x="0px" y="0px"
	 viewBox="0 0 341.7949 446.0825" style="enable-background:new 0 0 341.7949 446.0825;" xml:space="preserve">
<g>
	<defs>
		<rect id="SVGID_53_" x="20.6903" y="0" width="321.1045" height="452.7973"/>
	</defs>
	<clipPath id="SVGID_2_">
		<use xlink:href="#SVGID_53_"  style="overflow:visible;"/>
	</clipPath>
	<g style="clip-path:url(#SVGID_2_);">
		<g>
			<path style="fill:#50565B;stroke:#656C70;stroke-miterlimit:10;" d="M264.9631,386.3662l-1.8305-3.3681
				c0,0,9.9579,2.7823,10.0311-3.3681c0.0732-6.1505,0.3661-55.647,0.3661-55.647l3.5146-0.4393l-0.3661,60.626l-1.9037,3.7342
				l-4.8691-0.3661L264.9631,386.3662"/>
			<path style="fill:#808589;stroke:#656C70;stroke-miterlimit:10;" d="M264.9631,386.3662c0,0,10.3972,1.4196,10.3972-5.0014
				v-57.8212h8.4935v57.8212c0,0,1.1471,12.5121-8.9328,12.5431l-10.0799,0.0309L264.9631,386.3662z"/>
			<path style="fill:#252728;stroke:#000000;stroke-miterlimit:10;" d="M201.1218,461.0391h12.4346
				c1.6431,0,2.9966-1.2906,3.0748-2.9318l2.2034-46.2606h-22.991l2.2034,46.2606
				C198.1252,459.7485,199.4787,461.0391,201.1218,461.0391z"/>
			<path style="fill:#262C35;stroke:#161A1E;stroke-miterlimit:10;" d="M243.8059,200.3323c0,0,3.9291-10.52,32.263-9.9517
				c0,0,29.8935-8.0983,33.0128,57.6113v58.89c0,0,2.3395,40.6334-31.4532,39.4968c0,0-35.8722,2.7076-35.3523-28.7661
				L243.8059,200.3323"/>
			<path style="fill:#181D23;" d="M260.9921,196.4188c0,0,26.2543-11.2663,32.233,49.8825l3.6392,67.0627
				c0,0,1.0398,25.0584-20.7955,25.6267s-1.0398,1.4918-1.0398,1.4918s-28.5938,1.918-30.0235-25.6445l-6.1087-93.4852
				C238.8969,221.3529,242.2762,195.9215,260.9921,196.4188z"/>
			<path style="fill:#50565B;stroke:#656C70;stroke-miterlimit:10;" d="M185.3317,416.9176h47.2366
				c2.6753,0,4.8642-2.1889,4.8642-4.8642v-10.5537c0-1.7995-1.4723-3.2719-3.2719-3.2719h-50.4212
				c-1.7995,0-3.2719,1.4724-3.2719,3.2719v10.5537C180.4675,414.7287,182.6564,416.9176,185.3317,416.9176z"/>
			<path style="fill:#262C35;stroke:#161A1E;stroke-miterlimit:10;" d="M172.8888,404.5247
				c-4.7906-0.208,12.9868,1.8157,39.6946,2.343c10.6394,0.21,31.3282-1.1715,31.3282-1.1715
				c4.968,0,23.8843-2.9288,23.8843-13.1795v-6.1505c0-11.227-18.9163-14.3511-23.8843-14.3511c0,0-20.4596-0.3381-31.0179,0
				c-22.6985,0.7268-52.4122,2.343-52.4122,2.343c-4.968,0-12.7176,6.1457-12.7176,10.8365v7.322
				C148.4106,399.5457,167.9208,404.5247,172.8888,404.5247z"/>
			<path style="fill:#181D23;" d="M267.6666,384.8756c0,0-60.6595,12.4113-118.9005-2.8605s0,0,0,0s1.3145,14.3089,25.664,17.5306
				c0,0,57.2291,4.9789,79.7176,0c0,0,0.308,4.0582-9.4617,6.1294c-9.7697,2.0712,0,0,0,0s19.5945-0.3564,22.9806-11.7364
				c3.3862-11.38,0,0,0,0V384.8756"/>
		</g>
		<path style="fill:#C39145;" d="M145.655,303.094c14.6572,9.0735,63.3972,18.2375,83.3716,13.8953
			c0,0,12.1584,39.9489,3.4738,52.1073c-8.6845,12.1584-1.7522,10.5955-22.4602,17.139
			c-17.0716,5.3944-56.6867-6.8313-60.1605-30.2796C146.4059,332.5077,145.655,303.094,145.655,303.094z"/>
		<g>
			<path style="fill:#C39145;stroke:#664614;stroke-miterlimit:10;" d="M156.5455,327.7839c0,0-88.0913,12.0683-100.3691,15.3424
				c-12.2779,3.2741-18.8261,9.0038-13.5057,34.3781s6.2964,119.5444,6.2964,119.5444s4.3088-2.6622,7.8161-0.8685
				c5.0541,2.5848,7.1474,7.7663,16.8114,6.5583c16.3705-2.0463,19.0847-9.7426,19.0847-9.7426s-0.5779-41.0059-0.1686-53.693
				s-3.1742-39.6985-4.8113-42.9726c-1.637-3.2741,6.229-8.5945,6.229-8.5945s60.9801-4.7016,81.0339-1.8368
				s26.6315-4.7114,24.5852-23.1282C197.5012,344.3542,156.5455,327.7839,156.5455,327.7839z"/>
			<path style="fill:#CFAC81;" d="M102.1148,346.4029c11.2899-2.6054,22.5798-2.6054,32.1328-6.0792
				c8.879-4.0359,26.0011-0.5777,28.3743-9.8307c-3.6702-1.7347-6.0764-2.7091-6.0764-2.7091s-88.0911,12.0683-100.3691,15.3424
				c-12.2779,3.2741-18.8261,9.0038-13.5057,34.3781c5.3204,25.3743,6.2964,119.5444,6.2964,119.5444s4.3088-2.6622,7.8161-0.8685
				c1.0506,0.5373,1.9714,1.1885,2.8606,1.8694c1.419-5.136-3.5571-11.067-3.5571-16.1679
				c0.8685-32.1328,0.8685-65.1341-7.8161-95.53c-2.6054-11.2899-4.3423-26.9221,0-33.8697
				C58.692,336.8499,83.0088,350.7452,102.1148,346.4029z"/>
			<path style="opacity:0.4;fill:#545454;" d="M151.2261,344.1343c-26.9221,5.2107-57.5344,19.9273-60.531,33.2621
				c-8.6845,0.8685-10.2917,8.9555-9.4232,15.0347c2.6054,34.7382,0,68.6079,4.3423,103.3461
				c0.1855,1.1128,0.3997,2.2109,0.6216,3.3049c5.293-2.8374,6.4436-6.086,6.4436-6.086s-0.5778-41.0059-0.1686-53.6931
				c0.4092-12.6871-3.1742-39.6984-4.8113-42.9726c-1.637-3.2741,6.229-8.5945,6.229-8.5945s36.9441-22.9433,56.998-20.0785
				C169.9317,370.3725,161.733,342.0329,151.2261,344.1343z"/>
		</g>
		<path style="fill:#C39145;" d="M145.655,303.094c14.6572,9.0735,63.3972,18.2375,83.3716,13.8953
			c0,0,12.1584,39.9489,3.4738,52.1073c-8.6845,12.1584-1.7522,10.5955-22.4602,17.139
			c-17.0716,5.3944-15.6161-41.9286-39.3176-41.5695C142.0637,345.1003,145.655,303.094,145.655,303.094z"/>
		<g>
			<path style="fill:#C39145;stroke:#664614;stroke-miterlimit:10;" d="M171.0122,343.5081
				c-16.0535,1.038-48.362,11.9827-63.6306,19.7365c-11.3297,5.7535-17.924,9.7285-12.6036,35.1028
				c5.3204,25.3743,14.9809,107.3861,14.9809,107.3861s4.3088-2.6622,7.8161-0.8684c5.0541,2.5848,7.1474,7.7663,16.8114,6.5583
				c16.3705-2.0463,15.6109-9.7426,15.6109-9.7426s1.159-41.0059,1.5683-53.693c0.4093-12.6871-4.9111-39.6985-6.5482-42.9725
				c-1.6371-3.2741,6.229-8.5945,6.229-8.5945s26.1215-1.6342,46.2957-7.0475c19.5653-5.2499,47.4744-8.1852,45.4281-26.6021"/>
			<path style="fill:#CFAC81;" d="M119.4839,500.9879c-2.6054-6.9476-5.2107-13.8953-6.0792-19.9745
				c-0.8685-21.7114-6.0792-41.6858-10.4215-62.5287c-4.3423-16.5006-6.0792-37.3435,7.8161-47.765
				c12.1584-7.8161,26.9221-10.4215,39.9489-15.6322c6.9476-2.6053,15.6322-1.7369,21.7114-5.2107
				c2.6774-1.6065,6.0126-2.2253,8.5855-3.6829l-10.033-2.6859c-16.0535,1.038-48.3618,11.9827-63.6306,19.7365
				c-11.3297,5.7535-17.924,9.7285-12.6035,35.1028c5.3204,25.3742,14.9809,107.386,14.9809,107.386s4.3088-2.6622,7.8161-0.8684
				c0.7141,0.3652,1.366,0.7851,1.9916,1.2286C119.8981,504.3256,119.991,502.5093,119.4839,500.9879z"/>
			<path style="opacity:0.4;fill:#545454;" d="M194.5267,336.6428c-1.7933,7.119,7.7911,13.3348,10.1884,17.9795
				c1.4435,2.7967,8.6901,18.7286,7.7049,23.3831c-13.4711,2.7647-28.168-1.1367-41.6973,3.1357
				c-12.1584,3.4738-24.3167,4.3423-35.6066,9.553c-5.2107,2.6053-6.9476,12.1584-2.6054,18.2375
				c0.8685,0.8685,6.0792-0.8684,6.0792,0c10.9502,33.6329,0.0689,67.2661,0.9694,101.5335
				c11.0203-2.8243,10.438-8.7846,10.438-8.7846s1.1591-41.0059,1.5684-53.6931c0.4092-12.6871-4.9111-39.6984-6.5482-42.9726
				c-1.637-3.2741,6.229-8.5945,6.229-8.5945s26.1215-1.6342,46.2958-7.0475c5.6118-1.5058,14.4267-3.6894,20.5077-5.2343
				C233.1697,380.2973,194.5267,336.6428,194.5267,336.6428z"/>
		</g>
		<g>
			<path style="fill:#CE8452;stroke:#6B4429;stroke-miterlimit:10;" d="M74.4219,171.1194c0,0,3.6636,6.6481,4.5815,10.2527
				c0.9179,3.6046-7.5876,7.1037-8.5698,4.6232s-6.1307-10.944-4.1267-11.857C68.3109,173.2254,72.6079,170.1358,74.4219,171.1194z"
				/>
			<path style="fill:#FFA96A;stroke:#6B4429;stroke-linecap:round;stroke-linejoin:round;stroke-miterlimit:10;" d="
				M118.4282,259.2048c-10.1101-20.1881-29.1548-31.547-28.7695-46.5463c1.2651-4.8231,1.3744-11.3924-0.5349-18.7175
				c-1.9093-7.325-1.7961-9.0412-3.5508-10.3972c-1.7547-1.356-4.929-3.858-12.8968-0.559
				c-7.9678,3.299-17.4539,8.8368-15.3458,16.9249c2.1081,8.0881,7.5432,18.5323,11.2748,21.7529
				c7.3132,6.3117,20.8103,53.9961,28.4695,61.3489C104.7339,290.3643,128.5383,279.3929,118.4282,259.2048z"/>
			<path style="fill:#FFA96A;stroke:#6B4429;stroke-linecap:round;stroke-linejoin:round;stroke-miterlimit:10;" d="
				M76.178,187.6139c-1.0314-3.9576-1.1268-11.4593-1.0003-13.5949c0.1419-2.3964-0.7861-7.032-5.8921-5.6554
				c-3.5345,0.9529-3.8706,3.4281-3.339,7.0806c0.5123,3.5193,1.4338,12.1683,2.9415,15.8525
				c0.7804-0.027,1.9475-0.2107,3.5828-0.8191C74.6643,189.6615,75.7074,188.4148,76.178,187.6139z"/>
			<path style="fill:#CE8452;stroke:#6B4429;stroke-miterlimit:10;" d="M74.8762,195.726c3.1934-1.188,3.1475-3.5146,1.7217-6.8344
				c-0.1551-0.3611-0.2941-0.7946-0.4199-1.2777c-0.4706,0.8009-1.5137,2.0477-3.7071,2.8637
				c-1.6353,0.6084-2.8025,0.7921-3.5828,0.8191c0.057,0.1395,0.1147,0.274,0.1734,0.3986
				C70.6725,195.1136,71.6829,196.914,74.8762,195.726z"/>
			<path style="fill:#FFA96A;stroke:#6B4429;stroke-linecap:round;stroke-linejoin:round;stroke-miterlimit:10;" d="
				M62.8063,197.5843c-1.5328-2.855-2.8839-8.8155-3.1402-10.5577c-0.2876-1.955-1.8489-5.3817-5.8826-2.7759
				c-2.7923,1.8038-2.6536,3.879-1.5903,6.6379c1.0246,2.6582,3.2607,9.2909,5.1451,11.787
				c0.6476-0.2518,1.5918-0.743,2.8553-1.7112C61.8884,199.6656,62.5488,198.3625,62.8063,197.5843z"/>
			<path style="fill:#CE8452;stroke:#6B4429;stroke-miterlimit:10;" d="M63.0934,204.4444c2.4674-1.8908,2.0347-3.7346,0.2804-5.964
				c-0.1908-0.2425-0.3805-0.5476-0.5675-0.8961c-0.2575,0.7782-0.9179,2.0814-2.6127,3.3801
				c-1.2635,0.9683-2.2078,1.4594-2.8553,1.7112c0.0713,0.0946,0.1423,0.1849,0.2125,0.267
				C59.4765,205.1961,60.626,206.3352,63.0934,204.4444z"/>
			<path style="fill:#FFA96A;stroke:#6B4429;stroke-linecap:round;stroke-linejoin:round;stroke-miterlimit:10;" d="
				M69.8167,193.2025c-1.5688-3.6971-3.2329-13.0861-3.4059-15.2171c-0.1942-2.3912-1.7556-6.7773-6.5982-4.4039
				c-3.3523,1.643-3.3386,4.1505-2.3052,7.6461c0.9958,3.3681,3.6345,13.7242,5.6347,17.0568
				c0.7657-0.1819,1.8909-0.5953,3.4186-1.5206C68.6097,195.5228,69.4644,194.0859,69.8167,193.2025z"/>
			<path style="fill:#CE8452;stroke:#6B4429;stroke-miterlimit:10;" d="M69.6642,201.4604
				c2.9831-1.8069,2.6135-4.0918,0.7447-7.0815c-0.2033-0.3252-0.4008-0.725-0.5922-1.1763
				c-0.3523,0.8834-1.207,2.3203-3.2561,3.5614c-1.5277,0.9253-2.6529,1.3387-3.4186,1.5206
				c0.0756,0.1262,0.1513,0.2473,0.2266,0.3585C65.4337,201.693,66.681,203.2672,69.6642,201.4604z"/>
			<path style="fill:#CE8452;" d="M79.9039,207.1681c0,0-2.0663-1.4375-2.1381-3.0654s-2.288,1.2672-4.1729,0.2655
				c-1.8849-1.0017-3.6827-4.0075-3.6827-4.0075s9.181-3.8062,12.4399-0.4224c3.259,3.3838,3.5948,4.6722,3.5948,4.6722
				l-4.9765,2.1616L79.9039,207.1681z"/>
			<path style="fill:#FFA96A;stroke:#6B4429;stroke-linecap:round;stroke-linejoin:round;stroke-miterlimit:10;" d="
				M81.9984,220.3629c0,0,7.0003-1.0976,9.1449-7.922s2.7963-12.9258,1.0668-15.7979c-1.7295-2.8721-9.9314-5.8473-12.4296-5.7549
				c-2.4981,0.0923-4.8708,2.8164-6.4916,3.5868s-5.9784,0.7175-6.8496,2.2134s1.9093,7.325,5.7245,6.9101
				c3.8153-0.4149,4.7033-2.9215,7.7751-1.8881c0.6961,0.2342,1.3122,0.4926,1.8488,0.7522c1.8311,0.886,2.7362,1.786,2.7362,1.786
				s-1.9716-2.3386-3.4198-0.2932c-1.4482,2.0454-3.023,5.1423-2.9144,8.7847"/>
			<path style="fill:#E8AD85;stroke:#7C5337;stroke-linecap:round;stroke-linejoin:round;stroke-miterlimit:10;" d="
				M71.3757,196.7907c0.5981,0.7412,0.9053,1.4968,0.8339,2.2709c0,0-3.0038,1.647-4.6539-0.8497"/>
			<path style="fill:#FFA96A;stroke:#6B4429;stroke-linecap:round;stroke-linejoin:round;stroke-miterlimit:10;" d="
				M87.2757,186.4258c0,0-2.849-15.3184-3.8796-19.834c-1.0305-4.5155-10.0558-24.2824-11.8633-27.2841
				c-1.8075-3.0018-3.0591,7.1162-0.6959,13.9353c2.3632,6.8192,5.3324,17.087,5.3324,17.087s0.3653,6.2754,1.1908,12.0623"/>
			<path style="fill:#CE8452;" d="M70.8369,153.2431c2.3633,6.8192,5.3324,17.0871,5.3324,17.0871s0.3654,6.2753,1.1908,12.0622
				l1.1787,0.4796c0,0,0.4086-9.0954-0.566-13.1624s-4.5966-13.578-5.5818-17.2102c-0.9852-3.6322-1.2913-7.5247-1.2913-7.5247
				l-0.9767-3.0188C68.8697,143.5958,69.577,149.6075,70.8369,153.2431z"/>
		</g>
		<path style="fill:#CE8452;" d="M68.6052,221.6626c7.3132,6.3118,20.8102,53.9959,28.4694,61.3488
			c-6.7616-12.4399-15.8825-41.437-17.3352-42.7393c-1.6798-1.5058-1.6135-2.0618-2.713-7.3279
			c-1.0995-5.2661-3.5659-11.1998-5.1677-15.3303c-1.3967-3.6016-4.1494-5.0866-12.8355-12.4661
			C61.6162,212.0106,65.6457,219.1083,68.6052,221.6626z"/>
		<g>
			
				<path style="fill:#E1E9F5;stroke:#7788A1;stroke-width:0.691;stroke-linecap:round;stroke-linejoin:round;stroke-miterlimit:10;" d="
				M90.9171,217.3359c3.0296,1.1929,4.3578,8.7003,4.3578,8.7003s-6.0763,12.8315-17.0877,13.9169
				c-2.7326-1.1636-4.6044-10.5142-4.6044-10.5142C76.5483,229.6053,88.1722,226.4486,90.9171,217.3359z"/>
			<g>
				<path style="fill:#EDF2F9;" d="M93.0436,228.7354c1.416-1.5725,2.2313-2.6993,2.2313-2.6993s-1.3023-7.4321-4.3107-8.6789
					l-0.0762,0.0643c-0.4018,1.3002-0.9874,2.4451-1.7014,3.4548C91.9747,223.2462,93.3105,225.0851,93.0436,228.7354z"/>
				<path style="fill:#C7D7EE;" d="M73.6028,229.6154c0,0,1.8545,9.1976,4.5844,10.3376c0.8377-0.0828,1.645-0.2589,2.4282-0.4973
					c-1.5696-1.1578-1.6509-1.9004-3.2406-6.6646c-0.3892-1.166-0.917-2.1725-1.2891-3.4148
					C75.0347,229.5738,74.1653,229.6455,73.6028,229.6154z"/>
			</g>
		</g>
		<g>
			<path style="fill:#619BBC;stroke:#2F4A56;stroke-linecap:round;stroke-linejoin:round;stroke-miterlimit:10;" d="
				M150.6223,182.6093c-0.938-0.3675-1.5194-1.039-1.8115-1.8036c-0.2411-0.1521-0.4639-0.3324-0.6605-0.5356
				c-5.3888,8.0562-10.2686,18.497-13.8085,27.0656c-2.37,5.737-15.5978,36.6958-18.3421,44.5726
				c-4.0251-7.8768-21.7807-35.6012-21.7807-35.6012c-0.0001,8.5388-20.2185,18.4146-20.2185,18.4146s13.519,39.368,26.1785,54.0225
				c9.5833,11.0936,17.6502,9.4531,26.9808,3.7816c7.0153-4.2641,38.9386-52.3039,41.2734-64.165
				c0.917-4.6574,1.1634-15.6393,0.5513-26.957C165.3063,193.1801,159.7627,186.1898,150.6223,182.6093z"/>
			<path style="fill:#95B9FF;" d="M148.804,180.7845c-0.0969-0.0614-0.1982-0.1157-0.2886-0.1863
				c-5.5332,8.1255-10.554,18.8442-14.1737,27.606c-2.37,5.737-15.5978,36.6958-18.3421,44.5726
				c-4.0251-7.8768-21.7807-35.6012-21.7807-35.6012c0,1.1758-0.3938,2.3769-1.055,3.5742c0.1306,0.4675,0.218,0.9748,0.2525,1.5354
				c0.2843,4.616,7.8553,12.5452,12.5207,20.7781c4.6654,8.2329,7.684,9.7995,9.6052,14.642
				c1.921,4.8426,3.0186,5.9403,2.4697,8.4102c0,0,1.6555-6.0435,0.4162-8.6476c-1.2393-2.6041,1.2304-6.1717,5.6214-14.9535
				c4.3908-8.7818,15.9169-42.7018,20.0334-47.9707c2.5492-3.2626,4.0813-7.932,6.1992-12.1078
				C149.5406,182.0467,149.0555,181.4561,148.804,180.7845z"/>
			<path style="opacity:0.4;fill:#545454;" d="M100.179,288.1954c9.5834,11.0936,17.6503,9.4532,26.9809,3.7816
				c7.0153-4.2642,38.9385-51.755,41.2734-63.6161c0.307-1.5597,0.5381-3.8337,0.6878-6.5871
				c-2.2914,2.1323-4.1947,3.868-5.3467,4.8501c-5.5563,4.737-20.7891,35.6044-27.9243,46.0328
				c-7.1352,10.4284-11.2517,14.5636-18.6613,18.9545c-7.4096,4.3909-11.2423-0.2744-17.2798-6.8607
				c-6.0375-6.5864-20.9821-48.3548-22.8659-50.0271c-0.4297-0.3813-0.7541-0.7087-1.0188-1.0549
				c-1.2439,0.6715-2.0239,1.0535-2.0239,1.0535S87.5195,273.5409,100.179,288.1954z"/>
		</g>
		<path style="fill:#DEE0E2;stroke:#575A5B;stroke-miterlimit:10;" d="M225.9871,155.4567l-39.7963,44.5601
			c0,0-6.1597,109.1064-4.4948,121.3148c11.2899,6.9476,54.1274,7.6159,54.1274,7.6159l10.5725-148.7398L225.9871,155.4567z"/>
		<path style="fill:#DEE0E2;stroke:#575A5B;stroke-miterlimit:10;" d="M180.8274,165.0097l5.3633,35.0071
			c0,0-6.1597,109.1064-4.4948,121.3148c-18.2375,0-26.9221-12.1584-26.9221-12.1584s-9.1188-124.189-2.6054-128.9655
			C158.6818,175.4311,180.8274,165.0097,180.8274,165.0097z"/>
		<path style="fill:#619BBC;stroke:#2F4A56;stroke-linecap:round;stroke-linejoin:round;stroke-miterlimit:10;" d="
			M230.9083,156.9041c1.0404,4.27,33.4355,24.8957,40.7888,32.4801c1.3342,7.3372-7.3161,38.5028-9.2393,52.1615
			c-0.603,4.2859-10.6091,44.0327-13.4567,67.6274c-4.0528,33.5803,11.0004,44.0017,13.8953,63.1077
			c2.4532,16.1909-46.3176,11.5794-46.3176,11.5794c-6.9476-41.1068-25.4746-42.2648-24.5308-51.3196
			c-2.2752-7.5454,7.6909-68.1198,10.6208-88.2628C205.5987,224.1349,223.6879,169.3872,230.9083,156.9041z"/>
		<path style="opacity:0.4;fill:#545454;" d="M229.1714,154.2987c1.0404,4.27,4.7765,4.9212,12.1299,12.5057
			c1.3342,7.3372-1.237,22.0022-3.1601,35.6608c-0.603,4.2859-14.1166,7.3847-14.1166,7.3847l12.6516,12.0258
			c-14.6494,21.6079-40.2687,71.8319-43.1633,96.7279c-0.2273,1.954-1.5079-0.7206-1.4649-2.5637
			c0.1839-7.8788,12.0332-70.7252,14.9631-90.8681C209.9409,205.0289,221.951,166.7818,229.1714,154.2987z"/>
		<path style="fill:#619BBC;stroke:#2F4A56;stroke-linecap:round;stroke-linejoin:round;stroke-miterlimit:10;" d="M226.566,149.088
			c1.0404,4.27,4.7765,4.9212,12.1299,12.5057c1.3342,7.3372-2.1054,26.3444-4.0286,40.0031
			c-0.603,4.2859-14.1166,7.3847-14.1166,7.3847l12.6516,12.0258c-14.6494,21.6079-36.8609,70.4621-39.7555,95.3581
			c-0.2273,1.954-0.4532-1.0876-0.5304-3.7992c-0.2243-7.8778,7.6909-68.1198,10.6208-88.2628
			C206.4671,204.1604,219.3456,161.5711,226.566,149.088z"/>
		<path style="opacity:0.4;fill:#545454;" d="M154.3396,180.2076c-5.1568,1.146-5.645,4.3423-5.2107,8.2503
			c0.4342,3.908,1.7369,29.9617-1.7369,47.3308s2.1711,50.8046-1.7369,64.2656c-3.9081,13.4611-8.3128,30.3156-8.3128,30.3156
			s7.9481,1.1343,11.7025,0.3c5.1974-1.155,4.5671-8.7841,11.0549-15.0179c7.5667-7.2705,9.3203-33.8042,11.4915-52.9102
			c2.1711-19.106,6.6309-93.8241,6.6309-93.8241S162.1556,178.4707,154.3396,180.2076z"/>
		<path style="fill:#619BBC;stroke:#2F4A56;stroke-linecap:round;stroke-linejoin:round;stroke-miterlimit:10;" d="
			M151.7342,178.4707c-5.1568,1.146-5.645,4.3423-5.2107,8.2503c0.4342,3.9081,1.7369,29.9617-1.7369,47.3308
			c-3.4738,17.3691,2.1711,50.8046-1.7369,64.2656c-3.908,13.4611-5.9072,32.1638-5.9072,32.1638s5.5425-0.7139,9.297-1.5482
			c5.1974-1.155,4.5671-8.7841,11.0549-15.0179c7.5667-7.2705,7.701-32.5325,9.8721-51.6385
			c2.1711-19.106,8.2503-95.0958,8.2503-95.0958S159.5503,176.7338,151.7342,178.4707z"/>
		<path style="opacity:0.4;fill:#545454;" d="M262.385,369.563c-3.8068-17.4487-17.2401-28.4387-13.384-60.3898
			c1.3059-10.8199,4.117-25.0353,6.8365-37.6712c-1.8521-27.0704-3.3492-48.7092-3.3492-48.7092
			c0.0585-9.2281-2.9768-19.0194,0.3545-23.329l-0.692,0.2582c0,0-8.9263,14.6759-8.9263,34.9396
			c0.1544,9.895,1.3167,63.9764-0.7098,85.6877s12.1788,61.4644,17.3692,58.4759c0.3076-0.1771,0.5797-0.2932,0.8276-0.4174
			c0.5359-0.5027,0.9847-1.0463,1.3407-1.6314c0.2076-0.5613,0.4073-1.328,0.6123-2.4215
			C262.5984,373.131,262.5034,371.5091,262.385,369.563z"/>
		<path style="fill:#619BBC;stroke:#2F4A56;stroke-linecap:round;stroke-linejoin:round;stroke-miterlimit:10;" d="
			M179.0905,160.6674c0,0-20.4087,26.0536-19.106,29.9617l9.9872,8.6846l-15.7487,8.0762c-0.5405,0.245-1.0495,1.2105-0.6048,2.2128
			c3.3559,7.5634,13.843,43.2524,8.1032,86.1094c0,0,8.2503-23.4483,10.4214-52.5415
			C174.314,214.0773,174.7482,169.7862,179.0905,160.6674z"/>
		<g>
			<path style="opacity:0.4;fill:#545454;" d="M173.4107,219.8105l-43.6356,16.4845c-2.3883,0.9024-3.4866,3.6612-2.3713,5.9579
				l34.6966,71.4804c0.9796,2.0176,3.3339,2.9573,5.4338,2.1685l37.6328-14.142c2.2628-0.8506,3.3957-3.3857,2.5197-5.6382
				l-28.6938-73.8225C178.1295,220.0793,175.6395,218.9688,173.4107,219.8105z"/>
			<path style="fill:#9DB2AA;stroke:#6F7B7F;stroke-miterlimit:10;" d="M173.7779,217.3654L130.1423,233.85
				c-2.3882,0.9023-3.4865,3.6612-2.3721,5.9579l34.6966,71.4804c0.9796,2.0177,3.3348,2.9573,5.4338,2.1686l37.6335-14.1429
				c2.2628-0.8499,3.395-3.3848,2.5197-5.6373l-28.6946-73.8225C178.4967,217.6339,176.0059,216.5233,173.7779,217.3654z"/>
			<g style="opacity:0.4;">
				<path style="fill:#545454;" d="M221.224,284.1635c0,0-5.2107,1.1585-9.553,1.4477s-10.0339-2.5723-17.2707-2.2831
					s-7.3352-5.2438-10.5199-14.7968c-3.1845-9.553-1.0134-18.0925,5.6449-18.6718c6.6584-0.5784,12.3034-0.7234,20.4087,6.5134
					c8.1054,7.2377,13.0268,6.6584,13.0268,6.6584L221.224,284.1635z"/>
				<path style="fill:#545454;" d="M194.5912,250.0045c-5.5296-0.0729-22.7419-1.5554-24.773,0.827
					c-2.0321,2.3831-11.4383,8.2944-15.7916,12.7028c-2.3187,2.3484,5.6958,3.5909,9.0628,2.2407
					c3.367-1.3493,8.8338-5.6569,11.8106-6.1784c2.9769-0.5207,11.6691-0.0729,11.6691-0.0729"/>
				<path style="fill:#545454;" d="M187.2788,258.4933c-6.8849,1.3748-16.2852,3.5968-17.4428,5.5338
					c-1.6072,2.6877-9.8973,10.0831-13.456,15.1547c-1.8955,2.702,6.2149,2.5927,9.3097,0.7006
					c3.0947-1.8913,7.7677-7.0486,10.6165-8.0587c1.9692-0.698,6.7101-1.3943,9.4487-1.7573"/>
				<path style="fill:#545454;" d="M188.886,264.4087c-6.1945,1.7556-13.506,4.2074-14.4101,6.0037
					c-1.3315,2.6443-8.838,11.8165-11.8471,16.8424c-1.6029,2.6774,6.0377,2.0193,8.8271,0.0246
					c2.7894-1.9955,7.0375-8.8092,9.6548-9.9567c1.3086-0.5733,6.51-1.7963,8.8575-2.3247"/>
				<path style="fill:#545454;" d="M190.3082,274.8946c-5.1539,1.6674-10.7437,3.8071-11.446,5.3065
					c-1.1118,2.3747-7.5277,10.6836-10.0661,15.2082c-1.3518,2.4111,5.3965,1.6368,7.8161-0.1993
					c2.4196-1.837,6.0096-7.9764,8.2978-9.0577c2.289-1.0805,9.4071-2.6461,9.4071-2.6461"/>
				<path style="fill:#545454;" d="M213.1951,259.1904c-4.6281-2.7326-2.6817-13.2389-7.024-16.1335s-7.8161-1.7369-15.6322-12.1584
					c-5.8951-7.8605-7.8161,6.3684-1.4477,12.7376c3.1244,3.1245,6.9476,6.3684,6.9476,6.3684"/>
			</g>
			<path style="fill:#619BBC;stroke:#2F4A56;stroke-miterlimit:10;" d="M271.8573,189.6508c0,0,13.9063,95.8545,13.4102,105.2913
				c-0.497,9.4368-21.853,7.2055-21.853,7.2055s-11.423,2.7308-13.4102-5.2159c-1.9862-7.9467-4.9665-76.4885-4.9665-76.4885
				c0.0941-14.8384,11.4554-25.0635,11.4554-25.0635"/>
			<path style="opacity:0.4;fill:#545454;" d="M217.9538,297.1751c-5.7306-5.9546-6.3328-12.0515-5.7459-17.9229
				c0.5869-5.8706,3.4221-21.2958,7.7025-20.2959c2.8886-0.1697,23.7824,2.4095,30.9649,2.8318
				c0.8583,0.05,1.6844,0.1425,2.4943,0.2552c-2.4595,12.9743-4.0819,24.6094-3.8988,31.3551
				c0.095,3.5265,0.2222,7.0045,0.3681,13.797C244.8598,307.1954,218.7747,298.0274,217.9538,297.1751z"/>
			<path style="fill:#273F49;stroke:#2F4A56;stroke-linecap:round;stroke-linejoin:round;stroke-miterlimit:10;" d="
				M214.8243,275.7885c0.5869-5.8713,2.3653-18.6997,6.6458-17.699c7.7601,2.8607,8.6396,14.394,8.4046,22.0897
				c-0.3613,11.8021-3.59,12.6782-8.2232,13.7426c-1.0126,0.2332-2.4052-1.0381-3.2261-1.8905
				C212.6947,286.0777,214.2374,281.6591,214.8243,275.7885z"/>
			<g>
				<path style="fill:#FFA96A;stroke:#6B4429;stroke-linecap:round;stroke-linejoin:round;stroke-miterlimit:10;" d="
					M220.3555,282.4265c0,0-5.2107,1.1585-9.553,1.4477s-10.0339-2.5723-17.2707-2.2831s-7.3352-5.2438-10.5199-14.7968
					c-3.1845-9.553-1.0134-18.0925,5.6449-18.6718c6.6584-0.5784,12.3034-0.7234,20.4087,6.5134
					c8.1054,7.2377,13.0268,6.6585,13.0268,6.6585L220.3555,282.4265z"/>
				<path style="fill:#FFA96A;stroke:#6B4429;stroke-linecap:round;stroke-linejoin:round;stroke-miterlimit:10;" d="
					M193.7227,248.2676c-5.5296-0.0729-22.7419-1.5554-24.773,0.827c-2.0321,2.3831-11.4383,8.2944-15.7916,12.7028
					c-2.3187,2.3484,5.6958,3.5909,9.0628,2.2407c3.367-1.3493,8.8338-5.6569,11.8106-6.1784
					c2.9769-0.5207,11.6691-0.0729,11.6691-0.0729"/>
				<path style="fill:#FFA96A;stroke:#6B4429;stroke-linecap:round;stroke-linejoin:round;stroke-miterlimit:10;" d="
					M186.4104,256.7563c-6.8849,1.3748-16.2852,3.5968-17.4428,5.5338c-1.6072,2.6877-9.8973,10.0831-13.456,15.1547
					c-1.8955,2.702,6.2149,2.5927,9.3097,0.7006c3.0947-1.8913,7.7677-7.0486,10.6165-8.0587
					c1.9692-0.698,6.7101-1.3943,9.4487-1.7573"/>
				<path style="fill:#FFA96A;stroke:#6B4429;stroke-linecap:round;stroke-linejoin:round;stroke-miterlimit:10;" d="
					M188.0175,262.6718c-6.1945,1.7556-13.506,4.2074-14.4101,6.0037c-1.3315,2.6443-8.838,11.8165-11.8471,16.8424
					c-1.6029,2.6774,6.0377,2.0193,8.8271,0.0246c2.7894-1.9955,7.0375-8.8092,9.6548-9.9567
					c1.3086-0.5733,6.51-1.7963,8.8575-2.3247"/>
				<path style="fill:#FFA96A;stroke:#6B4429;stroke-linecap:round;stroke-linejoin:round;stroke-miterlimit:10;" d="
					M189.4398,273.1577c-5.1539,1.6674-10.7437,3.8071-11.446,5.3065c-1.1118,2.3747-7.5277,10.6836-10.0661,15.2082
					c-1.3518,2.4111,5.3965,1.6368,7.8161-0.1993c2.4196-1.837,6.0096-7.9764,8.2978-9.0577
					c2.289-1.0805,9.4071-2.6461,9.4071-2.6461"/>
				
					<path style="fill:#FFA96A;stroke:#6B4429;stroke-width:0.9149;stroke-linecap:round;stroke-linejoin:round;stroke-miterlimit:10;" d="
					M212.3266,257.4535c-4.2345-2.4993-2.9836-10.787-6.9561-13.4356c-3.9726-2.6486-6.6203-2.9132-13.7715-12.4476
					c-5.393-7.1911-7.1503,5.8265-1.3239,11.6528c2.8581,2.8589,4.6188,5.8265,4.6188,5.8265"/>
			</g>
			<path style="fill:#DEE0E2;stroke:#575A5B;stroke-miterlimit:10;" d="M249.0044,262.3707c0,0-22.6129-2.3137-25.5481-1.4324
				c-2.9353,0.8803-5.6001-0.6106-5.6001-0.6106s3.5434,4.5169,1.9752,13.4313c-1.0644,6.0461-3.0201,9.3681-6.543,9.955
				c-3.5222,0.5877,0.3858,1.7734,3.3211,3.2414c2.9353,1.4672,33.7162,8.1706,42.3753,6.7025
				C267.6448,292.1908,249.0044,262.3707,249.0044,262.3707z"/>
			<path style="fill:#619BBC;stroke:#2F4A56;stroke-linecap:round;stroke-linejoin:round;stroke-miterlimit:10;" d="
				M282.7834,299.4115c0,0-3.4763,5.4634-8.9389,6.9536c-5.3778,1.4664-43.0301-5.3702-52.193-12.4433
				c4.6332-1.0644,7.862-2.8089,8.2232-14.6111c0.2349-7.6957-0.6446-18.3605-8.4046-21.2212
				c2.8886-0.1705,24.8281,2.4078,32.0106,2.8301c16.8866,0.9932,24.3371,14.8995,24.3371,14.8995"/>
			<path style="fill:#95B9FF;" d="M267.5151,193.993l4.3423-4.3423c0,0,13.9063,95.8545,13.4102,105.2913
				c-0.1509,2.8624-2.2254,5.1276-5.0369,6.8984c0.3994-0.7938,0.2638-1.7505,0.6946-2.5561
				C285.4693,290.7813,268.9382,194.3213,267.5151,193.993z"/>
			<path style="fill:#95B9FF;" d="M257.8722,264.0831c-7.0715-1.4146-30.9879-4.4814-33.9707-4.6272
				c-0.5912-0.463-1.2391-0.8549-1.9465-1.1636l-0.0526-0.2264c2.9056-0.1476,24.7417,2.4518,31.5781,2.8538
				c16.8866,0.9932,24.3371,14.8995,24.3371,14.8995c0.2807-0.3317,1.5401,1.5656,1.9082,4.5093
				c0.1806,1.4468-1.5639-1.7479-1.5639-1.7479S267.5015,266.0091,257.8722,264.0831z"/>
		</g>
		<g>
			<path style="fill:#FFA96A;stroke:#6B4429;stroke-miterlimit:10;" d="M224.5665,117.4202c0,0-4.2244,40.6419-0.899,47.9224
				c-0.0687,3.1409-34.2794,24.4138-38.3053,34.2916c-4.8427-11.0528-3.06-17.9068-3.06-22.8694l0.5785-35.317L224.5665,117.4202z"
				/>
			<path style="fill:#CE8452;" d="M224.5665,117.4202c0.5521-4.6624-41.6858,24.0275-41.6858,24.0275l-0.1272,7.7771
				c2.641,2.6974,15.5737,4.9177,17.9975,5.0742c6.8594,0.4423,8.464-3.5625,13.3669-10.4214
				C220.4863,134.9687,224.5665,117.4202,224.5665,117.4202"/>
			<path style="fill:#C6C6C6;stroke:#575A5B;stroke-linecap:round;stroke-linejoin:round;stroke-miterlimit:10;" d="
				M201.9901,178.4707c-9.0043,7.3251-16.6754,22.8694-16.6754,22.8694c10.4214-12.448,26.1791-16.2984,26.1791-16.2984
				S210.9935,171.1456,201.9901,178.4707z"/>
			<g>
				<path style="fill:#FFA96A;stroke:#6B4429;stroke-miterlimit:10;" d="M203.336,35.8559
					c-11.6342-0.5966-34.7594,11.3323-34.5262,26.0113c0.2324,14.6789,2.4993,30.4379,2.4993,30.4379s-4.6178,8.5149-4.3847,13.4081
					c0.2333,4.8927,1.4104,30.1211,4.9571,38.254c2.2873,5.2451,27.7431,9.1739,31.6876,6.7568
					c1.9557-1.1988,16.3098-17.9407,19.8048-30.2894c3.495-12.3493,12.3484-48.2307,6.9892-60.5798
					C225.0049,47.5058,221.5099,36.7879,203.336,35.8559z"/>
				<path style="fill:#FCBD92;" d="M171.5636,80.5108c-1.0516-5.9189,1.0712-7.9305,0.9948-12.7681
					c-0.0848-5.3413-2.9013-7.8971,1.3281-13.0289c6.8951-8.3674,22.3712-17.8568,30.429-18.7897
					c-0.3248-0.0237-0.6446-0.0513-0.9795-0.0683c-11.6342-0.5966-34.7594,11.3323-34.5262,26.0113
					c0.2324,14.6789,2.4993,30.4379,2.4993,30.4379S172.0911,83.481,171.5636,80.5108z"/>
				<path style="fill:#FCBD92;" d="M173.8866,142.3611c-3.5468-8.1328-4.1234-31.7554-4.3567-36.6481
					c-0.2332-4.8931,1.7793-13.4081,1.7793-13.4081s-4.6178,8.5149-4.3847,13.4081c0.2333,4.8927,1.4104,30.1211,4.9571,38.254
					c0.882,2.0231,5.2091,3.8499,10.4181,5.1916C189.1456,150.9219,175.7219,146.5707,173.8866,142.3611z"/>
				<path style="fill:#CE8452;" d="M200.9639,150.7238c-0.4232,0.2595-1.1068,0.4419-1.9718,0.561
					c2.1499,0.0793,3.7986-0.084,4.5772-0.561c1.9557-1.1988,16.3098-17.9407,19.8048-30.2894
					c0.2867-1.0144,0.6098-2.1873,0.9583-3.4934C216.9174,133.8297,202.9196,149.525,200.9639,150.7238z"/>
				<path style="opacity:0.4;fill:#3F4142;" d="M188.8946,51.634c5.9384-3.1965,13.8384-5.3303,23.0107-3.0201
					c9.173,2.309,20.6105,16.3607,3.8266,31.7054c0,0-0.3383-1.1194,0.2799-3.2452c0.6165-2.1266,9.0976-22.3202-6.4227-24.301
					C194.0705,50.7926,188.8946,51.634,188.8946,51.634z"/>
				<path style="fill:#564F4C;stroke:#473F3D;stroke-miterlimit:10;" d="M199.5136,74.8091c-0.9736-2.141,6.8594-2.655,8.6294-2.434
					c1.77,0.2214,1.9914,2.434,4.6468,2.8768c2.6554,0.4427,3.0981,2.2126,2.434,2.8763c-0.664,0.664-5.0894,0.2214-7.9662-1.77
					C204.3809,74.3668,200.6195,77.2432,199.5136,74.8091z"/>
				<path style="fill:#CE8452;" d="M177.2213,112.3143c-0.0153,1.4019,0.3053,5.3239,5.4227,5.9664
					c3.1312,0.3931,5.611-0.8579,7.2479-2.119"/>
				<path style="fill:#FFA96A;stroke:#6B4429;stroke-linecap:round;stroke-linejoin:round;stroke-miterlimit:10;" d="
					M189.2225,88.4409c-0.4518,3.2391-2.3719,9.9836-6.9244,14.3805c-4.5526,4.3957-8.1214,8.322-4.4084,11.3374
					c3.7104,3.0146,6.9238,2.9144,10.0135,2.1682c2.2152-0.5352,2.7435-1.0105,2.7435-1.0105"/>
				<path style="fill:#CE8452;" d="M193.5921,137.6843c-2.4603-1.3027-7.8161-4.0526-12.5926-1.8815"/>
				<path style="fill:#564F4C;stroke:#473F3D;stroke-linecap:round;stroke-linejoin:round;stroke-miterlimit:10;" d="
					M173.907,48.5753c0,0-4.8037,7.5884-6.9748,8.6701c-2.1711,1.0817-3.1278,4.4364-0.8846,9.7739
					c2.7445,6.5308,5.2616,25.2857,5.2616,25.2857c0.0407-1.1059,0.2214-4.8626-0.0347-5.82
					c-1.1576-4.3423-1.9311-11.1131-0.7243-16.2814c1.2968-5.5526-2.3153-5.7175-0.5784-12.448
					C171.4771,51.9227,176.4394,49.7333,173.907,48.5753z"/>
				<path style="fill:#564F4C;stroke:#473F3D;stroke-miterlimit:10;" d="M243.798,65.2604
					c0.9491,6.4379-1.9668,19.6819-5.3634,24.3701c-3.3966,4.6891-8.7999,16.3243-8.7999,16.3243s-3.4738,3.7686-3.3585-0.7239
					c0.4342-16.8806-1.6725-22.6871-2.987-28.7761c-1.2035-5.5745,5.4448-8.2078,3.5976-14.9088
					C225.2848,55.7396,243.1747,61.0321,243.798,65.2604z"/>
				<path style="fill:#564F4C;stroke:#473F3D;stroke-linecap:round;stroke-linejoin:round;stroke-miterlimit:10;" d="
					M223.7718,52.0842c-1.2102-1.5944,8.437-7.6044,11.334-7.6452c2.8963-0.0407,9.6395,14.8723,9.6412,20.2641
					c0.005,13.9428-8.1172,18.5801-12.1016,13.9428C226.7877,71.8272,224.983,53.6787,223.7718,52.0842z"/>
				
					<path style="fill:#564F4C;stroke:#473F3D;stroke-width:1.034;stroke-linecap:round;stroke-linejoin:round;stroke-miterlimit:10;" d="
					M169.6593,55.3864c0,0-1.107-16.6576,11.5894-22.7701c12.6991-6.113,23.4992-7.8242,39.2341,0.7456
					c15.7331,8.5711,14.6352,7.0332,15.2095,9.6251c0.5743,2.5923-9.1568,7.1534-13.2759,5.6492
					c-4.1181-1.5056-15.8726-5.2467-28.2953-0.8413C181.6975,52.2003,173.7063,59.12,169.6593,55.3864z"/>
				<path style="fill:#726A67;" d="M184.5806,51.5731c2.7326-1.3462,5.8024-2.7724,9.2354-3.9892
					c2.9981-1.0641,5.9539-1.5652,8.7682-1.698c0.0217-0.0275,0.0406-0.0512,0.0605-0.0779
					c6.7247-8.8912,19.2668-8.9462,28.1573-7.0049c-1.5705-1.2005-4.0275-1.9294-8.3917-4.3698
					C210.2444,35.2401,187.802,38.039,184.5806,51.5731z"/>
				<path style="fill:#726A67;" d="M180.2528,53.325c0,0-3.2337-11.9212,9.4458-17.5202
					c7.5186-3.3194,17.8297-4.7979,26.8209-4.4298c-1.474-0.674-2.9052-1.257-4.3009-1.7468
					c-13.9881-0.2674-28.023,2.5214-32.1967,7.0674c-6.1619,6.7101-5.0035,15.4926-3.6605,18.8143
					c1.1859-0.4644,2.4848-1.0784,3.9024-1.7782C180.2559,53.475,180.2528,53.325,180.2528,53.325z"/>
				<path style="fill:#564F4C;" d="M180.2528,53.325c0,0,0.003,0.1501,0.0109,0.4067c1.3323-0.66,2.7697-1.3958,4.3168-2.1585
					c3.2215-13.5341,25.6638-16.3331,37.8297-17.1398c-0.907-0.5082-0.8616-0.4895-1.9275-1.0714
					c-1.3563-0.7385-2.6762-1.3961-3.9633-1.987c-8.9913-0.3681-19.3023,1.1104-26.8209,4.4298
					C177.0191,41.4037,180.2528,53.325,180.2528,53.325z"/>
				<path style="fill:#726A67;stroke:#473F3D;stroke-linecap:round;stroke-linejoin:round;stroke-miterlimit:10;" d="
					M189.4518,51.2701c5.9401-3.1969,13.4305-6.6974,22.6027-4.3876c9.1714,2.3097,20.6089,16.3619,3.8267,31.7058
					c0,0-0.3392-1.1182,0.2782-3.2448c0.6166-2.1262,9.2469-24.0509-6.2742-26.032
					C194.3657,47.332,189.4518,51.2701,189.4518,51.2701z"/>
				<path style="fill:#564F4C;stroke:#473F3D;stroke-linecap:round;stroke-linejoin:round;stroke-miterlimit:10;" d="
					M186.7828,51.913c0,0,12.2975-8.7545,26.9899-7.2805c14.69,1.4735,18.7159,7.9195,17.7728,18.9516
					c-0.9431,11.0325-9.5021,16.8386-9.5021,16.8386s7.437-20.7199-1.2917-28.2205
					C212.024,44.7012,194.2732,48.4133,186.7828,51.913z"/>
				<path style="fill:#564F4C;stroke:#473F3D;stroke-miterlimit:10;" d="M189.0489,74.3388c0,0-1.6054-3.1078-8.0273-3.4921
					c-6.42-0.3833-8.3122,5.6195-8.3122,5.6195s1.0407,0.5801,2.9099-0.0704c1.8701-0.6506,7.4192-2.1644,9.5573-1.4422
					C187.3137,75.6767,189.0489,74.3388,189.0489,74.3388z"/>
				
					<path style="fill:#FFA96A;stroke:#6B4429;stroke-width:0.8981;stroke-linecap:round;stroke-linejoin:round;stroke-miterlimit:10;" d="
					M174.8933,124.6265c2.8946,2.6054,14.7298,6.658,24.1548,0.5788"/>
				<path style="fill:#FFA96A;stroke:#6B4429;stroke-width:0.7398;stroke-miterlimit:10;" d="M225.9455,98.4834
					c0,0,6.2946-7.507,10.218-3.7079c3.925,3.7999-1.3163,19.3672-6.1402,23.4034c-4.824,4.0357-6.153-1.5622-6.153-1.5622"/>
				<path style="fill:#FFA96A;stroke:#6B4429;stroke-width:0.7398;stroke-miterlimit:10;" d="M230.9137,101.2508
					c3.2312-0.687,1.6613,5.9956-0.8855,7.2317c-2.5468,1.2353-1.8802,4.7062-1.7683,6.1789"/>
			</g>
			<path style="fill:#DEE0E2;stroke:#575A5B;stroke-linecap:round;stroke-linejoin:round;stroke-miterlimit:10;" d="
				M222.6574,145.3248c0,0,1.0135,1.3642-2.0261,6.8335c-3.0396,5.4694-18.5267,25.5885-18.5267,25.5885
				s-0.8685,1.3031,2.1711,1.4477c3.0396,0.1446,8.6837,7.9611,12.3025,11.2899c3.6189,3.3288,9.2647,6.3209,12.0142,5.5487
				c2.7495-0.7722-3.908-5.4041-3.6189-12.3518c0.2892-6.9476,0.145-16.6452,1.8819-22.2902S228.8808,145.6145,222.6574,145.3248z"
				/>
			<path style="fill:#C6C6C6;stroke:#575A5B;stroke-linecap:round;stroke-linejoin:round;stroke-miterlimit:10;" d="
				M178.4833,178.1815c1.5919,3.908,0.6072,9.8422,2.3441,13.7502c1.7369,3.908,4.4882,6.803,4.4873,9.4084
				s0.4334-9.4703-1.3036-13.9262c-1.7369-4.4559-1.1576-35.2556-1.1576-35.2556s-4.0531,7.2928-4.0531,12.3157
				C178.8004,169.497,176.8914,174.2735,178.4833,178.1815z"/>
			<path style="fill:#DEE0E2;stroke:#575A5B;stroke-miterlimit:10;" d="M182.8535,152.1584c0,0-5.6441,11.1144-8.9737,14.0094
				c-3.3297,2.895-8.5395,24.6165-5.645,32.4276c0,0,0.4342-6.8701,3.4738-11.1814c3.0396-4.3114,7.0918-10.2455,7.526-13.1405
				C179.6689,171.3785,179.3797,161.3077,182.8535,152.1584z"/>
		</g>
		<g>
			<path style="fill:#452109;" d="M214.5935,94.8737c0,0,0.7596-6.2387-5.0965-6.6849s-11.049-1.3134-12.0471,4.968
				C196.9774,95.0705,207.6932,97.0123,214.5935,94.8737z"/>
			<path style="fill:#FFFFFF;" d="M214.4356,96.2094c0,0,0.1747-5.642-5.6814-6.0882s-11.1026,0.1644-11.5579,4.0498
				C196.7238,96.0847,207.5353,98.3479,214.4356,96.2094z"/>
			<g>
				<defs>
					<path id="SVGID_55_" d="M214.4356,96.2094c0,0,0.1747-5.642-5.6814-6.0882s-11.1026,0.1644-11.5579,4.0498
						C196.7238,96.0847,207.5353,98.3479,214.4356,96.2094z"/>
				</defs>
				<clipPath id="SVGID_4_">
					<use xlink:href="#SVGID_55_"  style="overflow:visible;"/>
				</clipPath>
				
					<ellipse transform="matrix(0.1174 -0.9931 0.9931 0.1174 88.2922 286.7328)" style="clip-path:url(#SVGID_4_);fill:#A85715;" cx="205.4629" cy="93.6929" rx="4.7111" ry="4.7111"/>
				
					<ellipse transform="matrix(0.1174 -0.9931 0.9931 0.1174 88.2922 286.7328)" style="clip-path:url(#SVGID_4_);fill:#3D1800;" cx="205.4629" cy="93.6929" rx="2.3867" ry="2.3867"/>
				
					<ellipse transform="matrix(0.1174 -0.9931 0.9931 0.1174 86.4553 283.4076)" style="clip-path:url(#SVGID_4_);fill:#FFFFFF;" cx="202.6736" cy="93.0638" rx="1.2151" ry="1.2151"/>
			</g>
			<path style="fill:#452109;" d="M171.4941,90.6352c0,0,0.3216-5.563,5.5014-5.0284c5.1798,0.5346,9.8474,0.5973,9.7271,6.2352
				C186.8329,93.5863,177.1772,93.5897,171.4941,90.6352z"/>
			<path style="fill:#FFFFFF;" d="M171.4212,91.8254c0,0,0.7377-4.9501,5.9175-4.4155c5.1798,0.5346,9.6609,1.8952,9.4452,5.357
				C186.8942,94.5112,177.1042,94.78,171.4212,91.8254z"/>
			<g>
				<defs>
					<path id="SVGID_57_" d="M171.4212,91.8254c0,0,0.7377-4.9501,5.9175-4.4155c5.1798,0.5346,9.6609,1.8952,9.4452,5.357
						C186.8942,94.5112,177.1042,94.78,171.4212,91.8254z"/>
				</defs>
				<clipPath id="SVGID_6_">
					<use xlink:href="#SVGID_57_"  style="overflow:visible;"/>
				</clipPath>
				
					<ellipse transform="matrix(0.0612 -0.9981 0.9981 0.0612 77.7831 264.7869)" style="clip-path:url(#SVGID_6_);fill:#A85715;" cx="179.6468" cy="91.0455" rx="4.177" ry="4.177"/>
				
					<ellipse transform="matrix(0.0612 -0.9981 0.9981 0.0612 77.7831 264.7869)" style="clip-path:url(#SVGID_6_);fill:#3D1800;" cx="179.6468" cy="91.0455" rx="2.1624" ry="2.1624"/>
				
					<ellipse transform="matrix(0.0612 -0.9981 0.9981 0.0612 77.1113 260.3811)" style="clip-path:url(#SVGID_6_);fill:#FFFFFF;" cx="176.9689" cy="89.1998" rx="1.0773" ry="1.0773"/>
			</g>
		</g>
		<path style="fill:#619BBC;stroke:#2F4A56;stroke-linecap:round;stroke-linejoin:round;stroke-miterlimit:10;" d="
			M262.8963,372.2809c-0.1404-0.9269-0.3172-1.8282-0.5113-2.7179c0.1184,1.9461,0.2134,3.568,0.2798,4.7919
			c-0.205,1.0935-0.4048,1.8602-0.6123,2.4215C262.8332,375.4929,263.1577,374.0059,262.8963,372.2809z"/>
		<path style="opacity:0.4;fill:#545454;" d="M262.0525,376.7764c-0.356,0.5851-0.8048,1.1288-1.3407,1.6314
			C261.2469,378.1397,261.6645,377.8256,262.0525,376.7764z"/>
	</g>
</g>
</svg>
