<?xml version="1.0" encoding="utf-8"?>
<!-- Generator: Adobe Illustrator 21.0.2, SVG Export Plug-In . SVG Version: 6.00 Build 0)  -->
<svg version="1.1" id="Capa_1" xmlns="http://www.w3.org/2000/svg" xmlns:xlink="http://www.w3.org/1999/xlink" x="0px" y="0px"
	 viewBox="0 0 934.8945 416.1718" style="enable-background:new 0 0 934.8945 416.1718;" xml:space="preserve">
<polygon style="fill:#FFFFFF;stroke:#093751;stroke-miterlimit:10;" points="934.3945,400.5428 313.0989,400.5428 
	292.7691,415.5428 273.7687,400.5428 0.5,400.5428 0.5,0.5 934.3945,0.5 "/>
<polygon points="69.1667,35.0529 0.5,35.0529 0.5,8.7487 69.1667,8.7487 81.1667,21.9008 "/>
<g>
	<path style="fill:#FFFFFF;" d="M24.9156,27.9407c-0.2334,0.5415-0.5527,1.0156-0.959,1.4219s-0.8818,0.7256-1.4277,0.9585
		s-1.1279,0.3491-1.7461,0.3491h-5.7637V12.4651h5.7637c0.6182,0,1.2002,0.1162,1.7461,0.3491s1.0215,0.5522,1.4277,0.9585
		s0.7256,0.8823,0.959,1.4282c0.2324,0.5459,0.3486,1.1279,0.3486,1.7456v9.2549C25.2642,26.8191,25.148,27.3992,24.9156,27.9407z
		 M23.6265,16.9466c0-0.4063-0.0762-0.7852-0.2285-1.1362c-0.1523-0.3511-0.3613-0.6602-0.6279-0.9268s-0.5762-0.4761-0.9268-0.6284
		c-0.3516-0.1523-0.7305-0.2285-1.1367-0.2285h-4.0498v15.082h4.0498c0.4063,0,0.7852-0.0762,1.1367-0.2285
		c0.3506-0.1523,0.6602-0.3599,0.9268-0.6221s0.4756-0.5693,0.6279-0.9204s0.2285-0.73,0.2285-1.1362V16.9466z"/>
	<path style="fill:#FFFFFF;" d="M36.8043,30.6702l-0.8633-1.2949c-0.3555,0.4653-0.7998,0.8398-1.333,1.1235
		s-1.1172,0.4253-1.752,0.4253h-0.3936c-0.5244,0-1.0195-0.0996-1.4854-0.2983c-0.4648-0.1987-0.8711-0.4717-1.2188-0.8188
		c-0.3467-0.3472-0.6201-0.7534-0.8184-1.2188c-0.1992-0.4653-0.2988-0.9604-0.2988-1.4854v-0.127
		c0-0.5249,0.0996-1.02,0.2988-1.4854c0.1982-0.4653,0.4717-0.8716,0.8184-1.2188c0.3477-0.3472,0.7539-0.6201,1.2188-0.8188
		c0.4658-0.1987,0.9609-0.2983,1.4854-0.2983h3.3008v-2.0059c0-0.313-0.0586-0.6074-0.1777-0.8823
		c-0.1182-0.2749-0.2793-0.5142-0.4824-0.7173s-0.4424-0.3638-0.7168-0.4824c-0.2754-0.1187-0.5693-0.1777-0.8828-0.1777h-0.9141
		c-0.3125,0-0.6074,0.0591-0.8818,0.1777c-0.2754,0.1187-0.5146,0.2793-0.7178,0.4824s-0.3633,0.4424-0.4824,0.7173
		c-0.1182,0.2749-0.1777,0.5693-0.1777,0.8823v0.4697l-1.5615-0.2539v-0.127c0-0.5249,0.0996-1.02,0.2988-1.4854
		c0.1982-0.4653,0.4717-0.8716,0.8184-1.2188c0.3477-0.3472,0.7539-0.6201,1.2188-0.8188c0.4658-0.1987,0.9609-0.2983,1.4854-0.2983
		h0.9141c0.5254,0,1.0205,0.0996,1.4854,0.2983c0.4658,0.1987,0.8721,0.4717,1.2188,0.8188
		c0.3477,0.3472,0.6201,0.7534,0.8193,1.2188c0.1982,0.4653,0.2979,0.9604,0.2979,1.4854v9.4326H36.8043z M35.7633,24.3733h-3.3008
		c-0.3125,0-0.6074,0.0591-0.8818,0.1777c-0.2754,0.1187-0.5146,0.2813-0.7178,0.4888s-0.3633,0.4487-0.4824,0.7236
		c-0.1182,0.2749-0.1777,0.5693-0.1777,0.8823v0.5459c0,0.313,0.0596,0.6074,0.1777,0.8823
		c0.1191,0.2749,0.2793,0.5142,0.4824,0.7173s0.4424,0.3638,0.7178,0.4824c0.2744,0.1187,0.5693,0.1777,0.8818,0.1777h1.041
		c0.3135,0,0.6074-0.0591,0.8828-0.1777c0.2744-0.1187,0.5137-0.2793,0.7168-0.4824s0.3643-0.4424,0.4824-0.7173
		c0.1191-0.2749,0.1777-0.5693,0.1777-0.8823V24.3733z"/>
	<path style="fill:#FFFFFF;" d="M45.1832,30.6702c-0.4736,0-0.9199-0.0889-1.3389-0.2666s-0.7832-0.4233-1.0918-0.7363
		c-0.3096-0.313-0.5547-0.6772-0.7363-1.0918c-0.1826-0.4146-0.2734-0.8589-0.2734-1.333v-8.0869h-2.3359v-1.4854h2.3359v-3.123
		l1.5615-0.2539v3.377h3.3008v1.4854h-3.3008v8.1631c0,0.2622,0.0488,0.5059,0.1465,0.73c0.0967,0.2241,0.2305,0.4209,0.3994,0.5903
		c0.1699,0.1694,0.3682,0.3027,0.5967,0.3999s0.4746,0.146,0.7363,0.146h1.4219v1.4854H45.1832z"/>
	<path style="fill:#FFFFFF;" d="M57.8599,28.5882c-0.1992,0.4653-0.4717,0.8716-0.8193,1.2188
		c-0.3467,0.3472-0.7529,0.6201-1.2188,0.8188c-0.4648,0.1987-0.96,0.2983-1.4854,0.2983h-1.041
		c-0.5244,0-1.0195-0.0996-1.4854-0.2983c-0.4648-0.1987-0.8711-0.4717-1.2188-0.8188c-0.3467-0.3472-0.6201-0.7534-0.8184-1.2188
		c-0.1992-0.4653-0.2988-0.9604-0.2988-1.4854v-5.8652c0-0.5249,0.0996-1.02,0.2988-1.4854
		c0.1982-0.4653,0.4717-0.8716,0.8184-1.2188c0.3477-0.3472,0.7539-0.6201,1.2188-0.8188c0.4658-0.1987,0.9609-0.2983,1.4854-0.2983
		h1.041c0.5254,0,1.0205,0.0996,1.4854,0.2983c0.4658,0.1987,0.8721,0.4717,1.2188,0.8188
		c0.3477,0.3472,0.6201,0.7534,0.8193,1.2188c0.1982,0.4653,0.2979,0.9604,0.2979,1.4854v5.8652
		C58.1578,27.6277,58.0582,28.1228,57.8599,28.5882z M56.5963,21.1487c0-0.313-0.0586-0.6074-0.1777-0.8823
		c-0.1182-0.2749-0.2793-0.5142-0.4824-0.7173s-0.4424-0.3638-0.7168-0.4824c-0.2754-0.1187-0.5693-0.1777-0.8828-0.1777h-1.041
		c-0.3125,0-0.6074,0.0591-0.8818,0.1777c-0.2754,0.1187-0.5146,0.2793-0.7178,0.4824s-0.3633,0.4424-0.4824,0.7173
		c-0.1182,0.2749-0.1777,0.5693-0.1777,0.8823v6.043c0,0.313,0.0596,0.6074,0.1777,0.8823
		c0.1191,0.2749,0.2793,0.5142,0.4824,0.7173s0.4424,0.3638,0.7178,0.4824c0.2744,0.1187,0.5693,0.1777,0.8818,0.1777h1.041
		c0.3135,0,0.6074-0.0591,0.8828-0.1777c0.2744-0.1187,0.5137-0.2793,0.7168-0.4824s0.3643-0.4424,0.4824-0.7173
		c0.1191-0.2749,0.1777-0.5693,0.1777-0.8823V21.1487z"/>
</g>
</svg>
