<?xml version="1.0" encoding="utf-8"?>
<!-- Generator: Adobe Illustrator 21.0.2, SVG Export Plug-In . SVG Version: 6.00 Build 0)  -->
<svg version="1.1" id="Capa_1" xmlns="http://www.w3.org/2000/svg" xmlns:xlink="http://www.w3.org/1999/xlink" x="0px" y="0px"
	 viewBox="0 0 220 51.576" style="enable-background:new 0 0 220 51.576;" xml:space="preserve">
<g>
	<g id="XMLID_5256_">
		<polygon id="XMLID_5257_" style="fill:#A03628;" points="198.1899,0.5001 220,25.7881 198.1899,51.076 178.3365,51.076 
			200.1466,25.7881 178.3365,0.5001 198.1899,0.5001 		"/>
	</g>
	<g id="XMLID_5253_">
		<polygon id="XMLID_5254_" style="fill:#A03628;" points="21.8101,51.0759 0,25.7879 21.8101,0.5 41.6635,0.5 19.8534,25.7879 
			41.6635,51.0759 21.8101,51.0759 		"/>
	</g>
	<polygon id="XMLID_5251_" style="fill:#C9452F;stroke:#C9452F;stroke-miterlimit:10;" points="47.671,0.5 172.329,0.5001 
		194.1391,25.7881 172.329,51.076 47.671,51.0759 25.8609,25.7879 	"/>
	<g>
		<g>
			<path style="fill:#FFFFFF;" d="M48.386,25.2295c0-1.5332,0.2285-2.8193,0.6875-3.8599c0.3418-0.7666,0.8086-1.4541,1.4014-2.0635
				c0.5918-0.6089,1.2402-1.0605,1.9453-1.355c0.9375-0.397,2.0186-0.5952,3.2432-0.5952c2.2178,0,3.9922,0.6875,5.3232,2.063
				c1.3311,1.376,1.9961,3.2886,1.9961,5.7388c0,2.4292-0.6602,4.3301-1.9805,5.7021c-1.3213,1.3726-3.0869,2.0586-5.2969,2.0586
				c-2.2383,0-4.0176-0.6826-5.3389-2.0483C49.0462,29.5049,48.386,27.625,48.386,25.2295z M51.5169,25.127
				c0,1.7041,0.3936,2.9956,1.1807,3.875c0.7861,0.8794,1.7861,1.3193,2.9971,1.3193s2.2051-0.4365,2.9824-1.3091
				c0.7764-0.8726,1.165-2.1812,1.165-3.9268c0-1.7241-0.3779-3.0107-1.1348-3.8594c-0.7559-0.8486-1.7607-1.2729-3.0127-1.2729
				s-2.2617,0.4292-3.0283,1.2881S51.5169,23.3955,51.5169,25.127z"/>
			<path style="fill:#FFFFFF;" d="M65.2513,21.7598h2.6895v1.6016c0.3496-0.5479,0.8213-0.9927,1.417-1.335
				c0.5957-0.3418,1.2559-0.5132,1.9814-0.5132c1.2656,0,2.3398,0.4966,3.2227,1.4888s1.3242,2.3745,1.3242,4.147
				c0,1.8208-0.4443,3.2354-1.334,4.2451c-0.8896,1.0093-1.9678,1.5142-3.2334,1.5142c-0.6025,0-1.1484-0.1201-1.6377-0.3594
				c-0.4893-0.2397-1.0049-0.6504-1.5449-1.2319v5.4922h-2.8848V21.7598z M68.1048,27.0259c0,1.2251,0.2432,2.1299,0.7295,2.7153
				c0.4854,0.585,1.0781,0.8774,1.7754,0.8774c0.6709,0,1.2285-0.2686,1.6738-0.8057c0.4443-0.5371,0.667-1.4185,0.667-2.6436
				c0-1.1426-0.2295-1.9912-0.6875-2.5459c-0.459-0.5542-1.0264-0.8315-1.7041-0.8315c-0.7051,0-1.29,0.2725-1.7559,0.8164
				C68.3382,25.1524,68.1048,25.9585,68.1048,27.0259z"/>
			<path style="fill:#FFFFFF;" d="M84.4896,29.1919l2.874,0.4824c-0.3691,1.0542-0.9531,1.8564-1.75,2.4072
				c-0.7969,0.5513-1.7949,0.8267-2.9922,0.8267c-1.8955,0-3.2988-0.6196-4.209-1.8584c-0.7188-0.9922-1.0781-2.2446-1.0781-3.7568
				c0-1.8071,0.4727-3.2217,1.417-4.2451c0.9443-1.0229,2.1387-1.5347,3.583-1.5347c1.6211,0,2.9014,0.5356,3.8389,1.6064
				c0.9375,1.0713,1.3857,2.7119,1.3447,4.9224h-7.2266c0.0205,0.856,0.2529,1.521,0.6973,1.9966
				c0.4453,0.4761,1,0.7139,1.6631,0.7139c0.4521,0,0.832-0.1235,1.1396-0.3696C84.0999,30.1362,84.3323,29.7393,84.4896,29.1919z
				 M84.6536,26.2764c-0.0205-0.835-0.2363-1.4692-0.6465-1.9043c-0.4102-0.4346-0.9102-0.6519-1.499-0.6519
				c-0.6299,0-1.1494,0.2295-1.5605,0.688c-0.4102,0.4585-0.6123,1.0815-0.6055,1.8682H84.6536z"/>
			<path style="fill:#FFFFFF;" d="M92.6302,32.6616h-2.8848V21.7598h2.6797v1.5498c0.458-0.7319,0.8701-1.2144,1.2363-1.4473
				c0.3662-0.2324,0.7822-0.3491,1.248-0.3491c0.6563,0,1.2891,0.1816,1.8984,0.5439l-0.8926,2.5151
				c-0.4863-0.3145-0.9375-0.4722-1.3555-0.4722c-0.4033,0-0.7461,0.1113-1.0264,0.3335c-0.2803,0.2227-0.501,0.625-0.6621,1.2065
				s-0.2412,1.7998-0.2412,3.6543V32.6616z"/>
			<path style="fill:#FFFFFF;" d="M100.2064,25.0855l-2.6182-0.4722c0.2939-1.0537,0.8008-1.834,1.5195-2.3403
				s1.7861-0.7598,3.2031-0.7598c1.2861,0,2.2441,0.1523,2.874,0.457s1.0723,0.6914,1.3291,1.1597
				c0.2568,0.4692,0.3848,1.3296,0.3848,2.582l-0.0303,3.3672c0,0.958,0.0459,1.6646,0.1387,2.1196
				c0.0918,0.4551,0.2646,0.9429,0.5186,1.4629h-2.8545c-0.0752-0.1914-0.167-0.4756-0.2764-0.8521
				c-0.0488-0.1709-0.083-0.2837-0.1035-0.3389c-0.4922,0.479-1.0195,0.8384-1.5801,1.0781
				c-0.5615,0.2393-1.1602,0.3594-1.7969,0.3594c-1.1221,0-2.0068-0.3047-2.6533-0.9141c-0.6475-0.6089-0.9707-1.3789-0.9707-2.3096
				c0-0.6157,0.1475-1.165,0.4414-1.6475c0.2949-0.4824,0.707-0.8521,1.2373-1.1089c0.5303-0.2563,1.2949-0.4805,2.2939-0.6724
				c1.3486-0.2529,2.2832-0.4893,2.8027-0.708v-0.2876c0-0.5542-0.1367-0.9497-0.4102-1.1855
				c-0.2744-0.2363-0.791-0.3545-1.5508-0.3545c-0.5127,0-0.9131,0.1011-1.2002,0.3032
				C100.6165,24.2251,100.3841,24.5791,100.2064,25.0855z M104.0657,27.4263c-0.3691,0.123-0.9541,0.2705-1.7549,0.4414
				s-1.3242,0.3389-1.5713,0.5029c-0.376,0.2671-0.5645,0.6055-0.5645,1.0161c0,0.4043,0.1504,0.7529,0.4521,1.0474
				c0.3008,0.2944,0.6836,0.4414,1.1494,0.4414c0.5205,0,1.0166-0.1709,1.4883-0.5132c0.3496-0.2603,0.5781-0.5786,0.6885-0.9551
				c0.0752-0.2461,0.1123-0.7148,0.1123-1.4063V27.4263z"/>
			<path style="fill:#FFFFFF;" d="M119.2484,24.9829l-2.8438,0.5132c-0.0957-0.5679-0.3125-0.9956-0.6514-1.2832
				c-0.3389-0.2871-0.7783-0.4312-1.3193-0.4312c-0.7188,0-1.292,0.2485-1.7197,0.7446s-0.6416,1.3257-0.6416,2.4893
				c0,1.2935,0.2178,2.207,0.6523,2.7407c0.4346,0.5342,1.0176,0.8008,1.75,0.8008c0.5479,0,0.9961-0.1558,1.3447-0.4668
				c0.3496-0.3115,0.5957-0.8472,0.7393-1.6069l2.833,0.4824c-0.2939,1.3008-0.8584,2.2827-1.6934,2.9463
				c-0.835,0.6641-1.9541,0.9961-3.3564,0.9961c-1.5947,0-2.8662-0.5034-3.8145-1.5093c-0.9473-1.0059-1.4209-2.3984-1.4209-4.1782
				c0-1.7998,0.4756-3.2007,1.4268-4.2036c0.9512-1.0024,2.2373-1.5039,3.8594-1.5039c1.3281,0,2.3838,0.2861,3.167,0.8574
				S118.9066,23.813,119.2484,24.9829z"/>
			<path style="fill:#FFFFFF;" d="M121.4349,20.2813v-2.6689h2.8848v2.6689H121.4349z M121.4349,32.6616V21.7598h2.8848v10.9019
				H121.4349z"/>
			<path style="fill:#FFFFFF;" d="M126.6087,27.0567c0-0.958,0.2363-1.8853,0.708-2.7817c0.4727-0.8965,1.1416-1.5811,2.0068-2.0532
				c0.8662-0.4722,1.833-0.7085,2.9004-0.7085c1.6494,0,3.001,0.5356,4.0547,1.6064c1.0537,1.0713,1.5811,2.4248,1.5811,4.0601
				c0,1.6494-0.5322,3.0166-1.5967,4.1011c-1.0635,1.085-2.4033,1.6274-4.0186,1.6274c-0.999,0-1.9521-0.2261-2.8594-0.6777
				c-0.9063-0.4517-1.5957-1.1138-2.0684-1.9863C126.845,29.3716,126.6087,28.3091,126.6087,27.0567z M129.5648,27.2105
				c0,1.0815,0.2568,1.9097,0.7705,2.4844c0.5127,0.5747,1.1455,0.8623,1.8984,0.8623s1.3848-0.2876,1.8945-0.8623
				s0.7646-1.4097,0.7646-2.5049c0-1.0674-0.2549-1.8887-0.7646-2.4634c-0.5098-0.5752-1.1416-0.8623-1.8945-0.8623
				s-1.3857,0.2871-1.8984,0.8623C129.8216,25.3013,129.5648,26.1294,129.5648,27.2105z"/>
			<path style="fill:#FFFFFF;" d="M150.0345,32.6616h-2.8848v-5.564c0-1.1768-0.0615-1.9385-0.1846-2.2842
				c-0.123-0.3452-0.3232-0.6138-0.6006-0.8057c-0.2773-0.1914-0.6113-0.2876-1.001-0.2876c-0.5,0-0.9482,0.1372-1.3447,0.4106
				c-0.3975,0.2739-0.6689,0.6367-0.8164,1.0884s-0.2207,1.2866-0.2207,2.5049v4.9375h-2.8848V21.7598h2.6797v1.6016
				c0.9512-1.2319,2.1484-1.8481,3.5928-1.8481c0.6367,0,1.2178,0.1147,1.7451,0.3442c0.5273,0.229,0.9258,0.5215,1.1963,0.8774
				c0.2695,0.356,0.458,0.7598,0.5645,1.2114c0.1055,0.4517,0.1592,1.0981,0.1592,1.9399V32.6616z"/>
			<path style="fill:#FFFFFF;" d="M159.2737,29.1919l2.874,0.4824c-0.3691,1.0542-0.9531,1.8564-1.75,2.4072
				c-0.7969,0.5513-1.7949,0.8267-2.9922,0.8267c-1.8955,0-3.2988-0.6196-4.209-1.8584c-0.7188-0.9922-1.0781-2.2446-1.0781-3.7568
				c0-1.8071,0.4727-3.2217,1.417-4.2451c0.9443-1.0229,2.1387-1.5347,3.583-1.5347c1.6211,0,2.9014,0.5356,3.8389,1.6064
				c0.9375,1.0713,1.3857,2.7119,1.3447,4.9224h-7.2266c0.0205,0.856,0.2529,1.521,0.6973,1.9966
				c0.4453,0.4761,1,0.7139,1.6631,0.7139c0.4521,0,0.832-0.1235,1.1396-0.3696C158.8841,30.1362,159.1165,29.7393,159.2737,29.1919
				z M159.4378,26.2764c-0.0205-0.835-0.2363-1.4692-0.6465-1.9043c-0.4102-0.4346-0.9102-0.6519-1.499-0.6519
				c-0.6299,0-1.1494,0.2295-1.5605,0.688c-0.4102,0.4585-0.6123,1.0815-0.6055,1.8682H159.4378z"/>
			<path style="fill:#FFFFFF;" d="M163.637,29.5513l2.8945-0.4414c0.123,0.561,0.373,0.9873,0.749,1.2778
				c0.377,0.291,0.9033,0.4365,1.5811,0.4365c0.7461,0,1.3076-0.1367,1.6836-0.4106c0.2529-0.1914,0.3799-0.4482,0.3799-0.77
				c0-0.2188-0.0684-0.4004-0.2051-0.5439c-0.1436-0.1367-0.4658-0.2637-0.9648-0.3799c-2.3271-0.5132-3.8018-0.9819-4.4248-1.4063
				c-0.8623-0.5889-1.293-1.4067-1.293-2.4536c0-0.9443,0.3721-1.7383,1.1182-2.3818c0.7461-0.6431,1.9023-0.9648,3.4697-0.9648
				c1.4922,0,2.6006,0.2432,3.3262,0.729s1.2256,1.2046,1.499,2.1558l-2.7207,0.5029c-0.1162-0.4243-0.3369-0.7495-0.6621-0.9751
				c-0.3252-0.2261-0.7891-0.3389-1.3906-0.3389c-0.7598,0-1.3037,0.106-1.6318,0.3184c-0.2197,0.1504-0.3291,0.3457-0.3291,0.585
				c0,0.2056,0.0957,0.3799,0.2871,0.5234c0.2607,0.1919,1.1582,0.4619,2.6953,0.811c1.5361,0.3491,2.6084,0.7769,3.2178,1.2832
				c0.6025,0.5132,0.9033,1.2285,0.9033,2.1455c0,0.9995-0.417,1.8579-1.252,2.5767s-2.0703,1.0781-3.7061,1.0781
				c-1.4854,0-2.6602-0.3013-3.5264-0.9038C164.47,31.4024,163.9036,30.5845,163.637,29.5513z"/>
		</g>
	</g>
</g>
</svg>
