<?xml version="1.0" encoding="utf-8"?>
<!-- Generator: Adobe Illustrator 21.0.2, SVG Export Plug-In . SVG Version: 6.00 Build 0)  -->
<svg version="1.1" id="Capa_1" xmlns="http://www.w3.org/2000/svg" xmlns:xlink="http://www.w3.org/1999/xlink" x="0px" y="0px"
	 viewBox="0 0 934.8945 416.1718" style="enable-background:new 0 0 934.8945 416.1718;" xml:space="preserve">
<polygon style="fill:#FFFFFF;stroke:#093751;stroke-miterlimit:10;" points="934.3945,400.5428 488.2485,400.5428 
	467.9188,415.5428 448.9184,400.5428 0.5,400.5428 0.5,0.5 934.3945,0.5 "/>
<polygon style="fill:#F9CA35;" points="133.1667,35.0529 1.5,35.0529 1.5,8.7487 133.1667,8.7487 145.1667,21.9008 "/>
<g>
	<path d="M15.0211,30.6682V12.4632h1.6377v18.2051H15.0211z"/>
	<path d="M27.4244,30.6682v-9.5215c0-0.313-0.0591-0.6074-0.1777-0.8823s-0.2793-0.5142-0.4824-0.7173s-0.4424-0.3638-0.7173-0.4824
		s-0.5693-0.1777-0.8823-0.1777h-1.041c-0.313,0-0.6074,0.0591-0.8823,0.1777s-0.5142,0.2793-0.7173,0.4824
		s-0.3638,0.4424-0.4824,0.7173s-0.1777,0.5693-0.1777,0.8823v9.5215h-1.5615v-13h0.5205l0.8506,1.3203
		c0.3555-0.4824,0.8018-0.8652,1.3394-1.1489s1.1235-0.4253,1.7583-0.4253h0.3936c0.5249,0,1.02,0.0996,1.4854,0.2983
		s0.8716,0.4717,1.2188,0.8188s0.6201,0.7534,0.8188,1.2188s0.2983,0.9604,0.2983,1.4854v9.4326H27.4244z"/>
	<path d="M36.5777,13.9485c-0.2622,0-0.5059,0.0488-0.73,0.146s-0.4209,0.2305-0.5903,0.3999s-0.3027,0.3682-0.3999,0.5967
		s-0.146,0.4741-0.146,0.7363v1.8408h3.0342v1.4854h-3.0342v11.5146H33.15V19.1536h-2.3486v-1.4854H33.15v-1.7646
		c0-0.4741,0.0889-0.9204,0.2666-1.3394s0.4233-0.7852,0.7363-1.0981s0.6772-0.5586,1.0918-0.7363s0.8589-0.2666,1.333-0.2666
		h1.4346v1.4854H36.5777z"/>
	<path d="M47.9591,28.5862c-0.1987,0.4653-0.4717,0.8716-0.8188,1.2188s-0.7534,0.6201-1.2188,0.8188s-0.9604,0.2983-1.4854,0.2983
		h-1.041c-0.5249,0-1.02-0.0996-1.4854-0.2983s-0.8716-0.4717-1.2188-0.8188s-0.6201-0.7534-0.8188-1.2188
		s-0.2983-0.9604-0.2983-1.4854v-5.8652c0-0.5249,0.0996-1.02,0.2983-1.4854s0.4717-0.8716,0.8188-1.2188
		s0.7534-0.6201,1.2188-0.8188s0.9604-0.2983,1.4854-0.2983h1.041c0.5249,0,1.02,0.0996,1.4854,0.2983s0.8716,0.4717,1.2188,0.8188
		s0.6201,0.7534,0.8188,1.2188s0.2983,0.9604,0.2983,1.4854v5.8652C48.2574,27.6258,48.1578,28.1209,47.9591,28.5862z
		 M46.6959,21.1468c0-0.313-0.0591-0.6074-0.1777-0.8823s-0.2793-0.5142-0.4824-0.7173s-0.4424-0.3638-0.7173-0.4824
		s-0.5693-0.1777-0.8823-0.1777h-1.041c-0.313,0-0.6074,0.0591-0.8823,0.1777s-0.5142,0.2793-0.7173,0.4824
		s-0.3638,0.4424-0.4824,0.7173s-0.1777,0.5693-0.1777,0.8823v6.043c0,0.313,0.0591,0.6074,0.1777,0.8823
		s0.2793,0.5142,0.4824,0.7173s0.4424,0.3638,0.7173,0.4824s0.5693,0.1777,0.8823,0.1777h1.041c0.313,0,0.6074-0.0591,0.8823-0.1777
		s0.5142-0.2793,0.7173-0.4824s0.3638-0.4424,0.4824-0.7173s0.1777-0.5693,0.1777-0.8823V21.1468z"/>
	<path d="M55.2017,19.1536c-0.313,0-0.6074,0.0591-0.8823,0.1777s-0.5142,0.2793-0.7173,0.4824s-0.3638,0.4424-0.4824,0.7173
		s-0.1777,0.5693-0.1777,0.8823v9.2549h-1.5615v-13h0.5205l0.8506,1.3203c0.3555-0.4824,0.8018-0.8652,1.3394-1.1489
		s1.1235-0.4253,1.7583-0.4253h0.9141v1.7393H55.2017z"/>
	<path d="M72.5689,30.6682v-9.5215c0-0.313-0.0591-0.6074-0.1777-0.8823s-0.2793-0.5142-0.4824-0.7173s-0.4424-0.3638-0.7173-0.4824
		s-0.5693-0.1777-0.8823-0.1777h-0.7744c-0.313,0-0.6074,0.0591-0.8823,0.1777s-0.5161,0.2793-0.7236,0.4824
		s-0.3701,0.4424-0.4888,0.7173s-0.1777,0.5693-0.1777,0.8823v9.5215h-1.5488v-9.5215c0-0.313-0.0591-0.6074-0.1777-0.8823
		s-0.2813-0.5142-0.4888-0.7173s-0.4487-0.3638-0.7236-0.4824S63.754,18.887,63.441,18.887h-0.7744
		c-0.313,0-0.6074,0.0591-0.8823,0.1777s-0.5142,0.2793-0.7173,0.4824s-0.3638,0.4424-0.4824,0.7173s-0.1777,0.5693-0.1777,0.8823
		v9.5215h-1.5615v-13h0.5205l0.8506,1.3203c0.3555-0.4824,0.8018-0.8652,1.3394-1.1489s1.1235-0.4253,1.7583-0.4253h0.127
		c0.7363,0,1.4009,0.1821,1.9932,0.5459s1.0493,0.8462,1.3711,1.4473c0.1606-0.2964,0.3599-0.5669,0.5967-0.8125
		s0.4995-0.4551,0.7871-0.6284s0.6011-0.3091,0.9395-0.4063s0.6899-0.146,1.0537-0.146h0.127c0.5249,0,1.02,0.0996,1.4854,0.2983
		s0.8716,0.4717,1.2188,0.8188s0.6201,0.7534,0.8188,1.2188s0.2983,0.9604,0.2983,1.4854v9.4326H72.5689z"/>
	<path d="M85.4166,30.6682l-0.8633-1.2949c-0.3555,0.4653-0.7998,0.8398-1.333,1.1235s-1.1172,0.4253-1.752,0.4253h-0.3936
		c-0.5249,0-1.02-0.0996-1.4854-0.2983s-0.8716-0.4717-1.2188-0.8188s-0.6201-0.7534-0.8188-1.2188s-0.2983-0.9604-0.2983-1.4854
		v-0.127c0-0.5249,0.0996-1.02,0.2983-1.4854s0.4717-0.8716,0.8188-1.2188s0.7534-0.6201,1.2188-0.8188s0.9604-0.2983,1.4854-0.2983
		h3.3008v-2.0059c0-0.313-0.0591-0.6074-0.1777-0.8823s-0.2793-0.5142-0.4824-0.7173s-0.4424-0.3638-0.7173-0.4824
		s-0.5693-0.1777-0.8823-0.1777h-0.9141c-0.313,0-0.6074,0.0591-0.8823,0.1777s-0.5142,0.2793-0.7173,0.4824
		s-0.3638,0.4424-0.4824,0.7173s-0.1777,0.5693-0.1777,0.8823v0.4697l-1.5615-0.2539v-0.127c0-0.5249,0.0996-1.02,0.2983-1.4854
		s0.4717-0.8716,0.8188-1.2188s0.7534-0.6201,1.2188-0.8188s0.9604-0.2983,1.4854-0.2983h0.9141c0.5249,0,1.02,0.0996,1.4854,0.2983
		s0.8716,0.4717,1.2188,0.8188s0.6201,0.7534,0.8188,1.2188s0.2983,0.9604,0.2983,1.4854v9.4326H85.4166z M84.3756,24.3714h-3.3008
		c-0.313,0-0.6074,0.0591-0.8823,0.1777s-0.5142,0.2813-0.7173,0.4888s-0.3638,0.4487-0.4824,0.7236s-0.1777,0.5693-0.1777,0.8823
		v0.5459c0,0.313,0.0591,0.6074,0.1777,0.8823s0.2793,0.5142,0.4824,0.7173s0.4424,0.3638,0.7173,0.4824
		s0.5693,0.1777,0.8823,0.1777h1.041c0.313,0,0.6074-0.0591,0.8823-0.1777s0.5142-0.2793,0.7173-0.4824s0.3638-0.4424,0.4824-0.7173
		s0.1777-0.5693,0.1777-0.8823V24.3714z"/>
	<path d="M97.4454,28.5862c-0.1987,0.4653-0.4717,0.8716-0.8188,1.2188s-0.7534,0.6201-1.2188,0.8188s-0.9604,0.2983-1.4854,0.2983
		h-1.041c-0.5249,0-1.02-0.0996-1.4854-0.2983s-0.8716-0.4717-1.2188-0.8188s-0.6201-0.7534-0.8188-1.2188
		s-0.2983-0.9604-0.2983-1.4854v-5.8652c0-0.5249,0.0996-1.02,0.2983-1.4854s0.4717-0.8716,0.8188-1.2188
		s0.7534-0.6201,1.2188-0.8188s0.9604-0.2983,1.4854-0.2983h1.041c0.5249,0,1.02,0.0996,1.4854,0.2983s0.8716,0.4717,1.2188,0.8188
		s0.6201,0.7534,0.8188,1.2188s0.2983,0.9604,0.2983,1.4854v0.5205L96.1822,22.01v-0.8633c0-0.313-0.0591-0.6074-0.1777-0.8823
		s-0.2793-0.5142-0.4824-0.7173s-0.4424-0.3638-0.7173-0.4824s-0.5693-0.1777-0.8823-0.1777h-1.041
		c-0.313,0-0.6074,0.0591-0.8823,0.1777s-0.5142,0.2793-0.7173,0.4824s-0.3638,0.4424-0.4824,0.7173s-0.1777,0.5693-0.1777,0.8823
		v6.043c0,0.313,0.0591,0.6074,0.1777,0.8823s0.2793,0.5142,0.4824,0.7173s0.4424,0.3638,0.7173,0.4824s0.5693,0.1777,0.8823,0.1777
		h1.041c0.313,0,0.6074-0.0591,0.8823-0.1777s0.5142-0.2793,0.7173-0.4824s0.3638-0.4424,0.4824-0.7173s0.1777-0.5693,0.1777-0.8823
		v-0.8633l1.5615,0.2539v0.5205C97.7437,27.6258,97.6441,28.1209,97.4454,28.5862z"/>
	<path d="M101.2603,14.5452v-2.082h1.8154v2.082H101.2603z M101.3873,30.6682v-13h1.5615v13H101.3873z"/>
	<path d="M114.9776,28.5862c-0.1987,0.4653-0.4717,0.8716-0.8188,1.2188s-0.7534,0.6201-1.2188,0.8188s-0.9604,0.2983-1.4854,0.2983
		h-1.041c-0.5249,0-1.02-0.0996-1.4854-0.2983s-0.8716-0.4717-1.2188-0.8188s-0.6201-0.7534-0.8188-1.2188
		s-0.2983-0.9604-0.2983-1.4854v-5.8652c0-0.5249,0.0996-1.02,0.2983-1.4854s0.4717-0.8716,0.8188-1.2188
		s0.7534-0.6201,1.2188-0.8188s0.9604-0.2983,1.4854-0.2983h1.041c0.5249,0,1.02,0.0996,1.4854,0.2983s0.8716,0.4717,1.2188,0.8188
		s0.6201,0.7534,0.8188,1.2188s0.2983,0.9604,0.2983,1.4854v5.8652C115.276,27.6258,115.1763,28.1209,114.9776,28.5862z
		 M113.7144,21.1468c0-0.313-0.0591-0.6074-0.1777-0.8823s-0.2793-0.5142-0.4824-0.7173s-0.4424-0.3638-0.7173-0.4824
		s-0.5693-0.1777-0.8823-0.1777h-1.041c-0.313,0-0.6074,0.0591-0.8823,0.1777s-0.5142,0.2793-0.7173,0.4824
		s-0.3638,0.4424-0.4824,0.7173s-0.1777,0.5693-0.1777,0.8823v6.043c0,0.313,0.0591,0.6074,0.1777,0.8823
		s0.2793,0.5142,0.4824,0.7173s0.4424,0.3638,0.7173,0.4824s0.5693,0.1777,0.8823,0.1777h1.041c0.313,0,0.6074-0.0591,0.8823-0.1777
		s0.5142-0.2793,0.7173-0.4824s0.3638-0.4424,0.4824-0.7173s0.1777-0.5693,0.1777-0.8823V21.1468z M110.2867,15.5862h-1.168
		l2.0693-3.123h2.6025L110.2867,15.5862z"/>
	<path d="M125.5211,30.6682v-9.5215c0-0.313-0.0586-0.6074-0.1777-0.8823c-0.1182-0.2749-0.2793-0.5142-0.4824-0.7173
		s-0.4424-0.3638-0.7173-0.4824s-0.5693-0.1777-0.8823-0.1777h-1.041c-0.313,0-0.6074,0.0591-0.8823,0.1777
		s-0.5142,0.2793-0.7173,0.4824s-0.3638,0.4424-0.4824,0.7173s-0.1777,0.5693-0.1777,0.8823v9.5215h-1.5615v-13h0.5205
		l0.8506,1.3203c0.3555-0.4824,0.8018-0.8652,1.3394-1.1489s1.1235-0.4253,1.7583-0.4253h0.3936c0.5249,0,1.02,0.0996,1.4854,0.2983
		c0.4658,0.1987,0.8721,0.4717,1.2188,0.8188c0.3477,0.3472,0.6201,0.7534,0.8193,1.2188c0.1982,0.4653,0.2979,0.9604,0.2979,1.4854
		v9.4326H125.5211z"/>
</g>
<g>
	<defs>
		<rect id="SVGID_53_" x="67.4321" y="-513.4908" width="321.1045" height="452.7973"/>
	</defs>
	<clipPath id="SVGID_2_">
		<use xlink:href="#SVGID_53_"  style="overflow:visible;"/>
	</clipPath>
	<g style="clip-path:url(#SVGID_2_);">
		<g>
			<circle style="fill:#1A1B1C;stroke:#000000;stroke-miterlimit:10;" cx="253.9345" cy="34.5037" r="11.9671"/>
			<circle style="fill:#1A1B1C;stroke:#000000;stroke-miterlimit:10;" cx="218.739" cy="32.1607" r="11.4212"/>
			<circle style="fill:#1A1B1C;stroke:#000000;stroke-miterlimit:10;" cx="289.1102" cy="32.1607" r="11.4212"/>
			<circle style="fill:#A0A6AA;" cx="253.9345" cy="34.5037" r="8.3678"/>
			<circle style="fill:#A0A6AA;" cx="218.739" cy="32.1607" r="7.4275"/>
			<circle style="fill:#A0A6AA;" cx="289.1102" cy="32.1607" r="7.4275"/>
			<circle style="fill:#1A1B1C;stroke:#000000;stroke-miterlimit:10;" cx="253.9598" cy="33.2748" r="7.1389"/>
			<circle style="fill:#1A1B1C;stroke:#000000;stroke-miterlimit:10;" cx="218.739" cy="31.3873" r="6.2224"/>
			<circle style="fill:#1A1B1C;stroke:#000000;stroke-miterlimit:10;" cx="289.1102" cy="31.3873" r="6.0247"/>
			<path style="fill:#808589;stroke:#656C70;stroke-miterlimit:10;" d="M212.5165,5.8425
				c1.7573-9.1769,19.4277-9.0793,19.4277-9.0793h10.2019v-5.0888c0-0.9908,0.8031-1.7939,1.7939-1.7939h20.2819
				c0.9908,0,1.7939,0.8031,1.7939,1.7939v5.0888h14.9368c15.7179,0,14.0948,11.5199,14.0948,11.5199v14.3996
				c0,1.9071-1.5461,3.4533-3.4532,3.4533h-4.8331c-1.9072,0-3.4532-1.5461-3.4532-3.4533v-1.3081c0,0.0854,0-1.2156,0-5.379
				c0-11.5199-7.6271-10.8365-7.6271-10.8365l-15.73-0.0705V23.982c0,1.1895-0.9644,2.1539-2.1539,2.1539h-7.4318
				c-1.1895,0-2.1539-0.9644-2.1539-2.1539V5.0359l-16.0717-0.0721c-6.0062,0-7.118,5.406-7.2854,8.305V23.738
				c0,1.3243-1.0736,2.3979-2.3979,2.3979h-6.9437c-1.3243,0-2.3979-1.0736-2.3979-2.3979V6.3855
				c0-0.0306,0.0079-0.0591,0.009-0.0895L212.5165,5.8425z"/>
			<path style="fill:#A0A6AA;" d="M253.8058-0.1616c0,0,5.7667-0.5125,5.547,4.7593l0.0061,18.0121c0,0,0.7261,3.4553-3.4474,2.7528
				c0,0,1.318,0.1028,1.9769-3.1921l0.1465-17.646C258.0349,4.5245,257.338,0.8635,253.8058-0.1616z"/>
			<path style="fill:#A0A6AA;" d="M286.1512-1.9921c0,0,8.4935,0.8054,8.1274,11.5687l0.0115,12.0813
				c0,0,1.3797,4.1735-5.1369,3.661c0,0,2.8556-0.9519,2.5627-6.8827l-0.1464-12.008
				C291.5695,6.4282,291.7892,2.1083,286.1512-1.9921z"/>
		</g>
		<g>
			<path style="fill:#593A11;" d="M48.1966,12.2482c6.3287,8.8602,26.1517,9.8336,49.5247,8.3728
				c2.2875-0.143,12.419-1.7454,14.5847-1.893c1.7444-0.1189,5.0103-3.6906,6.6627-3.8102c2.3606-0.1708,3.097,2.4986,5.2011,2.9439
				c6.8225,1.4437,14.3131-2.4574,15.4659-4.2759c0,0,2.0889-13.9873-2.4695-21.2832c-4.5584-7.2959-39.3391-2.0463-39.3391-2.0463
				S62.5939,0.8798,47.9857,3.3145C46.8777,4.6415,45.7619,8.8396,48.1966,12.2482z"/>
			<path style="fill:#76531E;stroke:#664614;stroke-miterlimit:10;" d="M48.1966,6.7231
				c6.3287,8.8602,27.7555,8.7649,51.1285,7.3041S140.504,7.21,140.504,7.21s0.352-18.033-4.2065-25.3289
				c-4.5584-7.2959-38.4706-2.0463-38.4706-2.0463S72.7203-3.6751,55.5585-4.1951C48.8907-4.3972,45.7619,3.3145,48.1966,6.7231z"/>
		</g>
		<g>
			<path style="fill:#593A11;" d="M159.1198-13.0822c0,0,1.1577,15.343-6.6584,23.4483
				c-7.8161,8.1062-22.2905,12.3034-24.3167,19.5402c-2.0261,7.2377,0.2893,9.4088,1.7369,11.2899
				c1.4477,1.8819,17.6584,7.9611,34.449,4.7765c16.7898-3.1838,14.7637-14.1845,22.5798-17.3691
				c7.8161-3.1838,10.6394-6.906,10.6394-6.906s2.5019-6.1496,0.1858-11.6495c-2.3162-5.5007-5.3253-24.8672-5.3253-24.8672
				L159.1198-13.0822z"/>
			<path style="fill:#76531E;stroke:#664614;stroke-miterlimit:10;" d="M159.1198-18.2929c0,0,1.1577,15.343-6.6584,23.4483
				c-7.8161,8.1062-22.2905,11.58-24.3167,18.8168c-2.0261,7.2368-0.5792,11.5791-0.5792,11.5791s19.9744,8.3954,36.7651,5.2107
				c16.7898-3.1838,14.7637-14.1845,22.5798-17.3691c7.8161-3.1838,10.7106-12.7368,10.7106-12.7368s0-13.8953-2.3161-19.3961
				c-2.3154-5.4999-2.8947-11.2899-2.8947-11.2899L159.1198-18.2929z"/>
		</g>
	</g>
</g>
</svg>
