<?xml version="1.0" encoding="utf-8"?>
<!-- Generator: Adobe Illustrator 21.0.2, SVG Export Plug-In . SVG Version: 6.00 Build 0)  -->
<svg version="1.1" id="Capa_1" xmlns="http://www.w3.org/2000/svg" xmlns:xlink="http://www.w3.org/1999/xlink" x="0px" y="0px"
	 viewBox="0 0 342.6667 201.8736" style="enable-background:new 0 0 342.6667 201.8736;" xml:space="preserve">
<polygon style="fill:#CED3D6;" points="98.0437,201.8736 74.2012,161.2968 74.2012,82.453 10.7025,89.1871 0,0 342.6667,13.9844 
	336.6667,80.3427 304,95.0955 309.3333,148.5531 137.3333,155.6143 "/>
<g>
	<g id="Document_5_">
		<path style="fill:#3F3F3F;" d="M106.6276,82.5502c0,0,1.951-10.1067,2.4832-10.1067c0.5314,0,2.4816,0.2952,10.64,2.3634
			c8.1584,2.0701,15.075,3.843,15.075,3.843s3.0147,0.8856,3.7242-1.1521c0.7093-2.0396,0.3551-2.0396,4.4334-0.9769
			c4.0792,1.0645,10.2865,2.8374,10.2865,2.8374s1.951,0.7104,1.951,2.1291s0,2.4815,0,2.4815l6.3835,1.5977
			c0,0,2.4833,0.5314,1.2408,4.7877c-1.2408,4.2563-15.2505,53.2048-15.2505,53.2048L106.6276,82.5502z"/>
		<path style="fill:#F1C40F;" d="M105.5639,81.4875c0,0,1.9501-10.1085,2.4824-10.1085s2.4833,0.2952,10.6408,2.3634
			c8.1574,2.0701,15.0751,3.843,15.0751,3.843s3.0138,0.8874,3.7231-1.1522c0.7103-2.0396,0.3552-2.0396,4.4344-0.975
			c4.0782,1.0627,10.2865,2.8357,10.2865,2.8357s1.9501,0.7102,1.9501,2.1291c0,1.4187,0,2.4832,0,2.4832l6.3837,1.596
			c0,0,2.4832,0.5313,1.2426,4.7877c-1.2426,4.2563-15.2513,53.2047-15.2513,53.2047L105.5639,81.4875z"/>
		<path style="fill:#4C4C4C;" d="M148.6423,139.8987l-10.0924-47.7713c0,0,0.5322-2.1272-2.8385-3.3688
			c-3.3688-1.2417-5.319-1.4189-5.319-1.4189s0.5923-3.5459-3.0736-4.6105c-3.6659-1.0645-14.4838-4.4352-14.4838-4.4352
			l-1.5968,1.0645v1.2417l-21.1044-6.5608l-2.0691,0.7675l12.3556,45.1645l47.1745,23.5878L148.6423,139.8987z"/>
		<path style="fill:#E67E22;" d="M147.5947,143.5592L136.9539,93.192c0,0,0.5314-2.1273-2.8375-3.3689
			c-3.3699-1.2416-5.3209-1.4187-5.3209-1.4187s0.5931-3.5478-3.0736-4.6106c-3.6659-1.0646-14.4838-4.4353-14.4838-4.4353
			l-1.596,2.3062l-21.1052-6.5625c0,0-1.0637-1.773,0,3.3707c1.0645,5.1419,10.2865,42.5631,10.2865,42.5631L147.5947,143.5592z"/>
	</g>
	<g>
		<g>
			<path d="M176.724,112.1722V100.719h1.5156v11.4531H176.724z"/>
			<path d="M180.7318,112.1722v-8.2969h1.2656v1.1797c0.6094-0.9111,1.4893-1.3672,2.6406-1.3672c0.5,0,0.96,0.0898,1.3789,0.2695
				s0.7334,0.415,0.9414,0.707s0.3545,0.6377,0.4375,1.0391c0.0518,0.2607,0.0781,0.7158,0.0781,1.3672v5.1016h-1.4063v-5.0469
				c0-0.5732-0.0547-1.001-0.1641-1.2852s-0.3037-0.5107-0.582-0.6797s-0.6055-0.2539-0.9805-0.2539
				c-0.5986,0-1.1162,0.1904-1.5508,0.5703s-0.6523,1.1016-0.6523,2.1641v4.5313H180.7318z"/>
			<path d="M189.9661,112.1722v-7.2031h-1.2422v-1.0938h1.2422v-0.8828c0-0.5576,0.0498-0.9717,0.1484-1.2422
				c0.1357-0.3643,0.374-0.6602,0.7148-0.8867s0.8193-0.3398,1.4336-0.3398c0.3955,0,0.833,0.0469,1.3125,0.1406l-0.2109,1.2266
				c-0.292-0.0518-0.5674-0.0781-0.8281-0.0781c-0.4268,0-0.7295,0.0908-0.9063,0.2734s-0.2656,0.5234-0.2656,1.0234v0.7656h1.6172
				v1.0938h-1.6172v7.2031H189.9661z"/>
			<path d="M193.5521,108.0237c0-1.5361,0.4268-2.6748,1.2813-3.4141c0.7139-0.6143,1.583-0.9219,2.6094-0.9219
				c1.1406,0,2.0732,0.374,2.7969,1.1211s1.0859,1.7803,1.0859,3.0977c0,1.0674-0.1602,1.9072-0.4805,2.5195
				s-0.7861,1.0869-1.3984,1.4258s-1.2803,0.5078-2.0039,0.5078c-1.1611,0-2.1006-0.3721-2.8164-1.1172
				S193.5521,109.4251,193.5521,108.0237z M194.9974,108.0237c0,1.0625,0.2314,1.8584,0.6953,2.3867s1.0469,0.793,1.75,0.793
				c0.6982,0,1.2783-0.2656,1.7422-0.7969s0.6953-1.3408,0.6953-2.4297c0-1.0264-0.2334-1.8037-0.6992-2.332
				s-1.0459-0.793-1.7383-0.793c-0.7031,0-1.2861,0.2627-1.75,0.7891S194.9974,106.9612,194.9974,108.0237z"/>
			<path d="M202.9583,112.1722v-8.2969h1.2656v1.2578c0.3232-0.5889,0.6211-0.9766,0.8945-1.1641s0.5742-0.2813,0.9023-0.2813
				c0.4736,0,0.9561,0.1514,1.4453,0.4531l-0.4844,1.3047c-0.3438-0.2031-0.6875-0.3047-1.0313-0.3047
				c-0.3076,0-0.583,0.0928-0.8281,0.2773s-0.4189,0.4414-0.5234,0.7695c-0.1563,0.5-0.2344,1.0469-0.2344,1.6406v4.3438H202.9583z"
				/>
			<path d="M208.3021,112.1722v-8.2969h1.2578v1.1641c0.2607-0.4063,0.6064-0.7334,1.0391-0.9805s0.9248-0.3711,1.4766-0.3711
				c0.6143,0,1.1182,0.1279,1.5117,0.3828s0.6709,0.6123,0.832,1.0703c0.6563-0.9688,1.5107-1.4531,2.5625-1.4531
				c0.8232,0,1.4561,0.2275,1.8984,0.6836s0.6641,1.1572,0.6641,2.1055v5.6953h-1.3984v-5.2266
				c0-0.5625-0.0459-0.9678-0.1367-1.2148s-0.2568-0.4463-0.4961-0.5977s-0.5205-0.2266-0.8438-0.2266
				c-0.583,0-1.0674,0.1943-1.4531,0.582s-0.5781,1.0088-0.5781,1.8633v4.8203h-1.4063v-5.3906c0-0.625-0.1143-1.0938-0.3438-1.4063
				s-0.6045-0.4688-1.125-0.4688c-0.3955,0-0.7617,0.1045-1.0977,0.3125s-0.5791,0.5127-0.7305,0.9141s-0.2266,0.9795-0.2266,1.7344
				v4.3047H208.3021z"/>
			<path d="M227.0443,111.1487c-0.5205,0.4424-1.0225,0.7549-1.5039,0.9375s-0.999,0.2734-1.5508,0.2734
				c-0.9111,0-1.6123-0.2227-2.1016-0.668s-0.7344-1.0146-0.7344-1.707c0-0.4063,0.0928-0.7773,0.2773-1.1133
				s0.4268-0.6055,0.7266-0.8086s0.6367-0.3564,1.0117-0.4609c0.2764-0.0732,0.6924-0.1436,1.25-0.2109
				c1.1357-0.1357,1.9717-0.2969,2.5078-0.4844c0.0049-0.1924,0.0078-0.3154,0.0078-0.3672c0-0.5732-0.1328-0.9766-0.3984-1.2109
				c-0.3594-0.3174-0.8936-0.4766-1.6016-0.4766c-0.6611,0-1.1494,0.1162-1.4648,0.3477s-0.5479,0.6416-0.6992,1.2305l-1.375-0.1875
				c0.125-0.5889,0.3311-1.0635,0.6172-1.4258s0.7002-0.6406,1.2422-0.8359s1.1689-0.293,1.8828-0.293
				c0.708,0,1.2842,0.083,1.7266,0.25s0.7686,0.376,0.9766,0.6289s0.3545,0.5713,0.4375,0.957
				c0.0469,0.2393,0.0703,0.6719,0.0703,1.2969v1.875c0,1.3076,0.0303,2.1338,0.0898,2.4805s0.1787,0.6787,0.3555,0.9961h-1.4688
				C227.18,111.8802,227.0863,111.5393,227.0443,111.1487z M226.9271,108.0081c-0.5107,0.208-1.2764,0.3857-2.2969,0.5313
				c-0.5781,0.083-0.9873,0.1768-1.2266,0.2813s-0.4248,0.2568-0.5547,0.457s-0.1953,0.4229-0.1953,0.668
				c0,0.375,0.1416,0.6875,0.4258,0.9375s0.6992,0.375,1.2461,0.375c0.542,0,1.0234-0.1182,1.4453-0.3555
				s0.7314-0.5615,0.9297-0.9727c0.1514-0.3174,0.2266-0.7861,0.2266-1.4063V108.0081z"/>
			<path d="M235.9427,109.1331l1.3828,0.1797c-0.1514,0.9531-0.5381,1.6992-1.1602,2.2383s-1.3867,0.8086-2.293,0.8086
				c-1.1357,0-2.0479-0.3711-2.7383-1.1133s-1.0352-1.8057-1.0352-3.1914c0-0.8955,0.1484-1.6797,0.4453-2.3516
				s0.749-1.1758,1.3555-1.5117s1.2666-0.5039,1.9805-0.5039c0.9014,0,1.6377,0.2275,2.2109,0.6836s0.9404,1.1025,1.1016,1.9414
				l-1.3672,0.2109c-0.1299-0.5576-0.3604-0.9766-0.6914-1.2578s-0.7305-0.4219-1.1992-0.4219c-0.708,0-1.2842,0.2539-1.7266,0.7617
				s-0.6641,1.3115-0.6641,2.4102c0,1.1143,0.2139,1.9248,0.6406,2.4297s0.9844,0.7578,1.6719,0.7578
				c0.5518,0,1.0127-0.1689,1.3828-0.5078S235.8441,109.8362,235.9427,109.1331z"/>
			<path d="M238.5365,102.3362v-1.6172h1.4063v1.6172H238.5365z M238.5365,112.1722v-8.2969h1.4063v8.2969H238.5365z"/>
			<path d="M241.5599,108.0237c0-1.5361,0.4268-2.6748,1.2813-3.4141c0.7139-0.6143,1.583-0.9219,2.6094-0.9219
				c1.1406,0,2.0732,0.374,2.7969,1.1211s1.0859,1.7803,1.0859,3.0977c0,1.0674-0.1602,1.9072-0.4805,2.5195
				s-0.7861,1.0869-1.3984,1.4258s-1.2803,0.5078-2.0039,0.5078c-1.1611,0-2.1006-0.3721-2.8164-1.1172
				S241.5599,109.4251,241.5599,108.0237z M243.0052,108.0237c0,1.0625,0.2314,1.8584,0.6953,2.3867s1.0469,0.793,1.75,0.793
				c0.6982,0,1.2783-0.2656,1.7422-0.7969s0.6953-1.3408,0.6953-2.4297c0-1.0264-0.2334-1.8037-0.6992-2.332
				s-1.0459-0.793-1.7383-0.793c-0.7031,0-1.2861,0.2627-1.75,0.7891S243.0052,106.9612,243.0052,108.0237z M244.6693,102.844
				l1.0391-2.1875h1.8438l-1.7188,2.1875H244.6693z"/>
			<path d="M250.9818,112.1722v-8.2969h1.2656v1.1797c0.6094-0.9111,1.4893-1.3672,2.6406-1.3672c0.5,0,0.96,0.0898,1.3789,0.2695
				c0.4189,0.1797,0.7334,0.415,0.9414,0.707s0.3545,0.6377,0.4375,1.0391c0.0518,0.2607,0.0781,0.7158,0.0781,1.3672v5.1016
				h-1.4063v-5.0469c0-0.5732-0.0547-1.001-0.1641-1.2852s-0.3037-0.5107-0.582-0.6797s-0.6055-0.2539-0.9805-0.2539
				c-0.5986,0-1.1162,0.1904-1.5508,0.5703s-0.6523,1.1016-0.6523,2.1641v4.5313H250.9818z"/>
		</g>
	</g>
	<g>
		<g>
			<path d="M184.638,128.0223l1.5156,0.3828c-0.3174,1.2451-0.8896,2.1943-1.7148,2.8477s-1.835,0.9805-3.0273,0.9805
				c-1.2344,0-2.2383-0.251-3.0117-0.7539s-1.3623-1.2305-1.7656-2.1836s-0.6055-1.9766-0.6055-3.0703
				c0-1.1924,0.2275-2.2334,0.6836-3.1211s1.1045-1.5625,1.9453-2.0234s1.7666-0.6914,2.7773-0.6914
				c1.1455,0,2.1094,0.292,2.8906,0.875s1.3252,1.4033,1.6328,2.4609l-1.4922,0.3516c-0.2656-0.833-0.6514-1.4404-1.1563-1.8203
				s-1.1406-0.5703-1.9063-0.5703c-0.8799,0-1.6162,0.2109-2.207,0.6328s-1.0068,0.9883-1.2461,1.6992s-0.3594,1.4443-0.3594,2.1992
				c0,0.9736,0.1416,1.8242,0.4258,2.5508s0.7256,1.2695,1.3242,1.6289s1.2471,0.5391,1.9453,0.5391
				c0.8486,0,1.5674-0.2451,2.1563-0.7344S184.43,128.9861,184.638,128.0223z"/>
			<path d="M187.3177,127.8894c0-1.5361,0.4268-2.6748,1.2813-3.4141c0.7139-0.6143,1.583-0.9219,2.6094-0.9219
				c1.1406,0,2.0732,0.374,2.7969,1.1211s1.0859,1.7803,1.0859,3.0977c0,1.0674-0.1602,1.9072-0.4805,2.5195
				s-0.7861,1.0869-1.3984,1.4258s-1.2803,0.5078-2.0039,0.5078c-1.1611,0-2.1006-0.3721-2.8164-1.1172
				S187.3177,129.2908,187.3177,127.8894z M188.763,127.8894c0,1.0625,0.2314,1.8584,0.6953,2.3867s1.0469,0.793,1.75,0.793
				c0.6982,0,1.2783-0.2656,1.7422-0.7969s0.6953-1.3408,0.6953-2.4297c0-1.0264-0.2334-1.8037-0.6992-2.332
				s-1.0459-0.793-1.7383-0.793c-0.7031,0-1.2861,0.2627-1.75,0.7891S188.763,126.8269,188.763,127.8894z"/>
			<path d="M196.7396,132.0379v-8.2969h1.2656v1.1797c0.6094-0.9111,1.4893-1.3672,2.6406-1.3672c0.5,0,0.96,0.0898,1.3789,0.2695
				s0.7334,0.415,0.9414,0.707s0.3545,0.6377,0.4375,1.0391c0.0518,0.2607,0.0781,0.7158,0.0781,1.3672v5.1016h-1.4063v-5.0469
				c0-0.5732-0.0547-1.001-0.1641-1.2852s-0.3037-0.5107-0.582-0.6797s-0.6055-0.2539-0.9805-0.2539
				c-0.5986,0-1.1162,0.1904-1.5508,0.5703s-0.6523,1.1016-0.6523,2.1641v4.5313H196.7396z"/>
			<path d="M205.1146,127.8894c0-1.5361,0.4268-2.6748,1.2813-3.4141c0.7139-0.6143,1.583-0.9219,2.6094-0.9219
				c1.1406,0,2.0732,0.374,2.7969,1.1211s1.0859,1.7803,1.0859,3.0977c0,1.0674-0.1602,1.9072-0.4805,2.5195
				s-0.7861,1.0869-1.3984,1.4258s-1.2803,0.5078-2.0039,0.5078c-1.1611,0-2.1006-0.3721-2.8164-1.1172
				S205.1146,129.2908,205.1146,127.8894z M206.5599,127.8894c0,1.0625,0.2314,1.8584,0.6953,2.3867s1.0469,0.793,1.75,0.793
				c0.6982,0,1.2783-0.2656,1.7422-0.7969s0.6953-1.3408,0.6953-2.4297c0-1.0264-0.2334-1.8037-0.6992-2.332
				s-1.0459-0.793-1.7383-0.793c-0.7031,0-1.2861,0.2627-1.75,0.7891S206.5599,126.8269,206.5599,127.8894z"/>
			<path d="M219.9505,128.9988l1.3828,0.1797c-0.1514,0.9531-0.5381,1.6992-1.1602,2.2383s-1.3867,0.8086-2.293,0.8086
				c-1.1357,0-2.0479-0.3711-2.7383-1.1133s-1.0352-1.8057-1.0352-3.1914c0-0.8955,0.1484-1.6797,0.4453-2.3516
				s0.749-1.1758,1.3555-1.5117s1.2666-0.5039,1.9805-0.5039c0.9014,0,1.6377,0.2275,2.2109,0.6836s0.9404,1.1025,1.1016,1.9414
				l-1.3672,0.2109c-0.1299-0.5576-0.3604-0.9766-0.6914-1.2578s-0.7305-0.4219-1.1992-0.4219c-0.708,0-1.2842,0.2539-1.7266,0.7617
				s-0.6641,1.3115-0.6641,2.4102c0,1.1143,0.2139,1.9248,0.6406,2.4297s0.9844,0.7578,1.6719,0.7578
				c0.5518,0,1.0127-0.1689,1.3828-0.5078S219.8519,129.702,219.9505,128.9988z"/>
			<path d="M222.5443,122.2019v-1.6172h1.4063v1.6172H222.5443z M222.5443,132.0379v-8.2969h1.4063v8.2969H222.5443z"/>
			<path d="M226.0911,132.0379v-8.2969h1.2578v1.1641c0.2607-0.4063,0.6064-0.7334,1.0391-0.9805s0.9248-0.3711,1.4766-0.3711
				c0.6143,0,1.1182,0.1279,1.5117,0.3828s0.6709,0.6123,0.832,1.0703c0.6563-0.9688,1.5107-1.4531,2.5625-1.4531
				c0.8232,0,1.4561,0.2275,1.8984,0.6836s0.6641,1.1572,0.6641,2.1055v5.6953h-1.3984v-5.2266
				c0-0.5625-0.0459-0.9678-0.1367-1.2148s-0.2568-0.4463-0.4961-0.5977s-0.5205-0.2266-0.8438-0.2266
				c-0.583,0-1.0674,0.1943-1.4531,0.582s-0.5781,1.0088-0.5781,1.8633v4.8203h-1.4063v-5.3906c0-0.625-0.1143-1.0938-0.3438-1.4063
				s-0.6045-0.4688-1.125-0.4688c-0.3955,0-0.7617,0.1045-1.0977,0.3125s-0.5791,0.5127-0.7305,0.9141s-0.2266,0.9795-0.2266,1.7344
				v4.3047H226.0911z"/>
			<path d="M239.4271,122.2019v-1.6172h1.4063v1.6172H239.4271z M239.4271,132.0379v-8.2969h1.4063v8.2969H239.4271z"/>
			<path d="M248.6536,129.366l1.4531,0.1797c-0.2295,0.8486-0.6533,1.5078-1.2734,1.9766s-1.4111,0.7031-2.375,0.7031
				c-1.2139,0-2.1758-0.374-2.8867-1.1211s-1.0664-1.7959-1.0664-3.1445c0-1.3955,0.3594-2.4795,1.0781-3.25
				s1.6514-1.1563,2.7969-1.1563c1.1094,0,2.0156,0.3779,2.7188,1.1328s1.0547,1.8174,1.0547,3.1875
				c0,0.083-0.0029,0.208-0.0078,0.375h-6.1875c0.0518,0.9111,0.3096,1.6094,0.7734,2.0938s1.042,0.7266,1.7344,0.7266
				c0.5156,0,0.9561-0.1357,1.3203-0.4063S248.4398,129.9598,248.6536,129.366z M244.0365,127.0926h4.6328
				c-0.0625-0.6982-0.2393-1.2217-0.5313-1.5703c-0.4482-0.542-1.0283-0.8125-1.7422-0.8125c-0.6455,0-1.1885,0.2158-1.6289,0.6484
				S244.0833,126.3689,244.0365,127.0926z"/>
			<path d="M251.8724,132.0379v-8.2969h1.2656v1.1797c0.6094-0.9111,1.4893-1.3672,2.6406-1.3672c0.5,0,0.96,0.0898,1.3789,0.2695
				s0.7334,0.415,0.9414,0.707s0.3545,0.6377,0.4375,1.0391c0.0518,0.2607,0.0781,0.7158,0.0781,1.3672v5.1016h-1.4063v-5.0469
				c0-0.5732-0.0547-1.001-0.1641-1.2852s-0.3037-0.5107-0.582-0.6797s-0.6055-0.2539-0.9805-0.2539
				c-0.5986,0-1.1162,0.1904-1.5508,0.5703s-0.6523,1.1016-0.6523,2.1641v4.5313H251.8724z"/>
			<path d="M263.8412,130.7801l0.2031,1.2422c-0.3955,0.083-0.75,0.125-1.0625,0.125c-0.5107,0-0.9063-0.0811-1.1875-0.2422
				s-0.4795-0.374-0.5938-0.6367s-0.1719-0.8164-0.1719-1.6602v-4.7734h-1.0313v-1.0938h1.0313v-2.0547l1.3984-0.8438v2.8984h1.4141
				v1.0938h-1.4141v4.8516c0,0.4014,0.0244,0.6592,0.0742,0.7734s0.1299,0.2061,0.2422,0.2734s0.2725,0.1016,0.4805,0.1016
				C263.3802,130.8348,263.5863,130.8162,263.8412,130.7801z"/>
			<path d="M264.6927,127.8894c0-1.5361,0.4268-2.6748,1.2813-3.4141c0.7139-0.6143,1.583-0.9219,2.6094-0.9219
				c1.1406,0,2.0732,0.374,2.7969,1.1211s1.0859,1.7803,1.0859,3.0977c0,1.0674-0.1602,1.9072-0.4805,2.5195
				s-0.7861,1.0869-1.3984,1.4258s-1.2803,0.5078-2.0039,0.5078c-1.1611,0-2.1006-0.3721-2.8164-1.1172
				S264.6927,129.2908,264.6927,127.8894z M266.138,127.8894c0,1.0625,0.2314,1.8584,0.6953,2.3867s1.0469,0.793,1.75,0.793
				c0.6982,0,1.2783-0.2656,1.7422-0.7969s0.6953-1.3408,0.6953-2.4297c0-1.0264-0.2334-1.8037-0.6992-2.332
				s-1.0459-0.793-1.7383-0.793c-0.7031,0-1.2861,0.2627-1.75,0.7891S266.138,126.8269,266.138,127.8894z"/>
		</g>
	</g>
	<g>
		<g>
			<path d="M176.4661,90.2674V78.8142h3.9453c0.8906,0,1.5703,0.0547,2.0391,0.1641c0.6563,0.1514,1.2158,0.4248,1.6797,0.8203
				c0.6045,0.5107,1.0557,1.1631,1.3555,1.957s0.4492,1.7021,0.4492,2.7227c0,0.8701-0.1016,1.6406-0.3047,2.3125
				s-0.4639,1.2275-0.7813,1.668s-0.665,0.7861-1.043,1.0391s-0.833,0.4443-1.3672,0.5742s-1.1475,0.1953-1.8398,0.1953H176.4661z
				 M177.9818,88.9158h2.4453c0.7549,0,1.3477-0.0703,1.7773-0.2109s0.7725-0.3389,1.0273-0.5938
				c0.3594-0.3594,0.6396-0.8428,0.8398-1.4492s0.3008-1.3428,0.3008-2.207c0-1.1982-0.1963-2.1182-0.5898-2.7617
				s-0.8711-1.0742-1.4336-1.293c-0.4063-0.1563-1.0596-0.2344-1.9609-0.2344h-2.4063V88.9158z"/>
			<path d="M193.2552,89.2439c-0.5205,0.4424-1.0225,0.7549-1.5039,0.9375s-0.999,0.2734-1.5508,0.2734
				c-0.9111,0-1.6123-0.2227-2.1016-0.668s-0.7344-1.0146-0.7344-1.707c0-0.4063,0.0928-0.7773,0.2773-1.1133
				s0.4268-0.6055,0.7266-0.8086s0.6367-0.3564,1.0117-0.4609c0.2764-0.0732,0.6924-0.1436,1.25-0.2109
				c1.1357-0.1357,1.9717-0.2969,2.5078-0.4844c0.0049-0.1924,0.0078-0.3154,0.0078-0.3672c0-0.5732-0.1328-0.9766-0.3984-1.2109
				c-0.3594-0.3174-0.8936-0.4766-1.6016-0.4766c-0.6611,0-1.1494,0.1162-1.4648,0.3477s-0.5479,0.6416-0.6992,1.2305l-1.375-0.1875
				c0.125-0.5889,0.3311-1.0635,0.6172-1.4258s0.7002-0.6406,1.2422-0.8359s1.1689-0.293,1.8828-0.293
				c0.708,0,1.2842,0.083,1.7266,0.25s0.7686,0.376,0.9766,0.6289s0.3545,0.5713,0.4375,0.957
				c0.0469,0.2393,0.0703,0.6719,0.0703,1.2969v1.875c0,1.3076,0.0303,2.1338,0.0898,2.4805s0.1787,0.6787,0.3555,0.9961h-1.4688
				C193.3909,89.9754,193.2972,89.6346,193.2552,89.2439z M193.138,86.1033c-0.5107,0.208-1.2764,0.3857-2.2969,0.5313
				c-0.5781,0.083-0.9873,0.1768-1.2266,0.2813s-0.4248,0.2568-0.5547,0.457s-0.1953,0.4229-0.1953,0.668
				c0,0.375,0.1416,0.6875,0.4258,0.9375s0.6992,0.375,1.2461,0.375c0.542,0,1.0234-0.1182,1.4453-0.3555
				s0.7314-0.5615,0.9297-0.9727c0.1514-0.3174,0.2266-0.7861,0.2266-1.4063V86.1033z"/>
			<path d="M199.8099,89.0096l0.2031,1.2422c-0.3955,0.083-0.75,0.125-1.0625,0.125c-0.5107,0-0.9063-0.0811-1.1875-0.2422
				s-0.4795-0.374-0.5938-0.6367s-0.1719-0.8164-0.1719-1.6602v-4.7734h-1.0313v-1.0938h1.0313v-2.0547l1.3984-0.8438v2.8984h1.4141
				v1.0938h-1.4141v4.8516c0,0.4014,0.0244,0.6592,0.0742,0.7734s0.1299,0.2061,0.2422,0.2734s0.2725,0.1016,0.4805,0.1016
				C199.349,89.0642,199.555,89.0457,199.8099,89.0096z"/>
			<path d="M200.6615,86.1189c0-1.5361,0.4268-2.6748,1.2813-3.4141c0.7139-0.6143,1.583-0.9219,2.6094-0.9219
				c1.1406,0,2.0732,0.374,2.7969,1.1211s1.0859,1.7803,1.0859,3.0977c0,1.0674-0.1602,1.9072-0.4805,2.5195
				s-0.7861,1.0869-1.3984,1.4258s-1.2803,0.5078-2.0039,0.5078c-1.1611,0-2.1006-0.3721-2.8164-1.1172
				S200.6615,87.5203,200.6615,86.1189z M202.1068,86.1189c0,1.0625,0.2314,1.8584,0.6953,2.3867s1.0469,0.793,1.75,0.793
				c0.6982,0,1.2783-0.2656,1.7422-0.7969s0.6953-1.3408,0.6953-2.4297c0-1.0264-0.2334-1.8037-0.6992-2.332
				s-1.0459-0.793-1.7383-0.793c-0.7031,0-1.2861,0.2627-1.75,0.7891S202.1068,85.0564,202.1068,86.1189z"/>
		</g>
	</g>
	<g id="Search_2_">
		<path style="fill:#EAE8E8;" d="M314.5836,44.1421c0,6.8818-4.3992,12.4589-9.8234,12.4589H45.984
			c-5.4255,0-9.8234-5.5771-9.8234-12.4589V37.671c0-6.8787,4.3979-12.459,9.8234-12.459h258.7762
			c5.4242,0,9.8234,5.5802,9.8234,12.459V44.1421z"/>
		<path style="fill:#C9452F;" d="M304.7603,25.2121h-47.8058V56.601h47.8058c5.4242,0,9.8234-5.5771,9.8234-12.4589V37.671
			C314.5836,30.7923,310.1845,25.2121,304.7603,25.2121z"/>
	</g>
	<g>
		<path d="M47.2171,47.8138V34.386h4.626c1.0439,0,1.8408,0.0635,2.3906,0.1924c0.7695,0.1768,1.4258,0.4971,1.9688,0.9609
			c0.709,0.5986,1.2383,1.3643,1.5898,2.2949c0.3506,0.9316,0.5264,1.9951,0.5264,3.1924c0,1.0195-0.1191,1.9229-0.3574,2.7109
			s-0.5439,1.4395-0.916,1.9561c-0.3721,0.5156-0.7803,0.9219-1.2227,1.2178s-0.9775,0.5205-1.6025,0.6738
			c-0.626,0.1523-1.3457,0.2285-2.1572,0.2285H47.2171z M48.9945,46.2288h2.8662c0.8857,0,1.5801-0.082,2.084-0.2471
			s0.9053-0.3965,1.2051-0.6963c0.4209-0.4209,0.749-0.9873,0.9844-1.6992c0.2354-0.7109,0.3525-1.5732,0.3525-2.5869
			c0-1.4043-0.2305-2.4844-0.6914-3.2383s-1.0215-1.2598-1.6807-1.5156c-0.4766-0.1836-1.2432-0.2754-2.2998-0.2754h-2.8203V46.2288
			z"/>
		<path d="M67.2122,44.681l1.7041,0.2109c-0.2695,0.9951-0.7666,1.7676-1.4932,2.3174s-1.6553,0.8242-2.7852,0.8242
			c-1.4229,0-2.5508-0.4375-3.3838-1.3145c-0.834-0.876-1.251-2.1055-1.251-3.6865c0-1.6367,0.4219-2.9063,1.2646-3.8105
			c0.8428-0.9033,1.9355-1.3555,3.2793-1.3555c1.3008,0,2.3633,0.4424,3.1875,1.3281s1.2363,2.1309,1.2363,3.7373
			c0,0.0977-0.0029,0.2441-0.0088,0.4395h-7.2549c0.0605,1.0684,0.3633,1.8867,0.9072,2.4551
			c0.543,0.5674,1.2207,0.8516,2.0332,0.8516c0.6045,0,1.1201-0.1592,1.5479-0.4766S66.9622,45.3772,67.2122,44.681z
			 M61.7992,42.0159h5.4316c-0.0732-0.8184-0.2813-1.4316-0.623-1.8408c-0.5254-0.6357-1.2061-0.9531-2.043-0.9531
			c-0.7568,0-1.3936,0.2539-1.9092,0.7607C62.139,40.4895,61.8538,41.1673,61.7992,42.0159z"/>
		<path d="M71.3802,47.8138v-8.4453h-1.457v-1.2822h1.457v-1.0352c0-0.6533,0.0576-1.1387,0.1738-1.4561
			c0.1582-0.4277,0.4375-0.7744,0.8379-1.04c0.3994-0.2656,0.96-0.3984,1.6807-0.3984c0.4639,0,0.9775,0.0547,1.5391,0.165
			l-0.2471,1.4385c-0.3428-0.0615-0.666-0.0918-0.9717-0.0918c-0.5,0-0.8545,0.1064-1.0625,0.3203
			c-0.207,0.2139-0.3115,0.6133-0.3115,1.2002v0.8975h1.8965v1.2822h-1.8965v8.4453H71.3802z"/>
		<path d="M76.2074,36.2815V34.386h1.6484v1.8955H76.2074z M76.2074,47.8138v-9.7275h1.6484v9.7275H76.2074z"/>
		<path d="M80.3656,47.8138v-9.7275h1.4844v1.3828c0.7139-1.0684,1.7461-1.6025,3.0957-1.6025c0.5859,0,1.125,0.1055,1.6162,0.3154
			c0.4922,0.2109,0.8604,0.4873,1.1045,0.8291c0.2441,0.3428,0.415,0.748,0.5127,1.2188c0.0605,0.3057,0.0918,0.8398,0.0918,1.6025
			v5.9814h-1.6494v-5.917c0-0.6719-0.0635-1.1738-0.1924-1.5068c-0.1279-0.333-0.3555-0.5986-0.6816-0.7969
			c-0.3271-0.1982-0.71-0.2979-1.1494-0.2979c-0.7031,0-1.3086,0.2227-1.8184,0.6689c-0.5098,0.4453-0.7646,1.291-0.7646,2.5371
			v5.3125H80.3656z"/>
		<path d="M90.8079,36.2815V34.386h1.6484v1.8955H90.8079z M90.8079,47.8138v-9.7275h1.6484v9.7275H90.8079z"/>
		<path d="M101.3138,44.2503l1.6211,0.2109c-0.1768,1.1172-0.6299,1.9922-1.3594,2.624c-0.7305,0.6328-1.626,0.9482-2.6885,0.9482
			c-1.332,0-2.4014-0.4346-3.2109-1.3047c-0.8086-0.8711-1.2139-2.1182-1.2139-3.7422c0-1.0498,0.1748-1.9697,0.5225-2.7568
			c0.3477-0.7881,0.8779-1.3789,1.5889-1.7725c0.7119-0.3936,1.4854-0.5908,2.3223-0.5908c1.0566,0,1.9209,0.2666,2.5918,0.8018
			c0.6719,0.5342,1.1025,1.293,1.292,2.2754l-1.6025,0.248c-0.1533-0.6533-0.4238-1.1455-0.8115-1.4746
			c-0.3877-0.3301-0.8564-0.4951-1.4053-0.4951c-0.8311,0-1.5059,0.2979-2.0244,0.8936c-0.5195,0.5947-0.7783,1.5371-0.7783,2.8252
			c0,1.3066,0.25,2.2568,0.751,2.8486c0.5,0.5928,1.1543,0.8887,1.96,0.8887c0.6475,0,1.1875-0.1982,1.6211-0.5957
			C100.9232,45.6858,101.1976,45.0755,101.3138,44.2503z"/>
		<path d="M104.3558,36.2815V34.386h1.6484v1.8955H104.3558z M104.3558,47.8138v-9.7275h1.6484v9.7275H104.3558z"/>
		<path d="M107.8997,42.9495c0-1.8008,0.5-3.1348,1.502-4.002c0.8369-0.7207,1.8564-1.0811,3.0596-1.0811
			c1.3369,0,2.4297,0.4385,3.2793,1.3145c0.8486,0.876,1.2725,2.0869,1.2725,3.6318c0,1.252-0.1875,2.2363-0.5625,2.9541
			c-0.376,0.7178-0.9229,1.2744-1.6396,1.6709c-0.7178,0.3975-1.501,0.5957-2.3496,0.5957c-1.3623,0-2.4629-0.4365-3.3027-1.3096
			C108.3197,45.8509,107.8997,44.5931,107.8997,42.9495z M109.5941,42.9495c0,1.2461,0.2715,2.1787,0.8154,2.7988
			c0.543,0.6201,1.2275,0.9297,2.0518,0.9297c0.8184,0,1.499-0.3115,2.042-0.9346c0.5439-0.623,0.8154-1.5723,0.8154-2.8486
			c0-1.2031-0.2734-2.1143-0.8193-2.7344c-0.5469-0.6191-1.2266-0.9297-2.0381-0.9297c-0.8242,0-1.5088,0.3086-2.0518,0.9258
			C109.8656,40.7727,109.5941,41.7044,109.5941,42.9495z M111.5452,36.8772l1.2178-2.5645h2.1621l-2.0156,2.5645H111.5452z"/>
		<path d="M118.9456,47.8138v-9.7275h1.4844v1.3828c0.7139-1.0684,1.7461-1.6025,3.0957-1.6025c0.5859,0,1.125,0.1055,1.6162,0.3154
			c0.4922,0.2109,0.8604,0.4873,1.1045,0.8291c0.2441,0.3428,0.415,0.748,0.5127,1.2188c0.0605,0.3057,0.0918,0.8398,0.0918,1.6025
			v5.9814h-1.6494v-5.917c0-0.6719-0.0635-1.1738-0.1924-1.5068c-0.1279-0.333-0.3555-0.5986-0.6816-0.7969
			c-0.3271-0.1982-0.71-0.2979-1.1494-0.2979c-0.7031,0-1.3086,0.2227-1.8184,0.6689c-0.5098,0.4453-0.7646,1.291-0.7646,2.5371
			v5.3125H118.9456z"/>
		<path d="M140.9027,47.8138v-1.2275c-0.6172,0.9648-1.5244,1.4473-2.7207,1.4473c-0.7754,0-1.4883-0.2139-2.1387-0.6406
			c-0.6504-0.4277-1.1543-1.0244-1.5117-1.791s-0.5352-1.6475-0.5352-2.6426c0-0.9707,0.1611-1.8516,0.4854-2.6426
			c0.3232-0.791,0.8086-1.3965,1.4561-1.8184c0.6475-0.4209,1.3711-0.6318,2.1709-0.6318c0.5859,0,1.1084,0.123,1.5664,0.3711
			c0.458,0.2471,0.8301,0.5693,1.1172,0.9658V34.386h1.6396v13.4277H140.9027z M135.6908,42.9593
			c0,1.2451,0.2627,2.1768,0.7871,2.7939c0.5254,0.6162,1.1455,0.9248,1.8594,0.9248c0.7207,0,1.333-0.2949,1.8369-0.8838
			c0.5039-0.5898,0.7559-1.4883,0.7559-2.6973c0-1.332-0.2568-2.3086-0.7695-2.9316s-1.1445-0.9346-1.8965-0.9346
			c-0.7324,0-1.3447,0.2998-1.8359,0.8984C135.9359,40.7268,135.6908,41.6712,135.6908,42.9593z"/>
		<path d="M151.6829,44.681l1.7041,0.2109c-0.2695,0.9951-0.7666,1.7676-1.4932,2.3174s-1.6553,0.8242-2.7852,0.8242
			c-1.4229,0-2.5508-0.4375-3.3838-1.3145c-0.834-0.876-1.251-2.1055-1.251-3.6865c0-1.6367,0.4219-2.9063,1.2646-3.8105
			c0.8428-0.9033,1.9355-1.3555,3.2793-1.3555c1.3008,0,2.3633,0.4424,3.1875,1.3281s1.2363,2.1309,1.2363,3.7373
			c0,0.0977-0.0029,0.2441-0.0088,0.4395h-7.2549c0.0605,1.0684,0.3633,1.8867,0.9072,2.4551
			c0.543,0.5674,1.2207,0.8516,2.0332,0.8516c0.6045,0,1.1201-0.1592,1.5479-0.4766S151.4329,45.3772,151.6829,44.681z
			 M146.2699,42.0159h5.4316c-0.0732-0.8184-0.2813-1.4316-0.623-1.8408c-0.5254-0.6357-1.2061-0.9531-2.043-0.9531
			c-0.7568,0-1.3936,0.2539-1.9092,0.7607C146.6097,40.4895,146.3245,41.1673,146.2699,42.0159z"/>
		<path d="M155.9241,47.8138v-1.8779h1.877v1.8779H155.9241z"/>
		<path d="M161.1361,47.8138v-1.8779h1.877v1.8779H161.1361z"/>
		<path d="M166.348,47.8138v-1.8779h1.877v1.8779H166.348z"/>
	</g>
	<g>
		<path style="fill:#FFFFFF;" d="M284.6041,42.9828l-4.6872,9.2894c-0.0971,0.1712-0.3142,0.2316-0.4859,0.1345l-2.662-1.5092
			c-0.1714-0.0973-0.2317-0.3152-0.1346-0.4861l5.5626-8.7931L284.6041,42.9828z"/>
		<path style="fill:#EAB7B0;" d="M282.6009,43.6552l-1.2459-0.7063l0.8419-1.3304l2.4072,1.3643l-4.6872,9.2894
			c-0.0971,0.1712-0.3142,0.2316-0.4859,0.1345l-1.3553-0.7687L282.6009,43.6552z"/>
		<polygon style="fill:#D0D2D3;" points="281.0257,43.47 282.1969,41.6185 284.6041,42.9828 283.6168,44.9389 		"/>
		<polygon style="fill:#A6A8AB;" points="282.2984,44.188 283.4214,42.316 284.6478,43.0115 283.6181,44.9364 		"/>
		<path style="fill:#2B2B38;" d="M280.3431,33.0274c-1.9688,3.4747-0.7487,7.8879,2.7261,9.8574
			c3.4748,1.9695,7.8883,0.7493,9.8578-2.7256c1.9697-3.4748,0.7491-7.8882-2.7259-9.8578
			C286.7262,28.3321,282.3129,29.5525,280.3431,33.0274z M281.3219,33.5817c1.6629-2.9346,5.39-3.9647,8.3245-2.3018
			c2.9348,1.6631,3.9649,5.3902,2.3019,8.3248c-1.6634,2.9345-5.3902,3.9647-8.3248,2.3014
			C280.6891,40.2435,279.6591,36.516,281.3219,33.5817z"/>
		
			<ellipse transform="matrix(0.4931 -0.87 0.87 0.4931 113.4583 267.9124)" style="opacity:0.3;fill:#E6E6E7;" cx="286.6353" cy="36.5932" rx="6.3936" ry="6.3936"/>
		<path style="opacity:0.5;fill:#FFFFFF;" d="M291.7802,34.7393c0.7305,2.1926-0.0009,4.6955-1.9723,6.1224
			c-1.9712,1.4266-4.5772,1.3388-6.4318-0.04c0,0,3.1583-1.2773,4.8148-2.4763C289.8987,37.1098,291.7802,34.7393,291.7802,34.7393z
			"/>
	</g>
</g>
</svg>
