<?xml version="1.0" encoding="utf-8"?>
<!-- Generator: Adobe Illustrator 21.0.2, SVG Export Plug-In . SVG Version: 6.00 Build 0)  -->
<svg version="1.1" id="Capa_1" xmlns="http://www.w3.org/2000/svg" xmlns:xlink="http://www.w3.org/1999/xlink" x="0px" y="0px"
	 viewBox="0 0 166.6931 208.5403" style="enable-background:new 0 0 166.6931 208.5403;" xml:space="preserve">
<g id="Concept_15_">
	<g id="Board_15_">
		<path style="fill-rule:evenodd;clip-rule:evenodd;fill:#F39C12;" d="M39.8342,10.944l120.1375,22.7736
			c4.5358,0.8598,7.4785,5.5596,6.5504,10.4556l-29.7385,156.8796c-0.9281,4.896-5.3902,8.2116-9.926,7.3518L6.7201,185.631
			c-4.5194-0.8567-7.4778-5.5789-6.5497-10.4749L29.9089,18.2765C30.837,13.3805,35.3148,10.0873,39.8342,10.944L39.8342,10.944z"/>
		
			<rect x="2.3608" y="46.8971" transform="matrix(0.1862 -0.9825 0.9825 0.1862 -39.9189 171.1384)" style="fill-rule:evenodd;clip-rule:evenodd;fill:#E6E6E6;" width="161.9871" height="125.541"/>
		<polygon style="fill-rule:evenodd;clip-rule:evenodd;fill:#474646;" points="77.6103,0 128.8382,9.7109 124.0544,34.947 
			121.1995,34.4058 125.3718,12.3955 79.6814,3.7343 75.5091,25.7446 72.8265,25.2361 		"/>
		<path style="fill-rule:evenodd;clip-rule:evenodd;fill:#D84848;" d="M70.7014,14.2678l59.3308,11.2469
			c1.2387,0.2348,2.0314,1.5275,1.778,2.8645l-2.1449,11.3148c-0.2541,1.3403-1.4607,2.2311-2.6994,1.9963L67.6351,30.4435
			c-1.2224-0.2317-2.0385-1.506-1.7844-2.8462l2.1449-11.3148C68.249,14.9454,69.479,14.0361,70.7014,14.2678L70.7014,14.2678z"/>
		<path style="opacity:0.2;fill-rule:evenodd;clip-rule:evenodd;fill:#231F20;" d="M98.9312,19.6191l31.1011,5.8956
			c1.2387,0.2348,2.0314,1.5275,1.778,2.8645l-2.1449,11.3148c-0.2541,1.3403-1.4607,2.2311-2.6994,1.9963l-31.1011-5.8956
			L98.9312,19.6191z"/>
		<path style="opacity:0.1;fill-rule:evenodd;clip-rule:evenodd;fill:#231F20;" d="M98.4687,22.059l61.503,11.6587
			c4.5358,0.8598,7.4785,5.5596,6.5504,10.4556l-29.7385,156.8796c-0.9281,4.896-5.3902,8.2116-9.926,7.3518l-61.503-11.6587
			L98.4687,22.059z"/>
	</g>
	<g id="Paragraph_15_">
		
			<rect x="89.6032" y="15.2604" transform="matrix(0.1862 -0.9825 0.9825 0.1862 14.1859 139.1346)" style="fill-rule:evenodd;clip-rule:evenodd;fill:#4D4D4D;" width="2.9666" height="91.4862"/>
		
			<rect x="88.2844" y="22.21" transform="matrix(0.1862 -0.9825 0.9825 0.1862 6.2859 143.4956)" style="fill-rule:evenodd;clip-rule:evenodd;fill:#336699;" width="2.9695" height="91.4862"/>
		
			<rect x="87.0573" y="28.6833" transform="matrix(0.1862 -0.9825 0.9825 0.1862 -1.0727 147.5576)" style="fill-rule:evenodd;clip-rule:evenodd;fill:#4D4D4D;" width="2.9695" height="91.4862"/>
		
			<rect x="85.7396" y="35.6343" transform="matrix(0.1862 -0.9825 0.9825 0.1862 -8.9743 151.9194)" style="fill-rule:evenodd;clip-rule:evenodd;fill:#4D4D4D;" width="2.9695" height="91.4862"/>
		
			<rect x="84.4615" y="42.4283" transform="matrix(0.1862 -0.9825 0.9825 0.1862 -16.6975 156.1827)" style="fill-rule:evenodd;clip-rule:evenodd;fill:#336699;" width="2.9499" height="91.4862"/>
		
			<rect x="83.2261" y="48.8951" transform="matrix(0.1862 -0.9825 0.9825 0.1862 -24.0486 160.2407)" style="fill-rule:evenodd;clip-rule:evenodd;fill:#4D4D4D;" width="2.969" height="91.4862"/>
		
			<rect x="81.9167" y="55.853" transform="matrix(0.1862 -0.9825 0.9825 0.1862 -31.9582 164.6068)" style="fill-rule:evenodd;clip-rule:evenodd;fill:#4D4D4D;" width="2.9499" height="91.4862"/>
	</g>
	<g id="Diagram_15_">
		
			<rect x="65.8697" y="131.428" transform="matrix(0.1862 -0.9825 0.9825 0.1862 -119.4794 210.0863)" style="fill-rule:evenodd;clip-rule:evenodd;fill:#4D4D4D;" width="2.4333" height="91.4862"/>
		<path style="fill-rule:evenodd;clip-rule:evenodd;fill:#FF6633;" d="M35.0705,144.4558L35.0705,144.4558
			c1.2907,0.2447,2.1774,1.3996,1.9595,2.5487l-4.133,21.8027l-4.7188-0.8945l4.133-21.8027
			C32.5291,144.9609,33.7606,144.2075,35.0705,144.4558L35.0705,144.4558z"/>
		<path style="fill-rule:evenodd;clip-rule:evenodd;fill:#0056A3;" d="M44.6984,143.5982L44.6984,143.5982
			c1.2907,0.2447,2.1597,1.506,1.9186,2.7779l-4.5805,24.1636l-4.7184-0.8944l4.5805-24.1636
			C42.1398,144.2098,43.3909,143.3503,44.6984,143.5982L44.6984,143.5982z"/>
		<path style="fill-rule:evenodd;clip-rule:evenodd;fill:#FF6633;" d="M53.3275,148.0099L53.3275,148.0099
			c1.2936,0.2452,2.1827,1.4006,1.9644,2.5521l-4.1496,21.8904l-4.7212-0.895l4.1496-21.8904
			C50.789,148.5155,52.02,147.7621,53.3275,148.0099L53.3275,148.0099z"/>
		<path style="fill-rule:evenodd;clip-rule:evenodd;fill:#0056A3;" d="M65.5682,137.4698L65.5682,137.4698
			c1.2907,0.2447,2.0882,1.8856,1.7555,3.6406l-6.2965,33.2159l-4.7216-0.8951l6.2965-33.2159
			C62.9348,138.4604,64.2611,137.222,65.5682,137.4698L65.5682,137.4698z"/>
		<path style="fill-rule:evenodd;clip-rule:evenodd;fill:#FF6633;" d="M72.5927,152.7619L72.5927,152.7619
			c1.3071,0.2478,2.1891,1.3535,1.977,2.4722l-3.9634,20.9079l-4.7216-0.8951l3.9634-20.9079
			C70.0602,153.2203,71.302,152.5172,72.5927,152.7619L72.5927,152.7619z"/>
		<path style="fill-rule:evenodd;clip-rule:evenodd;fill:#0056A3;" d="M80.577,163.8256l0.0192,0.0037
			c1.2907,0.2447,2.2387,0.9867,2.1124,1.6527l-2.3705,12.5049l-4.7048-0.8919l2.3705-12.5049
			C78.1301,163.9241,79.2862,163.5809,80.577,163.8256L80.577,163.8256z"/>
		<path style="fill-rule:evenodd;clip-rule:evenodd;fill:#0056A3;" d="M94.8969,143.1537L94.8969,143.1537
			c1.3047,0.2473,2.0853,1.8851,1.7521,3.6429l-6.2732,33.093l-4.7048-0.8919l6.2732-33.093
			C92.2774,144.1469,93.6033,142.9084,94.8969,143.1537L94.8969,143.1537z"/>
		<path style="fill-rule:evenodd;clip-rule:evenodd;fill:#33CC99;" d="M103.1355,147.209L103.1355,147.209
			c1.2907,0.2447,2.1077,1.796,1.7978,3.431l-5.8573,30.8989l-4.7241-0.8955l5.8573-30.8989
			C100.5192,148.1095,101.8472,146.9648,103.1355,147.209L103.1355,147.209z"/>
		<path style="fill-rule:evenodd;clip-rule:evenodd;fill:#FF6633;" d="M112.6613,140.3127L112.6613,140.3127
			c1.3071,0.2478,2.0452,2.1124,1.6578,4.1563l-7.312,38.5732l-4.7216-0.8951l7.312-38.5732
			C109.9849,141.53,111.3706,140.068,112.6613,140.3127L112.6613,140.3127z"/>
		
			<rect x="124.1728" y="150.8341" transform="matrix(0.1862 -0.9825 0.9825 0.1862 -48.2454 251.9565)" style="fill-rule:evenodd;clip-rule:evenodd;fill:#FF6633;" width="7.6139" height="8.5385"/>
		
			<rect x="121.8197" y="163.2487" transform="matrix(0.1862 -0.9825 0.9825 0.1862 -62.3578 259.7468)" style="fill-rule:evenodd;clip-rule:evenodd;fill:#33CC99;" width="7.6135" height="8.5385"/>
		
			<rect x="119.4161" y="175.9349" transform="matrix(0.1862 -0.9825 0.9825 0.1862 -76.779 267.7075)" style="fill-rule:evenodd;clip-rule:evenodd;fill:#0056A3;" width="7.611" height="8.5385"/>
	</g>
</g>
</svg>
