<?xml version="1.0" encoding="utf-8"?>
<!-- Generator: Adobe Illustrator 21.0.2, SVG Export Plug-In . SVG Version: 6.00 Build 0)  -->
<svg version="1.1" id="Capa_1" xmlns="http://www.w3.org/2000/svg" xmlns:xlink="http://www.w3.org/1999/xlink" x="0px" y="0px"
	 viewBox="0 0 84.9195 119.4469" style="enable-background:new 0 0 84.9195 119.4469;" xml:space="preserve">
<g id="Concept_14_">
	<g id="Board_14_">
		<path style="fill-rule:evenodd;clip-rule:evenodd;fill:#F39C12;" d="M5.1211,10.8653l74.6748-0.0028
			c2.8193-0.0001,5.1197,2.485,5.1198,5.5283l0.0037,97.5129c0.0001,3.0433-2.3,5.5403-5.1194,5.5404l-74.6748,0.0028
			c-2.8091,0.0001-5.1214-2.4967-5.1215-5.54L0,16.394C-0.0001,13.3508,2.312,10.8654,5.1211,10.8653L5.1211,10.8653z"/>
		<rect x="4.1308" y="15.6868" style="fill-rule:evenodd;clip-rule:evenodd;fill:#E6E6E6;" width="76.6682" height="98.9259"/>
		<polygon style="fill-rule:evenodd;clip-rule:evenodd;fill:#474646;" points="26.5423,0.0012 58.3844,0 58.385,15.6862 
			56.6105,15.6863 56.6099,2.0051 28.2098,2.0062 28.2103,15.6873 26.5429,15.6874 		"/>
		<path style="fill-rule:evenodd;clip-rule:evenodd;fill:#D84848;" d="M24.02,9.3481l36.8788-0.0014
			c0.77,0,1.3926,0.6855,1.3927,1.5165l0.0003,7.0331c0,0.8331-0.6226,1.5049-1.3926,1.5049l-36.8788,0.0014
			c-0.7598,0-1.3944-0.6717-1.3945-1.5048l-0.0003-7.0331C22.6256,10.0336,23.2602,9.3481,24.02,9.3481L24.02,9.3481z"/>
		<path style="opacity:0.2;fill-rule:evenodd;clip-rule:evenodd;fill:#231F20;" d="M41.567,9.3474l19.3318-0.0007
			c0.77,0,1.3926,0.6855,1.3927,1.5165l0.0003,7.0331c0,0.8331-0.6226,1.5049-1.3926,1.5049l-19.3318,0.0007L41.567,9.3474z"/>
		<path style="opacity:0.1;fill-rule:evenodd;clip-rule:evenodd;fill:#231F20;" d="M41.5671,10.8639l38.2289-0.0015
			c2.8193-0.0001,5.1197,2.485,5.1198,5.5283l0.0037,97.5129c0.0001,3.0433-2.3,5.5403-5.1194,5.5404l-38.2289,0.0015
			L41.5671,10.8639z"/>
	</g>
	<g id="Paragraph_14_">
		<rect x="13.6327" y="34.1652" style="fill-rule:evenodd;clip-rule:evenodd;fill:#4D4D4D;" width="55.8708" height="1.8117"/>
		<rect x="13.6329" y="38.484" style="fill-rule:evenodd;clip-rule:evenodd;fill:#336699;" width="55.8708" height="1.8135"/>
		<rect x="13.633" y="42.5076" style="fill-rule:evenodd;clip-rule:evenodd;fill:#4D4D4D;" width="55.8708" height="1.8135"/>
		<rect x="13.6332" y="46.8282" style="fill-rule:evenodd;clip-rule:evenodd;fill:#4D4D4D;" width="55.8708" height="1.8135"/>
		<rect x="13.6334" y="51.0572" style="fill-rule:evenodd;clip-rule:evenodd;fill:#336699;" width="55.8708" height="1.8015"/>
		<rect x="13.6335" y="55.0709" style="fill-rule:evenodd;clip-rule:evenodd;fill:#4D4D4D;" width="55.8708" height="1.8132"/>
		<rect x="13.6337" y="59.4017" style="fill-rule:evenodd;clip-rule:evenodd;fill:#4D4D4D;" width="55.8708" height="1.8015"/>
	</g>
	<g id="Diagram_14_">
		<rect x="12.4479" y="106.7604" style="fill-rule:evenodd;clip-rule:evenodd;fill:#4D4D4D;" width="55.8708" height="1.486"/>
		<path style="fill-rule:evenodd;clip-rule:evenodd;fill:#FF6633;" d="M17.4517,91.516L17.4517,91.516
			c0.8023,0,1.4657,0.5921,1.4657,1.3063l0.0005,13.5521l-2.9331,0.0001l-0.0005-13.5521
			C15.9842,92.1082,16.6374,91.516,17.4517,91.516L17.4517,91.516z"/>
		<path style="fill-rule:evenodd;clip-rule:evenodd;fill:#0056A3;" d="M23.1309,89.9061L23.1309,89.9061
			c0.8023,0,1.4672,0.6579,1.4672,1.4485l0.0006,15.0196l-2.9328,0.0001l-0.0006-15.0196
			C21.6653,90.5642,22.3182,89.9062,23.1309,89.9061L23.1309,89.9061z"/>
		<path style="fill-rule:evenodd;clip-rule:evenodd;fill:#FF6633;" d="M28.8104,91.5715L28.8104,91.5715
			c0.8041,0,1.469,0.5921,1.469,1.3078l0.0005,13.6066l-2.9346,0.0001l-0.0005-13.6066
			C27.3448,92.1637,27.9977,91.5716,28.8104,91.5715L28.8104,91.5715z"/>
		<path style="fill-rule:evenodd;clip-rule:evenodd;fill:#0056A3;" d="M34.9559,83.8548L34.9559,83.8548
			c0.8023,0,1.4675,0.8938,1.4675,1.9847l0.0008,20.6462l-2.9349,0.0001l-0.0008-20.6462
			C33.4885,84.7488,34.1434,83.8548,34.9559,83.8548L34.9559,83.8548z"/>
		<path style="fill-rule:evenodd;clip-rule:evenodd;fill:#FF6633;" d="M40.9104,92.2311L40.9104,92.2311
			c0.8125,0,1.4674,0.5631,1.4675,1.2585l0.0005,12.9959l-2.9349,0.0001L39.443,93.4897
			C39.443,92.7943,40.1081,92.2312,40.9104,92.2311L40.9104,92.2311z"/>
		<path style="fill-rule:evenodd;clip-rule:evenodd;fill:#0056A3;" d="M46.9597,97.9612h0.012c0.8023,0,1.4555,0.3373,1.4555,0.7513
			l0.0003,7.7728l-2.9244,0.0001l-0.0003-7.7728C45.5027,98.2986,46.1574,97.9612,46.9597,97.9612L46.9597,97.9612z"/>
		<path style="fill-rule:evenodd;clip-rule:evenodd;fill:#0056A3;" d="M53.2001,83.9287L53.2001,83.9287
			c0.811,0,1.4657,0.8938,1.4657,1.9865l0.0008,20.5699l-2.9244,0.0001l-0.0008-20.5699
			C51.7414,84.8226,52.396,83.9287,53.2001,83.9287L53.2001,83.9287z"/>
		<path style="fill-rule:evenodd;clip-rule:evenodd;fill:#33CC99;" d="M58.6047,85.4246L58.6047,85.4246
			c0.8023,0,1.469,0.8379,1.469,1.8541l0.0007,19.2061l-2.9364,0.0001l-0.0007-19.2061
			C57.1373,86.2626,57.804,85.4247,58.6047,85.4246L58.6047,85.4246z"/>
		<path style="fill-rule:evenodd;clip-rule:evenodd;fill:#FF6633;" d="M63.5358,80.2031L63.5358,80.2031
			c0.8125,0,1.4675,1.0348,1.4675,2.3053l0.0009,23.9763l-2.9349,0.0001l-0.0009-23.9763
			C62.0684,81.238,62.7335,80.2031,63.5358,80.2031L63.5358,80.2031z"/>
		<rect x="71.8025" y="85.0101" style="fill-rule:evenodd;clip-rule:evenodd;fill:#FF6633;" width="5.2145" height="4.6499"/>
		<rect x="71.8027" y="92.7268" style="fill-rule:evenodd;clip-rule:evenodd;fill:#33CC99;" width="5.2145" height="4.6496"/>
		<rect x="71.803" y="100.6131" style="fill-rule:evenodd;clip-rule:evenodd;fill:#0056A3;" width="5.2145" height="4.6481"/>
	</g>
</g>
</svg>
