<?xml version="1.0" encoding="utf-8"?>
<!-- Generator: Adobe Illustrator 21.0.2, SVG Export Plug-In . SVG Version: 6.00 Build 0)  -->
<svg version="1.1" id="Capa_1" xmlns="http://www.w3.org/2000/svg" xmlns:xlink="http://www.w3.org/1999/xlink" x="0px" y="0px"
	 viewBox="0 0 451.1485 184.8551" style="enable-background:new 0 0 451.1485 184.8551;" xml:space="preserve">
<g>
	<g>
		<rect y="15.7395" style="fill:#707172;" width="451.1485" height="124.1118"/>
	</g>
	<g>
		<polygon style="fill:#A03628;" points="254.6694,184.8551 209,184.8551 209,181.8551 251.6694,181.8551 251.6694,137.5719 
			254.6694,137.5719 		"/>
	</g>
	<g>
		<rect x="4.7017" y="20.5017" style="fill:#FFFFFF;" width="441.745" height="115.2084"/>
	</g>
	<g id="XMLID_5247_">
		<g>
			<circle style="fill:#FFFFFF;" cx="425.7392" cy="17.2588" r="14.2165"/>
		</g>
		<g id="XMLID_5285_">
			<path style="fill:#FFFFFF;" d="M431.4066,11.5442c0.963,0.9631,0.963,2.5249,0,3.4879l-2.1795,2.1795l2.1797,2.1798
				c0.963,0.9631,0.9628,2.5245-0.0002,3.4876c-0.963,0.9631-2.5246,0.9633-3.4876,0.0003l-2.1797-2.1798l-2.1795,2.1795
				c-0.963,0.963-2.5248,0.963-3.4879-0.0001c-0.963-0.9631-0.9628-2.5246,0.0002-3.4876l2.1795-2.1795l-2.1797-2.1798
				c-0.963-0.9631-0.963-2.5249,0-3.4879c0.9631-0.9631,2.5248-0.963,3.4879,0.0001l2.1797,2.1798l2.1795-2.1795
				C428.8823,10.5811,430.4435,10.5811,431.4066,11.5442L431.4066,11.5442z M431.4066,11.5442"/>
			<path style="fill:#912D19;" d="M429.6623,24.1c-0.7593,0-1.5186-0.2891-2.0972-0.8669l-1.8262-1.8264l-1.8257,1.8259
				c-1.1572,1.1563-3.0386,1.1563-4.1948,0c-0.5605-0.5601-0.8691-1.3049-0.8687-2.0974c0-0.7922,0.3086-1.5371,0.8687-2.0972
				l1.8262-1.8262l-1.8262-1.8262c-0.5605-0.5601-0.8691-1.3052-0.8691-2.0974c0-0.7925,0.3086-1.5376,0.8691-2.0977
				c1.1563-1.1563,3.0376-1.1565,4.1948,0.0002l1.8262,1.8262l1.8257-1.8259c1.1567-1.157,3.0391-1.156,4.1948-0.0005l0,0
				c1.1563,1.1565,1.1563,3.0386,0,4.1951l-1.8262,1.8259l1.8267,1.8264c1.1563,1.1563,1.1563,3.0378-0.0005,4.1946
				C431.1819,23.8107,430.4221,24.0997,429.6623,24.1z M425.739,19.9921l2.5332,2.5337c0.7671,0.7666,2.0146,0.7659,2.7808-0.0002
				c0.7666-0.7668,0.7666-2.0142,0.0005-2.7805l-2.5337-2.5334l2.5332-2.533c0.7666-0.7666,0.7666-2.0142,0-2.781
				c-0.7666-0.7661-2.0142-0.7666-2.7808,0.0005l-2.5327,2.533l-2.5332-2.5332c-0.7666-0.7666-2.0142-0.7664-2.7808-0.0002
				c-0.3716,0.3713-0.5762,0.8652-0.5762,1.3906c0,0.5251,0.2046,1.019,0.5762,1.3904l2.5332,2.5332l-2.5332,2.5332
				c-0.3711,0.3713-0.5757,0.865-0.5757,1.3901s0.2041,1.019,0.5757,1.3904c0.7666,0.7666,2.0142,0.7659,2.7808-0.0002
				L425.739,19.9921z"/>
		</g>
		<g id="XMLID_5277_">
			<g>
				<path style="fill:#C9452F;" d="M413.4824,29.4683c-6.7324-6.7323-6.7321-17.6867,0.0003-24.4191
					c6.7321-6.7321,17.6865-6.7323,24.4189,0c6.7324,6.7324,6.7327,17.6867,0.0003,24.4191S420.2148,36.2007,413.4824,29.4683
					L413.4824,29.4683z M435.2316,7.7192c-5.2602-5.2602-13.8189-5.26-19.0789,0c-5.2603,5.2603-5.2602,13.8192-0.0002,19.0792
					c5.2603,5.2603,13.8192,5.2603,19.0794,0C440.4918,21.5384,440.4919,12.9795,435.2316,7.7192L435.2316,7.7192z M436.1829,6.7678
					"/>
			</g>
		</g>
	</g>
</g>
</svg>
