<?xml version="1.0" encoding="utf-8"?>
<!-- Generator: Adobe Illustrator 21.0.2, SVG Export Plug-In . SVG Version: 6.00 Build 0)  -->
<svg version="1.1" id="Capa_1" xmlns="http://www.w3.org/2000/svg" xmlns:xlink="http://www.w3.org/1999/xlink" x="0px" y="0px"
	 viewBox="0 0 209 51.576" style="enable-background:new 0 0 209 51.576;" xml:space="preserve">
<g>
	<g id="XMLID_5243_">
		<polygon id="XMLID_5244_" style="fill:#A03628;" points="187.1899,0.5001 209,25.7881 187.1899,51.076 167.3365,51.076 
			189.1466,25.7881 167.3365,0.5001 150.1899,0.5001 		"/>
	</g>
	<g id="XMLID_5240_">
		<polygon id="XMLID_5241_" style="fill:#A03628;" points="21.8101,51.0759 0,25.7879 21.8101,0.5 41.6635,0.5 19.8534,25.7879 
			41.6635,51.0759 21.8101,51.0759 		"/>
	</g>
	<polygon id="XMLID_5238_" style="fill:#FFFFFF;stroke:#C9452F;stroke-miterlimit:10;" points="47.671,0.5 161.329,0.5001 
		183.1391,25.7881 161.329,51.076 47.671,51.0759 25.8609,25.7879 	"/>
	<g>
		<g>
			<path style="fill:#A03628;" d="M68.3406,32.3716V17.3222h4.5479l2.7305,10.2656l2.7002-10.2656h4.5576v15.0493h-2.8232V20.5254
				l-2.9873,11.8462h-2.9258l-2.9766-11.8462v11.8462H68.3406z"/>
			<path style="fill:#A03628;" d="M92.1872,28.9018l2.874,0.4824c-0.3691,1.0542-0.9531,1.8564-1.75,2.4072
				c-0.7969,0.5513-1.7949,0.8267-2.9922,0.8267c-1.8955,0-3.2988-0.6196-4.209-1.8584c-0.7188-0.9922-1.0781-2.2446-1.0781-3.7568
				c0-1.8071,0.4727-3.2217,1.417-4.2451c0.9443-1.0229,2.1387-1.5347,3.583-1.5347c1.6211,0,2.9014,0.5356,3.8389,1.6064
				c0.9375,1.0713,1.3857,2.7119,1.3447,4.9224H87.989c0.0205,0.856,0.2529,1.521,0.6973,1.9966
				c0.4453,0.4761,1,0.7139,1.6631,0.7139c0.4521,0,0.832-0.1235,1.1396-0.3696C91.7976,29.8462,92.03,29.4492,92.1872,28.9018z
				 M92.3513,25.9863c-0.0205-0.835-0.2363-1.4692-0.6465-1.9043c-0.4102-0.4346-0.9102-0.6519-1.499-0.6519
				c-0.6299,0-1.1494,0.2295-1.5605,0.688c-0.4102,0.4585-0.6123,1.0815-0.6055,1.8682H92.3513z M88.6657,20.1352l1.417-3.0693
				h3.2334l-2.8223,3.0693H88.6657z"/>
			<path style="fill:#A03628;" d="M102.5661,21.4697v2.2993h-1.9717v4.3936c0,0.8896,0.0186,1.4082,0.0566,1.5552
				c0.0371,0.1475,0.123,0.269,0.2568,0.3647s0.2959,0.1436,0.4873,0.1436c0.2666,0,0.6533-0.0923,1.1602-0.2773l0.2461,2.2383
				c-0.6709,0.2871-1.4297,0.4312-2.2783,0.4312c-0.5205,0-0.9893-0.0874-1.4063-0.2622c-0.418-0.1743-0.7246-0.3999-0.9189-0.6772
				c-0.1953-0.2773-0.3301-0.6519-0.4053-1.124c-0.0625-0.3354-0.0928-1.0127-0.0928-2.0327V23.769h-1.3242v-2.2993h1.3242v-2.166
				l2.8945-1.6836v3.8496H102.5661z"/>
			<path style="fill:#A03628;" d="M103.9001,26.7666c0-0.958,0.2363-1.8853,0.708-2.7817c0.4727-0.8965,1.1416-1.5811,2.0068-2.0532
				c0.8662-0.4722,1.833-0.7085,2.9004-0.7085c1.6494,0,3.001,0.5356,4.0547,1.6064c1.0537,1.0713,1.5811,2.4248,1.5811,4.0601
				c0,1.6494-0.5322,3.0166-1.5967,4.1011c-1.0635,1.085-2.4033,1.6274-4.0186,1.6274c-0.999,0-1.9521-0.2261-2.8594-0.6777
				c-0.9063-0.4517-1.5957-1.1138-2.0684-1.9863C104.1365,29.0815,103.9001,28.019,103.9001,26.7666z M106.8562,26.9204
				c0,1.0815,0.2568,1.9097,0.7705,2.4844c0.5127,0.5747,1.1455,0.8623,1.8984,0.8623s1.3848-0.2876,1.8945-0.8623
				s0.7646-1.4097,0.7646-2.5049c0-1.0674-0.2549-1.8887-0.7646-2.4634c-0.5098-0.5752-1.1416-0.8623-1.8945-0.8623
				s-1.3857,0.2871-1.8984,0.8623C107.113,25.0112,106.8562,25.8393,106.8562,26.9204z"/>
			<path style="fill:#A03628;" d="M127.4089,32.3716h-2.6797V30.77c-0.4443,0.623-0.9697,1.0869-1.5752,1.3911
				c-0.6064,0.3042-1.2168,0.457-1.833,0.457c-1.252,0-2.3252-0.5049-3.2178-1.5142c-0.8936-1.0098-1.3398-2.418-1.3398-4.2246
				c0-1.8477,0.4346-3.2524,1.3037-4.2139s1.9678-1.4424,3.2949-1.4424c1.2188,0,2.2725,0.5068,3.1621,1.5195v-5.4204h2.8848
				V32.3716z M119.7097,26.6846c0,1.1636,0.1602,2.0054,0.4824,2.5254c0.4648,0.7529,1.1152,1.1289,1.9502,1.1289
				c0.6641,0,1.2285-0.2822,1.6943-0.8467c0.4648-0.5645,0.6973-1.4082,0.6973-2.5308c0-1.252-0.2256-2.1538-0.6768-2.7046
				c-0.4521-0.5508-1.0303-0.8267-1.7354-0.8267c-0.6846,0-1.2578,0.272-1.7197,0.8164
				C119.9402,24.7905,119.7097,25.603,119.7097,26.6846z"/>
			<path style="fill:#A03628;" d="M129.5847,26.7666c0-0.958,0.2363-1.8853,0.708-2.7817c0.4727-0.8965,1.1416-1.5811,2.0068-2.0532
				c0.8662-0.4722,1.833-0.7085,2.9004-0.7085c1.6494,0,3.001,0.5356,4.0547,1.6064c1.0537,1.0713,1.5811,2.4248,1.5811,4.0601
				c0,1.6494-0.5322,3.0166-1.5967,4.1011c-1.0635,1.085-2.4033,1.6274-4.0186,1.6274c-0.999,0-1.9521-0.2261-2.8594-0.6777
				c-0.9063-0.4517-1.5957-1.1138-2.0684-1.9863C129.821,29.0815,129.5847,28.019,129.5847,26.7666z M132.5408,26.9204
				c0,1.0815,0.2568,1.9097,0.7705,2.4844c0.5127,0.5747,1.1455,0.8623,1.8984,0.8623s1.3848-0.2876,1.8945-0.8623
				s0.7646-1.4097,0.7646-2.5049c0-1.0674-0.2549-1.8887-0.7646-2.4634c-0.5098-0.5752-1.1416-0.8623-1.8945-0.8623
				s-1.3857,0.2871-1.8984,0.8623C132.7976,25.0112,132.5408,25.8393,132.5408,26.9204z"/>
		</g>
	</g>
</g>
</svg>
