<?xml version="1.0" encoding="utf-8"?>
<!-- Generator: Adobe Illustrator 21.0.2, SVG Export Plug-In . SVG Version: 6.00 Build 0)  -->
<svg version="1.1" id="Capa_1" xmlns="http://www.w3.org/2000/svg" xmlns:xlink="http://www.w3.org/1999/xlink" x="0px" y="0px"
	 viewBox="0 0 447.0552 21.5918" style="enable-background:new 0 0 447.0552 21.5918;" xml:space="preserve">
<g>
	<path style="fill:#C9452F;" d="M11.4185,18.4424c-0.2686,0.625-0.6372,1.1719-1.106,1.6406s-1.0156,0.8374-1.6406,1.106
		s-1.2939,0.4028-2.0068,0.4028H5.1709c-0.7129,0-1.3843-0.1343-2.0142-0.4028s-1.1792-0.6372-1.6479-1.106
		s-0.8374-1.0156-1.106-1.6406S0,17.1484,0,16.4355V5.1563c0-0.7129,0.1343-1.3818,0.4028-2.0068S1.04,1.9775,1.5088,1.5088
		s1.0181-0.8374,1.6479-1.106S4.458,0,5.1709,0H6.665c0.7129,0,1.3818,0.1343,2.0068,0.4028s1.1719,0.6372,1.6406,1.106
		s0.8374,1.0156,1.106,1.6406s0.4028,1.2939,0.4028,2.0068v0.8496l-1.8896,0.293V5.1563c0-0.4688-0.0879-0.9058-0.2637-1.311
		s-0.415-0.7593-0.7178-1.062s-0.6567-0.542-1.062-0.7178s-0.8423-0.2637-1.311-0.2637H5.2588c-0.4688,0-0.9058,0.0879-1.311,0.2637
		S3.186,2.4805,2.8784,2.7832s-0.5493,0.6567-0.7251,1.062s-0.2637,0.8423-0.2637,1.311v11.2793
		c0,0.4688,0.0879,0.9058,0.2637,1.311s0.4175,0.7617,0.7251,1.0693s0.6641,0.5493,1.0693,0.7251s0.8423,0.2637,1.311,0.2637h1.3184
		c0.4688,0,0.9058-0.0879,1.311-0.2637s0.7593-0.4175,1.062-0.7251s0.542-0.6641,0.7178-1.0693s0.2637-0.8423,0.2637-1.311V15.293
		l1.8896,0.3076v0.835C11.8213,17.1484,11.687,17.8174,11.4185,18.4424z"/>
	<path style="fill:#C9452F;" d="M24.8438,21.2988l-0.9961-1.4941c-0.4102,0.5371-0.9229,0.9692-1.5381,1.2964
		s-1.2891,0.4907-2.0215,0.4907H19.834c-0.6055,0-1.1768-0.1147-1.7139-0.3442s-1.0059-0.5444-1.4063-0.9448
		s-0.7153-0.8691-0.9448-1.4063s-0.3442-1.1084-0.3442-1.7139v-0.1465c0-0.6055,0.1147-1.1768,0.3442-1.7139
		s0.5444-1.0059,0.9448-1.4063s0.8691-0.7153,1.4063-0.9448s1.1084-0.3442,1.7139-0.3442h3.8086v-2.3145
		c0-0.3613-0.0684-0.7007-0.2051-1.0181s-0.3223-0.5933-0.5566-0.8276s-0.5103-0.4199-0.8276-0.5566s-0.6567-0.2051-1.0181-0.2051
		h-1.0547c-0.3613,0-0.7007,0.0684-1.0181,0.2051s-0.5933,0.3223-0.8276,0.5566s-0.4199,0.5103-0.5566,0.8276
		s-0.2051,0.6567-0.2051,1.0181v0.542l-1.8018-0.293V10.415c0-0.6055,0.1147-1.1768,0.3442-1.7139s0.5444-1.0059,0.9448-1.4063
		s0.8691-0.7153,1.4063-0.9448s1.1084-0.3442,1.7139-0.3442h1.0547c0.6055,0,1.1768,0.1147,1.7139,0.3442
		s1.0059,0.5444,1.4063,0.9448s0.7153,0.8691,0.9448,1.4063s0.3442,1.1084,0.3442,1.7139v10.8838H24.8438z M23.6426,14.0332H19.834
		c-0.3613,0-0.7007,0.0684-1.0181,0.2051s-0.5933,0.3247-0.8276,0.564s-0.4199,0.5176-0.5566,0.835s-0.2051,0.6567-0.2051,1.0181
		v0.6299c0,0.3613,0.0684,0.7007,0.2051,1.0181s0.3223,0.5933,0.5566,0.8276s0.5103,0.4199,0.8276,0.5566
		s0.6567,0.2051,1.0181,0.2051h1.2012c0.3613,0,0.7007-0.0684,1.0181-0.2051s0.5933-0.3223,0.8276-0.5566
		s0.4199-0.5103,0.5566-0.8276s0.2051-0.6567,0.2051-1.0181V14.0332z"/>
	<path style="fill:#C9452F;" d="M33.457,8.0127c-0.3613,0-0.7007,0.0684-1.0181,0.2051S31.8457,8.54,31.6113,8.7744
		s-0.4199,0.5103-0.5566,0.8276s-0.2051,0.6567-0.2051,1.0181v10.6787h-1.8018v-15h0.6006l0.9814,1.5234
		c0.4102-0.5566,0.9253-0.9985,1.5454-1.3257s1.2964-0.4907,2.0288-0.4907h1.0547v2.0068H33.457z"/>
	<path style="fill:#C9452F;" d="M47.0801,21.2988l-0.9961-1.4941c-0.4102,0.5371-0.9229,0.9692-1.5381,1.2964
		s-1.2891,0.4907-2.0215,0.4907h-0.4541c-0.6055,0-1.1768-0.1147-1.7139-0.3442s-1.0059-0.5444-1.4063-0.9448
		s-0.7153-0.8691-0.9448-1.4063s-0.3442-1.1084-0.3442-1.7139v-0.1465c0-0.6055,0.1147-1.1768,0.3442-1.7139
		s0.5444-1.0059,0.9448-1.4063s0.8691-0.7153,1.4063-0.9448s1.1084-0.3442,1.7139-0.3442h3.8086v-2.3145
		c0-0.3613-0.0684-0.7007-0.2051-1.0181s-0.3223-0.5933-0.5566-0.8276s-0.5103-0.4199-0.8276-0.5566s-0.6567-0.2051-1.0181-0.2051
		h-1.0547c-0.3613,0-0.7007,0.0684-1.0181,0.2051s-0.5933,0.3223-0.8276,0.5566s-0.4199,0.5103-0.5566,0.8276
		s-0.2051,0.6567-0.2051,1.0181v0.542l-1.8018-0.293V10.415c0-0.6055,0.1147-1.1768,0.3442-1.7139s0.5444-1.0059,0.9448-1.4063
		s0.8691-0.7153,1.4063-0.9448s1.1084-0.3442,1.7139-0.3442h1.0547c0.6055,0,1.1768,0.1147,1.7139,0.3442
		s1.0059,0.5444,1.4063,0.9448s0.7153,0.8691,0.9448,1.4063s0.3442,1.1084,0.3442,1.7139v10.8838H47.0801z M45.8789,14.0332h-3.8086
		c-0.3613,0-0.7007,0.0684-1.0181,0.2051s-0.5933,0.3247-0.8276,0.564s-0.4199,0.5176-0.5566,0.835s-0.2051,0.6567-0.2051,1.0181
		v0.6299c0,0.3613,0.0684,0.7007,0.2051,1.0181s0.3223,0.5933,0.5566,0.8276s0.5103,0.4199,0.8276,0.5566
		s0.6567,0.2051,1.0181,0.2051h1.2012c0.3613,0,0.7007-0.0684,1.0181-0.2051s0.5933-0.3223,0.8276-0.5566
		s0.4199-0.5103,0.5566-0.8276s0.2051-0.6567,0.2051-1.0181V14.0332z"/>
	<path style="fill:#C9452F;" d="M60.9595,18.8965c-0.2295,0.5371-0.5444,1.0059-0.9448,1.4063s-0.8691,0.7153-1.4063,0.9448
		s-1.1084,0.3442-1.7139,0.3442h-1.2012c-0.6055,0-1.1768-0.1147-1.7139-0.3442s-1.0059-0.5444-1.4063-0.9448
		s-0.7153-0.8691-0.9448-1.4063s-0.3442-1.1084-0.3442-1.7139V10.415c0-0.6055,0.1147-1.1768,0.3442-1.7139
		s0.5444-1.0059,0.9448-1.4063s0.8691-0.7153,1.4063-0.9448s1.1084-0.3442,1.7139-0.3442h1.2012
		c0.6055,0,1.1768,0.1147,1.7139,0.3442s1.0059,0.5444,1.4063,0.9448s0.7153,0.8691,0.9448,1.4063s0.3442,1.1084,0.3442,1.7139
		v0.6006l-1.8018,0.293v-0.9961c0-0.3613-0.0684-0.7007-0.2051-1.0181s-0.3223-0.5933-0.5566-0.8276S58.23,8.0469,57.9126,7.9102
		s-0.6567-0.2051-1.0181-0.2051h-1.2012c-0.3613,0-0.7007,0.0684-1.0181,0.2051s-0.5933,0.3223-0.8276,0.5566
		s-0.4199,0.5103-0.5566,0.8276s-0.2051,0.6567-0.2051,1.0181v6.9727c0,0.3613,0.0684,0.7007,0.2051,1.0181
		s0.3223,0.5933,0.5566,0.8276s0.5103,0.4199,0.8276,0.5566s0.6567,0.2051,1.0181,0.2051h1.2012
		c0.3613,0,0.7007-0.0684,1.0181-0.2051s0.5933-0.3223,0.8276-0.5566s0.4199-0.5103,0.5566-0.8276s0.2051-0.6567,0.2051-1.0181
		v-0.9961l1.8018,0.293v0.6006C61.3037,17.7881,61.189,18.3594,60.9595,18.8965z"/>
	<path style="fill:#C9452F;" d="M70.3711,21.2988c-0.5469,0-1.062-0.1025-1.5454-0.3076s-0.9033-0.4883-1.2598-0.8496
		s-0.6396-0.7813-0.8496-1.2598s-0.3149-0.9912-0.3149-1.5381V8.0127h-2.6953V6.2988h2.6953V2.6953l1.8018-0.293v3.8965h3.8086
		v1.7139h-3.8086v9.4189c0,0.3027,0.0562,0.5835,0.1685,0.8423s0.2661,0.4858,0.4614,0.6812s0.4248,0.3491,0.6885,0.4614
		s0.5469,0.1685,0.8496,0.1685h1.6406v1.7139H70.3711z"/>
	<path style="fill:#C9452F;" d="M84.9976,18.8965c-0.2295,0.5371-0.5444,1.0059-0.9448,1.4063s-0.8691,0.7153-1.4063,0.9448
		s-1.1084,0.3442-1.7139,0.3442h-1.2012c-0.6055,0-1.1768-0.1147-1.7139-0.3442s-1.0059-0.5444-1.4063-0.9448
		s-0.7153-0.8691-0.9448-1.4063s-0.3442-1.1084-0.3442-1.7139V10.415c0-0.6055,0.1147-1.1768,0.3442-1.7139
		s0.5444-1.0059,0.9448-1.4063s0.8691-0.7153,1.4063-0.9448s1.1084-0.3442,1.7139-0.3442h1.2012
		c0.6055,0,1.1768,0.1147,1.7139,0.3442s1.0059,0.5444,1.4063,0.9448s0.7153,0.8691,0.9448,1.4063s0.3442,1.1084,0.3442,1.7139
		v3.5303H77.124v3.3398c0,0.3613,0.0684,0.7007,0.2051,1.0181s0.3223,0.5933,0.5566,0.8276s0.5103,0.4199,0.8276,0.5566
		s0.6567,0.2051,1.0181,0.2051h1.2012c0.3613,0,0.7007-0.0684,1.0181-0.2051s0.5933-0.3223,0.8276-0.5566
		s0.4199-0.5103,0.5566-0.8276s0.2051-0.6567,0.2051-1.0181v-0.9961l1.8018,0.293v0.6006
		C85.3418,17.7881,85.2271,18.3594,84.9976,18.8965z M83.54,10.3125c0-0.3613-0.0684-0.7007-0.2051-1.0181
		s-0.3223-0.5933-0.5566-0.8276s-0.5103-0.4199-0.8276-0.5566s-0.6567-0.2051-1.0181-0.2051h-1.2012
		c-0.3613,0-0.7007,0.0684-1.0181,0.2051s-0.5933,0.3223-0.8276,0.5566s-0.4199,0.5103-0.5566,0.8276s-0.2051,0.6567-0.2051,1.0181
		v2.2266h6.416V10.3125z"/>
	<path style="fill:#C9452F;" d="M93.3545,8.0127c-0.3613,0-0.7007,0.0684-1.0181,0.2051S91.7432,8.54,91.5088,8.7744
		s-0.4199,0.5103-0.5566,0.8276s-0.2051,0.6567-0.2051,1.0181v10.6787h-1.8018v-15h0.6006l0.9814,1.5234
		c0.4102-0.5566,0.9253-0.9985,1.5454-1.3257s1.2964-0.4907,2.0288-0.4907h1.0547v2.0068H93.3545z"/>
	<path style="fill:#C9452F;" d="M98.3057,3.8965H96.958l2.4023-3.6035h3.0029L98.3057,3.8965z M98.1592,21.2988v-15h1.8018v15
		H98.1592z"/>
	<path style="fill:#C9452F;" d="M114.4775,17.4902c0,0.6055-0.1221,1.1597-0.3662,1.6626s-0.5762,0.9351-0.9961,1.2964
		s-0.9058,0.6421-1.4575,0.8423s-1.1304,0.3003-1.7358,0.3003h-1.2012c-0.6055,0-1.1841-0.1147-1.7358-0.3442
		s-1.0352-0.5444-1.4502-0.9448s-0.7471-0.8691-0.9961-1.4063s-0.3735-1.1084-0.3735-1.7139V16.582l1.8018-0.293v0.9961
		c0,0.3613,0.0757,0.7007,0.2271,1.0181s0.354,0.5933,0.6079,0.8276s0.5469,0.4199,0.8789,0.5566s0.6787,0.2051,1.04,0.2051h1.2012
		c0.3613,0,0.708-0.0537,1.04-0.1611s0.6274-0.2612,0.8862-0.4614s0.4639-0.4419,0.6152-0.7251s0.2271-0.6055,0.2271-0.9668
		c0-0.5371-0.1172-0.9766-0.3516-1.3184s-0.5444-0.6274-0.9302-0.8569s-0.8252-0.4199-1.3184-0.5713s-0.9985-0.3027-1.5161-0.4541
		s-1.0229-0.3247-1.5161-0.52s-0.9326-0.4517-1.3184-0.769s-0.6958-0.7153-0.9302-1.1938s-0.3516-1.0742-0.3516-1.7871
		c0-0.6055,0.1172-1.1597,0.3516-1.6626s0.5518-0.9351,0.9521-1.2964s0.8667-0.6421,1.3989-0.8423s1.1011-0.3003,1.7065-0.3003
		h1.0547c0.6055,0,1.1768,0.1147,1.7139,0.3442s1.0059,0.5444,1.4063,0.9448s0.7153,0.8691,0.9448,1.4063
		s0.3442,1.1084,0.3442,1.7139v0.0586l-1.8018,0.293v-0.4541c0-0.3613-0.0684-0.7007-0.2051-1.0181s-0.3223-0.5933-0.5566-0.8276
		s-0.5103-0.4199-0.8276-0.5566s-0.6567-0.2051-1.0181-0.2051h-1.0547c-0.3613,0-0.7007,0.0537-1.0181,0.1611
		s-0.5933,0.2612-0.8276,0.4614s-0.4199,0.4419-0.5566,0.7251s-0.2051,0.6055-0.2051,0.9668c0,0.5176,0.1172,0.9399,0.3516,1.2671
		s0.5444,0.603,0.9302,0.8276s0.8252,0.4126,1.3184,0.564s0.9961,0.3076,1.5088,0.4688s1.0156,0.3442,1.5088,0.5493
		s0.9326,0.4688,1.3184,0.791s0.6958,0.7251,0.9302,1.2085S114.4775,16.7773,114.4775,17.4902z"/>
	<path style="fill:#C9452F;" d="M123.3984,21.2988c-0.5469,0-1.062-0.1025-1.5454-0.3076s-0.9033-0.4883-1.2598-0.8496
		s-0.6396-0.7813-0.8496-1.2598s-0.3149-0.9912-0.3149-1.5381V8.0127h-2.6953V6.2988h2.6953V2.6953l1.8018-0.293v3.8965h3.8086
		v1.7139h-3.8086v9.4189c0,0.3027,0.0562,0.5835,0.1685,0.8423s0.2661,0.4858,0.4614,0.6812s0.4248,0.3491,0.6885,0.4614
		s0.5469,0.1685,0.8496,0.1685h1.6406v1.7139H123.3984z"/>
	<path style="fill:#C9452F;" d="M128.8037,2.6953V0.293h2.0947v2.4023H128.8037z M128.9502,21.2988v-15h1.8018v15H128.9502z"/>
	<path style="fill:#C9452F;" d="M144.6313,18.8965c-0.2295,0.5371-0.5444,1.0059-0.9448,1.4063s-0.8691,0.7153-1.4063,0.9448
		s-1.1084,0.3442-1.7139,0.3442h-1.2012c-0.6055,0-1.1768-0.1147-1.7139-0.3442s-1.0059-0.5444-1.4063-0.9448
		s-0.7153-0.8691-0.9448-1.4063s-0.3442-1.1084-0.3442-1.7139V10.415c0-0.6055,0.1147-1.1768,0.3442-1.7139
		s0.5444-1.0059,0.9448-1.4063s0.8691-0.7153,1.4063-0.9448s1.1084-0.3442,1.7139-0.3442h1.2012
		c0.6055,0,1.1768,0.1147,1.7139,0.3442s1.0059,0.5444,1.4063,0.9448s0.7153,0.8691,0.9448,1.4063s0.3442,1.1084,0.3442,1.7139
		v0.6006l-1.8018,0.293v-0.9961c0-0.3613-0.0684-0.7007-0.2051-1.0181s-0.3223-0.5933-0.5566-0.8276s-0.5103-0.4199-0.8276-0.5566
		s-0.6567-0.2051-1.0181-0.2051h-1.2012c-0.3613,0-0.7007,0.0684-1.0181,0.2051s-0.5933,0.3223-0.8276,0.5566
		s-0.4199,0.5103-0.5566,0.8276s-0.2051,0.6567-0.2051,1.0181v6.9727c0,0.3613,0.0684,0.7007,0.2051,1.0181
		s0.3223,0.5933,0.5566,0.8276s0.5103,0.4199,0.8276,0.5566s0.6567,0.2051,1.0181,0.2051h1.2012
		c0.3613,0,0.7007-0.0684,1.0181-0.2051s0.5933-0.3223,0.8276-0.5566s0.4199-0.5103,0.5566-0.8276s0.2051-0.6567,0.2051-1.0181
		v-0.9961l1.8018,0.293v0.6006C144.9756,17.7881,144.8608,18.3594,144.6313,18.8965z"/>
	<path style="fill:#C9452F;" d="M157.998,21.2988l-0.9961-1.4941c-0.4102,0.5371-0.9229,0.9692-1.5381,1.2964
		s-1.2891,0.4907-2.0215,0.4907h-0.4541c-0.6055,0-1.1768-0.1147-1.7139-0.3442s-1.0059-0.5444-1.4063-0.9448
		s-0.7153-0.8691-0.9448-1.4063s-0.3442-1.1084-0.3442-1.7139v-0.1465c0-0.6055,0.1147-1.1768,0.3442-1.7139
		s0.5444-1.0059,0.9448-1.4063s0.8691-0.7153,1.4063-0.9448s1.1084-0.3442,1.7139-0.3442h3.8086v-2.3145
		c0-0.3613-0.0684-0.7007-0.2051-1.0181s-0.3223-0.5933-0.5566-0.8276s-0.5103-0.4199-0.8276-0.5566s-0.6567-0.2051-1.0181-0.2051
		h-1.0547c-0.3613,0-0.7007,0.0684-1.0181,0.2051s-0.5933,0.3223-0.8276,0.5566s-0.4199,0.5103-0.5566,0.8276
		s-0.2051,0.6567-0.2051,1.0181v0.542l-1.8018-0.293V10.415c0-0.6055,0.1147-1.1768,0.3442-1.7139s0.5444-1.0059,0.9448-1.4063
		s0.8691-0.7153,1.4063-0.9448s1.1084-0.3442,1.7139-0.3442h1.0547c0.6055,0,1.1768,0.1147,1.7139,0.3442
		s1.0059,0.5444,1.4063,0.9448s0.7153,0.8691,0.9448,1.4063s0.3442,1.1084,0.3442,1.7139v10.8838H157.998z M156.7969,14.0332
		h-3.8086c-0.3613,0-0.7007,0.0684-1.0181,0.2051s-0.5933,0.3247-0.8276,0.564s-0.4199,0.5176-0.5566,0.835
		s-0.2051,0.6567-0.2051,1.0181v0.6299c0,0.3613,0.0684,0.7007,0.2051,1.0181s0.3223,0.5933,0.5566,0.8276
		s0.5103,0.4199,0.8276,0.5566s0.6567,0.2051,1.0181,0.2051h1.2012c0.3613,0,0.7007-0.0684,1.0181-0.2051
		s0.5933-0.3223,0.8276-0.5566s0.4199-0.5103,0.5566-0.8276s0.2051-0.6567,0.2051-1.0181V14.0332z"/>
	<path style="fill:#C9452F;" d="M172.5146,17.4902c0,0.6055-0.1221,1.1597-0.3662,1.6626s-0.5762,0.9351-0.9961,1.2964
		s-0.9058,0.6421-1.4575,0.8423s-1.1304,0.3003-1.7358,0.3003h-1.2012c-0.6055,0-1.1841-0.1147-1.7358-0.3442
		s-1.0352-0.5444-1.4502-0.9448s-0.7471-0.8691-0.9961-1.4063s-0.3735-1.1084-0.3735-1.7139V16.582l1.8018-0.293v0.9961
		c0,0.3613,0.0757,0.7007,0.2271,1.0181s0.354,0.5933,0.6079,0.8276s0.5469,0.4199,0.8789,0.5566s0.6787,0.2051,1.04,0.2051h1.2012
		c0.3613,0,0.708-0.0537,1.04-0.1611s0.6274-0.2612,0.8862-0.4614s0.4639-0.4419,0.6152-0.7251s0.2271-0.6055,0.2271-0.9668
		c0-0.5371-0.1172-0.9766-0.3516-1.3184s-0.5444-0.6274-0.9302-0.8569s-0.8252-0.4199-1.3184-0.5713s-0.9985-0.3027-1.5161-0.4541
		s-1.0229-0.3247-1.5161-0.52s-0.9326-0.4517-1.3184-0.769s-0.6958-0.7153-0.9302-1.1938s-0.3516-1.0742-0.3516-1.7871
		c0-0.6055,0.1172-1.1597,0.3516-1.6626s0.5518-0.9351,0.9521-1.2964s0.8667-0.6421,1.3989-0.8423s1.1011-0.3003,1.7065-0.3003
		h1.0547c0.6055,0,1.1768,0.1147,1.7139,0.3442s1.0059,0.5444,1.4063,0.9448s0.7153,0.8691,0.9448,1.4063
		s0.3442,1.1084,0.3442,1.7139v0.0586l-1.8018,0.293v-0.4541c0-0.3613-0.0684-0.7007-0.2051-1.0181s-0.3223-0.5933-0.5566-0.8276
		s-0.5103-0.4199-0.8276-0.5566s-0.6567-0.2051-1.0181-0.2051h-1.0547c-0.3613,0-0.7007,0.0537-1.0181,0.1611
		s-0.5933,0.2612-0.8276,0.4614s-0.4199,0.4419-0.5566,0.7251s-0.2051,0.6055-0.2051,0.9668c0,0.5176,0.1172,0.9399,0.3516,1.2671
		s0.5444,0.603,0.9302,0.8276s0.8252,0.4126,1.3184,0.564s0.9961,0.3076,1.5088,0.4688s1.0156,0.3442,1.5088,0.5493
		s0.9326,0.4688,1.3184,0.791s0.6958,0.7251,0.9302,1.2085S172.5146,16.7773,172.5146,17.4902z"/>
	<path style="fill:#C9452F;" d="M192.29,21.2988l-0.9961-1.5234c-0.4102,0.5566-0.9229,0.9985-1.5381,1.3257
		s-1.2891,0.4907-2.0215,0.4907h-0.4541c-0.6055,0-1.1768-0.1147-1.7139-0.3442s-1.0059-0.5444-1.4063-0.9448
		s-0.7153-0.8691-0.9448-1.4063s-0.3442-1.1084-0.3442-1.7139V10.415c0-0.6055,0.1147-1.1768,0.3442-1.7139
		s0.5444-1.0059,0.9448-1.4063s0.8691-0.7153,1.4063-0.9448s1.1084-0.3442,1.7139-0.3442h0.4541
		c0.6738,0,1.2988,0.1367,1.875,0.4102s1.0693,0.6543,1.4795,1.1426V0.293h1.8018v21.0059H192.29z M191.0889,10.3125
		c0-0.3613-0.0684-0.7007-0.2051-1.0181s-0.3223-0.5933-0.5566-0.8276s-0.5103-0.4199-0.8276-0.5566s-0.6567-0.2051-1.0181-0.2051
		h-1.2012c-0.3613,0-0.7007,0.0684-1.0181,0.2051s-0.5933,0.3223-0.8276,0.5566s-0.4199,0.5103-0.5566,0.8276
		s-0.2051,0.6567-0.2051,1.0181v6.9727c0,0.3613,0.0684,0.7007,0.2051,1.0181s0.3223,0.5933,0.5566,0.8276
		s0.5103,0.4199,0.8276,0.5566s0.6567,0.2051,1.0181,0.2051h1.2012c0.3613,0,0.7007-0.0684,1.0181-0.2051
		s0.5933-0.3223,0.8276-0.5566s0.4199-0.5103,0.5566-0.8276s0.2051-0.6567,0.2051-1.0181V10.3125z"/>
	<path style="fill:#C9452F;" d="M206.1694,18.8965c-0.2295,0.5371-0.5444,1.0059-0.9448,1.4063s-0.8691,0.7153-1.4063,0.9448
		s-1.1084,0.3442-1.7139,0.3442h-1.2012c-0.6055,0-1.1768-0.1147-1.7139-0.3442s-1.0059-0.5444-1.4063-0.9448
		s-0.7153-0.8691-0.9448-1.4063s-0.3442-1.1084-0.3442-1.7139V10.415c0-0.6055,0.1147-1.1768,0.3442-1.7139
		s0.5444-1.0059,0.9448-1.4063s0.8691-0.7153,1.4063-0.9448s1.1084-0.3442,1.7139-0.3442h1.2012
		c0.6055,0,1.1768,0.1147,1.7139,0.3442s1.0059,0.5444,1.4063,0.9448s0.7153,0.8691,0.9448,1.4063s0.3442,1.1084,0.3442,1.7139
		v3.5303h-8.2178v3.3398c0,0.3613,0.0684,0.7007,0.2051,1.0181s0.3223,0.5933,0.5566,0.8276s0.5103,0.4199,0.8276,0.5566
		s0.6567,0.2051,1.0181,0.2051h1.2012c0.3613,0,0.7007-0.0684,1.0181-0.2051s0.5933-0.3223,0.8276-0.5566
		s0.4199-0.5103,0.5566-0.8276s0.2051-0.6567,0.2051-1.0181v-0.9961l1.8018,0.293v0.6006
		C206.5137,17.7881,206.3989,18.3594,206.1694,18.8965z M204.7119,10.3125c0-0.3613-0.0684-0.7007-0.2051-1.0181
		s-0.3223-0.5933-0.5566-0.8276s-0.5103-0.4199-0.8276-0.5566s-0.6567-0.2051-1.0181-0.2051h-1.2012
		c-0.3613,0-0.7007,0.0684-1.0181,0.2051s-0.5933,0.3223-0.8276,0.5566s-0.4199,0.5103-0.5566,0.8276s-0.2051,0.6567-0.2051,1.0181
		v2.2266h6.416V10.3125z"/>
	<path style="fill:#C9452F;" d="M217.6172,21.2988V0.293h1.8018v21.0059H217.6172z"/>
	<path style="fill:#C9452F;" d="M233.042,21.2988l-0.9961-1.4941c-0.4102,0.5371-0.9229,0.9692-1.5381,1.2964
		s-1.2891,0.4907-2.0215,0.4907h-0.4541c-0.6055,0-1.1768-0.1147-1.7139-0.3442s-1.0059-0.5444-1.4063-0.9448
		s-0.7153-0.8691-0.9448-1.4063s-0.3442-1.1084-0.3442-1.7139v-0.1465c0-0.6055,0.1147-1.1768,0.3442-1.7139
		s0.5444-1.0059,0.9448-1.4063s0.8691-0.7153,1.4063-0.9448s1.1084-0.3442,1.7139-0.3442h3.8086v-2.3145
		c0-0.3613-0.0684-0.7007-0.2051-1.0181s-0.3223-0.5933-0.5566-0.8276s-0.5103-0.4199-0.8276-0.5566s-0.6567-0.2051-1.0181-0.2051
		h-1.0547c-0.3613,0-0.7007,0.0684-1.0181,0.2051s-0.5933,0.3223-0.8276,0.5566s-0.4199,0.5103-0.5566,0.8276
		s-0.2051,0.6567-0.2051,1.0181v0.542l-1.8018-0.293V10.415c0-0.6055,0.1147-1.1768,0.3442-1.7139s0.5444-1.0059,0.9448-1.4063
		s0.8691-0.7153,1.4063-0.9448s1.1084-0.3442,1.7139-0.3442h1.0547c0.6055,0,1.1768,0.1147,1.7139,0.3442
		s1.0059,0.5444,1.4063,0.9448s0.7153,0.8691,0.9448,1.4063s0.3442,1.1084,0.3442,1.7139v10.8838H233.042z M231.8408,14.0332
		h-3.8086c-0.3613,0-0.7007,0.0684-1.0181,0.2051s-0.5933,0.3247-0.8276,0.564s-0.4199,0.5176-0.5566,0.835
		s-0.2051,0.6567-0.2051,1.0181v0.6299c0,0.3613,0.0684,0.7007,0.2051,1.0181s0.3223,0.5933,0.5566,0.8276
		s0.5103,0.4199,0.8276,0.5566s0.6567,0.2051,1.0181,0.2051h1.2012c0.3613,0,0.7007-0.0684,1.0181-0.2051
		s0.5933-0.3223,0.8276-0.5566s0.4199-0.5103,0.5566-0.8276s0.2051-0.6567,0.2051-1.0181V14.0332z"/>
	<path style="fill:#C9452F;" d="M244.5996,2.6953V0.293h2.0947v2.4023H244.5996z M244.7461,21.2988v-15h1.8018v15H244.7461z"/>
	<path style="fill:#C9452F;" d="M258.9697,21.2988V10.3125c0-0.3613-0.0684-0.7007-0.2051-1.0181s-0.3223-0.5933-0.5566-0.8276
		s-0.5103-0.4199-0.8276-0.5566s-0.6567-0.2051-1.0181-0.2051h-1.2012c-0.3613,0-0.7007,0.0684-1.0181,0.2051
		s-0.5933,0.3223-0.8276,0.5566s-0.4199,0.5103-0.5566,0.8276s-0.2051,0.6567-0.2051,1.0181v10.9863h-1.8018v-15h0.6006
		l0.9814,1.5234c0.4102-0.5566,0.9253-0.9985,1.5454-1.3257s1.2964-0.4907,2.0288-0.4907h0.4541
		c0.6055,0,1.1768,0.1147,1.7139,0.3442s1.0059,0.5444,1.4063,0.9448s0.7153,0.8691,0.9448,1.4063s0.3442,1.1084,0.3442,1.7139
		v10.8838H258.9697z"/>
	<path style="fill:#C9452F;" d="M269.5313,2.0068c-0.3027,0-0.5835,0.0562-0.8423,0.1685s-0.4858,0.2661-0.6812,0.4614
		s-0.3491,0.4248-0.4614,0.6885s-0.1685,0.5469-0.1685,0.8496v2.124h3.501v1.7139h-3.501v13.2861h-1.8018V8.0127h-2.71V6.2988h2.71
		V4.2627c0-0.5469,0.1025-1.062,0.3076-1.5454s0.4883-0.9058,0.8496-1.2671s0.7813-0.6445,1.2598-0.8496
		s0.9912-0.3076,1.5381-0.3076h1.6553v1.7139H269.5313z"/>
	<path style="fill:#C9452F;" d="M282.6636,18.8965c-0.2295,0.5371-0.5444,1.0059-0.9448,1.4063s-0.8691,0.7153-1.4063,0.9448
		s-1.1084,0.3442-1.7139,0.3442h-1.2012c-0.6055,0-1.1768-0.1147-1.7139-0.3442s-1.0059-0.5444-1.4063-0.9448
		s-0.7153-0.8691-0.9448-1.4063s-0.3442-1.1084-0.3442-1.7139V10.415c0-0.6055,0.1147-1.1768,0.3442-1.7139
		s0.5444-1.0059,0.9448-1.4063s0.8691-0.7153,1.4063-0.9448s1.1084-0.3442,1.7139-0.3442h1.2012
		c0.6055,0,1.1768,0.1147,1.7139,0.3442s1.0059,0.5444,1.4063,0.9448s0.7153,0.8691,0.9448,1.4063s0.3442,1.1084,0.3442,1.7139
		v6.7676C283.0078,17.7881,282.8931,18.3594,282.6636,18.8965z M281.2061,10.3125c0-0.3613-0.0684-0.7007-0.2051-1.0181
		s-0.3223-0.5933-0.5566-0.8276s-0.5103-0.4199-0.8276-0.5566s-0.6567-0.2051-1.0181-0.2051h-1.2012
		c-0.3613,0-0.7007,0.0684-1.0181,0.2051s-0.5933,0.3223-0.8276,0.5566s-0.4199,0.5103-0.5566,0.8276s-0.2051,0.6567-0.2051,1.0181
		v6.9727c0,0.3613,0.0684,0.7007,0.2051,1.0181s0.3223,0.5933,0.5566,0.8276s0.5103,0.4199,0.8276,0.5566
		s0.6567,0.2051,1.0181,0.2051h1.2012c0.3613,0,0.7007-0.0684,1.0181-0.2051s0.5933-0.3223,0.8276-0.5566
		s0.4199-0.5103,0.5566-0.8276s0.2051-0.6567,0.2051-1.0181V10.3125z"/>
	<path style="fill:#C9452F;" d="M291.0205,8.0127c-0.3613,0-0.7007,0.0684-1.0181,0.2051s-0.5933,0.3223-0.8276,0.5566
		s-0.4199,0.5103-0.5566,0.8276s-0.2051,0.6567-0.2051,1.0181v10.6787h-1.8018v-15h0.6006l0.9814,1.5234
		c0.4102-0.5566,0.9253-0.9985,1.5454-1.3257s1.2964-0.4907,2.0288-0.4907h1.0547v2.0068H291.0205z"/>
	<path style="fill:#C9452F;" d="M311.0601,21.2988V10.3125c0-0.3613-0.0684-0.7007-0.2051-1.0181s-0.3223-0.5933-0.5566-0.8276
		s-0.5117-0.4199-0.8281-0.5566c-0.3184-0.1367-0.6563-0.2051-1.0176-0.2051h-0.8945c-0.3613,0-0.7012,0.0684-1.0176,0.2051
		c-0.3184,0.1367-0.5957,0.3223-0.834,0.5566c-0.2402,0.2344-0.4277,0.5103-0.5645,0.8276s-0.2051,0.6567-0.2051,1.0181v10.9863
		h-1.7871V10.3125c0-0.3613-0.0684-0.7007-0.2051-1.0181s-0.3262-0.5933-0.5645-0.8276c-0.2402-0.2344-0.5176-0.4199-0.834-0.5566
		c-0.3184-0.1367-0.6582-0.2051-1.0195-0.2051h-0.8926c-0.3613,0-0.7012,0.0684-1.0176,0.2051
		c-0.3184,0.1367-0.5938,0.3223-0.8281,0.5566c-0.2349,0.2344-0.4204,0.5103-0.5571,0.8276s-0.2051,0.6567-0.2051,1.0181v10.9863
		h-1.8018v-15h0.6006l0.9814,1.5234c0.4102-0.5566,0.9253-0.9985,1.5454-1.3257s1.2959-0.4907,2.0283-0.4907h0.1465
		c0.8496,0,1.6172,0.21,2.3008,0.6299s1.2109,0.9766,1.582,1.6699c0.1855-0.3418,0.4141-0.6543,0.6875-0.9375
		s0.5762-0.5249,0.9082-0.7251s0.6934-0.3564,1.084-0.4688s0.7969-0.1685,1.2168-0.1685h0.1465
		c0.6055,0,1.1758,0.1147,1.7129,0.3442s1.0059,0.5444,1.4063,0.9448s0.7148,0.8691,0.9453,1.4063
		c0.2285,0.5371,0.3438,1.1084,0.3438,1.7139v10.8838H311.0601z"/>
	<path style="fill:#C9452F;" d="M325.8843,21.2988l-0.9961-1.4941c-0.4102,0.5371-0.9229,0.9692-1.5381,1.2964
		s-1.2891,0.4907-2.0215,0.4907h-0.4541c-0.6055,0-1.1768-0.1147-1.7139-0.3442s-1.0059-0.5444-1.4063-0.9448
		s-0.7158-0.8691-0.9443-1.4063c-0.2305-0.5371-0.3447-1.1084-0.3447-1.7139v-0.1465c0-0.6055,0.1143-1.1768,0.3447-1.7139
		c0.2285-0.5371,0.5439-1.0059,0.9443-1.4063s0.8691-0.7153,1.4063-0.9448s1.1084-0.3442,1.7139-0.3442h3.8086v-2.3145
		c0-0.3613-0.0684-0.7007-0.2051-1.0181s-0.3223-0.5933-0.5566-0.8276s-0.5107-0.4199-0.8281-0.5566s-0.6563-0.2051-1.0176-0.2051
		h-1.0547c-0.3613,0-0.7012,0.0684-1.0176,0.2051c-0.3184,0.1367-0.5938,0.3223-0.8281,0.5566s-0.4199,0.5103-0.5566,0.8276
		s-0.2051,0.6567-0.2051,1.0181v0.542l-1.8018-0.293V10.415c0-0.6055,0.1143-1.1768,0.3447-1.7139
		c0.2285-0.5371,0.5439-1.0059,0.9443-1.4063s0.8691-0.7153,1.4063-0.9448s1.1084-0.3442,1.7139-0.3442h1.0547
		c0.6055,0,1.1768,0.1147,1.7139,0.3442s1.0059,0.5444,1.4063,0.9448s0.7148,0.8691,0.9443,1.4063s0.3447,1.1084,0.3447,1.7139
		v10.8838H325.8843z M324.6831,14.0332h-3.8086c-0.3613,0-0.7012,0.0684-1.0176,0.2051c-0.3184,0.1367-0.5938,0.3247-0.8281,0.564
		s-0.4199,0.5176-0.5566,0.835s-0.2051,0.6567-0.2051,1.0181v0.6299c0,0.3613,0.0684,0.7007,0.2051,1.0181
		s0.3223,0.5933,0.5566,0.8276s0.5098,0.4199,0.8281,0.5566c0.3164,0.1367,0.6563,0.2051,1.0176,0.2051h1.2012
		c0.3613,0,0.7002-0.0684,1.0176-0.2051s0.5938-0.3223,0.8281-0.5566s0.4199-0.5103,0.5566-0.8276s0.2051-0.6567,0.2051-1.0181
		V14.0332z"/>
	<path style="fill:#C9452F;" d="M339.7632,18.8965c-0.2295,0.5371-0.5439,1.0059-0.9443,1.4063s-0.8691,0.7153-1.4063,0.9448
		s-1.1084,0.3442-1.7139,0.3442h-1.2012c-0.6055,0-1.1768-0.1147-1.7139-0.3442s-1.0059-0.5444-1.4063-0.9448
		s-0.7158-0.8691-0.9443-1.4063c-0.2305-0.5371-0.3447-1.1084-0.3447-1.7139V10.415c0-0.6055,0.1143-1.1768,0.3447-1.7139
		c0.2285-0.5371,0.5439-1.0059,0.9443-1.4063s0.8691-0.7153,1.4063-0.9448s1.1084-0.3442,1.7139-0.3442h1.2012
		c0.6055,0,1.1768,0.1147,1.7139,0.3442s1.0059,0.5444,1.4063,0.9448s0.7148,0.8691,0.9443,1.4063s0.3447,1.1084,0.3447,1.7139
		v0.6006l-1.8018,0.293v-0.9961c0-0.3613-0.0684-0.7007-0.2051-1.0181s-0.3223-0.5933-0.5566-0.8276s-0.5107-0.4199-0.8281-0.5566
		s-0.6563-0.2051-1.0176-0.2051h-1.2012c-0.3613,0-0.7012,0.0684-1.0176,0.2051c-0.3184,0.1367-0.5938,0.3223-0.8281,0.5566
		s-0.4199,0.5103-0.5566,0.8276s-0.2051,0.6567-0.2051,1.0181v6.9727c0,0.3613,0.0684,0.7007,0.2051,1.0181
		s0.3223,0.5933,0.5566,0.8276s0.5098,0.4199,0.8281,0.5566c0.3164,0.1367,0.6563,0.2051,1.0176,0.2051h1.2012
		c0.3613,0,0.7002-0.0684,1.0176-0.2051s0.5938-0.3223,0.8281-0.5566s0.4199-0.5103,0.5566-0.8276s0.2051-0.6567,0.2051-1.0181
		v-0.9961l1.8018,0.293v0.6006C340.1079,17.7881,339.9927,18.3594,339.7632,18.8965z"/>
	<path style="fill:#C9452F;" d="M344.1655,2.6953V0.293h2.0947v2.4023H344.1655z M344.312,21.2988v-15h1.8018v15H344.312z"/>
	<path style="fill:#C9452F;" d="M359.9917,18.8965c-0.2295,0.5371-0.5439,1.0059-0.9443,1.4063s-0.8691,0.7153-1.4063,0.9448
		s-1.1084,0.3442-1.7139,0.3442h-1.2012c-0.6055,0-1.1768-0.1147-1.7139-0.3442s-1.0059-0.5444-1.4063-0.9448
		s-0.7158-0.8691-0.9443-1.4063c-0.2305-0.5371-0.3447-1.1084-0.3447-1.7139V10.415c0-0.6055,0.1143-1.1768,0.3447-1.7139
		c0.2285-0.5371,0.5439-1.0059,0.9443-1.4063s0.8691-0.7153,1.4063-0.9448s1.1084-0.3442,1.7139-0.3442h1.2012
		c0.6055,0,1.1768,0.1147,1.7139,0.3442s1.0059,0.5444,1.4063,0.9448s0.7148,0.8691,0.9443,1.4063s0.3447,1.1084,0.3447,1.7139
		v6.7676C360.3364,17.7881,360.2212,18.3594,359.9917,18.8965z M358.5347,10.3125c0-0.3613-0.0684-0.7007-0.2051-1.0181
		s-0.3223-0.5933-0.5566-0.8276s-0.5107-0.4199-0.8281-0.5566s-0.6563-0.2051-1.0176-0.2051h-1.2012
		c-0.3613,0-0.7012,0.0684-1.0176,0.2051c-0.3184,0.1367-0.5938,0.3223-0.8281,0.5566s-0.4199,0.5103-0.5566,0.8276
		s-0.2051,0.6567-0.2051,1.0181v6.9727c0,0.3613,0.0684,0.7007,0.2051,1.0181s0.3223,0.5933,0.5566,0.8276
		s0.5098,0.4199,0.8281,0.5566c0.3164,0.1367,0.6563,0.2051,1.0176,0.2051h1.2012c0.3613,0,0.7002-0.0684,1.0176-0.2051
		s0.5938-0.3223,0.8281-0.5566s0.4199-0.5103,0.5566-0.8276s0.2051-0.6567,0.2051-1.0181V10.3125z M354.5796,3.8965h-1.3477
		l2.3877-3.6035h3.0029L354.5796,3.8965z"/>
	<path style="fill:#C9452F;" d="M372.1577,21.2988V10.3125c0-0.3613-0.0684-0.7007-0.2051-1.0181s-0.3223-0.5933-0.5566-0.8276
		s-0.5107-0.4199-0.8281-0.5566s-0.6563-0.2051-1.0176-0.2051h-1.2012c-0.3613,0-0.7012,0.0684-1.0176,0.2051
		c-0.3184,0.1367-0.5938,0.3223-0.8281,0.5566s-0.4199,0.5103-0.5566,0.8276s-0.2051,0.6567-0.2051,1.0181v10.9863h-1.8018v-15
		h0.6006l0.9814,1.5234c0.4102-0.5566,0.9248-0.9985,1.5459-1.3257c0.6191-0.3271,1.2959-0.4907,2.0283-0.4907h0.4541
		c0.6055,0,1.1768,0.1147,1.7139,0.3442s1.0059,0.5444,1.4063,0.9448s0.7148,0.8691,0.9443,1.4063s0.3447,1.1084,0.3447,1.7139
		v10.8838H372.1577z"/>
	<path style="fill:#C9452F;" d="M389.1655,21.2988h-0.8936l-5.3174-15h1.8018l3.9111,11.3672l0.0586,0.7764l0.0586-0.7764
		l3.8965-11.3672h1.8018L389.1655,21.2988z"/>
	<path style="fill:#C9452F;" d="M405.9956,21.2988l-0.9961-1.4941c-0.4102,0.5371-0.9229,0.9692-1.5381,1.2964
		s-1.2891,0.4907-2.0215,0.4907h-0.4541c-0.6055,0-1.1768-0.1147-1.7139-0.3442s-1.0059-0.5444-1.4063-0.9448
		s-0.7158-0.8691-0.9443-1.4063c-0.2305-0.5371-0.3447-1.1084-0.3447-1.7139v-0.1465c0-0.6055,0.1143-1.1768,0.3447-1.7139
		c0.2285-0.5371,0.5439-1.0059,0.9443-1.4063s0.8691-0.7153,1.4063-0.9448s1.1084-0.3442,1.7139-0.3442h3.8086v-2.3145
		c0-0.3613-0.0684-0.7007-0.2051-1.0181s-0.3223-0.5933-0.5566-0.8276s-0.5107-0.4199-0.8281-0.5566s-0.6563-0.2051-1.0176-0.2051
		h-1.0547c-0.3613,0-0.7012,0.0684-1.0176,0.2051c-0.3184,0.1367-0.5938,0.3223-0.8281,0.5566s-0.4199,0.5103-0.5566,0.8276
		s-0.2051,0.6567-0.2051,1.0181v0.542l-1.8018-0.293V10.415c0-0.6055,0.1143-1.1768,0.3447-1.7139
		c0.2285-0.5371,0.5439-1.0059,0.9443-1.4063s0.8691-0.7153,1.4063-0.9448s1.1084-0.3442,1.7139-0.3442h1.0547
		c0.6055,0,1.1768,0.1147,1.7139,0.3442s1.0059,0.5444,1.4063,0.9448s0.7148,0.8691,0.9443,1.4063s0.3447,1.1084,0.3447,1.7139
		v10.8838H405.9956z M404.7944,14.0332h-3.8086c-0.3613,0-0.7012,0.0684-1.0176,0.2051c-0.3184,0.1367-0.5938,0.3247-0.8281,0.564
		s-0.4199,0.5176-0.5566,0.835s-0.2051,0.6567-0.2051,1.0181v0.6299c0,0.3613,0.0684,0.7007,0.2051,1.0181
		s0.3223,0.5933,0.5566,0.8276s0.5098,0.4199,0.8281,0.5566c0.3164,0.1367,0.6563,0.2051,1.0176,0.2051h1.2012
		c0.3613,0,0.7002-0.0684,1.0176-0.2051s0.5938-0.3223,0.8281-0.5566s0.4199-0.5103,0.5566-0.8276s0.2051-0.6567,0.2051-1.0181
		V14.0332z M400.8394,3.8965h-1.3477l2.3877-3.6035h3.0029L400.8394,3.8965z"/>
	<path style="fill:#C9452F;" d="M410.8003,21.2988V0.293h1.8018v21.0059H410.8003z"/>
	<path style="fill:#C9452F;" d="M417.2612,2.6953V0.293h2.0947v2.4023H417.2612z M417.4077,21.2988v-15h1.8018v15H417.4077z"/>
	<path style="fill:#C9452F;" d="M432.8315,21.2988l-0.9961-1.5234c-0.4102,0.5566-0.9229,0.9985-1.5381,1.3257
		s-1.2891,0.4907-2.0215,0.4907h-0.4541c-0.6055,0-1.1768-0.1147-1.7139-0.3442s-1.0059-0.5444-1.4063-0.9448
		s-0.7158-0.8691-0.9443-1.4063c-0.2305-0.5371-0.3447-1.1084-0.3447-1.7139V10.415c0-0.6055,0.1143-1.1768,0.3447-1.7139
		c0.2285-0.5371,0.5439-1.0059,0.9443-1.4063s0.8691-0.7153,1.4063-0.9448s1.1084-0.3442,1.7139-0.3442h0.4541
		c0.6738,0,1.2988,0.1367,1.875,0.4102s1.0693,0.6543,1.4795,1.1426V0.293h1.8018v21.0059H432.8315z M431.6304,10.3125
		c0-0.3613-0.0684-0.7007-0.2051-1.0181s-0.3223-0.5933-0.5566-0.8276s-0.5107-0.4199-0.8281-0.5566s-0.6563-0.2051-1.0176-0.2051
		h-1.2012c-0.3613,0-0.7012,0.0684-1.0176,0.2051c-0.3184,0.1367-0.5938,0.3223-0.8281,0.5566s-0.4199,0.5103-0.5566,0.8276
		s-0.2051,0.6567-0.2051,1.0181v6.9727c0,0.3613,0.0684,0.7007,0.2051,1.0181s0.3223,0.5933,0.5566,0.8276
		s0.5098,0.4199,0.8281,0.5566c0.3164,0.1367,0.6563,0.2051,1.0176,0.2051h1.2012c0.3613,0,0.7002-0.0684,1.0176-0.2051
		s0.5938-0.3223,0.8281-0.5566s0.4199-0.5103,0.5566-0.8276s0.2051-0.6567,0.2051-1.0181V10.3125z"/>
	<path style="fill:#C9452F;" d="M446.4546,21.2988l-0.9961-1.4941c-0.4102,0.5371-0.9229,0.9692-1.5381,1.2964
		s-1.2891,0.4907-2.0215,0.4907h-0.4541c-0.6055,0-1.1768-0.1147-1.7139-0.3442s-1.0059-0.5444-1.4063-0.9448
		s-0.7158-0.8691-0.9443-1.4063c-0.2305-0.5371-0.3447-1.1084-0.3447-1.7139v-0.1465c0-0.6055,0.1143-1.1768,0.3447-1.7139
		c0.2285-0.5371,0.5439-1.0059,0.9443-1.4063s0.8691-0.7153,1.4063-0.9448s1.1084-0.3442,1.7139-0.3442h3.8086v-2.3145
		c0-0.3613-0.0684-0.7007-0.2051-1.0181s-0.3223-0.5933-0.5566-0.8276s-0.5107-0.4199-0.8281-0.5566s-0.6563-0.2051-1.0176-0.2051
		h-1.0547c-0.3613,0-0.7012,0.0684-1.0176,0.2051c-0.3184,0.1367-0.5938,0.3223-0.8281,0.5566s-0.4199,0.5103-0.5566,0.8276
		s-0.2051,0.6567-0.2051,1.0181v0.542l-1.8018-0.293V10.415c0-0.6055,0.1143-1.1768,0.3447-1.7139
		c0.2285-0.5371,0.5439-1.0059,0.9443-1.4063s0.8691-0.7153,1.4063-0.9448s1.1084-0.3442,1.7139-0.3442h1.0547
		c0.6055,0,1.1768,0.1147,1.7139,0.3442s1.0059,0.5444,1.4063,0.9448s0.7148,0.8691,0.9443,1.4063s0.3447,1.1084,0.3447,1.7139
		v10.8838H446.4546z M445.2534,14.0332h-3.8086c-0.3613,0-0.7012,0.0684-1.0176,0.2051c-0.3184,0.1367-0.5938,0.3247-0.8281,0.564
		s-0.4199,0.5176-0.5566,0.835s-0.2051,0.6567-0.2051,1.0181v0.6299c0,0.3613,0.0684,0.7007,0.2051,1.0181
		s0.3223,0.5933,0.5566,0.8276s0.5098,0.4199,0.8281,0.5566c0.3164,0.1367,0.6563,0.2051,1.0176,0.2051h1.2012
		c0.3613,0,0.7002-0.0684,1.0176-0.2051s0.5938-0.3223,0.8281-0.5566s0.4199-0.5103,0.5566-0.8276s0.2051-0.6567,0.2051-1.0181
		V14.0332z"/>
</g>
</svg>
