<?xml version="1.0" encoding="utf-8"?>
<!-- Generator: Adobe Illustrator 21.0.2, SVG Export Plug-In . SVG Version: 6.00 Build 0)  -->
<svg version="1.1" id="Capa_1" xmlns="http://www.w3.org/2000/svg" xmlns:xlink="http://www.w3.org/1999/xlink" x="0px" y="0px"
	 viewBox="0 0 265 51.576" style="enable-background:new 0 0 265 51.576;" xml:space="preserve">
<g>
	<g id="XMLID_5233_">
		<polygon id="XMLID_5234_" style="fill:#A03628;" points="243.1899,0.5001 265,25.7881 243.1899,51.076 223.3365,51.076 
			245.1466,25.7881 223.3365,0.5001 198.1899,0.5001 		"/>
	</g>
	<g id="XMLID_5230_">
		<polygon id="XMLID_5231_" style="fill:#A03628;" points="21.8101,51.0759 0,25.7879 21.8101,0.5 41.6635,0.5 19.8534,25.7879 
			41.6635,51.0759 21.8101,51.0759 		"/>
	</g>
	<polygon id="XMLID_5228_" style="fill:#FFFFFF;stroke:#C9452F;stroke-miterlimit:10;" points="47.671,0.5 217.329,0.5001 
		239.1391,25.7881 217.329,51.076 47.671,51.0759 25.8609,25.7879 	"/>
	<g>
		<g>
			<path style="fill:#A03628;" d="M71.6941,32.3706V17.3213h3.0381v5.9233h5.9541v-5.9233h3.0391v15.0493h-3.0391v-6.5801h-5.9541
				v6.5801H71.6941z"/>
			<path style="fill:#A03628;" d="M93.1589,28.9009l2.874,0.4824c-0.3691,1.0542-0.9531,1.8564-1.75,2.4072
				c-0.7969,0.5513-1.7949,0.8267-2.9922,0.8267c-1.8955,0-3.2988-0.6196-4.209-1.8584c-0.7188-0.9922-1.0781-2.2446-1.0781-3.7568
				c0-1.8071,0.4727-3.2217,1.417-4.2451c0.9443-1.0229,2.1387-1.5347,3.583-1.5347c1.6211,0,2.9014,0.5356,3.8389,1.6064
				c0.9375,1.0713,1.3857,2.7119,1.3447,4.9224h-7.2266c0.0205,0.856,0.2529,1.521,0.6973,1.9966
				c0.4453,0.4761,1,0.7139,1.6631,0.7139c0.4521,0,0.832-0.1235,1.1396-0.3696C92.7693,29.8452,93.0017,29.4483,93.1589,28.9009z
				 M93.323,25.9854c-0.0205-0.835-0.2363-1.4692-0.6465-1.9043c-0.4102-0.4346-0.9102-0.6519-1.499-0.6519
				c-0.6299,0-1.1494,0.2295-1.5605,0.688c-0.4102,0.4585-0.6123,1.0815-0.6055,1.8682H93.323z"/>
			<path style="fill:#A03628;" d="M101.2995,32.3706h-2.8848V21.4688h2.6797v1.5498c0.458-0.7319,0.8701-1.2144,1.2363-1.4473
				c0.3662-0.2324,0.7822-0.3491,1.248-0.3491c0.6563,0,1.2891,0.1816,1.8984,0.5439l-0.8926,2.5151
				c-0.4863-0.3145-0.9375-0.4722-1.3555-0.4722c-0.4033,0-0.7461,0.1113-1.0264,0.3335c-0.2803,0.2227-0.501,0.625-0.6621,1.2065
				s-0.2412,1.7998-0.2412,3.6543V32.3706z"/>
			<path style="fill:#A03628;" d="M109.4812,32.3706h-2.8848V21.4688h2.6797v1.5498c0.458-0.7319,0.8701-1.2144,1.2363-1.4473
				c0.3662-0.2324,0.7822-0.3491,1.248-0.3491c0.6563,0,1.2891,0.1816,1.8984,0.5439l-0.8926,2.5151
				c-0.4863-0.3145-0.9375-0.4722-1.3555-0.4722c-0.4033,0-0.7461,0.1113-1.0264,0.3335c-0.2803,0.2227-0.501,0.625-0.6621,1.2065
				s-0.2412,1.7998-0.2412,3.6543V32.3706z"/>
			<path style="fill:#A03628;" d="M117.0574,24.7945l-2.6182-0.4722c0.2939-1.0537,0.8008-1.834,1.5195-2.3403
				s1.7861-0.7598,3.2031-0.7598c1.2861,0,2.2441,0.1523,2.874,0.457s1.0723,0.6914,1.3291,1.1597
				c0.2568,0.4692,0.3848,1.3296,0.3848,2.582l-0.0303,3.3672c0,0.958,0.0459,1.6646,0.1387,2.1196
				c0.0918,0.4551,0.2646,0.9429,0.5186,1.4629h-2.8545c-0.0752-0.1914-0.167-0.4756-0.2764-0.8521
				c-0.0488-0.1709-0.083-0.2837-0.1035-0.3389c-0.4922,0.479-1.0195,0.8384-1.5801,1.0781
				c-0.5615,0.2393-1.1602,0.3594-1.7969,0.3594c-1.1221,0-2.0068-0.3047-2.6533-0.9141c-0.6475-0.6089-0.9707-1.3789-0.9707-2.3096
				c0-0.6157,0.1475-1.165,0.4414-1.6475c0.2949-0.4824,0.707-0.8521,1.2373-1.1089c0.5303-0.2563,1.2949-0.4805,2.2939-0.6724
				c1.3486-0.2529,2.2832-0.4893,2.8027-0.708v-0.2876c0-0.5542-0.1367-0.9497-0.4102-1.1855
				c-0.2744-0.2363-0.791-0.3545-1.5508-0.3545c-0.5127,0-0.9131,0.1011-1.2002,0.3032
				C117.4675,23.9341,117.2351,24.2881,117.0574,24.7945z M120.9167,27.1353c-0.3691,0.123-0.9541,0.2705-1.7549,0.4414
				s-1.3242,0.3389-1.5713,0.5029c-0.376,0.2671-0.5645,0.6055-0.5645,1.0161c0,0.4043,0.1504,0.7529,0.4521,1.0474
				c0.3008,0.2944,0.6836,0.4414,1.1494,0.4414c0.5205,0,1.0166-0.1709,1.4883-0.5132c0.3496-0.2603,0.5781-0.5786,0.6885-0.9551
				c0.0752-0.2461,0.1123-0.7148,0.1123-1.4063V27.1353z"/>
			<path style="fill:#A03628;" d="M126.3777,21.4688h2.6592v1.4883c0.9512-1.1563,2.084-1.7349,3.3975-1.7349
				c0.6982,0,1.3047,0.144,1.8174,0.4312c0.5137,0.2876,0.9346,0.7222,1.2627,1.3037c0.4785-0.5815,0.9961-1.0161,1.5498-1.3037
				c0.5547-0.2871,1.1465-0.4312,1.7764-0.4312c0.8008,0,1.4785,0.1626,2.0322,0.4878c0.5547,0.3252,0.9688,0.8022,1.2422,1.4321
				c0.1982,0.4653,0.2979,1.2183,0.2979,2.2583v6.9702h-2.8848v-6.231c0-1.0815-0.0986-1.7793-0.2979-2.0942
				c-0.2666-0.4106-0.6768-0.6162-1.2314-0.6162c-0.4043,0-0.7842,0.1235-1.1396,0.3696c-0.3555,0.2466-0.6123,0.6074-0.7695,1.083
				c-0.1582,0.4761-0.2363,1.2271-0.2363,2.2534v5.2354h-2.8848V26.396c0-1.0605-0.0508-1.7451-0.1543-2.0532
				c-0.1025-0.3076-0.2617-0.5371-0.4766-0.6875c-0.2158-0.1504-0.5088-0.2261-0.8779-0.2261c-0.4453,0-0.8457,0.1201-1.2012,0.3594
				c-0.3555,0.2397-0.6104,0.5854-0.7646,1.0371s-0.2314,1.2007-0.2314,2.248v5.2969h-2.8848V21.4688z"/>
			<path style="fill:#A03628;" d="M145.2868,19.9903v-2.6689h2.8848v2.6689H145.2868z M145.2868,32.3706V21.4688h2.8848v10.9019
				H145.2868z"/>
			<path style="fill:#A03628;" d="M157.4411,28.9009l2.874,0.4824c-0.3691,1.0542-0.9531,1.8564-1.75,2.4072
				c-0.7969,0.5513-1.7949,0.8267-2.9922,0.8267c-1.8955,0-3.2988-0.6196-4.209-1.8584c-0.7188-0.9922-1.0781-2.2446-1.0781-3.7568
				c0-1.8071,0.4727-3.2217,1.417-4.2451c0.9443-1.0229,2.1387-1.5347,3.583-1.5347c1.6211,0,2.9014,0.5356,3.8389,1.6064
				c0.9375,1.0713,1.3857,2.7119,1.3447,4.9224h-7.2266c0.0205,0.856,0.2529,1.521,0.6973,1.9966
				c0.4453,0.4761,1,0.7139,1.6631,0.7139c0.4521,0,0.832-0.1235,1.1396-0.3696C157.0515,29.8452,157.2839,29.4483,157.4411,28.9009
				z M157.6052,25.9854c-0.0205-0.835-0.2363-1.4692-0.6465-1.9043c-0.4102-0.4346-0.9102-0.6519-1.499-0.6519
				c-0.6299,0-1.1494,0.2295-1.5605,0.688c-0.4102,0.4585-0.6123,1.0815-0.6055,1.8682H157.6052z"/>
			<path style="fill:#A03628;" d="M172.737,32.3706h-2.8848v-5.564c0-1.1768-0.0615-1.9385-0.1846-2.2842
				c-0.123-0.3452-0.3232-0.6138-0.6006-0.8057c-0.2773-0.1914-0.6113-0.2876-1.001-0.2876c-0.5,0-0.9482,0.1372-1.3447,0.4106
				c-0.3975,0.2739-0.6689,0.6367-0.8164,1.0884s-0.2207,1.2866-0.2207,2.5049v4.9375h-2.8848V21.4688h2.6797v1.6016
				c0.9512-1.2319,2.1484-1.8481,3.5928-1.8481c0.6367,0,1.2178,0.1147,1.7451,0.3442c0.5273,0.229,0.9258,0.5215,1.1963,0.8774
				c0.2695,0.356,0.458,0.7598,0.5645,1.2114c0.1055,0.4517,0.1592,1.0981,0.1592,1.9399V32.3706z"/>
			<path style="fill:#A03628;" d="M180.6628,21.4688v2.2993h-1.9717v4.3936c0,0.8896,0.0186,1.4082,0.0566,1.5552
				c0.0371,0.1475,0.123,0.269,0.2568,0.3647s0.2959,0.1436,0.4873,0.1436c0.2666,0,0.6533-0.0923,1.1602-0.2773l0.2461,2.2383
				c-0.6709,0.2871-1.4297,0.4312-2.2783,0.4312c-0.5205,0-0.9893-0.0874-1.4063-0.2622c-0.418-0.1743-0.7246-0.3999-0.9189-0.6772
				c-0.1953-0.2773-0.3301-0.6519-0.4053-1.124c-0.0625-0.3354-0.0928-1.0127-0.0928-2.0327v-4.7529h-1.3242v-2.2993h1.3242v-2.166
				l2.8945-1.6836v3.8496H180.6628z"/>
			<path style="fill:#A03628;" d="M184.82,24.7945l-2.6182-0.4722c0.2939-1.0537,0.8008-1.834,1.5195-2.3403
				s1.7861-0.7598,3.2031-0.7598c1.2861,0,2.2441,0.1523,2.874,0.457s1.0723,0.6914,1.3291,1.1597
				c0.2568,0.4692,0.3848,1.3296,0.3848,2.582l-0.0303,3.3672c0,0.958,0.0459,1.6646,0.1387,2.1196
				c0.0918,0.4551,0.2646,0.9429,0.5186,1.4629h-2.8545c-0.0752-0.1914-0.167-0.4756-0.2764-0.8521
				c-0.0488-0.1709-0.083-0.2837-0.1035-0.3389c-0.4922,0.479-1.0195,0.8384-1.5801,1.0781
				c-0.5615,0.2393-1.1602,0.3594-1.7969,0.3594c-1.1221,0-2.0068-0.3047-2.6533-0.9141c-0.6475-0.6089-0.9707-1.3789-0.9707-2.3096
				c0-0.6157,0.1475-1.165,0.4414-1.6475c0.2949-0.4824,0.707-0.8521,1.2373-1.1089c0.5303-0.2563,1.2949-0.4805,2.2939-0.6724
				c1.3486-0.2529,2.2832-0.4893,2.8027-0.708v-0.2876c0-0.5542-0.1367-0.9497-0.4102-1.1855
				c-0.2744-0.2363-0.791-0.3545-1.5508-0.3545c-0.5127,0-0.9131,0.1011-1.2002,0.3032
				C185.2302,23.9341,184.9978,24.2881,184.82,24.7945z M188.6794,27.1353c-0.3691,0.123-0.9541,0.2705-1.7549,0.4414
				s-1.3242,0.3389-1.5713,0.5029c-0.376,0.2671-0.5645,0.6055-0.5645,1.0161c0,0.4043,0.1504,0.7529,0.4521,1.0474
				c0.3008,0.2944,0.6836,0.4414,1.1494,0.4414c0.5205,0,1.0166-0.1709,1.4883-0.5132c0.3496-0.2603,0.5781-0.5786,0.6885-0.9551
				c0.0752-0.2461,0.1123-0.7148,0.1123-1.4063V27.1353z"/>
		</g>
	</g>
</g>
</svg>
