<?xml version="1.0" encoding="utf-8"?>
<!-- Generator: Adobe Illustrator 21.0.2, SVG Export Plug-In . SVG Version: 6.00 Build 0)  -->
<svg version="1.1" id="Capa_1" xmlns="http://www.w3.org/2000/svg" xmlns:xlink="http://www.w3.org/1999/xlink" x="0px" y="0px"
	 viewBox="0 0 127.0977 40.9182" style="enable-background:new 0 0 127.0977 40.9182;" xml:space="preserve">
<g>
	<g>
		
			<rect x="31.8184" y="8.6558" transform="matrix(-1 -4.495660e-11 4.495660e-11 -1 149.05 40.9181)" style="fill:#E8AF2E;" width="85.4132" height="23.6066"/>
		<polygon style="fill:#E8AF2E;" points="0,20.4591 32.3557,39.1397 32.3557,1.7785 		"/>
	</g>
	<path style="fill:#E8AF2E;" d="M126.9297,17.7993c1.6867,13.383-9.5679,24.6376-22.951,22.9508
		c-9.1185-1.1492-16.482-8.5127-17.6312-17.6312C84.6608,9.7361,95.9153-1.5186,109.2984,0.168
		C118.417,1.3172,125.7805,8.6806,126.9297,17.7993z"/>
	<path style="fill:#F2F6E1;" d="M123.505,18.2483c1.4019,11.1242-7.9533,20.4792-19.0774,19.0771
		c-7.5795-0.9553-13.7-7.076-14.6553-14.6555c-1.4019-11.1242,7.9531-20.4792,19.0774-19.0771
		C116.4291,4.548,122.5498,10.6687,123.505,18.2483z"/>
	<g>
		<path style="fill:#E8AF2E;" d="M105.3693,21.3618c0,3.1475-0.4961,5.498-1.4883,7.0508s-2.5098,2.3291-4.5527,2.3291
			c-1.96,0-3.4502-0.7949-4.4717-2.3857c-1.0215-1.5898-1.5322-3.9209-1.5322-6.9941c0-3.1719,0.4941-5.5264,1.4824-7.0625
			s2.4951-2.3047,4.5215-2.3047c1.9766,0,3.4775,0.8018,4.5029,2.4043S105.3693,18.3227,105.3693,21.3618z M95.4172,21.3618
			c0,2.6494,0.3115,4.5781,0.9346,5.7861c0.6221,1.208,1.6143,1.8125,2.9766,1.8125c1.3789,0,2.377-0.6123,2.9961-1.8369
			c0.6182-1.2256,0.9277-3.1455,0.9277-5.7617c0-2.6152-0.3096-4.5313-0.9277-5.748c-0.6191-1.2168-1.6172-1.8252-2.9961-1.8252
			c-1.3623,0-2.3545,0.6006-2.9766,1.7998C95.7287,16.7885,95.4172,18.7133,95.4172,21.3618z"/>
		<path style="fill:#E8AF2E;" d="M120.715,26.3071h-2.7021v4.1855h-1.9805v-4.1855h-8.8574v-1.8057l8.6455-12.3193h2.1924v12.2441
			h2.7021V26.3071z M116.0324,24.4262v-6.0537c0-1.1875,0.041-2.5283,0.124-4.0234h-0.0996
			c-0.3984,0.7969-0.7725,1.457-1.1211,1.9805l-5.6924,8.0967H116.0324z"/>
	</g>
</g>
</svg>
