<?xml version="1.0" encoding="utf-8"?>
<!-- Generator: Adobe Illustrator 21.0.2, SVG Export Plug-In . SVG Version: 6.00 Build 0)  -->
<svg version="1.1" id="Capa_1" xmlns="http://www.w3.org/2000/svg" xmlns:xlink="http://www.w3.org/1999/xlink" x="0px" y="0px"
	 viewBox="0 0 934.8945 416.1718" style="enable-background:new 0 0 934.8945 416.1718;" xml:space="preserve">
<g>
	<polygon style="fill:#FFFFFF;stroke:#093751;stroke-miterlimit:10;" points="934.3945,400.5428 313.0989,400.5428 
		292.7691,415.5428 273.7687,400.5428 0.5,400.5428 0.5,0.5 934.3945,0.5 	"/>
	<polygon points="113.1667,35.0529 0.5,35.0529 0.5,8.7487 113.1667,8.7487 125.1667,21.9008 	"/>
	<g>
		<path style="fill:#FFFFFF;" d="M15.7004,29.6719V14.2676h8.6689v1.3213h-7.2832v5.7256h5.8975v1.3213h-5.8975v5.7148h7.2832
			v1.3213H15.7004z"/>
		<path style="fill:#FFFFFF;" d="M32.5978,29.6719v-8.0566c0-0.2646-0.0503-0.5137-0.1504-0.7466
			c-0.1006-0.2324-0.2363-0.4351-0.4082-0.6069s-0.3745-0.3076-0.6069-0.4082c-0.2329-0.1001-0.4819-0.1504-0.7466-0.1504h-0.8809
			c-0.2651,0-0.5142,0.0503-0.7466,0.1504c-0.2329,0.1006-0.4351,0.2363-0.6069,0.4082s-0.3081,0.3745-0.4082,0.6069
			c-0.1006,0.2329-0.1504,0.4819-0.1504,0.7466v8.0566h-1.3213v-11h0.4404l0.7197,1.1172c0.3008-0.4082,0.6782-0.7319,1.1333-0.9722
			c0.4546-0.2397,0.9507-0.3599,1.4878-0.3599h0.333c0.4438,0,0.8628,0.0845,1.2568,0.2524
			c0.3936,0.1685,0.7373,0.3994,1.0313,0.6929c0.2935,0.2939,0.5244,0.6377,0.6929,1.0313c0.168,0.394,0.2524,0.813,0.2524,1.2568
			v7.9814H32.5978z"/>
		<path style="fill:#FFFFFF;" d="M40.5688,29.6719c-0.4016,0-0.7791-0.0752-1.1335-0.2256s-0.6626-0.3579-0.9238-0.623
			c-0.2617-0.2646-0.4692-0.5728-0.623-0.9238c-0.1543-0.3506-0.231-0.7266-0.231-1.1279v-6.8428h-1.9766v-1.2568h1.9766v-2.6426
			l1.3213-0.2148v2.8574h2.7932v1.2568h-2.7932v6.9072c0,0.2222,0.041,0.4282,0.1235,0.6177
			c0.082,0.1899,0.1948,0.3564,0.3384,0.4995c0.1431,0.1436,0.3115,0.2563,0.5049,0.3384c0.1934,0.0825,0.4006,0.1235,0.6233,0.1235
			h1.2031v1.2568H40.5688z"/>
		<path style="fill:#FFFFFF;" d="M47.433,19.9287c-0.2656,0-0.5146,0.0503-0.7471,0.1504
			c-0.2324,0.1006-0.4346,0.2363-0.6064,0.4082s-0.3086,0.3745-0.4082,0.6069c-0.1006,0.2329-0.1504,0.4819-0.1504,0.7466v7.8311
			h-1.3213v-11h0.4404l0.7197,1.1172c0.3008-0.4082,0.6777-0.7319,1.1328-0.9722c0.4551-0.2397,0.9512-0.3599,1.4883-0.3599h0.7734
			v1.4717H47.433z"/>
		<path style="fill:#FFFFFF;" d="M57.6108,27.9102c-0.168,0.394-0.3994,0.7378-0.6924,1.0313
			c-0.2939,0.2939-0.6377,0.5249-1.0313,0.6929c-0.3945,0.168-0.8135,0.2524-1.2568,0.2524h-0.8809
			c-0.4443,0-0.8633-0.0845-1.2568-0.2524c-0.3945-0.168-0.7383-0.3989-1.0313-0.6929c-0.2939-0.2935-0.5254-0.6372-0.6934-1.0313
			c-0.168-0.3936-0.252-0.8125-0.252-1.2568v-4.9629c0-0.4438,0.084-0.8628,0.252-1.2568c0.168-0.3936,0.3994-0.7373,0.6934-1.0313
			c0.293-0.2935,0.6367-0.5244,1.0313-0.6929c0.3936-0.168,0.8125-0.2524,1.2568-0.2524h0.8809
			c0.4434,0,0.8623,0.0845,1.2568,0.2524c0.3936,0.1685,0.7373,0.3994,1.0313,0.6929c0.293,0.2939,0.5244,0.6377,0.6924,1.0313
			c0.168,0.394,0.2529,0.813,0.2529,1.2568v2.5889h-6.0264v2.4492c0,0.2651,0.0498,0.5142,0.1504,0.7466
			c0.0996,0.2329,0.2363,0.4351,0.4082,0.6069s0.374,0.3081,0.6064,0.4082c0.2324,0.1006,0.4814,0.1504,0.7471,0.1504h0.8809
			c0.2646,0,0.5137-0.0498,0.7461-0.1504c0.2324-0.1001,0.4355-0.2363,0.6074-0.4082s0.3076-0.374,0.4082-0.6069
			c0.0996-0.2324,0.1504-0.4814,0.1504-0.7466v-0.7305l1.3213,0.2148v0.4404C57.8637,27.0977,57.7787,27.5166,57.6108,27.9102z
			 M56.5424,21.6153c0-0.2646-0.0508-0.5137-0.1504-0.7466c-0.1006-0.2324-0.2363-0.4351-0.4082-0.6069s-0.375-0.3076-0.6074-0.4082
			c-0.2324-0.1001-0.4814-0.1504-0.7461-0.1504h-0.8809c-0.2656,0-0.5146,0.0503-0.7471,0.1504
			c-0.2324,0.1006-0.4346,0.2363-0.6064,0.4082s-0.3086,0.3745-0.4082,0.6069c-0.1006,0.2329-0.1504,0.4819-0.1504,0.7466v1.6328
			h4.7051V21.6153z"/>
		<path style="fill:#FFFFFF;" d="M63.9545,29.6719h-0.6553l-3.8994-11h1.3213l2.8682,8.3359l0.043,0.5693l0.043-0.5693
			l2.8574-8.3359h1.3213L63.9545,29.6719z"/>
		<path style="fill:#FFFFFF;" d="M69.7231,16.0293v-1.7617h1.5361v1.7617H69.7231z M69.8305,29.6719v-11h1.3213v11H69.8305z"/>
		<path style="fill:#FFFFFF;" d="M81.7973,26.8789c0,0.4443-0.0898,0.8506-0.2686,1.2192c-0.1797,0.3691-0.4229,0.686-0.7305,0.9507
			c-0.3086,0.2651-0.665,0.4712-1.0693,0.6177s-0.8291,0.2202-1.2725,0.2202h-0.8809c-0.4443,0-0.8691-0.0845-1.2734-0.2524
			s-0.7588-0.3989-1.0635-0.6929c-0.3047-0.2935-0.5479-0.6372-0.7305-1.0313c-0.1826-0.3936-0.2734-0.8125-0.2734-1.2568v-0.4404
			l1.3213-0.2148v0.7305c0,0.2651,0.0547,0.5142,0.166,0.7466c0.1113,0.2329,0.2598,0.4351,0.4463,0.6069
			c0.1855,0.1719,0.4004,0.3081,0.6445,0.4082c0.2432,0.1006,0.4971,0.1504,0.7627,0.1504h0.8809
			c0.2646,0,0.5186-0.0391,0.7627-0.1182c0.2432-0.0786,0.46-0.1914,0.6494-0.3384c0.1895-0.1465,0.3398-0.3237,0.4512-0.5317
			c0.1113-0.2075,0.167-0.4438,0.167-0.709c0-0.3936-0.0859-0.7158-0.2578-0.9668c-0.1719-0.2505-0.3994-0.46-0.6826-0.6284
			c-0.2832-0.168-0.6055-0.3076-0.9668-0.4189c-0.3613-0.1108-0.7324-0.2217-1.1113-0.333
			c-0.3799-0.1108-0.751-0.2378-1.1123-0.3813c-0.3613-0.1431-0.6836-0.3311-0.9668-0.564
			c-0.2832-0.2324-0.5098-0.5244-0.6816-0.8755c-0.1719-0.3506-0.2578-0.7876-0.2578-1.3105c0-0.4438,0.0859-0.8501,0.2578-1.2192
			c0.1719-0.3687,0.4043-0.6855,0.6982-0.9507c0.293-0.2646,0.6348-0.4707,1.0254-0.6177c0.3906-0.1465,0.8076-0.2202,1.252-0.2202
			h0.7734c0.4434,0,0.8623,0.0845,1.2568,0.2524c0.3936,0.1685,0.7373,0.3994,1.0313,0.6929
			c0.293,0.2939,0.5244,0.6377,0.6924,1.0313c0.168,0.394,0.2529,0.813,0.2529,1.2568v0.043l-1.3213,0.2148v-0.333
			c0-0.2646-0.0508-0.5137-0.1504-0.7466c-0.1006-0.2324-0.2363-0.4351-0.4082-0.6069s-0.375-0.3076-0.6074-0.4082
			c-0.2324-0.1001-0.4814-0.1504-0.7461-0.1504H77.683c-0.2656,0-0.5146,0.0396-0.7471,0.1182
			c-0.2324,0.0791-0.4346,0.1919-0.6064,0.3384c-0.1719,0.147-0.3086,0.3242-0.4082,0.5317
			c-0.1006,0.208-0.1504,0.4443-0.1504,0.709c0,0.3799,0.0859,0.6895,0.2578,0.9292c0.1719,0.2402,0.3984,0.4424,0.6816,0.6069
			c0.2832,0.165,0.6055,0.3027,0.9668,0.4136c0.3613,0.1113,0.7305,0.2256,1.1064,0.3438s0.7451,0.2524,1.1064,0.4028
			s0.6836,0.3438,0.9668,0.5801s0.5107,0.5317,0.6826,0.8862S81.7973,26.3565,81.7973,26.8789z"/>
		<path style="fill:#FFFFFF;" d="M88.3393,29.6719c-0.4014,0-0.7793-0.0752-1.1338-0.2256s-0.6621-0.3579-0.9238-0.623
			c-0.2617-0.2646-0.4688-0.5728-0.623-0.9238c-0.1543-0.3506-0.2305-0.7266-0.2305-1.1279v-6.8428h-1.9766v-1.2568h1.9766v-2.6426
			l1.3213-0.2148v2.8574h2.793v1.2568h-2.793v6.9072c0,0.2222,0.041,0.4282,0.123,0.6177c0.082,0.1899,0.1953,0.3564,0.3389,0.4995
			c0.1426,0.1436,0.3115,0.2563,0.5049,0.3384c0.1934,0.0825,0.4004,0.1235,0.623,0.1235h1.2031v1.2568H88.3393z"/>
		<path style="fill:#FFFFFF;" d="M98.8774,29.6719l-0.7305-1.0957c-0.3008,0.394-0.6768,0.7109-1.1279,0.9507
			s-0.9453,0.3599-1.4824,0.3599h-0.333c-0.4443,0-0.8633-0.0845-1.2568-0.2524c-0.3945-0.168-0.7383-0.3989-1.0313-0.6929
			c-0.2939-0.2935-0.5254-0.6372-0.6934-1.0313c-0.168-0.3936-0.252-0.8125-0.252-1.2568v-0.1074
			c0-0.4438,0.084-0.8628,0.252-1.2568c0.168-0.3936,0.3994-0.7373,0.6934-1.0313c0.293-0.2935,0.6367-0.5244,1.0313-0.6929
			c0.3936-0.168,0.8125-0.2524,1.2568-0.2524h2.793v-1.6973c0-0.2646-0.0508-0.5137-0.1504-0.7466
			c-0.1006-0.2324-0.2363-0.4351-0.4082-0.6069s-0.375-0.3076-0.6074-0.4082c-0.2324-0.1001-0.4814-0.1504-0.7461-0.1504H95.311
			c-0.2656,0-0.5146,0.0503-0.7471,0.1504c-0.2324,0.1006-0.4346,0.2363-0.6064,0.4082s-0.3086,0.3745-0.4082,0.6069
			c-0.1006,0.2329-0.1504,0.4819-0.1504,0.7466v0.3975l-1.3213-0.2148v-0.1074c0-0.4438,0.084-0.8628,0.252-1.2568
			c0.168-0.3936,0.3994-0.7373,0.6934-1.0313c0.293-0.2935,0.6367-0.5244,1.0313-0.6929c0.3936-0.168,0.8125-0.2524,1.2568-0.2524
			h0.7734c0.4434,0,0.8623,0.0845,1.2568,0.2524c0.3936,0.1685,0.7373,0.3994,1.0313,0.6929
			c0.293,0.2939,0.5244,0.6377,0.6924,1.0313c0.168,0.394,0.2529,0.813,0.2529,1.2568v7.9814H98.8774z M97.9965,24.3438h-2.793
			c-0.2656,0-0.5146,0.0503-0.7471,0.1504c-0.2324,0.1006-0.4346,0.2383-0.6064,0.4136c-0.1719,0.1758-0.3086,0.3799-0.4082,0.6123
			c-0.1006,0.2329-0.1504,0.4819-0.1504,0.7466v0.4619c0,0.2651,0.0498,0.5142,0.1504,0.7466
			c0.0996,0.2329,0.2363,0.4351,0.4082,0.6069s0.374,0.3081,0.6064,0.4082c0.2324,0.1006,0.4814,0.1504,0.7471,0.1504h0.8809
			c0.2646,0,0.5137-0.0498,0.7461-0.1504c0.2324-0.1001,0.4355-0.2363,0.6074-0.4082s0.3076-0.374,0.4082-0.6069
			c0.0996-0.2324,0.1504-0.4814,0.1504-0.7466V24.3438z"/>
	</g>
</g>
</svg>
