<?xml version="1.0" encoding="utf-8"?>
<!-- Generator: Adobe Illustrator 21.0.2, SVG Export Plug-In . SVG Version: 6.00 Build 0)  -->
<svg version="1.1" id="Capa_1" xmlns="http://www.w3.org/2000/svg" xmlns:xlink="http://www.w3.org/1999/xlink" x="0px" y="0px"
	 viewBox="0 0 934.8945 416.1718" style="enable-background:new 0 0 934.8945 416.1718;" xml:space="preserve">
<g>
	<polygon style="fill:#FFFFFF;stroke:#093751;stroke-miterlimit:10;" points="934.3945,400.5428 666.6899,400.5428 
		646.3602,415.5428 627.3599,400.5428 0.5,400.5428 0.5,0.5 934.3945,0.5 	"/>
	<polygon style="fill:#DD4E31;" points="124.1667,35.0529 0.5,35.0529 0.5,8.7487 124.1667,8.7487 136.1667,21.9008 	"/>
	<g>
		<path style="fill:#FFFFFF;" d="M23.8477,27.5805c-0.1973,0.4585-0.4673,0.8594-0.811,1.2031s-0.7451,0.6143-1.2031,0.811
			c-0.4585,0.1968-0.9492,0.2954-1.4717,0.2954h-1.0957c-0.5229,0-1.0151-0.0986-1.4771-0.2954s-0.8647-0.4673-1.2085-0.811
			s-0.6143-0.7446-0.811-1.2031c-0.1973-0.458-0.2954-0.9487-0.2954-1.4717v-8.2715c0-0.5225,0.0981-1.0132,0.2954-1.4717
			c0.1968-0.458,0.4673-0.8594,0.811-1.2031s0.7466-0.6138,1.2085-0.811c0.4619-0.1968,0.9541-0.2954,1.4771-0.2954h1.0957
			c0.5225,0,1.0132,0.0986,1.4717,0.2954c0.458,0.1973,0.8594,0.4673,1.2031,0.811s0.6138,0.7451,0.811,1.2031
			c0.1968,0.4585,0.2954,0.9492,0.2954,1.4717v0.623l-1.3857,0.2148v-0.8379c0-0.3438-0.0645-0.6641-0.1934-0.9614
			c-0.1289-0.2969-0.3047-0.5566-0.5264-0.7788c-0.2222-0.2217-0.4819-0.3975-0.7788-0.5264
			c-0.2974-0.1289-0.6177-0.1934-0.9614-0.1934h-0.9668c-0.3438,0-0.6646,0.0645-0.9614,0.1934
			c-0.2974,0.1289-0.5586,0.3047-0.7842,0.5264c-0.2256,0.2222-0.4028,0.4819-0.5317,0.7788
			c-0.1289,0.2974-0.1934,0.6177-0.1934,0.9614v8.2715c0,0.3438,0.0645,0.6646,0.1934,0.9614
			c0.1289,0.2974,0.3062,0.5586,0.5317,0.7842s0.4868,0.4028,0.7842,0.5317c0.2969,0.1289,0.6177,0.1934,0.9614,0.1934h0.9668
			c0.3438,0,0.6641-0.0645,0.9614-0.1934c0.2969-0.1289,0.5566-0.3062,0.7788-0.5317c0.2217-0.2256,0.3975-0.4868,0.5264-0.7842
			c0.1289-0.2969,0.1934-0.6177,0.1934-0.9614v-0.8379l1.3857,0.2256v0.6123C24.1431,26.6318,24.0445,27.1225,23.8477,27.5805z"/>
		<path style="fill:#FFFFFF;" d="M33.693,29.6752l-0.7305-1.1172c-0.3008,0.4082-0.6768,0.7324-1.1279,0.9722
			c-0.4512,0.2397-0.9453,0.3599-1.4824,0.3599h-0.333c-0.4443,0-0.8633-0.0845-1.2568-0.2524
			c-0.394-0.168-0.7378-0.3989-1.0313-0.6929c-0.2939-0.2935-0.5249-0.6372-0.6929-1.0313
			c-0.1685-0.3936-0.2524-0.8125-0.2524-1.2568v-7.9814h1.3213v8.0566c0,0.2651,0.0498,0.5142,0.1504,0.7466
			c0.1001,0.2329,0.2363,0.4351,0.4082,0.6069s0.374,0.3081,0.6069,0.4082c0.2324,0.1006,0.4814,0.1504,0.7466,0.1504H30.9
			c0.2646,0,0.5137-0.0498,0.7466-0.1504c0.2324-0.1001,0.4351-0.2363,0.6069-0.4082s0.3076-0.374,0.4082-0.6069
			c0.1001-0.2324,0.1504-0.4814,0.1504-0.7466v-8.0566h1.3213v11H33.693z"/>
		<path style="fill:#FFFFFF;" d="M43.8712,27.9135c-0.1685,0.394-0.3994,0.7378-0.6929,1.0313
			c-0.2939,0.2939-0.6377,0.5249-1.0313,0.6929c-0.394,0.168-0.813,0.2524-1.2568,0.2524h-0.8809
			c-0.4443,0-0.8633-0.0845-1.2568-0.2524c-0.394-0.168-0.7378-0.3989-1.0313-0.6929c-0.2939-0.2935-0.5249-0.6372-0.6929-1.0313
			c-0.1685-0.3936-0.2524-0.8125-0.2524-1.2568v-4.9629c0-0.4438,0.084-0.8628,0.2524-1.2568
			c0.168-0.3936,0.3989-0.7373,0.6929-1.0313c0.2935-0.2935,0.6372-0.5244,1.0313-0.6929c0.3936-0.168,0.8125-0.2524,1.2568-0.2524
			h0.8809c0.4438,0,0.8628,0.0845,1.2568,0.2524c0.3936,0.1685,0.7373,0.3994,1.0313,0.6929
			c0.2935,0.2939,0.5244,0.6377,0.6929,1.0313c0.168,0.394,0.2524,0.813,0.2524,1.2568v2.5889h-6.0264v2.4492
			c0,0.2651,0.0498,0.5142,0.1504,0.7466c0.1001,0.2329,0.2363,0.4351,0.4082,0.6069s0.374,0.3081,0.6069,0.4082
			c0.2324,0.1006,0.4814,0.1504,0.7466,0.1504h0.8809c0.2646,0,0.5137-0.0498,0.7466-0.1504
			c0.2324-0.1001,0.4351-0.2363,0.6069-0.4082s0.3076-0.374,0.4082-0.6069c0.1001-0.2324,0.1504-0.4814,0.1504-0.7466v-0.7305
			l1.3213,0.2148v0.4404C44.1236,27.101,44.0391,27.52,43.8712,27.9135z M42.8023,21.6186c0-0.2646-0.0503-0.5137-0.1504-0.7466
			c-0.1006-0.2324-0.2363-0.4351-0.4082-0.6069s-0.3745-0.3076-0.6069-0.4082c-0.2329-0.1001-0.4819-0.1504-0.7466-0.1504h-0.8809
			c-0.2651,0-0.5142,0.0503-0.7466,0.1504c-0.2329,0.1006-0.4351,0.2363-0.6069,0.4082s-0.3081,0.3745-0.4082,0.6069
			c-0.1006,0.2329-0.1504,0.4819-0.1504,0.7466v1.6328h4.7051V21.6186z"/>
		<path style="fill:#FFFFFF;" d="M54.3287,26.8823c0,0.4443-0.0898,0.8506-0.2686,1.2192c-0.1792,0.3691-0.4229,0.686-0.7305,0.9507
			c-0.3081,0.2651-0.6646,0.4712-1.0688,0.6177c-0.4048,0.1465-0.8291,0.2202-1.2729,0.2202H50.107
			c-0.4443,0-0.8687-0.0845-1.2729-0.2524c-0.4048-0.168-0.7593-0.3989-1.0635-0.6929c-0.3047-0.2935-0.5479-0.6372-0.7305-1.0313
			c-0.1826-0.3936-0.2739-0.8125-0.2739-1.2568v-0.4404l1.3213-0.2148v0.7305c0,0.2651,0.0552,0.5142,0.1665,0.7466
			c0.1108,0.2329,0.2593,0.4351,0.4458,0.6069c0.186,0.1719,0.4009,0.3081,0.6445,0.4082c0.2432,0.1006,0.4976,0.1504,0.7627,0.1504
			h0.8809c0.2646,0,0.519-0.0391,0.7627-0.1182c0.2432-0.0786,0.46-0.1914,0.6499-0.3384c0.1895-0.1465,0.3398-0.3237,0.4512-0.5317
			c0.1108-0.2075,0.1665-0.4438,0.1665-0.709c0-0.3936-0.0859-0.7158-0.2578-0.9668c-0.1719-0.2505-0.3994-0.46-0.6821-0.6284
			c-0.2832-0.168-0.6055-0.3076-0.9668-0.4189c-0.3618-0.1108-0.7324-0.2217-1.1118-0.333
			c-0.3799-0.1108-0.7505-0.2378-1.1118-0.3813c-0.3618-0.1431-0.6841-0.3311-0.9668-0.564
			c-0.2832-0.2324-0.5103-0.5244-0.6821-0.8755c-0.1719-0.3506-0.2578-0.7876-0.2578-1.3105c0-0.4438,0.0859-0.8501,0.2578-1.2192
			c0.1719-0.3687,0.4043-0.6855,0.6982-0.9507c0.2935-0.2646,0.6353-0.4707,1.0259-0.6177
			c0.3901-0.1465,0.8071-0.2202,1.2515-0.2202h0.7734c0.4438,0,0.8628,0.0845,1.2568,0.2524
			c0.3936,0.1685,0.7373,0.3994,1.0313,0.6929c0.2935,0.2939,0.5244,0.6377,0.6929,1.0313c0.168,0.394,0.2524,0.813,0.2524,1.2568
			v0.043L52.9,21.9516v-0.333c0-0.2646-0.0503-0.5137-0.1504-0.7466c-0.1006-0.2324-0.2363-0.4351-0.4082-0.6069
			s-0.3745-0.3076-0.6069-0.4082c-0.2329-0.1001-0.4819-0.1504-0.7466-0.1504h-0.7734c-0.2651,0-0.5142,0.0396-0.7466,0.1182
			c-0.2329,0.0791-0.4351,0.1919-0.6069,0.3384c-0.1719,0.147-0.3081,0.3242-0.4082,0.5317
			c-0.1006,0.208-0.1504,0.4443-0.1504,0.709c0,0.3799,0.0859,0.6895,0.2578,0.9292c0.1719,0.2402,0.3989,0.4424,0.6821,0.6069
			c0.2827,0.165,0.605,0.3027,0.9668,0.4136c0.3613,0.1113,0.7305,0.2256,1.1064,0.3438s0.7446,0.2524,1.1064,0.4028
			c0.3613,0.1504,0.6836,0.3438,0.9668,0.5801c0.2827,0.2363,0.5103,0.5317,0.6821,0.8862S54.3287,26.3598,54.3287,26.8823z"/>
		<path style="fill:#FFFFFF;" d="M60.8707,29.6752c-0.4014,0-0.7788-0.0752-1.1333-0.2256s-0.6626-0.3579-0.9238-0.623
			c-0.2617-0.2646-0.4692-0.5728-0.623-0.9238c-0.1543-0.3506-0.231-0.7266-0.231-1.1279v-6.8428H55.983v-1.2568h1.9766v-2.6426
			l1.3213-0.2148v2.8574h2.793v1.2568h-2.793v6.9072c0,0.2222,0.041,0.4282,0.1235,0.6177c0.082,0.1899,0.1948,0.3564,0.3384,0.4995
			c0.1431,0.1436,0.3115,0.2563,0.5049,0.3384c0.1934,0.0825,0.4009,0.1235,0.623,0.1235h1.2031v1.2568H60.8707z"/>
		<path style="fill:#FFFFFF;" d="M64.8345,16.0326v-1.7617h1.5361v1.7617H64.8345z M64.942,29.6752v-11h1.3213v11H64.942z"/>
		<path style="fill:#FFFFFF;" d="M76.4415,27.9135c-0.1685,0.394-0.3994,0.7378-0.6929,1.0313
			c-0.2939,0.2939-0.6377,0.5249-1.0313,0.6929c-0.394,0.168-0.813,0.2524-1.2568,0.2524h-0.8809
			c-0.4443,0-0.8633-0.0845-1.2568-0.2524c-0.394-0.168-0.7378-0.3989-1.0313-0.6929c-0.2939-0.2935-0.5249-0.6372-0.6929-1.0313
			c-0.1685-0.3936-0.2524-0.8125-0.2524-1.2568v-4.9629c0-0.4438,0.084-0.8628,0.2524-1.2568
			c0.168-0.3936,0.3989-0.7373,0.6929-1.0313c0.2935-0.2935,0.6372-0.5244,1.0313-0.6929c0.3936-0.168,0.8125-0.2524,1.2568-0.2524
			h0.8809c0.4438,0,0.8628,0.0845,1.2568,0.2524c0.3936,0.1685,0.7373,0.3994,1.0313,0.6929
			c0.2935,0.2939,0.5244,0.6377,0.6929,1.0313c0.168,0.394,0.2524,0.813,0.2524,1.2568v4.9629
			C76.6939,27.101,76.6095,27.52,76.4415,27.9135z M75.3726,21.6186c0-0.2646-0.0503-0.5137-0.1504-0.7466
			c-0.1006-0.2324-0.2363-0.4351-0.4082-0.6069s-0.3745-0.3076-0.6069-0.4082c-0.2329-0.1001-0.4819-0.1504-0.7466-0.1504h-0.8809
			c-0.2651,0-0.5142,0.0503-0.7466,0.1504c-0.2329,0.1006-0.4351,0.2363-0.6069,0.4082s-0.3081,0.3745-0.4082,0.6069
			c-0.1006,0.2329-0.1504,0.4819-0.1504,0.7466v5.1133c0,0.2651,0.0498,0.5142,0.1504,0.7466
			c0.1001,0.2329,0.2363,0.4351,0.4082,0.6069s0.374,0.3081,0.6069,0.4082c0.2324,0.1006,0.4814,0.1504,0.7466,0.1504h0.8809
			c0.2646,0,0.5137-0.0498,0.7466-0.1504c0.2324-0.1001,0.4351-0.2363,0.6069-0.4082s0.3076-0.374,0.4082-0.6069
			c0.1001-0.2324,0.1504-0.4814,0.1504-0.7466V21.6186z"/>
		<path style="fill:#FFFFFF;" d="M85.3629,29.6752v-8.0566c0-0.2646-0.0503-0.5137-0.1504-0.7466
			c-0.1006-0.2324-0.2363-0.4351-0.4082-0.6069s-0.3745-0.3076-0.6069-0.4082c-0.2329-0.1001-0.4819-0.1504-0.7466-0.1504h-0.8809
			c-0.2651,0-0.5142,0.0503-0.7466,0.1504c-0.2329,0.1006-0.4351,0.2363-0.6069,0.4082s-0.3081,0.3745-0.4082,0.6069
			c-0.1006,0.2329-0.1504,0.4819-0.1504,0.7466v8.0566h-1.3213v-11h0.4404l0.7197,1.1172c0.3008-0.4082,0.6782-0.7319,1.1333-0.9722
			c0.4546-0.2397,0.9507-0.3599,1.4878-0.3599h0.333c0.4438,0,0.8628,0.0845,1.2568,0.2524
			c0.3936,0.1685,0.7373,0.3994,1.0313,0.6929c0.2935,0.2939,0.5244,0.6377,0.6929,1.0313c0.168,0.394,0.2524,0.813,0.2524,1.2568
			v7.9814H85.3629z"/>
		<path style="fill:#FFFFFF;" d="M96.234,29.6752l-0.7305-1.0957c-0.3008,0.394-0.6768,0.7109-1.1279,0.9507
			s-0.9453,0.3599-1.4824,0.3599h-0.333c-0.4443,0-0.8633-0.0845-1.2568-0.2524c-0.394-0.168-0.7378-0.3989-1.0313-0.6929
			c-0.2939-0.2935-0.5249-0.6372-0.6929-1.0313c-0.1685-0.3936-0.2524-0.8125-0.2524-1.2568v-0.1074
			c0-0.4438,0.084-0.8628,0.2524-1.2568c0.168-0.3936,0.3989-0.7373,0.6929-1.0313c0.2935-0.2935,0.6372-0.5244,1.0313-0.6929
			c0.3936-0.168,0.8125-0.2524,1.2568-0.2524h2.793v-1.6973c0-0.2646-0.0503-0.5137-0.1504-0.7466
			c-0.1006-0.2324-0.2363-0.4351-0.4082-0.6069s-0.3745-0.3076-0.6069-0.4082c-0.2329-0.1001-0.4819-0.1504-0.7466-0.1504h-0.7734
			c-0.2651,0-0.5142,0.0503-0.7466,0.1504c-0.2329,0.1006-0.4351,0.2363-0.6069,0.4082s-0.3081,0.3745-0.4082,0.6069
			c-0.1006,0.2329-0.1504,0.4819-0.1504,0.7466v0.3975l-1.3213-0.2148v-0.1074c0-0.4438,0.084-0.8628,0.2524-1.2568
			c0.168-0.3936,0.3989-0.7373,0.6929-1.0313c0.2935-0.2935,0.6372-0.5244,1.0313-0.6929c0.3936-0.168,0.8125-0.2524,1.2568-0.2524
			h0.7734c0.4438,0,0.8628,0.0845,1.2568,0.2524c0.3936,0.1685,0.7373,0.3994,1.0313,0.6929
			c0.2935,0.2939,0.5244,0.6377,0.6929,1.0313c0.168,0.394,0.2524,0.813,0.2524,1.2568v7.9814H96.234z M95.3531,24.3471h-2.793
			c-0.2651,0-0.5142,0.0503-0.7466,0.1504c-0.2329,0.1006-0.4351,0.2383-0.6069,0.4136c-0.1719,0.1758-0.3081,0.3799-0.4082,0.6123
			c-0.1006,0.2329-0.1504,0.4819-0.1504,0.7466v0.4619c0,0.2651,0.0498,0.5142,0.1504,0.7466
			c0.1001,0.2329,0.2363,0.4351,0.4082,0.6069s0.374,0.3081,0.6069,0.4082c0.2324,0.1006,0.4814,0.1504,0.7466,0.1504h0.8809
			c0.2646,0,0.5137-0.0498,0.7466-0.1504c0.2324-0.1001,0.4351-0.2363,0.6069-0.4082s0.3076-0.374,0.4082-0.6069
			c0.1001-0.2324,0.1504-0.4814,0.1504-0.7466V24.3471z"/>
		<path style="fill:#FFFFFF;" d="M102.5504,19.9321c-0.2651,0-0.5142,0.0503-0.7466,0.1504
			c-0.2329,0.1006-0.4351,0.2363-0.6069,0.4082s-0.3081,0.3745-0.4082,0.6069c-0.1006,0.2329-0.1504,0.4819-0.1504,0.7466v7.8311
			H99.317v-11h0.4404l0.7197,1.1172c0.3008-0.4082,0.6782-0.7319,1.1333-0.9722c0.4546-0.2397,0.9507-0.3599,1.4878-0.3599h0.7734
			v1.4717H102.5504z"/>
		<path style="fill:#FFFFFF;" d="M105.9664,16.0326v-1.7617h1.5361v1.7617H105.9664z M106.0738,29.6752v-11h1.3213v11H106.0738z"/>
		<path style="fill:#FFFFFF;" d="M117.5733,27.9135c-0.1685,0.394-0.3994,0.7378-0.6929,1.0313
			c-0.2939,0.2939-0.6377,0.5249-1.0313,0.6929c-0.394,0.168-0.813,0.2524-1.2568,0.2524h-0.8809
			c-0.4443,0-0.8633-0.0845-1.2568-0.2524c-0.394-0.168-0.7378-0.3989-1.0313-0.6929c-0.2939-0.2935-0.5249-0.6372-0.6929-1.0313
			c-0.1685-0.3936-0.2524-0.8125-0.2524-1.2568v-4.9629c0-0.4438,0.084-0.8628,0.2524-1.2568
			c0.168-0.3936,0.3989-0.7373,0.6929-1.0313c0.2935-0.2935,0.6372-0.5244,1.0313-0.6929c0.3936-0.168,0.8125-0.2524,1.2568-0.2524
			h0.8809c0.4438,0,0.8628,0.0845,1.2568,0.2524c0.3936,0.1685,0.7373,0.3994,1.0313,0.6929
			c0.2935,0.2939,0.5244,0.6377,0.6929,1.0313c0.168,0.394,0.2524,0.813,0.2524,1.2568v4.9629
			C117.8258,27.101,117.7413,27.52,117.5733,27.9135z M116.5045,21.6186c0-0.2646-0.0503-0.5137-0.1504-0.7466
			c-0.1006-0.2324-0.2363-0.4351-0.4082-0.6069s-0.3745-0.3076-0.6069-0.4082c-0.2329-0.1001-0.4819-0.1504-0.7466-0.1504h-0.8809
			c-0.2651,0-0.5142,0.0503-0.7466,0.1504c-0.2329,0.1006-0.4351,0.2363-0.6069,0.4082s-0.3081,0.3745-0.4082,0.6069
			c-0.1006,0.2329-0.1504,0.4819-0.1504,0.7466v5.1133c0,0.2651,0.0498,0.5142,0.1504,0.7466
			c0.1001,0.2329,0.2363,0.4351,0.4082,0.6069s0.374,0.3081,0.6069,0.4082c0.2324,0.1006,0.4814,0.1504,0.7466,0.1504h0.8809
			c0.2646,0,0.5137-0.0498,0.7466-0.1504c0.2324-0.1001,0.4351-0.2363,0.6069-0.4082s0.3076-0.374,0.4082-0.6069
			c0.1001-0.2324,0.1504-0.4814,0.1504-0.7466V21.6186z"/>
	</g>
</g>
</svg>
