<?xml version="1.0" encoding="utf-8"?>
<!-- Generator: Adobe Illustrator 21.0.2, SVG Export Plug-In . SVG Version: 6.00 Build 0)  -->
<svg version="1.1" id="Capa_1" xmlns="http://www.w3.org/2000/svg" xmlns:xlink="http://www.w3.org/1999/xlink" x="0px" y="0px"
	 viewBox="0 0 391.6338 208.8096" style="enable-background:new 0 0 391.6338 208.8096;" xml:space="preserve">
<g>
	<polygon style="fill:#CED3D6;" points="200.5093,84.8089 77.7374,56.2541 50.5029,87.0327 0,77.9945 0,156.679 182.3929,139.3699 
		194.005,144.1083 	"/>
	<g>
		<g>
			<path d="M68.2211,103.4759V87.4593h4.8398l2.9063,10.9258l2.874-10.9258h4.8506v16.0166h-3.0049V90.8675l-3.1787,12.6084h-3.1143
				l-3.168-12.6084v12.6084H68.2211z"/>
			<path d="M93.601,99.7835l3.0596,0.5127c-0.3936,1.1221-1.0146,1.9766-1.8633,2.5625s-1.9102,0.8799-3.1846,0.8799
				c-2.0176,0-3.5107-0.6592-4.4795-1.9775c-0.7646-1.0566-1.1475-2.3896-1.1475-3.999c0-1.9229,0.5029-3.4287,1.5078-4.5176
				s2.2764-1.6338,3.8135-1.6338c1.7256,0,3.0879,0.5703,4.0859,1.71s1.4746,2.8857,1.4307,5.2393h-7.6914
				c0.0225,0.9102,0.2695,1.6182,0.7432,2.125c0.4736,0.5059,1.0635,0.7588,1.7695,0.7588c0.4814,0,0.8857-0.1309,1.2129-0.3936
				C93.1859,100.7884,93.433,100.3656,93.601,99.7835z M93.7758,96.68c-0.0215-0.8887-0.251-1.5635-0.6885-2.0264
				c-0.4365-0.4629-0.9688-0.6943-1.5947-0.6943c-0.6699,0-1.2236,0.2441-1.6611,0.7324c-0.4365,0.4883-0.6514,1.1514-0.6445,1.9883
				H93.7758z M89.8539,90.4525l1.5078-3.2666h3.4414l-3.0049,3.2666H89.8539z"/>
			<path d="M104.6469,91.8734v2.4473h-2.0977v4.6758c0,0.9473,0.0195,1.499,0.0605,1.6553
				c0.0391,0.1563,0.1309,0.2861,0.2725,0.3877c0.1426,0.1025,0.3154,0.1533,0.5195,0.1533c0.2842,0,0.6953-0.0986,1.2344-0.2949
				l0.2617,2.3818c-0.7139,0.3057-1.5225,0.459-2.4248,0.459c-0.5537,0-1.0527-0.0938-1.4971-0.2793s-0.7705-0.4258-0.9775-0.7207
				c-0.208-0.2949-0.3516-0.6943-0.4316-1.1963c-0.0654-0.3574-0.0986-1.0781-0.0986-2.1631v-5.0586H98.059v-2.4473h1.4092v-2.3057
				l3.0811-1.792v4.0977H104.6469z"/>
			<path d="M106.0668,97.5101c0-1.0195,0.252-2.0059,0.7539-2.96c0.5029-0.9541,1.2148-1.6826,2.1367-2.1855
				c0.9209-0.5029,1.9502-0.7539,3.0859-0.7539c1.7549,0,3.1943,0.5703,4.3154,1.71c1.1221,1.1396,1.6826,2.5801,1.6826,4.3213
				c0,1.7549-0.5664,3.21-1.6992,4.3643c-1.1318,1.1543-2.5576,1.7324-4.2773,1.7324c-1.0635,0-2.0771-0.2412-3.042-0.7217
				c-0.9658-0.4805-1.6992-1.1855-2.2021-2.1143C106.3187,99.974,106.0668,98.8431,106.0668,97.5101z M109.2133,97.6742
				c0,1.1514,0.2734,2.0322,0.8203,2.6445c0.5459,0.6113,1.2197,0.918,2.0205,0.918c0.8018,0,1.4736-0.3066,2.0156-0.918
				c0.543-0.6123,0.8145-1.501,0.8145-2.666c0-1.1367-0.2715-2.0107-0.8145-2.6221c-0.542-0.6123-1.2139-0.918-2.0156-0.918
				c-0.8008,0-1.4746,0.3057-2.0205,0.918C109.4867,95.6419,109.2133,96.5238,109.2133,97.6742z"/>
			<path d="M131.0863,103.4759h-2.8516v-1.7041c-0.4727,0.6621-1.0322,1.1563-1.6768,1.4805
				c-0.6445,0.3232-1.2949,0.4863-1.9502,0.4863c-1.333,0-2.4746-0.5371-3.4248-1.6123c-0.9512-1.0742-1.4258-2.5723-1.4258-4.4951
				c0-1.9668,0.4619-3.4619,1.3877-4.4854c0.9248-1.0234,2.0938-1.5352,3.5068-1.5352c1.2959,0,2.418,0.5391,3.3652,1.6172v-5.7686
				h3.0693V103.4759z M122.8929,97.4232c0,1.2383,0.1709,2.1338,0.5127,2.6875c0.4961,0.8018,1.1875,1.2021,2.0762,1.2021
				c0.7061,0,1.3076-0.3008,1.8027-0.9014s0.7432-1.499,0.7432-2.6934c0-1.333-0.2402-2.292-0.7217-2.8789
				c-0.4805-0.5859-1.0957-0.8799-1.8457-0.8799c-0.7285,0-1.3389,0.29-1.8301,0.8691
				C123.1381,95.4076,122.8929,96.2728,122.8929,97.4232z"/>
			<path d="M133.4027,97.5101c0-1.0195,0.252-2.0059,0.7539-2.96c0.5029-0.9541,1.2148-1.6826,2.1367-2.1855
				c0.9209-0.5029,1.9502-0.7539,3.0859-0.7539c1.7549,0,3.1943,0.5703,4.3154,1.71c1.1221,1.1396,1.6826,2.5801,1.6826,4.3213
				c0,1.7549-0.5664,3.21-1.6992,4.3643c-1.1318,1.1543-2.5576,1.7324-4.2773,1.7324c-1.0635,0-2.0771-0.2412-3.042-0.7217
				c-0.9658-0.4805-1.6992-1.1855-2.2021-2.1143C133.6547,99.974,133.4027,98.8431,133.4027,97.5101z M136.5492,97.6742
				c0,1.1514,0.2734,2.0322,0.8203,2.6445c0.5459,0.6113,1.2197,0.918,2.0205,0.918c0.8018,0,1.4736-0.3066,2.0156-0.918
				c0.543-0.6123,0.8145-1.501,0.8145-2.666c0-1.1367-0.2715-2.0107-0.8145-2.6221c-0.542-0.6123-1.2139-0.918-2.0156-0.918
				c-0.8008,0-1.4746,0.3057-2.0205,0.918C136.8226,95.6419,136.5492,96.5238,136.5492,97.6742z"/>
			<path d="M146.6996,100.1654l3.0811-0.4697c0.1309,0.5977,0.3965,1.0508,0.7979,1.3604c0.4004,0.3096,0.9609,0.4639,1.6826,0.4639
				c0.793,0,1.3906-0.1455,1.791-0.4365c0.2695-0.2041,0.4043-0.4775,0.4043-0.8193c0-0.2334-0.0723-0.4268-0.2178-0.5791
				c-0.1533-0.1455-0.4961-0.2803-1.0273-0.4043c-2.4766-0.5459-4.0459-1.0449-4.709-1.4971c-0.918-0.626-1.377-1.4971-1.377-2.6113
				c0-1.0049,0.3975-1.8496,1.1914-2.5342s2.0244-1.0273,3.6924-1.0273c1.5879,0,2.7676,0.2588,3.54,0.7754
				c0.7725,0.5176,1.3037,1.2822,1.5947,2.2949l-2.8945,0.5352c-0.124-0.4512-0.3594-0.7979-0.7051-1.0381
				s-0.8398-0.3604-1.4805-0.3604c-0.8086,0-1.3877,0.1133-1.7373,0.3389c-0.2324,0.1602-0.3496,0.3682-0.3496,0.623
				c0,0.2178,0.1025,0.4043,0.3066,0.5566c0.2764,0.2041,1.2324,0.4922,2.8672,0.8633c1.6357,0.3711,2.7773,0.8271,3.4258,1.3652
				c0.6406,0.5469,0.9609,1.3076,0.9609,2.2842c0,1.0635-0.4443,1.9775-1.333,2.7422s-2.2031,1.1475-3.9434,1.1475
				c-1.5811,0-2.832-0.3213-3.7529-0.9619C147.5863,102.1361,146.9838,101.265,146.6996,100.1654z"/>
			<path d="M37.1713,114.3099h5.9102c1.333,0,2.3496,0.1016,3.0488,0.3057c0.9395,0.2773,1.7441,0.7686,2.4141,1.4746
				c0.6699,0.707,1.1797,1.5723,1.5293,2.5947c0.3496,1.0234,0.5254,2.2861,0.5254,3.7861c0,1.3184-0.1641,2.4551-0.4922,3.4092
				c-0.4004,1.165-0.9727,2.1084-1.7148,2.8291c-0.5615,0.5469-1.3184,0.9727-2.2725,1.2783
				c-0.7148,0.2256-1.6689,0.3389-2.8633,0.3389h-6.085V114.3099z M40.4047,117.0189v10.6094h2.415
				c0.9033,0,1.5547-0.0508,1.9551-0.1533c0.5244-0.1309,0.96-0.3535,1.3057-0.666c0.3467-0.3135,0.6289-0.8291,0.8467-1.5469
				c0.2188-0.7168,0.3281-1.6943,0.3281-2.9326s-0.1094-2.1895-0.3281-2.8516c-0.2178-0.6631-0.5244-1.1807-0.917-1.5518
				c-0.3936-0.3711-0.8926-0.623-1.4971-0.7539c-0.4521-0.1016-1.3369-0.1533-2.6553-0.1533H40.4047z"/>
			<path d="M53.3197,117.1507v-2.8408h3.0693v2.8408H53.3197z M53.3197,130.3265V118.724h3.0693v11.6025H53.3197z"/>
			<path d="M58.4535,127.016l3.0811-0.4697c0.1309,0.5977,0.3965,1.0508,0.7979,1.3604c0.4004,0.3096,0.9609,0.4639,1.6826,0.4639
				c0.793,0,1.3906-0.1455,1.791-0.4365c0.2695-0.2041,0.4043-0.4775,0.4043-0.8193c0-0.2334-0.0723-0.4268-0.2178-0.5791
				c-0.1533-0.1455-0.4961-0.2803-1.0273-0.4043c-2.4766-0.5459-4.0459-1.0449-4.709-1.4971c-0.918-0.626-1.377-1.4971-1.377-2.6113
				c0-1.0049,0.3975-1.8496,1.1914-2.5342s2.0244-1.0273,3.6924-1.0273c1.5879,0,2.7676,0.2588,3.54,0.7754
				c0.7725,0.5176,1.3037,1.2822,1.5947,2.2949l-2.8945,0.5352c-0.124-0.4512-0.3594-0.7979-0.7051-1.0381
				s-0.8398-0.3604-1.4805-0.3604c-0.8086,0-1.3877,0.1133-1.7373,0.3389c-0.2324,0.1602-0.3496,0.3682-0.3496,0.623
				c0,0.2178,0.1025,0.4043,0.3066,0.5566c0.2764,0.2041,1.2324,0.4922,2.8672,0.8633c1.6357,0.3711,2.7773,0.8271,3.4258,1.3652
				c0.6406,0.5469,0.9609,1.3076,0.9609,2.2842c0,1.0635-0.4443,1.9775-1.333,2.7422s-2.2031,1.1475-3.9434,1.1475
				c-1.5811,0-2.832-0.3213-3.7529-0.9619C59.3402,128.9867,58.7377,128.1156,58.4535,127.016z"/>
			<path d="M82.0961,122.1546l-3.0264,0.5459c-0.1016-0.6045-0.333-1.0596-0.6934-1.3662c-0.3604-0.3057-0.8291-0.458-1.4043-0.458
				c-0.7646,0-1.375,0.2637-1.8301,0.792s-0.6826,1.4111-0.6826,2.6494c0,1.376,0.2314,2.3486,0.6943,2.917
				c0.4619,0.5684,1.083,0.8525,1.8623,0.8525c0.583,0,1.0596-0.166,1.4316-0.4981c0.3711-0.3311,0.6338-0.9014,0.7861-1.709
				l3.0156,0.5127c-0.3135,1.3848-0.9141,2.4297-1.8027,3.1357c-0.8887,0.707-2.0791,1.0605-3.5723,1.0605
				c-1.6973,0-3.0508-0.5361-4.0596-1.6064c-1.0088-1.0703-1.5127-2.5527-1.5127-4.4463c0-1.916,0.5059-3.4072,1.5186-4.4746
				c1.0127-1.0664,2.3818-1.6006,4.1084-1.6006c1.4131,0,2.5361,0.3047,3.3701,0.9121
				C81.1332,119.9818,81.7318,120.9085,82.0961,122.1546z"/>
			<path d="M87.3627,130.3265h-3.0703V118.724h2.8516v1.6494c0.4883-0.7793,0.9268-1.293,1.3164-1.54
				c0.3896-0.248,0.832-0.3721,1.3281-0.3721c0.6992,0,1.373,0.1934,2.0215,0.5791l-0.9512,2.6768
				c-0.5176-0.335-0.998-0.5029-1.4424-0.5029c-0.4297,0-0.7939,0.1191-1.0918,0.3555c-0.2988,0.2363-0.5342,0.665-0.7051,1.2842
				s-0.2568,1.915-0.2568,3.8887V130.3265z"/>
			<path d="M99.851,126.6341l3.0596,0.5127c-0.3936,1.1221-1.0146,1.9766-1.8633,2.5625s-1.9102,0.8799-3.1846,0.8799
				c-2.0176,0-3.5107-0.6592-4.4795-1.9775c-0.7646-1.0566-1.1475-2.3897-1.1475-3.999c0-1.9229,0.5029-3.4287,1.5078-4.5176
				s2.2764-1.6338,3.8135-1.6338c1.7256,0,3.0879,0.5703,4.0859,1.71s1.4746,2.8857,1.4307,5.2393h-7.6914
				c0.0225,0.9102,0.2695,1.6182,0.7432,2.125c0.4736,0.5059,1.0635,0.7588,1.7695,0.7588c0.4814,0,0.8857-0.1309,1.2129-0.3936
				C99.4359,127.639,99.683,127.2162,99.851,126.6341z M100.0258,123.5306c-0.0215-0.8887-0.251-1.5635-0.6885-2.0264
				c-0.4365-0.4629-0.9688-0.6943-1.5947-0.6943c-0.6699,0-1.2236,0.2441-1.6611,0.7324c-0.4365,0.4883-0.6514,1.1514-0.6445,1.9883
				H100.0258z"/>
			<path d="M110.8969,118.724v2.4473h-2.0977v4.6758c0,0.9473,0.0195,1.499,0.0605,1.6553
				c0.0391,0.1563,0.1309,0.2861,0.2725,0.3877c0.1426,0.1025,0.3154,0.1533,0.5195,0.1533c0.2842,0,0.6953-0.0986,1.2344-0.2949
				l0.2617,2.3818c-0.7139,0.3057-1.5225,0.459-2.4248,0.459c-0.5537,0-1.0527-0.0938-1.4971-0.2793s-0.7705-0.4258-0.9775-0.7207
				c-0.208-0.2949-0.3516-0.6943-0.4316-1.1963c-0.0654-0.3574-0.0986-1.0781-0.0986-2.1631v-5.0586h-1.4092v-2.4473h1.4092v-2.3057
				l3.0811-1.792v4.0977H110.8969z"/>
			<path d="M112.3168,124.3607c0-1.0195,0.252-2.0059,0.7539-2.96c0.5029-0.9541,1.2148-1.6826,2.1367-2.1855
				c0.9209-0.5029,1.9502-0.7539,3.0859-0.7539c1.7549,0,3.1943,0.5703,4.3154,1.71c1.1221,1.1396,1.6826,2.5801,1.6826,4.3213
				c0,1.7549-0.5664,3.21-1.6992,4.3643c-1.1318,1.1543-2.5576,1.7324-4.2773,1.7324c-1.0635,0-2.0771-0.2412-3.042-0.7217
				c-0.9658-0.4805-1.6992-1.1855-2.2021-2.1143C112.5687,126.8246,112.3168,125.6937,112.3168,124.3607z M115.4633,124.5248
				c0,1.1514,0.2734,2.0322,0.8203,2.6445c0.5459,0.6113,1.2197,0.918,2.0205,0.918c0.8018,0,1.4736-0.3066,2.0156-0.918
				c0.543-0.6123,0.8145-1.501,0.8145-2.666c0-1.1367-0.2715-2.0107-0.8145-2.6221c-0.542-0.6123-1.2139-0.918-2.0156-0.918
				c-0.8008,0-1.4746,0.3057-2.0205,0.918C115.7367,122.4925,115.4633,123.3744,115.4633,124.5248z"/>
			<path d="M125.6127,127.016l3.0811-0.4697c0.1309,0.5977,0.3965,1.0508,0.7979,1.3604c0.4004,0.3096,0.9609,0.4639,1.6826,0.4639
				c0.793,0,1.3906-0.1455,1.791-0.4365c0.2695-0.2041,0.4043-0.4775,0.4043-0.8193c0-0.2334-0.0723-0.4268-0.2178-0.5791
				c-0.1533-0.1455-0.4961-0.2803-1.0273-0.4043c-2.4766-0.5459-4.0459-1.0449-4.709-1.4971c-0.918-0.626-1.377-1.4971-1.377-2.6113
				c0-1.0049,0.3975-1.8496,1.1914-2.5342s2.0244-1.0273,3.6924-1.0273c1.5879,0,2.7676,0.2588,3.54,0.7754
				c0.7725,0.5176,1.3037,1.2822,1.5947,2.2949l-2.8945,0.5352c-0.124-0.4512-0.3594-0.7979-0.7051-1.0381
				s-0.8398-0.3604-1.4805-0.3604c-0.8086,0-1.3877,0.1133-1.7373,0.3389c-0.2324,0.1602-0.3496,0.3682-0.3496,0.623
				c0,0.2178,0.1025,0.4043,0.3066,0.5566c0.2764,0.2041,1.2324,0.4922,2.8672,0.8633c1.6357,0.3711,2.7773,0.8271,3.4258,1.3652
				c0.6406,0.5469,0.9609,1.3076,0.9609,2.2842c0,1.0635-0.4443,1.9775-1.333,2.7422s-2.2031,1.1475-3.9434,1.1475
				c-1.5811,0-2.832-0.3213-3.7529-0.9619C126.4994,128.9867,125.8969,128.1156,125.6127,127.016z"/>
		</g>
	</g>
	<g>
		<circle id="Background_2_3_" style="fill:#C9452F;" cx="285.5941" cy="104.4049" r="104.4048"/>
		<g id="Key_Word_3_">
			<g id="Blooming_2_">
				<path style="fill:#A5A5A5;" d="M300.5621,164.2458c-7.2408-6.3938-3.948-21.3139-3.948-21.3139h-10.7906h-10.79
					c0,0,3.2922,14.9201-3.9485,21.3139c-7.2414,6.394-15.6996,6.394-15.6996,6.394v3.5975h30.4382h30.4371v-3.5975
					C316.2605,170.6397,307.8035,170.6397,300.5621,164.2458z"/>
				<rect x="255.3853" y="170.6397" style="opacity:0.3;fill:#FFFFFF;" width="60.8753" height="3.5975"/>
				<path style="fill:#CCCCCC;" d="M366.2822,133.341c0,5.2973-4.2947,9.5909-9.5909,9.5909H214.9556
					c-5.2968,0-9.5909-4.2935-9.5909-9.5909V55.0133c0-5.2961,4.2941-9.5909,9.5909-9.5909h141.7357
					c5.2961,0,9.5909,4.2947,9.5909,9.5909V133.341z"/>
				<path style="fill:#223666;" d="M205.3648,55.0133v78.3277c0,1.861,0.5385,3.5927,1.4556,5.0618h158.0063
					c0.917-1.469,1.4555-3.2007,1.4555-5.0618V55.0133c0-2.4826-0.9513-4.738-2.5009-6.4403H207.8644
					C206.316,50.2753,205.3648,52.5307,205.3648,55.0133z"/>
				<rect x="212.291" y="51.8176" style="fill:#E2E2E2;" width="147.0648" height="83.2552"/>
				<rect x="226.8783" y="105.1009" style="fill:#9AC900;" width="15.6996" height="29.9718"/>
				<rect x="253.5199" y="96.062" style="fill:#C3DF00;" width="15.6996" height="39.0107"/>
				<rect x="280.3949" y="77.0317" style="fill:#DFC300;" width="15.6996" height="58.041"/>
				<rect x="308.4641" y="67.0404" style="fill:#E85F00;" width="15.6996" height="68.0324"/>
				<rect x="335.2401" y="56.5458" style="fill:#E53400;" width="15.6984" height="77.1286"/>
				<g>
					<g>
						<polygon style="fill:#34495E;" points="222.7569,117.128 221.3086,115.1974 266.9538,80.9626 315.874,75.8582 
							350.325,55.5067 351.5522,57.585 316.6482,78.204 267.8684,83.2938 						"/>
					</g>
					<circle style="fill:#0CC1B0;" cx="222.0321" cy="116.1624" r="3.9241"/>
					<circle style="fill:#0CC1B0;" cx="267.4112" cy="82.1288" r="3.9246"/>
					<circle style="fill:#0CC1B0;" cx="316.2607" cy="77.0314" r="3.9243"/>
					<circle style="fill:#0CC1B0;" cx="350.9387" cy="56.5458" r="3.9246"/>
				</g>
			</g>
			<g id="Key_1_">
				<path style="fill:#BCBCBC;" d="M213.8223,105.6813h7.9133V93.7274c0-3.3475-2.7138-6.0612-6.0619-6.0612h-32.9991
					c-3.3481,0-6.0612,2.7138-6.0612,6.0612v49.4994c0,3.3476,2.7131,6.0613,6.0612,6.0613h1.852V94.0635h29.2957V105.6813z"/>
				<path style="fill:#223666;" d="M228.6381,179.7631c0,3.3462-2.7138,6.06-6.0612,6.06h-46.6567
					c-3.3469,0-6.0607-2.7138-6.0607-6.06v-51.605c0-3.3489,2.7138-6.0613,6.0607-6.0613h46.6567
					c3.3475,0,6.0612,2.7124,6.0612,6.0613V179.7631z"/>
				<path style="opacity:0.6;" d="M204.4915,147.9198c0-2.8953-2.3472-5.2422-5.243-5.2422c-2.8952,0-5.2422,2.347-5.2422,5.2422
					c0,1.9893,1.1212,3.7002,2.7546,4.5881V165.07h4.9759v-12.5621C203.3696,151.6199,204.4915,149.9091,204.4915,147.9198z"/>
				<path style="opacity:0.5;" d="M199.2485,143.8861c-2.2889,0-4.1454,1.8552-4.1454,4.1462c0,1.5727,0.8868,2.9246,2.1785,3.6272
					v9.9327v2.5131h3.9269v-2.5131h0.0077v-9.9327c1.291-0.7026,2.1777-2.0545,2.1777-3.6272
					C203.3939,145.7413,201.5381,143.8861,199.2485,143.8861z"/>
				<path style="opacity:0.1;" d="M175.9202,185.8231h46.6567c3.3475,0,6.0612-2.7138,6.0612-6.06v-51.605
					c0-2.2565-1.2355-4.2201-3.0632-5.2641l-51.892,62.4973C174.3755,185.6673,175.1292,185.8231,175.9202,185.8231z"/>
			</g>
			<g id="Lens_3_">
				<path style="fill:#CE6405;" d="M390.8679,174.2487c1.8667,3.9173,0.2038,8.6038-3.713,10.4693l0,0
					c-3.9154,1.864-8.6019,0.2005-10.4673-3.7142l-18.4649-38.7632c-1.8635-3.9162-0.2026-8.6026,3.7129-10.468l0,0
					c3.9167-1.8655,8.6026-0.202,10.4686,3.7129L390.8679,174.2487z"/>
				<path style="opacity:0.2;fill:#FFFFFF;" d="M388.3918,171.8211c1.5837,3.3207,0.1732,7.298-3.1495,8.8786l0,0
					c-3.3219,1.5844-7.2974,0.1738-8.8797-3.1482l-15.6636-32.8821c-1.5818-3.3219-0.1719-7.298,3.1501-8.8797l0,0
					c3.322-1.583,7.2987-0.1725,8.8811,3.1494L388.3918,171.8211z"/>
				
					<ellipse transform="matrix(0.9028 -0.43 0.43 0.9028 -6.3075 156.5059)" style="fill:#C6C6C6;" cx="343.0891" cy="92.2073" rx="28.1919" ry="28.1919"/>
				<path style="opacity:0.1;" d="M368.5514,131.7138c-2.0327-0.9213-4.4424-0.9761-6.6158,0.0588
					c-1.8941,0.9019-3.2548,2.4685-3.9499,4.2853c1.4521,0.7896,3.9493,0.6426,6.3922-0.5213
					C366.4222,134.5631,367.9343,133.1128,368.5514,131.7138z"/>
				<rect x="332.9881" y="62.0782" style="fill:#E84621;" width="21.2585" height="60.8158"/>
				<path style="fill:#0CC1B0;" d="M375.6317,76.7062c-8.5617-17.973-30.0712-25.6032-48.0436-17.0416
					c-17.9736,8.5617-25.6019,30.0713-17.0416,48.0443c7.9312,16.6493,26.9716,24.4098,44.0209,18.6603l4.0196,8.4378
					c0,0,6.3135,2.4723,8.5859-3.5417l-4.2656-8.9564C377.7271,112.5781,383.4714,93.1639,375.6317,76.7062z M355.2125,117.6595
					c-14.0562,6.6936-30.8793,0.7269-37.575-13.3287c-6.6963-14.0557-0.7283-30.88,13.3274-37.575
					c14.057-6.6963,30.8801-0.7295,37.5763,13.3274C375.2362,94.1401,369.2689,110.9632,355.2125,117.6595z"/>
				<path style="opacity:0.2;" d="M344.7555,63.8925c-4.613-0.2823-9.3577,0.561-13.8251,2.6895
					c-13.3331,6.3513-19.3797,21.8137-14.2524,35.3838C314.7538,75.2075,333.6633,66.6191,344.7555,63.8925z"/>
			</g>
		</g>
	</g>
</g>
</svg>
