<?xml version="1.0" encoding="utf-8"?>
<!-- Generator: Adobe Illustrator 21.0.2, SVG Export Plug-In . SVG Version: 6.00 Build 0)  -->
<svg version="1.1" id="Capa_1" xmlns="http://www.w3.org/2000/svg" xmlns:xlink="http://www.w3.org/1999/xlink" x="0px" y="0px"
	 viewBox="0 0 935.7994 455.0943" style="enable-background:new 0 0 935.7994 455.0943;" xml:space="preserve">
<g>
	<polygon style="fill:#FFFFFF;stroke:#093751;stroke-miterlimit:10;" points="934.3945,439.4653 489.8391,439.4653 
		469.5093,454.4653 450.5089,439.4653 0.5,439.4653 0.5,39.4225 934.3945,39.4225 	"/>
	<polygon style="fill:#F9CA35;" points="130.1667,73.9754 0.5,73.9754 0.5,47.6712 130.1667,47.6712 142.1667,60.8233 	"/>
	<g>
		<path d="M15.7001,68.5976V53.1933h1.3857v15.4043H15.7001z"/>
		<path d="M26.1953,68.5976V60.541c0-0.2646-0.0503-0.5137-0.1504-0.7471c-0.1006-0.2324-0.2363-0.4346-0.4082-0.6064
			s-0.3745-0.3076-0.6069-0.4082c-0.2329-0.1006-0.4819-0.1504-0.7466-0.1504h-0.8809c-0.2651,0-0.5142,0.0498-0.7466,0.1504
			c-0.2329,0.1006-0.4351,0.2363-0.6069,0.4082s-0.3081,0.374-0.4082,0.6064c-0.1006,0.2334-0.1504,0.4824-0.1504,0.7471v8.0566
			h-1.3213v-11h0.4404l0.7197,1.1172c0.3008-0.4082,0.6782-0.7314,1.1333-0.9717c0.4546-0.2402,0.9507-0.3604,1.4878-0.3604h0.333
			c0.4438,0,0.8628,0.085,1.2568,0.2529c0.3936,0.168,0.7373,0.3984,1.0313,0.6924c0.2935,0.2939,0.5244,0.6377,0.6929,1.0313
			c0.168,0.3936,0.2524,0.8135,0.2524,1.2568v7.9814H26.1953z"/>
		<path d="M33.6074,68.5976h-0.6553l-3.8994-11h1.3213l2.8682,8.3359l0.043,0.5693l0.043-0.5693l2.8574-8.3359h1.3213
			L33.6074,68.5976z"/>
		<path d="M46.1381,66.8359c-0.1685,0.3936-0.3994,0.7373-0.6929,1.0313c-0.2939,0.2939-0.6377,0.5244-1.0313,0.6924
			c-0.394,0.168-0.813,0.2529-1.2568,0.2529h-0.8809c-0.4443,0-0.8633-0.085-1.2568-0.2529
			c-0.394-0.168-0.7378-0.3984-1.0313-0.6924c-0.2939-0.2939-0.5249-0.6377-0.6929-1.0313
			c-0.1685-0.3936-0.2524-0.8125-0.2524-1.2568v-4.9629c0-0.4434,0.084-0.8633,0.2524-1.2568
			c0.168-0.3936,0.3989-0.7373,0.6929-1.0313c0.2935-0.2939,0.6372-0.5244,1.0313-0.6924c0.3936-0.168,0.8125-0.2529,1.2568-0.2529
			h0.8809c0.4438,0,0.8628,0.085,1.2568,0.2529c0.3936,0.168,0.7373,0.3984,1.0313,0.6924
			c0.2935,0.2939,0.5244,0.6377,0.6929,1.0313c0.168,0.3936,0.2524,0.8135,0.2524,1.2568v2.5889h-6.0264v2.4492
			c0,0.2646,0.0498,0.5146,0.1504,0.7471c0.1001,0.2324,0.2363,0.4346,0.4082,0.6064s0.374,0.3076,0.6069,0.4082
			c0.2324,0.1006,0.4814,0.1504,0.7466,0.1504h0.8809c0.2646,0,0.5137-0.0498,0.7466-0.1504
			c0.2324-0.1006,0.4351-0.2363,0.6069-0.4082s0.3076-0.374,0.4082-0.6064c0.1001-0.2324,0.1504-0.4824,0.1504-0.7471v-0.7305
			l1.3213,0.2148v0.4404C46.3906,66.0234,46.3061,66.4423,46.1381,66.8359z M45.0693,60.541c0-0.2646-0.0503-0.5137-0.1504-0.7471
			c-0.1006-0.2324-0.2363-0.4346-0.4082-0.6064s-0.3745-0.3076-0.6069-0.4082c-0.2329-0.1006-0.4819-0.1504-0.7466-0.1504h-0.8809
			c-0.2651,0-0.5142,0.0498-0.7466,0.1504c-0.2329,0.1006-0.4351,0.2363-0.6069,0.4082s-0.3081,0.374-0.4082,0.6064
			c-0.1006,0.2334-0.1504,0.4824-0.1504,0.7471v1.6328h4.7051V60.541z"/>
		<path d="M56.5956,65.8046c0,0.4443-0.0898,0.8506-0.2686,1.2197c-0.1792,0.3691-0.4229,0.6855-0.7305,0.9502
			c-0.3081,0.2646-0.6646,0.4717-1.0688,0.6182c-0.4048,0.1465-0.8291,0.2197-1.2729,0.2197H52.374
			c-0.4443,0-0.8687-0.085-1.2729-0.2529c-0.4048-0.168-0.7593-0.3984-1.0635-0.6924c-0.3047-0.2939-0.5479-0.6377-0.7305-1.0313
			s-0.2739-0.8125-0.2739-1.2568v-0.4404l1.3213-0.2148v0.7305c0,0.2646,0.0552,0.5146,0.1665,0.7471
			c0.1108,0.2324,0.2593,0.4346,0.4458,0.6064c0.186,0.1719,0.4009,0.3076,0.6445,0.4082c0.2432,0.1006,0.4976,0.1504,0.7627,0.1504
			h0.8809c0.2646,0,0.519-0.0391,0.7627-0.1182c0.2432-0.0781,0.46-0.1914,0.6499-0.3379c0.1895-0.1465,0.3398-0.3242,0.4512-0.5322
			c0.1108-0.208,0.1665-0.4443,0.1665-0.709c0-0.3936-0.0859-0.7158-0.2578-0.9668s-0.3994-0.46-0.6821-0.6279
			c-0.2832-0.168-0.6055-0.3086-0.9668-0.4199c-0.3618-0.1104-0.7324-0.2207-1.1118-0.332
			c-0.3799-0.1113-0.7505-0.2383-1.1118-0.3818c-0.3618-0.1436-0.6841-0.3311-0.9668-0.5635
			c-0.2832-0.2324-0.5103-0.5254-0.6821-0.876s-0.2578-0.7881-0.2578-1.3105c0-0.4443,0.0859-0.8506,0.2578-1.2197
			c0.1719-0.3682,0.4043-0.6855,0.6982-0.9502c0.2935-0.2646,0.6353-0.4707,1.0259-0.6182
			c0.3901-0.1465,0.8071-0.2197,1.2515-0.2197h0.7734c0.4438,0,0.8628,0.085,1.2568,0.2529
			c0.3936,0.168,0.7373,0.3984,1.0313,0.6924c0.2935,0.2939,0.5244,0.6377,0.6929,1.0313c0.168,0.3936,0.2524,0.8135,0.2524,1.2568
			v0.043l-1.3213,0.2148v-0.333c0-0.2646-0.0503-0.5137-0.1504-0.7471c-0.1006-0.2324-0.2363-0.4346-0.4082-0.6064
			s-0.3745-0.3076-0.6069-0.4082c-0.2329-0.1006-0.4819-0.1504-0.7466-0.1504h-0.7734c-0.2651,0-0.5142,0.04-0.7466,0.1182
			c-0.2329,0.0791-0.4351,0.1914-0.6069,0.3379c-0.1719,0.1475-0.3081,0.3242-0.4082,0.5322
			c-0.1006,0.208-0.1504,0.4443-0.1504,0.709c0,0.3799,0.0859,0.6895,0.2578,0.9287c0.1719,0.2402,0.3989,0.4434,0.6821,0.6074
			c0.2827,0.165,0.605,0.3027,0.9668,0.4141c0.3613,0.1113,0.7305,0.2246,1.1064,0.3438c0.376,0.1172,0.7446,0.252,1.1064,0.4023
			c0.3613,0.1504,0.6836,0.3438,0.9668,0.5801c0.2827,0.2363,0.5103,0.5313,0.6821,0.8867
			C56.5097,64.8427,56.5956,65.2822,56.5956,65.8046z"/>
		<path d="M63.1376,68.5976c-0.4014,0-0.7788-0.0752-1.1333-0.2256s-0.6626-0.3574-0.9238-0.623
			c-0.2617-0.2646-0.4692-0.5723-0.623-0.9238c-0.1543-0.3506-0.231-0.7266-0.231-1.1279v-6.8428h-1.9766v-1.2568h1.9766V54.955
			l1.3213-0.2148v2.8574h2.793v1.2568h-2.793v6.9072c0,0.2217,0.041,0.4287,0.1235,0.6182c0.082,0.1895,0.1948,0.3555,0.3384,0.499
			c0.1431,0.1436,0.3115,0.2568,0.5049,0.3389s0.4009,0.123,0.623,0.123h1.2031v1.2568H63.1376z"/>
		<path d="M67.1015,54.955v-1.7617h1.5361v1.7617H67.1015z M67.2089,68.5976v-11h1.3213v11H67.2089z"/>
		<path d="M78.8159,71.208c-0.1685,0.3721-0.3994,0.6914-0.6929,0.9561c-0.2939,0.2646-0.6377,0.4707-1.0313,0.6182
			c-0.394,0.1465-0.813,0.2197-1.2568,0.2197H75.287c-0.4443,0-0.8633-0.0732-1.2568-0.2197
			c-0.394-0.1475-0.7378-0.3535-1.0313-0.6182c-0.2939-0.2646-0.5249-0.584-0.6929-0.9561
			c-0.1685-0.373-0.2524-0.7813-0.2524-1.2246v-0.043c0-0.4297,0.0786-0.8242,0.2363-1.1816
			c0.1572-0.3574,0.3721-0.6699,0.6445-0.9346c-0.3438-0.208-0.6177-0.4893-0.8218-0.8428
			c-0.2041-0.3555-0.3062-0.7471-0.3062-1.1768c0-0.3867,0.082-0.7471,0.2471-1.0791c0.1646-0.334,0.3901-0.6035,0.6768-0.8115
			c-0.3438-0.3008-0.6162-0.6621-0.8164-1.085c-0.2007-0.4219-0.3008-0.8848-0.3008-1.3857v-0.8271
			c0-0.4434,0.084-0.8633,0.2524-1.2568c0.168-0.3936,0.3989-0.7373,0.6929-1.0313c0.2935-0.2939,0.6372-0.5244,1.0313-0.6924
			c0.3936-0.168,0.8125-0.2529,1.2568-0.2529h0.5479c0.5371,0,1.0327,0.1201,1.4878,0.3604
			c0.4546,0.2402,0.8325,0.5635,1.1333,0.9717l0.7197-1.1172h0.4404v3.8457c0,0.4443-0.0845,0.8633-0.2524,1.2568
			c-0.1685,0.3945-0.3994,0.7383-0.6929,1.0313c-0.2939,0.2939-0.6377,0.5254-1.0313,0.6934c-0.394,0.168-0.813,0.252-1.2568,0.252
			h-1.9121c-0.1504,0-0.2939,0.0313-0.4297,0.0918c-0.1362,0.0605-0.2563,0.1406-0.3599,0.2412
			c-0.104,0.1006-0.1846,0.2197-0.2417,0.3604c-0.0576,0.1387-0.0859,0.2842-0.0859,0.4346s0.0283,0.2939,0.0859,0.4297
			c0.0571,0.1357,0.1377,0.2568,0.2417,0.3604c0.1035,0.1035,0.2236,0.1836,0.3599,0.2412
			c0.1357,0.0576,0.2793,0.0859,0.4297,0.0859h1.8047c0.4438,0,0.8628,0.0732,1.2568,0.2197
			c0.3936,0.1475,0.7373,0.3535,1.0313,0.6182c0.2935,0.2646,0.5244,0.584,0.6929,0.9561c0.168,0.3721,0.2524,0.7803,0.2524,1.2246
			v0.043C79.0683,70.4267,78.9838,70.8349,78.8159,71.208z M77.8652,60.541c0-0.2646-0.0503-0.5137-0.1504-0.7471
			c-0.1006-0.2324-0.2383-0.4346-0.4136-0.6064c-0.1758-0.1719-0.3799-0.3076-0.6123-0.4082
			c-0.2329-0.1006-0.4819-0.1504-0.7466-0.1504h-1.0957c-0.2651,0-0.5142,0.0498-0.7466,0.1504
			c-0.2329,0.1006-0.4351,0.2363-0.6069,0.4082s-0.3081,0.374-0.4082,0.6064c-0.1006,0.2334-0.1504,0.4824-0.1504,0.7471v0.9775
			c0,0.2656,0.0498,0.5137,0.1504,0.7461c0.1001,0.2334,0.2363,0.4355,0.4082,0.6074s0.374,0.3086,0.6069,0.4082
			c0.2324,0.1006,0.4814,0.1504,0.7466,0.1504h1.0957c0.2646,0,0.5137-0.0498,0.7466-0.1504
			c0.2324-0.0996,0.4365-0.2363,0.6123-0.4082c0.1753-0.1719,0.313-0.374,0.4136-0.6074c0.1001-0.2324,0.1504-0.4805,0.1504-0.7461
			V60.541z M77.8115,69.8759c0-0.2656-0.0503-0.5039-0.1504-0.7148c-0.1006-0.2109-0.2363-0.3887-0.4082-0.5313
			s-0.3745-0.2539-0.6069-0.333c-0.2329-0.0791-0.4819-0.1182-0.7466-0.1182h-0.6768c-0.2651,0-0.5142,0.0391-0.7466,0.1182
			c-0.2329,0.0791-0.4351,0.1904-0.6069,0.333s-0.3081,0.3203-0.4082,0.5313c-0.1006,0.2109-0.1504,0.4492-0.1504,0.7148v0.1719
			c0,0.2646,0.0498,0.501,0.1504,0.709c0.1001,0.207,0.2363,0.3848,0.4082,0.5313s0.374,0.2598,0.6069,0.3389
			c0.2324,0.0791,0.4814,0.1182,0.7466,0.1182h0.6768c0.2646,0,0.5137-0.0391,0.7466-0.1182
			c0.2324-0.0791,0.4351-0.1924,0.6069-0.3389s0.3076-0.3242,0.4082-0.5313c0.1001-0.208,0.1504-0.4443,0.1504-0.709V69.8759z"/>
		<path d="M88.5107,68.5976l-0.7305-1.0957c-0.3008,0.3936-0.6768,0.7109-1.1279,0.9502c-0.4512,0.2402-0.9453,0.3604-1.4824,0.3604
			h-0.333c-0.4443,0-0.8633-0.085-1.2568-0.2529c-0.394-0.168-0.7378-0.3984-1.0313-0.6924
			c-0.2939-0.2939-0.5249-0.6377-0.6929-1.0313c-0.1685-0.3936-0.2524-0.8125-0.2524-1.2568v-0.1074
			c0-0.4434,0.084-0.8633,0.2524-1.2568c0.168-0.3936,0.3989-0.7373,0.6929-1.0313c0.2935-0.2939,0.6372-0.5244,1.0313-0.6924
			c0.3936-0.168,0.8125-0.2529,1.2568-0.2529h2.793V60.541c0-0.2646-0.0503-0.5137-0.1504-0.7471
			c-0.1006-0.2324-0.2363-0.4346-0.4082-0.6064s-0.3745-0.3076-0.6069-0.4082c-0.2329-0.1006-0.4819-0.1504-0.7466-0.1504h-0.7734
			c-0.2651,0-0.5142,0.0498-0.7466,0.1504c-0.2329,0.1006-0.4351,0.2363-0.6069,0.4082s-0.3081,0.374-0.4082,0.6064
			c-0.1006,0.2334-0.1504,0.4824-0.1504,0.7471v0.3975l-1.3213-0.2148v-0.1074c0-0.4434,0.084-0.8633,0.2524-1.2568
			c0.168-0.3936,0.3989-0.7373,0.6929-1.0313c0.2935-0.2939,0.6372-0.5244,1.0313-0.6924c0.3936-0.168,0.8125-0.2529,1.2568-0.2529
			h0.7734c0.4438,0,0.8628,0.085,1.2568,0.2529c0.3936,0.168,0.7373,0.3984,1.0313,0.6924
			c0.2935,0.2939,0.5244,0.6377,0.6929,1.0313c0.168,0.3936,0.2524,0.8135,0.2524,1.2568v7.9814H88.5107z M87.6298,63.2695h-2.793
			c-0.2651,0-0.5142,0.0498-0.7466,0.1504c-0.2329,0.1006-0.4351,0.2383-0.6069,0.4131c-0.1719,0.1758-0.3081,0.3809-0.4082,0.6133
			c-0.1006,0.2324-0.1504,0.4814-0.1504,0.7461v0.4619c0,0.2646,0.0498,0.5146,0.1504,0.7471
			c0.1001,0.2324,0.2363,0.4346,0.4082,0.6064s0.374,0.3076,0.6069,0.4082c0.2324,0.1006,0.4814,0.1504,0.7466,0.1504h0.8809
			c0.2646,0,0.5137-0.0498,0.7466-0.1504c0.2324-0.1006,0.4351-0.2363,0.6069-0.4082s0.3076-0.374,0.4082-0.6064
			c0.1001-0.2324,0.1504-0.4824,0.1504-0.7471V63.2695z"/>
		<path d="M98.6889,66.8359c-0.1685,0.3936-0.3994,0.7373-0.6929,1.0313c-0.2939,0.2939-0.6377,0.5244-1.0313,0.6924
			c-0.394,0.168-0.813,0.2529-1.2568,0.2529h-0.8809c-0.4443,0-0.8633-0.085-1.2568-0.2529
			c-0.394-0.168-0.7378-0.3984-1.0313-0.6924c-0.2939-0.2939-0.5249-0.6377-0.6929-1.0313
			c-0.1685-0.3936-0.2524-0.8125-0.2524-1.2568v-4.9629c0-0.4434,0.084-0.8633,0.2524-1.2568
			c0.168-0.3936,0.3989-0.7373,0.6929-1.0313c0.2935-0.2939,0.6372-0.5244,1.0313-0.6924c0.3936-0.168,0.8125-0.2529,1.2568-0.2529
			h0.8809c0.4438,0,0.8628,0.085,1.2568,0.2529c0.3936,0.168,0.7373,0.3984,1.0313,0.6924
			c0.2935,0.2939,0.5244,0.6377,0.6929,1.0313c0.168,0.3936,0.2524,0.8135,0.2524,1.2568v0.4404l-1.3213,0.2148V60.541
			c0-0.2646-0.0503-0.5137-0.1504-0.7471c-0.1006-0.2324-0.2363-0.4346-0.4082-0.6064s-0.3745-0.3076-0.6069-0.4082
			c-0.2329-0.1006-0.4819-0.1504-0.7466-0.1504h-0.8809c-0.2651,0-0.5142,0.0498-0.7466,0.1504
			c-0.2329,0.1006-0.4351,0.2363-0.6069,0.4082s-0.3081,0.374-0.4082,0.6064c-0.1006,0.2334-0.1504,0.4824-0.1504,0.7471v5.1133
			c0,0.2646,0.0498,0.5146,0.1504,0.7471c0.1001,0.2324,0.2363,0.4346,0.4082,0.6064s0.374,0.3076,0.6069,0.4082
			c0.2324,0.1006,0.4814,0.1504,0.7466,0.1504h0.8809c0.2646,0,0.5137-0.0498,0.7466-0.1504
			c0.2324-0.1006,0.4351-0.2363,0.6069-0.4082s0.3076-0.374,0.4082-0.6064c0.1001-0.2324,0.1504-0.4824,0.1504-0.7471v-0.7305
			l1.3213,0.2148v0.4404C98.9413,66.0234,98.8569,66.4423,98.6889,66.8359z"/>
		<path d="M101.9169,54.955v-1.7617h1.5361v1.7617H101.9169z M102.0244,68.5976v-11h1.3213v11H102.0244z"/>
		<path d="M113.5239,66.8359c-0.1685,0.3936-0.3994,0.7373-0.6929,1.0313c-0.2939,0.2939-0.6377,0.5244-1.0313,0.6924
			c-0.394,0.168-0.813,0.2529-1.2568,0.2529h-0.8809c-0.4443,0-0.8633-0.085-1.2568-0.2529
			c-0.394-0.168-0.7378-0.3984-1.0313-0.6924c-0.2939-0.2939-0.5249-0.6377-0.6929-1.0313
			c-0.1685-0.3936-0.2524-0.8125-0.2524-1.2568v-4.9629c0-0.4434,0.084-0.8633,0.2524-1.2568
			c0.168-0.3936,0.3989-0.7373,0.6929-1.0313c0.2935-0.2939,0.6372-0.5244,1.0313-0.6924c0.3936-0.168,0.8125-0.2529,1.2568-0.2529
			h0.8809c0.4438,0,0.8628,0.085,1.2568,0.2529c0.3936,0.168,0.7373,0.3984,1.0313,0.6924
			c0.2935,0.2939,0.5244,0.6377,0.6929,1.0313c0.168,0.3936,0.2524,0.8135,0.2524,1.2568v4.9629
			C113.7763,66.0234,113.6918,66.4423,113.5239,66.8359z M112.455,60.541c0-0.2646-0.0503-0.5137-0.1504-0.7471
			c-0.1006-0.2324-0.2363-0.4346-0.4082-0.6064s-0.3745-0.3076-0.6069-0.4082c-0.2329-0.1006-0.4819-0.1504-0.7466-0.1504h-0.8809
			c-0.2651,0-0.5142,0.0498-0.7466,0.1504c-0.2329,0.1006-0.4351,0.2363-0.6069,0.4082s-0.3081,0.374-0.4082,0.6064
			c-0.1006,0.2334-0.1504,0.4824-0.1504,0.7471v5.1133c0,0.2646,0.0498,0.5146,0.1504,0.7471
			c0.1001,0.2324,0.2363,0.4346,0.4082,0.6064s0.374,0.3076,0.6069,0.4082c0.2324,0.1006,0.4814,0.1504,0.7466,0.1504h0.8809
			c0.2646,0,0.5137-0.0498,0.7466-0.1504c0.2324-0.1006,0.4351-0.2363,0.6069-0.4082s0.3076-0.374,0.4082-0.6064
			c0.1001-0.2324,0.1504-0.4824,0.1504-0.7471V60.541z M109.5546,55.8359h-0.9883l1.751-2.6426h2.2021L109.5546,55.8359z"/>
		<path d="M122.4453,68.5976V60.541c0-0.2646-0.0503-0.5137-0.1504-0.7471c-0.1006-0.2324-0.2363-0.4346-0.4082-0.6064
			s-0.3745-0.3076-0.6069-0.4082c-0.2329-0.1006-0.4819-0.1504-0.7466-0.1504h-0.8809c-0.2651,0-0.5142,0.0498-0.7466,0.1504
			c-0.2329,0.1006-0.4351,0.2363-0.6069,0.4082s-0.3081,0.374-0.4082,0.6064c-0.1006,0.2334-0.1504,0.4824-0.1504,0.7471v8.0566
			h-1.3213v-11h0.4404l0.7197,1.1172c0.3008-0.4082,0.6782-0.7314,1.1333-0.9717c0.4546-0.2402,0.9507-0.3604,1.4878-0.3604h0.333
			c0.4438,0,0.8628,0.085,1.2568,0.2529c0.3936,0.168,0.7373,0.3984,1.0313,0.6924c0.2935,0.2939,0.5244,0.6377,0.6929,1.0313
			c0.168,0.3936,0.2524,0.8135,0.2524,1.2568v7.9814H122.4453z"/>
	</g>
	<g id="XMLID_5541_">
		<path id="XMLID_5550_" style="fill:#FFFFFF;stroke:#912D19;stroke-miterlimit:10;" d="M924.255,11.5442
			c0.9631,0.9631,0.9631,2.5249,0,3.4879l-2.1795,2.1795l2.1797,2.1798c0.963,0.9631,0.9628,2.5245-0.0002,3.4876
			c-0.9631,0.9631-2.5245,0.9633-3.4876,0.0003l-2.1797-2.1798l-2.1796,2.1795c-0.963,0.963-2.5248,0.963-3.4879-0.0001
			c-0.963-0.9631-0.9628-2.5246,0.0002-3.4876l2.1795-2.1795l-2.1797-2.1798c-0.963-0.9631-0.963-2.5249,0-3.4879
			c0.9631-0.9631,2.5248-0.963,3.4879,0.0001l2.1797,2.1798l2.1796-2.1795C921.7307,10.5811,923.2919,10.5811,924.255,11.5442
			L924.255,11.5442z M924.255,11.5442"/>
		<path id="XMLID_5542_" style="fill:#C9452F;" d="M906.3309,29.4683c-6.7324-6.7323-6.7321-17.6867,0.0002-24.4191
			c6.7322-6.7321,17.6865-6.7323,24.4189,0c6.7324,6.7324,6.7327,17.6867,0.0003,24.4191S913.0633,36.2007,906.3309,29.4683
			L906.3309,29.4683z M928.08,7.7192c-5.2602-5.2602-13.8189-5.26-19.0789,0c-5.2603,5.2603-5.2602,13.8192-0.0002,19.0792
			c5.2603,5.2603,13.8192,5.2603,19.0795,0C933.3403,21.5384,933.3403,12.9795,928.08,7.7192L928.08,7.7192z M929.0314,6.7678"/>
	</g>
</g>
</svg>
