<?xml version="1.0" encoding="utf-8"?>
<!-- Generator: Adobe Illustrator 21.0.2, SVG Export Plug-In . SVG Version: 6.00 Build 0)  -->
<svg version="1.1" id="Capa_1" xmlns="http://www.w3.org/2000/svg" xmlns:xlink="http://www.w3.org/1999/xlink" x="0px" y="0px"
	 viewBox="0 0 93.9404 21.2988" style="enable-background:new 0 0 93.9404 21.2988;" xml:space="preserve">
<g>
	<path style="fill:#C9452F;" d="M12.9346,21.0059V6.6064L12.8027,7.5L7.9248,21.0059H6.9287L2.0068,7.5L1.8896,6.6064v14.3994H0V0
		h0.9814l6.3721,17.2266l0.0586,0.7764l0.0586-0.7764L13.8281,0h0.9961v21.0059H12.9346z"/>
	<path style="fill:#C9452F;" d="M28.396,18.6035c-0.2295,0.5371-0.5444,1.0059-0.9448,1.4063s-0.8691,0.7148-1.4063,0.9443
		s-1.1084,0.3447-1.7139,0.3447h-1.2012c-0.6055,0-1.1768-0.1152-1.7139-0.3447s-1.0059-0.5439-1.4063-0.9443
		s-0.7153-0.8691-0.9448-1.4063s-0.3442-1.1084-0.3442-1.7139v-6.7676c0-0.6055,0.1147-1.1768,0.3442-1.7139
		s0.5444-1.0059,0.9448-1.4063s0.8691-0.7158,1.4063-0.9453s1.1084-0.3438,1.7139-0.3438h1.2012
		c0.6055,0,1.1768,0.1143,1.7139,0.3438s1.0059,0.5449,1.4063,0.9453s0.7153,0.8691,0.9448,1.4063s0.3442,1.1084,0.3442,1.7139
		v3.5303h-8.2178v3.3398c0,0.3613,0.0684,0.7002,0.2051,1.0176s0.3223,0.5938,0.5566,0.8281s0.5103,0.4199,0.8276,0.5566
		s0.6567,0.2051,1.0181,0.2051h1.2012c0.3613,0,0.7007-0.0684,1.0181-0.2051s0.5933-0.3223,0.8276-0.5566
		s0.4199-0.5107,0.5566-0.8281s0.2051-0.6563,0.2051-1.0176v-0.9961l1.8018,0.293v0.6006
		C28.7402,17.4951,28.6255,18.0664,28.396,18.6035z M26.9385,10.0195c0-0.3613-0.0684-0.7012-0.2051-1.0186
		s-0.3223-0.5928-0.5566-0.8271s-0.5103-0.4199-0.8276-0.5566s-0.6567-0.2051-1.0181-0.2051h-1.2012
		c-0.3613,0-0.7007,0.0684-1.0181,0.2051s-0.5933,0.3223-0.8276,0.5566s-0.4199,0.5098-0.5566,0.8271s-0.2051,0.6572-0.2051,1.0186
		v2.2266h6.416V10.0195z M22.9834,3.6035h-1.3477L24.0234,0h3.0029L22.9834,3.6035z"/>
	<path style="fill:#C9452F;" d="M37.8076,21.0059c-0.5469,0-1.062-0.1025-1.5454-0.3076s-0.9033-0.4883-1.2598-0.8496
		s-0.6396-0.7813-0.8496-1.2598s-0.3149-0.9912-0.3149-1.5381V7.7197h-2.6953V6.0059h2.6953V2.4023l1.8018-0.293v3.8965h3.8086
		v1.7139h-3.8086v9.4189c0,0.3027,0.0562,0.583,0.1685,0.8418s0.2661,0.4863,0.4614,0.6816s0.4248,0.3486,0.6885,0.4609
		s0.5469,0.1689,0.8496,0.1689h1.6406v1.7139H37.8076z"/>
	<path style="fill:#C9452F;" d="M52.4341,18.6035c-0.2295,0.5371-0.5444,1.0059-0.9448,1.4063s-0.8691,0.7148-1.4063,0.9443
		s-1.1084,0.3447-1.7139,0.3447H47.168c-0.6055,0-1.1768-0.1152-1.7139-0.3447s-1.0059-0.5439-1.4063-0.9443
		s-0.7153-0.8691-0.9448-1.4063s-0.3442-1.1084-0.3442-1.7139v-6.7676c0-0.6055,0.1147-1.1768,0.3442-1.7139
		s0.5444-1.0059,0.9448-1.4063s0.8691-0.7158,1.4063-0.9453s1.1084-0.3438,1.7139-0.3438h1.2012
		c0.6055,0,1.1768,0.1143,1.7139,0.3438s1.0059,0.5449,1.4063,0.9453s0.7153,0.8691,0.9448,1.4063s0.3442,1.1084,0.3442,1.7139
		v6.7676C52.7783,17.4951,52.6636,18.0664,52.4341,18.6035z M50.9766,10.0195c0-0.3613-0.0684-0.7012-0.2051-1.0186
		s-0.3223-0.5928-0.5566-0.8271s-0.5103-0.4199-0.8276-0.5566s-0.6567-0.2051-1.0181-0.2051H47.168
		c-0.3613,0-0.7007,0.0684-1.0181,0.2051s-0.5933,0.3223-0.8276,0.5566s-0.4199,0.5098-0.5566,0.8271s-0.2051,0.6572-0.2051,1.0186
		v6.9727c0,0.3613,0.0684,0.7002,0.2051,1.0176s0.3223,0.5938,0.5566,0.8281s0.5103,0.4199,0.8276,0.5566
		s0.6567,0.2051,1.0181,0.2051h1.2012c0.3613,0,0.7007-0.0684,1.0181-0.2051s0.5933-0.3223,0.8276-0.5566
		s0.4199-0.5107,0.5566-0.8281s0.2051-0.6563,0.2051-1.0176V10.0195z"/>
	<path style="fill:#C9452F;" d="M65.8008,21.0059l-0.9961-1.5234c-0.4102,0.5566-0.9229,0.998-1.5381,1.3252
		s-1.2891,0.4912-2.0215,0.4912H60.791c-0.6055,0-1.1768-0.1152-1.7139-0.3447s-1.0059-0.5439-1.4063-0.9443
		s-0.7153-0.8691-0.9448-1.4063s-0.3442-1.1084-0.3442-1.7139v-6.7676c0-0.6055,0.1147-1.1768,0.3442-1.7139
		s0.5444-1.0059,0.9448-1.4063s0.8691-0.7158,1.4063-0.9453s1.1084-0.3438,1.7139-0.3438h0.4541
		c0.6738,0,1.2988,0.1367,1.875,0.4102s1.0693,0.6543,1.4795,1.1426V0h1.8018v21.0059H65.8008z M64.5996,10.0195
		c0-0.3613-0.0684-0.7012-0.2051-1.0186s-0.3223-0.5928-0.5566-0.8271s-0.5103-0.4199-0.8276-0.5566s-0.6567-0.2051-1.0181-0.2051
		H60.791c-0.3613,0-0.7007,0.0684-1.0181,0.2051s-0.5933,0.3223-0.8276,0.5566s-0.4199,0.5098-0.5566,0.8271
		s-0.2051,0.6572-0.2051,1.0186v6.9727c0,0.3613,0.0684,0.7002,0.2051,1.0176s0.3223,0.5938,0.5566,0.8281
		s0.5103,0.4199,0.8276,0.5566s0.6567,0.2051,1.0181,0.2051h1.2012c0.3613,0,0.7007-0.0684,1.0181-0.2051
		s0.5933-0.3223,0.8276-0.5566s0.4199-0.5107,0.5566-0.8281s0.2051-0.6563,0.2051-1.0176V10.0195z"/>
	<path style="fill:#C9452F;" d="M79.6802,18.6035c-0.2295,0.5371-0.5444,1.0059-0.9448,1.4063s-0.8691,0.7148-1.4063,0.9443
		s-1.1084,0.3447-1.7139,0.3447h-1.2012c-0.6055,0-1.1768-0.1152-1.7139-0.3447s-1.0059-0.5439-1.4063-0.9443
		s-0.7153-0.8691-0.9448-1.4063s-0.3442-1.1084-0.3442-1.7139v-6.7676c0-0.6055,0.1147-1.1768,0.3442-1.7139
		s0.5444-1.0059,0.9448-1.4063s0.8691-0.7158,1.4063-0.9453s1.1084-0.3438,1.7139-0.3438h1.2012
		c0.6055,0,1.1768,0.1143,1.7139,0.3438s1.0059,0.5449,1.4063,0.9453s0.7153,0.8691,0.9448,1.4063s0.3442,1.1084,0.3442,1.7139
		v6.7676C80.0244,17.4951,79.9097,18.0664,79.6802,18.6035z M78.2227,10.0195c0-0.3613-0.0684-0.7012-0.2051-1.0186
		s-0.3223-0.5928-0.5566-0.8271s-0.5103-0.4199-0.8276-0.5566s-0.6567-0.2051-1.0181-0.2051h-1.2012
		c-0.3613,0-0.7007,0.0684-1.0181,0.2051s-0.5933,0.3223-0.8276,0.5566s-0.4199,0.5098-0.5566,0.8271s-0.2051,0.6572-0.2051,1.0186
		v6.9727c0,0.3613,0.0684,0.7002,0.2051,1.0176s0.3223,0.5938,0.5566,0.8281s0.5103,0.4199,0.8276,0.5566
		s0.6567,0.2051,1.0181,0.2051h1.2012c0.3613,0,0.7007-0.0684,1.0181-0.2051s0.5933-0.3223,0.8276-0.5566
		s0.4199-0.5107,0.5566-0.8281s0.2051-0.6563,0.2051-1.0176V10.0195z"/>
	<path style="fill:#C9452F;" d="M93.9404,17.1973c0,0.6055-0.1221,1.1592-0.3662,1.6621s-0.5762,0.9355-0.9961,1.2969
		s-0.9058,0.6416-1.4575,0.8418s-1.1304,0.3008-1.7358,0.3008h-1.2012c-0.6055,0-1.1841-0.1152-1.7358-0.3447
		s-1.0352-0.5439-1.4502-0.9443s-0.7471-0.8691-0.9961-1.4063s-0.3735-1.1084-0.3735-1.7139v-0.6006l1.8018-0.293v0.9961
		c0,0.3613,0.0757,0.7002,0.2271,1.0176s0.354,0.5938,0.6079,0.8281s0.5469,0.4199,0.8789,0.5566s0.6787,0.2051,1.04,0.2051h1.2012
		c0.3613,0,0.708-0.0537,1.04-0.1611s0.6274-0.2617,0.8862-0.4619s0.4639-0.4414,0.6152-0.7246s0.2271-0.6055,0.2271-0.9668
		c0-0.5371-0.1172-0.9766-0.3516-1.3184s-0.5444-0.6279-0.9302-0.8574s-0.8252-0.4199-1.3184-0.5713s-0.9985-0.3027-1.5161-0.4541
		s-1.0229-0.3242-1.5161-0.5195s-0.9326-0.4521-1.3184-0.7695s-0.6958-0.7148-0.9302-1.1934s-0.3516-1.0742-0.3516-1.7871
		c0-0.6055,0.1172-1.1602,0.3516-1.6631s0.5518-0.9346,0.9521-1.2959s0.8667-0.6426,1.3989-0.8428s1.1011-0.2998,1.7065-0.2998
		h1.0547c0.6055,0,1.1768,0.1143,1.7139,0.3438s1.0059,0.5449,1.4063,0.9453s0.7153,0.8691,0.9448,1.4063
		s0.3442,1.1084,0.3442,1.7139v0.0586l-1.8018,0.293v-0.4541c0-0.3613-0.0684-0.7012-0.2051-1.0186s-0.3223-0.5928-0.5566-0.8271
		s-0.5103-0.4199-0.8276-0.5566s-0.6567-0.2051-1.0181-0.2051h-1.0547c-0.3613,0-0.7007,0.0537-1.0181,0.1611
		s-0.5933,0.2607-0.8276,0.4609s-0.4199,0.4424-0.5566,0.7256s-0.2051,0.6055-0.2051,0.9668c0,0.5176,0.1172,0.9395,0.3516,1.2666
		s0.5444,0.6035,0.9302,0.8281s0.8252,0.4121,1.3184,0.5635s0.9961,0.3076,1.5088,0.4688s1.0156,0.3447,1.5088,0.5498
		s0.9326,0.4688,1.3184,0.791s0.6958,0.7246,0.9302,1.208S93.9404,16.4844,93.9404,17.1973z"/>
</g>
</svg>
