<?xml version="1.0" encoding="utf-8"?>
<!-- Generator: Adobe Illustrator 21.0.2, SVG Export Plug-In . SVG Version: 6.00 Build 0)  -->
<svg version="1.1" id="Capa_1" xmlns="http://www.w3.org/2000/svg" xmlns:xlink="http://www.w3.org/1999/xlink" x="0px" y="0px"
	 viewBox="0 0 350.8582 217.401" style="enable-background:new 0 0 350.8582 217.401;" xml:space="preserve">
<g>
	<g>
		<g>
			<path style="fill-rule:evenodd;clip-rule:evenodd;fill:#5ABBC4;" d="M54.2362,0h242.3857c4.9546,0,9.0077,4.053,9.0077,9.0077
				v153.1275c0,4.9549-4.053,9.0077-9.0077,9.0077H54.2362c-4.9549,0-9.0077-4.0528-9.0077-9.0077V9.0077
				C45.2285,4.053,49.2813,0,54.2362,0z"/>
			<rect x="58.7374" y="17.8693" style="fill-rule:evenodd;clip-rule:evenodd;fill:#EEEEEE;" width="233.3808" height="125.2862"/>
			<circle style="fill-rule:evenodd;clip-rule:evenodd;fill:#24575C;" cx="175.4283" cy="9.2533" r="3.2749"/>
			<rect x="169.8918" y="150.9563" style="fill-rule:evenodd;clip-rule:evenodd;fill:#24575C;" width="11.0745" height="11.0748"/>
			<polygon style="fill-rule:evenodd;clip-rule:evenodd;fill:#24575C;" points="45.2285,171.1428 305.6296,171.1428 
				350.8582,200.7877 0,200.7877 			"/>
			<path style="fill-rule:evenodd;clip-rule:evenodd;fill:#424242;" d="M0,200.7877h350.8582v10.1025
				c0,3.5812-2.9297,6.5109-6.5109,6.5109H6.5108C2.9297,217.401,0,214.4714,0,210.8902V200.7877z"/>
			<rect x="139.9912" y="209.3966" style="fill-rule:evenodd;clip-rule:evenodd;fill:#707070;" width="70.8728" height="4.5196"/>
			<rect y="200.7877" style="fill-rule:evenodd;clip-rule:evenodd;fill:#707070;" width="350.8582" height="5.0512"/>
		</g>
		<path style="fill:#FFA600;" d="M118.7337,132.0811h5.7393v-5.4449c4.4126-0.813,8.5046-2.5464,12.0649-4.9962l3.8497,3.8497
			l8.1216-8.1216l-3.8497-3.847c2.4498-3.563,4.1806-7.6524,4.9962-12.0649h5.4422V89.9722h-5.4422
			c-0.8156-4.4152-2.5464-8.5046-4.9962-12.0673l3.8497-3.8497l-8.1216-8.1189l-3.8497,3.8497
			c-3.5604-2.4501-7.6523-4.1833-12.0649-4.9965v-5.4446h-5.7393v13.144c12.8261,0.0024,23.2229,10.3992,23.2229,23.2227
			c0,12.8288-10.3968,23.2256-23.2229,23.2256V132.0811z M92.8055,113.521l-3.8497,3.847l8.1213,8.1216l3.8496-3.8497
			c3.5604,2.4498,7.6497,4.1833,12.0649,4.9962v5.4449h5.7419v-13.144h-0.0027c-12.8234,0-23.2203-10.3968-23.2203-23.2256
			c0-12.8234,10.3968-23.2227,23.2203-23.2227l0,0h0.0027v-13.144h-5.7419v5.4446c-4.4152,0.8132-8.5019,2.5464-12.0649,4.9965
			l-3.8496-3.8497l-8.1213,8.1213l3.8497,3.8497c-2.4501,3.5604-4.1806,7.6497-4.9965,12.0649h-5.4422v11.4839h5.4422
			C88.6249,105.8687,90.3554,109.958,92.8055,113.521z"/>
	</g>
	<path style="fill-rule:evenodd;clip-rule:evenodd;fill:#5ABBC4;" d="M251.0128,53.5455c9.0805,1.8584,15.873,8.7704,15.873,16.9544
		l0,0c0,8.4109-7.0399,17.098-16.6392,17.098H208.044c-10.277,0-18.1952-8.2337-18.1952-17.098l0,0
		c0-8.184,6.7922-15.096,15.873-16.9544c-0.0027-0.1641-0.008-0.3283-0.008-0.4951c0-10.5116,10.1441-19.0346,22.6523-19.0346
		c12.5107,0,22.6521,8.523,22.6521,19.0346C251.0181,53.2172,251.0154,53.3814,251.0128,53.5455z"/>
	<rect x="188.5848" y="97.734" style="fill-rule:evenodd;clip-rule:evenodd;fill:#707070;" width="75.9421" height="4.1729"/>
	<rect x="188.5848" y="106.0798" style="fill-rule:evenodd;clip-rule:evenodd;fill:#707070;" width="75.9421" height="4.1729"/>
	<rect x="188.5848" y="114.4253" style="fill-rule:evenodd;clip-rule:evenodd;fill:#707070;" width="75.9421" height="4.1729"/>
	<rect x="188.5848" y="122.771" style="fill-rule:evenodd;clip-rule:evenodd;fill:#707070;" width="35.8846" height="4.1729"/>
	<rect x="86.7716" y="32.6397" style="fill-rule:evenodd;clip-rule:evenodd;fill:#707070;" width="66.7626" height="4.1729"/>
	<rect x="86.7716" y="40.1512" style="fill-rule:evenodd;clip-rule:evenodd;fill:#707070;" width="66.7626" height="4.1729"/>
	<rect x="86.7716" y="47.6629" style="fill-rule:evenodd;clip-rule:evenodd;fill:#707070;" width="40.8916" height="4.1729"/>
</g>
</svg>
