<?xml version="1.0" encoding="utf-8"?>
<!-- Generator: Adobe Illustrator 21.0.2, SVG Export Plug-In . SVG Version: 6.00 Build 0)  -->
<svg version="1.1" id="Capa_1" xmlns="http://www.w3.org/2000/svg" xmlns:xlink="http://www.w3.org/1999/xlink" x="0px" y="0px"
	 viewBox="0 0 265 51.576" style="enable-background:new 0 0 265 51.576;" xml:space="preserve">
<g>
	<g id="XMLID_5490_">
		<polygon id="XMLID_5491_" style="fill:#A03628;" points="243.1899,0.5001 265,25.7881 243.1899,51.076 223.3365,51.076 
			245.1466,25.7881 223.3365,0.5001 198.1899,0.5001 		"/>
	</g>
	<g id="XMLID_5487_">
		<polygon id="XMLID_5488_" style="fill:#A03628;" points="21.8101,51.0759 0,25.7879 21.8101,0.5 41.6635,0.5 19.8534,25.7879 
			41.6635,51.0759 21.8101,51.0759 		"/>
	</g>
	<polygon id="XMLID_5485_" style="fill:#C9452F;stroke:#C9452F;stroke-miterlimit:10;" points="47.671,0.5 217.329,0.5001 
		239.1391,25.7881 217.329,51.076 47.671,51.0759 25.8609,25.7879 	"/>
	<g>
		<g>
			<path style="fill:#FFFFFF;" d="M97.3453,26.8446l2.9463,0.9341c-0.4512,1.6426-1.2021,2.8628-2.2529,3.6597
				c-1.0508,0.7974-2.3838,1.1963-3.998,1.1963c-1.999,0-3.6416-0.6826-4.9277-2.0483c-1.2871-1.3652-1.9297-3.2319-1.9297-5.5996
				c0-2.5049,0.6465-4.4502,1.9395-5.8359c1.2939-1.3857,2.9941-2.0786,5.1025-2.0786c1.8408,0,3.3359,0.5439,4.4854,1.6318
				c0.6846,0.6436,1.1982,1.5674,1.54,2.772l-3.0078,0.7183c-0.1777-0.7798-0.5488-1.396-1.1133-1.8477s-1.251-0.6772-2.0586-0.6772
				c-1.1152,0-2.0205,0.4004-2.7148,1.2007c-0.6953,0.8008-1.042,2.0977-1.042,3.8906c0,1.9028,0.3418,3.2578,1.0264,4.0654
				s1.5742,1.2114,2.6689,1.2114c0.8076,0,1.502-0.2568,2.084-0.77S97.0924,27.9467,97.3453,26.8446z"/>
			<path style="fill:#FFFFFF;" d="M102.2115,26.7728c0-0.958,0.2363-1.8853,0.708-2.7817c0.4727-0.8965,1.1416-1.5811,2.0068-2.0532
				c0.8662-0.4722,1.833-0.7085,2.9004-0.7085c1.6494,0,3.001,0.5356,4.0547,1.6064c1.0537,1.0713,1.5811,2.4248,1.5811,4.0601
				c0,1.6494-0.5322,3.0166-1.5967,4.1011c-1.0635,1.085-2.4033,1.6274-4.0186,1.6274c-0.999,0-1.9521-0.2261-2.8594-0.6777
				c-0.9063-0.4517-1.5957-1.1138-2.0684-1.9863C102.4479,29.0878,102.2115,28.0253,102.2115,26.7728z M105.1676,26.9266
				c0,1.0815,0.2568,1.9097,0.7705,2.4844c0.5127,0.5747,1.1455,0.8623,1.8984,0.8623s1.3848-0.2876,1.8945-0.8623
				s0.7646-1.4097,0.7646-2.5049c0-1.0674-0.2549-1.8887-0.7646-2.4634c-0.5098-0.5752-1.1416-0.8623-1.8945-0.8623
				s-1.3857,0.2871-1.8984,0.8623C105.4244,25.0175,105.1676,25.8456,105.1676,26.9266z"/>
			<path style="fill:#FFFFFF;" d="M125.6373,32.3778h-2.8848v-5.564c0-1.1768-0.0615-1.9385-0.1846-2.2842
				c-0.123-0.3452-0.3232-0.6138-0.6006-0.8057c-0.2773-0.1914-0.6113-0.2876-1.001-0.2876c-0.5,0-0.9482,0.1372-1.3447,0.4106
				c-0.3975,0.2739-0.6689,0.6367-0.8164,1.0884s-0.2207,1.2866-0.2207,2.5049v4.9375h-2.8848V21.476h2.6797v1.6016
				c0.9512-1.2319,2.1484-1.8481,3.5928-1.8481c0.6367,0,1.2178,0.1147,1.7451,0.3442c0.5273,0.229,0.9258,0.5215,1.1963,0.8774
				c0.2695,0.356,0.458,0.7598,0.5645,1.2114c0.1055,0.4517,0.1592,1.0981,0.1592,1.9399V32.3778z"/>
			<path style="fill:#FFFFFF;" d="M127.5475,29.2675l2.8945-0.4414c0.123,0.561,0.373,0.9873,0.749,1.2778
				c0.377,0.291,0.9033,0.4365,1.5811,0.4365c0.7461,0,1.3076-0.1367,1.6836-0.4106c0.2529-0.1914,0.3799-0.4482,0.3799-0.77
				c0-0.2188-0.0684-0.4004-0.2051-0.5439c-0.1436-0.1367-0.4658-0.2637-0.9648-0.3799c-2.3271-0.5132-3.8018-0.9819-4.4248-1.4063
				c-0.8623-0.5889-1.293-1.4067-1.293-2.4536c0-0.9443,0.3721-1.7383,1.1182-2.3818c0.7461-0.6431,1.9023-0.9648,3.4697-0.9648
				c1.4922,0,2.6006,0.2432,3.3262,0.729s1.2256,1.2046,1.499,2.1558l-2.7207,0.5029c-0.1162-0.4243-0.3369-0.7495-0.6621-0.9751
				c-0.3252-0.2261-0.7891-0.3389-1.3906-0.3389c-0.7598,0-1.3037,0.106-1.6318,0.3184c-0.2197,0.1504-0.3291,0.3457-0.3291,0.585
				c0,0.2056,0.0957,0.3799,0.2871,0.5234c0.2607,0.1919,1.1582,0.4619,2.6953,0.811c1.5361,0.3491,2.6084,0.7769,3.2178,1.2832
				c0.6025,0.5132,0.9033,1.2285,0.9033,2.1455c0,0.9995-0.417,1.8579-1.252,2.5767s-2.0703,1.0781-3.7061,1.0781
				c-1.4854,0-2.6602-0.3013-3.5264-0.9038C128.3805,31.1185,127.8141,30.3007,127.5475,29.2675z"/>
			<path style="fill:#FFFFFF;" d="M146.569,28.9081l2.874,0.4824c-0.3691,1.0542-0.9531,1.8564-1.75,2.4072
				c-0.7969,0.5513-1.7949,0.8267-2.9922,0.8267c-1.8955,0-3.2988-0.6196-4.209-1.8584c-0.7188-0.9922-1.0781-2.2446-1.0781-3.7568
				c0-1.8071,0.4727-3.2217,1.417-4.2451c0.9443-1.0229,2.1387-1.5347,3.583-1.5347c1.6211,0,2.9014,0.5356,3.8389,1.6064
				c0.9375,1.0713,1.3857,2.7119,1.3447,4.9224h-7.2266c0.0205,0.856,0.2529,1.521,0.6973,1.9966
				c0.4453,0.4761,1,0.7139,1.6631,0.7139c0.4521,0,0.832-0.1235,1.1396-0.3696C146.1793,29.8524,146.4117,29.4554,146.569,28.9081z
				 M146.733,25.9926c-0.0205-0.835-0.2363-1.4692-0.6465-1.9043c-0.4102-0.4346-0.9102-0.6519-1.499-0.6519
				c-0.6299,0-1.1494,0.2295-1.5605,0.688c-0.4102,0.4585-0.6123,1.0815-0.6055,1.8682H146.733z"/>
			<path style="fill:#FFFFFF;" d="M154.7711,21.476v10.563c0,1.3892-0.0908,2.3696-0.2725,2.9414
				c-0.1807,0.5713-0.5303,1.0176-1.0469,1.3394s-1.1748,0.4824-1.9756,0.4824c-0.2881,0-0.5977-0.0254-0.9297-0.0767
				c-0.3311-0.0518-0.6895-0.1284-1.0723-0.231l0.5029-2.4639c0.1367,0.0273,0.2656,0.0493,0.3848,0.0664
				c0.1201,0.0171,0.2314,0.0259,0.334,0.0259c0.2939,0,0.5352-0.0635,0.7236-0.1899s0.3125-0.2788,0.375-0.4565
				c0.0615-0.1782,0.0918-0.7119,0.0918-1.6016V21.476H154.7711z M151.8863,19.9974v-2.6689h2.8848v2.6689H151.8863z"/>
			<path style="fill:#FFFFFF;" d="M157.1217,26.7728c0-0.958,0.2363-1.8853,0.708-2.7817c0.4727-0.8965,1.1416-1.5811,2.0068-2.0532
				c0.8662-0.4722,1.833-0.7085,2.9004-0.7085c1.6494,0,3.001,0.5356,4.0547,1.6064c1.0537,1.0713,1.5811,2.4248,1.5811,4.0601
				c0,1.6494-0.5322,3.0166-1.5967,4.1011c-1.0635,1.085-2.4033,1.6274-4.0186,1.6274c-0.999,0-1.9521-0.2261-2.8594-0.6777
				c-0.9063-0.4517-1.5957-1.1138-2.0684-1.9863C157.358,29.0878,157.1217,28.0253,157.1217,26.7728z M160.0777,26.9266
				c0,1.0815,0.2568,1.9097,0.7705,2.4844c0.5127,0.5747,1.1455,0.8623,1.8984,0.8623s1.3848-0.2876,1.8945-0.8623
				s0.7646-1.4097,0.7646-2.5049c0-1.0674-0.2549-1.8887-0.7646-2.4634c-0.5098-0.5752-1.1416-0.8623-1.8945-0.8623
				s-1.3857,0.2871-1.8984,0.8623C160.3346,25.0175,160.0777,25.8456,160.0777,26.9266z"/>
			<path style="fill:#FFFFFF;" d="M169.6149,29.2675l2.8945-0.4414c0.123,0.561,0.373,0.9873,0.749,1.2778
				c0.377,0.291,0.9033,0.4365,1.5811,0.4365c0.7461,0,1.3076-0.1367,1.6836-0.4106c0.2529-0.1914,0.3799-0.4482,0.3799-0.77
				c0-0.2188-0.0684-0.4004-0.2051-0.5439c-0.1436-0.1367-0.4658-0.2637-0.9648-0.3799c-2.3271-0.5132-3.8018-0.9819-4.4248-1.4063
				c-0.8623-0.5889-1.293-1.4067-1.293-2.4536c0-0.9443,0.3721-1.7383,1.1182-2.3818c0.7461-0.6431,1.9023-0.9648,3.4697-0.9648
				c1.4922,0,2.6006,0.2432,3.3262,0.729s1.2256,1.2046,1.499,2.1558l-2.7207,0.5029c-0.1162-0.4243-0.3369-0.7495-0.6621-0.9751
				c-0.3252-0.2261-0.7891-0.3389-1.3906-0.3389c-0.7598,0-1.3037,0.106-1.6318,0.3184c-0.2197,0.1504-0.3291,0.3457-0.3291,0.585
				c0,0.2056,0.0957,0.3799,0.2871,0.5234c0.2607,0.1919,1.1582,0.4619,2.6953,0.811c1.5361,0.3491,2.6084,0.7769,3.2178,1.2832
				c0.6025,0.5132,0.9033,1.2285,0.9033,2.1455c0,0.9995-0.417,1.8579-1.252,2.5767s-2.0703,1.0781-3.7061,1.0781
				c-1.4854,0-2.6602-0.3013-3.5264-0.9038C170.4479,31.1185,169.8815,30.3007,169.6149,29.2675z"/>
		</g>
	</g>
</g>
</svg>
