<?xml version="1.0" encoding="utf-8"?>
<!-- Generator: Adobe Illustrator 21.0.2, SVG Export Plug-In . SVG Version: 6.00 Build 0)  -->
<svg version="1.1" id="Capa_1" xmlns="http://www.w3.org/2000/svg" xmlns:xlink="http://www.w3.org/1999/xlink" x="0px" y="0px"
	 viewBox="0 0 80.3321 16.7134" style="enable-background:new 0 0 80.3321 16.7134;" xml:space="preserve">
<g>
	<path style="fill:#FFFFFF;" d="M76.9314,16.7134H3.4007C1.5226,16.7134,0,15.1909,0,13.3127v-9.912C0,1.5226,1.5226,0,3.4007,0
		l73.5306,0c1.8782,0,3.4007,1.5226,3.4007,3.4007v9.912C80.3321,15.1909,78.8095,16.7134,76.9314,16.7134z"/>
	<g>
		<path style="fill:#348EA9;" d="M4.8735,3.1564c0.6127,0,1.1091-0.497,1.1091-1.1085c0-0.6114-0.4964-1.1075-1.1091-1.1075
			c-0.6112,0-1.1067,0.4961-1.1067,1.1075C3.7668,2.6595,4.2623,3.1564,4.8735,3.1564z M7.4054,4.5791
			c0-0.5585-0.4528-1.0106-1.0106-1.0106H3.2816c-0.5569,0-1.0095,0.4521-1.0095,1.0106l0.0031,4.0787
			c0,0.2439,0.1974,0.4416,0.4407,0.4416c0.2433,0,0.4407-0.1977,0.4407-0.4416V4.9299h0.1866v9.9706
			c0,0.365,0.296,0.6608,0.6621,0.6608c0.3637,0,0.6596-0.2958,0.6596-0.6608V9.441h0.3614v5.4579
			c0,0.3659,0.296,0.6624,0.6621,0.6624c0.3639,0,0.6599-0.2965,0.6599-0.6624v-9.969h0.1778v3.713
			c0,0.2442,0.1973,0.4423,0.4412,0.4423c0.2442,0,0.4416-0.198,0.4416-0.4423L7.4054,4.5791z"/>
	</g>
	<g>
		<path style="fill:#53BB9B;" d="M11.2533,3.1564c0.6128,0,1.1093-0.497,1.1093-1.1085c0-0.6114-0.4964-1.1075-1.1093-1.1075
			c-0.611,0-1.1065,0.4961-1.1065,1.1075C10.1468,2.6595,10.6423,3.1564,11.2533,3.1564z M13.7854,4.5791
			c0-0.5585-0.4528-1.0106-1.0106-1.0106H9.6616c-0.5569,0-1.0097,0.4521-1.0097,1.0106l0.0033,4.0787
			c0,0.2439,0.1973,0.4416,0.4406,0.4416c0.2433,0,0.4407-0.1977,0.4407-0.4416V4.9299h0.1866v9.9706
			c0,0.365,0.296,0.6608,0.6621,0.6608c0.3637,0,0.6595-0.2958,0.6595-0.6608V9.441h0.3614v5.4579
			c0,0.3659,0.296,0.6624,0.6621,0.6624c0.3639,0,0.6599-0.2965,0.6599-0.6624v-9.969h0.1778v3.713
			c0,0.2442,0.1973,0.4423,0.4412,0.4423c0.2442,0,0.4416-0.198,0.4416-0.4423L13.7854,4.5791z"/>
	</g>
	<g>
		<path style="fill:#348EA9;" d="M17.6235,3.1564c0.6127,0,1.1091-0.497,1.1091-1.1085c0-0.6114-0.4964-1.1075-1.1091-1.1075
			c-0.6112,0-1.1067,0.4961-1.1067,1.1075C16.5168,2.6595,17.0123,3.1564,17.6235,3.1564z M20.1554,4.5791
			c0-0.5585-0.4528-1.0106-1.0106-1.0106h-3.1132c-0.5569,0-1.0095,0.4521-1.0095,1.0106l0.0031,4.0787
			c0,0.2439,0.1974,0.4416,0.4407,0.4416c0.2433,0,0.4407-0.1977,0.4407-0.4416V4.9299h0.1867v9.9706
			c0,0.365,0.296,0.6608,0.6621,0.6608c0.3637,0,0.6596-0.2958,0.6596-0.6608V9.441h0.3614v5.4579
			c0,0.3659,0.296,0.6624,0.6621,0.6624c0.3639,0,0.6599-0.2965,0.6599-0.6624v-9.969h0.1778v3.713
			c0,0.2442,0.1973,0.4423,0.4412,0.4423c0.2442,0,0.4416-0.198,0.4416-0.4423L20.1554,4.5791z"/>
	</g>
	<g>
		<path style="fill:#53BB9B;" d="M24.0033,3.1564c0.6128,0,1.1093-0.497,1.1093-1.1085c0-0.6114-0.4964-1.1075-1.1093-1.1075
			c-0.611,0-1.1065,0.4961-1.1065,1.1075C22.8968,2.6595,23.3923,3.1564,24.0033,3.1564z M26.5354,4.5791
			c0-0.5585-0.4528-1.0106-1.0106-1.0106h-3.1132c-0.5569,0-1.0097,0.4521-1.0097,1.0106l0.0033,4.0787
			c0,0.2439,0.1973,0.4416,0.4406,0.4416c0.2433,0,0.4407-0.1977,0.4407-0.4416V4.9299h0.1866v9.9706
			c0,0.365,0.296,0.6608,0.6621,0.6608c0.3637,0,0.6595-0.2958,0.6595-0.6608V9.441h0.3614v5.4579
			c0,0.3659,0.296,0.6624,0.6621,0.6624c0.3639,0,0.6599-0.2965,0.6599-0.6624v-9.969h0.1778v3.713
			c0,0.2442,0.1973,0.4423,0.4412,0.4423c0.2442,0,0.4416-0.198,0.4416-0.4423L26.5354,4.5791z"/>
	</g>
	<g>
		<path style="fill:#348EA9;" d="M30.3735,3.1564c0.6127,0,1.1091-0.497,1.1091-1.1085c0-0.6114-0.4964-1.1075-1.1091-1.1075
			c-0.6112,0-1.1067,0.4961-1.1067,1.1075C29.2668,2.6595,29.7623,3.1564,30.3735,3.1564z M32.9054,4.5791
			c0-0.5585-0.4528-1.0106-1.0106-1.0106h-3.1132c-0.5569,0-1.0095,0.4521-1.0095,1.0106l0.0031,4.0787
			c0,0.2439,0.1974,0.4416,0.4407,0.4416c0.2433,0,0.4407-0.1977,0.4407-0.4416V4.9299h0.1866v9.9706
			c0,0.365,0.296,0.6608,0.6621,0.6608c0.3637,0,0.6596-0.2958,0.6596-0.6608V9.441h0.3614v5.4579
			c0,0.3659,0.296,0.6624,0.6621,0.6624c0.3639,0,0.6599-0.2965,0.6599-0.6624v-9.969h0.1778v3.713
			c0,0.2442,0.1973,0.4423,0.4412,0.4423c0.2442,0,0.4416-0.198,0.4416-0.4423L32.9054,4.5791z"/>
	</g>
	<g>
		<path style="fill:#53BB9B;" d="M36.7533,3.1564c0.6128,0,1.1093-0.497,1.1093-1.1085c0-0.6114-0.4964-1.1075-1.1093-1.1075
			c-0.611,0-1.1065,0.4961-1.1065,1.1075C35.6468,2.6595,36.1423,3.1564,36.7533,3.1564z M39.2854,4.5791
			c0-0.5585-0.4528-1.0106-1.0106-1.0106h-3.1132c-0.5569,0-1.0097,0.4521-1.0097,1.0106l0.0033,4.0787
			c0,0.2439,0.1973,0.4416,0.4406,0.4416c0.2433,0,0.4407-0.1977,0.4407-0.4416V4.9299h0.1866v9.9706
			c0,0.365,0.296,0.6608,0.6621,0.6608c0.3637,0,0.6595-0.2958,0.6595-0.6608V9.441h0.3614v5.4579
			c0,0.3659,0.296,0.6624,0.6621,0.6624c0.3639,0,0.6599-0.2965,0.6599-0.6624v-9.969h0.1778v3.713
			c0,0.2442,0.1973,0.4423,0.4412,0.4423c0.2442,0,0.4416-0.198,0.4416-0.4423L39.2854,4.5791z"/>
	</g>
	<g>
		<path style="fill:#348EA9;" d="M43.1235,3.1564c0.6127,0,1.1091-0.497,1.1091-1.1085c0-0.6114-0.4964-1.1075-1.1091-1.1075
			c-0.6112,0-1.1067,0.4961-1.1067,1.1075C42.0168,2.6595,42.5123,3.1564,43.1235,3.1564z M45.6554,4.5791
			c0-0.5585-0.4528-1.0106-1.0106-1.0106h-3.1132c-0.5569,0-1.0095,0.4521-1.0095,1.0106l0.0031,4.0787
			c0,0.2439,0.1974,0.4416,0.4407,0.4416c0.2433,0,0.4407-0.1977,0.4407-0.4416V4.9299h0.1866v9.9706
			c0,0.365,0.296,0.6608,0.6621,0.6608c0.3637,0,0.6596-0.2958,0.6596-0.6608V9.441h0.3614v5.4579
			c0,0.3659,0.296,0.6624,0.6621,0.6624c0.3639,0,0.6599-0.2965,0.6599-0.6624v-9.969h0.1778v3.713
			c0,0.2442,0.1973,0.4423,0.4412,0.4423c0.2442,0,0.4416-0.198,0.4416-0.4423L45.6554,4.5791z"/>
	</g>
	<g>
		<path style="fill:#53BB9B;" d="M49.5033,3.1564c0.6128,0,1.1093-0.497,1.1093-1.1085c0-0.6114-0.4964-1.1075-1.1093-1.1075
			c-0.611,0-1.1065,0.4961-1.1065,1.1075C48.3968,2.6595,48.8923,3.1564,49.5033,3.1564z M52.0354,4.5791
			c0-0.5585-0.4528-1.0106-1.0106-1.0106h-3.1132c-0.5569,0-1.0097,0.4521-1.0097,1.0106l0.0033,4.0787
			c0,0.2439,0.1973,0.4416,0.4406,0.4416c0.2433,0,0.4407-0.1977,0.4407-0.4416V4.9299h0.1866v9.9706
			c0,0.365,0.296,0.6608,0.6621,0.6608c0.3637,0,0.6595-0.2958,0.6595-0.6608V9.441h0.3614v5.4579
			c0,0.3659,0.296,0.6624,0.6621,0.6624c0.3639,0,0.6599-0.2965,0.6599-0.6624v-9.969h0.1778v3.713
			c0,0.2442,0.1973,0.4423,0.4412,0.4423c0.2442,0,0.4416-0.198,0.4416-0.4423L52.0354,4.5791z"/>
	</g>
	<g>
		<path style="fill:#348EA9;" d="M55.8735,3.1564c0.6127,0,1.1091-0.497,1.1091-1.1085c0-0.6114-0.4964-1.1075-1.1091-1.1075
			c-0.6112,0-1.1067,0.4961-1.1067,1.1075C54.7668,2.6595,55.2623,3.1564,55.8735,3.1564z M58.4054,4.5791
			c0-0.5585-0.4528-1.0106-1.0106-1.0106h-3.1132c-0.5569,0-1.0095,0.4521-1.0095,1.0106l0.0031,4.0787
			c0,0.2439,0.1974,0.4416,0.4407,0.4416c0.2433,0,0.4407-0.1977,0.4407-0.4416V4.9299h0.1866v9.9706
			c0,0.365,0.296,0.6608,0.6621,0.6608c0.3637,0,0.6596-0.2958,0.6596-0.6608V9.441h0.3614v5.4579
			c0,0.3659,0.296,0.6624,0.6621,0.6624c0.3639,0,0.6599-0.2965,0.6599-0.6624v-9.969h0.1778v3.713
			c0,0.2442,0.1973,0.4423,0.4412,0.4423c0.2442,0,0.4416-0.198,0.4416-0.4423L58.4054,4.5791z"/>
	</g>
	<g>
		<path style="fill:#53BB9B;" d="M62.2533,3.1564c0.6128,0,1.1093-0.497,1.1093-1.1085c0-0.6114-0.4964-1.1075-1.1093-1.1075
			c-0.611,0-1.1065,0.4961-1.1065,1.1075C61.1468,2.6595,61.6423,3.1564,62.2533,3.1564z M64.7854,4.5791
			c0-0.5585-0.4528-1.0106-1.0106-1.0106h-3.1132c-0.5569,0-1.0097,0.4521-1.0097,1.0106l0.0033,4.0787
			c0,0.2439,0.1973,0.4416,0.4406,0.4416c0.2433,0,0.4407-0.1977,0.4407-0.4416V4.9299h0.1866v9.9706
			c0,0.365,0.296,0.6608,0.6621,0.6608c0.3637,0,0.6595-0.2958,0.6595-0.6608V9.441h0.3614v5.4579
			c0,0.3659,0.296,0.6624,0.6621,0.6624c0.3639,0,0.6599-0.2965,0.6599-0.6624v-9.969h0.1778v3.713
			c0,0.2442,0.1973,0.4423,0.4412,0.4423c0.2442,0,0.4416-0.198,0.4416-0.4423L64.7854,4.5791z"/>
	</g>
	<g>
		<path style="fill:#348EA9;" d="M68.6235,3.1564c0.6127,0,1.1091-0.497,1.1091-1.1085c0-0.6114-0.4964-1.1075-1.1091-1.1075
			c-0.6112,0-1.1067,0.4961-1.1067,1.1075C67.5168,2.6595,68.0123,3.1564,68.6235,3.1564z M71.1554,4.5791
			c0-0.5585-0.4528-1.0106-1.0106-1.0106h-3.1132c-0.5569,0-1.0095,0.4521-1.0095,1.0106l0.0031,4.0787
			c0,0.2439,0.1974,0.4416,0.4407,0.4416c0.2433,0,0.4407-0.1977,0.4407-0.4416V4.9299h0.1866v9.9706
			c0,0.365,0.296,0.6608,0.6621,0.6608c0.3637,0,0.6596-0.2958,0.6596-0.6608V9.441h0.3614v5.4579
			c0,0.3659,0.296,0.6624,0.6621,0.6624c0.3639,0,0.6599-0.2965,0.6599-0.6624v-9.969h0.1778v3.713
			c0,0.2442,0.1973,0.4423,0.4412,0.4423c0.2442,0,0.4416-0.198,0.4416-0.4423L71.1554,4.5791z"/>
	</g>
	<g>
		<path style="fill:#53BB9B;" d="M75.0033,3.1564c0.6128,0,1.1093-0.497,1.1093-1.1085c0-0.6114-0.4964-1.1075-1.1093-1.1075
			c-0.611,0-1.1066,0.4961-1.1066,1.1075C73.8968,2.6595,74.3923,3.1564,75.0033,3.1564z M77.5354,4.5791
			c0-0.5585-0.4528-1.0106-1.0106-1.0106h-3.1132c-0.5569,0-1.0097,0.4521-1.0097,1.0106l0.0033,4.0787
			c0,0.2439,0.1973,0.4416,0.4406,0.4416c0.2433,0,0.4407-0.1977,0.4407-0.4416V4.9299h0.1866v9.9706
			c0,0.365,0.296,0.6608,0.6621,0.6608c0.3637,0,0.6595-0.2958,0.6595-0.6608V9.441h0.3614v5.4579
			c0,0.3659,0.296,0.6624,0.6621,0.6624c0.3639,0,0.6599-0.2965,0.6599-0.6624v-9.969h0.1778v3.713
			c0,0.2442,0.1973,0.4423,0.4412,0.4423c0.2442,0,0.4416-0.198,0.4416-0.4423L77.5354,4.5791z"/>
	</g>
</g>
</svg>
