<?xml version="1.0" encoding="utf-8"?>
<!-- Generator: Adobe Illustrator 21.0.2, SVG Export Plug-In . SVG Version: 6.00 Build 0)  -->
<svg version="1.1" id="Capa_1" xmlns="http://www.w3.org/2000/svg" xmlns:xlink="http://www.w3.org/1999/xlink" x="0px" y="0px"
	 viewBox="0 0 228.9858 149.4971" style="enable-background:new 0 0 228.9858 149.4971;" xml:space="preserve">
<g>
	<path style="fill-rule:evenodd;clip-rule:evenodd;fill:#4981C2;" d="M69.5798,85.4005l-1.2392-0.0313
		c-1.8651-0.0489-3.4304,1.4388-3.478,3.304l-0.1062,4.1735c-0.048,1.8652,1.4397,3.4305,3.3048,3.4793l1.2392,0.0317
		c1.865,0.0472,3.4305-1.4401,3.478-3.3056l0.1066-4.1735C72.9326,87.0131,71.4457,85.4481,69.5798,85.4005z"/>
	<polygon style="fill-rule:evenodd;clip-rule:evenodd;fill:#1A1A1B;" points="45.4058,108.6668 12.2862,108.6668 12.2862,123.9563 
		184.3871,123.9563 184.3871,108.6668 	"/>
	<path style="fill-rule:evenodd;clip-rule:evenodd;fill:#EC1C24;" d="M174.2141,46.2245H19.6388
		c-6.556,0-11.8711,7.2728-11.8711,16.2439V89.215h178.3181V62.4684C186.0858,53.4973,180.7711,46.2245,174.2141,46.2245z"/>
	<path style="fill-rule:evenodd;clip-rule:evenodd;fill:#C82027;" d="M85.7477,46.2244H25.1612
		c0.0903,3.9972,0.2252,10.0446,0.2252,10.5178c0,0.7113-1.6259,2.5404-2.3372,5.1824c-0.7113,2.642,2.9469,4.9797,2.9469,4.9797
		s-4.7759,6.605-6.0969,10.568c-1.321,3.963-0.1016,11.0939-0.1016,11.0939s0.228,0.1216,0.4867,0.6488h55.8765
		c0.218-0.361,0.3384-0.5879,0.3384-0.6488c0-0.6488-21.2377-11.7037-21.2377-11.7037l1.7275-6.1985c0,0,12.6003,0.2032,14.6327,0
		C73.1815,70.508,81.5667,54.4261,85.7477,46.2244z"/>
	<path style="fill-rule:evenodd;clip-rule:evenodd;fill:#C82027;" d="M174.2142,46.2244h-70.9673
		c6.0146,6.0695,22.6758,22.7598,24.6697,23.4245c2.4388,0.813,7.3163-0.4064,7.3163-0.4064l-2.8452,11.0762l1.0161,8.2476
		l1.6912,0.6488h48.6136c0.7082-1.6153,1.5128-3.4579,2.3771-5.4508V62.4685C186.0858,53.4973,180.771,46.2244,174.2142,46.2244z"/>
	<polygon style="fill-rule:evenodd;clip-rule:evenodd;fill:#404041;" points="60.1536,108.6668 88.7474,108.6668 180.7716,108.6668 
		180.7716,88.5662 60.1536,88.5662 60.1536,88.9279 57.9292,88.5662 13.0821,88.5662 13.0821,108.6668 	"/>
	<path style="fill-rule:evenodd;clip-rule:evenodd;fill:#39383A;" d="M60.1535,108.6668h2.7068c0,0,13.6387-19.4519,13.6387-20.1006
		H60.1535v0.3617l-2.2243-0.3617H19.7975c0,0,1.2194,0.6488,1.2194,5.4694c0,4.8208,14.4294,6.7067,14.4294,6.7067l-2.2355,7.9245
		H60.1535z"/>
	<polygon style="fill-rule:evenodd;clip-rule:evenodd;fill:#39383A;" points="144.0596,108.6668 168.9217,108.6668 180.7716,95.866 
		180.7716,88.5662 133.4039,88.5662 147.1354,93.8337 	"/>
	<path style="fill-rule:evenodd;clip-rule:evenodd;fill:#231F20;" d="M187.3536,66.5807h-4.3899
		c-3.7159,0-6.7279,2.3012-6.7279,5.1419v61.1757h17.8457V71.7225C194.0815,68.8818,191.0694,66.5807,187.3536,66.5807z"/>
	<path style="fill-rule:evenodd;clip-rule:evenodd;fill:#69727D;" d="M172.5594,87.1928h-21.5427l0.0273-1.1807
		c0,0-0.4319-1.4649-1.6126-2.9526l23.1825,2.6658L172.5594,87.1928z"/>
	<path style="fill-rule:evenodd;clip-rule:evenodd;fill:#1A1A1B;" d="M53.4905,37.1814c-2.2629-0.2196-6.3298,3.404-6.3615,6.9647
		c-0.031,3.561,3.9551,21.9672,4.8868,22.692c0.9314,0.7243,3.9905,1.201,4.6591-0.3286
		c0.6682-1.5308-0.2103-17.4867-0.7182-20.4161C55.4492,43.1635,56.439,37.4669,53.4905,37.1814z"/>
	<path style="fill-rule:evenodd;clip-rule:evenodd;fill:#F79E78;" d="M54.9438,60.2806c-0.8815,0.7629-4.384,4.4329-0.8702,5.9919
		c2.0402,0.9058,6.5772-2.6294,9.5644-5.4701c2.9881-2.8388,11.7183-11.5588,11.7183-11.5588l-2.4262-2.7374
		C72.9301,46.5062,55.8264,59.5159,54.9438,60.2806z"/>
	<path style="fill-rule:evenodd;clip-rule:evenodd;fill:#F79E78;" d="M43.4637,122.5258c-1.1536,1.0781-2.3283,1.4343-3.1789,1.7916
		c-1.1047,0.4657-2.1644,1.9022-2.086,2.5951c0.2164,1.9047,1.7741,2.5773,2.3826,4.4699c0.6087,1.8908,0.0827,6.4322,0.9562,7.616
		c0.8728,1.1825,3.4768,3.1705,4.0824,2.7793c0.6056-0.392-0.3881-4.4946-0.3881-4.4946
		c0.1926-8.1109,1.7166-10.7378,1.7166-10.7378c4.2958-6.3719,18.904-20.9391,20.3683-22.3549
		c1.465-1.4162,7.2937-7.5942,8.246-10.4315c3.0428-6.3358-28.2491-15.3942-33.5873-16.5859
		c-1.6133-0.3596-11.4566,5.409-9.9759,14.9855c0.3417,2.208,13.1127,3.4074,21.6261,3.1974
		c1.501-0.0374,5.7265,0.9883,7.3385,1.0023C54.3687,103.2167,47.9466,114.0746,43.4637,122.5258z"/>
	<path style="fill-rule:evenodd;clip-rule:evenodd;fill:#000001;" d="M45.3442,139.3321c-0.4513,0.1508-1.6298-0.9309-1.8244-1.3426
		c-1.7509-3.6992-3.0535-9.8326-3.0463-11.4178c0.0072-1.6479,0.8446-2.8238,0.8446-2.8238
		c-0.269-0.1769-2.7117,0.6189-3.5054,2.0235c-0.1316,0.2526-0.3274,0.8796-0.3851,1.2331
		c-0.3205,0.8567-0.7011,1.8603-0.9038,2.3455c-0.5928,1.4223-2.4317,4.0332-2.4317,4.0332l0.5694,0.377
		c0,0,3.2608-5.0763,4.6242-1.771c0.7116,1.9666,0.0412,6.6044,1.03,7.8255c0.9883,1.2199,5.2303,4.3314,5.8909,3.9093
		c0.5184-0.3303-0.2119-3.8547-0.809-5.8051C45.3977,137.9189,45.658,139.2277,45.3442,139.3321z"/>
	<path style="fill-rule:evenodd;clip-rule:evenodd;fill:#E3AA85;" d="M53.183,39.1721c-0.808-1.5051-5.7559-5.1951-5.7286-5.871
		c0.0264-0.6764-5.4282-0.4099-6.1407-0.625c0,0-1.5011-3.1926-2.2202-2.7896c-2.2401,1.2555-8.2449,1.7203-10.0812,4.2668
		c-1.2393,1.7197,0.2431,6.2473,1.7248,11.7761c7.947-0.1233,17.6573-0.2519,23.7118-0.2543
		c-0.784-1.5185-1.5323-2.7785-1.532-3.2533C52.9178,41.3512,53.5893,39.9283,53.183,39.1721L53.183,39.1721z M32.7427,87.2238
		c3.0126,1.6597,5.6983,2.8006,5.9298,2.8411c0.2121,0.0371,1.3784-0.3932,2.8285-1.0227
		C38.8376,88.4923,35.7885,87.8699,32.7427,87.2238z"/>
	<path style="fill-rule:evenodd;clip-rule:evenodd;fill:#FABA90;" d="M42.5564,79.5266
		c-1.1724-0.5206-14.1493-8.1234-17.7015-2.9913c-0.9931,1.4361-2.5878,6.181-2.0277,9.2829
		c0.8951,4.9613,9.2617,7.9843,17.5949,9.6928c11.2325,2.3026,20.8143,4.8364,21.6045,4.4147
		c0.7898-0.4218,3.8234-5.9321,3.6168-6.9996C65.4364,91.8601,44.0641,80.1969,42.5564,79.5266z"/>
	<path style="fill-rule:evenodd;clip-rule:evenodd;fill:#231F20;" d="M39.1402,15.4607c-6.5177-0.6678-6.3069,6.8114-4.5486,7.9888
		c2.3301,1.5603,3.7084,1.5531,4.8606,0.5321c1.1522-1.021,2.5959-3.486,2.3517-4.7923
		C41.5596,17.8831,39.1402,15.4607,39.1402,15.4607z"/>
	<path style="fill-rule:evenodd;clip-rule:evenodd;fill:#E3AA85;" d="M39.7462,22.3285c0.12,3.4321,0.2399,6.1594-1.2282,9.5037
		l10.4411,3.1507c-0.5218-0.6251-1.044-1.2506-1.5658-1.8757c-1.194-1.5431-2.2555-2.733-1.2001-7.4079
		C44.0441,24.5754,41.8952,23.4522,39.7462,22.3285z"/>
	<path style="fill-rule:evenodd;clip-rule:evenodd;fill:#FABA90;" d="M57.387,92.6401
		c-5.1276,1.8997-9.7782,10.2154-11.1406,13.7492c-1.3624,3.5337-5.5713,23.8023-6.3286,24.963
		c-0.7565,1.1619,4.0141,3.1563,4.3313,2.4531c4.0344-8.9379,14.4446-24.2065,15.5578-25.8996
		c1.1131-1.6943,5.0239-8.9742,6.4579-12.1537C68.1673,91.5355,60.3185,91.4538,57.387,92.6401z"/>
	<path style="fill-rule:evenodd;clip-rule:evenodd;fill:#FABA90;" d="M44.5492,133.3134c0,0-3.9668-3.7103-4.1028-3.485
		c-0.9203,1.524-2.1001,2.175-2.9094,2.7493c-0.9745,0.6897-1.689,2.3153-1.456,2.9742c0.6393,1.809,2.3121,2.1274,3.3313,3.8388
		c1.02,1.7133,1.5263,6.2484,2.6447,7.2131c1.1192,0.9639,4.1105,2.3398,4.6144,1.8277c0.5039-0.5108-1.3888-4.2931-1.3888-4.2931
		C43.6505,136.1985,44.5492,133.3134,44.5492,133.3134z"/>
	<path style="fill-rule:evenodd;clip-rule:evenodd;fill:#000001;" d="M45.5139,145.4687c-0.3717,0.2209-1.632-0.5799-1.8858-0.9297
		c-2.2844-3.1462-4.6481-8.6459-4.954-10.1267c-0.3176-1.5406,0.1952-2.7888,0.1952-2.7888
		c-0.2745-0.1195-2.2873,1.0599-2.7171,2.5139c-0.0838,0.3253-0.142,1.2148-0.0712,1.4145c0.36,1.0184,2.1583,3.3845,2.6041,4.1332
		c1.0192,1.7114,1.336,6.1639,2.4544,7.1278c1.1192,0.9655,5.501,3.1177,6.0049,2.6069c0.3957-0.4018-0.9472-3.5655-1.8619-5.2814
		C45.2826,144.1384,45.7718,145.3154,45.5139,145.4687z"/>
	<path style="fill-rule:evenodd;clip-rule:evenodd;fill:#000001;" d="M35.7114,137.711c-0.2473,1.4332-1.3665,4.2007-1.3665,4.2007
		l0.5808,0.2509c0,0,1.8976-5.324,3.7595-2.4776c0.5811,0.8883-2.4366-5.8019-2.4366-5.8019S35.8749,136.7629,35.7114,137.711z"/>
	<path style="fill-rule:evenodd;clip-rule:evenodd;fill:#211A1C;" d="M49.5712,76.8425c-8.8424,3.1376-16.1308,2.7159-23.389-4.2842
		c-0.7727,1.4003-1.4841,2.7863-2.0343,4.102c-2.0319,4.8596-2.8384,7.5727-0.3518,12.0634
		c3.7428,6.7621,17.4399,7.9802,26.7643,8.986c0,0,4.8539-7.8578,12.1342-7.7422c6.4131-0.9476,11.9418,0.5502,11.9483,0.0333
		C74.7062,84.8193,49.4903,79.0365,49.5712,76.8425z"/>
	<path style="fill-rule:evenodd;clip-rule:evenodd;fill:#1A1618;" d="M27.4612,73.723c-0.2696-0.2315-0.5391-0.472-0.8085-0.7213
		l-0.772,0.1078c-0.6556,1.2122-1.255,2.408-1.7329,3.5507c-2.0319,4.8596-2.8384,7.5727-0.3518,12.0634
		c3.7428,6.7621,17.4399,7.9802,26.7643,8.9859c0,0,1.2079-1.9549,3.3218-3.9002l-0.578-0.1807c0,0-9.0551,1.4777-16.6649-1.829
		c-7.6098-3.3068-8.2309-6.8083-8.2309-6.8083L27.4612,73.723z"/>
	<path style="fill-rule:evenodd;clip-rule:evenodd;fill:#232222;" d="M31.1234,47.4033c0,0,1.7513,8.4804,1.6467,11.9971
		c-0.0817,2.7591-6.2376,9.1969-9.0579,14.3046c7.2583,7.0001,18.7809,6.9809,27.6232,3.8432
		c0.0907-2.3931-1.6528-8.2926-1.3453-11.2282c0.3652-3.4764,1.7491-9.5638,2.8505-10.4634
		c1.1013-0.8996,3.324-2.8523,3.5879-5.0402c0.2281-1.8917-1.6289-4.7586-2.1363-5.5007l-0.4463-7.3594c0,0,0,0-0.3555-0.7748
		c-0.3555-0.7736-6.7437-4.9333-6.7437-4.9333l2.3286,12.3872c-1.0563-0.1436-2.0686-0.3177-2.7984-0.5214l-7.143-14.2578
		c0,0-8.5941,1.8898-9.9956,3.7048c-1.4023,1.8135-1.6556,5.2684-1.6556,5.2684C33.0428,45.0635,29.8683,42.7962,31.1234,47.4033z"
		/>
	<path style="fill-rule:evenodd;clip-rule:evenodd;fill:#1F1D1D;" d="M31.1234,47.4033c0,0,1.7513,8.4804,1.6467,11.9971
		c-0.0817,2.7591-6.2376,9.1969-9.0579,14.3046c3.7932,3.6583,8.7512,5.3986,13.8825,5.7795
		c-1.6654-1.1058-4.6497-2.8298-5.3455-4.2713c-1.0531-2.1818,1.3512-6.1921,3.9959-10.7499
		c2.6446-4.5577,10.6756-8.0566,11.2932-8.0566c0.6175,0-9.2937-0.4915-9.88-3.0875s-1.4582-15.5244-2.2029-15.6502
		c-0.7446-0.1258-4.5522,8.7606-4.5531,8.763C30.9528,46.7178,31.0241,47.039,31.1234,47.4033z"/>
	<path style="fill-rule:evenodd;clip-rule:evenodd;fill:#FFFFFF;" d="M49.9234,41.7868c-0.5734,0-7.1894,0.1764-7.1894,0.1764
		l5.9621,5.7566L49.9234,41.7868z"/>
	<path style="fill-rule:evenodd;clip-rule:evenodd;fill:#FABA90;" d="M54.1517,19.7828c0.2256-0.402,2.7759-5.6025,0.2386-8.8505
		c-2.2147-2.8336-9.0352-5.781-13.5211-1.3313c-4.4873,4.4518-3.0173,8.0842-1.4715,11.5235
		c0.2931,0.6325,0.3967,1.8136,0.7434,2.3914c0.9983,1.6647,1.9019,3.0005,4.0029,4.4084c0.5735,0.3845,4.5677,2.1332,5.7425,1.9348
		c0.8039-0.1376,2.6229-4.6046,2.8416-4.5445c0.2195,0.0602,1.8268-0.6358,2.2504-1.0323
		C55.1271,23.6214,53.5698,21.2547,54.1517,19.7828z"/>
	<path style="fill-rule:evenodd;clip-rule:evenodd;fill:#231F20;" d="M47.0647,6.5059c-3.0208-0.3729-8.0138,0.7367-9.7533,4.9376
		c-1.7383,4.1997,2.522,12.1649,1.9245,11.9223c0,0,2.465-1.936,3.5797-2.2337c0.1552-0.2618,1.4735-2.1991,1.6099-2.8076
		c0.3667-1.6344-0.2211-2.2184,0.4079-2.546c1.6257-0.847,3.9348,0.6625,5.1377,0.6478c0.8874-0.0109,2.3324-0.4018,3.594-0.8735
		c2.1684-0.2773,4.0026-0.5393,3.6831-2.0387C54.8165,9.2518,51.9523,7.1068,47.0647,6.5059z"/>
	<path style="fill-rule:evenodd;clip-rule:evenodd;fill:#232222;" d="M32.4249,32.9009c-2.1734-0.6373-4.2394,1.7993-4.8755,5.4433
		c-0.6361,3.6443,0.1297,23.2325,0.9163,24.1451c0.7865,0.9126,3.6939,1.9586,4.607,0.5124
		c0.913-1.4462,2.7664-17.9572,2.7687-21.0534C35.8427,38.8533,35.2563,33.7314,32.4249,32.9009z"/>
	<path style="fill-rule:evenodd;clip-rule:evenodd;fill:#AF411A;" d="M76.4142,53.9828c0.4411-0.8823,4.8077-12.6145,4.8077-12.6145
		l-5.8071-6.2714c0,0-6.7405,18.7169-7.1163,18.2242C67.9227,52.8284,76.4142,53.9828,76.4142,53.9828z"/>
	<path style="fill-rule:evenodd;clip-rule:evenodd;fill:#FFFFFF;" d="M70.8726,50.2249c0.0441-0.5292,4.6754-13.0115,4.6754-13.0115
		s4.6453,4.8316,4.6753,4.4548c0.03-0.3769-4.6312,9.1742-4.6312,9.1742L70.8726,50.2249z"/>
	<polygon style="fill-rule:evenodd;clip-rule:evenodd;fill:#F15A29;" points="81.2219,41.3683 63.4909,39.9568 55.3751,66.6856 
		71.6065,66.5973 	"/>
	<path style="fill-rule:evenodd;clip-rule:evenodd;fill:#FABA90;" d="M33.1435,58.4622c-1.1233,0.0443-5.9549,0.7174-4.18,4.1304
		c1.0306,1.9815,6.5767,2.0604,10.5281,1.7118c3.9515-0.3473,15.7465-1.6918,15.7465-1.6918l-0.2526-3.6513
		c0,0-13.5845-0.357-19.3502-0.4685C34.2806,58.4666,33.357,58.4537,33.1435,58.4622z"/>
	<path style="fill-rule:evenodd;clip-rule:evenodd;fill:#FABA90;" d="M58.7133,58.7111c-0.5563-0.1033-1.4088-0.7784-1.9037-0.7784
		c-0.4946,0-1.824,1.0285-1.824,1.0285l-0.1554,3.6114c0,0,3.4114,0.1928,5.1167-0.0536c2.7208-1.1433,4.6619-5.2143,3.4923-4.8092
		C62.5297,57.3714,59.2066,58.8038,58.7133,58.7111z"/>
	
		<rect x="148.7926" y="25.1449" transform="matrix(1 -0.0069 0.0069 1 -0.1851 1.0707)" style="fill-rule:evenodd;clip-rule:evenodd;fill:#B9CDEA;" width="12.9137" height="4.5022"/>
	<path style="fill-rule:evenodd;clip-rule:evenodd;fill:#171616;" d="M180.2097,110.2734c0.6015,3.1376,0.907,5.5459,3.024,4.1562
		c2.9109-1.7201,5.0995-4.4863,5.2275-7.7535c0.3553-8.8008,3.211-5.9592-3.9892-10.8136l-4.9715,5.9872
		C179.5004,101.8496,179.608,107.1391,180.2097,110.2734z"/>
	<path style="fill-rule:evenodd;clip-rule:evenodd;fill:#232222;" d="M138.1402,31.2424c-0.8927-0.2892-1.1318-1.1502-1.9664-0.4937
		c-1.4312,1.1249-3.3658,4.6371-4.3228,8.1498c-1.262,4.8463-3.6066,15.7034-4.6616,20.7793
		c-0.4539,2.1853,0.8658,3.6217,2.8852,4.2654c1.6897,0.5385,3.0119,0.4425,4.8229-2.9493
		C136.3211,57.6447,144.9337,33.5365,138.1402,31.2424z"/>
	<path style="fill-rule:evenodd;clip-rule:evenodd;fill:#FABA90;" d="M172.7871,32.1851
		c-4.518-2.7744-17.5567-4.5493-17.5567-4.5493l-0.0012,0.2254c0,0-13.1696,1.0098-17.725,3.7228
		c-3.4947,2.0819,2.4736,14.805,4.7218,21.8783c0.5397,1.6975,0.4262,9.2901,0.1696,16.0206
		c-0.0635,1.6613-1.465,9.2881-1.2571,12.4477c0.063,0.9423,10.7563,3.6242,13.7435,3.7949
		c2.9872-0.1293,13.617-2.8883,13.693-3.8311c0.2509-3.1547-1.0444-10.8006-1.0847-12.462
		c-0.1651-6.7345-0.172-14.3271,0.3901-16.0173C170.2249,46.3735,176.2538,34.3146,172.7871,32.1851z"/>
	<path style="fill-rule:evenodd;clip-rule:evenodd;fill:#E3AA85;" d="M151.0503,17.5839l4.1552-0.03l0.0012,0.2253l4.4061-0.0317
		c0,0-0.68,3.9502,1.1005,7.9847c0.3083,1.3429,3.9482,3.3455,3.9482,3.3455l-0.4433,0.0029
		c-4.1922-1.0859-11.4087,1.2856-11.9699,1.1277c-1.1733-0.3269-3.1751-1.6503-3.1751-1.6503l1.02-4.8519
		c0.2656-2.0388,0.5795-4.9382,0.6759-5.8406L151.0503,17.5839z"/>
	<polygon style="fill-rule:evenodd;clip-rule:evenodd;fill:#2B2A29;" points="143.5846,72.3509 139.604,82.4462 144.9475,85.655 
		155.9205,88.5662 170.3152,88.1139 173.2634,86.5034 169.2651,72.3509 	"/>
	<path style="fill-rule:evenodd;clip-rule:evenodd;fill:#171616;" d="M159.3178,131.2534l-7.7464,0.7764l-0.4299,4.5741
		c0,2.1197,5.4611,4.202,7.1631,4.7791c2.7835,1.7199,6.7114,1.5881,8.8282,0.7276c2.7782-1.2566,1.0358-3.3056-1.2299-5.5587
		C163.6405,134.2995,159.3178,131.2534,159.3178,131.2534z"/>
	<path style="fill-rule:evenodd;clip-rule:evenodd;fill:#D1DFF2;" d="M174.13,32.2111c-0.4962-1.0444-3.7819-1.8378-6.7231-2.7761
		c-2.5923-0.8264-4.9109-1.8667-4.9109-1.8667l-7.2497,4.0718l-7.1823-4.1938c0,0,0.833-0.0635-1.7727,0.7203
		c-2.9571,0.8874-8.4536,5.9541-8.9673,6.9911c-0.5222,1.0517,3.6265,18.0911,4.2048,19.8183
		c0.5796,1.7289-1.0476,13.1782,0.4262,16.7949l12.9297,1.1062v0.0016l0.0256-0.0016l0.0029,0.0016v-0.0016l13.3087,0.2928
		c1.2153-4.1247-0.2769-16.4752,0.3315-18.1923C169.1618,53.2585,174.6339,33.2714,174.13,32.2111z"/>
	<path style="fill-rule:evenodd;clip-rule:evenodd;fill:#232222;" d="M163.1734,27.5978c0,0,10.2044,2.4284,11.4741,3.1287
		c1.2701,0.7016-2.1799,19.3766-3.6232,23.9979c-2.2223,7.1164,3.0855,26.3393,3.0855,26.3393
		c-7.7081,1.9033-9.6887,1.1672-14.9014-2.9775l1.0095-24.9158L163.1734,27.5978z"/>
	<polygon style="fill-rule:evenodd;clip-rule:evenodd;fill:#B9CDEA;" points="157.086,28.9958 159.6027,30.161 155.2685,31.8308 
		155.8253,29.3992 	"/>
	<polygon style="fill-rule:evenodd;clip-rule:evenodd;fill:#B9CDEA;" points="154.7333,29.422 155.3027,31.8308 150.947,30.2196 
		153.4461,29.0202 	"/>
	<polygon style="fill-rule:evenodd;clip-rule:evenodd;fill:#232222;" points="154.3108,33.9209 153.1179,30.0662 157.3602,30.0361 
		156.0279,33.9091 157.5985,70.1941 154.828,73.6228 151.8164,70.2984 	"/>
	<path style="fill-rule:evenodd;clip-rule:evenodd;fill:#232222;" d="M147.648,27.6199c0,0-10.2044,2.4284-11.4741,3.1287
		c-1.2701,0.7016,2.1799,19.3766,3.6233,23.9979c2.2222,7.1164-3.0856,26.3392-3.0856,26.3392
		c7.7081,1.9034,9.953,1.1676,15.1656-2.977l-1.2738-24.9162L147.648,27.6199z"/>
	<path style="fill-rule:evenodd;clip-rule:evenodd;fill:#282828;" d="M148.0309,27.5792c-0.3572,0.2633-6.5231,6.519-6.5231,6.519
		l3.9035,1.7864c0,0-3.8044,4.7638-3.4075,5.0285c0.3969,0.2646,8.7792,15.73,8.7792,15.73S148.1647,27.5052,148.0309,27.5792z"/>
	<path style="fill-rule:evenodd;clip-rule:evenodd;fill:#FABA90;" d="M109.0083,41.75l0.0132,0.0231L109.0083,41.75
		c-0.1364-0.1182,1.0461,0.5049,1.7428,0.6783c0.736,0.1831,3.6576,0.3917,4.2768,0.642c0.619,0.2506,1.8913,1.8907,1.8913,1.8907
		l-1.1806,3.4822c0,0-4.0069-1.8892-6.047-2.9837c-2.0381-1.0948-8.1423-6.6941-6.6435-7.8333
		C103.6996,36.8584,108.751,41.4811,109.0083,41.75z"/>
	<path style="fill-rule:evenodd;clip-rule:evenodd;fill:#FFFFFF;" d="M119.661,46.5581c-0.2033-0.1271-2.9215-2.261-2.9215-2.261
		l-4.0392,4.5219l2.0069,1.6512L119.661,46.5581z"/>
	<path style="fill-rule:evenodd;clip-rule:evenodd;fill:#232222;" d="M132.4153,63.6294
		c6.0873-5.4904-11.2334-16.9831-15.058-19.1786l-4.411,5.6759c0,0,6.7365,6.6119,10.829,10.6724
		C127.8675,64.8599,130.8036,65.0825,132.4153,63.6294z"/>
	<polygon style="fill-rule:evenodd;clip-rule:evenodd;fill:#E1F3FC;" points="154.7333,29.422 152.6112,33.428 146.2911,28.1665 
		148.7878,25.1895 	"/>
	<path style="fill-rule:evenodd;clip-rule:evenodd;fill:#FABA90;" d="M155.3534,1.2727c5.9476,0.6457,9.0533,4.5958,8.5283,11.0918
		c-0.4821,6.4596-7.9908,12.0524-11.9985,11.7535c-3.1228-0.2504-4.7476-3.8803-6.4058-8.6198
		c-0.4145-1.1852,0.3902-1.6541,0.3311-2.9533c-0.0152-0.3326-0.8363-1.5321-0.8372-1.8667c0.0267-0.4585,0.08-0.9038,0.1575-1.3349
		C146.0844,4.0269,150.7538,0.8129,155.3534,1.2727z"/>
	<path style="fill-rule:evenodd;clip-rule:evenodd;fill:#231F20;" d="M154.3765,0.3773c1.5782-0.4427,6.5518-1.5896,9.2065,4.6643
		c2.6544,6.2521,0.0047,11.8359-4.0759,15.4585c-0.4999-0.004,1.5959-5.9233-0.1267-9.7063
		c-0.2378-0.5236-1.583,3.8023-1.9341,3.3614c-0.3281-0.4119,1.0316-5.3832-0.2454-6.4453
		c-5.9351-4.9396-11.5736-1.1187-11.5736-1.1187C140.4067,1.539,152.7994,0.8177,154.3765,0.3773z"/>
	<path style="fill-rule:evenodd;clip-rule:evenodd;fill:#FABA90;" d="M160.2966,10.5885c0.9548,0.2276,1.3785,1.8864,0.9447,3.7042
		c-0.4339,1.8178-1.561,3.1056-2.5158,2.878c-0.9548-0.2276-0.8385-2.6498-0.4047-4.4675
		C158.7547,10.8858,159.3418,10.3604,160.2966,10.5885z"/>
	<path style="fill-rule:evenodd;clip-rule:evenodd;fill:#F79E78;" d="M159.7829,63.2689l-0.0231,0.013L159.7829,63.2689z"/>
	<polygon style="fill-rule:evenodd;clip-rule:evenodd;fill:#646E78;" points="128.2076,114.8778 127.3535,114.8778 
		127.5613,114.8648 	"/>
	<path style="fill-rule:evenodd;clip-rule:evenodd;fill:#FABA90;" d="M56.6262,59.2553c0-0.2095-0.3155-1.1674-0.1939-1.2167
		c0.1215-0.0493,1.9902-1.3894,1.9902-1.3894l-0.425,1.3996L56.6262,59.2553z"/>
	<path style="fill-rule:evenodd;clip-rule:evenodd;fill:#FABA90;" d="M41.8373,16.0087c-2.4952,1.2973-0.9773,6.5134,0.4585,5.6593
		c0.8501-0.5057,1.2723-3.3221,1.374-4.0329C43.8258,16.5505,43.0779,15.3639,41.8373,16.0087z"/>
	<path style="fill-rule:evenodd;clip-rule:evenodd;fill:#FFFFFF;" d="M33.8711,55.4835l1.768,3.0926
		c0,0-3.0294,0.6568-4.7672,2.6856c-1.7379,2.0287-1.5216,4.2983-1.5216,4.2983s-3.6389-1.2551-3.8154-1.9607
		c-0.7749-3.0996,3.0293-6.6991,5.9544-7.7628C33.43,55.1306,33.8711,55.4835,33.8711,55.4835z"/>
	<path style="fill-rule:evenodd;clip-rule:evenodd;fill:#A6A8AB;" d="M39.4027,28.994l-2.4454,1.3924
		c-0.3904,0.2223-2.0567,5.2933-2.0567,5.2933l5.3662,1.8958c0,0-3.2199,4.4548-2.6905,4.543
		c0.5293,0.0883,11.4769,6.2855,11.1149,5.5573L39.4027,28.994z"/>
	<path style="fill-rule:evenodd;clip-rule:evenodd;fill:#A6A8AB;" d="M45.9669,30.6409c2.1735,1.7772,4.3922,2.7079,6.3209,4.609
		l-2.5802,4.1655c0,0,3.6411,2.83,3.209,3.0063c-0.4321,0.1763-4.1462,5.8137-4.2329,5.2696L45.9669,30.6409z"/>
	<path style="fill-rule:evenodd;clip-rule:evenodd;fill:#ECA87B;" d="M42.7542,16.8654c-0.4191-0.1322-1.2351-0.0441-1.3894,0.8161
		c-0.1544,0.86-0.1744,2.1645,0.3318,2.6811c0.5062,0.5166,1.1238-0.2553,0.9693-0.7404c-0.1544-0.4852-0.5072-0.9925-0.1322-1.3674
		c0.3748-0.3749,0.397-0.1985,0.397-0.6395C42.9307,17.1741,42.7542,16.8654,42.7542,16.8654z"/>
	<path style="fill-rule:evenodd;clip-rule:evenodd;fill:#231F20;" d="M55.6995,12.6907c0.1984,0.1764,1.3295,0.446,1.3523,0.5754
		c0.0227,0.1292,0.3456,1.4315-1.3965,3.725c-1.7421,2.2936-7.1232,2.6905-7.1232,2.6905s3.1978-0.7277,4.6532-1.7422
		c1.4555-1.0144,2.1224-3.4828,2.1224-3.4828L55.6995,12.6907z"/>
	<path style="fill-rule:evenodd;clip-rule:evenodd;fill:#FABA90;" d="M116.4779,44.4217c0,0-1.0268-0.6144-1.4499-1.3513
		c-0.4231-0.737-2.0331-1.5088-3.4445-2.5233c-0.7722-0.5549-2.8979-2.4345-1.6989,0.4578
		c0.3748,0.9041,1.9195,2.4312,2.5369,2.8061C113.0391,44.1859,116.4525,44.4967,116.4779,44.4217z"/>
	<path style="fill-rule:evenodd;clip-rule:evenodd;fill:#232222;" d="M188.2838,60.5774c-1.629-3.7306-5.4691-6.181-8.0956-4.2851
		c-2.5443,1.8361-6.2703,5.9419-7.8212,7.3903c1.1084,2.5361,3.4372,8.025,4.903,7.4745c1.0073-0.3784,2.1656-2.1199,5.2802-3.5238
		C187.8062,65.2644,189.0643,62.6022,188.2838,60.5774z"/>
	<path style="fill-rule:evenodd;clip-rule:evenodd;fill:#FFFFFF;stroke:#231F20;stroke-width:0.5;stroke-miterlimit:2.6131;" d="
		M172.367,63.6827c1.0486-0.434,0.642-1.8058,2.1663-1.1961c1.5243,0.6096,3.5058,4.3186,3.6582,6.2493
		c0.358,4.5353-5.8658,0.2615-5.8658-1.5636C172.3257,65.2237,172.367,63.6827,172.367,63.6827z"/>
	<path style="fill-rule:evenodd;clip-rule:evenodd;fill:#232222;" d="M171.5419,33.0926c0.8459-0.4061,1.9862-3.0135,2.8718-2.4281
		c1.4272,0.9435,3.6203,4.1929,5.3752,7.4974c1.8996,4.6335,6.4526,16.8086,8.1779,21.6975
		c0.7424,2.1047-1.1486,1.9753-3.0634,2.8837c-1.6024,0.7599-2.9255,0.8419-5.1745-2.2768c0,0-3.3735-8.297-6.6075-15.0825
		C170.5155,39.917,169.234,34.5942,171.5419,33.0926z"/>
	<path style="fill-rule:evenodd;clip-rule:evenodd;fill:#282828;" d="M162.741,28.5043c0.3572,0.2633,6.5232,6.519,6.5232,6.519
		l-3.9035,1.7864c0,0,3.8045,4.7639,3.4076,5.0285c-0.3969,0.2647-8.7793,15.7301-8.7793,15.7301S162.6072,28.4303,162.741,28.5043z
		"/>
	<polygon style="fill-rule:evenodd;clip-rule:evenodd;fill:#E1F3FC;" points="164.2285,28.0433 157.9816,33.3906 155.8253,29.3992 
		161.6903,25.1005 	"/>
	<g>
		<path style="fill-rule:evenodd;clip-rule:evenodd;fill:#404041;" d="M163.0223,63.1467l3.4666-2.7598
			c0.6713-0.5344,1.3455-0.719,1.8799-0.0476l7.9138,9.7688c0.5344,0.6713,0.148,1.3891-0.5235,1.9235l-3.4665,2.7597
			c-0.6714,0.5344-1.3833,0.6912-1.9178,0.0199l-7.9138-9.7688C161.9267,64.371,162.3509,63.6811,163.0223,63.1467z"/>
		<path style="fill-rule:evenodd;clip-rule:evenodd;fill:#6D6E70;" d="M163.1157,64.6676l4.8344-3.8486
			c0.0094-0.0075,0.0232-0.0059,0.0307,0.0034l7.6106,9.56c0.0075,0.0093,0.0059,0.0231-0.0034,0.0307l-4.8344,3.8486
			c-0.0094,0.0075-0.0233,0.0059-0.0307-0.0034l-7.6106-9.56C163.1048,64.6889,163.1063,64.6751,163.1157,64.6676z"/>
		<path style="fill-rule:evenodd;clip-rule:evenodd;fill:#58595B;" d="M163.9685,63.2076l1.7913-1.4259
			c0.0486-0.0387,0.1198-0.0306,0.1584,0.0179l0.0001,0.0001c0.0386,0.0486,0.0305,0.1198-0.018,0.1585l-1.7912,1.4259
			c-0.0486,0.0387-0.12,0.0306-0.1586-0.0179v-0.0001C163.9119,63.3176,163.92,63.2463,163.9685,63.2076z"/>
		
			<ellipse transform="matrix(0.7824 -0.6228 0.6228 0.7824 -7.599 123.9692)" style="fill-rule:evenodd;clip-rule:evenodd;fill:#58595B;" cx="173.5852" cy="72.8578" rx="0.3814" ry="0.3815"/>
		
			<ellipse transform="matrix(0.7824 -0.6228 0.6228 0.7824 -2.0588 116.9997)" style="fill-rule:evenodd;clip-rule:evenodd;fill:#58595B;" cx="166.3804" cy="61.4457" rx="0.2389" ry="0.2389"/>
	</g>
	<path style="fill-rule:evenodd;clip-rule:evenodd;fill:#FABA90;" d="M177.2663,68.3781c0.0943-2.1255-2.4816-5.3621-3.9786-5.7663
		c-1.4971-0.4042-4.3142,0.9861-4.6927,1.4867c-0.3787,0.5007-2.6476,2.2624-1.566,2.4757c0.3994,0.0789,1.7601-0.353,1.9404-0.2993
		c0.4133,0.1228,0.2704,0.7616-0.9502,1.3311c-1.9356,0.9034-0.4554,0.4739-0.0498,1.03c0.4058,0.5561,2.3587-0.9744,2.6897-0.6932
		c0.3308,0.2811-2.109,1.972-1.5361,2.5497c0.573,0.5778,3.2826-1.3589,3.4149-1.1769c0.1324,0.182-2.5102,2.4254-1.5173,2.6912
		c0.9927,0.2657,3.1494-0.1229,4.4077-0.8498C176.6863,70.4299,177.2663,68.3781,177.2663,68.3781z"/>
	<path style="fill-rule:evenodd;clip-rule:evenodd;fill:#FABA90;" d="M171.2999,67.2905c-0.7476-0.3947-0.6932-1.9113-1.589-1.3257
		c-0.8958,0.5856-4.2837,2.8729-5.1119,4.0191c-0.8282,1.1462-0.4139,1.715,0.4289,1.6424
		c0.8428-0.0726,3.3397-2.3023,3.4389-2.4015C168.5661,69.1255,171.2999,67.2905,171.2999,67.2905z"/>
	<path style="fill-rule:evenodd;clip-rule:evenodd;fill:#FABA90;" d="M170.8058,64.7917c-0.5299-0.2798,0.9309-1.6522,0.5831-1.9112
		c-0.1428-0.1064-1.9112,0.4151-2.1721,0.5855c-0.8957,0.5856-4.2837,2.8729-5.1119,4.0191
		c-0.8282,1.1461-0.4139,1.715,0.4288,1.6424c0.8428-0.0727,3.6345-2.3146,3.7337-2.4137
		C168.3668,66.6145,170.8058,64.7917,170.8058,64.7917z"/>
	<path style="fill-rule:evenodd;clip-rule:evenodd;fill:#FABA90;" d="M173.3198,68.5464c-0.7475-0.3947-0.6931-1.9113-1.5889-1.3257
		c-0.8959,0.5856-4.2838,2.8729-5.1119,4.0191c-0.8282,1.1462-0.4139,1.715,0.4288,1.6424
		c0.8428-0.0727,3.2279-2.1216,3.3272-2.2208C170.4742,70.5621,173.3198,68.5464,173.3198,68.5464z"/>
	<path style="fill-rule:evenodd;clip-rule:evenodd;fill:#FABA90;" d="M175.2539,70.059c-0.7159-0.4496-0.8621-2.4045-1.6504-1.5569
		c-0.7882,0.8475-3.939,3.2135-5.1153,3.9802c-1.1764,0.7665-0.6596,1.4392,0.1862,1.43
		C170.7196,73.8899,173.7371,71.26,175.2539,70.059z"/>
	<path style="fill-rule:evenodd;clip-rule:evenodd;fill:#2B2A29;" d="M167.7543,80.1295c-6.0994-1.1787-8.8645,5.4737-8.8645,5.4737
		l-8.4648,47.1561l12.386,1.7494l10.8879-46.0437c0,0-0.0627-4.728-1.8288-6.8919C171.0122,80.5216,169.4649,80.46,167.7543,80.1295
		z"/>
	<path style="fill-rule:evenodd;clip-rule:evenodd;fill:#2B2A29;" d="M139.3793,78.4401c-0.4631,1.1248-0.4451,5.3981-0.4451,5.3981
		s1.7684,3.7947,3.6208,4.2614c1.8524,0.4666,7.8932,0.9878,8.1377,0.0662C150.9373,87.2441,139.3793,78.4401,139.3793,78.4401z"/>
	<path style="fill-rule:evenodd;clip-rule:evenodd;fill:#212121;" d="M112.9463,50.1267c0,0,6.7365,6.6119,10.829,10.6724
		c3.4483,3.4219,6.0758,4.1184,7.7816,3.3833c1.0687-0.0727,2.0877-0.8417,3.3407-3.1885c0.5662-1.3323,2.2702-5.9496,3.6894-11.172
		c-0.1202-0.5595-0.2422-1.1435-0.3645-1.7449c-0.9937,2.0231-2.2512,4.6521-3.0662,6.6082
		c-0.6177,1.4825-1.1186,3.1278-1.7563,4.5316c-0.9358,2.0602-2.1663,3.6005-4.493,3.3436
		c-0.402-0.0444-0.8813-0.2222-1.4175-0.5056c-3.6787-1.9438-10.0427-8.8541-12.6017-11.727c-0.6981-0.7837-1.113-1.267-1.113-1.267
		l-0.3045,0.3918L112.9463,50.1267L112.9463,50.1267z M138.2227,48.0767c0.8645-1.76,1.5295-3.0616,1.5295-3.0616
		s2.1167,7.4229,1.8957,12.304c-0.221,4.881-0.3947,13.523-0.9028,16.0633c-0.3043,1.5217-0.6636,5.3763-1.7325,8.2234
		c-0.7113-0.1425-1.4746-0.3159-2.3012-0.52c0,0,5.3078-19.223,3.0855-26.3392C139.384,53.4242,138.8067,50.9502,138.2227,48.0767z"
		/>
	<path style="fill-rule:evenodd;clip-rule:evenodd;fill:#302F2E;" d="M137.2703,74.679c-2.6765,4.6062,1.6637,9.1592,1.6637,9.1592
		c12.4391,6.0435,21.0851,8.4443,40.7573,21.9952l7.1254-10.3075l-40.3096-24.7205
		C146.5071,70.8054,140.3892,69.3115,137.2703,74.679z"/>
	<path style="fill-rule:evenodd;clip-rule:evenodd;fill:#2C2D2C;" d="M137.2703,74.679c-2.6765,4.6061,1.6637,9.1592,1.6637,9.1592
		c12.4391,6.0436,21.085,8.4442,40.7574,21.9952l1.8583-2.6881c-4.2771-2.0622-41.2981-20.5106-42.6337-24.354
		c-1.4167-4.0768,0.2814-6.387,0.5354-6.5928C138.6521,72.7915,137.9,73.5953,137.2703,74.679z"/>
	<path style="fill-rule:evenodd;clip-rule:evenodd;fill:#231F20;" d="M11.1177,66.5807H6.7279C3.012,66.5807,0,68.8818,0,71.7225
		v61.1757h17.8456V71.7225C17.8456,68.8818,14.8336,66.5807,11.1177,66.5807z"/>
	<g>
		<rect x="73.1812" y="104.8295" style="fill-rule:evenodd;clip-rule:evenodd;fill:#262829;" width="5.5929" height="38.4379"/>
		<rect x="63.3893" y="109.7253" style="fill-rule:evenodd;clip-rule:evenodd;fill:#343637;" width="5.593" height="38.438"/>
	</g>
	<g>
		<rect x="134.0486" y="104.8295" style="fill-rule:evenodd;clip-rule:evenodd;fill:#262829;" width="5.5929" height="38.4379"/>
		<rect x="143.8403" y="109.7253" style="fill-rule:evenodd;clip-rule:evenodd;fill:#343637;" width="5.5929" height="38.438"/>
	</g>
	<rect x="59.671" y="102.1998" style="fill-rule:evenodd;clip-rule:evenodd;fill:#BBBDBF;" width="93.5078" height="10.7664"/>
	<rect x="56.7414" y="99.3126" style="fill-rule:evenodd;clip-rule:evenodd;fill:#D0D2D3;" width="99.367" height="4.5753"/>
	<g>
		<rect x="127.0589" y="98.7111" style="fill-rule:evenodd;clip-rule:evenodd;fill:#E6E7E8;" width="8.1309" height="0.6015"/>
		<path style="fill-rule:evenodd;clip-rule:evenodd;fill:#A15641;" d="M135.4268,92.1066v0.1389h1.0732
			c0.6321,0,1.1492,0.5172,1.1492,1.1492v2.1891c0,0.6321-0.5172,1.1493-1.1492,1.1493h-1.2006
			c-0.2787,0.8298-0.9843,1.4229-1.8052,1.4229h-4.7399c-1.0629,0-1.9326-0.9941-1.9326-2.2091v-3.8402H135.4268L135.4268,92.1066z
			 M135.4268,92.779v3.1678c0,0.0854-0.0044,0.1697-0.0128,0.2526h1.0861c0.3386,0,0.6157-0.277,0.6157-0.6156v-2.1891
			c0-0.3386-0.2771-0.6157-0.6157-0.6157H135.4268z"/>
		<rect x="126.8218" y="91.7831" style="fill-rule:evenodd;clip-rule:evenodd;fill:#D0D2D3;" width="8.605" height="0.3236"/>
		<polygon style="fill-rule:evenodd;clip-rule:evenodd;fill:#D0D2D3;" points="135.5834,98.9656 139.8987,97.5777 131.1243,97.5777 
			122.3499,97.5777 126.6652,98.9656 		"/>
	</g>
	<g>
		<rect x="79.8584" y="98.7111" style="fill-rule:evenodd;clip-rule:evenodd;fill:#E6E7E8;" width="8.1308" height="0.6015"/>
		<path style="fill-rule:evenodd;clip-rule:evenodd;fill:#A15641;" d="M79.6213,92.1066v0.1389h-1.0732
			c-0.6321,0-1.1492,0.5172-1.1492,1.1492v2.1891c0,0.6321,0.5172,1.1493,1.1492,1.1493h1.2006
			c0.2788,0.8298,0.9843,1.4229,1.8052,1.4229h4.7399c1.0629,0,1.9326-0.9941,1.9326-2.2091v-3.8402H79.6213L79.6213,92.1066z
			 M79.6213,92.779v3.1678c0,0.0854,0.0045,0.1697,0.0128,0.2526h-1.086c-0.3386,0-0.6156-0.277-0.6156-0.6156v-2.1891
			c0-0.3386,0.2771-0.6157,0.6156-0.6157H79.6213z"/>
		<rect x="79.6213" y="91.7831" style="fill-rule:evenodd;clip-rule:evenodd;fill:#D0D2D3;" width="8.6051" height="0.3236"/>
		<polygon style="fill-rule:evenodd;clip-rule:evenodd;fill:#D0D2D3;" points="79.4647,98.9656 75.1495,97.5777 83.9238,97.5777 
			92.6982,97.5777 88.3829,98.9656 		"/>
	</g>
	<rect x="93.5647" y="94.1432" style="fill-rule:evenodd;clip-rule:evenodd;fill:#806A50;" width="24.373" height="5.1694"/>
	<rect x="92.6554" y="91.5585" style="fill-rule:evenodd;clip-rule:evenodd;fill:#FDCF9D;" width="24.373" height="2.5847"/>
	<rect x="96.3289" y="88.1123" style="fill-rule:evenodd;clip-rule:evenodd;fill:#A15641;" width="24.3731" height="3.4462"/>
	<rect x="95.4197" y="86.3891" style="fill-rule:evenodd;clip-rule:evenodd;fill:#CBE6D2;" width="24.373" height="1.7232"/>
	<g>
		<g>
			<path style="fill-rule:evenodd;clip-rule:evenodd;fill:#404041;" d="M189.4939,111.0985l36.7846-0.0652
				c0.5406-0.0008,0.9576,0.4431,0.9829,0.983l1.269,27.0564c0.0253,0.5399-0.4425,0.9828-0.983,0.9828h-39.4202
				c-0.5405,0-1.0103-0.443-0.9829-0.9828l1.3665-26.9913C188.5382,111.5415,188.9531,111.0994,189.4939,111.0985z"/>
		</g>
		<g>
			<polygon style="fill-rule:evenodd;clip-rule:evenodd;fill:#2E2F2F;" points="189.5568,112.1462 188.1967,139.0077 
				227.4782,139.0077 226.2133,112.0813 			"/>
		</g>
		<g>
			<path style="fill-rule:evenodd;clip-rule:evenodd;fill:#20121D;" d="M202.7919,107.0131h10.0908
				c0.643,0,1.169,0.5261,1.169,1.169v3.0955c0,0.6429-0.526,1.169-1.169,1.169h-10.0908c-0.6431,0-1.1691-0.5261-1.1691-1.169
				v-3.0955C201.6228,107.5392,202.1488,107.0131,202.7919,107.0131L202.7919,107.0131z M202.7919,108.8026L202.7919,108.8026
				c-0.0525,0-0.0954,0.043-0.0954,0.0955v2.3792c0,0.0525,0.0429,0.0955,0.0954,0.0955h10.0908
				c0.0525,0,0.0955-0.043,0.0955-0.0955v-2.3792c0-0.0525-0.043-0.0955-0.0955-0.0955H202.7919z"/>
		</g>
		<g>
			<path style="fill-rule:evenodd;clip-rule:evenodd;fill:#393939;" d="M187.6934,110.7679h40.2878
				c0.5527,0,1.0046,0.4519,1.0046,1.0045v12.342c-4.8718,3.2066-12.5319,5.2741-21.1486,5.2741
				c-8.6166,0-16.2766-2.0675-21.1485-5.2739v-12.3421C186.6888,111.2198,187.1407,110.7679,187.6934,110.7679z"/>
		</g>
		<g>
			<g>
				<path style="fill-rule:evenodd;clip-rule:evenodd;fill:#58595B;" d="M207.8371,128.8713c-8.0569,0-15.549-1.9588-20.5559-5.3744
					l-0.0751-0.0511v-12.5509c0.105-0.0586,0.2215-0.0991,0.345-0.1168v12.4851l0,0c4.9505,3.3458,12.3373,5.2632,20.2861,5.2632
					c7.9492,0,15.3362-1.9174,20.2864-5.2632v-12.4851c0.1235,0.0176,0.24,0.0581,0.345,0.1168v12.5505l-0.0751,0.0515
					C223.3868,126.9125,215.8944,128.8713,207.8371,128.8713z"/>
			</g>
		</g>
		<g>
			<path style="fill-rule:evenodd;clip-rule:evenodd;fill:#E4E4E4;" d="M205.4929,127.1427h3.6467
				c0.2312,0,0.4203,0.1891,0.4203,0.4204v3.9006c0,0.2312-0.1891,0.4204-0.4203,0.4204h-3.6467
				c-0.2313,0-0.4204-0.1892-0.4204-0.4204v-3.9006C205.0725,127.3318,205.2616,127.1427,205.4929,127.1427z"/>
		</g>
		<g>
			<path style="fill-rule:evenodd;clip-rule:evenodd;fill:#828085;" d="M205.932,127.9575h2.7683
				c0.1354,0,0.2458,0.1105,0.2458,0.2456v2.62c0,0.1354-0.1104,0.246-0.2458,0.246h-2.7683c-0.1351,0-0.2456-0.1105-0.2456-0.246
				v-2.62C205.6864,128.0679,205.7968,127.9575,205.932,127.9575z"/>
		</g>
	</g>
	<path style="fill-rule:evenodd;clip-rule:evenodd;fill:#ECA87B;" d="M159.496,11.6732c0.4387-0.1323,1.2416-0.0441,1.2686,0.8161
		c0.0269,0.8601-0.1461,2.1646-0.7288,2.6811c-0.5827,0.5166-1.086-0.2553-0.8597-0.7404c0.2262-0.4852,0.6541-0.9925,0.3347-1.3673
		c-0.3194-0.3749-0.3676-0.1985-0.3023-0.6396C159.2738,11.982,159.496,11.6732,159.496,11.6732z"/>
</g>
</svg>
