<?xml version="1.0" encoding="utf-8"?>
<!-- Generator: Adobe Illustrator 21.0.2, SVG Export Plug-In . SVG Version: 6.00 Build 0)  -->
<svg version="1.1" id="Capa_1" xmlns="http://www.w3.org/2000/svg" xmlns:xlink="http://www.w3.org/1999/xlink" x="0px" y="0px"
	 viewBox="0 0 444.0621 346.3961" style="enable-background:new 0 0 444.0621 346.3961;" xml:space="preserve">
<g>
	
		<rect x="1.5" y="15.4995" style="fill:#FFFFFF;stroke:#7C7B79;stroke-width:3;stroke-miterlimit:10;" width="441.0621" height="266.0968"/>
	<polygon style="fill:#7C7B79;" points="105.3418,330.389 89.8418,267.1548 315.3126,259.2643 301.9183,333.4832 266.3418,333.4832 
		287.3418,338.2245 221.0406,346.3961 251.3418,334.298 	"/>
	<g>
		<g>
			<path style="fill:#FFFFFF;" d="M151.8698,296.4076v-17.8955h13.2695v3.0273h-9.6563v3.9673h8.9844v3.0151h-8.9844v4.8706h9.998
				v3.0151H151.8698z"/>
			<path style="fill:#FFFFFF;" d="M171.8776,283.4437v12.561c0,1.6519-0.1084,2.8179-0.3232,3.4976
				c-0.2158,0.6792-0.6309,1.21-1.2451,1.5928c-0.6152,0.3823-1.3975,0.5737-2.3506,0.5737c-0.3418,0-0.71-0.0308-1.1045-0.0913
				c-0.3945-0.0615-0.8193-0.1528-1.2754-0.2749l0.5986-2.9297c0.1621,0.0322,0.3154,0.0591,0.457,0.0796
				c0.1426,0.02,0.2754,0.0303,0.3965,0.0303c0.3506,0,0.6367-0.0752,0.8613-0.2256c0.2236-0.1509,0.3721-0.332,0.4453-0.5435
				c0.0732-0.2119,0.1094-0.8467,0.1094-1.9043v-12.3657H171.8776z M168.447,281.6859v-3.1738h3.4307v3.1738H168.447z"/>
			<path style="fill:#FFFFFF;" d="M182.9733,292.2816l3.418,0.5737c-0.4395,1.2534-1.1338,2.2075-2.0811,2.8628
				c-0.9482,0.6548-2.1348,0.9824-3.5586,0.9824c-2.2539,0-3.9229-0.7363-5.0049-2.2095c-0.8545-1.1797-1.2822-2.6689-1.2822-4.4678
				c0-2.1484,0.5625-3.8311,1.6855-5.0474c1.123-1.2168,2.543-1.8252,4.2598-1.8252c1.9287,0,3.4502,0.6367,4.5654,1.9102
				c1.1152,1.2739,1.6475,3.2251,1.5986,5.8535h-8.5938c0.0254,1.0176,0.3018,1.8086,0.8301,2.374
				c0.5293,0.5659,1.1885,0.8486,1.9785,0.8486c0.5371,0,0.9883-0.1465,1.3545-0.4395S182.7858,292.933,182.9733,292.2816z
				 M183.1687,288.8148c-0.0244-0.9927-0.2803-1.7476-0.7686-2.2646c-0.4883-0.5166-1.083-0.7749-1.7832-0.7749
				c-0.748,0-1.3672,0.2729-1.8555,0.8179c-0.4883,0.5454-0.7275,1.2861-0.7197,2.2217H183.1687z"/>
			<path style="fill:#FFFFFF;" d="M189.114,283.4437h3.1611v1.77c1.1318-1.375,2.4785-2.063,4.041-2.063
				c0.8301,0,1.5508,0.1709,2.1602,0.5127c0.6113,0.3418,1.1113,0.8589,1.502,1.5503c0.5693-0.6914,1.1836-1.2085,1.8438-1.5503
				c0.6582-0.3418,1.3623-0.5127,2.1113-0.5127c0.9521,0,1.7578,0.1934,2.417,0.5801c0.6592,0.3862,1.1514,0.9541,1.4775,1.7026
				c0.2354,0.5537,0.3535,1.4487,0.3535,2.6855v8.2886h-3.4297v-7.4097c0-1.2856-0.1182-2.1157-0.3545-2.4902
				c-0.3174-0.4883-0.8057-0.7324-1.4648-0.7324c-0.4805,0-0.9316,0.1465-1.3545,0.4395c-0.4238,0.293-0.7285,0.7222-0.916,1.2876
				c-0.1875,0.5659-0.2813,1.459-0.2813,2.6797v6.2256h-3.4297v-7.1045c0-1.2612-0.0605-2.0752-0.1836-2.4414
				c-0.1211-0.3662-0.3105-0.6387-0.5674-0.8179c-0.2559-0.1787-0.6045-0.2686-1.0439-0.2686c-0.5283,0-1.0049,0.1426-1.4277,0.4272
				c-0.4229,0.2852-0.7266,0.6958-0.9092,1.2329c-0.1836,0.5371-0.2744,1.4282-0.2744,2.6733v6.2988h-3.4307V283.4437z"/>
			<path style="fill:#FFFFFF;" d="M211.5017,283.4437h3.1973v1.9043c0.416-0.6509,0.9766-1.1797,1.6855-1.5869
				c0.707-0.4067,1.4932-0.6104,2.3555-0.6104c1.5059,0,2.7832,0.5903,3.833,1.77c1.0498,1.1802,1.5752,2.8242,1.5752,4.9316
				c0,2.165-0.5293,3.8472-1.5879,5.0474c-1.0576,1.2007-2.3389,1.8008-3.8447,1.8008c-0.7158,0-1.3652-0.1426-1.9473-0.4272
				s-1.1943-0.7729-1.8369-1.4648v6.5308h-3.4297V283.4437z M214.8942,289.7059c0,1.457,0.2891,2.5327,0.8672,3.229
				c0.5781,0.6953,1.2813,1.0435,2.1113,1.0435c0.7979,0,1.4609-0.3193,1.9902-0.9585c0.5293-0.6387,0.793-1.686,0.793-3.1431
				c0-1.3589-0.2725-2.3682-0.8174-3.0273s-1.2207-0.9888-2.0264-0.9888c-0.8379,0-1.5342,0.3232-2.0879,0.9707
				C215.1716,287.4779,214.8942,288.4364,214.8942,289.7059z"/>
			<path style="fill:#FFFFFF;" d="M226.8708,296.4076v-17.8955h3.4297v17.8955H226.8708z"/>
			<path style="fill:#FFFFFF;" d="M233.0222,289.7425c0-1.1392,0.2803-2.2417,0.8428-3.3081
				c0.5605-1.0659,1.3564-1.8799,2.3857-2.4414s2.1787-0.8423,3.4482-0.8423c1.9619,0,3.5693,0.6367,4.8223,1.9102
				c1.2529,1.2739,1.8799,2.8833,1.8799,4.8281c0,1.9614-0.6328,3.5869-1.8984,4.877c-1.2656,1.2896-2.8584,1.9346-4.7783,1.9346
				c-1.1885,0-2.3223-0.2686-3.4004-0.8057s-1.8984-1.3242-2.459-2.3623C233.3024,292.4955,233.0222,291.2318,233.0222,289.7425z
				 M236.5378,289.9256c0,1.2861,0.3057,2.2705,0.915,2.9541c0.6113,0.6836,1.3633,1.0254,2.2588,1.0254s1.6455-0.3418,2.252-1.0254
				s0.9092-1.6763,0.9092-2.9785c0-1.2695-0.3027-2.2461-0.9092-2.9297s-1.3564-1.0254-2.252-1.0254s-1.6475,0.3418-2.2588,1.0254
				C236.8435,287.6551,236.5378,288.64,236.5378,289.9256z"/>
			<path style="fill:#FFFFFF;" d="M247.8786,292.7088l3.4424-0.5249c0.1465,0.6675,0.4434,1.1738,0.8916,1.5195
				c0.4473,0.3462,1.0742,0.519,1.8789,0.519c0.8877,0,1.5547-0.1626,2.0019-0.4883c0.3018-0.2275,0.4521-0.5327,0.4521-0.9155
				c0-0.2603-0.0811-0.4761-0.2441-0.647c-0.1709-0.1626-0.5537-0.313-1.1474-0.4517c-2.7666-0.6104-4.5205-1.1675-5.2617-1.6724
				c-1.0254-0.6997-1.5371-1.6724-1.5371-2.9175c0-1.123,0.4434-2.0669,1.3301-2.832c0.8867-0.7646,2.2627-1.1475,4.126-1.1475
				c1.7744,0,3.0928,0.2891,3.9551,0.8667c0.8623,0.5781,1.457,1.4326,1.7822,2.5635l-3.2344,0.5981
				c-0.1387-0.5044-0.4014-0.8911-0.7881-1.1597s-0.9375-0.4028-1.6533-0.4028c-0.9043,0-1.5508,0.1265-1.9414,0.3784
				c-0.2607,0.1792-0.3906,0.4111-0.3906,0.6958c0,0.2441,0.1143,0.4517,0.3418,0.6226c0.3096,0.228,1.377,0.5493,3.2041,0.9644
				c1.8271,0.415,3.1025,0.9238,3.8271,1.5259c0.7158,0.6104,1.0742,1.4609,1.0742,2.5513c0,1.1885-0.4961,2.2095-1.4893,3.064
				s-2.4619,1.2817-4.4072,1.2817c-1.7656,0-3.1631-0.3579-4.1924-1.0742C248.8689,294.9105,248.196,293.9378,247.8786,292.7088z"/>
			<path style="fill:#FFFFFF;" d="M133.7292,314.4076v-11.4531h3.7109c1.4063,0,2.3232,0.0576,2.75,0.1719
				c0.6563,0.1719,1.2061,0.5459,1.6484,1.1211c0.4424,0.5757,0.6641,1.3193,0.6641,2.2305c0,0.7031-0.1279,1.2944-0.3828,1.7734
				c-0.2549,0.4795-0.5791,0.8555-0.9727,1.1289s-0.793,0.4546-1.1992,0.543c-0.5518,0.1094-1.3516,0.1641-2.3984,0.1641h-1.5078
				v4.3203H133.7292z M136.0417,304.8919v3.25h1.2656c0.9111,0,1.5205-0.0596,1.8281-0.1797
				c0.3076-0.1196,0.5479-0.3071,0.7227-0.5625c0.1748-0.2549,0.2617-0.5518,0.2617-0.8906c0-0.4165-0.1221-0.7603-0.3672-1.0313
				c-0.2451-0.2705-0.5547-0.4399-0.9297-0.5078c-0.2764-0.0518-0.8311-0.0781-1.6641-0.0781H136.0417z"/>
			<path style="fill:#FFFFFF;" d="M146.487,314.4076h-2.1953v-8.2969h2.0391v1.1797c0.3486-0.5571,0.6631-0.9243,0.9414-1.1016
				c0.2783-0.1768,0.5947-0.2656,0.9492-0.2656c0.5,0,0.9814,0.1382,1.4453,0.4141l-0.6797,1.9141
				c-0.3701-0.2393-0.7139-0.3594-1.0313-0.3594c-0.3076,0-0.5674,0.085-0.7813,0.2539c-0.2139,0.1694-0.3818,0.4756-0.5039,0.918
				c-0.1221,0.4429-0.1836,1.3701-0.1836,2.7813V314.4076z"/>
			<path style="fill:#FFFFFF;" d="M155.4167,311.7669l2.1875,0.3672c-0.2813,0.8022-0.7256,1.4131-1.332,1.832
				c-0.6064,0.4194-1.3662,0.6289-2.2773,0.6289c-1.4424,0-2.5107-0.4712-3.2031-1.4141c-0.5469-0.7549-0.8203-1.708-0.8203-2.8594
				c0-1.375,0.3594-2.4517,1.0781-3.2305c0.7188-0.7783,1.6279-1.168,2.7266-1.168c1.2344,0,2.208,0.4077,2.9219,1.2227
				c0.7139,0.8154,1.0547,2.064,1.0234,3.7461h-5.5c0.0156,0.6514,0.1924,1.1577,0.5313,1.5195
				c0.3389,0.3623,0.7607,0.543,1.2656,0.543c0.3438,0,0.6328-0.0938,0.8672-0.2813S155.2966,312.1839,155.4167,311.7669z
				 M155.5417,309.5482c-0.0156-0.6353-0.1797-1.1182-0.4922-1.4492c-0.3125-0.3306-0.6924-0.4961-1.1406-0.4961
				c-0.4795,0-0.875,0.1748-1.1875,0.5234c-0.3125,0.3491-0.4658,0.8232-0.4609,1.4219H155.5417z"/>
			<path style="fill:#FFFFFF;" d="M159.3073,314.9544l2.5078,0.3047c0.042,0.2915,0.1377,0.4922,0.2891,0.6016
				c0.208,0.1563,0.5361,0.2344,0.9844,0.2344c0.5732,0,1.0029-0.0859,1.2891-0.2578c0.1924-0.1147,0.3389-0.2998,0.4375-0.5547
				c0.0674-0.1826,0.1016-0.5186,0.1016-1.0078v-1.2109c-0.6563,0.896-1.4844,1.3438-2.4844,1.3438
				c-1.1143,0-1.9971-0.4712-2.6484-1.4141c-0.5107-0.7446-0.7656-1.6719-0.7656-2.7813c0-1.3906,0.335-2.4531,1.0039-3.1875
				s1.501-1.1016,2.4961-1.1016c1.0264,0,1.8721,0.4507,2.5391,1.3516v-1.1641h2.0547v7.4453c0,0.979-0.0811,1.7109-0.2422,2.1953
				s-0.3877,0.8643-0.6797,1.1406c-0.292,0.2759-0.6807,0.4922-1.168,0.6484s-1.1025,0.2344-1.8477,0.2344
				c-1.4063,0-2.4033-0.2412-2.9922-0.7227c-0.5889-0.4819-0.8828-1.0928-0.8828-1.832
				C159.2995,315.1468,159.3024,315.0584,159.3073,314.9544z M161.2683,310.0872c0,0.8804,0.1709,1.5249,0.5117,1.9336
				c0.3408,0.4092,0.7617,0.6133,1.2617,0.6133c0.5361,0,0.9893-0.2095,1.3594-0.6289c0.3701-0.4189,0.5547-1.04,0.5547-1.8633
				c0-0.8594-0.1768-1.4971-0.5313-1.9141c-0.3545-0.4165-0.8018-0.625-1.3438-0.625c-0.5264,0-0.96,0.2046-1.3008,0.6133
				C161.4392,308.6253,161.2683,309.2489,161.2683,310.0872z"/>
			<path style="fill:#FFFFFF;" d="M174.7448,314.4076v-1.2422c-0.3018,0.4429-0.6992,0.792-1.1914,1.0469
				s-1.0117,0.3828-1.5586,0.3828c-0.5576,0-1.0576-0.1226-1.5-0.3672s-0.7627-0.5884-0.9609-1.0313
				c-0.1982-0.4424-0.2969-1.0547-0.2969-1.8359v-5.25h2.1953v3.8125c0,1.167,0.04,1.8818,0.1211,2.1445
				c0.0811,0.2632,0.2275,0.4717,0.4414,0.625c0.2139,0.1538,0.4844,0.2305,0.8125,0.2305c0.375,0,0.7109-0.1025,1.0078-0.3086
				c0.2969-0.2056,0.5-0.4609,0.6094-0.7656s0.1641-1.0508,0.1641-2.2383v-3.5h2.1953v8.2969H174.7448z"/>
			<path style="fill:#FFFFFF;" d="M186.6042,314.4076h-2.1953v-4.2344c0-0.8955-0.0469-1.4751-0.1406-1.7383
				c-0.0938-0.2627-0.2461-0.4673-0.457-0.6133c-0.2109-0.1455-0.4648-0.2188-0.7617-0.2188c-0.3799,0-0.7217,0.1045-1.0234,0.3125
				c-0.3018,0.2085-0.5088,0.4844-0.6211,0.8281s-0.168,0.9795-0.168,1.9063v3.7578h-2.1953v-8.2969h2.0391v1.2188
				c0.7236-0.9375,1.6357-1.4063,2.7344-1.4063c0.4844,0,0.9268,0.0874,1.3281,0.2617c0.4014,0.1748,0.7041,0.3975,0.9102,0.668
				c0.2061,0.271,0.3486,0.5781,0.4297,0.9219s0.1211,0.8359,0.1211,1.4766V314.4076z"/>
			<path style="fill:#FFFFFF;" d="M192.6355,306.1107v1.75h-1.5v3.3438c0,0.6772,0.0146,1.0718,0.043,1.1836
				c0.0283,0.1123,0.0938,0.2046,0.1953,0.2773c0.1016,0.0732,0.2256,0.1094,0.3711,0.1094c0.2031,0,0.4971-0.0703,0.8828-0.2109
				l0.1875,1.7031c-0.5107,0.2188-1.0889,0.3281-1.7344,0.3281c-0.3955,0-0.7529-0.0664-1.0703-0.1992s-0.5508-0.3047-0.6992-0.5156
				s-0.251-0.4961-0.3086-0.8555c-0.0469-0.2549-0.0703-0.7705-0.0703-1.5469v-3.6172h-1.0078v-1.75h1.0078v-1.6484l2.2031-1.2813
				v2.9297H192.6355z"/>
			<path style="fill:#FFFFFF;" d="M195.7995,308.6419l-1.9922-0.3594c0.2236-0.8018,0.6094-1.3955,1.1563-1.7813
				c0.5469-0.3853,1.3594-0.5781,2.4375-0.5781c0.9795,0,1.708,0.1162,2.1875,0.3477c0.4795,0.2319,0.8164,0.5264,1.0117,0.8828
				c0.1953,0.3569,0.293,1.0117,0.293,1.9648l-0.0234,2.5625c0,0.7295,0.0352,1.2671,0.1055,1.6133
				c0.0703,0.3467,0.2021,0.7178,0.3945,1.1133h-2.1719c-0.0576-0.1455-0.1279-0.3618-0.2109-0.6484
				c-0.0361-0.1299-0.0625-0.2158-0.0781-0.2578c-0.375,0.3647-0.7764,0.6382-1.2031,0.8203s-0.8828,0.2734-1.3672,0.2734
				c-0.8545,0-1.5273-0.2314-2.0195-0.6953c-0.4922-0.4634-0.7383-1.0493-0.7383-1.7578c0-0.4688,0.1123-0.8867,0.3359-1.2539
				s0.5381-0.6484,0.9414-0.8438s0.9854-0.3657,1.7461-0.5117c1.0264-0.1924,1.7373-0.3721,2.1328-0.5391v-0.2188
				c0-0.4219-0.1045-0.7227-0.3125-0.9023s-0.6016-0.2695-1.1797-0.2695c-0.3906,0-0.6953,0.0771-0.9141,0.2305
				C196.112,307.9872,195.9353,308.2567,195.7995,308.6419z M198.737,310.4232c-0.2813,0.0938-0.7266,0.2061-1.3359,0.3359
				c-0.6094,0.1304-1.0078,0.2578-1.1953,0.3828c-0.2861,0.2031-0.4297,0.4609-0.4297,0.7734c0,0.3076,0.1143,0.5732,0.3438,0.7969
				c0.2295,0.2241,0.5205,0.3359,0.875,0.3359c0.3955,0,0.7734-0.1299,1.1328-0.3906c0.2656-0.1978,0.4404-0.4399,0.5234-0.7266
				c0.0576-0.1875,0.0859-0.5439,0.0859-1.0703V310.4232z"/>
			<path style="fill:#FFFFFF;" d="M202.2839,312.0404l2.2031-0.3359c0.0938,0.4272,0.2842,0.7515,0.5703,0.9727
				c0.2861,0.2217,0.6875,0.332,1.2031,0.332c0.5674,0,0.9951-0.104,1.2813-0.3125c0.1924-0.1455,0.2891-0.3408,0.2891-0.5859
				c0-0.1665-0.0518-0.3047-0.1563-0.4141c-0.1094-0.104-0.3545-0.2002-0.7344-0.2891c-1.7705-0.3906-2.8936-0.7471-3.3672-1.0703
				c-0.6563-0.4478-0.9844-1.0703-0.9844-1.8672c0-0.7188,0.2842-1.3228,0.8516-1.8125c0.5674-0.4893,1.4482-0.7344,2.6406-0.7344
				c1.1357,0,1.9795,0.1851,2.5313,0.5547c0.5518,0.3701,0.9326,0.917,1.1406,1.6406l-2.0703,0.3828
				c-0.0889-0.3228-0.2568-0.5703-0.5039-0.7422s-0.6006-0.2578-1.0586-0.2578c-0.5781,0-0.9922,0.0811-1.2422,0.2422
				c-0.167,0.1147-0.25,0.2632-0.25,0.4453c0,0.1563,0.0732,0.2891,0.2188,0.3984c0.1982,0.146,0.8818,0.3516,2.0508,0.6172
				s1.9854,0.5913,2.4492,0.9766c0.458,0.3906,0.6875,0.9351,0.6875,1.6328c0,0.7607-0.3174,1.4141-0.9531,1.9609
				s-1.5752,0.8203-2.8203,0.8203c-1.1299,0-2.0244-0.229-2.6836-0.6875C202.9177,313.4496,202.487,312.827,202.2839,312.0404z"/>
			<path style="fill:#FFFFFF;" d="M226.1511,314.4076h-2.5156l-1-2.6016h-4.5781l-0.9453,2.6016h-2.4531l4.4609-11.4531h2.4453
				L226.1511,314.4076z M221.8933,309.8763l-1.5781-4.25l-1.5469,4.25H221.8933z"/>
			<path style="fill:#FFFFFF;" d="M227.2683,314.4076v-11.4531h2.1953v4.125c0.6768-0.7705,1.4795-1.1563,2.4063-1.1563
				c1.0107,0,1.8467,0.3662,2.5078,1.0977c0.6611,0.7319,0.9922,1.7827,0.9922,3.1523c0,1.417-0.3369,2.5078-1.0117,3.2734
				s-1.4932,1.1484-2.457,1.1484c-0.4736,0-0.9414-0.1187-1.4023-0.3555s-0.8584-0.5869-1.1914-1.0508v1.2188H227.2683z
				 M229.448,310.0794c0,0.8594,0.1357,1.4951,0.4063,1.9063c0.3799,0.5835,0.8857,0.875,1.5156,0.875
				c0.4844,0,0.8975-0.207,1.2383-0.6211s0.5117-1.0664,0.5117-1.957c0-0.9478-0.1719-1.6313-0.5156-2.0508
				c-0.3438-0.4189-0.7842-0.6289-1.3203-0.6289c-0.5264,0-0.9639,0.2046-1.3125,0.6133
				C229.6228,308.6253,229.448,309.2464,229.448,310.0794z"/>
			<path style="fill:#FFFFFF;" d="M237.1355,304.9857v-2.0313h2.1953v2.0313H237.1355z M237.1355,314.4076v-8.2969h2.1953v8.2969
				H237.1355z"/>
			<path style="fill:#FFFFFF;" d="M246.3855,311.7669l2.1875,0.3672c-0.2813,0.8022-0.7256,1.4131-1.332,1.832
				c-0.6064,0.4194-1.3662,0.6289-2.2773,0.6289c-1.4424,0-2.5107-0.4712-3.2031-1.4141c-0.5469-0.7549-0.8203-1.708-0.8203-2.8594
				c0-1.375,0.3594-2.4517,1.0781-3.2305c0.7188-0.7783,1.6279-1.168,2.7266-1.168c1.2344,0,2.208,0.4077,2.9219,1.2227
				c0.7139,0.8154,1.0547,2.064,1.0234,3.7461h-5.5c0.0156,0.6514,0.1924,1.1577,0.5313,1.5195
				c0.3389,0.3623,0.7607,0.543,1.2656,0.543c0.3438,0,0.6328-0.0938,0.8672-0.2813S246.2653,312.1839,246.3855,311.7669z
				 M246.5105,309.5482c-0.0156-0.6353-0.1797-1.1182-0.4922-1.4492c-0.3125-0.3306-0.6924-0.4961-1.1406-0.4961
				c-0.4795,0-0.875,0.1748-1.1875,0.5234c-0.3125,0.3491-0.4658,0.8232-0.4609,1.4219H246.5105z"/>
			<path style="fill:#FFFFFF;" d="M252.5808,314.4076h-2.1953v-8.2969h2.0391v1.1797c0.3486-0.5571,0.6631-0.9243,0.9414-1.1016
				c0.2783-0.1768,0.5947-0.2656,0.9492-0.2656c0.5,0,0.9814,0.1382,1.4453,0.4141l-0.6797,1.9141
				c-0.3701-0.2393-0.7139-0.3594-1.0313-0.3594c-0.3076,0-0.5674,0.085-0.7813,0.2539c-0.2139,0.1694-0.3818,0.4756-0.5039,0.918
				c-0.1221,0.4429-0.1836,1.3701-0.1836,2.7813V314.4076z"/>
			<path style="fill:#FFFFFF;" d="M260.5104,306.1107v1.75h-1.5v3.3438c0,0.6772,0.0146,1.0718,0.043,1.1836
				c0.0283,0.1123,0.0938,0.2046,0.1953,0.2773c0.1016,0.0732,0.2256,0.1094,0.3711,0.1094c0.2031,0,0.4971-0.0703,0.8828-0.2109
				l0.1875,1.7031c-0.5107,0.2188-1.0889,0.3281-1.7344,0.3281c-0.3955,0-0.7529-0.0664-1.0703-0.1992s-0.5508-0.3047-0.6992-0.5156
				s-0.251-0.4961-0.3086-0.8555c-0.0469-0.2549-0.0703-0.7705-0.0703-1.5469v-3.6172h-1.0078v-1.75h1.0078v-1.6484l2.2031-1.2813
				v2.9297H260.5104z"/>
			<path style="fill:#FFFFFF;" d="M263.6745,308.6419l-1.9922-0.3594c0.2236-0.8018,0.6094-1.3955,1.1563-1.7813
				c0.5469-0.3853,1.3594-0.5781,2.4375-0.5781c0.9795,0,1.708,0.1162,2.1875,0.3477c0.4795,0.2319,0.8164,0.5264,1.0117,0.8828
				c0.1953,0.3569,0.293,1.0117,0.293,1.9648l-0.0234,2.5625c0,0.7295,0.0352,1.2671,0.1055,1.6133
				c0.0703,0.3467,0.2021,0.7178,0.3945,1.1133h-2.1719c-0.0576-0.1455-0.1279-0.3618-0.2109-0.6484
				c-0.0361-0.1299-0.0625-0.2158-0.0781-0.2578c-0.375,0.3647-0.7764,0.6382-1.2031,0.8203s-0.8828,0.2734-1.3672,0.2734
				c-0.8545,0-1.5273-0.2314-2.0195-0.6953c-0.4922-0.4634-0.7383-1.0493-0.7383-1.7578c0-0.4688,0.1123-0.8867,0.3359-1.2539
				s0.5381-0.6484,0.9414-0.8438s0.9854-0.3657,1.7461-0.5117c1.0264-0.1924,1.7373-0.3721,2.1328-0.5391v-0.2188
				c0-0.4219-0.1045-0.7227-0.3125-0.9023s-0.6016-0.2695-1.1797-0.2695c-0.3906,0-0.6953,0.0771-0.9141,0.2305
				C263.987,307.9872,263.8102,308.2567,263.6745,308.6419z M266.612,310.4232c-0.2813,0.0938-0.7266,0.2061-1.3359,0.3359
				c-0.6094,0.1304-1.0078,0.2578-1.1953,0.3828c-0.2861,0.2031-0.4297,0.4609-0.4297,0.7734c0,0.3076,0.1143,0.5732,0.3438,0.7969
				c0.2295,0.2241,0.5205,0.3359,0.875,0.3359c0.3955,0,0.7734-0.1299,1.1328-0.3906c0.2656-0.1978,0.4404-0.4399,0.5234-0.7266
				c0.0576-0.1875,0.0859-0.5439,0.0859-1.0703V310.4232z"/>
			<path style="fill:#FFFFFF;" d="M270.1589,312.0404l2.2031-0.3359c0.0938,0.4272,0.2842,0.7515,0.5703,0.9727
				c0.2861,0.2217,0.6875,0.332,1.2031,0.332c0.5674,0,0.9951-0.104,1.2813-0.3125c0.1924-0.1455,0.2891-0.3408,0.2891-0.5859
				c0-0.1665-0.0518-0.3047-0.1563-0.4141c-0.1094-0.104-0.3545-0.2002-0.7344-0.2891c-1.7705-0.3906-2.8936-0.7471-3.3672-1.0703
				c-0.6563-0.4478-0.9844-1.0703-0.9844-1.8672c0-0.7188,0.2842-1.3228,0.8516-1.8125c0.5674-0.4893,1.4482-0.7344,2.6406-0.7344
				c1.1357,0,1.9795,0.1851,2.5313,0.5547c0.5518,0.3701,0.9326,0.917,1.1406,1.6406l-2.0703,0.3828
				c-0.0889-0.3228-0.2568-0.5703-0.5039-0.7422s-0.6006-0.2578-1.0586-0.2578c-0.5781,0-0.9922,0.0811-1.2422,0.2422
				c-0.167,0.1147-0.25,0.2632-0.25,0.4453c0,0.1563,0.0732,0.2891,0.2188,0.3984c0.1982,0.146,0.8818,0.3516,2.0508,0.6172
				s1.9854,0.5913,2.4492,0.9766c0.458,0.3906,0.6875,0.9351,0.6875,1.6328c0,0.7607-0.3174,1.4141-0.9531,1.9609
				s-1.5752,0.8203-2.8203,0.8203c-1.1299,0-2.0244-0.229-2.6836-0.6875C270.7927,313.4496,270.362,312.827,270.1589,312.0404z"/>
		</g>
	</g>
	<g>
		<g>
			<circle style="fill:#D37611;" cx="221.4874" cy="43.7863" r="43.7863"/>
			<circle style="fill:#D19213;" cx="221.4874" cy="43.7863" r="36.037"/>
		</g>
		<g>
			<g>
				<path style="fill:#FFFFFF;" d="M227.2365,54.1807h-13.6953v-1.3694c0-2.3303,0.2637-4.2224,0.793-5.6765
					c0.5283-1.4534,1.3154-2.7808,2.3604-3.9824c1.0449-1.2012,3.3936-3.3157,7.0459-6.3433
					c1.9463-1.5857,2.9199-3.0393,2.9199-4.3608c0-1.321-0.3916-2.3484-1.1719-3.0815c-0.7813-0.7327-1.9639-1.0991-3.5498-1.0991
					c-1.7061,0-3.1172,0.5647-4.2354,1.6938c-1.1172,1.1296-1.832,3.0994-2.1436,5.9106l-13.9844-1.73
					c0.4805-5.1414,2.3486-9.2805,5.6045-12.416s8.2471-4.7034,14.9746-4.7034c5.2383,0,9.4668,1.0938,12.6865,3.2798
					c4.373,2.9553,6.5596,6.8962,6.5596,11.8213c0,2.0425-0.5645,4.0129-1.6943,5.9106c-1.1289,1.8984-3.4355,4.2168-6.9199,6.9561
					c-2.4268,1.9224-3.958,3.4661-4.5947,4.6311C227.5549,50.7874,227.2365,52.3067,227.2365,54.1807z M213.0725,57.8209h14.6689
					v12.9387h-14.6689V57.8209z"/>
			</g>
		</g>
	</g>
	<g id="XMLID_5534_">
		<path id="XMLID_5542_" style="fill:#FFFFFF;stroke:#0F4F72;stroke-miterlimit:10;" d="M423.9698,33.7916
			c0.963,0.9631,0.963,2.5249,0,3.4879l-2.1796,2.1795l2.1798,2.1798c0.963,0.9631,0.9628,2.5245-0.0002,3.4876
			c-0.9631,0.9631-2.5246,0.9633-3.4876,0.0003l-2.1797-2.1798l-2.1795,2.1795c-0.963,0.963-2.5248,0.963-3.4879-0.0001
			c-0.9631-0.9631-0.9628-2.5246,0.0002-3.4876l2.1795-2.1795l-2.1797-2.1798c-0.9631-0.9631-0.9631-2.5249,0-3.4879
			c0.963-0.9631,2.5248-0.963,3.4879,0.0001l2.1797,2.1798l2.1795-2.1795C421.4455,32.8285,423.0067,32.8285,423.9698,33.7916
			L423.9698,33.7916z M423.9698,33.7916"/>
		<path id="XMLID_5538_" style="fill:#2A4690;" d="M406.0456,51.7157c-6.7323-6.7323-6.7321-17.6867,0.0003-24.4191
			c6.7321-6.7321,17.6865-6.7323,24.4189,0c6.7324,6.7324,6.7327,17.6867,0.0003,24.4191
			C423.7326,58.4481,412.778,58.4481,406.0456,51.7157L406.0456,51.7157z M427.7948,29.9666c-5.2602-5.2602-13.819-5.26-19.0789,0
			c-5.2603,5.2603-5.2602,13.8192-0.0003,19.0792c5.2603,5.2603,13.8192,5.2603,19.0794,0
			C433.055,43.7858,433.0551,35.2268,427.7948,29.9666L427.7948,29.9666z M428.7462,29.0152"/>
	</g>
</g>
</svg>
