<?xml version="1.0" encoding="utf-8"?>
<!-- Generator: Adobe Illustrator 21.0.2, SVG Export Plug-In . SVG Version: 6.00 Build 0)  -->
<svg version="1.1" id="Capa_1" xmlns="http://www.w3.org/2000/svg" xmlns:xlink="http://www.w3.org/1999/xlink" x="0px" y="0px"
	 viewBox="0 0 249.4977 171.0017" style="enable-background:new 0 0 249.4977 171.0017;" xml:space="preserve">
<g id="Tablet_2_">
	<g>
		<path style="fill:#34495E;" d="M187.9829,82.3846c0,9.1111-1.1993,8.5924-10.3086,8.5924H71.4837
			c-9.111,0-9.9659-0.8546-9.9659-9.9659V9.8719c0-9.111,1.8868-9.6212,10.9963-9.6212L174.5814,0.147
			c9.1095,0,13.3111-1.8131,13.3111,7.298L187.9829,82.3846z"/>
		<path style="opacity:0.8;fill:#FFFFFF;" d="M180.4224,77.9737c0,8.0221-1.0538,7.5637-9.0759,7.5637H77.8534
			c-8.0221,0-8.7748-0.7527-8.7748-8.7748v-62.632c0-8.0205,1.6592-8.4721,9.6813-8.4721l89.8633-0.0903
			c8.0224,0,11.7189-1.5958,11.7189,6.4264L180.4224,77.9737z"/>
		<path style="fill:#1ABC9C;" d="M91.0709,71.7313c0,3.7969-3.0778,6.8747-6.8715,6.8747l0,0c-3.7969,0-6.8747-3.0778-6.8747-6.8747
			V20.527c0-3.797,3.0778-6.8747,6.8747-6.8747l0,0c3.7937,0,6.8715,3.0777,6.8715,6.8747V71.7313z"/>
		<rect x="100.0063" y="16.4022" style="fill:#F4BD42;" width="48.7991" height="59.4539"/>
		<path style="fill:#1ABC9C;" d="M153.273,16.4022v9.9659h21.9959v-9.9659H153.273z M173.7216,25.3376h-19.0719v-7.9051h19.0719
			V25.3376z"/>
		<rect x="153.273" y="33.8131" style="fill:#1ABC9C;" width="21.9959" height="9.9659"/>
		<rect x="153.273" y="51.9132" style="fill:#1ABC9C;" width="21.9959" height="9.9658"/>
		<rect x="153.273" y="66.0609" style="fill:#1ABC9C;" width="21.9959" height="9.9659"/>
	</g>
	<g>
		<path style="fill:#F7C7B0;" d="M23.0261,120.6638l6.5302-29.5564c0,0,0.3427-4.8105,8.9354-13.4032
			c8.5909-8.5909,23.0261-27.3198,23.0261-27.3198v25.8043l-6.53,11.9982l18.212-20.7913c0,0,12.3745-6.2224,10.3874,7.5421
			c0,0-15.5424,22.0124-15.8854,23.7304c-0.343,1.7194-0.6875,10.6533-7.5604,20.2762c-6.8732,9.6229-7.2177,12.7158-7.2177,12.7158
			l-1.375,2.0607L23.0261,120.6638z"/>
		<path style="fill:#586771;" d="M18.9013,119.2889l38.1473,14.4319c0,0-3.0929,14.7782-8.2479,27.4939
			C43.6471,173.9305,0,170.4931,0,170.4931l4.1248-13.746L18.9013,119.2889z"/>
		<path style="fill:#00BB83;" d="M57.0485,133.7208l-38.1473-14.4319l-3.3889,8.5944l39.3584,14.7681
			C56.279,137.394,57.0485,133.7208,57.0485,133.7208z"/>
		<path style="opacity:0.3;fill:#FFFFFF;" d="M72.5142,69.2606l9.4006,6.9282C81.9147,76.1888,85.0493,62.498,72.5142,69.2606z"/>
		<path style="opacity:0.2;" d="M57.0485,133.7208l-19.4266-7.3497l-16.2668,44.3127c11.8745-0.6506,24.7842-2.9055,27.4455-9.4691
			c4.931-12.1637,7.9737-26.2058,8.2279-27.4018C57.0417,133.7594,57.0485,133.7208,57.0485,133.7208z"/>
	</g>
	<g>
		<path style="fill:#F7C7B0;" d="M226.4731,120.7476l-6.5285-29.5549c0,0-0.3445-4.8123-8.9354-13.4032
			c-8.5909-8.5909-23.0264-27.3198-23.0264-27.3198v25.8028l6.5302,11.9982l-18.2155-20.7916c0,0-12.6171-6.7174-10.3974,7.5253
			c0,0,15.5527,22.031,15.8972,23.749c0.3445,1.7177,0.6875,10.6533,7.5604,20.2762c6.8732,9.6229,7.216,12.714,7.216,12.714
			l1.3767,2.0624L226.4731,120.7476z"/>
		<path style="fill:#586771;" d="M230.598,119.3727l-38.1473,14.4334c0,0,3.0929,14.7782,8.2479,27.4939
			c5.1553,12.7158,48.7991,9.2784,48.7991,9.2784l-4.1216-13.7459L230.598,119.3727z"/>
		<path style="fill:#00BB83;" d="M192.4507,133.8061l38.1473-14.4334l3.3889,8.5942l-39.3584,14.7699
			C193.2202,137.4793,192.4507,133.8061,192.4507,133.8061z"/>
		<path style="opacity:0.3;fill:#FFFFFF;" d="M176.9868,69.3442l-9.4038,6.9284C167.583,76.2726,164.45,62.5833,176.9868,69.3442z"
			/>
		<path style="opacity:0.2;" d="M192.4507,133.8061l19.4282-7.3515l16.2653,44.3145c-11.8745-0.6506-24.7842-2.9055-27.4455-9.4691
			c-4.931-12.1637-7.9737-26.2058-8.2296-27.4018C192.459,133.8447,192.4507,133.8061,192.4507,133.8061z"/>
	</g>
</g>
</svg>
