<?xml version="1.0" encoding="utf-8"?>
<!-- Generator: Adobe Illustrator 21.0.2, SVG Export Plug-In . SVG Version: 6.00 Build 0)  -->
<svg version="1.1" id="Capa_1" xmlns="http://www.w3.org/2000/svg" xmlns:xlink="http://www.w3.org/1999/xlink" x="0px" y="0px"
	 viewBox="0 0 354.9288 263.7818" style="enable-background:new 0 0 354.9288 263.7818;" xml:space="preserve">
<g>
	<g>
		<path style="fill:#348EA9;" d="M14.7597,12.5729c3.4761,0,6.2926-2.8196,6.2926-6.2894C21.0523,2.8145,18.2359,0,14.7597,0
			C11.291,0,8.4796,2.8145,8.4796,6.2835C8.4796,9.7534,11.291,12.5729,14.7597,12.5729z M29.125,20.6446
			c0-3.1688-2.568-5.7338-5.7328-5.7338H5.7288C2.568,14.9108,0,17.4758,0,20.6446l0.0185,23.1417
			c0,1.3836,1.1175,2.5053,2.4981,2.5053c1.3815,0,2.5002-1.1217,2.5002-2.5053v-21.151h1.0601V79.206
			c0,2.0709,1.6783,3.7492,3.7564,3.7492c2.0648,0,3.7431-1.6783,3.7431-3.7492V48.23h2.0503v30.9668
			c0,2.0759,1.6785,3.7585,3.7566,3.7585c2.0625,0,3.7421-1.6825,3.7421-3.7585V22.6353h1.0098v21.0668
			c0,1.3857,1.1185,2.5093,2.5042,2.5093c1.3857,0,2.5032-1.1236,2.5032-2.5093L29.125,20.6446z"/>
	</g>
	<g>
		<path style="fill:#348EA9;" d="M50.9582,12.5729c3.4759,0,6.2926-2.8196,6.2926-6.2894C57.2508,2.8145,54.4342,0,50.9582,0
			c-3.469,0-6.2804,2.8145-6.2804,6.2835C44.6779,9.7534,47.4892,12.5729,50.9582,12.5729z M65.3235,20.6446
			c0-3.1688-2.568-5.7338-5.7328-5.7338H41.9271c-3.1608,0-5.7288,2.565-5.7288,5.7338l0.0185,23.1417
			c0,1.3836,1.1177,2.5053,2.4992,2.5053c1.3807,0,2.4992-1.1217,2.4992-2.5053v-21.151h1.0601V79.206
			c0,2.0709,1.6785,3.7492,3.7566,3.7492c2.0635,0,3.7431-1.6783,3.7431-3.7492V48.23h2.0503v30.9668
			c0,2.0759,1.6783,3.7585,3.7564,3.7585c2.0627,0,3.7421-1.6825,3.7421-3.7585V22.6353h1.0098v21.0668
			c0,1.3857,1.1185,2.5093,2.5042,2.5093c1.3857,0,2.5034-1.1236,2.5034-2.5093L65.3235,20.6446z"/>
	</g>
	<g>
		<path style="fill:#348EA9;" d="M87.1565,12.5729c3.4759,0,6.2926-2.8196,6.2926-6.2894C93.4491,2.8145,90.6325,0,87.1565,0
			c-3.4688,0-6.2804,2.8145-6.2804,6.2835C80.8762,9.7534,83.6877,12.5729,87.1565,12.5729z M101.5208,20.6446
			c0-3.1688-2.5669-5.7338-5.7317-5.7338H78.1254c-3.1606,0-5.7286,2.565-5.7286,5.7338l0.0185,23.1417
			c0,1.3836,1.1175,2.5053,2.499,2.5053c1.3807,0,2.4992-1.1217,2.4992-2.5053v-21.151h1.0592V79.206
			c0,2.0709,1.6794,3.7492,3.7564,3.7492c2.0646,0,3.7442-1.6783,3.7442-3.7492V48.23h2.0503v30.9668
			c0,2.0759,1.6783,3.7585,3.7564,3.7585c2.0648,0,3.7431-1.6825,3.7431-3.7585V22.6353h1.0087v21.0668
			c0,1.3857,1.1188,2.5093,2.5045,2.5093c1.3847,0,2.5032-1.1236,2.5032-2.5093L101.5208,20.6446z"/>
	</g>
	<g>
		<path style="fill:#348EA9;" d="M123.3548,12.5729c3.4761,0,6.2926-2.8196,6.2926-6.2894c0-3.469-2.8164-6.2835-6.2926-6.2835
			c-3.4688,0-6.2802,2.8145-6.2802,6.2835C117.0747,9.7534,119.886,12.5729,123.3548,12.5729z M137.7191,20.6446
			c0-3.1688-2.5669-5.7338-5.7317-5.7338h-17.6637c-3.1606,0-5.7286,2.565-5.7286,5.7338l0.0185,23.1417
			c0,1.3836,1.1175,2.5053,2.4992,2.5053c1.3804,0,2.4992-1.1217,2.4992-2.5053v-21.151h1.059V79.206
			c0,2.0709,1.6794,3.7492,3.7564,3.7492c2.0648,0,3.7442-1.6783,3.7442-3.7492V48.23h2.0503v30.9668
			c0,2.0759,1.6785,3.7585,3.7566,3.7585c2.0646,0,3.7431-1.6825,3.7431-3.7585V22.6353h1.0087v21.0668
			c0,1.3857,1.1185,2.5093,2.5042,2.5093c1.3847,0,2.5032-1.1236,2.5032-2.5093L137.7191,20.6446z"/>
	</g>
	<g>
		<path style="fill:#348EA9;" d="M159.5531,12.5729c3.4762,0,6.2928-2.8196,6.2928-6.2894c0-3.469-2.8166-6.2835-6.2928-6.2835
			c-3.4677,0-6.2802,2.8145-6.2802,6.2835C153.2729,9.7534,156.0854,12.5729,159.5531,12.5729z M173.9176,20.6446
			c0-3.1688-2.5669-5.7338-5.7317-5.7338h-17.6637c-3.1619,0-5.7288,2.565-5.7288,5.7338l0.0175,23.1417
			c0,1.3836,1.1187,2.5053,2.5002,2.5053c1.3807,0,2.5002-1.1217,2.5002-2.5053v-21.151h1.058V79.206
			c0,2.0709,1.6796,3.7492,3.7566,3.7492c2.0646,0,3.744-1.6783,3.744-3.7492V48.23h2.0505v30.9668
			c0,2.0759,1.6783,3.7585,3.7564,3.7585c2.0637,0,3.7431-1.6825,3.7431-3.7585V22.6353h1.0087v21.0668
			c0,1.3857,1.1185,2.5093,2.5042,2.5093c1.3846,0,2.5042-1.1236,2.5042-2.5093L173.9176,20.6446z"/>
	</g>
	<g>
		<path style="fill:#348EA9;" d="M195.7516,12.5729c3.4759,0,6.2926-2.8196,6.2926-6.2894c0-3.469-2.8166-6.2835-6.2926-6.2835
			c-3.4679,0-6.2804,2.8145-6.2804,6.2835C189.4712,9.7534,192.2837,12.5729,195.7516,12.5729z M210.1158,20.6446
			c0-3.1688-2.5669-5.7338-5.7317-5.7338h-17.6647c-3.1606,0-5.7275,2.565-5.7275,5.7338l0.0175,23.1417
			c0,1.3836,1.1185,2.5053,2.5,2.5053c1.3807,0,2.5002-1.1217,2.5002-2.5053v-21.151h1.058V79.206
			c0,2.0709,1.6796,3.7492,3.7587,3.7492c2.0625,0,3.7421-1.6783,3.7421-3.7492V48.23h2.0492v30.9668
			c0,2.0759,1.6794,3.7585,3.7563,3.7585c2.0648,0,3.7442-1.6825,3.7442-3.7585V22.6353h1.0087v21.0668
			c0,1.3857,1.1187,2.5093,2.5034,2.5093c1.3857,0,2.5053-1.1236,2.5053-2.5093L210.1158,20.6446z"/>
	</g>
	<g>
		<path style="fill:#348EA9;" d="M231.9499,12.5729c3.4762,0,6.2926-2.8196,6.2926-6.2894c0-3.469-2.8164-6.2835-6.2926-6.2835
			c-3.4677,0-6.2802,2.8145-6.2802,6.2835C225.6697,9.7534,228.4822,12.5729,231.9499,12.5729z M246.3152,20.6446
			c0-3.1688-2.569-5.7338-5.7328-5.7338h-17.6645c-3.1608,0-5.7277,2.565-5.7277,5.7338l0.0175,23.1417
			c0,1.3836,1.1196,2.5053,2.5002,2.5053c1.3804,0,2.5-1.1217,2.5-2.5053v-21.151h1.0592V79.206
			c0,2.0709,1.6783,3.7492,3.7563,3.7492c2.0637,0,3.7421-1.6783,3.7421-3.7492V48.23h2.0503v30.9668
			c0,2.0759,1.6796,3.7585,3.7566,3.7585c2.0646,0,3.7442-1.6825,3.7442-3.7585V22.6353h1.0087v21.0668
			c0,1.3857,1.1185,2.5093,2.5032,2.5093c1.3857,0,2.5053-1.1236,2.5053-2.5093L246.3152,20.6446z"/>
	</g>
	<g>
		<path style="fill:#348EA9;" d="M268.1482,12.5729c3.4761,0,6.2926-2.8196,6.2926-6.2894c0-3.469-2.8164-6.2835-6.2926-6.2835
			c-3.4677,0-6.2791,2.8145-6.2791,6.2835C261.8691,9.7534,264.6805,12.5729,268.1482,12.5729z M282.5137,20.6446
			c0-3.1688-2.5691-5.7338-5.7339-5.7338h-17.6637c-3.1598,0-5.7277,2.565-5.7277,5.7338l0.0175,23.1417
			c0,1.3836,1.1198,2.5053,2.5002,2.5053c1.3807,0,2.5003-1.1217,2.5003-2.5053v-21.151h1.059V79.206
			c0,2.0709,1.6794,3.7492,3.7563,3.7492c2.0637,0,3.7423-1.6783,3.7423-3.7492V48.23h2.0503v30.9668
			c0,2.0759,1.6794,3.7585,3.7563,3.7585c2.0646,0,3.7442-1.6825,3.7442-3.7585V22.6353h1.0087v21.0668
			c0,1.3857,1.1196,2.5093,2.5032,2.5093c1.3857,0,2.5053-1.1236,2.5053-2.5093L282.5137,20.6446z"/>
	</g>
	<g>
		<path style="fill:#53BB9B;" d="M304.3456,12.5729c3.477,0,6.2936-2.8196,6.2936-6.2894c0-3.469-2.8166-6.2835-6.2936-6.2835
			c-3.4669,0-6.2783,2.8145-6.2783,6.2835C298.0674,9.7534,300.8788,12.5729,304.3456,12.5729z M318.712,20.6446
			c0-3.1688-2.569-5.7338-5.7338-5.7338h-17.6637c-3.1595,0-5.7285,2.565-5.7285,5.7338l0.0185,23.1417
			c0,1.3836,1.1196,2.5053,2.5,2.5053c1.3807,0,2.5002-1.1217,2.5002-2.5053v-21.151h1.059V79.206
			c0,2.0709,1.6796,3.7492,3.7566,3.7492c2.0635,0,3.742-1.6783,3.742-3.7492V48.23h2.0503v30.9668
			c0,2.0759,1.6794,3.7585,3.7564,3.7585c2.0648,0,3.7441-1.6825,3.7441-3.7585V22.6353h1.0087v21.0668
			c0,1.3857,1.1196,2.5093,2.5034,2.5093c1.3855,0,2.5053-1.1236,2.5053-2.5093L318.712,20.6446z"/>
	</g>
	<g>
		<path style="fill:#53BB9B;" d="M340.5439,12.5729c3.4781,0,6.2936-2.8196,6.2936-6.2894c0-3.469-2.8156-6.2835-6.2936-6.2835
			c-3.4667,0-6.2783,2.8145-6.2783,6.2835C334.2657,9.7534,337.0772,12.5729,340.5439,12.5729z M354.9103,20.6446
			c0-3.1688-2.569-5.7338-5.7339-5.7338h-17.6637c-3.1595,0-5.7286,2.565-5.7286,5.7338l0.0185,23.1417
			c0,1.3836,1.1196,2.5053,2.5002,2.5053c1.3804,0,2.5-1.1217,2.5-2.5053v-21.151h1.0592V79.206
			c0,2.0709,1.6794,3.7492,3.7563,3.7492c2.0637,0,3.7421-1.6783,3.7421-3.7492V48.23h2.0503v30.9668
			c0,2.0759,1.6796,3.7585,3.7566,3.7585c2.0646,0,3.7431-1.6825,3.7431-3.7585V22.6353h1.0096v21.0668
			c0,1.3857,1.1198,2.5093,2.5034,2.5093c1.3857,0,2.5053-1.1236,2.5053-2.5093L354.9103,20.6446z"/>
	</g>
	<g>
		<path style="fill:#53BB9B;" d="M14.7597,102.9845c3.4761,0,6.2926-2.8175,6.2926-6.2873c0-3.4698-2.8164-6.2833-6.2926-6.2833
			c-3.4688,0-6.2802,2.8135-6.2802,6.2833C8.4796,100.167,11.291,102.9845,14.7597,102.9845z M29.125,111.0583
			c0-3.1698-2.568-5.7336-5.7328-5.7336H5.7288C2.568,105.3247,0,107.8885,0,111.0583L0.0185,134.2
			c0,1.3836,1.1175,2.5053,2.4981,2.5053c1.3815,0,2.5002-1.1217,2.5002-2.5053v-21.151h1.0601v56.5698
			c0,2.0717,1.6783,3.7503,3.7564,3.7503c2.0648,0,3.7431-1.6785,3.7431-3.7503v-30.9763h2.0503v30.9679
			c0,2.0751,1.6785,3.7587,3.7566,3.7587c2.0625,0,3.7421-1.6836,3.7421-3.7587V113.049h1.0098v21.0668
			c0,1.3857,1.1185,2.5095,2.5042,2.5095c1.3857,0,2.5032-1.1238,2.5032-2.5095L29.125,111.0583z"/>
	</g>
	<g>
		<path style="fill:#53BB9B;" d="M50.9582,102.9845c3.4759,0,6.2926-2.8175,6.2926-6.2873c0-3.4698-2.8166-6.2833-6.2926-6.2833
			c-3.469,0-6.2804,2.8135-6.2804,6.2833C44.6779,100.167,47.4892,102.9845,50.9582,102.9845z M65.3235,111.0583
			c0-3.1698-2.568-5.7336-5.7328-5.7336H41.9271c-3.1608,0-5.7288,2.5638-5.7288,5.7336L36.2168,134.2
			c0,1.3836,1.1177,2.5053,2.4992,2.5053c1.3807,0,2.4992-1.1217,2.4992-2.5053v-21.151h1.0601v56.5698
			c0,2.0717,1.6785,3.7503,3.7566,3.7503c2.0635,0,3.7431-1.6785,3.7431-3.7503v-30.9763h2.0503v30.9679
			c0,2.0751,1.6783,3.7587,3.7564,3.7587c2.0627,0,3.7421-1.6836,3.7421-3.7587V113.049h1.0098v21.0668
			c0,1.3857,1.1185,2.5095,2.5042,2.5095c1.3857,0,2.5034-1.1238,2.5034-2.5095L65.3235,111.0583z"/>
	</g>
	<g>
		<path style="fill:#53BB9B;" d="M87.1565,102.9845c3.4759,0,6.2926-2.8175,6.2926-6.2873c0-3.4698-2.8166-6.2833-6.2926-6.2833
			c-3.4688,0-6.2804,2.8135-6.2804,6.2833C80.8762,100.167,83.6877,102.9845,87.1565,102.9845z M101.5208,111.0583
			c0-3.1698-2.5669-5.7336-5.7317-5.7336H78.1254c-3.1606,0-5.7286,2.5638-5.7286,5.7336L72.4153,134.2
			c0,1.3836,1.1175,2.5053,2.499,2.5053c1.3807,0,2.4992-1.1217,2.4992-2.5053v-21.151h1.0592v56.5698
			c0,2.0717,1.6794,3.7503,3.7564,3.7503c2.0646,0,3.7442-1.6785,3.7442-3.7503v-30.9763h2.0503v30.9679
			c0,2.0751,1.6783,3.7587,3.7564,3.7587c2.0648,0,3.7431-1.6836,3.7431-3.7587V113.049h1.0087v21.0668
			c0,1.3857,1.1188,2.5095,2.5045,2.5095c1.3847,0,2.5032-1.1238,2.5032-2.5095L101.5208,111.0583z"/>
	</g>
	<g>
		<path style="fill:#53BB9B;" d="M123.3548,102.9845c3.4761,0,6.2926-2.8175,6.2926-6.2873c0-3.4698-2.8164-6.2833-6.2926-6.2833
			c-3.4688,0-6.2802,2.8135-6.2802,6.2833C117.0747,100.167,119.886,102.9845,123.3548,102.9845z M137.7191,111.0583
			c0-3.1698-2.5669-5.7336-5.7317-5.7336h-17.6637c-3.1606,0-5.7286,2.5638-5.7286,5.7336l0.0185,23.1417
			c0,1.3836,1.1175,2.5053,2.4992,2.5053c1.3804,0,2.4992-1.1217,2.4992-2.5053v-21.151h1.059v56.5698
			c0,2.0717,1.6794,3.7503,3.7564,3.7503c2.0648,0,3.7442-1.6785,3.7442-3.7503v-30.9763h2.0503v30.9679
			c0,2.0751,1.6785,3.7587,3.7566,3.7587c2.0646,0,3.7431-1.6836,3.7431-3.7587V113.049h1.0087v21.0668
			c0,1.3857,1.1185,2.5095,2.5042,2.5095c1.3847,0,2.5032-1.1238,2.5032-2.5095L137.7191,111.0583z"/>
	</g>
	<g>
		<path style="fill:#53BB9B;" d="M159.5531,102.9845c3.4762,0,6.2928-2.8175,6.2928-6.2873c0-3.4698-2.8166-6.2833-6.2928-6.2833
			c-3.4677,0-6.2802,2.8135-6.2802,6.2833C153.2729,100.167,156.0854,102.9845,159.5531,102.9845z M173.9176,111.0583
			c0-3.1698-2.5669-5.7336-5.7317-5.7336h-17.6637c-3.1619,0-5.7288,2.5638-5.7288,5.7336l0.0175,23.1417
			c0,1.3836,1.1187,2.5053,2.5002,2.5053c1.3807,0,2.5002-1.1217,2.5002-2.5053v-21.151h1.058v56.5698
			c0,2.0717,1.6796,3.7503,3.7566,3.7503c2.0646,0,3.744-1.6785,3.744-3.7503v-30.9763h2.0505v30.9679
			c0,2.0751,1.6783,3.7587,3.7564,3.7587c2.0637,0,3.7431-1.6836,3.7431-3.7587V113.049h1.0087v21.0668
			c0,1.3857,1.1185,2.5095,2.5042,2.5095c1.3846,0,2.5042-1.1238,2.5042-2.5095L173.9176,111.0583z"/>
	</g>
	<g>
		<path style="fill:#F48C37;" d="M195.7516,102.9845c3.4759,0,6.2926-2.8175,6.2926-6.2873c0-3.4698-2.8166-6.2833-6.2926-6.2833
			c-3.4679,0-6.2804,2.8135-6.2804,6.2833C189.4712,100.167,192.2837,102.9845,195.7516,102.9845z M210.1158,111.0583
			c0-3.1698-2.5669-5.7336-5.7317-5.7336h-17.6647c-3.1606,0-5.7275,2.5638-5.7275,5.7336l0.0175,23.1417
			c0,1.3836,1.1185,2.5053,2.5,2.5053c1.3807,0,2.5002-1.1217,2.5002-2.5053v-21.151h1.058v56.5698
			c0,2.0717,1.6796,3.7503,3.7587,3.7503c2.0625,0,3.7421-1.6785,3.7421-3.7503v-30.9763h2.0492v30.9679
			c0,2.0751,1.6794,3.7587,3.7563,3.7587c2.0648,0,3.7442-1.6836,3.7442-3.7587V113.049h1.0087v21.0668
			c0,1.3857,1.1187,2.5095,2.5034,2.5095c1.3857,0,2.5053-1.1238,2.5053-2.5095L210.1158,111.0583z"/>
	</g>
	<g>
		<path style="fill:#F48C37;" d="M231.9499,102.9845c3.4762,0,6.2926-2.8175,6.2926-6.2873c0-3.4698-2.8164-6.2833-6.2926-6.2833
			c-3.4677,0-6.2802,2.8135-6.2802,6.2833C225.6697,100.167,228.4822,102.9845,231.9499,102.9845z M246.3152,111.0583
			c0-3.1698-2.569-5.7336-5.7328-5.7336h-17.6645c-3.1608,0-5.7277,2.5638-5.7277,5.7336l0.0175,23.1417
			c0,1.3836,1.1196,2.5053,2.5002,2.5053c1.3804,0,2.5-1.1217,2.5-2.5053v-21.151h1.0592v56.5698
			c0,2.0717,1.6783,3.7503,3.7563,3.7503c2.0637,0,3.7421-1.6785,3.7421-3.7503v-30.9763h2.0503v30.9679
			c0,2.0751,1.6796,3.7587,3.7566,3.7587c2.0646,0,3.7442-1.6836,3.7442-3.7587V113.049h1.0087v21.0668
			c0,1.3857,1.1185,2.5095,2.5032,2.5095c1.3857,0,2.5053-1.1238,2.5053-2.5095L246.3152,111.0583z"/>
	</g>
	<g>
		<path style="fill:#F48C37;" d="M268.1482,102.9845c3.4761,0,6.2926-2.8175,6.2926-6.2873c0-3.4698-2.8164-6.2833-6.2926-6.2833
			c-3.4677,0-6.2791,2.8135-6.2791,6.2833C261.8691,100.167,264.6805,102.9845,268.1482,102.9845z M282.5137,111.0583
			c0-3.1698-2.5691-5.7336-5.7339-5.7336h-17.6637c-3.1598,0-5.7277,2.5638-5.7277,5.7336l0.0175,23.1417
			c0,1.3836,1.1198,2.5053,2.5002,2.5053c1.3807,0,2.5003-1.1217,2.5003-2.5053v-21.151h1.059v56.5698
			c0,2.0717,1.6794,3.7503,3.7563,3.7503c2.0637,0,3.7423-1.6785,3.7423-3.7503v-30.9763h2.0503v30.9679
			c0,2.0751,1.6794,3.7587,3.7563,3.7587c2.0646,0,3.7442-1.6836,3.7442-3.7587V113.049h1.0087v21.0668
			c0,1.3857,1.1196,2.5095,2.5032,2.5095c1.3857,0,2.5053-1.1238,2.5053-2.5095L282.5137,111.0583z"/>
	</g>
	<g>
		<path style="fill:#F48C37;" d="M304.3456,102.9845c3.477,0,6.2936-2.8175,6.2936-6.2873c0-3.4698-2.8166-6.2833-6.2936-6.2833
			c-3.4669,0-6.2783,2.8135-6.2783,6.2833C298.0674,100.167,300.8788,102.9845,304.3456,102.9845z M318.712,111.0583
			c0-3.1698-2.569-5.7336-5.7338-5.7336h-17.6637c-3.1595,0-5.7285,2.5638-5.7285,5.7336l0.0185,23.1417
			c0,1.3836,1.1196,2.5053,2.5,2.5053c1.3807,0,2.5002-1.1217,2.5002-2.5053v-21.151h1.059v56.5698
			c0,2.0717,1.6796,3.7503,3.7566,3.7503c2.0635,0,3.742-1.6785,3.742-3.7503v-30.9763h2.0503v30.9679
			c0,2.0751,1.6794,3.7587,3.7564,3.7587c2.0648,0,3.7441-1.6836,3.7441-3.7587V113.049h1.0087v21.0668
			c0,1.3857,1.1196,2.5095,2.5034,2.5095c1.3855,0,2.5053-1.1238,2.5053-2.5095L318.712,111.0583z"/>
	</g>
	<g>
		<path style="fill:#F48C37;" d="M340.5439,102.9845c3.4781,0,6.2936-2.8175,6.2936-6.2873c0-3.4698-2.8156-6.2833-6.2936-6.2833
			c-3.4667,0-6.2783,2.8135-6.2783,6.2833C334.2657,100.167,337.0772,102.9845,340.5439,102.9845z M354.9103,111.0583
			c0-3.1698-2.569-5.7336-5.7339-5.7336h-17.6637c-3.1595,0-5.7286,2.5638-5.7286,5.7336l0.0185,23.1417
			c0,1.3836,1.1196,2.5053,2.5002,2.5053c1.3804,0,2.5-1.1217,2.5-2.5053v-21.151h1.0592v56.5698
			c0,2.0717,1.6794,3.7503,3.7563,3.7503c2.0637,0,3.7421-1.6785,3.7421-3.7503v-30.9763h2.0503v30.9679
			c0,2.0751,1.6796,3.7587,3.7566,3.7587c2.0646,0,3.7431-1.6836,3.7431-3.7587V113.049h1.0096v21.0668
			c0,1.3857,1.1198,2.5095,2.5034,2.5095c1.3857,0,2.5053-1.1238,2.5053-2.5095L354.9103,111.0583z"/>
	</g>
	<g>
		<path style="fill:#F48C37;" d="M14.7597,193.3984c3.4761,0,6.2926-2.8177,6.2926-6.2875c0-3.4698-2.8164-6.2833-6.2926-6.2833
			c-3.4688,0-6.2802,2.8135-6.2802,6.2833C8.4796,190.5807,11.291,193.3984,14.7597,193.3984z M29.125,201.4722
			c0-3.17-2.568-5.7338-5.7328-5.7338H5.7288C2.568,195.7384,0,198.3021,0,201.4722l0.0185,23.1415
			c0,1.3838,1.1175,2.5045,2.4981,2.5045c1.3815,0,2.5002-1.1206,2.5002-2.5045v-21.151h1.0601v56.5699
			c0,2.0717,1.6783,3.7492,3.7564,3.7492c2.0648,0,3.7431-1.6775,3.7431-3.7492v-30.9761h2.0503v30.9679
			c0,2.0749,1.6785,3.7574,3.7566,3.7574c2.0625,0,3.7421-1.6826,3.7421-3.7574v-56.5616h1.0098v21.0668
			c0,1.3857,1.1185,2.5084,2.5042,2.5084c1.3857,0,2.5032-1.1227,2.5032-2.5084L29.125,201.4722z"/>
	</g>
	<g>
		<path style="fill:#F04946;" d="M50.9582,193.3984c3.4759,0,6.2926-2.8177,6.2926-6.2875c0-3.4698-2.8166-6.2833-6.2926-6.2833
			c-3.469,0-6.2804,2.8135-6.2804,6.2833C44.6779,190.5807,47.4892,193.3984,50.9582,193.3984z M65.3235,201.4722
			c0-3.17-2.568-5.7338-5.7328-5.7338H41.9271c-3.1608,0-5.7288,2.5638-5.7288,5.7338l0.0185,23.1415
			c0,1.3838,1.1177,2.5045,2.4992,2.5045c1.3807,0,2.4992-1.1206,2.4992-2.5045v-21.151h1.0601v56.5699
			c0,2.0717,1.6785,3.7492,3.7566,3.7492c2.0635,0,3.7431-1.6775,3.7431-3.7492v-30.9761h2.0503v30.9679
			c0,2.0749,1.6783,3.7574,3.7564,3.7574c2.0627,0,3.7421-1.6826,3.7421-3.7574v-56.5616h1.0098v21.0668
			c0,1.3857,1.1185,2.5084,2.5042,2.5084c1.3857,0,2.5034-1.1227,2.5034-2.5084L65.3235,201.4722z"/>
	</g>
	<g>
		<path style="fill:#F04946;" d="M87.1565,193.3984c3.4759,0,6.2926-2.8177,6.2926-6.2875c0-3.4698-2.8166-6.2833-6.2926-6.2833
			c-3.4688,0-6.2804,2.8135-6.2804,6.2833C80.8762,190.5807,83.6877,193.3984,87.1565,193.3984z M101.5208,201.4722
			c0-3.17-2.5669-5.7338-5.7317-5.7338H78.1254c-3.1606,0-5.7286,2.5638-5.7286,5.7338l0.0185,23.1415
			c0,1.3838,1.1175,2.5045,2.499,2.5045c1.3807,0,2.4992-1.1206,2.4992-2.5045v-21.151h1.0592v56.5699
			c0,2.0717,1.6794,3.7492,3.7564,3.7492c2.0646,0,3.7442-1.6775,3.7442-3.7492v-30.9761h2.0503v30.9679
			c0,2.0749,1.6783,3.7574,3.7564,3.7574c2.0648,0,3.7431-1.6826,3.7431-3.7574v-56.5616h1.0087v21.0668
			c0,1.3857,1.1188,2.5084,2.5045,2.5084c1.3847,0,2.5032-1.1227,2.5032-2.5084L101.5208,201.4722z"/>
	</g>
	<g>
		<path style="fill:#F04946;" d="M123.3548,193.3984c3.4761,0,6.2926-2.8177,6.2926-6.2875c0-3.4698-2.8164-6.2833-6.2926-6.2833
			c-3.4688,0-6.2802,2.8135-6.2802,6.2833C117.0747,190.5807,119.886,193.3984,123.3548,193.3984z M137.7191,201.4722
			c0-3.17-2.5669-5.7338-5.7317-5.7338h-17.6637c-3.1606,0-5.7286,2.5638-5.7286,5.7338l0.0185,23.1415
			c0,1.3838,1.1175,2.5045,2.4992,2.5045c1.3804,0,2.4992-1.1206,2.4992-2.5045v-21.151h1.059v56.5699
			c0,2.0717,1.6794,3.7492,3.7564,3.7492c2.0648,0,3.7442-1.6775,3.7442-3.7492v-30.9761h2.0503v30.9679
			c0,2.0749,1.6785,3.7574,3.7566,3.7574c2.0646,0,3.7431-1.6826,3.7431-3.7574v-56.5616h1.0087v21.0668
			c0,1.3857,1.1185,2.5084,2.5042,2.5084c1.3847,0,2.5032-1.1227,2.5032-2.5084L137.7191,201.4722z"/>
	</g>
	<g>
		<path style="fill:#F04946;" d="M159.5531,193.3984c3.4762,0,6.2928-2.8177,6.2928-6.2875c0-3.4698-2.8166-6.2833-6.2928-6.2833
			c-3.4677,0-6.2802,2.8135-6.2802,6.2833C153.2729,190.5807,156.0854,193.3984,159.5531,193.3984z M173.9176,201.4722
			c0-3.17-2.5669-5.7338-5.7317-5.7338h-17.6637c-3.1619,0-5.7288,2.5638-5.7288,5.7338l0.0175,23.1415
			c0,1.3838,1.1187,2.5045,2.5002,2.5045c1.3807,0,2.5002-1.1206,2.5002-2.5045v-21.151h1.058v56.5699
			c0,2.0717,1.6796,3.7492,3.7566,3.7492c2.0646,0,3.744-1.6775,3.744-3.7492v-30.9761h2.0505v30.9679
			c0,2.0749,1.6783,3.7574,3.7564,3.7574c2.0637,0,3.7431-1.6826,3.7431-3.7574v-56.5616h1.0087v21.0668
			c0,1.3857,1.1185,2.5084,2.5042,2.5084c1.3846,0,2.5042-1.1227,2.5042-2.5084L173.9176,201.4722z"/>
	</g>
	<g>
		<path style="fill:#F04946;" d="M195.7516,193.3984c3.4759,0,6.2926-2.8177,6.2926-6.2875c0-3.4698-2.8166-6.2833-6.2926-6.2833
			c-3.4679,0-6.2804,2.8135-6.2804,6.2833C189.4712,190.5807,192.2837,193.3984,195.7516,193.3984z M210.1158,201.4722
			c0-3.17-2.5669-5.7338-5.7317-5.7338h-17.6647c-3.1606,0-5.7275,2.5638-5.7275,5.7338l0.0175,23.1415
			c0,1.3838,1.1185,2.5045,2.5,2.5045c1.3807,0,2.5002-1.1206,2.5002-2.5045v-21.151h1.058v56.5699
			c0,2.0717,1.6796,3.7492,3.7587,3.7492c2.0625,0,3.7421-1.6775,3.7421-3.7492v-30.9761h2.0492v30.9679
			c0,2.0749,1.6794,3.7574,3.7563,3.7574c2.0648,0,3.7442-1.6826,3.7442-3.7574v-56.5616h1.0087v21.0668
			c0,1.3857,1.1187,2.5084,2.5034,2.5084c1.3857,0,2.5053-1.1227,2.5053-2.5084L210.1158,201.4722z"/>
	</g>
	<g>
		<path style="fill:#8562A3;" d="M231.9499,193.3984c3.4762,0,6.2926-2.8177,6.2926-6.2875c0-3.4698-2.8164-6.2833-6.2926-6.2833
			c-3.4677,0-6.2802,2.8135-6.2802,6.2833C225.6697,190.5807,228.4822,193.3984,231.9499,193.3984z M246.3152,201.4722
			c0-3.17-2.569-5.7338-5.7328-5.7338h-17.6645c-3.1608,0-5.7277,2.5638-5.7277,5.7338l0.0175,23.1415
			c0,1.3838,1.1196,2.5045,2.5002,2.5045c1.3804,0,2.5-1.1206,2.5-2.5045v-21.151h1.0592v56.5699
			c0,2.0717,1.6783,3.7492,3.7563,3.7492c2.0637,0,3.7421-1.6775,3.7421-3.7492v-30.9761h2.0503v30.9679
			c0,2.0749,1.6796,3.7574,3.7566,3.7574c2.0646,0,3.7442-1.6826,3.7442-3.7574v-56.5616h1.0087v21.0668
			c0,1.3857,1.1185,2.5084,2.5032,2.5084c1.3857,0,2.5053-1.1227,2.5053-2.5084L246.3152,201.4722z"/>
	</g>
	<g>
		<path style="fill:#8562A3;" d="M268.1482,193.3984c3.4761,0,6.2926-2.8177,6.2926-6.2875c0-3.4698-2.8164-6.2833-6.2926-6.2833
			c-3.4677,0-6.2791,2.8135-6.2791,6.2833C261.8691,190.5807,264.6805,193.3984,268.1482,193.3984z M282.5137,201.4722
			c0-3.17-2.5691-5.7338-5.7339-5.7338h-17.6637c-3.1598,0-5.7277,2.5638-5.7277,5.7338l0.0175,23.1415
			c0,1.3838,1.1198,2.5045,2.5002,2.5045c1.3807,0,2.5003-1.1206,2.5003-2.5045v-21.151h1.059v56.5699
			c0,2.0717,1.6794,3.7492,3.7563,3.7492c2.0637,0,3.7423-1.6775,3.7423-3.7492v-30.9761h2.0503v30.9679
			c0,2.0749,1.6794,3.7574,3.7563,3.7574c2.0646,0,3.7442-1.6826,3.7442-3.7574v-56.5616h1.0087v21.0668
			c0,1.3857,1.1196,2.5084,2.5032,2.5084c1.3857,0,2.5053-1.1227,2.5053-2.5084L282.5137,201.4722z"/>
	</g>
	<g>
		<path style="fill:#8562A3;" d="M304.3456,193.3984c3.477,0,6.2936-2.8177,6.2936-6.2875c0-3.4698-2.8166-6.2833-6.2936-6.2833
			c-3.4669,0-6.2783,2.8135-6.2783,6.2833C298.0674,190.5807,300.8788,193.3984,304.3456,193.3984z M318.712,201.4722
			c0-3.17-2.569-5.7338-5.7338-5.7338h-17.6637c-3.1595,0-5.7285,2.5638-5.7285,5.7338l0.0185,23.1415
			c0,1.3838,1.1196,2.5045,2.5,2.5045c1.3807,0,2.5002-1.1206,2.5002-2.5045v-21.151h1.059v56.5699
			c0,2.0717,1.6796,3.7492,3.7566,3.7492c2.0635,0,3.742-1.6775,3.742-3.7492v-30.9761h2.0503v30.9679
			c0,2.0749,1.6794,3.7574,3.7564,3.7574c2.0648,0,3.7441-1.6826,3.7441-3.7574v-56.5616h1.0087v21.0668
			c0,1.3857,1.1196,2.5084,2.5034,2.5084c1.3855,0,2.5053-1.1227,2.5053-2.5084L318.712,201.4722z"/>
	</g>
	<g>
		<path style="fill:#8562A3;" d="M340.5439,193.3984c3.4781,0,6.2936-2.8177,6.2936-6.2875c0-3.4698-2.8156-6.2833-6.2936-6.2833
			c-3.4667,0-6.2783,2.8135-6.2783,6.2833C334.2657,190.5807,337.0772,193.3984,340.5439,193.3984z M354.9103,201.4722
			c0-3.17-2.569-5.7338-5.7339-5.7338h-17.6637c-3.1595,0-5.7286,2.5638-5.7286,5.7338l0.0185,23.1415
			c0,1.3838,1.1196,2.5045,2.5002,2.5045c1.3804,0,2.5-1.1206,2.5-2.5045v-21.151h1.0592v56.5699
			c0,2.0717,1.6794,3.7492,3.7563,3.7492c2.0637,0,3.7421-1.6775,3.7421-3.7492v-30.9761h2.0503v30.9679
			c0,2.0749,1.6796,3.7574,3.7566,3.7574c2.0646,0,3.7431-1.6826,3.7431-3.7574v-56.5616h1.0096v21.0668
			c0,1.3857,1.1198,2.5084,2.5034,2.5084c1.3857,0,2.5053-1.1227,2.5053-2.5084L354.9103,201.4722z"/>
	</g>
</g>
</svg>
