<?xml version="1.0" encoding="utf-8"?>
<!-- Generator: Adobe Illustrator 21.0.2, SVG Export Plug-In . SVG Version: 6.00 Build 0)  -->
<svg version="1.1" id="Capa_1" xmlns="http://www.w3.org/2000/svg" xmlns:xlink="http://www.w3.org/1999/xlink" x="0px" y="0px"
	 viewBox="0 0 274.5651 263.1977" style="enable-background:new 0 0 274.5651 263.1977;" xml:space="preserve">
<g>
	<g>
		<circle style="fill:none;stroke:#FFFFFF;stroke-miterlimit:10;" cx="139.495" cy="130.6033" r="115.7279"/>
		<circle style="fill:#A03628;" cx="139.495" cy="130.6033" r="45.7413"/>
		<circle style="fill:#C4483F;" cx="236.1385" cy="133.4128" r="38.4266"/>
		<ellipse style="fill:#CCAE17;" cx="42.006" cy="132.8137" rx="42.006" ry="57.2483"/>
		<circle style="fill:#CC7015;" cx="138.6587" cy="224.7711" r="38.4266"/>
		<circle style="fill:#2B2B38;" cx="139.495" cy="38.4266" r="38.4266"/>
		<g>
			<path style="fill:#FFFFFF;" d="M100.7143,112.4218h3.6982c0.834,0,1.4697,0.0635,1.9072,0.1914
				c0.5879,0.1729,1.0918,0.4805,1.5107,0.9229s0.7383,0.9834,0.957,1.624c0.2188,0.6396,0.3281,1.4297,0.3281,2.3682
				c0,0.8252-0.1025,1.5361-0.3076,2.1328c-0.251,0.7295-0.6084,1.3193-1.0732,1.7705c-0.3506,0.3418-0.8252,0.6084-1.4219,0.7998
				c-0.4463,0.1416-1.0439,0.2119-1.791,0.2119h-3.8076V112.4218z M102.7377,114.1171v6.6377h1.5107
				c0.5654,0,0.9727-0.0322,1.2236-0.0957c0.3281-0.082,0.6006-0.2207,0.8164-0.417c0.2168-0.1963,0.3936-0.5186,0.5303-0.9668
				c0.1367-0.4492,0.2051-1.0615,0.2051-1.8359s-0.0684-1.3691-0.2051-1.7842s-0.3281-0.7383-0.5742-0.9707
				s-0.5586-0.3896-0.9365-0.4717c-0.2822-0.0635-0.8359-0.0957-1.6611-0.0957H102.7377z"/>
			<path style="fill:#FFFFFF;" d="M115.0219,120.1328l1.9141,0.3213c-0.2461,0.7021-0.6348,1.2363-1.166,1.6025
				c-0.5303,0.3672-1.1943,0.5508-1.9922,0.5508c-1.2627,0-2.1963-0.4121-2.8027-1.2373c-0.4785-0.6611-0.7178-1.4951-0.7178-2.502
				c0-1.2031,0.3145-2.1455,0.9434-2.8271c0.6289-0.6807,1.4238-1.0215,2.3857-1.0215c1.0801,0,1.9326,0.3564,2.5566,1.0703
				c0.624,0.7129,0.9229,1.8057,0.8955,3.2773h-4.8125c0.0137,0.5693,0.1689,1.0127,0.4648,1.3301
				c0.2959,0.3164,0.665,0.4746,1.1074,0.4746c0.3008,0,0.5537-0.082,0.7588-0.2461S114.9174,120.497,115.0219,120.1328z
				 M115.1313,118.1914c-0.0137-0.5557-0.1572-0.9785-0.4307-1.2676c-0.2734-0.29-0.6064-0.4346-0.998-0.4346
				c-0.4189,0-0.7656,0.1523-1.0391,0.458s-0.4082,0.7197-0.4033,1.2441H115.1313z"/>
			<path style="fill:#FFFFFF;" d="M117.9272,120.372l1.9277-0.2939c0.082,0.374,0.248,0.6572,0.499,0.8516
				c0.251,0.1934,0.6016,0.29,1.0527,0.29c0.4971,0,0.8701-0.0908,1.1211-0.2734c0.1689-0.1279,0.2529-0.2988,0.2529-0.5127
				c0-0.1455-0.0459-0.2666-0.1367-0.3623c-0.0957-0.0908-0.3096-0.1758-0.6426-0.2529c-1.5498-0.3418-2.5313-0.6543-2.9463-0.9365
				c-0.5742-0.3916-0.8613-0.9365-0.8613-1.6338c0-0.6289,0.248-1.1572,0.7451-1.5859s1.2666-0.6426,2.3105-0.6426
				c0.9932,0,1.7314,0.1621,2.2148,0.4854s0.8154,0.8018,0.998,1.4355l-1.8115,0.335c-0.0771-0.2822-0.2246-0.499-0.4404-0.6494
				c-0.2168-0.1504-0.5254-0.2256-0.9268-0.2256c-0.5059,0-0.8682,0.0703-1.0869,0.2119c-0.1455,0.1006-0.2188,0.2305-0.2188,0.3896
				c0,0.1367,0.0635,0.2529,0.1914,0.3486c0.1729,0.1279,0.7715,0.3076,1.7949,0.54c1.0225,0.2324,1.7373,0.5176,2.1426,0.8545
				c0.4014,0.3418,0.6016,0.8184,0.6016,1.4287c0,0.665-0.2783,1.2373-0.834,1.7158s-1.3789,0.7178-2.4678,0.7178
				c-0.9893,0-1.7715-0.2002-2.3486-0.6016C118.4819,121.6044,118.1049,121.0605,117.9272,120.372z"/>
			<path style="fill:#FFFFFF;" d="M128.3862,122.4433l-2.9258-7.2598h2.0166l1.3672,3.7051l0.3965,1.2373
				c0.1045-0.3145,0.1709-0.5215,0.1982-0.6221c0.0635-0.2051,0.1318-0.4102,0.2051-0.6152l1.3809-3.7051h1.9756l-2.8848,7.2598
				H128.3862z"/>
			<path style="fill:#FFFFFF;" d="M138.3803,120.1328l1.9141,0.3213c-0.2461,0.7021-0.6348,1.2363-1.166,1.6025
				c-0.5303,0.3672-1.1943,0.5508-1.9922,0.5508c-1.2627,0-2.1963-0.4121-2.8027-1.2373c-0.4785-0.6611-0.7178-1.4951-0.7178-2.502
				c0-1.2031,0.3145-2.1455,0.9434-2.8271c0.6289-0.6807,1.4238-1.0215,2.3857-1.0215c1.0801,0,1.9326,0.3564,2.5566,1.0703
				c0.624,0.7129,0.9229,1.8057,0.8955,3.2773h-4.8125c0.0137,0.5693,0.1689,1.0127,0.4648,1.3301
				c0.2959,0.3164,0.665,0.4746,1.1074,0.4746c0.3008,0,0.5537-0.082,0.7588-0.2461S138.2758,120.497,138.3803,120.1328z
				 M138.4897,118.1914c-0.0137-0.5557-0.1572-0.9785-0.4307-1.2676c-0.2734-0.29-0.6064-0.4346-0.998-0.4346
				c-0.4189,0-0.7656,0.1523-1.0391,0.458s-0.4082,0.7197-0.4033,1.2441H138.4897z"/>
			<path style="fill:#FFFFFF;" d="M148.5658,122.4433h-1.9209v-3.7051c0-0.7842-0.041-1.291-0.123-1.5215
				c-0.082-0.2295-0.2148-0.4082-0.4004-0.5361c-0.1836-0.1279-0.4063-0.1914-0.666-0.1914c-0.333,0-0.6309,0.0908-0.8955,0.2734
				s-0.4453,0.4238-0.5439,0.7246c-0.0977,0.3008-0.1465,0.8564-0.1465,1.668v3.2881h-1.9209v-7.2598h1.7842v1.0664
				c0.6338-0.8203,1.4307-1.2305,2.3926-1.2305c0.4238,0,0.8115,0.0762,1.1621,0.2285c0.3506,0.1533,0.6162,0.3477,0.7969,0.585
				c0.1797,0.2373,0.3047,0.5059,0.375,0.8066c0.0713,0.3008,0.1064,0.7314,0.1064,1.292V122.4433z"/>
			<path style="fill:#FFFFFF;" d="M153.8432,115.1835v1.5313h-1.3125v2.9258c0,0.5928,0.0127,0.9375,0.0371,1.0352
				c0.0254,0.0986,0.082,0.1797,0.1719,0.2432c0.0879,0.0635,0.1963,0.0957,0.3242,0.0957c0.1777,0,0.4355-0.0615,0.7725-0.1846
				l0.1641,1.4902c-0.4463,0.1914-0.9521,0.2871-1.5176,0.2871c-0.3467,0-0.6582-0.0586-0.9365-0.1738
				c-0.2783-0.1172-0.4824-0.2676-0.6113-0.4512c-0.1309-0.1855-0.2207-0.4346-0.2705-0.749
				c-0.041-0.2236-0.0615-0.6748-0.0615-1.3535v-3.165h-0.8818v-1.5313h0.8818v-1.4424l1.9277-1.1211v2.5635H153.8432z"/>
			<path style="fill:#FFFFFF;" d="M156.6117,117.3984l-1.7432-0.3145c0.1963-0.7021,0.5332-1.2217,1.0117-1.5586
				s1.1895-0.5059,2.1328-0.5059c0.8564,0,1.4951,0.1016,1.9141,0.3047c0.4189,0.2021,0.7148,0.46,0.8848,0.7715
				c0.1719,0.3125,0.2568,0.8857,0.2568,1.7197l-0.0205,2.2422c0,0.6377,0.0313,1.1084,0.0918,1.4111
				c0.0625,0.3037,0.1768,0.6279,0.3457,0.9746h-1.9004c-0.0498-0.1279-0.1113-0.3164-0.1846-0.5674
				c-0.0322-0.1143-0.0547-0.1895-0.0684-0.2256c-0.3281,0.3193-0.6787,0.5586-1.0527,0.7178s-0.7725,0.2393-1.1963,0.2393
				c-0.7471,0-1.3359-0.2031-1.7676-0.6084c-0.4297-0.4053-0.6455-0.918-0.6455-1.5381c0-0.4102,0.0977-0.7754,0.2939-1.0977
				c0.1963-0.3203,0.4707-0.5664,0.8242-0.7383c0.3525-0.1699,0.8623-0.3193,1.5273-0.4473
				c0.8975-0.1689,1.5195-0.3262,1.8662-0.4717v-0.1914c0-0.3691-0.0908-0.6318-0.2734-0.79
				c-0.1826-0.1563-0.5264-0.2354-1.0322-0.2354c-0.3418,0-0.6084,0.0674-0.7998,0.2021
				C156.8852,116.8251,156.7299,117.0615,156.6117,117.3984z M159.1821,118.957c-0.2461,0.082-0.6357,0.1797-1.1689,0.2939
				s-0.8818,0.2256-1.0459,0.335c-0.251,0.1777-0.376,0.4033-0.376,0.6768c0,0.2686,0.1006,0.501,0.3008,0.6973
				s0.4561,0.2939,0.7656,0.2939c0.3467,0,0.6768-0.1143,0.9912-0.3418c0.2324-0.1729,0.3848-0.3848,0.458-0.6357
				c0.0498-0.1641,0.0752-0.4766,0.0752-0.9365V118.957z"/>
			<path style="fill:#FFFFFF;" d="M164.8422,115.1835v7.0342c0,0.9248-0.0605,1.5781-0.1816,1.958
				c-0.1201,0.3809-0.3525,0.6787-0.6973,0.8926c-0.3438,0.2139-0.7822,0.3213-1.3154,0.3213c-0.1914,0-0.3975-0.0166-0.6182-0.0518
				c-0.2217-0.0332-0.46-0.085-0.7148-0.1533l0.335-1.6406c0.0908,0.0186,0.1768,0.0332,0.2568,0.0439
				c0.0791,0.0117,0.1533,0.0176,0.2217,0.0176c0.1963,0,0.3564-0.042,0.4814-0.127c0.126-0.084,0.209-0.1855,0.25-0.3037
				s0.0615-0.4736,0.0615-1.0664v-6.9248H164.8422z M162.9213,114.1992v-1.7773h1.9209v1.7773H162.9213z"/>
			<path style="fill:#FFFFFF;" d="M168.2875,117.3984l-1.7432-0.3145c0.1963-0.7021,0.5332-1.2217,1.0117-1.5586
				s1.1895-0.5059,2.1328-0.5059c0.8564,0,1.4951,0.1016,1.9141,0.3047c0.4189,0.2021,0.7148,0.46,0.8848,0.7715
				c0.1719,0.3125,0.2568,0.8857,0.2568,1.7197l-0.0205,2.2422c0,0.6377,0.0313,1.1084,0.0918,1.4111
				c0.0625,0.3037,0.1768,0.6279,0.3457,0.9746h-1.9004c-0.0498-0.1279-0.1113-0.3164-0.1846-0.5674
				c-0.0322-0.1143-0.0547-0.1895-0.0684-0.2256c-0.3281,0.3193-0.6787,0.5586-1.0527,0.7178s-0.7725,0.2393-1.1963,0.2393
				c-0.7471,0-1.3359-0.2031-1.7676-0.6084c-0.4297-0.4053-0.6455-0.918-0.6455-1.5381c0-0.4102,0.0977-0.7754,0.2939-1.0977
				c0.1963-0.3203,0.4707-0.5664,0.8242-0.7383c0.3525-0.1699,0.8623-0.3193,1.5273-0.4473
				c0.8975-0.1689,1.5195-0.3262,1.8662-0.4717v-0.1914c0-0.3691-0.0908-0.6318-0.2734-0.79
				c-0.1826-0.1563-0.5264-0.2354-1.0322-0.2354c-0.3418,0-0.6084,0.0674-0.7998,0.2021
				C168.561,116.8251,168.4057,117.0615,168.2875,117.3984z M170.8578,118.957c-0.2461,0.082-0.6357,0.1797-1.1689,0.2939
				s-0.8818,0.2256-1.0459,0.335c-0.251,0.1777-0.376,0.4033-0.376,0.6768c0,0.2686,0.1006,0.501,0.3008,0.6973
				s0.4561,0.2939,0.7656,0.2939c0.3467,0,0.6768-0.1143,0.9912-0.3418c0.2324-0.1729,0.3848-0.3848,0.458-0.6357
				c0.0498-0.1641,0.0752-0.4766,0.0752-0.9365V118.957z"/>
			<path style="fill:#FFFFFF;" d="M173.9613,120.372l1.9277-0.2939c0.082,0.374,0.248,0.6572,0.499,0.8516
				c0.251,0.1934,0.6016,0.29,1.0527,0.29c0.4971,0,0.8701-0.0908,1.1211-0.2734c0.1689-0.1279,0.2529-0.2988,0.2529-0.5127
				c0-0.1455-0.0459-0.2666-0.1367-0.3623c-0.0957-0.0908-0.3096-0.1758-0.6426-0.2529c-1.5498-0.3418-2.5313-0.6543-2.9463-0.9365
				c-0.5742-0.3916-0.8613-0.9365-0.8613-1.6338c0-0.6289,0.248-1.1572,0.7451-1.5859s1.2666-0.6426,2.3105-0.6426
				c0.9932,0,1.7314,0.1621,2.2148,0.4854s0.8154,0.8018,0.998,1.4355l-1.8115,0.335c-0.0771-0.2822-0.2246-0.499-0.4404-0.6494
				c-0.2168-0.1504-0.5254-0.2256-0.9268-0.2256c-0.5059,0-0.8682,0.0703-1.0869,0.2119c-0.1455,0.1006-0.2188,0.2305-0.2188,0.3896
				c0,0.1367,0.0635,0.2529,0.1914,0.3486c0.1729,0.1279,0.7715,0.3076,1.7949,0.54c1.0225,0.2324,1.7373,0.5176,2.1426,0.8545
				c0.4014,0.3418,0.6016,0.8184,0.6016,1.4287c0,0.665-0.2783,1.2373-0.834,1.7158s-1.3789,0.7178-2.4678,0.7178
				c-0.9893,0-1.7715-0.2002-2.3486-0.6016C174.516,121.6044,174.1391,121.0605,173.9613,120.372z"/>
		</g>
		<g>
			<circle style="fill:#FFFFFF;" cx="236.1385" cy="133.4128" r="33.0869"/>
		</g>
		<g>
			<ellipse style="fill:#FFFFFF;" cx="42.006" cy="132.8137" rx="38.9459" ry="52.37"/>
		</g>
		<g>
			<circle style="fill:#FFFFFF;" cx="138.6587" cy="224.7711" r="33.0869"/>
		</g>
		<g>
			<circle style="fill:#FFFFFF;" cx="139.495" cy="38.4266" r="33.6735"/>
		</g>
		<g>
			<path d="M117.1542,41.832l2.8682-7.4688h1.0654l3.0566,7.4688h-1.126l-0.8711-2.2617h-3.123l-0.8203,2.2617H117.1542z
				 M119.3095,38.7656h2.5322l-0.7803-2.0684c-0.2373-0.6289-0.4141-1.1445-0.5293-1.5488
				c-0.0947,0.4785-0.2295,0.9541-0.4023,1.4258L119.3095,38.7656z"/>
			<path d="M125.662,41.832h-0.8506v-7.4688h0.917v2.665c0.3867-0.4863,0.8809-0.7285,1.4824-0.7285
				c0.333,0,0.6475,0.0664,0.9453,0.2012c0.2969,0.1338,0.541,0.3223,0.7334,0.5654c0.1914,0.2432,0.3418,0.5352,0.4512,0.8789
				c0.1084,0.3428,0.1631,0.71,0.1631,1.1006c0,0.9268-0.2295,1.6436-0.6885,2.1494c-0.458,0.5059-1.0088,0.7588-1.6504,0.7588
				c-0.6387,0-1.1396-0.2666-1.5029-0.7998V41.832z M125.6523,39.0859c0,0.6494,0.0879,1.1172,0.2646,1.4063
				c0.2891,0.4717,0.6797,0.708,1.1719,0.708c0.4004,0,0.7471-0.1738,1.0391-0.5225c0.292-0.3477,0.4385-0.8662,0.4385-1.5557
				c0-0.707-0.1406-1.2275-0.4209-1.5645c-0.2803-0.3359-0.6191-0.5039-1.0156-0.5039c-0.4014,0-0.748,0.1738-1.04,0.5225
				C125.7978,37.9238,125.6523,38.4277,125.6523,39.0859z"/>
			<path d="M134.165,41.832v-0.7949c-0.4209,0.6113-0.9932,0.917-1.7168,0.917c-0.3193,0-0.6172-0.0605-0.8945-0.1836
				c-0.2764-0.1221-0.4814-0.2754-0.6162-0.4609c-0.1338-0.1846-0.2285-0.4111-0.2822-0.6797
				c-0.0381-0.1797-0.0566-0.4658-0.0566-0.8564v-3.3516h0.917v3.001c0,0.4785,0.0186,0.8008,0.0566,0.9678
				c0.0576,0.2412,0.1797,0.4307,0.3662,0.5674c0.1875,0.1377,0.418,0.207,0.6934,0.207s0.5332-0.0713,0.7744-0.2119
				s0.4111-0.333,0.5117-0.5752c0.1006-0.2432,0.1504-0.5957,0.1504-1.0576v-2.8984h0.917v5.4102H134.165z"/>
			<path d="M136.4111,41.832v-5.4102h0.8252v0.8203c0.21-0.3838,0.4053-0.6367,0.583-0.7588
				c0.1787-0.123,0.375-0.1836,0.5889-0.1836c0.3086,0,0.623,0.0986,0.9424,0.2949l-0.3164,0.8506
				c-0.2236-0.1318-0.4482-0.1982-0.6719-0.1982c-0.2002,0-0.3809,0.0605-0.54,0.1807c-0.1602,0.1211-0.2734,0.2881-0.3418,0.502
				c-0.1016,0.3262-0.1523,0.6826-0.1523,1.0703v2.832H136.4111z"/>
			<path d="M139.8857,41.832v-5.4102h0.8252v0.8203c0.21-0.3838,0.4053-0.6367,0.583-0.7588
				c0.1787-0.123,0.375-0.1836,0.5889-0.1836c0.3086,0,0.623,0.0986,0.9424,0.2949l-0.3164,0.8506
				c-0.2236-0.1318-0.4482-0.1982-0.6719-0.1982c-0.2002,0-0.3809,0.0605-0.54,0.1807c-0.1602,0.1211-0.2734,0.2881-0.3418,0.502
				c-0.1016,0.3262-0.1523,0.6826-0.1523,1.0703v2.832H139.8857z"/>
			<path d="M143.3749,35.4179v-1.0547h0.917v1.0547H143.3749z M143.3749,41.832v-5.4102h0.917v5.4102H143.3749z"/>
			<path d="M149.1972,41.832v-0.6826c-0.3428,0.5371-0.8467,0.8047-1.5127,0.8047c-0.4316,0-0.8281-0.1191-1.1895-0.3564
				s-0.6416-0.5693-0.8408-0.9961c-0.1982-0.4258-0.2979-0.916-0.2979-1.4697c0-0.54,0.0898-1.0293,0.2705-1.4697
				c0.1797-0.4395,0.4492-0.7764,0.8096-1.0107s0.7627-0.3516,1.207-0.3516c0.3262,0,0.6172,0.0684,0.8711,0.2061
				c0.2549,0.1377,0.4619,0.3164,0.6221,0.5371v-2.6797h0.9121v7.4688H149.1972z M146.2988,39.1318
				c0,0.6934,0.1465,1.2109,0.4385,1.5537c0.292,0.3438,0.6367,0.5146,1.0342,0.5146c0.4004,0,0.7412-0.1641,1.0215-0.4912
				c0.2803-0.3281,0.4199-0.8281,0.4199-1.501c0-0.7402-0.1426-1.2832-0.4277-1.6299s-0.6367-0.5195-1.0547-0.5195
				c-0.4072,0-0.748,0.166-1.0215,0.499S146.2988,38.415,146.2988,39.1318z"/>
			<path d="M155.0204,41.165c-0.3389,0.2881-0.666,0.4922-0.9805,0.6113c-0.3145,0.1182-0.6514,0.1777-1.0107,0.1777
				c-0.5947,0-1.0518-0.1445-1.3711-0.4355c-0.3193-0.29-0.4785-0.6611-0.4785-1.1133c0-0.2646,0.0605-0.5068,0.1807-0.7256
				c0.1211-0.2188,0.2783-0.3945,0.4736-0.5273s0.416-0.2324,0.6602-0.3008c0.1797-0.0469,0.4512-0.0928,0.8154-0.1377
				c0.7402-0.0879,1.2852-0.1934,1.6348-0.3154c0.0039-0.126,0.0049-0.2051,0.0049-0.2393c0-0.374-0.0859-0.6367-0.2598-0.79
				c-0.2344-0.207-0.582-0.3105-1.0439-0.3105c-0.4316,0-0.75,0.0752-0.9551,0.2266c-0.2061,0.1514-0.3574,0.4189-0.4561,0.8027
				l-0.8965-0.1221c0.0811-0.3838,0.2158-0.6943,0.4023-0.9297c0.1865-0.2363,0.457-0.418,0.8096-0.5459
				c0.3535-0.127,0.7627-0.1904,1.2285-0.1904c0.4609,0,0.8369,0.0537,1.125,0.1631c0.2891,0.1084,0.501,0.2451,0.6367,0.4102
				c0.1367,0.1641,0.2314,0.3721,0.2861,0.624c0.0303,0.1563,0.0459,0.4375,0.0459,0.8457v1.2227
				c0,0.8525,0.0195,1.3916,0.0586,1.6172c0.0381,0.2256,0.1162,0.4424,0.2314,0.6494h-0.958
				C155.1093,41.6416,155.0478,41.4189,155.0204,41.165z M154.9443,39.1171c-0.333,0.1357-0.832,0.251-1.498,0.3457
				c-0.377,0.0547-0.6436,0.1162-0.7998,0.1836c-0.1563,0.0684-0.2764,0.167-0.3613,0.2979s-0.127,0.2764-0.127,0.4355
				c0,0.2451,0.0918,0.4482,0.2773,0.6113c0.1846,0.1631,0.4561,0.2451,0.8125,0.2451c0.3535,0,0.667-0.0771,0.9424-0.2324
				c0.2754-0.1543,0.4775-0.3652,0.6064-0.6338c0.0986-0.207,0.1475-0.5127,0.1475-0.917V39.1171z"/>
			<path d="M156.9267,40.2167l0.9063-0.1426c0.0508,0.3633,0.1934,0.6426,0.4258,0.8359s0.5576,0.29,0.9756,0.29
				c0.4209,0,0.7334-0.0859,0.9375-0.2568c0.2031-0.1719,0.3057-0.373,0.3057-0.6035c0-0.208-0.0908-0.3701-0.2705-0.4893
				c-0.126-0.082-0.4375-0.1855-0.9375-0.3105c-0.6719-0.1699-1.1387-0.3174-1.3984-0.4414s-0.4561-0.2949-0.5908-0.5146
				c-0.1338-0.2188-0.2012-0.4609-0.2012-0.7256c0-0.2412,0.0557-0.4639,0.166-0.6699c0.1104-0.2051,0.2607-0.376,0.4502-0.5117
				c0.1426-0.1055,0.3369-0.1943,0.584-0.2676c0.2461-0.0732,0.5098-0.1094,0.792-0.1094c0.4248,0,0.7969,0.0605,1.1182,0.1836
				c0.3213,0.1221,0.5576,0.2871,0.7109,0.4961c0.1523,0.209,0.2578,0.4883,0.3154,0.8379l-0.8965,0.123
				c-0.041-0.2793-0.1592-0.4961-0.3545-0.6523s-0.4707-0.2344-0.8271-0.2344c-0.4219,0-0.7217,0.0693-0.9023,0.209
				c-0.1797,0.1387-0.2695,0.3018-0.2695,0.4883c0,0.1191,0.0371,0.2266,0.1123,0.3213c0.0742,0.0986,0.1914,0.1807,0.3516,0.2451
				c0.0908,0.0332,0.3613,0.1113,0.8096,0.2334c0.6484,0.1738,1.1016,0.3154,1.3574,0.4258
				c0.2568,0.1104,0.458,0.2705,0.6035,0.4814c0.1465,0.2109,0.2197,0.4717,0.2197,0.7842c0,0.3057-0.0898,0.5938-0.2676,0.8643
				c-0.1787,0.2695-0.4355,0.4785-0.7715,0.626c-0.3369,0.1484-0.7168,0.2217-1.1416,0.2217c-0.7031,0-1.2393-0.1455-1.6074-0.4375
				S157.0282,40.791,156.9267,40.2167z"/>
		</g>
		<g>
			<path d="M14.5248,111.8085l0.9326-0.0811c0.0439,0.373,0.1465,0.6797,0.3076,0.9189s0.4121,0.4336,0.752,0.5811
				c0.3389,0.1475,0.7217,0.2217,1.1455,0.2217c0.377,0,0.71-0.0566,0.999-0.168c0.2881-0.1123,0.5029-0.2666,0.6445-0.4619
				c0.1406-0.1943,0.2109-0.4082,0.2109-0.6387c0-0.2344-0.0674-0.4395-0.2031-0.6143c-0.1367-0.1748-0.3604-0.3213-0.6729-0.4404
				c-0.2002-0.0781-0.6436-0.1992-1.3301-0.3643c-0.6855-0.165-1.166-0.3203-1.4414-0.4658
				c-0.3564-0.1875-0.6221-0.4189-0.7969-0.6953c-0.1748-0.2773-0.2627-0.5869-0.2627-0.9297c0-0.377,0.1074-0.7295,0.3213-1.0576
				c0.2139-0.3271,0.5264-0.5762,0.9375-0.7461c0.4102-0.1699,0.8672-0.2549,1.3701-0.2549c0.5537,0,1.042,0.0889,1.4648,0.2676
				c0.4229,0.1777,0.748,0.4404,0.9756,0.7871s0.3496,0.7383,0.3662,1.1768l-0.9473,0.0713
				c-0.0508-0.4717-0.2236-0.8291-0.5176-1.0703c-0.293-0.2402-0.7275-0.3613-1.3008-0.3613c-0.5986,0-1.0342,0.1094-1.3066,0.3291
				c-0.2734,0.2188-0.4102,0.4824-0.4102,0.792c0,0.2676,0.0967,0.4893,0.29,0.6621c0.1904,0.1729,0.6865,0.3506,1.4902,0.5322
				c0.8027,0.1816,1.3535,0.3408,1.6533,0.4766c0.4346,0.2002,0.7549,0.4541,0.9629,0.7617
				c0.207,0.3066,0.3105,0.6611,0.3105,1.0615c0,0.3975-0.1143,0.7725-0.3418,1.124s-0.5547,0.625-0.9805,0.8193
				c-0.4258,0.1953-0.9063,0.293-1.4395,0.293c-0.6758,0-1.2422-0.0977-1.6982-0.2949c-0.457-0.1973-0.8154-0.4932-1.0752-0.8887
				C14.6752,112.7548,14.5385,112.3076,14.5248,111.8085z"/>
			<path d="M25.4067,112.4658l0.9473,0.1172c-0.1494,0.5537-0.4258,0.9834-0.8301,1.2891s-0.9209,0.458-1.5488,0.458
				c-0.792,0-1.4189-0.2432-1.8828-0.7305c-0.4629-0.4873-0.6953-1.1709-0.6953-2.0508c0-0.9102,0.2344-1.6162,0.7031-2.1191
				s1.0771-0.7539,1.8242-0.7539c0.7227,0,1.3145,0.2461,1.7725,0.7383c0.459,0.4922,0.6875,1.1855,0.6875,2.0791
				c0,0.0537-0.001,0.1357-0.0049,0.2441h-4.0342c0.0332,0.5947,0.2012,1.0498,0.5039,1.3652
				c0.3018,0.3154,0.6797,0.4736,1.1309,0.4736c0.3359,0,0.623-0.0879,0.8613-0.2646
				C25.0785,113.1347,25.267,112.8525,25.4067,112.4658z M22.3959,110.9833h3.0205c-0.041-0.4551-0.1563-0.7969-0.3467-1.0244
				c-0.292-0.3525-0.6699-0.5293-1.1357-0.5293c-0.4209,0-0.7754,0.1406-1.0625,0.4229
				C22.5854,110.1347,22.4262,110.5117,22.3959,110.9833z"/>
			<path d="M30.394,114.208v-5.4102h0.8252v0.8203c0.21-0.3838,0.4053-0.6367,0.583-0.7588c0.1787-0.123,0.375-0.1836,0.5889-0.1836
				c0.3086,0,0.623,0.0986,0.9424,0.2949l-0.3164,0.8506c-0.2236-0.1318-0.4482-0.1982-0.6719-0.1982
				c-0.2002,0-0.3809,0.0605-0.54,0.1807c-0.1602,0.1211-0.2734,0.2881-0.3418,0.502c-0.1016,0.3262-0.1523,0.6826-0.1523,1.0703
				v2.832H30.394z"/>
			<path d="M33.5375,111.5029c0-1.002,0.2783-1.7441,0.835-2.2266c0.4658-0.4004,1.0322-0.6006,1.7021-0.6006
				c0.7432,0,1.3516,0.2432,1.8232,0.7305c0.4727,0.4873,0.708,1.1611,0.708,2.0205c0,0.6963-0.1045,1.2432-0.3135,1.6426
				c-0.208,0.3994-0.5127,0.709-0.9111,0.9297c-0.3994,0.2207-0.835,0.3311-1.3066,0.3311c-0.7578,0-1.3701-0.2422-1.8369-0.7285
				C33.7709,113.1162,33.5375,112.4169,33.5375,111.5029z M34.4799,111.5029c0,0.6924,0.1514,1.2119,0.4531,1.5566
				c0.3027,0.3447,0.6826,0.5166,1.1416,0.5166c0.4551,0,0.833-0.1729,1.1357-0.5195c0.3018-0.3467,0.4531-0.874,0.4531-1.584
				c0-0.6689-0.1514-1.1758-0.4561-1.5205c-0.3037-0.3447-0.6816-0.5176-1.1328-0.5176c-0.459,0-0.8389,0.1719-1.1416,0.5146
				C34.6313,110.2919,34.4799,110.8105,34.4799,111.5029z"/>
			<path d="M39.6801,114.208v-5.4102h0.8203v0.7588c0.1699-0.2646,0.3955-0.4775,0.6777-0.6387
				c0.2822-0.1621,0.6025-0.2422,0.9629-0.2422c0.4004,0,0.7295,0.083,0.9854,0.249c0.2568,0.167,0.4375,0.3994,0.543,0.6982
				c0.4277-0.6318,0.9844-0.9473,1.6709-0.9473c0.5361,0,0.9492,0.1484,1.2383,0.4453c0.2881,0.2979,0.4326,0.7549,0.4326,1.373
				v3.7139H46.099v-3.4082c0-0.3672-0.0293-0.6309-0.0889-0.792s-0.167-0.291-0.3232-0.3896s-0.3398-0.1475-0.5508-0.1475
				c-0.3799,0-0.6963,0.126-0.9473,0.3789s-0.377,0.6582-0.377,1.2148v3.1436h-0.917v-3.5146c0-0.4082-0.0752-0.7139-0.2246-0.917
				c-0.1494-0.2041-0.3936-0.3057-0.7334-0.3057c-0.2578,0-0.4961,0.0674-0.7158,0.2031c-0.2188,0.1357-0.3779,0.335-0.4756,0.5967
				c-0.0986,0.2607-0.1484,0.6377-0.1484,1.1309v2.8066H39.6801z"/>
			<path d="M48.3715,116.2812v-7.4834h0.8359v0.7031c0.1963-0.2754,0.4189-0.4814,0.667-0.6191s0.5488-0.2061,0.9014-0.2061
				c0.4619,0,0.8701,0.1191,1.2227,0.3564c0.3535,0.2373,0.6201,0.5732,0.7998,1.0059c0.1807,0.4336,0.2705,0.9082,0.2705,1.4238
				c0,0.5537-0.0996,1.0518-0.2979,1.4951c-0.1992,0.4434-0.4873,0.7832-0.8662,1.0195c-0.3789,0.2354-0.7773,0.3535-1.1943,0.3535
				c-0.3057,0-0.5801-0.0645-0.8232-0.1934c-0.2422-0.1289-0.4424-0.292-0.5986-0.4893v2.6338H48.3715z M49.2026,111.5331
				c0,0.6963,0.1406,1.2109,0.4229,1.5439c0.2813,0.333,0.623,0.499,1.0234,0.499c0.4072,0,0.7568-0.1719,1.0469-0.5166
				s0.4355-0.8789,0.4355-1.6025c0-0.6895-0.1416-1.2061-0.4248-1.5488c-0.2842-0.3428-0.623-0.5146-1.0166-0.5146
				c-0.3906,0-0.7363,0.1826-1.0371,0.5479S49.2026,110.8369,49.2026,111.5331z"/>
			<path d="M57.8783,112.4658l0.9473,0.1172c-0.1494,0.5537-0.4258,0.9834-0.8301,1.2891s-0.9209,0.458-1.5488,0.458
				c-0.792,0-1.4189-0.2432-1.8828-0.7305c-0.4629-0.4873-0.6953-1.1709-0.6953-2.0508c0-0.9102,0.2344-1.6162,0.7031-2.1191
				s1.0771-0.7539,1.8242-0.7539c0.7227,0,1.3145,0.2461,1.7725,0.7383c0.459,0.4922,0.6875,1.1855,0.6875,2.0791
				c0,0.0537-0.001,0.1357-0.0049,0.2441h-4.0342c0.0332,0.5947,0.2012,1.0498,0.5039,1.3652
				c0.3018,0.3154,0.6797,0.4736,1.1309,0.4736c0.3359,0,0.623-0.0879,0.8613-0.2646
				C57.5502,113.1347,57.7387,112.8525,57.8783,112.4658z M54.8676,110.9833h3.0205c-0.041-0.4551-0.1563-0.7969-0.3467-1.0244
				c-0.292-0.3525-0.6699-0.5293-1.1357-0.5293c-0.4209,0-0.7754,0.1406-1.0625,0.4229
				C55.0571,110.1347,54.8979,110.5117,54.8676,110.9833z"/>
			<path d="M62.8549,114.208v-7.4688h0.917v7.4688H62.8549z"/>
			<path d="M68.7231,113.541c-0.3389,0.2881-0.666,0.4922-0.9805,0.6113c-0.3145,0.1182-0.6514,0.1777-1.0107,0.1777
				c-0.5947,0-1.0518-0.1445-1.3711-0.4355c-0.3193-0.29-0.4785-0.6611-0.4785-1.1133c0-0.2646,0.0605-0.5068,0.1807-0.7256
				c0.1211-0.2188,0.2783-0.3945,0.4736-0.5273s0.416-0.2324,0.6602-0.3008c0.1797-0.0469,0.4512-0.0928,0.8154-0.1377
				c0.7402-0.0879,1.2852-0.1934,1.6348-0.3154c0.0039-0.126,0.0049-0.2051,0.0049-0.2393c0-0.374-0.0859-0.6367-0.2598-0.79
				c-0.2344-0.207-0.582-0.3105-1.0439-0.3105c-0.4316,0-0.75,0.0752-0.9551,0.2266c-0.2061,0.1514-0.3574,0.4189-0.4561,0.8027
				l-0.8965-0.1221c0.0811-0.3838,0.2158-0.6943,0.4023-0.9297c0.1865-0.2363,0.457-0.418,0.8096-0.5459
				c0.3535-0.127,0.7627-0.1904,1.2285-0.1904c0.4609,0,0.8369,0.0537,1.125,0.1631c0.2891,0.1084,0.501,0.2451,0.6367,0.4102
				c0.1367,0.1641,0.2314,0.3721,0.2861,0.624c0.0303,0.1563,0.0459,0.4375,0.0459,0.8457v1.2227
				c0,0.8525,0.0195,1.3916,0.0586,1.6172c0.0381,0.2256,0.1162,0.4424,0.2314,0.6494h-0.958
				C68.8119,114.0175,68.7504,113.7949,68.7231,113.541z M68.6469,111.4931c-0.333,0.1357-0.832,0.251-1.498,0.3457
				c-0.377,0.0547-0.6436,0.1162-0.7998,0.1836c-0.1563,0.0684-0.2764,0.167-0.3613,0.2979s-0.127,0.2764-0.127,0.4355
				c0,0.2451,0.0918,0.4482,0.2773,0.6113c0.1846,0.1631,0.4561,0.2451,0.8125,0.2451c0.3535,0,0.667-0.0771,0.9424-0.2324
				c0.2754-0.1543,0.4775-0.3652,0.6064-0.6338c0.0986-0.207,0.1475-0.5127,0.1475-0.917V111.4931z"/>
			<path d="M14.5043,121.79l0.9023,0.1172c-0.0986,0.6211-0.3506,1.1074-0.7568,1.459s-0.9043,0.5273-1.4951,0.5273
				c-0.7402,0-1.3359-0.2422-1.7852-0.7256c-0.4502-0.4844-0.6758-1.1777-0.6758-2.0811c0-0.584,0.0967-1.0957,0.291-1.5332
				c0.1934-0.4385,0.4883-0.7666,0.8838-0.9863c0.3955-0.2188,0.8262-0.3281,1.291-0.3281c0.5879,0,1.0684,0.1484,1.4414,0.4453
				c0.374,0.2979,0.6133,0.7197,0.7188,1.2666l-0.8916,0.1367c-0.085-0.3633-0.2354-0.6367-0.4512-0.8193
				c-0.2148-0.1836-0.4756-0.2754-0.7813-0.2754c-0.4619,0-0.8379,0.165-1.126,0.4961c-0.2891,0.332-0.4336,0.8555-0.4336,1.5723
				c0,0.7266,0.1396,1.2549,0.418,1.584s0.6416,0.4941,1.0908,0.4941c0.3594,0,0.6602-0.1104,0.9014-0.3311
				S14.4399,122.248,14.5043,121.79z"/>
			<path d="M15.85,121.0664c0-1.002,0.2783-1.7441,0.835-2.2266c0.4658-0.4004,1.0322-0.6006,1.7021-0.6006
				c0.7432,0,1.3516,0.2432,1.8232,0.7305c0.4727,0.4873,0.708,1.1611,0.708,2.0205c0,0.6963-0.1045,1.2432-0.3135,1.6426
				c-0.208,0.3994-0.5127,0.709-0.9111,0.9297c-0.3994,0.2207-0.835,0.3311-1.3066,0.3311c-0.7578,0-1.3701-0.2422-1.8369-0.7285
				C16.0834,122.6796,15.85,121.9804,15.85,121.0664z M16.7924,121.0664c0,0.6924,0.1514,1.2119,0.4531,1.5566
				c0.3027,0.3447,0.6826,0.5166,1.1416,0.5166c0.4551,0,0.833-0.1729,1.1357-0.5195c0.3018-0.3467,0.4531-0.874,0.4531-1.584
				c0-0.6689-0.1514-1.1758-0.4561-1.5205c-0.3037-0.3447-0.6816-0.5176-1.1328-0.5176c-0.459,0-0.8389,0.1719-1.1416,0.5146
				C16.9438,119.8554,16.7924,120.374,16.7924,121.0664z"/>
			<path d="M21.9936,123.7714v-5.4102h0.8203v0.7588c0.1699-0.2646,0.3955-0.4775,0.6777-0.6387
				c0.2822-0.1621,0.6025-0.2422,0.9629-0.2422c0.4004,0,0.7295,0.083,0.9854,0.249c0.2568,0.167,0.4375,0.3994,0.543,0.6982
				c0.4277-0.6318,0.9844-0.9473,1.6709-0.9473c0.5361,0,0.9492,0.1484,1.2383,0.4453c0.2881,0.2979,0.4326,0.7549,0.4326,1.373
				v3.7139h-0.9121v-3.4082c0-0.3672-0.0293-0.6309-0.0889-0.792s-0.167-0.291-0.3232-0.3896s-0.3398-0.1475-0.5508-0.1475
				c-0.3799,0-0.6963,0.126-0.9473,0.3789s-0.377,0.6582-0.377,1.2148v3.1436h-0.917v-3.5146c0-0.4082-0.0752-0.7139-0.2246-0.917
				c-0.1494-0.2041-0.3936-0.3057-0.7334-0.3057c-0.2578,0-0.4961,0.0674-0.7158,0.2031c-0.2188,0.1357-0.3779,0.335-0.4756,0.5967
				c-0.0986,0.2607-0.1484,0.6377-0.1484,1.1309v2.8066H21.9936z"/>
			<path d="M34.2299,123.7714v-0.7949c-0.4209,0.6113-0.9932,0.917-1.7168,0.917c-0.3193,0-0.6172-0.0605-0.8945-0.1836
				c-0.2764-0.1221-0.4814-0.2754-0.6162-0.4609c-0.1338-0.1846-0.2285-0.4111-0.2822-0.6797
				c-0.0381-0.1797-0.0566-0.4658-0.0566-0.8564v-3.3516h0.917v3.001c0,0.4785,0.0186,0.8008,0.0566,0.9678
				c0.0576,0.2412,0.1797,0.4307,0.3662,0.5674c0.1875,0.1377,0.418,0.207,0.6934,0.207s0.5332-0.0713,0.7744-0.2119
				s0.4111-0.333,0.5117-0.5752c0.1006-0.2432,0.1504-0.5957,0.1504-1.0576v-2.8984h0.917v5.4102H34.2299z"/>
			<path d="M36.4867,123.7714v-5.4102h0.8252v0.7695c0.3975-0.5947,0.9717-0.8916,1.7227-0.8916
				c0.3252,0,0.625,0.0586,0.8984,0.1758s0.4785,0.2705,0.6143,0.4609s0.2305,0.416,0.2852,0.6777
				c0.0342,0.1699,0.0508,0.4668,0.0508,0.8916v3.3262h-0.917v-3.291c0-0.373-0.0352-0.6523-0.1064-0.8379
				s-0.1982-0.333-0.3799-0.4434s-0.3945-0.165-0.6396-0.165c-0.3906,0-0.7275,0.124-1.0107,0.3711
				c-0.2842,0.248-0.4258,0.7188-0.4258,1.4111v2.9551H36.4867z"/>
			<path d="M42.2934,117.3574v-1.0547h0.917v1.0547H42.2934z M42.2934,123.7714v-5.4102h0.917v5.4102H42.2934z"/>
			<path d="M48.1371,121.79l0.9023,0.1172c-0.0986,0.6211-0.3506,1.1074-0.7568,1.459s-0.9043,0.5273-1.4951,0.5273
				c-0.7402,0-1.3359-0.2422-1.7852-0.7256c-0.4502-0.4844-0.6758-1.1777-0.6758-2.0811c0-0.584,0.0967-1.0957,0.291-1.5332
				c0.1934-0.4385,0.4883-0.7666,0.8838-0.9863c0.3955-0.2188,0.8262-0.3281,1.291-0.3281c0.5879,0,1.0684,0.1484,1.4414,0.4453
				c0.374,0.2979,0.6133,0.7197,0.7188,1.2666l-0.8916,0.1367c-0.085-0.3633-0.2354-0.6367-0.4512-0.8193
				c-0.2148-0.1836-0.4756-0.2754-0.7813-0.2754c-0.4619,0-0.8379,0.165-1.126,0.4961c-0.2891,0.332-0.4336,0.8555-0.4336,1.5723
				c0,0.7266,0.1396,1.2549,0.418,1.584s0.6416,0.4941,1.0908,0.4941c0.3594,0,0.6602-0.1104,0.9014-0.3311
				S48.0727,122.248,48.1371,121.79z"/>
			<path d="M53.3539,123.1044c-0.3389,0.2881-0.666,0.4922-0.9805,0.6113c-0.3145,0.1182-0.6514,0.1777-1.0107,0.1777
				c-0.5947,0-1.0518-0.1445-1.3711-0.4355c-0.3193-0.29-0.4785-0.6611-0.4785-1.1133c0-0.2646,0.0605-0.5068,0.1807-0.7256
				c0.1211-0.2188,0.2783-0.3945,0.4736-0.5273s0.416-0.2324,0.6602-0.3008c0.1797-0.0469,0.4512-0.0928,0.8154-0.1377
				c0.7402-0.0879,1.2852-0.1934,1.6348-0.3154c0.0039-0.126,0.0049-0.2051,0.0049-0.2393c0-0.374-0.0859-0.6367-0.2598-0.79
				c-0.2344-0.207-0.582-0.3105-1.0439-0.3105c-0.4316,0-0.75,0.0752-0.9551,0.2266c-0.2061,0.1514-0.3574,0.4189-0.4561,0.8027
				l-0.8965-0.1221c0.0811-0.3838,0.2158-0.6943,0.4023-0.9297c0.1865-0.2363,0.457-0.418,0.8096-0.5459
				c0.3535-0.127,0.7627-0.1904,1.2285-0.1904c0.4609,0,0.8369,0.0537,1.125,0.1631c0.2891,0.1084,0.501,0.2451,0.6367,0.4102
				c0.1367,0.1641,0.2314,0.3721,0.2861,0.624c0.0303,0.1563,0.0459,0.4375,0.0459,0.8457v1.2227
				c0,0.8525,0.0195,1.3916,0.0586,1.6172c0.0381,0.2256,0.1162,0.4424,0.2314,0.6494h-0.958
				C53.4428,123.581,53.3813,123.3583,53.3539,123.1044z M53.2778,121.0566c-0.333,0.1357-0.832,0.251-1.498,0.3457
				c-0.377,0.0547-0.6436,0.1162-0.7998,0.1836c-0.1563,0.0684-0.2764,0.167-0.3613,0.2979s-0.127,0.2764-0.127,0.4355
				c0,0.2451,0.0918,0.4482,0.2773,0.6113c0.1846,0.1631,0.4561,0.2451,0.8125,0.2451c0.3535,0,0.667-0.0771,0.9424-0.2324
				c0.2754-0.1543,0.4775-0.3652,0.6064-0.6338c0.0986-0.207,0.1475-0.5127,0.1475-0.917V121.0566z"/>
			<path d="M59.1567,121.79l0.9023,0.1172c-0.0986,0.6211-0.3506,1.1074-0.7568,1.459s-0.9043,0.5273-1.4951,0.5273
				c-0.7402,0-1.3359-0.2422-1.7852-0.7256c-0.4502-0.4844-0.6758-1.1777-0.6758-2.0811c0-0.584,0.0967-1.0957,0.291-1.5332
				c0.1934-0.4385,0.4883-0.7666,0.8838-0.9863c0.3955-0.2188,0.8262-0.3281,1.291-0.3281c0.5879,0,1.0684,0.1484,1.4414,0.4453
				c0.374,0.2979,0.6133,0.7197,0.7188,1.2666l-0.8916,0.1367c-0.085-0.3633-0.2354-0.6367-0.4512-0.8193
				c-0.2148-0.1836-0.4756-0.2754-0.7813-0.2754c-0.4619,0-0.8379,0.165-1.126,0.4961c-0.2891,0.332-0.4336,0.8555-0.4336,1.5723
				c0,0.7266,0.1396,1.2549,0.418,1.584s0.6416,0.4941,1.0908,0.4941c0.3594,0,0.6602-0.1104,0.9014-0.3311
				S59.0922,122.248,59.1567,121.79z"/>
			<path d="M60.8471,117.3574v-1.0547h0.917v1.0547H60.8471z M60.8471,123.7714v-5.4102h0.917v5.4102H60.8471z"/>
			<path d="M62.8197,121.0664c0-1.002,0.2783-1.7441,0.835-2.2266c0.4658-0.4004,1.0322-0.6006,1.7021-0.6006
				c0.7432,0,1.3516,0.2432,1.8232,0.7305c0.4727,0.4873,0.708,1.1611,0.708,2.0205c0,0.6963-0.1045,1.2432-0.3135,1.6426
				c-0.208,0.3994-0.5127,0.709-0.9111,0.9297c-0.3994,0.2207-0.835,0.3311-1.3066,0.3311c-0.7578,0-1.3701-0.2422-1.8369-0.7285
				C63.0531,122.6796,62.8197,121.9804,62.8197,121.0664z M63.7621,121.0664c0,0.6924,0.1514,1.2119,0.4531,1.5566
				c0.3027,0.3447,0.6826,0.5166,1.1416,0.5166c0.4551,0,0.833-0.1729,1.1357-0.5195c0.3018-0.3467,0.4531-0.874,0.4531-1.584
				c0-0.6689-0.1514-1.1758-0.4561-1.5205c-0.3037-0.3447-0.6816-0.5176-1.1328-0.5176c-0.459,0-0.8389,0.1719-1.1416,0.5146
				C63.9135,119.8554,63.7621,120.374,63.7621,121.0664z M64.8471,117.6884l0.6777-1.4258h1.2021l-1.1211,1.4258H64.8471z"/>
			<path d="M68.9633,123.7714v-5.4102h0.8252v0.7695c0.3975-0.5947,0.9717-0.8916,1.7227-0.8916
				c0.3252,0,0.625,0.0586,0.8984,0.1758s0.4785,0.2705,0.6143,0.4609s0.2305,0.416,0.2852,0.6777
				c0.0342,0.1699,0.0508,0.4668,0.0508,0.8916v3.3262h-0.917v-3.291c0-0.373-0.0352-0.6523-0.1064-0.8379
				s-0.1982-0.333-0.3799-0.4434s-0.3945-0.165-0.6396-0.165c-0.3906,0-0.7275,0.124-1.0107,0.3711
				c-0.2842,0.248-0.4258,0.7188-0.4258,1.4111v2.9551H68.9633z"/>
			<path d="M27.725,131.5937l0.9473,0.1172c-0.1494,0.5537-0.4258,0.9834-0.8301,1.2891s-0.9209,0.458-1.5488,0.458
				c-0.792,0-1.4189-0.2432-1.8828-0.7305c-0.4629-0.4873-0.6953-1.1709-0.6953-2.0508c0-0.9102,0.2344-1.6162,0.7031-2.1191
				s1.0771-0.7539,1.8242-0.7539c0.7227,0,1.3145,0.2461,1.7725,0.7383c0.459,0.4922,0.6875,1.1855,0.6875,2.0791
				c0,0.0537-0.001,0.1357-0.0049,0.2441h-4.0342c0.0332,0.5947,0.2012,1.0498,0.5039,1.3652
				c0.3018,0.3154,0.6797,0.4736,1.1309,0.4736c0.3359,0,0.623-0.0879,0.8613-0.2646
				C27.3969,132.2626,27.5854,131.9804,27.725,131.5937z M24.7143,130.1113h3.0205c-0.041-0.4551-0.1563-0.7969-0.3467-1.0244
				c-0.292-0.3525-0.6699-0.5293-1.1357-0.5293c-0.4209,0-0.7754,0.1406-1.0625,0.4229
				C24.9037,129.2626,24.7446,129.6396,24.7143,130.1113z"/>
			<path d="M29.8237,133.3359v-5.4102h0.8252v0.7695c0.3975-0.5947,0.9717-0.8916,1.7227-0.8916
				c0.3252,0,0.625,0.0586,0.8984,0.1758c0.2734,0.1172,0.4785,0.2705,0.6143,0.4609s0.2305,0.416,0.2852,0.6777
				c0.0342,0.1699,0.0508,0.4668,0.0508,0.8916v3.3262h-0.917v-3.291c0-0.373-0.0352-0.6523-0.1064-0.8379
				s-0.1982-0.333-0.3799-0.4434s-0.3945-0.165-0.6396-0.165c-0.3906,0-0.7275,0.124-1.0107,0.3711
				c-0.2842,0.248-0.4258,0.7188-0.4258,1.4111v2.9551H29.8237z"/>
			<path d="M37.6274,132.5156l0.1328,0.8105c-0.2578,0.0537-0.4893,0.0811-0.6924,0.0811c-0.333,0-0.5918-0.0527-0.7744-0.1582
				c-0.1836-0.1045-0.3125-0.2432-0.3877-0.415c-0.0742-0.1709-0.1123-0.5322-0.1123-1.082v-3.1133h-0.6719v-0.7129h0.6719v-1.3398
				l0.9121-0.5498v1.8896h0.9219v0.7129h-0.9219v3.1641c0,0.2617,0.0166,0.4297,0.0488,0.5039
				c0.0322,0.0752,0.085,0.1348,0.1572,0.1787c0.0732,0.0439,0.1777,0.0664,0.3135,0.0664
				C37.3276,132.5517,37.4613,132.539,37.6274,132.5156z"/>
			<path d="M38.5151,133.3359v-5.4102h0.8252v0.8203c0.21-0.3838,0.4053-0.6367,0.583-0.7588
				c0.1787-0.123,0.375-0.1836,0.5889-0.1836c0.3086,0,0.623,0.0986,0.9424,0.2949l-0.3164,0.8506
				c-0.2236-0.1318-0.4482-0.1982-0.6719-0.1982c-0.2002,0-0.3809,0.0605-0.54,0.1807c-0.1602,0.1211-0.2734,0.2881-0.3418,0.502
				c-0.1016,0.3262-0.1523,0.6826-0.1523,1.0703v2.832H38.5151z"/>
			<path d="M45.7026,131.5937l0.9473,0.1172c-0.1494,0.5537-0.4258,0.9834-0.8301,1.2891s-0.9209,0.458-1.5488,0.458
				c-0.792,0-1.4189-0.2432-1.8828-0.7305c-0.4629-0.4873-0.6953-1.1709-0.6953-2.0508c0-0.9102,0.2344-1.6162,0.7031-2.1191
				s1.0771-0.7539,1.8242-0.7539c0.7227,0,1.3145,0.2461,1.7725,0.7383c0.459,0.4922,0.6875,1.1855,0.6875,2.0791
				c0,0.0537-0.001,0.1357-0.0049,0.2441H42.641c0.0332,0.5947,0.2012,1.0498,0.5039,1.3652
				c0.3018,0.3154,0.6797,0.4736,1.1309,0.4736c0.3359,0,0.623-0.0879,0.8613-0.2646
				C45.3744,132.2626,45.5629,131.9804,45.7026,131.5937z M42.6918,130.1113h3.0205c-0.041-0.4551-0.1563-0.7969-0.3467-1.0244
				c-0.292-0.3525-0.6699-0.5293-1.1357-0.5293c-0.4209,0-0.7754,0.1406-1.0625,0.4229
				C42.8813,129.2626,42.7221,129.6396,42.6918,130.1113z"/>
			<path d="M54.4037,131.5937l0.9473,0.1172c-0.1494,0.5537-0.4258,0.9834-0.8301,1.2891s-0.9209,0.458-1.5488,0.458
				c-0.792,0-1.4189-0.2432-1.8828-0.7305c-0.4629-0.4873-0.6953-1.1709-0.6953-2.0508c0-0.9102,0.2344-1.6162,0.7031-2.1191
				s1.0771-0.7539,1.8242-0.7539c0.7227,0,1.3145,0.2461,1.7725,0.7383c0.459,0.4922,0.6875,1.1855,0.6875,2.0791
				c0,0.0537-0.001,0.1357-0.0049,0.2441h-4.0342c0.0332,0.5947,0.2012,1.0498,0.5039,1.3652
				c0.3018,0.3154,0.6797,0.4736,1.1309,0.4736c0.3359,0,0.623-0.0879,0.8613-0.2646
				C54.0756,132.2626,54.2641,131.9804,54.4037,131.5937z M51.393,130.1113h3.0205c-0.041-0.4551-0.1563-0.7969-0.3467-1.0244
				c-0.292-0.3525-0.6699-0.5293-1.1357-0.5293c-0.4209,0-0.7754,0.1406-1.0625,0.4229
				C51.5824,129.2626,51.4233,129.6396,51.393,130.1113z"/>
			<path d="M56.4819,133.3359v-7.4688h0.917v7.4688H56.4819z"/>
			<path d="M18.1547,141.1572l0.9473,0.1172c-0.1494,0.5537-0.4258,0.9834-0.8301,1.2891s-0.9209,0.458-1.5488,0.458
				c-0.792,0-1.4189-0.2432-1.8828-0.7305c-0.4629-0.4873-0.6953-1.1709-0.6953-2.0508c0-0.9102,0.2344-1.6162,0.7031-2.1191
				s1.0771-0.7539,1.8242-0.7539c0.7227,0,1.3145,0.2461,1.7725,0.7383c0.459,0.4922,0.6875,1.1855,0.6875,2.0791
				c0,0.0537-0.001,0.1357-0.0049,0.2441h-4.0342c0.0332,0.5947,0.2012,1.0498,0.5039,1.3652
				c0.3018,0.3154,0.6797,0.4736,1.1309,0.4736c0.3359,0,0.623-0.0879,0.8613-0.2646
				C17.8266,141.8261,18.0151,141.5439,18.1547,141.1572z M15.144,139.6748h3.0205c-0.041-0.4551-0.1563-0.7969-0.3467-1.0244
				c-0.292-0.3525-0.6699-0.5293-1.1357-0.5293c-0.4209,0-0.7754,0.1406-1.0625,0.4229
				C15.3334,138.8261,15.1742,139.2031,15.144,139.6748z"/>
			<path d="M20.2533,142.8994v-5.4102h0.8252v0.7695c0.3975-0.5947,0.9717-0.8916,1.7227-0.8916
				c0.3252,0,0.625,0.0586,0.8984,0.1758s0.4785,0.2705,0.6143,0.4609s0.2305,0.416,0.2852,0.6777
				c0.0342,0.1699,0.0508,0.4668,0.0508,0.8916v3.3262h-0.917v-3.291c0-0.373-0.0352-0.6523-0.1064-0.8379
				s-0.1982-0.333-0.3799-0.4434s-0.3945-0.165-0.6396-0.165c-0.3906,0-0.7275,0.124-1.0107,0.3711
				c-0.2842,0.248-0.4258,0.7188-0.4258,1.4111v2.9551H20.2533z"/>
			<path d="M28.0571,142.0791l0.1328,0.8105c-0.2578,0.0537-0.4893,0.0811-0.6924,0.0811c-0.333,0-0.5918-0.0527-0.7744-0.1582
				c-0.1836-0.1045-0.3125-0.2432-0.3877-0.415c-0.0742-0.1709-0.1123-0.5322-0.1123-1.082v-3.1133h-0.6719v-0.7129h0.6719v-1.3398
				l0.9121-0.5498v1.8896h0.9219v0.7129h-0.9219v3.1641c0,0.2617,0.0166,0.4297,0.0488,0.5039
				c0.0322,0.0752,0.085,0.1348,0.1572,0.1787c0.0732,0.0439,0.1777,0.0664,0.3135,0.0664
				C27.7572,142.1152,27.891,142.1025,28.0571,142.0791z"/>
			<path d="M28.9447,142.8994v-5.4102h0.8252v0.8203c0.21-0.3838,0.4053-0.6367,0.583-0.7588
				c0.1787-0.123,0.375-0.1836,0.5889-0.1836c0.3086,0,0.623,0.0986,0.9424,0.2949l-0.3164,0.8506
				c-0.2236-0.1318-0.4482-0.1982-0.6719-0.1982c-0.2002,0-0.3809,0.0605-0.54,0.1807c-0.1602,0.1211-0.2734,0.2881-0.3418,0.502
				c-0.1016,0.3262-0.1523,0.6826-0.1523,1.0703v2.832H28.9447z"/>
			<path d="M36.1322,141.1572l0.9473,0.1172c-0.1494,0.5537-0.4258,0.9834-0.8301,1.2891s-0.9209,0.458-1.5488,0.458
				c-0.792,0-1.4189-0.2432-1.8828-0.7305c-0.4629-0.4873-0.6953-1.1709-0.6953-2.0508c0-0.9102,0.2344-1.6162,0.7031-2.1191
				s1.0771-0.7539,1.8242-0.7539c0.7227,0,1.3145,0.2461,1.7725,0.7383c0.459,0.4922,0.6875,1.1855,0.6875,2.0791
				c0,0.0537-0.001,0.1357-0.0049,0.2441h-4.0342c0.0332,0.5947,0.2012,1.0498,0.5039,1.3652
				c0.3018,0.3154,0.6797,0.4736,1.1309,0.4736c0.3359,0,0.623-0.0879,0.8613-0.2646
				C35.8041,141.8261,35.9926,141.5439,36.1322,141.1572z M33.1215,139.6748h3.0205c-0.041-0.4551-0.1563-0.7969-0.3467-1.0244
				c-0.292-0.3525-0.6699-0.5293-1.1357-0.5293c-0.4209,0-0.7754,0.1406-1.0625,0.4229
				C33.311,138.8261,33.1518,139.2031,33.1215,139.6748z"/>
			<path d="M39.7338,142.8994l-2.0576-5.4102h0.9678l1.1611,3.2402c0.126,0.3496,0.2412,0.7129,0.3467,1.0898
				c0.0811-0.2852,0.1953-0.6279,0.3408-1.0293l1.2031-3.3008h0.9424l-2.0479,5.4102H39.7338z"/>
			<path d="M43.4526,136.4853v-1.0547h0.917v1.0547H43.4526z M43.4526,142.8994v-5.4102h0.917v5.4102H43.4526z"/>
			<path d="M45.3988,141.2841l0.9063-0.1426c0.0508,0.3633,0.1934,0.6426,0.4258,0.8359s0.5576,0.29,0.9756,0.29
				c0.4209,0,0.7334-0.0859,0.9375-0.2568c0.2031-0.1719,0.3057-0.373,0.3057-0.6035c0-0.208-0.0908-0.3701-0.2705-0.4893
				c-0.126-0.082-0.4375-0.1855-0.9375-0.3105c-0.6719-0.1699-1.1387-0.3174-1.3984-0.4414s-0.4561-0.2949-0.5908-0.5146
				c-0.1338-0.2188-0.2012-0.4609-0.2012-0.7256c0-0.2412,0.0557-0.4639,0.166-0.6699c0.1104-0.2051,0.2607-0.376,0.4502-0.5117
				c0.1426-0.1055,0.3369-0.1943,0.584-0.2676c0.2461-0.0732,0.5098-0.1094,0.792-0.1094c0.4248,0,0.7969,0.0605,1.1182,0.1836
				c0.3213,0.1221,0.5576,0.2871,0.7109,0.4961c0.1523,0.209,0.2578,0.4883,0.3154,0.8379l-0.8965,0.123
				c-0.041-0.2793-0.1592-0.4961-0.3545-0.6523s-0.4707-0.2344-0.8271-0.2344c-0.4219,0-0.7217,0.0693-0.9023,0.209
				c-0.1797,0.1387-0.2695,0.3018-0.2695,0.4883c0,0.1191,0.0371,0.2266,0.1123,0.3213c0.0742,0.0986,0.1914,0.1807,0.3516,0.2451
				c0.0908,0.0332,0.3613,0.1113,0.8096,0.2334c0.6484,0.1738,1.1016,0.3154,1.3574,0.4258
				c0.2568,0.1104,0.458,0.2705,0.6035,0.4814c0.1465,0.2109,0.2197,0.4717,0.2197,0.7842c0,0.3057-0.0898,0.5938-0.2676,0.8643
				c-0.1787,0.2695-0.4355,0.4785-0.7715,0.626c-0.3369,0.1484-0.7168,0.2217-1.1416,0.2217c-0.7031,0-1.2393-0.1455-1.6074-0.4375
				S45.5004,141.8584,45.3988,141.2841z"/>
			<path d="M52.9838,142.0791l0.1328,0.8105c-0.2578,0.0537-0.4893,0.0811-0.6924,0.0811c-0.333,0-0.5918-0.0527-0.7744-0.1582
				c-0.1836-0.1045-0.3125-0.2432-0.3877-0.415c-0.0742-0.1709-0.1123-0.5322-0.1123-1.082v-3.1133H50.478v-0.7129h0.6719v-1.3398
				l0.9121-0.5498v1.8896h0.9219v0.7129h-0.9219v3.1641c0,0.2617,0.0166,0.4297,0.0488,0.5039
				c0.0322,0.0752,0.085,0.1348,0.1572,0.1787c0.0732,0.0439,0.1777,0.0664,0.3135,0.0664
				C52.684,142.1152,52.8178,142.1025,52.9838,142.0791z"/>
			<path d="M57.4115,142.2324c-0.3389,0.2881-0.666,0.4922-0.9805,0.6113c-0.3145,0.1182-0.6514,0.1777-1.0107,0.1777
				c-0.5947,0-1.0518-0.1445-1.3711-0.4355c-0.3193-0.29-0.4785-0.6611-0.4785-1.1133c0-0.2646,0.0605-0.5068,0.1807-0.7256
				c0.1211-0.2188,0.2783-0.3945,0.4736-0.5273s0.416-0.2324,0.6602-0.3008c0.1797-0.0469,0.4512-0.0928,0.8154-0.1377
				c0.7402-0.0879,1.2852-0.1934,1.6348-0.3154c0.0039-0.126,0.0049-0.2051,0.0049-0.2393c0-0.374-0.0859-0.6367-0.2598-0.79
				c-0.2344-0.207-0.582-0.3105-1.0439-0.3105c-0.4316,0-0.75,0.0752-0.9551,0.2266c-0.2061,0.1514-0.3574,0.4189-0.4561,0.8027
				l-0.8965-0.1221c0.0811-0.3838,0.2158-0.6943,0.4023-0.9297c0.1865-0.2363,0.457-0.418,0.8096-0.5459
				c0.3535-0.127,0.7627-0.1904,1.2285-0.1904c0.4609,0,0.8369,0.0537,1.125,0.1631c0.2891,0.1084,0.501,0.2451,0.6367,0.4102
				c0.1367,0.1641,0.2314,0.3721,0.2861,0.624c0.0303,0.1563,0.0459,0.4375,0.0459,0.8457v1.2227
				c0,0.8525,0.0195,1.3916,0.0586,1.6172c0.0381,0.2256,0.1162,0.4424,0.2314,0.6494h-0.958
				C57.5004,142.7089,57.4389,142.4863,57.4115,142.2324z M57.3354,140.1845c-0.333,0.1357-0.832,0.251-1.498,0.3457
				c-0.377,0.0547-0.6436,0.1162-0.7998,0.1836c-0.1563,0.0684-0.2764,0.167-0.3613,0.2979s-0.127,0.2764-0.127,0.4355
				c0,0.2451,0.0918,0.4482,0.2773,0.6113c0.1846,0.1631,0.4561,0.2451,0.8125,0.2451c0.3535,0,0.667-0.0771,0.9424-0.2324
				c0.2754-0.1543,0.4775-0.3652,0.6064-0.6338c0.0986-0.207,0.1475-0.5127,0.1475-0.917V140.1845z"/>
			<path d="M63.1928,142.8994v-0.6826c-0.3428,0.5371-0.8467,0.8047-1.5127,0.8047c-0.4316,0-0.8281-0.1191-1.1895-0.3564
				s-0.6416-0.5693-0.8408-0.9961c-0.1982-0.4258-0.2979-0.916-0.2979-1.4697c0-0.54,0.0898-1.0293,0.2705-1.4697
				c0.1797-0.4395,0.4492-0.7764,0.8096-1.0107s0.7627-0.3516,1.207-0.3516c0.3262,0,0.6172,0.0684,0.8711,0.2061
				c0.2549,0.1377,0.4619,0.3164,0.6221,0.5371v-2.6797h0.9121v7.4688H63.1928z M60.2944,140.1992
				c0,0.6934,0.1465,1.2109,0.4385,1.5537c0.292,0.3438,0.6367,0.5146,1.0342,0.5146c0.4004,0,0.7412-0.1641,1.0215-0.4912
				c0.2803-0.3281,0.4199-0.8281,0.4199-1.501c0-0.7402-0.1426-1.2832-0.4277-1.6299s-0.6367-0.5195-1.0547-0.5195
				c-0.4072,0-0.748,0.166-1.0215,0.499S60.2944,139.4824,60.2944,140.1992z"/>
			<path d="M65.1449,140.1943c0-1.002,0.2783-1.7441,0.835-2.2266c0.4658-0.4004,1.0322-0.6006,1.7021-0.6006
				c0.7432,0,1.3516,0.2432,1.8232,0.7305c0.4727,0.4873,0.708,1.1611,0.708,2.0205c0,0.6963-0.1045,1.2432-0.3135,1.6426
				c-0.208,0.3994-0.5127,0.709-0.9111,0.9297c-0.3994,0.2207-0.835,0.3311-1.3066,0.3311c-0.7578,0-1.3701-0.2422-1.8369-0.7285
				C65.3783,141.8076,65.1449,141.1084,65.1449,140.1943z M66.0873,140.1943c0,0.6924,0.1514,1.2119,0.4531,1.5566
				c0.3027,0.3447,0.6826,0.5166,1.1416,0.5166c0.4551,0,0.833-0.1729,1.1357-0.5195c0.3018-0.3467,0.4531-0.874,0.4531-1.584
				c0-0.6689-0.1514-1.1758-0.4561-1.5205c-0.3037-0.3447-0.6816-0.5176-1.1328-0.5176c-0.459,0-0.8389,0.1719-1.1416,0.5146
				C66.2387,138.9834,66.0873,139.5019,66.0873,140.1943z"/>
			<path d="M33.2621,154.5468l-0.1025-0.8613c0.2002,0.0547,0.375,0.0811,0.5244,0.0811c0.2041,0,0.3672-0.0332,0.4893-0.1016
				c0.1221-0.0674,0.2227-0.1631,0.3008-0.2852c0.0576-0.0918,0.1514-0.3193,0.2803-0.6826
				c0.0166-0.0508,0.0439-0.126,0.0811-0.2246l-2.0527-5.4199h0.9883l1.126,3.1328c0.1465,0.3975,0.2764,0.8154,0.3926,1.2529
				c0.1045-0.4209,0.2305-0.832,0.377-1.2324l1.1563-3.1533h0.917l-2.0586,5.502c-0.2207,0.5938-0.3916,1.0039-0.5137,1.2275
				c-0.1631,0.3027-0.3506,0.5244-0.5605,0.665c-0.2109,0.1406-0.4619,0.2109-0.7539,0.2109
				C33.6762,154.6582,33.4789,154.621,33.2621,154.5468z"/>
			<path d="M45.1215,150.7207l0.9473,0.1172c-0.1494,0.5537-0.4258,0.9834-0.8301,1.2891s-0.9209,0.458-1.5488,0.458
				c-0.792,0-1.4189-0.2432-1.8828-0.7305c-0.4629-0.4873-0.6953-1.1709-0.6953-2.0508c0-0.9102,0.2344-1.6162,0.7031-2.1191
				s1.0771-0.7539,1.8242-0.7539c0.7227,0,1.3145,0.2461,1.7725,0.7383c0.459,0.4922,0.6875,1.1855,0.6875,2.0791
				c0,0.0537-0.001,0.1357-0.0049,0.2441H42.06c0.0332,0.5947,0.2012,1.0498,0.5039,1.3652
				c0.3018,0.3154,0.6797,0.4736,1.1309,0.4736c0.3359,0,0.623-0.0879,0.8613-0.2646
				C44.7934,151.3896,44.9819,151.1074,45.1215,150.7207z M42.1108,149.2382h3.0205c-0.041-0.4551-0.1563-0.7969-0.3467-1.0244
				c-0.292-0.3525-0.6699-0.5293-1.1357-0.5293c-0.4209,0-0.7754,0.1406-1.0625,0.4229
				C42.3002,148.3896,42.141,148.7666,42.1108,149.2382z"/>
			<path d="M47.1996,152.4628v-7.4688h0.917v7.4688H47.1996z"/>
			<path d="M16.4174,160.2851l0.9473,0.1172c-0.1494,0.5537-0.4258,0.9834-0.8301,1.2891s-0.9209,0.458-1.5488,0.458
				c-0.792,0-1.4189-0.2432-1.8828-0.7305c-0.4629-0.4873-0.6953-1.1709-0.6953-2.0508c0-0.9102,0.2344-1.6162,0.7031-2.1191
				s1.0771-0.7539,1.8242-0.7539c0.7227,0,1.3145,0.2461,1.7725,0.7383c0.459,0.4922,0.6875,1.1855,0.6875,2.0791
				c0,0.0537-0.001,0.1357-0.0049,0.2441h-4.0342c0.0332,0.5947,0.2012,1.0498,0.5039,1.3652
				c0.3018,0.3154,0.6797,0.4736,1.1309,0.4736c0.3359,0,0.623-0.0879,0.8613-0.2646
				C16.0893,160.9541,16.2778,160.6718,16.4174,160.2851z M13.4067,158.8027h3.0205c-0.041-0.4551-0.1563-0.7969-0.3467-1.0244
				c-0.292-0.3525-0.6699-0.5293-1.1357-0.5293c-0.4209,0-0.7754,0.1406-1.0625,0.4229
				C13.5961,157.9541,13.4369,158.331,13.4067,158.8027z"/>
			<path d="M18.516,162.0273v-5.4102h0.8252v0.7695c0.3975-0.5947,0.9717-0.8916,1.7227-0.8916c0.3252,0,0.625,0.0586,0.8984,0.1758
				s0.4785,0.2705,0.6143,0.4609s0.2305,0.416,0.2852,0.6777c0.0342,0.1699,0.0508,0.4668,0.0508,0.8916v3.3262h-0.917v-3.291
				c0-0.373-0.0352-0.6523-0.1064-0.8379s-0.1982-0.333-0.3799-0.4434s-0.3945-0.165-0.6396-0.165
				c-0.3906,0-0.7275,0.124-1.0107,0.3711c-0.2842,0.248-0.4258,0.7188-0.4258,1.4111v2.9551H18.516z"/>
			<path d="M26.3197,161.207l0.1328,0.8105c-0.2578,0.0537-0.4893,0.0811-0.6924,0.0811c-0.333,0-0.5918-0.0527-0.7744-0.1582
				c-0.1836-0.1045-0.3125-0.2432-0.3877-0.415c-0.0742-0.1709-0.1123-0.5322-0.1123-1.082V157.33h-0.6719v-0.7129h0.6719v-1.3398
				l0.9121-0.5498v1.8896h0.9219v0.7129h-0.9219v3.1641c0,0.2617,0.0166,0.4297,0.0488,0.5039
				c0.0322,0.0752,0.085,0.1348,0.1572,0.1787c0.0732,0.0439,0.1777,0.0664,0.3135,0.0664
				C26.0199,161.2431,26.1537,161.2304,26.3197,161.207z"/>
			<path d="M27.2074,162.0273v-5.4102h0.8252v0.8203c0.21-0.3838,0.4053-0.6367,0.583-0.7588
				c0.1787-0.123,0.375-0.1836,0.5889-0.1836c0.3086,0,0.623,0.0986,0.9424,0.2949l-0.3164,0.8506
				c-0.2236-0.1318-0.4482-0.1982-0.6719-0.1982c-0.2002,0-0.3809,0.0605-0.54,0.1807c-0.1602,0.1211-0.2734,0.2881-0.3418,0.502
				c-0.1016,0.3262-0.1523,0.6826-0.1523,1.0703v2.832H27.2074z"/>
			<path d="M34.3949,160.2851l0.9473,0.1172c-0.1494,0.5537-0.4258,0.9834-0.8301,1.2891s-0.9209,0.458-1.5488,0.458
				c-0.792,0-1.4189-0.2432-1.8828-0.7305c-0.4629-0.4873-0.6953-1.1709-0.6953-2.0508c0-0.9102,0.2344-1.6162,0.7031-2.1191
				s1.0771-0.7539,1.8242-0.7539c0.7227,0,1.3145,0.2461,1.7725,0.7383c0.459,0.4922,0.6875,1.1855,0.6875,2.0791
				c0,0.0537-0.001,0.1357-0.0049,0.2441h-4.0342c0.0332,0.5947,0.2012,1.0498,0.5039,1.3652
				c0.3018,0.3154,0.6797,0.4736,1.1309,0.4736c0.3359,0,0.623-0.0879,0.8613-0.2646
				C34.0668,160.9541,34.2553,160.6718,34.3949,160.2851z M31.3842,158.8027h3.0205c-0.041-0.4551-0.1563-0.7969-0.3467-1.0244
				c-0.292-0.3525-0.6699-0.5293-1.1357-0.5293c-0.4209,0-0.7754,0.1406-1.0625,0.4229
				C31.5737,157.9541,31.4145,158.331,31.3842,158.8027z"/>
			<path d="M37.9965,162.0273l-2.0576-5.4102h0.9678l1.1611,3.2402c0.126,0.3496,0.2412,0.7129,0.3467,1.0898
				c0.0811-0.2852,0.1953-0.6279,0.3408-1.0293l1.2031-3.3008h0.9424l-2.0479,5.4102H37.9965z"/>
			<path d="M41.7153,155.6132v-1.0547h0.917v1.0547H41.7153z M41.7153,162.0273v-5.4102h0.917v5.4102H41.7153z"/>
			<path d="M43.6615,160.4121l0.9063-0.1426c0.0508,0.3633,0.1934,0.6426,0.4258,0.8359s0.5576,0.29,0.9756,0.29
				c0.4209,0,0.7334-0.0859,0.9375-0.2568c0.2031-0.1719,0.3057-0.373,0.3057-0.6035c0-0.208-0.0908-0.3701-0.2705-0.4893
				c-0.126-0.082-0.4375-0.1855-0.9375-0.3105c-0.6719-0.1699-1.1387-0.3174-1.3984-0.4414s-0.4561-0.2949-0.5908-0.5146
				c-0.1338-0.2188-0.2012-0.4609-0.2012-0.7256c0-0.2412,0.0557-0.4639,0.166-0.6699c0.1104-0.2051,0.2607-0.376,0.4502-0.5117
				c0.1426-0.1055,0.3369-0.1943,0.584-0.2676c0.2461-0.0732,0.5098-0.1094,0.792-0.1094c0.4248,0,0.7969,0.0605,1.1182,0.1836
				c0.3213,0.1221,0.5576,0.2871,0.7109,0.4961c0.1523,0.209,0.2578,0.4883,0.3154,0.8379l-0.8965,0.123
				c-0.041-0.2793-0.1592-0.4961-0.3545-0.6523s-0.4707-0.2344-0.8271-0.2344c-0.4219,0-0.7217,0.0693-0.9023,0.209
				c-0.1797,0.1387-0.2695,0.3018-0.2695,0.4883c0,0.1191,0.0371,0.2266,0.1123,0.3213c0.0742,0.0986,0.1914,0.1807,0.3516,0.2451
				c0.0908,0.0332,0.3613,0.1113,0.8096,0.2334c0.6484,0.1738,1.1016,0.3154,1.3574,0.4258
				c0.2568,0.1104,0.458,0.2705,0.6035,0.4814c0.1465,0.2109,0.2197,0.4717,0.2197,0.7842c0,0.3057-0.0898,0.5938-0.2676,0.8643
				c-0.1787,0.2695-0.4355,0.4785-0.7715,0.626c-0.3369,0.1484-0.7168,0.2217-1.1416,0.2217c-0.7031,0-1.2393-0.1455-1.6074-0.4375
				S43.7631,160.9863,43.6615,160.4121z"/>
			<path d="M51.2465,161.207l0.1328,0.8105c-0.2578,0.0537-0.4893,0.0811-0.6924,0.0811c-0.333,0-0.5918-0.0527-0.7744-0.1582
				c-0.1836-0.1045-0.3125-0.2432-0.3877-0.415c-0.0742-0.1709-0.1123-0.5322-0.1123-1.082V157.33h-0.6719v-0.7129h0.6719v-1.3398
				l0.9121-0.5498v1.8896h0.9219v0.7129h-0.9219v3.1641c0,0.2617,0.0166,0.4297,0.0488,0.5039
				c0.0322,0.0752,0.085,0.1348,0.1572,0.1787c0.0732,0.0439,0.1777,0.0664,0.3135,0.0664
				C50.9467,161.2431,51.0805,161.2304,51.2465,161.207z"/>
			<path d="M55.6742,161.3603c-0.3389,0.2881-0.666,0.4922-0.9805,0.6113c-0.3145,0.1182-0.6514,0.1777-1.0107,0.1777
				c-0.5947,0-1.0518-0.1445-1.3711-0.4355c-0.3193-0.29-0.4785-0.6611-0.4785-1.1133c0-0.2646,0.0605-0.5068,0.1807-0.7256
				c0.1211-0.2188,0.2783-0.3945,0.4736-0.5273s0.416-0.2324,0.6602-0.3008c0.1797-0.0469,0.4512-0.0928,0.8154-0.1377
				c0.7402-0.0879,1.2852-0.1934,1.6348-0.3154c0.0039-0.126,0.0049-0.2051,0.0049-0.2393c0-0.374-0.0859-0.6367-0.2598-0.79
				c-0.2344-0.207-0.582-0.3105-1.0439-0.3105c-0.4316,0-0.75,0.0752-0.9551,0.2266c-0.2061,0.1514-0.3574,0.4189-0.4561,0.8027
				l-0.8965-0.1221c0.0811-0.3838,0.2158-0.6943,0.4023-0.9297c0.1865-0.2363,0.457-0.418,0.8096-0.5459
				c0.3535-0.127,0.7627-0.1904,1.2285-0.1904c0.4609,0,0.8369,0.0537,1.125,0.1631c0.2891,0.1084,0.501,0.2451,0.6367,0.4102
				c0.1367,0.1641,0.2314,0.3721,0.2861,0.624c0.0303,0.1563,0.0459,0.4375,0.0459,0.8457v1.2227
				c0,0.8525,0.0195,1.3916,0.0586,1.6172c0.0381,0.2256,0.1162,0.4424,0.2314,0.6494h-0.958
				C55.7631,161.8369,55.7016,161.6142,55.6742,161.3603z M55.5981,159.3125c-0.333,0.1357-0.832,0.251-1.498,0.3457
				c-0.377,0.0547-0.6436,0.1162-0.7998,0.1836c-0.1563,0.0684-0.2764,0.167-0.3613,0.2979s-0.127,0.2764-0.127,0.4355
				c0,0.2451,0.0918,0.4482,0.2773,0.6113c0.1846,0.1631,0.4561,0.2451,0.8125,0.2451c0.3535,0,0.667-0.0771,0.9424-0.2324
				c0.2754-0.1543,0.4775-0.3652,0.6064-0.6338c0.0986-0.207,0.1475-0.5127,0.1475-0.917V159.3125z"/>
			<path d="M61.4555,162.0273v-0.6826c-0.3428,0.5371-0.8467,0.8047-1.5127,0.8047c-0.4316,0-0.8281-0.1191-1.1895-0.3564
				s-0.6416-0.5693-0.8408-0.9961c-0.1982-0.4258-0.2979-0.916-0.2979-1.4697c0-0.54,0.0898-1.0293,0.2705-1.4697
				c0.1797-0.4395,0.4492-0.7764,0.8096-1.0107s0.7627-0.3516,1.207-0.3516c0.3262,0,0.6172,0.0684,0.8711,0.2061
				c0.2549,0.1377,0.4619,0.3164,0.6221,0.5371v-2.6797h0.9121v7.4688H61.4555z M58.5571,159.3271
				c0,0.6934,0.1465,1.2109,0.4385,1.5537c0.292,0.3438,0.6367,0.5146,1.0342,0.5146c0.4004,0,0.7412-0.1641,1.0215-0.4912
				c0.2803-0.3281,0.4199-0.8281,0.4199-1.501c0-0.7402-0.1426-1.2832-0.4277-1.6299s-0.6367-0.5195-1.0547-0.5195
				c-0.4072,0-0.748,0.166-1.0215,0.499S58.5571,158.6103,58.5571,159.3271z"/>
			<path d="M63.4076,159.3222c0-1.002,0.2783-1.7441,0.835-2.2266c0.4658-0.4004,1.0322-0.6006,1.7021-0.6006
				c0.7432,0,1.3516,0.2432,1.8232,0.7305c0.4727,0.4873,0.708,1.1611,0.708,2.0205c0,0.6963-0.1045,1.2432-0.3135,1.6426
				c-0.208,0.3994-0.5127,0.709-0.9111,0.9297c-0.3994,0.2207-0.835,0.3311-1.3066,0.3311c-0.7578,0-1.3701-0.2422-1.8369-0.7285
				C63.641,160.9355,63.4076,160.2363,63.4076,159.3222z M64.35,159.3222c0,0.6924,0.1514,1.2119,0.4531,1.5566
				c0.3027,0.3447,0.6826,0.5166,1.1416,0.5166c0.4551,0,0.833-0.1729,1.1357-0.5195c0.3018-0.3467,0.4531-0.874,0.4531-1.584
				c0-0.6689-0.1514-1.1758-0.4561-1.5205c-0.3037-0.3447-0.6816-0.5176-1.1328-0.5176c-0.459,0-0.8389,0.1719-1.1416,0.5146
				C64.5014,158.1113,64.35,158.6298,64.35,159.3222z"/>
			<path d="M69.5414,162.0273v-5.4102h0.8252v0.8203c0.21-0.3838,0.4053-0.6367,0.583-0.7588
				c0.1787-0.123,0.375-0.1836,0.5889-0.1836c0.3086,0,0.623,0.0986,0.9424,0.2949l-0.3164,0.8506
				c-0.2236-0.1318-0.4482-0.1982-0.6719-0.1982c-0.2002,0-0.3809,0.0605-0.54,0.1807c-0.1602,0.1211-0.2734,0.2881-0.3418,0.502
				c-0.1016,0.3262-0.1523,0.6826-0.1523,1.0703v2.832H69.5414z"/>
		</g>
		<g>
			<path d="M132.7465,210.0634l0.9326-0.0811c0.0439,0.373,0.1465,0.6797,0.3076,0.9189s0.4121,0.4336,0.752,0.5811
				c0.3389,0.1475,0.7217,0.2217,1.1455,0.2217c0.377,0,0.71-0.0566,0.999-0.168c0.2881-0.1123,0.5029-0.2666,0.6445-0.4619
				c0.1406-0.1943,0.2109-0.4082,0.2109-0.6387c0-0.2344-0.0674-0.4395-0.2031-0.6143c-0.1367-0.1748-0.3604-0.3213-0.6729-0.4404
				c-0.2002-0.0781-0.6436-0.1992-1.3301-0.3643c-0.6855-0.165-1.166-0.3203-1.4414-0.4658
				c-0.3564-0.1875-0.6221-0.4189-0.7969-0.6953c-0.1748-0.2773-0.2627-0.5869-0.2627-0.9297c0-0.377,0.1074-0.7295,0.3213-1.0576
				c0.2139-0.3271,0.5264-0.5762,0.9375-0.7461c0.4102-0.1699,0.8672-0.2549,1.3701-0.2549c0.5537,0,1.042,0.0889,1.4648,0.2676
				c0.4229,0.1777,0.748,0.4404,0.9756,0.7871s0.3496,0.7383,0.3662,1.1768l-0.9473,0.0713
				c-0.0508-0.4717-0.2236-0.8291-0.5176-1.0703c-0.293-0.2402-0.7275-0.3613-1.3008-0.3613c-0.5986,0-1.0342,0.1094-1.3066,0.3291
				c-0.2734,0.2188-0.4102,0.4824-0.4102,0.792c0,0.2676,0.0967,0.4893,0.29,0.6621c0.1904,0.1729,0.6865,0.3506,1.4902,0.5322
				c0.8027,0.1816,1.3535,0.3408,1.6533,0.4766c0.4346,0.2002,0.7549,0.4541,0.9629,0.7617
				c0.207,0.3066,0.3105,0.6611,0.3105,1.0615c0,0.3975-0.1143,0.7725-0.3418,1.124s-0.5547,0.625-0.9805,0.8193
				c-0.4258,0.1953-0.9063,0.293-1.4395,0.293c-0.6758,0-1.2422-0.0977-1.6982-0.2949c-0.457-0.1973-0.8154-0.4932-1.0752-0.8887
				C132.8969,211.0097,132.7602,210.5625,132.7465,210.0634z"/>
			<path d="M143.6283,210.7207l0.9473,0.1172c-0.1494,0.5537-0.4258,0.9834-0.8301,1.2891s-0.9209,0.458-1.5488,0.458
				c-0.792,0-1.4189-0.2432-1.8828-0.7305c-0.4629-0.4873-0.6953-1.1709-0.6953-2.0508c0-0.9102,0.2344-1.6162,0.7031-2.1191
				s1.0771-0.7539,1.8242-0.7539c0.7227,0,1.3145,0.2461,1.7725,0.7383c0.459,0.4922,0.6875,1.1855,0.6875,2.0791
				c0,0.0537-0.001,0.1357-0.0049,0.2441h-4.0342c0.0332,0.5947,0.2012,1.0498,0.5039,1.3652
				c0.3018,0.3154,0.6797,0.4736,1.1309,0.4736c0.3359,0,0.623-0.0879,0.8613-0.2646
				C143.3002,211.3896,143.4887,211.1074,143.6283,210.7207z M140.6176,209.2382h3.0205c-0.041-0.4551-0.1563-0.7969-0.3467-1.0244
				c-0.292-0.3525-0.6699-0.5293-1.1357-0.5293c-0.4209,0-0.7754,0.1406-1.0625,0.4229
				C140.8071,208.3896,140.6479,208.7666,140.6176,209.2382z"/>
			<path d="M119.3354,224.0996v-7.4834h0.8359v0.7031c0.1963-0.2754,0.4189-0.4814,0.667-0.6191s0.5488-0.2061,0.9014-0.2061
				c0.4619,0,0.8701,0.1191,1.2227,0.3564c0.3535,0.2373,0.6201,0.5732,0.7998,1.0059c0.1807,0.4336,0.2705,0.9082,0.2705,1.4238
				c0,0.5537-0.0996,1.0518-0.2979,1.4951c-0.1992,0.4434-0.4873,0.7832-0.8662,1.0195c-0.3789,0.2354-0.7773,0.3535-1.1943,0.3535
				c-0.3057,0-0.5801-0.0645-0.8232-0.1934c-0.2422-0.1289-0.4424-0.292-0.5986-0.4893v2.6338H119.3354z M120.1664,219.3515
				c0,0.6963,0.1406,1.2109,0.4229,1.5439c0.2813,0.333,0.623,0.499,1.0234,0.499c0.4072,0,0.7568-0.1719,1.0469-0.5166
				s0.4355-0.8789,0.4355-1.6025c0-0.6895-0.1416-1.2061-0.4248-1.5488c-0.2842-0.3428-0.623-0.5146-1.0166-0.5146
				c-0.3906,0-0.7363,0.1826-1.0371,0.5479S120.1664,218.6552,120.1664,219.3515z"/>
			<path d="M125.143,215.6123v-1.0547h0.917v1.0547H125.143z M125.143,222.0263v-5.4102h0.917v5.4102H125.143z"/>
			<path d="M131.1596,220.2841l0.9473,0.1172c-0.1494,0.5537-0.4258,0.9834-0.8301,1.2891s-0.9209,0.458-1.5488,0.458
				c-0.792,0-1.4189-0.2432-1.8828-0.7305c-0.4629-0.4873-0.6953-1.1709-0.6953-2.0508c0-0.9102,0.2344-1.6162,0.7031-2.1191
				s1.0771-0.7539,1.8242-0.7539c0.7227,0,1.3145,0.2461,1.7725,0.7383c0.459,0.4922,0.6875,1.1855,0.6875,2.0791
				c0,0.0537-0.001,0.1357-0.0049,0.2441h-4.0342c0.0332,0.5947,0.2012,1.0498,0.5039,1.3652
				c0.3018,0.3154,0.6797,0.4736,1.1309,0.4736c0.3359,0,0.623-0.0879,0.8613-0.2646
				C130.8315,220.9531,131.0199,220.6709,131.1596,220.2841z M128.1488,218.8017h3.0205c-0.041-0.4551-0.1563-0.7969-0.3467-1.0244
				c-0.292-0.3525-0.6699-0.5293-1.1357-0.5293c-0.4209,0-0.7754,0.1406-1.0625,0.4229
				C128.3383,217.9531,128.1791,218.33,128.1488,218.8017z"/>
			<path d="M133.2485,222.0263v-5.4102h0.8252v0.8203c0.21-0.3838,0.4053-0.6367,0.583-0.7588
				c0.1787-0.123,0.375-0.1836,0.5889-0.1836c0.3086,0,0.623,0.0986,0.9424,0.2949l-0.3164,0.8506
				c-0.2236-0.1318-0.4482-0.1982-0.6719-0.1982c-0.2002,0-0.3809,0.0605-0.54,0.1807c-0.1602,0.1211-0.2734,0.2881-0.3418,0.502
				c-0.1016,0.3262-0.1523,0.6826-0.1523,1.0703v2.832H133.2485z"/>
			<path d="M140.2426,222.0263v-0.6826c-0.3428,0.5371-0.8467,0.8047-1.5127,0.8047c-0.4316,0-0.8281-0.1191-1.1895-0.3564
				s-0.6416-0.5693-0.8408-0.9961c-0.1982-0.4258-0.2979-0.916-0.2979-1.4697c0-0.54,0.0898-1.0293,0.2705-1.4697
				c0.1797-0.4395,0.4492-0.7764,0.8096-1.0107s0.7627-0.3516,1.207-0.3516c0.3262,0,0.6172,0.0684,0.8711,0.2061
				c0.2549,0.1377,0.4619,0.3164,0.6221,0.5371v-2.6797h0.9121v7.4688H140.2426z M137.3442,219.3261
				c0,0.6934,0.1465,1.2109,0.4385,1.5537c0.292,0.3438,0.6367,0.5146,1.0342,0.5146c0.4004,0,0.7412-0.1641,1.0215-0.4912
				c0.2803-0.3281,0.4199-0.8281,0.4199-1.501c0-0.7402-0.1426-1.2832-0.4277-1.6299s-0.6367-0.5195-1.0547-0.5195
				c-0.4072,0-0.748,0.166-1.0215,0.499S137.3442,218.6093,137.3442,219.3261z"/>
			<path d="M146.2387,220.2841l0.9473,0.1172c-0.1494,0.5537-0.4258,0.9834-0.8301,1.2891s-0.9209,0.458-1.5488,0.458
				c-0.792,0-1.4189-0.2432-1.8828-0.7305c-0.4629-0.4873-0.6953-1.1709-0.6953-2.0508c0-0.9102,0.2344-1.6162,0.7031-2.1191
				s1.0771-0.7539,1.8242-0.7539c0.7227,0,1.3145,0.2461,1.7725,0.7383c0.459,0.4922,0.6875,1.1855,0.6875,2.0791
				c0,0.0537-0.001,0.1357-0.0049,0.2441h-4.0342c0.0332,0.5947,0.2012,1.0498,0.5039,1.3652
				c0.3018,0.3154,0.6797,0.4736,1.1309,0.4736c0.3359,0,0.623-0.0879,0.8613-0.2646
				C145.9106,220.9531,146.099,220.6709,146.2387,220.2841z M143.228,218.8017h3.0205c-0.041-0.4551-0.1563-0.7969-0.3467-1.0244
				c-0.292-0.3525-0.6699-0.5293-1.1357-0.5293c-0.4209,0-0.7754,0.1406-1.0625,0.4229
				C143.4174,217.9531,143.2582,218.33,143.228,218.8017z"/>
			<path d="M151.2153,222.0263v-7.4688h0.917v7.4688H151.2153z"/>
			<path d="M157.0844,221.3593c-0.3389,0.2881-0.666,0.4922-0.9805,0.6113c-0.3145,0.1182-0.6514,0.1777-1.0107,0.1777
				c-0.5947,0-1.0518-0.1445-1.3711-0.4355c-0.3193-0.29-0.4785-0.6611-0.4785-1.1133c0-0.2646,0.0605-0.5068,0.1807-0.7256
				c0.1211-0.2188,0.2783-0.3945,0.4736-0.5273s0.416-0.2324,0.6602-0.3008c0.1797-0.0469,0.4512-0.0928,0.8154-0.1377
				c0.7402-0.0879,1.2852-0.1934,1.6348-0.3154c0.0039-0.126,0.0049-0.2051,0.0049-0.2393c0-0.374-0.0859-0.6367-0.2598-0.79
				c-0.2344-0.207-0.582-0.3105-1.0439-0.3105c-0.4316,0-0.75,0.0752-0.9551,0.2266c-0.2061,0.1514-0.3574,0.4189-0.4561,0.8027
				l-0.8965-0.1221c0.0811-0.3838,0.2158-0.6943,0.4023-0.9297c0.1865-0.2363,0.457-0.418,0.8096-0.5459
				c0.3535-0.127,0.7627-0.1904,1.2285-0.1904c0.4609,0,0.8369,0.0537,1.125,0.1631c0.2891,0.1084,0.501,0.2451,0.6367,0.4102
				c0.1367,0.1641,0.2314,0.3721,0.2861,0.624c0.0303,0.1563,0.0459,0.4375,0.0459,0.8457v1.2227
				c0,0.8525,0.0195,1.3916,0.0586,1.6172c0.0381,0.2256,0.1162,0.4424,0.2314,0.6494h-0.958
				C157.1733,221.8359,157.1117,221.6132,157.0844,221.3593z M157.0082,219.3115c-0.333,0.1357-0.832,0.251-1.498,0.3457
				c-0.377,0.0547-0.6436,0.1162-0.7998,0.1836c-0.1563,0.0684-0.2764,0.167-0.3613,0.2979s-0.127,0.2764-0.127,0.4355
				c0,0.2451,0.0918,0.4482,0.2773,0.6113c0.1846,0.1631,0.4561,0.2451,0.8125,0.2451c0.3535,0,0.667-0.0771,0.9424-0.2324
				c0.2754-0.1543,0.4775-0.3652,0.6064-0.6338c0.0986-0.207,0.1475-0.5127,0.1475-0.917V219.3115z"/>
			<path d="M129.4887,225.1767v-1.0547h0.917v1.0547H129.4887z M129.4887,231.5908v-5.4102h0.917v5.4102H129.4887z"/>
			<path d="M135.3119,231.5908v-0.6826c-0.3428,0.5371-0.8467,0.8047-1.5127,0.8047c-0.4316,0-0.8281-0.1191-1.1895-0.3564
				s-0.6416-0.5693-0.8408-0.9961c-0.1982-0.4258-0.2979-0.916-0.2979-1.4697c0-0.54,0.0898-1.0293,0.2705-1.4697
				c0.1797-0.4395,0.4492-0.7764,0.8096-1.0107s0.7627-0.3516,1.207-0.3516c0.3262,0,0.6172,0.0684,0.8711,0.2061
				c0.2549,0.1377,0.4619,0.3164,0.6221,0.5371v-2.6797h0.9121v7.4688H135.3119z M132.4135,228.8906
				c0,0.6934,0.1465,1.2109,0.4385,1.5537c0.292,0.3438,0.6367,0.5146,1.0342,0.5146c0.4004,0,0.7412-0.1641,1.0215-0.4912
				c0.2803-0.3281,0.4199-0.8281,0.4199-1.501c0-0.7402-0.1426-1.2832-0.4277-1.6299s-0.6367-0.5195-1.0547-0.5195
				c-0.4072,0-0.748,0.166-1.0215,0.499S132.4135,228.1738,132.4135,228.8906z"/>
			<path d="M141.308,229.8486l0.9473,0.1172c-0.1494,0.5537-0.4258,0.9834-0.8301,1.2891s-0.9209,0.458-1.5488,0.458
				c-0.792,0-1.4189-0.2432-1.8828-0.7305c-0.4629-0.4873-0.6953-1.1709-0.6953-2.0508c0-0.9102,0.2344-1.6162,0.7031-2.1191
				s1.0771-0.7539,1.8242-0.7539c0.7227,0,1.3145,0.2461,1.7725,0.7383c0.459,0.4922,0.6875,1.1855,0.6875,2.0791
				c0,0.0537-0.001,0.1357-0.0049,0.2441h-4.0342c0.0332,0.5947,0.2012,1.0498,0.5039,1.3652
				c0.3018,0.3154,0.6797,0.4736,1.1309,0.4736c0.3359,0,0.623-0.0879,0.8613-0.2646
				C140.9799,230.5175,141.1684,230.2353,141.308,229.8486z M138.2973,228.3662h3.0205c-0.041-0.4551-0.1563-0.7969-0.3467-1.0244
				c-0.292-0.3525-0.6699-0.5293-1.1357-0.5293c-0.4209,0-0.7754,0.1406-1.0625,0.4229
				C138.4867,227.5175,138.3276,227.8945,138.2973,228.3662z"/>
			<path d="M146.9369,230.9238c-0.3389,0.2881-0.666,0.4922-0.9805,0.6113c-0.3145,0.1182-0.6514,0.1777-1.0107,0.1777
				c-0.5947,0-1.0518-0.1445-1.3711-0.4355c-0.3193-0.29-0.4785-0.6611-0.4785-1.1133c0-0.2646,0.0605-0.5068,0.1807-0.7256
				c0.1211-0.2188,0.2783-0.3945,0.4736-0.5273s0.416-0.2324,0.6602-0.3008c0.1797-0.0469,0.4512-0.0928,0.8154-0.1377
				c0.7402-0.0879,1.2852-0.1934,1.6348-0.3154c0.0039-0.126,0.0049-0.2051,0.0049-0.2393c0-0.374-0.0859-0.6367-0.2598-0.79
				c-0.2344-0.207-0.582-0.3105-1.0439-0.3105c-0.4316,0-0.75,0.0752-0.9551,0.2266c-0.2061,0.1514-0.3574,0.4189-0.4561,0.8027
				l-0.8965-0.1221c0.0811-0.3838,0.2158-0.6943,0.4023-0.9297c0.1865-0.2363,0.457-0.418,0.8096-0.5459
				c0.3535-0.127,0.7627-0.1904,1.2285-0.1904c0.4609,0,0.8369,0.0537,1.125,0.1631c0.2891,0.1084,0.501,0.2451,0.6367,0.4102
				c0.1367,0.1641,0.2314,0.3721,0.2861,0.624c0.0303,0.1563,0.0459,0.4375,0.0459,0.8457v1.2227
				c0,0.8525,0.0195,1.3916,0.0586,1.6172c0.0381,0.2256,0.1162,0.4424,0.2314,0.6494h-0.958
				C147.0258,231.4003,146.9643,231.1777,146.9369,230.9238z M146.8608,228.8759c-0.333,0.1357-0.832,0.251-1.498,0.3457
				c-0.377,0.0547-0.6436,0.1162-0.7998,0.1836c-0.1563,0.0684-0.2764,0.167-0.3613,0.2979s-0.127,0.2764-0.127,0.4355
				c0,0.2451,0.0918,0.4482,0.2773,0.6113c0.1846,0.1631,0.4561,0.2451,0.8125,0.2451c0.3535,0,0.667-0.0771,0.9424-0.2324
				c0.2754-0.1543,0.4775-0.3652,0.6064-0.6338c0.0986-0.207,0.1475-0.5127,0.1475-0.917V228.8759z"/>
			<path d="M119.9184,243.2275v-7.4834h0.8359v0.7031c0.1963-0.2754,0.4189-0.4814,0.667-0.6191s0.5488-0.2061,0.9014-0.2061
				c0.4619,0,0.8701,0.1191,1.2227,0.3564c0.3535,0.2373,0.6201,0.5732,0.7998,1.0059c0.1807,0.4336,0.2705,0.9082,0.2705,1.4238
				c0,0.5537-0.0996,1.0518-0.2979,1.4951c-0.1992,0.4434-0.4873,0.7832-0.8662,1.0195c-0.3789,0.2354-0.7773,0.3535-1.1943,0.3535
				c-0.3057,0-0.5801-0.0645-0.8232-0.1934c-0.2422-0.1289-0.4424-0.292-0.5986-0.4893v2.6338H119.9184z M120.7494,238.4794
				c0,0.6963,0.1406,1.2109,0.4229,1.5439c0.2813,0.333,0.623,0.499,1.0234,0.499c0.4072,0,0.7568-0.1719,1.0469-0.5166
				s0.4355-0.8789,0.4355-1.6025c0-0.6895-0.1416-1.2061-0.4248-1.5488c-0.2842-0.3428-0.623-0.5146-1.0166-0.5146
				c-0.3906,0-0.7363,0.1826-1.0371,0.5479S120.7494,237.7832,120.7494,238.4794z"/>
			<path d="M125.7113,241.1543v-5.4102h0.8252v0.8203c0.21-0.3838,0.4053-0.6367,0.583-0.7588
				c0.1787-0.123,0.375-0.1836,0.5889-0.1836c0.3086,0,0.623,0.0986,0.9424,0.2949l-0.3164,0.8506
				c-0.2236-0.1318-0.4482-0.1982-0.6719-0.1982c-0.2002,0-0.3809,0.0605-0.54,0.1807c-0.1602,0.1211-0.2734,0.2881-0.3418,0.502
				c-0.1016,0.3262-0.1523,0.6826-0.1523,1.0703v2.832H125.7113z"/>
			<path d="M129.1996,234.7402v-1.0547h0.917v1.0547H129.1996z M129.1996,241.1543v-5.4102h0.917v5.4102H129.1996z"/>
			<path d="M131.5131,241.1543v-5.4102h0.8252v0.7695c0.3975-0.5947,0.9717-0.8916,1.7227-0.8916
				c0.3252,0,0.625,0.0586,0.8984,0.1758s0.4785,0.2705,0.6143,0.4609s0.2305,0.416,0.2852,0.6777
				c0.0342,0.1699,0.0508,0.4668,0.0508,0.8916v3.3262h-0.917v-3.291c0-0.373-0.0352-0.6523-0.1064-0.8379
				s-0.1982-0.333-0.3799-0.4434s-0.3945-0.165-0.6396-0.165c-0.3906,0-0.7275,0.124-1.0107,0.3711
				c-0.2842,0.248-0.4258,0.7188-0.4258,1.4111v2.9551H131.5131z"/>
			<path d="M140.8461,239.1728l0.9023,0.1172c-0.0986,0.6211-0.3506,1.1074-0.7568,1.459s-0.9043,0.5273-1.4951,0.5273
				c-0.7402,0-1.3359-0.2422-1.7852-0.7256c-0.4502-0.4844-0.6758-1.1777-0.6758-2.0811c0-0.584,0.0967-1.0957,0.291-1.5332
				c0.1934-0.4385,0.4883-0.7666,0.8838-0.9863c0.3955-0.2188,0.8262-0.3281,1.291-0.3281c0.5879,0,1.0684,0.1484,1.4414,0.4453
				c0.374,0.2979,0.6133,0.7197,0.7188,1.2666l-0.8916,0.1367c-0.085-0.3633-0.2354-0.6367-0.4512-0.8193
				c-0.2148-0.1836-0.4756-0.2754-0.7813-0.2754c-0.4619,0-0.8379,0.165-1.126,0.4961c-0.2891,0.332-0.4336,0.8555-0.4336,1.5723
				c0,0.7266,0.1396,1.2549,0.418,1.584s0.6416,0.4941,1.0908,0.4941c0.3594,0,0.6602-0.1104,0.9014-0.3311
				S140.7817,239.6308,140.8461,239.1728z"/>
			<path d="M142.5375,234.7402v-1.0547h0.917v1.0547H142.5375z M142.5375,241.1543v-5.4102h0.917v5.4102H142.5375z"/>
			<path d="M144.85,243.2275v-7.4834h0.8359v0.7031c0.1963-0.2754,0.4189-0.4814,0.667-0.6191s0.5488-0.2061,0.9014-0.2061
				c0.4619,0,0.8701,0.1191,1.2227,0.3564c0.3535,0.2373,0.6201,0.5732,0.7998,1.0059c0.1807,0.4336,0.2705,0.9082,0.2705,1.4238
				c0,0.5537-0.0996,1.0518-0.2979,1.4951c-0.1992,0.4434-0.4873,0.7832-0.8662,1.0195c-0.3789,0.2354-0.7773,0.3535-1.1943,0.3535
				c-0.3057,0-0.5801-0.0645-0.8232-0.1934c-0.2422-0.1289-0.4424-0.292-0.5986-0.4893v2.6338H144.85z M145.6811,238.4794
				c0,0.6963,0.1406,1.2109,0.4229,1.5439c0.2813,0.333,0.623,0.499,1.0234,0.499c0.4072,0,0.7568-0.1719,1.0469-0.5166
				s0.4355-0.8789,0.4355-1.6025c0-0.6895-0.1416-1.2061-0.4248-1.5488c-0.2842-0.3428-0.623-0.5146-1.0166-0.5146
				c-0.3906,0-0.7363,0.1826-1.0371,0.5479S145.6811,237.7832,145.6811,238.4794z"/>
			<path d="M154.183,240.4873c-0.3389,0.2881-0.666,0.4922-0.9805,0.6113c-0.3145,0.1182-0.6514,0.1777-1.0107,0.1777
				c-0.5947,0-1.0518-0.1445-1.3711-0.4355c-0.3193-0.29-0.4785-0.6611-0.4785-1.1133c0-0.2646,0.0605-0.5068,0.1807-0.7256
				c0.1211-0.2188,0.2783-0.3945,0.4736-0.5273s0.416-0.2324,0.6602-0.3008c0.1797-0.0469,0.4512-0.0928,0.8154-0.1377
				c0.7402-0.0879,1.2852-0.1934,1.6348-0.3154c0.0039-0.126,0.0049-0.2051,0.0049-0.2393c0-0.374-0.0859-0.6367-0.2598-0.79
				c-0.2344-0.207-0.582-0.3105-1.0439-0.3105c-0.4316,0-0.75,0.0752-0.9551,0.2266c-0.2061,0.1514-0.3574,0.4189-0.4561,0.8027
				l-0.8965-0.1221c0.0811-0.3838,0.2158-0.6943,0.4023-0.9297c0.1865-0.2363,0.457-0.418,0.8096-0.5459
				c0.3535-0.127,0.7627-0.1904,1.2285-0.1904c0.4609,0,0.8369,0.0537,1.125,0.1631c0.2891,0.1084,0.501,0.2451,0.6367,0.4102
				c0.1367,0.1641,0.2314,0.3721,0.2861,0.624c0.0303,0.1563,0.0459,0.4375,0.0459,0.8457v1.2227
				c0,0.8525,0.0195,1.3916,0.0586,1.6172c0.0381,0.2256,0.1162,0.4424,0.2314,0.6494h-0.958
				C154.2719,240.9638,154.2104,240.7412,154.183,240.4873z M154.1069,238.4394c-0.333,0.1357-0.832,0.251-1.498,0.3457
				c-0.377,0.0547-0.6436,0.1162-0.7998,0.1836c-0.1563,0.0684-0.2764,0.167-0.3613,0.2979s-0.127,0.2764-0.127,0.4355
				c0,0.2451,0.0918,0.4482,0.2773,0.6113c0.1846,0.1631,0.4561,0.2451,0.8125,0.2451c0.3535,0,0.667-0.0771,0.9424-0.2324
				c0.2754-0.1543,0.4775-0.3652,0.6064-0.6338c0.0986-0.207,0.1475-0.5127,0.1475-0.917V238.4394z"/>
			<path d="M156.434,241.1543v-7.4688h0.917v7.4688H156.434z"/>
		</g>
		<g>
			<path d="M215.4169,131.3554l2.8682-7.4688h1.0654l3.0566,7.4688h-1.126l-0.8711-2.2617h-3.123l-0.8203,2.2617H215.4169z
				 M217.5722,128.289h2.5322l-0.7803-2.0684c-0.2373-0.6289-0.4141-1.1445-0.5293-1.5488
				c-0.0947,0.4785-0.2295,0.9541-0.4023,1.4258L217.5722,128.289z"/>
			<path d="M226.6249,131.3554v-0.7949c-0.4209,0.6113-0.9932,0.917-1.7168,0.917c-0.3193,0-0.6172-0.0605-0.8945-0.1836
				c-0.2764-0.1221-0.4814-0.2754-0.6162-0.4609c-0.1338-0.1846-0.2285-0.4111-0.2822-0.6797
				c-0.0381-0.1797-0.0566-0.4658-0.0566-0.8564v-3.3516h0.917v3.001c0,0.4785,0.0186,0.8008,0.0566,0.9678
				c0.0576,0.2412,0.1797,0.4307,0.3662,0.5674c0.1875,0.1377,0.418,0.207,0.6934,0.207s0.5332-0.0713,0.7744-0.2119
				s0.4111-0.333,0.5117-0.5752c0.1006-0.2432,0.1504-0.5957,0.1504-1.0576v-2.8984h0.917v5.4102H226.6249z"/>
			<path d="M228.5155,129.7402l0.9063-0.1426c0.0508,0.3633,0.1934,0.6426,0.4258,0.8359s0.5576,0.29,0.9756,0.29
				c0.4209,0,0.7334-0.0859,0.9375-0.2568c0.2031-0.1719,0.3057-0.373,0.3057-0.6035c0-0.208-0.0908-0.3701-0.2705-0.4893
				c-0.126-0.082-0.4375-0.1855-0.9375-0.3105c-0.6719-0.1699-1.1387-0.3174-1.3984-0.4414s-0.4561-0.2949-0.5908-0.5146
				c-0.1338-0.2188-0.2012-0.4609-0.2012-0.7256c0-0.2412,0.0557-0.4639,0.166-0.6699c0.1104-0.2051,0.2607-0.376,0.4502-0.5117
				c0.1426-0.1055,0.3369-0.1943,0.584-0.2676c0.2461-0.0732,0.5098-0.1094,0.792-0.1094c0.4248,0,0.7969,0.0605,1.1182,0.1836
				c0.3213,0.1221,0.5576,0.2871,0.7109,0.4961c0.1523,0.209,0.2578,0.4883,0.3154,0.8379l-0.8965,0.123
				c-0.041-0.2793-0.1592-0.4961-0.3545-0.6523s-0.4707-0.2344-0.8271-0.2344c-0.4219,0-0.7217,0.0693-0.9023,0.209
				c-0.1797,0.1387-0.2695,0.3018-0.2695,0.4883c0,0.1191,0.0371,0.2266,0.1123,0.3213c0.0742,0.0986,0.1914,0.1807,0.3516,0.2451
				c0.0908,0.0332,0.3613,0.1113,0.8096,0.2334c0.6484,0.1738,1.1016,0.3154,1.3574,0.4258
				c0.2568,0.1104,0.458,0.2705,0.6035,0.4814c0.1465,0.2109,0.2197,0.4717,0.2197,0.7842c0,0.3057-0.0898,0.5938-0.2676,0.8643
				c-0.1787,0.2695-0.4355,0.4785-0.7715,0.626c-0.3369,0.1484-0.7168,0.2217-1.1416,0.2217c-0.7031,0-1.2393-0.1455-1.6074-0.4375
				S228.6171,130.3144,228.5155,129.7402z"/>
			<path d="M237.8017,129.6132l0.9473,0.1172c-0.1494,0.5537-0.4258,0.9834-0.8301,1.2891s-0.9209,0.458-1.5488,0.458
				c-0.792,0-1.4189-0.2432-1.8828-0.7305c-0.4629-0.4873-0.6953-1.1709-0.6953-2.0508c0-0.9102,0.2344-1.6162,0.7031-2.1191
				s1.0771-0.7539,1.8242-0.7539c0.7227,0,1.3145,0.2461,1.7725,0.7383c0.459,0.4922,0.6875,1.1855,0.6875,2.0791
				c0,0.0537-0.001,0.1357-0.0049,0.2441h-4.0342c0.0332,0.5947,0.2012,1.0498,0.5039,1.3652
				c0.3018,0.3154,0.6797,0.4736,1.1309,0.4736c0.3359,0,0.623-0.0879,0.8613-0.2646
				C237.4736,130.2822,237.662,130,237.8017,129.6132z M234.7909,128.1308h3.0205c-0.041-0.4551-0.1563-0.7969-0.3467-1.0244
				c-0.292-0.3525-0.6699-0.5293-1.1357-0.5293c-0.4209,0-0.7754,0.1406-1.0625,0.4229
				C234.9804,127.2822,234.8212,127.6591,234.7909,128.1308z"/>
			<path d="M239.9003,131.3554v-5.4102h0.8252v0.7695c0.3975-0.5947,0.9717-0.8916,1.7227-0.8916
				c0.3252,0,0.625,0.0586,0.8984,0.1758s0.4785,0.2705,0.6143,0.4609s0.2305,0.416,0.2852,0.6777
				c0.0342,0.1699,0.0508,0.4668,0.0508,0.8916v3.3262h-0.917v-3.291c0-0.3731-0.0352-0.6524-0.1064-0.8379
				s-0.1982-0.333-0.3799-0.4434s-0.3945-0.165-0.6396-0.165c-0.3906,0-0.7275,0.124-1.0107,0.3711
				c-0.2842,0.248-0.4258,0.7188-0.4258,1.4111v2.9551H239.9003z"/>
			<path d="M249.2333,129.374l0.9023,0.1172c-0.0986,0.6211-0.3506,1.1074-0.7568,1.459s-0.9043,0.5273-1.4951,0.5273
				c-0.7402,0-1.3359-0.2422-1.7852-0.7256c-0.4502-0.4844-0.6758-1.1777-0.6758-2.0811c0-0.584,0.0967-1.0957,0.291-1.5332
				c0.1934-0.4385,0.4883-0.7666,0.8838-0.9863c0.3955-0.2188,0.8262-0.3281,1.291-0.3281c0.5879,0,1.0684,0.1484,1.4414,0.4453
				c0.374,0.2979,0.6133,0.7197,0.7188,1.2666l-0.8916,0.1367c-0.085-0.3633-0.2354-0.6367-0.4512-0.8193
				c-0.2148-0.1836-0.4756-0.2754-0.7813-0.2754c-0.4619,0-0.8379,0.165-1.126,0.4961c-0.2891,0.332-0.4336,0.8555-0.4336,1.5723
				c0,0.7266,0.1396,1.2549,0.418,1.584s0.6416,0.4941,1.0908,0.4941c0.3594,0,0.6602-0.1104,0.9014-0.3311
				S249.1689,129.832,249.2333,129.374z"/>
			<path d="M250.9247,124.9414v-1.0547h0.917v1.0547H250.9247z M250.9247,131.3554v-5.4102h0.917v5.4102H250.9247z"/>
			<path d="M256.7675,130.6884c-0.3389,0.2881-0.666,0.4922-0.9805,0.6113c-0.3145,0.1182-0.6514,0.1777-1.0107,0.1777
				c-0.5947,0-1.0518-0.1445-1.3711-0.4355c-0.3193-0.29-0.4785-0.6611-0.4785-1.1133c0-0.2646,0.0605-0.5068,0.1807-0.7256
				c0.1211-0.2188,0.2783-0.3945,0.4736-0.5273s0.416-0.2324,0.6602-0.3008c0.1797-0.0469,0.4512-0.0928,0.8154-0.1377
				c0.7402-0.0879,1.2852-0.1934,1.6348-0.3154c0.0039-0.126,0.0049-0.2051,0.0049-0.2393c0-0.374-0.0859-0.6367-0.2598-0.79
				c-0.2344-0.207-0.582-0.3105-1.044-0.3105c-0.4316,0-0.75,0.0752-0.9551,0.2266c-0.2061,0.1514-0.3574,0.4189-0.4561,0.8027
				l-0.8965-0.1221c0.0811-0.3838,0.2158-0.6943,0.4023-0.9297c0.1865-0.2363,0.457-0.418,0.8096-0.5459
				c0.3535-0.127,0.7627-0.1904,1.2285-0.1904c0.4609,0,0.8369,0.0537,1.125,0.1631c0.2891,0.1084,0.501,0.2451,0.6367,0.4102
				c0.1367,0.1641,0.2314,0.3721,0.2861,0.624c0.0303,0.1563,0.0459,0.4375,0.0459,0.8457v1.2227
				c0,0.8525,0.0195,1.3916,0.0586,1.6172c0.0381,0.2256,0.1162,0.4424,0.2314,0.6494h-0.958
				C256.8564,131.165,256.7949,130.9423,256.7675,130.6884z M256.6913,128.6406c-0.333,0.1357-0.832,0.251-1.4981,0.3457
				c-0.377,0.0547-0.6436,0.1162-0.7998,0.1836c-0.1563,0.0684-0.2764,0.167-0.3613,0.2979s-0.127,0.2764-0.127,0.4355
				c0,0.2451,0.0918,0.4482,0.2773,0.6113c0.1846,0.1631,0.4561,0.2451,0.8125,0.2451c0.3535,0,0.667-0.0771,0.9424-0.2324
				c0.2754-0.1543,0.4776-0.3652,0.6065-0.6338c0.0986-0.207,0.1475-0.5127,0.1475-0.917V128.6406z"/>
			<path d="M218.4657,140.9189v-0.6826c-0.3428,0.5371-0.8467,0.8047-1.5127,0.8047c-0.4316,0-0.8281-0.1191-1.1895-0.3564
				s-0.6416-0.5693-0.8408-0.9961c-0.1982-0.4258-0.2979-0.916-0.2979-1.4697c0-0.54,0.0898-1.0293,0.2705-1.4697
				c0.1797-0.4395,0.4492-0.7764,0.8096-1.0107s0.7627-0.3516,1.207-0.3516c0.3262,0,0.6172,0.0684,0.8711,0.2061
				c0.2549,0.1377,0.4619,0.3164,0.6221,0.5371v-2.6797h0.9121v7.4688H218.4657z M215.5673,138.2187
				c0,0.6934,0.1465,1.2109,0.4385,1.5537c0.292,0.3438,0.6367,0.5146,1.0342,0.5146c0.4004,0,0.7412-0.1641,1.0215-0.4912
				c0.2803-0.3281,0.4199-0.8281,0.4199-1.501c0-0.7402-0.1426-1.2832-0.4277-1.6299s-0.6367-0.5195-1.0547-0.5195
				c-0.4072,0-0.748,0.166-1.0215,0.499S215.5673,137.5019,215.5673,138.2187z"/>
			<path d="M224.4628,139.1767l0.9473,0.1172c-0.1494,0.5537-0.4258,0.9834-0.8301,1.2891s-0.9209,0.458-1.5488,0.458
				c-0.792,0-1.4189-0.2432-1.8828-0.7305c-0.4629-0.4873-0.6953-1.1709-0.6953-2.0508c0-0.9102,0.2344-1.6162,0.7031-2.1191
				s1.0771-0.7539,1.8242-0.7539c0.7227,0,1.3145,0.2461,1.7725,0.7383c0.459,0.4922,0.6875,1.1855,0.6875,2.0791
				c0,0.0537-0.001,0.1357-0.0049,0.2441h-4.0342c0.0332,0.5947,0.2012,1.0498,0.5039,1.3652
				c0.3018,0.3154,0.6797,0.4736,1.1309,0.4736c0.3359,0,0.623-0.0879,0.8613-0.2646
				C224.1347,139.8457,224.3232,139.5634,224.4628,139.1767z M221.4521,137.6943h3.0205c-0.041-0.4551-0.1563-0.7969-0.3467-1.0244
				c-0.292-0.3525-0.6699-0.5293-1.1357-0.5293c-0.4209,0-0.7754,0.1406-1.0625,0.4229
				C221.6415,136.8457,221.4823,137.2226,221.4521,137.6943z"/>
			<path d="M232.9697,140.9189v-0.6826c-0.3428,0.5371-0.8467,0.8047-1.5127,0.8047c-0.4316,0-0.8281-0.1191-1.1895-0.3564
				s-0.6416-0.5693-0.8408-0.9961c-0.1982-0.4258-0.2979-0.916-0.2979-1.4697c0-0.54,0.0898-1.0293,0.2705-1.4697
				c0.1797-0.4395,0.4492-0.7764,0.8096-1.0107s0.7627-0.3516,1.207-0.3516c0.3262,0,0.6172,0.0684,0.8711,0.2061
				c0.2549,0.1377,0.4619,0.3164,0.6221,0.5371v-2.6797h0.9121v7.4688H232.9697z M230.0712,138.2187
				c0,0.6934,0.1465,1.2109,0.4385,1.5537c0.292,0.3438,0.6367,0.5146,1.0342,0.5146c0.4004,0,0.7412-0.1641,1.0215-0.4912
				c0.2803-0.3281,0.4199-0.8281,0.4199-1.501c0-0.7402-0.1426-1.2832-0.4277-1.6299s-0.6367-0.5195-1.0547-0.5195
				c-0.4072,0-0.748,0.166-1.0215,0.499S230.0712,137.5019,230.0712,138.2187z"/>
			<path d="M238.9657,139.1767l0.9473,0.1172c-0.1494,0.5537-0.4258,0.9834-0.8301,1.2891s-0.9209,0.458-1.5488,0.458
				c-0.792,0-1.4189-0.2432-1.8828-0.7305c-0.4629-0.4873-0.6953-1.1709-0.6953-2.0508c0-0.9102,0.2344-1.6162,0.7031-2.1191
				s1.0771-0.7539,1.8242-0.7539c0.7227,0,1.3145,0.2461,1.7725,0.7383c0.459,0.4922,0.6875,1.1855,0.6875,2.0791
				c0,0.0537-0.001,0.1357-0.0049,0.2441h-4.0342c0.0332,0.5947,0.2012,1.0498,0.5039,1.3652
				c0.3018,0.3154,0.6797,0.4736,1.1309,0.4736c0.3359,0,0.623-0.0879,0.8613-0.2646
				C238.6376,139.8457,238.8261,139.5634,238.9657,139.1767z M235.955,137.6943h3.0205c-0.041-0.4551-0.1563-0.7969-0.3467-1.0244
				c-0.292-0.3525-0.6699-0.5293-1.1357-0.5293c-0.4209,0-0.7754,0.1406-1.0625,0.4229
				C236.1445,136.8457,235.9853,137.2226,235.955,137.6943z"/>
			<path d="M243.0663,140.0986l0.1328,0.8105c-0.2578,0.0537-0.4893,0.0811-0.6924,0.0811c-0.333,0-0.5918-0.0527-0.7744-0.1582
				c-0.1836-0.1045-0.3125-0.2432-0.3877-0.415c-0.0742-0.1709-0.1123-0.5322-0.1123-1.082v-3.1133h-0.6719v-0.7129h0.6719v-1.3398
				l0.9121-0.5498v1.8896h0.9219v0.7129h-0.9219v3.1641c0,0.2617,0.0166,0.4297,0.0488,0.5039
				c0.0322,0.0752,0.085,0.1348,0.1572,0.1787c0.0732,0.0439,0.1777,0.0664,0.3135,0.0664
				C242.7665,140.1347,242.9003,140.122,243.0663,140.0986z"/>
			<path d="M247.4931,140.2519c-0.3389,0.2881-0.666,0.4922-0.9805,0.6113c-0.3145,0.1182-0.6514,0.1777-1.0107,0.1777
				c-0.5947,0-1.0518-0.1445-1.3711-0.4355c-0.3193-0.29-0.4785-0.6611-0.4785-1.1133c0-0.2646,0.0605-0.5068,0.1807-0.7256
				c0.1211-0.2188,0.2783-0.3945,0.4736-0.5273s0.416-0.2324,0.6602-0.3008c0.1797-0.0469,0.4512-0.0928,0.8154-0.1377
				c0.7402-0.0879,1.2852-0.1934,1.6348-0.3154c0.0039-0.126,0.0049-0.2051,0.0049-0.2393c0-0.374-0.0859-0.6367-0.2598-0.79
				c-0.2344-0.207-0.582-0.3105-1.0439-0.3105c-0.4316,0-0.75,0.0752-0.9551,0.2266c-0.2061,0.1514-0.3574,0.4189-0.4561,0.8027
				l-0.8965-0.1221c0.0811-0.3838,0.2158-0.6943,0.4023-0.9297c0.1865-0.2363,0.457-0.418,0.8096-0.5459
				c0.3535-0.127,0.7627-0.1904,1.2285-0.1904c0.4609,0,0.8369,0.0537,1.125,0.1631c0.2891,0.1084,0.501,0.2451,0.6367,0.4102
				c0.1367,0.1641,0.2314,0.3721,0.2861,0.624c0.0303,0.1563,0.0459,0.4375,0.0459,0.8457v1.2227
				c0,0.8525,0.0195,1.3916,0.0586,1.6172c0.0381,0.2256,0.1162,0.4424,0.2314,0.6494h-0.958
				C247.582,140.7285,247.5204,140.5058,247.4931,140.2519z M247.4169,138.2041c-0.333,0.1357-0.832,0.251-1.498,0.3457
				c-0.377,0.0547-0.6436,0.1162-0.7998,0.1836c-0.1563,0.0684-0.2764,0.167-0.3613,0.2979s-0.127,0.2764-0.127,0.4355
				c0,0.2451,0.0918,0.4482,0.2773,0.6113c0.1846,0.1631,0.4561,0.2451,0.8125,0.2451c0.3535,0,0.667-0.0771,0.9424-0.2324
				c0.2754-0.1543,0.4775-0.3652,0.6064-0.6338c0.0986-0.207,0.1475-0.5127,0.1475-0.917V138.2041z"/>
			<path d="M249.745,140.9189v-7.4688h0.917v7.4688H249.745z"/>
			<path d="M252.0634,140.9189v-7.4688h0.917v7.4688H252.0634z"/>
			<path d="M258.1054,139.1767l0.9473,0.1172c-0.1494,0.5537-0.4258,0.9834-0.8301,1.2891s-0.9209,0.458-1.5488,0.458
				c-0.792,0-1.419-0.2432-1.8828-0.7305c-0.4629-0.4873-0.6953-1.1709-0.6953-2.0508c0-0.9102,0.2344-1.6162,0.7031-2.1191
				s1.0771-0.7539,1.8242-0.7539c0.7227,0,1.3145,0.2461,1.7725,0.7383c0.459,0.4922,0.6875,1.1855,0.6875,2.0791
				c0,0.0537-0.001,0.1357-0.0049,0.2441h-4.0342c0.0332,0.5947,0.2012,1.0498,0.5039,1.3652
				c0.3018,0.3154,0.6797,0.4736,1.1309,0.4736c0.3359,0,0.623-0.0879,0.8613-0.2646
				C257.7773,139.8457,257.9658,139.5634,258.1054,139.1767z M255.0947,137.6943h3.0205c-0.041-0.4551-0.1563-0.7969-0.3467-1.0244
				c-0.292-0.3525-0.6699-0.5293-1.1357-0.5293c-0.4209,0-0.7754,0.1406-1.0625,0.4229
				C255.2841,136.8457,255.1249,137.2226,255.0947,137.6943z"/>
		</g>
	</g>
	<g>
		<path style="fill:#FFDCB6;" d="M124.4552,155.0637c3.1058,4.3435,5.6753,9.07,7.6319,14.0383
			c1.3099,3.3262,2.2981,7.2609,0.4629,10.3286c-0.8201,1.3708,0.7907,2.8442,2.3464,3.2068
			c1.5556,0.3626,3.1875-0.3163,4.4475-1.2981c3.0923-2.4097,4.4785-6.7991,3.3309-10.5477
			c-0.5358-1.7503-1.5488-3.3082-2.3636-4.9473c-0.8148-1.6391-1.4469-3.474-1.1336-5.2775
			c1.3395-1.1373,3.2418-1.7939,4.9707-2.1077c2.3193,1.5636,4.86,2.8679,7.6555,2.7707c2.7955-0.0972,5.6225-1.4932,7.0136-3.9199
			c1.3911-2.4267,1.025-5.8585-1.1355-7.6351c1.42-1.0468,2.5722-2.9779,2.4688-4.739c-0.1033-1.761-1.1457-3.4395-2.6783-4.313
			c0.4617-1.4666,0.3506-2.8685-0.2539-4.2822c-0.6046-1.4137-1.7278-2.5988-3.1071-3.2782
			c-0.102-1.5503-0.7425-2.7722-1.971-3.7233c-1.2285-0.951-2.7448-1.4693-4.2747-1.7397c-3.4811-0.6152-7.09-0.0108-10.4209,1.1729
			c-3.331,1.1837-6.429,2.9292-9.5079,4.6659c-2.7594,1.5565-6.5226-0.0058-9.4362-1.2498
			c-4.2561,6.48-4.4641,15.1938-0.3888,21.7889C120.2723,153.1148,123.1021,153.1713,124.4552,155.0637z"/>
		<path style="fill:#E5AB7A;" d="M133.7923,175.6137c0.0157,0.08,0.0441,0.1496,0.0776,0.2143
			c-0.147,0.203-0.2337,0.4366-0.158,0.6753c0.0469,0.148,0.1497,0.2667,0.3157,0.2764c0.3547,0.0207,0.6665-0.2251,1.0059-0.3123
			c0.4631-0.1191,0.9387-0.2666,1.3525-0.5095c0.872-0.5118,1.3486-1.4299,0.9813-2.4026
			c-0.3183-0.8428-1.5306-1.0186-2.2537-0.6851c-0.2617,0.1208-0.4755,0.2862-0.6507,0.4814
			c-0.2648-0.0475-0.5668,0.0613-0.7059,0.2917C133.3823,174.2636,133.6615,174.9468,133.7923,175.6137z"/>
		<path style="fill:#EAAF7F;" d="M124.8439,155.419c1.9169,4.058,4.0705,8.0247,6.1267,12.0142
			c0.9795,1.9004,1.9169,3.7926,2.4363,5.8784c0.3298,1.3245,0.3,2.5578,0.1668,3.8069c-0.2001,0.0517-0.3824,0.1816-0.4754,0.397
			c-0.1613,0.3741-0.2446,0.815-0.3166,1.2162c-0.0717,0.399-0.1415,0.7307,0.012,1.1157c0.117,0.2935,0.4973,0.3089,0.7168,0.1427
			c0.0108-0.0082,0.0196-0.0179,0.03-0.0264c0.1465,0.026,0.3144-0.0175,0.4191-0.1392c2.6554-3.088,0.7899-8.3827-0.6257-11.5967
			c-0.9639-2.1882-2.1111-4.3-3.1908-6.4324c-1.2135-2.3966-2.3715-4.8327-3.6597-7.1899
			C125.9193,153.5735,124.3375,154.347,124.8439,155.419z"/>
		<path style="fill:#EAAF7F;" d="M145.5777,159.4503c0.4678,0.617,1.3665,0.3764,2.0401,0.2919
			c0.9012-0.1131,1.7534-0.2899,2.559-0.7194c0.1575-0.084,0.1567-0.333-0.0241-0.3913c-0.8648-0.2788-1.7225-0.3049-2.6255-0.2567
			c-0.6777,0.0363-1.6193-0.06-1.9763,0.629C145.4697,159.1607,145.4681,159.3058,145.5777,159.4503z"/>
		<path style="fill:#EAAF7F;" d="M142.5507,147.226c0.6059-0.3916,0.9236-0.9429,1.4434-1.436
			c0.691-0.6557,1.5979-0.9984,2.5189-1.1598c2.0521-0.3597,3.5891,1.0902,4.9793,2.3252c0.3142,0.2791,0.8141,0.0875,0.746-0.3686
			c-0.3523-2.3606-2.9414-3.7223-5.115-3.8907c-2.0829-0.1614-5.6135,1.3213-5.8209,3.6954
			C141.2498,146.9935,141.9878,147.5899,142.5507,147.226z"/>
		<path style="fill:#EAAF7F;" d="M154.3948,149.0918c0,0,0.0066-0.0011,0.0101-0.0014c0.1713,0.1445,0.4093,0.215,0.7073,0.1417
			c1.1632-0.2859,1.9914,0.1997,3.0498,0.5911c0.2822,0.1044,0.5199-0.154,0.4864-0.424c-0.0274-0.2211-0.091-0.4224-0.1817-0.606
			c0.0984,0.0273,0.1968,0.0519,0.2955,0.0709c0.4502,0.0866,0.6948-0.4649,0.5436-0.8131
			c-0.4335-0.9988-1.6379-1.3232-2.636-1.3667c-0.9854-0.0429-2.6378,0.3427-2.9054,1.4509
			C153.6682,148.5338,153.8851,149.1244,154.3948,149.0918z"/>
		<path style="fill:#EAAF7F;" d="M155.1231,140.1998c0.4867-0.0211,0.7758-0.2889,1.2158-0.4116
			c0.4164-0.1161,0.8586-0.0319,1.2552-0.2097c0.4473-0.2006,0.4648-0.7375,0.2171-1.0907
			c-0.3822-0.545-1.2412-0.5559-1.8262-0.4398c-0.7304,0.1449-1.4447,0.5663-1.5619,1.349
			C154.3671,139.7712,154.735,140.2167,155.1231,140.1998z"/>
		<path style="fill:#EAAF7F;" d="M151.4145,132.2059c0.2783-0.0311,0.5387-0.1477,0.8179-0.1859
			c0.2591-0.0354,0.6049,0.0539,0.8353,0.1705c0.3441,0.1742,0.9191-0.1392,0.6491-0.566
			c-0.6006-0.9496-2.1617-1.3649-2.9424-0.3808C150.4012,131.7142,150.9225,132.2609,151.4145,132.2059z"/>
		<path style="fill:#EAAF7F;" d="M118.4226,153.6192c0.3719-0.0368,4.0242,0.1527,4.4019,0.071
			c0.0229,0.0392,0.0496,0.0778,0.0822,0.1152c0.2127,0.2439,0.4782,0.2362,0.7597,0.0753
			c0.0254,0.1273,0.0549,0.2518,0.0931,0.3696c0.1212,0.373,0.5665,0.4045,0.7397,0.0546c0.3741,0.8079,0.8518,1.5847,1.2183,2.3411
			c0.0215,0.0444,0.0502,0.0762,0.0816,0.1015c0.0687,0.1433,0.1386,0.2857,0.212,0.4259
			c-0.0326,0.0536-0.0133,0.1402,0.0684,0.1458c0.0032,0.0002,0.0055-0.0011,0.0055-0.0011
			c0.4593,0.8457,1.0026,1.6404,1.6295,2.4157c0.2767,0.3422,0.8402-0.0381,0.6364-0.425
			c-0.8108-1.5393-1.4257-3.2261-1.8331-4.9151c-0.196-0.8124-0.312-1.6491-0.4-2.4791c-0.0695-0.6552-0.0562-0.9818-0.4762-1.3919
			c-0.4844-0.4729-0.6936,0.0694-1.0455,0.4831c-0.3436,0.4039-0.7917,1.0347-1.3329,1.1611
			c-0.5892,0.1377-1.2612,0.0636-1.8743,0.2015C120.4113,152.5886,117.4594,153.7146,118.4226,153.6192z"/>
		<path style="fill:#EAAF7F;" d="M114.7134,142.2509c-0.0006,0.4892,0.0257,0.9793,0.0833,1.468
			c0.0688,0.5833,0.6207,0.0205,0.741-0.168c0.3518-0.5512,0.6121-1.1893,0.9115-1.7711c0.4483-0.871,0.8907-1.7453,1.3449-2.6132
			c0.5245-1.0022,1.8934-0.728,2.8693-0.8087c1.2171-0.1005,2.4366-0.1712,3.6571-0.2118c0.5718-0.019,1.1822,0.0254,1.7189-0.2101
			c0.5832-0.2559,1.0083-0.8149,1.4008-1.2946c0.4572-0.5589,0.87-1.154,1.2336-1.7778c0.2759-0.4734,0.8253-1.2038,0.713-1.7834
			c-0.1545-0.7974-0.7291-0.3361-1.1329-0.0227c-0.1496,0.1161-1.5932,1.3517-1.6325,1.3275
			c-1.2454-0.765-3.2561-0.8041-4.6032-1.0124c-0.9496-0.1468-1.8991-0.2937-2.8487-0.4405
			c-0.8318-0.1286-1.2606-0.2344-1.9327,0.2935c-0.3088,0.2426-0.2634,0.6559-0.0645,0.942
			c0.0418,0.0601,0.0849,0.1105,0.1282,0.1602c-1.3135,1.8588-2.181,4.0244-2.4744,6.2667
			C114.6966,141.1619,114.6337,141.7338,114.7134,142.2509z"/>
		<path style="fill:#FFFFFF;" d="M133.5717,181.6479c1.7321,0.8398,4.116,0.1261,5.6317-0.8934
			c1.7432-1.1725,3.033-2.9705,3.4437-5.0513c0.4598-2.3292-0.1738-4.4601-1.1292-6.5774c-0.5036-1.1161-1.075-2.1979-1.5523-3.3264
			c-0.6921-1.6361-0.7838-3.0688-0.8806-4.8083c-0.0225-0.4057-0.5536-0.5578-0.7193-0.1479
			c-1.5224,3.766,2.2718,8.0581,3.1352,11.5589c0.5712,2.316-0.1392,4.7272-1.7359,6.4667
			c-1.7117,1.8647-3.8876,1.8775-6.1631,2.3358C133.36,181.2534,133.3782,181.554,133.5717,181.6479z"/>
		<path style="fill:#FFFFFF;" d="M148.9751,160.5972c3.6854,1.2052,7.8952-0.378,9.8046-3.7487
			c1.3436-2.3718,0.9255-7.4213-2.4375-7.9544c-0.3649-0.0578-0.5436,0.4195-0.3327,0.6698
			c0.8486,1.0065,1.7304,1.6465,2.1428,2.9797c0.4603,1.4882,0.0288,3.027-0.7813,4.2991
			c-1.8073,2.8382-5.2841,3.1916-8.3189,3.3797C148.8496,160.235,148.7507,160.5238,148.9751,160.5972z"/>
		<path style="fill:#FFFFFF;" d="M155.9567,141.0809c0.4074,0.3418,0.8546,0.5482,1.2292,0.9461
			c0.4754,0.5049,0.7896,1.1382,1.0694,1.7644c0.4419,0.9889,0.2402,2.1685,0.7124,3.1001c0.0581,0.1147,0.204,0.1124,0.2789,0.0191
			c1.2996-1.6187-0.8304-7.3272-3.2489-6.4303C155.7274,140.5805,155.779,140.9319,155.9567,141.0809z"/>
		<path style="fill:#FFFFFF;" d="M151.3313,133.2983c0.429,0.2884,0.8983,0.4067,1.3785,0.5916
			c0.7076,0.2723,1.3525,0.7048,1.9497,1.1647c0.9929,0.7646,1.5448,1.923,2.4999,2.6937c0.1161,0.0937,0.2928-0.0091,0.3011-0.1465
			c0.1466-2.4241-3.6597-5.4609-5.9733-5.08C151.1161,132.583,151.0304,133.0959,151.3313,133.2983z"/>
		<path style="fill:#FFFFFF;" d="M144.7934,146.5023c1.0596,0.0549,2.0838-0.2271,3.155-0.1356
			c1.33,0.1136,2.3748,0.8334,3.6153,1.186c0.2087,0.0593,0.4554-0.1539,0.3285-0.3717c-1.2089-2.0757-5.4646-2.8749-7.3188-1.333
			C144.3235,146.0559,144.4713,146.4856,144.7934,146.5023z"/>
		<path style="fill:#FFFFFF;" d="M138.7842,165.048c0.1614,0.1514,0.4002-0.0035,0.3184-0.2127
			c-0.9579-2.4491-0.013-4.5331,2.2503-5.7632c2.1355-1.1606,4.5894-0.789,6.9063-0.9209c0.3787-0.0215,0.5991-0.6306,0.1492-0.7253
			c-2.8999-0.6107-6.2106-0.5297-8.6579,1.3122C137.9317,160.107,136.937,163.3154,138.7842,165.048z"/>
		<g>
			<path style="fill:#8E3F09;" d="M117.3993,154.6086c0.2336,0.3237,0.6583,0.1189,0.7472-0.1928
				c0.6356,0.2661,1.4058,0.0945,2.1136,0.109c1.2888,0.0263,2.5157,0.365,3.7585,0.657c0.4977,1.6759,1.658,3.3437,2.4241,4.8473
				c1.1062,2.171,2.253,4.3216,3.3851,6.4793c1.0306,1.9643,2.1382,3.9041,2.79,6.0347c0.0655,0.2141,0.1187,0.4255,0.1649,0.6353
				c-0.1105,0.1626-0.0463,0.3555,0.0907,0.472c0.2054,1.2981,0.0712,2.5291-0.2112,3.7788
				c-0.1049,0.0891-0.2071,0.1814-0.3028,0.2811c-0.1505,0.1568-0.0819,0.4331,0.1167,0.4736
				c-0.0233,0.088-0.0465,0.1759-0.0708,0.2642c-0.1133-0.0027-0.2265,0.0537-0.2791,0.1941
				c-0.8819,2.3534,1.3434,3.9104,3.44,4.0547c2.7812,0.1914,5.4696-2.0099,6.9276-4.164c1.7463-2.5801,1.7443-5.8063,0.6591-8.6269
				c-1.1505-2.9902-4.2779-5.4358-3.6424-8.714c1.4696-0.8278,2.8815-1.6205,4.5187-2.1011
				c1.9058,1.9196,5.1698,2.6859,7.7502,2.6313c2.8495-0.0603,5.553-1.3769,7.2451-3.6754c1.5709-2.1339,1.756-5.1456,0.2836-7.3535
				c-0.1699-0.2547-0.3808-0.5057-0.6171-0.7467c1.8109-1.4983,2.4496-4.5166,1.5633-6.6333
				c-0.5233-1.2499-1.3513-2.2159-2.4539-2.9604c1.0329-1.5485,0.6406-3.8866-0.3564-5.3644
				c-0.6172-0.9147-1.6322-1.8552-2.7857-2.5475c-0.0131-1.892-1.3333-3.4124-2.8518-4.4636
				c-2.1085-1.4598-4.9083-1.4489-7.35-1.2146c-5.8805,0.5641-11.644,2.907-16.5679,6.098
				c-0.0498,0.0323-0.0926,0.0684-0.1305,0.1068c-1.2803-0.3185-2.8508-0.1031-4.1168-0.2318
				c-1.1206-0.1139-2.2365-0.3117-3.3384-0.5406c-0.9164-0.1904-1.8005-0.5605-2.7272-0.5993
				c-0.1023-0.0282-0.208-0.0281-0.3088,0.001c-0.0178,0.0008-0.0353-0.0009-0.0531,0.0002
				c-0.4185,0.0249-0.6828,0.4191-0.5432,0.7571C113.1126,139.1089,112.8076,148.2445,117.3993,154.6086z M133.9408,173.4965
				c0.4015-0.1813,0.789-0.4026,1.2228-0.5283c1.1004-0.3188,2.7118,0.6168,1.6151,1.8382c-0.736,0.8198-1.814,1.2548-2.816,1.782
				C134.1466,175.6127,134.1099,174.5558,133.9408,173.4965z M117.7914,133.1161c1.3908,0.5816,3.2013,0.6927,4.572,0.8576
				c1.4878,0.179,3.8533,0.6181,5.4459,0.0986c0.1777,0.1595,0.4288,0.2111,0.6967,0.0323
				c3.9434-2.6322,8.2834-4.4742,12.9041-5.5297c4.5125-1.0308,10.1488-1.3252,12.2377,3.3427
				c-0.9854-0.4282-2.0146-0.6405-2.9513-0.4812c-0.3926,0.0668-0.5187,0.64-0.1711,0.8513
				c0.6219,0.378,1.2812,0.4787,1.9761,0.6888c1.1537,0.3488,2.2133,0.9422,3.1069,1.749c1.578,1.4247,1.7208,3.2447,1.3135,5.1139
				c-0.9418-0.4575-2.2227-0.8144-2.9393-0.1017c-0.1116,0.111-0.1571,0.3143-0.0299,0.4373
				c0.5291,0.5113,1.0297,0.4383,1.7532,0.6148c1.2707,0.3099,2.3427,1.2149,3.0349,2.2957
				c1.3762,2.1489,0.4207,4.3333-0.9119,6.1252c-1.2933-0.9174-2.982-1.4117-4.3185-0.6734
				c-0.4109,0.227-0.3059,0.8646,0.1796,0.9038c2.1494,0.1733,3.8295,0.4113,5.0189,2.4725
				c1.2333,2.1374,0.1777,4.8784-1.3775,6.5128c-1.6236,1.7063-4.2189,2.21-6.4763,2.1566c-2.2214-0.0526-3.95-0.8828-5.8335-1.7376
				c1.0211-0.1946,2.0643-0.2265,3.1017-0.1712c0.9625,0.0513,1.9222,0.3887,2.8721,0.1495
				c0.1952-0.0491,0.3046-0.2966,0.1546-0.4567c-1.4238-1.5198-4.5518-1.0927-6.3965-0.7747
				c-1.6591,0.286-3.4037,0.9351-4.7895,1.9814c-0.1214-0.332-0.6766-0.4807-0.9221-0.1246
				c-2.801,4.0635,2.2491,8.2057,3.3595,11.8437c0.8296,2.7176-0.1578,5.7966-2.053,7.8061
				c-1.6946,1.7968-7.2789,3.96-7.6153,0.0228c0.3534-0.381,0.6253-0.8044,0.8312-1.2577c1.1339-0.4633,2.2539-1.2158,3.2275-1.8372
				c0.914-0.5833,1.5708-1.4758,1.2717-2.5902c-0.4979-1.8547-2.8279-1.7966-4.333-1.0012
				c-0.3924-1.6596-1.0448-3.259-1.6188-4.4875c-1.0957-2.3452-2.4-4.6122-3.5994-6.906c-0.6588-1.2599-1.3397-2.5083-2.0135-3.7603
				c-0.4473-0.8311-0.8459-1.7577-1.4078-2.5341c0.0168-0.1586-0.0499-0.3194-0.2477-0.4288
				c-0.0627-0.0346-0.1268-0.0639-0.19-0.0965c-0.0461-0.0487-0.089-0.1004-0.1372-0.1468
				c-0.1182-0.1137-0.2684-0.1393-0.3988-0.1048c-1.0405-0.4409-2.1431-0.6556-3.2802-0.7879
				c-0.9267-0.1078-2.2381-0.3023-2.9662,0.3726C114.9656,146.9227,114.3839,139.7015,117.7914,133.1161z"/>
			<path style="fill:#8E3F09;" d="M142.4292,147.0275c1.7349-0.6211,2.9059-1.6624,4.8794-1.6729
				c2.029-0.0108,3.1205,1.376,4.822,2.0727c0.1578,0.0646,0.3439-0.0966,0.3007-0.2622c-0.5208-1.9955-3.2209-2.8475-5.0379-3.0487
				c-1.8821-0.2084-4.6651,0.6082-5.4633,2.47C141.7914,146.9096,142.1633,147.1227,142.4292,147.0275z"/>
		</g>
	</g>
</g>
</svg>
