<?xml version="1.0" encoding="utf-8"?>
<!-- Generator: Adobe Illustrator 21.0.2, SVG Export Plug-In . SVG Version: 6.00 Build 0)  -->
<svg version="1.1" id="Capa_1" xmlns="http://www.w3.org/2000/svg" xmlns:xlink="http://www.w3.org/1999/xlink" x="0px" y="0px"
	 viewBox="0 0 604.6352 67.4195" style="enable-background:new 0 0 604.6352 67.4195;" xml:space="preserve">
<g>
	<polyline style="fill:none;stroke:#093751;stroke-miterlimit:10;" points="0.5,67.4195 0.5,20.1009 604.1352,20.1009 
		604.1352,67.4195 	"/>
	<g>
		
			<rect x="102.9099" y="-59.3185" transform="matrix(6.123234e-17 -1 1 6.123234e-17 102.9099 146.6907)" style="fill:#CED3D6;" width="43.7808" height="162.4179"/>
		
			<rect x="106.0112" y="-55.1555" transform="matrix(6.123234e-17 -1 1 6.123234e-17 102.9099 146.6907)" style="fill:#FFFFFF;" width="37.5782" height="154.0917"/>
		
			<rect x="108.0378" y="-52.3702" transform="matrix(6.123234e-17 -1 1 6.123234e-17 102.9099 146.6907)" style="fill:#2B2B38;" width="33.5249" height="148.5213"/>
		<g>
			<path style="fill:#FFFFFF;" d="M86.2425,28.6339V14.4952h7.9561v1.2129H87.514v5.2549h5.4131v1.2129H87.514v5.2451h6.6846v1.2129
				H86.2425z"/>
			<path style="fill:#FFFFFF;" d="M101.7513,28.6339v-7.3945c0-0.2432-0.0459-0.4717-0.1387-0.6855
				c-0.0918-0.2129-0.2168-0.3994-0.374-0.5566c-0.1582-0.1582-0.3438-0.2822-0.5576-0.375
				c-0.2139-0.0918-0.4414-0.1377-0.6846-0.1377h-0.8086c-0.2432,0-0.4717,0.0459-0.6855,0.1377
				c-0.2139,0.0928-0.3994,0.2168-0.5566,0.375c-0.1582,0.1572-0.2832,0.3438-0.375,0.5566
				c-0.0918,0.2139-0.1377,0.4424-0.1377,0.6855v7.3945H96.22V18.5382h0.4043l0.6602,1.0254c0.2764-0.375,0.623-0.6719,1.04-0.8926
				c0.418-0.2197,0.873-0.3301,1.3662-0.3301h0.3057c0.4072,0,0.792,0.0771,1.1533,0.2314s0.6768,0.3662,0.9463,0.6357
				s0.4814,0.585,0.6357,0.9463c0.1543,0.3623,0.2324,0.7461,0.2324,1.1543v7.3252H101.7513z"/>
			<path style="fill:#FFFFFF;" d="M109.0667,28.6339c-0.3682,0-0.7148-0.0693-1.04-0.207
				c-0.3262-0.1377-0.6084-0.3281-0.8486-0.5723c-0.2402-0.2432-0.4307-0.5254-0.5713-0.8477
				c-0.1416-0.3223-0.2119-0.667-0.2119-1.0352v-6.2803h-1.8145v-1.1533h1.8145v-2.4258l1.2119-0.1973v2.623h2.5635v1.1533h-2.5635
				v6.3398c0,0.2031,0.0381,0.3926,0.1143,0.5664c0.0752,0.1748,0.1787,0.3271,0.3105,0.459
				c0.1309,0.1309,0.2852,0.2344,0.4629,0.3105c0.1777,0.0752,0.3682,0.1133,0.5723,0.1133h1.1035v1.1533H109.0667z"/>
			<path style="fill:#FFFFFF;" d="M115.3675,19.6915c-0.2432,0-0.4717,0.0459-0.6855,0.1377
				c-0.2139,0.0928-0.3994,0.2168-0.5566,0.375c-0.1582,0.1572-0.2832,0.3438-0.375,0.5566
				c-0.0918,0.2139-0.1377,0.4424-0.1377,0.6855v7.1875h-1.2129V18.5382h0.4043l0.6602,1.0254
				c0.2764-0.375,0.623-0.6719,1.04-0.8926c0.418-0.2197,0.873-0.3301,1.3662-0.3301h0.71v1.3506H115.3675z"/>
			<path style="fill:#FFFFFF;" d="M124.7083,27.0167c-0.1543,0.3613-0.3662,0.6777-0.6357,0.9463
				c-0.2695,0.2705-0.585,0.4824-0.9463,0.6367s-0.7461,0.2314-1.1533,0.2314h-0.8086c-0.4082,0-0.792-0.0771-1.1543-0.2314
				c-0.3613-0.1543-0.6768-0.3662-0.9463-0.6367c-0.2695-0.2686-0.4814-0.585-0.6357-0.9463s-0.2314-0.7461-0.2314-1.1533v-4.5547
				c0-0.4082,0.0771-0.792,0.2314-1.1543c0.1543-0.3613,0.3662-0.6768,0.6357-0.9463s0.585-0.4814,0.9463-0.6357
				c0.3623-0.1543,0.7461-0.2314,1.1543-0.2314h0.8086c0.4072,0,0.792,0.0771,1.1533,0.2314s0.6768,0.3662,0.9463,0.6357
				s0.4814,0.585,0.6357,0.9463c0.1543,0.3623,0.2324,0.7461,0.2324,1.1543v2.376h-5.5313v2.248
				c0,0.2432,0.0459,0.4717,0.1377,0.6846c0.0918,0.2139,0.2168,0.3994,0.375,0.5576c0.1572,0.1572,0.3428,0.2822,0.5566,0.374
				c0.2139,0.0928,0.4424,0.1387,0.6855,0.1387h0.8086c0.2432,0,0.4707-0.0459,0.6846-0.1387
				c0.2139-0.0918,0.3994-0.2168,0.5576-0.374c0.1572-0.1582,0.2822-0.3438,0.374-0.5576c0.0928-0.2129,0.1387-0.4414,0.1387-0.6846
				v-0.6709l1.2129,0.1973v0.4043C124.9408,26.2706,124.8626,26.6554,124.7083,27.0167z M123.7279,21.2394
				c0-0.2432-0.0459-0.4717-0.1387-0.6855c-0.0918-0.2129-0.2168-0.3994-0.374-0.5566c-0.1582-0.1582-0.3438-0.2822-0.5576-0.375
				c-0.2139-0.0918-0.4414-0.1377-0.6846-0.1377h-0.8086c-0.2432,0-0.4717,0.0459-0.6855,0.1377
				c-0.2139,0.0928-0.3994,0.2168-0.5566,0.375c-0.1582,0.1572-0.2832,0.3438-0.375,0.5566
				c-0.0918,0.2139-0.1377,0.4424-0.1377,0.6855v1.499h4.3184V21.2394z"/>
			<path style="fill:#FFFFFF;" d="M130.5316,28.6339H129.93l-3.5791-10.0957h1.2129l2.6318,7.6504l0.04,0.5225l0.0391-0.5225
				l2.623-7.6504h1.2129L130.5316,28.6339z"/>
			<path style="fill:#FFFFFF;" d="M135.8255,16.1124v-1.6172h1.4102v1.6172H135.8255z M135.9241,28.6339V18.5382h1.2129v10.0957
				H135.9241z"/>
			<path style="fill:#FFFFFF;" d="M146.9066,26.0704c0,0.4072-0.082,0.7803-0.2461,1.1191s-0.3877,0.6289-0.6699,0.8721
				c-0.2832,0.2441-0.6104,0.4326-0.9814,0.5674s-0.7607,0.2021-1.168,0.2021h-0.8086c-0.4082,0-0.7979-0.0771-1.1689-0.2314
				s-0.6963-0.3662-0.9756-0.6367c-0.2793-0.2686-0.5029-0.585-0.6709-0.9463c-0.167-0.3613-0.251-0.7461-0.251-1.1533v-0.4043
				l1.2129-0.1973v0.6709c0,0.2432,0.0508,0.4717,0.1523,0.6846c0.1016,0.2139,0.2383,0.3994,0.4092,0.5576
				c0.1709,0.1572,0.3682,0.2822,0.5918,0.374c0.2236,0.0928,0.457,0.1387,0.7002,0.1387h0.8086
				c0.2422,0,0.4756-0.0361,0.6992-0.1084s0.4229-0.1758,0.5967-0.3105s0.3125-0.2979,0.4141-0.4883
				c0.1025-0.1904,0.1533-0.4072,0.1533-0.6504c0-0.3613-0.0791-0.6572-0.2373-0.8877c-0.1572-0.2305-0.3662-0.4219-0.626-0.5771
				c-0.2598-0.1543-0.5557-0.2822-0.8867-0.3838c-0.332-0.1025-0.6729-0.2041-1.0205-0.3057
				c-0.3486-0.1025-0.6885-0.2188-1.0205-0.3506c-0.332-0.1309-0.6279-0.3037-0.8877-0.5176
				c-0.2598-0.2129-0.4678-0.4814-0.626-0.8037c-0.1572-0.3213-0.2363-0.7227-0.2363-1.2021c0-0.4082,0.0791-0.7813,0.2363-1.1191
				c0.1582-0.3389,0.3711-0.6299,0.6406-0.873s0.584-0.4316,0.9414-0.5664c0.3584-0.1348,0.7412-0.2021,1.1494-0.2021h0.71
				c0.4072,0,0.792,0.0771,1.1533,0.2314s0.6768,0.3662,0.9463,0.6357s0.4814,0.585,0.6357,0.9463
				c0.1543,0.3623,0.2314,0.7461,0.2314,1.1543v0.0391l-1.2119,0.1973v-0.3057c0-0.2432-0.0469-0.4717-0.1387-0.6855
				c-0.0918-0.2129-0.2168-0.3994-0.374-0.5566c-0.1582-0.1582-0.3438-0.2822-0.5576-0.375
				c-0.2139-0.0918-0.4424-0.1377-0.6846-0.1377h-0.71c-0.2432,0-0.4717,0.0361-0.6855,0.1084s-0.3994,0.1758-0.5566,0.3105
				c-0.1582,0.1348-0.2832,0.2979-0.375,0.4883s-0.1377,0.4072-0.1377,0.6504c0,0.3486,0.0781,0.6328,0.2363,0.8525
				c0.1572,0.2207,0.3662,0.4063,0.626,0.5576s0.5557,0.2773,0.8877,0.3789c0.3311,0.1025,0.6699,0.207,1.0146,0.3164
				c0.3457,0.1084,0.6836,0.2314,1.0156,0.3691s0.6279,0.3154,0.8877,0.5322s0.4688,0.4883,0.626,0.8135
				C146.8284,25.1876,146.9066,25.5909,146.9066,26.0704z"/>
			<path style="fill:#FFFFFF;" d="M152.9124,28.6339c-0.3682,0-0.7148-0.0693-1.04-0.207
				c-0.3262-0.1377-0.6084-0.3281-0.8486-0.5723c-0.2402-0.2432-0.4307-0.5254-0.5713-0.8477
				c-0.1416-0.3223-0.2119-0.667-0.2119-1.0352v-6.2803h-1.8145v-1.1533h1.8145v-2.4258l1.2119-0.1973v2.623h2.5635v1.1533h-2.5635
				v6.3398c0,0.2031,0.0381,0.3926,0.1143,0.5664c0.0752,0.1748,0.1787,0.3271,0.3105,0.459
				c0.1309,0.1309,0.2852,0.2344,0.4629,0.3105c0.1777,0.0752,0.3682,0.1133,0.5723,0.1133h1.1035v1.1533H152.9124z"/>
			<path style="fill:#FFFFFF;" d="M162.5843,28.6339l-0.6709-1.0059c-0.2764,0.3613-0.6211,0.6523-1.0352,0.873
				c-0.4141,0.2197-0.8672,0.3301-1.3604,0.3301h-0.3057c-0.4082,0-0.792-0.0771-1.1543-0.2314
				c-0.3613-0.1543-0.6768-0.3662-0.9463-0.6367c-0.2695-0.2686-0.4814-0.585-0.6357-0.9463s-0.2314-0.7461-0.2314-1.1533v-0.0986
				c0-0.4072,0.0771-0.792,0.2314-1.1533s0.3662-0.6768,0.6357-0.9463s0.585-0.4814,0.9463-0.6367
				c0.3623-0.1543,0.7461-0.2314,1.1543-0.2314h2.5635v-1.5576c0-0.2432-0.0459-0.4717-0.1387-0.6855
				c-0.0918-0.2129-0.2168-0.3994-0.374-0.5566c-0.1582-0.1582-0.3438-0.2822-0.5576-0.375
				c-0.2139-0.0918-0.4414-0.1377-0.6846-0.1377h-0.71c-0.2432,0-0.4717,0.0459-0.6855,0.1377
				c-0.2139,0.0928-0.3994,0.2168-0.5566,0.375c-0.1582,0.1572-0.2832,0.3438-0.375,0.5566
				c-0.0918,0.2139-0.1377,0.4424-0.1377,0.6855v0.3652l-1.2129-0.1973v-0.0986c0-0.4082,0.0771-0.792,0.2314-1.1543
				c0.1543-0.3613,0.3662-0.6768,0.6357-0.9463s0.585-0.4814,0.9463-0.6357c0.3623-0.1543,0.7461-0.2314,1.1543-0.2314h0.71
				c0.4072,0,0.792,0.0771,1.1533,0.2314s0.6768,0.3662,0.9463,0.6357s0.4814,0.585,0.6357,0.9463
				c0.1543,0.3623,0.2324,0.7461,0.2324,1.1543v7.3252H162.5843z M161.7757,23.7433h-2.5635c-0.2432,0-0.4717,0.0469-0.6855,0.1387
				s-0.3994,0.2188-0.5566,0.3789c-0.1582,0.1611-0.2832,0.3486-0.375,0.5625s-0.1377,0.4424-0.1377,0.6855v0.4238
				c0,0.2432,0.0459,0.4717,0.1377,0.6846c0.0918,0.2139,0.2168,0.3994,0.375,0.5576c0.1572,0.1572,0.3428,0.2822,0.5566,0.374
				c0.2139,0.0928,0.4424,0.1387,0.6855,0.1387h0.8086c0.2432,0,0.4707-0.0459,0.6846-0.1387
				c0.2139-0.0918,0.3994-0.2168,0.5576-0.374c0.1572-0.1582,0.2822-0.3438,0.374-0.5576c0.0928-0.2129,0.1387-0.4414,0.1387-0.6846
				V23.7433z"/>
		</g>
	</g>
	<g>
		
			<rect x="280.0057" y="-59.3185" transform="matrix(6.123234e-17 -1 1 6.123234e-17 280.0057 323.7866)" style="fill:#CED3D6;" width="43.7808" height="162.4179"/>
		
			<rect x="283.1071" y="-55.1555" transform="matrix(6.123234e-17 -1 1 6.123234e-17 280.0057 323.7866)" style="fill:#FFFFFF;" width="37.5782" height="154.0917"/>
		
			<rect x="285.1337" y="-52.3702" transform="matrix(6.123234e-17 -1 1 6.123234e-17 280.0057 323.7866)" style="fill:#F9CA35;" width="33.5249" height="148.5213"/>
		<g>
			<path d="M265.0902,28.6339v-9.6914l-0.0889,0.6006l-3.2832,9.0908h-0.6709l-3.3125-9.0908l-0.0791-0.6006v9.6914h-1.2715V14.4952
				h0.6602l4.2891,11.5947l0.0391,0.5225l0.04-0.5225l4.2783-11.5947h0.6709v14.1387H265.0902z"/>
			<path d="M275.4964,27.0167c-0.1543,0.3613-0.3662,0.6777-0.6357,0.9463c-0.2695,0.2705-0.585,0.4824-0.9463,0.6367
				s-0.7461,0.2314-1.1533,0.2314h-0.8086c-0.4082,0-0.792-0.0771-1.1543-0.2314c-0.3613-0.1543-0.6768-0.3662-0.9463-0.6367
				c-0.2695-0.2686-0.4814-0.585-0.6357-0.9463s-0.2314-0.7461-0.2314-1.1533v-4.5547c0-0.4082,0.0771-0.792,0.2314-1.1543
				c0.1543-0.3613,0.3662-0.6768,0.6357-0.9463s0.585-0.4814,0.9463-0.6357c0.3623-0.1543,0.7461-0.2314,1.1543-0.2314h0.8086
				c0.4072,0,0.792,0.0771,1.1533,0.2314s0.6768,0.3662,0.9463,0.6357s0.4814,0.585,0.6357,0.9463
				c0.1543,0.3623,0.2324,0.7461,0.2324,1.1543v2.376h-5.5313v2.248c0,0.2432,0.0459,0.4717,0.1377,0.6846
				c0.0918,0.2139,0.2168,0.3994,0.375,0.5576c0.1572,0.1572,0.3428,0.2822,0.5566,0.374c0.2139,0.0928,0.4424,0.1387,0.6855,0.1387
				h0.8086c0.2432,0,0.4707-0.0459,0.6846-0.1387c0.2139-0.0918,0.3994-0.2168,0.5576-0.374
				c0.1572-0.1582,0.2822-0.3438,0.374-0.5576c0.0928-0.2129,0.1387-0.4414,0.1387-0.6846v-0.6709l1.2129,0.1973v0.4043
				C275.7289,26.2706,275.6507,26.6554,275.4964,27.0167z M274.516,21.2394c0-0.2432-0.0459-0.4717-0.1387-0.6855
				c-0.0918-0.2129-0.2168-0.3994-0.374-0.5566c-0.1582-0.1582-0.3438-0.2822-0.5576-0.375
				c-0.2139-0.0918-0.4414-0.1377-0.6846-0.1377h-0.8086c-0.2432,0-0.4717,0.0459-0.6855,0.1377
				c-0.2139,0.0928-0.3994,0.2168-0.5566,0.375c-0.1582,0.1572-0.2832,0.3438-0.375,0.5566
				c-0.0918,0.2139-0.1377,0.4424-0.1377,0.6855v1.499h4.3184V21.2394z M271.8539,16.921h-0.9072l1.6074-2.4258h2.0205
				L271.8539,16.921z"/>
			<path d="M281.8314,28.6339c-0.3682,0-0.7148-0.0693-1.04-0.207c-0.3262-0.1377-0.6084-0.3281-0.8486-0.5723
				c-0.2402-0.2432-0.4307-0.5254-0.5713-0.8477c-0.1416-0.3223-0.2119-0.667-0.2119-1.0352v-6.2803h-1.8145v-1.1533h1.8145v-2.4258
				l1.2119-0.1973v2.623h2.5635v1.1533h-2.5635v6.3398c0,0.2031,0.0381,0.3926,0.1143,0.5664
				c0.0752,0.1748,0.1787,0.3271,0.3105,0.459c0.1309,0.1309,0.2852,0.2344,0.4629,0.3105
				c0.1777,0.0752,0.3682,0.1133,0.5723,0.1133h1.1035v1.1533H281.8314z"/>
			<path d="M291.6751,27.0167c-0.1543,0.3613-0.3662,0.6777-0.6357,0.9463c-0.2695,0.2705-0.585,0.4824-0.9463,0.6367
				s-0.7461,0.2314-1.1533,0.2314h-0.8086c-0.4082,0-0.792-0.0771-1.1543-0.2314c-0.3613-0.1543-0.6768-0.3662-0.9463-0.6367
				c-0.2695-0.2686-0.4814-0.585-0.6357-0.9463s-0.2314-0.7461-0.2314-1.1533v-4.5547c0-0.4082,0.0771-0.792,0.2314-1.1543
				c0.1543-0.3613,0.3662-0.6768,0.6357-0.9463s0.585-0.4814,0.9463-0.6357c0.3623-0.1543,0.7461-0.2314,1.1543-0.2314h0.8086
				c0.4072,0,0.792,0.0771,1.1533,0.2314s0.6768,0.3662,0.9463,0.6357s0.4814,0.585,0.6357,0.9463
				c0.1543,0.3623,0.2324,0.7461,0.2324,1.1543v4.5547C291.9076,26.2706,291.8294,26.6554,291.6751,27.0167z M290.6947,21.2394
				c0-0.2432-0.0459-0.4717-0.1387-0.6855c-0.0918-0.2129-0.2168-0.3994-0.374-0.5566c-0.1582-0.1582-0.3438-0.2822-0.5576-0.375
				c-0.2139-0.0918-0.4414-0.1377-0.6846-0.1377h-0.8086c-0.2432,0-0.4717,0.0459-0.6855,0.1377
				c-0.2139,0.0928-0.3994,0.2168-0.5566,0.375c-0.1582,0.1572-0.2832,0.3438-0.375,0.5566
				c-0.0918,0.2139-0.1377,0.4424-0.1377,0.6855v4.6934c0,0.2432,0.0459,0.4717,0.1377,0.6846
				c0.0918,0.2139,0.2168,0.3994,0.375,0.5576c0.1572,0.1572,0.3428,0.2822,0.5566,0.374c0.2139,0.0928,0.4424,0.1387,0.6855,0.1387
				h0.8086c0.2432,0,0.4707-0.0459,0.6846-0.1387c0.2139-0.0918,0.3994-0.2168,0.5576-0.374
				c0.1572-0.1582,0.2822-0.3438,0.374-0.5576c0.0928-0.2129,0.1387-0.4414,0.1387-0.6846V21.2394z"/>
			<path d="M300.6732,28.6339l-0.6709-1.0254c-0.2764,0.375-0.6211,0.6719-1.0352,0.8926
				c-0.4141,0.2197-0.8672,0.3301-1.3604,0.3301h-0.3057c-0.4082,0-0.792-0.0771-1.1543-0.2314
				c-0.3613-0.1543-0.6768-0.3662-0.9463-0.6367c-0.2695-0.2686-0.4814-0.585-0.6357-0.9463s-0.2314-0.7461-0.2314-1.1533v-4.5547
				c0-0.4082,0.0771-0.792,0.2314-1.1543c0.1543-0.3613,0.3662-0.6768,0.6357-0.9463s0.585-0.4814,0.9463-0.6357
				c0.3623-0.1543,0.7461-0.2314,1.1543-0.2314h0.3057c0.4531,0,0.874,0.0918,1.2617,0.2754
				c0.3877,0.1846,0.7197,0.4404,0.9961,0.7695v-4.8906h1.2129v14.1387H300.6732z M299.8646,21.2394
				c0-0.2432-0.0459-0.4717-0.1387-0.6855c-0.0918-0.2129-0.2168-0.3994-0.374-0.5566c-0.1582-0.1582-0.3438-0.2822-0.5576-0.375
				c-0.2139-0.0918-0.4414-0.1377-0.6846-0.1377h-0.8086c-0.2432,0-0.4717,0.0459-0.6855,0.1377
				c-0.2139,0.0928-0.3994,0.2168-0.5566,0.375c-0.1582,0.1572-0.2832,0.3438-0.375,0.5566
				c-0.0918,0.2139-0.1377,0.4424-0.1377,0.6855v4.6934c0,0.2432,0.0459,0.4717,0.1377,0.6846
				c0.0918,0.2139,0.2168,0.3994,0.375,0.5576c0.1572,0.1572,0.3428,0.2822,0.5566,0.374c0.2139,0.0928,0.4424,0.1387,0.6855,0.1387
				h0.8086c0.2432,0,0.4707-0.0459,0.6846-0.1387c0.2139-0.0918,0.3994-0.2168,0.5576-0.374
				c0.1572-0.1582,0.2822-0.3438,0.374-0.5576c0.0928-0.2129,0.1387-0.4414,0.1387-0.6846V21.2394z"/>
			<path d="M310.014,27.0167c-0.1543,0.3613-0.3662,0.6777-0.6357,0.9463c-0.2695,0.2705-0.585,0.4824-0.9463,0.6367
				s-0.7461,0.2314-1.1533,0.2314h-0.8086c-0.4082,0-0.792-0.0771-1.1543-0.2314c-0.3613-0.1543-0.6768-0.3662-0.9463-0.6367
				c-0.2695-0.2686-0.4814-0.585-0.6357-0.9463s-0.2314-0.7461-0.2314-1.1533v-4.5547c0-0.4082,0.0771-0.792,0.2314-1.1543
				c0.1543-0.3613,0.3662-0.6768,0.6357-0.9463s0.585-0.4814,0.9463-0.6357c0.3623-0.1543,0.7461-0.2314,1.1543-0.2314h0.8086
				c0.4072,0,0.792,0.0771,1.1533,0.2314s0.6768,0.3662,0.9463,0.6357s0.4814,0.585,0.6357,0.9463
				c0.1543,0.3623,0.2324,0.7461,0.2324,1.1543v4.5547C310.2464,26.2706,310.1683,26.6554,310.014,27.0167z M309.0335,21.2394
				c0-0.2432-0.0459-0.4717-0.1387-0.6855c-0.0918-0.2129-0.2168-0.3994-0.374-0.5566c-0.1582-0.1582-0.3438-0.2822-0.5576-0.375
				c-0.2139-0.0918-0.4414-0.1377-0.6846-0.1377h-0.8086c-0.2432,0-0.4717,0.0459-0.6855,0.1377
				c-0.2139,0.0928-0.3994,0.2168-0.5566,0.375c-0.1582,0.1572-0.2832,0.3438-0.375,0.5566
				c-0.0918,0.2139-0.1377,0.4424-0.1377,0.6855v4.6934c0,0.2432,0.0459,0.4717,0.1377,0.6846
				c0.0918,0.2139,0.2168,0.3994,0.375,0.5576c0.1572,0.1572,0.3428,0.2822,0.5566,0.374c0.2139,0.0928,0.4424,0.1387,0.6855,0.1387
				h0.8086c0.2432,0,0.4707-0.0459,0.6846-0.1387c0.2139-0.0918,0.3994-0.2168,0.5576-0.374
				c0.1572-0.1582,0.2822-0.3438,0.374-0.5576c0.0928-0.2129,0.1387-0.4414,0.1387-0.6846V21.2394z"/>
			<path d="M323.7884,26.711c-0.1807,0.4209-0.4287,0.7891-0.7441,1.1045s-0.6836,0.5635-1.1045,0.7441
				s-0.8711,0.2715-1.3506,0.2715h-0.4043c-0.4805,0-0.9316-0.0908-1.3555-0.2715c-0.4248-0.1807-0.7939-0.4287-1.1094-0.7441
				s-0.5635-0.6836-0.7441-1.1045c-0.1816-0.4199-0.2715-0.8701-0.2715-1.3506v-0.5615l1.2715-0.207v0.7686
				c0,0.3154,0.0596,0.6094,0.1777,0.8828c0.1182,0.2725,0.2813,0.5127,0.4883,0.7197s0.4463,0.3691,0.7197,0.4873
				c0.2725,0.1191,0.5664,0.1777,0.8818,0.1777h0.2861c0.3086,0,0.6016-0.0586,0.8779-0.1777
				c0.2754-0.1182,0.5156-0.2803,0.7197-0.4873c0.2031-0.207,0.3643-0.4473,0.4824-0.7197
				c0.1191-0.2734,0.1777-0.5674,0.1777-0.8828V14.4952h1.2725v10.8652C324.0599,25.8409,323.9691,26.2911,323.7884,26.711z"/>
			<path d="M332.1927,25.3409h-4.4756l-0.9268,3.293h-1.3213l4.1406-14.1387h0.6709l4.1602,14.1387h-1.3105L332.1927,25.3409z
				 M328.0619,24.128h3.7959l-1.8633-6.5166l-0.0391-0.5225l-0.04,0.5225L328.0619,24.128z"/>
			<path d="M343.9408,26.5138c-0.1816,0.4209-0.4297,0.7891-0.7451,1.1045s-0.6846,0.5635-1.1084,0.7441
				c-0.4248,0.1816-0.876,0.2715-1.3564,0.2715h-4.4756V14.4952h4.4756c0.4805,0,0.9316,0.0908,1.3564,0.2715
				c0.4238,0.1807,0.793,0.4287,1.1084,0.7441s0.5635,0.6855,0.7451,1.1094c0.1807,0.4238,0.2705,0.876,0.2705,1.3555v7.1875
				C344.2113,25.6437,344.1214,26.0939,343.9408,26.5138z M342.9398,17.9757c0-0.3154-0.0596-0.6094-0.1777-0.8818
				c-0.1182-0.2734-0.2813-0.5127-0.4883-0.7197s-0.4463-0.3701-0.7197-0.4883c-0.2725-0.1182-0.5664-0.1777-0.8818-0.1777h-3.1455
				V27.421h3.1455c0.3154,0,0.6094-0.0586,0.8818-0.1777c0.2734-0.1182,0.5127-0.2793,0.7197-0.4824
				c0.207-0.2041,0.3701-0.4424,0.4883-0.7148s0.1777-0.5674,0.1777-0.8828V17.9757z"/>
		</g>
	</g>
	<g>
		
			<rect x="458.1706" y="-59.3185" transform="matrix(6.123234e-17 -1 1 6.123234e-17 458.1706 501.9514)" style="fill:#CED3D6;" width="43.7808" height="162.4179"/>
		
			<rect x="461.2719" y="-55.1555" transform="matrix(6.123234e-17 -1 1 6.123234e-17 458.1706 501.9514)" style="fill:#FFFFFF;" width="37.5782" height="154.0917"/>
		
			<rect x="463.2986" y="-52.3702" transform="matrix(6.123234e-17 -1 1 6.123234e-17 458.1706 501.9514)" style="fill:#DD4E31;" width="33.5249" height="148.5213"/>
		<g>
			<path style="fill:#FFFFFF;" d="M440.3265,26.711c-0.1816,0.4209-0.4297,0.7891-0.7451,1.1045s-0.6836,0.5635-1.1035,0.7441
				c-0.4209,0.1807-0.8711,0.2715-1.3516,0.2715h-1.0049c-0.4805,0-0.9316-0.0908-1.3564-0.2715
				c-0.4238-0.1807-0.793-0.4287-1.1084-0.7441s-0.5645-0.6836-0.7451-1.1045c-0.1807-0.4199-0.2705-0.8701-0.2705-1.3506v-7.5918
				c0-0.4795,0.0898-0.9297,0.2705-1.3506s0.4297-0.7891,0.7451-1.1045s0.6846-0.5635,1.1084-0.7441
				c0.4248-0.1807,0.876-0.2715,1.3564-0.2715h1.0049c0.4805,0,0.9307,0.0908,1.3516,0.2715
				c0.4199,0.1807,0.7881,0.4287,1.1035,0.7441s0.5635,0.6836,0.7451,1.1045c0.1807,0.4209,0.2705,0.8711,0.2705,1.3506v0.5723
				l-1.2715,0.1973v-0.7695c0-0.3154-0.0596-0.6094-0.1777-0.8818c-0.1182-0.2734-0.2793-0.5117-0.4834-0.7148
				c-0.2031-0.2041-0.4414-0.3652-0.7148-0.4834c-0.2725-0.1182-0.5664-0.1777-0.8818-0.1777H436.18
				c-0.3154,0-0.6094,0.0596-0.8818,0.1777c-0.2734,0.1182-0.5127,0.2793-0.7197,0.4834c-0.207,0.2031-0.3701,0.4414-0.4883,0.7148
				c-0.1182,0.2725-0.1777,0.5664-0.1777,0.8818v7.5918c0,0.3154,0.0596,0.6094,0.1777,0.8828
				c0.1182,0.2725,0.2813,0.5127,0.4883,0.7197s0.4463,0.3691,0.7197,0.4873c0.2725,0.1191,0.5664,0.1777,0.8818,0.1777h0.8877
				c0.3154,0,0.6094-0.0586,0.8818-0.1777c0.2734-0.1182,0.5117-0.2803,0.7148-0.4873c0.2041-0.207,0.3652-0.4473,0.4834-0.7197
				c0.1182-0.2734,0.1777-0.5674,0.1777-0.8828v-0.7686l1.2715,0.207v0.5615C440.597,25.8409,440.5072,26.2911,440.3265,26.711z"/>
			<path style="fill:#FFFFFF;" d="M449.3626,28.6339l-0.6709-1.0254c-0.2764,0.375-0.6211,0.6719-1.0352,0.8926
				c-0.4141,0.2197-0.8672,0.3301-1.3604,0.3301h-0.3057c-0.4082,0-0.792-0.0771-1.1543-0.2314
				c-0.3613-0.1543-0.6768-0.3662-0.9463-0.6367c-0.2695-0.2686-0.4814-0.585-0.6357-0.9463s-0.2314-0.7461-0.2314-1.1533v-7.3252
				h1.2129v7.3945c0,0.2432,0.0459,0.4717,0.1377,0.6846c0.0918,0.2139,0.2168,0.3994,0.375,0.5576
				c0.1572,0.1572,0.3428,0.2822,0.5566,0.374c0.2139,0.0928,0.4424,0.1387,0.6855,0.1387h0.8086
				c0.2432,0,0.4707-0.0459,0.6846-0.1387c0.2139-0.0918,0.3994-0.2168,0.5576-0.374c0.1572-0.1582,0.2822-0.3438,0.374-0.5576
				c0.0928-0.2129,0.1387-0.4414,0.1387-0.6846v-7.3945h1.2129v10.0957H449.3626z"/>
			<path style="fill:#FFFFFF;" d="M458.7035,27.0167c-0.1543,0.3613-0.3662,0.6777-0.6357,0.9463
				c-0.2695,0.2705-0.585,0.4824-0.9463,0.6367s-0.7461,0.2314-1.1533,0.2314h-0.8086c-0.4082,0-0.792-0.0771-1.1543-0.2314
				c-0.3613-0.1543-0.6768-0.3662-0.9463-0.6367c-0.2695-0.2686-0.4814-0.585-0.6357-0.9463s-0.2314-0.7461-0.2314-1.1533v-4.5547
				c0-0.4082,0.0771-0.792,0.2314-1.1543c0.1543-0.3613,0.3662-0.6768,0.6357-0.9463s0.585-0.4814,0.9463-0.6357
				c0.3623-0.1543,0.7461-0.2314,1.1543-0.2314h0.8086c0.4072,0,0.792,0.0771,1.1533,0.2314s0.6768,0.3662,0.9463,0.6357
				s0.4814,0.585,0.6357,0.9463c0.1543,0.3623,0.2324,0.7461,0.2324,1.1543v2.376h-5.5313v2.248
				c0,0.2432,0.0459,0.4717,0.1377,0.6846c0.0918,0.2139,0.2168,0.3994,0.375,0.5576c0.1572,0.1572,0.3428,0.2822,0.5566,0.374
				c0.2139,0.0928,0.4424,0.1387,0.6855,0.1387h0.8086c0.2432,0,0.4707-0.0459,0.6846-0.1387
				c0.2139-0.0918,0.3994-0.2168,0.5576-0.374c0.1572-0.1582,0.2822-0.3438,0.374-0.5576c0.0928-0.2129,0.1387-0.4414,0.1387-0.6846
				v-0.6709l1.2129,0.1973v0.4043C458.9359,26.2706,458.8578,26.6554,458.7035,27.0167z M457.723,21.2394
				c0-0.2432-0.0459-0.4717-0.1387-0.6855c-0.0918-0.2129-0.2168-0.3994-0.374-0.5566c-0.1582-0.1582-0.3438-0.2822-0.5576-0.375
				c-0.2139-0.0918-0.4414-0.1377-0.6846-0.1377h-0.8086c-0.2432,0-0.4717,0.0459-0.6855,0.1377
				c-0.2139,0.0928-0.3994,0.2168-0.5566,0.375c-0.1582,0.1572-0.2832,0.3438-0.375,0.5566
				c-0.0918,0.2139-0.1377,0.4424-0.1377,0.6855v1.499h4.3184V21.2394z"/>
			<path style="fill:#FFFFFF;" d="M468.3021,26.0704c0,0.4072-0.082,0.7803-0.2461,1.1191s-0.3877,0.6289-0.6699,0.8721
				c-0.2832,0.2441-0.6104,0.4326-0.9814,0.5674s-0.7607,0.2021-1.168,0.2021h-0.8086c-0.4082,0-0.7979-0.0771-1.1689-0.2314
				s-0.6963-0.3662-0.9756-0.6367c-0.2793-0.2686-0.5029-0.585-0.6709-0.9463c-0.167-0.3613-0.251-0.7461-0.251-1.1533v-0.4043
				l1.2129-0.1973v0.6709c0,0.2432,0.0508,0.4717,0.1523,0.6846c0.1016,0.2139,0.2383,0.3994,0.4092,0.5576
				c0.1709,0.1572,0.3682,0.2822,0.5918,0.374c0.2236,0.0928,0.457,0.1387,0.7002,0.1387h0.8086
				c0.2422,0,0.4756-0.0361,0.6992-0.1084s0.4229-0.1758,0.5967-0.3105s0.3125-0.2979,0.4141-0.4883
				c0.1025-0.1904,0.1533-0.4072,0.1533-0.6504c0-0.3613-0.0791-0.6572-0.2373-0.8877c-0.1572-0.2305-0.3662-0.4219-0.626-0.5771
				c-0.2598-0.1543-0.5557-0.2822-0.8867-0.3838c-0.332-0.1025-0.6729-0.2041-1.0205-0.3057
				c-0.3486-0.1025-0.6885-0.2188-1.0205-0.3506c-0.332-0.1309-0.6279-0.3037-0.8877-0.5176
				c-0.2598-0.2129-0.4678-0.4814-0.626-0.8037c-0.1572-0.3213-0.2363-0.7227-0.2363-1.2021c0-0.4082,0.0791-0.7813,0.2363-1.1191
				c0.1582-0.3389,0.3711-0.6299,0.6406-0.873s0.584-0.4316,0.9414-0.5664c0.3584-0.1348,0.7412-0.2021,1.1494-0.2021h0.71
				c0.4072,0,0.792,0.0771,1.1533,0.2314s0.6768,0.3662,0.9463,0.6357s0.4814,0.585,0.6357,0.9463
				c0.1543,0.3623,0.2314,0.7461,0.2314,1.1543v0.0391l-1.2119,0.1973v-0.3057c0-0.2432-0.0469-0.4717-0.1387-0.6855
				c-0.0918-0.2129-0.2168-0.3994-0.374-0.5566c-0.1582-0.1582-0.3438-0.2822-0.5576-0.375
				c-0.2139-0.0918-0.4424-0.1377-0.6846-0.1377h-0.71c-0.2432,0-0.4717,0.0361-0.6855,0.1084s-0.3994,0.1758-0.5566,0.3105
				c-0.1582,0.1348-0.2832,0.2979-0.375,0.4883s-0.1377,0.4072-0.1377,0.6504c0,0.3486,0.0781,0.6328,0.2363,0.8525
				c0.1572,0.2207,0.3662,0.4063,0.626,0.5576s0.5557,0.2773,0.8877,0.3789c0.3311,0.1025,0.6699,0.207,1.0146,0.3164
				c0.3457,0.1084,0.6836,0.2314,1.0156,0.3691s0.6279,0.3154,0.8877,0.5322s0.4688,0.4883,0.626,0.8135
				C468.224,25.1876,468.3021,25.5909,468.3021,26.0704z"/>
			<path style="fill:#FFFFFF;" d="M474.307,28.6339c-0.3682,0-0.7148-0.0693-1.04-0.207c-0.3262-0.1377-0.6084-0.3281-0.8486-0.5723
				c-0.2402-0.2432-0.4307-0.5254-0.5713-0.8477c-0.1416-0.3223-0.2119-0.667-0.2119-1.0352v-6.2803h-1.8145v-1.1533h1.8145v-2.4258
				l1.2119-0.1973v2.623h2.5635v1.1533h-2.5635v6.3398c0,0.2031,0.0381,0.3926,0.1143,0.5664
				c0.0752,0.1748,0.1787,0.3271,0.3105,0.459c0.1309,0.1309,0.2852,0.2344,0.4629,0.3105
				c0.1777,0.0752,0.3682,0.1133,0.5723,0.1133h1.1035v1.1533H474.307z"/>
			<path style="fill:#FFFFFF;" d="M477.9447,16.1124v-1.6172h1.4102v1.6172H477.9447z M478.0433,28.6339V18.5382h1.2129v10.0957
				H478.0433z"/>
			<path style="fill:#FFFFFF;" d="M488.598,27.0167c-0.1543,0.3613-0.3662,0.6777-0.6357,0.9463
				c-0.2695,0.2705-0.585,0.4824-0.9463,0.6367s-0.7461,0.2314-1.1533,0.2314h-0.8086c-0.4082,0-0.792-0.0771-1.1543-0.2314
				c-0.3613-0.1543-0.6768-0.3662-0.9463-0.6367c-0.2695-0.2686-0.4814-0.585-0.6357-0.9463s-0.2314-0.7461-0.2314-1.1533v-4.5547
				c0-0.4082,0.0771-0.792,0.2314-1.1543c0.1543-0.3613,0.3662-0.6768,0.6357-0.9463s0.585-0.4814,0.9463-0.6357
				c0.3623-0.1543,0.7461-0.2314,1.1543-0.2314h0.8086c0.4072,0,0.792,0.0771,1.1533,0.2314s0.6768,0.3662,0.9463,0.6357
				s0.4814,0.585,0.6357,0.9463c0.1543,0.3623,0.2324,0.7461,0.2324,1.1543v4.5547
				C488.8304,26.2706,488.7523,26.6554,488.598,27.0167z M487.6175,21.2394c0-0.2432-0.0459-0.4717-0.1387-0.6855
				c-0.0918-0.2129-0.2168-0.3994-0.374-0.5566c-0.1582-0.1582-0.3438-0.2822-0.5576-0.375
				c-0.2139-0.0918-0.4414-0.1377-0.6846-0.1377h-0.8086c-0.2432,0-0.4717,0.0459-0.6855,0.1377
				c-0.2139,0.0928-0.3994,0.2168-0.5566,0.375c-0.1582,0.1572-0.2832,0.3438-0.375,0.5566
				c-0.0918,0.2139-0.1377,0.4424-0.1377,0.6855v4.6934c0,0.2432,0.0459,0.4717,0.1377,0.6846
				c0.0918,0.2139,0.2168,0.3994,0.375,0.5576c0.1572,0.1572,0.3428,0.2822,0.5566,0.374c0.2139,0.0928,0.4424,0.1387,0.6855,0.1387
				h0.8086c0.2432,0,0.4707-0.0459,0.6846-0.1387c0.2139-0.0918,0.3994-0.2168,0.5576-0.374
				c0.1572-0.1582,0.2822-0.3438,0.374-0.5576c0.0928-0.2129,0.1387-0.4414,0.1387-0.6846V21.2394z"/>
			<path style="fill:#FFFFFF;" d="M496.7865,28.6339v-7.3945c0-0.2432-0.0459-0.4717-0.1387-0.6855
				c-0.0918-0.2129-0.2168-0.3994-0.374-0.5566c-0.1582-0.1582-0.3438-0.2822-0.5576-0.375
				c-0.2139-0.0918-0.4414-0.1377-0.6846-0.1377h-0.8086c-0.2432,0-0.4717,0.0459-0.6855,0.1377
				c-0.2139,0.0928-0.3994,0.2168-0.5566,0.375c-0.1582,0.1572-0.2832,0.3438-0.375,0.5566
				c-0.0918,0.2139-0.1377,0.4424-0.1377,0.6855v7.3945h-1.2129V18.5382h0.4043l0.6602,1.0254
				c0.2764-0.375,0.623-0.6719,1.04-0.8926c0.418-0.2197,0.873-0.3301,1.3662-0.3301h0.3057c0.4072,0,0.792,0.0771,1.1533,0.2314
				s0.6768,0.3662,0.9463,0.6357s0.4814,0.585,0.6357,0.9463c0.1543,0.3623,0.2324,0.7461,0.2324,1.1543v7.3252H496.7865z"/>
			<path style="fill:#FFFFFF;" d="M506.764,28.6339l-0.6709-1.0059c-0.2764,0.3613-0.6211,0.6523-1.0352,0.873
				c-0.4141,0.2197-0.8672,0.3301-1.3604,0.3301h-0.3057c-0.4082,0-0.792-0.0771-1.1543-0.2314
				c-0.3613-0.1543-0.6768-0.3662-0.9463-0.6367c-0.2695-0.2686-0.4814-0.585-0.6357-0.9463s-0.2314-0.7461-0.2314-1.1533v-0.0986
				c0-0.4072,0.0771-0.792,0.2314-1.1533s0.3662-0.6768,0.6357-0.9463s0.585-0.4814,0.9463-0.6367
				c0.3623-0.1543,0.7461-0.2314,1.1543-0.2314h2.5635v-1.5576c0-0.2432-0.0459-0.4717-0.1387-0.6855
				c-0.0918-0.2129-0.2168-0.3994-0.374-0.5566c-0.1582-0.1582-0.3438-0.2822-0.5576-0.375
				c-0.2139-0.0918-0.4414-0.1377-0.6846-0.1377h-0.71c-0.2432,0-0.4717,0.0459-0.6855,0.1377
				c-0.2139,0.0928-0.3994,0.2168-0.5566,0.375c-0.1582,0.1572-0.2832,0.3438-0.375,0.5566
				c-0.0918,0.2139-0.1377,0.4424-0.1377,0.6855v0.3652l-1.2129-0.1973v-0.0986c0-0.4082,0.0771-0.792,0.2314-1.1543
				c0.1543-0.3613,0.3662-0.6768,0.6357-0.9463s0.585-0.4814,0.9463-0.6357c0.3623-0.1543,0.7461-0.2314,1.1543-0.2314h0.71
				c0.4072,0,0.792,0.0771,1.1533,0.2314s0.6768,0.3662,0.9463,0.6357s0.4814,0.585,0.6357,0.9463
				c0.1543,0.3623,0.2324,0.7461,0.2324,1.1543v7.3252H506.764z M505.9554,23.7433h-2.5635c-0.2432,0-0.4717,0.0469-0.6855,0.1387
				s-0.3994,0.2188-0.5566,0.3789c-0.1582,0.1611-0.2832,0.3486-0.375,0.5625s-0.1377,0.4424-0.1377,0.6855v0.4238
				c0,0.2432,0.0459,0.4717,0.1377,0.6846c0.0918,0.2139,0.2168,0.3994,0.375,0.5576c0.1572,0.1572,0.3428,0.2822,0.5566,0.374
				c0.2139,0.0928,0.4424,0.1387,0.6855,0.1387h0.8086c0.2432,0,0.4707-0.0459,0.6846-0.1387
				c0.2139-0.0918,0.3994-0.2168,0.5576-0.374c0.1572-0.1582,0.2822-0.3438,0.374-0.5576c0.0928-0.2129,0.1387-0.4414,0.1387-0.6846
				V23.7433z"/>
			<path style="fill:#FFFFFF;" d="M512.5618,19.6915c-0.2432,0-0.4717,0.0459-0.6855,0.1377
				c-0.2139,0.0928-0.3994,0.2168-0.5566,0.375c-0.1582,0.1572-0.2832,0.3438-0.375,0.5566
				c-0.0918,0.2139-0.1377,0.4424-0.1377,0.6855v7.1875h-1.2129V18.5382h0.4043l0.6602,1.0254
				c0.2764-0.375,0.623-0.6719,1.04-0.8926c0.4179-0.2197,0.873-0.3301,1.3662-0.3301h0.71v1.3506H512.5618z"/>
			<path style="fill:#FFFFFF;" d="M515.6966,16.1124v-1.6172h1.4102v1.6172H515.6966z M515.7952,28.6339V18.5382h1.2129v10.0957
				H515.7952z"/>
			<path style="fill:#FFFFFF;" d="M526.3489,27.0167c-0.1543,0.3613-0.3662,0.6777-0.6357,0.9463
				c-0.2695,0.2705-0.585,0.4824-0.9463,0.6367s-0.7461,0.2314-1.1533,0.2314h-0.8086c-0.4082,0-0.792-0.0771-1.1543-0.2314
				c-0.3613-0.1543-0.6768-0.3662-0.9463-0.6367c-0.2695-0.2686-0.4814-0.585-0.6357-0.9463s-0.2314-0.7461-0.2314-1.1533v-4.5547
				c0-0.4082,0.0771-0.792,0.2314-1.1543c0.1543-0.3613,0.3662-0.6768,0.6357-0.9463s0.585-0.4814,0.9463-0.6357
				c0.3623-0.1543,0.7461-0.2314,1.1543-0.2314h0.8086c0.4072,0,0.792,0.0771,1.1533,0.2314s0.6768,0.3662,0.9463,0.6357
				s0.4814,0.585,0.6357,0.9463c0.1543,0.3623,0.2324,0.7461,0.2324,1.1543v4.5547
				C526.5814,26.2706,526.5032,26.6554,526.3489,27.0167z M525.3685,21.2394c0-0.2432-0.0459-0.4717-0.1387-0.6855
				c-0.0918-0.2129-0.2168-0.3994-0.374-0.5566c-0.1582-0.1582-0.3438-0.2822-0.5576-0.375
				c-0.2139-0.0918-0.4414-0.1377-0.6846-0.1377h-0.8086c-0.2432,0-0.4717,0.0459-0.6855,0.1377
				c-0.2139,0.0928-0.3994,0.2168-0.5566,0.375c-0.1582,0.1572-0.2832,0.3438-0.375,0.5566
				c-0.0918,0.2139-0.1377,0.4424-0.1377,0.6855v4.6934c0,0.2432,0.0459,0.4717,0.1377,0.6846
				c0.0918,0.2139,0.2168,0.3994,0.375,0.5576c0.1572,0.1572,0.3428,0.2822,0.5566,0.374c0.2139,0.0928,0.4424,0.1387,0.6855,0.1387
				h0.8086c0.2432,0,0.4707-0.0459,0.6846-0.1387c0.2139-0.0918,0.3994-0.2168,0.5576-0.374
				c0.1572-0.1582,0.2822-0.3438,0.374-0.5576c0.0928-0.2129,0.1387-0.4414,0.1387-0.6846V21.2394z"/>
		</g>
	</g>
</g>
</svg>
