<?xml version="1.0" encoding="utf-8"?>
<!-- Generator: Adobe Illustrator 21.0.2, SVG Export Plug-In . SVG Version: 6.00 Build 0)  -->
<svg version="1.1" id="Capa_1" xmlns="http://www.w3.org/2000/svg" xmlns:xlink="http://www.w3.org/1999/xlink" x="0px" y="0px"
	 viewBox="0 0 265 51.576" style="enable-background:new 0 0 265 51.576;" xml:space="preserve">
<g>
	<g id="XMLID_5581_">
		<polygon id="XMLID_5582_" style="fill:#A03628;" points="243.1899,0.5001 265,25.7881 243.1899,51.076 223.3365,51.076 
			245.1466,25.7881 223.3365,0.5001 198.1899,0.5001 		"/>
	</g>
	<g id="XMLID_5578_">
		<polygon id="XMLID_5579_" style="fill:#A03628;" points="21.8101,51.0759 0,25.7879 21.8101,0.5 41.6635,0.5 19.8534,25.7879 
			41.6635,51.0759 21.8101,51.0759 		"/>
	</g>
	<polygon id="XMLID_5576_" style="fill:#C9452F;stroke:#C9452F;stroke-miterlimit:10;" points="47.671,0.5 217.329,0.5001 
		239.1391,25.7881 217.329,51.076 47.671,51.0759 25.8609,25.7879 	"/>
	<g>
		<g>
			<path style="fill:#FFFFFF;" d="M76.79,23.3784V8.3296h6.3955c1.6074,0,2.7764,0.1348,3.5049,0.4053
				c0.7295,0.2705,1.3125,0.751,1.751,1.4424c0.4375,0.6914,0.6572,1.4814,0.6572,2.3711c0,1.1289-0.332,2.0615-0.9961,2.7969
				c-0.6641,0.7363-1.6563,1.1992-2.9775,1.3916c0.6572,0.3838,1.1992,0.8037,1.6279,1.2627
				c0.4268,0.459,1.0039,1.2734,1.7295,2.4434l1.8369,2.9355h-3.6338l-2.1963-3.2754c-0.7803-1.1699-1.3145-1.9063-1.6016-2.2109
				c-0.2881-0.3047-0.5918-0.5137-0.9141-0.627c-0.3213-0.1133-0.8311-0.1699-1.5293-0.1699h-0.6162v6.2832H76.79z M79.8281,14.6938
				h2.248c1.458,0,2.3682-0.0615,2.7314-0.1846c0.3623-0.123,0.6465-0.3359,0.8516-0.6367s0.3076-0.6777,0.3076-1.1289
				c0-0.5068-0.1348-0.916-0.4053-1.2266c-0.2705-0.3125-0.6514-0.5088-1.1445-0.5908c-0.2461-0.0342-0.9854-0.0518-2.2168-0.0518
				h-2.3721V14.6938z"/>
			<path style="fill:#FFFFFF;" d="M98.2548,19.9087l2.874,0.4824c-0.3691,1.0537-0.9531,1.8564-1.75,2.4072
				s-1.7949,0.8262-2.9922,0.8262c-1.8955,0-3.2988-0.6191-4.209-1.8574c-0.7188-0.9922-1.0781-2.2451-1.0781-3.7578
				c0-1.8066,0.4727-3.2207,1.417-4.2441s2.1387-1.5352,3.583-1.5352c1.6211,0,2.9014,0.5352,3.8389,1.6064
				s1.3857,2.7119,1.3447,4.9229h-7.2266c0.0205,0.8555,0.2529,1.5205,0.6973,1.9961c0.4453,0.4766,1,0.7139,1.6631,0.7139
				c0.4521,0,0.832-0.124,1.1396-0.3701C97.8652,20.853,98.0976,20.4565,98.2548,19.9087z M98.4189,16.9936
				c-0.0205-0.8359-0.2363-1.4697-0.6465-1.9043c-0.4102-0.4355-0.9102-0.6523-1.499-0.6523c-0.6299,0-1.1494,0.2295-1.5605,0.6875
				c-0.4102,0.459-0.6123,1.082-0.6055,1.8691H98.4189z"/>
			<path style="fill:#FFFFFF;" d="M103.3671,24.0971l3.2949,0.4004c0.0547,0.3828,0.1816,0.6465,0.3799,0.79
				c0.2734,0.2061,0.7051,0.3076,1.2939,0.3076c0.752,0,1.3174-0.1123,1.6934-0.3379c0.2529-0.1504,0.4453-0.3945,0.5752-0.7285
				c0.0889-0.2402,0.1328-0.6816,0.1328-1.3242v-1.5918c-0.8623,1.1777-1.9502,1.7656-3.2637,1.7656
				c-1.4648,0-2.625-0.6191-3.4805-1.8574c-0.6709-0.9785-1.0059-2.1973-1.0059-3.6553c0-1.8271,0.4395-3.2236,1.3193-4.1885
				c0.8789-0.9648,1.9727-1.4473,3.2793-1.4473c1.3486,0,2.4609,0.5918,3.3369,1.7754v-1.5293h2.6992v9.7832
				c0,1.2871-0.1055,2.248-0.3184,2.8848c-0.2119,0.6367-0.5098,1.1357-0.8926,1.499c-0.3838,0.3623-0.8945,0.6465-1.5352,0.8525
				c-0.6396,0.2051-1.4492,0.3066-2.4277,0.3066c-1.8477,0-3.1582-0.3164-3.9316-0.9492s-1.1602-1.4355-1.1602-2.4072
				C103.3564,24.3501,103.3603,24.2339,103.3671,24.0971z M105.9433,17.7016c0,1.1572,0.2246,2.0029,0.6729,2.54
				c0.4482,0.5381,1.001,0.8066,1.6582,0.8066c0.7041,0,1.2998-0.2754,1.7861-0.8262c0.4854-0.5508,0.7285-1.3672,0.7285-2.4492
				c0-1.1289-0.2324-1.9668-0.6982-2.5146c-0.4648-0.5479-1.0537-0.8213-1.7656-0.8213c-0.6914,0-1.2607,0.2695-1.709,0.8066
				S105.9433,16.5991,105.9433,17.7016z"/>
			<path style="fill:#FFFFFF;" d="M116.4755,10.9975v-2.668h2.8848v2.668H116.4755z M116.4755,23.3784V12.4761h2.8848v10.9023
				H116.4755z"/>
			<path style="fill:#FFFFFF;" d="M121.3017,20.268l2.8945-0.4414c0.123,0.5615,0.373,0.9873,0.749,1.2783
				c0.377,0.291,0.9033,0.4355,1.5811,0.4355c0.7461,0,1.3076-0.1367,1.6836-0.4102c0.2529-0.1914,0.3799-0.4482,0.3799-0.7695
				c0-0.2188-0.0684-0.4004-0.2051-0.5449c-0.1436-0.1367-0.4658-0.2637-0.9648-0.3789c-2.3271-0.5137-3.8018-0.9824-4.4248-1.4063
				c-0.8623-0.5898-1.293-1.4072-1.293-2.4541c0-0.9443,0.3721-1.7383,1.1182-2.3818c0.7461-0.6426,1.9023-0.9648,3.4697-0.9648
				c1.4922,0,2.6006,0.2432,3.3262,0.7285c0.7256,0.4863,1.2256,1.2051,1.499,2.1563l-2.7207,0.5029
				c-0.1162-0.4248-0.3369-0.749-0.6621-0.9756c-0.3252-0.2256-0.7891-0.3379-1.3906-0.3379c-0.7598,0-1.3037,0.1055-1.6318,0.3184
				c-0.2197,0.1504-0.3291,0.3457-0.3291,0.584c0,0.2061,0.0957,0.3809,0.2871,0.5234c0.2607,0.1924,1.1582,0.4629,2.6953,0.8115
				c1.5361,0.3486,2.6084,0.7764,3.2178,1.2832c0.6025,0.5127,0.9033,1.2285,0.9033,2.1455c0,1-0.417,1.8574-1.252,2.5762
				s-2.0703,1.0781-3.7061,1.0781c-1.4854,0-2.6602-0.3008-3.5264-0.9033C122.1347,22.1186,121.5683,21.3013,121.3017,20.268z"/>
			<path style="fill:#FFFFFF;" d="M139.0097,12.4761v2.2998h-1.9717v4.3936c0,0.8896,0.0186,1.4082,0.0566,1.5547
				c0.0371,0.1484,0.123,0.2695,0.2568,0.3652s0.2959,0.1436,0.4873,0.1436c0.2666,0,0.6533-0.0928,1.1602-0.2773l0.2461,2.2383
				c-0.6709,0.2871-1.4297,0.4307-2.2783,0.4307c-0.5205,0-0.9893-0.0869-1.4063-0.2617c-0.418-0.1738-0.7246-0.4004-0.9189-0.6777
				c-0.1953-0.2773-0.3301-0.6514-0.4053-1.123c-0.0625-0.3359-0.0928-1.0137-0.0928-2.0332v-4.7529h-1.3242v-2.2998h1.3242V10.31
				l2.8945-1.6836v3.8496H139.0097z"/>
			<path style="fill:#FFFFFF;" d="M143.7724,23.3784h-2.8848V12.4761h2.6797v1.5508c0.458-0.7324,0.8701-1.2148,1.2363-1.4473
				s0.7822-0.3496,1.248-0.3496c0.6563,0,1.2891,0.1816,1.8984,0.5439l-0.8926,2.5146c-0.4863-0.3145-0.9375-0.4717-1.3555-0.4717
				c-0.4033,0-0.7461,0.1113-1.0264,0.333c-0.2803,0.2227-0.501,0.625-0.6621,1.207c-0.1611,0.582-0.2412,1.7998-0.2412,3.6543
				V23.3784z"/>
			<path style="fill:#FFFFFF;" d="M148.5253,17.7729c0-0.957,0.2363-1.8848,0.708-2.7812c0.4727-0.8965,1.1416-1.5811,2.0068-2.0527
				c0.8662-0.4727,1.833-0.709,2.9004-0.709c1.6494,0,3.001,0.5352,4.0547,1.6064s1.5811,2.4248,1.5811,4.0596
				c0,1.6504-0.5322,3.0176-1.5967,4.1016c-1.0635,1.085-2.4033,1.627-4.0186,1.627c-0.999,0-1.9521-0.2256-2.8594-0.6777
				c-0.9063-0.4512-1.5957-1.1133-2.0684-1.9863C148.7617,20.0884,148.5253,19.0259,148.5253,17.7729z M151.4814,17.9272
				c0,1.082,0.2568,1.9102,0.7705,2.4844c0.5127,0.5742,1.1455,0.8623,1.8984,0.8623s1.3848-0.2881,1.8945-0.8623
				s0.7646-1.4102,0.7646-2.5049c0-1.0674-0.2549-1.8887-0.7646-2.4639c-0.5098-0.5742-1.1416-0.8613-1.8945-0.8613
				s-1.3857,0.2871-1.8984,0.8613C151.7382,16.018,151.4814,16.8462,151.4814,17.9272z"/>
			<path style="fill:#FFFFFF;" d="M161.0185,20.268l2.8945-0.4414c0.123,0.5615,0.373,0.9873,0.749,1.2783
				c0.377,0.291,0.9033,0.4355,1.5811,0.4355c0.7461,0,1.3076-0.1367,1.6836-0.4102c0.2529-0.1914,0.3799-0.4482,0.3799-0.7695
				c0-0.2188-0.0684-0.4004-0.2051-0.5449c-0.1436-0.1367-0.4658-0.2637-0.9648-0.3789c-2.3271-0.5137-3.8018-0.9824-4.4248-1.4063
				c-0.8623-0.5898-1.293-1.4072-1.293-2.4541c0-0.9443,0.3721-1.7383,1.1182-2.3818c0.7461-0.6426,1.9023-0.9648,3.4697-0.9648
				c1.4922,0,2.6006,0.2432,3.3262,0.7285c0.7256,0.4863,1.2256,1.2051,1.499,2.1563l-2.7207,0.5029
				c-0.1162-0.4248-0.3369-0.749-0.6621-0.9756c-0.3252-0.2256-0.7891-0.3379-1.3906-0.3379c-0.7598,0-1.3037,0.1055-1.6318,0.3184
				c-0.2197,0.1504-0.3291,0.3457-0.3291,0.584c0,0.2061,0.0957,0.3809,0.2871,0.5234c0.2607,0.1924,1.1582,0.4629,2.6953,0.8115
				c1.5361,0.3486,2.6084,0.7764,3.2178,1.2832c0.6025,0.5127,0.9033,1.2285,0.9033,2.1455c0,1-0.417,1.8574-1.252,2.5762
				s-2.0703,1.0781-3.7061,1.0781c-1.4854,0-2.6602-0.3008-3.5264-0.9033C161.8515,22.1186,161.2851,21.3013,161.0185,20.268z"/>
			<path style="fill:#FFFFFF;" d="M178.2021,12.4761h3.0693l2.6074,7.7402l2.5459-7.7402h2.9873l-3.8496,10.4922l-0.6875,1.8984
				c-0.2529,0.6367-0.4941,1.123-0.7236,1.458s-0.4932,0.6064-0.791,0.8154c-0.2969,0.209-0.6631,0.3711-1.0977,0.4883
				c-0.4355,0.1162-0.9258,0.1738-1.4736,0.1738c-0.5537,0-1.0986-0.0576-1.6318-0.1738l-0.2568-2.2578
				c0.4512,0.0879,0.8584,0.1328,1.2217,0.1328c0.6709,0,1.167-0.1973,1.4883-0.5898c0.3213-0.3945,0.5684-0.8955,0.7393-1.5039
				L178.2021,12.4761z"/>
			<path style="fill:#FFFFFF;" d="M74.9218,32.4761h1.6016v-0.8203c0-0.918,0.0977-1.6016,0.293-2.0537
				c0.1943-0.4521,0.5537-0.8193,1.0771-1.1035c0.5244-0.2842,1.1865-0.4258,1.9873-0.4258c0.8203,0,1.625,0.123,2.4121,0.3691
				l-0.3906,2.0127c-0.458-0.1094-0.8994-0.1641-1.3242-0.1641c-0.417,0-0.7168,0.0967-0.8975,0.292
				c-0.1816,0.1943-0.2725,0.5693-0.2725,1.124v0.7695h2.1553v2.2695h-2.1553v8.6328h-2.8848v-8.6328h-1.6016V32.4761z"/>
			<path style="fill:#FFFFFF;" d="M82.5185,37.7729c0-0.957,0.2363-1.8848,0.708-2.7813c0.4727-0.8965,1.1416-1.5811,2.0068-2.0527
				c0.8662-0.4727,1.833-0.709,2.9004-0.709c1.6494,0,3.001,0.5352,4.0547,1.6064s1.5811,2.4248,1.5811,4.0596
				c0,1.6504-0.5322,3.0176-1.5967,4.1016c-1.0635,1.085-2.4033,1.627-4.0186,1.627c-0.999,0-1.9521-0.2256-2.8594-0.6777
				c-0.9063-0.4512-1.5957-1.1133-2.0684-1.9863C82.7548,40.0884,82.5185,39.0259,82.5185,37.7729z M85.4746,37.9272
				c0,1.082,0.2568,1.9102,0.7705,2.4844c0.5127,0.5742,1.1455,0.8623,1.8984,0.8623s1.3848-0.2881,1.8945-0.8623
				s0.7646-1.4102,0.7646-2.5049c0-1.0674-0.2549-1.8887-0.7646-2.4639c-0.5098-0.5742-1.1416-0.8613-1.8945-0.8613
				s-1.3857,0.2871-1.8984,0.8613C85.7314,36.018,85.4746,36.8462,85.4746,37.9272z"/>
			<path style="fill:#FFFFFF;" d="M98.789,43.3784h-2.8848V32.4761h2.6797v1.5508c0.458-0.7324,0.8701-1.2148,1.2363-1.4473
				s0.7822-0.3496,1.248-0.3496c0.6563,0,1.2891,0.1816,1.8984,0.5439l-0.8926,2.5146c-0.4863-0.3145-0.9375-0.4717-1.3555-0.4717
				c-0.4033,0-0.7461,0.1113-1.0264,0.333c-0.2803,0.2227-0.501,0.625-0.6621,1.207s-0.2412,1.7998-0.2412,3.6543V43.3784z"/>
			<path style="fill:#FFFFFF;" d="M103.9931,32.4761h2.6592v1.4883c0.9512-1.1563,2.084-1.7344,3.3975-1.7344
				c0.6982,0,1.3047,0.1445,1.8174,0.4316c0.5137,0.2871,0.9346,0.7217,1.2627,1.3027c0.4785-0.5811,0.9961-1.0156,1.5498-1.3027
				c0.5547-0.2871,1.1465-0.4316,1.7764-0.4316c0.8008,0,1.4785,0.1621,2.0322,0.4883c0.5547,0.3242,0.9688,0.8018,1.2422,1.4316
				c0.1982,0.4648,0.2979,1.2188,0.2979,2.2578v6.9707h-2.8848v-6.2305c0-1.082-0.0986-1.7793-0.2979-2.0947
				c-0.2666-0.4111-0.6768-0.6162-1.2314-0.6162c-0.4043,0-0.7842,0.123-1.1396,0.3691c-0.3555,0.2471-0.6123,0.6074-0.7695,1.084
				c-0.1582,0.4756-0.2363,1.2266-0.2363,2.2529v5.2354h-2.8848v-5.9746c0-1.0605-0.0508-1.7451-0.1543-2.0527
				c-0.1025-0.3086-0.2617-0.5371-0.4766-0.6875c-0.2158-0.1504-0.5088-0.2266-0.8779-0.2266c-0.4453,0-0.8457,0.1201-1.2012,0.3594
				c-0.3555,0.2402-0.6104,0.5859-0.7646,1.0371s-0.2314,1.2012-0.2314,2.248v5.2969h-2.8848V32.4761z"/>
			<path style="fill:#FFFFFF;" d="M130.0781,43.3784v-1.6328c-0.3965,0.582-0.9189,1.041-1.5654,1.376s-1.3291,0.5029-2.0479,0.5029
				c-0.7324,0-1.3896-0.1602-1.9707-0.4824c-0.582-0.3213-1.0029-0.7734-1.2627-1.3555c-0.2607-0.5811-0.3906-1.3848-0.3906-2.4121
				v-6.8984h2.8848v5.0098c0,1.5332,0.0527,2.4727,0.1592,2.8184s0.2988,0.6191,0.5801,0.8203
				c0.2803,0.2031,0.6367,0.3027,1.0674,0.3027c0.4932,0,0.9346-0.1348,1.3242-0.4043c0.3906-0.2705,0.6572-0.6055,0.8008-1.0059
				s0.2158-1.3809,0.2158-2.9414v-4.5996h2.8848v10.9023H130.0781z"/>
			<path style="fill:#FFFFFF;" d="M135.7451,43.3784V28.3296h2.8848v15.0488H135.7451z"/>
			<path style="fill:#FFFFFF;" d="M143.7421,35.8022l-2.6182-0.4727c0.2939-1.0527,0.8008-1.834,1.5195-2.3398
				s1.7861-0.7598,3.2031-0.7598c1.2861,0,2.2441,0.1523,2.874,0.457s1.0723,0.6914,1.3291,1.1602s0.3848,1.3291,0.3848,2.582
				l-0.0303,3.3672c0,0.957,0.0459,1.6641,0.1387,2.1191c0.0918,0.4551,0.2646,0.9434,0.5186,1.4629h-2.8545
				c-0.0752-0.1914-0.167-0.4756-0.2764-0.8516c-0.0488-0.1719-0.083-0.2842-0.1035-0.3398
				c-0.4922,0.4795-1.0195,0.8389-1.5801,1.0781c-0.5615,0.2402-1.1602,0.3594-1.7969,0.3594c-1.1221,0-2.0068-0.3047-2.6533-0.9141
				c-0.6475-0.6084-0.9707-1.3789-0.9707-2.3086c0-0.6162,0.1475-1.166,0.4414-1.6484c0.2949-0.4824,0.707-0.8516,1.2373-1.1084
				s1.2949-0.4805,2.2939-0.6729c1.3486-0.252,2.2832-0.4883,2.8027-0.707V35.977c0-0.5537-0.1367-0.9502-0.4102-1.1855
				c-0.2744-0.2363-0.791-0.3545-1.5508-0.3545c-0.5127,0-0.9131,0.1016-1.2002,0.3027
				C144.1523,34.9419,143.9199,35.2964,143.7421,35.8022z M147.6015,38.143c-0.3691,0.123-0.9541,0.2705-1.7549,0.4414
				s-1.3242,0.3389-1.5713,0.5029c-0.376,0.2676-0.5645,0.6055-0.5645,1.0156c0,0.4043,0.1504,0.7539,0.4521,1.0479
				c0.3008,0.2939,0.6836,0.4414,1.1494,0.4414c0.5205,0,1.0166-0.1709,1.4883-0.5127c0.3496-0.2607,0.5781-0.5791,0.6885-0.9551
				c0.0752-0.2461,0.1123-0.7148,0.1123-1.4063V38.143z"/>
			<path style="fill:#FFFFFF;" d="M156.04,43.3784h-2.8848V32.4761h2.6797v1.5508c0.458-0.7324,0.8701-1.2148,1.2363-1.4473
				s0.7822-0.3496,1.248-0.3496c0.6563,0,1.2891,0.1816,1.8984,0.5439l-0.8926,2.5146c-0.4863-0.3145-0.9375-0.4717-1.3555-0.4717
				c-0.4033,0-0.7461,0.1113-1.0264,0.333c-0.2803,0.2227-0.501,0.625-0.6621,1.207s-0.2412,1.7998-0.2412,3.6543V43.3784z"/>
			<path style="fill:#FFFFFF;" d="M161.4599,30.9975v-2.668h2.8848v2.668H161.4599z M161.4599,43.3784V32.4761h2.8848v10.9023
				H161.4599z"/>
			<path style="fill:#FFFFFF;" d="M166.6337,37.7729c0-0.957,0.2363-1.8848,0.708-2.7813c0.4727-0.8965,1.1416-1.5811,2.0068-2.0527
				c0.8662-0.4727,1.833-0.709,2.9004-0.709c1.6494,0,3.001,0.5352,4.0547,1.6064s1.5811,2.4248,1.5811,4.0596
				c0,1.6504-0.5322,3.0176-1.5967,4.1016c-1.0635,1.085-2.4033,1.627-4.0186,1.627c-0.999,0-1.9521-0.2256-2.8594-0.6777
				c-0.9063-0.4512-1.5957-1.1133-2.0684-1.9863C166.8701,40.0884,166.6337,39.0259,166.6337,37.7729z M169.5898,37.9272
				c0,1.082,0.2568,1.9102,0.7705,2.4844c0.5127,0.5742,1.1455,0.8623,1.8984,0.8623s1.3848-0.2881,1.8945-0.8623
				s0.7646-1.4102,0.7646-2.5049c0-1.0674-0.2549-1.8887-0.7646-2.4639c-0.5098-0.5742-1.1416-0.8613-1.8945-0.8613
				s-1.3857,0.2871-1.8984,0.8613C169.8466,36.018,169.5898,36.8462,169.5898,37.9272z"/>
			<path style="fill:#FFFFFF;" d="M179.1279,40.268l2.8945-0.4414c0.123,0.5615,0.373,0.9873,0.749,1.2783
				c0.377,0.291,0.9033,0.4355,1.5811,0.4355c0.7461,0,1.3076-0.1367,1.6836-0.4102c0.2529-0.1914,0.3799-0.4482,0.3799-0.7695
				c0-0.2188-0.0684-0.4004-0.2051-0.5449c-0.1436-0.1367-0.4658-0.2637-0.9648-0.3789c-2.3271-0.5137-3.8018-0.9824-4.4248-1.4063
				c-0.8623-0.5898-1.293-1.4072-1.293-2.4541c0-0.9443,0.3721-1.7383,1.1182-2.3818c0.7461-0.6426,1.9023-0.9648,3.4697-0.9648
				c1.4922,0,2.6006,0.2432,3.3262,0.7285c0.7256,0.4863,1.2256,1.2051,1.499,2.1563l-2.7207,0.5029
				c-0.1162-0.4248-0.3369-0.749-0.6621-0.9756c-0.3252-0.2256-0.7891-0.3379-1.3906-0.3379c-0.7598,0-1.3037,0.1055-1.6318,0.3184
				c-0.2197,0.1504-0.3291,0.3457-0.3291,0.584c0,0.2061,0.0957,0.3809,0.2871,0.5234c0.2607,0.1924,1.1582,0.4629,2.6953,0.8115
				c1.5361,0.3486,2.6084,0.7764,3.2178,1.2832c0.6025,0.5127,0.9033,1.2285,0.9033,2.1455c0,1-0.417,1.8574-1.252,2.5762
				s-2.0703,1.0781-3.7061,1.0781c-1.4854,0-2.6602-0.3008-3.5264-0.9033C179.9609,42.1186,179.3945,41.3013,179.1279,40.268z"/>
		</g>
	</g>
</g>
</svg>
