<?xml version="1.0" encoding="utf-8"?>
<!-- Generator: Adobe Illustrator 21.0.2, SVG Export Plug-In . SVG Version: 6.00 Build 0)  -->
<svg version="1.1" id="Capa_1" xmlns="http://www.w3.org/2000/svg" xmlns:xlink="http://www.w3.org/1999/xlink" x="0px" y="0px"
	 viewBox="0 0 16.0876 16.7134" style="enable-background:new 0 0 16.0876 16.7134;" xml:space="preserve">
<g>
	<path style="fill:#FFFFFF;" d="M12.6869,16.7134H3.4007C1.5226,16.7134,0,15.1909,0,13.3127v-9.912C0,1.5226,1.5226,0,3.4007,0
		h9.2862c1.8782,0,3.4007,1.5226,3.4007,3.4007v9.912C16.0876,15.1909,14.5651,16.7134,12.6869,16.7134z"/>
	<g>
		<path style="fill:#348EA9;" d="M4.8735,3.1564c0.6127,0,1.1091-0.497,1.1091-1.1085c0-0.6114-0.4964-1.1075-1.1091-1.1075
			c-0.6112,0-1.1067,0.4961-1.1067,1.1075C3.7668,2.6595,4.2623,3.1564,4.8735,3.1564z M7.4054,4.5791
			c0-0.5585-0.4528-1.0106-1.0106-1.0106H3.2816c-0.5569,0-1.0095,0.4521-1.0095,1.0106l0.0031,4.0787
			c0,0.2439,0.1974,0.4416,0.4407,0.4416c0.2433,0,0.4407-0.1977,0.4407-0.4416V4.9299h0.1866v9.9706
			c0,0.365,0.296,0.6608,0.6621,0.6608c0.3637,0,0.6596-0.2958,0.6596-0.6608V9.441h0.3614v5.4579
			c0,0.3659,0.296,0.6624,0.6621,0.6624c0.3639,0,0.6599-0.2965,0.6599-0.6624v-9.969h0.1778v3.713
			c0,0.2442,0.1973,0.4423,0.4412,0.4423c0.2442,0,0.4416-0.198,0.4416-0.4423L7.4054,4.5791z"/>
	</g>
	<g>
		<path style="fill:#53BB9B;" d="M11.2533,3.1564c0.6128,0,1.1093-0.497,1.1093-1.1085c0-0.6114-0.4964-1.1075-1.1093-1.1075
			c-0.611,0-1.1065,0.4961-1.1065,1.1075C10.1468,2.6595,10.6423,3.1564,11.2533,3.1564z M13.7854,4.5791
			c0-0.5585-0.4528-1.0106-1.0106-1.0106H9.6616c-0.5569,0-1.0097,0.4521-1.0097,1.0106l0.0033,4.0787
			c0,0.2439,0.1973,0.4416,0.4406,0.4416c0.2433,0,0.4407-0.1977,0.4407-0.4416V4.9299h0.1866v9.9706
			c0,0.365,0.296,0.6608,0.6621,0.6608c0.3637,0,0.6595-0.2958,0.6595-0.6608V9.441h0.3614v5.4579
			c0,0.3659,0.296,0.6624,0.6621,0.6624c0.3639,0,0.6599-0.2965,0.6599-0.6624v-9.969h0.1778v3.713
			c0,0.2442,0.1973,0.4423,0.4412,0.4423c0.2442,0,0.4416-0.198,0.4416-0.4423L13.7854,4.5791z"/>
	</g>
</g>
</svg>
