<?xml version="1.0" encoding="utf-8"?>
<!-- Generator: Adobe Illustrator 21.0.2, SVG Export Plug-In . SVG Version: 6.00 Build 0)  -->
<svg version="1.1" id="Capa_1" xmlns="http://www.w3.org/2000/svg" xmlns:xlink="http://www.w3.org/1999/xlink" x="0px" y="0px"
	 viewBox="0 0 181.9844 99.199" style="enable-background:new 0 0 181.9844 99.199;" xml:space="preserve">
<g>
	<g>
		<polygon style="fill:#7C7B79;" points="11.9106,83.1919 0,19.9576 173.2582,12.0672 162.9656,86.286 135.6276,86.286 
			151.7646,91.0274 100.8169,99.199 124.1012,87.1009 		"/>
		<g>
			<g>
				<path style="fill:#FFFFFF;" d="M31.0567,29.7019h7.7656c1.7515,0,3.0864,0.1348,4.0049,0.4023
					c1.2349,0.3633,2.292,1.0098,3.1724,1.9375c0.8804,0.9287,1.5503,2.0654,2.0098,3.4092c0.4595,1.3447,0.689,3.0029,0.689,4.9746
					c0,1.7314-0.2153,3.2246-0.646,4.4785c-0.5264,1.5313-1.2773,2.7705-2.2534,3.7178c-0.7373,0.7178-1.7324,1.2773-2.9858,1.6797
					c-0.938,0.2959-2.1914,0.4443-3.7607,0.4443h-7.9956V29.7019z M35.3057,33.2625V47.201h3.1724
					c1.1865,0,2.043-0.0674,2.5693-0.2012c0.689-0.1729,1.2607-0.4639,1.7153-0.876c0.4546-0.4111,0.8257-1.0879,1.1128-2.0313
					c0.2866-0.9424,0.4302-2.2266,0.4302-3.8535s-0.1436-2.876-0.4302-3.7471c-0.2871-0.8711-0.6895-1.5498-1.2061-2.0381
					s-1.1724-0.8184-1.9663-0.9902c-0.5938-0.1348-1.7563-0.2012-3.4883-0.2012H35.3057z"/>
				<path style="fill:#FFFFFF;" d="M52.273,33.4344v-3.7324h4.0332v3.7324H52.273z M52.273,50.7459V35.5017h4.0332v15.2441H52.273z"
					/>
				<path style="fill:#FFFFFF;" d="M59.0191,46.3963l4.0479-0.6172c0.1724,0.7852,0.5215,1.3809,1.0479,1.7871
					c0.5264,0.4072,1.2637,0.6104,2.2109,0.6104c1.043,0,1.8276-0.1914,2.354-0.5742c0.354-0.2676,0.5313-0.627,0.5313-1.0762
					c0-0.3066-0.0957-0.5605-0.2871-0.7607c-0.2012-0.1914-0.6509-0.3682-1.3496-0.5313c-3.2534-0.7178-5.3159-1.373-6.1865-1.9668
					c-1.2061-0.8232-1.8086-1.9668-1.8086-3.4307c0-1.3203,0.5215-2.4307,1.5645-3.3301s2.6602-1.3496,4.8521-1.3496
					c2.0859,0,3.6362,0.3398,4.6509,1.0195c1.0142,0.6797,1.7129,1.6846,2.0957,3.0137l-3.8042,0.7041
					c-0.1626-0.5938-0.4712-1.0479-0.9258-1.3643c-0.4546-0.3154-1.103-0.4736-1.9448-0.4736c-1.0625,0-1.8232,0.1484-2.2827,0.4453
					c-0.3062,0.2109-0.459,0.4834-0.459,0.8184c0,0.2871,0.1338,0.5313,0.4019,0.7314c0.3633,0.2686,1.6196,0.6465,3.7681,1.1348
					c2.1479,0.4873,3.6479,1.0859,4.5,1.7939c0.8418,0.7178,1.2632,1.7178,1.2632,3c0,1.3975-0.584,2.5986-1.751,3.6035
					c-1.168,1.0049-2.895,1.5068-5.1821,1.5068c-2.0767,0-3.7202-0.4209-4.9307-1.2627
					C60.1841,48.9851,59.3921,47.8416,59.0191,46.3963z"/>
				<path style="fill:#FFFFFF;" d="M85.6182,45.8943l4.0195,0.6748c-0.5166,1.4736-1.333,2.5957-2.4473,3.3662
					c-1.1152,0.7705-2.5103,1.1553-4.1846,1.1553c-2.6509,0-4.6128-0.8662-5.8853-2.5986
					c-1.0049-1.3867-1.5073-3.1387-1.5073-5.2529c0-2.5264,0.6602-4.5049,1.981-5.9355c1.3203-1.4307,2.9902-2.1465,5.0098-2.1465
					c2.2681,0,4.0571,0.749,5.3687,2.2461c1.311,1.498,1.9375,3.793,1.8804,6.8838H79.7476c0.0283,1.1963,0.3535,2.127,0.9761,2.792
					c0.6216,0.665,1.397,0.9971,2.3252,0.9971c0.6318,0,1.1626-0.1719,1.5933-0.5166S85.398,46.6599,85.6182,45.8943z
					 M85.8482,41.8172c-0.0288-1.167-0.3301-2.0547-0.9043-2.6621s-1.2729-0.9121-2.0957-0.9121
					c-0.8809,0-1.6079,0.3213-2.1821,0.9619c-0.5742,0.6416-0.8564,1.5127-0.8467,2.6123H85.8482z"/>
				<path style="fill:#FFFFFF;" d="M107.0069,50.7459h-4.0337v-7.7803c0-1.6455-0.0859-2.71-0.2583-3.1934
					s-0.4521-0.8594-0.8398-1.127c-0.3872-0.2676-0.854-0.4023-1.3994-0.4023c-0.6987,0-1.3257,0.1914-1.8804,0.5742
					c-0.5552,0.3828-0.9355,0.8906-1.1411,1.5215c-0.2061,0.6318-0.3086,1.7998-0.3086,3.5029v6.9043h-4.0337V35.5017h3.7466v2.2393
					c1.3301-1.7227,3.0049-2.584,5.0239-2.584c0.8901,0,1.7031,0.1602,2.4404,0.4805c0.7368,0.3213,1.2939,0.7305,1.6724,1.2275
					c0.3779,0.498,0.6406,1.0625,0.7896,1.6943c0.1479,0.6309,0.2222,1.5361,0.2222,2.7129V50.7459z M96.9444,33.449h-1.8374
					c-0.0098-0.2197-0.0142-0.3926-0.0142-0.5166c0-1.0049,0.2437-1.7773,0.7319-2.3184s1.1147-0.8115,1.8804-0.8115
					c0.335,0,0.646,0.0361,0.9331,0.1084c0.2871,0.0713,0.811,0.2773,1.5718,0.6172s1.3564,0.5088,1.7871,0.5088
					c0.3062,0,0.562-0.0947,0.7681-0.2871c0.2056-0.1914,0.3374-0.5117,0.3945-0.9609h1.8662
					c-0.0098,1.291-0.251,2.2148-0.7246,2.7695c-0.4741,0.5557-1.084,0.833-1.8306,0.833c-0.3252,0-0.646-0.0332-0.9614-0.1006
					c-0.2202-0.0576-0.7705-0.2529-1.6509-0.5889c-0.8809-0.334-1.5215-0.502-1.9233-0.502c-0.3066,0-0.5459,0.0938-0.7178,0.2803
					C97.0449,32.6668,96.9536,32.989,96.9444,33.449z"/>
				<path style="fill:#FFFFFF;" d="M110.1651,42.909c0-1.3398,0.3301-2.6367,0.9902-3.8906s1.5957-2.2109,2.8062-2.8711
					c1.2109-0.6602,2.5625-0.9902,4.0552-0.9902c2.3062,0,4.1963,0.749,5.6704,2.2461c1.4736,1.498,2.2104,3.3906,2.2104,5.6777
					c0,2.3066-0.7441,4.2178-2.2319,5.7344c-1.4883,1.5176-3.3618,2.2754-5.6201,2.2754c-1.397,0-2.7295-0.3154-3.9976-0.9473
					s-2.2324-1.5576-2.8926-2.7773C110.4951,46.1453,110.1651,44.6599,110.1651,42.909z M114.2988,43.1238
					c0,1.5117,0.3589,2.6699,1.0767,3.4736s1.603,1.2061,2.6558,1.2061s1.9355-0.4023,2.6484-1.2061s1.0693-1.9707,1.0693-3.502
					c0-1.4932-0.3564-2.6416-1.0693-3.4453s-1.5957-1.2061-2.6484-1.2061s-1.938,0.4023-2.6558,1.2061
					S114.2988,41.6121,114.2988,43.1238z"/>
				<path style="fill:#FFFFFF;" d="M32.2974,71.9129h-2.3975v-1.4336c-0.3984,0.5576-0.8682,0.9727-1.4102,1.2451
					s-1.0889,0.4092-1.6401,0.4092c-1.1206,0-2.0806-0.4521-2.8799-1.3555s-1.1992-2.1641-1.1992-3.7803
					c0-1.6543,0.3892-2.9111,1.167-3.7715s1.7607-1.291,2.9492-1.291c1.0898,0,2.0332,0.4531,2.8291,1.3604v-4.8516h2.5815V71.9129z
					 M25.4072,66.823c0,1.041,0.144,1.7949,0.4321,2.2598c0.416,0.6738,0.998,1.0107,1.7451,1.0107
					c0.5942,0,1.0996-0.2529,1.5161-0.7578s0.6245-1.2598,0.6245-2.2646c0-1.1211-0.2021-1.9277-0.606-2.4209
					c-0.4043-0.4932-0.9219-0.7393-1.5527-0.7393c-0.6128,0-1.1255,0.2432-1.5391,0.7305
					C25.6143,65.1277,25.4072,65.8553,25.4072,66.823z"/>
				<path style="fill:#FFFFFF;" d="M40.4922,68.8074l2.5723,0.4316c-0.3306,0.9434-0.853,1.6611-1.5664,2.1543
					s-1.6064,0.7402-2.6777,0.7402c-1.6968,0-2.9521-0.5547-3.7666-1.6631c-0.6436-0.8887-0.9648-2.0088-0.9648-3.3623
					c0-1.6172,0.4224-2.8838,1.2676-3.7988c0.8452-0.916,1.9141-1.374,3.2065-1.374c1.4517,0,2.5967,0.4795,3.436,1.4385
					c0.8389,0.958,1.2402,2.4268,1.2031,4.4043h-6.4673c0.0181,0.7656,0.2266,1.3613,0.6245,1.7871s0.894,0.6387,1.4883,0.6387
					c0.4043,0,0.7441-0.1104,1.02-0.3311C40.1431,69.6531,40.3511,69.2976,40.4922,68.8074z M40.6392,66.198
					c-0.0186-0.7471-0.2114-1.3145-0.5786-1.7041c-0.3677-0.3887-0.8149-0.583-1.3413-0.583c-0.564,0-1.0293,0.2051-1.3965,0.6152
					c-0.3677,0.4102-0.5483,0.9678-0.542,1.6719H40.6392z"/>
				<path style="fill:#FFFFFF;" d="M50.3408,62.156h2.3794v1.332c0.8511-1.0352,1.8647-1.5527,3.0405-1.5527
					c0.625,0,1.167,0.1289,1.6265,0.3857c0.459,0.2578,0.8359,0.6465,1.1299,1.167c0.4287-0.5205,0.8911-0.9092,1.3872-1.167
					c0.4961-0.2568,1.0259-0.3857,1.5894-0.3857c0.7163,0,1.3228,0.1455,1.8188,0.4365s0.8667,0.7188,1.1118,1.2813
					c0.1772,0.417,0.2661,1.0908,0.2661,2.0215v6.2383h-2.5815v-5.5771c0-0.9668-0.0884-1.5918-0.2661-1.874
					c-0.2388-0.3672-0.6064-0.5508-1.1025-0.5508c-0.3613,0-0.7012,0.1104-1.0195,0.3311c-0.3188,0.2197-0.5483,0.543-0.689,0.9688
					c-0.1411,0.4258-0.2114,1.0977-0.2114,2.0166v4.6855h-2.5815v-5.3467c0-0.9492-0.0459-1.5625-0.1377-1.8379
					c-0.0923-0.2754-0.2344-0.4805-0.4272-0.6152s-0.4551-0.2021-0.7856-0.2021c-0.3979,0-0.7563,0.1074-1.0747,0.3213
					c-0.3188,0.2148-0.5469,0.5234-0.6846,0.9277s-0.2065,1.0752-0.2065,2.0127v4.7402h-2.5815V62.156z"/>
				<path style="fill:#FFFFFF;" d="M73.6846,71.9129v-1.4609c-0.355,0.5205-0.8223,0.9307-1.4009,1.2314
					c-0.5786,0.2998-1.1895,0.4502-1.8325,0.4502c-0.6558,0-1.2437-0.1445-1.7642-0.4326
					c-0.5205-0.2871-0.8975-0.6914-1.1299-1.2119c-0.2329-0.5205-0.3491-1.2402-0.3491-2.1592V62.156h2.5815v4.4834
					c0,1.3721,0.0474,2.2129,0.1421,2.5215c0.0952,0.3096,0.2681,0.5547,0.5195,0.7354c0.251,0.1807,0.5693,0.2705,0.9551,0.2705
					c0.4409,0,0.8359-0.1201,1.1851-0.3623s0.5884-0.542,0.7168-0.9004s0.1929-1.2354,0.1929-2.6318V62.156h2.5815v9.7568H73.6846z"
					/>
				<path style="fill:#FFFFFF;" d="M84.4058,68.8074l2.5723,0.4316c-0.3306,0.9434-0.853,1.6611-1.5664,2.1543
					s-1.6064,0.7402-2.6777,0.7402c-1.6968,0-2.9521-0.5547-3.7666-1.6631c-0.6436-0.8887-0.9648-2.0088-0.9648-3.3623
					c0-1.6172,0.4224-2.8838,1.2676-3.7988c0.8452-0.916,1.9141-1.374,3.2065-1.374c1.4517,0,2.5967,0.4795,3.436,1.4385
					c0.8389,0.958,1.2402,2.4268,1.2031,4.4043h-6.4673c0.0181,0.7656,0.2266,1.3613,0.6245,1.7871s0.894,0.6387,1.4883,0.6387
					c0.4043,0,0.7441-0.1104,1.02-0.3311C84.0567,69.6531,84.2647,69.2976,84.4058,68.8074z M84.5527,66.198
					c-0.0186-0.7471-0.2114-1.3145-0.5786-1.7041c-0.3677-0.3887-0.8149-0.583-1.3413-0.583c-0.564,0-1.0293,0.2051-1.3965,0.6152
					c-0.3677,0.4102-0.5483,0.9678-0.542,1.6719H84.5527z"/>
				<path style="fill:#FFFFFF;" d="M88.3101,69.1287l2.5908-0.3945c0.1104,0.502,0.3335,0.8838,0.6704,1.1436
					c0.3369,0.2607,0.8086,0.3906,1.415,0.3906c0.6675,0,1.1699-0.123,1.5068-0.3672c0.2261-0.1719,0.3398-0.4014,0.3398-0.6895
					c0-0.1963-0.0615-0.3584-0.1841-0.4873c-0.1284-0.1221-0.4165-0.2354-0.8633-0.3398c-2.0825-0.459-3.4023-0.8789-3.9595-1.2588
					c-0.772-0.5264-1.1577-1.2578-1.1577-2.1953c0-0.8447,0.3335-1.5557,1.0015-2.1309c0.6675-0.5762,1.7026-0.8643,3.105-0.8643
					c1.335,0,2.3271,0.2178,2.9766,0.6523c0.6494,0.4355,1.0962,1.0781,1.3413,1.9297l-2.4346,0.4502
					c-0.104-0.3799-0.3018-0.6709-0.5923-0.873c-0.291-0.2021-0.7061-0.3027-1.2451-0.3027c-0.6797,0-1.1665,0.0947-1.4604,0.2842
					c-0.1963,0.1348-0.2939,0.3096-0.2939,0.5234c0,0.1846,0.0854,0.3408,0.2568,0.4688c0.2329,0.1719,1.0366,0.4141,2.4116,0.7256
					c1.375,0.3125,2.335,0.6953,2.8804,1.1484c0.5386,0.46,0.8081,1.0996,0.8081,1.9199c0,0.8945-0.3735,1.6631-1.1206,2.3066
					c-0.7471,0.6426-1.8525,0.9648-3.3164,0.9648c-1.3291,0-2.3809-0.2695-3.1558-0.8086S88.5488,70.0535,88.3101,69.1287z"/>
				<path style="fill:#FFFFFF;" d="M104.1577,62.156v2.0576h-1.7642v3.9326c0,0.7959,0.0171,1.2598,0.0508,1.3916
					c0.0332,0.1318,0.1099,0.2402,0.2295,0.3262s0.2646,0.1289,0.4365,0.1289c0.2388,0,0.5845-0.083,1.0381-0.248l0.2202,2.002
					c-0.6001,0.2578-1.2798,0.3867-2.0396,0.3867c-0.4653,0-0.8848-0.0781-1.2583-0.2344s-0.6479-0.3584-0.8223-0.6064
					c-0.1748-0.248-0.2954-0.584-0.3628-1.0059c-0.0552-0.3008-0.083-0.9063-0.083-1.8193v-4.2539h-1.1851V62.156h1.1851v-1.9385
					l2.5908-1.5068v3.4453H104.1577z"/>
				<path style="fill:#FFFFFF;" d="M108.4204,71.9129h-2.5815V62.156h2.3979v1.3877c0.4102-0.6553,0.7793-1.0879,1.1069-1.2959
					s0.6997-0.3125,1.1162-0.3125c0.5879,0,1.1543,0.1631,1.6997,0.4873l-0.7993,2.251c-0.4351-0.2822-0.8394-0.4229-1.2129-0.4229
					c-0.3613,0-0.6675,0.0996-0.9185,0.2988c-0.2515,0.1992-0.4487,0.5586-0.5928,1.0791s-0.2158,1.6113-0.2158,3.2705V71.9129z"/>
				<path style="fill:#FFFFFF;" d="M118.9214,68.8074l2.5723,0.4316c-0.3306,0.9434-0.853,1.6611-1.5664,2.1543
					s-1.6064,0.7402-2.6777,0.7402c-1.6968,0-2.9521-0.5547-3.7666-1.6631c-0.6436-0.8887-0.9648-2.0088-0.9648-3.3623
					c0-1.6172,0.4224-2.8838,1.2676-3.7988c0.8452-0.916,1.9141-1.374,3.2065-1.374c1.4517,0,2.5967,0.4795,3.436,1.4385
					c0.8389,0.958,1.2402,2.4268,1.2031,4.4043h-6.4673c0.0181,0.7656,0.2266,1.3613,0.6245,1.7871s0.894,0.6387,1.4883,0.6387
					c0.4043,0,0.7441-0.1104,1.02-0.3311C118.5723,69.6531,118.7803,69.2976,118.9214,68.8074z M119.0684,66.198
					c-0.0186-0.7471-0.2114-1.3145-0.5786-1.7041c-0.3677-0.3887-0.8149-0.583-1.3413-0.583c-0.564,0-1.0293,0.2051-1.3965,0.6152
					c-0.3677,0.4102-0.5483,0.9678-0.542,1.6719H119.0684z"/>
				<path style="fill:#FFFFFF;" d="M123.1382,66.8963c0-0.8574,0.2114-1.6865,0.6338-2.4893
					c0.4229-0.8027,1.021-1.415,1.7959-1.8379c0.7749-0.4219,1.6401-0.6338,2.5957-0.6338c1.4756,0,2.6855,0.4795,3.6284,1.4385
					c0.9434,0.958,1.415,2.1689,1.415,3.6328c0,1.4766-0.4766,2.6992-1.4287,3.6699c-0.9521,0.9717-2.1514,1.457-3.5967,1.457
					c-0.894,0-1.7471-0.2021-2.5586-0.6064s-1.4282-0.9971-1.8511-1.7783C123.3496,68.9685,123.1382,68.0174,123.1382,66.8963z
					 M125.7837,67.034c0,0.9678,0.23,1.709,0.6895,2.2236c0.459,0.5146,1.0254,0.7715,1.6992,0.7715s1.2388-0.2568,1.6953-0.7715
					c0.4561-0.5146,0.6841-1.2617,0.6841-2.2412c0-0.9561-0.228-1.6904-0.6841-2.2051c-0.4565-0.5146-1.0215-0.7715-1.6953-0.7715
					s-1.2402,0.2568-1.6992,0.7715C126.0137,65.326,125.7837,66.0672,125.7837,67.034z"/>
			</g>
		</g>
		<g>
			<circle style="fill:#A03628;" cx="155.1213" cy="26.8631" r="26.8631"/>
			<circle style="fill:#E85F43;" cx="155.1213" cy="26.8631" r="22.1089"/>
		</g>
	</g>
	<g id="Cursor_1_">
		<polygon style="fill:#FFCC3B;" points="171.2582,31.0892 157.2728,22.8933 160.4901,17.321 149.5747,17.321 138.6605,17.321 
			144.1185,26.7731 149.5747,36.2265 153.0869,30.1433 167.0258,38.3119 		"/>
		<polygon style="fill:#FFB53E;" points="171.2582,31.0892 157.2728,22.8933 160.4901,17.321 149.5747,17.321 138.6605,17.321 
			138.792,17.5487 169.0659,34.8309 		"/>
	</g>
</g>
</svg>
