<?xml version="1.0" encoding="utf-8"?>
<!-- Generator: Adobe Illustrator 21.0.2, SVG Export Plug-In . SVG Version: 6.00 Build 0)  -->
<svg version="1.1" id="Capa_1" xmlns="http://www.w3.org/2000/svg" xmlns:xlink="http://www.w3.org/1999/xlink" x="0px" y="0px"
	 viewBox="0 0 224 75.3412" style="enable-background:new 0 0 224 75.3412;" xml:space="preserve">
<g>
	<path style="fill:#F2EAD6;" d="M212,75.3412H12c-6.6,0-12-5.4-12-12V12C0,5.4,5.4,0,12,0h200c6.6,0,12,5.4,12,12v51.3412
		C224,69.9412,218.6,75.3412,212,75.3412z"/>
	<g>
		<path d="M12.362,21.3564v-8.2969h1.2656v1.1797c0.6094-0.9111,1.4893-1.3672,2.6406-1.3672c0.5,0,0.96,0.0898,1.3789,0.2695
			s0.7334,0.4155,0.9414,0.707c0.208,0.292,0.3545,0.6382,0.4375,1.0391c0.0518,0.2607,0.0781,0.7163,0.0781,1.3672v5.1016h-1.4063
			v-5.0469c0-0.5728-0.0547-1.001-0.1641-1.2852c-0.1094-0.2837-0.3037-0.5103-0.582-0.6797
			c-0.2783-0.1689-0.6055-0.2539-0.9805-0.2539c-0.5986,0-1.1162,0.1904-1.5508,0.5703c-0.4346,0.3804-0.6523,1.1016-0.6523,2.1641
			v4.5313H12.362z"/>
		<path d="M33.1042,14.622h-7.5625v-1.3125h7.5625V14.622z M33.1042,18.0985h-7.5625V16.786h7.5625V18.0985z"/>
		<path d="M42.1823,24.7235c-0.7764-0.9795-1.4326-2.125-1.9688-3.4375s-0.8047-2.6719-0.8047-4.0781
			c0-1.2393,0.2002-2.4268,0.6016-3.5625c0.4688-1.3174,1.1924-2.6299,2.1719-3.9375h1.0078
			c-0.6299,1.0835-1.0469,1.8569-1.25,2.3203c-0.3174,0.7188-0.5674,1.4688-0.75,2.25c-0.2236,0.9741-0.3359,1.9531-0.3359,2.9375
			c0,2.5054,0.7783,5.0078,2.3359,7.5078H42.1823z"/>
		<path d="M49.2682,24.536V13.0595h1.2813v1.0781c0.3018-0.4219,0.6436-0.7383,1.0234-0.9492s0.8408-0.3164,1.3828-0.3164
			c0.708,0,1.333,0.1826,1.875,0.5469c0.542,0.3647,0.9502,0.8789,1.2266,1.543s0.4141,1.3921,0.4141,2.1836
			c0,0.8491-0.1523,1.6133-0.457,2.293s-0.7471,1.2007-1.3281,1.5625s-1.1914,0.543-1.832,0.543
			c-0.4688,0-0.8896-0.0991-1.2617-0.2969s-0.6787-0.4478-0.918-0.75v4.0391H49.2682z M50.5417,17.2548
			c0,1.0679,0.2158,1.8569,0.6484,2.3672c0.4326,0.5107,0.9561,0.7656,1.5703,0.7656c0.625,0,1.1602-0.2642,1.6055-0.793
			c0.4453-0.5283,0.668-1.3477,0.668-2.457c0-1.0571-0.2178-1.8486-0.6523-2.375c-0.4346-0.5259-0.9541-0.7891-1.5586-0.7891
			c-0.5986,0-1.1289,0.2803-1.5898,0.8398C50.7721,15.3734,50.5417,16.1874,50.5417,17.2548z"/>
		<path d="M60.8542,24.7235c-0.7764-0.9795-1.4326-2.125-1.9688-3.4375s-0.8047-2.6719-0.8047-4.0781
			c0-1.2393,0.2002-2.4268,0.6016-3.5625c0.4688-1.3174,1.1924-2.6299,2.1719-3.9375h1.0078
			c-0.6299,1.0835-1.0469,1.8569-1.25,2.3203c-0.3174,0.7188-0.5674,1.4688-0.75,2.25c-0.2236,0.9741-0.3359,1.9531-0.3359,2.9375
			c0,2.5054,0.7783,5.0078,2.3359,7.5078H60.8542z"/>
		<path d="M68.401,21.3564h-1.4063v-8.9609c-0.3389,0.3232-0.7822,0.646-1.332,0.9688c-0.5498,0.3232-1.043,0.5654-1.4805,0.7266
			v-1.3594c0.7861-0.3696,1.4736-0.8174,2.0625-1.3438c0.5889-0.5259,1.0049-1.0361,1.25-1.5313h0.9063V21.3564z"/>
		<path d="M71.8464,17.9189v-1.4141h4.3203v1.4141H71.8464z"/>
		<path d="M77.7214,24.536V13.0595h1.2813v1.0781c0.3018-0.4219,0.6436-0.7383,1.0234-0.9492s0.8408-0.3164,1.3828-0.3164
			c0.708,0,1.333,0.1826,1.875,0.5469c0.542,0.3647,0.9502,0.8789,1.2266,1.543s0.4141,1.3921,0.4141,2.1836
			c0,0.8491-0.1523,1.6133-0.457,2.293s-0.7471,1.2007-1.3281,1.5625s-1.1914,0.543-1.832,0.543
			c-0.4688,0-0.8896-0.0991-1.2617-0.2969s-0.6787-0.4478-0.918-0.75v4.0391H77.7214z M78.9948,17.2548
			c0,1.0679,0.2158,1.8569,0.6484,2.3672c0.4326,0.5107,0.9561,0.7656,1.5703,0.7656c0.625,0,1.1602-0.2642,1.6055-0.793
			c0.4453-0.5283,0.668-1.3477,0.668-2.457c0-1.0571-0.2178-1.8486-0.6523-2.375c-0.4346-0.5259-0.9541-0.7891-1.5586-0.7891
			c-0.5986,0-1.1289,0.2803-1.5898,0.8398C79.2253,15.3734,78.9948,16.1874,78.9948,17.2548z"/>
		<path d="M87.5417,24.7235h-1.0078c1.5576-2.5,2.3359-5.0024,2.3359-7.5078c0-0.979-0.1123-1.9502-0.3359-2.9141
			c-0.1768-0.7813-0.4248-1.5313-0.7422-2.25c-0.2031-0.4688-0.6221-1.25-1.2578-2.3438h1.0078
			c0.9795,1.3076,1.7031,2.6201,2.1719,3.9375c0.4014,1.1357,0.6016,2.3232,0.6016,3.5625c0,1.4063-0.2695,2.7656-0.8086,4.0781
			S88.3122,23.7441,87.5417,24.7235z"/>
		<path d="M90.8932,21.5517l3.3203-11.8438h1.125L92.026,21.5517H90.8932z"/>
		<path d="M96.112,15.7782c0-1.9009,0.5107-3.3892,1.5313-4.4648c1.0205-1.0752,2.3389-1.6133,3.9531-1.6133
			c1.0576,0,2.0107,0.2529,2.8594,0.7578c0.8486,0.5054,1.4961,1.21,1.9414,2.1133c0.4453,0.9038,0.668,1.9287,0.668,3.0742
			c0,1.1616-0.2344,2.2007-0.7031,3.1172c-0.4688,0.917-1.1328,1.6108-1.9922,2.082c-0.8594,0.4717-1.7861,0.707-2.7813,0.707
			c-1.0781,0-2.042-0.2603-2.8906-0.7813c-0.8486-0.5205-1.4922-1.2314-1.9297-2.1328
			C96.3307,17.7367,96.112,16.7836,96.112,15.7782z M97.6745,15.8017c0,1.3804,0.3711,2.4678,1.1133,3.2617
			c0.7422,0.7944,1.6729,1.1914,2.793,1.1914c1.1406,0,2.0791-0.4009,2.8164-1.2031c0.7373-0.8018,1.1055-1.9399,1.1055-3.4141
			c0-0.9321-0.1572-1.7461-0.4727-2.4414s-0.7764-1.2344-1.3828-1.6172s-1.2881-0.5742-2.043-0.5742
			c-1.0732,0-1.9961,0.3687-2.7695,1.1055C98.0612,12.8476,97.6745,14.078,97.6745,15.8017z"/>
		<path d="M108.8385,24.536V13.0595h1.2813v1.0781c0.3018-0.4219,0.6436-0.7383,1.0234-0.9492s0.8408-0.3164,1.3828-0.3164
			c0.708,0,1.333,0.1826,1.875,0.5469c0.542,0.3647,0.9502,0.8789,1.2266,1.543s0.4141,1.3921,0.4141,2.1836
			c0,0.8491-0.1523,1.6133-0.457,2.293s-0.7471,1.2007-1.3281,1.5625s-1.1914,0.543-1.832,0.543
			c-0.4688,0-0.8896-0.0991-1.2617-0.2969s-0.6787-0.4478-0.918-0.75v4.0391H108.8385z M110.112,17.2548
			c0,1.0679,0.2158,1.8569,0.6484,2.3672c0.4326,0.5107,0.9561,0.7656,1.5703,0.7656c0.625,0,1.1602-0.2642,1.6055-0.793
			c0.4453-0.5283,0.668-1.3477,0.668-2.457c0-1.0571-0.2178-1.8486-0.6523-2.375c-0.4346-0.5259-0.9541-0.7891-1.5586-0.7891
			c-0.5986,0-1.1289,0.2803-1.5898,0.8398C110.3424,15.3734,110.112,16.1874,110.112,17.2548z"/>
		<path d="M124.737,20.0048v1.3516h-7.5703c-0.0107-0.3384,0.0439-0.6641,0.1641-0.9766c0.1924-0.5156,0.501-1.0234,0.9258-1.5234
			s1.0381-1.0781,1.8398-1.7344c1.2451-1.0205,2.0859-1.8291,2.5234-2.4258c0.4375-0.5962,0.6563-1.1602,0.6563-1.6914
			c0-0.5571-0.1992-1.0273-0.5977-1.4102s-0.918-0.5742-1.5586-0.5742c-0.6768,0-1.2188,0.2031-1.625,0.6094
			s-0.6123,0.9688-0.6172,1.6875l-1.4453-0.1484c0.0986-1.0781,0.4717-1.8994,1.1172-2.4648
			c0.6455-0.5649,1.5127-0.8477,2.6016-0.8477c1.0986,0,1.9688,0.3047,2.6094,0.9141s0.9609,1.3647,0.9609,2.2656
			c0,0.4585-0.0938,0.9092-0.2813,1.3516c-0.1875,0.4429-0.499,0.9092-0.9336,1.3984c-0.4346,0.4897-1.1572,1.1616-2.168,2.0156
			c-0.8438,0.7085-1.3857,1.189-1.625,1.4414c-0.2393,0.2529-0.4375,0.5068-0.5938,0.7617H124.737z"/>
		<path d="M127.5573,24.7235h-1.0078c1.5576-2.5,2.3359-5.0024,2.3359-7.5078c0-0.979-0.1123-1.9502-0.3359-2.9141
			c-0.1768-0.7813-0.4248-1.5313-0.7422-2.25c-0.2031-0.4688-0.6221-1.25-1.2578-2.3438h1.0078
			c0.9795,1.3076,1.7031,2.6201,2.1719,3.9375c0.4014,1.1357,0.6016,2.3232,0.6016,3.5625c0,1.4063-0.2695,2.7656-0.8086,4.0781
			S128.3278,23.7441,127.5573,24.7235z"/>
		<path d="M139.362,19.5048v-3.1406h-3.1172v-1.3125h3.1172v-3.1172h1.3281v3.1172h3.1172v1.3125h-3.1172v3.1406H139.362z"/>
		<path d="M155.1042,21.3564h-1.4063v-8.9609c-0.3389,0.3232-0.7822,0.646-1.332,0.9688c-0.5498,0.3232-1.043,0.5654-1.4805,0.7266
			v-1.3594c0.7861-0.3696,1.4736-0.8174,2.0625-1.3438c0.5889-0.5259,1.0049-1.0361,1.25-1.5313h0.9063V21.3564z"/>
		<path d="M12.362,40.5561v-8.2969h1.2656v1.1797c0.6094-0.9111,1.4893-1.3672,2.6406-1.3672c0.5,0,0.96,0.0898,1.3789,0.2695
			s0.7334,0.4155,0.9414,0.707c0.208,0.292,0.3545,0.6382,0.4375,1.0391c0.0518,0.2607,0.0781,0.7163,0.0781,1.3672v5.1016h-1.4063
			v-5.0469c0-0.5728-0.0547-1.001-0.1641-1.2852c-0.1094-0.2837-0.3037-0.5103-0.582-0.6797
			c-0.2783-0.1689-0.6055-0.2539-0.9805-0.2539c-0.5986,0-1.1162,0.1904-1.5508,0.5703c-0.4346,0.3804-0.6523,1.1016-0.6523,2.1641
			v4.5313H12.362z"/>
		<path d="M33.1042,33.8217h-7.5625v-1.3125h7.5625V33.8217z M33.1042,37.2983h-7.5625v-1.3125h7.5625V37.2983z"/>
		<path d="M39.1042,34.9076c0-1.354,0.1396-2.4438,0.418-3.2695c0.2783-0.8252,0.6924-1.4619,1.2422-1.9102
			c0.5498-0.4478,1.2412-0.6719,2.0742-0.6719c0.6143,0,1.1533,0.124,1.6172,0.3711c0.4639,0.2476,0.8467,0.6045,1.1484,1.0703
			c0.3018,0.4663,0.5391,1.0342,0.7109,1.7031c0.1719,0.6694,0.2578,1.5718,0.2578,2.707c0,1.3438-0.1377,2.4287-0.4141,3.2539
			c-0.2764,0.8257-0.6885,1.4639-1.2383,1.9141c-0.5498,0.4507-1.2432,0.6758-2.082,0.6758c-1.1045,0-1.9717-0.3955-2.6016-1.1875
			C39.4821,38.6108,39.1042,37.059,39.1042,34.9076z M40.5495,34.9076c0,1.8804,0.2197,3.1318,0.6602,3.7539
			c0.4404,0.6226,0.9834,0.9336,1.6289,0.9336s1.1885-0.3125,1.6289-0.9375s0.6602-1.875,0.6602-3.75
			c0-1.8853-0.2197-3.1377-0.6602-3.7578c-0.4404-0.6196-0.9883-0.9297-1.6445-0.9297c-0.6455,0-1.1611,0.2734-1.5469,0.8203
			C40.7917,31.7387,40.5495,33.0277,40.5495,34.9076z"/>
		<path d="M48.7917,40.5561v-1.6016h1.6016v1.6016H48.7917z"/>
		<path d="M52.4479,34.9076c0-1.354,0.1396-2.4438,0.418-3.2695c0.2783-0.8252,0.6924-1.4619,1.2422-1.9102
			c0.5498-0.4478,1.2412-0.6719,2.0742-0.6719c0.6143,0,1.1533,0.124,1.6172,0.3711c0.4639,0.2476,0.8467,0.6045,1.1484,1.0703
			c0.3018,0.4663,0.5391,1.0342,0.7109,1.7031c0.1719,0.6694,0.2578,1.5718,0.2578,2.707c0,1.3438-0.1377,2.4287-0.4141,3.2539
			c-0.2764,0.8257-0.6885,1.4639-1.2383,1.9141c-0.5498,0.4507-1.2432,0.6758-2.082,0.6758c-1.1045,0-1.9717-0.3955-2.6016-1.1875
			C52.8258,38.6108,52.4479,37.059,52.4479,34.9076z M53.8932,34.9076c0,1.8804,0.2197,3.1318,0.6602,3.7539
			c0.4404,0.6226,0.9834,0.9336,1.6289,0.9336s1.1885-0.3125,1.6289-0.9375s0.6602-1.875,0.6602-3.75
			c0-1.8853-0.2197-3.1377-0.6602-3.7578c-0.4404-0.6196-0.9883-0.9297-1.6445-0.9297c-0.6455,0-1.1611,0.2734-1.5469,0.8203
			C54.1354,31.7387,53.8932,33.0277,53.8932,34.9076z"/>
		<path d="M61.3464,37.5561l1.4766-0.125c0.1094,0.7188,0.3633,1.2593,0.7617,1.6211c0.3984,0.3623,0.8789,0.543,1.4414,0.543
			c0.6768,0,1.25-0.2549,1.7188-0.7656c0.4688-0.5103,0.7031-1.1875,0.7031-2.0313c0-0.8018-0.2256-1.4346-0.6758-1.8984
			c-0.4502-0.4634-1.04-0.6953-1.7695-0.6953c-0.4531,0-0.8623,0.103-1.2266,0.3086c-0.3643,0.2061-0.6514,0.4727-0.8594,0.8008
			l-1.3203-0.1719l1.1094-5.8828h5.6953v1.3438h-4.5703l-0.6172,3.0781c0.6875-0.479,1.4092-0.7188,2.1641-0.7188
			c1,0,1.8438,0.3467,2.5313,1.0391c0.6875,0.6929,1.0313,1.5835,1.0313,2.6719c0,1.0366-0.3018,1.9326-0.9063,2.6875
			c-0.7344,0.9272-1.7373,1.3906-3.0078,1.3906c-1.042,0-1.8916-0.2915-2.5508-0.875
			C61.8161,39.2934,61.4401,38.5199,61.3464,37.5561z"/>
		<path d="M73.3229,43.9233c-0.7764-0.9795-1.4326-2.125-1.9688-3.4375s-0.8047-2.6719-0.8047-4.0781
			c0-1.2393,0.2002-2.4268,0.6016-3.5625c0.4688-1.3174,1.1924-2.6299,2.1719-3.9375h1.0078
			c-0.6299,1.0835-1.0469,1.8569-1.25,2.3203c-0.3174,0.7188-0.5674,1.4688-0.75,2.25c-0.2236,0.9741-0.3359,1.9531-0.3359,2.9375
			c0,2.5054,0.7783,5.0078,2.3359,7.5078H73.3229z"/>
		<path d="M75.5729,34.9076c0-1.354,0.1396-2.4438,0.418-3.2695c0.2783-0.8252,0.6924-1.4619,1.2422-1.9102
			c0.5498-0.4478,1.2412-0.6719,2.0742-0.6719c0.6143,0,1.1533,0.124,1.6172,0.3711c0.4639,0.2476,0.8467,0.6045,1.1484,1.0703
			c0.3018,0.4663,0.5391,1.0342,0.7109,1.7031c0.1719,0.6694,0.2578,1.5718,0.2578,2.707c0,1.3438-0.1377,2.4287-0.4141,3.2539
			c-0.2764,0.8257-0.6885,1.4639-1.2383,1.9141c-0.5498,0.4507-1.2432,0.6758-2.082,0.6758c-1.1045,0-1.9717-0.3955-2.6016-1.1875
			C75.9508,38.6108,75.5729,37.059,75.5729,34.9076z M77.0182,34.9076c0,1.8804,0.2197,3.1318,0.6602,3.7539
			c0.4404,0.6226,0.9834,0.9336,1.6289,0.9336s1.1885-0.3125,1.6289-0.9375s0.6602-1.875,0.6602-3.75
			c0-1.8853-0.2197-3.1377-0.6602-3.7578c-0.4404-0.6196-0.9883-0.9297-1.6445-0.9297c-0.6455,0-1.1611,0.2734-1.5469,0.8203
			C77.2604,31.7387,77.0182,33.0277,77.0182,34.9076z"/>
		<path d="M85.2604,40.5561v-1.6016h1.6016v1.6016H85.2604z"/>
		<path d="M89.1276,37.9076l1.3516-0.125c0.1143,0.6357,0.333,1.0967,0.6563,1.3828c0.3232,0.2866,0.7373,0.4297,1.2422,0.4297
			c0.4326,0,0.8115-0.0986,1.1367-0.2969c0.3252-0.1978,0.5928-0.4619,0.8008-0.793c0.208-0.3306,0.3828-0.7773,0.5234-1.3398
			s0.2109-1.1353,0.2109-1.7188c0-0.0625-0.0029-0.1563-0.0078-0.2813c-0.2813,0.4482-0.665,0.8115-1.1523,1.0898
			c-0.4873,0.2788-1.0146,0.418-1.582,0.418c-0.9482,0-1.75-0.3438-2.4063-1.0313s-0.9844-1.5938-0.9844-2.7188
			c0-1.1611,0.3428-2.0962,1.0273-2.8047c0.6846-0.708,1.543-1.0625,2.5742-1.0625c0.7451,0,1.4258,0.2007,2.043,0.6016
			c0.6172,0.4014,1.0859,0.9727,1.4063,1.7148s0.4805,1.8164,0.4805,3.2227c0,1.4639-0.1592,2.6289-0.4766,3.4961
			s-0.79,1.5273-1.418,1.9805s-1.3633,0.6797-2.207,0.6797c-0.8955,0-1.6279-0.2485-2.1953-0.7461
			C89.5837,39.5082,89.2419,38.809,89.1276,37.9076z M94.8854,32.8529c0-0.8071-0.2148-1.4478-0.6445-1.9219
			c-0.4297-0.4736-0.9463-0.7109-1.5508-0.7109c-0.625,0-1.1689,0.2554-1.6328,0.7656c-0.4639,0.5107-0.6953,1.1719-0.6953,1.9844
			c0,0.7295,0.2197,1.3218,0.6602,1.7773c0.4404,0.4561,0.9834,0.6836,1.6289,0.6836c0.6514,0,1.1865-0.2275,1.6055-0.6836
			C94.6755,34.2919,94.8854,33.6606,94.8854,32.8529z"/>
		<path d="M97.8151,37.5561l1.4766-0.125c0.1094,0.7188,0.3633,1.2593,0.7617,1.6211c0.3984,0.3623,0.8789,0.543,1.4414,0.543
			c0.6768,0,1.25-0.2549,1.7188-0.7656c0.4688-0.5103,0.7031-1.1875,0.7031-2.0313c0-0.8018-0.2256-1.4346-0.6758-1.8984
			c-0.4502-0.4634-1.04-0.6953-1.7695-0.6953c-0.4531,0-0.8623,0.103-1.2266,0.3086c-0.3643,0.2061-0.6514,0.4727-0.8594,0.8008
			l-1.3203-0.1719l1.1094-5.8828h5.6953v1.3438h-4.5703l-0.6172,3.0781c0.6875-0.479,1.4092-0.7188,2.1641-0.7188
			c1,0,1.8438,0.3467,2.5313,1.0391c0.6875,0.6929,1.0313,1.5835,1.0313,2.6719c0,1.0366-0.3018,1.9326-0.9063,2.6875
			c-0.7344,0.9272-1.7373,1.3906-3.0078,1.3906c-1.042,0-1.8916-0.2915-2.5508-0.875
			C98.2848,39.2934,97.9089,38.5199,97.8151,37.5561z"/>
		<path d="M108.026,43.9233h-1.0078c1.5576-2.5,2.3359-5.0024,2.3359-7.5078c0-0.979-0.1123-1.9502-0.3359-2.9141
			c-0.1768-0.7813-0.4248-1.5313-0.7422-2.25c-0.2031-0.4688-0.6221-1.25-1.2578-2.3438h1.0078
			c0.9795,1.3076,1.7031,2.6201,2.1719,3.9375c0.4014,1.1357,0.6016,2.3232,0.6016,3.5625c0,1.4063-0.2695,2.7656-0.8086,4.0781
			S108.7965,42.9438,108.026,43.9233z"/>
		<path d="M111.3776,40.7514l3.3203-11.8438h1.125l-3.3125,11.8438H111.3776z"/>
		<path d="M119.5651,43.9233c-0.7764-0.9795-1.4326-2.125-1.9688-3.4375s-0.8047-2.6719-0.8047-4.0781
			c0-1.2393,0.2002-2.4268,0.6016-3.5625c0.4688-1.3174,1.1924-2.6299,2.1719-3.9375h1.0078
			c-0.6299,1.0835-1.0469,1.8569-1.25,2.3203c-0.3174,0.7188-0.5674,1.4688-0.75,2.25c-0.2236,0.9741-0.3359,1.9531-0.3359,2.9375
			c0,2.5054,0.7783,5.0078,2.3359,7.5078H119.5651z"/>
		<path d="M121.8151,34.9076c0-1.354,0.1396-2.4438,0.418-3.2695c0.2783-0.8252,0.6924-1.4619,1.2422-1.9102
			c0.5498-0.4478,1.2412-0.6719,2.0742-0.6719c0.6143,0,1.1533,0.124,1.6172,0.3711c0.4639,0.2476,0.8467,0.6045,1.1484,1.0703
			c0.3018,0.4663,0.5391,1.0342,0.7109,1.7031c0.1719,0.6694,0.2578,1.5718,0.2578,2.707c0,1.3438-0.1377,2.4287-0.4141,3.2539
			c-0.2764,0.8257-0.6885,1.4639-1.2383,1.9141c-0.5498,0.4507-1.2432,0.6758-2.082,0.6758c-1.1045,0-1.9717-0.3955-2.6016-1.1875
			C122.193,38.6108,121.8151,37.059,121.8151,34.9076z M123.2604,34.9076c0,1.8804,0.2197,3.1318,0.6602,3.7539
			c0.4404,0.6226,0.9834,0.9336,1.6289,0.9336s1.1885-0.3125,1.6289-0.9375s0.6602-1.875,0.6602-3.75
			c0-1.8853-0.2197-3.1377-0.6602-3.7578c-0.4404-0.6196-0.9883-0.9297-1.6445-0.9297c-0.6455,0-1.1611,0.2734-1.5469,0.8203
			C123.5026,31.7387,123.2604,33.0277,123.2604,34.9076z"/>
		<path d="M131.5026,40.5561v-1.6016h1.6016v1.6016H131.5026z"/>
		<path d="M135.1589,34.9076c0-1.354,0.1396-2.4438,0.418-3.2695c0.2783-0.8252,0.6924-1.4619,1.2422-1.9102
			c0.5498-0.4478,1.2412-0.6719,2.0742-0.6719c0.6143,0,1.1533,0.124,1.6172,0.3711c0.4639,0.2476,0.8467,0.6045,1.1484,1.0703
			c0.3018,0.4663,0.5391,1.0342,0.7109,1.7031c0.1719,0.6694,0.2578,1.5718,0.2578,2.707c0,1.3438-0.1377,2.4287-0.4141,3.2539
			c-0.2764,0.8257-0.6885,1.4639-1.2383,1.9141c-0.5498,0.4507-1.2432,0.6758-2.082,0.6758c-1.1045,0-1.9717-0.3955-2.6016-1.1875
			C135.5368,38.6108,135.1589,37.059,135.1589,34.9076z M136.6042,34.9076c0,1.8804,0.2197,3.1318,0.6602,3.7539
			c0.4404,0.6226,0.9834,0.9336,1.6289,0.9336s1.1885-0.3125,1.6289-0.9375s0.6602-1.875,0.6602-3.75
			c0-1.8853-0.2197-3.1377-0.6602-3.7578c-0.4404-0.6196-0.9883-0.9297-1.6445-0.9297c-0.6455,0-1.1611,0.2734-1.5469,0.8203
			C136.8464,31.7387,136.6042,33.0277,136.6042,34.9076z"/>
		<path d="M149.3542,40.5561h-1.4063v-8.9609c-0.3389,0.3232-0.7822,0.646-1.332,0.9688c-0.5498,0.3232-1.043,0.5654-1.4805,0.7266
			v-1.3594c0.7861-0.3696,1.4736-0.8174,2.0625-1.3438c0.5889-0.5259,1.0049-1.0361,1.25-1.5313h0.9063V40.5561z"/>
		<path d="M152.9557,34.9076c0-1.354,0.1396-2.4438,0.418-3.2695c0.2783-0.8252,0.6924-1.4619,1.2422-1.9102
			c0.5498-0.4478,1.2412-0.6719,2.0742-0.6719c0.6143,0,1.1533,0.124,1.6172,0.3711c0.4639,0.2476,0.8467,0.6045,1.1484,1.0703
			c0.3018,0.4663,0.5391,1.0342,0.7109,1.7031c0.1719,0.6694,0.2578,1.5718,0.2578,2.707c0,1.3438-0.1377,2.4287-0.4141,3.2539
			c-0.2764,0.8257-0.6885,1.4639-1.2383,1.9141c-0.5498,0.4507-1.2432,0.6758-2.082,0.6758c-1.1045,0-1.9717-0.3955-2.6016-1.1875
			C153.3337,38.6108,152.9557,37.059,152.9557,34.9076z M154.401,34.9076c0,1.8804,0.2197,3.1318,0.6602,3.7539
			c0.4404,0.6226,0.9834,0.9336,1.6289,0.9336s1.1885-0.3125,1.6289-0.9375s0.6602-1.875,0.6602-3.75
			c0-1.8853-0.2197-3.1377-0.6602-3.7578c-0.4404-0.6196-0.9883-0.9297-1.6445-0.9297c-0.6455,0-1.1611,0.2734-1.5469,0.8203
			C154.6432,31.7387,154.401,33.0277,154.401,34.9076z"/>
		<path d="M169.2448,39.2045v1.3516h-7.5703c-0.0107-0.3384,0.0439-0.6641,0.1641-0.9766c0.1924-0.5156,0.501-1.0234,0.9258-1.5234
			s1.0381-1.0781,1.8398-1.7344c1.2451-1.0205,2.0859-1.8291,2.5234-2.4258c0.4375-0.5962,0.6563-1.1602,0.6563-1.6914
			c0-0.5571-0.1992-1.0273-0.5977-1.4102s-0.918-0.5742-1.5586-0.5742c-0.6768,0-1.2188,0.2031-1.625,0.6094
			s-0.6123,0.9688-0.6172,1.6875l-1.4453-0.1484c0.0986-1.0781,0.4717-1.8994,1.1172-2.4648
			c0.6455-0.5649,1.5127-0.8477,2.6016-0.8477c1.0986,0,1.9688,0.3047,2.6094,0.9141s0.9609,1.3647,0.9609,2.2656
			c0,0.4585-0.0938,0.9092-0.2813,1.3516c-0.1875,0.4429-0.499,0.9092-0.9336,1.3984c-0.4346,0.4897-1.1572,1.1616-2.168,2.0156
			c-0.8438,0.7085-1.3857,1.189-1.625,1.4414c-0.2393,0.2529-0.4375,0.5068-0.5938,0.7617H169.2448z"/>
		<path d="M172.0651,43.9233h-1.0078c1.5576-2.5,2.3359-5.0024,2.3359-7.5078c0-0.979-0.1123-1.9502-0.3359-2.9141
			c-0.1768-0.7813-0.4248-1.5313-0.7422-2.25c-0.2031-0.4688-0.6221-1.25-1.2578-2.3438h1.0078
			c0.9795,1.3076,1.7031,2.6201,2.1719,3.9375c0.4014,1.1357,0.6016,2.3232,0.6016,3.5625c0,1.4063-0.2695,2.7656-0.8086,4.0781
			S172.8356,42.9438,172.0651,43.9233z"/>
		<path d="M183.4714,39.2045v1.3516h-7.5703c-0.0107-0.3384,0.0439-0.6641,0.1641-0.9766c0.1924-0.5156,0.501-1.0234,0.9258-1.5234
			s1.0381-1.0781,1.8398-1.7344c1.2451-1.0205,2.0859-1.8291,2.5234-2.4258c0.4375-0.5962,0.6563-1.1602,0.6563-1.6914
			c0-0.5571-0.1992-1.0273-0.5977-1.4102s-0.918-0.5742-1.5586-0.5742c-0.6768,0-1.2188,0.2031-1.625,0.6094
			s-0.6123,0.9688-0.6172,1.6875l-1.4453-0.1484c0.0986-1.0781,0.4717-1.8994,1.1172-2.4648
			c0.6455-0.5649,1.5127-0.8477,2.6016-0.8477c1.0986,0,1.9688,0.3047,2.6094,0.9141s0.9609,1.3647,0.9609,2.2656
			c0,0.4585-0.0938,0.9092-0.2813,1.3516c-0.1875,0.4429-0.499,0.9092-0.9336,1.3984c-0.4346,0.4897-1.1572,1.1616-2.168,2.0156
			c-0.8438,0.7085-1.3857,1.189-1.625,1.4414c-0.2393,0.2529-0.4375,0.5068-0.5938,0.7617H183.4714z"/>
		<path d="M192.7682,38.7045v-3.1406h-3.1172v-1.3125h3.1172v-3.1172h1.3281v3.1172h3.1172v1.3125h-3.1172v3.1406H192.7682z"/>
		<path d="M208.5104,40.5561h-1.4063v-8.9609c-0.3389,0.3232-0.7822,0.646-1.332,0.9688c-0.5498,0.3232-1.043,0.5654-1.4805,0.7266
			v-1.3594c0.7861-0.3696,1.4736-0.8174,2.0625-1.3438c0.5889-0.5259,1.0049-1.0361,1.25-1.5313h0.9063V40.5561z"/>
		<path d="M20.0026,59.7563h-2.1953v-4.2344c0-0.8955-0.0469-1.4751-0.1406-1.7383c-0.0938-0.2627-0.2461-0.4673-0.457-0.6133
			c-0.2109-0.1455-0.4648-0.2188-0.7617-0.2188c-0.3799,0-0.7217,0.1045-1.0234,0.3125c-0.3018,0.2085-0.5088,0.4844-0.6211,0.8281
			s-0.168,0.9795-0.168,1.9063v3.7578h-2.1953v-8.2969h2.0391v1.2188c0.7236-0.9375,1.6357-1.4063,2.7344-1.4063
			c0.4844,0,0.9268,0.0874,1.3281,0.2617c0.4014,0.1748,0.7041,0.3975,0.9102,0.668c0.2061,0.271,0.3486,0.5781,0.4297,0.9219
			s0.1211,0.8359,0.1211,1.4766V59.7563z"/>
		<path d="M26.1901,53.3813v-2.0156h8.0078v2.0156H26.1901z M26.1901,56.85v-2.0234h8.0078V56.85H26.1901z"/>
		<path d="M44.2995,59.7563v-2.3047H39.612v-1.9219l4.9688-7.2734h1.8438v7.2656h1.4219v1.9297h-1.4219v2.3047H44.2995z
			 M44.2995,55.5219v-3.9141l-2.6328,3.9141H44.2995z"/>
		<path d="M48.9245,56.8109l2.1875-0.2266c0.0625,0.4951,0.2471,0.8867,0.5547,1.1758s0.6611,0.4336,1.0625,0.4336
			c0.458,0,0.8467-0.186,1.1641-0.5586c0.3174-0.3721,0.4766-0.9336,0.4766-1.6836c0-0.7031-0.1572-1.2305-0.4727-1.582
			s-0.7256-0.5273-1.2305-0.5273c-0.6299,0-1.1953,0.2788-1.6953,0.8359l-1.7813-0.2578l1.125-5.9609h5.8047v2.0547h-4.1406
			l-0.3438,1.9453c0.4893-0.2446,0.9893-0.3672,1.5-0.3672c0.9736,0,1.7998,0.3545,2.4766,1.0625
			c0.6768,0.7085,1.0156,1.6279,1.0156,2.7578c0,0.9429-0.2734,1.7842-0.8203,2.5234c-0.7451,1.0107-1.7783,1.5156-3.1016,1.5156
			c-1.0576,0-1.9189-0.2837-2.5859-0.8516C49.4528,58.5326,49.0544,57.7694,48.9245,56.8109z"/>
		<path d="M59.6745,53.5766c-0.5674-0.2393-0.9805-0.5688-1.2383-0.9883c-0.2578-0.4189-0.3867-0.8789-0.3867-1.3789
			c0-0.854,0.2979-1.5596,0.8945-2.1172c0.5967-0.5571,1.4443-0.8359,2.543-0.8359c1.0889,0,1.9336,0.2788,2.5352,0.8359
			c0.6016,0.5576,0.9023,1.2632,0.9023,2.1172c0,0.5313-0.1377,1.0039-0.4141,1.418s-0.6641,0.7305-1.1641,0.9492
			c0.6357,0.2554,1.1182,0.6279,1.4492,1.1172c0.3311,0.4897,0.4961,1.0547,0.4961,1.6953c0,1.0576-0.3369,1.917-1.0117,2.5781
			c-0.6748,0.6616-1.5713,0.9922-2.6914,0.9922c-1.042,0-1.9092-0.2734-2.6016-0.8203c-0.8174-0.6455-1.2266-1.5313-1.2266-2.6563
			c0-0.6196,0.1533-1.1885,0.4609-1.707C58.529,54.2577,59.0133,53.8578,59.6745,53.5766z M59.9245,56.2719
			c0,0.6045,0.1553,1.0757,0.4648,1.4141c0.3096,0.3389,0.6963,0.5078,1.1602,0.5078c0.4531,0,0.8281-0.1626,1.125-0.4883
			c0.2969-0.3252,0.4453-0.7954,0.4453-1.4102c0-0.5361-0.1514-0.9673-0.4531-1.293c-0.3018-0.3252-0.6846-0.4883-1.1484-0.4883
			c-0.5361,0-0.9365,0.1851-1.1992,0.5547C60.0563,55.4389,59.9245,55.8398,59.9245,56.2719z M60.1276,51.3656
			c0,0.4375,0.124,0.7788,0.3711,1.0234c0.2471,0.2451,0.5771,0.3672,0.9883,0.3672c0.417,0,0.75-0.1235,1-0.3711
			c0.25-0.2471,0.375-0.5898,0.375-1.0273c0-0.4111-0.124-0.7407-0.3711-0.9883c-0.2471-0.2471-0.5742-0.3711-0.9805-0.3711
			c-0.4219,0-0.7578,0.125-1.0078,0.375S60.1276,50.9545,60.1276,51.3656z"/>
	</g>
</g>
</svg>
