<?xml version="1.0" encoding="utf-8"?>
<!-- Generator: Adobe Illustrator 21.0.2, SVG Export Plug-In . SVG Version: 6.00 Build 0)  -->
<svg version="1.1" id="Capa_1" xmlns="http://www.w3.org/2000/svg" xmlns:xlink="http://www.w3.org/1999/xlink" x="0px" y="0px"
	 viewBox="0 0 120.0735 140.9474" style="enable-background:new 0 0 120.0735 140.9474;" xml:space="preserve">
<g>
	<g>
		<g>
			<path style="fill:#F48C37;" d="M52.2814,38.6412l-9.1288-15.8114C26.947,32.3094,16.036,49.8508,15.9434,69.9581h17.9631
				C34.181,56.5961,41.4859,44.9878,52.2814,38.6412z"/>
			<path style="fill:#53BB9B;" d="M33.8662,70.7312c0-0.0896,0.0127-0.1732,0.015-0.2568H15.9434
				c0.0926,20.1043,11.0036,37.6502,27.2092,47.1282l8.6871-15.0487C41.0785,96.0252,33.8662,84.235,33.8662,70.7312z"/>
			<path style="fill:#F04946;" d="M89.0493,38.1053l8.9677-15.5338c-8.0222-4.5869-17.3056-7.2273-27.2084-7.2273
				c-9.9065,0-19.1869,2.6404-27.2098,7.2273l9.1206,15.8025c5.4295-3.0913,11.6926-4.8823,18.3862-4.8823
				C77.6136,33.4917,83.7236,35.1709,89.0493,38.1053z"/>
			<path style="fill:#348EA9;" d="M52.2814,102.8197l-8.6825,15.0352c8.0228,4.5942,17.3033,7.2302,27.2098,7.2302
				c9.9028,0,19.1862-2.636,27.2084-7.2302l-8.5297-14.7651c-5.4249,3.0898-11.6902,4.8764-18.3818,4.8764
				C64.227,107.9662,57.8072,106.0706,52.2814,102.8197z"/>
		</g>
		<g>
			<path style="fill:#8562A3;" d="M29.4353,111.977l-8.5587,8.5601c12.6618,12.547,30.0539,20.3177,49.2648,20.4103v-11.6829
				C54.2427,129.0064,39.8754,122.4566,29.4353,111.977z"/>
			<path style="fill:#53BB9B;" d="M70.8034,129.2795v11.6679c19.2115-0.0882,36.6036-7.8602,49.2687-20.4057l-7.943-7.9453
				c-10.5961,10.3245-25.0641,16.6907-41.0234,16.6907C71.0028,129.287,70.9042,129.2795,70.8034,129.2795z"/>
			<path style="fill:#F48C37;" d="M20.4086,20.8685C7.8631,33.5334,0.0888,50.924,0,70.1401h12.2999
				c0.0896-15.8308,6.4332-30.1719,16.6846-40.6921L20.4086,20.8685z"/>
			<path style="fill:#348EA9;" d="M71.1056,11.6605c15.9593,0,30.4273,6.3675,41.0234,16.6875l7.9444-7.9408
				C107.4117,7.8617,90.0196,0.0851,70.8057,0v11.6694C70.9042,11.6694,71.0049,11.6605,71.1056,11.6605z"/>
			<path style="fill:#53BB9B;" d="M70.1438,11.6844V0C50.9328,0.0882,33.54,7.8617,20.8772,20.4072l8.5618,8.5602
				C39.8806,18.4863,54.245,11.9381,70.1438,11.6844z"/>
			<path style="fill:#F04946;" d="M0,70.8013c0.0888,19.2056,7.8608,36.6022,20.4071,49.2642l8.57-8.5722
				C18.7287,100.9718,12.385,86.6307,12.2999,70.8013H0z"/>
		</g>
	</g>
	<g>
		<path style="fill:#4D4D4D;" d="M61.4257,64.7872c-2.0117,2.2896-3.3887,4.3989-4.1299,6.3281
			c-0.7412,1.9297-1.1123,4.1772-1.1123,6.7441v2.4844H51.787v-2.4844c0-2.5317,0.46-4.8535,1.3789-6.9653
			c0.9189-2.1113,2.2676-4.147,4.0459-6.1069h-9.4824v-3.3818h13.6963V64.7872z"/>
		<path style="fill:#4D4D4D;" d="M76.7089,73.3849c0,2.2632-0.6025,4.0347-1.8076,5.3135
			c-1.2061,1.2793-2.7969,1.9185-4.7744,1.9185c-1.9941,0-3.5938-0.6392-4.7988-1.9185c-1.2061-1.2788-1.8086-3.0503-1.8086-5.3135
			v-5.0205c0-2.2632,0.5986-4.0342,1.7949-5.3135c1.1973-1.2788,2.792-1.9185,4.7871-1.9185c1.9766,0,3.5723,0.6416,4.7861,1.9248
			c1.2139,1.2837,1.8213,3.0527,1.8213,5.3071V73.3849z M72.3251,68.065c0-1.1533-0.1973-2.0332-0.5918-2.6406
			c-0.3945-0.6064-0.9385-0.9102-1.6318-0.9102c-0.7021,0-1.2441,0.3037-1.626,0.9102c-0.3818,0.6074-0.5723,1.4873-0.5723,2.6406
			v5.5933c0,1.1792,0.1924,2.0703,0.5791,2.6729c0.3857,0.603,0.9336,0.9038,1.6445,0.9038c0.6943,0,1.2334-0.3008,1.6201-0.9038
			c0.3857-0.6025,0.5781-1.4937,0.5781-2.6729V68.065z"/>
		<path style="fill:#4D4D4D;" d="M79.0116,65.0475c0-1.127,0.3643-2.0615,1.0928-2.8032c0.7285-0.7412,1.7637-1.1118,3.1084-1.1118
			c1.3613,0,2.4063,0.3706,3.1348,1.1118c0.7285,0.7417,1.0928,1.6763,1.0928,2.8032v1.0015c0,1.1274-0.3643,2.0576-1.0928,2.79
			c-0.7285,0.7329-1.7646,1.0991-3.1084,1.0991c-1.3535,0-2.3955-0.3687-3.1289-1.1055c-0.7324-0.7368-1.0986-1.665-1.0986-2.7837
			V65.0475z M83.8368,78.9259l-2.042-1.0273l9.248-14.8022l2.042,1.0278L83.8368,78.9259z M81.8212,66.0489
			c0,0.4336,0.1211,0.7959,0.3643,1.0859c0.2422,0.291,0.5938,0.436,1.0537,0.436c0.4414,0,0.7822-0.145,1.0205-0.436
			c0.2383-0.29,0.3574-0.6523,0.3574-1.0859v-1.0015c0-0.4336-0.1211-0.7998-0.3633-1.0991
			c-0.2432-0.2993-0.5898-0.4487-1.041-0.4487c-0.4424,0-0.7852,0.1494-1.0273,0.4487c-0.2432,0.2993-0.3643,0.6655-0.3643,1.0991
			V66.0489z M87.9989,75.7003c0-1.1187,0.3691-2.0488,1.1064-2.79c0.7363-0.7412,1.7773-1.1123,3.1211-1.1123
			c1.3613,0,2.4043,0.3687,3.1289,1.106c0.7236,0.7368,1.0859,1.6694,1.0859,2.7964v1.0015c0,1.1362-0.3623,2.0703-1.0859,2.8032
			c-0.7246,0.7329-1.7588,1.0991-3.1025,1.0991c-1.3525,0-2.4004-0.3687-3.1416-1.106c-0.7412-0.7368-1.1123-1.6689-1.1123-2.7964
			V75.7003z M90.8222,76.7018c0,0.4165,0.1387,0.7764,0.416,1.0796c0.2773,0.3037,0.6152,0.4556,1.0146,0.4556
			c0.5371,0,0.9014-0.1348,1.0928-0.4033c0.1904-0.269,0.2861-0.646,0.2861-1.1318v-1.0015c0-0.4248-0.124-0.7871-0.3711-1.0859
			c-0.2471-0.2993-0.5918-0.4487-1.0342-0.4487c-0.4512,0-0.7979,0.1494-1.04,0.4487c-0.2432,0.2988-0.3643,0.6611-0.3643,1.0859
			V76.7018z"/>
	</g>
</g>
</svg>
