<?xml version="1.0" encoding="utf-8"?>
<!-- Generator: Adobe Illustrator 21.0.2, SVG Export Plug-In . SVG Version: 6.00 Build 0)  -->
<svg version="1.1" id="Capa_1" xmlns="http://www.w3.org/2000/svg" xmlns:xlink="http://www.w3.org/1999/xlink" x="0px" y="0px"
	 viewBox="0 0 281.7947 462.1636" style="enable-background:new 0 0 281.7947 462.1636;" xml:space="preserve">
<g>
	<g>
		<defs>
			<rect id="SVGID_11_" x="17.0583" width="264.7365" height="373.3113"/>
		</defs>
		<clipPath id="SVGID_2_">
			<use xlink:href="#SVGID_11_"  style="overflow:visible;"/>
		</clipPath>
		<g style="clip-path:url(#SVGID_2_);">
			<g>
				<path style="fill:#50565B;stroke:#656C70;stroke-miterlimit:10;" d="M218.4504,318.5418l-1.5092-2.7769
					c0,0,8.2098,2.2939,8.2702-2.7769c0.0604-5.0708,0.3018-45.8785,0.3018-45.8785l2.8976-0.3622l-0.3018,49.9834l-1.5695,3.0787
					l-4.0144-0.3018L218.4504,318.5418"/>
				<path style="fill:#808589;stroke:#656C70;stroke-miterlimit:10;" d="M218.4504,318.5418c0,0,8.572,1.1704,8.572-4.1234v-47.671
					h7.0025v47.671c0,0,0.9458,10.3157-7.3647,10.3412l-8.3105,0.0255L218.4504,318.5418z"/>
				
					<rect x="166.8974" y="379.3039" transform="matrix(-1 -4.461954e-11 4.461954e-11 -1 341.6425 794.3113)" style="fill:#808589;stroke:#656C70;stroke-miterlimit:10;" width="7.8476" height="35.7036"/>
				<path style="fill:#252728;stroke:#000000;stroke-miterlimit:10;" d="M165.8161,380.1063h10.2518
					c1.3547,0,2.4706-1.064,2.535-2.4172l1.8166-38.1398h-18.9551l1.8166,38.1398
					C163.3455,379.0423,164.4613,380.1063,165.8161,380.1063z"/>
				<circle style="fill:#1A1B1C;stroke:#000000;stroke-miterlimit:10;" cx="170.8212" cy="451.7972" r="9.8664"/>
				<circle style="fill:#1A1B1C;stroke:#000000;stroke-miterlimit:10;" cx="141.804" cy="449.8655" r="9.4163"/>
				<circle style="fill:#1A1B1C;stroke:#000000;stroke-miterlimit:10;" cx="199.822" cy="449.8655" r="9.4163"/>
				<circle style="fill:#A0A6AA;" cx="170.8212" cy="451.7972" r="6.8989"/>
				<circle style="fill:#A0A6AA;" cx="141.804" cy="449.8655" r="6.1236"/>
				<circle style="fill:#A0A6AA;" cx="199.822" cy="449.8655" r="6.1236"/>
				<circle style="fill:#1A1B1C;stroke:#000000;stroke-miterlimit:10;" cx="170.842" cy="450.7841" r="5.8857"/>
				<circle style="fill:#1A1B1C;stroke:#000000;stroke-miterlimit:10;" cx="141.804" cy="449.2279" r="5.1301"/>
				<circle style="fill:#1A1B1C;stroke:#000000;stroke-miterlimit:10;" cx="199.822" cy="449.2279" r="4.9671"/>
				<path style="fill:#A0A6AA;" d="M167.4206,382.4279c0,0,5.9754-2.3123,5.6036,3.7244v26.1588c0,0,1.0065,1.4375-4.7182,2.0669
					h5.7147l0.2616-33.7794h-6.922L167.4206,382.4279z"/>
				<path style="fill:#808589;stroke:#656C70;stroke-miterlimit:10;" d="M136.6739,428.1673
					c1.4488-7.566,16.0173-7.4854,16.0173-7.4854h8.411v-4.1955c0-0.8168,0.6622-1.479,1.479-1.479h16.7215
					c0.8168,0,1.479,0.6622,1.479,1.479v4.1955h12.3148c12.9587,0,11.6205,9.4976,11.6205,9.4976v11.8718
					c0,1.5724-1.2746,2.8471-2.847,2.8471h-3.9847c-1.5724,0-2.847-1.2747-2.847-2.8471v-1.0785c0,0.0704,0-1.0022,0-4.4348
					c0-9.4976-6.2882-8.9342-6.2882-8.9342l-12.9687-0.0581v15.5768c0,0.9807-0.7951,1.7758-1.7758,1.7758h-6.1272
					c-0.9807,0-1.7758-0.7951-1.7758-1.7758v-15.6202l-13.2504-0.0594c-4.9518,0-5.8685,4.457-6.0065,6.8471v8.6313
					c0,1.0918-0.8851,1.977-1.977,1.977h-5.7247c-1.0918,0-1.977-0.8852-1.977-1.977V428.615c0-0.0252,0.0065-0.0487,0.0074-0.0737
					L136.6739,428.1673z"/>
				<path style="fill:#A0A6AA;" d="M170.7151,423.2173c0,0,4.7544-0.4226,4.5733,3.9238l0.0051,14.8502
					c0,0,0.5986,2.8488-2.8423,2.2695c0,0,1.0866,0.0847,1.6299-2.6317l0.1207-14.5483
					C174.2018,427.0807,173.6272,424.0624,170.7151,423.2173z"/>
				<path style="fill:#A0A6AA;" d="M170.8212,415.5507h7.4251c0,0,2.5957-0.6037,1.9921,2.5354l0.091,3.1391l-2.4453-4.1653
					L170.8212,415.5507z"/>
				<path style="fill:#A0A6AA;" d="M197.3825,421.7081c0,0,7.0025,0.664,6.7007,9.5379l0.0095,9.9605
					c0,0,1.1375,3.4409-4.2351,3.0183c0,0,2.3543-0.7848,2.1128-5.6744l-0.1207-9.9001
					C201.8496,428.6502,202.0307,425.0886,197.3825,421.7081z"/>
				<path style="fill:#262C35;stroke:#161A1E;stroke-miterlimit:10;" d="M201.0071,165.1651c0,0,3.2394-8.6732,26.5994-8.2047
					c0,0,24.6459-6.6767,27.2176,47.498v48.5522c0,0,1.9288,33.5004-25.9317,32.5633c0,0-29.5751,2.2323-29.1464-23.7163
					L201.0071,165.1651"/>
				<path style="fill:#181D23;" d="M215.1764,161.9386c0,0,21.6455-9.2886,26.5747,41.1259l3.0004,55.2902
					c0,0,0.8573,20.6596-17.1449,21.1281s-0.8573,1.2299-0.8573,1.2299s-23.5743,1.5813-24.753-21.1428l-5.0363-77.0744
					C196.9599,182.4957,199.746,161.5286,215.1764,161.9386z"/>
				<path style="fill:#50565B;stroke:#656C70;stroke-miterlimit:10;" d="M153.6517,343.7301h37.2367
					c2.6753,0,4.8642-2.1889,4.8642-4.8642v-7.2728c0-1.7995-1.4723-3.2719-3.2719-3.2719h-40.4214
					c-1.7995,0-3.2719,1.4724-3.2719,3.2719v7.2728C148.7875,341.5412,150.9764,343.7301,153.6517,343.7301z"/>
				<path style="fill:#262C35;stroke:#161A1E;stroke-miterlimit:10;" d="M142.5392,333.5127
					c-3.9496-0.1715,10.707,1.497,32.7264,1.9317c8.7717,0.1732,25.8287-0.9659,25.8287-0.9659
					c4.0959,0,19.6915-2.4146,19.6915-10.8659v-5.0708c0-9.2562-15.5956-11.8318-19.6915-11.8318c0,0-16.868-0.2787-25.5729,0
					c-18.7139,0.5992-43.2116,1.9317-43.2116,1.9317c-4.0959,0-10.4851,5.0668-10.4851,8.9342v6.0367
					C122.358,329.4078,138.4433,333.5127,142.5392,333.5127z"/>
				<path style="fill:#181D23;" d="M220.6792,317.3129c0,0-50.0111,10.2326-98.0282-2.3584s0,0,0,0s1.0838,11.7971,21.1589,14.4532
					c0,0,47.1829,4.1049,65.7236,0c0,0,0.2539,3.3458-7.8008,5.0534s0,0,0,0s16.1548-0.2938,18.9465-9.6761c2.7917-9.3823,0,0,0,0
					V317.3129"/>
			</g>
			<path style="fill:#C39145;" d="M120.0861,249.8875c12.0842,7.4807,52.2682,15.036,68.7362,11.456
				c0,0,10.024,32.9361,2.864,42.9601c-7.16,10.024-1.4446,8.7355-18.5174,14.1304c-14.0748,4.4475-46.7357-5.6321-49.5997-24.9642
				C120.7052,274.1378,120.0861,249.8875,120.0861,249.8875z"/>
			<g>
				<path style="fill:#593A11;" d="M1.1994,433.4486c5.2177,7.3048,21.5609,8.1074,40.8309,6.903
					c1.886-0.1179,10.2389-1.439,12.0244-1.5607c1.4382-0.0981,4.1307-3.0428,5.4931-3.1413
					c1.9462-0.1408,2.5533,2.06,4.2881,2.4271c5.6249,1.1902,11.8005-2.026,12.7509-3.5253c0,0,1.7222-11.5319-2.036-17.5471
					c-3.7582-6.0152-32.4334-1.6871-32.4334-1.6871s-29.0481,8.7587-41.0919,10.766C0.112,427.1772-0.8079,430.6384,1.1994,433.4486
					z"/>
				<path style="fill:#76531E;stroke:#664614;stroke-miterlimit:10;" d="M1.1994,428.8934
					c5.2177,7.3048,22.8832,7.2263,42.1532,6.0219s33.9502-5.6204,33.9502-5.6204s0.2902-14.8674-3.468-20.8826
					s-31.7174-1.6871-31.7174-1.6871S21.4181,420.3205,7.269,419.8918C1.7716,419.7252-0.8079,426.0832,1.1994,428.8934z"/>
				<path style="fill:#C39145;stroke:#664614;stroke-miterlimit:10;" d="M129.0648,270.2433c0,0-72.6273,9.9498-82.7499,12.6491
					s-15.5213,7.4232-11.1348,28.3432s5.1911,98.5591,5.1911,98.5591s3.5524-2.1949,6.444-0.716
					c4.1669,2.131,5.8927,6.403,13.8603,5.407c13.4967-1.6871,15.7345-8.0323,15.7345-8.0323s-0.4764-33.8076-0.139-44.2675
					c0.3374-10.46-2.617-32.7296-3.9667-35.429c-1.3497-2.6993,5.1355-7.0858,5.1355-7.0858s50.2754-3.8763,66.8089-1.5143
					c16.5335,2.3619,21.9565-3.8844,20.2694-19.0682S129.0648,270.2433,129.0648,270.2433z"/>
				<path style="fill:#CFAC81;" d="M84.1891,285.5939c9.308-2.148,18.6161-2.148,26.4921-5.012
					c7.3203-3.3274,21.4367-0.4763,23.3933-8.105c-3.0259-1.4302-5.0098-2.2335-5.0098-2.2335s-72.6272,9.9498-82.7498,12.6491
					c-10.1226,2.6994-15.5213,7.4232-11.1348,28.3432c4.3865,20.92,5.1911,98.5591,5.1911,98.5591s3.5524-2.1949,6.444-0.716
					c0.8662,0.443,1.6253,0.9798,2.3585,1.5413c1.1699-4.2344-2.9327-9.1243-2.9327-13.3297
					c0.716-26.4921,0.716-53.7002-6.444-78.7603c-2.148-9.308-3.58-22.1961,0-27.9241
					C48.389,277.7178,68.437,289.1739,84.1891,285.5939z"/>
				<path style="opacity:0.4;fill:#545454;" d="M124.6792,283.7234c-22.1961,4.296-47.4346,16.4292-49.9051,27.4231
					c-7.16,0.716-8.485,7.3834-7.769,12.3954c2.148,28.6401,0,56.5642,3.58,85.2043c0.153,0.9174,0.3295,1.8228,0.5124,2.7247
					c4.3638-2.3393,5.3124-5.0176,5.3124-5.0176s-0.4763-33.8076-0.139-44.2675c0.3374-10.46-2.617-32.7296-3.9667-35.429
					s5.1355-7.0858,5.1355-7.0858s30.4587-18.9158,46.9923-16.5538C140.1012,305.3557,133.3417,281.991,124.6792,283.7234z"/>
			</g>
			<path style="fill:#C39145;" d="M120.0861,249.8875c12.0842,7.4807,52.2682,15.036,68.7362,11.456
				c0,0,10.024,32.9361,2.864,42.9601c-7.16,10.024-1.4446,8.7355-18.5174,14.1304c-14.0748,4.4475-12.8748-34.5683-32.4156-34.2722
				C117.1252,284.5199,120.0861,249.8875,120.0861,249.8875z"/>
			<g>
				<path style="fill:#593A11;" d="M92.6507,412.5648c0,0,0.9544,12.6496-5.4896,19.3321
					c-6.444,6.6832-18.3776,10.1436-20.0481,16.11c-1.6704,5.9672,0.2385,7.7572,1.432,9.308
					c1.1936,1.5516,14.5585,6.5636,28.4017,3.938c13.8425-2.6249,12.172-11.6945,18.6161-14.3201
					c6.444-2.6248,8.7717-5.6937,8.7717-5.6937s2.0627-5.0701,0.1532-9.6046c-1.9096-4.5351-4.3904-20.5019-4.3904-20.5019
					L92.6507,412.5648z"/>
				<path style="fill:#76531E;stroke:#664614;stroke-miterlimit:10;" d="M92.6507,408.2688c0,0,0.9544,12.6496-5.4896,19.3321
					c-6.444,6.6832-18.3776,9.5472-20.0481,15.5136c-1.6704,5.9664-0.4775,9.5464-0.4775,9.5464s16.4681,6.9216,30.3112,4.296
					c13.8425-2.6249,12.172-11.6945,18.6161-14.32c6.444-2.6249,8.8305-10.5009,8.8305-10.5009s0-11.456-1.9095-15.9912
					c-1.9089-4.5345-2.3865-9.308-2.3865-9.308L92.6507,408.2688z"/>
				<path style="fill:#C39145;stroke:#664614;stroke-miterlimit:10;" d="M140.992,283.2072
					c-13.2354,0.8558-39.8723,9.8792-52.4606,16.2719c-9.3409,4.7435-14.7775,8.0207-10.3911,28.9407
					c4.3864,20.92,12.3511,88.5351,12.3511,88.5351s3.5524-2.1949,6.444-0.716c4.1669,2.131,5.8927,6.403,13.8603,5.407
					c13.4967-1.6871,12.8705-8.0323,12.8705-8.0323s0.9556-33.8076,1.293-44.2675c0.3374-10.46-4.049-32.7296-5.3987-35.429
					c-1.3497-2.6993,5.1355-7.0858,5.1355-7.0858s21.536-1.3473,38.1688-5.8104c16.1308-4.3283,39.1406-6.7484,37.4535-21.9322"/>
				<path style="fill:#CFAC81;" d="M98.5091,413.0423c-2.148-5.728-4.296-11.4561-5.012-16.468
					c-0.716-17.9001-5.012-34.3681-8.592-51.5522c-3.58-13.604-5.012-30.7881,6.444-39.3801
					c10.024-6.444,22.1961-8.592,32.9361-12.888c5.728-2.148,12.888-1.432,17.9001-4.296c2.2074-1.3245,4.9571-1.8346,7.0784-3.0364
					l-8.2718-2.2144c-13.2354,0.8558-39.8722,9.8792-52.4606,16.2719c-9.3408,4.7435-14.7775,8.0207-10.391,28.9407
					c4.3865,20.92,12.3511,88.535,12.3511,88.535s3.5524-2.1949,6.444-0.716c0.5887,0.3011,1.1262,0.6472,1.642,1.0129
					C98.8507,415.7941,98.9273,414.2967,98.5091,413.0423z"/>
				<path style="opacity:0.4;fill:#545454;" d="M160.3786,277.5471c-1.4785,5.8693,6.4234,10.994,8.3999,14.8233
					c1.1901,2.3058,7.1646,15.4409,6.3524,19.2783c-11.1063,2.2794-23.2233-0.9371-34.3776,2.5853
					c-10.024,2.864-20.0481,3.58-29.3561,7.876c-4.296,2.148-5.728,10.024-2.148,15.036c0.716,0.716,5.012-0.716,5.012,0
					c9.028,27.7289,0.0568,55.4579,0.7992,83.7099c9.0858-2.3286,8.6057-7.2425,8.6057-7.2425s0.9557-33.8076,1.293-44.2676
					c0.3374-10.4599-4.049-32.7296-5.3987-35.429c-1.3497-2.6993,5.1355-7.0858,5.1355-7.0858s21.536-1.3473,38.1688-5.8103
					c4.6267-1.2415,11.8942-3.0418,16.9077-4.3155C192.2381,313.5383,160.3786,277.5471,160.3786,277.5471z"/>
			</g>
			<g>
				<path style="fill:#CE8452;stroke:#6B4429;stroke-miterlimit:10;" d="M61.3575,141.0804c0,0,3.0205,5.481,3.7772,8.4529
					c0.7568,2.9719-6.2557,5.8567-7.0654,3.8116c-0.8097-2.045-5.0545-9.0229-3.4023-9.7755S59.862,140.2694,61.3575,141.0804z"/>
				<path style="fill:#FFA96A;stroke:#6B4429;stroke-linecap:round;stroke-linejoin:round;stroke-miterlimit:10;" d="
					M97.6388,213.7029c-8.3353-16.6442-24.0368-26.0091-23.7192-38.3754c1.043-3.9764,1.1331-9.3926-0.441-15.4317
					c-1.5741-6.0392-1.4808-7.454-2.9274-8.5721c-1.4466-1.118-4.0637-3.1807-10.6329-0.4609s-14.39,7.2856-12.6519,13.9538
					c1.7381,6.6683,6.219,15.2791,9.2956,17.9344c6.0294,5.2037,17.1572,44.5174,23.4718,50.5795
					C86.3484,239.3925,105.9741,230.3471,97.6388,213.7029z"/>
				<path style="fill:#FFA96A;stroke:#6B4429;stroke-linecap:round;stroke-linejoin:round;stroke-miterlimit:10;" d="
					M62.8054,154.6793c-0.8504-3.2628-0.929-9.4476-0.8247-11.2084c0.117-1.9758-0.6481-5.7976-4.8578-4.6626
					c-2.914,0.7857-3.1911,2.8264-2.7529,5.8376c0.4224,2.9015,1.1821,10.0323,2.4251,13.0697
					c0.6434-0.0223,1.6056-0.1737,2.9539-0.6753C61.5574,156.3675,62.4174,155.3396,62.8054,154.6793z"/>
				<path style="fill:#CE8452;stroke:#6B4429;stroke-miterlimit:10;" d="M61.7321,161.3674
					c2.6328-0.9794,2.595-2.8976,1.4194-5.6347c-0.1279-0.2977-0.2425-0.6552-0.3462-1.0534
					c-0.3879,0.6603-1.2479,1.6882-3.0563,2.361c-1.3483,0.5016-2.3105,0.653-2.9539,0.6753c0.047,0.115,0.0946,0.2259,0.143,0.3286
					C58.2663,160.8625,59.0993,162.3469,61.7321,161.3674z"/>
				<path style="fill:#FFA96A;stroke:#6B4429;stroke-linecap:round;stroke-linejoin:round;stroke-miterlimit:10;" d="
					M51.781,162.8995c-1.2637-2.3538-2.3777-7.268-2.589-8.7043c-0.2371-1.6118-1.5243-4.437-4.8499-2.2886
					c-2.3021,1.4872-2.1878,3.1981-1.3111,5.4726c0.8448,2.1916,2.6883,7.6599,4.2419,9.7179
					c0.5339-0.2076,1.3124-0.6125,2.3541-1.4108C51.0242,164.6155,51.5687,163.5411,51.781,162.8995z"/>
				<path style="fill:#CE8452;stroke:#6B4429;stroke-miterlimit:10;" d="M52.0177,168.5553
					c2.0342-1.5589,1.6775-3.079,0.2312-4.9171c-0.1573-0.2-0.3137-0.4514-0.4679-0.7388c-0.2123,0.6416-0.7568,1.716-2.154,2.7867
					c-1.0417,0.7983-1.8202,1.2032-2.3541,1.4108c0.0588,0.0779,0.1173,0.1524,0.1752,0.2202
					C49.0357,169.1751,49.9835,170.1142,52.0177,168.5553z"/>
				<path style="fill:#FFA96A;stroke:#6B4429;stroke-linecap:round;stroke-linejoin:round;stroke-miterlimit:10;" d="
					M57.5608,159.2869c-1.2934-3.0481-2.6654-10.7889-2.8081-12.5459c-0.1601-1.9714-1.4474-5.5876-5.44-3.6308
					c-2.7638,1.3546-2.7525,3.4219-1.9005,6.3039c0.821,2.7769,2.9965,11.315,4.6456,14.0626
					c0.6313-0.15,1.559-0.4908,2.8185-1.2537C56.5657,161.1999,57.2703,160.0152,57.5608,159.2869z"/>
				<path style="fill:#CE8452;stroke:#6B4429;stroke-miterlimit:10;" d="M57.435,166.0951c2.4595-1.4897,2.1547-3.3735,0.614-5.8384
					c-0.1676-0.2681-0.3305-0.5977-0.4882-0.9698c-0.2905,0.7283-0.9951,1.9129-2.6845,2.9362
					c-1.2595,0.7629-2.1872,1.1037-2.8185,1.2537c0.0624,0.1041,0.1247,0.2039,0.1868,0.2956
					C53.9472,166.287,54.9756,167.5848,57.435,166.0951z"/>
				<path style="fill:#CE8452;" d="M65.8772,170.8009c0,0-1.7036-1.1851-1.7628-2.5273c-0.0592-1.3421-1.8864,1.0447-3.4404,0.2189
					c-1.554-0.8259-3.0362-3.304-3.0362-3.304s7.5693-3.138,10.2562-0.3482s2.9638,3.852,2.9638,3.852l-4.1029,1.7821
					L65.8772,170.8009z"/>
				<path style="fill:#FFA96A;stroke:#6B4429;stroke-linecap:round;stroke-linejoin:round;stroke-miterlimit:10;" d="
					M67.6041,181.6795c0,0,5.7714-0.9049,7.5396-6.5313c1.7682-5.6264,2.3054-10.6568,0.8795-13.0247s-8.188-4.8208-10.2476-4.7447
					c-2.0596,0.0761-4.0158,2.322-5.352,2.9572s-4.9289,0.5915-5.6472,1.8248s1.5741,6.0392,4.7196,5.6971
					c3.1455-0.3421,3.8776-2.4087,6.4102-1.5566c0.5739,0.1931,1.0819,0.4061,1.5243,0.6202
					c1.5097,0.7304,2.2559,1.4725,2.2559,1.4725s-1.6255-1.9281-2.8195-0.2418s-2.4924,4.2396-2.4028,7.2426"/>
				<path style="fill:#E8AD85;stroke:#7C5337;stroke-linecap:round;stroke-linejoin:round;stroke-miterlimit:10;" d="
					M58.8461,162.2452c0.4931,0.6111,0.7464,1.234,0.6875,1.8723c0,0-2.4765,1.3579-3.837-0.7006"/>
				<path style="fill:#FFA96A;stroke:#6B4429;stroke-linecap:round;stroke-linejoin:round;stroke-miterlimit:10;" d="
					M71.9549,153.6998c0,0-2.3489-12.6294-3.1985-16.3522s-8.2905-20.0197-9.7808-22.4945s-2.5221,5.867-0.5737,11.4891
					c1.9483,5.6221,4.3963,14.0875,4.3963,14.0875s0.3012,5.1738,0.9818,9.9448"/>
				<path style="fill:#CE8452;" d="M58.4019,126.3421c1.9484,5.6221,4.3963,14.0875,4.3963,14.0875s0.3013,5.1737,0.9818,9.9448
					l0.9718,0.3954c0,0,0.3369-7.4988-0.4666-10.8518c-0.8035-3.353-3.7897-11.1944-4.6019-14.189
					c-0.8122-2.9946-1.0646-6.2038-1.0646-6.2038l-0.8052-2.4888C56.78,118.3884,57.3632,123.3448,58.4019,126.3421z"/>
			</g>
			<path style="fill:#CE8452;" d="M56.562,182.751c6.0294,5.2038,17.1571,44.5172,23.4717,50.5794
				c-5.5746-10.2562-13.0944-34.1629-14.2921-35.2366c-1.3849-1.2414-1.3302-1.6999-2.2367-6.0415
				c-0.9065-4.3416-2.9399-9.2337-4.2605-12.6392c-1.1515-2.9694-3.421-4.1937-10.5823-10.2778
				C50.7999,174.7933,54.122,180.6451,56.562,182.751z"/>
			<g>
				
					<path style="fill:#E1E9F5;stroke:#7788A1;stroke-width:0.691;stroke-linecap:round;stroke-linejoin:round;stroke-miterlimit:10;" d="
					M74.9571,179.1838c2.4978,0.9835,3.5928,7.173,3.5928,7.173s-5.0097,10.579-14.088,11.4739
					c-2.2529-0.9594-3.7962-8.6685-3.7962-8.6685C63.1107,189.2994,72.6941,186.6969,74.9571,179.1838z"/>
				<g>
					<path style="fill:#EDF2F9;" d="M76.7103,188.5822c1.1674-1.2964,1.8396-2.2254,1.8396-2.2254s-1.0737-6.1274-3.554-7.1553
						l-0.0628,0.053c-0.3313,1.072-0.814,2.0158-1.4027,2.8483C75.8291,184.0566,76.9304,185.5726,76.7103,188.5822z"/>
					<path style="fill:#C7D7EE;" d="M60.6823,189.3077c0,0,1.529,7.583,3.7797,8.5229c0.6906-0.0683,1.3563-0.2134,2.002-0.41
						c-1.2941-0.9545-1.3611-1.5668-2.6718-5.4947c-0.3208-0.9613-0.756-1.7911-1.0628-2.8154
						C61.8627,189.2734,61.146,189.3325,60.6823,189.3077z"/>
				</g>
			</g>
			<g>
				<path style="fill:#619BBC;stroke:#2F4A56;stroke-linecap:round;stroke-linejoin:round;stroke-miterlimit:10;" d="
					M124.1814,150.5533c-0.7733-0.303-1.2527-0.8566-1.4935-1.487c-0.1988-0.1254-0.3825-0.274-0.5445-0.4416
					c-4.4428,6.642-8.466,15.2499-11.3845,22.3144c-1.954,4.7299-12.8597,30.254-15.1222,36.7481
					c-3.3185-6.4941-17.9572-29.3516-17.9572-29.3516c-0.0001,7.0398-16.6693,15.182-16.6693,15.182s11.1458,32.4572,21.583,44.5392
					c7.901,9.1462,14.5518,7.7937,22.2445,3.1177c5.7838-3.5156,32.1032-43.1222,34.0281-52.9012
					c0.756-3.8398,0.9592-12.894,0.4545-22.2249C136.2878,159.2684,131.7173,153.5052,124.1814,150.5533z"/>
				<path style="fill:#95B9FF;" d="M122.6823,149.0488c-0.0799-0.0506-0.1634-0.0954-0.2379-0.1536
					c-4.5619,6.6991-8.7013,15.5362-11.6856,22.7599c-1.954,4.7299-12.8597,30.254-15.1222,36.7481
					c-3.3185-6.4941-17.9572-29.3516-17.9572-29.3516c0,0.9694-0.3247,1.9596-0.8698,2.9467
					c0.1077,0.3854,0.1797,0.8037,0.2082,1.2659c0.2344,3.8057,6.4764,10.3429,10.3228,17.1306
					c3.8464,6.7877,6.3351,8.0792,7.919,12.0717c1.5837,3.9925,2.4887,4.8975,2.0361,6.9338c0,0,1.3649-4.9826,0.3431-7.1295
					s1.0144-5.0883,4.6346-12.3285c3.62-7.2402,13.1228-35.2058,16.5167-39.5497c2.1017-2.6899,3.3648-6.5396,5.111-9.9824
					C123.2896,150.0894,122.8896,149.6025,122.6823,149.0488z"/>
				<path style="opacity:0.4;fill:#545454;" d="M82.5931,237.6044c7.9011,9.1462,14.5519,7.7937,22.2446,3.1177
					c5.7838-3.5156,32.1031-42.6697,34.0281-52.4487c0.2531-1.2859,0.4437-3.1607,0.5671-5.4308
					c-1.8891,1.758-3.4584,3.189-4.4081,3.9987c-4.5809,3.9054-17.1397,29.3542-23.0223,37.952
					c-5.8827,8.5977-9.2765,12.007-15.3854,15.6271c-6.1089,3.6201-9.2688-0.2262-14.2464-5.6564
					c-4.9776-5.4302-17.2988-39.8663-18.8519-41.2451c-0.3542-0.3144-0.6217-0.5843-0.8399-0.8697
					c-1.0256,0.5536-1.6686,0.8685-1.6686,0.8685S72.156,225.5224,82.5931,237.6044z"/>
			</g>
			<path style="fill:#DEE0E2;stroke:#575A5B;stroke-miterlimit:10;" d="M186.3163,128.1671l-32.8103,36.7378
				c0,0-5.0784,89.9534-3.7058,100.0186c9.308,5.728,44.6256,6.279,44.6256,6.279l8.7166-122.6294L186.3163,128.1671z"/>
			<path style="fill:#DEE0E2;stroke:#575A5B;stroke-miterlimit:10;" d="M149.0842,136.0432l4.4218,28.8618
				c0,0-5.0784,89.9534-3.7058,100.0186c-15.036,0-22.1961-10.024-22.1961-10.024s-7.518-102.3883-2.148-106.3264
				C130.8261,144.6352,149.0842,136.0432,149.0842,136.0432z"/>
			<path style="fill:#619BBC;stroke:#2F4A56;stroke-linecap:round;stroke-linejoin:round;stroke-miterlimit:10;" d="
				M190.3736,129.3605c0.8578,3.5204,27.5661,20.5254,33.6286,26.7784c1.1,6.0492-6.0318,31.7439-7.6174,43.0048
				c-0.4971,3.5335-8.7467,36.303-11.0945,55.7558c-3.3413,27.6854,9.0694,36.2775,11.456,52.0295
				c2.0225,13.3487-38.1868,9.5467-38.1868,9.5467c-5.728-33.8908-21.0027-34.8455-20.2245-42.3107
				c-1.8758-6.2209,6.3408-56.1618,8.7564-72.7688C169.507,184.7893,184.4207,139.6523,190.3736,129.3605z"/>
			<path style="opacity:0.4;fill:#545454;" d="M188.9416,127.2125c0.8578,3.5204,3.938,4.0573,10.0005,10.3104
				c1.1,6.0492-1.0198,18.1398-2.6054,29.4008c-0.4971,3.5335-11.6385,6.0884-11.6385,6.0884l10.4307,9.9147
				c-12.0778,17.8148-33.1998,59.2223-35.5862,79.7479c-0.1874,1.611-1.2432-0.5941-1.2077-2.1136
				c0.1516-6.4958,9.9208-58.3098,12.3364-74.9168S182.9887,137.5042,188.9416,127.2125z"/>
			<path style="fill:#619BBC;stroke:#2F4A56;stroke-linecap:round;stroke-linejoin:round;stroke-miterlimit:10;" d="
				M186.7936,122.9165c0.8578,3.5204,3.938,4.0574,10.0005,10.3104c1.1,6.0492-1.7358,21.7198-3.3214,32.9808
				c-0.4971,3.5335-11.6385,6.0884-11.6385,6.0884l10.4307,9.9147c-12.0778,17.8148-30.3902,58.0929-32.7766,78.6186
				c-0.1874,1.611-0.3736-0.8967-0.4373-3.1323c-0.1849-6.4949,6.3408-56.1618,8.7564-72.7688
				C170.223,168.3213,180.8407,133.2082,186.7936,122.9165z"/>
			<path style="opacity:0.4;fill:#545454;" d="M127.2461,148.5732c-4.2516,0.9448-4.654,3.58-4.296,6.802
				c0.358,3.222,1.432,24.7021-1.432,39.0221c-2.864,14.3201,1.79,41.8861-1.432,52.9842
				c-3.222,11.0981-6.8535,24.9939-6.8535,24.9939s6.5528,0.9352,9.6482,0.2473c4.2851-0.9522,3.7654-7.2421,9.1143-12.3817
				c6.2384-5.9942,7.6842-27.8701,9.4742-43.6221c1.79-15.7521,5.4669-77.3538,5.4669-77.3538S133.6902,147.1412,127.2461,148.5732z
				"/>
			<path style="fill:#619BBC;stroke:#2F4A56;stroke-linecap:round;stroke-linejoin:round;stroke-miterlimit:10;" d="
				M125.0981,147.1412c-4.2516,0.9448-4.654,3.58-4.296,6.802s1.432,24.7021-1.432,39.0221
				c-2.864,14.3201,1.79,41.8861-1.432,52.9842c-3.222,11.0981-4.8702,26.5176-4.8702,26.5176s4.5695-0.5886,7.6649-1.2764
				c4.2851-0.9522,3.7654-7.2421,9.1143-12.3817c6.2384-5.9942,6.3491-26.8216,8.1391-42.5737s6.802-78.4023,6.802-78.4023
				S131.5421,145.7092,125.0981,147.1412z"/>
			<path style="opacity:0.4;fill:#545454;" d="M216.3248,304.6883c-3.1385-14.3857-14.2137-23.4465-11.0345-49.7887
				c1.0766-8.9206,3.3943-20.6405,5.6364-31.0582c-1.5269-22.3183-2.7612-40.1585-2.7612-40.1585
				c0.0482-7.6081-2.4543-15.6806,0.2923-19.2337l-0.5706,0.2129c0,0-7.3593,12.0996-7.3593,28.8061
				c0.1273,8.158,1.0855,52.7457-0.5852,70.6458s10.0409,50.6747,14.3201,48.2108c0.2536-0.1461,0.4779-0.2417,0.6824-0.3441
				c0.4418-0.4144,0.8119-0.8626,1.1054-1.345c0.1711-0.4628,0.3358-1.0949,0.5048-1.9965
				C216.5008,307.6299,216.4225,306.2928,216.3248,304.6883z"/>
			<path style="fill:#619BBC;stroke:#2F4A56;stroke-linecap:round;stroke-linejoin:round;stroke-miterlimit:10;" d="
				M147.6522,132.4632c0,0-16.826,21.4801-15.752,24.7021l8.234,7.16l-12.9841,6.6585c-0.4456,0.202-0.8653,0.998-0.4986,1.8244
				c2.7668,6.2357,11.4129,35.6597,6.6807,70.9934c0,0,6.802-19.3321,8.592-43.3181S144.0722,139.9812,147.6522,132.4632z"/>
			<g>
				<path style="opacity:0.4;fill:#545454;" d="M142.9695,181.2241l-35.9756,13.5907c-1.969,0.744-2.8745,3.0185-1.955,4.9121
					l28.6058,58.9324c0.8077,1.6634,2.7487,2.4382,4.48,1.7878l31.0265-11.6595c1.8655-0.7013,2.7996-2.7913,2.0774-4.6484
					l-23.6568-60.8634C146.8599,181.4457,144.807,180.53,142.9695,181.2241z"/>
				<path style="fill:#9DB2AA;stroke:#6F7B7F;stroke-miterlimit:10;" d="M143.2722,179.2081l-35.9756,13.5908
					c-1.969,0.7439-2.8745,3.0185-1.9557,4.912l28.6058,58.9324c0.8076,1.6635,2.7494,2.4382,4.4799,1.7879l31.0272-11.6602
					c1.8655-0.7007,2.799-2.7906,2.0774-4.6477l-23.6574-60.8634C147.1627,179.4295,145.1091,178.5138,143.2722,179.2081z"/>
				<g style="opacity:0.4;">
					<path style="fill:#545454;" d="M182.3894,234.2802c0,0-4.296,0.9551-7.876,1.1936c-3.58,0.2384-8.2725-2.1207-14.2389-1.8823
						c-5.9664,0.2384-6.0476-4.3233-8.6732-12.1993c-2.6255-7.876-0.8355-14.9165,4.654-15.3941
						c5.4896-0.4769,10.1436-0.5964,16.826,5.37c6.6825,5.9672,10.74,5.4896,10.74,5.4896L182.3894,234.2802z"/>
					<path style="fill:#545454;" d="M160.4318,206.1177c-4.5589-0.0601-18.7497-1.2824-20.4243,0.6818
						c-1.6754,1.9648-9.4304,6.8384-13.0195,10.4729c-1.9117,1.9361,4.696,2.9605,7.4718,1.8474
						c2.7759-1.1125,7.2831-4.6638,9.7373-5.0938c2.4543-0.4293,9.6206-0.0602,9.6206-0.0602"/>
					<path style="fill:#545454;" d="M154.4031,213.1162c-5.6762,1.1334-13.4264,2.9654-14.3808,4.5624
						c-1.325,2.2159-8.1599,8.3131-11.0939,12.4944c-1.5627,2.2277,5.1239,2.1376,7.6754,0.5776
						c2.5514-1.5593,6.4041-5.8112,8.7529-6.644c1.6235-0.5755,5.5322-1.1495,7.79-1.4488"/>
					<path style="fill:#545454;" d="M155.7281,217.9933c-5.1071,1.4474-11.1351,3.4688-11.8805,4.9498
						c-1.0978,2.1802-7.2865,9.7422-9.7674,13.8858c-1.3215,2.2074,4.9778,1.6649,7.2775,0.0203
						c2.2997-1.6452,5.8021-7.2628,7.9599-8.2088c1.0789-0.4727,5.3672-1.481,7.3027-1.9166"/>
					<path style="fill:#545454;" d="M156.9007,226.6384c-4.2492,1.3746-8.8577,3.1388-9.4367,4.375
						c-0.9166,1.9578-6.2062,8.8081-8.299,12.5385c-1.1145,1.9878,4.4492,1.3494,6.444-0.1643
						c1.9949-1.5146,4.9547-6.5762,6.8412-7.4677c1.8872-0.8909,7.7557-2.1816,7.7557-2.1816"/>
					<path style="fill:#545454;" d="M175.7699,213.691c-3.8156-2.2529-2.2109-10.9149-5.791-13.3013
						c-3.58-2.3864-6.444-1.432-12.888-10.024c-4.8602-6.4807-6.444,5.2504-1.1936,10.5016c2.576,2.576,5.728,5.2505,5.728,5.2505"
						/>
				</g>
				<path style="fill:#619BBC;stroke:#2F4A56;stroke-miterlimit:10;" d="M224.1343,156.3587c0,0,11.4651,79.0278,11.0561,86.808
					c-0.4098,7.7802-18.0168,5.9406-18.0168,5.9406s-9.4178,2.2515-11.0561-4.3002c-1.6376-6.5517-4.0947-63.0613-4.0947-63.0613
					c0.0776-12.2336,9.4444-20.6638,9.4444-20.6638"/>
				<path style="opacity:0.4;fill:#545454;" d="M179.6932,245.0077c-4.7246-4.9093-5.2211-9.936-4.7372-14.7766
					c0.4839-4.84,2.8213-17.5575,6.3504-16.733c2.3815-0.1399,19.6075,1.9865,25.5292,2.3347
					c0.7076,0.0412,1.3887,0.1175,2.0564,0.2104c-2.0277,10.6967-3.3654,20.2894-3.2144,25.8509
					c0.0783,2.9074,0.1832,5.7749,0.3035,11.375C201.8761,253.269,180.3701,245.7104,179.6932,245.0077z"/>
				<path style="fill:#273F49;stroke:#2F4A56;stroke-linecap:round;stroke-linejoin:round;stroke-miterlimit:10;" d="
					M177.1131,227.3754c0.4839-4.8407,1.9501-15.4171,5.4791-14.5921c6.3978,2.3585,7.1229,11.8672,6.9293,18.2119
					c-0.2979,9.7303-2.9598,10.4526-6.7797,11.3302c-0.8349,0.1922-1.983-0.8558-2.6598-1.5586
					C175.3574,235.8584,176.6292,232.2155,177.1131,227.3754z"/>
				<g>
					<path style="fill:#FFA96A;stroke:#6B4429;stroke-linecap:round;stroke-linejoin:round;stroke-miterlimit:10;" d="
						M181.6734,232.8482c0,0-4.296,0.9551-7.876,1.1936c-3.58,0.2384-8.2725-2.1207-14.2389-1.8823
						c-5.9664,0.2384-6.0476-4.3233-8.6732-12.1993c-2.6255-7.876-0.8355-14.9165,4.654-15.394
						c5.4896-0.4769,10.1436-0.5964,16.826,5.37c6.6825,5.9672,10.74,5.4896,10.74,5.4896L181.6734,232.8482z"/>
					<path style="fill:#FFA96A;stroke:#6B4429;stroke-linecap:round;stroke-linejoin:round;stroke-miterlimit:10;" d="
						M159.7158,204.6857c-4.5589-0.0601-18.7497-1.2824-20.4243,0.6818c-1.6754,1.9648-9.4304,6.8384-13.0195,10.4729
						c-1.9117,1.9361,4.696,2.9605,7.4718,1.8474c2.7759-1.1125,7.2831-4.6638,9.7373-5.0938
						c2.4543-0.4293,9.6207-0.0602,9.6207-0.0602"/>
					<path style="fill:#FFA96A;stroke:#6B4429;stroke-linecap:round;stroke-linejoin:round;stroke-miterlimit:10;" d="
						M153.6871,211.6842c-5.6762,1.1334-13.4264,2.9654-14.3808,4.5624c-1.325,2.2159-8.1599,8.3131-11.0939,12.4944
						c-1.5627,2.2277,5.1239,2.1376,7.6754,0.5776c2.5514-1.5593,6.4041-5.8112,8.7529-6.644
						c1.6235-0.5754,5.5322-1.1495,7.79-1.4488"/>
					<path style="fill:#FFA96A;stroke:#6B4429;stroke-linecap:round;stroke-linejoin:round;stroke-miterlimit:10;" d="
						M155.0121,216.5613c-5.1071,1.4474-11.1351,3.4688-11.8805,4.9498c-1.0978,2.1802-7.2865,9.7422-9.7674,13.8858
						c-1.3215,2.2074,4.9778,1.6649,7.2775,0.0203c2.2997-1.6452,5.8021-7.2628,7.9599-8.2088
						c1.0789-0.4727,5.3672-1.481,7.3027-1.9166"/>
					<path style="fill:#FFA96A;stroke:#6B4429;stroke-linecap:round;stroke-linejoin:round;stroke-miterlimit:10;" d="
						M156.1847,225.2064c-4.2492,1.3746-8.8577,3.1388-9.4367,4.375c-0.9166,1.9578-6.2062,8.8081-8.299,12.5385
						c-1.1145,1.9878,4.4492,1.3494,6.444-0.1643c1.9949-1.5146,4.9547-6.5762,6.8412-7.4677
						c1.8872-0.8908,7.7558-2.1816,7.7558-2.1816"/>
					
						<path style="fill:#FFA96A;stroke:#6B4429;stroke-width:0.9149;stroke-linecap:round;stroke-linejoin:round;stroke-miterlimit:10;" d="
						M175.0539,212.259c-3.4911-2.0606-2.4598-8.8934-5.735-11.0771c-3.2752-2.1837-5.4581-2.4018-11.354-10.2625
						c-4.4463-5.9287-5.8951,4.8036-1.0915,9.6072c2.3564,2.3571,3.808,4.8037,3.808,4.8037"/>
				</g>
				<path style="fill:#DEE0E2;stroke:#575A5B;stroke-miterlimit:10;" d="M205.2931,216.313c0,0-18.6433-1.9075-21.0633-1.181
					c-2.42,0.7258-4.617-0.5034-4.617-0.5034s2.9214,3.724,1.6285,11.0735c-0.8775,4.9847-2.4899,7.7236-5.3944,8.2075
					c-2.9039,0.4845,0.3181,1.4621,2.7381,2.6724c2.42,1.2096,27.7975,6.7363,34.9366,5.526
					C220.6613,240.8983,205.2931,216.313,205.2931,216.313z"/>
				<path style="fill:#619BBC;stroke:#2F4A56;stroke-linecap:round;stroke-linejoin:round;stroke-miterlimit:10;" d="
					M233.1424,246.8515c0,0-2.8661,4.5044-7.3697,5.7329c-4.4338,1.209-35.4764-4.4275-43.0308-10.259
					c3.8199-0.8775,6.4818-2.3158,6.7797-12.0462c0.1937-6.3448-0.5314-15.1374-6.9293-17.4959
					c2.3815-0.1405,20.4697,1.9851,26.3913,2.3333c13.9222,0.8188,20.0649,12.284,20.0649,12.284"/>
				<path style="fill:#95B9FF;" d="M220.5543,159.9387l3.58-3.58c0,0,11.4651,79.0278,11.0561,86.808
					c-0.1244,2.3599-1.8347,4.2275-4.1527,5.6874c0.3293-0.6544,0.2175-1.4432,0.5727-2.1074
					C235.3568,239.7363,221.7276,160.2093,220.5543,159.9387z"/>
				<path style="fill:#95B9FF;" d="M212.6042,217.7248c-5.8301-1.1663-25.5482-3.6947-28.0073-3.8149
					c-0.4874-0.3818-1.0216-0.7048-1.6048-0.9594l-0.0433-0.1867c2.3955-0.1217,20.3984,2.0214,26.0348,2.3528
					c13.9222,0.8188,20.0649,12.284,20.0649,12.284c0.2314-0.2735,1.2698,1.2907,1.5732,3.7177
					c0.1489,1.1929-1.2894-1.4411-1.2894-1.4411S220.5432,219.3127,212.6042,217.7248z"/>
			</g>
			<g>
				<path style="fill:#FFA96A;stroke:#6B4429;stroke-miterlimit:10;" d="M185.1452,96.8077c0,0-3.4828,33.5074-0.7412,39.5099
					c-0.0566,2.5896-28.2618,20.1281-31.581,28.2719c-3.9926-9.1126-2.5228-14.7633-2.5228-18.8549l0.4769-29.1173L185.1452,96.8077
					z"/>
				<path style="fill:#CE8452;" d="M185.1452,96.8077c0.4552-3.8439-34.3681,19.8096-34.3681,19.8096l-0.1049,6.4119
					c2.1774,2.2239,12.8398,4.0544,14.8382,4.1835c5.6553,0.3647,6.9782-2.9371,11.0204-8.592
					C181.7812,111.2757,185.1452,96.8077,185.1452,96.8077"/>
				<path style="fill:#C6C6C6;stroke:#575A5B;stroke-linecap:round;stroke-linejoin:round;stroke-miterlimit:10;" d="
					M166.5319,147.1412c-7.4237,6.0392-13.7481,18.8548-13.7481,18.8548c8.592-10.2628,21.5835-13.4373,21.5835-13.4373
					S173.9548,141.102,166.5319,147.1412z"/>
				<g>
					<path style="fill:#FFA96A;stroke:#6B4429;stroke-miterlimit:10;" d="M167.6416,29.5616
						c-9.5919-0.4919-28.6576,9.343-28.4653,21.4451c0.1916,12.1021,2.0606,25.0947,2.0606,25.0947s-3.8072,7.0202-3.615,11.0544
						c0.1923,4.0338,1.1628,24.8335,4.0869,31.5387c1.8858,4.3244,22.8729,7.5635,26.125,5.5707
						c1.6124-0.9884,13.4467-14.7913,16.3282-24.9723c2.8815-10.1814,10.1807-39.764,5.7623-49.9454
						C185.5066,39.1665,182.6251,30.33,167.6416,29.5616z"/>
					<path style="fill:#FCBD92;" d="M141.4466,66.3776c-0.867-4.8798,0.8831-6.5384,0.8202-10.5267
						c-0.0699-4.4037-2.392-6.5108,1.095-10.7418c5.6847-6.8985,18.4441-14.7222,25.0874-15.4913
						c-0.2678-0.0195-0.5314-0.0423-0.8076-0.0563c-9.5919-0.4919-28.6576,9.343-28.4653,21.4451
						c0.1916,12.1021,2.0606,25.0947,2.0606,25.0947S141.8815,68.8264,141.4466,66.3776z"/>
					<path style="fill:#FCBD92;" d="M143.3618,117.3705c-2.9242-6.7051-3.3996-26.1809-3.5919-30.2147
						c-0.1922-4.0342,1.4669-11.0544,1.4669-11.0544s-3.8072,7.0202-3.615,11.0544c0.1923,4.0338,1.1628,24.8335,4.0869,31.5387
						c0.7272,1.668,4.2947,3.1741,8.5892,4.2803C155.9421,124.4284,144.8749,120.8411,143.3618,117.3705z"/>
					<path style="fill:#CE8452;" d="M165.6858,124.2651c-0.3489,0.2139-0.9125,0.3643-1.6257,0.4625
						c1.7725,0.0654,3.1318-0.0692,3.7737-0.4625c1.6124-0.9884,13.4467-14.7913,16.3282-24.9723
						c0.2364-0.8363,0.5028-1.8033,0.7901-2.8801C178.8388,110.3367,167.2982,123.2768,165.6858,124.2651z"/>
					<path style="opacity:0.4;fill:#3F4142;" d="M155.7352,42.5699c4.896-2.6354,11.4091-4.3946,18.9713-2.49
						c7.5628,1.9036,16.9924,13.4887,3.1548,26.1397c0,0-0.279-0.9229,0.2308-2.6756c0.5083-1.7533,7.5006-18.4021-5.2952-20.0351
						C160.0025,41.8762,155.7352,42.5699,155.7352,42.5699z"/>
					<path style="fill:#564F4C;stroke:#473F3D;stroke-miterlimit:10;" d="M164.4901,61.6768
						c-0.8027-1.7652,5.6553-2.1889,7.1145-2.0067c1.4593,0.1825,1.6418,2.0067,3.8311,2.3718
						c2.1892,0.365,2.5543,1.8242,2.0067,2.3714c-0.5475,0.5475-4.196,0.1825-6.5677-1.4593
						C168.503,61.3121,165.4019,63.6836,164.4901,61.6768z"/>
					<path style="fill:#CE8452;" d="M146.1111,92.5981c-0.0126,1.1558,0.2517,4.3893,4.4708,4.919
						c2.5815,0.3241,4.626-0.7073,5.9755-1.747"/>
					<path style="fill:#FFA96A;stroke:#6B4429;stroke-linecap:round;stroke-linejoin:round;stroke-miterlimit:10;" d="
						M156.0056,72.9156c-0.3724,2.6704-1.9555,8.231-5.7089,11.8561c-3.7534,3.624-6.6958,6.8611-3.6346,9.3472
						c3.0591,2.4854,5.7084,2.4028,8.2557,1.7876c1.8263-0.4413,2.2619-0.8331,2.2619-0.8331"/>
					<path style="fill:#CE8452;" d="M159.6082,113.5146c-2.0284-1.074-6.444-3.3412-10.382-1.5512"/>
					<path style="fill:#564F4C;stroke:#473F3D;stroke-linecap:round;stroke-linejoin:round;stroke-miterlimit:10;" d="
						M143.3786,40.0481c0,0-3.9604,6.2563-5.7504,7.1481s-2.5788,3.6576-0.7293,8.0582c2.2627,5.3843,4.338,20.8469,4.338,20.8469
						c0.0336-0.9118,0.1825-4.009-0.0286-4.7984c-0.9544-3.58-1.5921-9.1623-0.5972-13.4233
						c1.0691-4.5778-1.9089-4.7138-0.4769-10.2628C141.3753,42.808,145.4665,41.0029,143.3786,40.0481z"/>
					<path style="fill:#564F4C;stroke:#473F3D;stroke-miterlimit:10;" d="M201.0007,53.8043
						c0.7825,5.3078-1.6215,16.2268-4.4219,20.0921c-2.8004,3.866-7.2551,13.4586-7.2551,13.4586s-2.864,3.107-2.7689-0.5968
						c0.358-13.9173-1.3789-18.7045-2.4626-23.7246c-0.9922-4.596,4.489-6.767,2.966-12.2916
						C185.7374,45.9548,200.4867,50.3183,201.0007,53.8043z"/>
					<path style="fill:#564F4C;stroke:#473F3D;stroke-linecap:round;stroke-linejoin:round;stroke-miterlimit:10;" d="
						M184.4899,42.9412c-0.9977-1.3145,6.9559-6.2695,9.3444-6.3031c2.3879-0.0336,7.9473,12.2615,7.9488,16.7068
						c0.0042,11.4952-6.6923,15.3185-9.9772,11.4952C186.9764,59.2183,185.4885,44.2557,184.4899,42.9412z"/>
					
						<path style="fill:#564F4C;stroke:#473F3D;stroke-width:1.034;stroke-linecap:round;stroke-linejoin:round;stroke-miterlimit:10;" d="
						M139.8766,45.6636c0,0-0.9127-13.7334,9.5549-18.7729c10.4698-5.0399,19.3741-6.4507,32.3468,0.6147
						c12.9712,7.0665,12.0661,5.7986,12.5396,7.9355c0.4735,2.1372-7.5494,5.8977-10.9454,4.6575
						c-3.3952-1.2413-13.0862-4.3257-23.3282-0.6936C149.8016,43.0368,143.2132,48.7418,139.8766,45.6636z"/>
					<path style="fill:#726A67;" d="M152.1785,42.5198c2.2529-1.1099,4.7839-2.2857,7.6142-3.2889
						c2.4718-0.8773,4.9087-1.2904,7.229-1.4c0.0179-0.0227,0.0335-0.0423,0.0499-0.0642
						c5.5442-7.3304,15.8846-7.3757,23.2144-5.7752c-1.2948-0.9898-3.3205-1.5907-6.9186-3.6027
						C173.3372,29.0539,154.8345,31.3615,152.1785,42.5198z"/>
					<path style="fill:#726A67;" d="M148.6105,43.9641c0,0-2.666-9.8285,7.7876-14.4447
						c6.1988-2.7367,14.6998-3.9556,22.1126-3.6522c-1.2153-0.5557-2.3952-1.0364-3.5459-1.4402
						c-11.5326-0.2205-23.1037,2.0788-26.5448,5.8267c-5.0802,5.5322-4.1252,12.773-3.0179,15.5115
						c0.9777-0.3829,2.0486-0.8891,3.2174-1.466C148.613,44.0878,148.6105,43.9641,148.6105,43.9641z"/>
					<path style="fill:#564F4C;" d="M148.6105,43.9641c0,0,0.0025,0.1237,0.009,0.3353c1.0984-0.5441,2.2835-1.1507,3.559-1.7796
						c2.656-11.1583,21.1587-13.4659,31.1889-14.131c-0.7478-0.419-0.7104-0.4035-1.5891-0.8833
						c-1.1182-0.6089-2.2064-1.151-3.2676-1.6382c-7.4129-0.3035-15.9139,0.9155-22.1126,3.6522
						C145.9445,34.1355,148.6105,43.9641,148.6105,43.9641z"/>
					<path style="fill:#726A67;stroke:#473F3D;stroke-linecap:round;stroke-linejoin:round;stroke-miterlimit:10;" d="
						M156.1946,42.2699c4.8973-2.6357,11.0728-5.5217,18.6349-3.6174c7.5614,1.9043,16.9911,13.4897,3.1549,26.14
						c0,0-0.2797-0.9219,0.2293-2.6752c0.5084-1.753,7.6236-19.8289-5.1728-21.4622
						C160.2459,39.0231,156.1946,42.2699,156.1946,42.2699z"/>
					<path style="fill:#564F4C;stroke:#473F3D;stroke-linecap:round;stroke-linejoin:round;stroke-miterlimit:10;" d="
						M153.9941,42.8c0,0,10.1387-7.2177,22.252-6.0025c12.1113,1.2148,15.4304,6.5293,14.6529,15.6247
						c-0.7775,9.0958-7.8341,13.8827-7.8341,13.8827S189.1964,49.2223,182,43.0384C174.8044,36.8541,160.1696,39.9146,153.9941,42.8
						z"/>
					<path style="fill:#564F4C;stroke:#473F3D;stroke-miterlimit:10;" d="M155.8625,61.2891c0,0-1.3236-2.5623-6.6182-2.879
						c-5.293-0.316-6.8531,4.633-6.8531,4.633s0.858,0.4783,2.399-0.058c1.5418-0.5364,6.1168-1.7844,7.8795-1.1891
						C154.4319,62.3921,155.8625,61.2891,155.8625,61.2891z"/>
					
						<path style="fill:#FFA96A;stroke:#6B4429;stroke-width:0.8981;stroke-linecap:round;stroke-linejoin:round;stroke-miterlimit:10;" d="
						M144.1918,102.749c2.3864,2.148,12.144,5.4892,19.9145,0.4772"/>
					<path style="fill:#FFA96A;stroke:#6B4429;stroke-width:0.7398;stroke-miterlimit:10;" d="M186.282,81.1952
						c0,0,5.1897-6.1892,8.4243-3.057c3.236,3.1329-1.0853,15.9674-5.0623,19.2951c-3.9772,3.3273-5.0729-1.2879-5.0729-1.2879"/>
					<path style="fill:#FFA96A;stroke:#6B4429;stroke-width:0.7398;stroke-miterlimit:10;" d="M190.3781,83.4768
						c2.664-0.5664,1.3697,4.9431-0.73,5.9622c-2.0997,1.0184-1.5501,3.88-1.4579,5.0942"/>
				</g>
				<path style="fill:#DEE0E2;stroke:#575A5B;stroke-linecap:round;stroke-linejoin:round;stroke-miterlimit:10;" d="
					M183.5712,119.8139c0,0,0.8356,1.1247-1.6704,5.6339c-2.506,4.5093-15.2745,21.0966-15.2745,21.0966s-0.716,1.0744,1.79,1.1936
					c2.506,0.1192,7.1593,6.5636,10.1429,9.308c2.9836,2.7444,7.6383,5.2113,9.9052,4.5747
					c2.2669-0.6367-3.222-4.4555-2.9836-10.1835c0.2384-5.728,0.1196-13.7233,1.5516-18.3773S188.702,120.0527,183.5712,119.8139z"
					/>
				<path style="fill:#C6C6C6;stroke:#575A5B;stroke-linecap:round;stroke-linejoin:round;stroke-miterlimit:10;" d="
					M147.1516,146.9028c1.3124,3.222,0.5006,8.1145,1.9326,11.3365c1.432,3.222,3.7003,5.6088,3.6996,7.7568
					s0.3573-7.8079-1.0747-11.4815c-1.432-3.6738-0.9544-29.0667-0.9544-29.0667s-3.3416,6.0126-3.3416,10.1538
					S145.8391,143.6808,147.1516,146.9028z"/>
				<path style="fill:#DEE0E2;stroke:#575A5B;stroke-miterlimit:10;" d="M150.7546,125.4478c0,0-4.6533,9.1633-7.3985,11.5501
					c-2.7452,2.3868-7.0405,20.2952-4.654,26.7351c0,0,0.358-5.6641,2.864-9.2185c2.506-3.5545,5.8469-8.447,6.2049-10.8338
					S147.8906,132.9911,150.7546,125.4478z"/>
			</g>
			<g>
				<path style="fill:#452109;" d="M176.9228,78.2192c0,0,0.6262-5.1435-4.2019-5.5114c-4.8281-0.3679-9.1094-1.0829-9.9323,4.0959
					C162.3992,78.3814,171.2338,79.9823,176.9228,78.2192z"/>
				<path style="fill:#FFFFFF;" d="M176.7926,79.3204c0,0,0.144-4.6516-4.684-5.0195s-9.1536,0.1356-9.529,3.3389
					C162.19,79.2176,171.1036,81.0835,176.7926,79.3204z"/>
				<g>
					<defs>
						<path id="SVGID_13_" d="M176.7926,79.3204c0,0,0.144-4.6516-4.684-5.0195s-9.1536,0.1356-9.529,3.3389
							C162.19,79.2176,171.1036,81.0835,176.7926,79.3204z"/>
					</defs>
					<clipPath id="SVGID_4_">
						<use xlink:href="#SVGID_13_"  style="overflow:visible;"/>
					</clipPath>
					
						<ellipse transform="matrix(0.1174 -0.9931 0.9931 0.1174 72.793 236.3985)" style="clip-path:url(#SVGID_4_);fill:#A85715;" cx="169.395" cy="77.2457" rx="3.8841" ry="3.8841"/>
					
						<ellipse transform="matrix(0.1174 -0.9931 0.9931 0.1174 72.793 236.3985)" style="clip-path:url(#SVGID_4_);fill:#3D1800;" cx="169.395" cy="77.2457" rx="1.9677" ry="1.9677"/>
					
						<ellipse transform="matrix(0.1174 -0.9931 0.9931 0.1174 71.2786 233.657)" style="clip-path:url(#SVGID_4_);fill:#FFFFFF;" cx="167.0954" cy="76.727" rx="1.0018" ry="1.0018"/>
				</g>
				<path style="fill:#452109;" d="M141.3893,74.7247c0,0,0.2651-4.5865,4.5356-4.1457c4.2705,0.4408,8.1187,0.4924,8.0195,5.1407
					C154.0354,77.1577,146.0747,77.1606,141.3893,74.7247z"/>
				<path style="fill:#FFFFFF;" d="M141.3292,75.706c0,0,0.6082-4.0812,4.8787-3.6404s7.965,1.5625,7.7871,4.4166
					C154.086,77.9203,146.0146,78.1419,141.3292,75.706z"/>
				<g>
					<defs>
						<path id="SVGID_15_" d="M141.3292,75.706c0,0,0.6082-4.0812,4.8787-3.6404s7.965,1.5625,7.7871,4.4166
							C154.086,77.9203,146.0146,78.1419,141.3292,75.706z"/>
					</defs>
					<clipPath id="SVGID_6_">
						<use xlink:href="#SVGID_15_"  style="overflow:visible;"/>
					</clipPath>
					
						<ellipse transform="matrix(0.0612 -0.9981 0.9981 0.0612 64.1287 218.305)" style="clip-path:url(#SVGID_6_);fill:#A85715;" cx="148.1108" cy="75.063" rx="3.4438" ry="3.4438"/>
					
						<ellipse transform="matrix(0.0612 -0.9981 0.9981 0.0612 64.1287 218.305)" style="clip-path:url(#SVGID_6_);fill:#3D1800;" cx="148.1108" cy="75.063" rx="1.7828" ry="1.7828"/>
					
						<ellipse transform="matrix(0.0612 -0.9981 0.9981 0.0612 63.5748 214.6727)" style="clip-path:url(#SVGID_6_);fill:#FFFFFF;" cx="145.903" cy="73.5413" rx="0.8882" ry="0.8882"/>
				</g>
			</g>
			<path style="fill:#619BBC;stroke:#2F4A56;stroke-linecap:round;stroke-linejoin:round;stroke-miterlimit:10;" d="
				M216.7464,306.9291c-0.1157-0.7642-0.2615-1.5073-0.4215-2.2408c0.0976,1.6045,0.1759,2.9417,0.2307,3.9507
				c-0.169,0.9016-0.3337,1.5337-0.5048,1.9965C216.6943,309.5772,216.9619,308.3513,216.7464,306.9291z"/>
			<path style="opacity:0.4;fill:#545454;" d="M216.0507,310.6355c-0.2935,0.4824-0.6636,0.9306-1.1054,1.345
				C215.3865,311.7595,215.7308,311.5005,216.0507,310.6355z"/>
		</g>
	</g>
</g>
</svg>
