<?xml version="1.0" encoding="utf-8"?>
<!-- Generator: Adobe Illustrator 21.0.2, SVG Export Plug-In . SVG Version: 6.00 Build 0)  -->
<svg version="1.1" id="Capa_1" xmlns="http://www.w3.org/2000/svg" xmlns:xlink="http://www.w3.org/1999/xlink" x="0px" y="0px"
	 viewBox="0 0 301.5944 132.8135" style="enable-background:new 0 0 301.5944 132.8135;" xml:space="preserve">
<g>
	<g>
		<g>
			
				<line style="fill:none;stroke:#8562A3;stroke-width:1.8245;stroke-linecap:round;stroke-miterlimit:10;" x1="32.3855" y1="1.7364" x2="32.3855" y2="131.9012"/>
			
				<line style="fill:#348EA9;stroke:#8562A3;stroke-width:1.8245;stroke-linecap:round;stroke-miterlimit:10;" x1="300.6821" y1="131.9012" x2="32.4967" y2="131.9012"/>
			<g>
				<g>
					
						<line style="fill:none;stroke:#8562A3;stroke-width:0.4561;stroke-linecap:round;stroke-miterlimit:10;" x1="32.3855" y1="1.7365" x2="34.21" y2="1.7365"/>
					
						<line style="fill:none;stroke:#8562A3;stroke-width:0.4561;stroke-linecap:round;stroke-miterlimit:10;stroke-dasharray:3.6053,3.6053;" x1="37.8152" y1="1.7365" x2="295.5911" y2="1.7365"/>
					
						<line style="fill:none;stroke:#8562A3;stroke-width:0.4561;stroke-linecap:round;stroke-miterlimit:10;" x1="297.3938" y1="1.7365" x2="299.2183" y2="1.7365"/>
				</g>
			</g>
			<g>
				<g>
					
						<line style="fill:none;stroke:#8562A3;stroke-width:0.4561;stroke-linecap:round;stroke-miterlimit:10;" x1="32.3855" y1="9.8961" x2="34.21" y2="9.8961"/>
					
						<line style="fill:none;stroke:#8562A3;stroke-width:0.4561;stroke-linecap:round;stroke-miterlimit:10;stroke-dasharray:3.6053,3.6053;" x1="37.8152" y1="9.8961" x2="295.5911" y2="9.8961"/>
					
						<line style="fill:none;stroke:#8562A3;stroke-width:0.4561;stroke-linecap:round;stroke-miterlimit:10;" x1="297.3938" y1="9.8961" x2="299.2183" y2="9.8961"/>
				</g>
			</g>
			<g>
				<g>
					
						<line style="fill:none;stroke:#8562A3;stroke-width:0.4561;stroke-linecap:round;stroke-miterlimit:10;" x1="32.3855" y1="18.0495" x2="34.21" y2="18.0495"/>
					
						<line style="fill:none;stroke:#8562A3;stroke-width:0.4561;stroke-linecap:round;stroke-miterlimit:10;stroke-dasharray:3.6053,3.6053;" x1="37.8152" y1="18.0495" x2="295.5911" y2="18.0495"/>
					
						<line style="fill:none;stroke:#8562A3;stroke-width:0.4561;stroke-linecap:round;stroke-miterlimit:10;" x1="297.3938" y1="18.0495" x2="299.2183" y2="18.0495"/>
				</g>
			</g>
			<g>
				<g>
					
						<line style="fill:none;stroke:#8562A3;stroke-width:0.4561;stroke-linecap:round;stroke-miterlimit:10;" x1="32.3855" y1="26.206" x2="34.21" y2="26.206"/>
					
						<line style="fill:none;stroke:#8562A3;stroke-width:0.4561;stroke-linecap:round;stroke-miterlimit:10;stroke-dasharray:3.6053,3.6053;" x1="37.8152" y1="26.206" x2="295.5911" y2="26.206"/>
					
						<line style="fill:none;stroke:#8562A3;stroke-width:0.4561;stroke-linecap:round;stroke-miterlimit:10;" x1="297.3938" y1="26.206" x2="299.2183" y2="26.206"/>
				</g>
			</g>
			<g>
				<g>
					
						<line style="fill:none;stroke:#8562A3;stroke-width:0.4561;stroke-linecap:round;stroke-miterlimit:10;" x1="299.2183" y1="34.3534" x2="297.3938" y2="34.3534"/>
					
						<line style="fill:none;stroke:#8562A3;stroke-width:0.4561;stroke-linecap:round;stroke-miterlimit:10;stroke-dasharray:3.6053,3.6053;" x1="293.7885" y1="34.3534" x2="36.0126" y2="34.3534"/>
					
						<line style="fill:none;stroke:#8562A3;stroke-width:0.4561;stroke-linecap:round;stroke-miterlimit:10;" x1="34.21" y1="34.3534" x2="32.3855" y2="34.3534"/>
				</g>
			</g>
			<g>
				<g>
					
						<line style="fill:none;stroke:#8562A3;stroke-width:0.4561;stroke-linecap:round;stroke-miterlimit:10;" x1="32.3855" y1="42.5131" x2="34.21" y2="42.5131"/>
					
						<line style="fill:none;stroke:#8562A3;stroke-width:0.4561;stroke-linecap:round;stroke-miterlimit:10;stroke-dasharray:3.6053,3.6053;" x1="37.8152" y1="42.5131" x2="295.5911" y2="42.5131"/>
					
						<line style="fill:none;stroke:#8562A3;stroke-width:0.4561;stroke-linecap:round;stroke-miterlimit:10;" x1="297.3938" y1="42.5131" x2="299.2183" y2="42.5131"/>
				</g>
			</g>
			<g>
				<g>
					
						<line style="fill:none;stroke:#8562A3;stroke-width:0.4561;stroke-linecap:round;stroke-miterlimit:10;" x1="32.3855" y1="50.6711" x2="34.21" y2="50.6711"/>
					
						<line style="fill:none;stroke:#8562A3;stroke-width:0.4561;stroke-linecap:round;stroke-miterlimit:10;stroke-dasharray:3.6053,3.6053;" x1="37.8152" y1="50.6711" x2="295.5911" y2="50.6711"/>
					
						<line style="fill:none;stroke:#8562A3;stroke-width:0.4561;stroke-linecap:round;stroke-miterlimit:10;" x1="297.3938" y1="50.6711" x2="299.2183" y2="50.6711"/>
				</g>
			</g>
			<g>
				<g>
					
						<line style="fill:none;stroke:#8562A3;stroke-width:0.4561;stroke-linecap:round;stroke-miterlimit:10;" x1="32.3855" y1="58.8229" x2="34.21" y2="58.8229"/>
					
						<line style="fill:none;stroke:#8562A3;stroke-width:0.4561;stroke-linecap:round;stroke-miterlimit:10;stroke-dasharray:3.6053,3.6053;" x1="37.8152" y1="58.8229" x2="295.5911" y2="58.8229"/>
					
						<line style="fill:none;stroke:#8562A3;stroke-width:0.4561;stroke-linecap:round;stroke-miterlimit:10;" x1="297.3938" y1="58.8229" x2="299.2183" y2="58.8229"/>
				</g>
			</g>
			<g>
				<g>
					
						<line style="fill:none;stroke:#8562A3;stroke-width:0.4561;stroke-linecap:round;stroke-miterlimit:10;" x1="32.3855" y1="66.9796" x2="34.21" y2="66.9796"/>
					
						<line style="fill:none;stroke:#8562A3;stroke-width:0.4561;stroke-linecap:round;stroke-miterlimit:10;stroke-dasharray:3.6053,3.6053;" x1="37.8152" y1="66.9796" x2="295.5911" y2="66.9796"/>
					
						<line style="fill:none;stroke:#8562A3;stroke-width:0.4561;stroke-linecap:round;stroke-miterlimit:10;" x1="297.3938" y1="66.9796" x2="299.2183" y2="66.9796"/>
				</g>
			</g>
			<g>
				<g>
					
						<line style="fill:none;stroke:#8562A3;stroke-width:0.4561;stroke-linecap:round;stroke-miterlimit:10;" x1="32.3855" y1="75.1269" x2="34.21" y2="75.1269"/>
					
						<line style="fill:none;stroke:#8562A3;stroke-width:0.4561;stroke-linecap:round;stroke-miterlimit:10;stroke-dasharray:3.6053,3.6053;" x1="37.8152" y1="75.1269" x2="295.5911" y2="75.1269"/>
					
						<line style="fill:none;stroke:#8562A3;stroke-width:0.4561;stroke-linecap:round;stroke-miterlimit:10;" x1="297.3938" y1="75.1269" x2="299.2183" y2="75.1269"/>
				</g>
			</g>
			<g>
				<g>
					
						<line style="fill:none;stroke:#8562A3;stroke-width:0.4561;stroke-linecap:round;stroke-miterlimit:10;" x1="32.3855" y1="83.288" x2="34.21" y2="83.288"/>
					
						<line style="fill:none;stroke:#8562A3;stroke-width:0.4561;stroke-linecap:round;stroke-miterlimit:10;stroke-dasharray:3.6053,3.6053;" x1="37.8152" y1="83.288" x2="295.5911" y2="83.288"/>
					
						<line style="fill:none;stroke:#8562A3;stroke-width:0.4561;stroke-linecap:round;stroke-miterlimit:10;" x1="297.3938" y1="83.288" x2="299.2183" y2="83.288"/>
				</g>
			</g>
			<g>
				<g>
					
						<line style="fill:none;stroke:#8562A3;stroke-width:0.4561;stroke-linecap:round;stroke-miterlimit:10;" x1="32.3855" y1="91.4398" x2="34.21" y2="91.4398"/>
					
						<line style="fill:none;stroke:#8562A3;stroke-width:0.4561;stroke-linecap:round;stroke-miterlimit:10;stroke-dasharray:3.6053,3.6053;" x1="37.8152" y1="91.4398" x2="295.5911" y2="91.4398"/>
					
						<line style="fill:none;stroke:#8562A3;stroke-width:0.4561;stroke-linecap:round;stroke-miterlimit:10;" x1="297.3938" y1="91.4398" x2="299.2183" y2="91.4398"/>
				</g>
			</g>
			<g>
				<g>
					
						<line style="fill:none;stroke:#8562A3;stroke-width:0.4561;stroke-linecap:round;stroke-miterlimit:10;" x1="32.3855" y1="99.5876" x2="34.21" y2="99.5876"/>
					
						<line style="fill:none;stroke:#8562A3;stroke-width:0.4561;stroke-linecap:round;stroke-miterlimit:10;stroke-dasharray:3.6053,3.6053;" x1="37.8152" y1="99.5876" x2="295.5911" y2="99.5876"/>
					
						<line style="fill:none;stroke:#8562A3;stroke-width:0.4561;stroke-linecap:round;stroke-miterlimit:10;" x1="297.3938" y1="99.5876" x2="299.2183" y2="99.5876"/>
				</g>
			</g>
			<g>
				<g>
					
						<line style="fill:none;stroke:#8562A3;stroke-width:0.4561;stroke-linecap:round;stroke-miterlimit:10;" x1="32.3855" y1="107.7409" x2="34.21" y2="107.7409"/>
					
						<line style="fill:none;stroke:#8562A3;stroke-width:0.4561;stroke-linecap:round;stroke-miterlimit:10;stroke-dasharray:3.6053,3.6053;" x1="37.8152" y1="107.7409" x2="295.5911" y2="107.7409"/>
					
						<line style="fill:none;stroke:#8562A3;stroke-width:0.4561;stroke-linecap:round;stroke-miterlimit:10;" x1="297.3938" y1="107.7409" x2="299.2183" y2="107.7409"/>
				</g>
			</g>
			<g>
				<g>
					
						<line style="fill:none;stroke:#8562A3;stroke-width:0.4561;stroke-linecap:round;stroke-miterlimit:10;" x1="32.3855" y1="115.8974" x2="34.21" y2="115.8974"/>
					
						<line style="fill:none;stroke:#8562A3;stroke-width:0.4561;stroke-linecap:round;stroke-miterlimit:10;stroke-dasharray:3.6053,3.6053;" x1="37.8152" y1="115.8974" x2="295.5911" y2="115.8974"/>
					
						<line style="fill:none;stroke:#8562A3;stroke-width:0.4561;stroke-linecap:round;stroke-miterlimit:10;" x1="297.3938" y1="115.8974" x2="299.2183" y2="115.8974"/>
				</g>
			</g>
			<g>
				<g>
					
						<line style="fill:none;stroke:#8562A3;stroke-width:0.4561;stroke-linecap:round;stroke-miterlimit:10;" x1="32.3855" y1="124.0509" x2="34.21" y2="124.0509"/>
					
						<line style="fill:none;stroke:#8562A3;stroke-width:0.4561;stroke-linecap:round;stroke-miterlimit:10;stroke-dasharray:3.6053,3.6053;" x1="37.8152" y1="124.0509" x2="295.5911" y2="124.0509"/>
					
						<line style="fill:none;stroke:#8562A3;stroke-width:0.4561;stroke-linecap:round;stroke-miterlimit:10;" x1="297.3938" y1="124.0509" x2="299.2183" y2="124.0509"/>
				</g>
			</g>
		</g>
		<g>
			<path style="fill:#8562A3;" d="M1.5029,1.0586H1.48L0.1938,1.7534L0,0.9907l1.6167-0.8652h0.8535v7.3989H1.5029V1.0586z"/>
			<path style="fill:#8562A3;" d="M10.0854,3.7451c0,2.5156-0.9336,3.9043-2.5728,3.9043c-1.4453,0-2.4243-1.3545-2.4473-3.8018
				C5.0654,1.3662,6.1357,0,7.6382,0C9.1978,0,10.0854,1.3892,10.0854,3.7451z M6.0674,3.8589c0,1.9238,0.5918,3.0166,1.5024,3.0166
				c1.0244,0,1.5142-1.1953,1.5142-3.0845c0-1.8213-0.4668-3.0166-1.5029-3.0166C6.7046,0.7744,6.0674,1.8442,6.0674,3.8589z"/>
			<path style="fill:#8562A3;" d="M15.9248,3.7451c0,2.5156-0.9336,3.9043-2.5728,3.9043c-1.4453,0-2.4243-1.3545-2.4473-3.8018
				C10.9048,1.3662,11.9751,0,13.4775,0C15.0371,0,15.9248,1.3892,15.9248,3.7451z M11.9067,3.8589
				c0,1.9238,0.5918,3.0166,1.5024,3.0166c1.0244,0,1.5142-1.1953,1.5142-3.0845c0-1.8213-0.4668-3.0166-1.5029-3.0166
				C12.5439,0.7744,11.9067,1.8442,11.9067,3.8589z"/>
			<path style="fill:#8562A3;" d="M20.1821,2.2085c0,1.5596-0.8198,2.3335-1.7759,2.3335c-0.9219,0-1.7188-0.7397-1.7305-2.231
				c0-1.48,0.8086-2.311,1.7871-2.311C19.499,0,20.1821,0.7969,20.1821,2.2085z M17.4727,2.2769
				c-0.0225,0.9448,0.3301,1.6621,0.9561,1.6621c0.6606,0,0.9565-0.7061,0.9565-1.6851c0-0.8989-0.2617-1.6504-0.9565-1.6504
				C17.8027,0.6035,17.4727,1.3433,17.4727,2.2769z M18.3379,7.6494L22.686,0h0.6377l-4.3481,7.6494H18.3379z M24.9971,5.2705
				c0,1.5596-0.8198,2.3335-1.7646,2.3335c-0.9219,0-1.7188-0.7397-1.73-2.2197c0-1.4912,0.8081-2.3218,1.7871-2.3218
				C24.3252,3.0625,24.9971,3.8589,24.9971,5.2705z M22.2876,5.3389c-0.0112,0.9448,0.353,1.6621,0.9678,1.6621
				c0.6602,0,0.9561-0.7061,0.9561-1.6851c0-0.8989-0.2617-1.6504-0.9561-1.6504C22.6294,3.6655,22.2876,4.4053,22.2876,5.3389z"/>
		</g>
		<g>
			<path style="fill:#8562A3;" d="M15.9248,128.1216c0,2.5156-0.9336,3.9043-2.5728,3.9043c-1.4453,0-2.4243-1.3545-2.4473-3.8018
				c0-2.4814,1.0703-3.8477,2.5728-3.8477C15.0371,124.3765,15.9248,125.7656,15.9248,128.1216z M11.9067,128.2354
				c0,1.9238,0.5918,3.0166,1.5024,3.0166c1.0244,0,1.5142-1.1953,1.5142-3.085c0-1.8213-0.4668-3.0161-1.5029-3.0161
				C12.5439,125.1509,11.9067,126.2207,11.9067,128.2354z"/>
			<path style="fill:#8562A3;" d="M20.1821,126.585c0,1.5596-0.8198,2.3335-1.7759,2.3335c-0.9219,0-1.7188-0.7397-1.7305-2.231
				c0-1.48,0.8086-2.311,1.7871-2.311C19.499,124.3765,20.1821,125.1733,20.1821,126.585z M17.4727,126.6533
				c-0.0225,0.9448,0.3301,1.6621,0.9561,1.6621c0.6606,0,0.9565-0.7061,0.9565-1.6851c0-0.8989-0.2617-1.6504-0.9565-1.6504
				C17.8027,124.98,17.4727,125.7197,17.4727,126.6533z M18.3379,132.0259l4.3481-7.6494h0.6377l-4.3481,7.6494H18.3379z
				 M24.9971,129.647c0,1.5596-0.8198,2.3335-1.7646,2.3335c-0.9219,0-1.7188-0.7397-1.73-2.2197
				c0-1.4912,0.8081-2.3223,1.7871-2.3223C24.3252,127.4385,24.9971,128.2354,24.9971,129.647z M22.2876,129.7153
				c-0.0112,0.9448,0.353,1.6621,0.9678,1.6621c0.6602,0,0.9561-0.7061,0.9561-1.6851c0-0.8989-0.2617-1.6504-0.9561-1.6504
				C22.6294,128.042,22.2876,128.7817,22.2876,129.7153z"/>
		</g>
	</g>
	<rect x="43.1474" y="8.315" style="fill:#F04946;" width="48.0962" height="122.0053"/>
	<rect x="109.9092" y="56.1957" style="fill:#F48C37;" width="48.0892" height="74.1246"/>
	<rect x="176.664" y="32.7709" style="fill:#53BB9B;" width="48.0961" height="97.5494"/>
	<rect x="243.4264" y="90.2017" style="fill:#348EA9;" width="48.0961" height="40.1186"/>
</g>
</svg>
