<?xml version="1.0" encoding="utf-8"?>
<!-- Generator: Adobe Illustrator 21.0.2, SVG Export Plug-In . SVG Version: 6.00 Build 0)  -->
<svg version="1.1" id="Capa_1" xmlns="http://www.w3.org/2000/svg" xmlns:xlink="http://www.w3.org/1999/xlink" x="0px" y="0px"
	 viewBox="0 0 265 51.576" style="enable-background:new 0 0 265 51.576;" xml:space="preserve">
<g>
	<g id="XMLID_5200_">
		<polygon id="XMLID_5201_" style="fill:#A03628;" points="243.1899,0.5001 265,25.7881 243.1899,51.076 223.3365,51.076 
			245.1466,25.7881 223.3365,0.5001 198.1899,0.5001 		"/>
	</g>
	<g id="XMLID_5197_">
		<polygon id="XMLID_5198_" style="fill:#A03628;" points="21.8101,51.0759 0,25.7879 21.8101,0.5 41.6635,0.5 19.8534,25.7879 
			41.6635,51.0759 21.8101,51.0759 		"/>
	</g>
	<polygon id="XMLID_5195_" style="fill:#FFFFFF;stroke:#C9452F;stroke-miterlimit:10;" points="47.671,0.5 217.329,0.5001 
		239.1391,25.7881 217.329,51.076 47.671,51.0759 25.8609,25.7879 	"/>
	<g>
		<g>
			<path style="fill:#A03628;" d="M82.2563,18.6493l2.9561-0.2876c0.1777,0.9922,0.5391,1.7212,1.083,2.1865
				s1.2783,0.6982,2.2021,0.6982c0.9785,0,1.7158-0.207,2.2119-0.6211s0.7451-0.8984,0.7451-1.4526
				c0-0.356-0.1045-0.6587-0.3135-0.9087c-0.209-0.2495-0.5732-0.4668-1.0938-0.6519c-0.3555-0.123-1.167-0.3418-2.4326-0.6567
				c-1.6289-0.4038-2.7715-0.8999-3.4287-1.4888c-0.9238-0.8276-1.3857-1.8374-1.3857-3.0283c0-0.7661,0.2168-1.4834,0.6523-2.1504
				c0.4336-0.6675,1.0605-1.1753,1.8779-1.5244c0.8184-0.3491,1.8047-0.5234,2.9619-0.5234c1.8887,0,3.3105,0.4141,4.2656,1.2417
				c0.9541,0.8286,1.4551,1.9336,1.5039,3.3159l-3.0391,0.1333c-0.1299-0.7729-0.4092-1.3291-0.8369-1.668
				s-1.0693-0.5083-1.9248-0.5083c-0.8828,0-1.5742,0.1816-2.0732,0.5444c-0.3223,0.2324-0.4824,0.5439-0.4824,0.9341
				c0,0.356,0.1504,0.6606,0.4512,0.9136c0.3838,0.3218,1.3145,0.6567,2.793,1.0059c1.4775,0.3491,2.5713,0.7104,3.2793,1.083
				c0.708,0.373,1.2627,0.8828,1.6631,1.5298c0.4004,0.6465,0.6006,1.4458,0.6006,2.397c0,0.8623-0.2393,1.6699-0.7188,2.4224
				c-0.4785,0.7529-1.1563,1.3125-2.0322,1.6787c-0.876,0.3657-1.9678,0.5493-3.2744,0.5493c-1.9033,0-3.3643-0.4399-4.3838-1.3193
				S82.4545,20.3329,82.2563,18.6493z"/>
			<path style="fill:#A03628;" d="M103.3412,20.076l2.874,0.4824c-0.3691,1.0542-0.9531,1.8564-1.75,2.4072
				c-0.7969,0.5513-1.7949,0.8267-2.9922,0.8267c-1.8955,0-3.2988-0.6196-4.209-1.8584c-0.7188-0.9922-1.0781-2.2446-1.0781-3.7568
				c0-1.8071,0.4727-3.2217,1.417-4.2451c0.9443-1.0229,2.1387-1.5347,3.583-1.5347c1.6211,0,2.9014,0.5356,3.8389,1.6064
				c0.9375,1.0713,1.3857,2.7119,1.3447,4.9224H99.143c0.0205,0.856,0.2529,1.521,0.6973,1.9966
				c0.4453,0.4761,1,0.7139,1.6631,0.7139c0.4521,0,0.832-0.1235,1.1396-0.3696C102.9516,21.0204,103.184,20.6234,103.3412,20.076z
				 M103.5053,17.1605c-0.0205-0.835-0.2363-1.4692-0.6465-1.9043c-0.4102-0.4346-0.9102-0.6519-1.499-0.6519
				c-0.6299,0-1.1494,0.2295-1.5605,0.688c-0.4102,0.4585-0.6123,1.0815-0.6055,1.8682H103.5053z"/>
			<path style="fill:#A03628;" d="M118.226,15.867l-2.8438,0.5132c-0.0957-0.5679-0.3125-0.9956-0.6514-1.2832
				c-0.3389-0.2871-0.7783-0.4312-1.3193-0.4312c-0.7188,0-1.292,0.2485-1.7197,0.7446s-0.6416,1.3257-0.6416,2.4893
				c0,1.2935,0.2178,2.207,0.6523,2.7407c0.4346,0.5342,1.0176,0.8008,1.75,0.8008c0.5479,0,0.9961-0.1558,1.3447-0.4668
				c0.3496-0.3115,0.5957-0.8472,0.7393-1.6069l2.833,0.4824c-0.2939,1.3008-0.8584,2.2827-1.6934,2.9463
				c-0.835,0.6641-1.9541,0.9961-3.3564,0.9961c-1.5947,0-2.8662-0.5034-3.8145-1.5093c-0.9473-1.0059-1.4209-2.3984-1.4209-4.1782
				c0-1.7998,0.4756-3.2007,1.4268-4.2036c0.9512-1.0024,2.2373-1.5039,3.8594-1.5039c1.3281,0,2.3838,0.2861,3.167,0.8574
				S117.8842,14.6971,118.226,15.867z"/>
			<path style="fill:#A03628;" d="M127.5883,23.5457v-1.6323c-0.3965,0.582-0.9189,1.0405-1.5654,1.3755
				c-0.6465,0.3354-1.3291,0.5034-2.0479,0.5034c-0.7324,0-1.3896-0.1611-1.9707-0.4829c-0.582-0.3213-1.0029-0.7729-1.2627-1.355
				c-0.2607-0.5815-0.3906-1.3857-0.3906-2.4121v-6.8984h2.8848v5.0093c0,1.5332,0.0527,2.4727,0.1592,2.8179
				c0.1064,0.3457,0.2988,0.6196,0.5801,0.8213c0.2803,0.2021,0.6367,0.3027,1.0674,0.3027c0.4932,0,0.9346-0.1348,1.3242-0.4053
				c0.3906-0.27,0.6572-0.6055,0.8008-1.0059s0.2158-1.3809,0.2158-2.9414v-4.5986h2.8848v10.9019H127.5883z"/>
			<path style="fill:#A03628;" d="M139.5688,20.076l2.874,0.4824c-0.3691,1.0542-0.9531,1.8564-1.75,2.4072
				c-0.7969,0.5513-1.7949,0.8267-2.9922,0.8267c-1.8955,0-3.2988-0.6196-4.209-1.8584c-0.7188-0.9922-1.0781-2.2446-1.0781-3.7568
				c0-1.8071,0.4727-3.2217,1.417-4.2451c0.9443-1.0229,2.1387-1.5347,3.583-1.5347c1.6211,0,2.9014,0.5356,3.8389,1.6064
				c0.9375,1.0713,1.3857,2.7119,1.3447,4.9224h-7.2266c0.0205,0.856,0.2529,1.521,0.6973,1.9966
				c0.4453,0.4761,1,0.7139,1.6631,0.7139c0.4521,0,0.832-0.1235,1.1396-0.3696C139.1791,21.0204,139.4116,20.6234,139.5688,20.076z
				 M139.7328,17.1605c-0.0205-0.835-0.2363-1.4692-0.6465-1.9043c-0.4102-0.4346-0.9102-0.6519-1.499-0.6519
				c-0.6299,0-1.1494,0.2295-1.5605,0.688c-0.4102,0.4585-0.6123,1.0815-0.6055,1.8682H139.7328z"/>
			<path style="fill:#A03628;" d="M154.8647,23.5457h-2.8848v-5.564c0-1.1768-0.0615-1.9385-0.1846-2.2842
				c-0.123-0.3452-0.3232-0.6138-0.6006-0.8057c-0.2773-0.1914-0.6113-0.2876-1.001-0.2876c-0.5,0-0.9482,0.1372-1.3447,0.4106
				c-0.3975,0.2739-0.6689,0.6367-0.8164,1.0884s-0.2207,1.2866-0.2207,2.5049v4.9375h-2.8848V12.6439h2.6797v1.6016
				c0.9512-1.2319,2.1484-1.8481,3.5928-1.8481c0.6367,0,1.2178,0.1147,1.7451,0.3442c0.5273,0.229,0.9258,0.5215,1.1963,0.8774
				c0.2695,0.356,0.458,0.7598,0.5645,1.2114c0.1055,0.4517,0.1592,1.0981,0.1592,1.9399V23.5457z"/>
			<path style="fill:#A03628;" d="M167.2953,15.867l-2.8438,0.5132c-0.0957-0.5679-0.3125-0.9956-0.6514-1.2832
				c-0.3389-0.2871-0.7783-0.4312-1.3193-0.4312c-0.7188,0-1.292,0.2485-1.7197,0.7446s-0.6416,1.3257-0.6416,2.4893
				c0,1.2935,0.2178,2.207,0.6523,2.7407c0.4346,0.5342,1.0176,0.8008,1.75,0.8008c0.5479,0,0.9961-0.1558,1.3447-0.4668
				c0.3496-0.3115,0.5957-0.8472,0.7393-1.6069l2.833,0.4824c-0.2939,1.3008-0.8584,2.2827-1.6934,2.9463
				c-0.835,0.6641-1.9541,0.9961-3.3564,0.9961c-1.5947,0-2.8662-0.5034-3.8145-1.5093c-0.9473-1.0059-1.4209-2.3984-1.4209-4.1782
				c0-1.7998,0.4756-3.2007,1.4268-4.2036c0.9512-1.0024,2.2373-1.5039,3.8594-1.5039c1.3281,0,2.3838,0.2861,3.167,0.8574
				S166.9536,14.6971,167.2953,15.867z"/>
			<path style="fill:#A03628;" d="M169.4819,11.1654V8.4964h2.8848v2.6689H169.4819z M169.4819,23.5457V12.6439h2.8848v10.9019
				H169.4819z"/>
			<path style="fill:#A03628;" d="M177.4789,15.9696l-2.6182-0.4722c0.2939-1.0537,0.8008-1.834,1.5195-2.3403
				s1.7861-0.7598,3.2031-0.7598c1.2861,0,2.2441,0.1523,2.874,0.457s1.0723,0.6914,1.3291,1.1597
				c0.2568,0.4692,0.3848,1.3296,0.3848,2.582l-0.0303,3.3672c0,0.958,0.0459,1.6646,0.1387,2.1196
				c0.0918,0.4551,0.2646,0.9429,0.5186,1.4629h-2.8545c-0.0752-0.1914-0.167-0.4756-0.2764-0.8521
				c-0.0488-0.1709-0.083-0.2837-0.1035-0.3389c-0.4922,0.479-1.0195,0.8384-1.5801,1.0781
				c-0.5615,0.2393-1.1602,0.3594-1.7969,0.3594c-1.1221,0-2.0068-0.3047-2.6533-0.9141c-0.6475-0.6089-0.9707-1.3789-0.9707-2.3096
				c0-0.6157,0.1475-1.165,0.4414-1.6475c0.2949-0.4824,0.707-0.8521,1.2373-1.1089c0.5303-0.2563,1.2949-0.4805,2.2939-0.6724
				c1.3486-0.2529,2.2832-0.4893,2.8027-0.708v-0.2876c0-0.5542-0.1367-0.9497-0.4102-1.1855
				c-0.2744-0.2363-0.791-0.3545-1.5508-0.3545c-0.5127,0-0.9131,0.1011-1.2002,0.3032
				C177.8891,15.1092,177.6567,15.4632,177.4789,15.9696z M181.3383,18.3104c-0.3691,0.123-0.9541,0.2705-1.7549,0.4414
				s-1.3242,0.3389-1.5713,0.5029c-0.376,0.2671-0.5645,0.6055-0.5645,1.0161c0,0.4043,0.1504,0.7529,0.4521,1.0474
				c0.3008,0.2944,0.6836,0.4414,1.1494,0.4414c0.5205,0,1.0166-0.1709,1.4883-0.5132c0.3496-0.2603,0.5781-0.5786,0.6885-0.9551
				c0.0752-0.2461,0.1123-0.7148,0.1123-1.4063V18.3104z"/>
			<path style="fill:#A03628;" d="M104.6342,43.5457V28.4964h2.8848v15.0493H104.6342z"/>
			<path style="fill:#A03628;" d="M109.808,37.9408c0-0.958,0.2363-1.8853,0.708-2.7817c0.4727-0.8965,1.1416-1.5811,2.0068-2.0532
				c0.8662-0.4722,1.833-0.7085,2.9004-0.7085c1.6494,0,3.001,0.5356,4.0547,1.6064c1.0537,1.0713,1.5811,2.4248,1.5811,4.0601
				c0,1.6494-0.5322,3.0166-1.5967,4.1011c-1.0635,1.085-2.4033,1.6274-4.0186,1.6274c-0.999,0-1.9521-0.2261-2.8594-0.6777
				c-0.9063-0.4517-1.5957-1.1138-2.0684-1.9863C110.0444,40.2557,109.808,39.1932,109.808,37.9408z M112.7641,38.0946
				c0,1.0815,0.2568,1.9097,0.7705,2.4844c0.5127,0.5747,1.1455,0.8623,1.8984,0.8623s1.3848-0.2876,1.8945-0.8623
				s0.7646-1.4097,0.7646-2.5049c0-1.0674-0.2549-1.8887-0.7646-2.4634c-0.5098-0.5752-1.1416-0.8623-1.8945-0.8623
				s-1.3857,0.2871-1.8984,0.8623C113.0209,36.1854,112.7641,37.0135,112.7641,38.0946z M113.976,31.3094l1.416-3.0693h3.2344
				l-2.8232,3.0693H113.976z"/>
			<path style="fill:#A03628;" d="M123.0512,44.2645l3.2949,0.4004c0.0547,0.3828,0.1816,0.6465,0.3799,0.79
				c0.2734,0.2056,0.7051,0.3081,1.2939,0.3081c0.752,0,1.3174-0.1128,1.6934-0.3389c0.2529-0.1504,0.4453-0.3936,0.5752-0.7285
				c0.0889-0.2397,0.1328-0.6812,0.1328-1.3242v-1.5913c-0.8623,1.1772-1.9502,1.7656-3.2637,1.7656
				c-1.4648,0-2.625-0.6191-3.4805-1.8579c-0.6709-0.9785-1.0059-2.1968-1.0059-3.6548c0-1.8271,0.4395-3.2231,1.3193-4.188
				c0.8789-0.9653,1.9727-1.4478,3.2793-1.4478c1.3486,0,2.4609,0.5923,3.3369,1.7759v-1.5293h2.6992v9.7827
				c0,1.2866-0.1055,2.2485-0.3184,2.8848c-0.2119,0.6367-0.5098,1.1357-0.8926,1.499c-0.3838,0.3623-0.8945,0.6465-1.5352,0.8521
				c-0.6396,0.2051-1.4492,0.3076-2.4277,0.3076c-1.8477,0-3.1582-0.3164-3.9316-0.9492c-0.7734-0.6333-1.1602-1.436-1.1602-2.4077
				C123.0405,44.5174,123.0444,44.4012,123.0512,44.2645z M125.6274,37.869c0,1.1567,0.2246,2.0034,0.6729,2.5405
				c0.4482,0.5376,1.001,0.8062,1.6582,0.8062c0.7041,0,1.2998-0.2754,1.7861-0.8267c0.4854-0.5508,0.7285-1.3667,0.7285-2.4482
				c0-1.1294-0.2324-1.9673-0.6982-2.5151c-0.4648-0.5474-1.0537-0.8213-1.7656-0.8213c-0.6914,0-1.2607,0.269-1.709,0.8062
				S125.6274,36.7669,125.6274,37.869z"/>
			<path style="fill:#A03628;" d="M136.1596,31.1654v-2.6689h2.8848v2.6689H136.1596z M136.1596,43.5457V32.6439h2.8848v10.9019
				H136.1596z"/>
			<path style="fill:#A03628;" d="M151.5063,35.867l-2.8438,0.5132c-0.0957-0.5679-0.3125-0.9956-0.6514-1.2832
				c-0.3389-0.2871-0.7783-0.4312-1.3193-0.4312c-0.7188,0-1.292,0.2485-1.7197,0.7446s-0.6416,1.3257-0.6416,2.4893
				c0,1.2935,0.2178,2.207,0.6523,2.7407c0.4346,0.5342,1.0176,0.8008,1.75,0.8008c0.5479,0,0.9961-0.1558,1.3447-0.4668
				c0.3496-0.3115,0.5957-0.8472,0.7393-1.6069l2.833,0.4824c-0.2939,1.3008-0.8584,2.2827-1.6934,2.9463
				c-0.835,0.6641-1.9541,0.9961-3.3564,0.9961c-1.5947,0-2.8662-0.5034-3.8145-1.5093c-0.9473-1.0059-1.4209-2.3984-1.4209-4.1782
				c0-1.7998,0.4756-3.2007,1.4268-4.2036c0.9512-1.0024,2.2373-1.5039,3.8594-1.5039c1.3281,0,2.3838,0.2861,3.167,0.8574
				S151.1645,34.6971,151.5063,35.867z"/>
			<path style="fill:#A03628;" d="M155.8491,35.9696l-2.6182-0.4722c0.2939-1.0537,0.8008-1.834,1.5195-2.3403
				s1.7861-0.7598,3.2031-0.7598c1.2861,0,2.2441,0.1523,2.874,0.457s1.0723,0.6914,1.3291,1.1597
				c0.2568,0.4692,0.3848,1.3296,0.3848,2.582l-0.0303,3.3672c0,0.958,0.0459,1.6646,0.1387,2.1196
				c0.0918,0.4551,0.2646,0.9429,0.5186,1.4629h-2.8545c-0.0752-0.1914-0.167-0.4756-0.2764-0.8521
				c-0.0488-0.1709-0.083-0.2837-0.1035-0.3389c-0.4922,0.479-1.0195,0.8384-1.5801,1.0781
				c-0.5615,0.2393-1.1602,0.3594-1.7969,0.3594c-1.1221,0-2.0068-0.3047-2.6533-0.9141c-0.6475-0.6089-0.9707-1.3789-0.9707-2.3096
				c0-0.6157,0.1475-1.165,0.4414-1.6475c0.2949-0.4824,0.707-0.8521,1.2373-1.1089c0.5303-0.2563,1.2949-0.4805,2.2939-0.6724
				c1.3486-0.2529,2.2832-0.4893,2.8027-0.708v-0.2876c0-0.5542-0.1367-0.9497-0.4102-1.1855
				c-0.2744-0.2363-0.791-0.3545-1.5508-0.3545c-0.5127,0-0.9131,0.1011-1.2002,0.3032
				C156.2592,35.1092,156.0268,35.4632,155.8491,35.9696z M159.7084,38.3104c-0.3691,0.123-0.9541,0.2705-1.7549,0.4414
				s-1.3242,0.3389-1.5713,0.5029c-0.376,0.2671-0.5645,0.6055-0.5645,1.0161c0,0.4043,0.1504,0.7529,0.4521,1.0474
				c0.3008,0.2944,0.6836,0.4414,1.1494,0.4414c0.5205,0,1.0166-0.1709,1.4883-0.5132c0.3496-0.2603,0.5781-0.5786,0.6885-0.9551
				c0.0752-0.2461,0.1123-0.7148,0.1123-1.4063V38.3104z"/>
		</g>
	</g>
</g>
</svg>
