<?xml version="1.0" encoding="utf-8"?>
<!-- Generator: Adobe Illustrator 21.0.2, SVG Export Plug-In . SVG Version: 6.00 Build 0)  -->
<svg version="1.1" id="Capa_1" xmlns="http://www.w3.org/2000/svg" xmlns:xlink="http://www.w3.org/1999/xlink" x="0px" y="0px"
	 viewBox="0 0 265 50.576" style="enable-background:new 0 0 265 50.576;" xml:space="preserve">
<g>
	<g id="XMLID_5534_">
		<polygon id="XMLID_5535_" style="fill:#A03628;" points="243.1899,0.0001 265,25.2881 243.1899,50.576 223.3365,50.576 
			245.1466,25.2881 223.3365,0.0001 198.1899,0.0001 		"/>
	</g>
	<g id="XMLID_5531_">
		<polygon id="XMLID_5532_" style="fill:#A03628;" points="21.8101,50.5759 0,25.2879 21.8101,0 41.6635,0 19.8534,25.2879 
			41.6635,50.5759 21.8101,50.5759 		"/>
	</g>
	<polygon id="XMLID_5529_" style="fill:#C9452F;" points="47.671,0 217.329,0.0001 239.1391,25.2881 217.329,50.576 47.671,50.5759 
		25.8609,25.2879 	"/>
	<g>
		<g>
			<path style="fill:#FFFFFF;" d="M61.4118,7.8292h5.5537c1.252,0,2.207,0.0962,2.8633,0.2876
				c0.8838,0.2603,1.6396,0.7222,2.2695,1.3857c0.6289,0.6641,1.1084,1.4766,1.4365,2.438
				c0.3291,0.9619,0.4932,2.1475,0.4932,3.5571c0,1.2388-0.1543,2.3062-0.4619,3.2026c-0.377,1.0952-0.9141,1.9814-1.6123,2.6587
				c-0.5264,0.5137-1.2383,0.9141-2.1348,1.2012c-0.6709,0.2124-1.5674,0.3184-2.6895,0.3184h-5.7178V7.8292z M64.4499,10.3751
				v9.9678h2.2686c0.8486,0,1.4619-0.0479,1.8379-0.1436c0.4932-0.123,0.9014-0.332,1.2266-0.6265
				c0.3252-0.2939,0.5908-0.7783,0.7959-1.4521c0.2051-0.6743,0.3076-1.5928,0.3076-2.7563s-0.1025-2.0566-0.3076-2.6797
				c-0.2051-0.6226-0.4932-1.1084-0.8623-1.4575c-0.3701-0.3491-0.8389-0.585-1.4063-0.7085
				c-0.4248-0.0957-1.2559-0.1436-2.4951-0.1436H64.4499z"/>
			<path style="fill:#FFFFFF;" d="M82.8971,19.4088l2.874,0.4824c-0.3691,1.0542-0.9531,1.8564-1.75,2.4072
				c-0.7969,0.5513-1.7949,0.8267-2.9922,0.8267c-1.8955,0-3.2988-0.6196-4.209-1.8584c-0.7188-0.9922-1.0781-2.2446-1.0781-3.7568
				c0-1.8071,0.4727-3.2217,1.417-4.2451c0.9443-1.0229,2.1387-1.5347,3.583-1.5347c1.6211,0,2.9014,0.5356,3.8389,1.6064
				c0.9375,1.0713,1.3857,2.7119,1.3447,4.9224h-7.2266c0.0205,0.856,0.2529,1.521,0.6973,1.9966
				c0.4453,0.4761,1,0.7139,1.6631,0.7139c0.4521,0,0.832-0.1235,1.1396-0.3696C82.5075,20.3532,82.7399,19.9562,82.8971,19.4088z
				 M83.0612,16.4933c-0.0205-0.835-0.2363-1.4692-0.6465-1.9043c-0.4102-0.4346-0.9102-0.6519-1.499-0.6519
				c-0.6299,0-1.1494,0.2295-1.5605,0.688c-0.4102,0.4585-0.6123,1.0815-0.6055,1.8682H83.0612z"/>
			<path style="fill:#FFFFFF;" d="M93.276,11.9767v2.2993h-1.9717v4.3936c0,0.8896,0.0186,1.4082,0.0566,1.5552
				c0.0371,0.1475,0.123,0.269,0.2568,0.3647s0.2959,0.1436,0.4873,0.1436c0.2666,0,0.6533-0.0923,1.1602-0.2773l0.2461,2.2383
				c-0.6709,0.2871-1.4297,0.4312-2.2783,0.4312c-0.5205,0-0.9893-0.0874-1.4063-0.2622c-0.418-0.1743-0.7246-0.3999-0.9189-0.6772
				c-0.1953-0.2773-0.3301-0.6519-0.4053-1.124c-0.0625-0.3354-0.0928-1.0127-0.0928-2.0327V14.276h-1.3242v-2.2993h1.3242v-2.166
				l2.8945-1.6836v3.8496H93.276z"/>
			<path style="fill:#FFFFFF;" d="M101.5905,19.4088l2.874,0.4824c-0.3691,1.0542-0.9531,1.8564-1.75,2.4072
				c-0.7969,0.5513-1.7949,0.8267-2.9922,0.8267c-1.8955,0-3.2988-0.6196-4.209-1.8584c-0.7188-0.9922-1.0781-2.2446-1.0781-3.7568
				c0-1.8071,0.4727-3.2217,1.417-4.2451c0.9443-1.0229,2.1387-1.5347,3.583-1.5347c1.6211,0,2.9014,0.5356,3.8389,1.6064
				c0.9375,1.0713,1.3857,2.7119,1.3447,4.9224h-7.2266c0.0205,0.856,0.2529,1.521,0.6973,1.9966
				c0.4453,0.4761,1,0.7139,1.6631,0.7139c0.4521,0,0.832-0.1235,1.1396-0.3696C101.2008,20.3532,101.4333,19.9562,101.5905,19.4088
				z M101.7545,16.4933c-0.0205-0.835-0.2363-1.4692-0.6465-1.9043c-0.4102-0.4346-0.9102-0.6519-1.499-0.6519
				c-0.6299,0-1.1494,0.2295-1.5605,0.688c-0.4102,0.4585-0.6123,1.0815-0.6055,1.8682H101.7545z"/>
			<path style="fill:#FFFFFF;" d="M109.7311,22.8786h-2.8848V11.9767h2.6797v1.5498c0.458-0.7319,0.8701-1.2144,1.2363-1.4473
				c0.3662-0.2324,0.7822-0.3491,1.248-0.3491c0.6563,0,1.2891,0.1816,1.8984,0.5439l-0.8926,2.5151
				c-0.4863-0.3145-0.9375-0.4722-1.3555-0.4722c-0.4033,0-0.7461,0.1113-1.0264,0.3335c-0.2803,0.2227-0.501,0.625-0.6621,1.2065
				s-0.2412,1.7998-0.2412,3.6543V22.8786z"/>
			<path style="fill:#FFFFFF;" d="M114.9352,11.9767h2.6592v1.4883c0.9512-1.1563,2.084-1.7349,3.3975-1.7349
				c0.6982,0,1.3047,0.144,1.8174,0.4312c0.5137,0.2876,0.9346,0.7222,1.2627,1.3037c0.4785-0.5815,0.9961-1.0161,1.5498-1.3037
				c0.5547-0.2871,1.1465-0.4312,1.7764-0.4312c0.8008,0,1.4785,0.1626,2.0322,0.4878c0.5547,0.3252,0.9688,0.8022,1.2422,1.4321
				c0.1982,0.4653,0.2979,1.2183,0.2979,2.2583v6.9702h-2.8848v-6.231c0-1.0815-0.0986-1.7793-0.2979-2.0942
				c-0.2666-0.4106-0.6768-0.6162-1.2314-0.6162c-0.4043,0-0.7842,0.1235-1.1396,0.3696c-0.3555,0.2466-0.6123,0.6074-0.7695,1.083
				c-0.1582,0.4761-0.2363,1.2271-0.2363,2.2534v5.2354h-2.8848v-5.9746c0-1.0605-0.0508-1.7451-0.1543-2.0532
				c-0.1025-0.3076-0.2617-0.5371-0.4766-0.6875c-0.2158-0.1504-0.5088-0.2261-0.8779-0.2261c-0.4453,0-0.8457,0.1201-1.2012,0.3594
				c-0.3555,0.2397-0.6104,0.5854-0.7646,1.0371s-0.2314,1.2007-0.2314,2.248v5.2969h-2.8848V11.9767z"/>
			<path style="fill:#FFFFFF;" d="M133.8444,10.4982V7.8292h2.8848v2.6689H133.8444z M133.8444,22.8786V11.9767h2.8848v10.9019
				H133.8444z"/>
			<path style="fill:#FFFFFF;" d="M149.6022,22.8786h-2.8848v-5.564c0-1.1768-0.0615-1.9385-0.1846-2.2842
				c-0.123-0.3452-0.3232-0.6138-0.6006-0.8057c-0.2773-0.1914-0.6113-0.2876-1.001-0.2876c-0.5,0-0.9482,0.1372-1.3447,0.4106
				c-0.3975,0.2739-0.6689,0.6367-0.8164,1.0884s-0.2207,1.2866-0.2207,2.5049v4.9375h-2.8848V11.9767h2.6797v1.6016
				c0.9512-1.2319,2.1484-1.8481,3.5928-1.8481c0.6367,0,1.2178,0.1147,1.7451,0.3442c0.5273,0.229,0.9258,0.5215,1.1963,0.8774
				c0.2695,0.356,0.458,0.7598,0.5645,1.2114c0.1055,0.4517,0.1592,1.0981,0.1592,1.9399V22.8786z"/>
			<path style="fill:#FFFFFF;" d="M154.6842,15.3024l-2.6182-0.4722c0.2939-1.0537,0.8008-1.834,1.5195-2.3403
				s1.7861-0.7598,3.2031-0.7598c1.2861,0,2.2441,0.1523,2.874,0.457s1.0723,0.6914,1.3291,1.1597
				c0.2568,0.4692,0.3848,1.3296,0.3848,2.582l-0.0303,3.3672c0,0.958,0.0459,1.6646,0.1387,2.1196
				c0.0918,0.4551,0.2646,0.9429,0.5186,1.4629h-2.8545c-0.0752-0.1914-0.167-0.4756-0.2764-0.8521
				c-0.0488-0.1709-0.083-0.2837-0.1035-0.3389c-0.4922,0.479-1.0195,0.8384-1.5801,1.0781
				c-0.5615,0.2393-1.1602,0.3594-1.7969,0.3594c-1.1221,0-2.0068-0.3047-2.6533-0.9141c-0.6475-0.6089-0.9707-1.3789-0.9707-2.3096
				c0-0.6157,0.1475-1.165,0.4414-1.6475c0.2949-0.4824,0.707-0.8521,1.2373-1.1089c0.5303-0.2563,1.2949-0.4805,2.2939-0.6724
				c1.3486-0.2529,2.2832-0.4893,2.8027-0.708v-0.2876c0-0.5542-0.1367-0.9497-0.4102-1.1855
				c-0.2744-0.2363-0.791-0.3545-1.5508-0.3545c-0.5127,0-0.9131,0.1011-1.2002,0.3032
				C155.0944,14.442,154.862,14.796,154.6842,15.3024z M158.5436,17.6432c-0.3691,0.123-0.9541,0.2705-1.7549,0.4414
				s-1.3242,0.3389-1.5713,0.5029c-0.376,0.2671-0.5645,0.6055-0.5645,1.0161c0,0.4043,0.1504,0.7529,0.4521,1.0474
				c0.3008,0.2944,0.6836,0.4414,1.1494,0.4414c0.5205,0,1.0166-0.1709,1.4883-0.5132c0.3496-0.2603,0.5781-0.5786,0.6885-0.9551
				c0.0752-0.2461,0.1123-0.7148,0.1123-1.4063V17.6432z"/>
			<path style="fill:#FFFFFF;" d="M166.9821,22.8786h-2.8848V11.9767h2.6797v1.5498c0.458-0.7319,0.8701-1.2144,1.2363-1.4473
				c0.3662-0.2324,0.7822-0.3491,1.248-0.3491c0.6563,0,1.2891,0.1816,1.8984,0.5439l-0.8926,2.5151
				c-0.4863-0.3145-0.9375-0.4722-1.3555-0.4722c-0.4033,0-0.7461,0.1113-1.0264,0.3335c-0.2803,0.2227-0.501,0.625-0.6621,1.2065
				s-0.2412,1.7998-0.2412,3.6543V22.8786z"/>
			<path style="fill:#FFFFFF;" d="M178.2428,22.8786V7.8292h2.8848v15.0493H178.2428z"/>
			<path style="fill:#FFFFFF;" d="M183.4167,17.2736c0-0.958,0.2363-1.8853,0.708-2.7817c0.4727-0.8965,1.1416-1.5811,2.0068-2.0532
				c0.8662-0.4722,1.833-0.7085,2.9004-0.7085c1.6494,0,3.001,0.5356,4.0547,1.6064c1.0537,1.0713,1.5811,2.4248,1.5811,4.0601
				c0,1.6494-0.5322,3.0166-1.5967,4.1011c-1.0635,1.085-2.4033,1.6274-4.0186,1.6274c-0.999,0-1.9521-0.2261-2.8594-0.6777
				c-0.9063-0.4517-1.5957-1.1138-2.0684-1.9863C183.653,19.5885,183.4167,18.526,183.4167,17.2736z M186.3727,17.4274
				c0,1.0815,0.2568,1.9097,0.7705,2.4844c0.5127,0.5747,1.1455,0.8623,1.8984,0.8623s1.3848-0.2876,1.8945-0.8623
				s0.7646-1.4097,0.7646-2.5049c0-1.0674-0.2549-1.8887-0.7646-2.4634c-0.5098-0.5752-1.1416-0.8623-1.8945-0.8623
				s-1.3857,0.2871-1.8984,0.8623C186.6295,15.5182,186.3727,16.3463,186.3727,17.4274z"/>
			<path style="fill:#FFFFFF;" d="M195.9108,19.7682l2.8945-0.4414c0.123,0.561,0.373,0.9873,0.749,1.2778
				c0.377,0.291,0.9033,0.4365,1.5811,0.4365c0.7461,0,1.3076-0.1367,1.6836-0.4106c0.2529-0.1914,0.3799-0.4482,0.3799-0.77
				c0-0.2188-0.0684-0.4004-0.2051-0.5439c-0.1436-0.1367-0.4658-0.2637-0.9648-0.3799c-2.3271-0.5132-3.8018-0.9819-4.4248-1.4063
				c-0.8623-0.5889-1.293-1.4067-1.293-2.4536c0-0.9443,0.3721-1.7383,1.1182-2.3818c0.7461-0.6431,1.9023-0.9648,3.4697-0.9648
				c1.4922,0,2.6006,0.2432,3.3262,0.729s1.2256,1.2046,1.499,2.1558l-2.7207,0.5029c-0.1162-0.4243-0.3369-0.7495-0.6621-0.9751
				c-0.3252-0.2261-0.7891-0.3389-1.3906-0.3389c-0.7598,0-1.3037,0.106-1.6318,0.3184c-0.2197,0.1504-0.3291,0.3457-0.3291,0.585
				c0,0.2056,0.0957,0.3799,0.2871,0.5234c0.2607,0.1919,1.1582,0.4619,2.6953,0.811c1.5361,0.3491,2.6084,0.7769,3.2178,1.2832
				c0.6025,0.5132,0.9033,1.2285,0.9033,2.1455c0,0.9995-0.417,1.8579-1.252,2.5767s-2.0703,1.0781-3.7061,1.0781
				c-1.4854,0-2.6602-0.3013-3.5264-0.9038C196.7438,21.6193,196.1774,20.8014,195.9108,19.7682z"/>
			<path style="fill:#FFFFFF;" d="M55.0319,42.8786h-2.6797V41.277c-0.4443,0.623-0.9697,1.0869-1.5752,1.3911
				c-0.6064,0.3042-1.2168,0.457-1.833,0.457c-1.252,0-2.3252-0.5049-3.2178-1.5142c-0.8936-1.0098-1.3398-2.418-1.3398-4.2246
				c0-1.8477,0.4346-3.2524,1.3037-4.2139s1.9678-1.4424,3.2949-1.4424c1.2188,0,2.2725,0.5068,3.1621,1.5195v-5.4204h2.8848
				V42.8786z M47.3327,37.1915c0,1.1636,0.1602,2.0054,0.4824,2.5254c0.4648,0.7529,1.1152,1.1289,1.9502,1.1289
				c0.6641,0,1.2285-0.2822,1.6943-0.8467c0.4648-0.5645,0.6973-1.4082,0.6973-2.5308c0-1.252-0.2256-2.1538-0.6768-2.7046
				c-0.4521-0.5508-1.0303-0.8267-1.7354-0.8267c-0.6846,0-1.2578,0.272-1.7197,0.8164
				C47.5631,35.2975,47.3327,36.11,47.3327,37.1915z"/>
			<path style="fill:#FFFFFF;" d="M60.0309,35.3024l-2.6182-0.4722c0.2939-1.0537,0.8008-1.834,1.5195-2.3403
				c0.7188-0.5063,1.7861-0.7598,3.2031-0.7598c1.2861,0,2.2441,0.1523,2.874,0.457c0.6299,0.3047,1.0723,0.6914,1.3291,1.1597
				c0.2568,0.4692,0.3848,1.3296,0.3848,2.582L66.693,39.296c0,0.958,0.0459,1.6646,0.1387,2.1196
				c0.0918,0.4551,0.2646,0.9429,0.5186,1.4629h-2.8545c-0.0752-0.1914-0.167-0.4756-0.2764-0.8521
				c-0.0488-0.1709-0.083-0.2837-0.1035-0.3389c-0.4922,0.479-1.0195,0.8384-1.5801,1.0781
				c-0.5615,0.2393-1.1602,0.3594-1.7969,0.3594c-1.1221,0-2.0068-0.3047-2.6533-0.9141c-0.6475-0.6089-0.9707-1.3789-0.9707-2.3096
				c0-0.6157,0.1475-1.165,0.4414-1.6475c0.2949-0.4824,0.707-0.8521,1.2373-1.1089c0.5303-0.2563,1.2949-0.4805,2.2939-0.6724
				c1.3486-0.2529,2.2832-0.4893,2.8027-0.708v-0.2876c0-0.5542-0.1367-0.9497-0.4102-1.1855
				c-0.2744-0.2363-0.791-0.3545-1.5508-0.3545c-0.5127,0-0.9131,0.1011-1.2002,0.3032
				C60.4411,34.442,60.2086,34.796,60.0309,35.3024z M63.8903,37.6432c-0.3691,0.123-0.9541,0.2705-1.7549,0.4414
				s-1.3242,0.3389-1.5713,0.5029c-0.376,0.2671-0.5645,0.6055-0.5645,1.0161c0,0.4043,0.1504,0.7529,0.4521,1.0474
				c0.3008,0.2944,0.6836,0.4414,1.1494,0.4414c0.5205,0,1.0166-0.1709,1.4883-0.5132c0.3496-0.2603,0.5781-0.5786,0.6885-0.9551
				c0.0752-0.2461,0.1123-0.7148,0.1123-1.4063V37.6432z"/>
			<path style="fill:#FFFFFF;" d="M74.567,31.9767v2.2993h-1.9717v4.3936c0,0.8896,0.0186,1.4082,0.0566,1.5552
				c0.0371,0.1475,0.123,0.269,0.2568,0.3647s0.2959,0.1436,0.4873,0.1436c0.2666,0,0.6533-0.0923,1.1602-0.2773l0.2461,2.2383
				c-0.6709,0.2871-1.4297,0.4312-2.2783,0.4312c-0.5205,0-0.9893-0.0874-1.4063-0.2622c-0.418-0.1743-0.7246-0.3999-0.9189-0.6772
				c-0.1953-0.2773-0.3301-0.6519-0.4053-1.124c-0.0625-0.3354-0.0928-1.0127-0.0928-2.0327V34.276h-1.3242v-2.2993h1.3242v-2.166
				l2.8945-1.6836v3.8496H74.567z"/>
			<path style="fill:#FFFFFF;" d="M75.901,37.2736c0-0.958,0.2363-1.8853,0.708-2.7817c0.4727-0.8965,1.1416-1.5811,2.0068-2.0532
				c0.8662-0.4722,1.833-0.7085,2.9004-0.7085c1.6494,0,3.001,0.5356,4.0547,1.6064c1.0537,1.0713,1.5811,2.4248,1.5811,4.0601
				c0,1.6494-0.5322,3.0166-1.5967,4.1011c-1.0635,1.085-2.4033,1.6274-4.0186,1.6274c-0.999,0-1.9521-0.2261-2.8594-0.6777
				c-0.9063-0.4517-1.5957-1.1138-2.0684-1.9863C76.1374,39.5885,75.901,38.526,75.901,37.2736z M78.8571,37.4274
				c0,1.0815,0.2568,1.9097,0.7705,2.4844c0.5127,0.5747,1.1455,0.8623,1.8984,0.8623s1.3848-0.2876,1.8945-0.8623
				s0.7646-1.4097,0.7646-2.5049c0-1.0674-0.2549-1.8887-0.7646-2.4634c-0.5098-0.5752-1.1416-0.8623-1.8945-0.8623
				s-1.3857,0.2871-1.8984,0.8623C79.1139,35.5182,78.8571,36.3463,78.8571,37.4274z"/>
			<path style="fill:#FFFFFF;" d="M88.3952,39.7682l2.8945-0.4414c0.123,0.561,0.373,0.9873,0.749,1.2778
				c0.377,0.291,0.9033,0.4365,1.5811,0.4365c0.7461,0,1.3076-0.1367,1.6836-0.4106c0.2529-0.1914,0.3799-0.4482,0.3799-0.77
				c0-0.2188-0.0684-0.4004-0.2051-0.5439c-0.1436-0.1367-0.4658-0.2637-0.9648-0.3799c-2.3271-0.5132-3.8018-0.9819-4.4248-1.4063
				c-0.8623-0.5889-1.293-1.4067-1.293-2.4536c0-0.9443,0.3721-1.7383,1.1182-2.3818c0.7461-0.6431,1.9023-0.9648,3.4697-0.9648
				c1.4922,0,2.6006,0.2432,3.3262,0.729c0.7256,0.4858,1.2256,1.2046,1.499,2.1558l-2.7207,0.5029
				c-0.1162-0.4243-0.3369-0.7495-0.6621-0.9751c-0.3252-0.2261-0.7891-0.3389-1.3906-0.3389c-0.7598,0-1.3037,0.106-1.6318,0.3184
				c-0.2197,0.1504-0.3291,0.3457-0.3291,0.585c0,0.2056,0.0957,0.3799,0.2871,0.5234c0.2607,0.1919,1.1582,0.4619,2.6953,0.811
				c1.5361,0.3491,2.6084,0.7769,3.2178,1.2832c0.6025,0.5132,0.9033,1.2285,0.9033,2.1455c0,0.9995-0.417,1.8579-1.252,2.5767
				s-2.0703,1.0781-3.7061,1.0781c-1.4854,0-2.6602-0.3013-3.5264-0.9038C89.2282,41.6193,88.6618,40.8014,88.3952,39.7682z"/>
			<path style="fill:#FFFFFF;" d="M109.1002,35.3024l-2.6182-0.4722c0.2939-1.0537,0.8008-1.834,1.5195-2.3403
				c0.7188-0.5063,1.7861-0.7598,3.2031-0.7598c1.2861,0,2.2441,0.1523,2.874,0.457c0.6299,0.3047,1.0723,0.6914,1.3291,1.1597
				c0.2568,0.4692,0.3848,1.3296,0.3848,2.582l-0.0303,3.3672c0,0.958,0.0459,1.6646,0.1387,2.1196
				c0.0918,0.4551,0.2646,0.9429,0.5186,1.4629h-2.8545c-0.0752-0.1914-0.167-0.4756-0.2764-0.8521
				c-0.0488-0.1709-0.083-0.2837-0.1035-0.3389c-0.4922,0.479-1.0195,0.8384-1.5801,1.0781
				c-0.5615,0.2393-1.1602,0.3594-1.7969,0.3594c-1.1221,0-2.0068-0.3047-2.6533-0.9141c-0.6475-0.6089-0.9707-1.3789-0.9707-2.3096
				c0-0.6157,0.1475-1.165,0.4414-1.6475c0.2949-0.4824,0.707-0.8521,1.2373-1.1089c0.5303-0.2563,1.2949-0.4805,2.2939-0.6724
				c1.3486-0.2529,2.2832-0.4893,2.8027-0.708v-0.2876c0-0.5542-0.1367-0.9497-0.4102-1.1855
				c-0.2744-0.2363-0.791-0.3545-1.5508-0.3545c-0.5127,0-0.9131,0.1011-1.2002,0.3032
				C109.5104,34.442,109.278,34.796,109.1002,35.3024z M112.9596,37.6432c-0.3691,0.123-0.9541,0.2705-1.7549,0.4414
				s-1.3242,0.3389-1.5713,0.5029c-0.376,0.2671-0.5645,0.6055-0.5645,1.0161c0,0.4043,0.1504,0.7529,0.4521,1.0474
				c0.3008,0.2944,0.6836,0.4414,1.1494,0.4414c0.5205,0,1.0166-0.1709,1.4883-0.5132c0.3496-0.2603,0.5781-0.5786,0.6885-0.9551
				c0.0752-0.2461,0.1123-0.7148,0.1123-1.4063V37.6432z"/>
			<path style="fill:#FFFFFF;" d="M127.2389,42.8786h-2.8848V31.9767h2.6797v1.5498c0.458-0.7319,0.8701-1.2144,1.2363-1.4473
				c0.3662-0.2324,0.7822-0.3491,1.248-0.3491c0.6563,0,1.2891,0.1816,1.8984,0.5439l-0.8926,2.5151
				c-0.4863-0.3145-0.9375-0.4722-1.3555-0.4722c-0.4033,0-0.7461,0.1113-1.0264,0.3335c-0.2803,0.2227-0.501,0.625-0.6621,1.2065
				s-0.2412,1.7998-0.2412,3.6543V42.8786z"/>
			<path style="fill:#FFFFFF;" d="M138.9723,39.4088l2.874,0.4824c-0.3691,1.0542-0.9531,1.8564-1.75,2.4072
				c-0.7969,0.5513-1.7949,0.8267-2.9922,0.8267c-1.8955,0-3.2988-0.6196-4.209-1.8584c-0.7188-0.9922-1.0781-2.2446-1.0781-3.7568
				c0-1.8071,0.4727-3.2217,1.417-4.2451c0.9443-1.0229,2.1387-1.5347,3.583-1.5347c1.6211,0,2.9014,0.5356,3.8389,1.6064
				c0.9375,1.0713,1.3857,2.7119,1.3447,4.9224h-7.2266c0.0205,0.856,0.2529,1.521,0.6973,1.9966
				c0.4453,0.4761,1,0.7139,1.6631,0.7139c0.4521,0,0.832-0.1235,1.1396-0.3696C138.5827,40.3532,138.8151,39.9562,138.9723,39.4088
				z M139.1364,36.4933c-0.0205-0.835-0.2363-1.4692-0.6465-1.9043c-0.4102-0.4346-0.9102-0.6519-1.499-0.6519
				c-0.6299,0-1.1494,0.2295-1.5605,0.688c-0.4102,0.4585-0.6123,1.0815-0.6055,1.8682H139.1364z"/>
			<path style="fill:#FFFFFF;" d="M153.8571,35.1998l-2.8438,0.5132c-0.0957-0.5679-0.3125-0.9956-0.6514-1.2832
				c-0.3389-0.2871-0.7783-0.4312-1.3193-0.4312c-0.7188,0-1.292,0.2485-1.7197,0.7446s-0.6416,1.3257-0.6416,2.4893
				c0,1.2935,0.2178,2.207,0.6523,2.7407c0.4346,0.5342,1.0176,0.8008,1.75,0.8008c0.5479,0,0.9961-0.1558,1.3447-0.4668
				c0.3496-0.3115,0.5957-0.8472,0.7393-1.6069l2.833,0.4824c-0.2939,1.3008-0.8584,2.2827-1.6934,2.9463
				c-0.835,0.6641-1.9541,0.9961-3.3564,0.9961c-1.5947,0-2.8662-0.5034-3.8145-1.5093c-0.9473-1.0059-1.4209-2.3984-1.4209-4.1782
				c0-1.7998,0.4756-3.2007,1.4268-4.2036c0.9512-1.0024,2.2373-1.5039,3.8594-1.5039c1.3281,0,2.3838,0.2861,3.167,0.8574
				S153.5153,34.0299,153.8571,35.1998z"/>
			<path style="fill:#FFFFFF;" d="M155.3766,37.2736c0-0.958,0.2363-1.8853,0.708-2.7817c0.4727-0.8965,1.1416-1.5811,2.0068-2.0532
				c0.8662-0.4722,1.833-0.7085,2.9004-0.7085c1.6494,0,3.001,0.5356,4.0547,1.6064c1.0537,1.0713,1.5811,2.4248,1.5811,4.0601
				c0,1.6494-0.5322,3.0166-1.5967,4.1011c-1.0635,1.085-2.4033,1.6274-4.0186,1.6274c-0.999,0-1.9521-0.2261-2.8594-0.6777
				c-0.9063-0.4517-1.5957-1.1138-2.0684-1.9863C155.6129,39.5885,155.3766,38.526,155.3766,37.2736z M158.3327,37.4274
				c0,1.0815,0.2568,1.9097,0.7705,2.4844c0.5127,0.5747,1.1455,0.8623,1.8984,0.8623s1.3848-0.2876,1.8945-0.8623
				s0.7646-1.4097,0.7646-2.5049c0-1.0674-0.2549-1.8887-0.7646-2.4634c-0.5098-0.5752-1.1416-0.8623-1.8945-0.8623
				s-1.3857,0.2871-1.8984,0.8623C158.5895,35.5182,158.3327,36.3463,158.3327,37.4274z"/>
			<path style="fill:#FFFFFF;" d="M168.8864,42.8786V27.8292h2.8848v15.0493H168.8864z"/>
			<path style="fill:#FFFFFF;" d="M181.0407,39.4088l2.874,0.4824c-0.3691,1.0542-0.9531,1.8564-1.75,2.4072
				c-0.7969,0.5513-1.7949,0.8267-2.9922,0.8267c-1.8955,0-3.2988-0.6196-4.209-1.8584c-0.7188-0.9922-1.0781-2.2446-1.0781-3.7568
				c0-1.8071,0.4727-3.2217,1.417-4.2451c0.9443-1.0229,2.1387-1.5347,3.583-1.5347c1.6211,0,2.9014,0.5356,3.8389,1.6064
				c0.9375,1.0713,1.3857,2.7119,1.3447,4.9224h-7.2266c0.0205,0.856,0.2529,1.521,0.6973,1.9966
				c0.4453,0.4761,1,0.7139,1.6631,0.7139c0.4521,0,0.832-0.1235,1.1396-0.3696C180.651,40.3532,180.8835,39.9562,181.0407,39.4088z
				 M181.2047,36.4933c-0.0205-0.835-0.2363-1.4692-0.6465-1.9043c-0.4102-0.4346-0.9102-0.6519-1.499-0.6519
				c-0.6299,0-1.1494,0.2295-1.5605,0.688c-0.4102,0.4585-0.6123,1.0815-0.6055,1.8682H181.2047z"/>
			<path style="fill:#FFFFFF;" d="M195.9254,35.1998l-2.8438,0.5132c-0.0957-0.5679-0.3125-0.9956-0.6514-1.2832
				c-0.3389-0.2871-0.7783-0.4312-1.3193-0.4312c-0.7188,0-1.292,0.2485-1.7197,0.7446s-0.6416,1.3257-0.6416,2.4893
				c0,1.2935,0.2178,2.207,0.6523,2.7407c0.4346,0.5342,1.0176,0.8008,1.75,0.8008c0.5479,0,0.9961-0.1558,1.3447-0.4668
				c0.3496-0.3115,0.5957-0.8472,0.7393-1.6069l2.833,0.4824c-0.2939,1.3008-0.8584,2.2827-1.6934,2.9463
				c-0.835,0.6641-1.9541,0.9961-3.3564,0.9961c-1.5947,0-2.8662-0.5034-3.8145-1.5093c-0.9473-1.0059-1.4209-2.3984-1.4209-4.1782
				c0-1.7998,0.4756-3.2007,1.4268-4.2036c0.9512-1.0024,2.2373-1.5039,3.8594-1.5039c1.3281,0,2.3838,0.2861,3.167,0.8574
				S195.5836,34.0299,195.9254,35.1998z"/>
			<path style="fill:#FFFFFF;" d="M203.112,31.9767v2.2993h-1.9717v4.3936c0,0.8896,0.0186,1.4082,0.0566,1.5552
				c0.0371,0.1475,0.123,0.269,0.2568,0.3647s0.2959,0.1436,0.4873,0.1436c0.2666,0,0.6533-0.0923,1.1602-0.2773l0.2461,2.2383
				c-0.6709,0.2871-1.4297,0.4312-2.2783,0.4312c-0.5205,0-0.9893-0.0874-1.4063-0.2622c-0.418-0.1743-0.7246-0.3999-0.9189-0.6772
				c-0.1953-0.2773-0.3301-0.6519-0.4053-1.124c-0.0625-0.3354-0.0928-1.0127-0.0928-2.0327V34.276h-1.3242v-2.2993h1.3242v-2.166
				l2.8945-1.6836v3.8496H203.112z"/>
			<path style="fill:#FFFFFF;" d="M207.2692,35.3024l-2.6182-0.4722c0.2939-1.0537,0.8008-1.834,1.5195-2.3403
				c0.7188-0.5063,1.7861-0.7598,3.2031-0.7598c1.2861,0,2.2441,0.1523,2.874,0.457c0.6299,0.3047,1.0723,0.6914,1.3291,1.1597
				c0.2568,0.4692,0.3848,1.3296,0.3848,2.582l-0.0303,3.3672c0,0.958,0.0459,1.6646,0.1387,2.1196
				c0.0918,0.4551,0.2646,0.9429,0.5186,1.4629h-2.8545c-0.0752-0.1914-0.167-0.4756-0.2764-0.8521
				c-0.0488-0.1709-0.083-0.2837-0.1035-0.3389c-0.4922,0.479-1.0195,0.8384-1.5801,1.0781
				c-0.5615,0.2393-1.1602,0.3594-1.7969,0.3594c-1.1221,0-2.0068-0.3047-2.6533-0.9141c-0.6475-0.6089-0.9707-1.3789-0.9707-2.3096
				c0-0.6157,0.1475-1.165,0.4414-1.6475c0.2949-0.4824,0.707-0.8521,1.2373-1.1089c0.5303-0.2563,1.2949-0.4805,2.2939-0.6724
				c1.3486-0.2529,2.2832-0.4893,2.8027-0.708v-0.2876c0-0.5542-0.1367-0.9497-0.4102-1.1855
				c-0.2744-0.2363-0.791-0.3545-1.5508-0.3545c-0.5127,0-0.9131,0.1011-1.2002,0.3032
				C207.6794,34.442,207.4469,34.796,207.2692,35.3024z M211.1286,37.6432c-0.3691,0.123-0.9541,0.2705-1.7549,0.4414
				s-1.3242,0.3389-1.5713,0.5029c-0.376,0.2671-0.5645,0.6055-0.5645,1.0161c0,0.4043,0.1504,0.7529,0.4521,1.0474
				c0.3008,0.2944,0.6836,0.4414,1.1494,0.4414c0.5205,0,1.0166-0.1709,1.4883-0.5132c0.3496-0.2603,0.5781-0.5786,0.6885-0.9551
				c0.0752-0.2461,0.1123-0.7148,0.1123-1.4063V37.6432z"/>
			<path style="fill:#FFFFFF;" d="M219.567,42.8786h-2.8848V31.9767h2.6797v1.5498c0.458-0.7319,0.8701-1.2144,1.2363-1.4473
				c0.3662-0.2324,0.7822-0.3491,1.248-0.3491c0.6563,0,1.2891,0.1816,1.8984,0.5439l-0.8926,2.5151
				c-0.4863-0.3145-0.9375-0.4722-1.3555-0.4722c-0.4033,0-0.7461,0.1113-1.0264,0.3335c-0.2803,0.2227-0.501,0.625-0.6621,1.2065
				s-0.2412,1.7998-0.2412,3.6543V42.8786z"/>
		</g>
	</g>
</g>
</svg>
