<?xml version="1.0" encoding="utf-8"?>
<!-- Generator: Adobe Illustrator 21.0.2, SVG Export Plug-In . SVG Version: 6.00 Build 0)  -->
<svg version="1.1" id="Capa_1" xmlns="http://www.w3.org/2000/svg" xmlns:xlink="http://www.w3.org/1999/xlink" x="0px" y="0px"
	 viewBox="0 0 341.8117 40.9182" style="enable-background:new 0 0 341.8117 40.9182;" xml:space="preserve">
<g>
	<g>
		<g>
			<rect x="31.0541" y="8.6556" style="fill:#C9452F;" width="310.7576" height="23.6066"/>
		</g>
		<path style="fill:#C9452F;" d="M40.7502,17.7993c1.6867,13.383-9.5679,24.6376-22.951,22.9508
			C8.6807,39.6009,1.3172,32.2375,0.168,23.1189C-1.5187,9.7361,9.7358-1.5186,23.1189,0.168
			C32.2375,1.3172,39.6009,8.6806,40.7502,17.7993z"/>
		<path style="fill:#F2F6E1;" d="M37.3254,18.2483c1.4019,11.1241-7.9531,20.479-19.0772,19.0771
			c-7.5795-0.9553-13.7001-7.076-14.6555-14.6555C2.1908,11.5458,11.5457,2.1908,22.6699,3.5927
			C30.2495,4.5479,36.3702,10.6687,37.3254,18.2483z"/>
		<g>
			<g>
				<path style="fill:#C9452F;" d="M19.1892,21.3613c0,3.1475-0.4961,5.498-1.4883,7.0508s-2.5098,2.3291-4.5527,2.3291
					c-1.96,0-3.4502-0.7949-4.4717-2.3857c-1.0215-1.5898-1.5322-3.9209-1.5322-6.9941c0-3.1719,0.4941-5.5264,1.4824-7.0625
					s2.4951-2.3047,4.5215-2.3047c1.9766,0,3.4775,0.8018,4.5029,2.4043S19.1892,18.3223,19.1892,21.3613z M9.2371,21.3613
					c0,2.6494,0.3115,4.5781,0.9346,5.7861c0.6221,1.208,1.6143,1.8125,2.9766,1.8125c1.3789,0,2.377-0.6123,2.9961-1.8369
					c0.6182-1.2256,0.9277-3.1455,0.9277-5.7617c0-2.6152-0.3096-4.5313-0.9277-5.748c-0.6191-1.2168-1.6172-1.8252-2.9961-1.8252
					c-1.3623,0-2.3545,0.6006-2.9766,1.7998C9.5486,16.7881,9.2371,18.7129,9.2371,21.3613z"/>
				<path style="fill:#C9452F;" d="M33.6755,30.4922H21.7058V28.711l4.7949-4.8203c1.4619-1.4785,2.4248-2.5332,2.8906-3.1641
					c0.4648-0.6309,0.8135-1.2461,1.0459-1.8438s0.3486-1.2412,0.3486-1.9307c0-0.9717-0.2949-1.7422-0.8838-2.3105
					c-0.5898-0.5684-1.4082-0.8535-2.4541-0.8535c-0.7559,0-1.4727,0.125-2.1494,0.374s-1.4297,0.7012-2.2607,1.3574l-1.0957-1.4072
					c1.6768-1.3955,3.5039-2.0928,5.4805-2.0928c1.7109,0,3.0518,0.4385,4.0234,1.3145c0.9717,0.876,1.458,2.0527,1.458,3.5313
					c0,1.1543-0.3242,2.2959-0.9717,3.4248c-0.6484,1.1299-1.8604,2.5586-3.6377,4.2852l-3.9863,3.8994v0.0996h9.3672V30.4922z"/>
			</g>
		</g>
	</g>
	<g>
		<g>
			<path style="fill:#FFFFFF;" d="M150.9109,20.9424h1.8604c0.0098,0.3223,0.0146,0.5078,0.0146,0.5566
				c0,0.5566-0.106,1.0364-0.3188,1.4392c-0.2119,0.4028-0.6274,0.8557-1.2451,1.3586s-0.9873,0.8545-1.1094,1.0547
				s-0.1831,0.4272-0.1831,0.6812c0,0.376,0.1611,0.7068,0.4834,0.9924s0.7544,0.4285,1.2964,0.4285
				c0.5225,0,0.957-0.1453,1.3037-0.4358s0.5908-0.7483,0.7324-1.3733l1.8896,0.2417c-0.083,0.6104-0.2563,1.1182-0.52,1.5234
				c-0.3613,0.5518-0.8315,0.9595-1.4097,1.2231c-0.5791,0.2637-1.2173,0.3955-1.9155,0.3955c-1.1768,0-2.1157-0.3088-2.8159-0.9265
				c-0.7012-0.6177-1.0513-1.3318-1.0513-2.1423c0-0.3125,0.062-0.6165,0.187-0.9119c0.124-0.2954,0.3193-0.592,0.5859-0.8899
				c0.2656-0.2979,0.6895-0.686,1.2705-1.1646c0.4248-0.3418,0.6895-0.6262,0.7949-0.8533
				C150.8655,21.9129,150.9158,21.5137,150.9109,20.9424z M152.7713,18.1738v2.0581h-2.0581v-2.0581H152.7713z"/>
			<path style="fill:#FFFFFF;" d="M164.3069,22.0044l2.1021,0.6665c-0.3223,1.1719-0.8584,2.0422-1.6074,2.6111
				c-0.75,0.5688-1.7007,0.8533-2.853,0.8533c-1.4258,0-2.5977-0.4871-3.5156-1.4612s-1.377-2.3059-1.377-3.9954
				c0-1.7871,0.4614-3.175,1.3843-4.1638s2.1362-1.4832,3.6401-1.4832c1.3135,0,2.3804,0.3882,3.2007,1.1646
				c0.4883,0.459,0.8545,1.1182,1.0986,1.9775l-2.146,0.5127c-0.127-0.5566-0.3921-0.9961-0.7944-1.3184
				c-0.4033-0.3223-0.8926-0.4834-1.4688-0.4834c-0.7959,0-1.4419,0.2856-1.9375,0.8569s-0.7432,1.4966-0.7432,2.7759
				c0,1.3574,0.2441,2.3242,0.7324,2.9004s1.123,0.8643,1.9043,0.8643c0.5762,0,1.0718-0.1831,1.4868-0.5493
				S164.1262,22.7905,164.3069,22.0044z"/>
			<path style="fill:#FFFFFF;" d="M167.7786,21.9531c0-0.6836,0.1685-1.3452,0.5054-1.9849s0.814-1.1279,1.4321-1.4648
				c0.6172-0.3369,1.3071-0.5054,2.0688-0.5054c1.1768,0,2.1411,0.3821,2.8931,1.1462s1.1279,1.7297,1.1279,2.8967
				c0,1.1768-0.3799,2.1521-1.1387,2.926c-0.7598,0.7739-1.7153,1.1609-2.8677,1.1609c-0.7129,0-1.3931-0.1611-2.0396-0.4834
				c-0.6475-0.3223-1.1392-0.7947-1.4761-1.4172S167.7786,22.8467,167.7786,21.9531z M169.888,22.063
				c0,0.7715,0.1831,1.3623,0.5493,1.7725s0.8179,0.6152,1.355,0.6152s0.9873-0.2051,1.3516-0.6152
				c0.3633-0.4102,0.5454-1.0059,0.5454-1.7871c0-0.7617-0.1821-1.3477-0.5454-1.7578c-0.3643-0.4102-0.8145-0.6152-1.3516-0.6152
				s-0.9888,0.2051-1.355,0.6152S169.888,21.2915,169.888,22.063z M170.7522,17.2217l1.0107-2.1899h2.3071l-2.0142,2.1899H170.7522z
				"/>
			<path style="fill:#FFFFFF;" d="M177.2634,18.1738h1.897v1.062c0.6787-0.8252,1.4868-1.2378,2.4243-1.2378
				c0.498,0,0.9302,0.1025,1.2964,0.3076s0.6665,0.5151,0.9009,0.9302c0.3418-0.415,0.7104-0.7251,1.106-0.9302
				s0.8179-0.3076,1.2671-0.3076c0.5713,0,1.0547,0.116,1.4502,0.3479s0.6909,0.5725,0.8862,1.0217
				c0.1416,0.332,0.2124,0.8691,0.2124,1.6113v4.9731h-2.0581v-4.4458c0-0.7715-0.0708-1.2695-0.2124-1.4941
				c-0.1904-0.293-0.4834-0.4395-0.8789-0.4395c-0.2881,0-0.5591,0.0879-0.813,0.2637s-0.437,0.4333-0.5493,0.7727
				s-0.1685,0.8752-0.1685,1.6077v3.7354h-2.0581v-4.2627c0-0.7568-0.0366-1.2451-0.1099-1.4648s-0.187-0.3833-0.3403-0.4907
				c-0.1543-0.1074-0.3628-0.1611-0.6265-0.1611c-0.3174,0-0.603,0.0854-0.8569,0.2563s-0.4355,0.4175-0.5459,0.7397
				c-0.1094,0.3223-0.1646,0.8569-0.1646,1.604v3.7793h-2.0581V18.1738z"/>
			<path style="fill:#FFFFFF;" d="M190.2786,21.9531c0-0.6836,0.1685-1.3452,0.5054-1.9849s0.814-1.1279,1.4321-1.4648
				c0.6172-0.3369,1.3071-0.5054,2.0688-0.5054c1.1768,0,2.1411,0.3821,2.8931,1.1462s1.1279,1.7297,1.1279,2.8967
				c0,1.1768-0.3799,2.1521-1.1387,2.926c-0.7598,0.7739-1.7153,1.1609-2.8677,1.1609c-0.7129,0-1.3931-0.1611-2.0396-0.4834
				c-0.6475-0.3223-1.1392-0.7947-1.4761-1.4172S190.2786,22.8467,190.2786,21.9531z M192.388,22.063
				c0,0.7715,0.1831,1.3623,0.5493,1.7725s0.8179,0.6152,1.355,0.6152s0.9873-0.2051,1.3516-0.6152
				c0.3633-0.4102,0.5454-1.0059,0.5454-1.7871c0-0.7617-0.1821-1.3477-0.5454-1.7578c-0.3643-0.4102-0.8145-0.6152-1.3516-0.6152
				s-0.9888,0.2051-1.355,0.6152S192.388,21.2915,192.388,22.063z"/>
			<path style="fill:#FFFFFF;" d="M204.3411,23.1836h-1.8677c-0.0049-0.2686-0.0073-0.4321-0.0073-0.4907
				c0-0.6055,0.1001-1.1035,0.3003-1.4941s0.6006-0.8301,1.2012-1.3184s0.9595-0.8081,1.0767-0.9595
				c0.1807-0.2393,0.271-0.5029,0.271-0.791c0-0.4004-0.1602-0.7434-0.4795-1.0291c-0.3203-0.2856-0.751-0.4285-1.293-0.4285
				c-0.5225,0-0.9595,0.1489-1.311,0.4468s-0.5933,0.752-0.7251,1.3623l-1.8896-0.2344c0.0537-0.874,0.4258-1.6162,1.1172-2.2266
				c0.6904-0.6104,1.5977-0.9155,2.7207-0.9155c1.1816,0,2.1216,0.3088,2.8198,0.9265c0.6982,0.6177,1.0474,1.3367,1.0474,2.157
				c0,0.4541-0.1279,0.8838-0.3848,1.2891c-0.2559,0.4053-0.8042,0.957-1.644,1.6553c-0.4346,0.3613-0.7046,0.6519-0.8091,0.8716
				C204.3787,22.2241,204.3313,22.6172,204.3411,23.1836z M202.4734,25.9522v-2.0581h2.0581v2.0581H202.4734z"/>
		</g>
	</g>
</g>
</svg>
