<?xml version="1.0" encoding="utf-8"?>
<!-- Generator: Adobe Illustrator 21.0.2, SVG Export Plug-In . SVG Version: 6.00 Build 0)  -->
<svg version="1.1" id="Capa_1" xmlns="http://www.w3.org/2000/svg" xmlns:xlink="http://www.w3.org/1999/xlink" x="0px" y="0px"
	 viewBox="0 0 205 51.576" style="enable-background:new 0 0 205 51.576;" xml:space="preserve">
<g>
	<g id="XMLID_5471_">
		<polygon id="XMLID_5472_" style="fill:#A03628;" points="183.1899,0.5001 205,25.7881 183.1899,51.076 163.3365,51.076 
			185.1466,25.7881 163.3365,0.5001 168.1899,0.5001 		"/>
	</g>
	<g id="XMLID_5468_">
		<polygon id="XMLID_5469_" style="fill:#A03628;" points="21.8101,51.0759 0,25.7879 21.8101,0.5 41.6635,0.5 19.8534,25.7879 
			41.6635,51.0759 21.8101,51.0759 		"/>
	</g>
	<polygon id="XMLID_5466_" style="fill:#FFFFFF;stroke:#C9452F;stroke-miterlimit:10;" points="47.671,0.5 157.329,0.5001 
		179.1391,25.7881 157.329,51.076 47.671,51.0759 25.8609,25.7879 	"/>
	<g>
		<g>
			<path style="fill:#A03628;" d="M53.6254,32.3779V17.3286h4.876c1.8486,0,3.0527,0.0757,3.6143,0.2261
				c0.8623,0.2256,1.584,0.7168,2.166,1.4731c0.5811,0.7559,0.8721,1.7329,0.8721,2.9307c0,0.9238-0.168,1.7007-0.5029,2.3301
				c-0.335,0.6299-0.7617,1.124-1.2783,1.4834s-1.042,0.5972-1.5752,0.7134c-0.7256,0.144-1.7764,0.2158-3.1514,0.2158h-1.9814
				v5.6768H53.6254z M56.6645,19.8745v4.2705h1.6631c1.1973,0,1.998-0.0786,2.4014-0.2363
				c0.4043-0.1572,0.7207-0.4033,0.9502-0.7388s0.3438-0.7256,0.3438-1.1704c0-0.5474-0.1611-0.999-0.4824-1.355
				c-0.3223-0.356-0.7285-0.5781-1.2217-0.6675c-0.3633-0.0684-1.0918-0.1025-2.1865-0.1025H56.6645z"/>
			<path style="fill:#A03628;" d="M70.3891,32.3779h-2.8848V21.476h2.6797v1.5498c0.458-0.7319,0.8701-1.2144,1.2363-1.4473
				c0.3662-0.2324,0.7822-0.3491,1.248-0.3491c0.6563,0,1.2891,0.1816,1.8984,0.5439l-0.8926,2.5151
				c-0.4863-0.3145-0.9375-0.4722-1.3555-0.4722c-0.4033,0-0.7461,0.1113-1.0264,0.3335c-0.2803,0.2227-0.501,0.625-0.6621,1.2065
				s-0.2412,1.7998-0.2412,3.6543V32.3779z"/>
			<path style="fill:#A03628;" d="M82.1225,28.9082l2.874,0.4824c-0.3691,1.0542-0.9531,1.8564-1.75,2.4072
				c-0.7969,0.5513-1.7949,0.8267-2.9922,0.8267c-1.8955,0-3.2988-0.6196-4.209-1.8584c-0.7188-0.9922-1.0781-2.2446-1.0781-3.7568
				c0-1.8071,0.4727-3.2217,1.417-4.2451c0.9443-1.0229,2.1387-1.5347,3.583-1.5347c1.6211,0,2.9014,0.5356,3.8389,1.6064
				c0.9375,1.0713,1.3857,2.7119,1.3447,4.9224h-7.2266c0.0205,0.856,0.2529,1.521,0.6973,1.9966
				c0.4453,0.4761,1,0.7139,1.6631,0.7139c0.4521,0,0.832-0.1235,1.1396-0.3696C81.7328,29.8525,81.9652,29.4555,82.1225,28.9082z
				 M82.2865,25.9926c-0.0205-0.835-0.2363-1.4692-0.6465-1.9043c-0.4102-0.4346-0.9102-0.6519-1.499-0.6519
				c-0.6299,0-1.1494,0.2295-1.5605,0.688c-0.4102,0.4585-0.6123,1.0815-0.6055,1.8682H82.2865z"/>
			<path style="fill:#A03628;" d="M87.2348,33.0967l3.2949,0.4004c0.0547,0.3828,0.1816,0.6465,0.3799,0.79
				c0.2734,0.2056,0.7051,0.3081,1.2939,0.3081c0.752,0,1.3174-0.1128,1.6934-0.3389c0.2529-0.1504,0.4453-0.3936,0.5752-0.7285
				c0.0889-0.2397,0.1328-0.6812,0.1328-1.3242v-1.5913c-0.8623,1.1772-1.9502,1.7656-3.2637,1.7656
				c-1.4648,0-2.625-0.6191-3.4805-1.8579c-0.6709-0.9785-1.0059-2.1968-1.0059-3.6548c0-1.8271,0.4395-3.2231,1.3193-4.188
				c0.8789-0.9653,1.9727-1.4478,3.2793-1.4478c1.3486,0,2.4609,0.5923,3.3369,1.7759V21.476h2.6992v9.7827
				c0,1.2866-0.1055,2.2485-0.3184,2.8848c-0.2119,0.6367-0.5098,1.1357-0.8926,1.499c-0.3838,0.3623-0.8945,0.6465-1.5352,0.8521
				c-0.6396,0.2051-1.4492,0.3076-2.4277,0.3076c-1.8477,0-3.1582-0.3164-3.9316-0.9492c-0.7734-0.6333-1.1602-1.436-1.1602-2.4077
				C87.224,33.3496,87.2279,33.2334,87.2348,33.0967z M89.811,26.7011c0,1.1567,0.2246,2.0034,0.6729,2.5405
				c0.4482,0.5376,1.001,0.8062,1.6582,0.8062c0.7041,0,1.2998-0.2754,1.7861-0.8267c0.4854-0.5508,0.7285-1.3667,0.7285-2.4482
				c0-1.1294-0.2324-1.9673-0.6982-2.5151c-0.4648-0.5474-1.0537-0.8213-1.7656-0.8213c-0.6914,0-1.2607,0.269-1.709,0.8062
				S89.811,25.5991,89.811,26.7011z"/>
			<path style="fill:#A03628;" d="M107.519,32.3779v-1.6323c-0.3965,0.582-0.9189,1.0405-1.5654,1.3755
				c-0.6465,0.3354-1.3291,0.5034-2.0479,0.5034c-0.7324,0-1.3896-0.1611-1.9707-0.4829c-0.582-0.3213-1.0029-0.773-1.2627-1.355
				c-0.2607-0.5815-0.3906-1.3857-0.3906-2.4121V21.476h2.8848v5.0093c0,1.5332,0.0527,2.4727,0.1592,2.8179
				c0.1064,0.3457,0.2988,0.6196,0.5801,0.8213c0.2803,0.2021,0.6367,0.3027,1.0674,0.3027c0.4932,0,0.9346-0.1348,1.3242-0.4053
				c0.3906-0.27,0.6572-0.6055,0.8008-1.0059s0.2158-1.3809,0.2158-2.9414V21.476h2.8848v10.9019H107.519z"/>
			<path style="fill:#A03628;" d="M123.1029,32.3779h-2.8848v-5.564c0-1.1768-0.0615-1.9385-0.1846-2.2842
				c-0.123-0.3452-0.3232-0.6138-0.6006-0.8057c-0.2773-0.1914-0.6113-0.2876-1.001-0.2876c-0.5,0-0.9482,0.1372-1.3447,0.4106
				c-0.3975,0.2739-0.6689,0.6367-0.8164,1.0884s-0.2207,1.2866-0.2207,2.5049v4.9375h-2.8848V21.476h2.6797v1.6016
				c0.9512-1.2319,2.1484-1.8481,3.5928-1.8481c0.6367,0,1.2178,0.1147,1.7451,0.3442c0.5273,0.229,0.9258,0.5215,1.1963,0.8774
				c0.2695,0.356,0.458,0.7598,0.5645,1.2114c0.1055,0.4517,0.1592,1.0981,0.1592,1.9399V32.3779z"/>
			<path style="fill:#A03628;" d="M131.0278,21.476v2.2993h-1.9717v4.3936c0,0.8896,0.0186,1.4082,0.0566,1.5552
				c0.0371,0.1475,0.123,0.269,0.2568,0.3647s0.2959,0.1436,0.4873,0.1436c0.2666,0,0.6533-0.0923,1.1602-0.2773l0.2461,2.2383
				c-0.6709,0.2871-1.4297,0.4312-2.2783,0.4312c-0.5205,0-0.9893-0.0874-1.4063-0.2622c-0.418-0.1743-0.7246-0.3999-0.9189-0.6772
				c-0.1953-0.2773-0.3301-0.6519-0.4053-1.124c-0.0625-0.3354-0.0928-1.0127-0.0928-2.0327v-4.7529h-1.3242V21.476h1.3242V19.31
				l2.8945-1.6836v3.8496H131.0278z"/>
			<path style="fill:#A03628;" d="M135.185,24.8017l-2.6182-0.4722c0.2939-1.0537,0.8008-1.834,1.5195-2.3403
				s1.7861-0.7598,3.2031-0.7598c1.2861,0,2.2441,0.1523,2.874,0.457s1.0723,0.6914,1.3291,1.1597
				c0.2568,0.4692,0.3848,1.3296,0.3848,2.582l-0.0303,3.3672c0,0.958,0.0459,1.6646,0.1387,2.1196
				c0.0918,0.4551,0.2646,0.9429,0.5186,1.4629h-2.8545c-0.0752-0.1914-0.167-0.4756-0.2764-0.8521
				c-0.0488-0.1709-0.083-0.2837-0.1035-0.3389c-0.4922,0.479-1.0195,0.8384-1.5801,1.0781
				c-0.5615,0.2393-1.1602,0.3594-1.7969,0.3594c-1.1221,0-2.0068-0.3047-2.6533-0.9141c-0.6475-0.6089-0.9707-1.3789-0.9707-2.3096
				c0-0.6157,0.1475-1.165,0.4414-1.6475c0.2949-0.4824,0.707-0.8521,1.2373-1.1089c0.5303-0.2563,1.2949-0.4805,2.2939-0.6724
				c1.3486-0.2529,2.2832-0.4893,2.8027-0.708v-0.2876c0-0.5542-0.1367-0.9497-0.4102-1.1855
				c-0.2744-0.2363-0.791-0.3545-1.5508-0.3545c-0.5127,0-0.9131,0.1011-1.2002,0.3032
				C135.5951,23.9414,135.3627,24.2954,135.185,24.8017z M139.0444,27.1425c-0.3691,0.123-0.9541,0.2705-1.7549,0.4414
				s-1.3242,0.3389-1.5713,0.5029c-0.376,0.2671-0.5645,0.6055-0.5645,1.0161c0,0.4043,0.1504,0.7529,0.4521,1.0474
				c0.3008,0.2944,0.6836,0.4414,1.1494,0.4414c0.5205,0,1.0166-0.1709,1.4883-0.5132c0.3496-0.2603,0.5781-0.5786,0.6885-0.9551
				c0.0752-0.2461,0.1123-0.7148,0.1123-1.4063V27.1425z"/>
			<path style="fill:#A03628;" d="M143.7055,29.2675l2.8945-0.4414c0.123,0.561,0.373,0.9873,0.749,1.2778
				c0.377,0.291,0.9033,0.4365,1.5811,0.4365c0.7461,0,1.3076-0.1367,1.6836-0.4106c0.2529-0.1914,0.3799-0.4482,0.3799-0.77
				c0-0.2188-0.0684-0.4004-0.2051-0.5439c-0.1436-0.1367-0.4658-0.2637-0.9648-0.3799c-2.3271-0.5132-3.8018-0.9819-4.4248-1.4063
				c-0.8623-0.5889-1.293-1.4067-1.293-2.4536c0-0.9443,0.3721-1.7383,1.1182-2.3818c0.7461-0.6431,1.9023-0.9648,3.4697-0.9648
				c1.4922,0,2.6006,0.2432,3.3262,0.729s1.2256,1.2046,1.499,2.1558l-2.7207,0.5029c-0.1162-0.4243-0.3369-0.7495-0.6621-0.9751
				c-0.3252-0.2261-0.7891-0.3389-1.3906-0.3389c-0.7598,0-1.3037,0.106-1.6318,0.3184c-0.2197,0.1504-0.3291,0.3457-0.3291,0.585
				c0,0.2056,0.0957,0.3799,0.2871,0.5234c0.2607,0.1919,1.1582,0.4619,2.6953,0.811c1.5361,0.3491,2.6084,0.7769,3.2178,1.2832
				c0.6025,0.5132,0.9033,1.2285,0.9033,2.1455c0,0.9995-0.417,1.8579-1.252,2.5767c-0.835,0.7188-2.0703,1.0781-3.7061,1.0781
				c-1.4854,0-2.6602-0.3013-3.5264-0.9038C144.5385,31.1186,143.9721,30.3008,143.7055,29.2675z"/>
		</g>
	</g>
</g>
</svg>
