<?xml version="1.0" encoding="utf-8"?>
<!-- Generator: Adobe Illustrator 21.0.2, SVG Export Plug-In . SVG Version: 6.00 Build 0)  -->
<svg version="1.1" id="Capa_1" xmlns="http://www.w3.org/2000/svg" xmlns:xlink="http://www.w3.org/1999/xlink" x="0px" y="0px"
	 viewBox="0 0 352.5684 107.9874" style="enable-background:new 0 0 352.5684 107.9874;" xml:space="preserve">
<g>
	<g>
		<defs>
			<rect id="SVGID_15_" width="123.6049" height="104.0381"/>
		</defs>
		<clipPath id="SVGID_2_">
			<use xlink:href="#SVGID_15_"  style="overflow:visible;"/>
		</clipPath>
		<g id="Acces_1_" style="clip-path:url(#SVGID_2_);">
			<g id="Tablet_2_">
				<path style="fill:#34495E;" d="M106.6746,59.258c0,5.0149-0.6601,4.7286-5.6742,4.7286H42.5513
					c-5.015,0-5.4854-0.4705-5.4854-5.4854V19.3449c0-5.014,1.0385-5.2958,6.0524-5.2958l56.1797-0.057
					c5.0141,0,7.3268-0.9981,7.3268,4.0168L106.6746,59.258z"/>
				<rect x="41.382" y="18.6994" style="fill:#EDEDED;" width="60.9764" height="40.5016"/>
				<g>
					<path style="fill:#F94851;" d="M82.8235,43.7105c0,1.4998-1.2153,2.7151-2.7151,2.7151H62.158
						c-1.4998,0-2.7151-1.2153-2.7151-2.7151V32.5482c0-1.4998,1.2153-2.7151,2.7151-2.7151h17.9504
						c1.4998,0,2.7151,1.2153,2.7151,2.7151V43.7105z"/>
					<polygon style="fill:#EDEDED;" points="76.2554,38.2804 71.8877,40.8021 67.5191,43.3248 67.5191,38.2804 67.5191,33.2359 
						71.8877,35.7586 					"/>
				</g>
			</g>
			<g id="Hand_2_">
				<g>
					<path style="fill:#F9BBA2;" d="M15.8793,80.3268l3.5944-16.2674c0,0,0.1888-2.6488,4.9182-7.3774
						c4.7286-4.7296,12.6741-15.0384,12.6741-15.0384v14.2033l-3.5944,6.604L43.496,51.0068c0,0,6.8112-3.4249,5.7174,4.1513
						c0,0-8.554,12.1162-8.7428,13.0626c-0.1896,0.9456-0.3794,5.8638-4.1624,11.1596c-3.783,5.2976-3.9718,6.999-3.9718,6.999
						l-0.7568,1.1352L15.8793,80.3268z"/>
					<path style="fill:#586771;" d="M13.6089,79.57l20.997,7.9446c0,0-1.7014,8.1342-4.5398,15.1332
						c-2.8366,6.998-26.8598,5.107-26.8598,5.107l2.2694-7.5671L13.6089,79.57z"/>
					<path style="fill:#00BB83;" d="M34.6058,87.5145L13.6089,79.57l-1.8652,4.7304L33.4071,92.43
						C34.1824,89.5363,34.6058,87.5145,34.6058,87.5145z"/>
					<path style="opacity:0.3;fill:#FFFFFF;" d="M43.1184,52.0335l5.1743,3.8134C48.2926,55.8469,50.0179,48.3111,43.1184,52.0335z"
						/>
					<path style="opacity:0.2;" d="M34.6058,87.5145l-10.6926-4.0464l-8.9527,24.3915c6.535-0.3582,13.6407-1.6002,15.1056-5.212
						c2.7151-6.6952,4.3889-14.4243,4.5288-15.0826C34.6022,87.5357,34.6058,87.5145,34.6058,87.5145z"/>
				</g>
			</g>
		</g>
	</g>
	<g>
		<g>
			<path d="M119.3521,37.4511l-4.8613-13.6006h2.978l3.4419,10.0654l3.3306-10.0654h2.9131l-4.8706,13.6006H119.3521z"/>
			<path d="M133.1939,34.3153l2.5977,0.4365c-0.334,0.9521-0.8613,1.6777-1.582,2.1748c-0.7202,0.498-1.6221,0.7471-2.7041,0.7471
				c-1.7134,0-2.9814-0.5596-3.8037-1.6797c-0.6494-0.8965-0.9741-2.0283-0.9741-3.3945c0-1.6328,0.4268-2.9121,1.2803-3.8369
				c0.8535-0.9238,1.9326-1.3867,3.2378-1.3867c1.4658,0,2.6221,0.4844,3.4697,1.4521c0.8472,0.9678,1.2524,2.4502,1.2153,4.4482
				h-6.5313c0.0186,0.7734,0.2285,1.375,0.6309,1.8047c0.4019,0.4297,0.9028,0.6445,1.5029,0.6445
				c0.4082,0,0.7515-0.1113,1.0298-0.334S133.0513,34.8104,133.1939,34.3153z M133.3423,31.6806
				c-0.0186-0.7549-0.2134-1.3281-0.5845-1.7207s-0.8228-0.5889-1.3545-0.5889c-0.5693,0-1.0391,0.207-1.4102,0.6211
				s-0.5537,0.9775-0.5474,1.6885H133.3423z"/>
			<path d="M140.5508,37.4511h-2.6069v-9.8525h2.4214v1.4014c0.4141-0.6621,0.7871-1.0986,1.1182-1.3086
				c0.3306-0.21,0.7061-0.3154,1.127-0.3154c0.5938,0,1.1655,0.1641,1.7163,0.4912l-0.8071,2.2734
				c-0.4395-0.2842-0.8477-0.4268-1.2246-0.4268c-0.3652,0-0.6743,0.1006-0.9277,0.3018c-0.2539,0.2012-0.4531,0.5645-0.5986,1.0898
				c-0.145,0.5254-0.2178,1.627-0.2178,3.3027V37.4511z"/>
			<path d="M153.4371,37.4511l-3.9707-9.8525h2.7368l1.8555,5.0283l0.5381,1.6797c0.1421-0.4277,0.2319-0.709,0.269-0.8447
				c0.0864-0.2783,0.1792-0.5566,0.2783-0.835l1.874-5.0283h2.6812l-3.915,9.8525H153.4371z"/>
			<path d="M161.295,26.2626v-2.4121h2.6069v2.4121H161.295z M161.295,37.4511v-9.8525h2.6069v9.8525H161.295z"/>
			<path d="M175.6099,37.4511h-2.4214v-1.4473c-0.4023,0.5625-0.877,0.9824-1.4238,1.2568
				c-0.5479,0.2754-1.0996,0.4131-1.6563,0.4131c-1.1318,0-2.1016-0.4561-2.9082-1.3682c-0.8076-0.9121-1.2109-2.1846-1.2109-3.8174
				c0-1.6699,0.3926-2.9395,1.1782-3.8086c0.7852-0.8691,1.7778-1.3037,2.978-1.3037c1.1006,0,2.0532,0.458,2.8574,1.373v-4.8984
				h2.6069V37.4511z M168.6519,32.3114c0,1.0518,0.145,1.8125,0.436,2.2822c0.4204,0.6807,1.0078,1.0205,1.7627,1.0205
				c0.5996,0,1.1099-0.2549,1.5308-0.7656c0.4204-0.5098,0.6309-1.2725,0.6309-2.2861c0-1.1328-0.2041-1.9473-0.6123-2.4453
				c-0.4082-0.4971-0.9312-0.7461-1.5679-0.7461c-0.6187,0-1.1367,0.2451-1.5537,0.7373
				C168.8604,30.5995,168.6519,31.3339,168.6519,32.3114z"/>
			<path d="M183.8853,34.3153l2.5977,0.4365c-0.334,0.9521-0.8613,1.6777-1.582,2.1748c-0.7202,0.498-1.6221,0.7471-2.7041,0.7471
				c-1.7134,0-2.9814-0.5596-3.8037-1.6797c-0.6494-0.8965-0.9741-2.0283-0.9741-3.3945c0-1.6328,0.4268-2.9121,1.2803-3.8369
				c0.8535-0.9238,1.9326-1.3867,3.2378-1.3867c1.4658,0,2.6221,0.4844,3.4697,1.4521c0.8472,0.9678,1.2524,2.4502,1.2153,4.4482
				h-6.5313c0.0186,0.7734,0.2285,1.375,0.6309,1.8047c0.4019,0.4297,0.9028,0.6445,1.5029,0.6445
				c0.4082,0,0.7515-0.1113,1.0298-0.334S183.7427,34.8104,183.8853,34.3153z M184.0337,31.6806
				c-0.0186-0.7549-0.2134-1.3281-0.5845-1.7207s-0.8228-0.5889-1.3545-0.5889c-0.5693,0-1.0391,0.207-1.4102,0.6211
				s-0.5537,0.9775-0.5474,1.6885H184.0337z"/>
			<path d="M188.1436,32.3856c0-0.8662,0.2134-1.7041,0.6401-2.5147c0.4268-0.8096,1.0313-1.4277,1.814-1.8555
				c0.7822-0.4258,1.6558-0.6396,2.6206-0.6396c1.4902,0,2.7119,0.4844,3.6646,1.4521c0.9521,0.9678,1.4287,2.1904,1.4287,3.6689
				c0,1.4902-0.481,2.7266-1.4424,3.7061c-0.9619,0.9805-2.1729,1.4707-3.6323,1.4707c-0.9033,0-1.7642-0.2041-2.5835-0.6123
				c-0.8198-0.4082-1.4429-1.0068-1.8696-1.7949C188.357,34.4774,188.1436,33.5175,188.1436,32.3856z M190.8155,32.5253
				c0,0.9766,0.2319,1.7246,0.6958,2.2441s1.0356,0.7793,1.7163,0.7793c0.6802,0,1.251-0.2598,1.7119-0.7793
				c0.4604-0.5195,0.6909-1.2734,0.6909-2.2637c0-0.9648-0.2305-1.707-0.6909-2.2266c-0.4609-0.5195-1.0317-0.7793-1.7119-0.7793
				c-0.6807,0-1.2524,0.2598-1.7163,0.7793S190.8155,31.5477,190.8155,32.5253z"/>
		</g>
	</g>
	<g>
		<path style="fill:#3569DB;" d="M115.2252,51.0194v-7.874h0.9668v2.8252c0.4512-0.5225,1.0205-0.7842,1.708-0.7842
			c0.4224,0,0.7896,0.083,1.1011,0.25c0.3115,0.166,0.5342,0.3965,0.6689,0.6904c0.1338,0.293,0.2012,0.7188,0.2012,1.2773v3.6152
			h-0.9668v-3.6152c0-0.4824-0.1045-0.835-0.3145-1.0547c-0.209-0.2207-0.5054-0.3301-0.8887-0.3301
			c-0.2866,0-0.5557,0.0742-0.8086,0.2227c-0.252,0.1484-0.4321,0.3496-0.5396,0.6035c-0.1074,0.2549-0.1611,0.6055-0.1611,1.0527
			v3.1211H115.2252z"/>
		<path style="fill:#3569DB;" d="M123.4537,50.1542l0.1396,0.8545c-0.272,0.0576-0.5156,0.0859-0.7305,0.0859
			c-0.3511,0-0.623-0.0557-0.8164-0.167c-0.1934-0.1104-0.3296-0.2568-0.4082-0.4375s-0.1182-0.5605-0.1182-1.1406v-3.2822h-0.709
			v-0.752h0.709v-1.4131l0.9614-0.5801v1.9932h0.9722v0.752h-0.9722v3.335c0,0.2764,0.0171,0.4531,0.0513,0.5322
			c0.0337,0.0791,0.0894,0.1416,0.166,0.1885c0.0771,0.0459,0.1875,0.0693,0.3306,0.0693
			C123.1368,50.1923,123.2784,50.1796,123.4537,50.1542z"/>
		<path style="fill:#3569DB;" d="M126.5098,50.1542l0.1396,0.8545c-0.272,0.0576-0.5156,0.0859-0.7305,0.0859
			c-0.3511,0-0.623-0.0557-0.8164-0.167c-0.1934-0.1104-0.3296-0.2568-0.4082-0.4375s-0.1182-0.5605-0.1182-1.1406v-3.2822h-0.709
			v-0.752h0.709v-1.4131l0.9614-0.5801v1.9932h0.9722v0.752h-0.9722v3.335c0,0.2764,0.0171,0.4531,0.0513,0.5322
			c0.0337,0.0791,0.0894,0.1416,0.166,0.1885c0.0771,0.0459,0.1875,0.0693,0.3306,0.0693
			C126.1929,50.1923,126.3345,50.1796,126.5098,50.1542z"/>
		<path style="fill:#3569DB;" d="M127.4551,53.205v-7.8896h0.8809v0.7412c0.2075-0.29,0.4424-0.5078,0.7036-0.6523
			c0.2612-0.1455,0.5781-0.2178,0.9507-0.2178c0.4868,0,0.9165,0.125,1.2891,0.376s0.6533,0.6045,0.8433,1.0605
			c0.1899,0.457,0.2847,0.957,0.2847,1.502c0,0.583-0.105,1.1084-0.314,1.5762c-0.21,0.4668-0.5142,0.8252-0.9131,1.0742
			c-0.3994,0.249-0.8193,0.373-1.2598,0.373c-0.3223,0-0.6113-0.0684-0.8672-0.2041c-0.2563-0.1357-0.4668-0.3076-0.6313-0.5156
			v2.7764H127.4551z M128.3306,48.1991c0,0.7344,0.1484,1.2773,0.4458,1.6279s0.6572,0.5264,1.0796,0.5264
			c0.4297,0,0.7979-0.1816,1.1035-0.5449c0.3066-0.3633,0.4595-0.9268,0.4595-1.6895c0-0.7266-0.1494-1.2715-0.4487-1.6328
			c-0.2988-0.3613-0.6558-0.543-1.0713-0.543c-0.4116,0-0.7764,0.1934-1.0928,0.5781
			C128.4888,46.9061,128.3306,47.4657,128.3306,48.1991z"/>
		<path style="fill:#3569DB;" d="M133.1861,49.3163l0.9561-0.1504c0.0537,0.3838,0.2031,0.6777,0.4487,0.8809
			c0.2451,0.2051,0.5879,0.3066,1.0283,0.3066c0.4438,0,0.7734-0.0908,0.9883-0.2715s0.3223-0.3926,0.3223-0.6367
			c0-0.2178-0.0947-0.3896-0.2847-0.5156c-0.1323-0.0859-0.4619-0.1943-0.9883-0.3271c-0.709-0.1787-1.2007-0.334-1.4741-0.4648
			c-0.2744-0.1309-0.4819-0.3115-0.623-0.542c-0.1416-0.2314-0.2124-0.4863-0.2124-0.7656c0-0.2539,0.0581-0.4893,0.1743-0.7061
			c0.1167-0.2168,0.2749-0.3965,0.4756-0.54c0.1504-0.1113,0.3555-0.2051,0.6152-0.2822c0.2593-0.0771,0.5376-0.1152,0.835-0.1152
			c0.4478,0,0.8408,0.0645,1.1787,0.1934c0.3389,0.1289,0.5884,0.3037,0.7495,0.5234c0.1611,0.2207,0.272,0.5146,0.333,0.8838
			l-0.9453,0.1289c-0.043-0.2939-0.1675-0.5225-0.3735-0.6875c-0.2056-0.165-0.4966-0.2471-0.8726-0.2471
			c-0.4438,0-0.7607,0.0732-0.9507,0.2197c-0.1899,0.1475-0.2847,0.3193-0.2847,0.5156c0,0.126,0.0396,0.2383,0.1182,0.3389
			c0.0786,0.1035,0.2021,0.1895,0.3706,0.2578c0.0967,0.0361,0.3813,0.1182,0.854,0.2471c0.6841,0.1826,1.1611,0.332,1.4312,0.4482
			c0.2705,0.1162,0.4829,0.2861,0.6367,0.5078s0.231,0.498,0.231,0.8271c0,0.3223-0.0942,0.626-0.2817,0.9102
			c-0.1885,0.2852-0.4595,0.5049-0.814,0.6611c-0.3545,0.1553-0.7554,0.2334-1.2031,0.2334c-0.7412,0-1.3062-0.1543-1.6948-0.4619
			C133.5415,50.3788,133.2935,49.9218,133.1861,49.3163z"/>
		<path style="fill:#3569DB;" d="M139.3414,46.4159v-1.1006h1.1011v1.1006H139.3414z M139.3414,51.0194v-1.1016h1.1011v1.1016
			H139.3414z"/>
		<path style="fill:#3569DB;" d="M141.4039,51.1542l2.2827-8.1426h0.7734l-2.2773,8.1426H141.4039z"/>
		<path style="fill:#3569DB;" d="M144.46,51.1542l2.2827-8.1426h0.7734l-2.2773,8.1426H144.46z"/>
		<path style="fill:#3569DB;" d="M149.294,51.0194l-1.7456-5.7041h0.999l0.9077,3.292l0.3384,1.2246
			c0.0142-0.0605,0.1128-0.4521,0.2954-1.1758l0.9077-3.3408h0.9937l0.854,3.3086l0.2847,1.0908l0.3276-1.1016l0.9775-3.2979h0.9399
			l-1.7832,5.7041h-1.0044l-0.9077-3.416l-0.2202-0.9727l-1.1548,4.3887H149.294z"/>
		<path style="fill:#3569DB;" d="M157.2378,51.0194l-1.7456-5.7041h0.999l0.9077,3.292l0.3384,1.2246
			c0.0142-0.0605,0.1128-0.4521,0.2954-1.1758l0.9077-3.3408h0.9937l0.854,3.3086l0.2847,1.0908l0.3276-1.1016l0.9775-3.2979h0.9399
			l-1.7832,5.7041h-1.0044l-0.9077-3.416l-0.2202-0.9727l-1.1548,4.3887H157.2378z"/>
		<path style="fill:#3569DB;" d="M165.1817,51.0194l-1.7456-5.7041h0.999l0.9077,3.292l0.3384,1.2246
			c0.0142-0.0605,0.1128-0.4521,0.2954-1.1758l0.9077-3.3408h0.9937l0.854,3.3086l0.2847,1.0908l0.3276-1.1016l0.9775-3.2979h0.9399
			l-1.7832,5.7041h-1.0044l-0.9077-3.416l-0.2202-0.9727l-1.1548,4.3887H165.1817z"/>
		<path style="fill:#3569DB;" d="M171.7398,51.0194v-1.1016h1.1011v1.1016H171.7398z"/>
		<path style="fill:#3569DB;" d="M174.479,53.2167l-0.1074-0.9082c0.2114,0.0576,0.3955,0.0859,0.5532,0.0859
			c0.2148,0,0.3867-0.0361,0.5156-0.1074s0.2344-0.1719,0.3169-0.3008c0.061-0.0967,0.1592-0.3369,0.2954-0.7197
			c0.0181-0.0537,0.0464-0.1328,0.0859-0.2363l-2.1646-5.7148h1.042l1.187,3.3037c0.1538,0.418,0.292,0.8594,0.4136,1.3203
			c0.1108-0.4434,0.2437-0.877,0.3975-1.2988l1.2192-3.3252h0.9668l-2.1699,5.8008c-0.2329,0.627-0.4136,1.0576-0.5425,1.2939
			c-0.1719,0.3193-0.3687,0.5527-0.5908,0.7012s-0.4868,0.2227-0.7949,0.2227C174.9161,53.3339,174.7081,53.2948,174.479,53.2167z"
			/>
		<path style="fill:#3569DB;" d="M179.6622,48.1679c0-1.0566,0.2935-1.8389,0.8809-2.3477
			c0.4907-0.4229,1.0884-0.6338,1.7939-0.6338c0.7842,0,1.4253,0.2568,1.9229,0.7705s0.7466,1.2236,0.7466,2.1299
			c0,0.7344-0.1099,1.3115-0.3306,1.7324c-0.2197,0.4209-0.5405,0.7471-0.9609,0.9795c-0.4209,0.2334-0.8804,0.3496-1.3779,0.3496
			c-0.7983,0-1.4438-0.2559-1.9365-0.7676C179.9082,49.8681,179.6622,49.1307,179.6622,48.1679z M180.6558,48.1679
			c0,0.7305,0.1592,1.2773,0.478,1.6406s0.7197,0.5449,1.2031,0.5449c0.48,0,0.8789-0.1826,1.1978-0.5479s0.478-0.9219,0.478-1.6709
			c0-0.7051-0.1602-1.2393-0.4805-1.6025c-0.3208-0.3633-0.7192-0.5459-1.1953-0.5459c-0.4834,0-0.8843,0.1816-1.2031,0.543
			S180.6558,47.4374,180.6558,48.1679z"/>
		<path style="fill:#3569DB;" d="M189.878,51.0194v-0.8379c-0.4438,0.6445-1.0474,0.9668-1.8101,0.9668
			c-0.3364,0-0.6509-0.0645-0.9424-0.1934c-0.292-0.1289-0.5088-0.291-0.6504-0.4863c-0.1411-0.1953-0.2407-0.4336-0.2979-0.7168
			c-0.0396-0.1895-0.0591-0.4902-0.0591-0.9023v-3.5342h0.9668v3.1631c0,0.5059,0.0195,0.8457,0.0591,1.0215
			c0.061,0.2539,0.1899,0.4531,0.3867,0.5986c0.1968,0.1445,0.4404,0.2178,0.7305,0.2178s0.562-0.0752,0.8164-0.2236
			s0.4341-0.3506,0.54-0.6064c0.1055-0.2559,0.1582-0.6279,0.1582-1.1152v-3.0557h0.9668v5.7041H189.878z"/>
		<path style="fill:#3569DB;" d="M194.3682,50.1542l0.1396,0.8545c-0.272,0.0576-0.5156,0.0859-0.7305,0.0859
			c-0.3511,0-0.623-0.0557-0.8164-0.167c-0.1934-0.1104-0.3296-0.2568-0.4082-0.4375s-0.1182-0.5605-0.1182-1.1406v-3.2822h-0.709
			v-0.752h0.709v-1.4131l0.9614-0.5801v1.9932h0.9722v0.752h-0.9722v3.335c0,0.2764,0.0171,0.4531,0.0513,0.5322
			c0.0337,0.0791,0.0894,0.1416,0.166,0.1885c0.0771,0.0459,0.1875,0.0693,0.3306,0.0693
			C194.0513,50.1923,194.1929,50.1796,194.3682,50.1542z"/>
		<path style="fill:#3569DB;" d="M199.0518,51.0194v-0.8379c-0.4438,0.6445-1.0474,0.9668-1.8101,0.9668
			c-0.3364,0-0.6509-0.0645-0.9424-0.1934c-0.292-0.1289-0.5088-0.291-0.6504-0.4863c-0.1411-0.1953-0.2407-0.4336-0.2979-0.7168
			c-0.0396-0.1895-0.0591-0.4902-0.0591-0.9023v-3.5342h0.9668v3.1631c0,0.5059,0.0195,0.8457,0.0591,1.0215
			c0.061,0.2539,0.1899,0.4531,0.3867,0.5986c0.1968,0.1445,0.4404,0.2178,0.7305,0.2178s0.562-0.0752,0.8164-0.2236
			s0.4341-0.3506,0.54-0.6064c0.1055-0.2559,0.1582-0.6279,0.1582-1.1152v-3.0557h0.9668v5.7041H199.0518z"/>
		<path style="fill:#3569DB;" d="M202.3228,51.0194h-0.897v-7.874h0.9668v2.8096c0.4082-0.5127,0.9292-0.7686,1.563-0.7686
			c0.3511,0,0.6831,0.0703,0.9966,0.2119c0.313,0.1416,0.5708,0.3408,0.7734,0.5967c0.2021,0.2559,0.3604,0.5645,0.4751,0.9268
			c0.1147,0.3613,0.1719,0.748,0.1719,1.1602c0,0.9766-0.2417,1.7324-0.7251,2.2656c-0.4834,0.5342-1.0635,0.8008-1.7402,0.8008
			c-0.6733,0-1.2012-0.2813-1.5845-0.8438V51.0194z M202.3121,48.1249c0,0.6836,0.0933,1.1777,0.2793,1.4824
			c0.3042,0.4971,0.7163,0.7461,1.2354,0.7461c0.4224,0,0.7876-0.1836,1.0957-0.5508s0.4619-0.9141,0.4619-1.6406
			c0-0.7451-0.1479-1.2949-0.4429-1.6484c-0.2959-0.3555-0.6528-0.5322-1.0718-0.5322c-0.4224,0-0.7876,0.1836-1.0957,0.5508
			S202.3121,47.4296,202.3121,48.1249z"/>
		<path style="fill:#3569DB;" d="M211.4537,49.1825l0.999,0.124c-0.1577,0.583-0.4492,1.0361-0.8755,1.3584
			s-0.9702,0.4834-1.6328,0.4834c-0.8345,0-1.4956-0.2568-1.9849-0.7705c-0.4883-0.5137-0.7329-1.2344-0.7329-2.1621
			c0-0.96,0.2471-1.7041,0.7412-2.2344s1.1353-0.7949,1.9229-0.7949c0.7627,0,1.3857,0.2598,1.8691,0.7783
			c0.4834,0.5195,0.7251,1.25,0.7251,2.1914c0,0.0576-0.002,0.1436-0.0054,0.2578h-4.2539c0.0356,0.627,0.2129,1.1074,0.5317,1.4395
			c0.3188,0.334,0.7163,0.5,1.1924,0.5c0.3545,0,0.6572-0.0928,0.9077-0.2793S211.3067,49.5907,211.4537,49.1825z M208.2793,47.619
			h3.1851c-0.043-0.4795-0.1646-0.8389-0.3652-1.0791c-0.3081-0.3721-0.707-0.5586-1.1978-0.5586
			c-0.4438,0-0.8174,0.1484-1.1196,0.4463C208.479,46.7245,208.3116,47.122,208.2793,47.619z"/>
		<path style="fill:#3569DB;" d="M213.9405,51.0194v-1.1016h1.1011v1.1016H213.9405z"/>
		<path style="fill:#3569DB;" d="M220.4449,48.9296l0.9507,0.124c-0.104,0.6553-0.3696,1.168-0.7974,1.5391
			c-0.4282,0.3701-0.9536,0.5557-1.5767,0.5557c-0.7808,0-1.4082-0.2549-1.8823-0.7656c-0.4746-0.5098-0.7119-1.2412-0.7119-2.1934
			c0-0.6162,0.1021-1.1553,0.3062-1.6172s0.5146-0.8086,0.9321-1.0391c0.417-0.2314,0.8706-0.3467,1.3613-0.3467
			c0.6196,0,1.126,0.1563,1.52,0.4697s0.6465,0.7588,0.7573,1.335l-0.9399,0.1455c-0.0894-0.3838-0.248-0.6719-0.4751-0.8652
			c-0.2275-0.1934-0.5024-0.29-0.8247-0.29c-0.4868,0-0.8828,0.1748-1.187,0.5234c-0.3042,0.3496-0.4565,0.9014-0.4565,1.6572
			c0,0.7666,0.147,1.3232,0.4404,1.6699c0.2935,0.3477,0.6768,0.5215,1.1494,0.5215c0.3794,0,0.6963-0.1162,0.9507-0.3496
			C220.2159,49.7714,220.377,49.414,220.4449,48.9296z"/>
		<path style="fill:#3569DB;" d="M221.8628,48.1679c0-1.0566,0.2935-1.8389,0.8809-2.3477
			c0.4907-0.4229,1.0884-0.6338,1.7939-0.6338c0.7842,0,1.4253,0.2568,1.9229,0.7705s0.7466,1.2236,0.7466,2.1299
			c0,0.7344-0.1099,1.3115-0.3306,1.7324c-0.2197,0.4209-0.5405,0.7471-0.9609,0.9795c-0.4209,0.2334-0.8804,0.3496-1.3779,0.3496
			c-0.7983,0-1.4438-0.2559-1.9365-0.7676C222.1089,49.8681,221.8628,49.1307,221.8628,48.1679z M222.8565,48.1679
			c0,0.7305,0.1592,1.2773,0.478,1.6406s0.7197,0.5449,1.2031,0.5449c0.48,0,0.8789-0.1826,1.1978-0.5479s0.478-0.9219,0.478-1.6709
			c0-0.7051-0.1602-1.2393-0.4805-1.6025c-0.3208-0.3633-0.7192-0.5459-1.1953-0.5459c-0.4834,0-0.8843,0.1816-1.2031,0.543
			S222.8565,47.4374,222.8565,48.1679z"/>
		<path style="fill:#3569DB;" d="M228.3404,51.0194v-5.7041h0.8647v0.7998c0.1792-0.2793,0.417-0.5039,0.7144-0.6738
			s0.6357-0.2549,1.0151-0.2549c0.4224,0,0.769,0.0879,1.0391,0.2627c0.2705,0.1758,0.4614,0.4209,0.5723,0.7363
			c0.4512-0.666,1.0386-0.999,1.7617-0.999c0.5659,0,1.001,0.1563,1.3052,0.4697s0.4565,0.7959,0.4565,1.4473v3.916h-0.9614v-3.5938
			c0-0.3867-0.0313-0.665-0.0942-0.835c-0.0625-0.1699-0.1763-0.3066-0.3408-0.4111c-0.1646-0.1035-0.3579-0.1553-0.5801-0.1553
			c-0.4009,0-0.7339,0.1338-0.999,0.4004s-0.3975,0.6934-0.3975,1.2803v3.3145h-0.9668v-3.7061c0-0.4297-0.0786-0.752-0.2363-0.9668
			s-0.4155-0.3223-0.7734-0.3223c-0.272,0-0.5234,0.0713-0.7549,0.2148c-0.2305,0.1436-0.3979,0.3525-0.502,0.6279
			c-0.104,0.2764-0.1558,0.6738-0.1558,1.1934v2.959H228.3404z"/>
		<path style="fill:#3569DB;" d="M236.7784,51.1542l2.2827-8.1426h0.7734l-2.2773,8.1426H236.7784z"/>
		<path style="fill:#3569DB;" d="M241.6124,51.0194l-1.7456-5.7041h0.999l0.9077,3.292l0.3384,1.2246
			c0.0142-0.0605,0.1128-0.4521,0.2954-1.1758l0.9077-3.3408h0.9937l0.854,3.3086l0.2847,1.0908l0.3276-1.1016l0.9775-3.2979h0.9399
			l-1.7832,5.7041h-1.0044l-0.9077-3.416l-0.2202-0.9727l-1.1548,4.3887H241.6124z"/>
		<path style="fill:#3569DB;" d="M252.2256,50.3163c-0.3579,0.3037-0.7026,0.5186-1.0342,0.6445
			c-0.3311,0.125-0.6865,0.1875-1.0659,0.1875c-0.6265,0-1.1084-0.1533-1.4448-0.459c-0.3364-0.3066-0.5049-0.6973-0.5049-1.1738
			c0-0.2793,0.0635-0.5342,0.1904-0.7656c0.1274-0.2305,0.2939-0.416,0.5-0.5557c0.2056-0.1396,0.4375-0.2451,0.6953-0.3174
			c0.1899-0.0498,0.4761-0.0977,0.8594-0.1445c0.7808-0.0928,1.3555-0.2041,1.7241-0.333c0.0034-0.1328,0.0054-0.2168,0.0054-0.2529
			c0-0.3936-0.0913-0.6709-0.2739-0.832c-0.2471-0.2188-0.6143-0.3281-1.1011-0.3281c-0.4546,0-0.7905,0.0801-1.0068,0.2393
			c-0.2168,0.1592-0.377,0.4414-0.481,0.8467l-0.9453-0.1289c0.0859-0.4053,0.2275-0.7314,0.4243-0.9805s0.4814-0.4404,0.854-0.5752
			c0.3726-0.1338,0.8037-0.2012,1.2944-0.2012c0.4868,0,0.8828,0.0576,1.187,0.1719s0.5283,0.2588,0.6714,0.4326
			s0.2437,0.3926,0.3008,0.6582c0.0322,0.1641,0.0483,0.4609,0.0483,0.8906v1.2891c0,0.8994,0.0205,1.4678,0.062,1.7061
			c0.041,0.2383,0.1226,0.4658,0.2441,0.6846h-1.0098C252.3189,50.8192,252.2544,50.5839,252.2256,50.3163z M252.1451,48.1561
			c-0.3511,0.1436-0.8774,0.2656-1.5791,0.3652c-0.3975,0.0576-0.6787,0.1221-0.8433,0.1934
			c-0.1646,0.0723-0.292,0.1768-0.3813,0.3145s-0.1343,0.291-0.1343,0.459c0,0.2578,0.0977,0.4727,0.293,0.6445
			c0.1948,0.1719,0.4805,0.2578,0.8564,0.2578c0.3726,0,0.7036-0.0811,0.9937-0.2441s0.5029-0.3857,0.6392-0.668
			c0.104-0.2188,0.1558-0.541,0.1558-0.9668V48.1561z"/>
		<path style="fill:#3569DB;" d="M256.732,50.1542l0.1396,0.8545c-0.272,0.0576-0.5156,0.0859-0.7305,0.0859
			c-0.3511,0-0.6231-0.0557-0.8164-0.167c-0.1934-0.1104-0.3296-0.2568-0.4082-0.4375s-0.1182-0.5605-0.1182-1.1406v-3.2822h-0.709
			v-0.752h0.709v-1.4131l0.9614-0.5801v1.9932h0.9722v0.752h-0.9722v3.335c0,0.2764,0.0171,0.4531,0.0513,0.5322
			c0.0337,0.0791,0.0894,0.1416,0.166,0.1885c0.0772,0.0459,0.1875,0.0693,0.3306,0.0693
			C256.4151,50.1923,256.5567,50.1796,256.732,50.1542z"/>
		<path style="fill:#3569DB;" d="M261.3995,48.9296l0.9507,0.124c-0.104,0.6553-0.3696,1.168-0.7974,1.5391
			c-0.4282,0.3701-0.9536,0.5557-1.5767,0.5557c-0.7808,0-1.4082-0.2549-1.8823-0.7656c-0.4746-0.5098-0.7119-1.2412-0.7119-2.1934
			c0-0.6162,0.1021-1.1553,0.3062-1.6172s0.5146-0.8086,0.9321-1.0391c0.417-0.2314,0.8706-0.3467,1.3613-0.3467
			c0.6196,0,1.126,0.1563,1.52,0.4697s0.6465,0.7588,0.7573,1.335l-0.9399,0.1455c-0.0894-0.3838-0.248-0.6719-0.4751-0.8652
			c-0.2275-0.1934-0.5024-0.29-0.8247-0.29c-0.4868,0-0.8828,0.1748-1.187,0.5234c-0.3042,0.3496-0.4565,0.9014-0.4565,1.6572
			c0,0.7666,0.147,1.3232,0.4404,1.6699c0.2935,0.3477,0.6768,0.5215,1.1494,0.5215c0.3794,0,0.6963-0.1162,0.9507-0.3496
			C261.1705,49.7714,261.3316,49.414,261.3995,48.9296z"/>
		<path style="fill:#3569DB;" d="M263.1773,51.0194v-7.874h0.9668v2.8252c0.4512-0.5225,1.0205-0.7842,1.708-0.7842
			c0.4224,0,0.7896,0.083,1.1011,0.25c0.3115,0.166,0.5342,0.3965,0.6689,0.6904c0.1338,0.293,0.2012,0.7188,0.2012,1.2773v3.6152
			h-0.9668v-3.6152c0-0.4824-0.1045-0.835-0.3145-1.0547c-0.209-0.2207-0.5054-0.3301-0.8887-0.3301
			c-0.2866,0-0.5557,0.0742-0.8086,0.2227c-0.252,0.1484-0.4321,0.3496-0.5396,0.6035c-0.1074,0.2549-0.1611,0.6055-0.1611,1.0527
			v3.1211H263.1773z"/>
		<path style="fill:#3569DB;" d="M271.105,49.08c-0.0034-0.1289-0.0054-0.2246-0.0054-0.2891c0-0.3799,0.0537-0.708,0.1611-0.9834
			c0.0786-0.208,0.2061-0.417,0.3813-0.6279c0.1289-0.1543,0.3608-0.3789,0.6953-0.6748c0.335-0.2949,0.5527-0.5303,0.6528-0.7061
			s0.1504-0.3672,0.1504-0.5742c0-0.377-0.147-0.707-0.4404-0.9912c-0.2935-0.2852-0.6533-0.4268-1.0796-0.4268
			c-0.4116,0-0.7554,0.1289-1.0313,0.3867s-0.4565,0.6602-0.5425,1.208l-0.9937-0.1182c0.0894-0.7344,0.3555-1.2959,0.7979-1.6865
			c0.4419-0.3906,1.0264-0.585,1.7534-0.585c0.77,0,1.3838,0.209,1.8423,0.6279s0.6875,0.9258,0.6875,1.5205
			c0,0.3438-0.0806,0.6602-0.2417,0.9502s-0.4761,0.6426-0.9453,1.0576c-0.3149,0.2793-0.521,0.4854-0.6177,0.6182
			s-0.1685,0.2842-0.2148,0.4561s-0.0732,0.4512-0.0806,0.8379H271.105z M271.046,51.0194v-1.1016h1.1011v1.1016H271.046z"/>
		<path style="fill:#3569DB;" d="M276.9971,51.0194l-2.1699-5.7041h1.0205l1.2246,3.416c0.1323,0.3691,0.2544,0.752,0.3652,1.1494
			c0.0859-0.3008,0.2061-0.6621,0.3599-1.085l1.2676-3.4805h0.9937l-2.1592,5.7041H276.9971z"/>
		<path style="fill:#3569DB;" d="M285.9991,46.3895h-5.1992v-0.9023h5.1992V46.3895z M285.9991,48.7792h-5.1992v-0.9023h5.1992
			V48.7792z"/>
		<path style="fill:#3569DB;" d="M291.0748,51.0194v-0.8379c-0.4438,0.6445-1.0474,0.9668-1.8101,0.9668
			c-0.3364,0-0.6509-0.0645-0.9424-0.1934c-0.292-0.1289-0.5088-0.291-0.6504-0.4863c-0.1411-0.1953-0.2407-0.4336-0.2979-0.7168
			c-0.0396-0.1895-0.0591-0.4902-0.0591-0.9023v-3.5342h0.9668v3.1631c0,0.5059,0.0195,0.8457,0.0591,1.0215
			c0.061,0.2539,0.1899,0.4531,0.3867,0.5986c0.1968,0.1445,0.4404,0.2178,0.7305,0.2178s0.562-0.0752,0.8164-0.2236
			s0.4341-0.3506,0.54-0.6064c0.1055-0.2559,0.1582-0.6279,0.1582-1.1152v-3.0557h0.9668v5.7041H291.0748z"/>
		<path style="fill:#3569DB;" d="M294.3458,51.0194h-0.897v-7.874h0.9668v2.8096c0.4082-0.5127,0.9292-0.7686,1.563-0.7686
			c0.3511,0,0.6831,0.0703,0.9966,0.2119c0.313,0.1416,0.5708,0.3408,0.7734,0.5967c0.2021,0.2559,0.3604,0.5645,0.4751,0.9268
			c0.1147,0.3613,0.1719,0.748,0.1719,1.1602c0,0.9766-0.2417,1.7324-0.7251,2.2656c-0.4834,0.5342-1.0635,0.8008-1.7402,0.8008
			c-0.6733,0-1.2012-0.2813-1.5845-0.8438V51.0194z M294.335,48.1249c0,0.6836,0.0933,1.1777,0.2793,1.4824
			c0.3042,0.4971,0.7163,0.7461,1.2354,0.7461c0.4224,0,0.7876-0.1836,1.0957-0.5508s0.4619-0.9141,0.4619-1.6406
			c0-0.7451-0.1479-1.2949-0.4429-1.6484c-0.2959-0.3555-0.6528-0.5322-1.0718-0.5322c-0.4224,0-0.7876,0.1836-1.0957,0.5508
			S294.335,47.4296,294.335,48.1249z"/>
		<path style="fill:#3569DB;" d="M299.8028,51.0194v-4.9521h-0.854v-0.752h0.854v-0.6064c0-0.3838,0.0342-0.668,0.1021-0.8545
			c0.0933-0.251,0.2568-0.4541,0.4917-0.6094c0.2344-0.1563,0.563-0.2334,0.9854-0.2334c0.272,0,0.5728,0.0313,0.9023,0.0957
			l-0.145,0.8438c-0.2007-0.0361-0.3901-0.0537-0.5693-0.0537c-0.2935,0-0.5015,0.0625-0.623,0.1885
			c-0.1216,0.125-0.1826,0.3594-0.1826,0.7031v0.5264h1.1118v0.752h-1.1118v4.9521H299.8028z"/>
		<path style="fill:#3569DB;" d="M306.3663,51.0194v-0.8379c-0.4438,0.6445-1.0474,0.9668-1.8101,0.9668
			c-0.3364,0-0.6509-0.0645-0.9424-0.1934c-0.292-0.1289-0.5088-0.291-0.6504-0.4863c-0.1411-0.1953-0.2407-0.4336-0.2979-0.7168
			c-0.0396-0.1895-0.0591-0.4902-0.0591-0.9023v-3.5342h0.9668v3.1631c0,0.5059,0.0195,0.8457,0.0591,1.0215
			c0.061,0.2539,0.1899,0.4531,0.3867,0.5986c0.1968,0.1445,0.4404,0.2178,0.7305,0.2178s0.562-0.0752,0.8164-0.2236
			s0.4341-0.3506,0.54-0.6064c0.1055-0.2559,0.1582-0.6279,0.1582-1.1152v-3.0557h0.9668v5.7041H306.3663z"/>
		<path style="fill:#3569DB;" d="M307.8541,53.205v-0.6973h6.4077v0.6973H307.8541z"/>
		<path style="fill:#3569DB;" d="M314.9547,51.0194v-7.874h1.5684l1.8638,5.5752c0.1719,0.5195,0.2974,0.9082,0.376,1.166
			c0.0894-0.2871,0.229-0.708,0.4189-1.2627l1.8853-5.4785h1.4019v7.874h-1.0044v-6.5898l-2.2881,6.5898h-0.9399l-2.2773-6.7031
			v6.7031H314.9547z"/>
		<path style="fill:#3569DB;" d="M324.0049,51.0194v-7.874h0.9668v7.874H324.0049z"/>
		<path style="fill:#3569DB;" d="M326.6153,51.0194v-7.874h5.6934v0.9287h-4.6514v2.4121h4.356V47.41h-4.356v2.6797h4.834v0.9297
			H326.6153z"/>
		<path style="fill:#3569DB;" d="M337.1802,51.0194h-0.9668v-6.1602c-0.2329,0.2217-0.5381,0.4434-0.9155,0.666
			c-0.3779,0.2217-0.7173,0.3877-1.0181,0.499v-0.9346c0.5405-0.2539,1.0132-0.5625,1.418-0.9238s0.6909-0.7129,0.8594-1.0527h0.623
			V51.0194z"/>
		<path style="fill:#3569DB;" d="M342.7554,51.0194v-1.8848h-3.416v-0.8867l3.5933-5.1025h0.7896v5.1025h1.0635v0.8867h-1.0635
			v1.8848H342.7554z M342.7554,48.2479v-3.5508l-2.4653,3.5508H342.7554z"/>
		<path style="fill:#3569DB;" d="M348.3843,51.0194v-3.3359l-3.0347-4.5381h1.2676l1.5522,2.374
			c0.2866,0.4443,0.5532,0.8877,0.8003,1.332c0.2363-0.4121,0.5229-0.875,0.8594-1.3906l1.5254-2.3154h1.2139l-3.1421,4.5381v3.3359
			H348.3843z"/>
	</g>
</g>
</svg>
