<?xml version="1.0" encoding="utf-8"?>
<!-- Generator: Adobe Illustrator 21.0.2, SVG Export Plug-In . SVG Version: 6.00 Build 0)  -->
<svg version="1.1" id="Capa_1" xmlns="http://www.w3.org/2000/svg" xmlns:xlink="http://www.w3.org/1999/xlink" x="0px" y="0px"
	 viewBox="0 0 935.7994 455.0943" style="enable-background:new 0 0 935.7994 455.0943;" xml:space="preserve">
<g>
	<polygon style="fill:#FFFFFF;stroke:#093751;stroke-miterlimit:10;" points="934.3945,439.4653 666.6899,439.4653 
		646.3602,454.4653 627.3599,439.4653 0.5,439.4653 0.5,39.4225 934.3945,39.4225 	"/>
	<polygon style="fill:#DD4E31;" points="130.1667,73.9754 0.5,73.9754 0.5,47.6712 130.1667,47.6712 142.1667,60.8233 	"/>
	<g>
		<path style="fill:#FFFFFF;" d="M23.8477,66.5027c-0.1973,0.459-0.4673,0.8594-0.811,1.2031s-0.7451,0.6143-1.2031,0.8115
			c-0.4585,0.1963-0.9492,0.2949-1.4717,0.2949h-1.0957c-0.5229,0-1.0151-0.0986-1.4771-0.2949
			c-0.4619-0.1973-0.8647-0.4678-1.2085-0.8115s-0.6143-0.7441-0.811-1.2031c-0.1973-0.458-0.2954-0.9482-0.2954-1.4717v-8.2715
			c0-0.5225,0.0981-1.0127,0.2954-1.4717c0.1968-0.458,0.4673-0.8594,0.811-1.2031s0.7466-0.6133,1.2085-0.8105
			s0.9541-0.2959,1.4771-0.2959h1.0957c0.5225,0,1.0132,0.0986,1.4717,0.2959c0.458,0.1973,0.8594,0.4668,1.2031,0.8105
			s0.6138,0.7451,0.811,1.2031c0.1968,0.459,0.2954,0.9492,0.2954,1.4717v8.2715C24.1431,65.5545,24.0445,66.0447,23.8477,66.5027z
			 M22.7574,56.7596c0-0.3438-0.0645-0.6641-0.1934-0.9609s-0.3047-0.5566-0.5264-0.7793
			c-0.2222-0.2217-0.4819-0.3975-0.7788-0.5264c-0.2974-0.1289-0.6177-0.1934-0.9614-0.1934h-0.9668
			c-0.3438,0-0.6646,0.0645-0.9614,0.1934c-0.2974,0.1289-0.5586,0.3047-0.7842,0.5264c-0.2256,0.2227-0.4028,0.4824-0.5317,0.7793
			s-0.1934,0.6172-0.1934,0.9609v8.2715c0,0.3438,0.0645,0.665,0.1934,0.9619s0.3062,0.5586,0.5317,0.7842
			s0.4868,0.4023,0.7842,0.5313c0.2969,0.1289,0.6177,0.1934,0.9614,0.1934h0.9668c0.3438,0,0.6641-0.0645,0.9614-0.1934
			c0.2969-0.1289,0.5566-0.3057,0.7788-0.5313c0.2217-0.2256,0.3975-0.4873,0.5264-0.7842s0.1934-0.6182,0.1934-0.9619V56.7596z"/>
		<path style="fill:#FFFFFF;" d="M34.1065,66.8357c-0.1685,0.3945-0.3994,0.7383-0.6929,1.0313
			c-0.2939,0.2939-0.6377,0.5254-1.0313,0.6934c-0.394,0.168-0.813,0.252-1.2568,0.252h-0.8809c-0.4443,0-0.8633-0.084-1.2568-0.252
			c-0.394-0.168-0.7378-0.3994-1.0313-0.6934c-0.2939-0.293-0.5249-0.6367-0.6929-1.0313
			c-0.1685-0.3936-0.2524-0.8125-0.2524-1.2568V53.1932h1.3213v5.3281c0.3008-0.3574,0.6621-0.6367,1.085-0.8379
			c0.4224-0.2002,0.8809-0.3008,1.375-0.3008h0.333c0.4438,0,0.8628,0.085,1.2568,0.2529c0.3936,0.168,0.7373,0.3994,1.0313,0.6924
			c0.2935,0.2939,0.5244,0.6377,0.6929,1.0313c0.168,0.3945,0.2524,0.8135,0.2524,1.2568v4.9629
			C34.359,66.0232,34.2745,66.4422,34.1065,66.8357z M33.0377,60.5408c0-0.2646-0.0503-0.5137-0.1504-0.7461
			c-0.1006-0.2324-0.2363-0.4355-0.4082-0.6074s-0.3745-0.3076-0.6069-0.4082c-0.2329-0.0996-0.4819-0.1504-0.7466-0.1504h-0.8809
			c-0.2651,0-0.5142,0.0508-0.7466,0.1504c-0.2329,0.1006-0.4351,0.2363-0.6069,0.4082s-0.3081,0.375-0.4082,0.6074
			c-0.1006,0.2324-0.1504,0.4814-0.1504,0.7461v5.1133c0,0.2656,0.0498,0.5146,0.1504,0.7471
			c0.1001,0.2324,0.2363,0.4346,0.4082,0.6064s0.374,0.3086,0.6069,0.4082c0.2324,0.1006,0.4814,0.1504,0.7466,0.1504h0.8809
			c0.2646,0,0.5137-0.0498,0.7466-0.1504c0.2324-0.0996,0.4351-0.2363,0.6069-0.4082s0.3076-0.374,0.4082-0.6064
			c0.1001-0.2324,0.1504-0.4814,0.1504-0.7471V60.5408z"/>
		<path style="fill:#FFFFFF;" d="M44.564,65.8045c0,0.4443-0.0898,0.8506-0.2686,1.2197c-0.1792,0.3691-0.4229,0.6855-0.7305,0.9502
			c-0.3081,0.2656-0.6646,0.4717-1.0688,0.6182c-0.4048,0.1465-0.8291,0.2197-1.2729,0.2197h-0.8809
			c-0.4443,0-0.8687-0.084-1.2729-0.252c-0.4048-0.168-0.7593-0.3994-1.0635-0.6934c-0.3047-0.293-0.5479-0.6367-0.7305-1.0313
			c-0.1826-0.3936-0.2739-0.8125-0.2739-1.2568v-0.4404l1.3213-0.2148v0.7305c0,0.2656,0.0552,0.5146,0.1665,0.7471
			c0.1108,0.2324,0.2593,0.4346,0.4458,0.6064c0.186,0.1719,0.4009,0.3086,0.6445,0.4082c0.2432,0.1006,0.4976,0.1504,0.7627,0.1504
			h0.8809c0.2646,0,0.519-0.0391,0.7627-0.1182c0.2432-0.0781,0.46-0.1914,0.6499-0.3379c0.1895-0.1465,0.3398-0.3242,0.4512-0.5322
			c0.1108-0.207,0.1665-0.4434,0.1665-0.709c0-0.3936-0.0859-0.7158-0.2578-0.9668c-0.1719-0.25-0.3994-0.46-0.6821-0.6279
			c-0.2832-0.168-0.6055-0.3076-0.9668-0.4189c-0.3618-0.1113-0.7324-0.2217-1.1118-0.333
			c-0.3799-0.1113-0.7505-0.2383-1.1118-0.3818c-0.3618-0.1426-0.6841-0.3311-0.9668-0.5635
			c-0.2832-0.2324-0.5103-0.5244-0.6821-0.876c-0.1719-0.3506-0.2578-0.7871-0.2578-1.3105c0-0.4434,0.0859-0.8496,0.2578-1.2188
			s0.4043-0.6855,0.6982-0.9512c0.2935-0.2646,0.6353-0.4707,1.0259-0.6172c0.3901-0.1465,0.8071-0.2207,1.2515-0.2207h0.7734
			c0.4438,0,0.8628,0.085,1.2568,0.2529c0.3936,0.168,0.7373,0.3994,1.0313,0.6924c0.2935,0.2939,0.5244,0.6377,0.6929,1.0313
			c0.168,0.3945,0.2524,0.8135,0.2524,1.2568v0.043l-1.3213,0.2148v-0.333c0-0.2646-0.0503-0.5137-0.1504-0.7461
			c-0.1006-0.2324-0.2363-0.4355-0.4082-0.6074s-0.3745-0.3076-0.6069-0.4082c-0.2329-0.0996-0.4819-0.1504-0.7466-0.1504h-0.7734
			c-0.2651,0-0.5142,0.04-0.7466,0.1182c-0.2329,0.0791-0.4351,0.1924-0.6069,0.3389s-0.3081,0.3242-0.4082,0.5313
			c-0.1006,0.208-0.1504,0.4443-0.1504,0.709c0,0.3799,0.0859,0.6895,0.2578,0.9297s0.3989,0.4424,0.6821,0.6064
			c0.2827,0.165,0.605,0.3027,0.9668,0.4141c0.3613,0.1113,0.7305,0.2256,1.1064,0.3438s0.7446,0.252,1.1064,0.4023
			c0.3613,0.1504,0.6836,0.3438,0.9668,0.5801c0.2827,0.2363,0.5103,0.5322,0.6821,0.8867S44.564,65.282,44.564,65.8045z"/>
		<path style="fill:#FFFFFF;" d="M54.1944,66.8357c-0.1685,0.3945-0.3994,0.7383-0.6929,1.0313
			c-0.2939,0.2939-0.6377,0.5254-1.0313,0.6934c-0.394,0.168-0.813,0.252-1.2568,0.252h-0.8809c-0.4443,0-0.8633-0.084-1.2568-0.252
			c-0.394-0.168-0.7378-0.3994-1.0313-0.6934c-0.2939-0.293-0.5249-0.6367-0.6929-1.0313
			c-0.1685-0.3936-0.2524-0.8125-0.2524-1.2568V60.616c0-0.4434,0.084-0.8623,0.2524-1.2568
			c0.168-0.3936,0.3989-0.7373,0.6929-1.0313c0.2935-0.293,0.6372-0.5244,1.0313-0.6924c0.3936-0.168,0.8125-0.2529,1.2568-0.2529
			h0.8809c0.4438,0,0.8628,0.085,1.2568,0.2529c0.3936,0.168,0.7373,0.3994,1.0313,0.6924
			c0.2935,0.2939,0.5244,0.6377,0.6929,1.0313c0.168,0.3945,0.2524,0.8135,0.2524,1.2568v2.5889h-6.0264v2.4492
			c0,0.2656,0.0498,0.5146,0.1504,0.7471c0.1001,0.2324,0.2363,0.4346,0.4082,0.6064s0.374,0.3086,0.6069,0.4082
			c0.2324,0.1006,0.4814,0.1504,0.7466,0.1504h0.8809c0.2646,0,0.5137-0.0498,0.7466-0.1504
			c0.2324-0.0996,0.4351-0.2363,0.6069-0.4082s0.3076-0.374,0.4082-0.6064c0.1001-0.2324,0.1504-0.4814,0.1504-0.7471v-0.7305
			l1.3213,0.2148v0.4404C54.4468,66.0232,54.3624,66.4422,54.1944,66.8357z M53.1256,60.5408c0-0.2646-0.0503-0.5137-0.1504-0.7461
			c-0.1006-0.2324-0.2363-0.4355-0.4082-0.6074s-0.3745-0.3076-0.6069-0.4082c-0.2329-0.0996-0.4819-0.1504-0.7466-0.1504h-0.8809
			c-0.2651,0-0.5142,0.0508-0.7466,0.1504c-0.2329,0.1006-0.4351,0.2363-0.6069,0.4082s-0.3081,0.375-0.4082,0.6074
			c-0.1006,0.2324-0.1504,0.4814-0.1504,0.7461v1.6328h4.7051V60.5408z"/>
		<path style="fill:#FFFFFF;" d="M60.3228,58.8543c-0.2651,0-0.5142,0.0508-0.7466,0.1504
			c-0.2329,0.1006-0.4351,0.2363-0.6069,0.4082s-0.3081,0.375-0.4082,0.6074c-0.1006,0.2324-0.1504,0.4814-0.1504,0.7461v7.8311
			h-1.3213v-11h0.4404l0.7197,1.1172c0.3008-0.4082,0.6782-0.7314,1.1333-0.9717c0.4546-0.2402,0.9507-0.3604,1.4878-0.3604h0.7734
			v1.4717H60.3228z"/>
		<path style="fill:#FFFFFF;" d="M66.8541,68.5975h-0.6553l-3.8994-11h1.3213l2.8682,8.3359l0.043,0.5693l0.043-0.5693
			l2.8574-8.3359h1.3213L66.8541,68.5975z"/>
		<path style="fill:#FFFFFF;" d="M79.1968,68.5975l-0.7305-1.0957c-0.3008,0.3945-0.6768,0.7109-1.1279,0.9512
			c-0.4512,0.2393-0.9453,0.3594-1.4824,0.3594h-0.333c-0.4443,0-0.8633-0.084-1.2568-0.252
			c-0.394-0.168-0.7378-0.3994-1.0313-0.6934c-0.2939-0.293-0.5249-0.6367-0.6929-1.0313
			c-0.1685-0.3936-0.2524-0.8125-0.2524-1.2568v-0.1074c0-0.4434,0.084-0.8623,0.2524-1.2568
			c0.168-0.3936,0.3989-0.7373,0.6929-1.0313c0.2935-0.293,0.6372-0.5244,1.0313-0.6924c0.3936-0.168,0.8125-0.2529,1.2568-0.2529
			h2.793v-1.6973c0-0.2646-0.0503-0.5137-0.1504-0.7461c-0.1006-0.2324-0.2363-0.4355-0.4082-0.6074s-0.3745-0.3076-0.6069-0.4082
			c-0.2329-0.0996-0.4819-0.1504-0.7466-0.1504h-0.7734c-0.2651,0-0.5142,0.0508-0.7466,0.1504
			c-0.2329,0.1006-0.4351,0.2363-0.6069,0.4082s-0.3081,0.375-0.4082,0.6074c-0.1006,0.2324-0.1504,0.4814-0.1504,0.7461v0.3975
			l-1.3213-0.2148V60.616c0-0.4434,0.084-0.8623,0.2524-1.2568c0.168-0.3936,0.3989-0.7373,0.6929-1.0313
			c0.2935-0.293,0.6372-0.5244,1.0313-0.6924c0.3936-0.168,0.8125-0.2529,1.2568-0.2529h0.7734c0.4438,0,0.8628,0.085,1.2568,0.2529
			c0.3936,0.168,0.7373,0.3994,1.0313,0.6924c0.2935,0.2939,0.5244,0.6377,0.6929,1.0313c0.168,0.3945,0.2524,0.8135,0.2524,1.2568
			v7.9814H79.1968z M78.316,63.2693h-2.793c-0.2651,0-0.5142,0.0508-0.7466,0.1504c-0.2329,0.1006-0.4351,0.2383-0.6069,0.4141
			c-0.1719,0.1758-0.3081,0.3799-0.4082,0.6123c-0.1006,0.2324-0.1504,0.4814-0.1504,0.7461v0.4619
			c0,0.2656,0.0498,0.5146,0.1504,0.7471c0.1001,0.2324,0.2363,0.4346,0.4082,0.6064s0.374,0.3086,0.6069,0.4082
			c0.2324,0.1006,0.4814,0.1504,0.7466,0.1504h0.8809c0.2646,0,0.5137-0.0498,0.7466-0.1504
			c0.2324-0.0996,0.4351-0.2363,0.6069-0.4082s0.3076-0.374,0.4082-0.6064c0.1001-0.2324,0.1504-0.4814,0.1504-0.7471V63.2693z"/>
		<path style="fill:#FFFFFF;" d="M89.3751,66.8357c-0.1685,0.3945-0.3994,0.7383-0.6929,1.0313
			c-0.2939,0.2939-0.6377,0.5254-1.0313,0.6934c-0.394,0.168-0.813,0.252-1.2568,0.252h-0.8809c-0.4443,0-0.8633-0.084-1.2568-0.252
			c-0.394-0.168-0.7378-0.3994-1.0313-0.6934c-0.2939-0.293-0.5249-0.6367-0.6929-1.0313
			c-0.1685-0.3936-0.2524-0.8125-0.2524-1.2568V60.616c0-0.4434,0.084-0.8623,0.2524-1.2568
			c0.168-0.3936,0.3989-0.7373,0.6929-1.0313c0.2935-0.293,0.6372-0.5244,1.0313-0.6924c0.3936-0.168,0.8125-0.2529,1.2568-0.2529
			h0.8809c0.4438,0,0.8628,0.085,1.2568,0.2529c0.3936,0.168,0.7373,0.3994,1.0313,0.6924
			c0.2935,0.2939,0.5244,0.6377,0.6929,1.0313c0.168,0.3945,0.2524,0.8135,0.2524,1.2568v0.4404l-1.3213,0.2148v-0.7305
			c0-0.2646-0.0503-0.5137-0.1504-0.7461c-0.1006-0.2324-0.2363-0.4355-0.4082-0.6074s-0.3745-0.3076-0.6069-0.4082
			c-0.2329-0.0996-0.4819-0.1504-0.7466-0.1504h-0.8809c-0.2651,0-0.5142,0.0508-0.7466,0.1504
			c-0.2329,0.1006-0.4351,0.2363-0.6069,0.4082s-0.3081,0.375-0.4082,0.6074c-0.1006,0.2324-0.1504,0.4814-0.1504,0.7461v5.1133
			c0,0.2656,0.0498,0.5146,0.1504,0.7471c0.1001,0.2324,0.2363,0.4346,0.4082,0.6064s0.374,0.3086,0.6069,0.4082
			c0.2324,0.1006,0.4814,0.1504,0.7466,0.1504h0.8809c0.2646,0,0.5137-0.0498,0.7466-0.1504
			c0.2324-0.0996,0.4351-0.2363,0.6069-0.4082s0.3076-0.374,0.4082-0.6064c0.1001-0.2324,0.1504-0.4814,0.1504-0.7471v-0.7305
			l1.3213,0.2148v0.4404C89.6275,66.0232,89.543,66.4422,89.3751,66.8357z"/>
		<path style="fill:#FFFFFF;" d="M92.6031,54.9549v-1.7617h1.5361v1.7617H92.6031z M92.7105,68.5975v-11h1.3213v11H92.7105z"/>
		<path style="fill:#FFFFFF;" d="M104.21,66.8357c-0.1685,0.3945-0.3994,0.7383-0.6929,1.0313
			c-0.2939,0.2939-0.6377,0.5254-1.0313,0.6934c-0.394,0.168-0.813,0.252-1.2568,0.252h-0.8809c-0.4443,0-0.8633-0.084-1.2568-0.252
			c-0.394-0.168-0.7378-0.3994-1.0313-0.6934c-0.2939-0.293-0.5249-0.6367-0.6929-1.0313
			c-0.1685-0.3936-0.2524-0.8125-0.2524-1.2568V60.616c0-0.4434,0.084-0.8623,0.2524-1.2568
			c0.168-0.3936,0.3989-0.7373,0.6929-1.0313c0.2935-0.293,0.6372-0.5244,1.0313-0.6924c0.3936-0.168,0.8125-0.2529,1.2568-0.2529
			h0.8809c0.4438,0,0.8628,0.085,1.2568,0.2529c0.3936,0.168,0.7373,0.3994,1.0313,0.6924
			c0.2935,0.2939,0.5244,0.6377,0.6929,1.0313c0.168,0.3945,0.2524,0.8135,0.2524,1.2568v4.9629
			C104.4625,66.0232,104.378,66.4422,104.21,66.8357z M103.1412,60.5408c0-0.2646-0.0503-0.5137-0.1504-0.7461
			c-0.1006-0.2324-0.2363-0.4355-0.4082-0.6074s-0.3745-0.3076-0.6069-0.4082c-0.2329-0.0996-0.4819-0.1504-0.7466-0.1504h-0.8809
			c-0.2651,0-0.5142,0.0508-0.7466,0.1504c-0.2329,0.1006-0.4351,0.2363-0.6069,0.4082s-0.3081,0.375-0.4082,0.6074
			c-0.1006,0.2324-0.1504,0.4814-0.1504,0.7461v5.1133c0,0.2656,0.0498,0.5146,0.1504,0.7471
			c0.1001,0.2324,0.2363,0.4346,0.4082,0.6064s0.374,0.3086,0.6069,0.4082c0.2324,0.1006,0.4814,0.1504,0.7466,0.1504h0.8809
			c0.2646,0,0.5137-0.0498,0.7466-0.1504c0.2324-0.0996,0.4351-0.2363,0.6069-0.4082s0.3076-0.374,0.4082-0.6064
			c0.1001-0.2324,0.1504-0.4814,0.1504-0.7471V60.5408z M100.2408,55.8357h-0.9883l1.751-2.6426h2.2021L100.2408,55.8357z"/>
		<path style="fill:#FFFFFF;" d="M113.1314,68.5975v-8.0566c0-0.2646-0.0503-0.5137-0.1504-0.7461
			c-0.1006-0.2324-0.2363-0.4355-0.4082-0.6074s-0.3745-0.3076-0.6069-0.4082c-0.2329-0.0996-0.4819-0.1504-0.7466-0.1504h-0.8809
			c-0.2651,0-0.5142,0.0508-0.7466,0.1504c-0.2329,0.1006-0.4351,0.2363-0.6069,0.4082s-0.3081,0.375-0.4082,0.6074
			c-0.1006,0.2324-0.1504,0.4814-0.1504,0.7461v8.0566h-1.3213v-11h0.4404l0.7197,1.1172c0.3008-0.4082,0.6782-0.7314,1.1333-0.9717
			c0.4546-0.2402,0.9507-0.3604,1.4878-0.3604h0.333c0.4438,0,0.8628,0.085,1.2568,0.2529c0.3936,0.168,0.7373,0.3994,1.0313,0.6924
			c0.2935,0.2939,0.5244,0.6377,0.6929,1.0313c0.168,0.3945,0.2524,0.8135,0.2524,1.2568v7.9814H113.1314z"/>
	</g>
	<g id="XMLID_5565_">
		<path id="XMLID_5603_" style="fill:#FFFFFF;stroke:#912D19;stroke-miterlimit:10;" d="M924.255,11.5442
			c0.9631,0.9631,0.9631,2.5249,0,3.4879l-2.1795,2.1795l2.1797,2.1798c0.963,0.9631,0.9628,2.5245-0.0002,3.4876
			c-0.9631,0.9631-2.5245,0.9633-3.4876,0.0003l-2.1797-2.1798l-2.1796,2.1795c-0.963,0.963-2.5248,0.963-3.4879-0.0001
			c-0.963-0.9631-0.9628-2.5246,0.0002-3.4876l2.1795-2.1795l-2.1797-2.1798c-0.963-0.9631-0.963-2.5249,0-3.4879
			c0.9631-0.9631,2.5248-0.963,3.4879,0.0001l2.1797,2.1798l2.1796-2.1795C921.7307,10.5811,923.2919,10.5811,924.255,11.5442
			L924.255,11.5442z M924.255,11.5442"/>
		<path id="XMLID_5595_" style="fill:#C9452F;" d="M906.3309,29.4683c-6.7324-6.7323-6.7321-17.6867,0.0002-24.4191
			c6.7322-6.7321,17.6865-6.7323,24.4189,0c6.7324,6.7324,6.7327,17.6867,0.0003,24.4191S913.0633,36.2007,906.3309,29.4683
			L906.3309,29.4683z M928.08,7.7192c-5.2602-5.2602-13.8189-5.26-19.0789,0c-5.2603,5.2603-5.2602,13.8192-0.0002,19.0792
			c5.2603,5.2603,13.8192,5.2603,19.0795,0C933.3403,21.5384,933.3403,12.9795,928.08,7.7192L928.08,7.7192z M929.0314,6.7678"/>
	</g>
</g>
</svg>
