<?xml version="1.0" encoding="utf-8"?>
<!-- Generator: Adobe Illustrator 21.0.2, SVG Export Plug-In . SVG Version: 6.00 Build 0)  -->
<svg version="1.1" id="Capa_1" xmlns="http://www.w3.org/2000/svg" xmlns:xlink="http://www.w3.org/1999/xlink" x="0px" y="0px"
	 viewBox="0 0 403.9461 364.4223" style="enable-background:new 0 0 403.9461 364.4223;" xml:space="preserve">
<g id="Analysis_System_1_">
	<g id="Book_2_">
		<g id="Book_3_">
			<rect x="143.2567" y="12.2545" style="fill:#354666;" width="133.0773" height="85.5782"/>
			<rect x="148.4026" y="15.4857" style="fill:#F4F4F4;" width="123.5195" height="79.405"/>
			<rect x="155.0206" y="15.4857" style="opacity:0.1;" width="116.9016" height="79.405"/>
			<rect x="217.3074" y="19.6063" style="fill:#16A085;" width="47.2209" height="3.1055"/>
			<rect x="217.3074" y="26.7131" style="fill:#16A085;" width="47.2209" height="3.1055"/>
			<rect x="215.8363" y="35.1279" style="fill:#16A085;" width="47.2221" height="3.1055"/>
			<rect x="215.8363" y="41.4188" style="fill:#16A085;" width="47.2221" height="3.1055"/>
			<rect x="215.8363" y="48.2821" style="fill:#16A085;" width="47.2221" height="3.1055"/>
			<rect x="215.8363" y="59.0646" style="fill:#16A085;" width="47.2221" height="3.1055"/>
			<polygon style="fill:#F2F2F2;" points="249.5781,105.8786 209.7949,94.8907 210.1629,15.4118 249.5781,0 			"/>
			<rect x="267.4692" y="15.4857" style="opacity:0.3;" width="4.4529" height="79.405"/>
			<rect x="158.7313" y="19.6063" style="fill:#E74C3C;" width="47.22" height="3.1055"/>
			<rect x="158.7313" y="31.4522" style="fill:#E74C3C;" width="47.22" height="3.1055"/>
			<rect x="158.7313" y="36.6819" style="fill:#E74C3C;" width="47.22" height="3.1034"/>
			<rect x="158.7313" y="49.834" style="fill:#E74C3C;" width="47.22" height="3.1055"/>
			<rect x="158.7313" y="55.1872" style="fill:#0E8FFF;" width="47.22" height="3.1055"/>
			<rect x="158.7313" y="60.6183" style="fill:#0E8FFF;" width="47.22" height="3.1037"/>
			<rect x="158.7313" y="70.9122" style="fill:#16A085;" width="47.22" height="3.1034"/>
			<rect x="158.7313" y="77.7734" style="fill:#16A085;" width="47.22" height="3.1055"/>
		</g>
		<g id="Pen_3_">
			<g id="Pen_4_">
				<g>
					<path style="fill:#3F3F3F;" d="M170.1282,84.4075c0.2513,1.4797-0.4836,2.9418-1.6436,3.265l0,0
						c-1.1588,0.321-2.3027-0.6184-2.555-2.1003l-9.0841-53.4062c-0.2523-1.4818,0.4837-2.944,1.6425-3.265l0,0
						c1.1598-0.3231,2.3037,0.6163,2.555,2.1003L170.1282,84.4075z"/>
					<path style="opacity:0.2;" d="M158.9777,28.8412l9.8181,57.7222l1.1429-0.3171c0.2194-0.5463,0.2992-1.1926,0.1895-1.8388
						l-9.0851-53.4062C160.8266,29.7289,159.9541,28.8591,158.9777,28.8412z"/>
					<path style="fill:#757575;" d="M165.1917,47.5542c0.1077,0.6283-0.2054,1.2485-0.6971,1.3861l0,0
						c-0.4906,0.1355-0.9773-0.2612-1.0841-0.8916l-2.3914-14.0616c-0.1068-0.6283,0.2043-1.2485,0.6961-1.3861l0,0
						c0.4926-0.1376,0.9773,0.2633,1.085,0.8895L165.1917,47.5542z"/>
					<path style="opacity:0.3;fill:#757575;" d="M156.8456,32.166l9.0841,53.4062c0.2075,1.2266,1.0283,2.0784,1.9607,2.1541l0,0
						l-9.9608-58.5599C157.1059,29.7289,156.637,30.9394,156.8456,32.166z"/>
				</g>
				<g>
					<path style="fill:#1ABC9C;" d="M172.1877,93.5104c0,1.516-0.9625,2.7446-2.1492,2.7446l0,0
						c-1.1858,0-2.1481-1.2286-2.1481-2.7446V38.8578c0-1.5178,0.9623-2.7465,2.1481-2.7465l0,0
						c1.1867,0,2.1492,1.2287,2.1492,2.7465V93.5104z"/>
					<path style="opacity:0.2;" d="M170.5272,36.1852v59.964c0,0,0.5176,0,1.1688-0.8915c0.3201-0.4388,0.4917-1.0831,0.4917-1.7472
						V38.8578C172.1877,37.5555,171.4775,36.4683,170.5272,36.1852z"/>
					<path style="fill:#34495E;" d="M173.4891,56.1605c0,0.6423-0.4079,1.165-0.9116,1.165l0,0
						c-0.5035,0-0.9115-0.5227-0.9115-1.165V41.768c0-0.6424,0.408-1.1629,0.9115-1.1629l0,0c0.5037,0,0.9116,0.5206,0.9116,1.1629
						V56.1605z"/>
					<path style="opacity:0.1;fill:#FFFFFF;" d="M167.8903,38.8578v54.6526c0,1.2546,0.6602,2.3118,1.5587,2.6388l0,0V36.2191
						C168.5505,36.546,167.8903,37.6034,167.8903,38.8578z"/>
				</g>
				<g>
					<path style="fill:#E74C3C;" d="M184.5956,82.9594c-0.1825,1.4977-1.2814,2.523-2.4533,2.2896l0,0
						c-1.1728-0.2334-1.9746-1.6374-1.7911-3.1354l6.591-54.0003c0.1835-1.498,1.2815-2.5233,2.4533-2.29l0,0
						c1.1728,0.2334,1.9746,1.6377,1.7921,3.1354L184.5956,82.9594z"/>
					<path style="opacity:0.2;" d="M189.8693,25.993l-7.2263,59.28c0,0,0.5905,0,1.2566-0.6842
						c0.38-0.3907,0.6163-0.9733,0.696-1.6294l6.592-54.0007C191.3443,27.6744,190.7748,26.4597,189.8693,25.993z"/>
					<path style="fill:#232700;" d="M190.3869,46.3114c-0.0778,0.6364-0.5436,1.0711-1.0412,0.9714l0,0
						c-0.4966-0.0996-0.8377-0.6941-0.7599-1.3304l1.7362-14.2189c0.0778-0.6364,0.5426-1.0711,1.0403-0.9714l0,0
						c0.4975,0.0996,0.8377,0.6941,0.7608,1.3304L190.3869,46.3114z"/>
					<path style="opacity:0.1;fill:#757575;" d="M186.9423,28.1133l-6.591,54.0003c-0.1515,1.2386,0.3729,2.4114,1.2217,2.9119l0,0
						l7.2283-59.2121C187.8717,25.9592,187.0938,26.8726,186.9423,28.1133z"/>
				</g>
			</g>
		</g>
	</g>
	<g id="Correction_1_">
		<g id="Laptop_3_">
			<g>
				<rect x="282.3976" y="173.6715" style="fill-rule:evenodd;clip-rule:evenodd;fill:#003333;" width="90.5615" height="4.2046"/>
				<path style="fill-rule:evenodd;clip-rule:evenodd;fill:#344F84;" d="M394.9868,122.4973H258.772
					c-6.244,0-8.1716,3.9212-6.9659,8.5526c-0.0011-0.0558,0.0079-0.1097,0.0099-0.1675c-0.012,0.3131,0.013,0.6323,0.0987,0.9554
					l9.8581,37.2124c1.4899,5.6505,2.8264,5.826,10.1762,5.8161l113.8918-0.012c5.9139,0,8.797,0.012,9.9688-5.6606l7.6781-37.3559
					c0.0288-0.1417,0.0408-0.2833,0.0519-0.4248c0.0009,0.0039,0.002,0.006,0.003,0.0099l0.371-3.1653
					C404.4401,123.7139,398.4584,122.4973,394.9868,122.4973z M251.8758,130.3876c-0.0179,0.0878-0.0348,0.1756-0.0438,0.2654
					C251.842,130.5633,251.8579,130.4755,251.8758,130.3876z M252.1711,129.5221c-0.021,0.0419-0.0459,0.0857-0.0649,0.1276
					C252.1252,129.6078,252.1502,129.564,252.1711,129.5221z M252.0025,129.925c-0.025,0.0718-0.0519,0.1436-0.0728,0.2174
					C251.9506,130.0686,251.9776,129.9968,252.0025,129.925z M257.5633,126.2809c0.2055-0.018,0.412-0.028,0.6163-0.028
					C257.9753,126.2529,257.7688,126.263,257.5633,126.2809z M253.7757,127.6911c0.0141-0.012,0.0269-0.022,0.0419-0.032
					C253.8036,127.6691,253.7897,127.6792,253.7757,127.6911z M254.2225,127.3919c0.0289-0.018,0.0568-0.0359,0.0868-0.0539
					C254.2793,127.356,254.2513,127.374,254.2225,127.3919z M254.7101,127.1167c0.0438-0.0239,0.0868-0.0459,0.1306-0.0658
					C254.7969,127.0708,254.7531,127.0947,254.7101,127.1167z M255.2337,126.8714c0.0579-0.026,0.1156-0.0479,0.1725-0.0718
					C255.3493,126.8235,255.2916,126.8453,255.2337,126.8714z M255.7853,126.6599c0.0737-0.024,0.1485-0.0458,0.2223-0.0697
					C255.9338,126.6141,255.859,126.6359,255.7853,126.6599z M256.3606,126.4903c0.0927-0.0239,0.1865-0.0419,0.2793-0.0618
					C256.5471,126.4485,256.4533,126.4664,256.3606,126.4903z M256.955,126.3627c0.1197-0.022,0.2403-0.0339,0.361-0.0499
					C257.1953,126.3288,257.0747,126.3408,256.955,126.3627z"/>
				<path style="opacity:0.5;fill-rule:evenodd;clip-rule:evenodd;" d="M258.772,122.4973h136.2148
					c3.4716,0,9.4533,1.2166,8.9267,5.7601l-0.371,3.1653c-0.5037-2.3554-3.4397-5.1699-6.3198-5.1699H258.1796
					c-3.1324,0-6.4075,2.1701-6.3735,4.797C250.6004,126.4186,252.528,122.4973,258.772,122.4973L258.772,122.4973z"/>
				<polygon style="opacity:0.8;fill-rule:evenodd;clip-rule:evenodd;fill:#FFFFFF;" points="258.7382,128.8819 397.4072,128.7282 
					389.9277,172.0719 267.4354,172.1057 				"/>
				<path style="fill-rule:evenodd;clip-rule:evenodd;fill:#C6C6C6;" d="M265.5515,176.1367h125.0544
					c2.0703,0,3.7687,1.6953,3.7687,3.7657v68.9577c0,2.0703-1.6983,3.7676-3.7687,3.7676H265.5515
					c-2.0693,0-3.7676-1.6973-3.7676-3.7676v-68.9577C261.7838,177.832,263.4822,176.1367,265.5515,176.1367L265.5515,176.1367z"/>
				<path style="opacity:0.2;" d="M394.3746,179.9024c0-2.0703-1.6983-3.7657-3.7687-3.7657h-10.5303l-79.7121,76.491h90.2424
					c2.0703,0,3.7687-1.6973,3.7687-3.7676V179.9024z"/>
				<rect x="310.3622" y="229.3015" style="fill-rule:evenodd;clip-rule:evenodd;fill:#223666;" width="35.4232" height="18.5414"/>
				<rect x="268.3589" y="182.595" style="opacity:0.3;fill-rule:evenodd;clip-rule:evenodd;" width="119.4397" height="43.4174"/>
			</g>
			<g id="Keyboard_1_">
				<path style="fill-rule:evenodd;clip-rule:evenodd;fill:#333333;" d="M270.9449,185.1641h5.5438
					c0.3281,0,0.5883,0.349,0.5883,0.7719v5.9696c0,0.4229-0.2603,0.7719-0.5883,0.7719h-5.5438
					c-0.3291,0-0.6005-0.349-0.6005-0.7719v-5.9696C270.3444,185.5131,270.6158,185.1641,270.9449,185.1641L270.9449,185.1641z"/>
				<path style="fill-rule:evenodd;clip-rule:evenodd;fill:#333333;" d="M279.9402,185.1641h5.5439
					c0.328,0,0.5994,0.349,0.5994,0.7719v5.9696c0,0.4229-0.2714,0.7719-0.5994,0.7719h-5.5439
					c-0.3281,0-0.5994-0.349-0.5994-0.7719v-5.9696C279.3408,185.5131,279.6122,185.1641,279.9402,185.1641L279.9402,185.1641z"/>
				<path style="fill-rule:evenodd;clip-rule:evenodd;fill:#333333;" d="M288.9467,185.1641h5.5328
					c0.3282,0,0.6005,0.349,0.6005,0.7719v5.9696c0,0.4229-0.2722,0.7719-0.6005,0.7719h-5.5328
					c-0.3282,0-0.6005-0.349-0.6005-0.7719v-5.9696C288.3462,185.5131,288.6185,185.1641,288.9467,185.1641L288.9467,185.1641z"/>
				<path style="fill-rule:evenodd;clip-rule:evenodd;fill:#333333;" d="M297.942,185.1641h5.5329
					c0.34,0,0.5993,0.349,0.5993,0.7719v5.9696c0,0.4229-0.2592,0.7719-0.5993,0.7719h-5.5329c-0.3281,0-0.5995-0.349-0.5995-0.7719
					v-5.9696C297.3426,185.5131,297.614,185.1641,297.942,185.1641L297.942,185.1641z"/>
				<path style="fill-rule:evenodd;clip-rule:evenodd;fill:#333333;" d="M306.9374,185.1641h5.5449
					c0.3281,0,0.5994,0.349,0.5994,0.7719v5.9696c0,0.4229-0.2713,0.7719-0.5994,0.7719h-5.5449
					c-0.3281,0-0.5993-0.349-0.5993-0.7719v-5.9696C306.3381,185.5131,306.6093,185.1641,306.9374,185.1641L306.9374,185.1641z"/>
				<path style="fill-rule:evenodd;clip-rule:evenodd;fill:#333333;" d="M315.9438,185.1641h5.5338
					c0.3282,0,0.5994,0.349,0.5994,0.7719v5.9696c0,0.4229-0.2712,0.7719-0.5994,0.7719h-5.5338
					c-0.3271,0-0.5994-0.349-0.5994-0.7719v-5.9696C315.3444,185.5131,315.6167,185.1641,315.9438,185.1641L315.9438,185.1641z"/>
				<path style="fill-rule:evenodd;clip-rule:evenodd;fill:#333333;" d="M324.9403,185.1641h5.5329
					c0.3401,0,0.5993,0.349,0.5993,0.7719v5.9696c0,0.4229-0.2592,0.7719-0.5993,0.7719h-5.5329
					c-0.3281,0-0.5994-0.349-0.5994-0.7719v-5.9696C324.3409,185.5131,324.6122,185.1641,324.9403,185.1641L324.9403,185.1641z"/>
				<path style="fill-rule:evenodd;clip-rule:evenodd;fill:#333333;" d="M333.9356,185.1641h5.5439
					c0.3282,0,0.6004,0.349,0.6004,0.7719v5.9696c0,0.4229-0.2722,0.7719-0.6004,0.7719h-5.5439
					c-0.3291,0-0.5993-0.349-0.5993-0.7719v-5.9696C333.3364,185.5131,333.6065,185.1641,333.9356,185.1641L333.9356,185.1641z"/>
				<path style="fill-rule:evenodd;clip-rule:evenodd;fill:#333333;" d="M342.9431,185.1641h5.5327
					c0.3282,0,0.5994,0.349,0.5994,0.7719v5.9696c0,0.4229-0.2712,0.7719-0.5994,0.7719h-5.5327
					c-0.3402,0-0.6005-0.349-0.6005-0.7719v-5.9696C342.3427,185.5131,342.603,185.1641,342.9431,185.1641L342.9431,185.1641z"/>
				<path style="fill-rule:evenodd;clip-rule:evenodd;fill:#333333;" d="M351.9385,185.1641h5.5329
					c0.339,0,0.6003,0.349,0.6003,0.7719v5.9696c0,0.4229-0.2613,0.7719-0.6003,0.7719h-5.5329
					c-0.3291,0-0.5994-0.349-0.5994-0.7719v-5.9696C351.3391,185.5131,351.6094,185.1641,351.9385,185.1641L351.9385,185.1641z"/>
				<path style="fill-rule:evenodd;clip-rule:evenodd;fill:#333333;" d="M360.9339,185.1641h5.5449
					c0.3281,0,0.5984,0.349,0.5984,0.7719v5.9696c0,0.4229-0.2703,0.7719-0.5984,0.7719h-5.5449
					c-0.3291,0-0.5984-0.349-0.5984-0.7719v-5.9696C360.3355,185.5131,360.6048,185.1641,360.9339,185.1641L360.9339,185.1641z"/>
				<path style="fill-rule:evenodd;clip-rule:evenodd;fill:#333333;" d="M284.4549,195.5915h5.533
					c0.328,0,0.5992,0.3491,0.5992,0.7719v5.9697c0,0.4229-0.2712,0.7719-0.5992,0.7719h-5.533
					c-0.3291,0-0.6003-0.349-0.6003-0.7719v-5.9697C283.8546,195.9407,284.1258,195.5915,284.4549,195.5915L284.4549,195.5915z"/>
				<path style="fill-rule:evenodd;clip-rule:evenodd;fill:#333333;" d="M293.4493,195.5915h5.5448
					c0.3291,0,0.6004,0.3491,0.6004,0.7719v5.9697c0,0.4229-0.2713,0.7719-0.6004,0.7719h-5.5448
					c-0.3271,0-0.5994-0.349-0.5994-0.7719v-5.9697C292.8499,195.9407,293.1222,195.5915,293.4493,195.5915L293.4493,195.5915z"/>
				<path style="fill-rule:evenodd;clip-rule:evenodd;fill:#333333;" d="M302.4458,195.5915h5.5448
					c0.3271,0,0.5994,0.3491,0.5994,0.7719v5.9697c0,0.4229-0.2722,0.7719-0.5994,0.7719h-5.5448
					c-0.3282,0-0.5885-0.349-0.5885-0.7719v-5.9697C301.8573,195.9407,302.1176,195.5915,302.4458,195.5915L302.4458,195.5915z"/>
				<path style="fill-rule:evenodd;clip-rule:evenodd;fill:#333333;" d="M311.4521,195.5915h5.534
					c0.328,0,0.5984,0.3491,0.5984,0.7719v5.9697c0,0.4229-0.2703,0.7719-0.5984,0.7719h-5.534
					c-0.3281,0-0.5992-0.349-0.5992-0.7719v-5.9697C310.8528,195.9407,311.124,195.5915,311.4521,195.5915L311.4521,195.5915z"/>
				<path style="fill-rule:evenodd;clip-rule:evenodd;fill:#333333;" d="M320.4476,195.5915h5.5448
					c0.3282,0,0.5885,0.3491,0.5885,0.7719v5.9697c0,0.4229-0.2603,0.7719-0.5885,0.7719h-5.5448
					c-0.3282,0-0.5994-0.349-0.5994-0.7719v-5.9697C319.8482,195.9407,320.1194,195.5915,320.4476,195.5915L320.4476,195.5915z"/>
				<path style="fill-rule:evenodd;clip-rule:evenodd;fill:#333333;" d="M329.443,195.5915h5.5449
					c0.3291,0,0.6003,0.3491,0.6003,0.7719v5.9697c0,0.4229-0.2712,0.7719-0.6003,0.7719h-5.5449
					c-0.3271,0-0.5994-0.349-0.5994-0.7719v-5.9697C328.8435,195.9407,329.1158,195.5915,329.443,195.5915L329.443,195.5915z"/>
				<path style="fill-rule:evenodd;clip-rule:evenodd;fill:#333333;" d="M338.4503,195.5915h5.533
					c0.3281,0,0.5994,0.3491,0.5994,0.7719v5.9697c0,0.4229-0.2713,0.7719-0.5994,0.7719h-5.533
					c-0.328,0-0.5992-0.349-0.5992-0.7719v-5.9697C337.851,195.9407,338.1223,195.5915,338.4503,195.5915L338.4503,195.5915z"/>
				<path style="fill-rule:evenodd;clip-rule:evenodd;fill:#333333;" d="M347.4458,195.5915h5.5448
					c0.3271,0,0.5884,0.3491,0.5884,0.7719v5.9697c0,0.4229-0.2613,0.7719-0.5884,0.7719h-5.5448
					c-0.3291,0-0.5994-0.349-0.5994-0.7719v-5.9697C346.8464,195.9407,347.1167,195.5915,347.4458,195.5915L347.4458,195.5915z"/>
				<path style="fill-rule:evenodd;clip-rule:evenodd;fill:#333333;" d="M356.4402,195.5915h5.546
					c0.3281,0,0.5984,0.3491,0.5984,0.7719v5.9697c0,0.4229-0.2703,0.7719-0.5984,0.7719h-5.546
					c-0.327,0-0.5992-0.349-0.5992-0.7719v-5.9697C355.8409,195.9407,356.1131,195.5915,356.4402,195.5915L356.4402,195.5915z"/>
				<path style="fill-rule:evenodd;clip-rule:evenodd;fill:#333333;" d="M365.4485,195.5915h5.534
					c0.3281,0,0.5984,0.3491,0.5984,0.7719v5.9697c0,0.4229-0.2703,0.7719-0.5984,0.7719h-5.534
					c-0.3291,0-0.6014-0.349-0.6014-0.7719v-5.9697C364.8472,195.9407,365.1194,195.5915,365.4485,195.5915L365.4485,195.5915z"/>
				<path style="fill-rule:evenodd;clip-rule:evenodd;fill:#333333;" d="M369.9414,185.1641h5.5319
					c0.328,0,0.6003,0.349,0.6003,0.7719v5.9696c0,0.4229-0.2723,0.7719-0.6003,0.7719h-5.5319
					c-0.3391,0-0.6013-0.349-0.6013-0.7719v-5.9696C369.34,185.5131,369.6022,185.1641,369.9414,185.1641L369.9414,185.1641z"/>
				<path style="fill-rule:evenodd;clip-rule:evenodd;fill:#333333;" d="M378.9357,185.1641h5.534
					c0.3281,0,0.5984,0.349,0.5984,0.7719v5.9696c0,0.4229-0.2703,0.7719-0.5984,0.7719h-5.534
					c-0.3291,0-0.5993-0.349-0.5993-0.7719v-5.9696C378.3364,185.5131,378.6066,185.1641,378.9357,185.1641L378.9357,185.1641z"/>
				<path style="fill-rule:evenodd;clip-rule:evenodd;fill:#333333;" d="M374.5916,195.5915h9.8781
					c0.3281,0,0.5984,0.3491,0.5984,0.7719v5.9697c0,0.4229-0.2703,0.7719-0.5984,0.7719h-9.8781
					c-0.3291,0-0.6023-0.349-0.6023-0.7719v-5.9697C373.9893,195.9407,374.2625,195.5915,374.5916,195.5915L374.5916,195.5915z"/>
				<path style="fill-rule:evenodd;clip-rule:evenodd;fill:#333333;" d="M271.0346,195.5915h10.2519
					c0.328,0,0.5984,0.3491,0.5984,0.7719v5.9697c0,0.4229-0.2704,0.7719-0.5984,0.7719h-10.2519
					c-0.3402,0-0.5994-0.349-0.5994-0.7719v-5.9697C270.4352,195.9407,270.6944,195.5915,271.0346,195.5915L271.0346,195.5915z"/>
				<path style="fill-rule:evenodd;clip-rule:evenodd;fill:#333333;" d="M271.0346,206.0191h12.2434
					c0.3282,0,0.5994,0.349,0.5994,0.7719v5.9717c0,0.4229-0.2712,0.7719-0.5994,0.7719h-12.2434
					c-0.3402,0-0.5994-0.349-0.5994-0.7719v-5.9717C270.4352,206.3681,270.6944,206.0191,271.0346,206.0191L271.0346,206.0191z"/>
				<path style="fill-rule:evenodd;clip-rule:evenodd;fill:#333333;" d="M271.0346,216.4486h5.5219
					c0.3291,0,0.5994,0.349,0.5994,0.7719v5.9717c0,0.4229-0.2703,0.7719-0.5994,0.7719h-5.5219
					c-0.3402,0-0.5994-0.349-0.5994-0.7719v-5.9717C270.4352,216.7976,270.6944,216.4486,271.0346,216.4486L271.0346,216.4486z"/>
				<path style="fill-rule:evenodd;clip-rule:evenodd;fill:#333333;" d="M280.019,216.4486h5.5219
					c0.3271,0,0.6003,0.349,0.6003,0.7719v5.9717c0,0.4229-0.2732,0.7719-0.6003,0.7719h-5.5219
					c-0.3282,0-0.5994-0.349-0.5994-0.7719v-5.9717C279.4196,216.7976,279.6908,216.4486,280.019,216.4486L280.019,216.4486z"/>
				<path style="fill-rule:evenodd;clip-rule:evenodd;fill:#333333;" d="M289.0035,216.4486h5.5208
					c0.3402,0,0.6005,0.349,0.6005,0.7719v5.9717c0,0.4229-0.2603,0.7719-0.6005,0.7719h-5.5208
					c-0.3282,0-0.5994-0.349-0.5994-0.7719v-5.9717C288.4041,216.7976,288.6753,216.4486,289.0035,216.4486L289.0035,216.4486z"/>
				<path style="fill-rule:evenodd;clip-rule:evenodd;fill:#333333;" d="M297.9879,216.4486h57.5367
					c0.3391,0,0.6005,0.349,0.6005,0.7719v5.9717c0,0.4229-0.2614,0.7719-0.6005,0.7719h-57.5367
					c-0.3282,0-0.5994-0.349-0.5994-0.7719v-5.9717C297.3885,216.7976,297.6598,216.4486,297.9879,216.4486L297.9879,216.4486z"/>
				<path style="fill-rule:evenodd;clip-rule:evenodd;fill:#333333;" d="M286.6041,206.1208h5.5338
					c0.328,0,0.5994,0.3511,0.5994,0.7719v5.9717c0,0.4229-0.2714,0.7719-0.5994,0.7719h-5.5338
					c-0.3282,0-0.5994-0.349-0.5994-0.7719v-5.9717C286.0046,206.4719,286.2758,206.1208,286.6041,206.1208L286.6041,206.1208z"/>
				<path style="fill-rule:evenodd;clip-rule:evenodd;fill:#333333;" d="M295.6005,206.1208h5.5439
					c0.3281,0,0.6003,0.3511,0.6003,0.7719v5.9717c0,0.4229-0.2722,0.7719-0.6003,0.7719h-5.5439
					c-0.3282,0-0.6005-0.349-0.6005-0.7719v-5.9717C295,206.4719,295.2723,206.1208,295.6005,206.1208L295.6005,206.1208z"/>
				<path style="fill-rule:evenodd;clip-rule:evenodd;fill:#333333;" d="M304.5959,206.1208h5.5438
					c0.3281,0,0.6003,0.3511,0.6003,0.7719v5.9717c0,0.4229-0.2723,0.7719-0.6003,0.7719h-5.5438
					c-0.3291,0-0.5883-0.349-0.5883-0.7719v-5.9717C304.0075,206.4719,304.2668,206.1208,304.5959,206.1208L304.5959,206.1208z"/>
				<path style="fill-rule:evenodd;clip-rule:evenodd;fill:#333333;" d="M313.6023,206.1208h5.5338
					c0.3271,0,0.5984,0.3511,0.5984,0.7719v5.9717c0,0.4229-0.2712,0.7719-0.5984,0.7719h-5.5338
					c-0.3282,0-0.5994-0.349-0.5994-0.7719v-5.9717C313.0029,206.4719,313.2741,206.1208,313.6023,206.1208L313.6023,206.1208z"/>
				<path style="fill-rule:evenodd;clip-rule:evenodd;fill:#333333;" d="M322.5977,206.1208h5.5449
					c0.3281,0,0.5883,0.3511,0.5883,0.7719v5.9717c0,0.4229-0.2603,0.7719-0.5883,0.7719h-5.5449
					c-0.3271,0-0.5994-0.349-0.5994-0.7719v-5.9717C321.9982,206.4719,322.2705,206.1208,322.5977,206.1208L322.5977,206.1208z"/>
				<path style="fill-rule:evenodd;clip-rule:evenodd;fill:#333333;" d="M331.5941,206.1208h5.5428
					c0.3282,0,0.6013,0.3511,0.6013,0.7719v5.9717c0,0.4229-0.2732,0.7719-0.6013,0.7719h-5.5428
					c-0.3291,0-0.6003-0.349-0.6003-0.7719v-5.9717C330.9938,206.4719,331.265,206.1208,331.5941,206.1208L331.5941,206.1208z"/>
				<path style="fill-rule:evenodd;clip-rule:evenodd;fill:#333333;" d="M340.6005,206.1208h5.5338
					c0.3271,0,0.5984,0.3511,0.5984,0.7719v5.9717c0,0.4229-0.2712,0.7719-0.5984,0.7719h-5.5338
					c-0.3291,0-0.6005-0.349-0.6005-0.7719v-5.9717C340.0001,206.4719,340.2714,206.1208,340.6005,206.1208L340.6005,206.1208z"/>
				<path style="fill-rule:evenodd;clip-rule:evenodd;fill:#333333;" d="M349.5948,206.1208h5.5449
					c0.328,0,0.5894,0.3511,0.5894,0.7719v5.9717c0,0.4229-0.2613,0.7719-0.5894,0.7719h-5.5449
					c-0.327,0-0.5993-0.349-0.5993-0.7719v-5.9717C348.9956,206.4719,349.2679,206.1208,349.5948,206.1208L349.5948,206.1208z"/>
				<path style="fill-rule:evenodd;clip-rule:evenodd;fill:#333333;" d="M358.5904,206.1208h10.3088
					c0.328,0,0.6003,0.3511,0.6003,0.7719v5.9717c0,0.4229-0.2723,0.7719-0.6003,0.7719h-10.3088
					c-0.3282,0-0.5984-0.349-0.5984-0.7719v-5.9717C357.992,206.4719,358.2622,206.1208,358.5904,206.1208L358.5904,206.1208z"/>
				<path style="fill-rule:evenodd;clip-rule:evenodd;fill:#333333;" d="M372.1562,206.0191h12.2556
					c0.328,0,0.6003,0.349,0.6003,0.7719v5.9717c0,0.4229-0.2722,0.7719-0.6003,0.7719h-12.2556
					c-0.327,0-0.5984-0.349-0.5984-0.7719v-5.9717C371.5578,206.3681,371.8292,206.0191,372.1562,206.0191L372.1562,206.0191z"/>
				<path style="fill-rule:evenodd;clip-rule:evenodd;fill:#333333;" d="M373.2563,216.4486h4.6164
					c0.1137,0,0.2154,0.1177,0.2154,0.2613v2.0683c0,0.1457-0.1017,0.2613-0.2154,0.2613h-4.6164
					c-0.1128,0-0.2035-0.1156-0.2035-0.2613v-2.0683C373.0529,216.5663,373.1435,216.4486,373.2563,216.4486L373.2563,216.4486z"/>
				<path style="fill-rule:evenodd;clip-rule:evenodd;fill:#333333;" d="M373.2563,220.9483h4.6164
					c0.1137,0,0.2154,0.1177,0.2154,0.2633v2.0524c0,0.1456-0.1017,0.2633-0.2154,0.2633h-4.6164
					c-0.1128,0-0.2035-0.1177-0.2035-0.2633v-2.0524C373.0529,221.066,373.1435,220.9483,373.2563,220.9483L373.2563,220.9483z"/>
				<path style="fill-rule:evenodd;clip-rule:evenodd;fill:#333333;" d="M366.41,220.9483h4.6174
					c0.1126,0,0.2144,0.1177,0.2144,0.2633v2.0524c0,0.1456-0.1017,0.2633-0.2144,0.2633H366.41
					c-0.1137,0-0.2035-0.1177-0.2035-0.2633v-2.0524C366.2065,221.066,366.2963,220.9483,366.41,220.9483L366.41,220.9483z"/>
				<path style="fill-rule:evenodd;clip-rule:evenodd;fill:#333333;" d="M380.0897,220.9483h4.6164
					c0.1137,0,0.2043,0.1177,0.2043,0.2633v2.0524c0,0.1456-0.0907,0.2633-0.2043,0.2633h-4.6164
					c-0.1128,0-0.2155-0.1177-0.2155-0.2633v-2.0524C379.8742,221.066,379.9768,220.9483,380.0897,220.9483L380.0897,220.9483z"/>
				<path style="fill-rule:evenodd;clip-rule:evenodd;fill:#333333;" d="M358.3759,216.4486h5.5449
					c0.328,0,0.6003,0.349,0.6003,0.7719v5.9717c0,0.4229-0.2723,0.7719-0.6003,0.7719h-5.5449c-0.328,0-0.5983-0.349-0.5983-0.7719
					v-5.9717C357.7775,216.7976,358.0478,216.4486,358.3759,216.4486L358.3759,216.4486z"/>
			</g>
		</g>
		<g id="Lens_1_">
			<path style="fill:#F94B68;" d="M360.3814,101.4667c2.4843-1.7133,5.886-1.0871,7.6003,1.3961l0,0
				c1.7122,2.4853,1.086,5.8879-1.3972,7.6013l-24.5909,16.9556c-2.4843,1.7134-5.8868,1.089-7.5992-1.3961l0,0
				c-1.7132-2.4832-1.088-5.886,1.3962-7.5992L360.3814,101.4667z"/>
			<path style="opacity:0.2;" d="M358.9853,103.4373c2.1082-1.454,4.9943-0.9234,6.4474,1.1828l0,0
				c1.4529,2.1062,0.9234,4.9944-1.1839,6.4463l-20.859,14.3847c-2.1082,1.454-4.9953,0.9236-6.4474-1.1848l0,0
				c-1.453-2.1062-0.9234-4.9943,1.1848-6.4463L358.9853,103.4373z"/>
			<path style="opacity:0.1;" d="M333.6236,121.4861c-0.4079,1.4978-0.1805,3.1594,0.7708,4.5375
				c0.8288,1.2027,2.0535,1.9646,3.3797,2.2419c0.381-1.0851,0.0051-2.7845-1.0641-4.3343
				C335.8166,122.635,334.6528,121.7554,333.6236,121.4861z"/>
			<path style="fill:#3ACEB2;" d="M295.059,122.6888c-11.4019,7.8604-14.271,23.4777-6.4076,34.8787
				c7.8606,11.4027,23.4779,14.271,34.8787,6.4085c10.5622-7.2821,13.7944-21.218,7.9653-32.2938l5.3534-3.6919
				c0,0,1.0002-4.6095-3.3808-5.507l-5.6806,3.9173C319.4682,117.2935,305.4994,115.4905,295.059,122.6888z M325.4409,132.1988
				c6.1482,8.9176,3.9044,21.1302-5.0113,27.2794c-8.9177,6.1493-21.1323,3.9054-27.2816-5.0123
				c-6.1482-8.9176-3.9043-21.1302,5.0124-27.2795C307.078,121.0373,319.2917,123.2812,325.4409,132.1988z"/>
			<path style="opacity:0.2;" d="M289.7773,145.2671c0.3141,3.1993,1.4171,6.3647,3.3707,9.1988
				c5.8332,8.4589,17.1213,10.9063,25.8763,5.8879C300.858,164.6282,292.8728,152.5851,289.7773,145.2671z"/>
		</g>
		<g id="Active_3_">
			<g id="Active1_2_">
				<path style="fill-rule:evenodd;clip-rule:evenodd;fill:#F05161;" d="M321.8557,156.8354
					c0.7559,0.2752,1.45,0.6802,2.0584,1.1868l2.8531-1.1768l1.9188,3.3209l-2.3894,1.9825
					c0.0688,0.397,0.1047,0.8018,0.1047,1.2168c0,0.365-0.0269,0.726-0.0829,1.075l2.4862,1.9169l-1.9178,3.3209l-2.8671-1.0612
					c-0.5954,0.5186-1.2816,0.9375-2.0306,1.2287l-0.4048,3.0316h-3.8366l-0.5086-2.9837c-0.7559-0.2714-1.451-0.6761-2.0584-1.1848
					l-2.8542,1.1767l-1.9178-3.3229l2.3905-1.9825c-0.0699-0.393-0.1067-0.7999-0.1067-1.2147c0-0.369,0.0289-0.7281,0.0838-1.0792
					l-2.4862-1.9127l1.9178-3.323l2.8662,1.0631c0.5963-0.5206,1.2824-0.9394,2.0323-1.2267l0.403-3.0337h3.8375L321.8557,156.8354z
					"/>
				<path style="opacity:0.5;fill-rule:evenodd;clip-rule:evenodd;" d="M319.546,168.352c2.7484,0,4.9893-2.2399,4.9893-4.9863
					c0-2.7486-2.2409-4.9884-4.9893-4.9884c-2.7455,0-4.9873,2.2398-4.9873,4.9884
					C314.5587,166.1122,316.8005,168.352,319.546,168.352L319.546,168.352z"/>
				<path style="opacity:0.5;fill-rule:evenodd;clip-rule:evenodd;fill:#FFFFFF;" d="M319.5471,166.6725
					c1.8229,0,3.3089-1.4878,3.3089-3.3069c0-1.8231-1.486-3.307-3.3089-3.307c-1.8211,0-3.307,1.4839-3.307,3.307
					C316.24,165.1847,317.7259,166.6725,319.5471,166.6725L319.5471,166.6725z"/>
			</g>
			<g id="Active_4_">
				<path style="fill-rule:evenodd;clip-rule:evenodd;fill:#F39C12;" d="M328.7429,128.463
					c1.1918,0.0419,2.3535,0.2952,3.4406,0.736l3.4915-2.958l4.2155,3.8156l-2.4693,3.8814
					c0.2773,0.5245,0.5137,1.0809,0.7022,1.6654c0.1665,0.5186,0.2902,1.0392,0.3719,1.5577l4.377,1.5698l-1.1946,5.5588
					l-4.5266-0.1955c-0.6043,1.0052-1.3822,1.9068-2.3058,2.6548l0.8069,4.4617l-5.4113,1.7433l-2.0733-3.9772
					c-1.1897-0.0399-2.3546-0.2932-3.4415-0.734l-3.4915,2.954l-4.2165-3.8116l2.4713-3.8834
					c-0.2772-0.5246-0.5136-1.0811-0.702-1.6654c-0.1667-0.5186-0.2893-1.0392-0.3731-1.5579l-4.377-1.5716l1.1958-5.5569
					l4.5266,0.1955c0.6033-1.0052,1.3812-1.9068,2.3057-2.6548l-0.8078-4.4619l5.4112-1.7432L328.7429,128.463z"/>
				<path style="opacity:0.5;fill-rule:evenodd;clip-rule:evenodd;" d="M328.4537,146.761c4.4309,0,8.044-3.6141,8.044-8.042
					c0-4.4279-3.6131-8.0381-8.044-8.0381c-4.4289,0-8.0411,3.6102-8.0411,8.0381
					C320.4126,143.1469,324.0248,146.761,328.4537,146.761L328.4537,146.761z"/>
				<path style="opacity:0.5;fill-rule:evenodd;clip-rule:evenodd;fill:#FFFFFF;" d="M329.9576,143.3842
					c2.571-0.8277,3.9922-3.6001,3.1643-6.1671c-0.8277-2.571-3.6-3.9892-6.17-3.1615c-2.5691,0.8278-3.9911,3.5983-3.1624,6.1672
					C324.6172,142.7918,327.3886,144.212,329.9576,143.3842L329.9576,143.3842z"/>
			</g>
		</g>
		<g id="Active_1_">
			<g id="Active1_1_">
				<path style="fill-rule:evenodd;clip-rule:evenodd;fill:#EA844B;" d="M306.2454,150.9994
					c0.3082-0.1297,0.6343-0.2034,0.9623-0.2214l0.5366-1.1649l1.5248,0.4688l-0.1675,1.2805
					c0.1336,0.1017,0.2583,0.2133,0.377,0.3411c0.1028,0.1116,0.1964,0.2293,0.2793,0.3509l1.2994-0.1197l0.356,1.5557
					l-1.1747,0.4868c-0.0349,0.327-0.1257,0.6482-0.2712,0.9493l0.7339,1.0373l-1.1688,1.0869l-0.9982-0.7659
					c-0.3082,0.1297-0.6343,0.2055-0.9634,0.2214l-0.5366,1.1668l-1.5247-0.4706l0.1675-1.2805
					c-0.1327-0.0998-0.2594-0.2135-0.3761-0.3411c-0.1047-0.1117-0.1974-0.2295-0.2802-0.3511l-1.2995,0.1197l-0.355-1.5538
					l1.1739-0.4886c0.0338-0.3272,0.1256-0.6483,0.2723-0.9495l-0.736-1.0371l1.1698-1.0851L306.2454,150.9994z"/>
				<path style="opacity:0.5;fill-rule:evenodd;clip-rule:evenodd;" d="M308.7993,155.1621
					c0.8377-0.7779,0.8867-2.0943,0.1096-2.932c-0.7768-0.8377-2.0932-0.8856-2.9309-0.1077
					c-0.8366,0.7778-0.8866,2.0943-0.1096,2.932C306.6463,155.8921,307.9627,155.9399,308.7993,155.1621L308.7993,155.1621z"/>
				<path style="opacity:0.5;fill-rule:evenodd;clip-rule:evenodd;fill:#FFFFFF;" d="M308.3247,154.6494
					c0.5565-0.5146,0.5873-1.3882,0.0727-1.9427c-0.5155-0.5544-1.3882-0.5883-1.9436-0.0718
					c-0.5554,0.5146-0.5883,1.3882-0.0728,1.9427C306.8966,155.1322,307.7691,155.166,308.3247,154.6494L308.3247,154.6494z"/>
			</g>
			<g id="Active_2_">
				<path style="fill-rule:evenodd;clip-rule:evenodd;fill:#1ABC9C;" d="M300.3145,140.4024
					c0.3759-0.3231,0.8018-0.5744,1.2576-0.748l0.2274-1.8889l2.3645-0.0299l0.3451,1.881
					c0.2334,0.0817,0.4627,0.1855,0.6862,0.3111c0.1964,0.1096,0.3819,0.2334,0.5535,0.3669l1.778-0.7599l1.2087,2.0325
					l-1.434,1.2207c0.0996,0.4787,0.1176,0.9733,0.0479,1.462l1.5079,1.1309l-1.1548,2.0624l-1.7573-0.6244
					c-0.374,0.3231-0.8008,0.5765-1.2566,0.75l-0.2285,1.8887l-2.3644,0.0299l-0.3451-1.8808
					c-0.2323-0.0818-0.4618-0.1855-0.6851-0.3111c-0.1974-0.1096-0.3819-0.2334-0.5545-0.369l-1.778,0.7599l-1.2087-2.0304
					l1.435-1.2226c-0.1007-0.4767-0.1186-0.9714-0.0479-1.46l-1.5089-1.1309l1.1559-2.0624L300.3145,140.4024z"/>
				<path style="opacity:0.5;fill-rule:evenodd;clip-rule:evenodd;" d="M305.4047,146.0629
					c1.3502-1.2546,1.429-3.3788,0.1754-4.7271c-1.2525-1.3504-3.3758-1.4281-4.7251-0.1735
					c-1.3502,1.2525-1.429,3.3748-0.1765,4.7251C301.9321,147.2357,304.0554,147.3154,305.4047,146.0629L305.4047,146.0629z"/>
				<path style="opacity:0.5;fill-rule:evenodd;clip-rule:evenodd;fill:#FFFFFF;" d="M304.9081,144.6069
					c0.5494-0.9794,0.1974-2.2259-0.7809-2.7744c-0.9793-0.5486-2.2259-0.1975-2.7744,0.7819
					c-0.5495,0.9792-0.1985,2.2259,0.7809,2.7743C303.1129,145.9372,304.3595,145.5861,304.9081,144.6069L304.9081,144.6069z"/>
			</g>
		</g>
	</g>
	<g id="Blooming_1_">
		<path style="fill:#A5A5A5;" d="M96.662,240.465c-7.3518-6.4922-4.0081-21.6409-4.0081-21.6409h-10.957H70.7408
			c0,0,3.3428,15.1487-4.0091,21.6409c-7.353,6.4923-15.9413,6.4923-15.9413,6.4923v3.652h30.9065h30.9056v-3.652
			C112.6025,246.9573,104.015,246.9573,96.662,240.465z"/>
		<rect x="50.7904" y="246.9573" style="opacity:0.3;fill:#FFFFFF;" width="61.812" height="3.652"/>
		<path style="fill:#CCCCCC;" d="M163.3936,209.0846c0,5.3793-4.361,9.7395-9.7384,9.7395H9.7384
			c-5.3781,0-9.7384-4.3602-9.7384-9.7395V129.552c0-5.3773,4.3603-9.7375,9.7384-9.7375h143.9169
			c5.3773,0,9.7384,4.3602,9.7384,9.7375V209.0846z"/>
		<path style="fill:#223666;" d="M0,129.552v79.5326c0,1.8889,0.5466,3.6481,1.478,5.14h160.4377
			c0.9315-1.4919,1.478-3.2511,1.478-5.14V129.552c0-2.5212-0.9664-4.8109-2.539-6.5401H2.5382
			C0.9655,124.7412,0,127.0308,0,129.552z"/>
		<rect x="7.0329" y="126.3068" style="fill:#E2E2E2;" width="149.328" height="84.537"/>
		<rect x="21.8445" y="180.409" style="fill:#9AC900;" width="15.9414" height="30.4348"/>
		<rect x="48.8966" y="171.2321" style="fill:#C3DF00;" width="15.9414" height="39.6118"/>
		<rect x="76.1851" y="151.9089" style="fill:#DFC300;" width="15.9413" height="58.9349"/>
		<rect x="104.6861" y="141.7647" style="fill:#E85F00;" width="15.9414" height="69.0792"/>
		<rect x="131.8737" y="131.1078" style="fill:#E53400;" width="15.9405" height="78.316"/>
		<g>
			<g>
				<polygon style="fill:#34495E;" points="17.6598,192.6217 16.1888,190.661 62.5372,155.9 112.2105,150.7182 147.191,130.0526 
					148.4375,132.1629 112.9963,153.0997 63.4656,158.2676 				"/>
			</g>
			<circle style="fill:#0CC1B0;" cx="16.9245" cy="191.6423" r="3.9849"/>
			<circle style="fill:#0CC1B0;" cx="63.0012" cy="157.0848" r="3.9849"/>
			<circle style="fill:#0CC1B0;" cx="112.6027" cy="151.9089" r="3.9849"/>
			<circle style="fill:#0CC1B0;" cx="147.8142" cy="131.1078" r="3.9846"/>
		</g>
	</g>
	<g id="Man_2_">
		<polygon style="fill:#F6B98A;" points="171.4158,237.551 173.6387,217.9007 221.9018,208.0375 221.0591,223.3138 
			223.0806,236.0929 216.1017,242.655 200.7895,248.3156 179.1236,243.3171 		"/>
		<path style="fill:#EFB73A;" d="M164.9573,236.0929l7.5195-7.9164c0,0,7.4796,18.4696,25.8124,17.3605
			c18.333-1.1109,23.6684-16.5467,23.6684-16.5467l9.6636,7.1026l0.6971,17.917c0,0-37.0816,9.5798-42.9156,8.1937
			c-5.8332-1.3882-26.392-11.1117-26.392-11.1117L164.9573,236.0929z"/>
		<path style="fill:#33839E;" d="M231.6212,236.0929c-6.6658,17.5002-33.3319,19.1656-33.3319,19.1656
			s-26.6661-1.6654-33.3319-19.1656c0,0-61.6645,14.9991-66.6648,74.1654c0,0,24.9997,49.1656,99.9967,54.164
			c74.9982-4.9984,99.9968-54.164,99.9968-54.164C293.2867,251.092,231.6212,236.0929,231.6212,236.0929z"/>
		<path style="fill:#5E3B28;" d="M243.7052,131.5126c-5.4171-19.5824-45.4159-25.8314-45.4159-25.8314
			s-39.9986,6.249-45.4149,25.8314c-5.4163,19.5845-1.2495,42.083,4.5835,59.5833c5.8321,17.4981,17.4992,39.1649,40.8314,47.4982
			c23.3324-8.3333,34.9994-30.0001,40.8325-47.4982C244.9548,173.5956,249.1214,151.0971,243.7052,131.5126z"/>
		<path style="opacity:0.2;" d="M205.1606,107.0894c11.3859,16.6504,34.2744,62.8063-1.6166,129.3027
			c19.8587-9.504,30.2005-29.1662,35.5777-45.2962c5.8332-17.5003,9.9997-39.9988,4.5835-59.5833
			C239.7042,117.0501,216.8426,109.8618,205.1606,107.0894z"/>
		<path style="opacity:0.2;" d="M298.2861,310.2583c-4.0699-48.1624-45.6862-67.0568-61.0253-72.4202
			c14.9463,19.2793,45.1896,63.7039,37.5325,98.9376C291.6043,323.3944,298.2861,310.2583,298.2861,310.2583z"/>
	</g>
</g>
</svg>
