<?xml version="1.0" encoding="utf-8"?>
<!-- Generator: Adobe Illustrator 21.0.2, SVG Export Plug-In . SVG Version: 6.00 Build 0)  -->
<svg version="1.1" id="Capa_1" xmlns="http://www.w3.org/2000/svg" xmlns:xlink="http://www.w3.org/1999/xlink" x="0px" y="0px"
	 viewBox="0 0 604.6352 67.4195" style="enable-background:new 0 0 604.6352 67.4195;" xml:space="preserve">
<g>
	<polyline style="fill:none;stroke:#093751;stroke-miterlimit:10;" points="0.5,67.4195 0.5,20.1009 604.1352,20.1009 
		604.1352,67.4195 	"/>
	<g>
		
			<rect x="102.9099" y="-59.3185" transform="matrix(6.123234e-17 -1 1 6.123234e-17 102.9099 146.6907)" style="fill:#CED3D6;" width="43.7808" height="162.4179"/>
		
			<rect x="106.0112" y="-55.1555" transform="matrix(6.123234e-17 -1 1 6.123234e-17 102.9099 146.6907)" style="fill:#FFFFFF;" width="37.5782" height="154.0917"/>
		
			<rect x="108.0378" y="-52.3702" transform="matrix(6.123234e-17 -1 1 6.123234e-17 102.9099 146.6907)" style="fill:#2B2B38;" width="33.5249" height="148.5213"/>
		<g>
			<path style="fill:#FFFFFF;" d="M94.9499,28.6379v-9.6914l-0.0889,0.6006l-3.2832,9.0908H90.907l-3.3125-9.0908l-0.0791-0.6006
				v9.6914h-1.2715V14.4993h0.6602l4.2891,11.5947l0.0391,0.5225l0.04-0.5225l4.2783-11.5947h0.6709v14.1387H94.9499z"/>
			<path style="fill:#FFFFFF;" d="M105.1843,28.6379l-0.6709-1.0254c-0.2764,0.375-0.6211,0.6719-1.0352,0.8926
				c-0.4141,0.2197-0.8672,0.3301-1.3604,0.3301h-0.3057c-0.4082,0-0.792-0.0771-1.1543-0.2314
				c-0.3613-0.1543-0.6768-0.3662-0.9463-0.6367c-0.2695-0.2686-0.4814-0.585-0.6357-0.9463s-0.2314-0.7461-0.2314-1.1533v-7.3252
				h1.2129v7.3945c0,0.2432,0.0459,0.4717,0.1377,0.6846c0.0918,0.2139,0.2168,0.3994,0.375,0.5576
				c0.1572,0.1572,0.3428,0.2822,0.5566,0.374c0.2139,0.0928,0.4424,0.1387,0.6855,0.1387h0.8086
				c0.2432,0,0.4707-0.0459,0.6846-0.1387c0.2139-0.0918,0.3994-0.2168,0.5576-0.374c0.1572-0.1582,0.2822-0.3438,0.374-0.5576
				c0.0928-0.2129,0.1387-0.4414,0.1387-0.6846v-7.3945h1.2129v10.0957H105.1843z"/>
			<path style="fill:#FFFFFF;" d="M114.5251,27.0208c-0.1543,0.3613-0.3662,0.6777-0.6357,0.9463
				c-0.2695,0.2705-0.585,0.4824-0.9463,0.6367s-0.7461,0.2314-1.1533,0.2314h-0.8086c-0.4082,0-0.792-0.0771-1.1543-0.2314
				c-0.3613-0.1543-0.6768-0.3662-0.9463-0.6367c-0.2695-0.2686-0.4814-0.585-0.6357-0.9463s-0.2314-0.7461-0.2314-1.1533v-4.5547
				c0-0.4082,0.0771-0.792,0.2314-1.1543c0.1543-0.3613,0.3662-0.6768,0.6357-0.9463s0.585-0.4814,0.9463-0.6357
				c0.3623-0.1543,0.7461-0.2314,1.1543-0.2314h0.8086c0.4072,0,0.792,0.0771,1.1533,0.2314s0.6768,0.3662,0.9463,0.6357
				s0.4814,0.585,0.6357,0.9463c0.1543,0.3623,0.2324,0.7461,0.2324,1.1543v2.376h-5.5313v2.248
				c0,0.2432,0.0459,0.4717,0.1377,0.6846c0.0918,0.2139,0.2168,0.3994,0.375,0.5576c0.1572,0.1572,0.3428,0.2822,0.5566,0.374
				c0.2139,0.0928,0.4424,0.1387,0.6855,0.1387h0.8086c0.2432,0,0.4707-0.0459,0.6846-0.1387
				c0.2139-0.0918,0.3994-0.2168,0.5576-0.374c0.1572-0.1582,0.2822-0.3438,0.374-0.5576c0.0928-0.2129,0.1387-0.4414,0.1387-0.6846
				v-0.6709l1.2129,0.1973v0.4043C114.7575,26.2747,114.6794,26.6594,114.5251,27.0208z M113.5447,21.2434
				c0-0.2432-0.0459-0.4717-0.1387-0.6855c-0.0918-0.2129-0.2168-0.3994-0.374-0.5566c-0.1582-0.1582-0.3438-0.2822-0.5576-0.375
				c-0.2139-0.0918-0.4414-0.1377-0.6846-0.1377h-0.8086c-0.2432,0-0.4717,0.0459-0.6855,0.1377
				c-0.2139,0.0928-0.3994,0.2168-0.5566,0.375c-0.1582,0.1572-0.2832,0.3438-0.375,0.5566
				c-0.0918,0.2139-0.1377,0.4424-0.1377,0.6855v1.499h4.3184V21.2434z"/>
			<path style="fill:#FFFFFF;" d="M124.1228,26.0745c0,0.4072-0.082,0.7803-0.2461,1.1191s-0.3877,0.6289-0.6699,0.8721
				c-0.2832,0.2441-0.6104,0.4326-0.9814,0.5674s-0.7607,0.2021-1.168,0.2021h-0.8086c-0.4082,0-0.7979-0.0771-1.1689-0.2314
				s-0.6963-0.3662-0.9756-0.6367c-0.2793-0.2686-0.5029-0.585-0.6709-0.9463c-0.167-0.3613-0.251-0.7461-0.251-1.1533v-0.4043
				l1.2129-0.1973v0.6709c0,0.2432,0.0508,0.4717,0.1523,0.6846c0.1016,0.2139,0.2383,0.3994,0.4092,0.5576
				c0.1709,0.1572,0.3682,0.2822,0.5918,0.374c0.2236,0.0928,0.457,0.1387,0.7002,0.1387h0.8086
				c0.2422,0,0.4756-0.0361,0.6992-0.1084s0.4229-0.1758,0.5967-0.3105s0.3125-0.2979,0.4141-0.4883
				c0.1025-0.1904,0.1533-0.4072,0.1533-0.6504c0-0.3613-0.0791-0.6572-0.2373-0.8877c-0.1572-0.2305-0.3662-0.4219-0.626-0.5771
				c-0.2598-0.1543-0.5557-0.2822-0.8867-0.3838c-0.332-0.1025-0.6729-0.2041-1.0205-0.3057
				c-0.3486-0.1025-0.6885-0.2188-1.0205-0.3506c-0.332-0.1309-0.6279-0.3037-0.8877-0.5176
				c-0.2598-0.2129-0.4678-0.4814-0.626-0.8037c-0.1572-0.3213-0.2363-0.7227-0.2363-1.2021c0-0.4082,0.0791-0.7813,0.2363-1.1191
				c0.1582-0.3389,0.3711-0.6299,0.6406-0.873s0.584-0.4316,0.9414-0.5664c0.3584-0.1348,0.7412-0.2021,1.1494-0.2021h0.71
				c0.4072,0,0.792,0.0771,1.1533,0.2314s0.6768,0.3662,0.9463,0.6357s0.4814,0.585,0.6357,0.9463
				c0.1543,0.3623,0.2314,0.7461,0.2314,1.1543v0.0391l-1.2119,0.1973v-0.3057c0-0.2432-0.0469-0.4717-0.1387-0.6855
				c-0.0918-0.2129-0.2168-0.3994-0.374-0.5566c-0.1582-0.1582-0.3438-0.2822-0.5576-0.375
				c-0.2139-0.0918-0.4424-0.1377-0.6846-0.1377h-0.71c-0.2432,0-0.4717,0.0361-0.6855,0.1084s-0.3994,0.1758-0.5566,0.3105
				c-0.1582,0.1348-0.2832,0.2979-0.375,0.4883s-0.1377,0.4072-0.1377,0.6504c0,0.3486,0.0781,0.6328,0.2363,0.8525
				c0.1572,0.2207,0.3662,0.4063,0.626,0.5576s0.5557,0.2773,0.8877,0.3789c0.3311,0.1025,0.6699,0.207,1.0146,0.3164
				c0.3457,0.1084,0.6836,0.2314,1.0156,0.3691s0.6279,0.3154,0.8877,0.5322s0.4688,0.4883,0.626,0.8135
				C124.0447,25.1917,124.1228,25.595,124.1228,26.0745z"/>
			<path style="fill:#FFFFFF;" d="M130.1286,28.6379c-0.3682,0-0.7148-0.0693-1.04-0.207
				c-0.3262-0.1377-0.6084-0.3281-0.8486-0.5723c-0.2402-0.2432-0.4307-0.5254-0.5713-0.8477
				c-0.1416-0.3223-0.2119-0.667-0.2119-1.0352v-6.2803h-1.8145v-1.1533h1.8145v-2.4258l1.2119-0.1973v2.623h2.5635v1.1533h-2.5635
				v6.3398c0,0.2031,0.0381,0.3926,0.1143,0.5664c0.0752,0.1748,0.1787,0.3271,0.3105,0.459
				c0.1309,0.1309,0.2852,0.2344,0.4629,0.3105c0.1777,0.0752,0.3682,0.1133,0.5723,0.1133h1.1035v1.1533H130.1286z"/>
			<path style="fill:#FFFFFF;" d="M136.4284,19.6956c-0.2432,0-0.4717,0.0459-0.6855,0.1377
				c-0.2139,0.0928-0.3994,0.2168-0.5566,0.375c-0.1582,0.1572-0.2832,0.3438-0.375,0.5566
				c-0.0918,0.2139-0.1377,0.4424-0.1377,0.6855v7.1875h-1.2129V18.5422h0.4043l0.6602,1.0254
				c0.2764-0.375,0.623-0.6719,1.04-0.8926c0.418-0.2197,0.873-0.3301,1.3662-0.3301h0.71v1.3506H136.4284z"/>
			<path style="fill:#FFFFFF;" d="M145.7693,27.0208c-0.1543,0.3613-0.3662,0.6777-0.6357,0.9463
				c-0.2695,0.2705-0.585,0.4824-0.9463,0.6367s-0.7461,0.2314-1.1533,0.2314h-0.8086c-0.4082,0-0.792-0.0771-1.1543-0.2314
				c-0.3613-0.1543-0.6768-0.3662-0.9463-0.6367c-0.2695-0.2686-0.4814-0.585-0.6357-0.9463s-0.2314-0.7461-0.2314-1.1533v-4.5547
				c0-0.4082,0.0771-0.792,0.2314-1.1543c0.1543-0.3613,0.3662-0.6768,0.6357-0.9463s0.585-0.4814,0.9463-0.6357
				c0.3623-0.1543,0.7461-0.2314,1.1543-0.2314h0.8086c0.4072,0,0.792,0.0771,1.1533,0.2314s0.6768,0.3662,0.9463,0.6357
				s0.4814,0.585,0.6357,0.9463c0.1543,0.3623,0.2324,0.7461,0.2324,1.1543v2.376h-5.5313v2.248
				c0,0.2432,0.0459,0.4717,0.1377,0.6846c0.0918,0.2139,0.2168,0.3994,0.375,0.5576c0.1572,0.1572,0.3428,0.2822,0.5566,0.374
				c0.2139,0.0928,0.4424,0.1387,0.6855,0.1387h0.8086c0.2432,0,0.4707-0.0459,0.6846-0.1387
				c0.2139-0.0918,0.3994-0.2168,0.5576-0.374c0.1572-0.1582,0.2822-0.3438,0.374-0.5576c0.0928-0.2129,0.1387-0.4414,0.1387-0.6846
				v-0.6709l1.2129,0.1973v0.4043C146.0017,26.2747,145.9236,26.6594,145.7693,27.0208z M144.7888,21.2434
				c0-0.2432-0.0459-0.4717-0.1387-0.6855c-0.0918-0.2129-0.2168-0.3994-0.374-0.5566c-0.1582-0.1582-0.3438-0.2822-0.5576-0.375
				c-0.2139-0.0918-0.4414-0.1377-0.6846-0.1377h-0.8086c-0.2432,0-0.4717,0.0459-0.6855,0.1377
				c-0.2139,0.0928-0.3994,0.2168-0.5566,0.375c-0.1582,0.1572-0.2832,0.3438-0.375,0.5566
				c-0.0918,0.2139-0.1377,0.4424-0.1377,0.6855v1.499h4.3184V21.2434z"/>
			<path style="fill:#FFFFFF;" d="M154.9392,27.0208c-0.1543,0.3613-0.3662,0.6777-0.6357,0.9463
				c-0.2695,0.2705-0.585,0.4824-0.9463,0.6367s-0.7461,0.2314-1.1533,0.2314h-0.8086c-0.4082,0-0.792-0.0771-1.1543-0.2314
				c-0.3613-0.1543-0.6768-0.3662-0.9463-0.6367c-0.2695-0.2686-0.4814-0.585-0.6357-0.9463s-0.2314-0.7461-0.2314-1.1533v-4.5547
				c0-0.4082,0.0771-0.792,0.2314-1.1543c0.1543-0.3613,0.3662-0.6768,0.6357-0.9463s0.585-0.4814,0.9463-0.6357
				c0.3623-0.1543,0.7461-0.2314,1.1543-0.2314h0.8086c0.4072,0,0.792,0.0771,1.1533,0.2314s0.6768,0.3662,0.9463,0.6357
				s0.4814,0.585,0.6357,0.9463c0.1543,0.3623,0.2324,0.7461,0.2324,1.1543v4.5547
				C155.1716,26.2747,155.0935,26.6594,154.9392,27.0208z M153.9587,21.2434c0-0.2432-0.0459-0.4717-0.1387-0.6855
				c-0.0918-0.2129-0.2168-0.3994-0.374-0.5566c-0.1582-0.1582-0.3438-0.2822-0.5576-0.375
				c-0.2139-0.0918-0.4414-0.1377-0.6846-0.1377h-0.8086c-0.2432,0-0.4717,0.0459-0.6855,0.1377
				c-0.2139,0.0928-0.3994,0.2168-0.5566,0.375c-0.1582,0.1572-0.2832,0.3438-0.375,0.5566
				c-0.0918,0.2139-0.1377,0.4424-0.1377,0.6855v4.6934c0,0.2432,0.0459,0.4717,0.1377,0.6846
				c0.0918,0.2139,0.2168,0.3994,0.375,0.5576c0.1572,0.1572,0.3428,0.2822,0.5566,0.374c0.2139,0.0928,0.4424,0.1387,0.6855,0.1387
				h0.8086c0.2432,0,0.4707-0.0459,0.6846-0.1387c0.2139-0.0918,0.3994-0.2168,0.5576-0.374
				c0.1572-0.1582,0.2822-0.3438,0.374-0.5576c0.0928-0.2129,0.1387-0.4414,0.1387-0.6846V21.2434z"/>
		</g>
	</g>
	<g>
		
			<rect x="280.0057" y="-59.3185" transform="matrix(6.123234e-17 -1 1 6.123234e-17 280.0057 323.7866)" style="fill:#CED3D6;" width="43.7808" height="162.4179"/>
		
			<rect x="283.1071" y="-55.1555" transform="matrix(6.123234e-17 -1 1 6.123234e-17 280.0057 323.7866)" style="fill:#FFFFFF;" width="37.5782" height="154.0917"/>
		
			<rect x="285.1337" y="-52.3702" transform="matrix(6.123234e-17 -1 1 6.123234e-17 280.0057 323.7866)" style="fill:#F9CA35;" width="33.5249" height="148.5213"/>
		<g>
			<path d="M252.3855,28.6379V14.4993h1.2715v14.1387H252.3855z"/>
			<path d="M262.0183,28.6379v-7.3945c0-0.2432-0.0459-0.4717-0.1387-0.6855c-0.0918-0.2129-0.2168-0.3994-0.374-0.5566
				c-0.1582-0.1582-0.3438-0.2822-0.5576-0.375c-0.2139-0.0918-0.4414-0.1377-0.6846-0.1377h-0.8086
				c-0.2432,0-0.4717,0.0459-0.6855,0.1377c-0.2139,0.0928-0.3994,0.2168-0.5566,0.375c-0.1582,0.1572-0.2832,0.3438-0.375,0.5566
				c-0.0918,0.2139-0.1377,0.4424-0.1377,0.6855v7.3945h-1.2129V18.5422h0.4043l0.6602,1.0254
				c0.2764-0.375,0.623-0.6719,1.04-0.8926c0.418-0.2197,0.873-0.3301,1.3662-0.3301h0.3057c0.4072,0,0.792,0.0771,1.1533,0.2314
				s0.6768,0.3662,0.9463,0.6357s0.4814,0.585,0.6357,0.9463c0.1543,0.3623,0.2324,0.7461,0.2324,1.1543v7.3252H262.0183z"/>
			<path d="M268.821,28.6379h-0.6016l-3.5791-10.0957h1.2129l2.6318,7.6504l0.04,0.5225l0.0391-0.5225l2.623-7.6504h1.2129
				L268.821,28.6379z"/>
			<path d="M280.322,27.0208c-0.1543,0.3613-0.3662,0.6777-0.6357,0.9463c-0.2695,0.2705-0.585,0.4824-0.9463,0.6367
				s-0.7461,0.2314-1.1533,0.2314h-0.8086c-0.4082,0-0.792-0.0771-1.1543-0.2314c-0.3613-0.1543-0.6768-0.3662-0.9463-0.6367
				c-0.2695-0.2686-0.4814-0.585-0.6357-0.9463s-0.2314-0.7461-0.2314-1.1533v-4.5547c0-0.4082,0.0771-0.792,0.2314-1.1543
				c0.1543-0.3613,0.3662-0.6768,0.6357-0.9463s0.585-0.4814,0.9463-0.6357c0.3623-0.1543,0.7461-0.2314,1.1543-0.2314h0.8086
				c0.4072,0,0.792,0.0771,1.1533,0.2314s0.6768,0.3662,0.9463,0.6357s0.4814,0.585,0.6357,0.9463
				c0.1543,0.3623,0.2324,0.7461,0.2324,1.1543v2.376h-5.5313v2.248c0,0.2432,0.0459,0.4717,0.1377,0.6846
				c0.0918,0.2139,0.2168,0.3994,0.375,0.5576c0.1572,0.1572,0.3428,0.2822,0.5566,0.374c0.2139,0.0928,0.4424,0.1387,0.6855,0.1387
				h0.8086c0.2432,0,0.4707-0.0459,0.6846-0.1387c0.2139-0.0918,0.3994-0.2168,0.5576-0.374
				c0.1572-0.1582,0.2822-0.3438,0.374-0.5576c0.0928-0.2129,0.1387-0.4414,0.1387-0.6846v-0.6709l1.2129,0.1973v0.4043
				C280.5544,26.2747,280.4763,26.6594,280.322,27.0208z M279.3415,21.2434c0-0.2432-0.0459-0.4717-0.1387-0.6855
				c-0.0918-0.2129-0.2168-0.3994-0.374-0.5566c-0.1582-0.1582-0.3438-0.2822-0.5576-0.375
				c-0.2139-0.0918-0.4414-0.1377-0.6846-0.1377h-0.8086c-0.2432,0-0.4717,0.0459-0.6855,0.1377
				c-0.2139,0.0928-0.3994,0.2168-0.5566,0.375c-0.1582,0.1572-0.2832,0.3438-0.375,0.5566
				c-0.0918,0.2139-0.1377,0.4424-0.1377,0.6855v1.499h4.3184V21.2434z"/>
			<path d="M289.9196,26.0745c0,0.4072-0.082,0.7803-0.2461,1.1191s-0.3877,0.6289-0.6699,0.8721
				c-0.2832,0.2441-0.6104,0.4326-0.9814,0.5674s-0.7607,0.2021-1.168,0.2021h-0.8086c-0.4082,0-0.7979-0.0771-1.1689-0.2314
				s-0.6963-0.3662-0.9756-0.6367c-0.2793-0.2686-0.5029-0.585-0.6709-0.9463c-0.167-0.3613-0.251-0.7461-0.251-1.1533v-0.4043
				l1.2129-0.1973v0.6709c0,0.2432,0.0508,0.4717,0.1523,0.6846c0.1016,0.2139,0.2383,0.3994,0.4092,0.5576
				c0.1709,0.1572,0.3682,0.2822,0.5918,0.374c0.2236,0.0928,0.457,0.1387,0.7002,0.1387h0.8086
				c0.2422,0,0.4756-0.0361,0.6992-0.1084s0.4229-0.1758,0.5967-0.3105s0.3125-0.2979,0.4141-0.4883
				c0.1025-0.1904,0.1533-0.4072,0.1533-0.6504c0-0.3613-0.0791-0.6572-0.2373-0.8877c-0.1572-0.2305-0.3662-0.4219-0.626-0.5771
				c-0.2598-0.1543-0.5557-0.2822-0.8867-0.3838c-0.332-0.1025-0.6729-0.2041-1.0205-0.3057
				c-0.3486-0.1025-0.6885-0.2188-1.0205-0.3506c-0.332-0.1309-0.6279-0.3037-0.8877-0.5176
				c-0.2598-0.2129-0.4678-0.4814-0.626-0.8037c-0.1572-0.3213-0.2363-0.7227-0.2363-1.2021c0-0.4082,0.0791-0.7813,0.2363-1.1191
				c0.1582-0.3389,0.3711-0.6299,0.6406-0.873s0.584-0.4316,0.9414-0.5664c0.3584-0.1348,0.7412-0.2021,1.1494-0.2021h0.71
				c0.4072,0,0.792,0.0771,1.1533,0.2314s0.6768,0.3662,0.9463,0.6357s0.4814,0.585,0.6357,0.9463
				c0.1543,0.3623,0.2314,0.7461,0.2314,1.1543v0.0391l-1.2119,0.1973v-0.3057c0-0.2432-0.0469-0.4717-0.1387-0.6855
				c-0.0918-0.2129-0.2168-0.3994-0.374-0.5566c-0.1582-0.1582-0.3438-0.2822-0.5576-0.375
				c-0.2139-0.0918-0.4424-0.1377-0.6846-0.1377h-0.71c-0.2432,0-0.4717,0.0361-0.6855,0.1084s-0.3994,0.1758-0.5566,0.3105
				c-0.1582,0.1348-0.2832,0.2979-0.375,0.4883s-0.1377,0.4072-0.1377,0.6504c0,0.3486,0.0781,0.6328,0.2363,0.8525
				c0.1572,0.2207,0.3662,0.4063,0.626,0.5576s0.5557,0.2773,0.8877,0.3789c0.3311,0.1025,0.6699,0.207,1.0146,0.3164
				c0.3457,0.1084,0.6836,0.2314,1.0156,0.3691s0.6279,0.3154,0.8877,0.5322s0.4688,0.4883,0.626,0.8135
				C289.8415,25.1917,289.9196,25.595,289.9196,26.0745z"/>
			<path d="M295.9245,28.6379c-0.3682,0-0.7148-0.0693-1.04-0.207c-0.3262-0.1377-0.6084-0.3281-0.8486-0.5723
				c-0.2402-0.2432-0.4307-0.5254-0.5713-0.8477c-0.1416-0.3223-0.2119-0.667-0.2119-1.0352v-6.2803h-1.8145v-1.1533h1.8145v-2.4258
				l1.2119-0.1973v2.623h2.5635v1.1533h-2.5635v6.3398c0,0.2031,0.0381,0.3926,0.1143,0.5664
				c0.0752,0.1748,0.1787,0.3271,0.3105,0.459c0.1309,0.1309,0.2852,0.2344,0.4629,0.3105
				c0.1777,0.0752,0.3682,0.1133,0.5723,0.1133h1.1035v1.1533H295.9245z"/>
			<path d="M299.5632,16.1165v-1.6172h1.4102v1.6172H299.5632z M299.6618,28.6379V18.5422h1.2129v10.0957H299.6618z"/>
			<path d="M310.3142,31.0335c-0.1543,0.3418-0.3662,0.6348-0.6357,0.8779s-0.585,0.4316-0.9463,0.5664
				s-0.7461,0.2021-1.1533,0.2021h-0.5029c-0.4082,0-0.792-0.0674-1.1543-0.2021c-0.3613-0.1348-0.6768-0.3232-0.9463-0.5664
				s-0.4814-0.5361-0.6357-0.8779s-0.2314-0.7158-0.2314-1.124v-0.0391c0-0.3945,0.0723-0.7559,0.2168-1.085
				c0.1445-0.3281,0.3418-0.6143,0.5918-0.8574c-0.3154-0.1904-0.5674-0.4482-0.7549-0.7734
				c-0.1875-0.3262-0.2803-0.6855-0.2803-1.0801c0-0.3545,0.0752-0.6855,0.2266-0.9912s0.3584-0.5537,0.6211-0.7441
				c-0.3154-0.2764-0.5654-0.6074-0.749-0.9961c-0.1846-0.3877-0.2764-0.8115-0.2764-1.2715v-0.7588
				c0-0.4082,0.0771-0.792,0.2314-1.1543c0.1543-0.3613,0.3662-0.6768,0.6357-0.9463s0.585-0.4814,0.9463-0.6357
				c0.3623-0.1543,0.7461-0.2314,1.1543-0.2314h0.5029c0.4922,0,0.9473,0.1104,1.3652,0.3301
				c0.417,0.2207,0.7637,0.5176,1.04,0.8926l0.6602-1.0254h0.4043v3.5293c0,0.4072-0.0771,0.792-0.2314,1.1533
				c-0.1543,0.3623-0.3662,0.6777-0.6357,0.9463c-0.2695,0.2705-0.585,0.4824-0.9463,0.6367s-0.7461,0.2314-1.1533,0.2314h-1.7559
				c-0.1377,0-0.2695,0.0283-0.3936,0.084c-0.125,0.0557-0.2354,0.1299-0.3311,0.2217c-0.0947,0.0918-0.1689,0.2021-0.2217,0.3301
				s-0.0791,0.2617-0.0791,0.3994s0.0264,0.2695,0.0791,0.3945s0.127,0.2354,0.2217,0.3301
				c0.0957,0.0957,0.2061,0.1689,0.3311,0.2217c0.124,0.0527,0.2559,0.0791,0.3936,0.0791h1.6572
				c0.4072,0,0.792,0.0674,1.1533,0.2021s0.6768,0.3242,0.9463,0.5674s0.4814,0.5352,0.6357,0.877s0.2314,0.7168,0.2314,1.124
				v0.0391C310.5456,30.3176,310.4685,30.6917,310.3142,31.0335z M309.4421,21.2434c0-0.2432-0.0459-0.4717-0.1387-0.6855
				c-0.0918-0.2129-0.2178-0.3994-0.3789-0.5566c-0.1611-0.1582-0.3486-0.2822-0.5625-0.375
				c-0.2139-0.0918-0.4424-0.1377-0.6846-0.1377h-1.0059c-0.2432,0-0.4717,0.0459-0.6855,0.1377
				c-0.2139,0.0928-0.3994,0.2168-0.5566,0.375c-0.1582,0.1572-0.2832,0.3438-0.375,0.5566
				c-0.0918,0.2139-0.1377,0.4424-0.1377,0.6855v0.8975c0,0.2432,0.0459,0.4717,0.1377,0.6846
				c0.0918,0.2139,0.2168,0.3994,0.375,0.5576c0.1572,0.1572,0.3428,0.2822,0.5566,0.374c0.2139,0.0928,0.4424,0.1387,0.6855,0.1387
				h1.0059c0.2422,0,0.4707-0.0459,0.6846-0.1387c0.2139-0.0918,0.4014-0.2168,0.5625-0.374
				c0.1611-0.1582,0.2871-0.3438,0.3789-0.5576c0.0928-0.2129,0.1387-0.4414,0.1387-0.6846V21.2434z M309.3923,29.8108
				c0-0.2432-0.0459-0.4619-0.1377-0.6553c-0.0918-0.1943-0.2168-0.3564-0.375-0.4883c-0.1572-0.1309-0.3438-0.2334-0.5566-0.3057
				c-0.2139-0.0723-0.4424-0.1084-0.6855-0.1084h-0.6211c-0.2432,0-0.4717,0.0361-0.6855,0.1084
				c-0.2129,0.0723-0.3984,0.1748-0.5566,0.3057c-0.1582,0.1318-0.2822,0.2939-0.375,0.4883
				c-0.0918,0.1934-0.1377,0.4121-0.1377,0.6553v0.1582c0,0.2432,0.0459,0.46,0.1377,0.6504
				c0.0928,0.1904,0.2168,0.3535,0.375,0.4883s0.3438,0.2383,0.5566,0.3105c0.2139,0.0723,0.4424,0.1084,0.6855,0.1084h0.6211
				c0.2432,0,0.4717-0.0361,0.6855-0.1084c0.2129-0.0723,0.3994-0.1758,0.5566-0.3105c0.1582-0.1348,0.2832-0.2979,0.375-0.4883
				s0.1377-0.4072,0.1377-0.6504V29.8108z"/>
			<path d="M319.2126,28.6379l-0.6709-1.0059c-0.2764,0.3613-0.6211,0.6523-1.0352,0.873
				c-0.4141,0.2197-0.8672,0.3301-1.3604,0.3301h-0.3057c-0.4082,0-0.792-0.0771-1.1543-0.2314
				c-0.3613-0.1543-0.6768-0.3662-0.9463-0.6367c-0.2695-0.2686-0.4814-0.585-0.6357-0.9463s-0.2314-0.7461-0.2314-1.1533v-0.0986
				c0-0.4072,0.0771-0.792,0.2314-1.1533s0.3662-0.6768,0.6357-0.9463s0.585-0.4814,0.9463-0.6367
				c0.3623-0.1543,0.7461-0.2314,1.1543-0.2314h2.5635v-1.5576c0-0.2432-0.0459-0.4717-0.1387-0.6855
				c-0.0918-0.2129-0.2168-0.3994-0.374-0.5566c-0.1582-0.1582-0.3438-0.2822-0.5576-0.375
				c-0.2139-0.0918-0.4414-0.1377-0.6846-0.1377h-0.71c-0.2432,0-0.4717,0.0459-0.6855,0.1377
				c-0.2139,0.0928-0.3994,0.2168-0.5566,0.375c-0.1582,0.1572-0.2832,0.3438-0.375,0.5566
				c-0.0918,0.2139-0.1377,0.4424-0.1377,0.6855v0.3652l-1.2129-0.1973v-0.0986c0-0.4082,0.0771-0.792,0.2314-1.1543
				c0.1543-0.3613,0.3662-0.6768,0.6357-0.9463s0.585-0.4814,0.9463-0.6357c0.3623-0.1543,0.7461-0.2314,1.1543-0.2314h0.71
				c0.4072,0,0.792,0.0771,1.1533,0.2314s0.6768,0.3662,0.9463,0.6357s0.4814,0.585,0.6357,0.9463
				c0.1543,0.3623,0.2324,0.7461,0.2324,1.1543v7.3252H319.2126z M318.404,23.7473h-2.5635c-0.2432,0-0.4717,0.0469-0.6855,0.1387
				s-0.3994,0.2188-0.5566,0.3789c-0.1582,0.1611-0.2832,0.3486-0.375,0.5625s-0.1377,0.4424-0.1377,0.6855v0.4238
				c0,0.2432,0.0459,0.4717,0.1377,0.6846c0.0918,0.2139,0.2168,0.3994,0.375,0.5576c0.1572,0.1572,0.3428,0.2822,0.5566,0.374
				c0.2139,0.0928,0.4424,0.1387,0.6855,0.1387h0.8086c0.2432,0,0.4707-0.0459,0.6846-0.1387
				c0.2139-0.0918,0.3994-0.2168,0.5576-0.374c0.1572-0.1582,0.2822-0.3438,0.374-0.5576c0.0928-0.2129,0.1387-0.4414,0.1387-0.6846
				V23.7473z"/>
			<path d="M328.5544,27.0208c-0.1543,0.3613-0.3662,0.6777-0.6357,0.9463c-0.2695,0.2705-0.585,0.4824-0.9463,0.6367
				s-0.7461,0.2314-1.1533,0.2314h-0.8086c-0.4082,0-0.792-0.0771-1.1543-0.2314c-0.3613-0.1543-0.6768-0.3662-0.9463-0.6367
				c-0.2695-0.2686-0.4814-0.585-0.6357-0.9463s-0.2314-0.7461-0.2314-1.1533v-4.5547c0-0.4082,0.0771-0.792,0.2314-1.1543
				c0.1543-0.3613,0.3662-0.6768,0.6357-0.9463s0.585-0.4814,0.9463-0.6357c0.3623-0.1543,0.7461-0.2314,1.1543-0.2314h0.8086
				c0.4072,0,0.792,0.0771,1.1533,0.2314s0.6768,0.3662,0.9463,0.6357s0.4814,0.585,0.6357,0.9463
				c0.1543,0.3623,0.2324,0.7461,0.2324,1.1543v0.4043l-1.2129,0.1963v-0.6699c0-0.2432-0.0459-0.4717-0.1387-0.6855
				c-0.0918-0.2129-0.2168-0.3994-0.374-0.5566c-0.1582-0.1582-0.3438-0.2822-0.5576-0.375
				c-0.2139-0.0918-0.4414-0.1377-0.6846-0.1377h-0.8086c-0.2432,0-0.4717,0.0459-0.6855,0.1377
				c-0.2139,0.0928-0.3994,0.2168-0.5566,0.375c-0.1582,0.1572-0.2832,0.3438-0.375,0.5566
				c-0.0918,0.2139-0.1377,0.4424-0.1377,0.6855v4.6934c0,0.2432,0.0459,0.4717,0.1377,0.6846
				c0.0918,0.2139,0.2168,0.3994,0.375,0.5576c0.1572,0.1572,0.3428,0.2822,0.5566,0.374c0.2139,0.0928,0.4424,0.1387,0.6855,0.1387
				h0.8086c0.2432,0,0.4707-0.0459,0.6846-0.1387c0.2139-0.0918,0.3994-0.2168,0.5576-0.374
				c0.1572-0.1582,0.2822-0.3438,0.374-0.5576c0.0928-0.2129,0.1387-0.4414,0.1387-0.6846v-0.6709l1.2129,0.1973v0.4043
				C328.7868,26.2747,328.7087,26.6594,328.5544,27.0208z"/>
			<path d="M331.5173,16.1165v-1.6172h1.4102v1.6172H331.5173z M331.6159,28.6379V18.5422h1.2129v10.0957H331.6159z"/>
			<path d="M342.1696,27.0208c-0.1543,0.3613-0.3662,0.6777-0.6357,0.9463c-0.2695,0.2705-0.585,0.4824-0.9463,0.6367
				s-0.7461,0.2314-1.1533,0.2314h-0.8086c-0.4082,0-0.792-0.0771-1.1543-0.2314c-0.3613-0.1543-0.6768-0.3662-0.9463-0.6367
				c-0.2695-0.2686-0.4814-0.585-0.6357-0.9463s-0.2314-0.7461-0.2314-1.1533v-4.5547c0-0.4082,0.0771-0.792,0.2314-1.1543
				c0.1543-0.3613,0.3662-0.6768,0.6357-0.9463s0.585-0.4814,0.9463-0.6357c0.3623-0.1543,0.7461-0.2314,1.1543-0.2314h0.8086
				c0.4072,0,0.792,0.0771,1.1533,0.2314s0.6768,0.3662,0.9463,0.6357s0.4814,0.585,0.6357,0.9463
				c0.1543,0.3623,0.2324,0.7461,0.2324,1.1543v4.5547C342.4021,26.2747,342.3239,26.6594,342.1696,27.0208z M341.1892,21.2434
				c0-0.2432-0.0459-0.4717-0.1387-0.6855c-0.0918-0.2129-0.2168-0.3994-0.374-0.5566c-0.1582-0.1582-0.3438-0.2822-0.5576-0.375
				c-0.2139-0.0918-0.4414-0.1377-0.6846-0.1377h-0.8086c-0.2432,0-0.4717,0.0459-0.6855,0.1377
				c-0.2139,0.0928-0.3994,0.2168-0.5566,0.375c-0.1582,0.1572-0.2832,0.3438-0.375,0.5566
				c-0.0918,0.2139-0.1377,0.4424-0.1377,0.6855v4.6934c0,0.2432,0.0459,0.4717,0.1377,0.6846
				c0.0918,0.2139,0.2168,0.3994,0.375,0.5576c0.1572,0.1572,0.3428,0.2822,0.5566,0.374c0.2139,0.0928,0.4424,0.1387,0.6855,0.1387
				h0.8086c0.2432,0,0.4707-0.0459,0.6846-0.1387c0.2139-0.0918,0.3994-0.2168,0.5576-0.374
				c0.1572-0.1582,0.2822-0.3438,0.374-0.5576c0.0928-0.2129,0.1387-0.4414,0.1387-0.6846V21.2434z M338.5271,16.9251h-0.9072
				l1.6074-2.4258h2.0205L338.5271,16.9251z"/>
			<path d="M350.3581,28.6379v-7.3945c0-0.2432-0.0459-0.4717-0.1387-0.6855c-0.0918-0.2129-0.2168-0.3994-0.374-0.5566
				c-0.1582-0.1582-0.3438-0.2822-0.5576-0.375c-0.2139-0.0918-0.4414-0.1377-0.6846-0.1377h-0.8086
				c-0.2432,0-0.4717,0.0459-0.6855,0.1377c-0.2139,0.0928-0.3994,0.2168-0.5566,0.375c-0.1582,0.1572-0.2832,0.3438-0.375,0.5566
				c-0.0918,0.2139-0.1377,0.4424-0.1377,0.6855v7.3945h-1.2129V18.5422h0.4043l0.6602,1.0254
				c0.2764-0.375,0.623-0.6719,1.04-0.8926c0.418-0.2197,0.873-0.3301,1.3662-0.3301h0.3057c0.4072,0,0.792,0.0771,1.1533,0.2314
				s0.6768,0.3662,0.9463,0.6357s0.4814,0.585,0.6357,0.9463c0.1543,0.3623,0.2324,0.7461,0.2324,1.1543v7.3252H350.3581z"/>
		</g>
	</g>
	<g>
		
			<rect x="458.1706" y="-59.3185" transform="matrix(6.123234e-17 -1 1 6.123234e-17 458.1706 501.9514)" style="fill:#CED3D6;" width="43.7808" height="162.4179"/>
		
			<rect x="461.2719" y="-55.1555" transform="matrix(6.123234e-17 -1 1 6.123234e-17 458.1706 501.9514)" style="fill:#FFFFFF;" width="37.5782" height="154.0917"/>
		
			<rect x="463.2986" y="-52.3702" transform="matrix(6.123234e-17 -1 1 6.123234e-17 458.1706 501.9514)" style="fill:#DD4E31;" width="33.5249" height="148.5213"/>
		<g>
			<path style="fill:#FFFFFF;" d="M442.3279,26.7151c-0.1816,0.4209-0.4297,0.7891-0.7451,1.1045s-0.6836,0.5635-1.1035,0.7441
				c-0.4209,0.1807-0.8711,0.2715-1.3516,0.2715h-1.0049c-0.4805,0-0.9316-0.0908-1.3564-0.2715
				c-0.4238-0.1807-0.793-0.4287-1.1084-0.7441s-0.5645-0.6836-0.7451-1.1045c-0.1807-0.4199-0.2705-0.8701-0.2705-1.3506v-7.5918
				c0-0.4795,0.0898-0.9297,0.2705-1.3506s0.4297-0.7891,0.7451-1.1045s0.6846-0.5635,1.1084-0.7441
				c0.4248-0.1807,0.876-0.2715,1.3564-0.2715h1.0049c0.4805,0,0.9307,0.0908,1.3516,0.2715
				c0.4199,0.1807,0.7881,0.4287,1.1035,0.7441s0.5635,0.6836,0.7451,1.1045c0.1807,0.4209,0.2705,0.8711,0.2705,1.3506v7.5918
				C442.5984,25.845,442.5085,26.2952,442.3279,26.7151z M441.3269,17.7727c0-0.3154-0.0596-0.6094-0.1777-0.8818
				c-0.1182-0.2734-0.2793-0.5117-0.4834-0.7148c-0.2031-0.2041-0.4414-0.3652-0.7148-0.4834
				c-0.2725-0.1182-0.5664-0.1777-0.8818-0.1777h-0.8877c-0.3154,0-0.6094,0.0596-0.8818,0.1777
				c-0.2734,0.1182-0.5127,0.2793-0.7197,0.4834c-0.207,0.2031-0.3701,0.4414-0.4883,0.7148
				c-0.1182,0.2725-0.1777,0.5664-0.1777,0.8818v7.5918c0,0.3154,0.0596,0.6094,0.1777,0.8828
				c0.1182,0.2725,0.2813,0.5127,0.4883,0.7197s0.4463,0.3691,0.7197,0.4873c0.2725,0.1191,0.5664,0.1777,0.8818,0.1777h0.8877
				c0.3154,0,0.6094-0.0586,0.8818-0.1777c0.2734-0.1182,0.5117-0.2803,0.7148-0.4873c0.2041-0.207,0.3652-0.4473,0.4834-0.7197
				c0.1182-0.2734,0.1777-0.5674,0.1777-0.8828V17.7727z"/>
			<path style="fill:#FFFFFF;" d="M451.7429,27.0208c-0.1543,0.3613-0.3662,0.6777-0.6357,0.9463
				c-0.2695,0.2705-0.585,0.4824-0.9463,0.6367s-0.7461,0.2314-1.1533,0.2314h-0.8086c-0.4082,0-0.792-0.0771-1.1543-0.2314
				c-0.3613-0.1543-0.6768-0.3662-0.9463-0.6367c-0.2695-0.2686-0.4814-0.585-0.6357-0.9463s-0.2314-0.7461-0.2314-1.1533V14.4993
				h1.2129v4.8906c0.2754-0.3291,0.6074-0.585,0.9951-0.7695c0.3877-0.1836,0.8086-0.2754,1.2627-0.2754h0.3057
				c0.4072,0,0.792,0.0771,1.1533,0.2314s0.6768,0.3662,0.9463,0.6357s0.4814,0.585,0.6357,0.9463
				c0.1543,0.3623,0.2324,0.7461,0.2324,1.1543v4.5547C451.9753,26.2747,451.8972,26.6594,451.7429,27.0208z M450.7624,21.2434
				c0-0.2432-0.0459-0.4717-0.1387-0.6855c-0.0918-0.2129-0.2168-0.3994-0.374-0.5566c-0.1582-0.1582-0.3438-0.2822-0.5576-0.375
				c-0.2139-0.0918-0.4414-0.1377-0.6846-0.1377h-0.8086c-0.2432,0-0.4717,0.0459-0.6855,0.1377
				c-0.2139,0.0928-0.3994,0.2168-0.5566,0.375c-0.1582,0.1572-0.2832,0.3438-0.375,0.5566
				c-0.0918,0.2139-0.1377,0.4424-0.1377,0.6855v4.6934c0,0.2432,0.0459,0.4717,0.1377,0.6846
				c0.0918,0.2139,0.2168,0.3994,0.375,0.5576c0.1572,0.1572,0.3428,0.2822,0.5566,0.374c0.2139,0.0928,0.4424,0.1387,0.6855,0.1387
				h0.8086c0.2432,0,0.4707-0.0459,0.6846-0.1387c0.2139-0.0918,0.3994-0.2168,0.5576-0.374
				c0.1572-0.1582,0.2822-0.3438,0.374-0.5576c0.0928-0.2129,0.1387-0.4414,0.1387-0.6846V21.2434z"/>
			<path style="fill:#FFFFFF;" d="M461.3405,26.0745c0,0.4072-0.082,0.7803-0.2461,1.1191s-0.3877,0.6289-0.6699,0.8721
				c-0.2832,0.2441-0.6104,0.4326-0.9814,0.5674s-0.7607,0.2021-1.168,0.2021h-0.8086c-0.4082,0-0.7979-0.0771-1.1689-0.2314
				s-0.6963-0.3662-0.9756-0.6367c-0.2793-0.2686-0.5029-0.585-0.6709-0.9463c-0.167-0.3613-0.251-0.7461-0.251-1.1533v-0.4043
				l1.2129-0.1973v0.6709c0,0.2432,0.0508,0.4717,0.1523,0.6846c0.1016,0.2139,0.2383,0.3994,0.4092,0.5576
				c0.1709,0.1572,0.3682,0.2822,0.5918,0.374c0.2236,0.0928,0.457,0.1387,0.7002,0.1387h0.8086
				c0.2422,0,0.4756-0.0361,0.6992-0.1084s0.4229-0.1758,0.5967-0.3105s0.3125-0.2979,0.4141-0.4883
				c0.1025-0.1904,0.1533-0.4072,0.1533-0.6504c0-0.3613-0.0791-0.6572-0.2373-0.8877c-0.1572-0.2305-0.3662-0.4219-0.626-0.5771
				c-0.2598-0.1543-0.5557-0.2822-0.8867-0.3838c-0.332-0.1025-0.6729-0.2041-1.0205-0.3057
				c-0.3486-0.1025-0.6885-0.2188-1.0205-0.3506c-0.332-0.1309-0.6279-0.3037-0.8877-0.5176
				c-0.2598-0.2129-0.4678-0.4814-0.626-0.8037c-0.1572-0.3213-0.2363-0.7227-0.2363-1.2021c0-0.4082,0.0791-0.7813,0.2363-1.1191
				c0.1582-0.3389,0.3711-0.6299,0.6406-0.873s0.584-0.4316,0.9414-0.5664c0.3584-0.1348,0.7412-0.2021,1.1494-0.2021h0.71
				c0.4072,0,0.792,0.0771,1.1533,0.2314s0.6768,0.3662,0.9463,0.6357s0.4814,0.585,0.6357,0.9463
				c0.1543,0.3623,0.2314,0.7461,0.2314,1.1543v0.0391l-1.2119,0.1973v-0.3057c0-0.2432-0.0469-0.4717-0.1387-0.6855
				c-0.0918-0.2129-0.2168-0.3994-0.374-0.5566c-0.1582-0.1582-0.3438-0.2822-0.5576-0.375
				c-0.2139-0.0918-0.4424-0.1377-0.6846-0.1377h-0.71c-0.2432,0-0.4717,0.0361-0.6855,0.1084s-0.3994,0.1758-0.5566,0.3105
				c-0.1582,0.1348-0.2832,0.2979-0.375,0.4883s-0.1377,0.4072-0.1377,0.6504c0,0.3486,0.0781,0.6328,0.2363,0.8525
				c0.1572,0.2207,0.3662,0.4063,0.626,0.5576s0.5557,0.2773,0.8877,0.3789c0.3311,0.1025,0.6699,0.207,1.0146,0.3164
				c0.3457,0.1084,0.6836,0.2314,1.0156,0.3691s0.6279,0.3154,0.8877,0.5322s0.4688,0.4883,0.626,0.8135
				C461.2624,25.1917,461.3405,25.595,461.3405,26.0745z"/>
			<path style="fill:#FFFFFF;" d="M470.1804,27.0208c-0.1543,0.3613-0.3662,0.6777-0.6357,0.9463
				c-0.2695,0.2705-0.585,0.4824-0.9463,0.6367s-0.7461,0.2314-1.1533,0.2314h-0.8086c-0.4082,0-0.792-0.0771-1.1543-0.2314
				c-0.3613-0.1543-0.6768-0.3662-0.9463-0.6367c-0.2695-0.2686-0.4814-0.585-0.6357-0.9463s-0.2314-0.7461-0.2314-1.1533v-4.5547
				c0-0.4082,0.0771-0.792,0.2314-1.1543c0.1543-0.3613,0.3662-0.6768,0.6357-0.9463s0.585-0.4814,0.9463-0.6357
				c0.3623-0.1543,0.7461-0.2314,1.1543-0.2314h0.8086c0.4072,0,0.792,0.0771,1.1533,0.2314s0.6768,0.3662,0.9463,0.6357
				s0.4814,0.585,0.6357,0.9463c0.1543,0.3623,0.2324,0.7461,0.2324,1.1543v2.376h-5.5313v2.248
				c0,0.2432,0.0459,0.4717,0.1377,0.6846c0.0918,0.2139,0.2168,0.3994,0.375,0.5576c0.1572,0.1572,0.3428,0.2822,0.5566,0.374
				c0.2139,0.0928,0.4424,0.1387,0.6855,0.1387h0.8086c0.2432,0,0.4707-0.0459,0.6846-0.1387
				c0.2139-0.0918,0.3994-0.2168,0.5576-0.374c0.1572-0.1582,0.2822-0.3438,0.374-0.5576c0.0928-0.2129,0.1387-0.4414,0.1387-0.6846
				v-0.6709l1.2129,0.1973v0.4043C470.4128,26.2747,470.3347,26.6594,470.1804,27.0208z M469.1999,21.2434
				c0-0.2432-0.0459-0.4717-0.1387-0.6855c-0.0918-0.2129-0.2168-0.3994-0.374-0.5566c-0.1582-0.1582-0.3438-0.2822-0.5576-0.375
				c-0.2139-0.0918-0.4414-0.1377-0.6846-0.1377h-0.8086c-0.2432,0-0.4717,0.0459-0.6855,0.1377
				c-0.2139,0.0928-0.3994,0.2168-0.5566,0.375c-0.1582,0.1572-0.2832,0.3438-0.375,0.5566
				c-0.0918,0.2139-0.1377,0.4424-0.1377,0.6855v1.499h4.3184V21.2434z"/>
			<path style="fill:#FFFFFF;" d="M475.8054,19.6956c-0.2432,0-0.4717,0.0459-0.6855,0.1377
				c-0.2139,0.0928-0.3994,0.2168-0.5566,0.375c-0.1582,0.1572-0.2832,0.3438-0.375,0.5566
				c-0.0918,0.2139-0.1377,0.4424-0.1377,0.6855v7.1875h-1.2129V18.5422h0.4043l0.6602,1.0254
				c0.2764-0.375,0.623-0.6719,1.04-0.8926c0.418-0.2197,0.873-0.3301,1.3662-0.3301h0.71v1.3506H475.8054z"/>
			<path style="fill:#FFFFFF;" d="M481.7995,28.6379h-0.6016l-3.5791-10.0957h1.2129l2.6318,7.6504l0.04,0.5225l0.0391-0.5225
				l2.623-7.6504h1.2129L481.7995,28.6379z"/>
			<path style="fill:#FFFFFF;" d="M493.1286,28.6379l-0.6709-1.0059c-0.2764,0.3613-0.6211,0.6523-1.0352,0.873
				c-0.4141,0.2197-0.8672,0.3301-1.3604,0.3301h-0.3057c-0.4082,0-0.792-0.0771-1.1543-0.2314
				c-0.3613-0.1543-0.6768-0.3662-0.9463-0.6367c-0.2695-0.2686-0.4814-0.585-0.6357-0.9463s-0.2314-0.7461-0.2314-1.1533v-0.0986
				c0-0.4072,0.0771-0.792,0.2314-1.1533s0.3662-0.6768,0.6357-0.9463s0.585-0.4814,0.9463-0.6367
				c0.3623-0.1543,0.7461-0.2314,1.1543-0.2314h2.5635v-1.5576c0-0.2432-0.0459-0.4717-0.1387-0.6855
				c-0.0918-0.2129-0.2168-0.3994-0.374-0.5566c-0.1582-0.1582-0.3438-0.2822-0.5576-0.375
				c-0.2139-0.0918-0.4414-0.1377-0.6846-0.1377h-0.71c-0.2432,0-0.4717,0.0459-0.6855,0.1377
				c-0.2139,0.0928-0.3994,0.2168-0.5566,0.375c-0.1582,0.1572-0.2832,0.3438-0.375,0.5566
				c-0.0918,0.2139-0.1377,0.4424-0.1377,0.6855v0.3652l-1.2129-0.1973v-0.0986c0-0.4082,0.0771-0.792,0.2314-1.1543
				c0.1543-0.3613,0.3662-0.6768,0.6357-0.9463s0.585-0.4814,0.9463-0.6357c0.3623-0.1543,0.7461-0.2314,1.1543-0.2314h0.71
				c0.4072,0,0.792,0.0771,1.1533,0.2314s0.6768,0.3662,0.9463,0.6357s0.4814,0.585,0.6357,0.9463
				c0.1543,0.3623,0.2324,0.7461,0.2324,1.1543v7.3252H493.1286z M492.32,23.7473h-2.5635c-0.2432,0-0.4717,0.0469-0.6855,0.1387
				s-0.3994,0.2188-0.5566,0.3789c-0.1582,0.1611-0.2832,0.3486-0.375,0.5625s-0.1377,0.4424-0.1377,0.6855v0.4238
				c0,0.2432,0.0459,0.4717,0.1377,0.6846c0.0918,0.2139,0.2168,0.3994,0.375,0.5576c0.1572,0.1572,0.3428,0.2822,0.5566,0.374
				c0.2139,0.0928,0.4424,0.1387,0.6855,0.1387h0.8086c0.2432,0,0.4707-0.0459,0.6846-0.1387
				c0.2139-0.0918,0.3994-0.2168,0.5576-0.374c0.1572-0.1582,0.2822-0.3438,0.374-0.5576c0.0928-0.2129,0.1387-0.4414,0.1387-0.6846
				V23.7473z"/>
			<path style="fill:#FFFFFF;" d="M502.4695,27.0208c-0.1543,0.3613-0.3662,0.6777-0.6357,0.9463
				c-0.2695,0.2705-0.585,0.4824-0.9463,0.6367s-0.7461,0.2314-1.1533,0.2314h-0.8086c-0.4082,0-0.792-0.0771-1.1543-0.2314
				c-0.3613-0.1543-0.6768-0.3662-0.9463-0.6367c-0.2695-0.2686-0.4814-0.585-0.6357-0.9463s-0.2314-0.7461-0.2314-1.1533v-4.5547
				c0-0.4082,0.0771-0.792,0.2314-1.1543c0.1543-0.3613,0.3662-0.6768,0.6357-0.9463s0.585-0.4814,0.9463-0.6357
				c0.3623-0.1543,0.7461-0.2314,1.1543-0.2314h0.8086c0.4072,0,0.792,0.0771,1.1533,0.2314s0.6768,0.3662,0.9463,0.6357
				s0.4814,0.585,0.6357,0.9463c0.1543,0.3623,0.2324,0.7461,0.2324,1.1543v0.4043l-1.2129,0.1963v-0.6699
				c0-0.2432-0.0459-0.4717-0.1387-0.6855c-0.0918-0.2129-0.2168-0.3994-0.374-0.5566c-0.1582-0.1582-0.3438-0.2822-0.5576-0.375
				c-0.2139-0.0918-0.4414-0.1377-0.6846-0.1377h-0.8086c-0.2432,0-0.4717,0.0459-0.6855,0.1377
				c-0.2139,0.0928-0.3994,0.2168-0.5566,0.375c-0.1582,0.1572-0.2832,0.3438-0.375,0.5566
				c-0.0918,0.2139-0.1377,0.4424-0.1377,0.6855v4.6934c0,0.2432,0.0459,0.4717,0.1377,0.6846
				c0.0918,0.2139,0.2168,0.3994,0.375,0.5576c0.1572,0.1572,0.3428,0.2822,0.5566,0.374c0.2139,0.0928,0.4424,0.1387,0.6855,0.1387
				h0.8086c0.2432,0,0.4707-0.0459,0.6846-0.1387c0.2139-0.0918,0.3994-0.2168,0.5576-0.374
				c0.1572-0.1582,0.2822-0.3438,0.374-0.5576c0.0928-0.2129,0.1387-0.4414,0.1387-0.6846v-0.6709l1.2129,0.1973v0.4043
				C502.7019,26.2747,502.6237,26.6594,502.4695,27.0208z"/>
			<path style="fill:#FFFFFF;" d="M505.4333,16.1165v-1.6172h1.4102v1.6172H505.4333z M505.532,28.6379V18.5422h1.2129v10.0957
				H505.532z"/>
			<path style="fill:#FFFFFF;" d="M516.0857,27.0208c-0.1543,0.3613-0.3662,0.6777-0.6357,0.9463
				c-0.2695,0.2705-0.585,0.4824-0.9463,0.6367s-0.7461,0.2314-1.1533,0.2314h-0.8086c-0.4082,0-0.792-0.0771-1.1543-0.2314
				c-0.3613-0.1543-0.6768-0.3662-0.9463-0.6367c-0.2695-0.2686-0.4814-0.585-0.6357-0.9463s-0.2314-0.7461-0.2314-1.1533v-4.5547
				c0-0.4082,0.0771-0.792,0.2314-1.1543c0.1543-0.3613,0.3662-0.6768,0.6357-0.9463s0.585-0.4814,0.9463-0.6357
				c0.3623-0.1543,0.7461-0.2314,1.1543-0.2314h0.8086c0.4072,0,0.792,0.0771,1.1533,0.2314s0.6768,0.3662,0.9463,0.6357
				s0.4814,0.585,0.6357,0.9463c0.1543,0.3623,0.2324,0.7461,0.2324,1.1543v4.5547
				C516.3181,26.2747,516.24,26.6594,516.0857,27.0208z M515.1052,21.2434c0-0.2432-0.0459-0.4717-0.1387-0.6855
				c-0.0918-0.2129-0.2168-0.3994-0.374-0.5566c-0.1582-0.1582-0.3438-0.2822-0.5576-0.375
				c-0.2139-0.0918-0.4414-0.1377-0.6846-0.1377h-0.8086c-0.2432,0-0.4717,0.0459-0.6856,0.1377
				c-0.2139,0.0928-0.3994,0.2168-0.5566,0.375c-0.1582,0.1572-0.2832,0.3438-0.375,0.5566
				c-0.0918,0.2139-0.1377,0.4424-0.1377,0.6855v4.6934c0,0.2432,0.0459,0.4717,0.1377,0.6846
				c0.0918,0.2139,0.2168,0.3994,0.375,0.5576c0.1572,0.1572,0.3428,0.2822,0.5566,0.374c0.2139,0.0928,0.4424,0.1387,0.6856,0.1387
				h0.8086c0.2432,0,0.4707-0.0459,0.6846-0.1387c0.2139-0.0918,0.3994-0.2168,0.5576-0.374
				c0.1572-0.1582,0.2822-0.3438,0.374-0.5576c0.0928-0.2129,0.1387-0.4414,0.1387-0.6846V21.2434z M512.4431,16.9251h-0.9073
				l1.6075-2.4258h2.0205L512.4431,16.9251z"/>
			<path style="fill:#FFFFFF;" d="M524.2742,28.6379v-7.3945c0-0.2432-0.0459-0.4717-0.1387-0.6855
				c-0.0918-0.2129-0.2168-0.3994-0.374-0.5566c-0.1582-0.1582-0.3438-0.2822-0.5576-0.375
				c-0.2139-0.0918-0.4414-0.1377-0.6846-0.1377h-0.8086c-0.2432,0-0.4717,0.0459-0.6855,0.1377
				c-0.2139,0.0928-0.3994,0.2168-0.5566,0.375c-0.1582,0.1572-0.2832,0.3438-0.375,0.5566
				c-0.0918,0.2139-0.1377,0.4424-0.1377,0.6855v7.3945h-1.2129V18.5422h0.4043l0.6602,1.0254
				c0.2764-0.375,0.623-0.6719,1.04-0.8926c0.418-0.2197,0.873-0.3301,1.3662-0.3301h0.3057c0.4072,0,0.792,0.0771,1.1533,0.2314
				s0.6768,0.3662,0.9463,0.6357s0.4814,0.585,0.6357,0.9463c0.1543,0.3623,0.2324,0.7461,0.2324,1.1543v7.3252H524.2742z"/>
		</g>
	</g>
</g>
</svg>
