<?xml version="1.0" encoding="utf-8"?>
<!-- Generator: Adobe Illustrator 21.0.2, SVG Export Plug-In . SVG Version: 6.00 Build 0)  -->
<svg version="1.1" id="Capa_1" xmlns="http://www.w3.org/2000/svg" xmlns:xlink="http://www.w3.org/1999/xlink" x="0px" y="0px"
	 viewBox="0 0 413.625 112.3783" style="enable-background:new 0 0 413.625 112.3783;" xml:space="preserve">
<g>
	<polyline style="fill:none;stroke:#000000;stroke-miterlimit:10;stroke-dasharray:3,3;" points="27.6775,47.1349 206.0873,47.1349 
		206.0873,112.3783 	"/>
	
		<line style="fill:none;stroke:#000000;stroke-miterlimit:10;stroke-dasharray:3,3;" x1="27.6775" y1="47.1349" x2="27.6775" y2="109.2246"/>
	<g>
		<path d="M0,11.5156V0.0625h1.5156v10.1016h5.6406v1.3516H0z"/>
		<path d="M14.1953,10.4922c-0.521,0.4429-1.022,0.7554-1.5039,0.9375s-0.9985,0.2734-1.5508,0.2734
			c-0.9116,0-1.6118-0.2227-2.1016-0.668s-0.7344-1.0142-0.7344-1.707c0-0.4063,0.0923-0.7773,0.2773-1.1133
			s0.4272-0.6055,0.7266-0.8086s0.6367-0.3564,1.0117-0.4609c0.2759-0.0728,0.6929-0.1431,1.25-0.2109
			c1.1353-0.1353,1.9712-0.2969,2.5078-0.4844c0.0054-0.1924,0.0078-0.3149,0.0078-0.3672c0-0.5728-0.1328-0.9766-0.3984-1.2109
			c-0.3594-0.3174-0.8931-0.4766-1.6016-0.4766c-0.6616,0-1.1499,0.1162-1.4648,0.3477c-0.3149,0.2319-0.5483,0.6421-0.6992,1.2305
			l-1.375-0.1875c0.125-0.5884,0.3306-1.0635,0.6172-1.4258c0.2866-0.3618,0.7007-0.6406,1.2422-0.8359s1.1694-0.293,1.8828-0.293
			c0.7085,0,1.2837,0.0835,1.7266,0.25c0.4429,0.167,0.7681,0.3765,0.9766,0.6289c0.2085,0.2529,0.354,0.5718,0.4375,0.957
			C15.4766,5.1069,15.5,5.5391,15.5,6.1641v1.875c0,1.3076,0.0298,2.1343,0.0898,2.4805c0.0601,0.3467,0.1782,0.6787,0.3555,0.9961
			h-1.4688C14.3306,11.2241,14.2368,10.8828,14.1953,10.4922z M14.0781,7.3516c-0.5103,0.2085-1.2759,0.3857-2.2969,0.5313
			c-0.5781,0.0835-0.9868,0.1772-1.2266,0.2813C10.3149,8.2686,10.1304,8.4209,10,8.6211c-0.1304,0.2007-0.1953,0.4233-0.1953,0.668
			c0,0.375,0.1421,0.6875,0.4258,0.9375s0.6992,0.375,1.2461,0.375c0.5415,0,1.0234-0.1182,1.4453-0.3555
			c0.4219-0.2368,0.7319-0.561,0.9297-0.9727c0.1509-0.3174,0.2266-0.7861,0.2266-1.4063V7.3516z"/>
		<path d="M17.1172,9.0391l1.3906-0.2188c0.0781,0.5576,0.2954,0.9844,0.6523,1.2813s0.8555,0.4453,1.4961,0.4453
			c0.646,0,1.125-0.1313,1.4375-0.3945c0.3125-0.2627,0.4688-0.5713,0.4688-0.9258c0-0.3174-0.1382-0.5674-0.4141-0.75
			C21.9556,8.3516,21.4766,8.1929,20.7109,8c-1.0313-0.2603-1.7461-0.4854-2.1445-0.6758
			c-0.3984-0.1899-0.7007-0.4531-0.9063-0.7891s-0.3086-0.707-0.3086-1.1133c0-0.3696,0.0845-0.7119,0.2539-1.0273
			c0.1694-0.3149,0.3999-0.5767,0.6914-0.7852c0.2188-0.1611,0.5171-0.2979,0.8945-0.4102c0.3774-0.1118,0.7827-0.168,1.2148-0.168
			c0.6509,0,1.2227,0.0938,1.7148,0.2813s0.8555,0.4414,1.0898,0.7617s0.396,0.749,0.4844,1.2852l-1.375,0.1875
			c-0.0625-0.4268-0.2437-0.7603-0.543-1c-0.2993-0.2393-0.7227-0.3594-1.2695-0.3594c-0.646,0-1.1069,0.1069-1.3828,0.3203
			c-0.2759,0.2139-0.4141,0.4639-0.4141,0.75c0,0.1826,0.0571,0.3467,0.1719,0.4922c0.1147,0.1514,0.2944,0.2764,0.5391,0.375
			c0.1406,0.0522,0.5547,0.1719,1.2422,0.3594c0.9946,0.2656,1.689,0.4834,2.082,0.6523c0.3931,0.1694,0.7017,0.4155,0.9258,0.7383
			c0.2241,0.3232,0.3359,0.7241,0.3359,1.2031c0,0.4688-0.1367,0.9102-0.4102,1.3242s-0.668,0.7344-1.1836,0.9609
			s-1.0991,0.3398-1.75,0.3398c-1.0781,0-1.8999-0.2236-2.4648-0.6719C17.6343,10.5835,17.2734,9.9194,17.1172,9.0391z"/>
		<path d="M33.1953,10.2578L33.3984,11.5c-0.396,0.083-0.75,0.125-1.0625,0.125c-0.5103,0-0.9063-0.0811-1.1875-0.2422
			s-0.479-0.3735-0.5938-0.6367c-0.1147-0.2627-0.1719-0.8164-0.1719-1.6602V4.3125h-1.0313V3.2188h1.0313V1.1641l1.3984-0.8438
			v2.8984h1.4141v1.0938h-1.4141v4.8516c0,0.4014,0.0249,0.6592,0.0742,0.7734c0.0493,0.1147,0.1304,0.2061,0.2422,0.2734
			c0.1118,0.0679,0.272,0.1016,0.4805,0.1016C32.7344,10.3125,32.9399,10.2944,33.1953,10.2578z"/>
		<path d="M40.25,8.8438l1.4531,0.1797c-0.229,0.8491-0.6538,1.5078-1.2734,1.9766s-1.4116,0.7031-2.375,0.7031
			c-1.2134,0-2.1758-0.3735-2.8867-1.1211c-0.7109-0.7471-1.0664-1.7954-1.0664-3.1445c0-1.3955,0.3594-2.479,1.0781-3.25
			c0.7188-0.7705,1.6509-1.1563,2.7969-1.1563c1.1094,0,2.0156,0.3779,2.7188,1.1328C41.3984,4.9194,41.75,5.9819,41.75,7.3516
			c0,0.0835-0.0024,0.2085-0.0078,0.375h-6.1875c0.0522,0.9116,0.3101,1.6094,0.7734,2.0938s1.0415,0.7266,1.7344,0.7266
			c0.5156,0,0.9556-0.1353,1.3203-0.4063C39.7476,9.8701,40.0366,9.4375,40.25,8.8438z M35.6328,6.5703h4.6328
			C40.2031,5.8726,40.0259,5.3491,39.7344,5c-0.4478-0.5415-1.0288-0.8125-1.7422-0.8125c-0.646,0-1.189,0.2163-1.6289,0.6484
			C35.9233,5.2686,35.6797,5.8467,35.6328,6.5703z M37.1484,2.1875L38.1875,0h1.8438l-1.7188,2.1875H37.1484z"/>
		<path d="M48.8828,8.4766l1.3828,0.1797c-0.1509,0.9531-0.5376,1.6992-1.1602,2.2383s-1.3867,0.8086-2.293,0.8086
			c-1.1353,0-2.0483-0.3711-2.7383-1.1133s-1.0352-1.8057-1.0352-3.1914c0-0.8955,0.1484-1.6797,0.4453-2.3516
			s0.7485-1.1758,1.3555-1.5117s1.2671-0.5039,1.9805-0.5039c0.9009,0,1.6382,0.228,2.2109,0.6836
			c0.5728,0.4561,0.9399,1.103,1.1016,1.9414l-1.3672,0.2109c-0.1304-0.5571-0.3608-0.9766-0.6914-1.2578
			s-0.7305-0.4219-1.1992-0.4219c-0.7085,0-1.2837,0.2539-1.7266,0.7617s-0.6641,1.3115-0.6641,2.4102
			c0,1.1147,0.2134,1.9248,0.6406,2.4297c0.4272,0.5054,0.9844,0.7578,1.6719,0.7578c0.5522,0,1.0132-0.1689,1.3828-0.5078
			C48.5493,9.7007,48.7837,9.1797,48.8828,8.4766z"/>
		<path d="M51.4688,11.5156V3.2188h1.2656v1.1797c0.6094-0.9111,1.4897-1.3672,2.6406-1.3672c0.5,0,0.9595,0.0898,1.3789,0.2695
			s0.7329,0.4155,0.9414,0.707c0.2085,0.292,0.354,0.6382,0.4375,1.0391c0.0522,0.2607,0.0781,0.7163,0.0781,1.3672v5.1016h-1.4063
			V6.4688c0-0.5728-0.0547-1.001-0.1641-1.2852c-0.1094-0.2837-0.3032-0.5103-0.582-0.6797C55.7798,4.335,55.4531,4.25,55.0781,4.25
			c-0.5991,0-1.1157,0.1904-1.5508,0.5703c-0.4351,0.3804-0.6523,1.1016-0.6523,2.1641v4.5313H51.4688z"/>
		<path d="M60.375,1.6797V0.0625h1.4063v1.6172H60.375z M60.375,11.5156V3.2188h1.4063v8.2969H60.375z"/>
		<path d="M69.3359,8.4766l1.3828,0.1797c-0.1509,0.9531-0.5376,1.6992-1.1602,2.2383s-1.3867,0.8086-2.293,0.8086
			c-1.1353,0-2.0483-0.3711-2.7383-1.1133s-1.0352-1.8057-1.0352-3.1914c0-0.8955,0.1484-1.6797,0.4453-2.3516
			s0.7485-1.1758,1.3555-1.5117s1.2671-0.5039,1.9805-0.5039c0.9009,0,1.6382,0.228,2.2109,0.6836
			c0.5728,0.4561,0.9399,1.103,1.1016,1.9414l-1.3672,0.2109c-0.1304-0.5571-0.3608-0.9766-0.6914-1.2578
			s-0.7305-0.4219-1.1992-0.4219c-0.7085,0-1.2837,0.2539-1.7266,0.7617s-0.6641,1.3115-0.6641,2.4102
			c0,1.1147,0.2134,1.9248,0.6406,2.4297c0.4272,0.5054,0.9844,0.7578,1.6719,0.7578c0.5522,0,1.0132-0.1689,1.3828-0.5078
			C69.0024,9.7007,69.2368,9.1797,69.3359,8.4766z"/>
		<path d="M77.3359,10.4922c-0.521,0.4429-1.022,0.7554-1.5039,0.9375s-0.9985,0.2734-1.5508,0.2734
			c-0.9116,0-1.6118-0.2227-2.1016-0.668s-0.7344-1.0142-0.7344-1.707c0-0.4063,0.0923-0.7773,0.2773-1.1133
			s0.4272-0.6055,0.7266-0.8086s0.6367-0.3564,1.0117-0.4609c0.2759-0.0728,0.6929-0.1431,1.25-0.2109
			c1.1353-0.1353,1.9712-0.2969,2.5078-0.4844c0.0054-0.1924,0.0078-0.3149,0.0078-0.3672c0-0.5728-0.1328-0.9766-0.3984-1.2109
			c-0.3594-0.3174-0.8931-0.4766-1.6016-0.4766c-0.6616,0-1.1499,0.1162-1.4648,0.3477c-0.3149,0.2319-0.5483,0.6421-0.6992,1.2305
			l-1.375-0.1875c0.125-0.5884,0.3306-1.0635,0.6172-1.4258c0.2866-0.3618,0.7007-0.6406,1.2422-0.8359s1.1694-0.293,1.8828-0.293
			c0.7085,0,1.2837,0.0835,1.7266,0.25c0.4429,0.167,0.7681,0.3765,0.9766,0.6289c0.2085,0.2529,0.354,0.5718,0.4375,0.957
			c0.0469,0.2397,0.0703,0.6719,0.0703,1.2969v1.875c0,1.3076,0.0298,2.1343,0.0898,2.4805
			c0.0601,0.3467,0.1782,0.6787,0.3555,0.9961h-1.4688C77.4712,11.2241,77.3774,10.8828,77.3359,10.4922z M77.2188,7.3516
			c-0.5103,0.2085-1.2759,0.3857-2.2969,0.5313c-0.5781,0.0835-0.9868,0.1772-1.2266,0.2813
			c-0.2397,0.1045-0.4243,0.2568-0.5547,0.457c-0.1304,0.2007-0.1953,0.4233-0.1953,0.668c0,0.375,0.1421,0.6875,0.4258,0.9375
			s0.6992,0.375,1.2461,0.375c0.5415,0,1.0234-0.1182,1.4453-0.3555c0.4219-0.2368,0.7319-0.561,0.9297-0.9727
			c0.1509-0.3174,0.2266-0.7861,0.2266-1.4063V7.3516z"/>
		<path d="M80.2578,9.0391l1.3906-0.2188c0.0781,0.5576,0.2954,0.9844,0.6523,1.2813s0.8555,0.4453,1.4961,0.4453
			c0.646,0,1.125-0.1313,1.4375-0.3945c0.3125-0.2627,0.4688-0.5713,0.4688-0.9258c0-0.3174-0.1382-0.5674-0.4141-0.75
			C85.0962,8.3516,84.6172,8.1929,83.8516,8c-1.0313-0.2603-1.7461-0.4854-2.1445-0.6758
			c-0.3984-0.1899-0.7007-0.4531-0.9063-0.7891s-0.3086-0.707-0.3086-1.1133c0-0.3696,0.0845-0.7119,0.2539-1.0273
			c0.1694-0.3149,0.3999-0.5767,0.6914-0.7852c0.2188-0.1611,0.5171-0.2979,0.8945-0.4102c0.3774-0.1118,0.7827-0.168,1.2148-0.168
			c0.6509,0,1.2227,0.0938,1.7148,0.2813s0.8555,0.4414,1.0898,0.7617s0.396,0.749,0.4844,1.2852l-1.375,0.1875
			c-0.0625-0.4268-0.2437-0.7603-0.543-1c-0.2993-0.2393-0.7227-0.3594-1.2695-0.3594c-0.646,0-1.1069,0.1069-1.3828,0.3203
			c-0.2759,0.2139-0.4141,0.4639-0.4141,0.75c0,0.1826,0.0571,0.3467,0.1719,0.4922c0.1147,0.1514,0.2944,0.2764,0.5391,0.375
			c0.1406,0.0522,0.5547,0.1719,1.2422,0.3594c0.9946,0.2656,1.689,0.4834,2.082,0.6523c0.3931,0.1694,0.7017,0.4155,0.9258,0.7383
			c0.2241,0.3232,0.3359,0.7241,0.3359,1.2031c0,0.4688-0.1367,0.9102-0.4102,1.3242s-0.668,0.7344-1.1836,0.9609
			s-1.0991,0.3398-1.75,0.3398c-1.0781,0-1.8999-0.2236-2.4648-0.6719C80.7749,10.5835,80.4141,9.9194,80.2578,9.0391z"/>
		<path d="M93.2656,11.5156V3.2188h1.2578v1.1641c0.2603-0.4063,0.6069-0.7329,1.0391-0.9805
			c0.4321-0.2471,0.9243-0.3711,1.4766-0.3711c0.6147,0,1.1187,0.1279,1.5117,0.3828c0.3931,0.2554,0.6704,0.6123,0.832,1.0703
			c0.6563-0.9688,1.5103-1.4531,2.5625-1.4531c0.8228,0,1.4556,0.228,1.8984,0.6836c0.4429,0.4561,0.6641,1.1577,0.6641,2.1055
			v5.6953h-1.3984V6.2891c0-0.5625-0.0454-0.9673-0.1367-1.2148c-0.0913-0.2471-0.2563-0.4463-0.4961-0.5977
			c-0.2397-0.1509-0.521-0.2266-0.8438-0.2266c-0.5835,0-1.0679,0.1943-1.4531,0.582c-0.3853,0.3882-0.5781,1.0093-0.5781,1.8633
			v4.8203h-1.4063V6.125c0-0.625-0.1147-1.0938-0.3438-1.4063S97.2476,4.25,96.7266,4.25c-0.396,0-0.7617,0.1045-1.0977,0.3125
			c-0.3359,0.2085-0.5796,0.5132-0.7305,0.9141c-0.1509,0.4014-0.2266,0.9795-0.2266,1.7344v4.3047H93.2656z"/>
		<path d="M112.0078,10.4922c-0.521,0.4429-1.022,0.7554-1.5039,0.9375s-0.9985,0.2734-1.5508,0.2734
			c-0.9116,0-1.6118-0.2227-2.1016-0.668s-0.7344-1.0142-0.7344-1.707c0-0.4063,0.0923-0.7773,0.2773-1.1133
			s0.4272-0.6055,0.7266-0.8086s0.6367-0.3564,1.0117-0.4609c0.2759-0.0728,0.6929-0.1431,1.25-0.2109
			c1.1353-0.1353,1.9712-0.2969,2.5078-0.4844c0.0054-0.1924,0.0078-0.3149,0.0078-0.3672c0-0.5728-0.1328-0.9766-0.3984-1.2109
			c-0.3594-0.3174-0.8931-0.4766-1.6016-0.4766c-0.6616,0-1.1499,0.1162-1.4648,0.3477c-0.3149,0.2319-0.5483,0.6421-0.6992,1.2305
			l-1.375-0.1875c0.125-0.5884,0.3306-1.0635,0.6172-1.4258c0.2866-0.3618,0.7007-0.6406,1.2422-0.8359s1.1694-0.293,1.8828-0.293
			c0.7085,0,1.2837,0.0835,1.7266,0.25c0.4429,0.167,0.7681,0.3765,0.9766,0.6289c0.2085,0.2529,0.354,0.5718,0.4375,0.957
			c0.0469,0.2397,0.0703,0.6719,0.0703,1.2969v1.875c0,1.3076,0.0298,2.1343,0.0898,2.4805
			c0.0601,0.3467,0.1782,0.6787,0.3555,0.9961h-1.4688C112.1431,11.2241,112.0493,10.8828,112.0078,10.4922z M111.8906,7.3516
			c-0.5103,0.2085-1.2759,0.3857-2.2969,0.5313c-0.5781,0.0835-0.9868,0.1772-1.2266,0.2813
			c-0.2397,0.1045-0.4243,0.2568-0.5547,0.457c-0.1304,0.2007-0.1953,0.4233-0.1953,0.668c0,0.375,0.1421,0.6875,0.4258,0.9375
			s0.6992,0.375,1.2461,0.375c0.5415,0,1.0234-0.1182,1.4453-0.3555c0.4219-0.2368,0.7319-0.561,0.9297-0.9727
			c0.1509-0.3174,0.2266-0.7861,0.2266-1.4063V7.3516z M109.1563,2.1875L110.1953,0h1.8438l-1.7188,2.1875H109.1563z"/>
		<path d="M114.9297,9.0391l1.3906-0.2188c0.0781,0.5576,0.2954,0.9844,0.6523,1.2813s0.8555,0.4453,1.4961,0.4453
			c0.646,0,1.125-0.1313,1.4375-0.3945c0.3125-0.2627,0.4688-0.5713,0.4688-0.9258c0-0.3174-0.1382-0.5674-0.4141-0.75
			c-0.1929-0.125-0.6719-0.2837-1.4375-0.4766c-1.0313-0.2603-1.7461-0.4854-2.1445-0.6758
			c-0.3984-0.1899-0.7007-0.4531-0.9063-0.7891s-0.3086-0.707-0.3086-1.1133c0-0.3696,0.0845-0.7119,0.2539-1.0273
			c0.1694-0.3149,0.3999-0.5767,0.6914-0.7852c0.2188-0.1611,0.5171-0.2979,0.8945-0.4102c0.3774-0.1118,0.7827-0.168,1.2148-0.168
			c0.6509,0,1.2227,0.0938,1.7148,0.2813s0.8555,0.4414,1.0898,0.7617s0.396,0.749,0.4844,1.2852l-1.375,0.1875
			c-0.0625-0.4268-0.2437-0.7603-0.543-1c-0.2993-0.2393-0.7227-0.3594-1.2695-0.3594c-0.646,0-1.1069,0.1069-1.3828,0.3203
			c-0.2759,0.2139-0.4141,0.4639-0.4141,0.75c0,0.1826,0.0571,0.3467,0.1719,0.4922c0.1147,0.1514,0.2944,0.2764,0.5391,0.375
			c0.1406,0.0522,0.5547,0.1719,1.2422,0.3594c0.9946,0.2656,1.689,0.4834,2.082,0.6523c0.3931,0.1694,0.7017,0.4155,0.9258,0.7383
			c0.2241,0.3232,0.3359,0.7241,0.3359,1.2031c0,0.4688-0.1367,0.9102-0.4102,1.3242s-0.668,0.7344-1.1836,0.9609
			s-1.0991,0.3398-1.75,0.3398c-1.0781,0-1.8999-0.2236-2.4648-0.6719C115.4468,10.5835,115.0859,9.9194,114.9297,9.0391z"/>
		<path d="M133.375,11.5156v-1.2188c-0.646,0.9375-1.5234,1.4063-2.6328,1.4063c-0.4897,0-0.9468-0.0938-1.3711-0.2813
			s-0.7397-0.4229-0.9453-0.707c-0.2056-0.2837-0.3501-0.6313-0.4336-1.043c-0.0571-0.2759-0.0859-0.7134-0.0859-1.3125V3.2188
			h1.4063v4.6016c0,0.7344,0.0288,1.2295,0.0859,1.4844c0.0884,0.3701,0.2759,0.6602,0.5625,0.8711s0.6406,0.3164,1.0625,0.3164
			s0.8179-0.1079,1.1875-0.3242c0.3696-0.2158,0.6313-0.5103,0.7852-0.8828c0.1538-0.3721,0.2305-0.9126,0.2305-1.6211V3.2188
			h1.4063v8.2969H133.375z"/>
		<path d="M139.9063,10.2578l0.2031,1.2422c-0.396,0.083-0.75,0.125-1.0625,0.125c-0.5103,0-0.9063-0.0811-1.1875-0.2422
			s-0.479-0.3735-0.5938-0.6367c-0.1147-0.2627-0.1719-0.8164-0.1719-1.6602V4.3125h-1.0313V3.2188h1.0313V1.1641l1.3984-0.8438
			v2.8984h1.4141v1.0938h-1.4141v4.8516c0,0.4014,0.0249,0.6592,0.0742,0.7734c0.0493,0.1147,0.1304,0.2061,0.2422,0.2734
			c0.1118,0.0679,0.272,0.1016,0.4805,0.1016C139.4453,10.3125,139.6509,10.2944,139.9063,10.2578z"/>
		<path d="M141.2891,1.6797V0.0625h1.4063v1.6172H141.2891z M141.2891,11.5156V3.2188h1.4063v8.2969H141.2891z"/>
		<path d="M144.8047,11.5156V0.0625h1.4063v11.4531H144.8047z"/>
		<path d="M148.3984,1.6797V0.0625h1.4063v1.6172H148.3984z M148.3984,11.5156V3.2188h1.4063v8.2969H148.3984z"/>
		<path d="M151.2031,11.5156V10.375l5.2813-6.0625c-0.5991,0.0313-1.1274,0.0469-1.5859,0.0469h-3.3828V3.2188h6.7813v0.9297
			l-4.4922,5.2656l-0.8672,0.9609c0.6304-0.0469,1.2212-0.0703,1.7734-0.0703h3.8359v1.2109H151.2031z"/>
		<path d="M165.3594,10.4922c-0.521,0.4429-1.022,0.7554-1.5039,0.9375s-0.9985,0.2734-1.5508,0.2734
			c-0.9116,0-1.6118-0.2227-2.1016-0.668s-0.7344-1.0142-0.7344-1.707c0-0.4063,0.0923-0.7773,0.2773-1.1133
			s0.4272-0.6055,0.7266-0.8086s0.6367-0.3564,1.0117-0.4609c0.2759-0.0728,0.6929-0.1431,1.25-0.2109
			c1.1353-0.1353,1.9712-0.2969,2.5078-0.4844c0.0054-0.1924,0.0078-0.3149,0.0078-0.3672c0-0.5728-0.1328-0.9766-0.3984-1.2109
			c-0.3594-0.3174-0.8931-0.4766-1.6016-0.4766c-0.6616,0-1.1499,0.1162-1.4648,0.3477c-0.3149,0.2319-0.5483,0.6421-0.6992,1.2305
			l-1.375-0.1875c0.125-0.5884,0.3306-1.0635,0.6172-1.4258c0.2866-0.3618,0.7007-0.6406,1.2422-0.8359s1.1694-0.293,1.8828-0.293
			c0.7085,0,1.2837,0.0835,1.7266,0.25c0.4429,0.167,0.7681,0.3765,0.9766,0.6289c0.2085,0.2529,0.354,0.5718,0.4375,0.957
			c0.0469,0.2397,0.0703,0.6719,0.0703,1.2969v1.875c0,1.3076,0.0298,2.1343,0.0898,2.4805
			c0.0601,0.3467,0.1782,0.6787,0.3555,0.9961h-1.4688C165.4946,11.2241,165.4009,10.8828,165.3594,10.4922z M165.2422,7.3516
			c-0.5103,0.2085-1.2759,0.3857-2.2969,0.5313c-0.5781,0.0835-0.9868,0.1772-1.2266,0.2813
			c-0.2397,0.1045-0.4243,0.2568-0.5547,0.457c-0.1304,0.2007-0.1953,0.4233-0.1953,0.668c0,0.375,0.1421,0.6875,0.4258,0.9375
			s0.6992,0.375,1.2461,0.375c0.5415,0,1.0234-0.1182,1.4453-0.3555c0.4219-0.2368,0.7319-0.561,0.9297-0.9727
			c0.1509-0.3174,0.2266-0.7861,0.2266-1.4063V7.3516z"/>
		<path d="M174.2266,11.5156v-1.0469c-0.5259,0.8232-1.2993,1.2344-2.3203,1.2344c-0.6616,0-1.2695-0.1826-1.8242-0.5469
			s-0.9844-0.8735-1.2891-1.5273c-0.3047-0.6533-0.457-1.4048-0.457-2.2539c0-0.8281,0.1382-1.5791,0.4141-2.2539
			c0.2759-0.6743,0.6899-1.1914,1.2422-1.5508s1.1694-0.5391,1.8516-0.5391c0.5,0,0.9453,0.1055,1.3359,0.3164
			s0.7085,0.4858,0.9531,0.8242V0.0625h1.3984v11.4531H174.2266z M169.7813,7.375c0,1.0625,0.2241,1.8569,0.6719,2.3828
			c0.4478,0.5264,0.9766,0.7891,1.5859,0.7891c0.6147,0,1.1367-0.251,1.5664-0.7539c0.4297-0.5024,0.6445-1.2695,0.6445-2.3008
			c0-1.1353-0.2188-1.9688-0.6563-2.5s-0.9766-0.7969-1.6172-0.7969c-0.625,0-1.147,0.2554-1.5664,0.7656
			C169.9907,5.4717,169.7813,6.2764,169.7813,7.375z"/>
		<path d="M183.1563,10.4922c-0.521,0.4429-1.022,0.7554-1.5039,0.9375s-0.9985,0.2734-1.5508,0.2734
			c-0.9116,0-1.6118-0.2227-2.1016-0.668s-0.7344-1.0142-0.7344-1.707c0-0.4063,0.0923-0.7773,0.2773-1.1133
			s0.4272-0.6055,0.7266-0.8086s0.6367-0.3564,1.0117-0.4609c0.2759-0.0728,0.6929-0.1431,1.25-0.2109
			c1.1353-0.1353,1.9712-0.2969,2.5078-0.4844c0.0054-0.1924,0.0078-0.3149,0.0078-0.3672c0-0.5728-0.1328-0.9766-0.3984-1.2109
			c-0.3594-0.3174-0.8931-0.4766-1.6016-0.4766c-0.6616,0-1.1499,0.1162-1.4648,0.3477c-0.3149,0.2319-0.5483,0.6421-0.6992,1.2305
			l-1.375-0.1875c0.125-0.5884,0.3306-1.0635,0.6172-1.4258c0.2866-0.3618,0.7007-0.6406,1.2422-0.8359s1.1694-0.293,1.8828-0.293
			c0.7085,0,1.2837,0.0835,1.7266,0.25c0.4429,0.167,0.7681,0.3765,0.9766,0.6289c0.2085,0.2529,0.354,0.5718,0.4375,0.957
			c0.0469,0.2397,0.0703,0.6719,0.0703,1.2969v1.875c0,1.3076,0.0298,2.1343,0.0898,2.4805
			c0.0601,0.3467,0.1782,0.6787,0.3555,0.9961h-1.4688C183.2915,11.2241,183.1978,10.8828,183.1563,10.4922z M183.0391,7.3516
			c-0.5103,0.2085-1.2759,0.3857-2.2969,0.5313c-0.5781,0.0835-0.9868,0.1772-1.2266,0.2813
			c-0.2397,0.1045-0.4243,0.2568-0.5547,0.457c-0.1304,0.2007-0.1953,0.4233-0.1953,0.668c0,0.375,0.1421,0.6875,0.4258,0.9375
			s0.6992,0.375,1.2461,0.375c0.5415,0,1.0234-0.1182,1.4453-0.3555c0.4219-0.2368,0.7319-0.561,0.9297-0.9727
			c0.1509-0.3174,0.2266-0.7861,0.2266-1.4063V7.3516z"/>
		<path d="M186.0781,9.0391l1.3906-0.2188c0.0781,0.5576,0.2954,0.9844,0.6523,1.2813s0.8555,0.4453,1.4961,0.4453
			c0.646,0,1.125-0.1313,1.4375-0.3945c0.3125-0.2627,0.4688-0.5713,0.4688-0.9258c0-0.3174-0.1382-0.5674-0.4141-0.75
			c-0.1929-0.125-0.6719-0.2837-1.4375-0.4766c-1.0313-0.2603-1.7461-0.4854-2.1445-0.6758
			c-0.3984-0.1899-0.7007-0.4531-0.9063-0.7891s-0.3086-0.707-0.3086-1.1133c0-0.3696,0.0845-0.7119,0.2539-1.0273
			c0.1694-0.3149,0.3999-0.5767,0.6914-0.7852c0.2188-0.1611,0.5171-0.2979,0.8945-0.4102c0.3774-0.1118,0.7827-0.168,1.2148-0.168
			c0.6509,0,1.2227,0.0938,1.7148,0.2813s0.8555,0.4414,1.0898,0.7617s0.396,0.749,0.4844,1.2852l-1.375,0.1875
			c-0.0625-0.4268-0.2437-0.7603-0.543-1c-0.2993-0.2393-0.7227-0.3594-1.2695-0.3594c-0.646,0-1.1069,0.1069-1.3828,0.3203
			c-0.2759,0.2139-0.4141,0.4639-0.4141,0.75c0,0.1826,0.0571,0.3467,0.1719,0.4922c0.1147,0.1514,0.2944,0.2764,0.5391,0.375
			c0.1406,0.0522,0.5547,0.1719,1.2422,0.3594c0.9946,0.2656,1.689,0.4834,2.082,0.6523c0.3931,0.1694,0.7017,0.4155,0.9258,0.7383
			c0.2241,0.3232,0.3359,0.7241,0.3359,1.2031c0,0.4688-0.1367,0.9102-0.4102,1.3242s-0.668,0.7344-1.1836,0.9609
			s-1.0991,0.3398-1.75,0.3398c-1.0781,0-1.8999-0.2236-2.4648-0.6719C186.5952,10.5835,186.2344,9.9194,186.0781,9.0391z"/>
		<path d="M199.0859,14.6953V3.2188h1.2813v1.0781c0.3022-0.4219,0.6431-0.7383,1.0234-0.9492s0.8413-0.3164,1.3828-0.3164
			c0.7085,0,1.3335,0.1826,1.875,0.5469c0.5415,0.3647,0.9507,0.8789,1.2266,1.543s0.4141,1.3921,0.4141,2.1836
			c0,0.8491-0.1523,1.6133-0.457,2.293s-0.7476,1.2007-1.3281,1.5625s-1.1914,0.543-1.832,0.543
			c-0.4688,0-0.8892-0.0991-1.2617-0.2969s-0.6782-0.4478-0.918-0.75v4.0391H199.0859z M200.3594,7.4141
			c0,1.0679,0.2163,1.8569,0.6484,2.3672c0.4321,0.5107,0.9556,0.7656,1.5703,0.7656c0.625,0,1.1602-0.2642,1.6055-0.793
			c0.4453-0.5283,0.668-1.3477,0.668-2.457c0-1.0571-0.2173-1.8486-0.6523-2.375c-0.4351-0.5259-0.9546-0.7891-1.5586-0.7891
			c-0.5991,0-1.1289,0.2803-1.5898,0.8398C200.5898,5.5327,200.3594,6.3467,200.3594,7.4141z"/>
		<path d="M207.4609,7.3672c0-1.5361,0.4272-2.6743,1.2813-3.4141c0.7134-0.6143,1.5835-0.9219,2.6094-0.9219
			c1.1406,0,2.0728,0.374,2.7969,1.1211c0.7241,0.7476,1.0859,1.7803,1.0859,3.0977c0,1.0679-0.1602,1.9077-0.4805,2.5195
			c-0.3203,0.6123-0.7866,1.0874-1.3984,1.4258s-1.2798,0.5078-2.0039,0.5078c-1.1616,0-2.1001-0.3721-2.8164-1.1172
			C207.8188,9.8413,207.4609,8.7686,207.4609,7.3672z M208.9063,7.3672c0,1.0625,0.2319,1.8584,0.6953,2.3867
			c0.4634,0.5288,1.0469,0.793,1.75,0.793c0.6978,0,1.2788-0.2656,1.7422-0.7969s0.6953-1.3408,0.6953-2.4297
			c0-1.0259-0.2329-1.8032-0.6992-2.332c-0.4663-0.5283-1.0454-0.793-1.7383-0.793c-0.7031,0-1.2866,0.2632-1.75,0.7891
			C209.1382,5.5107,208.9063,6.3047,208.9063,7.3672z"/>
		<path d="M216.8672,11.5156V3.2188h1.2656v1.2578c0.3228-0.5884,0.6211-0.9766,0.8945-1.1641s0.5742-0.2813,0.9023-0.2813
			c0.4741,0,0.9556,0.1514,1.4453,0.4531l-0.4844,1.3047c-0.3438-0.2031-0.6875-0.3047-1.0313-0.3047
			c-0.3071,0-0.5835,0.0928-0.8281,0.2773c-0.2446,0.1851-0.4194,0.4414-0.5234,0.7695c-0.1563,0.5-0.2344,1.0469-0.2344,1.6406
			v4.3438H216.8672z"/>
		<path d="M226.625,11.5156V0.0625h1.4063v11.4531H226.625z"/>
		<path d="M229.6875,7.3672c0-1.5361,0.4272-2.6743,1.2813-3.4141c0.7134-0.6143,1.5835-0.9219,2.6094-0.9219
			c1.1406,0,2.0728,0.374,2.7969,1.1211c0.7241,0.7476,1.0859,1.7803,1.0859,3.0977c0,1.0679-0.1602,1.9077-0.4805,2.5195
			c-0.3203,0.6123-0.7866,1.0874-1.3984,1.4258s-1.2798,0.5078-2.0039,0.5078c-1.1616,0-2.1001-0.3721-2.8164-1.1172
			C230.0454,9.8413,229.6875,8.7686,229.6875,7.3672z M231.1328,7.3672c0,1.0625,0.2319,1.8584,0.6953,2.3867
			c0.4634,0.5288,1.0469,0.793,1.75,0.793c0.6978,0,1.2788-0.2656,1.7422-0.7969s0.6953-1.3408,0.6953-2.4297
			c0-1.0259-0.2329-1.8032-0.6992-2.332c-0.4663-0.5283-1.0454-0.793-1.7383-0.793c-0.7031,0-1.2866,0.2632-1.75,0.7891
			C231.3647,5.5107,231.1328,6.3047,231.1328,7.3672z"/>
		<path d="M238.5469,9.0391l1.3906-0.2188c0.0781,0.5576,0.2954,0.9844,0.6523,1.2813s0.8555,0.4453,1.4961,0.4453
			c0.646,0,1.125-0.1313,1.4375-0.3945c0.3125-0.2627,0.4688-0.5713,0.4688-0.9258c0-0.3174-0.1382-0.5674-0.4141-0.75
			c-0.1929-0.125-0.6719-0.2837-1.4375-0.4766c-1.0313-0.2603-1.7461-0.4854-2.1445-0.6758
			c-0.3984-0.1899-0.7007-0.4531-0.9063-0.7891s-0.3086-0.707-0.3086-1.1133c0-0.3696,0.0845-0.7119,0.2539-1.0273
			c0.1694-0.3149,0.3999-0.5767,0.6914-0.7852c0.2188-0.1611,0.5171-0.2979,0.8945-0.4102c0.3774-0.1118,0.7827-0.168,1.2148-0.168
			c0.6509,0,1.2227,0.0938,1.7148,0.2813s0.8555,0.4414,1.0898,0.7617s0.396,0.749,0.4844,1.2852l-1.375,0.1875
			c-0.0625-0.4268-0.2437-0.7603-0.543-1c-0.2993-0.2393-0.7227-0.3594-1.2695-0.3594c-0.646,0-1.1069,0.1069-1.3828,0.3203
			c-0.2759,0.2139-0.4141,0.4639-0.4141,0.75c0,0.1826,0.0571,0.3467,0.1719,0.4922c0.1147,0.1514,0.2944,0.2764,0.5391,0.375
			c0.1406,0.0522,0.5547,0.1719,1.2422,0.3594c0.9946,0.2656,1.689,0.4834,2.082,0.6523c0.3931,0.1694,0.7017,0.4155,0.9258,0.7383
			c0.2241,0.3232,0.3359,0.7241,0.3359,1.2031c0,0.4688-0.1367,0.9102-0.4102,1.3242s-0.668,0.7344-1.1836,0.9609
			s-1.0991,0.3398-1.75,0.3398c-1.0781,0-1.8999-0.2236-2.4648-0.6719C239.064,10.5835,238.7031,9.9194,238.5469,9.0391z"/>
		<path d="M251.5547,11.5156V3.2188h1.2578v1.1641c0.2603-0.4063,0.6069-0.7329,1.0391-0.9805
			c0.4321-0.2471,0.9243-0.3711,1.4766-0.3711c0.6147,0,1.1187,0.1279,1.5117,0.3828c0.3931,0.2554,0.6704,0.6123,0.832,1.0703
			c0.6563-0.9688,1.5103-1.4531,2.5625-1.4531c0.8228,0,1.4556,0.228,1.8984,0.6836c0.4429,0.4561,0.6641,1.1577,0.6641,2.1055
			v5.6953h-1.3984V6.2891c0-0.5625-0.0454-0.9673-0.1367-1.2148c-0.0913-0.2471-0.2563-0.4463-0.4961-0.5977
			c-0.2397-0.1509-0.521-0.2266-0.8438-0.2266c-0.5835,0-1.0679,0.1943-1.4531,0.582c-0.3853,0.3882-0.5781,1.0093-0.5781,1.8633
			v4.8203h-1.4063V6.125c0-0.625-0.1147-1.0938-0.3438-1.4063s-0.604-0.4688-1.125-0.4688c-0.396,0-0.7617,0.1045-1.0977,0.3125
			c-0.3359,0.2085-0.5796,0.5132-0.7305,0.9141c-0.1509,0.4014-0.2266,0.9795-0.2266,1.7344v4.3047H251.5547z"/>
		<path d="M270.5625,8.8438l1.4531,0.1797c-0.229,0.8491-0.6538,1.5078-1.2734,1.9766s-1.4116,0.7031-2.375,0.7031
			c-1.2134,0-2.1758-0.3735-2.8867-1.1211c-0.7109-0.7471-1.0664-1.7954-1.0664-3.1445c0-1.3955,0.3594-2.479,1.0781-3.25
			c0.7188-0.7705,1.6509-1.1563,2.7969-1.1563c1.1094,0,2.0156,0.3779,2.7188,1.1328c0.7031,0.7554,1.0547,1.8179,1.0547,3.1875
			c0,0.0835-0.0024,0.2085-0.0078,0.375h-6.1875c0.0522,0.9116,0.3101,1.6094,0.7734,2.0938s1.0415,0.7266,1.7344,0.7266
			c0.5156,0,0.9556-0.1353,1.3203-0.4063C270.0601,9.8701,270.3491,9.4375,270.5625,8.8438z M265.9453,6.5703h4.6328
			c-0.0625-0.6978-0.2397-1.2212-0.5313-1.5703c-0.4478-0.5415-1.0288-0.8125-1.7422-0.8125c-0.646,0-1.189,0.2163-1.6289,0.6484
			C266.2358,5.2686,265.9922,5.8467,265.9453,6.5703z M267.4609,2.1875L268.5,0h1.8438l-1.7188,2.1875H267.4609z"/>
		<path d="M276.8516,10.2578l0.2031,1.2422c-0.396,0.083-0.75,0.125-1.0625,0.125c-0.5103,0-0.9063-0.0811-1.1875-0.2422
			s-0.479-0.3735-0.5938-0.6367c-0.1147-0.2627-0.1719-0.8164-0.1719-1.6602V4.3125h-1.0313V3.2188h1.0313V1.1641l1.3984-0.8438
			v2.8984h1.4141v1.0938h-1.4141v4.8516c0,0.4014,0.0249,0.6592,0.0742,0.7734c0.0493,0.1147,0.1304,0.2061,0.2422,0.2734
			c0.1118,0.0679,0.272,0.1016,0.4805,0.1016C276.3906,10.3125,276.5962,10.2944,276.8516,10.2578z"/>
		<path d="M277.7031,7.3672c0-1.5361,0.4272-2.6743,1.2813-3.4141c0.7134-0.6143,1.5835-0.9219,2.6094-0.9219
			c1.1406,0,2.0728,0.374,2.7969,1.1211c0.7241,0.7476,1.0859,1.7803,1.0859,3.0977c0,1.0679-0.1602,1.9077-0.4805,2.5195
			c-0.3203,0.6123-0.7866,1.0874-1.3984,1.4258s-1.2798,0.5078-2.0039,0.5078c-1.1616,0-2.1001-0.3721-2.8164-1.1172
			C278.061,9.8413,277.7031,8.7686,277.7031,7.3672z M279.1484,7.3672c0,1.0625,0.2319,1.8584,0.6953,2.3867
			c0.4634,0.5288,1.0469,0.793,1.75,0.793c0.6978,0,1.2788-0.2656,1.7422-0.7969s0.6953-1.3408,0.6953-2.4297
			c0-1.0259-0.2329-1.8032-0.6992-2.332c-0.4663-0.5283-1.0454-0.793-1.7383-0.793c-0.7031,0-1.2866,0.2632-1.75,0.7891
			C279.3804,5.5107,279.1484,6.3047,279.1484,7.3672z"/>
		<path d="M292.5078,11.5156v-1.0469c-0.5259,0.8232-1.2993,1.2344-2.3203,1.2344c-0.6616,0-1.2695-0.1826-1.8242-0.5469
			s-0.9844-0.8735-1.2891-1.5273c-0.3047-0.6533-0.457-1.4048-0.457-2.2539c0-0.8281,0.1382-1.5791,0.4141-2.2539
			c0.2759-0.6743,0.6899-1.1914,1.2422-1.5508s1.1694-0.5391,1.8516-0.5391c0.5,0,0.9453,0.1055,1.3359,0.3164
			s0.7085,0.4858,0.9531,0.8242V0.0625h1.3984v11.4531H292.5078z M288.0625,7.375c0,1.0625,0.2241,1.8569,0.6719,2.3828
			c0.4478,0.5264,0.9766,0.7891,1.5859,0.7891c0.6147,0,1.1367-0.251,1.5664-0.7539c0.4297-0.5024,0.6445-1.2695,0.6445-2.3008
			c0-1.1353-0.2188-1.9688-0.6563-2.5s-0.9766-0.7969-1.6172-0.7969c-0.625,0-1.147,0.2554-1.5664,0.7656
			C288.272,5.4717,288.0625,6.2764,288.0625,7.375z"/>
		<path d="M295.5,7.3672c0-1.5361,0.4272-2.6743,1.2813-3.4141c0.7134-0.6143,1.5835-0.9219,2.6094-0.9219
			c1.1406,0,2.0728,0.374,2.7969,1.1211c0.7241,0.7476,1.0859,1.7803,1.0859,3.0977c0,1.0679-0.1602,1.9077-0.4805,2.5195
			c-0.3203,0.6123-0.7866,1.0874-1.3984,1.4258s-1.2798,0.5078-2.0039,0.5078c-1.1616,0-2.1001-0.3721-2.8164-1.1172
			C295.8579,9.8413,295.5,8.7686,295.5,7.3672z M296.9453,7.3672c0,1.0625,0.2319,1.8584,0.6953,2.3867
			c0.4634,0.5288,1.0469,0.793,1.75,0.793c0.6978,0,1.2788-0.2656,1.7422-0.7969s0.6953-1.3408,0.6953-2.4297
			c0-1.0259-0.2329-1.8032-0.6992-2.332c-0.4663-0.5283-1.0454-0.793-1.7383-0.793c-0.7031,0-1.2866,0.2632-1.75,0.7891
			C297.1772,5.5107,296.9453,6.3047,296.9453,7.3672z"/>
		<path d="M304.3594,9.0391l1.3906-0.2188c0.0781,0.5576,0.2954,0.9844,0.6523,1.2813s0.8555,0.4453,1.4961,0.4453
			c0.646,0,1.125-0.1313,1.4375-0.3945c0.3125-0.2627,0.4688-0.5713,0.4688-0.9258c0-0.3174-0.1382-0.5674-0.4141-0.75
			c-0.1929-0.125-0.6719-0.2837-1.4375-0.4766c-1.0313-0.2603-1.7461-0.4854-2.1445-0.6758
			c-0.3984-0.1899-0.7007-0.4531-0.9063-0.7891s-0.3086-0.707-0.3086-1.1133c0-0.3696,0.0845-0.7119,0.2539-1.0273
			c0.1694-0.3149,0.3999-0.5767,0.6914-0.7852c0.2188-0.1611,0.5171-0.2979,0.8945-0.4102c0.3774-0.1118,0.7827-0.168,1.2148-0.168
			c0.6509,0,1.2227,0.0938,1.7148,0.2813s0.8555,0.4414,1.0898,0.7617s0.396,0.749,0.4844,1.2852l-1.375,0.1875
			c-0.0625-0.4268-0.2437-0.7603-0.543-1c-0.2993-0.2393-0.7227-0.3594-1.2695-0.3594c-0.646,0-1.1069,0.1069-1.3828,0.3203
			c-0.2759,0.2139-0.4141,0.4639-0.4141,0.75c0,0.1826,0.0571,0.3467,0.1719,0.4922c0.1147,0.1514,0.2944,0.2764,0.5391,0.375
			c0.1406,0.0522,0.5547,0.1719,1.2422,0.3594c0.9946,0.2656,1.689,0.4834,2.082,0.6523c0.3931,0.1694,0.7017,0.4155,0.9258,0.7383
			c0.2241,0.3232,0.3359,0.7241,0.3359,1.2031c0,0.4688-0.1367,0.9102-0.4102,1.3242s-0.668,0.7344-1.1836,0.9609
			s-1.0991,0.3398-1.75,0.3398c-1.0781,0-1.8999-0.2236-2.4648-0.6719C304.8765,10.5835,304.5156,9.9194,304.3594,9.0391z"/>
		<path d="M322.75,11.5156v-1.0469c-0.5259,0.8232-1.2993,1.2344-2.3203,1.2344c-0.6616,0-1.2695-0.1826-1.8242-0.5469
			s-0.9844-0.8735-1.2891-1.5273c-0.3047-0.6533-0.457-1.4048-0.457-2.2539c0-0.8281,0.1382-1.5791,0.4141-2.2539
			c0.2759-0.6743,0.6899-1.1914,1.2422-1.5508s1.1694-0.5391,1.8516-0.5391c0.5,0,0.9453,0.1055,1.3359,0.3164
			s0.7085,0.4858,0.9531,0.8242V0.0625h1.3984v11.4531H322.75z M318.3047,7.375c0,1.0625,0.2241,1.8569,0.6719,2.3828
			c0.4478,0.5264,0.9766,0.7891,1.5859,0.7891c0.6147,0,1.1367-0.251,1.5664-0.7539c0.4297-0.5024,0.6445-1.2695,0.6445-2.3008
			c0-1.1353-0.2188-1.9688-0.6563-2.5s-0.9766-0.7969-1.6172-0.7969c-0.625,0-1.147,0.2554-1.5664,0.7656
			C318.5142,5.4717,318.3047,6.2764,318.3047,7.375z"/>
		<path d="M326.2734,1.6797V0.0625h1.4063v1.6172H326.2734z M326.2734,11.5156V3.2188h1.4063v8.2969H326.2734z"/>
		<path d="M329.2578,9.0391l1.3906-0.2188c0.0781,0.5576,0.2954,0.9844,0.6523,1.2813s0.8555,0.4453,1.4961,0.4453
			c0.646,0,1.125-0.1313,1.4375-0.3945c0.3125-0.2627,0.4688-0.5713,0.4688-0.9258c0-0.3174-0.1382-0.5674-0.4141-0.75
			c-0.1929-0.125-0.6719-0.2837-1.4375-0.4766c-1.0313-0.2603-1.7461-0.4854-2.1445-0.6758
			c-0.3984-0.1899-0.7007-0.4531-0.9063-0.7891s-0.3086-0.707-0.3086-1.1133c0-0.3696,0.0845-0.7119,0.2539-1.0273
			c0.1694-0.3149,0.3999-0.5767,0.6914-0.7852c0.2188-0.1611,0.5171-0.2979,0.8945-0.4102c0.3774-0.1118,0.7827-0.168,1.2148-0.168
			c0.6509,0,1.2227,0.0938,1.7148,0.2813s0.8555,0.4414,1.0898,0.7617s0.396,0.749,0.4844,1.2852l-1.375,0.1875
			c-0.0625-0.4268-0.2437-0.7603-0.543-1c-0.2993-0.2393-0.7227-0.3594-1.2695-0.3594c-0.646,0-1.1069,0.1069-1.3828,0.3203
			c-0.2759,0.2139-0.4141,0.4639-0.4141,0.75c0,0.1826,0.0571,0.3467,0.1719,0.4922c0.1147,0.1514,0.2944,0.2764,0.5391,0.375
			c0.1406,0.0522,0.5547,0.1719,1.2422,0.3594c0.9946,0.2656,1.689,0.4834,2.082,0.6523c0.3931,0.1694,0.7017,0.4155,0.9258,0.7383
			c0.2241,0.3232,0.3359,0.7241,0.3359,1.2031c0,0.4688-0.1367,0.9102-0.4102,1.3242s-0.668,0.7344-1.1836,0.9609
			s-1.0991,0.3398-1.75,0.3398c-1.0781,0-1.8999-0.2236-2.4648-0.6719C329.7749,10.5835,329.4141,9.9194,329.2578,9.0391z"/>
		<path d="M343.2344,8.4766l1.3828,0.1797c-0.1509,0.9531-0.5376,1.6992-1.1602,2.2383s-1.3867,0.8086-2.293,0.8086
			c-1.1353,0-2.0483-0.3711-2.7383-1.1133s-1.0352-1.8057-1.0352-3.1914c0-0.8955,0.1484-1.6797,0.4453-2.3516
			s0.7485-1.1758,1.3555-1.5117s1.2671-0.5039,1.9805-0.5039c0.9009,0,1.6382,0.228,2.2109,0.6836
			c0.5728,0.4561,0.9399,1.103,1.1016,1.9414l-1.3672,0.2109c-0.1304-0.5571-0.3608-0.9766-0.6914-1.2578
			s-0.7305-0.4219-1.1992-0.4219c-0.7085,0-1.2837,0.2539-1.7266,0.7617s-0.6641,1.3115-0.6641,2.4102
			c0,1.1147,0.2134,1.9248,0.6406,2.4297c0.4272,0.5054,0.9844,0.7578,1.6719,0.7578c0.5522,0,1.0132-0.1689,1.3828-0.5078
			C342.9009,9.7007,343.1353,9.1797,343.2344,8.4766z"/>
		<path d="M345.8047,11.5156V3.2188h1.2656v1.2578c0.3228-0.5884,0.6211-0.9766,0.8945-1.1641s0.5742-0.2813,0.9023-0.2813
			c0.4741,0,0.9556,0.1514,1.4453,0.4531l-0.4844,1.3047c-0.3438-0.2031-0.6875-0.3047-1.0313-0.3047
			c-0.3071,0-0.5835,0.0928-0.8281,0.2773c-0.2446,0.1851-0.4194,0.4414-0.5234,0.7695c-0.1563,0.5-0.2344,1.0469-0.2344,1.6406
			v4.3438H345.8047z"/>
		<path d="M356.8281,8.8438l1.4531,0.1797c-0.2295,0.8491-0.6538,1.5078-1.2734,1.9766c-0.6201,0.4688-1.4116,0.7031-2.375,0.7031
			c-1.2139,0-2.1758-0.3735-2.8867-1.1211c-0.7109-0.7471-1.0664-1.7954-1.0664-3.1445c0-1.3955,0.3594-2.479,1.0781-3.25
			c0.7188-0.7705,1.6509-1.1563,2.7969-1.1563c1.1094,0,2.0156,0.3779,2.7188,1.1328c0.7031,0.7554,1.0547,1.8179,1.0547,3.1875
			c0,0.0835-0.0029,0.2085-0.0078,0.375h-6.1875c0.0518,0.9116,0.3096,1.6094,0.7734,2.0938
			c0.4634,0.4844,1.0415,0.7266,1.7344,0.7266c0.5156,0,0.9556-0.1353,1.3203-0.4063
			C356.3252,9.8701,356.6143,9.4375,356.8281,8.8438z M352.2109,6.5703h4.6328C356.7813,5.8726,356.604,5.3491,356.3125,5
			c-0.4482-0.5415-1.0288-0.8125-1.7422-0.8125c-0.646,0-1.189,0.2163-1.6289,0.6484
			C352.501,5.2686,352.2578,5.8467,352.2109,6.5703z"/>
		<path d="M363.1172,10.2578l0.2031,1.2422c-0.396,0.083-0.75,0.125-1.0625,0.125c-0.5107,0-0.9063-0.0811-1.1875-0.2422
			s-0.4795-0.3735-0.5938-0.6367c-0.1147-0.2627-0.1719-0.8164-0.1719-1.6602V4.3125h-1.0313V3.2188h1.0313V1.1641l1.3984-0.8438
			v2.8984h1.4141v1.0938h-1.4141v4.8516c0,0.4014,0.0244,0.6592,0.0742,0.7734c0.0493,0.1147,0.1299,0.2061,0.2422,0.2734
			c0.1118,0.0679,0.272,0.1016,0.4805,0.1016C362.6563,10.3125,362.8618,10.2944,363.1172,10.2578z"/>
		<path d="M363.9688,7.3672c0-1.5361,0.4268-2.6743,1.2813-3.4141c0.7134-0.6143,1.583-0.9219,2.6094-0.9219
			c1.1406,0,2.0728,0.374,2.7969,1.1211c0.7236,0.7476,1.0859,1.7803,1.0859,3.0977c0,1.0679-0.1602,1.9077-0.4805,2.5195
			c-0.3203,0.6123-0.7866,1.0874-1.3984,1.4258c-0.6123,0.3384-1.2803,0.5078-2.0039,0.5078c-1.1616,0-2.1006-0.3721-2.8164-1.1172
			C364.3267,9.8413,363.9688,8.7686,363.9688,7.3672z M365.4141,7.3672c0,1.0625,0.2314,1.8584,0.6953,2.3867
			c0.4634,0.5288,1.0469,0.793,1.75,0.793c0.6978,0,1.2783-0.2656,1.7422-0.7969c0.4634-0.5313,0.6953-1.3408,0.6953-2.4297
			c0-1.0259-0.2334-1.8032-0.6992-2.332c-0.4663-0.5283-1.0459-0.793-1.7383-0.793c-0.7031,0-1.2866,0.2632-1.75,0.7891
			C365.6455,5.5107,365.4141,6.3047,365.4141,7.3672z"/>
		<path d="M372.8281,9.0391l1.3906-0.2188c0.0781,0.5576,0.2954,0.9844,0.6523,1.2813c0.3564,0.2969,0.8555,0.4453,1.4961,0.4453
			c0.6455,0,1.125-0.1313,1.4375-0.3945c0.3125-0.2627,0.4688-0.5713,0.4688-0.9258c0-0.3174-0.1382-0.5674-0.4141-0.75
			c-0.1929-0.125-0.6719-0.2837-1.4375-0.4766c-1.0313-0.2603-1.7461-0.4854-2.1445-0.6758
			c-0.3984-0.1899-0.7007-0.4531-0.9063-0.7891c-0.2061-0.3359-0.3086-0.707-0.3086-1.1133c0-0.3696,0.0845-0.7119,0.2539-1.0273
			c0.1689-0.3149,0.3994-0.5767,0.6914-0.7852c0.2188-0.1611,0.5166-0.2979,0.8945-0.4102c0.3774-0.1118,0.7822-0.168,1.2148-0.168
			c0.6509,0,1.2227,0.0938,1.7148,0.2813s0.8555,0.4414,1.0898,0.7617s0.3955,0.749,0.4844,1.2852l-1.375,0.1875
			c-0.0625-0.4268-0.2437-0.7603-0.543-1c-0.2998-0.2393-0.7227-0.3594-1.2695-0.3594c-0.646,0-1.1069,0.1069-1.3828,0.3203
			c-0.2764,0.2139-0.4141,0.4639-0.4141,0.75c0,0.1826,0.0571,0.3467,0.1719,0.4922c0.1143,0.1514,0.2939,0.2764,0.5391,0.375
			c0.1406,0.0522,0.5547,0.1719,1.2422,0.3594c0.9946,0.2656,1.6885,0.4834,2.082,0.6523c0.3931,0.1694,0.7017,0.4155,0.9258,0.7383
			c0.2236,0.3232,0.3359,0.7241,0.3359,1.2031c0,0.4688-0.1367,0.9102-0.4102,1.3242s-0.668,0.7344-1.1836,0.9609
			s-1.0991,0.3398-1.75,0.3398c-1.0781,0-1.8999-0.2236-2.4648-0.6719C373.3447,10.5835,372.9844,9.9194,372.8281,9.0391z"/>
		<path d="M385.2734,9.0391l1.3906-0.2188c0.0781,0.5576,0.2954,0.9844,0.6523,1.2813c0.3564,0.2969,0.8555,0.4453,1.4961,0.4453
			c0.6455,0,1.125-0.1313,1.4375-0.3945c0.3125-0.2627,0.4688-0.5713,0.4688-0.9258c0-0.3174-0.1382-0.5674-0.4141-0.75
			c-0.1929-0.125-0.6719-0.2837-1.4375-0.4766c-1.0313-0.2603-1.7461-0.4854-2.1445-0.6758
			c-0.3984-0.1899-0.7007-0.4531-0.9063-0.7891c-0.2061-0.3359-0.3086-0.707-0.3086-1.1133c0-0.3696,0.0845-0.7119,0.2539-1.0273
			c0.1689-0.3149,0.3994-0.5767,0.6914-0.7852c0.2188-0.1611,0.5166-0.2979,0.8945-0.4102c0.3774-0.1118,0.7822-0.168,1.2148-0.168
			c0.6509,0,1.2227,0.0938,1.7148,0.2813s0.8555,0.4414,1.0898,0.7617s0.3955,0.749,0.4844,1.2852l-1.375,0.1875
			c-0.0625-0.4268-0.2437-0.7603-0.543-1c-0.2998-0.2393-0.7227-0.3594-1.2695-0.3594c-0.646,0-1.1069,0.1069-1.3828,0.3203
			c-0.2764,0.2139-0.4141,0.4639-0.4141,0.75c0,0.1826,0.0571,0.3467,0.1719,0.4922c0.1143,0.1514,0.2939,0.2764,0.5391,0.375
			c0.1406,0.0522,0.5547,0.1719,1.2422,0.3594c0.9946,0.2656,1.6885,0.4834,2.082,0.6523c0.3931,0.1694,0.7017,0.4155,0.9258,0.7383
			c0.2236,0.3232,0.3359,0.7241,0.3359,1.2031c0,0.4688-0.1367,0.9102-0.4102,1.3242s-0.668,0.7344-1.1836,0.9609
			s-1.0991,0.3398-1.75,0.3398c-1.0781,0-1.8999-0.2236-2.4648-0.6719C385.79,10.5835,385.4297,9.9194,385.2734,9.0391z"/>
		<path d="M393.3125,7.3672c0-1.5361,0.4268-2.6743,1.2813-3.4141c0.7134-0.6143,1.583-0.9219,2.6094-0.9219
			c1.1406,0,2.0728,0.374,2.7969,1.1211c0.7236,0.7476,1.0859,1.7803,1.0859,3.0977c0,1.0679-0.1602,1.9077-0.4805,2.5195
			c-0.3203,0.6123-0.7866,1.0874-1.3984,1.4258c-0.6123,0.3384-1.2803,0.5078-2.0039,0.5078c-1.1616,0-2.1006-0.3721-2.8164-1.1172
			C393.6704,9.8413,393.3125,8.7686,393.3125,7.3672z M394.7578,7.3672c0,1.0625,0.2314,1.8584,0.6953,2.3867
			c0.4634,0.5288,1.0469,0.793,1.75,0.793c0.6978,0,1.2783-0.2656,1.7422-0.7969c0.4634-0.5313,0.6953-1.3408,0.6953-2.4297
			c0-1.0259-0.2334-1.8032-0.6992-2.332c-0.4663-0.5283-1.0459-0.793-1.7383-0.793c-0.7031,0-1.2866,0.2632-1.75,0.7891
			C394.9893,5.5107,394.7578,6.3047,394.7578,7.3672z"/>
		<path d="M402.7344,11.5156V3.2188H404v1.1797c0.6094-0.9111,1.4893-1.3672,2.6406-1.3672c0.5,0,0.9595,0.0898,1.3789,0.2695
			c0.4189,0.1797,0.7329,0.4155,0.9414,0.707c0.208,0.292,0.354,0.6382,0.4375,1.0391c0.0518,0.2607,0.0781,0.7163,0.0781,1.3672
			v5.1016h-1.4063V6.4688c0-0.5728-0.0547-1.001-0.1641-1.2852c-0.1094-0.2837-0.3037-0.5103-0.582-0.6797
			c-0.2788-0.1689-0.6055-0.2539-0.9805-0.2539c-0.5991,0-1.1162,0.1904-1.5508,0.5703c-0.4351,0.3804-0.6523,1.1016-0.6523,2.1641
			v4.5313H402.7344z"/>
		<path d="M412.0234,4.8203V3.2188h1.6016v1.6016H412.0234z M412.0234,11.5156V9.9141h1.6016v1.6016H412.0234z"/>
	</g>
	<polyline style="fill:none;stroke:#000000;stroke-miterlimit:10;stroke-dasharray:3,3;" points="206.0873,23.8016 
		206.0873,47.1349 382.9382,47.1349 382.9382,110.1174 	"/>
</g>
</svg>
