<?xml version="1.0" encoding="utf-8"?>
<!-- Generator: Adobe Illustrator 21.0.2, SVG Export Plug-In . SVG Version: 6.00 Build 0)  -->
<svg version="1.1" id="Capa_1" xmlns="http://www.w3.org/2000/svg" xmlns:xlink="http://www.w3.org/1999/xlink" x="0px" y="0px"
	 viewBox="0 0 265 51.576" style="enable-background:new 0 0 265 51.576;" xml:space="preserve">
<g>
	<g id="XMLID_5270_">
		<polygon id="XMLID_5271_" style="fill:#A03628;" points="243.1899,0.5001 265,25.7881 243.1899,51.076 223.3365,51.076 
			245.1466,25.7881 223.3365,0.5001 198.1899,0.5001 		"/>
	</g>
	<g id="XMLID_5267_">
		<polygon id="XMLID_5268_" style="fill:#A03628;" points="21.8101,51.0759 0,25.7879 21.8101,0.5 41.6635,0.5 19.8534,25.7879 
			41.6635,51.0759 21.8101,51.0759 		"/>
	</g>
	<polygon id="XMLID_5265_" style="fill:#C9452F;stroke:#C9452F;stroke-miterlimit:10;" points="47.671,0.5 217.329,0.5001 
		239.1391,25.7881 217.329,51.076 47.671,51.0759 25.8609,25.7879 	"/>
	<g>
		<g>
			<path style="fill:#FFFFFF;" d="M42.1537,32.3744V17.3251h6.3955c1.6074,0,2.7764,0.1353,3.5049,0.4058
				c0.7295,0.27,1.3125,0.751,1.751,1.4419c0.4375,0.6914,0.6572,1.4819,0.6572,2.3716c0,1.1294-0.332,2.0615-0.9961,2.7974
				s-1.6563,1.1992-2.9775,1.3911c0.6572,0.3833,1.1992,0.8042,1.6279,1.2627c0.4268,0.4585,1.0039,1.2729,1.7295,2.4429
				l1.8369,2.936h-3.6338l-2.1963-3.2749c-0.7803-1.1699-1.3145-1.9072-1.6016-2.2119c-0.2881-0.3047-0.5918-0.5132-0.9141-0.6265
				c-0.3213-0.1128-0.8311-0.1694-1.5293-0.1694h-0.6162v6.2827H42.1537z M45.1918,23.6898h2.248
				c1.458,0,2.3682-0.0615,2.7314-0.1851c0.3623-0.123,0.6465-0.335,0.8516-0.6362s0.3076-0.6777,0.3076-1.1294
				c0-0.5063-0.1348-0.915-0.4053-1.2266s-0.6514-0.5083-1.1445-0.5903c-0.2461-0.0342-0.9854-0.0513-2.2168-0.0513h-2.3721V23.6898
				z"/>
			<path style="fill:#FFFFFF;" d="M63.6186,28.9047l2.874,0.4824c-0.3691,1.0542-0.9531,1.8564-1.75,2.4072
				c-0.7969,0.5513-1.7949,0.8267-2.9922,0.8267c-1.8955,0-3.2988-0.6196-4.209-1.8584c-0.7188-0.9922-1.0781-2.2446-1.0781-3.7568
				c0-1.8071,0.4727-3.2217,1.417-4.2451c0.9443-1.0229,2.1387-1.5347,3.583-1.5347c1.6211,0,2.9014,0.5356,3.8389,1.6064
				c0.9375,1.0713,1.3857,2.7119,1.3447,4.9224h-7.2266c0.0205,0.856,0.2529,1.521,0.6973,1.9966
				c0.4453,0.4761,1,0.7139,1.6631,0.7139c0.4521,0,0.832-0.1235,1.1396-0.3696C63.2289,29.849,63.4614,29.452,63.6186,28.9047z
				 M63.7826,25.9892c-0.0205-0.835-0.2363-1.4692-0.6465-1.9043c-0.4102-0.4346-0.9102-0.6519-1.499-0.6519
				c-0.6299,0-1.1494,0.2295-1.5605,0.688c-0.4102,0.4585-0.6123,1.0815-0.6055,1.8682H63.7826z"/>
			<path style="fill:#FFFFFF;" d="M78.5034,24.6957l-2.8438,0.5132c-0.0957-0.5679-0.3125-0.9956-0.6514-1.2832
				c-0.3389-0.2871-0.7783-0.4312-1.3193-0.4312c-0.7188,0-1.292,0.2485-1.7197,0.7446s-0.6416,1.3257-0.6416,2.4893
				c0,1.2935,0.2178,2.207,0.6523,2.7407c0.4346,0.5342,1.0176,0.8008,1.75,0.8008c0.5479,0,0.9961-0.1558,1.3447-0.4668
				c0.3496-0.3115,0.5957-0.8472,0.7393-1.6069l2.833,0.4824c-0.2939,1.3008-0.8584,2.2827-1.6934,2.9463
				c-0.835,0.6641-1.9541,0.9961-3.3564,0.9961c-1.5947,0-2.8662-0.5034-3.8145-1.5093c-0.9473-1.0059-1.4209-2.3984-1.4209-4.1782
				c0-1.7998,0.4756-3.2007,1.4268-4.2036c0.9512-1.0024,2.2373-1.5039,3.8594-1.5039c1.3281,0,2.3838,0.2861,3.167,0.8574
				S78.1616,23.5258,78.5034,24.6957z"/>
			<path style="fill:#FFFFFF;" d="M80.0229,26.7694c0-0.958,0.2363-1.8853,0.708-2.7817c0.4727-0.8965,1.1416-1.5811,2.0068-2.0532
				c0.8662-0.4722,1.833-0.7085,2.9004-0.7085c1.6494,0,3.001,0.5356,4.0547,1.6064c1.0537,1.0713,1.5811,2.4248,1.5811,4.0601
				c0,1.6494-0.5322,3.0166-1.5967,4.1011c-1.0635,1.085-2.4033,1.6274-4.0186,1.6274c-0.999,0-1.9521-0.2261-2.8594-0.6777
				c-0.9063-0.4517-1.5957-1.1138-2.0684-1.9863C80.2592,29.0844,80.0229,28.0219,80.0229,26.7694z M82.9789,26.9232
				c0,1.0815,0.2568,1.9097,0.7705,2.4844c0.5127,0.5747,1.1455,0.8623,1.8984,0.8623s1.3848-0.2876,1.8945-0.8623
				s0.7646-1.4097,0.7646-2.5049c0-1.0674-0.2549-1.8887-0.7646-2.4634c-0.5098-0.5752-1.1416-0.8623-1.8945-0.8623
				s-1.3857,0.2871-1.8984,0.8623C83.2358,25.0141,82.9789,25.8422,82.9789,26.9232z"/>
			<path style="fill:#FFFFFF;" d="M93.3159,21.4726h2.6592v1.4883c0.9512-1.1563,2.084-1.7349,3.3975-1.7349
				c0.6982,0,1.3047,0.144,1.8174,0.4312c0.5137,0.2876,0.9346,0.7222,1.2627,1.3037c0.4785-0.5815,0.9961-1.0161,1.5498-1.3037
				c0.5547-0.2871,1.1465-0.4312,1.7764-0.4312c0.8008,0,1.4785,0.1626,2.0322,0.4878c0.5547,0.3252,0.9688,0.8022,1.2422,1.4321
				c0.1982,0.4653,0.2979,1.2183,0.2979,2.2583v6.9702h-2.8848v-6.231c0-1.0815-0.0986-1.7793-0.2979-2.0942
				c-0.2666-0.4106-0.6768-0.6162-1.2314-0.6162c-0.4043,0-0.7842,0.1235-1.1396,0.3696c-0.3555,0.2466-0.6123,0.6074-0.7695,1.083
				c-0.1582,0.4761-0.2363,1.2271-0.2363,2.2534v5.2354h-2.8848v-5.9746c0-1.0605-0.0508-1.7451-0.1543-2.0532
				c-0.1025-0.3076-0.2617-0.5371-0.4766-0.6875c-0.2158-0.1504-0.5088-0.2261-0.8779-0.2261c-0.4453,0-0.8457,0.1201-1.2012,0.3594
				c-0.3555,0.2397-0.6104,0.5854-0.7646,1.0371s-0.2314,1.2007-0.2314,2.248v5.2969h-2.8848V21.4726z"/>
			<path style="fill:#FFFFFF;" d="M118.5385,28.9047l2.874,0.4824c-0.3691,1.0542-0.9531,1.8564-1.75,2.4072
				c-0.7969,0.5513-1.7949,0.8267-2.9922,0.8267c-1.8955,0-3.2988-0.6196-4.209-1.8584c-0.7188-0.9922-1.0781-2.2446-1.0781-3.7568
				c0-1.8071,0.4727-3.2217,1.417-4.2451c0.9443-1.0229,2.1387-1.5347,3.583-1.5347c1.6211,0,2.9014,0.5356,3.8389,1.6064
				c0.9375,1.0713,1.3857,2.7119,1.3447,4.9224h-7.2266c0.0205,0.856,0.2529,1.521,0.6973,1.9966
				c0.4453,0.4761,1,0.7139,1.6631,0.7139c0.4521,0,0.832-0.1235,1.1396-0.3696C118.1489,29.849,118.3813,29.452,118.5385,28.9047z
				 M118.7026,25.9892c-0.0205-0.835-0.2363-1.4692-0.6465-1.9043c-0.4102-0.4346-0.9102-0.6519-1.499-0.6519
				c-0.6299,0-1.1494,0.2295-1.5605,0.688c-0.4102,0.4585-0.6123,1.0815-0.6055,1.8682H118.7026z"/>
			<path style="fill:#FFFFFF;" d="M133.8344,32.3744h-2.8848v-5.564c0-1.1768-0.0615-1.9385-0.1846-2.2842
				c-0.123-0.3452-0.3232-0.6138-0.6006-0.8057c-0.2773-0.1914-0.6113-0.2876-1.001-0.2876c-0.5,0-0.9482,0.1372-1.3447,0.4106
				c-0.3975,0.2739-0.6689,0.6367-0.8164,1.0884s-0.2207,1.2866-0.2207,2.5049v4.9375h-2.8848V21.4726h2.6797v1.6016
				c0.9512-1.2319,2.1484-1.8481,3.5928-1.8481c0.6367,0,1.2178,0.1147,1.7451,0.3442c0.5273,0.229,0.9258,0.5215,1.1963,0.8774
				c0.2695,0.356,0.458,0.7598,0.5645,1.2114c0.1055,0.4517,0.1592,1.0981,0.1592,1.9399V32.3744z"/>
			<path style="fill:#FFFFFF;" d="M146.7592,32.3744h-2.6797v-1.6016c-0.4443,0.623-0.9697,1.0869-1.5752,1.3911
				c-0.6064,0.3042-1.2168,0.457-1.833,0.457c-1.252,0-2.3252-0.5049-3.2178-1.5142c-0.8936-1.0098-1.3398-2.418-1.3398-4.2246
				c0-1.8477,0.4346-3.2524,1.3037-4.2139s1.9678-1.4424,3.2949-1.4424c1.2188,0,2.2725,0.5068,3.1621,1.5195v-5.4204h2.8848
				V32.3744z M139.06,26.6874c0,1.1636,0.1602,2.0054,0.4824,2.5254c0.4648,0.7529,1.1152,1.1289,1.9502,1.1289
				c0.6641,0,1.2285-0.2822,1.6943-0.8467c0.4648-0.5645,0.6973-1.4082,0.6973-2.5308c0-1.252-0.2256-2.1538-0.6768-2.7046
				c-0.4521-0.5508-1.0303-0.8267-1.7354-0.8267c-0.6846,0-1.2578,0.272-1.7197,0.8164
				C139.2905,24.7934,139.06,25.6059,139.06,26.6874z"/>
			<path style="fill:#FFFFFF;" d="M151.7582,24.7982l-2.6182-0.4722c0.2939-1.0537,0.8008-1.834,1.5195-2.3403
				s1.7861-0.7598,3.2031-0.7598c1.2861,0,2.2441,0.1523,2.874,0.457s1.0723,0.6914,1.3291,1.1597
				c0.2568,0.4692,0.3848,1.3296,0.3848,2.582l-0.0303,3.3672c0,0.958,0.0459,1.6646,0.1387,2.1196
				c0.0918,0.4551,0.2646,0.9429,0.5186,1.4629h-2.8545c-0.0752-0.1914-0.167-0.4756-0.2764-0.8521
				c-0.0488-0.1709-0.083-0.2837-0.1035-0.3389c-0.4922,0.479-1.0195,0.8384-1.5801,1.0781
				c-0.5615,0.2393-1.1602,0.3594-1.7969,0.3594c-1.1221,0-2.0068-0.3047-2.6533-0.9141c-0.6475-0.6089-0.9707-1.3789-0.9707-2.3096
				c0-0.6157,0.1475-1.165,0.4414-1.6475c0.2949-0.4824,0.707-0.8521,1.2373-1.1089c0.5303-0.2563,1.2949-0.4805,2.2939-0.6724
				c1.3486-0.2529,2.2832-0.4893,2.8027-0.708V24.973c0-0.5542-0.1367-0.9497-0.4102-1.1855
				c-0.2744-0.2363-0.791-0.3545-1.5508-0.3545c-0.5127,0-0.9131,0.1011-1.2002,0.3032
				C152.1684,23.9379,151.936,24.2919,151.7582,24.7982z M155.6176,27.1391c-0.3691,0.123-0.9541,0.2705-1.7549,0.4414
				s-1.3242,0.3389-1.5713,0.5029c-0.376,0.2671-0.5645,0.6055-0.5645,1.0161c0,0.4043,0.1504,0.7529,0.4521,1.0474
				c0.3008,0.2944,0.6836,0.4414,1.1494,0.4414c0.5205,0,1.0166-0.1709,1.4883-0.5132c0.3496-0.2603,0.5781-0.5786,0.6885-0.9551
				c0.0752-0.2461,0.1123-0.7148,0.1123-1.4063V27.1391z"/>
			<path style="fill:#FFFFFF;" d="M170.8002,24.6957l-2.8438,0.5132c-0.0957-0.5679-0.3125-0.9956-0.6514-1.2832
				c-0.3389-0.2871-0.7783-0.4312-1.3193-0.4312c-0.7188,0-1.292,0.2485-1.7197,0.7446s-0.6416,1.3257-0.6416,2.4893
				c0,1.2935,0.2178,2.207,0.6523,2.7407c0.4346,0.5342,1.0176,0.8008,1.75,0.8008c0.5479,0,0.9961-0.1558,1.3447-0.4668
				c0.3496-0.3115,0.5957-0.8472,0.7393-1.6069l2.833,0.4824c-0.2939,1.3008-0.8584,2.2827-1.6934,2.9463
				c-0.835,0.6641-1.9541,0.9961-3.3564,0.9961c-1.5947,0-2.8662-0.5034-3.8145-1.5093c-0.9473-1.0059-1.4209-2.3984-1.4209-4.1782
				c0-1.7998,0.4756-3.2007,1.4268-4.2036c0.9512-1.0024,2.2373-1.5039,3.8594-1.5039c1.3281,0,2.3838,0.2861,3.167,0.8574
				S170.4584,23.5258,170.8002,24.6957z"/>
			<path style="fill:#FFFFFF;" d="M172.9868,19.994v-2.6689h2.8848v2.6689H172.9868z M172.9868,32.3744V21.4726h2.8848v10.9019
				H172.9868z"/>
			<path style="fill:#FFFFFF;" d="M178.1606,26.7694c0-0.958,0.2363-1.8853,0.708-2.7817c0.4727-0.8965,1.1416-1.5811,2.0068-2.0532
				c0.8662-0.4722,1.833-0.7085,2.9004-0.7085c1.6494,0,3.001,0.5356,4.0547,1.6064c1.0537,1.0713,1.5811,2.4248,1.5811,4.0601
				c0,1.6494-0.5322,3.0166-1.5967,4.1011c-1.0635,1.085-2.4033,1.6274-4.0186,1.6274c-0.999,0-1.9521-0.2261-2.8594-0.6777
				c-0.9063-0.4517-1.5957-1.1138-2.0684-1.9863C178.3969,29.0844,178.1606,28.0219,178.1606,26.7694z M181.1166,26.9232
				c0,1.0815,0.2568,1.9097,0.7705,2.4844c0.5127,0.5747,1.1455,0.8623,1.8984,0.8623s1.3848-0.2876,1.8945-0.8623
				s0.7646-1.4097,0.7646-2.5049c0-1.0674-0.2549-1.8887-0.7646-2.4634c-0.5098-0.5752-1.1416-0.8623-1.8945-0.8623
				s-1.3857,0.2871-1.8984,0.8623C181.3735,25.0141,181.1166,25.8422,181.1166,26.9232z"/>
			<path style="fill:#FFFFFF;" d="M201.5873,32.3744h-2.8848v-5.564c0-1.1768-0.0615-1.9385-0.1846-2.2842
				c-0.123-0.3452-0.3232-0.6138-0.6006-0.8057c-0.2773-0.1914-0.6113-0.2876-1.001-0.2876c-0.5,0-0.9482,0.1372-1.3447,0.4106
				c-0.3975,0.2739-0.6689,0.6367-0.8164,1.0884s-0.2207,1.2866-0.2207,2.5049v4.9375h-2.8848V21.4726h2.6797v1.6016
				c0.9512-1.2319,2.1484-1.8481,3.5928-1.8481c0.6367,0,1.2178,0.1147,1.7451,0.3442c0.5273,0.229,0.9258,0.5215,1.1963,0.8774
				c0.2695,0.356,0.458,0.7598,0.5645,1.2114c0.1055,0.4517,0.1592,1.0981,0.1592,1.9399V32.3744z"/>
			<path style="fill:#FFFFFF;" d="M210.8256,28.9047l2.874,0.4824c-0.3691,1.0542-0.9531,1.8564-1.75,2.4072
				c-0.7969,0.5513-1.7949,0.8267-2.9922,0.8267c-1.8955,0-3.2988-0.6196-4.209-1.8584c-0.7188-0.9922-1.0781-2.2446-1.0781-3.7568
				c0-1.8071,0.4727-3.2217,1.417-4.2451c0.9443-1.0229,2.1387-1.5347,3.583-1.5347c1.6211,0,2.9014,0.5356,3.8389,1.6064
				c0.9375,1.0713,1.3857,2.7119,1.3447,4.9224h-7.2266c0.0205,0.856,0.2529,1.521,0.6973,1.9966
				c0.4453,0.4761,1,0.7139,1.6631,0.7139c0.4521,0,0.832-0.1235,1.1396-0.3696C210.436,29.849,210.6684,29.452,210.8256,28.9047z
				 M210.9897,25.9892c-0.0205-0.835-0.2363-1.4692-0.6465-1.9043c-0.4102-0.4346-0.9102-0.6519-1.499-0.6519
				c-0.6299,0-1.1494,0.2295-1.5605,0.688c-0.4102,0.4585-0.6123,1.0815-0.6055,1.8682H210.9897z"/>
			<path style="fill:#FFFFFF;" d="M215.1889,29.2641l2.8945-0.4414c0.123,0.561,0.373,0.9873,0.749,1.2778
				c0.377,0.291,0.9033,0.4365,1.5811,0.4365c0.7461,0,1.3076-0.1367,1.6836-0.4106c0.2529-0.1914,0.3799-0.4482,0.3799-0.77
				c0-0.2188-0.0684-0.4004-0.2051-0.5439c-0.1436-0.1367-0.4658-0.2637-0.9648-0.3799c-2.3271-0.5132-3.8018-0.9819-4.4248-1.4063
				c-0.8623-0.5889-1.293-1.4067-1.293-2.4536c0-0.9443,0.3721-1.7383,1.1182-2.3818c0.7461-0.6431,1.9023-0.9648,3.4697-0.9648
				c1.4922,0,2.6006,0.2432,3.3262,0.729s1.2256,1.2046,1.499,2.1558l-2.7207,0.5029c-0.1162-0.4243-0.3369-0.7495-0.6621-0.9751
				c-0.3252-0.2261-0.7891-0.3389-1.3906-0.3389c-0.7598,0-1.3037,0.106-1.6318,0.3184c-0.2197,0.1504-0.3291,0.3457-0.3291,0.585
				c0,0.2056,0.0957,0.3799,0.2871,0.5234c0.2607,0.1919,1.1582,0.4619,2.6953,0.811c1.5361,0.3491,2.6084,0.7769,3.2178,1.2832
				c0.6025,0.5132,0.9033,1.2285,0.9033,2.1455c0,0.9995-0.417,1.8579-1.252,2.5767s-2.0703,1.0781-3.7061,1.0781
				c-1.4854,0-2.6602-0.3013-3.5264-0.9038C216.0219,31.1151,215.4555,30.2973,215.1889,29.2641z"/>
		</g>
	</g>
</g>
</svg>
