<?xml version="1.0" encoding="utf-8"?>
<!-- Generator: Adobe Illustrator 21.0.2, SVG Export Plug-In . SVG Version: 6.00 Build 0)  -->
<svg version="1.1" id="Capa_1" xmlns="http://www.w3.org/2000/svg" xmlns:xlink="http://www.w3.org/1999/xlink" x="0px" y="0px"
	 viewBox="0 0 186.7879 82.43" style="enable-background:new 0 0 186.7879 82.43;" xml:space="preserve">
<g>
	<g>
		
			<line style="fill:none;stroke:#8562A3;stroke-width:1.7595;stroke-linecap:round;stroke-miterlimit:10;" x1="20.0249" y1="1.0689" x2="20.0249" y2="81.5503"/>
		
			<line style="fill:none;stroke:#8562A3;stroke-width:1.7595;stroke-linecap:round;stroke-miterlimit:10;" x1="185.9082" y1="81.5503" x2="20.0918" y2="81.5503"/>
		<g>
			<g>
				
					<line style="fill:none;stroke:#8562A3;stroke-width:0.4399;stroke-linecap:round;stroke-miterlimit:10;" x1="20.0249" y1="1.0689" x2="21.7842" y2="1.0689"/>
				
					<line style="fill:none;stroke:#8562A3;stroke-width:0.4399;stroke-linecap:round;stroke-miterlimit:10;stroke-dasharray:3.588,3.588;" x1="25.3725" y1="1.0689" x2="181.4487" y2="1.0689"/>
				
					<line style="fill:none;stroke:#8562A3;stroke-width:0.4399;stroke-linecap:round;stroke-miterlimit:10;" x1="183.2432" y1="1.0689" x2="185.0024" y2="1.0689"/>
			</g>
		</g>
		<g>
			<g>
				
					<line style="fill:none;stroke:#8562A3;stroke-width:0.4399;stroke-linecap:round;stroke-miterlimit:10;" x1="20.0249" y1="6.1113" x2="21.7842" y2="6.1113"/>
				
					<line style="fill:none;stroke:#8562A3;stroke-width:0.4399;stroke-linecap:round;stroke-miterlimit:10;stroke-dasharray:3.588,3.588;" x1="25.3725" y1="6.1113" x2="181.4487" y2="6.1113"/>
				
					<line style="fill:none;stroke:#8562A3;stroke-width:0.4399;stroke-linecap:round;stroke-miterlimit:10;" x1="183.2432" y1="6.1113" x2="185.0024" y2="6.1113"/>
			</g>
		</g>
		<g>
			<g>
				
					<line style="fill:none;stroke:#8562A3;stroke-width:0.4399;stroke-linecap:round;stroke-miterlimit:10;" x1="20.0249" y1="11.1533" x2="21.7842" y2="11.1533"/>
				
					<line style="fill:none;stroke:#8562A3;stroke-width:0.4399;stroke-linecap:round;stroke-miterlimit:10;stroke-dasharray:3.588,3.588;" x1="25.3725" y1="11.1533" x2="181.4487" y2="11.1533"/>
				
					<line style="fill:none;stroke:#8562A3;stroke-width:0.4399;stroke-linecap:round;stroke-miterlimit:10;" x1="183.2432" y1="11.1533" x2="185.0024" y2="11.1533"/>
			</g>
		</g>
		<g>
			<g>
				
					<line style="fill:none;stroke:#8562A3;stroke-width:0.4399;stroke-linecap:round;stroke-miterlimit:10;" x1="20.0249" y1="16.1958" x2="21.7842" y2="16.1958"/>
				
					<line style="fill:none;stroke:#8562A3;stroke-width:0.4399;stroke-linecap:round;stroke-miterlimit:10;stroke-dasharray:3.588,3.588;" x1="25.3725" y1="16.1958" x2="181.4487" y2="16.1958"/>
				
					<line style="fill:none;stroke:#8562A3;stroke-width:0.4399;stroke-linecap:round;stroke-miterlimit:10;" x1="183.2432" y1="16.1958" x2="185.0024" y2="16.1958"/>
			</g>
		</g>
		<g>
			<g>
				
					<line style="fill:none;stroke:#8562A3;stroke-width:0.4399;stroke-linecap:round;stroke-miterlimit:10;" x1="20.0249" y1="21.2378" x2="21.7842" y2="21.2378"/>
				
					<line style="fill:none;stroke:#8562A3;stroke-width:0.4399;stroke-linecap:round;stroke-miterlimit:10;stroke-dasharray:3.588,3.588;" x1="25.3725" y1="21.2378" x2="181.4487" y2="21.2378"/>
				
					<line style="fill:none;stroke:#8562A3;stroke-width:0.4399;stroke-linecap:round;stroke-miterlimit:10;" x1="183.2432" y1="21.2378" x2="185.0024" y2="21.2378"/>
			</g>
		</g>
		<g>
			<g>
				
					<line style="fill:none;stroke:#8562A3;stroke-width:0.4399;stroke-linecap:round;stroke-miterlimit:10;" x1="20.0249" y1="26.2803" x2="21.7842" y2="26.2803"/>
				
					<line style="fill:none;stroke:#8562A3;stroke-width:0.4399;stroke-linecap:round;stroke-miterlimit:10;stroke-dasharray:3.588,3.588;" x1="25.3725" y1="26.2803" x2="181.4487" y2="26.2803"/>
				
					<line style="fill:none;stroke:#8562A3;stroke-width:0.4399;stroke-linecap:round;stroke-miterlimit:10;" x1="183.2432" y1="26.2803" x2="185.0024" y2="26.2803"/>
			</g>
		</g>
		<g>
			<g>
				
					<line style="fill:none;stroke:#8562A3;stroke-width:0.4399;stroke-linecap:round;stroke-miterlimit:10;" x1="20.0249" y1="31.3218" x2="21.7842" y2="31.3218"/>
				
					<line style="fill:none;stroke:#8562A3;stroke-width:0.4399;stroke-linecap:round;stroke-miterlimit:10;stroke-dasharray:3.588,3.588;" x1="25.3725" y1="31.3218" x2="181.4487" y2="31.3218"/>
				
					<line style="fill:none;stroke:#8562A3;stroke-width:0.4399;stroke-linecap:round;stroke-miterlimit:10;" x1="183.2432" y1="31.3218" x2="185.0024" y2="31.3218"/>
			</g>
		</g>
		<g>
			<g>
				
					<line style="fill:none;stroke:#8562A3;stroke-width:0.4399;stroke-linecap:round;stroke-miterlimit:10;" x1="20.0249" y1="36.3628" x2="21.7842" y2="36.3628"/>
				
					<line style="fill:none;stroke:#8562A3;stroke-width:0.4399;stroke-linecap:round;stroke-miterlimit:10;stroke-dasharray:3.588,3.588;" x1="25.3725" y1="36.3628" x2="181.4487" y2="36.3628"/>
				
					<line style="fill:none;stroke:#8562A3;stroke-width:0.4399;stroke-linecap:round;stroke-miterlimit:10;" x1="183.2432" y1="36.3628" x2="185.0024" y2="36.3628"/>
			</g>
		</g>
		<g>
			<g>
				
					<line style="fill:none;stroke:#8562A3;stroke-width:0.4399;stroke-linecap:round;stroke-miterlimit:10;" x1="20.0249" y1="41.4043" x2="21.7842" y2="41.4043"/>
				
					<line style="fill:none;stroke:#8562A3;stroke-width:0.4399;stroke-linecap:round;stroke-miterlimit:10;stroke-dasharray:3.588,3.588;" x1="25.3725" y1="41.4043" x2="181.4487" y2="41.4043"/>
				
					<line style="fill:none;stroke:#8562A3;stroke-width:0.4399;stroke-linecap:round;stroke-miterlimit:10;" x1="183.2432" y1="41.4043" x2="185.0024" y2="41.4043"/>
			</g>
		</g>
		<g>
			<g>
				
					<line style="fill:none;stroke:#8562A3;stroke-width:0.4399;stroke-linecap:round;stroke-miterlimit:10;" x1="20.0249" y1="46.4458" x2="21.7842" y2="46.4458"/>
				
					<line style="fill:none;stroke:#8562A3;stroke-width:0.4399;stroke-linecap:round;stroke-miterlimit:10;stroke-dasharray:3.588,3.588;" x1="25.3725" y1="46.4458" x2="181.4487" y2="46.4458"/>
				
					<line style="fill:none;stroke:#8562A3;stroke-width:0.4399;stroke-linecap:round;stroke-miterlimit:10;" x1="183.2432" y1="46.4458" x2="185.0024" y2="46.4458"/>
			</g>
		</g>
		<g>
			<g>
				
					<line style="fill:none;stroke:#8562A3;stroke-width:0.4399;stroke-linecap:round;stroke-miterlimit:10;" x1="20.0249" y1="51.4873" x2="21.7842" y2="51.4873"/>
				
					<line style="fill:none;stroke:#8562A3;stroke-width:0.4399;stroke-linecap:round;stroke-miterlimit:10;stroke-dasharray:3.588,3.588;" x1="25.3725" y1="51.4873" x2="181.4487" y2="51.4873"/>
				
					<line style="fill:none;stroke:#8562A3;stroke-width:0.4399;stroke-linecap:round;stroke-miterlimit:10;" x1="183.2432" y1="51.4873" x2="185.0024" y2="51.4873"/>
			</g>
		</g>
		<g>
			<g>
				
					<line style="fill:none;stroke:#8562A3;stroke-width:0.4399;stroke-linecap:round;stroke-miterlimit:10;" x1="20.0249" y1="56.5288" x2="21.7842" y2="56.5288"/>
				
					<line style="fill:none;stroke:#8562A3;stroke-width:0.4399;stroke-linecap:round;stroke-miterlimit:10;stroke-dasharray:3.588,3.588;" x1="25.3725" y1="56.5288" x2="181.4487" y2="56.5288"/>
				
					<line style="fill:none;stroke:#8562A3;stroke-width:0.4399;stroke-linecap:round;stroke-miterlimit:10;" x1="183.2432" y1="56.5288" x2="185.0024" y2="56.5288"/>
			</g>
		</g>
		<g>
			<g>
				
					<line style="fill:none;stroke:#8562A3;stroke-width:0.4399;stroke-linecap:round;stroke-miterlimit:10;" x1="20.0249" y1="61.5698" x2="21.7842" y2="61.5698"/>
				
					<line style="fill:none;stroke:#8562A3;stroke-width:0.4399;stroke-linecap:round;stroke-miterlimit:10;stroke-dasharray:3.588,3.588;" x1="25.3725" y1="61.5698" x2="181.4487" y2="61.5698"/>
				
					<line style="fill:none;stroke:#8562A3;stroke-width:0.4399;stroke-linecap:round;stroke-miterlimit:10;" x1="183.2432" y1="61.5698" x2="185.0024" y2="61.5698"/>
			</g>
		</g>
		<g>
			<g>
				
					<line style="fill:none;stroke:#8562A3;stroke-width:0.4399;stroke-linecap:round;stroke-miterlimit:10;" x1="20.0249" y1="66.6118" x2="21.7842" y2="66.6118"/>
				
					<line style="fill:none;stroke:#8562A3;stroke-width:0.4399;stroke-linecap:round;stroke-miterlimit:10;stroke-dasharray:3.588,3.588;" x1="25.3725" y1="66.6118" x2="181.4487" y2="66.6118"/>
				
					<line style="fill:none;stroke:#8562A3;stroke-width:0.4399;stroke-linecap:round;stroke-miterlimit:10;" x1="183.2432" y1="66.6118" x2="185.0024" y2="66.6118"/>
			</g>
		</g>
		<g>
			<g>
				
					<line style="fill:none;stroke:#8562A3;stroke-width:0.4399;stroke-linecap:round;stroke-miterlimit:10;" x1="20.0249" y1="71.6528" x2="21.7842" y2="71.6528"/>
				
					<line style="fill:none;stroke:#8562A3;stroke-width:0.4399;stroke-linecap:round;stroke-miterlimit:10;stroke-dasharray:3.588,3.588;" x1="25.3725" y1="71.6528" x2="181.4487" y2="71.6528"/>
				
					<line style="fill:none;stroke:#8562A3;stroke-width:0.4399;stroke-linecap:round;stroke-miterlimit:10;" x1="183.2432" y1="71.6528" x2="185.0024" y2="71.6528"/>
			</g>
		</g>
		<g>
			<g>
				
					<line style="fill:none;stroke:#8562A3;stroke-width:0.4399;stroke-linecap:round;stroke-miterlimit:10;" x1="20.0249" y1="76.6939" x2="21.7842" y2="76.6939"/>
				
					<line style="fill:none;stroke:#8562A3;stroke-width:0.4399;stroke-linecap:round;stroke-miterlimit:10;stroke-dasharray:3.588,3.588;" x1="25.3725" y1="76.6939" x2="181.4487" y2="76.6939"/>
				
					<line style="fill:none;stroke:#8562A3;stroke-width:0.4399;stroke-linecap:round;stroke-miterlimit:10;" x1="183.2432" y1="76.6939" x2="185.0024" y2="76.6939"/>
			</g>
		</g>
	</g>
	<g>
		<polyline style="fill:none;stroke:#F48C37;stroke-width:1.7595;stroke-miterlimit:10;" points="20.0249,59.5425 45.8213,28.5156 
			72.9424,45.2222 97.4209,29.71 124.542,50.5918 151.6631,38.0625 181.4214,4.6499 		"/>
		<circle style="fill:#FFFFFF;stroke:#F48C37;stroke-width:1.7595;stroke-miterlimit:10;" cx="45.8211" cy="28.5157" r="3.5808"/>
		<circle style="fill:#FFFFFF;stroke:#F48C37;stroke-width:1.7595;stroke-miterlimit:10;" cx="72.8975" cy="45.2792" r="3.5808"/>
		<circle style="fill:#FFFFFF;stroke:#F48C37;stroke-width:1.7595;stroke-miterlimit:10;" cx="20.0248" cy="59.5424" r="3.581"/>
		<circle style="fill:#FFFFFF;stroke:#F48C37;stroke-width:1.7595;stroke-miterlimit:10;" cx="98.0444" cy="30.3061" r="3.5811"/>
		<circle style="fill:#FFFFFF;stroke:#F48C37;stroke-width:1.7595;stroke-miterlimit:10;" cx="124.1449" cy="50.6195" r="3.5808"/>
		<circle style="fill:#FFFFFF;stroke:#F48C37;stroke-width:1.7595;stroke-miterlimit:10;" cx="151.6578" cy="38.8529" r="3.5808"/>
		<circle style="fill:#FFFFFF;stroke:#F48C37;stroke-width:1.7595;stroke-miterlimit:10;" cx="181.4215" cy="4.6498" r="3.5808"/>
	</g>
	<g>
		<polyline style="fill:none;stroke:#F04946;stroke-width:1.7595;stroke-miterlimit:10;" points="20.0249,75.9497 51.2803,67.897 
			64.8408,54.7691 81.1831,68.4927 97.4209,51.7861 142.0425,67.2984 161.2202,43.8755 174.5381,48.207 181.4214,30.3062 		"/>
		<circle style="fill:#FFFFFF;stroke:#F04946;stroke-width:1.7595;stroke-miterlimit:10;" cx="181.4215" cy="30.3061" r="3.5809"/>
		<circle style="fill:#FFFFFF;stroke:#F04946;stroke-width:1.7595;stroke-miterlimit:10;" cx="174.9214" cy="48.86" r="3.5809"/>
		<circle style="fill:#FFFFFF;stroke:#F04946;stroke-width:1.7595;stroke-miterlimit:10;" cx="160.4072" cy="43.4576" r="3.5809"/>
		<circle style="fill:#FFFFFF;stroke:#F04946;stroke-width:1.7595;stroke-miterlimit:10;" cx="142.1919" cy="66.7043" r="3.5808"/>
		<circle style="fill:#FFFFFF;stroke:#F04946;stroke-width:1.7595;stroke-miterlimit:10;" cx="98.0444" cy="51.8739" r="3.5809"/>
		<circle style="fill:#FFFFFF;stroke:#F04946;stroke-width:1.7595;stroke-miterlimit:10;" cx="81.4408" cy="68.4773" r="3.5807"/>
		<circle style="fill:#FFFFFF;stroke:#F04946;stroke-width:1.7595;stroke-miterlimit:10;" cx="65.7358" cy="54.2003" r="3.581"/>
		<circle style="fill:#FFFFFF;stroke:#F04946;stroke-width:1.7595;stroke-miterlimit:10;" cx="51.5498" cy="67.7404" r="3.5808"/>
		<circle style="fill:#FFFFFF;stroke:#F04946;stroke-width:1.7595;stroke-miterlimit:10;" cx="20.0248" cy="75.9499" r="3.5807"/>
	</g>
	<g>
		<path style="fill:#8562A3;" d="M0.9287,0.6543H0.9146L0.1196,1.0835L0,0.6123l0.999-0.5347h0.5273v4.5723H0.9287V0.6543z"/>
		<path style="fill:#8562A3;" d="M6.2344,2.3145c0,1.5547-0.5771,2.4126-1.5898,2.4126c-0.8936,0-1.4985-0.8369-1.5122-2.3491
			C3.1323,0.8442,3.7935,0,4.7217,0C5.6855,0,6.2344,0.8584,6.2344,2.3145z M3.751,2.3848c0,1.189,0.3662,1.8643,0.9287,1.8643
			c0.6333,0,0.9355-0.7388,0.9355-1.9063c0-1.1255-0.2886-1.8643-0.9287-1.8643C4.145,0.4785,3.751,1.1396,3.751,2.3848z"/>
		<path style="fill:#8562A3;" d="M9.8447,2.3145c0,1.5547-0.5771,2.4126-1.5898,2.4126c-0.8936,0-1.4985-0.8369-1.5122-2.3491
			C6.7427,0.8442,7.4038,0,8.332,0C9.2959,0,9.8447,0.8584,9.8447,2.3145z M7.3613,2.3848c0,1.189,0.3662,1.8643,0.9287,1.8643
			c0.6333,0,0.9355-0.7388,0.9355-1.9063c0-1.1255-0.2886-1.8643-0.9287-1.8643C7.7554,0.4785,7.3613,1.1396,7.3613,2.3848z"/>
		<path style="fill:#8562A3;" d="M12.4771,1.3647c0,0.9639-0.5063,1.4424-1.0972,1.4424c-0.5698,0-1.062-0.4575-1.0693-1.3789
			C10.3105,0.5137,10.8101,0,11.415,0C12.0552,0,12.4771,0.4927,12.4771,1.3647z M10.8032,1.4072
			c-0.0142,0.5835,0.2036,1.0269,0.5908,1.0269c0.4077,0,0.5908-0.436,0.5908-1.041c0-0.5557-0.1616-1.02-0.5908-1.02
			C11.0068,0.373,10.8032,0.8301,10.8032,1.4072z M11.3379,4.7271L14.0249,0h0.3936l-2.687,4.7271H11.3379z M15.4526,3.2573
			c0,0.9634-0.5063,1.4419-1.0903,1.4419c-0.5698,0-1.062-0.4575-1.0693-1.3716c0-0.9219,0.4995-1.4351,1.1045-1.4351
			C15.0376,1.8926,15.4526,2.3848,15.4526,3.2573z M13.7783,3.2993c-0.0068,0.584,0.2183,1.0269,0.5981,1.0269
			c0.4082,0,0.5908-0.436,0.5908-1.041c0-0.5557-0.1616-1.02-0.5908-1.02C13.9897,2.2651,13.7783,2.7227,13.7783,3.2993z"/>
	</g>
	<g>
		<path style="fill:#8562A3;" d="M9.8447,79.2139c0,1.5537-0.5771,2.4121-1.5898,2.4121c-0.8936,0-1.4985-0.8369-1.5122-2.3496
			c0-1.5332,0.6611-2.377,1.5894-2.377C9.2959,76.8994,9.8447,77.7578,9.8447,79.2139z M7.3613,79.2842
			c0,1.1885,0.3662,1.8633,0.9287,1.8633c0.6333,0,0.9355-0.7383,0.9355-1.9063c0-1.125-0.2886-1.8633-0.9287-1.8633
			C7.7554,77.3779,7.3613,78.0391,7.3613,79.2842z"/>
		<path style="fill:#8562A3;" d="M12.4771,78.2637c0,0.9639-0.5063,1.4424-1.0972,1.4424c-0.5698,0-1.062-0.457-1.0693-1.3789
			c0-0.9141,0.4995-1.4277,1.1045-1.4277C12.0552,76.8994,12.4771,77.3916,12.4771,78.2637z M10.8032,78.3057
			c-0.0142,0.584,0.2036,1.0273,0.5908,1.0273c0.4077,0,0.5908-0.4365,0.5908-1.041c0-0.5557-0.1616-1.0205-0.5908-1.0205
			C11.0068,77.2715,10.8032,77.7295,10.8032,78.3057z M11.3379,81.626l2.687-4.7266h0.3936l-2.687,4.7266H11.3379z M15.4526,80.1563
			c0,0.9639-0.5063,1.4414-1.0903,1.4414c-0.5698,0-1.062-0.457-1.0693-1.3711c0-0.9219,0.4995-1.4355,1.1045-1.4355
			C15.0376,78.791,15.4526,79.2842,15.4526,80.1563z M13.7783,80.1982c-0.0068,0.584,0.2183,1.0273,0.5981,1.0273
			c0.4082,0,0.5908-0.4365,0.5908-1.041c0-0.5557-0.1616-1.0205-0.5908-1.0205C13.9897,79.1641,13.7783,79.6211,13.7783,80.1982z"/>
	</g>
</g>
</svg>
