<?xml version="1.0" encoding="utf-8"?>
<!-- Generator: Adobe Illustrator 21.0.2, SVG Export Plug-In . SVG Version: 6.00 Build 0)  -->
<svg version="1.1" id="Capa_1" xmlns="http://www.w3.org/2000/svg" xmlns:xlink="http://www.w3.org/1999/xlink" x="0px" y="0px"
	 viewBox="0 0 341.8117 40.9182" style="enable-background:new 0 0 341.8117 40.9182;" xml:space="preserve">
<g>
	<g>
		<g>
			<rect x="31.0541" y="8.6555" style="fill:#EB7F03;" width="310.7576" height="23.6067"/>
		</g>
		<path style="fill:#EB7F03;" d="M40.7502,17.7992c1.6867,13.383-9.5679,24.6377-22.951,22.951
			C8.6807,39.6008,1.3172,32.2374,0.168,23.119C-1.5187,9.736,9.7358-1.5187,23.1189,0.168
			C32.2375,1.3171,39.6009,8.6807,40.7502,17.7992z"/>
		<path style="fill:#F2F6E1;" d="M37.3254,18.2482c1.4019,11.1242-7.9531,20.4792-19.0772,19.0771
			C10.6687,36.3701,4.5481,30.2495,3.5927,22.67C2.1908,11.5459,11.5457,2.1907,22.6699,3.5926
			C30.2495,4.5478,36.3702,10.6686,37.3254,18.2482z"/>
		<g>
			<path style="fill:#EB7F03;" d="M19.1892,21.3631c0,3.1475-0.4961,5.498-1.4883,7.0508s-2.5098,2.3291-4.5527,2.3291
				c-1.96,0-3.4502-0.7949-4.4717-2.3857c-1.0215-1.5898-1.5322-3.9209-1.5322-6.9941c0-3.1719,0.4941-5.5264,1.4824-7.0625
				s2.4951-2.3047,4.5215-2.3047c1.9766,0,3.4775,0.8018,4.5029,2.4043S19.1892,18.324,19.1892,21.3631z M9.2371,21.3631
				c0,2.6494,0.3115,4.5781,0.9346,5.7861c0.6221,1.208,1.6143,1.8125,2.9766,1.8125c1.3789,0,2.377-0.6123,2.9961-1.8369
				c0.6182-1.2256,0.9277-3.1455,0.9277-5.7617c0-2.6152-0.3096-4.5313-0.9277-5.748c-0.6191-1.2168-1.6172-1.8252-2.9961-1.8252
				c-1.3623,0-2.3545,0.6006-2.9766,1.7998C9.5486,16.7899,9.2371,18.7147,9.2371,21.3631z"/>
			<path style="fill:#EB7F03;" d="M32.991,16.5682c0,1.1621-0.3262,2.1133-0.9775,2.8525
				c-0.6523,0.7383-1.5762,1.2324-2.7725,1.4814v0.0996c1.4619,0.1836,2.5459,0.6484,3.252,1.3955
				c0.7051,0.7471,1.0586,1.7275,1.0586,2.9395c0,1.7363-0.6025,3.0703-1.8066,4.0049c-1.2041,0.9346-2.9141,1.4014-5.1318,1.4014
				c-0.9629,0-1.8457-0.0723-2.6465-0.2178c-0.8018-0.1455-1.5801-0.4004-2.3359-0.7666v-1.9678
				c0.7891,0.3906,1.6299,0.6875,2.5225,0.8906c0.8926,0.2041,1.7373,0.3057,2.5352,0.3057c3.1465,0,4.7207-1.2334,4.7207-3.7002
				c0-2.209-1.7354-3.3135-5.207-3.3135H24.408v-1.7813h1.8193c1.4199,0,2.5449-0.3135,3.375-0.9404
				c0.8311-0.627,1.2461-1.4961,1.2461-2.6094c0-0.8887-0.3057-1.5859-0.916-2.0928c-0.6104-0.5059-1.4385-0.7598-2.4844-0.7598
				c-0.7979,0-1.5488,0.1084-2.2549,0.3242s-1.5117,0.6143-2.417,1.1953l-1.0459-1.3945c0.7471-0.5898,1.6084-1.0527,2.585-1.3896
				c0.9756-0.3359,2.0029-0.5039,3.083-0.5039c1.7686,0,3.1426,0.4043,4.123,1.2148C32.5007,14.0457,32.991,15.1561,32.991,16.5682z
				"/>
		</g>
	</g>
	<g>
		<g>
			<path style="fill:#FFFFFF;" d="M144.2459,20.3154h1.8604c0.0098,0.3223,0.0146,0.5078,0.0146,0.5566
				c0,0.5566-0.106,1.0364-0.3188,1.4392c-0.2119,0.4028-0.6274,0.8557-1.2451,1.3586s-0.9873,0.8545-1.1094,1.0547
				s-0.1831,0.4272-0.1831,0.6812c0,0.376,0.1611,0.7068,0.4834,0.9924s0.7544,0.4285,1.2964,0.4285
				c0.5225,0,0.957-0.1453,1.3037-0.4358s0.5908-0.7483,0.7324-1.3733l1.8896,0.2417c-0.083,0.6104-0.2563,1.1182-0.52,1.5234
				c-0.3613,0.5518-0.8315,0.9595-1.4097,1.2231c-0.5791,0.2637-1.2173,0.3955-1.9155,0.3955c-1.1768,0-2.1157-0.3088-2.8159-0.9265
				c-0.7012-0.6177-1.0513-1.3318-1.0513-2.1423c0-0.3125,0.062-0.6165,0.187-0.9119c0.124-0.2954,0.3193-0.592,0.5859-0.8899
				c0.2656-0.2979,0.6895-0.686,1.2705-1.1646c0.4248-0.3418,0.6895-0.6262,0.7949-0.8533
				C144.2005,21.2858,144.2507,20.8867,144.2459,20.3154z M146.1062,17.5468v2.0581h-2.0581v-2.0581H146.1062z"/>
			<path style="fill:#FFFFFF;" d="M157.6419,21.3774l2.1021,0.6665c-0.3223,1.1719-0.8584,2.0422-1.6074,2.6111
				c-0.75,0.5688-1.7007,0.8533-2.853,0.8533c-1.4258,0-2.5977-0.4871-3.5156-1.4612s-1.377-2.3059-1.377-3.9954
				c0-1.7871,0.4614-3.175,1.3843-4.1638s2.1362-1.4832,3.6401-1.4832c1.3135,0,2.3804,0.3882,3.2007,1.1646
				c0.4883,0.459,0.8545,1.1182,1.0986,1.9775l-2.146,0.5127c-0.127-0.5566-0.3921-0.9961-0.7944-1.3184
				c-0.4033-0.3223-0.8926-0.4834-1.4688-0.4834c-0.7959,0-1.4419,0.2856-1.9375,0.8569s-0.7432,1.4966-0.7432,2.7759
				c0,1.3574,0.2441,2.3242,0.7324,2.9004s1.123,0.8643,1.9043,0.8643c0.5762,0,1.0718-0.1831,1.4868-0.5493
				S157.4612,22.1635,157.6419,21.3774z"/>
			<path style="fill:#FFFFFF;" d="M166.7092,25.3251v-1.1646c-0.2832,0.415-0.6553,0.7422-1.1172,0.9814
				c-0.4609,0.2393-0.9482,0.3589-1.4609,0.3589c-0.5225,0-0.9912-0.1147-1.4063-0.3442s-0.7153-0.5518-0.9009-0.9668
				s-0.2783-0.9888-0.2783-1.7212v-4.9219h2.0581v3.5742c0,1.0938,0.0376,1.7639,0.1133,2.0105s0.2139,0.4419,0.4141,0.5859
				s0.4541,0.2161,0.7617,0.2161c0.3516,0,0.6665-0.0964,0.9448-0.2893s0.4688-0.4321,0.5713-0.7178s0.1538-0.9851,0.1538-2.0984
				v-3.2813h2.0581v7.7783H166.7092z"/>
			<path style="fill:#FFFFFF;" d="M172.2903,19.9199l-1.8677-0.3369c0.21-0.752,0.5713-1.3086,1.084-1.6699
				s1.2744-0.542,2.2852-0.542c0.918,0,1.6016,0.1086,2.0508,0.3259s0.7656,0.4932,0.9482,0.8276
				c0.1836,0.3345,0.2749,0.9485,0.2749,1.842l-0.022,2.4023c0,0.6836,0.0332,1.1877,0.0986,1.5125
				c0.0664,0.3247,0.1895,0.6726,0.3701,1.0437h-2.0361c-0.0537-0.1367-0.1196-0.3394-0.1978-0.6079
				c-0.0342-0.1221-0.0586-0.2026-0.0732-0.2417c-0.3516,0.3418-0.7275,0.5981-1.1279,0.769s-0.8276,0.2563-1.2817,0.2563
				c-0.8008,0-1.4316-0.2173-1.8936-0.6519c-0.4609-0.4346-0.6919-0.9839-0.6919-1.6479c0-0.4395,0.105-0.8313,0.3149-1.1755
				s0.5039-0.6079,0.8828-0.791c0.3779-0.1831,0.9238-0.343,1.6367-0.4797c0.9619-0.1807,1.6284-0.3491,1.9995-0.5054v-0.2051
				c0-0.3955-0.0977-0.6775-0.293-0.8459s-0.564-0.2527-1.106-0.2527c-0.3662,0-0.6519,0.072-0.8569,0.2161
				S172.4173,19.5585,172.2903,19.9199z M175.0442,21.5898c-0.2637,0.0879-0.6812,0.1929-1.2524,0.3149
				s-0.9448,0.2417-1.1206,0.3589c-0.2686,0.1904-0.4028,0.4321-0.4028,0.7251c0,0.2881,0.1074,0.5371,0.3223,0.7471
				s0.4883,0.3149,0.8203,0.3149c0.3711,0,0.7251-0.1221,1.062-0.3662c0.249-0.1855,0.4126-0.4126,0.4907-0.6812
				c0.0537-0.1758,0.0806-0.5103,0.0806-1.0034V21.5898z M172.8176,16.5947l1.0107-2.1899h2.3071l-2.0142,2.1899H172.8176z"/>
			<path style="fill:#FFFFFF;" d="M186.1697,25.3251h-2.0581v-3.9697c0-0.8398-0.0439-1.3831-0.1318-1.6296
				s-0.2305-0.4382-0.4287-0.575c-0.1973-0.1367-0.4355-0.2051-0.7139-0.2051c-0.3564,0-0.6763,0.0977-0.9595,0.293
				s-0.4775,0.4541-0.5825,0.7764s-0.1572,0.918-0.1572,1.7871v3.5229h-2.0581v-7.7783h1.9116v1.1426
				c0.6787-0.8789,1.5332-1.3184,2.5635-1.3184c0.4541,0,0.8691,0.0818,1.2451,0.2454s0.6602,0.3723,0.8535,0.6262
				c0.1924,0.2539,0.3267,0.542,0.4023,0.8643s0.1138,0.7837,0.1138,1.3843V25.3251z"/>
			<path style="fill:#FFFFFF;" d="M195.3909,25.3251h-1.9116v-1.1426c-0.3174,0.4443-0.6924,0.7751-1.124,0.9924
				c-0.4326,0.2173-0.8682,0.3259-1.3076,0.3259c-0.8936,0-1.6592-0.3601-2.2959-1.0803c-0.6377-0.7202-0.9561-1.7249-0.9561-3.0139
				c0-1.3184,0.3101-2.3206,0.9302-3.0066s1.4038-1.0291,2.3511-1.0291c0.8691,0,1.6211,0.3613,2.2559,1.084v-3.8672h2.0581V25.3251
				z M189.8977,21.2675c0,0.8301,0.1147,1.4307,0.3442,1.8018c0.332,0.5371,0.7959,0.8057,1.3916,0.8057
				c0.4736,0,0.8765-0.2014,1.2085-0.6042s0.498-1.0046,0.498-1.8054c0-0.8936-0.1611-1.5369-0.4834-1.9299
				s-0.7349-0.5896-1.2378-0.5896c-0.4883,0-0.8975,0.1941-1.2266,0.5823C190.0623,19.9162,189.8977,20.496,189.8977,21.2675z"/>
			<path style="fill:#FFFFFF;" d="M196.9436,21.3261c0-0.6836,0.1685-1.3452,0.5054-1.9849s0.814-1.1279,1.4321-1.4648
				c0.6172-0.3369,1.3071-0.5054,2.0688-0.5054c1.1768,0,2.1411,0.3821,2.8931,1.1462s1.1279,1.7297,1.1279,2.8967
				c0,1.1768-0.3799,2.1521-1.1387,2.926c-0.7598,0.7739-1.7153,1.1609-2.8677,1.1609c-0.7129,0-1.3931-0.1611-2.0396-0.4834
				c-0.6475-0.3223-1.1392-0.7947-1.4761-1.4172S196.9436,22.2197,196.9436,21.3261z M199.053,21.436
				c0,0.7715,0.1831,1.3623,0.5493,1.7725s0.8179,0.6152,1.355,0.6152s0.9873-0.2051,1.3516-0.6152
				c0.3633-0.4102,0.5454-1.0059,0.5454-1.7871c0-0.7617-0.1821-1.3477-0.5454-1.7578c-0.3643-0.4102-0.8145-0.6152-1.3516-0.6152
				s-0.9888,0.2051-1.355,0.6152S199.053,20.6645,199.053,21.436z"/>
			<path style="fill:#FFFFFF;" d="M211.0061,22.5566h-1.8677c-0.0049-0.2686-0.0073-0.4321-0.0073-0.4907
				c0-0.6055,0.1001-1.1035,0.3003-1.4941s0.6006-0.8301,1.2012-1.3184s0.9595-0.8081,1.0767-0.9595
				c0.1807-0.2393,0.271-0.5029,0.271-0.791c0-0.4004-0.1602-0.7434-0.4795-1.0291c-0.3203-0.2856-0.751-0.4285-1.293-0.4285
				c-0.5225,0-0.9595,0.1489-1.311,0.4468s-0.5933,0.752-0.7251,1.3623l-1.8896-0.2344c0.0537-0.874,0.4258-1.6162,1.1172-2.2266
				c0.6904-0.6104,1.5977-0.9155,2.7207-0.9155c1.1816,0,2.1216,0.3088,2.8198,0.9265c0.6982,0.6177,1.0474,1.3367,1.0474,2.157
				c0,0.4541-0.1279,0.8838-0.3848,1.2891c-0.2559,0.4053-0.8042,0.957-1.644,1.6553c-0.4346,0.3613-0.7046,0.6519-0.8091,0.8716
				C211.0437,21.5971,210.9964,21.9902,211.0061,22.5566z M209.1384,25.3251V23.267h2.0581v2.0581H209.1384z"/>
		</g>
	</g>
</g>
</svg>
