<?xml version="1.0" encoding="utf-8"?>
<!-- Generator: Adobe Illustrator 21.0.2, SVG Export Plug-In . SVG Version: 6.00 Build 0)  -->
<svg version="1.1" id="Capa_1" xmlns="http://www.w3.org/2000/svg" xmlns:xlink="http://www.w3.org/1999/xlink" x="0px" y="0px"
	 viewBox="0 0 264.1335 339.9764" style="enable-background:new 0 0 264.1335 339.9764;" xml:space="preserve">
<g>
	
		<rect x="6.1306" y="4.671" transform="matrix(0.9986 -0.0523 0.0523 0.9986 -6.3661 5.3257)" style="fill:#ECECEC;" width="184.7694" height="239.1139"/>
	<g>
		<rect x="6.1306" y="4.6707" style="fill:#FDFDFD;" width="184.7693" height="239.1143"/>
		<g>
			<g>
				<g>
					<rect x="32.7664" y="31.307" style="fill:#C6C6C5;" width="131.4972" height="2.9451"/>
				</g>
				<g>
					<rect x="32.7664" y="37.1973" style="fill:#C6C6C5;" width="131.4972" height="2.9451"/>
				</g>
				<g>
					<rect x="32.7664" y="43.0875" style="fill:#C6C6C5;" width="131.4972" height="2.9451"/>
				</g>
				<g>
					<path style="fill:#C6C6C5;" d="M40.088,62.1894h-7.3216v-7.3215h7.3216V62.1894z M34.239,60.7169h4.3765v-4.3764H34.239
						V60.7169z"/>
				</g>
				<rect x="45.9782" y="57.0561" style="fill:#C6C6C5;" width="52.5371" height="2.9451"/>
				<g>
					<path style="fill:#C6C6C5;" d="M40.088,72.456h-7.3216v-7.3215h7.3216V72.456z M34.239,70.9835h4.3765v-4.3764H34.239V70.9835z
						"/>
				</g>
				<rect x="45.9782" y="67.3227" style="fill:#C6C6C5;" width="52.5371" height="2.9451"/>
				<g>
					<path style="fill:#C6C6C5;" d="M40.088,82.7227h-7.3216v-7.3216h7.3216V82.7227z M34.239,81.2502h4.3765v-4.3765H34.239
						V81.2502z"/>
				</g>
				<rect x="45.9782" y="77.5894" style="fill:#C6C6C5;" width="52.5371" height="2.9451"/>
			</g>
			<g>
				<g>
					<rect x="32.7664" y="165.733" style="fill:#C6C6C5;" width="131.4972" height="2.9451"/>
				</g>
				<g>
					<rect x="32.7664" y="171.6232" style="fill:#C6C6C5;" width="131.4972" height="2.9451"/>
				</g>
				<g>
					<rect x="32.7664" y="177.5134" style="fill:#C6C6C5;" width="131.4972" height="2.9451"/>
				</g>
				<g>
					<path style="fill:#C6C6C5;" d="M40.088,196.6154h-7.3216v-7.3215h7.3216V196.6154z M34.239,195.1428h4.3765v-4.3764H34.239
						V195.1428z"/>
				</g>
				<rect x="45.9782" y="191.4826" style="fill:#C6C6C5;" width="52.5371" height="2.9451"/>
				<g>
					<path style="fill:#C6C6C5;" d="M40.088,206.882h-7.3216v-7.3215h7.3216V206.882z M34.239,205.4095h4.3765v-4.3764H34.239
						V205.4095z"/>
				</g>
				<rect x="45.9782" y="201.7492" style="fill:#C6C6C5;" width="52.5371" height="2.9451"/>
				<g>
					<path style="fill:#C6C6C5;" d="M40.088,217.1487h-7.3216v-7.3215h7.3216V217.1487z M34.239,215.6761h4.3765v-4.3764H34.239
						V215.6761z"/>
				</g>
				<rect x="45.9782" y="212.0158" style="fill:#C6C6C5;" width="52.5371" height="2.9451"/>
			</g>
			<g>
				<g>
					<rect x="32.7664" y="98.5198" style="fill:#C6C6C5;" width="131.4972" height="2.9453"/>
				</g>
				<g>
					<rect x="32.7664" y="104.4102" style="fill:#C6C6C5;" width="131.4972" height="2.9442"/>
				</g>
				<g>
					<path style="fill:#C6C6C5;" d="M40.088,129.4034h-7.3216v-7.3215h7.3216V129.4034z M34.239,127.9308h4.3765v-4.3764H34.239
						V127.9308z"/>
				</g>
				<rect x="45.9782" y="124.2695" style="fill:#C6C6C5;" width="52.5371" height="2.9461"/>
				<g>
					<path style="fill:#C6C6C5;" d="M40.088,139.67h-7.3216v-7.3215h7.3216V139.67z M34.239,138.1974h4.3765v-4.3764H34.239
						V138.1974z"/>
				</g>
				<rect x="45.9782" y="134.5362" style="fill:#C6C6C5;" width="52.5371" height="2.9451"/>
				<g>
					<path style="fill:#C6C6C5;" d="M40.088,149.9366h-7.3216v-7.3215h7.3216V149.9366z M34.239,148.4641h4.3765v-4.3764H34.239
						V148.4641z"/>
				</g>
				<rect x="45.9782" y="144.8029" style="fill:#C6C6C5;" width="52.5371" height="2.9451"/>
				<rect x="32.7664" y="110.2995" style="fill:#C6C6C5;" width="65.7489" height="2.9451"/>
			</g>
			<g>
				
					<line style="fill:none;stroke:#D6490B;stroke-width:3;stroke-linecap:round;stroke-linejoin:round;stroke-miterlimit:10;" x1="34.239" y1="66.6071" x2="38.6155" y2="70.9835"/>
				
					<line style="fill:none;stroke:#D6490B;stroke-width:3;stroke-linecap:round;stroke-linejoin:round;stroke-miterlimit:10;" x1="38.6155" y1="66.6071" x2="34.239" y2="70.9835"/>
			</g>
			<g>
				
					<line style="fill:none;stroke:#D6490B;stroke-width:3;stroke-linecap:round;stroke-linejoin:round;stroke-miterlimit:10;" x1="34.239" y1="123.5544" x2="38.6155" y2="127.9308"/>
				
					<line style="fill:none;stroke:#D6490B;stroke-width:3;stroke-linecap:round;stroke-linejoin:round;stroke-miterlimit:10;" x1="38.6155" y1="123.5544" x2="34.239" y2="127.9308"/>
			</g>
			<g>
				
					<line style="fill:none;stroke:#D6490B;stroke-width:3;stroke-linecap:round;stroke-linejoin:round;stroke-miterlimit:10;" x1="34.239" y1="211.2997" x2="38.6155" y2="215.6761"/>
				
					<line style="fill:none;stroke:#D6490B;stroke-width:3;stroke-linecap:round;stroke-linejoin:round;stroke-miterlimit:10;" x1="38.6155" y1="211.2997" x2="34.239" y2="215.6761"/>
			</g>
		</g>
	</g>
	<g>
		<defs>
			<rect id="SVGID_3_" x="51.0593" y="93.5381" width="205.5858" height="202.7506"/>
		</defs>
		<clipPath id="SVGID_2_">
			<use xlink:href="#SVGID_3_"  style="overflow:visible;"/>
		</clipPath>
		<g style="clip-path:url(#SVGID_2_);">
			<path style="fill:#F6C8A2;" d="M123.4013,189.6121l-9.5361,7.7233l-47.6489-58.8407c-2.1326-2.6335-1.7266-6.497,0.9069-8.6301
				c2.6335-2.1321,6.497-1.7266,8.6296,0.9069L123.4013,189.6121z"/>
			<path style="fill:#FADEC7;" d="M77.3437,136.3922l-5.9602,4.827l-3.3794-4.1732c-1.3326-1.6451-1.0785-4.0601,0.5671-5.3926
				c1.6456-1.3335,4.0605-1.0795,5.3936,0.5666L77.3437,136.3922z"/>
			<path style="fill:#F6C8A2;" d="M134.7254,180.4422l-9.5361,7.7223l-28.4964-35.1898c-2.1331-2.6335-1.7266-6.4971,0.9069-8.6301
				c2.6338-2.1322,6.4973-1.7266,8.6304,0.9079L134.7254,180.4422z"/>
			<path style="fill:#F6C8A2;" d="M146.0504,171.2714l-9.5371,7.7223l-27.0476-33.4018c-2.1321-2.6326-1.7266-6.4961,0.9069-8.6292
				c2.6335-2.1321,6.497-1.7266,8.6292,0.907L146.0504,171.2714z"/>
			<path style="fill:#F6C8A2;" d="M157.3754,162.1005l-9.5371,7.7232l-24.1523-29.8259c-2.1322-2.6335-1.7266-6.4961,0.9079-8.6292
				c2.6325-2.1321,6.497-1.7266,8.6292,0.907L157.3754,162.1005z"/>
			<path style="fill:#F6C8A2;" d="M99.6861,174.9077l-7.2738,5.8892c-2.5779,2.088-2.9758,5.872-0.8877,8.4509l12.8036,15.8098
				l11.9415-9.6703L99.6861,174.9077z"/>
			<polygon style="fill:#F6C8A2;" points="154.0717,158.0213 101.0254,200.9784 104.3281,205.0576 127.212,211.6199 
				160.8977,184.3412 157.3754,162.1005 			"/>
			
				<rect x="157.3287" y="136.5306" transform="matrix(0.7772 -0.6293 0.6293 0.7772 -112.9345 167.2526)" style="fill:#F6C8A2;" width="44.7291" height="213.1182"/>
			<path style="fill:#F6C8A2;" d="M137.9005,147.8007l-33.9741,27.5116l-6.946-8.5764l4.7688-3.8616
				c0.3998,0.4937,1.1236,0.5704,1.6183,0.1697c0.4928-0.3988,0.5695-1.1236,0.1697-1.6174l9.5361-7.7223
				c0.3997,0.4938,1.1245,0.5695,1.6173,0.1697c0.4947-0.3997,0.5704-1.1245,0.1706-1.6182l9.5371-7.7223
				c0.3998,0.4937,1.1236,0.5695,1.6183,0.1697c0.4928-0.3997,0.5685-1.1236,0.1697-1.6173l4.7685-3.8616L137.9005,147.8007z"/>
			<path style="opacity:0.5;fill:#F6C8A2;" d="M107.021,188.8835L107.021,188.8835c-0.9884,0.7996-2.437,0.6471-3.2366-0.3403
				l-8.2919-10.2398l1.7879-1.4486L107.021,188.8835z"/>
		</g>
	</g>
</g>
</svg>
