<?xml version="1.0" encoding="utf-8"?>
<!-- Generator: Adobe Illustrator 21.0.2, SVG Export Plug-In . SVG Version: 6.00 Build 0)  -->
<svg version="1.1" id="Capa_1" xmlns="http://www.w3.org/2000/svg" xmlns:xlink="http://www.w3.org/1999/xlink" x="0px" y="0px"
	 viewBox="0 0 328.7355 741.3008" style="enable-background:new 0 0 328.7355 741.3008;" xml:space="preserve">
<g>
	<g>
		<path style="fill:#CE8452;stroke:#6B4429;stroke-miterlimit:10;" d="M24.2381,154.4528c0,0,3.7923,6.8816,4.7424,10.6129
			c0.9502,3.7313-7.8542,7.3532-8.8708,4.7856c-1.0166-2.5676-6.3461-11.3285-4.2717-12.2735
			C17.9124,156.6328,22.3604,153.4346,24.2381,154.4528z"/>
		<path style="fill:#FFA96A;stroke:#6B4429;stroke-linecap:round;stroke-linejoin:round;stroke-miterlimit:10;" d="
			M69.7904,245.6327c-10.4653-20.8974-30.1791-32.6553-29.7802-48.1815c1.3095-4.9925,1.4226-11.7927-0.5537-19.375
			c-1.9763-7.5824-1.8592-9.3588-3.6755-10.7625c-1.8163-1.4037-5.1022-3.9935-13.3499-0.5787
			c-8.2477,3.4149-18.0671,9.1473-15.8849,17.5195s7.8082,19.1834,11.6709,22.5172c7.5701,6.5335,21.5414,55.8931,29.4696,63.5042
			C55.615,277.887,80.2557,266.5301,69.7904,245.6327z"/>
		<path style="fill:#FFA96A;stroke:#6B4429;stroke-linecap:round;stroke-linejoin:round;stroke-miterlimit:10;" d="
			M26.0559,171.5267c-1.0677-4.0966-1.1664-11.8618-1.0354-14.0725c0.1469-2.4806-0.8138-7.2791-6.0991-5.854
			c-3.6587,0.9864-4.0066,3.5486-3.4563,7.3294c0.5303,3.6429,1.4841,12.5958,3.0448,16.4094
			c0.8078-0.0279,2.0159-0.2181,3.7087-0.8479C24.489,173.6463,25.5688,172.3558,26.0559,171.5267z"/>
		<path style="fill:#CE8452;stroke:#6B4429;stroke-miterlimit:10;" d="M24.7084,179.9238c3.3056-1.2297,3.258-3.638,1.7821-7.0745
			c-0.1606-0.3738-0.3045-0.8226-0.4347-1.3226c-0.4871,0.8291-1.5668,2.1196-3.8373,2.9643
			c-1.6928,0.6297-2.9009,0.8199-3.7087,0.8479c0.059,0.1444,0.1187,0.2836,0.1795,0.4126
			C20.357,179.2899,21.4029,181.1536,24.7084,179.9238z"/>
		<path style="fill:#FFA96A;stroke:#6B4429;stroke-linecap:round;stroke-linejoin:round;stroke-miterlimit:10;" d="
			M12.2144,181.8474c-1.5866-2.9553-2.9853-9.1252-3.2506-10.9286c-0.2977-2.0237-1.9138-5.5708-6.0893-2.8734
			c-2.8904,1.8672-2.7468,4.0153-1.6462,6.8711c1.0606,2.7516,3.3752,9.6173,5.3259,12.2011
			c0.6703-0.2607,1.6477-0.7691,2.9556-1.7713C11.2643,184.0019,11.9479,182.653,12.2144,181.8474z"/>
		<path style="fill:#CE8452;stroke:#6B4429;stroke-miterlimit:10;" d="M12.5116,188.9485c2.554-1.9572,2.1061-3.8658,0.2902-6.1736
			c-0.1975-0.251-0.3939-0.5668-0.5874-0.9276c-0.2665,0.8056-0.9501,2.1545-2.7045,3.4989
			c-1.3079,1.0023-2.2853,1.5107-2.9556,1.7713c0.0738,0.0979,0.1473,0.1914,0.22,0.2764
			C8.7677,189.7266,9.9576,190.9057,12.5116,188.9485z"/>
		<path style="fill:#FFA96A;stroke:#6B4429;stroke-linecap:round;stroke-linejoin:round;stroke-miterlimit:10;" d="
			M19.4712,177.3117c-1.6239-3.8269-3.3465-13.5459-3.5256-15.7517c-0.201-2.4752-1.8172-7.0154-6.83-4.5586
			c-3.47,1.7007-3.4559,4.2963-2.3862,7.9148c1.0308,3.4865,3.7622,14.2063,5.8327,17.6561
			c0.7926-0.1883,1.9573-0.6162,3.5387-1.574C18.2217,179.7135,19.1065,178.2261,19.4712,177.3117z"/>
		<path style="fill:#CE8452;stroke:#6B4429;stroke-miterlimit:10;" d="M19.3133,185.8597c3.0879-1.8703,2.7053-4.2355,0.7709-7.3303
			c-0.2104-0.3367-0.4149-0.7505-0.613-1.2176c-0.3647,0.9144-1.2494,2.4018-3.3705,3.6865
			c-1.5813,0.9578-2.7461,1.3857-3.5387,1.574c0.0783,0.1307,0.1566,0.256,0.2346,0.3711
			C14.9342,186.1005,16.2253,187.73,19.3133,185.8597z"/>
		<path style="fill:#CE8452;" d="M29.9127,191.768c0,0-2.1389-1.488-2.2133-3.173s-2.3684,1.3117-4.3195,0.2748
			c-1.9511-1.0369-3.812-4.1483-3.812-4.1483s9.5035-3.9399,12.877-0.4372c3.3735,3.5026,3.7211,4.8363,3.7211,4.8363
			l-5.1513,2.2375L29.9127,191.768z"/>
		<path style="fill:#FFA96A;stroke:#6B4429;stroke-linecap:round;stroke-linejoin:round;stroke-miterlimit:10;" d="
			M32.0808,205.4263c0,0,7.2462-1.1362,9.4662-8.2003s2.8945-13.3799,1.1043-16.3529c-1.7902-2.9729-10.2803-6.0527-12.8662-5.9571
			c-2.5859,0.0956-5.0419,2.9154-6.7196,3.7128c-1.6777,0.7974-6.1884,0.7426-7.0902,2.2911
			c-0.9018,1.5485,1.9763,7.5824,5.9256,7.1529s4.8685-3.0242,8.0482-1.9544c0.7206,0.2424,1.3583,0.5099,1.9138,0.7787
			c1.8955,0.9171,2.8323,1.8487,2.8323,1.8487s-2.0409-2.4208-3.5399-0.3036c-1.499,2.1172-3.1292,5.3229-3.0168,9.0933"/>
		<path style="fill:#E8AD85;stroke:#7C5337;stroke-linecap:round;stroke-linejoin:round;stroke-miterlimit:10;" d="M21.0849,181.026
			c0.6191,0.7673,0.9371,1.5494,0.8632,2.3507c0,0-3.1094,1.7049-4.8174-0.8796"/>
		<path style="fill:#FFA96A;stroke:#6B4429;stroke-linecap:round;stroke-linejoin:round;stroke-miterlimit:10;" d="M37.5435,170.297
			c0,0-2.9491-15.8566-4.0159-20.5308c-1.0667-4.6742-10.409-25.1354-12.2801-28.2426c-1.871-3.1072-3.1666,7.3662-0.7203,14.4249
			s5.5197,17.6873,5.5197,17.6873s0.3782,6.4959,1.2326,12.486"/>
		<path style="fill:#CE8452;" d="M20.5272,135.9484c2.4463,7.0587,5.5197,17.6874,5.5197,17.6874s0.3782,6.4958,1.2327,12.486
			l1.2201,0.4964c0,0,0.423-9.415-0.5859-13.6248c-1.0089-4.2099-4.7581-14.055-5.7779-17.8148
			c-1.0198-3.7598-1.3367-7.789-1.3367-7.789l-1.011-3.1248C18.4909,125.9623,19.223,132.1852,20.5272,135.9484z"/>
	</g>
	<path style="fill:#CE8452;" d="M18.2171,206.7717c7.5701,6.5335,21.5413,55.8928,29.4695,63.5041
		c-6.9992-12.877-16.4405-42.8927-17.9442-44.2408c-1.7388-1.5586-1.6702-2.1342-2.8083-7.5853
		c-1.1381-5.451-3.6911-11.5933-5.3492-15.8689c-1.4457-3.7281-4.2952-5.2653-13.2865-12.9041
		C10.9826,196.7805,15.1537,204.1276,18.2171,206.7717z"/>
	<g>
		
			<path style="fill:#E1E9F5;stroke:#7788A1;stroke-width:0.691;stroke-linecap:round;stroke-linejoin:round;stroke-miterlimit:10;" d="
			M41.3128,202.2929c3.136,1.2348,4.5109,9.0059,4.5109,9.0059s-6.2898,13.2823-17.688,14.4058
			c-2.8285-1.2045-4.7662-10.8836-4.7662-10.8836C26.4393,214.9934,38.4715,211.7258,41.3128,202.2929z"/>
		<g>
			<path style="fill:#EDF2F9;" d="M43.514,214.0929c1.4657-1.6277,2.3097-2.7941,2.3097-2.7941s-1.3481-7.6932-4.4622-8.9837
				l-0.0789,0.0665c-0.416,1.3459-1.0221,2.5309-1.7612,3.5761C42.4076,208.4109,43.7904,210.3143,43.514,214.0929z"/>
			<path style="fill:#C7D7EE;" d="M23.3903,215.0038c0,0,1.9197,9.5207,4.7455,10.7008c0.8671-0.0857,1.7028-0.268,2.5135-0.5148
				c-1.6247-1.1985-1.7089-1.9672-3.3545-6.8987c-0.4028-1.2069-0.9492-2.2488-1.3344-3.5348
				C24.8724,214.9608,23.9725,215.035,23.3903,215.0038z"/>
		</g>
	</g>
	<g>
		<path style="fill:#619BBC;stroke:#2F4A56;stroke-linecap:round;stroke-linejoin:round;stroke-miterlimit:10;" d="
			M103.1156,166.3463c-0.971-0.3804-1.5728-1.0755-1.8752-1.867c-0.2495-0.1574-0.4802-0.3441-0.6837-0.5544
			c-5.5781,8.3392-10.6293,19.1468-14.2937,28.0165c-2.4533,5.9385-16.1458,37.9849-18.9865,46.1385
			c-4.1665-8.1536-22.5459-36.8519-22.5459-36.8519c-0.0001,8.8388-20.9288,19.0615-20.9288,19.0615s13.994,40.7511,27.0982,55.9204
			c9.92,11.4833,18.2703,9.7852,27.9287,3.9144c7.2617-4.4139,40.3066-54.1414,42.7234-66.4192
			c0.9492-4.821,1.2042-16.1888,0.5706-27.9041C118.3155,177.2885,112.5771,170.0526,103.1156,166.3463z"/>
		<path style="fill:#95B9FF;" d="M101.2334,164.4574c-0.1003-0.0635-0.2052-0.1198-0.2987-0.1928
			c-5.7276,8.4109-10.9247,19.5062-14.6716,28.5758c-2.4533,5.9385-16.1458,37.9849-18.9865,46.1385
			c-4.1665-8.1536-22.5459-36.8519-22.5459-36.8519c0,1.2171-0.4077,2.4604-1.0921,3.6997
			c0.1352,0.4839,0.2256,1.0091,0.2614,1.5893c0.2943,4.7782,8.1313,12.9859,12.9606,21.508s7.954,10.1438,9.9426,15.1564
			c1.9884,5.0127,3.1246,6.1489,2.5564,8.7056c0,0,1.7136-6.2558,0.4308-8.9514c-1.2828-2.6956,1.2736-6.3885,5.8189-15.4788
			c4.5451-9.0903,16.4761-44.202,20.7372-49.656c2.6387-3.3772,4.2247-8.2107,6.417-12.5332
			C101.9958,165.764,101.4937,165.1526,101.2334,164.4574z"/>
		<path style="opacity:0.4;fill:#545454;" d="M50.9001,275.6418c9.92,11.4833,18.2704,9.7852,27.9288,3.9144
			c7.2617-4.414,40.3064-53.5732,42.7234-65.851c0.3178-1.6145,0.557-3.9684,0.712-6.8185
			c-2.3719,2.2072-4.3421,4.0038-5.5346,5.0205c-5.7515,4.9034-21.5194,36.8552-28.9053,47.6499
			c-7.3859,10.7947-11.6469,15.0752-19.3169,19.6204c-7.6699,4.5451-11.6372-0.2841-17.8868-7.1018
			s-21.7192-50.0535-23.6692-51.7846c-0.4448-0.3947-0.7806-0.7336-1.0546-1.0919c-1.2876,0.6951-2.095,1.0905-2.095,1.0905
			S37.7959,260.4725,50.9001,275.6418z"/>
	</g>
	<path style="fill:#593A11;" d="M115.9253,719.9816c0,0-2.1581-5.7549-0.9592-6.9539c1.1989-1.1989,46.9985-1.4387,46.9985-1.4387
		l45.8715-19.9785c0,0,0.8872,6.7902,0.6474,8.4687c-0.2398,1.6785-6.2603,5.8724-16.7852,8.1528
		c-14.3873,3.1172-16.0658,7.4335-27.3359,11.7496C153.0925,724.2978,132.7105,723.3386,115.9253,719.9816z"/>
	<path style="fill:#593A11;" d="M293.219,675.7988c0,0-1.2649,16.7604,7.2734,25.6149
		c8.5383,8.8546,24.3499,13.4399,26.5635,21.3457c2.2137,7.9058-0.3162,10.2776-1.8974,12.3331
		c-1.5811,2.0555-19.2902,8.6964-37.6317,5.2178c-18.3415-3.4786-16.1279-15.4954-24.6662-18.974
		c-8.5383-3.4785-11.6227-7.5443-11.6227-7.5443s-2.7329-6.7177-0.2031-12.7261s5.8174-27.1645,5.8174-27.1645L293.219,675.7988z"/>
	<path style="fill:#76531E;stroke:#664614;stroke-miterlimit:10;" d="M293.219,670.1066c0,0-1.2649,16.7604,7.2734,25.6149
		c8.5383,8.8546,24.3499,12.6494,26.5635,20.5552c2.2137,7.9058,0.6325,12.6493,0.6325,12.6493s-21.8201,9.1708-40.1616,5.6922
		c-18.3415-3.4786-16.1279-15.4954-24.6662-18.974c-8.5383-3.4785-11.7006-13.9142-11.7006-13.9142s0-15.1791,2.5299-21.1876
		s3.1623-12.3331,3.1623-12.3331L293.219,670.1066z"/>
	<path style="fill:#76531E;stroke:#664614;stroke-miterlimit:10;" d="M164.1227,671.3254c0,0-1.9183,10.3109-11.9894,15.1067
		s-36.8067,7.5129-38.447,16.0421c-0.498,2.5894,0.6474,10.258,0.6474,10.258s23.4123,5.5917,38.7588,3.6734
		c15.3465-1.9183,17.7443-9.1119,26.6165-11.0302c8.8722-1.9183,25.8971-5.5151,27.5757-12.9486
		c-0.7134-9.0384-4.556-15.5862-4.556-15.5862l-3.1172-8.3926L164.1227,671.3254z"/>
	<path style="fill:#C39145;stroke:#664614;stroke-miterlimit:10;" d="M135.7351,323.5154c0,0-4.7435,67.3576,0,115.7412
		c4.7435,48.3836,10.4357,105.3055,15.1792,128.0743c4.7435,22.7687,13.2818,53.1271,6.6409,58.8193
		c-6.6409,5.6922-6.6409,14.2305-1.8974,24.6662c4.7435,10.4357,6.6409,25.6149,6.6409,25.6149s11.3844-10.4357,25.6149,0.9487
		c14.2305,11.3844,21.8201,12.3331,21.8201,12.3331s-0.9487-9.4869-0.9487-17.0765s-6.6409-15.1792-3.7948-34.1531
		c2.8461-18.974,4.7435-30.3584-0.9487-49.3323c-5.6922-18.974,2.8461-59.768,0-79.6907
		c-2.8461-19.9227-3.7948-112.8951-3.7948-112.8951l-10.4357-65.4602C189.8109,331.105,162.2986,338.6946,135.7351,323.5154z"/>
	<path style="opacity:0.4;fill:#545454;" d="M194.5544,593.8945c2.8461,24.6662,0,48.3836,3.7948,73.0498
		c0.9487,2.8461,3.7948,4.7435,3.7948,8.5383c-0.458,4.58,0.4198,8.7134,2.1881,12.4091c3.5607,1.5887,5.4015,1.8214,5.4015,1.8214
		s-0.9487-9.4869-0.9487-17.0765s-6.6409-15.1792-3.7948-34.1531c2.8461-18.974,4.7435-30.3584-0.9487-49.3323
		c-5.6922-18.974,2.8461-59.768,0-79.6907c-2.8461-19.9227-3.7948-112.8951-3.7948-112.8951l-10.4357-65.4602
		c0,0-3.05,0.8378-8.0896,1.3991c-4.8126,15.7939-2.5904,32.1869,5.2436,46.9845c-7.5896,0.9487-21.8201,5.6922-17.0766,11.3844
		c4.7435,5.6922,18.974-5.6922,23.7175,3.7948c5.6922,12.3331,5.6922,28.4609,2.8461,39.8453
		c-2.8461,9.487-6.6409,22.7688-3.7948,32.2557c3.7948,9.487,4.7435,20.8714,4.7435,31.3071
		C194.5544,530.3317,188.8622,561.6388,194.5544,593.8945z"/>
	<path style="fill:#CFAC81;" d="M198.2088,684.6486c-2.9067-1.7544-6.3422-4.1062-10.2953-7.2686
		c-14.2305-11.3844-25.6149-0.9487-25.6149-0.9487s-1.8974-15.1792-6.6409-25.6149c-4.7435-10.4357-4.7435-18.974,1.8974-24.6662
		c6.6409-5.6922-1.8974-36.0505-6.6409-58.8193c-4.7435-22.7688-10.4357-79.6907-15.1792-128.0743
		c-4.7435-48.3836,0-115.7412,0-115.7412l10.1958,4.7719c-2.1191,37.6859-15.4323,73.0834-6.401,111.918
		c5.6922,25.6149,0.9487,49.3323,7.5896,73.9985c2.8461,7.5896,5.6922,15.1792,6.6409,22.7687
		c4.7435,30.3584,2.8461,57.8707,14.2305,86.3316c2.8461,6.6409-2.8461,11.3844-6.6409,17.0766
		c-6.6409,8.5383,0,18.9739,5.6922,25.6148c6.6409,7.5896,19.9227-2.8461,26.5636,8.5383L198.2088,684.6486z"/>
	<path style="fill:#C39145;stroke:#664614;stroke-miterlimit:10;" d="M191.823,328.7782
		c-9.8282,2.4343-9.7218,40.3829,2.9913,53.8438c0,0,11.9653,50.8525,12.7131,72.5396c0.7478,21.6871,20.9393,62.07,22.4349,115.166
		c1.4957,53.096,9.7218,35.8959,9.7218,45.6177s-9.7218,17.2001-7.4783,30.6611c2.2435,13.461,16.4523,24.6785,14.9566,32.1567
		c-1.4957,7.4783,3.7392,14.2088,3.7392,14.2088s3.7392-11.9653,22.435-14.2088c18.6958-2.2435,20.9393,1.4957,20.9393,1.4957
		s6.7305-21.6871,2.9913-29.9132c-3.7391-8.2261-8.2261-6.7305-8.2261-15.7045c0-8.974-11.9653-88.9919-14.2088-116.6617
		c-2.2435-27.6697-10.4697-148.0706-10.4697-148.0706l-16.3439-52.9942C248.0187,316.9147,198.5118,327.1215,191.823,328.7782z"/>
	<path style="opacity:0.4;fill:#545454;" d="M245.7841,643.2269c-2.8461,0.9487-4.7435-2.8461-7.5896-1.8974
		c-0.9487-4.7435-1.8974-9.487,0.9487-13.2818c6.6409-7.5896,3.7948-17.0765,0.9487-25.6149
		c-13.2818-40.794-3.7948-87.2803-22.7688-128.0743c-0.9487-2.8461,0.9487-7.5896,0-10.4357
		c-1.8974-3.7948-6.6409-7.5896-6.6409-11.3844c-1.8974-22.7688-8.5383-45.5375-6.6409-67.3576
		c0-3.7948,9.487-2.8461,15.1792-5.6922c-5.6922-5.6922-15.1792,0.9487-18.974-4.7435c-2.8461-2.8461-4.7435-8.5383-6.6409-13.2818
		c-4.4815-7.4691-6.0219-16.1135-7.4008-24.5458c-3.2847,12.4854-0.7784,35.7644,8.6094,45.7045
		c0,0,11.9653,50.8525,12.7132,72.5396c0.7478,21.6871,20.9392,62.0699,22.4349,115.166
		c1.4957,53.096,9.7218,35.8959,9.7218,45.6177s-9.7218,17.2001-7.4784,30.6611c2.2436,13.461,16.4523,24.6784,14.9567,32.1567
		c-1.4957,7.4783,3.7392,14.2088,3.7392,14.2088s0.9276-2.9622,4.1603-6.2151c-1.7238-6.7386-4.9004-13.6874-6.4317-19.8126
		C246.7328,660.3035,246.7328,651.7651,245.7841,643.2269z"/>
	<path style="opacity:0.4;fill:#545454;" d="M297.2672,650.3456c-3.7392-8.2261-8.2262-6.7305-8.2262-15.7044
		c0-8.974-11.9653-88.9919-14.2088-116.6617c-2.2435-27.6698-10.4696-148.0706-10.4696-148.0706l-16.3439-52.9942
		c0,0-3.2624,0.6725-8.2194,1.6992c2.7043,12.436,10.028,22.2718,12.6257,35.2598c6.6409,34.1531,17.0766,65.4602,10.4357,99.6133
		c-2.8461,18.974-0.9487,38.8966,6.6409,55.9732c2.8461,5.6922-0.9487,14.2305-3.7948,19.9227
		c-2.8461,11.3843,6.6409,21.8201,10.4357,32.2557c1.8974,3.7948-2.8461,8.5383-2.8461,12.3331
		c-1.8974,24.6662,7.5896,46.4862,10.4357,71.1524c0.9487,3.7948,6.6409,6.6409,9.487,10.4357
		c4.8156,7.5674-2.8343,16.1307-4.1509,22.7996c4.4286,0.6099,5.2078,1.8994,5.2078,1.8994S301.0064,658.5718,297.2672,650.3456z"/>
	<path style="fill:none;stroke:#664614;stroke-miterlimit:10;" d="M177.4778,387.0782c0,0,28.461-7.5896,37.9479-6.6409"/>
	<path style="fill:#DEE0E2;stroke:#575A5B;stroke-miterlimit:10;" d="M162.9048,145.6481l20.2715,35.0318
		c0,0,5.795,134.176,3.9764,147.5123c-1.8186,13.3363-58.1949-6.6682-58.1949-6.6682l-9.0929-155.8715L162.9048,145.6481z"/>
	<path style="fill:#DEE0E2;stroke:#575A5B;stroke-miterlimit:10;" d="M209.9262,144.6994l-25.9637,35.0318
		c0,0,0.7654,133.3061,2.584,146.6424c1.8186,13.3363,62.0702-4.8496,62.0702-4.8496l-8.7248-158.2963L209.9262,144.6994z"/>
	<path style="fill:#76531E;stroke:#664614;stroke-miterlimit:10;" d="M135.1443,317.1451
		c-1.4742-0.9511-1.8428,5.9893-0.4607,6.9107c1.3821,0.9214,20.041,12.4392,55.9765,8.5232
		c35.9355-3.9161,54.5944-10.1357,57.3587-15.6642c2.7643-5.5286,0.2304-9.4446-0.9214-8.5232
		c-1.1518,0.9214-12.6555,14.2799-55.5158,16.816C152.6513,327.5111,142.2853,321.7522,135.1443,317.1451z"/>
	<path style="opacity:0.4;fill:#545454;" d="M176.5291,301.6954c-4.7435-55.4989-9.1385-140.5528-6.6409-151.7918
		c2.4975-11.239-6.9667-9.4775-6.9667-9.4775c-1.3078,0.8836-2.6555,1.7579-4.0271,2.6236c0,0-54.9751,33.2739-57.3137,34.6208
		c0.1861,1.5478,0.7867,3.29,2.0237,5.2141c5.6195,8.7414,24.3512,84.2926,23.7268,107.3951
		c-0.6244,23.1024,2.0791,120.8322,2.0791,120.8322s37.8819,13.4117,44.1257-9.0663
		C179.7801,379.5676,181.1989,356.3324,176.5291,301.6954z"/>
	<path style="fill:#619BBC;stroke:#2F4A56;stroke-miterlimit:10;" d="M159.1267,134.7339
		c-23.1024,15.6098-57.4439,28.722-57.4439,28.722s-7.4927,4.9951-1.8732,13.7366c5.6195,8.7415,24.3512,84.2927,23.7268,107.3951
		S121.0389,410.09,121.0389,410.09s42.4585,8.7415,48.7024-13.7366c6.2439-22.4781,9.9902-53.6976,2.4976-108.0195
		c-7.4927-54.322-14.9854-133.6195-12.4878-144.8586C162.2487,132.2364,159.1267,134.7339,159.1267,134.7339z"/>
	<path style="opacity:0.4;fill:#545454;" d="M215.5509,137.58c23.1024,15.6098,57.4439,32.5167,57.4439,32.5167
		s7.4927,4.9951,1.8732,13.7366s-28.5691,84.7972-23.7268,107.3951c5.0157,23.407,11.7448,68.3139,14.2517,100.7821
		c0,0-45.6206,32.7249-51.8645,10.2469c-6.2439-22.478-18.5823-52.9607-11.0896-107.2826
		c7.4927-54.322,14.9854-137.4143,12.4878-148.6534S215.5509,137.58,215.5509,137.58z"/>
	<path style="fill:#619BBC;stroke:#2F4A56;stroke-miterlimit:10;" d="M216.4996,129.9904
		c23.1024,15.6098,57.4439,32.5168,57.4439,32.5168s7.4927,4.9951,1.8732,13.7366c-5.6195,8.7415-24.3512,84.2927-23.7268,107.3951
		s17.554,100.2267,17.554,100.2267s-48.9228,33.2802-55.1667,10.8022c-6.2439-22.4781-18.5823-52.9607-11.0896-107.2826
		c7.4927-54.322,14.9854-137.4143,12.4878-148.6533S216.4996,129.9904,216.4996,129.9904z"/>
	<path style="opacity:0.4;fill:#545454;" d="M209.4173,131.2459c8.222,13.598,27.5123,50.281,24.0337,79.6907
		s-32.2558,112.2627-31.3071,131.5529c0,0-0.3162-47.7512-1.5812-80.0069c-1.2649-32.2558,7.2734-66.0927,6.3247-94.8699
		S209.4173,131.2459,209.4173,131.2459z"/>
	<path style="fill:#95B9FF;" d="M214.9174,132.5566c-0.1519-3.951,1.5822-2.5661,1.5822-2.5661
		c23.1025,15.6097,57.4439,32.5167,57.4439,32.5167s7.4927,4.9951,1.8732,13.7366c-0.4086,0.6357-0.8884,1.6343-1.4232,2.9306
		l-1.0971-10.7712c0,0-19.9227-8.0639-36.9992-17.5509C224.8869,144.5133,218.1413,136.9087,214.9174,132.5566z"/>
	<path style="fill:#619BBC;stroke:#2F4A56;stroke-miterlimit:10;" d="M207.5199,126.5024
		c8.2221,13.598,27.5123,50.281,24.0337,79.6907c-3.4786,29.4097-30.8327,110.3653-29.884,129.6555
		c0,0-1.7393-45.8538-3.0042-78.1095c-1.2649-32.2558,7.2734-66.0927,6.3247-94.8699S207.5199,126.5024,207.5199,126.5024z"/>
	<path style="opacity:0.4;fill:#545454;" d="M165.1447,128.5579c0,0-33.6,23.2082-27.1532,68.9982
		c0.6591,4.6818,16.1879,0.5066,16.1879,0.5066s-15.1895,7.5414-14.7963,10.1084c7.9364,51.8103,27.39,86.3993,30.5524,113.5954
		c0.2482,2.1346,5.4917,12.2562,5.6647,12.7621c2.0315,5.939-2.2151-93.1886-5.7121-116.7929
		C166.6004,195.5425,165.1447,128.5579,165.1447,128.5579z"/>
	<path style="fill:#FFA96A;stroke:#6B4429;stroke-miterlimit:10;" d="M206.8875,109.4258l0.3162,38.2642
		c-10.1041,11.1163-19.6294,22.1995-24.0274,32.99c-5.2906-12.0743-11.2003-19.5587-17.7154-22.5543l0.6325-38.5804
		L206.8875,109.4258z"/>
	<path style="fill:#619BBC;stroke:#2F4A56;stroke-miterlimit:10;" d="M165.1447,125.7118c0,0-31.7026,23.2082-25.2558,68.9982
		c0.6591,4.6818,16.1879,0.5066,16.1879,0.5066s-15.1895,7.5414-14.7963,10.1084c7.9364,51.8103,30.1888,94.7892,33.3511,121.9853
		c0.2482,2.1346,0.7955,3.8662,0.9686,4.3721c2.0315,5.939-2.2151-93.1886-5.7121-116.7929
		C166.6004,192.6964,165.1447,125.7118,165.1447,125.7118z"/>
	<path style="fill:#DEE0E2;stroke:#575A5B;stroke-miterlimit:10;" d="M167.9789,125.4671c0,0,0,25.7939,4.8799,30.1161
		c4.8799,4.3222,9.3289,18.3805,10.3112,27.5248c0,0-5.989-16.3707-23.2779-25.294
		C152.1896,153.8385,161.2864,128.9528,167.9789,125.4671z"/>
	<path style="fill:#518496;" d="M222.5419,179.2005c-2.0005,3.8342-6.738-3.2644-9.9053-9.0991
		c-3.1674-5.8346-7.1722-6.5652-7.1722-6.5652l-0.2194-3.6515c0,0,16.3743-12.0245,16.5338-10.8898
		C223.4633,160.9735,224.5423,175.3663,222.5419,179.2005z"/>
	<g>
		<path style="fill:#CE8757;stroke:#6B4429;stroke-width:0.9442;stroke-miterlimit:10;" d="M282.3163,399.4023
			c1.5967,4.7035-0.033,10.8155,0.1149,13.2571c0.1479,2.4416-5.9067,9.3385-6.6623,12.0943
			c-0.7556,2.7558-1.2411,10.209,2.8083,6.6194c4.0494-3.5896,10.3438-12.8515,10.3438-12.8515s1.8118-7.7467,2.1701-10.6371"/>
		<path style="fill:#CE8757;stroke:#6B4429;stroke-miterlimit:10;" d="M286.8778,399.1135
			c0.9085,5.7078,0.8531,14.2238,0.5437,17.0531c-0.3094,2.8293-8.6065,9.5515-10.0138,12.564
			c-1.4073,3.0125-3.4264,11.4654,1.9222,8.1428s14.2084-13.958,14.2084-13.958s4.3348-5.7576,5.3128-9.0022"/>
		<path style="fill:#EA9860;stroke:#6B4429;stroke-miterlimit:10;" d="M289.0802,412.3654
			c-0.3762,4.4652-1.1099,7.9167-2.0767,10.4362c-1.0197,2.6573-8.5392,9.6118-9.9253,12.6341
			c-1.3861,3.0222-3.3457,11.4892,1.9794,8.1291c5.3251-3.36,14.1099-14.0575,14.1099-14.0575s4.2943-5.7879,5.2494-9.0393"/>
		<path style="fill:#CC8352;" d="M280.1226,390.0425c0,0,4.9724,22.6682,14.6246,28.518c9.6523,5.8498,9.3597-7.8973,8.7748-14.0396
			c-0.585-6.1423-3.5099-15.0634-9.6523-15.3558C287.7274,388.8725,280.1226,390.0425,280.1226,390.0425z"/>
		<path style="fill:#FFA96A;stroke:#6B4429;stroke-miterlimit:10;" d="M276.9755,379.9391c0,0-3.0639,12.4208-2.9456,15.9026
			s-6.0105,14.6124-7.5171,18.1494c-1.5066,3.537,4.328,4.2684,7.9316,0.8925c3.6036-3.3759,7.5723-16.5246,11.5026-17.1229
			c0,0,1.3262,4.8352,2.6919,10.8309c1.3656,5.9958,1.9053,15.0406,1.7757,18.0661s-8.4658,10.7452-9.7481,14.0422
			c-1.2823,3.297-2.8318,12.4129,2.613,8.5097c5.4448-3.9032,14.1033-15.8169,14.1033-15.8169s4.1974-6.4171,5.0076-9.9305
			c0.8102-3.5134,2.9456-15.9026,1.0605-23.5075c-1.8851-7.6049-6.426-18.1406-5.3329-27.0085L276.9755,379.9391z"/>
		<path style="fill:#DEE0E2;stroke:#6C6D6D;stroke-miterlimit:10;" d="M300.3546,366.8888c0,0,3.4518,18.8578-0.0343,19.679
			c-3.486,0.8212-27.3768,0.9301-28.8762-1.8301s0.7362-19.7029,0.7362-19.7029L300.3546,366.8888z"/>
		<path style="fill:#619BBC;stroke:#2F4A56;stroke-miterlimit:10;" d="M275.3316,169.7589c0,0,10.6747,43.7084,12.4975,76.6771
			s12.9962,51.5643,15.2587,76.7875c2.2625,25.2232,0.3846,52.6955,0.3846,52.6955s-26.508,5.82-33.0642-0.9851
			c-6.5562-6.8051-8.0959-72.8141-11.2853-83.9503c-3.1894-11.1361-4.4071-45.3347-8.1278-55.2164
			c-3.932-10.4431-3.1061-35.6317,6.312-47.0173"/>
	</g>
	<path style="fill:#CE8452;" d="M166.0934,119.5452l-0.1393,8.4957c2.8852,2.9467,5.8646,4.8732,8.5124,5.044
		c7.4933,0.4834,29.248,0.7251,31.6652-2.659c0.2393-0.335,0.5518-0.8292,0.9173-1.4482l-0.1615-19.5521L166.0934,119.5452z"/>
	<path style="fill:#95B9FF;" d="M155.7919,141.2386l-0.6922-3.8811c-22.8572,14.4273-53.4168,26.0984-53.4168,26.0984
		s-4.5561,3.0386-3.8969,8.5225c2.3386-1.347,3.9752-3.3446,6.4799-3.4309C111.7371,168.2897,155.7919,141.2386,155.7919,141.2386z"
		/>
	<path style="fill:#DEE0E2;stroke:#575A5B;stroke-miterlimit:10;" d="M206.8875,119.8615c0,0,9.3601-0.1525,12.8609,11.0168
		s3.6675,40.0091,1.667,43.8433c-2.0005,3.8342-4.6677-1.0002-7.8351-6.8349c-3.1674-5.8347-8.3352-8.0018-8.3352-8.0018
		s-11.6693,4.3343-21.3382,20.5047c0,0,0.8335-14.3366,10.6691-22.3384C204.4115,150.0493,207.6631,128.8563,206.8875,119.8615z"/>
	<path style="fill:#D3D3D3;" d="M168.0387,128.027c0,0,0,23.7151,4.4866,27.689c4.4866,3.9739,9.3064,17.1434,10.2096,25.5507
		c0,0-6.2357-15.2955-22.1312-23.4997C153.5218,154.1119,161.8855,131.2317,168.0387,128.027z"/>
	<path style="fill:#DEE0E2;stroke:#575A5B;stroke-miterlimit:10;" d="M166.0934,119.5452c0,0-16.7603,13.2818-18.6577,19.2902
		s0.9487,9.8032,1.2649,18.3415c0.3162,8.5383,1.2649,21.1876,6.3246,21.8201c1.2086,0.8626,2.4039-13.9721,5.2261-20.872
		c0.4032-0.9857-1.036-10.1189,2.2845-15.8111C165.8562,136.6218,170.2045,121.7589,166.0934,119.5452z"/>
	<path style="fill:#EDEEEF;" d="M154.7171,136.3268c4.2826-4.2826,11.4202-14.9891,11.4202-14.9891l-2.4709,0.1922
		c-4.7137,3.9298-14.7849,12.7267-16.2308,17.3055c-1.8974,6.0084,0.9487,9.8032,1.265,18.3415
		c0.3162,8.5383,1.2649,21.1876,6.3246,21.8201c0.4609,0.329,0.9203-1.6304,1.4683-4.5563
		c-2.1984-4.255-3.5088-11.5547-4.9884-19.1992C149.3639,144.1782,150.4346,140.6094,154.7171,136.3268z"/>
	<path style="fill:#FFA96A;stroke:#6B4429;stroke-width:0.7398;stroke-miterlimit:10;" d="M150.0885,78.6125
		c0,0-4.2571-8.3647-7.1531-5.9013c-4.5914,3.9054,0.5634,15.0216,2.3517,20.3864s4.4438,2.6824,4.4438,2.6824"/>
	<path style="fill:#FFA96A;stroke:#6B4429;stroke-width:0.7398;stroke-miterlimit:10;" d="M213.4764,75.169
		c0,0,4.9578-7.1073,8.7132-4.0673c3.7554,3.0401,0.3577,17.1675-3.5766,21.1017c-3.9342,3.9342-5.5437-0.8941-5.5437-0.8941"/>
	<path style="fill:#FFA96A;stroke:#6B4429;stroke-miterlimit:10;" d="M180.824,10.6062
		c-18.6096,0.5815-32.8738,5.8013-33.3572,19.5792c-0.4834,13.778,1.2086,32.8738,3.1423,38.4333s-3.8675,21.513-0.7252,33.5989
		s13.2945,26.5891,20.7878,27.0725c7.4933,0.4834,29.248,0.7252,31.6652-2.6589s12.086-22.4799,12.5694-32.6321
		c0.4834-10.1522,0.0993-21.4346-2.0895-30.19c-2.1346-8.5383,5.2319-30.9649,0.1558-39.1833S196.294,10.1227,180.824,10.6062z"/>
	<path style="opacity:0.4;fill:#3F4142;" d="M166.941,30.0228c6.1665-3.311,14.5688-7.7192,24.7673-6.3558
		c10.1985,1.3634,23.9546,13.0493,7.1152,28.0463c0,0-0.4743-0.9738,0-2.9215s7.8268-20.6452-9.2498-21.2295
		S166.941,30.0228,166.941,30.0228z"/>
	<path style="fill:#564F4C;stroke:#473F3D;stroke-miterlimit:10;" d="M168.9797,54.599c0,0-2.1755-3.1423-9.1853-2.6589
		c-7.0098,0.4834-8.2184,7.2516-8.2184,7.2516s1.2086,0.4834,3.1423-0.4834c1.9337-0.9669,7.735-3.3841,10.1522-2.9006
		C167.2877,56.2911,168.9797,54.599,168.9797,54.599z"/>
	<path style="fill:#564F4C;stroke:#473F3D;stroke-miterlimit:10;" d="M187.1087,53.3904c-1.0633-2.3392,7.4933-2.9006,9.427-2.6589
		s2.1755,2.6589,5.0761,3.1423c2.9006,0.4834,3.3841,2.4172,2.6589,3.1423c-0.7252,0.7252-5.5595,0.2417-8.7019-1.9338
		S188.3173,56.0494,187.1087,53.3904z"/>
	<path style="fill:#CE8452;" d="M169.0136,93.4012c0.1622,1.5223,1.0109,5.7363,6.6439,5.7803
		c6.4949,0.0507,9.7337-5.9365,9.7337-5.9365"/>
	<path style="fill:#FFA96A;stroke:#6B4429;stroke-linecap:round;stroke-linejoin:round;stroke-miterlimit:10;" d="M175.3193,65.4489
		c0,0,0.1406,11.2442-2.9515,17.4285c-3.0921,6.1843-5.341,11.5253-0.4217,13.2822c4.9193,1.7569,8.1923,0.4864,11.1036-1.4055
		c2.0878-1.3568,2.4597-2.038,2.4597-2.038"/>
	
		<path style="fill:#FFA96A;stroke:#6B4429;stroke-width:0.8981;stroke-linecap:round;stroke-linejoin:round;stroke-miterlimit:10;" d="
		M170.6007,107.1409c3.3916,5.709,18.3586,2.6185,21.3513,0.4809"/>
	<path style="fill:#CE8452;" d="M177.3197,115.4342c2.688-1.423,8.5383-4.4273,13.7561-2.0555"/>
	<path style="fill:#FFA96A;stroke:#6B4429;stroke-width:0.7398;stroke-miterlimit:10;" d="M146.3982,79.116
		c-2.7912-0.8588-1.9324,5.153,0.2147,6.4413s1.2883,4.2942,1.0735,5.5825"/>
	<path style="fill:#FFA96A;stroke:#6B4429;stroke-width:0.7398;stroke-miterlimit:10;" d="M218.0721,77.2186
		c2.7912-0.8588,1.9324,5.153-0.2147,6.4413c-2.1471,1.2883-1.2883,4.2942-1.0735,5.5825"/>
	<path style="fill:#FCBD92;" d="M153.128,103.7336c-3.1424-12.0859,2.2611-27.6579,0.3273-33.2175
		c-1.4138-4.0646-1.2637-17.0353-1.118-27.6573c0.0536-3.9066-1.2368-2.9361-1.1068-6.6409
		c0.076-2.1654,2.7584-4.0925,3.4786-5.8503c-0.7426,0.3512-3.7275-1.5723-4.4906-1.2439
		c-0.9628,0.4142-1.8859,0.3589-2.6828,0.0402c-0.0295,0.3364-0.0567,0.6743-0.0689,1.0215
		c-0.4834,13.778,1.2086,32.8738,3.1423,38.4333c1.9337,5.5596-3.8675,21.513-0.7251,33.599
		c2.3034,8.8592,8.3732,19.0102,14.4014,23.9931c1.1847,0.8624,4.5137,2.877,6.9436,2.6608
		C160.5198,124.4666,154.1588,107.6983,153.128,103.7336z"/>
	<path style="fill:#CE8452;" d="M212.7136,54.6358c-0.2165-1.1429-0.486-2.2755-0.9337-3.3761
		c-0.2372-0.583-0.4352-1.1551-0.61-1.7241c-0.605,4.991-0.9739,9.4823-0.2504,12.3763c2.1889,8.7554,2.573,20.0378,2.0895,30.19
		c-0.4834,10.1522-10.1522,29.248-12.5694,32.632c-2.0147,2.8206-20.8555,4.1503-31.4156,4.2353
		c0.5602,0.1723,1.1114,0.2864,1.6478,0.321c7.4933,0.4834,29.248,0.7251,31.6652-2.659c2.4172-3.384,12.086-22.4798,12.5694-32.632
		c0.4834-10.1522,0.0994-21.4346-2.0895-30.19C212.2523,61.5511,212.3549,58.317,212.7136,54.6358z"/>
	<path style="fill:#564F4C;stroke:#473F3D;stroke-linecap:round;stroke-linejoin:round;stroke-miterlimit:10;" d="M148.3844,23.4105
		c0,0-5.6922,9.8032-9.8032,12.0168c-4.111,2.2136-2.5299,5.6922,1.2649,10.7519c3.7948,5.0597,10.1194,32.2558,10.1194,32.2558
		s2.2136-6.9571,0.9487-11.7006c-1.2649-4.7435-1.2649-12.0168,1.2649-17.709s-5.0597-7.0362-3.1623-14.3886
		C150.6611,28.2651,151.1514,24.6754,148.3844,23.4105z"/>
	<path style="fill:#564F4C;stroke:#473F3D;stroke-miterlimit:10;" d="M210.266,22.2353c0,0,3.8396,9.1545,8.1595,10.9263
		c4.3199,1.7718,3.111,5.3966-0.1342,10.8252c-3.2451,5.4287-3.8464,33.1368-3.8464,33.1368s-1.3972-6.6888-2.1665-11.5374
		c-0.5583-3.5189-1.0928-10.98-3.109-17.4798c-1.8455-5.9494,4.2965-7.5265,1.641-14.6403
		C208.5092,27.3013,207.6463,23.7826,210.266,22.2353z"/>
	<path style="opacity:0.4;fill:#3F4142;" d="M195.7402,18.2717c0,0,6.8781-0.2372,9.487,11.3844
		c2.6089,11.6216,1.5021,15.9698,0.5534,23.3222c3.8694-0.6943,12.3726-12.6493,9.6451-22.4525
		C213.4054,23.264,201.4324,13.7654,195.7402,18.2717z"/>
	<path style="fill:#474241;" d="M218.2913,43.9869c3.2452-5.4286,4.4541-9.0534,0.1342-10.8252
		c-0.1153-0.0472-0.2285-0.1195-0.343-0.177c0.2092,3.2316-0.38,6.0749-1.708,9.2416c-1.561,3.7224-3.4851,15.1023-3.9059,24.5184
		c0.7883,4.6888,1.9763,10.3789,1.9763,10.3789S215.0462,49.4156,218.2913,43.9869z"/>
	<path style="fill:#726A67;" d="M150.9142,66.7343c-1.2649-4.7435-1.2649-12.0168,1.2649-17.709
		c2.5299-5.6922-5.0597-7.0362-3.1623-14.3886c1.2344-4.7833,1.818-7.9985,0.8618-9.8395l-1.9686,1.1431l-0.3162,7.1152
		c0,0-3.4786,5.376-0.6325,8.8546c2.8461,3.4785,4.1111,5.3759,2.2137,10.5938s1.423,13.2818,0.7906,17.5509
		c-0.1893,1.2781-0.5637,2.826-0.9645,4.388c0.6009,2.4305,0.9645,3.9922,0.9645,3.9922S152.1792,71.4778,150.9142,66.7343z"/>
	<path style="fill:#564F4C;stroke:#473F3D;stroke-linecap:round;stroke-linejoin:round;stroke-miterlimit:10;" d="M205.2272,31.5535
		c-1.6602-1.423,2.3717-10.91,5.455-11.6216c3.0833-0.7115,2.6558,1.482,5.739,6.9371s0.5158,16.1609-0.8596,15.6452
		C206.3677,39.0664,206.8875,32.9765,205.2272,31.5535z"/>
	
		<path style="fill:#564F4C;stroke:#473F3D;stroke-width:0.9442;stroke-linecap:round;stroke-linejoin:round;stroke-miterlimit:10;" d="
		M145.4592,37.3922c0,0-4.032-21.7774,9.487-29.8117s25.1405-10.5715,42.4543-0.6343s14.942,10.3601,15.6535,13.5316
		c0.7115,3.1715-6.2685,8.1992-10.7748,6.5077c-4.5063-1.6914-17.3493-5.8363-30.6311,0.0838S149.9655,41.8322,145.4592,37.3922z"/>
	<path style="fill:#726A67;" d="M161.4617,32.1025c2.9086-1.768,6.1789-3.6458,9.8495-5.2819
		c3.2065-1.4292,6.384-2.1637,9.4251-2.4388c0.0207-0.0333,0.0411-0.0649,0.0618-0.0983
		c6.9634-11.2213,19.5965-11.321,29.2778-9.2811c-1.7412-1.4162-4.6202-3.3302-9.4246-6.1652
		C187.5214,10.3135,164.4755,15.2984,161.4617,32.1025z"/>
	<path style="fill:#726A67;" d="M156.8436,34.4322c0,0-6.1665-15.8573,7.3524-23.2574c8.0148-4.3872,19.1138-6.6188,28.8495-6.5196
		c-1.6167-0.7731-3.186-1.4345-4.7119-1.9833c-15.1359,0.2249-30.2174,4.217-34.5733,9.9829
		c-6.4302,8.5115-2.617,20.5835-1.0507,24.6232c1.267-0.6194,2.6507-1.426,4.1584-2.3457
		C156.8514,34.6172,156.8436,34.4322,156.8436,34.4322z"/>
	<path style="fill:#564F4C;" d="M156.8436,34.4322c0,0,0.0078,0.1851,0.0244,0.5001c1.4191-0.8657,2.9483-1.8296,4.5938-2.8297
		c3.0138-16.8041,26.0597-21.7891,39.1897-23.2654c-1.0003-0.5903-2.0767-1.217-3.251-1.891
		c-1.4933-0.8571-2.9415-1.615-4.355-2.2909c-9.7357-0.0993-20.8347,2.1324-28.8495,6.5196
		C150.6771,18.5749,156.8436,34.4322,156.8436,34.4322z"/>
	<path style="fill:#726A67;stroke:#473F3D;stroke-linecap:round;stroke-linejoin:round;stroke-miterlimit:10;" d="M168.4652,29.1817
		c6.1665-4.032,13.9933-8.5383,24.1918-6.8781c10.1985,1.6602,23.9546,15.8907,7.1152,34.1531c0,0-0.4743-1.1859,0-3.5576
		c0.4743-2.3717,7.8268-27.0379-9.2498-27.7494C173.4458,24.4382,168.4652,29.1817,168.4652,29.1817z"/>
	<path style="fill:#564F4C;stroke:#473F3D;stroke-linecap:round;stroke-linejoin:round;stroke-miterlimit:10;" d="M165.6191,30.1304
		c0,0,12.5703-10.6729,28.6981-10.4357s21.1085,6.8781,21.1085,18.974s-8.7755,19.2111-8.7755,19.2111s6.1665-23.2431-4.032-30.5955
		C192.4198,19.9319,173.4458,25.6241,165.6191,30.1304z"/>
	<path style="fill:#D3D3D3;" d="M206.8875,119.8615c0.7757,8.9948-2.476,30.1878-12.3115,38.1896
		c-9.8356,8.0018-10.6691,22.3384-10.6691,22.3384c9.6689-16.1703,21.3381-20.5047,21.3381-20.5047
		S210.4451,145.7925,206.8875,119.8615z"/>
	<path style="fill:#619BBC;stroke:#2F4A56;stroke-linecap:round;stroke-linejoin:round;stroke-miterlimit:10;" d="
		M135.1502,246.9645c-0.1521-0.009-0.3123-0.0172-0.4731-0.0254l-0.0564,0.2467
		C134.7953,247.1095,134.9687,247.0314,135.1502,246.9645z"/>
	<path style="opacity:0.4;fill:#545454;" d="M275.1518,374.9339c-3.4844-3.6166-7.986-22.1993-9.0852-41.4237
		c-0.9691-16.9487,1.5514-34.3962-2.2001-42.5266c-7.0273-15.2298-7.2535-45.3346-10.9742-55.2164
		c-3.3598-8.9234-0.3953-28.6077,5.5851-41.2523c-0.3316-2.5905-0.6559-5.1867-1.0616-7.7769l-0.1086,0.1144
		c-9.4181,11.3857-10.244,36.5743-6.312,47.0174c3.7207,9.8818,4.9383,44.0803,8.1278,55.2164
		c3.1894,11.1361,4.7291,77.1452,11.2853,83.9503c1.2541,1.3018,3.2416,2.1387,5.6306,2.6456
		C275.7169,375.4497,275.4133,375.2053,275.1518,374.9339z"/>
	<path style="opacity:0.4;fill:#545454;" d="M303.0878,323.2235c-2.2624-25.2232-13.4359-43.8188-15.2587-76.7875
		c-1.8228-32.9688-12.4975-76.6771-12.4975-76.6771l-3.4537,3.6389c2.8963,12.7863,10.9054,63.7861,11.2077,71.1409
		c1.3561,32.9913,11.1914,37.6257,13.4538,62.849c2.2624,25.2232,2.1895,66.634,2.1895,66.634s-17.3333,3.8035-27.4335,1.6605
		c7.7516,5.5949,32.177,0.2369,32.177,0.2369S305.3503,348.4467,303.0878,323.2235z"/>
	<g>
		<path style="fill:#452109;" d="M204.349,69.6255c0,0-0.435-6.8517-6.813-6.1569c-6.378,0.6948-12.1283,0.8045-11.9408,7.7499
			C185.4715,73.3682,197.3679,73.3052,204.349,69.6255z"/>
		<path style="fill:#FFFFFF;" d="M204.4472,71.0914c0,0-0.9434-6.0937-7.3214-5.3989c-6.378,0.6948-11.8895,2.4023-11.5996,6.6659
			C185.4025,74.5082,197.466,74.7711,204.4472,71.0914z"/>
		<g>
			<defs>
				<path id="SVGID_9_" d="M204.4472,71.0914c0,0-0.9434-6.0937-7.3214-5.3989c-6.378,0.6948-11.8895,2.4023-11.5996,6.6659
					C185.4025,74.5082,197.466,74.7711,204.4472,71.0914z"/>
			</defs>
			<clipPath id="SVGID_2_">
				<use xlink:href="#SVGID_9_"  style="overflow:visible;"/>
			</clipPath>
			
				<ellipse transform="matrix(0.9978 -0.0668 0.0668 0.9978 -4.2552 13.1389)" style="clip-path:url(#SVGID_2_);fill:#A85715;" cx="194.3074" cy="70.1879" rx="5.1464" ry="5.1464"/>
			
				<ellipse transform="matrix(0.9978 -0.0668 0.0668 0.9978 -4.2552 13.1389)" style="clip-path:url(#SVGID_2_);fill:#3D1800;" cx="194.3074" cy="70.1879" rx="2.9925" ry="2.9925"/>
			
				<ellipse transform="matrix(0.9978 -0.0668 0.0668 0.9978 -4.2544 12.9301)" style="clip-path:url(#SVGID_2_);fill:#FFFFFF;" cx="191.1861" cy="70.0714" rx="1.3273" ry="1.3273"/>
		</g>
		<path style="fill:#452109;" d="M153.8261,72.2079c0,0-0.4787-6.7958,5.8857-6.9564s12.034-0.8134,12.7685,6.0419
			C172.8864,73.3912,161.1786,74.9031,153.8261,72.2079z"/>
		<path style="fill:#FFFFFF;" d="M153.9235,73.6626c0,0,0.1216-6.1176,6.486-6.2782s12.0106,0.7895,12.2896,5.0209
			C173.1052,74.5032,161.276,76.3578,153.9235,73.6626z"/>
		<g>
			<defs>
				<path id="SVGID_11_" d="M153.9235,73.6626c0,0,0.1216-6.1176,6.486-6.2782s12.0106,0.7895,12.2896,5.0209
					C173.1052,74.5032,161.276,76.3578,153.9235,73.6626z"/>
			</defs>
			<clipPath id="SVGID_4_">
				<use xlink:href="#SVGID_11_"  style="overflow:visible;"/>
			</clipPath>
			
				<ellipse transform="matrix(0.9978 -0.0668 0.0668 0.9978 -4.4066 11.1018)" style="clip-path:url(#SVGID_4_);fill:#A85715;" cx="163.776" cy="71.4325" rx="5.1068" ry="5.1068"/>
			
				<ellipse transform="matrix(0.9978 -0.0668 0.0668 0.9978 -4.4066 11.1018)" style="clip-path:url(#SVGID_4_);fill:#3D1800;" cx="163.776" cy="71.4325" rx="2.9695" ry="2.9695"/>
			
				<ellipse transform="matrix(0.9978 -0.0668 0.0668 0.9978 -4.3645 11.3047)" style="clip-path:url(#SVGID_4_);fill:#FFFFFF;" cx="166.8302" cy="70.905" rx="1.3171" ry="1.3171"/>
		</g>
	</g>
</g>
</svg>
