<?xml version="1.0" encoding="utf-8"?>
<!-- Generator: Adobe Illustrator 21.0.2, SVG Export Plug-In . SVG Version: 6.00 Build 0)  -->
<svg version="1.1" id="Capa_1" xmlns="http://www.w3.org/2000/svg" xmlns:xlink="http://www.w3.org/1999/xlink" x="0px" y="0px"
	 viewBox="0 0 341.8117 40.9181" style="enable-background:new 0 0 341.8117 40.9181;" xml:space="preserve">
<g>
	<g>
		<g>
			<rect x="31.0541" y="8.6556" style="fill:#225379;" width="310.7576" height="23.6067"/>
		</g>
		<path style="fill:#1B4361;" d="M40.7502,17.7992c1.6868,13.383-9.5679,24.6378-22.951,22.951
			C8.6806,39.6008,1.3172,32.2373,0.168,23.1188C-1.5186,9.736,9.7358-1.5185,23.1186,0.168
			C32.2372,1.3171,39.6008,8.6805,40.7502,17.7992z"/>
		<path style="fill:#F2F6E1;" d="M37.3254,18.2479c1.4022,11.1244-7.953,20.4796-19.0772,19.0775
			c-7.5795-0.9553-13.7001-7.076-14.6555-14.6555C2.1908,11.546,11.5456,2.191,22.6695,3.5927
			C30.2492,4.5478,36.3701,10.6684,37.3254,18.2479z"/>
		<g>
			<path style="fill:#225379;" d="M19.1892,21.3623c0,3.1475-0.4961,5.498-1.4883,7.0508s-2.5098,2.3291-4.5527,2.3291
				c-1.96,0-3.4502-0.7949-4.4717-2.3857c-1.0215-1.5898-1.5322-3.9209-1.5322-6.9941c0-3.1719,0.4941-5.5264,1.4824-7.0625
				s2.4951-2.3047,4.5215-2.3047c1.9766,0,3.4775,0.8018,4.5029,2.4043S19.1892,18.3232,19.1892,21.3623z M9.2371,21.3623
				c0,2.6494,0.3115,4.5781,0.9346,5.7861c0.6221,1.208,1.6143,1.8125,2.9766,1.8125c1.3789,0,2.377-0.6123,2.9961-1.8369
				c0.6182-1.2256,0.9277-3.1455,0.9277-5.7617c0-2.6152-0.3096-4.5313-0.9277-5.748c-0.6191-1.2168-1.6172-1.8252-2.9961-1.8252
				c-1.3623,0-2.3545,0.6006-2.9766,1.7998C9.5486,16.789,9.2371,18.7138,9.2371,21.3623z"/>
			<path style="fill:#225379;" d="M29.366,30.4931h-2.0176V17.5136c0-1.0791,0.0332-2.1006,0.0996-3.0645
				c-0.1748,0.1748-0.3701,0.3574-0.5859,0.5479c-0.2158,0.1914-1.2041,1.001-2.9648,2.4297l-1.0957-1.4199l4.8203-3.7246h1.7441
				V30.4931z"/>
		</g>
	</g>
	<g>
		<g>
			<path style="fill:#FFFFFF;" d="M150.3435,20.691h1.8604c0.0098,0.3223,0.0146,0.5078,0.0146,0.5566
				c0,0.5566-0.106,1.0364-0.3188,1.4392c-0.2119,0.4028-0.6274,0.8557-1.2451,1.3586s-0.9873,0.8545-1.1094,1.0547
				s-0.1831,0.4272-0.1831,0.6812c0,0.376,0.1611,0.7068,0.4834,0.9924s0.7544,0.4285,1.2964,0.4285
				c0.5225,0,0.957-0.1453,1.3037-0.4358s0.5908-0.7483,0.7324-1.3733l1.8896,0.2417c-0.083,0.6104-0.2563,1.1182-0.52,1.5234
				c-0.3613,0.5518-0.8315,0.9595-1.4097,1.2231c-0.5791,0.2637-1.2173,0.3955-1.9155,0.3955c-1.1768,0-2.1157-0.3088-2.8159-0.9265
				c-0.7012-0.6177-1.0513-1.3318-1.0513-2.1423c0-0.3125,0.062-0.6165,0.187-0.9119c0.124-0.2954,0.3193-0.592,0.5859-0.8899
				c0.2656-0.2979,0.6895-0.686,1.2705-1.1646c0.4248-0.3418,0.6895-0.6262,0.7949-0.8533
				C150.2981,21.6615,150.3484,21.2623,150.3435,20.691z M152.2039,17.9225v2.0581h-2.0581v-2.0581H152.2039z"/>
			<path style="fill:#FFFFFF;" d="M165.512,24.3385c0.5322,0.3809,1.1108,0.6836,1.7358,0.9082l-0.7983,1.5308
				c-0.3271-0.0977-0.647-0.2319-0.9595-0.4028c-0.0684-0.0342-0.5493-0.3516-1.4429-0.9521
				c-0.7031,0.3076-1.4819,0.4614-2.3364,0.4614c-1.6504,0-2.9434-0.4858-3.8779-1.4575c-0.9355-0.9717-1.4028-2.3364-1.4028-4.0942
				c0-1.7529,0.4688-3.1165,1.4063-4.0906s2.2095-1.4612,3.8159-1.4612c1.5918,0,2.854,0.4871,3.7866,1.4612
				s1.3989,2.3376,1.3989,4.0906c0,0.9277-0.1294,1.7432-0.3882,2.4463C166.2542,23.3155,165.9417,23.8355,165.512,24.3385z
				 M163.7688,23.1153c0.2783-0.3271,0.4868-0.7227,0.6265-1.1865c0.1387-0.4639,0.2085-0.9961,0.2085-1.5967
				c0-1.2402-0.2734-2.1667-0.8203-2.7795s-1.2622-0.9192-2.146-0.9192s-1.6006,0.3076-2.1494,0.9229
				c-0.5498,0.6152-0.8242,1.5405-0.8242,2.7759c0,1.2549,0.2744,2.1936,0.8242,2.8162c0.5488,0.6226,1.2437,0.9338,2.0835,0.9338
				c0.3125,0,0.6079-0.0513,0.8862-0.1538c-0.4395-0.2881-0.8862-0.5127-1.3403-0.6738l0.6079-1.2378
				C162.4382,22.2608,163.1194,22.627,163.7688,23.1153z"/>
			<path style="fill:#FFFFFF;" d="M173.6419,25.7008v-1.1646c-0.2832,0.415-0.6553,0.7422-1.1172,0.9814
				c-0.4609,0.2393-0.9482,0.3589-1.4609,0.3589c-0.5225,0-0.9912-0.1147-1.4063-0.3442s-0.7153-0.5518-0.9009-0.9668
				s-0.2783-0.9888-0.2783-1.7212v-4.9219h2.0581v3.5742c0,1.0938,0.0376,1.7639,0.1133,2.0105s0.2139,0.4419,0.4141,0.5859
				s0.4541,0.2161,0.7617,0.2161c0.3516,0,0.6665-0.0964,0.9448-0.2893s0.4688-0.4321,0.5713-0.7178s0.1538-0.9851,0.1538-2.0984
				v-3.2813h2.0581v7.7783H173.6419z"/>
			<path style="fill:#FFFFFF;" d="M177.6848,16.8678v-1.9043h2.0581v1.9043H177.6848z M177.6848,25.7008v-7.7783h2.0581v7.7783
				H177.6848z"/>
			<path style="fill:#FFFFFF;" d="M186.3567,23.2252l2.0508,0.3442c-0.2637,0.752-0.6802,1.3245-1.249,1.7175
				s-1.2803,0.5896-2.1348,0.5896c-1.3525,0-2.3535-0.4419-3.0029-1.3257c-0.5127-0.708-0.769-1.6016-0.769-2.6807
				c0-1.2891,0.3369-2.2986,1.0107-3.0286s1.5259-1.095,2.5562-1.095c1.1572,0,2.0703,0.3821,2.7393,1.1462
				s0.9888,1.9348,0.9595,3.512h-5.1563c0.0146,0.6104,0.1807,1.0852,0.498,1.4246s0.7129,0.509,1.1865,0.509
				c0.3223,0,0.5933-0.0879,0.813-0.2637S186.2444,23.6158,186.3567,23.2252z M186.4739,21.1451
				c-0.0146-0.5957-0.1685-1.0486-0.4614-1.3586s-0.6494-0.4651-1.0693-0.4651c-0.4492,0-0.8203,0.1636-1.1133,0.4907
				s-0.437,0.7715-0.4321,1.333H186.4739z M183.8445,16.9703l1.0107-2.1899h2.3071l-2.0142,2.1899H183.8445z"/>
			<path style="fill:#FFFFFF;" d="M197.2698,25.7008h-2.0581V21.731c0-0.8398-0.0439-1.3831-0.1318-1.6296
				s-0.2305-0.4382-0.4287-0.575c-0.1973-0.1367-0.4355-0.2051-0.7139-0.2051c-0.3564,0-0.6763,0.0977-0.9595,0.293
				s-0.4775,0.4541-0.5825,0.7764s-0.1572,0.918-0.1572,1.7871v3.5229h-2.0581v-7.7783h1.9116v1.1426
				c0.6787-0.8789,1.5332-1.3184,2.5635-1.3184c0.4541,0,0.8691,0.0818,1.2451,0.2454s0.6602,0.3723,0.8535,0.6262
				c0.1924,0.2539,0.3267,0.542,0.4023,0.8643s0.1138,0.7837,0.1138,1.3843V25.7008z"/>
			<path style="fill:#FFFFFF;" d="M203.781,22.9322h-1.8677c-0.0049-0.2686-0.0073-0.4321-0.0073-0.4907
				c0-0.6055,0.1001-1.1035,0.3003-1.4941s0.6006-0.8301,1.2012-1.3184s0.9595-0.8081,1.0767-0.9595
				c0.1807-0.2393,0.271-0.5029,0.271-0.791c0-0.4004-0.1602-0.7434-0.4795-1.0291c-0.3203-0.2856-0.751-0.4285-1.293-0.4285
				c-0.5225,0-0.9595,0.1489-1.311,0.4468s-0.5933,0.752-0.7251,1.3623l-1.8896-0.2344c0.0537-0.874,0.4258-1.6162,1.1172-2.2266
				c0.6904-0.6104,1.5977-0.9155,2.7207-0.9155c1.1816,0,2.1216,0.3088,2.8198,0.9265c0.6982,0.6177,1.0474,1.3367,1.0474,2.157
				c0,0.4541-0.1279,0.8838-0.3848,1.2891c-0.2559,0.4053-0.8042,0.957-1.644,1.6553c-0.4346,0.3613-0.7046,0.6519-0.8091,0.8716
				C203.8186,21.9727,203.7713,22.3658,203.781,22.9322z M201.9133,25.7008v-2.0581h2.0581v2.0581H201.9133z"/>
		</g>
	</g>
</g>
</svg>
