<?xml version="1.0" encoding="utf-8"?>
<!-- Generator: Adobe Illustrator 21.0.2, SVG Export Plug-In . SVG Version: 6.00 Build 0)  -->
<svg version="1.1" id="Capa_1" xmlns="http://www.w3.org/2000/svg" xmlns:xlink="http://www.w3.org/1999/xlink" x="0px" y="0px"
	 viewBox="0 0 197.4771 378.101" style="enable-background:new 0 0 197.4771 378.101;" xml:space="preserve">
<g>
	<path style="fill:#1E2133;stroke:#52586D;stroke-width:1.2079;stroke-miterlimit:10;" d="M119.0137,102.2081
		c0,3.3156,4.0317,6.0034,9.005,6.0034c4.9734,0,10.5-6.5319,10.5-9.8475s-7.3642-1.7925-12.3375-1.7925
		C121.2078,96.5715,119.0137,98.8925,119.0137,102.2081z"/>
	
		<ellipse style="fill:#C1716B;stroke:#BA645D;stroke-width:1.2079;stroke-miterlimit:10;" cx="91.1579" cy="94.6229" rx="2.0411" ry="1.9405"/>
	<path style="fill:#FFC691;stroke:#F1B486;stroke-width:1.2079;stroke-miterlimit:10;" d="M75.2733,112.625
		c0,0-13.9689,28.6634-14.5948,30.2906c-0.6258,1.6272-8.3862,19.1881-9.1372,20.9217c-0.751,1.7336-14.5116,7.2492-18.1159,21.5289
		c0.3755,2.0113,7.3515,3.7362,7.8522,3.2355c0.5007-0.5006,9.2347-1.5248,9.2347-1.5248s8.1636-6.9506,8.5391-12.4134
		c0.8995-4.3011,2.7537-5.8382,3.2544-6.2137s11.7658-16.6473,14.5195-19.9017c2.7537-3.2544,6.4398-19.5262,6.9124-20.0268
		s3.4765-12.0161,3.6017-12.3916c0.1252-0.3755-1.6187-3.5047-1.6187-3.5047H75.2733z"/>
	<path style="fill:#6D6E71;" d="M74.8335,192.5255c0,0-2.284,1.9326-3.221,0.3514c-0.937-1.5812-0.5324-4.0409,0.8173-6.1492
		c1.3496-2.1083,2.7551-4.8022,2.9308-4.9779c0.1757-0.1757,1.2298-4.0995,1.2298-4.0995l2.1669-2.9868
		c0,0,0.8083,3.3942,0.6692,3.5724c-0.1618,0.2073-2.2173,12.1178-3.9545,13.6772L74.8335,192.5255z"/>
	<path style="fill:#FFC691;stroke:#F1B486;stroke-width:1.2079;stroke-miterlimit:10;" d="M130.1766,70.8907
		c0,0-6.7809,26.3536-4.8488,29.2111c1.9321,2.8575-3.5882,24.4961-9.5293,25.1085c-5.9411,0.6125-19.3376-8.4376-19.8243-12.0992
		s2.1252-9.7802,3.4927-11.3403c1.3675-1.5602,4.5263-13.7707,4.8437-15.9868c0.3174-2.2161,0.823-10.0192,1.1771-10.8198
		S128.5408,62.4351,130.1766,70.8907z"/>
	<path style="fill:#F1B486;" d="M125.2743,76.5774c0,0-3.7479,15.3162-5.1056,17.5357s-2.6733,2.4801-2.966,5.5598
		c-0.2927,3.0797,0.6554,14.645-4.0414,16.437s-12.4213,6.9811-12.4213,6.9811s18.0459,1.4097,20.034-0.613
		c1.9882-2.0227,7.3927-17.843,7.3927-17.843s-3.6096-5.933-2.9988-9.4295c0.6108-3.4964,3.7037-18.999,3.7037-18.999l0.4526-3.9011
		L125.2743,76.5774z"/>
	<path style="fill:#F1B486;" d="M69.3639,124.2955l-0.8632,2.266c0,0,7.2101,1.466,8.4163,1.7244s0,9.7157,0,9.9839
		c0,0.2682-3.9438,10.0813-5.7195,12.3685S59.871,167.399,59.3049,167.6575s0.0492,1.2923,0,1.6369
		c-0.0492,0.3446-0.3076,4.2215-1.5999,6.9783s-5.4847,7.6492-6.3467,7.852s0.6038,2.0423,0.6038,2.0423
		s6.0951-7.1338,6.5694-9.1024s0.9459-4.3263,1.4042-5.2869s2.37-3.328,2.37-3.328s6.9132-9.5706,7.3222-10.1431
		c0.4091-0.5725,6.1144-8.9655,7.1972-9.7586c1.0828-0.7931,3.2613-7.167,4.3473-9.3208c1.0859-2.1538,1.7609-10.0878,2.5651-10.706
		c0.8042-0.6182,1.6154-2.5614,1.6154-2.5614l-5.9103-0.8897l-8.164-0.6492L69.3639,124.2955z"/>
	<g>
		
			<rect x="122.8531" y="296.1691" style="fill:#808589;stroke:#656C70;stroke-width:1.1328;stroke-miterlimit:10;" width="7.5091" height="34.1634"/>
		<path style="fill:#252728;stroke:#000000;stroke-width:1.1328;stroke-miterlimit:10;" d="M131.397,296.9369h-9.8096
			c-1.2963,0-2.364-1.0181-2.4257-2.3129l-1.7382-36.4945h18.1374l-1.7382,36.4945
			C133.761,295.9188,132.6932,296.9369,131.397,296.9369z"/>
		<circle style="fill:#1A1B1C;stroke:#000000;stroke-width:1.1328;stroke-miterlimit:10;" cx="126.6077" cy="365.5353" r="9.4407"/>
		<circle style="fill:#1A1B1C;stroke:#000000;stroke-width:1.1328;stroke-miterlimit:10;" cx="154.3732" cy="363.6869" r="9.0101"/>
		<circle style="fill:#1A1B1C;stroke:#000000;stroke-width:1.1328;stroke-miterlimit:10;" cx="98.8579" cy="363.6869" r="9.0101"/>
		<circle style="fill:#A0A6AA;" cx="126.6077" cy="365.5353" r="6.6013"/>
		<circle style="fill:#A0A6AA;" cx="154.3732" cy="363.6869" r="5.8595"/>
		<circle style="fill:#A0A6AA;" cx="98.8579" cy="363.6869" r="5.8595"/>
		<circle style="fill:#1A1B1C;stroke:#000000;stroke-width:1.1328;stroke-miterlimit:10;" cx="126.5878" cy="364.5658" r="5.6318"/>
		<circle style="fill:#1A1B1C;stroke:#000000;stroke-width:1.1328;stroke-miterlimit:10;" cx="154.3732" cy="363.0768" r="4.9088"/>
		<circle style="fill:#1A1B1C;stroke:#000000;stroke-width:1.1328;stroke-miterlimit:10;" cx="98.8579" cy="363.0768" r="4.7529"/>
		<path style="fill:#A0A6AA;" d="M129.8616,299.1583c0,0-5.7176-2.2125-5.3619,3.5637v25.0304c0,0-0.9631,1.3755,4.5147,1.9778
			h-5.4682l-0.2503-32.3223h6.6234L129.8616,299.1583z"/>
		<path style="fill:#808589;stroke:#656C70;stroke-width:1.1328;stroke-miterlimit:10;" d="M159.282,342.9247
			c-1.3863-7.2396-15.3263-7.1625-15.3263-7.1625h-8.0482v-4.0145c0-0.7816-0.6336-1.4152-1.4152-1.4152h-16.0002
			c-0.7816,0-1.4152,0.6336-1.4152,1.4152v4.0145h-11.7835c-12.3997,0-11.1193,9.088-11.1193,9.088v11.3597
			c0,1.5045,1.2197,2.7242,2.7242,2.7242h3.8128c1.5045,0,2.7242-1.2197,2.7242-2.7242v-1.032c0,0.0674,0-0.959,0-4.2434
			c0-9.088,6.0169-8.5489,6.0169-8.5489l12.4093-0.0556v14.9049c0,0.9384,0.7608,1.6992,1.6992,1.6992h5.8629
			c0.9384,0,1.6992-0.7608,1.6992-1.6992v-14.9464l12.6788-0.0569c4.7382,0,5.6153,4.2648,5.7474,6.5518v8.259
			c0,1.0447,0.8469,1.8917,1.8917,1.8917h5.4778c1.0448,0,1.8917-0.847,1.8917-1.8917v-13.6892
			c0-0.0241-0.0062-0.0467-0.0071-0.0706L159.282,342.9247z"/>
		<path style="fill:#A0A6AA;" d="M126.7093,338.1882c0,0-4.5493-0.4043-4.376,3.7545l-0.0048,14.2096
			c0,0-0.5728,2.7259,2.7197,2.1716c0,0-1.0397,0.0811-1.5596-2.5182l-0.1155-13.9207
			C123.373,341.885,123.9228,338.9969,126.7093,338.1882z"/>
		<path style="fill:#A0A6AA;" d="M126.6077,330.8524h-7.1048c0,0-2.4838-0.5776-1.9062,2.426l-0.0871,3.0036l2.3399-3.9856
			L126.6077,330.8524z"/>
		<path style="fill:#A0A6AA;" d="M101.1922,336.7441c0,0-6.7004,0.6354-6.4116,9.1265l-0.0091,9.5308
			c0,0-1.0884,3.2925,4.0524,2.8881c0,0-2.2527-0.7509-2.0217-5.4297l0.1155-9.4731
			C96.9178,343.3868,96.7445,339.9788,101.1922,336.7441z"/>
		<path style="fill:#231F20;" d="M107.2871,256.6438v4.6043c0,0,0.4933,3.7821,6.2486,4.2754s22.1992-1.6444,22.1992-1.6444
			s7.3997,1.8088,8.2219-5.5909c0.8222-7.3997-1.9733-9.7018-1.9733-9.7018s-20.8837-0.8222-21.7058-0.6578
			c-0.8222,0.1644-14.7994,1.8088-14.7994,1.8088L107.2871,256.6438z"/>
		<path style="fill:#939598;stroke:#6D6E71;stroke-width:1.2079;stroke-miterlimit:10;" d="M158.263,226.8805
			c0,0,5.0976-1.6444,7.2353-7.7286c2.1377-6.0842,0.9866-26.9679,0.9866-29.4344c0-2.4666-0.0388-6.7973,0.3095-6.8518
			c0.3483-0.0546,10.379-1.0412,10.379,5.043c0,6.0842,2.1377,28.4478,0.8222,31.901s1.4799,8.7152-3.7821,10.8529
			S158.263,226.8805,158.263,226.8805z"/>
		<path style="fill:#2B3990;stroke:#1C75BC;stroke-width:1.2079;stroke-miterlimit:10;" d="M156.783,226.2227
			c0,0,15.2928-0.8222,18.9104,6.0842s0.3289,18.9104-22.1992,20.8837c-22.528,1.9733-57.3889,3.6177-60.8422-1.1511
			c-3.4532-4.7687-2.7954-14.7994-2.3021-15.4572c0.4933-0.6577,19.2393-12.6617,19.897-12.9906s23.8435,0.6578,24.9946,0
			C136.3927,222.934,156.783,226.2227,156.783,226.2227z"/>
		<path style="fill:#262262;" d="M179.7724,121.4558c0,0,12.6937,1.1124,15.1602,7.8014c2.4666,6.689,2.3021,26.5359,2.4666,30.8363
			c0.1644,4.3005,0.1644,15.6327-0.9866,18.3529c-1.1511,2.7202-2.5866,6.4805-8.693,8.3002
			c-6.1064,1.8197-17.7815,1.9436-17.7815,1.9436s4.6043-18.5001,5.262-19.1783c0.6578-0.6782,6.2487-32.3761,6.2487-32.3761
			l-4.2754-10.7658L179.7724,121.4558z"/>
		<path style="fill:#2B3990;stroke:#1C75BC;stroke-width:1.2079;stroke-miterlimit:10;" d="M145.6012,120.5822
			c0,0,32.3943-1.4088,36.9986,1.88c4.6043,3.2888,5.262,13.4839,5.0976,22.3636c-0.1644,8.8797-1.4799,32.9186-4.111,36.1097
			s-6.2487,6.4798-12.8262,7.302s-34.532,0.636-39.7941-1.4908c-5.262-2.1268-9.8663-40.6255-6.2486-46.5352
			S131.4593,120.8809,145.6012,120.5822z"/>
	</g>
	<path style="fill:#FFC691;stroke:#F1B486;stroke-width:0.697;stroke-miterlimit:10;" d="M41.1189,173.4066
		c0,0-1.1522,1.9637-2.4416,1.7094c-3.4976-0.6897-6.8944,1.3202-7.7982,2.2743c-0.9038,0.954-4.1148,7.0625-4.3156,7.5144
		c-0.2009,0.4519,0.6026,3.3141,0.6026,3.3141l13.7584,7.6324c0,0,8.1847-8.8994,8.8375-9.7472
		c0.6528-0.8478,1.657-0.898,0.6026-2.6052c-1.0545-1.7072-1.7575-2.6613-2.1592-3.1634"/>
	<path style="fill:#262262;" d="M90.3939,242.3118c0,0,0.4919-0.9504,1.9656-1.3784c3.7014,0.2936,9.1906-0.3313,9.5884-1.1837
		c0.5791-1.2409,7.6749-4.9818,10.3222-4.9818s17.7332-1.7596,19.9669-1.5942c2.2337,0.1655,13.3953-1.5997,13.6435-1.6913
		c0.2482-0.0917,4.6328-1.5808,4.7155-1.8289c0.0827-0.2482,4.2756-2.4037,0.5679-4.0243
		c-0.3032-0.1325-24.8066,4.0243-27.206,4.2725c-2.3994,0.2482-14.0641,2.5153-15.0568,2.1677s-9.261,0.3969-10.5456,1.2242
		s-8.0636,7.308-8.0636,7.308L90.3939,242.3118z"/>
	<path style="fill:#4C3617;stroke:#3D2314;stroke-width:1.2079;stroke-miterlimit:10;" d="M150.2018,199.9181
		c-1.4265-1.533-3.6158-3.6339-5.6324-5.5168c-2.6118-2.4387-6.0379-3.6959-6.0379-3.6959l-23.1851-3.6286l-29.9966,1.6134
		c0,0-1.9017,2.0172-36.3055,12.5631c-34.4039,10.546-47.3701,23.858-48.4074,40.2819
		c-1.0373,16.4239,22.8206,35.0954,22.8206,35.0954s7.7007,3.953,12.0228,7.9294c4.322,3.9763,17.5403-5.1632,18.4047-5.6819
		c0.8645-0.5187,27.4885-13.312,28.8716-13.2807c0.3831,0.0086-0.14-1.7668-0.6395-2.2725
		c-4.5207-4.5768-4.2661-11.8502,0.0605-16.7622c3.7757-4.2867,20.4886-12.0934,21.325-12.4615
		c4.3221-1.9017,13.6578-2.939,18.4986-2.9732c4.8407-0.0343,22.4939-1.6946,26.0161-3.2506
		c3.5224-1.5559,7.0677-8.109,6.8444-13.7414C154.6191,208.0224,153.4759,203.4366,150.2018,199.9181z"/>
	<path style="fill:#2D304F;stroke:#52586D;stroke-width:1.2079;stroke-miterlimit:10;" d="M126.3619,99.112
		c0,0,2.4531-3.5829,6.8411-5.4353c2.5089-1.0591,7.001-0.933,8.6161-0.8134c4.4398,0.3289,21.5608,30.6856,21.5608,30.6856
		s-14.8457,3.4465-18.1602,10.9158l-2.8721-4.934c0,0-6.6135,13.8066-8.8986,17.4372s-2.458,15.5595-2.1122,19.0172
		s5.878,23.3393,9.6815,25.241s7.7798,3.4577,7.2611,5.1865c-0.5186,1.7288,0.3458,1.0373-2.7661,0
		c-3.1119-1.0373-7.2611-5.5323-21.0918-6.2238s-33.7123,1.0373-39.5903,1.3831c-5.878,0.3458-6.7425,0.6915-6.7425,0.6915
		s5.5323-16.0782,5.3594-24.0308c-0.1729-7.9526-2.7661-15.5595-2.5933-16.4239c0.1729-0.8644-16.8529-15.9346,3.1148-28.6674
		l-14.8708-1.6855c0,0,7.7798-22.0308,13.4849-24.2783c5.7052-2.2475,8.7385-1.6059,11.9289,0.3458
		c3.2095,1.9633,6.1357,2.1563,5.8206,2.9343c-3.8907,6.2245,0.047,15.2026,1.8847,17.6703
		c1.5795,2.1211,5.0881,2.5618,10.9662-0.0314S120.9343,102.046,126.3619,99.112z"/>
	<path style="fill:none;stroke:#3D2314;stroke-width:1.2079;stroke-miterlimit:10;" d="M80.6776,201.9717
		c0,0-76.9774,25.0259-67.2391,57.8608"/>
	<path style="fill:#373B5B;" d="M138.8228,123.0052c0,0-0.6822,3.3277-0.5847,5.3673c0.0975,2.0396-1.5594,8.422-3.3136,10.8347
		c-1.7543,2.4128-4.9704,5.9213-6.3349,9.8197c-1.3644,3.8984,0.1949,8.479-0.8771,11.4028
		c-1.0721,2.9238-2.1441,4.7755-3.4111,6.5298c-1.267,1.7543,2.4365,8.4904,2.8263,10.1902
		c0.3898,1.6999,0.5453,6.3234,2.1068,8.0027c1.5615,1.6793,8.3214,5.0999,8.4189,5.6847s5.7014,2.5698,5.7745,2.7468
		c0.0731,0.177,3.7766,1.8618,3.7766,1.8618s0.34-0.3493-1.1488-1.258c-0.6086-0.3714-1.5081-0.8237-2.5207-1.3194
		c-1.4636-0.7164-3.2176-1.4228-3.8349-2.3102c-0.329-0.4729-0.9732-1.2843-1.6223-2.5207
		c-1.4115-2.6886-3.1408-6.8375-3.7797-10.0117c-0.9328-4.6339-3.7492-10.6267-3.4589-16.5403
		c0.2903-5.9135,0.7752-10.5037,1.4169-12.624c0.2845-0.9402,1.4545-3.025,2.7879-5.5392c1.3811-2.6041,2.9419-5.663,4.132-8.0536
		c2.339-4.6986,3.1277-6.4971,3.1277-6.4971L138.8228,123.0052z"/>
	<path style="fill:#D1D3D4;" d="M97.9785,211.2571l-47.814,1.6272c0,0-3.3795,0-3.3795-2.253c0-2.253,6.2584-3.8802,8.0107-3.8802
		c1.7523,0,17.0228,0.5007,18.1493,0c1.1265-0.5007,15.0201,0.5007,15.7711,0s4.5121-0.1639,5.3226-0.1445
		S99.7309,209.2544,97.9785,211.2571z"/>
	<path style="fill:#E6E7E8;" d="M71.1034,184.9c0,0,20.3664,14.8417,21.8684,16.7192c1.502,1.8775,3.1292,5.257,4.7564,5.7577
		c1.6272,0.5007,2.8789,1.3768,0.8762,2.253c-2.0027,0.8762-48.8154,0.8762-48.8154,0.8762s-3.5047,1.0013-1.6272,2.253
		s0.6258,1.3768,0.6258,1.3768s-18.5248-14.6446-23.156-17.7738s-8.0107-6.0081-9.8882-7.7604
		c-1.8775-1.7523-4.7564-3.0226-4.6312-3.7017c0.1252-0.6791,3.3795-1.4592,8.0107-0.8188s15.5208,0.4966,16.6473,0.8188
		c1.1265,0.3222,15.3956-0.4474,21.9043,0S71.1034,184.9,71.1034,184.9z"/>
	<path style="fill:#58595B;stroke:#231F20;stroke-width:1.2079;stroke-miterlimit:10;" d="M110.3643,316.8793
		c0,0,7.9577,5.3224,8.7004,6.8789c0.7427,1.5565,5.9312,5.8111,6.9689,6.9526c1.0377,1.1415,3.5553,3.0356,4.7734,4.981
		c1.2182,1.9454,3.6698,9.903,3.5282,11.6397c-0.1416,1.7367,0.7381,10.1984,0.0059,12.2506
		c-0.7323,2.0522-3.4303,10.1463-4.0529,10.9764c-0.6226,0.8301,1.4528,5.2923,6.6413,4.4621
		c5.1885-0.8301,10.9996-3.7357,15.1505-9.2355c4.1508-5.4998,5.1885-12.5562,3.8395-20.9616c0,0-5.0847-8.0941-5.0847-9.7544
		c0-1.6603-0.6226-15.2542-1.1415-16.9145c-0.5189-1.6603-3.1131-6.4338-9.6506-8.1979c-6.5375-1.7641-9.2355-0.4151-12.8675-3.0093
		c-3.632-2.5943-8.2335-6.1107-8.2335-6.1107s-2.5551,8.5578-4.927,10.3674c-2.3719,1.8095-4.4611,4.4981-4.4611,4.4981
		L110.3643,316.8793z"/>
	<path style="fill:none;stroke:#231F20;stroke-width:1.2079;stroke-linecap:round;stroke-linejoin:round;stroke-miterlimit:10;" d="
		M121.5714,313.6925c0,0-4.047,7.2639-5.396,7.8865c0,0,6.2262-6.8488,10.5846-6.6413s0.7264,2.2829,0,3.7357
		s-5.7074,6.8488-5.8111,7.8865c-0.1038,1.0377,0.9616,0.3404,1.0844,0.454c0.1228,0.1136,6.6333-6.7238,8.3587-6.5982
		c1.7254,0.1256,3.2169,1.1633,1.6603,2.0972s-8.8205,6.33-8.3016,7.2639s1.7641,1.349,2.2829,0.9339
		c0.5189-0.4151,5.0847-7.1602,8.3016-5.7074s4.8846,1.9557,3.2169,2.9056c-1.6678,0.9499-10.3679,2.6009-9.5423,4.673
		c0.8256,2.0721,0.9559,1.9043,1.8247,1.8326c0.8688-0.0718,1.5952-4.7414,7.4063-3.6c5.8111,1.1415,2.4905,3.6364,2.4905,3.6364
		s-8.7167-1.9761-8.9242,1.2408c-0.2076,3.2169-0.0919,2.916,1.0436,2.2881c1.1355-0.6278,4.2486-3.5334,7.1542-2.0806
		s4.2546,2.4905,3.5282,3.5282c-0.7264,1.0377-8.4523,0.1038-9.5184,2.5942c-1.0661,2.4905,1.0093,2.0754,1.3206,2.0754
		s3.0093-3.1719,7.4715-2.7793c4.4621,0.3926,5.2923,2.5718,5.2923,3.6095s-9.1973-1.9868-12.7965,1.7046
		c0,0-1.06,2.6767,0.9392,2.4058c1.9991-0.2709,2.6218-2.4152,5.5273-1.7062c2.9056,0.7089,5.4998,4.1002,5.6036,5.2583
		c0.1038,1.158-5.6049-2.1322-8.9249,0.395"/>
	<path style="fill:none;stroke:#231F20;stroke-width:1.2079;stroke-linecap:round;stroke-linejoin:round;stroke-miterlimit:10;" d="
		M148.5517,364.7865c0,0-8.3567-6.5463-13.3101-3.5521"/>
	<path style="fill:#383133;" d="M143.5345,371.7585c0,0,5.3285-3.4526,7.3002-10.5241s1.7641-14.543,0-19.2126
		c-1.7641-4.6696-3.4244-8.6129-3.7357-11.9336s-0.2075-8.5092-0.6226-11.2072c-0.4151-2.698-4.3725-8.4394-6.4337-8.9243
		c0,0,6.7451,2.1792,8.5092,5.0847c1.7641,2.9056,2.4958,9.3612,1.9743,12.7747c-0.5215,3.4135,0.5038,8.4048,1.4439,10.1638
		s3.9353,6,4.1718,8.3846s-0.2721,13.7764-2.4236,16.8706c-2.0144,2.8971-4.4096,7.1014-8.5505,8.7577
		C144.5475,372.2409,143.9779,371.723,143.5345,371.7585z"/>
	<path style="fill:#58595B;stroke:#231F20;stroke-width:1.2079;stroke-miterlimit:10;" d="M53.3944,312.7586
		c0,0,3.7357,7.8865,4.6697,10.0657c0.9339,2.1792,2.8018,4.6696,3.7357,8.9242c0.9339,4.2546,1.9716,5.2923,0.7264,9.9619
		c-1.2452,4.6697-3.4244,12.8404-4.7734,15.2407s-0.9339,5.6171-2.3867,7.0699s-7.5752,5.9149-9.4431,6.5375
		c-1.8679,0.6226-0.5188,3.632,3.9433,4.981c4.4621,1.349,12.4524,3.632,20.1314,0s5.8111-10.9996,8.0941-17.3296
		s1.349-9.2356,4.7734-11.726s7.0564-6.4337,8.0941-10.2733c1.0377-3.8395,0.7983-8.0941-2.9734-11.726
		c-3.7717-3.632-17.0543-14.7354-17.9882-16.3957c-0.9339-1.6603-3.5282-3.632-3.5282-3.632S60.5546,313.7963,53.3944,312.7586z"/>
	<path style="fill:none;stroke:#231F20;stroke-width:1.2079;stroke-linecap:round;stroke-linejoin:round;stroke-miterlimit:10;" d="
		M57.0264,315.7679c0.3113-0.2076,7.3677-0.3715,8.4054,1.1114c1.0377,1.4828-2.6693,0.3283-5.2923,2.5206
		c-2.623,2.1922-2.0754,3.4244-2.0754,3.4244s-0.4151,2.4905,1.5566,1.1415c1.9716-1.349,6.2516-4.2989,8.6775-3.9655
		c2.4259,0.3335,3.1523,1.7863,1.5958,1.9938c-1.5565,0.2076-10.211,3.5287-9.3832,5.7701s0.874,1.6192,2.5343,0
		s6.33-5.1474,9.2355-2.8645c2.9056,2.2829,2.0754,3.9433,0,3.632s-10.3-0.0716-10.6498,2.5066s0.7917,3.4754,2.5558,2.3004
		c1.7641-1.175,5.1885-4.4957,8.0941-2.6278s2.5943,3.8395,1.4528,3.8395s-9.7275-1.0497-10.8306,1.6025
		c-1.103,2.6521-0.5842,2.3512,2.1139,1.8271c2.698-0.5241,5.396-3.3259,7.4715-1.3542c2.0754,1.9716,3.7357,5.1744,2.4905,4.3513
		c-1.2452-0.8231-8.724-4.8268-12.3004,0.1325c-3.5764,4.9593,2.1448,1.2236,3.5388,1.1198
		c1.394-0.1038,6.3749,0.9339,6.9976,3.4244c0.6226,2.4905-2.5943-1.0377-4.2546-0.8301c-1.6603,0.2075-7.2645,0.0786-7.9611,2.5079
		c-0.6966,2.4293,3.2915-1.6429,6.197,0c2.9056,1.6429,5.0847,6.6359,4.2546,6.7855c-0.8302,0.1497-5.1885-7.6331-9.9619-4.8313
		c-4.7734,2.8018-1.0377,3.6991-1.0377,3.6991s5.7074-2.0267,6.8488,1.1323c1.1415,3.159,0.9985,4.0929,0.9985,4.0929
		s-6.3945-5.2802-8.5737-4.0929c-2.1792,1.1873-2.698,2.8341-2.698,2.8341"/>
	<path style="fill:none;stroke:#231F20;stroke-width:1.2079;stroke-linecap:round;stroke-linejoin:round;stroke-miterlimit:10;" d="
		M54.5086,364.7865c0,0,9.4842-1.388,11.7084,7.2249"/>
	<path style="fill:#383133;" d="M53.0419,376.4312c0,0,9.5694-1.3304,16.4369-5.5613c6.8675-4.231,5.32-11.9607,5.9288-13.9188
		c0.6088-1.9581,0.6088-8.7032,4.7596-12.9577s7.3677-7.3677,6.6413-12.3487c-0.7264-4.981-3.8396-11.2036-3.8396-11.2036
		s4.0245,2.5642,6.3944,5.8201c0.978,1.3436,1.4576,2.8958,1.7039,4.4991c0.3498,2.2776-0.0652,3.89-0.6126,5.8583
		c-0.6174,2.2199-1.8972,3.9669-3.1781,5.284c-0.7025,0.7223-1.5668,1.7348-2.6229,2.6803
		c-1.211,1.0843-2.6289,2.1312-3.5801,3.4078c-1.0729,1.4399-1.1288,3.4098-1.4156,4.5835
		c-0.3628,1.4846-1.5087,4.3964-2.3177,7.765c-0.892,3.7145-1.4814,7.933-2.5846,10.2426
		c-0.2686,0.5624-0.8852,1.6371-1.2444,2.0677c-2.3139,2.773-4.4033,3.695-8.2287,4.4314
		C60.723,377.9586,53.0419,376.4312,53.0419,376.4312z"/>
	<path style="fill:#4C3617;stroke:#3D2314;stroke-width:1.2079;stroke-miterlimit:10;" d="M21.8276,277.0684
		c0,0,27.831,32.7846,28.0386,33.0959c0.2075,0.3113,0.1056,3.433,6.3309,2.4948s12.5806-9.0323,12.101-11.3152
		s-13.866-13.4901-14.3848-14.4241c-0.5189-0.9339-6.7451-7.2639-6.9526-7.7827c-0.1319-0.3298-23.3258-23.6367-30.6853-24.3489
		C12.0553,254.3798,18.5801,273.9521,21.8276,277.0684z"/>
	<path style="fill:#FFC691;stroke:#F1B486;stroke-width:1.2079;stroke-miterlimit:10;" d="M74.2752,173.9991
		c0.0585-1.2299,1.0062-2.549,2.3117-3.7613c1.046-0.9713,2.5035-3.9364,4.6182-3.9364c2.1147,0,11.4192,0.4229,11.4192,0.4229
		s0,0-1.6917-0.4229c-1.6917-0.4229-5.7096-4.8638-6.1325-5.7096c-0.4229-0.8459,2.1147-1.6917,5.1508,0.2115
		c3.0362,1.9032,10.4978-0.4229,14.0927,0.6344c3.595,1.0573,5.0752,4.2294,5.9211,6.767c0.8458,2.5376,2.3262,3.3835,6.5554,2.8707
		c4.2294-0.5128,14.8165-5.0903,20.0895-6.9189c5.2728-1.8286,20.7238-7.371,20.7238-7.371l-11.3915-22.9774
		c0,0,3.1427-3.3494,7.659-5.9381c1.7517-1.0041,7.9095-3.9733,8.0339-3.671c4.5673,11.0999,13.4101,35.1869,13.8701,39.5043
		c0.5856,5.4963-2.2254,4.7524-11.8299,9.6132s-52.1804,8.9017-53.9374,8.6675c-1.7569-0.2343-1.6397-0.2343-5.7393,2.2254
		c-4.0995,2.4597-10.5415-0.3514-10.6586,0.3514c-0.1172,0.7028-5.3294,2.5161-5.3294,2.5161s6.6178,2.4032,6.4518,3.8403
		s-3.8749,1.374-6.9203,0.9055c-0.829-0.1275-2.4851-0.6523-3.1137-1.0168c-1.6805-0.9743-1.6885-2.2043-1.6885-2.2043
		s-0.0229,1.3737-1.1128,4.2751c-1.0898,2.9014-3.3381,2.4597-3.3381,2.4597s0.4685-11.2443,0.3513-11.0686
		c-0.0405,0.0609,0.1735-3.9295-0.5856-3.6895c-1.874,6.0906-4.3025,5.2325-4.6851,5.2707
		c-0.5857,0.0585,0.1917-3.1526,0.3089-4.2653C73.7955,180.4711,74.2166,175.229,74.2752,173.9991z"/>
	<path style="fill:none;" d="M171.5225,158.7927c0.1757-0.0586,3.4507,2.0933,4.0093,5.2047"/>
	<path style="fill:none;stroke:#F1B486;stroke-width:1.2079;stroke-miterlimit:10;" d="M157.1732,156.4621
		c0.1603,0.3233-0.0841,1.8109,0.2099,2.9248"/>
	<path style="fill:none;stroke:#F1B486;stroke-width:1.2079;stroke-linecap:round;stroke-linejoin:round;stroke-miterlimit:10;" d="
		M90.7379,179.4819c0.0137-0.2983,0.2248-1.6338-0.5583-2.1068c-0.783-0.473,0.367-1.4778-0.4326-2.8368
		c-0.7997-1.3591-2.5993-0.7292-2.9987-1.7938c-0.3993-1.0647,0.6212-1.7535-0.3885-2.5474
		c-1.0097-0.7939-1.7005-0.2738-2.51-0.9205c-0.8095-0.6467-1.8822-2.7111-3.172-2.5632"/>
	<path style="fill:none;stroke:#F1B486;stroke-width:1.2079;stroke-linecap:round;stroke-linejoin:round;stroke-miterlimit:10;" d="
		M83.9695,177.0646c-0.1757,0-4.4509,2.4597-4.9194,3.7481c-0.4685,1.2884-0.6748,4.0873-0.6748,4.0873"/>
	<path style="fill:#F1B486;" d="M89.3578,180.5785c0,0-4.7441,2.6354-5.3883,3.631c-0.5434,0.8398-1.2431,1.6071-1.1879,3.3126
		c0.0049,0.1508,0.1949,0.6839,0.3242,1.022c0.083,0.2171-0.6722,0.1347-0.7281,0.1077c-0.0559-0.027,0.1555-0.3921,0.0254-0.905
		c-0.2119-0.8351-0.3802-2.142-0.3077-3.303c0.1171-1.874,0.937-2.4597,1.1713-2.6939c0.1559-0.1559,2.8279-1.3234,4.5807-2.1388
		c0.8809-0.4098,1.5304,0.7206,1.5108,0.6618"/>
	<path style="fill:#F1B486;" d="M163.3799,128.5423c0,0-4.2669,1.388-6.1714,3.4194c-1.9045,2.0315-6.6427,4.6562-6.9586,4.7653
		c-0.3159,0.1091,2.9482,6.0372,2.9482,6.0372l5.0897,11.722c0,0,2.9126,2.0302,3.0179,3.1406c0,0-2.7494-0.6685-3.6788-0.8302
		s-10.6081-20.8165-10.6081-20.8165s4.1162-6.0672,8.9183-7.0965c4.8021-1.0293,6.8232-1.8435,6.8232-1.8435L163.3799,128.5423z"/>
	<path style="fill:#F1B486;" d="M78.6694,180.6125c-0.294-1.3028-0.2947-1.8515-0.1496-2.9642
		c0.1451-1.1127,3.9271-5.0345,4.1028-4.9174l-1.4501-1.9326c0,0-3.4107,4.5094-3.4693,5.1536
		c-0.057,0.6268-0.534,3.2178,0.0305,4.3527c0.0157,0.0315-0.2058,0.7414,0.0711,0.5804
		C77.8048,180.8849,78.6457,180.8257,78.6694,180.6125z"/>
	<path style="fill:#6D6E71;" d="M72.4298,186.7276c0.076-0.1186,0.2773-0.4499,0.4316-0.6899
		c1.096,1.0392,3.0126-0.4984,3.0852-0.4749c0.5556,0.1798,1.2003,0.2023,1.8274,0.1072c-0.7019,2.8339-1.533,5.5527-2.302,6.243
		l-0.6385,0.6124l-2.8097,1.1638c0,0-1.0319-2.7744-0.8186-3.9458C71.3873,188.7437,71.8083,187.6984,72.4298,186.7276z"/>
	<path style="fill:#231F20;" d="M75.1112,192.0167l0.0718,0.1736l0.289-0.2766c0,0,0.3139-0.2594,0.2852-0.342
		c-0.4621-1.3313-1.823-3.3582-4.2368-2.9964c-0.0679,0.0102-0.1285,0.4217-0.1285,0.4217l-0.1224,0.4343l0.193-0.0834
		C74.1409,188.8139,75.0723,191.8862,75.1112,192.0167z"/>
	<path style="fill:#2D304F;stroke:#52586D;stroke-width:1.2079;stroke-miterlimit:10;" d="M163.0689,123.6106
		c0,0,0.5024,1.493,1.3571,1.9263c0.8548,0.4333-5.1334,2.2342-6.8525,3.0818c-1.719,0.8476-11.1603,7.5698-11.4146,7.8287
		c-0.3698-0.1506-0.8132-1.4627-1.2332-1.806c-0.1032-0.0926,3.2803-3.8427,7.2828-6.4465
		C155.9283,125.7751,162.0197,123.7039,163.0689,123.6106z"/>
	<path style="fill:#4C3617;stroke:#3D2314;stroke-width:1.2079;stroke-miterlimit:10;" d="M114.1925,290.4652
		c0,0,5.7667,7.734,5.9068,8.986c0.1401,1.252-1.4118,4.3221-2.9534,7.434c-1.5416,3.1119-2.2331,7.2611-7.5925,8.8171
		c-5.3594,1.5559-12.9898,1.9017-15.9171-1.0373c-2.9272-2.939-7.2493-3.4577-12.4358-4.6678
		c-5.1865-1.2102-11.5832-1.7288-15.5595-4.1492s-0.9638-8.7177-6.496-9.2364s-38.3499-19.4528-43.8033-31.0141
		c-3.8672-8.1984-3.428-19.2675,4.2304-23.5896s29.645,13.4383,31.5468,13.1389c1.9017-0.2994,18.3256,1.6086,18.8443,1.6055
		c0.5186-0.0031,13.312,9.6783,13.312,9.6783S95.4677,273,98.1885,277.3221c2.7207,4.3221,4.5977,5.7052,7.2898,7.0882
		C108.1703,285.7934,114.1925,290.4652,114.1925,290.4652z"/>
	<path style="fill:#4C3617;" d="M46.4792,237.024l26.4597,15.97l2.5062,8.4185l-15.8729,0.8755c0,0-13.1578-1.1244-13.4711-0.8755
		c-0.3133,0.2489-12.2179,3.695-12.2179,3.695l-8.7718,2.4018l-3.1211-0.4792c0,0-11.4408-10.5206-9.4401-16.8615
		c1.0143-4.7873,4.9163-10.2636,10.1966-12.2031C32.7433,234.2937,46.4792,237.024,46.4792,237.024z"/>
	<path style="fill:#3D2314;" d="M79.3912,258.8428c-0.5741-1.9505-0.6969-4.8539-0.3805-6.5792
		c-2.0513-3.6987-4.8163-3.2052-7.8634-4.2728c-4.0016-1.4021-7.9336-0.7241-11.7706-0.6105
		c-0.4824,0.0789-2.7493,0.0573-3.2234,0.1466c5.3914,1.6096,16.8744,4.3201,18.7922,7.6197c0,0,1.9128,3.6755,0.1548,4.069
		c-3.3513,0.7504-11.6587-1.3573-13.1366,0.0625c-2.253,2.1646-0.3755,1.7892,2.253,2.1646
		c0.9913,0.1416-0.582,0.7111-3.0459,1.8281c0.0297,0.3247,15.6189-2.1179,17.963,3.489c1.9757-0.8599,7.3717,1.6784,7.6561,1.6848
		C83.7962,265.812,80.4776,262.5336,79.3912,258.8428z"/>
	<path style="fill:#3D2314;" d="M147.3573,197.5773c-0.5157-0.1874,0.0064,3.2548,0.2951,7.2396
		c0.2887,3.985-2.6267,12.3932-12.0143,13.0379c-9.3876,0.6447-31.1199,12.8304-36.0014,13.3617
		c-4.8815,0.5315-13.6678,2.673-17.4228,6.0525c-3.755,3.3795-10.7422,4.1134-10.7422,4.1134s6.5356,5.246,9.4239,6.8858
		c2.9477-4.0981,7.7823-6.5094,9.0554-7.5904c0.659-0.5595,6.8091-0.4124,8.7108-1.5845s0.5187-3.3228,4.8407-5.2245
		s13.6578-2.939,18.4986-2.9732c4.8407-0.0342,19.0062-1.2727,22.656-2.5005c5.8111-0.4016,8.8885-4.8902,9.8254-14.2591
		C154.4874,206.6698,149.8274,198.9616,147.3573,197.5773z"/>
	<path style="fill:#3D2314;" d="M113.5775,312.8342c0,0-8.697,3.5288-12.2553,2.0392c-3.5583-1.4895-8.7717-4.3858-11.5025-4.7996
		c-2.7308-0.4138-14.8953-2.3998-16.5504-2.9791c-1.655-0.5793-8.6877-2.9216-9.5214-4.5058s-2.1055-6.9579-5.4972-7.144
		c-3.3918-0.1862-8.6175-3.1484-10.7681-4.8696c-2.1506-1.7211-8.5095-9.423-12.8255-11.1231s-15.8664-12.3312-15.9203-12.9415
		c-0.0326-0.3692,0.2809,3.2414,3.1264,7.1363c1.858,2.5431,5.798,5.3317,7.9604,6.7832c4.0022,2.6865,10.9869,7.9801,11.7398,8.427
		c1.9129,1.1352,9.7412,6.1373,9.7412,6.1373s4.6382,2.1532,5.1378,2.2672s2.0426,0.505,2.7136,1.1556
		c0.6711,0.6506,3.1198,5.6126,3.9457,6.3546c0.8259,0.742,5.8687,3.3763,11.2454,3.884
		c5.3767,0.5077,15.5714,3.6184,15.7799,3.7068c0.2085,0.0885,3.4478,2.4294,4.2012,2.8774
		c0.7535,0.4481,3.4283,1.8472,6.911,1.6391c3.4827-0.2082,7.7827-0.2128,10.8839-2.3092
		C115.2245,312.4737,113.5775,312.8342,113.5775,312.8342z"/>
	<path style="fill:#3D2314;" d="M52.9494,290.0311c0,0-4.0108-0.4945-3.5809-5.9547c0,0,8.7518,2.2145,8.207,5.4688
		c-0.5449,3.2543,1.378,6.7705,4.3653,8.523c2.9873,1.7525-1.4752,0-1.4752,0L52.9494,290.0311z"/>
	<path style="fill:#3D2314;" d="M87.3457,309.6829c0.1428,0.0231,8.8471-2.0432,10.8428-6.9252
		c1.9957-4.882,3.7709,0.7401,3.549,2.4781c-0.2219,1.7381-5.6336,8.5767-7.6988,7.5984S87.3457,309.6829,87.3457,309.6829z"/>
	<path style="fill:#2D304F;stroke:#52586D;stroke-width:1.2079;stroke-miterlimit:10;" d="M80.6457,125.4259
		c-0.1412-0.2354-3.4995-0.8236-5.4128-0.9361c-1.9133-0.1125-7.2031,0.1125-6.5841-0.619c0.619-0.7316,0.7878-2.2181,0.7878-2.2181
		l12.357,1.2421l2.1759,0.2466"/>
	<path style="fill:#373B5B;" d="M87.6533,116.7628c0,0-4.1422,5.9471-4.5528,5.9006c-0.4106-0.0465,1.9497,0.237,1.9497,0.237
		L87.6533,116.7628z"/>
	<path style="fill:#E5865C;stroke:#F1B486;stroke-width:1.2079;stroke-miterlimit:10;" d="M94.1167,191.2652
		c-0.0626-0.4061,0.0086-0.53-0.463-0.792c-0.4713-0.2599-1.9648,0.482-1.9648,0.482l0.3578,0.6487
		C92.1382,191.6625,94.1585,191.7378,94.1167,191.2652z"/>
	<path style="fill:#E5865C;stroke:#F1B486;stroke-width:1.2079;stroke-miterlimit:10;" d="M78.6053,194.9516
		c0.4071,0.0563,0.5054,0.16,0.8914-0.2168c0.384-0.3772,0.1008-2.0205,0.1008-2.0205l-0.724,0.157
		C78.7912,192.9422,78.1405,194.8563,78.6053,194.9516z"/>
	<path style="fill:#E5865C;stroke:#F1B486;stroke-width:1.2079;stroke-miterlimit:10;" d="M73.5146,185.7434
		c0.4106-0.0172,0.5258,0.0674,0.8385-0.3722c0.3106-0.4396-0.261-2.0061-0.261-2.0061l-0.6844,0.2836
		C73.3393,183.733,73.0402,185.7325,73.5146,185.7434z"/>
	<path style="fill:#E5865C;stroke:#F1B486;stroke-width:1.2079;stroke-miterlimit:10;" d="M85.0989,160.0439
		c-0.0117,0.4108-0.1041,0.5198,0.3125,0.8625c0.4167,0.3407,2.0195-0.1195,2.0195-0.1195l-0.2348-0.7026
		C87.1166,160.0102,85.1431,159.5715,85.0989,160.0439z"/>
	<path style="fill:#6D6E71;" d="M89.4282,154.648c-0.1634-0.2499-3.4661-2.1893-4.8022,1.8275
		c-1.0465,3.146-2.2328,7.7635-2.6618,9.46c0.9925,0.0066,2.6499,0.1396,3.6501,0.1105c0.5783-2.7891,1.325-5.7759,1.9985-6.5958
		C88.9597,157.8105,90.4238,156.1707,89.4282,154.648z"/>
	<path style="fill:#414042;" d="M25.0494,187.287c0.7083,0.2307,0.9829,0.6153,1.3931,1.2269
		c0.4404,0.6569,0.5931,1.2232,1.3995,1.6336c0.4318,0.2198,0.9839,0.2301,1.4322,0.4271c0.7575,0.3329,1.307,0.8949,1.8998,1.4505
		c0.4083,0.422,0.8474,0.808,1.3176,1.1582c0.4664,0.1699,0.9331,0.3399,1.3995,0.5099c0.152,0.0924,0.3368,0.0504,0.4972,0.2132
		c0.4778,0.4849,0.3243,1.1395,0.9372,1.564c0.3974,0.2753,0.7977,0.2014,1.1834,0.6237c0.8058,0.8822,1.4685,1.7754,2.4075,2.5764
		c0.6306,0.5379,2.0236,2.7823,2.8812,2.3275c0.1655-0.0878,0.4861-0.0329,0.5516,0.1683c0.652,2.0008,2.3735,3.1187,3.6287,4.7036
		c0.469,0.5922,0.7528,0.7907,1.3626,1.1578c0.1878,0.113,1.1567,1.1257,1.0558,1.1224c0.4651,0.0154,0.4705,0.5788,0,0.5632
		c-0.6271-0.0208-0.5577-0.299-0.9735-0.678c-0.5554-0.5061-1.0256-0.501-1.5128-1.0478c-1.406-1.5779-3.3532-3.3303-4.1507-5.3434
		c-1.5128,0.3958-2.3527-1.7027-3.3739-2.5754c-0.8865-0.7577-1.5169-1.4963-2.288-2.3349c-0.5186-0.564-1.3115-0.5793-1.771-1.1696
		c-0.5011-0.6439,0.0215-0.7325-0.9596-1.284c-0.1864-0.1047-0.4583-0.0854-0.6602-0.2057
		c-0.9824-0.5849-1.7076-1.3892-2.563-2.1223c-1.0277-0.8809-2.3509-0.9019-3.3392-1.7283c-0.8531-0.7134-0.9709-2.072-2.134-2.4507
		C24.2061,187.6222,24.6887,187.1696,25.0494,187.287z"/>
	<path style="fill:#414042;" d="M38.7425,189.562c1.2025,1.991,2.5964,3.8459,4.2359,5.4999
		c1.4609,1.474,3.072,2.6662,4.4292,4.2609c1.6606,1.951,3.3224,4.7856,5.6111,5.959c1.4005,0.7181,2.3643,1.4715,3.0392,2.9418
		c0.1643,0.3579-0.5743,0.4763-0.7241,0.1497c-0.9844-2.1444-3.0736-2.3002-4.5121-3.8848
		c-1.5603-1.7188-2.9434-3.6073-4.4692-5.3584c-1.2261-1.4072-2.7194-2.4662-4.0226-3.784
		c-1.6384-1.657-3.0324-3.5076-4.2358-5.4999C37.8688,189.4734,38.559,189.2581,38.7425,189.562z"/>
	<path style="fill:#414042;" d="M50.055,194.3172c0.4411,0.1731,0.4503,0.1849,0.7087,0.6119
		c0.2791,0.4614,0.2902,0.9011,0.6335,1.3831c0.4735,0.665,0.9575,0.9365,1.6741,1.3049c1.3946,0.7169,2.2027,1.3336,3.0846,2.6662
		c0.7625,1.1522,1.8928,1.908,2.6773,2.9862c1.0225,1.4054,2.7433,2.5269,4.4623,2.7964c0.4873,0.0764,0.219,0.6087-0.1996,0.5431
		c-1.6265-0.255-2.5097-1.0764-3.8578-1.8968c-0.2911-0.1772-0.6545-0.2675-0.8978-0.5013c-0.13-0.125-0.1138-0.3574-0.2013-0.4931
		c-0.744-1.1517-0.4963-0.9033-1.3676-1.6232c-0.599-0.4951-0.9781-1.1253-1.4126-1.76c-0.739-1.0795-1.4956-1.6341-2.6666-2.2312
		c-0.6571-0.3351-1.3457-0.6523-1.8423-1.2213c-0.4247-0.4866-0.6412-1.8695-1.1739-2.0786
		C49.2195,194.6244,49.6965,194.1765,50.055,194.3172z"/>
	<path style="fill:#414042;" d="M57.07,193.2607c1.6447,1.2263,3.0844,2.667,4.2299,4.3761
		c0.4668,0.6966,0.8324,1.4296,1.2299,2.1647c0.7305,1.3505,1.7974,1.8369,3.106,2.5164c0.6088,0.3161,1.2145,0.6425,1.7352,1.0947
		c0.918,0.7971,1.0031,1.4726,2.2578,1.9777c1.3931,0.5608,2.313,1.1374,2.6846,2.7219c0.0922,0.3927-0.6426,0.497-0.7242,0.1497
		c-0.5344-2.278-2.7689-1.7901-3.8854-3.3559c-1.0956-1.5365-2.5325-2.0239-4.0916-2.9602c-1.437-0.863-1.7831-2.1371-2.6346-3.5169
		c-1.1574-1.8754-2.6755-3.4552-4.4388-4.77C56.1646,193.3799,56.7796,193.0442,57.07,193.2607z"/>
	<path style="fill:#414042;" d="M62.6125,189.5481c1.0506,1.6174,2.8062,2.5632,4.0979,3.9723
		c0.6706,0.7314,1.2638,1.5312,1.772,2.3835c0.5165,0.8664,0.8295,2.2031,1.6807,2.7065c0.449,0.2656,0.9481,0.2762,1.3799,0.5794
		c0.6223,0.437,0.9569,1.3624,1.3362,1.9625c1.2208,1.9314,3.0456,4.0774,5.2468,4.8886c0.4597,0.1694-0.0195,0.6189-0.3791,0.4863
		c-1.6712-0.6158-3.0896-1.9917-4.2282-3.3303c-0.7016-0.8248-1.2396-1.7147-1.8015-2.6332
		c-0.6098-0.9969-1.3871-0.9049-2.2174-1.4818c-0.4668-0.3243-0.648-0.8895-0.8944-1.3712
		c-0.5847-1.1433-1.1516-2.2288-1.9622-3.2289c-1.3979-1.7242-3.4674-2.7841-4.6791-4.6495
		C61.7269,189.4674,62.4189,189.2502,62.6125,189.5481z"/>
	<path style="fill:#414042;" d="M68.777,188.7534c0.31,0.518,0.6282,1.032,0.9303,1.5546c0.2357,0.4076,0.3894,1.1584,0.7057,1.4685
		c0.3067,0.3009,0.723,0.5119,1.0415,0.8159c0.3837,0.3662,0.7421,0.7593,1.1073,1.1436c0.2925,0.3079-0.4073,0.538-0.6484,0.2843
		c-0.4289-0.4514-0.8452-0.9364-1.3233-1.3362c-0.3017-0.2524-0.7185-0.4324-0.9755-0.7328
		c-0.2409-0.2815-0.2837-0.6481-0.4152-0.9864c-0.2642-0.68-0.6961-1.3011-1.0709-1.9272
		C67.9048,188.6638,68.5947,188.4488,68.777,188.7534z"/>
	<path style="fill:#F1B486;" d="M109.0269,181.7271c0,0-1.2468-0.8182-2.1819-0.7448s-3.9083,2.8068-6.2341,2.3273
		c-2.3258-0.4796-5.3469,0.4795-6.0423,0.2877c-0.6953-0.1918-1.6544,0.081-1.8462,0.5081c-0.1918,0.427-1.6544,1.53-3.0451,1.6978
		c-1.3907,0.1678-2.7135,1.2737-2.7135,1.2737l3.6007-1.0579l3.5529-1.6544l3.5765,0.7477c0,0,5.8754-0.237,6.4657-0.7956
		c0.5903-0.5586,2.9732-1.9661,2.9732-1.9661L109.0269,181.7271z"/>
	<g>
		<path style="fill:#FFC691;stroke:#F1B486;stroke-width:1.2079;stroke-miterlimit:10;" d="M93.432,13.0477
			c0,0-0.8614,28.2514-2.3558,32.0644c-1.4944,3.8129-3.6637,5.2855-3.5691,12.0931c0.086,6.1879,2.0326,20.4952,8.0918,22.5131
			c6.0592,2.0178,18.8548,1.7496,29.6754-3.1408s13.4218-12.6148,17.5797-19.8851s2.6529-32.8552,2.4447-34.8747
			S134.3016,10.3485,132.653,9.0045c-1.6485-1.344-21.2908,2.1948-21.2908,2.1948S94.4431,7.1969,93.432,13.0477z"/>
		<path style="fill:#F1B486;" d="M99.7113,26.5206c-0.0269,0.2797,0.2963,8.308,8.6749,12.8268
			c6.6041,3.1648,10.6052,1.4969,10.6052,1.4969s-4.8182-6.4928-6.2324-9.6696l21.0467,10.3593c0,0-3.5636-3.9383-5.7799-5.7403
			c-2.2163-1.802-3.7044-5.4687-3.7044-5.4687s7.4385,5.1053,8.2365,6.5306c0.798,1.4254,3.2865,4.4468,3.4215,7.3625
			c0.1351,2.9157-0.191,4.9566-0.191,4.9566s4.2838-5.5391,3.9012-7.5541s5.3737,7.2672-3.9745,21.3369
			c-9.3481,14.0696-34.4921,18.2638-37.3061,17.9209c0,0,11.555,0.6734,18.5914-1.5484c7.0363-2.2218,14.6079-6.0735,17.0709-7.2503
			c2.463-1.1768,8.1038-8.7728,8.7142-9.2972c0.6104-0.5244,4.0303-20.1725,4.0303-20.1725l-1.5105-8.3849
			c0,0-2.8573-5.3342-2.9929-5.7547c-0.1356-0.4205-5.0342-4.0688-5.0342-4.0688l-15.0299-4.9113c0,0-4.6308-4.0451-4.904-4.0169
			c-0.2733,0.0282-6.0992,0.8134-6.4834,0.6684c-0.3841-0.145-5.4818,1.2112-5.4818,1.2112l-6.3907-0.014l-6.9778,18.8458
			l7.8776,0.3823L99.7113,26.5206z"/>
		<g>
			<path style="fill:#E2AC7F;" d="M110.387,43.9423c0,0,2.0352-3.3313,7.5289-1.7458c5.4933,1.5847,5.0751,4.1884,5.2173,4.4912
				c0.1416,0.3025-3.1605-2.8537-4.6267-3.1885c-1.467-0.335-8.1531,0.8124-8.1531,0.8124L110.387,43.9423z"/>
			<path style="fill:#FFFFFF;" d="M110.3792,44.3238c0,0-0.9551,5.4063,4.1675,6.7542c5.1228,1.348,7.4973-2.6076,8.0111-4.3981
				c0.5136-1.7898-5.3263-4.0831-8.2956-3.3873C111.2938,43.9881,110.3792,44.3238,110.3792,44.3238z"/>
			<path style="fill:#3C2415;" d="M124.8734,47.9341c0,0-1.8138,0.0776-2.6445-0.3937c0,0,0.7512-1.2138-0.0948-1.88
				c-0.8463-0.6671-4.7317-2.3308-6.8425-2.0931c-2.1102,0.2379-3.789,0.6409-4.9125,0.7565l-0.6086-0.2895
				c0,0,1.2415-0.5465,2.6669-0.9193c1.4257-0.3711,3.9619-0.6305,7.0824,0.2652c3.1205,0.8956,3.8908,3.1863,3.8908,3.1863
				S123.7272,47.7933,124.8734,47.9341z"/>
			<g>
				<path style="fill:#178EC3;" d="M110.7494,44.8583c-0.6255,1.3126-0.0402,3.2191,1.4604,3.9341
					c1.5012,0.7153,3.2248,0.2315,3.8496-1.0814c0.6255-1.3126,0.6115-2.5137-0.8894-3.228
					C112.9181,43.3889,111.3517,44.1474,110.7494,44.8583z"/>
				
					<ellipse transform="matrix(0.2855 -0.9584 0.9584 0.2855 36.8965 142.0035)" style="fill:#001523;" cx="113.6846" cy="46.2567" rx="1.7315" ry="1.416"/>
				
					<ellipse transform="matrix(0.2852 -0.9585 0.9585 0.2852 35.8259 140.0621)" style="fill:#FFFFFF;" cx="111.8212" cy="46.0106" rx="0.7156" ry="0.485"/>
				
					<ellipse transform="matrix(0.2853 -0.9584 0.9584 0.2853 36.8496 143.774)" style="fill:#FFFFFF;" cx="114.8261" cy="47.1791" rx="1.1267" ry="0.8763"/>
			</g>
			<path style="fill:#3C2415;" d="M114.2869,35.5624c-0.0397,0.8291,0.8307,1.7004,2.5175,1.7593
				c2.2656,0.0791,5.7755,0.8011,8.3458,3.9993c0,0-1.2395-4.6461-6.204-6.8729c-0.6783-0.3048-1.6255-0.4317-2.356-0.3942
				C115.0682,34.1313,114.3221,34.8303,114.2869,35.5624z"/>
		</g>
		<g>
			<path style="fill:#FFFFFF;" d="M102.1949,43.1292c0,0-0.625,4.7602-5.2519,4.5372c-4.6268-0.2237-5.5667-4.1463-5.5243-5.7739
				c0.0424-1.6281,5.1253-1.8078,7.418-0.4471C101.13,42.8062,102.1949,43.1292,102.1949,43.1292z"/>
			<path style="fill:#E2AC7F;" d="M102.289,42.8095c0,0-0.8213-3.3134-5.82-3.4363c-4.9981-0.1229-5.3337,2.1588-5.5315,2.3742
				c-0.1977,0.2148,3.3855-1.5495,4.6966-1.4431c1.3117,0.1063,6.585,2.822,6.585,2.822L102.289,42.8095z"/>
			<path style="fill:#178EC3;" d="M97.3227,42.6281c0.1761,1.2594-0.8132,2.6952-2.2528,2.8971
				c-1.4402,0.2018-2.7498-0.6554-2.9266-1.9142c-0.1762-1.2588,0.1516-2.2563,1.5912-2.4581
				C95.9336,40.9971,97.0067,41.8768,97.3227,42.6281z"/>
			<path style="fill:#3C2415;" d="M89.158,42.3292c0,0,1.4922,0.5418,2.3091,0.3671c0,0,0.2302-0.6709,0.9851-1.234
				c1.1116-0.8292,4.0142-0.8476,5.7116-0.0942c1.6973,0.7534,3.2201,1.9782,4.0312,1.7611l0.5834-0.081
				c0,0-0.969-0.4404-2.0602-1.1252c-1.0906-0.6848-3.0603-1.9099-5.8983-1.9842c-2.8373-0.0742-4.0819,1.6342-4.0819,1.6342
				S90.1508,42.5129,89.158,42.3292z"/>
			
				<ellipse transform="matrix(0.0162 -0.9999 0.9999 0.0162 49.9623 136.8217)" style="fill:#001523;" cx="94.5066" cy="43.0227" rx="1.5141" ry="1.2384"/>
			
				<ellipse transform="matrix(0.0161 -0.9999 0.9999 0.0161 51.2774 138.7239)" style="fill:#FFFFFF;" cx="96.1254" cy="43.3075" rx="0.6261" ry="0.4239"/>
			
				<ellipse transform="matrix(0.0164 -0.9999 0.9999 0.0164 48.2984 136.0791)" style="fill:#FFFFFF;" cx="93.3123" cy="43.4916" rx="0.9847" ry="0.766"/>
			<path style="fill:#3C2415;" d="M101.9754,34.8803c-0.1263,0.7147-1.0369,1.2897-2.4869,1.014
				c-1.9474-0.3702-5.0801-0.4326-7.89,1.7983c0,0,1.9547-3.7228,6.6187-4.6627c0.6373-0.1289,1.4696-0.0542,2.0854,0.119
				C101.5856,33.5089,102.0869,34.2491,101.9754,34.8803z"/>
		</g>
		<path style="fill:#FFC691;" d="M102.0914,40.8923c0.1926-0.0084,1.4383,2.105,1.4533,2.2512s-1.3594,3.9497-1.3764,4.0959
			s-2.319,1.1839-2.319,1.1839s-0.1182-1.4027-0.0549-1.5763s0.9241-5.0409,0.9319-5.7966c0.0079-0.7558,0.0066-0.914,0.0066-0.914
			L102.0914,40.8923z"/>
		<path style="fill:none;stroke:#F1B486;stroke-width:1.2079;stroke-miterlimit:10;" d="M100.7256,39.8023
			c0,0,0.5551,7.5036-2.185,9.7454c-2.7437,2.2448-3.9051,4.4552-2.9909,5.878c1.4895,2.3181,4.8202,2.2515,5.6844,1.1887
			c0.8641-1.0628,5.4301,1.6535,3.9916-1.2815"/>
		<g>
			<path style="fill:#FFC691;stroke:#F1B486;stroke-width:1.2079;stroke-miterlimit:10;" d="M134.5413,60.5784
				c0,0,2.0076,1.1869,2.9984,0.5569c0.9908-0.63,1.607-4.1624,2.5878-5.6209s3.4549-5.2561,2.3156-6.7985
				s-4.1578-4.4241-5.2848-2.2213"/>
			<path style="fill:#F1B486;" d="M138,55.1304c0,0,0.4713-1.783,1.3568-2.7038c0.8854-0.9208,2.432-3.0409,0.4668-3.6678
				c0,0-0.8094,0.0834-1.0575,0.8631"/>
		</g>
		
			<ellipse transform="matrix(0.9947 -0.1025 0.1025 0.9947 -5.4148 14.3526)" style="fill:#96AA00;" cx="136.888" cy="59.8412" rx="0.6982" ry="0.6982"/>
	</g>
	
		<ellipse style="fill:#C1716B;stroke:#BA645D;stroke-width:1.2079;stroke-miterlimit:10;" cx="99.9392" cy="97.334" rx="2.0411" ry="1.9405"/>
	<path style="fill:#272A3F;" d="M98.9009,99.9298c-1.0227,0.9672-2.5178,2.1596-3.8342,2.3473
		c-2.2674,0.3233-6.9786,0.6995-7.3528,2.5545c-0.0135,0.9706,0.7973,1.5784,0.8787,2.3757
		c1.0342,0.7762,2.7499,1.0414,2.7499,1.0414s-0.6463,0.4943-0.8609,0.4943c-0.2146,0-4.4529,1.1504-5.1718-0.6466
		s0.017-5.0929,0.682-5.7524s2.7764-3.8114,3.6605-3.9327c0.884-0.1213,4.4402-0.7938,4.8713-1.0772
		c0.4311-0.2834,2.1385,1.5517,2.221,1.7579C96.8269,99.2981,98.5506,99.5898,98.9009,99.9298z"/>
	<polygon style="fill:#D39C76;" points="101.6304,95.5392 100.7003,97.9795 100.1894,96.5706 	"/>
	<path style="fill:#603913;stroke:#3C2415;stroke-width:1.1625;stroke-miterlimit:10;" d="M103.4532,92.8348
		c0,0.1471-6.6652,7.8852-11.4907,8.5781c-5.9282,0.8512-5.7219,4.623-4.8773,5.4358c0.8446,0.8128-1.9862,0.6621-2.7586-0.5517
		c-0.7724-1.2138-0.5149-5.5909,0.8828-6.584s3.543-3.4925,5.9831-4.1739c2.44-0.6813,4.132-3.0722,4.794-3.1825
		C96.6485,92.2463,103.4532,92.8348,103.4532,92.8348z"/>
	<path style="fill:#3C2415;" d="M81.81,108.8353c-0.3719-7.1232,9.4715-12.4977,12.1515-14.6615
		c2.6801-2.1638-1.1525-4.2959-0.3711-7.7012c0.3924-1.7096,2.6608-3.7953,4.7867-5.2228c1.3636,0.0946,5.0787,0.1862,5.9936,0.1237
		c-0.1408,2.4434,1.3551,5.9811,1.3551,5.9811s2.5608,4.419-1.7478,6.3137c-4.3085,1.8947-10.9892,4.3557-14.9207,7.1672
		c-0.7841,0.5607-2.094,1.8937-2.7528,3.1327c-0.7675,1.4433-0.8162,2.8016-0.6724,3.319c1.2182,3.964,7.7961,3.4654,7.7961,3.4654
		s-2.3482,2.1039-5.1328,2.318c0.2007,0.1798,1.6049,0.3988,1.6049,0.3988l-3.4127,1.6852
		C86.4877,115.1547,81.638,113.3743,81.81,108.8353z"/>
	<g>
		<path style="fill:#603913;" d="M85.7052,114.2526c0,0-3.559-2.447-2.9953-6.2921c0.5636-3.8457,3.7587-6.989,7.9313-8.9336
			c0,0-5.9062,3.7465-5.7923,7.9555c0.1138,4.2085,6.1231,4.5627,6.1231,4.5627l-2.8888,0.9465c0,0-3.3314-1.2791-3.8403-4.1486
			c0,0-0.3855,3.503,3.6455,5.3601L85.7052,114.2526z"/>
		
			<linearGradient id="SVGID_2_" gradientUnits="userSpaceOnUse" x1="-1372.4752" y1="-175.8557" x2="-1372.4752" y2="-134.768" gradientTransform="matrix(0.9947 -0.1025 0.1025 0.9947 1474.0806 127.896)">
			<stop  offset="0.0159" style="stop-color:#180403"/>
			<stop  offset="0.5041" style="stop-color:#3F1611"/>
			<stop  offset="1" style="stop-color:#63261D"/>
		</linearGradient>
		<path style="fill:url(#SVGID_2_);" d="M93.2865,110.7206c-3.1159,0.3132-8.5863-0.6646-7.3247-5.0936
			c0.7572-2.657,3.563-4.4466,5.5866-6.0555c2.5137-1.9971,4.7519-4.1153,6.4245-6.9114c1.5827-2.6473,2.1678-5.4615,2.2547-8.5272
			c0.0022-0.0937-0.1606-0.1002-0.1656-0.005c-0.1531,3.1727-0.7528,6.0398-2.4525,8.7586
			c-1.9337,3.0906-4.5976,5.2487-7.3886,7.488c-1.8379,1.4736-4.2528,3.2937-4.5827,5.8399
			c-0.28,2.1593,1.1188,3.6616,3.0485,4.2776c1.3596,0.4338,2.8787,0.5575,4.3087,0.4488
			c-0.5333,0.4548-1.0724,0.9742-1.6862,1.2797c-0.9311,0.4624-2.0471,0.6382-3.0639,0.8084
			c-0.1019,0.0172-0.1156,0.1708-0.0061,0.1895c0.2989,0.05,0.5971,0.1,0.8959,0.1499c0.2222,0.0372,0.4456,0.0789,0.6694,0.1125
			c0.3414,0.0509,0.0499,0.0155-0.1802,0.112c-0.6667,0.2803-1.2852,0.6938-1.9596,0.9729
			c-0.2997,0.1236-0.8141,0.4397-1.1473,0.4326c-0.5322-0.0099-1.4258-0.6986-1.8388-0.9985
			c-0.556-0.4039-1.0494-0.8983-1.4424-1.4658c-0.7056-1.0185-1.0461-2.2449-1.0647-3.481
			c-0.1006-6.7981,7.0369-9.8345,11.266-13.7057c2.3285-2.1322,4.2935-4.9478,4.2941-8.2496
			c0.0002-0.0367-0.0558-0.0309-0.0567,0.0058c-0.0606,7.3466-8.2214,10.295-12.5284,14.7703
			c-2.9013,3.0142-4.714,8.4517-1.1811,11.759c0.5974,0.5598,1.8709,1.6099,2.7081,1.5022c0.4687-0.0603,1.003-0.3717,1.4329-0.5595
			c0.694-0.3032,1.3667-0.6461,1.9937-1.0732c0.067-0.0456,0.0369-0.156-0.0395-0.1688c-0.4107-0.0698-0.8215-0.1396-1.2322-0.2094
			c0.8692-0.1504,1.7765-0.34,2.5513-0.7202c0.7252-0.3571,1.3456-1.0011,1.9737-1.5056
			C93.4281,110.8395,93.3849,110.7112,93.2865,110.7206z"/>
	</g>
	<path style="fill:#E78277;stroke:#BA645D;stroke-width:1.2079;stroke-miterlimit:10;" d="M104.1171,93.7561
		c0,0-6.4732-4.7455-12.5852-3.2742c0,0-3.2873,1.4049-1.914,3.8081c0,0,11.4017,0.1236,11.8734,4.5866
		C101.4913,98.8766,105.6196,97.9924,104.1171,93.7561z"/>
	
		<path style="fill:#2D304F;stroke:#52586D;stroke-width:1.2079;stroke-linecap:round;stroke-linejoin:round;stroke-miterlimit:10;" d="
		M125.9001,96.6576c0,0,2.6219,1.4513-0.2917,5.0971c0,0,1.9171,1.3492,3.0521,0.3461s9.1046-6.4872,9.1046-6.4872l-5.8249,0.6968
		L125.9001,96.6576z"/>
	<path style="fill:#603913;stroke:#3C2415;stroke-width:1.2079;stroke-miterlimit:10;" d="M130.4343,23.5727
		c0.3772,0.7067,4.0993,12.8532,7.1161,20.9641c0.491,1.3202,1.4033,0.8265,3.1981,2.253c0.4418,0.3511,1.4831,2.6712,1.3243,3.4757
		c-1.8765,9.5088-12.1075,24.5024-12.1075,24.5024s-2.2575,9.0706-3.2461,14.8107c2.4037-0.0143,18.8333-0.3743,25.6843-10.907
		c5.7193-12.2406,12.9659-24.6932,11.4043-44.7424c-1.4095-18.0971-17.5053-29.5342-24.8657-31.6508
		c-16.2938-4.6857-34.7435,1.9506-34.7435,1.9506l20.4925,13.4522C124.6913,17.6812,124.3779,12.2266,130.4343,23.5727z"/>
	<path style="fill:#603913;stroke:#3C2415;stroke-width:1.2079;stroke-miterlimit:10;" d="M104.1988,4.229
		c0,0-9.075,0.1241-13.4404,6.5786s-4.228,9.3614-5.1865,11.083c-0.9585,1.7216-1.72,10.0765-0.7682,11.439
		c0.9519,1.3624,1.917,1.9559,5.2427,2.0561c3.3257,0.1002,9.2853,0.3411,9.2853,0.3411s-3.9554-13.5746,1.5827-18.0981
		c0,0-4.8836,20.7103,15.7959,22.9601c0,0-10.0831-14.3774-7.3235-20.6663c0,0,1.8705,18.1451,21.974,21.1034
		c0,0-12.8526-11.3331-11.1061-18.0044c0,0,5.4777,10.6328,10.4605,11.7419c4.9828,1.1092,6.6705,8.0355,6.6705,8.0355
		s4.5119-17.6269-4.3876-28.3938"/>
	<path style="fill:#2D304F;" d="M138.0604,94.2351c0,0-0.1584-0.3574-3.2204,0.4345c-3.062,0.7919-5.0946,2.2965-5.0946,2.2965
		l-2.9829,2.3493l-0.9767,0.6599c0,0-0.8447,0.7919-1.1087,0.9239c-0.264,0.132-0.3168,1.1087-0.3168,1.1087
		s6.7312-0.0792,6.85-0.1584s5.1342-2.7453,5.451-2.8773c0.3168-0.132,2.2965-2.4813,2.3757-2.5869
		C139.1162,96.2798,138.0604,94.2351,138.0604,94.2351z"/>
	<path style="fill:#373B5B;" d="M149.7173,102.1234c0,0-4.4218-7.0708-7.3385-8.6754c-1.137-0.6202-4.291-0.2582-4.291-0.2582
		c-7.5187,0.5035-8.2923,4.8916-9.3216,6.9932c-1.0292,2.1016,2.6054,5.329,2.6054,5.329
		c-0.4503-1.7263-0.3753-5.1039-0.3753-5.1039c0.3463-4.4148,3.463-5.9593,6.0398-6.4758c1.8917-0.3792,5.1514,1.2139,7.1474,2.9914
		C146.1106,98.6398,148.3517,100.6907,149.7173,102.1234z"/>
	<g>
		<g>
			<path style="fill:#FFC691;" d="M141.6775,50.3152c-0.641-0.161-0.679-2.3837-1.3167-2.185l-3.1207-1.8351
				c1.127-2.2027,4.1454,0.6789,5.2848,2.2213C142.8726,49.3515,141.9718,49.5019,141.6775,50.3152z"/>
			<path style="fill:#F1B486;" d="M142.346,49.4051c0.0205-1.1566-1.2503-1.9741-1.7605-2.4106
				c-0.7785-0.6662-1.6182-1.1713-2.2411-1.1204c-0.2128,0.0315-0.5583,0.2285-0.8119,0.7228l-0.6266-0.4728
				c0.3909-0.7636,0.9664-0.9888,1.3776-0.998c0.8988-0.0736,1.9225,0.5532,2.7901,1.2981c0.7774,0.6677,1.4294,1.4303,1.7537,1.869
				C143.0501,48.595,142.5251,49.4142,142.346,49.4051z"/>
		</g>
	</g>
	<path style="fill:none;stroke:#3C2415;stroke-width:1.2079;stroke-linecap:round;stroke-linejoin:round;stroke-miterlimit:10;" d="
		M142.0851,50.1762c0.0611-0.749,2.6781-3.9477,1.6511-10.2182"/>
	<g>
		<path id="XMLID_5315_" style="fill:#9D0227;" d="M91.3017,61.8323c0,0-0.0702,6.2193,5.2197,7.6143
			c6.2646,1.6455,10.7085-4.2768,10.7085-4.2768s-6.6324-0.0099-9.4624-0.6615C94.935,63.8565,91.3017,61.8323,91.3017,61.8323z"/>
		<path id="XMLID_5314_" style="fill:#DE0227;" d="M93.2174,66.6779c-0.3418,2.4378,0.6451,3.6515,4.5904,3.9776
			c5.2818,0.4381,9.6747-5.705,9.6747-5.705s-3.3734-0.3592-7.2938-0.9044C96.2661,63.5007,93.5592,64.2401,93.2174,66.6779z"/>
		<path id="XMLID_5313_" style="fill:#FFFFFF;" d="M91.573,61.9795c0,0,0.3049,2.1154,4.1404,3.4691
			c4.1672,1.4771,10.7966-0.0506,10.7966-0.0506s-6.1267-0.9648-9.4937-2.0578C92.4435,61.8535,91.573,61.9795,91.573,61.9795z"/>
		<path id="XMLID_5312_" style="fill:#F3573F;" d="M93.7236,61.3235c0.5774,0.0013,1.0788,0.6237,1.8281,0.9572
			c1.4349,0.6241,3.6655-0.369,5.1014,0.0687c4.0646,1.244,6.4143,2.6883,6.8294,2.6012c-1.8851,1.5131-5.3489-0.7397-7.3599-0.4809
			c-1.3272,0.1702-3.6987-0.4754-5.0135-0.7908c-0.9277-0.2172-1.5533-0.7239-2.3086-0.9984
			c-1.2176-0.4458-1.1223-0.3187-1.4988-0.848c0.0116,0.0191,0.6866,0.1262,1.0331-0.0048
			C92.7377,61.677,93.1128,61.3251,93.7236,61.3235z"/>
		<g id="XMLID_5309_">
			<path id="XMLID_5311_" style="fill:#C1636D;" d="M91.2941,61.8704c-0.0023,0.0118-0.0049,0.0263-0.008,0.0435
				C91.2884,61.8986,91.2913,61.8846,91.2941,61.8704z"/>
			<path id="XMLID_5310_" style="fill:#EF967B;" d="M92.5805,68.9478c-0.0015-0.0029-0.0029-0.0059-0.0043-0.0088
				c-1.7922-3.5444-1.3822-6.5036-1.2901-7.025c-0.0231,0.1561-0.0192,0.3714,0.0022,0.618
				c-0.0043-0.3252-0.0009-0.5771,0.0064-0.665c-0.0002,0.0011-0.0005,0.0023-0.0007,0.0035
				c0.0003-0.0014,0.0005-0.0023,0.0007-0.0037c0.002-0.0241,0.0043-0.0372,0.0069-0.0344
				c0.0952-0.1913-0.3958,5.1476,4.6878,7.0258c6.6501,2.4679,11.5197-3.9617,11.493-3.9076
				c0.2716-0.1271-3.1803,8.3882-11.0646,6.6946c-2.1666-0.4656-3.2381-1.4933-3.8357-2.694l0.0001,0.0005
				C92.5817,68.9503,92.5811,68.9491,92.5805,68.9478z"/>
		</g>
	</g>
	<path style="fill:#7F532E;" d="M161.985,39.3223c0,0-1.7971-19.8744-12.9283-27.7607S124.8308,3.594,124.8308,3.594
		s18.636,4.6571,22.5297,10.8679S160.8186,28.7498,161.985,39.3223z"/>
	<path style="fill:#7F532E;" d="M129.5906,12.5542c0,0,6.6959,9.3133,6.5171,17.9874l-0.0359,4.4202
		c0,0-0.9797-2.7772-3.6204-3.9046c-2.6407-1.1275,1.9053-3.8057-0.048-7.9103S129.5906,12.5542,129.5906,12.5542z"/>
	<path style="fill:#7F532E;" d="M104.4007,7.8612c0,0-15.7819,3.7728-18.2905,20.7132
		C86.1102,28.5744,85.8603,8.4891,104.4007,7.8612z"/>
	<path style="fill:#7F532E;" d="M105.1257,14.8947c0,0-0.9023,15.738,6.511,21.5525c0,0-7.6777-0.7484-9.2612-7.9675
		S105.1257,14.8947,105.1257,14.8947z"/>
	<path style="fill:#3C2415;" d="M145.4152,52.7006c0,0-6.4167,18.8815-15.4497,22.0672l-1.9166,8.199
		C128.0488,82.9669,137.6378,78.1336,145.4152,52.7006z"/>
	<path style="fill:#3C2415;" d="M126.77,89.2903c0,0,1.4964,0.4569,7.5707-0.3075c6.0742-0.7644,12.3823-4.7249,15.2812-6.9989
		c2.8989-2.274,3.5966-5.0406,3.8731-5.6191c0.2765-0.5786-6.268,6.0444-9.2189,7.3946c-2.951,1.3502-16.7369,3.8787-17.1208,3.4719
		L126.77,89.2903z"/>
	<path style="fill:#3C2415;" d="M158.0122,41.6613c0,0,1.608,19.2625-8.3512,28.5477c0,0,3.0502-10.4098,3.6258-14.882
		s2.526-14.8254,0.7269-23.2484C155.567,31.345,158.0122,41.6613,158.0122,41.6613z"/>
	<path style="fill:none;stroke:#F1B486;stroke-width:1.2079;stroke-linecap:round;stroke-linejoin:round;stroke-miterlimit:10;" d="
		M99.0814,75.1514c0,0-3.6585-2.8728-5.2675-2.1353c-1.6088,0.7392-1.4184,1.276-1.4184,1.276"/>
	<g>
		<g>
			<g>
				<path style="fill:none;stroke:#272A3F;stroke-width:1.2887;stroke-linejoin:round;" d="M126.7889,129.8484
					c-0.0127-0.1738-0.0264-0.3486-0.04-0.5239c0,0-0.1802,0.0562-0.5,0.147"/>
				<path style="fill:none;stroke:#272A3F;stroke-width:1.2887;stroke-linejoin:round;stroke-dasharray:1.1013,1.1013;" d="
					M125.1878,129.7552c-2.4385,0.6182-7.1997,1.5972-10.3506,0.7891"/>
				<path style="fill:none;stroke:#272A3F;stroke-width:1.2887;stroke-linejoin:round;" d="M114.3065,130.385
					c-0.1685-0.0586-0.3311-0.123-0.4868-0.1943c-0.1279,0.0791-0.2441,0.209-0.3491,0.3833"/>
				<path style="fill:none;stroke:#272A3F;stroke-width:1.2887;stroke-linejoin:round;stroke-dasharray:1.0401,1.0401;" d="
					M113.1043,131.5428c-0.894,3.6704,0.4868,13.0815,6.5874,13.0972c6.9297,0.0181,7.6807-6.2739,7.1348-14.2681"/>
			</g>
		</g>
		<g>
			<polygon style="fill-rule:evenodd;clip-rule:evenodd;fill:#FFFFFF;" points="117.1516,136.6258 119.8008,136.5479 
				118.4556,139.5941 118.1012,139.2594 118.9589,137.3255 118.9802,137.271 118.9889,137.2195 118.9787,137.1593 
				118.9597,137.1274 118.9354,137.1021 118.8794,137.0739 118.81,137.0617 117.1853,137.1096 117.1516,136.6258 			"/>
			<path style="fill-rule:evenodd;clip-rule:evenodd;fill:#FFFFFF;" d="M119.857,133.7721c0.3419-0.0101,0.642,0.2926,0.6686,0.6736
				c0.0266,0.381-0.2301,0.7002-0.572,0.7103c-0.3414,0.01-0.6418-0.2928-0.6684-0.6738
				C119.2586,134.1012,119.5156,133.7822,119.857,133.7721z"/>
			<polygon style="fill-rule:evenodd;clip-rule:evenodd;fill:#FFFFFF;" points="120.071,137.0455 118.8037,139.8406 
				119.2068,140.0421 120.0376,138.2233 120.0636,138.1814 120.1037,138.1571 120.1563,138.1444 120.2172,138.1537 
				120.2559,138.1804 120.2856,138.216 121.3749,139.9783 121.7553,139.7377 120.071,137.0455 			"/>
			<polygon style="fill-rule:evenodd;clip-rule:evenodd;fill:#FFFFFF;" points="120.2586,136.5304 122.9391,136.4515 
				122.9723,136.9272 121.3346,136.9754 121.2845,136.9954 121.2385,137.022 121.2025,137.0697 121.1899,137.126 121.1935,137.1771 
				121.2099,137.2302 122.3562,139.1305 122.0616,139.4738 120.2586,136.5304 			"/>
			<path style="fill-rule:evenodd;clip-rule:evenodd;fill:#FFFFFF;" d="M117.7537,136.0717l0.0002,0.0023
				c-0.0009,0.0116-0.0015,0.0202-0.0011,0.0258c0.0025,0.0356,0.0229,0.0615,0.0607,0.078
				c0.0381,0.0161,0.0953,0.0232,0.1725,0.0209c0.0584-0.0017,0.1036-0.0103,0.1356-0.0256c0.0322-0.0151,0.0475-0.0355,0.0458-0.06
				c-0.0026-0.0377-0.0703-0.0666-0.203-0.0863c-0.0161-0.0023-0.0275-0.0043-0.0351-0.0052
				c-0.0087-0.0016-0.021-0.0035-0.0372-0.0059c-0.2114-0.0316-0.3482-0.0686-0.4106-0.1111
				c-0.0303-0.0209-0.0542-0.0455-0.0709-0.0749c-0.0167-0.0287-0.0265-0.0618-0.029-0.0984
				c-0.0063-0.0903,0.0369-0.1606,0.1296-0.2107c0.0923-0.05,0.2307-0.0777,0.4156-0.0832c0.1822-0.0054,0.319,0.0126,0.4097,0.0543
				c0.0908,0.0419,0.1398,0.1088,0.1462,0.2005l0.0008,0.0109l-0.3456,0.0102l-0.0003-0.0042
				c-0.0022-0.0317-0.021-0.0551-0.0572-0.07c-0.0362-0.0158-0.0877-0.0224-0.1553-0.0205
				c-0.0524,0.0015-0.0923,0.0085-0.1198,0.0209s-0.0408,0.0297-0.0393,0.0513c0.0026,0.0379,0.0805,0.0686,0.2328,0.0908
				c0.0294,0.0042,0.0524,0.0073,0.0689,0.0096c0.1087,0.017,0.1865,0.0318,0.2332,0.0446
				c0.0465,0.0132,0.0865,0.0288,0.1208,0.0472c0.0383,0.0211,0.0691,0.0485,0.091,0.082c0.0225,0.0339,0.0353,0.0706,0.0381,0.1114
				c0.0065,0.0928-0.0409,0.1663-0.1413,0.2194c-0.1012,0.0535-0.2498,0.0832-0.4457,0.0889
				c-0.1935,0.0057-0.3355-0.0147-0.4256-0.0603c-0.0902-0.0458-0.139-0.1221-0.1465-0.2285l-0.0009-0.0134L117.7537,136.0717
				L117.7537,136.0717z M118.7215,136.3465l-0.064-0.917l0.9845-0.029l0.0138,0.1977l-0.6147,0.0181l0.0102,0.146l0.5681-0.0167
				l0.0136,0.1953l-0.5681,0.0167l0.0124,0.1777l0.6376-0.0188l0.014,0.2002L118.7215,136.3465L118.7215,136.3465z
				 M119.8837,136.3123l-0.064-0.917l0.4681-0.0138l0.5437,0.6007l-0.043-0.6154l0.3544-0.0104l0.064,0.917l-0.4848,0.0143
				l-0.5275-0.6028l0.0431,0.617L119.8837,136.3123L119.8837,136.3123z M122.1373,135.8796l-0.2003-0.3281l-0.1641,0.3388
				L122.1373,135.8796L122.1373,135.8796z M121.5993,136.2618l-0.3705,0.0109l0.5085-0.9338l0.4099-0.0121l0.61,0.9009
				l-0.412,0.0121l-0.0946-0.163l-0.5733,0.0169L121.5993,136.2618z"/>
		</g>
	</g>
	<g>
		<path d="M140.0341,122.8066l15.6542-12.189l-1.5972-1.9854l-16.0426,12.307
			C138.0485,120.9392,138.8804,123.7656,140.0341,122.8066z"/>
		<path style="fill:#808285;" d="M163.6767,118.1725c0.1194,0.4223-3.0858,2.2348-3.5481,1.3221
			c-0.4623-0.9127-3.0402-6.6821-6.2995-10.5838s-4.2472-3.9945-2.9205-4.8971c1.3267-0.9026,2.5892-1.6098,2.5892-1.6098
			s2.5349,2.5514,5.2085,6.3139C160.6729,111.4857,162.7796,114.9997,163.6767,118.1725z"/>
		<path style="fill:#FFFFFF;" d="M160.4343,118.019c0,0-2.3318-5.194-4.585-7.9595s-4.6374-5.4374-4.6374-5.4374
			s-0.2681-0.0803,0.3645-0.3875c0.6326-0.3072,2.3403-1.3931,2.3403-1.3931s3.8463,4.3773,5.2568,6.5451
			c2.254,3.0664,3.8609,6.7979,4.158,7.71c0.2971,0.912-2.6849,1.3819-2.6849,1.3819S160.422,118.3061,160.4343,118.019z"/>
		<path style="fill:#414042;" d="M160.732,117.0481l-0.3726-0.7256c0,0,1.6801-0.6807,1.8911-0.9887l0.3518,0.8474L160.732,117.0481
			z"/>
		<path style="fill:#414042;" d="M159.8953,115.3703l-0.3828-0.6648c0,0,0.8433-0.4729,1.1099-0.6442l0.2856,0.7558
			L159.8953,115.3703z"/>
		<polygon style="fill:#414042;" points="155.0995,107.9058 154.4335,107.0684 156.2098,105.534 156.8707,106.3401 		"/>
		<path style="fill:#414042;" d="M153.3386,105.6401l-0.6894-0.8125l1.8174-1.4089l0.6558,0.8213
			C155.1224,104.2399,153.2764,105.5816,153.3386,105.6401z"/>
	</g>
	<polygon style="fill:#F1B486;" points="100.9687,61.8662 100.3584,61.2346 98.7821,61.0772 98.902,61.8662 	"/>
	<polygon style="fill:#F1B486;" points="96.2124,61.0117 95.6052,60.8599 94.9799,61.4863 95.6669,61.8273 	"/>
	<path style="fill:#EF967B;" d="M102.4987,63.7398c0,0-1.8171-0.7847-2.6516-0.8859c-0.8344-0.1004-1.629,0.3677-1.629,0.3677
		s1.2298-0.2649,1.7255-0.1456C100.5412,63.2211,102.5063,63.9444,102.4987,63.7398z"/>
	<path style="fill:#EF967B;" d="M95.1845,62.541c0,0-0.7116-0.7182-1.0109-0.6706c-0.2992,0.0469-1.3619-0.017-1.7851,0.2309
		c0,0,1.1725,0.0624,1.6881,0.0748c0.3301,0.0074,0.5924,0.5534,0.8212,0.5182C95.1266,62.6591,95.351,62.6672,95.1845,62.541z"/>
	<path style="fill:#F4D5CE;" d="M95.5608,69.811c0,0-1.6814-0.7903-2.1191-1.2288c-0.4204-0.4206-0.6202-0.0297-0.4431,0.1256
		c0.1309,0.1148,1.3815,1.2737,2.1683,1.4173C95.9542,70.2676,96.0144,70.0696,95.5608,69.811z"/>
	<path style="fill:#BA7261;" d="M103.1234,70.4629c0,0-2.8782,1.2769-4.2144,1.2857c-1.5585,0.0095-2.3697,0.0135-4.7686-0.9977
		c0,0,1.7624,1.3695,4.8206,1.2082C102.0194,71.797,103.1234,70.4629,103.1234,70.4629z"/>
	<g>
		<path style="fill:#FFC691;stroke:#F1B486;stroke-width:0.6602;stroke-miterlimit:10;" d="M26.9757,184.4576
			c0,0,1.4269-0.3329,2.0928,0c0.6659,0.3329,2.641,1.2367,4.65,0.6659c2.009-0.5708,4.9582-0.3146,4.9582-0.3146
			s1.2364,0.1719,2.1877-0.7318c0.9513-0.9037,2.0928-1.2367,2.1879-2.4733c0.0951-1.2367,0.1903-3.2343,0-3.9478"/>
		<path style="fill:none;" d="M34.086,185.0305c0,0,2.7353-1.6669,3.8293-1.5717"/>
		<path style="fill:none;" d="M37.9154,182.5551c-0.1903,0-2.9377-0.2854-3.5673,1.1415"/>
		<path style="fill:none;" d="M35.6799,185.9458c0,0,2.3841-0.9256,2.6665-1.1593"/>
		<path style="fill:#FFC691;stroke:#F1B486;stroke-width:0.6602;stroke-miterlimit:10;" d="M30.1149,180.8685
			c0,0,1.1415,1.7818,2.1404,2.0671c0,0,0.9037,1.7123,1.094,2.7112c0.1903,0.9988,1.3318,4.3759,3.6624,6.0406
			c2.3306,1.6647,3.6149,1.0464,4.0429,0.5708c0.4281-0.4756,1.1415-1.1891,0.4756-3.5673
			c-0.6659-2.3782-0.9513-3.4722-1.4269-4.2332s-0.8561-0.7135-1.094-1.522c-0.2378-0.8086-0.38-1.3793-0.3327-1.7123
			s-0.1905-1.6647-0.1905-1.6647"/>
		<path style="fill:#F1B486;" d="M29.5917,183.1142c0,0,1.8148,1.1812,2.4172,1.2884c0.6397,0.1139,0.7311-0.2619,0.7311-0.2619
			l-0.4848-1.2052c0,0-1.9918-1.2313-2.2671-1.9325C29.5917,181.3585,29.5917,183.1142,29.5917,183.1142z"/>
		<path style="fill:#E5865C;stroke:#F1B486;stroke-width:0.6602;stroke-miterlimit:10;" d="M39.6272,189.0999
			c0,0-2.4222,0.1129-2.7496,1.147c0.4308,1.5373,0.9927,2.2351,1.8256,2.0748s1.3818-0.4265,1.7483-0.8275
			C40.8181,191.0931,39.7699,189.4804,39.6272,189.0999z"/>
	</g>
	<path style="fill:#262262;" d="M89.7584,244.0759c0,0,36.3791,1.0395,46.9736-0.0613
		c10.5945-1.1008,39.8545-5.4175,39.2297-11.9454c0,0,7.2273,12.5021-11.5404,19.3214c-7.0233,2.6228-26.6002,3.7555-42.7228,4.0217
		c-15.7952,0.5829-24.6878-0.8309-26.4613-1.5154C91.2447,253.1101,90.4578,248.7387,89.7584,244.0759z"/>
</g>
</svg>
