<?xml version="1.0" encoding="utf-8"?>
<!-- Generator: Adobe Illustrator 21.0.2, SVG Export Plug-In . SVG Version: 6.00 Build 0)  -->
<svg version="1.1" id="Capa_1" xmlns="http://www.w3.org/2000/svg" xmlns:xlink="http://www.w3.org/1999/xlink" x="0px" y="0px"
	 viewBox="0 0 237.2664 121.4575" style="enable-background:new 0 0 237.2664 121.4575;" xml:space="preserve">
<g>
	
		<line style="fill:none;stroke:#8562A3;stroke-width:1.7595;stroke-miterlimit:10;" x1="121.4197" y1="27.1761" x2="128.8729" y2="45.6655"/>
	
		<line style="fill:none;stroke:#F04946;stroke-width:1.7595;stroke-miterlimit:10;" x1="140.0032" y1="74.3468" x2="169.023" y2="94.8563"/>
	
		<line style="fill:none;stroke:#53BB9B;stroke-width:1.7595;stroke-miterlimit:10;" x1="58.7113" y1="96.5132" x2="116.1826" y2="72.0549"/>
	<g>
		<ellipse style="fill:#8562A3;" cx="118.0723" cy="19.5243" rx="0.5887" ry="0.5854"/>
		<circle style="fill:#8562A3;" cx="120.5508" cy="19.5243" r="0.5861"/>
		<ellipse style="fill:#8562A3;" cx="115.5942" cy="19.5243" rx="0.5874" ry="0.5854"/>
		<path style="fill:#8562A3;" d="M124.016,11.611c-2.6512,0-4.8033,1.487-4.849,3.3267c0.6613,0.1099,1.2689,0.3189,1.8046,0.601
			c-0.0066-0.0365-0.0235-0.0705-0.0235-0.1097c0-0.3241,0.2652-0.5854,0.5919-0.5854c0.3187,0,0.5854,0.2613,0.5854,0.5854
			c0,0.277-0.1948,0.4965-0.4521,0.5593c0.793,0.6115,1.2896,1.4269,1.372,2.3284c0.3148,0.0444,0.6389,0.068,0.9707,0.068
			c0.2953,0,0.6012-0.0183,0.9265-0.0628l0.6783-0.0941l0.2691,0.6298c0.0575,0.1437,0.1046,0.2928,0.1398,0.4365
			c0.051-0.2091,0.0641-0.4129,0.0614-0.6037l-0.0182-0.5985l0.5448-0.2455c1.4138-0.6377,2.2552-1.7013,2.2552-2.8487
			C128.8729,13.1294,126.6986,11.611,124.016,11.611z M124.0173,16.0145c-0.3241,0-0.5879-0.2613-0.5879-0.5854
			s0.2639-0.5854,0.5879-0.5854c0.3227,0,0.5867,0.2613,0.5867,0.5854S124.34,16.0145,124.0173,16.0145z M126.4935,16.0145
			c-0.3214,0-0.5854-0.2613-0.5854-0.5854s0.264-0.5854,0.5854-0.5854c0.3241,0,0.584,0.2613,0.584,0.5854
			S126.8175,16.0145,126.4935,16.0145z"/>
		<path style="fill:#8562A3;" d="M121.4197,5.6316c-6.5804,0-11.9142,5.3339-11.9142,11.9142
			c0,6.5831,5.3338,11.9169,11.9142,11.9169s11.9142-5.3338,11.9142-11.9169C133.3339,10.9656,128.0001,5.6316,121.4197,5.6316z
			 M126.9887,18.6644c0.0183,0.7266-0.1842,2.3493-2.3023,3.0079c0,0,0.8401-1.3746,0.3751-2.4617
			c-0.3384,0.047-0.6899,0.0757-1.0454,0.0757c-0.3501,0-0.6885-0.0313-1.0217-0.0784c-0.4064,1.7562-2.4435,3.0969-4.9222,3.0969
			c-0.3123,0-0.6142-0.0236-0.9108-0.0653c-0.4038,0.9485,0.3227,2.1429,0.3227,2.1429c-1.8398-0.5697-2.0161-1.9862-1.9953-2.616
			c-1.453-0.6532-2.4265-1.8371-2.4265-3.1908c0-2.0646,2.2423-3.7319,5.0098-3.7319c0.0692,0,0.1333,0.0131,0.2051,0.0157
			c0.1006-2.3023,2.6276-4.1499,5.7388-4.1499c3.1792,0,5.7586,1.9207,5.7586,4.2884
			C129.7746,16.5581,128.6521,17.9143,126.9887,18.6644z"/>
	</g>
	<g>
		<path style="fill:#348EA9;" d="M218.0649,10.584c0.3463,0.1881,0.5881,0.541,0.5881,0.9591v7.7956l2.5426,2.5428
			c0.4326,0.4311,0.4326,1.1316,0,1.5601c-0.2142,0.2169-0.4964,0.3241-0.7774,0.3241c-0.2874,0-0.5697-0.1072-0.7814-0.3241
			l-3.1935-3.1909v-8.7076c0-0.4181,0.2443-0.771,0.5893-0.9591c-4.6582,0.2718-8.3718,4.1134-8.3718,8.8409
			c0,4.9001,3.984,8.8907,8.8867,8.8907c4.9013,0,8.8905-3.9905,8.8905-8.8907C226.438,14.6973,222.7219,10.8584,218.0649,10.584z"
			/>
		<path style="fill:#348EA9;" d="M217.5475,0c-10.7278,0-19.4236,8.6972-19.4236,19.4223c0,10.7278,8.6959,19.4223,19.4236,19.4223
			s19.4223-8.6945,19.4223-19.4223C236.9698,8.6972,228.2753,0,217.5475,0z M217.5475,30.5186
			c-6.127,0-11.0963-4.968-11.0963-11.0937c0-6.1309,4.9693-11.0988,11.0963-11.0988c6.1309,0,11.0949,4.968,11.0949,11.0988
			C228.6424,25.5506,223.6783,30.5186,217.5475,30.5186z"/>
	</g>
	<g>
		<path style="fill:#F04946;" d="M173.8786,105.5083h20.6087V92.6089h-20.6087V105.5083z M187.494,97.9008h1.8934v5.002h-1.8934
			V97.9008z M184.656,99.9838h1.8947v2.919h-1.8947V99.9838z M181.8191,93.9966h1.8895v8.9062h-1.8895V93.9966z M178.9864,96.7511
			h1.8854v6.1517h-1.8854V96.7511z M178.9864,103.6033h10.401v0.5147h-10.401V103.6033z"/>
		<path style="fill:#F04946;" d="M184.1869,82.6102c-10.7278,0-19.4224,8.6999-19.4224,19.425
			c0,10.7278,8.6947,19.4223,19.4224,19.4223c10.7277,0,19.4236-8.6945,19.4236-19.4223
			C203.6106,91.3101,194.9146,82.6102,184.1869,82.6102z M196.2854,104.9021c0,1.2753-1.0349,2.3049-2.3089,2.3049h-6.2029
			l3.5633,5.9558h-14.3041l3.5672-5.9558h-6.2067c-1.2739,0-2.3089-1.0296-2.3089-2.3049V93.2152
			c0-1.2753,1.035-2.3076,2.3089-2.3076h19.5831c1.274,0,2.3089,1.0323,2.3089,2.3076V104.9021z"/>
	</g>
	<g>
		<path style="fill:#53BB9B;" d="M11.5183,72.0549c-0.3424,0.5541-0.8741,0.9722-1.508,1.176
			c0.6756,0.1751,1.2806,0.5802,1.8006,1.1159c0.349-0.3031,0.7449-0.5174,1.1696-0.6298
			C12.2317,73.474,11.6607,72.8416,11.5183,72.0549z"/>
		<path style="fill:#53BB9B;" d="M9.2513,63.9327C4.1408,63.9327,0,68.0748,0,73.184c0,5.1117,4.1408,9.2538,9.2513,9.2538
			c5.1117,0,9.2511-4.1421,9.2511-9.2538C18.5024,68.0748,14.3629,63.9327,9.2513,63.9327z M11.7417,78.5361H3.2236
			c0.0392-2.6264,1.4896-4.8034,3.4143-5.3052c-1.1159-0.3579-1.9273-1.3929-1.9273-2.6264c0-1.5287,1.244-2.7701,2.7728-2.7701
			c1.4529,0,2.6328,1.1238,2.7479,2.5455c0.3946-0.5253,1.0178-0.8729,1.7261-0.8729c1.1957,0,2.1639,0.9695,2.1639,2.1639
			c0,0.9591-0.635,1.7666-1.5039,2.0462c1.4987,0.3894,2.6303,2.0881,2.6629,4.1344H11.679
			C11.7051,78.0761,11.7365,78.3034,11.7417,78.5361z"/>
	</g>
	<path style="fill:#348EA9;" d="M223.0329,47.5026c-7.8636,0-14.2335,6.374-14.2335,14.2349
		c0,7.8582,6.3699,14.2322,14.2335,14.2322c7.8623,0,14.2336-6.374,14.2336-14.2322
		C237.2664,53.8766,230.8951,47.5026,223.0329,47.5026z M217.6925,56.3958h10.6807c0.3044,0,0.5933,0.0863,0.8506,0.2248
		l-6.1936,5.4147l-6.1844-5.4147C217.0992,56.4821,217.3841,56.3958,217.6925,56.3958z M215.9128,65.2943v-7.1187
		c0-0.3476,0.1033-0.669,0.2783-0.9434l4.444,3.8887l-4.4923,5.0333C216.0003,65.898,215.9128,65.6104,215.9128,65.2943z
		 M228.3732,67.0765h-10.6807c-0.345,0-0.6599-0.0993-0.9382-0.2718l4.5537-5.096l1.4321,1.2544
		c0.0811,0.0705,0.1842,0.1072,0.2901,0.1072s0.2092-0.0367,0.2941-0.1072l1.4334-1.2544l4.5537,5.096
		C229.0409,66.9772,228.7234,67.0765,228.3732,67.0765z M230.153,65.2943c0,0.3162-0.0875,0.6037-0.23,0.8598l-4.4962-5.0307
		l4.4531-3.8913c0.1673,0.2744,0.2731,0.5958,0.2731,0.9434V65.2943z"/>
	<g>
		<path style="fill:#F04946;" d="M41.6802,14.7261h-4.7746c-0.5135,0-0.9277,0.4129-0.9277,0.9251v0.6926h6.6313v-0.6926
			C42.6092,15.1417,42.195,14.7261,41.6802,14.7261z"/>
		<path style="fill:#F04946;" d="M39.289,3.4679c-10.7278,0-19.4223,8.6972-19.4223,19.4223
			c0,10.7278,8.6945,19.4223,19.4223,19.4223s19.4223-8.6945,19.4223-19.4223C58.7113,12.1651,50.0168,3.4679,39.289,3.4679z
			 M51.0033,30.7459c0,0.8546-0.6873,1.5445-1.5381,1.5445H29.123c-0.8558,0-1.547-0.6899-1.547-1.5445V17.883
			c0-0.8519,0.6912-1.5393,1.547-1.5393h5.6227v-0.6926c0-1.1916,0.9682-2.1586,2.1598-2.1586h4.7746
			c1.1864,0,2.1586,0.967,2.1586,2.1586v0.6926h5.6264c0.8507,0,1.5381,0.6873,1.5381,1.5393V30.7459z"/>
	</g>
	<g>
		<path style="fill:#53BB9B;" d="M46.375,94.8563c-0.5906,0-1.163,0.1281-1.704,0.3764c-2.0436,0.9434-2.9399,3.3712-2.0018,5.4122
			c0.669,1.4452,2.1221,2.373,3.7149,2.373c0.5867,0,1.159-0.1228,1.7038-0.3712c2.0411-0.9434,2.9362-3.3712,1.9979-5.4149
			C49.4235,95.7893,47.964,94.8563,46.375,94.8563z"/>
		<path style="fill:#53BB9B;" d="M43.2534,82.6102c-10.7278,0-19.4236,8.6999-19.4236,19.425
			c0,10.7278,8.6959,19.4223,19.4236,19.4223c10.7265,0,19.4223-8.6945,19.4223-19.4223
			C62.6758,91.3101,53.9799,82.6102,43.2534,82.6102z M41.3797,110.4267c-0.0575,0.1515-0.1725,0.2743-0.315,0.3449
			c-0.1503,0.068-0.3175,0.0757-0.4691,0.0182l-0.5109-0.1881c-0.2117,0.3057-0.4717,0.5881-0.7683,0.8285l0.226,0.4912
			c0.145,0.3084,0.0092,0.6744-0.2965,0.8181l-0.6259,0.2849c-0.3057,0.141-0.673,0.0052-0.8115-0.3005l-0.2274-0.494
			c-0.3776,0.0732-0.7565,0.0836-1.1289,0.0444l-0.1908,0.5097c-0.0537,0.1516-0.1686,0.277-0.315,0.3423
			c-0.1489,0.0706-0.3175,0.0759-0.4691,0.0183l-0.6468-0.2352c-0.1515-0.0574-0.277-0.1698-0.3423-0.3214
			c-0.0705-0.1489-0.0797-0.3136-0.0183-0.4678l0.1842-0.5097c-0.3032-0.209-0.584-0.4678-0.8258-0.7631l-0.4913,0.2273
			c-0.3083,0.1386-0.6716,0.0052-0.8141-0.3031l-0.2874-0.6246c-0.1425-0.3057-0.0052-0.6742,0.2966-0.8127l0.4965-0.2275
			c-0.0693-0.3763-0.085-0.7552-0.0419-1.1264l-0.5122-0.1907c-0.1516-0.055-0.2758-0.1699-0.3449-0.3163
			c-0.0666-0.1516-0.0732-0.3162-0.0183-0.4678l0.2366-0.6455c0.1124-0.3084,0.4834-0.4809,0.7932-0.3658l0.5043,0.1907
			c0.2092-0.3057,0.4705-0.5906,0.767-0.8311l-0.2273-0.4912c-0.1424-0.3059-0.0039-0.6717,0.3032-0.8154l0.6233-0.2849
			c0.3057-0.1412,0.6717-0.0079,0.8115,0.3005l0.2299,0.4913c0.3724-0.068,0.754-0.0836,1.1225-0.0444l0.1881-0.507
			c0.1176-0.3084,0.4834-0.4757,0.7905-0.3633l0.6442,0.2378c0.3148,0.1151,0.4782,0.4705,0.3633,0.7893l-0.1856,0.507
			c0.3057,0.2117,0.5854,0.4678,0.8272,0.7656l0.4912-0.2273c0.3084-0.141,0.6717-0.0052,0.8129,0.3032l0.2913,0.6219
			c0.1398,0.3084,0.0054,0.6769-0.3031,0.8154l-0.4927,0.2273c0.0718,0.3764,0.085,0.7553,0.0444,1.1264l0.5097,0.1881
			c0.3175,0.1151,0.4782,0.4705,0.3633,0.7866L41.3797,110.4267z M54.3693,101.2747l-0.4025,1.0846
			c-0.0927,0.2586-0.2835,0.4599-0.5357,0.5802c-0.2482,0.1149-0.5317,0.1254-0.784,0.0313l-0.8559-0.3214
			c-0.3581,0.52-0.7878,0.993-1.2896,1.3929l0.3776,0.8284c0.243,0.5201,0.0157,1.1342-0.5018,1.372l-1.0506,0.4834
			c-0.5174,0.2379-1.1302,0.0079-1.368-0.507l-0.3751-0.8258c-0.6389,0.1176-1.2753,0.1412-1.8985,0.0706l-0.315,0.8545
			c-0.0993,0.2588-0.2874,0.4679-0.5383,0.5802c-0.2497,0.1176-0.5305,0.128-0.7906,0.0314l-1.0845-0.3998
			c-0.2561-0.0967-0.46-0.2849-0.5776-0.5358c-0.115-0.2483-0.1241-0.5305-0.03-0.7918l0.3175-0.8521
			c-0.5174-0.3579-0.9892-0.784-1.3956-1.2857l-0.8258,0.3789c-0.5174,0.2352-1.1355,0.0104-1.3693-0.5043l-0.4861-1.0533
			c-0.2365-0.5147-0.0091-1.1262,0.511-1.3667l0.8271-0.3789c-0.119-0.6325-0.1424-1.2702-0.0732-1.8948l-0.8597-0.3187
			c-0.2549-0.0941-0.4627-0.2849-0.575-0.5357c-0.1189-0.2509-0.128-0.528-0.0328-0.7866l0.3986-1.0872
			c0.1908-0.5149,0.8089-0.7997,1.3263-0.6089l0.8559,0.3214c0.3541-0.5226,0.7853-0.9904,1.287-1.3981l-0.3841-0.8284
			c-0.2339-0.5149-0.0092-1.1316,0.5056-1.3668l1.0506-0.4809c0.5174-0.2404,1.1341-0.0157,1.3641,0.5044l0.388,0.8258
			c0.6325-0.1176,1.2675-0.1412,1.8921-0.0706l0.3175-0.8571c0.1881-0.5174,0.8075-0.8023,1.3263-0.6115l1.0806,0.3998
			c0.5357,0.1986,0.8075,0.7918,0.6089,1.3249l-0.315,0.8573c0.5201,0.3554,0.9865,0.784,1.3942,1.2883l0.8298-0.3842
			c0.5174-0.2378,1.1262-0.0078,1.3693,0.507l0.4782,1.0479c0.2418,0.5176,0.0145,1.1316-0.5056,1.3695l-0.8245,0.3789
			c0.1163,0.635,0.1424,1.2727,0.068,1.8973l0.8585,0.3135C54.2934,100.1458,54.5639,100.7416,54.3693,101.2747z"/>
		<path style="fill:#53BB9B;" d="M36.8663,105.9657c-0.3527,0-0.6951,0.0757-1.0165,0.2221
			c-1.2113,0.5593-1.7497,2.0044-1.1866,3.2196c0.3907,0.8573,1.2557,1.4139,2.2071,1.4139c0.3475,0,0.686-0.0759,1.0099-0.2248
			c1.2152-0.5618,1.7445-2.0018,1.1878-3.2196C38.6735,106.5196,37.8085,105.9657,36.8663,105.9657z"/>
	</g>
	
		<line style="fill:none;stroke:#53BB9B;stroke-width:1.7595;stroke-miterlimit:10;" x1="12.9805" y1="79.8218" x2="30.3487" y2="92.6089"/>
	
		<line style="fill:none;stroke:#348EA9;stroke-width:1.7595;stroke-miterlimit:10;" x1="143.3444" y1="55.9385" x2="204.976" y2="29.4628"/>
	
		<line style="fill:none;stroke:#348EA9;stroke-width:1.7595;stroke-miterlimit:10;" x1="220.3842" y1="35.3924" x2="223.0329" y2="55.9385"/>
	
		<line style="fill:none;stroke:#F04946;stroke-width:1.7595;stroke-miterlimit:10;" x1="53.2037" y1="32.5701" x2="115.0078" y2="55.9385"/>
	<path style="fill:#F48C37;" d="M129.1682,42.3125c-10.7277,0-19.4236,8.6972-19.4236,19.425
		c0,10.7251,8.696,19.4198,19.4236,19.4198c10.7265,0,19.4225-8.6946,19.4225-19.4198
		C148.5907,51.0097,139.8947,42.3125,129.1682,42.3125z M127.5675,49.5568c0.4299-0.4286,0.9448-0.6455,1.5471-0.6455
		c0.5997,0,1.1107,0.2169,1.5248,0.6455c0.4129,0.4311,0.6182,0.9487,0.6182,1.5497c0,0.6036-0.2052,1.1185-0.6182,1.547
		c-0.4141,0.4312-0.9251,0.6455-1.5248,0.6455c-0.6024,0-1.1172-0.2142-1.5471-0.6455c-0.4298-0.4286-0.6416-0.9434-0.6416-1.547
		C126.9259,50.5054,127.1377,49.9879,127.5675,49.5568z M133.9401,62.8482c0,0.3763-0.1333,0.6532-0.4063,0.8232
		c-0.2783,0.1725-0.5501,0.1725-0.8049,0c-0.2574-0.1699-0.3868-0.4469-0.3868-0.8232v-6.2486h-0.5149V73.474
		c0,0.7264-0.3554,1.0845-1.0545,1.0845c-0.7081,0-1.0623-0.3581-1.0623-1.0845V63.4649h-1.0806V73.474
		c0,0.7264-0.3542,1.0845-1.0624,1.0845c-0.703,0-1.0557-0.3581-1.0557-1.0845V56.5996h-0.5149v6.3008
		c0,0.3397-0.1281,0.5828-0.3855,0.7213c-0.26,0.1359-0.5265,0.1359-0.8009,0c-0.2758-0.1385-0.4129-0.3816-0.4129-0.7213v-6.5569
		c0-0.7239,0.2457-1.3093,0.7448-1.7562c0.5006-0.4468,1.1447-0.669,1.9352-0.669h4.1801c0.8297,0,1.4777,0.2327,1.9638,0.6952
		c0.4822,0.4651,0.7186,1.0584,0.7186,1.7823V62.8482z"/>
</g>
</svg>
