<?xml version="1.0" encoding="utf-8"?>
<!-- Generator: Adobe Illustrator 21.0.2, SVG Export Plug-In . SVG Version: 6.00 Build 0)  -->
<svg version="1.1" id="Capa_1" xmlns="http://www.w3.org/2000/svg" xmlns:xlink="http://www.w3.org/1999/xlink" x="0px" y="0px"
	 viewBox="0 0 209.624 318.2213" style="enable-background:new 0 0 209.624 318.2213;" xml:space="preserve">
<g>
	<g id="Acces_1_">
		<path style="fill:#E2C59D;" d="M119.1692,135.6973h55.113l23.7033,54.817v127.707H84.7987v-23.1126
			c0,0-44.957-32.6036-48.2154-58.6791c0,0,14.8411-2.1097,56.6205-2.7017c41.7793-0.5916,45.2251-23.3618,68.3366-36.1022
			l-8.0008-26.667C153.5397,170.9587,120.3559,171.8434,119.1692,135.6973z"/>
		<path style="fill:#F9D5A5;" d="M46.1077,100.9901c-3.0019,5.0659-11.2633,5.7252-18.4511,1.4706L8.6738,91.2209
			C1.4861,86.9633-1.9083,79.4035,1.0921,74.3345l1.8124-3.0591c3.0004-5.069,11.2618-5.7282,18.4511-1.4709l18.9813,11.2401
			c7.189,4.2545,10.5836,11.8143,7.5817,16.8833L46.1077,100.9901z"/>
		<path style="opacity:0.2;" d="M36.9642,238.6654c0.6197,2.9474,1.7245,5.9599,3.2012,8.9864h118.6193l4.76-23.5846h-31.5255
			l-3.2568,0.2901c-8.172,5.3094-18.7689,9.1306-35.5585,9.3706c-29.3966,0.4162-45.4435,1.5823-52.3807,2.2389L36.9642,238.6654z"
			/>
		<path style="opacity:0.1;" d="M40.3368,81.0447l-6.3935-3.786v27.6458c5.198,1.061,10.0224-0.2989,12.1644-3.9143l1.8109-3.0621
			C50.9205,92.859,47.5258,85.2992,40.3368,81.0447z"/>
		<g id="Phone_1_">
			<path style="fill-rule:evenodd;clip-rule:evenodd;fill:#0B2E44;" d="M176.4519,235.2516c0,4.5592-3.6964,8.2573-8.2542,8.2573
				H44.754c-4.5578,0-8.2542-3.6981-8.2542-8.2573V8.2542C36.4998,3.6948,40.1962,0,44.754,0h123.4437
				c4.5578,0,8.2542,3.6948,8.2542,8.2542V235.2516z"/>
			
				<rect x="49.4085" y="28.8912" style="opacity:0.8;fill-rule:evenodd;clip-rule:evenodd;fill:#39C3DE;" width="114.1362" height="166.4639"/>
			<polygon style="opacity:0.1;fill-rule:evenodd;clip-rule:evenodd;" points="163.5447,28.8912 161.4262,28.8912 49.4085,188.6393 
				49.4085,195.3551 163.5447,195.3551 			"/>
		</g>
		<g>
			<rect x="49.4085" y="28.8912" style="fill:#EFEFEF;" width="114.1362" height="166.4639"/>
			<rect x="49.4085" y="28.8912" style="fill:#4DABCF;" width="114.1362" height="76.6215"/>
			<rect x="49.4085" y="105.4712" style="fill:#D8472A;" width="114.1362" height="10.307"/>
			<rect x="56.3778" y="126.3386" style="fill:#D8472A;" width="12.2422" height="12.242"/>
			<rect x="56.3778" y="149.7443" style="fill:#D8472A;" width="12.2422" height="12.2424"/>
			<rect x="56.3778" y="173.5839" style="fill:#D8472A;" width="12.2422" height="12.2424"/>
			<g>
				<rect x="77.3796" y="126.3386" style="fill:#0093A2;" width="57.0102" height="1.3216"/>
				<rect x="77.3796" y="129.5792" style="fill:#0093A2;" width="57.0102" height="1.5621"/>
				<rect x="77.3796" y="133.6579" style="fill:#0093A2;" width="57.0102" height="1.3185"/>
				<rect x="77.3796" y="137.262" style="fill:#0093A2;" width="57.0102" height="1.3186"/>
			</g>
			<g>
				<rect x="77.3796" y="149.7443" style="fill:#0093A2;" width="57.0102" height="1.3186"/>
				<rect x="77.3796" y="152.9853" style="fill:#0093A2;" width="57.0102" height="1.5585"/>
				<rect x="77.3796" y="157.061" style="fill:#0093A2;" width="57.0102" height="1.3216"/>
				<rect x="77.3796" y="160.6651" style="fill:#0093A2;" width="57.0102" height="1.3216"/>
			</g>
			<g>
				<rect x="77.3796" y="173.5839" style="fill:#0093A2;" width="57.0102" height="1.3216"/>
				<rect x="77.3796" y="176.825" style="fill:#0093A2;" width="57.0102" height="1.5616"/>
				<rect x="77.3796" y="180.9037" style="fill:#0093A2;" width="57.0102" height="1.3186"/>
				<rect x="77.3796" y="184.5078" style="fill:#0093A2;" width="57.0102" height="1.3186"/>
			</g>
		</g>
		<path style="fill:#F9D5A5;" d="M209.624,190.5142l-23.7033-54.817h-55.113c1.1867,36.1461,34.3705,35.2614,34.3705,35.2614
			l8.0008,26.667c-23.1115,12.7404-27.2606,46.5188-27.2606,46.5188s-7.9582,46.1031,21.5688,74.0768h42.1368V190.5142z"/>
		<g>
			<path style="fill:#F9D5A5;" d="M46.1077,139.2134c-3.0019,5.0694-9.5448,6.7422-14.614,3.7421l-13.3849-7.9263
				c-5.069-3.0002-6.7451-9.5433-3.7432-14.6123l1.8108-3.059c3.002-5.0694,9.5449-6.7453,14.614-3.7448l13.385,7.9259
				c5.069,3.0006,6.7451,9.5433,3.7432,14.6127L46.1077,139.2134z"/>
			<path style="opacity:0.5;fill:#FFFFFF;" d="M42.703,123.1859l-1.2937-0.7648l-10.2672,17.6247l1.1676,0.6945
				c4.155,2.4582,9.5172,1.0838,11.977-3.0679l1.4842-2.5114C48.2306,131.0093,46.8565,125.6472,42.703,123.1859z"/>
		</g>
		<g>
			<path style="fill:#F9D5A5;" d="M46.1077,174.4717c-3.0019,5.0694-9.5448,6.7454-14.614,3.7448l-13.3849-7.9259
				c-5.069-3.0006-6.7451-9.5433-3.7432-14.6127l1.8108-3.059c3.002-5.069,9.5449-6.7449,14.614-3.7448l13.385,7.9263
				c5.069,3.0002,6.7451,9.5433,3.7432,14.6123L46.1077,174.4717z"/>
			<path style="opacity:0.5;fill:#FFFFFF;" d="M42.703,158.4468l-1.2937-0.7674l-10.2672,17.6274l1.1676,0.6918
				c4.155,2.4613,9.5172,1.087,11.977-3.0678l1.4842-2.5083C48.2306,166.2676,46.8565,160.9055,42.703,158.4468z"/>
		</g>
		<g>
			<path style="fill:#F9D5A5;" d="M43.4486,206.8995c-2.4685,4.1698-7.8483,5.5467-12.0165,3.0797l-11.0071-6.5168
				c-4.1666-2.467-5.5452-7.8468-3.078-12.0165l1.4884-2.514c2.4686-4.1667,7.8483-5.5468,12.0165-3.0767l11.0071,6.5137
				c4.1666,2.4701,5.5452,7.8498,3.078,12.0165L43.4486,206.8995z"/>
			<path style="opacity:0.5;fill:#FFFFFF;" d="M40.6473,193.7227l-1.0636-0.6268l-8.4416,14.4923l0.961,0.5683
				c3.4151,2.0218,7.825,0.894,9.8468-2.5229l1.2203-2.0627C45.1935,200.1547,44.064,195.7476,40.6473,193.7227z"/>
		</g>
		<path style="opacity:0.5;fill:#FFFFFF;" d="M154.6868,136.3917c0-0.2343-0.0204-0.4659-0.0468-0.6945h-20.7953
			c-0.0279,0.2285-0.0483,0.4602-0.0483,0.6945c0,4.3367,4.6781,7.8529,10.4446,7.8529
			C150.0103,144.2446,154.6868,140.7284,154.6868,136.3917z"/>
	</g>
	<g id="Diagram_3_">
		<rect x="55.3778" y="100.1514" style="fill-rule:evenodd;clip-rule:evenodd;fill:#4D4D4D;" width="88.4334" height="2.3521"/>
		<path style="fill-rule:evenodd;clip-rule:evenodd;fill:#FF6633;" d="M63.2987,76.0209L63.2987,76.0209
			c1.2699,0,2.3199,0.9372,2.3199,2.0677v21.4506H60.976V78.0887C60.976,76.9582,62.0099,76.0209,63.2987,76.0209L63.2987,76.0209z"
			/>
		<path style="fill-rule:evenodd;clip-rule:evenodd;fill:#0056A3;" d="M72.2881,73.4731L72.2881,73.4731
			c1.2699,0,2.3223,1.0415,2.3223,2.2928v23.7733h-4.6421V75.766C69.9683,74.5146,71.0017,73.4731,72.2881,73.4731L72.2881,73.4731z
			"/>
		<path style="fill-rule:evenodd;clip-rule:evenodd;fill:#FF6633;" d="M81.2775,76.1095L81.2775,76.1095
			c1.2727,0,2.3251,0.9372,2.3251,2.0702v21.5368h-4.6449V78.1797C78.9577,77.0467,79.9912,76.1095,81.2775,76.1095L81.2775,76.1095
			z"/>
		<path style="fill-rule:evenodd;clip-rule:evenodd;fill:#0056A3;" d="M91.0052,63.8957L91.0052,63.8957
			c1.2699,0,2.3227,1.4149,2.3227,3.1415v32.6793h-4.6453V67.0372C88.6826,65.3106,89.7193,63.8957,91.0052,63.8957L91.0052,63.8957
			z"/>
		<path style="fill-rule:evenodd;clip-rule:evenodd;fill:#FF6633;" d="M100.4296,77.1543L100.4296,77.1543
			c1.286,0,2.3227,0.8913,2.3227,1.992v20.5702h-4.6453V79.1463C98.1069,78.0456,99.1597,77.1543,100.4296,77.1543L100.4296,77.1543
			z"/>
		<path style="fill-rule:evenodd;clip-rule:evenodd;fill:#0056A3;" d="M110.0042,86.2242h0.0189
			c1.2699,0,2.3037,0.534,2.3037,1.1893v12.3029h-4.6288V87.4136C107.6981,86.7583,108.7344,86.2242,110.0042,86.2242
			L110.0042,86.2242z"/>
		<path style="fill-rule:evenodd;clip-rule:evenodd;fill:#0056A3;" d="M119.8825,64.0137L119.8825,64.0137
			c1.2836,0,2.3198,1.4149,2.3198,3.1443v32.5585h-4.6288V67.158C117.5735,65.4286,118.6098,64.0137,119.8825,64.0137
			L119.8825,64.0137z"/>
		<path style="fill-rule:evenodd;clip-rule:evenodd;fill:#33CC99;" d="M128.437,66.3819L128.437,66.3819
			c1.2699,0,2.3251,1.3262,2.3251,2.9348v30.3997h-4.6477V69.3167C126.1143,67.7081,127.1695,66.3819,128.437,66.3819
			L128.437,66.3819z"/>
		<path style="fill-rule:evenodd;clip-rule:evenodd;fill:#FF6633;" d="M136.2423,58.1174L136.2423,58.1174
			c1.286,0,2.3227,1.638,2.3227,3.6489v37.9501h-4.6453V61.7663C133.9196,59.7554,134.9724,58.1174,136.2423,58.1174
			L136.2423,58.1174z"/>
		<rect x="149.3265" y="65.7266" style="fill-rule:evenodd;clip-rule:evenodd;fill:#FF6633;" width="8.2536" height="7.3599"/>
		<rect x="149.3265" y="77.9409" style="fill-rule:evenodd;clip-rule:evenodd;fill:#33CC99;" width="8.2536" height="7.3595"/>
		<rect x="149.3265" y="90.4233" style="fill-rule:evenodd;clip-rule:evenodd;fill:#0056A3;" width="8.2536" height="7.357"/>
	</g>
</g>
</svg>
