<?xml version="1.0" encoding="utf-8"?>
<!-- Generator: Adobe Illustrator 21.0.2, SVG Export Plug-In . SVG Version: 6.00 Build 0)  -->
<svg version="1.1" id="Capa_1" xmlns="http://www.w3.org/2000/svg" xmlns:xlink="http://www.w3.org/1999/xlink" x="0px" y="0px"
	 viewBox="0 0 265 51.576" style="enable-background:new 0 0 265 51.576;" xml:space="preserve">
<g>
	<g id="XMLID_5571_">
		<polygon id="XMLID_5572_" style="fill:#A03628;" points="243.1899,0.5001 265,25.7881 243.1899,51.076 223.3365,51.076 
			245.1466,25.7881 223.3365,0.5001 198.1899,0.5001 		"/>
	</g>
	<g id="XMLID_5568_">
		<polygon id="XMLID_5569_" style="fill:#A03628;" points="21.8101,51.0759 0,25.7879 21.8101,0.5 41.6635,0.5 19.8534,25.7879 
			41.6635,51.0759 21.8101,51.0759 		"/>
	</g>
	<polygon id="XMLID_5566_" style="fill:#FFFFFF;stroke:#C9452F;stroke-miterlimit:10;" points="47.671,0.5 217.329,0.5001 
		239.1391,25.7881 217.329,51.076 47.671,51.0759 25.8609,25.7879 	"/>
	<g>
		<g>
			<path style="fill:#A03628;" d="M89.545,32.3782V17.3293h3.0381v15.0488H89.545z"/>
			<path style="fill:#A03628;" d="M105.3741,32.3782h-2.8848v-5.5635c0-1.1768-0.0615-1.9385-0.1846-2.2842
				s-0.3232-0.6143-0.6006-0.8057s-0.6113-0.2881-1.001-0.2881c-0.5,0-0.9482,0.1377-1.3447,0.4111
				c-0.3975,0.2734-0.6689,0.6367-0.8164,1.0879c-0.1475,0.4521-0.2207,1.2871-0.2207,2.5049v4.9375h-2.8848V21.4768h2.6797v1.6016
				c0.9512-1.2324,2.1484-1.8486,3.5928-1.8486c0.6367,0,1.2178,0.1152,1.7451,0.3447c0.5273,0.2285,0.9258,0.5215,1.1963,0.877
				c0.2695,0.3564,0.458,0.7598,0.5645,1.2119c0.1055,0.4512,0.1592,1.0977,0.1592,1.9395V32.3782z"/>
			<path style="fill:#A03628;" d="M107.0372,21.4768h1.6016v-0.8213c0-0.917,0.0977-1.6016,0.293-2.0537
				c0.1943-0.4512,0.5537-0.8193,1.0771-1.1035c0.5244-0.2832,1.1865-0.4258,1.9873-0.4258c0.8203,0,1.625,0.123,2.4121,0.3691
				l-0.3906,2.0127c-0.458-0.1094-0.8994-0.1641-1.3242-0.1641c-0.417,0-0.7168,0.0967-0.8975,0.292
				c-0.1816,0.1953-0.2725,0.5703-0.2725,1.124v0.7705h2.1553v2.2686h-2.1553v8.6328h-2.8848v-8.6328h-1.6016V21.4768z"/>
			<path style="fill:#A03628;" d="M114.6339,26.7737c0-0.958,0.2363-1.8857,0.708-2.7822c0.4727-0.8965,1.1416-1.5811,2.0068-2.0527
				c0.8662-0.4727,1.833-0.709,2.9004-0.709c1.6494,0,3.001,0.5361,4.0547,1.6064c1.0537,1.0713,1.5811,2.4248,1.5811,4.0605
				c0,1.6494-0.5322,3.0166-1.5967,4.1006c-1.0635,1.085-2.4033,1.6279-4.0186,1.6279c-0.999,0-1.9521-0.2266-2.8594-0.6777
				c-0.9063-0.4521-1.5957-1.1143-2.0684-1.9863C114.8702,29.0881,114.6339,28.0256,114.6339,26.7737z M117.59,26.927
				c0,1.082,0.2568,1.9102,0.7705,2.4844c0.5127,0.5752,1.1455,0.8623,1.8984,0.8623s1.3848-0.2871,1.8945-0.8623
				c0.5098-0.5742,0.7646-1.4092,0.7646-2.5049c0-1.0674-0.2549-1.8887-0.7646-2.4629c-0.5098-0.5752-1.1416-0.8623-1.8945-0.8623
				s-1.3857,0.2871-1.8984,0.8623C117.8468,25.0178,117.59,25.8459,117.59,26.927z"/>
			<path style="fill:#A03628;" d="M130.9044,32.3782h-2.8848V21.4768h2.6797v1.5498c0.458-0.7324,0.8701-1.2148,1.2363-1.4473
				s0.7822-0.3496,1.248-0.3496c0.6563,0,1.2891,0.1816,1.8984,0.5439l-0.8926,2.5156c-0.4863-0.3145-0.9375-0.4727-1.3555-0.4727
				c-0.4033,0-0.7461,0.1113-1.0264,0.334s-0.501,0.625-0.6621,1.2061c-0.1611,0.582-0.2412,1.7998-0.2412,3.6543V32.3782z"/>
			<path style="fill:#A03628;" d="M136.1085,21.4768h2.6592v1.4883c0.9512-1.1563,2.084-1.7354,3.3975-1.7354
				c0.6982,0,1.3047,0.1445,1.8174,0.4316c0.5137,0.2871,0.9346,0.7217,1.2627,1.3037c0.4785-0.582,0.9961-1.0166,1.5498-1.3037
				c0.5547-0.2871,1.1465-0.4316,1.7764-0.4316c0.8008,0,1.4785,0.1631,2.0322,0.4883c0.5547,0.3252,0.9688,0.8018,1.2422,1.4316
				c0.1982,0.4658,0.2979,1.2188,0.2979,2.2588v6.9697h-2.8848v-6.2305c0-1.082-0.0986-1.7793-0.2979-2.0947
				c-0.2666-0.4102-0.6768-0.6162-1.2314-0.6162c-0.4043,0-0.7842,0.124-1.1396,0.3701s-0.6123,0.6074-0.7695,1.083
				c-0.1582,0.4756-0.2363,1.2266-0.2363,2.2529v5.2354h-2.8848v-5.9746c0-1.0605-0.0508-1.7451-0.1543-2.0527
				c-0.1025-0.3076-0.2617-0.5371-0.4766-0.6875c-0.2158-0.1504-0.5088-0.2266-0.8779-0.2266c-0.4453,0-0.8457,0.1201-1.2012,0.3594
				c-0.3555,0.2402-0.6104,0.5859-0.7646,1.0371c-0.1543,0.4521-0.2314,1.2012-0.2314,2.248v5.2969h-2.8848V21.4768z"/>
			<path style="fill:#A03628;" d="M161.3312,28.9084l2.874,0.4824c-0.3691,1.0547-0.9531,1.8564-1.75,2.4072
				c-0.7969,0.5518-1.7949,0.8272-2.9922,0.8272c-1.8955,0-3.2988-0.6201-4.209-1.8584c-0.7188-0.9922-1.0781-2.2451-1.0781-3.7568
				c0-1.8076,0.4727-3.2217,1.417-4.2451s2.1387-1.5352,3.583-1.5352c1.6211,0,2.9014,0.5361,3.8389,1.6064
				c0.9375,1.0713,1.3857,2.7119,1.3447,4.9229h-7.2266c0.0205,0.8555,0.2529,1.5205,0.6973,1.9961
				c0.4453,0.4766,1,0.7139,1.6631,0.7139c0.4521,0,0.832-0.123,1.1396-0.3691C160.9415,29.8528,161.174,29.4563,161.3312,28.9084z
				 M161.4952,25.9934c-0.0205-0.835-0.2363-1.4697-0.6465-1.9043s-0.9102-0.6523-1.499-0.6523
				c-0.6299,0-1.1494,0.2295-1.5605,0.6885c-0.4102,0.458-0.6123,1.0811-0.6055,1.8682H161.4952z"/>
			<path style="fill:#A03628;" d="M165.6945,29.2678l2.8945-0.4414c0.123,0.5615,0.373,0.9873,0.749,1.2783
				c0.377,0.291,0.9033,0.4365,1.5811,0.4365c0.7461,0,1.3076-0.1367,1.6836-0.4111c0.2529-0.1914,0.3799-0.4482,0.3799-0.7695
				c0-0.2188-0.0684-0.4004-0.2051-0.5439c-0.1436-0.1367-0.4658-0.2637-0.9648-0.3799c-2.3271-0.5137-3.8018-0.9824-4.4248-1.4063
				c-0.8623-0.5889-1.293-1.4072-1.293-2.4541c0-0.9443,0.3721-1.7383,1.1182-2.3818c0.7461-0.6426,1.9023-0.9648,3.4697-0.9648
				c1.4922,0,2.6006,0.2432,3.3262,0.7295c0.7256,0.4854,1.2256,1.2041,1.499,2.1553l-2.7207,0.5029
				c-0.1162-0.4238-0.3369-0.749-0.6621-0.9746c-0.3252-0.2266-0.7891-0.3389-1.3906-0.3389c-0.7598,0-1.3037,0.1055-1.6318,0.3184
				c-0.2197,0.1504-0.3291,0.3457-0.3291,0.585c0,0.2051,0.0957,0.3799,0.2871,0.5234c0.2607,0.1914,1.1582,0.4619,2.6953,0.8105
				c1.5361,0.3496,2.6084,0.7773,3.2178,1.2832c0.6025,0.5137,0.9033,1.2285,0.9033,2.1455c0,1-0.417,1.8584-1.252,2.5771
				c-0.835,0.7188-2.0703,1.0781-3.7061,1.0781c-1.4854,0-2.6602-0.3018-3.5264-0.9043
				C166.5275,31.1194,165.9611,30.301,165.6945,29.2678z"/>
		</g>
	</g>
</g>
</svg>
