<?xml version="1.0" encoding="utf-8"?>
<!-- Generator: Adobe Illustrator 21.0.2, SVG Export Plug-In . SVG Version: 6.00 Build 0)  -->
<svg version="1.1" id="Capa_1" xmlns="http://www.w3.org/2000/svg" xmlns:xlink="http://www.w3.org/1999/xlink" x="0px" y="0px"
	 viewBox="0 0 265 51.576" style="enable-background:new 0 0 265 51.576;" xml:space="preserve">
<g>
	<g id="XMLID_5260_">
		<polygon id="XMLID_5261_" style="fill:#A03628;" points="243.1899,0.5001 265,25.7881 243.1899,51.076 223.3365,51.076 
			245.1466,25.7881 223.3365,0.5001 198.1899,0.5001 		"/>
	</g>
	<g id="XMLID_5257_">
		<polygon id="XMLID_5258_" style="fill:#A03628;" points="21.8101,51.0759 0,25.7879 21.8101,0.5 41.6635,0.5 19.8534,25.7879 
			41.6635,51.0759 21.8101,51.0759 		"/>
	</g>
	<polygon id="XMLID_5255_" style="fill:#C9452F;stroke:#C9452F;stroke-miterlimit:10;" points="47.671,0.5 217.329,0.5001 
		239.1391,25.7881 217.329,51.076 47.671,51.0759 25.8609,25.7879 	"/>
	<g>
		<g>
			<path style="fill:#FFFFFF;" d="M104.06,32.3744V17.3251h4.876c1.8486,0,3.0527,0.0757,3.6143,0.2261
				c0.8623,0.2256,1.584,0.7168,2.166,1.4731c0.5811,0.7559,0.8721,1.7329,0.8721,2.9307c0,0.9238-0.168,1.7007-0.5029,2.3301
				c-0.335,0.6299-0.7617,1.124-1.2783,1.4834s-1.042,0.5972-1.5752,0.7134c-0.7256,0.144-1.7764,0.2158-3.1514,0.2158h-1.9814
				v5.6768H104.06z M107.0991,19.871v4.2705h1.6631c1.1973,0,1.998-0.0786,2.4014-0.2363c0.4043-0.1572,0.7207-0.4033,0.9502-0.7388
				s0.3438-0.7256,0.3438-1.1704c0-0.5474-0.1611-0.999-0.4824-1.355c-0.3223-0.356-0.7285-0.5781-1.2217-0.6675
				c-0.3633-0.0684-1.0918-0.1025-2.1865-0.1025H107.0991z"/>
			<path style="fill:#FFFFFF;" d="M120.2182,24.7982L117.6,24.326c0.2939-1.0537,0.8008-1.834,1.5195-2.3403
				s1.7861-0.7598,3.2031-0.7598c1.2861,0,2.2441,0.1523,2.874,0.457s1.0723,0.6914,1.3291,1.1597
				c0.2568,0.4692,0.3848,1.3296,0.3848,2.582l-0.0303,3.3672c0,0.958,0.0459,1.6646,0.1387,2.1196
				c0.0918,0.4551,0.2646,0.9429,0.5186,1.4629h-2.8545c-0.0752-0.1914-0.167-0.4756-0.2764-0.8521
				c-0.0488-0.1709-0.083-0.2837-0.1035-0.3389c-0.4922,0.479-1.0195,0.8384-1.5801,1.0781
				c-0.5615,0.2393-1.1602,0.3594-1.7969,0.3594c-1.1221,0-2.0068-0.3047-2.6533-0.9141c-0.6475-0.6089-0.9707-1.3789-0.9707-2.3096
				c0-0.6157,0.1475-1.165,0.4414-1.6475c0.2949-0.4824,0.707-0.8521,1.2373-1.1089c0.5303-0.2563,1.2949-0.4805,2.2939-0.6724
				c1.3486-0.2529,2.2832-0.4893,2.8027-0.708V24.973c0-0.5542-0.1367-0.9497-0.4102-1.1855
				c-0.2744-0.2363-0.791-0.3545-1.5508-0.3545c-0.5127,0-0.9131,0.1011-1.2002,0.3032
				C120.6284,23.9378,120.3959,24.2919,120.2182,24.7982z M124.0776,27.139c-0.3691,0.123-0.9541,0.2705-1.7549,0.4414
				s-1.3242,0.3389-1.5713,0.5029c-0.376,0.2671-0.5645,0.6055-0.5645,1.0161c0,0.4043,0.1504,0.7529,0.4521,1.0474
				c0.3008,0.2944,0.6836,0.4414,1.1494,0.4414c0.5205,0,1.0166-0.1709,1.4883-0.5132c0.3496-0.2603,0.5781-0.5786,0.6885-0.9551
				c0.0752-0.2461,0.1123-0.7148,0.1123-1.4063V27.139z"/>
			<path style="fill:#FFFFFF;" d="M128.7387,29.264l2.8945-0.4414c0.123,0.561,0.373,0.9873,0.749,1.2778
				c0.377,0.291,0.9033,0.4365,1.5811,0.4365c0.7461,0,1.3076-0.1367,1.6836-0.4106c0.2529-0.1914,0.3799-0.4482,0.3799-0.77
				c0-0.2188-0.0684-0.4004-0.2051-0.5439c-0.1436-0.1367-0.4658-0.2637-0.9648-0.3799c-2.3271-0.5132-3.8018-0.9819-4.4248-1.4063
				c-0.8623-0.5889-1.293-1.4067-1.293-2.4536c0-0.9443,0.3721-1.7383,1.1182-2.3818c0.7461-0.6431,1.9023-0.9648,3.4697-0.9648
				c1.4922,0,2.6006,0.2432,3.3262,0.729s1.2256,1.2046,1.499,2.1558l-2.7207,0.5029c-0.1162-0.4243-0.3369-0.7495-0.6621-0.9751
				c-0.3252-0.2261-0.7891-0.3389-1.3906-0.3389c-0.7598,0-1.3037,0.106-1.6318,0.3184c-0.2197,0.1504-0.3291,0.3457-0.3291,0.585
				c0,0.2056,0.0957,0.3799,0.2871,0.5234c0.2607,0.1919,1.1582,0.4619,2.6953,0.811c1.5361,0.3491,2.6084,0.7769,3.2178,1.2832
				c0.6025,0.5132,0.9033,1.2285,0.9033,2.1455c0,0.9995-0.417,1.8579-1.252,2.5767s-2.0703,1.0781-3.7061,1.0781
				c-1.4854,0-2.6602-0.3013-3.5264-0.9038C129.5717,31.1151,129.0053,30.2972,128.7387,29.264z"/>
			<path style="fill:#FFFFFF;" d="M140.7797,26.7694c0-0.958,0.2363-1.8853,0.708-2.7817c0.4727-0.8965,1.1416-1.5811,2.0068-2.0532
				c0.8662-0.4722,1.833-0.7085,2.9004-0.7085c1.6494,0,3.001,0.5356,4.0547,1.6064c1.0537,1.0713,1.5811,2.4248,1.5811,4.0601
				c0,1.6494-0.5322,3.0166-1.5967,4.1011c-1.0635,1.085-2.4033,1.6274-4.0186,1.6274c-0.999,0-1.9521-0.2261-2.8594-0.6777
				c-0.9063-0.4517-1.5957-1.1138-2.0684-1.9863C141.0161,29.0843,140.7797,28.0218,140.7797,26.7694z M143.7358,26.9232
				c0,1.0815,0.2568,1.9097,0.7705,2.4844c0.5127,0.5747,1.1455,0.8623,1.8984,0.8623s1.3848-0.2876,1.8945-0.8623
				s0.7646-1.4097,0.7646-2.5049c0-1.0674-0.2549-1.8887-0.7646-2.4634c-0.5098-0.5752-1.1416-0.8623-1.8945-0.8623
				s-1.3857,0.2871-1.8984,0.8623C143.9926,25.014,143.7358,25.8421,143.7358,26.9232z"/>
			<path style="fill:#FFFFFF;" d="M153.2739,29.264l2.8945-0.4414c0.123,0.561,0.373,0.9873,0.749,1.2778
				c0.377,0.291,0.9033,0.4365,1.5811,0.4365c0.7461,0,1.3076-0.1367,1.6836-0.4106c0.2529-0.1914,0.3799-0.4482,0.3799-0.77
				c0-0.2188-0.0684-0.4004-0.2051-0.5439c-0.1436-0.1367-0.4658-0.2637-0.9648-0.3799c-2.3271-0.5132-3.8018-0.9819-4.4248-1.4063
				c-0.8623-0.5889-1.293-1.4067-1.293-2.4536c0-0.9443,0.3721-1.7383,1.1182-2.3818c0.7461-0.6431,1.9023-0.9648,3.4697-0.9648
				c1.4922,0,2.6006,0.2432,3.3262,0.729s1.2256,1.2046,1.499,2.1558l-2.7207,0.5029c-0.1162-0.4243-0.3369-0.7495-0.6621-0.9751
				c-0.3252-0.2261-0.7891-0.3389-1.3906-0.3389c-0.7598,0-1.3037,0.106-1.6318,0.3184c-0.2197,0.1504-0.3291,0.3457-0.3291,0.585
				c0,0.2056,0.0957,0.3799,0.2871,0.5234c0.2607,0.1919,1.1582,0.4619,2.6953,0.811c1.5361,0.3491,2.6084,0.7769,3.2178,1.2832
				c0.6025,0.5132,0.9033,1.2285,0.9033,2.1455c0,0.9995-0.417,1.8579-1.252,2.5767s-2.0703,1.0781-3.7061,1.0781
				c-1.4854,0-2.6602-0.3013-3.5264-0.9038C154.1069,31.1151,153.5405,30.2972,153.2739,29.264z"/>
		</g>
	</g>
</g>
</svg>
