<?xml version="1.0" encoding="utf-8"?>
<!-- Generator: Adobe Illustrator 21.0.2, SVG Export Plug-In . SVG Version: 6.00 Build 0)  -->
<svg version="1.1" id="Capa_1" xmlns="http://www.w3.org/2000/svg" xmlns:xlink="http://www.w3.org/1999/xlink" x="0px" y="0px"
	 viewBox="0 0 491.7571 51.576" style="enable-background:new 0 0 491.7571 51.576;" xml:space="preserve">
<g>
	<g id="XMLID_5439_">
		<polygon id="XMLID_5440_" style="fill:#A03628;" points="469.947,0.5001 491.7571,25.7881 469.947,51.076 450.0936,51.076 
			471.9037,25.7881 450.0936,0.5001 424.947,0.5001 		"/>
	</g>
	<g id="XMLID_5436_">
		<polygon id="XMLID_5437_" style="fill:#A03628;" points="21.8101,51.0759 0,25.7879 21.8101,0.5 41.6635,0.5 19.8534,25.7879 
			41.6635,51.0759 21.8101,51.0759 		"/>
	</g>
	<polygon id="XMLID_5434_" style="fill:#FFFFFF;stroke:#C9452F;stroke-miterlimit:10;" points="47.671,0.5 444.447,0.5001 
		466.2571,25.7881 444.447,51.076 47.671,51.0759 25.8609,25.7879 	"/>
	<g>
		<g>
			<path style="fill:#A03628;" d="M55.5111,25.839l2.9302,0.9341c-0.4492,1.6426-1.1963,2.8628-2.2412,3.6597
				c-1.0449,0.7974-2.3701,1.1963-3.9766,1.1963c-1.9878,0-3.6211-0.6826-4.9009-2.0483c-1.2798-1.3652-1.9194-3.2319-1.9194-5.5996
				c0-2.5049,0.6436-4.4502,1.9297-5.8359c1.2866-1.3857,2.978-2.0786,5.0742-2.0786c1.8311,0,3.3184,0.5439,4.4619,1.6318
				c0.6807,0.6436,1.1909,1.5674,1.5313,2.772l-2.9912,0.7183c-0.1772-0.7798-0.5464-1.396-1.1079-1.8477
				s-1.2441-0.6772-2.0469-0.6772c-1.1099,0-2.0098,0.4004-2.7007,1.2007c-0.6909,0.8008-1.0361,2.0977-1.0361,3.8906
				c0,1.9028,0.3403,3.2578,1.021,4.0654c0.6802,0.8076,1.5654,1.2114,2.6543,1.2114c0.8032,0,1.4941-0.2568,2.0728-0.77
				S55.2591,26.941,55.5111,25.839z"/>
			<path style="fill:#A03628;" d="M60.3509,25.7672c0-0.958,0.2349-1.8853,0.7041-2.7817c0.4697-0.8965,1.1353-1.5811,1.9961-2.0532
				c0.8613-0.4722,1.8228-0.7085,2.8843-0.7085c1.6406,0,2.9849,0.5356,4.0332,1.6064c1.0479,1.0713,1.5723,2.4248,1.5723,4.0601
				c0,1.6494-0.5293,3.0166-1.5879,4.1011c-1.0586,1.085-2.3906,1.6274-3.9971,1.6274c-0.9937,0-1.9414-0.2261-2.8433-0.6777
				c-0.9023-0.4517-1.5879-1.1138-2.0576-1.9863C60.5858,28.0821,60.3509,27.0196,60.3509,25.7672z M63.2913,25.921
				c0,1.0815,0.2549,1.9097,0.7656,2.4844c0.5103,0.5747,1.1401,0.8623,1.8887,0.8623s1.3765-0.2876,1.8838-0.8623
				c0.5068-0.5747,0.7607-1.4097,0.7607-2.5049c0-1.0674-0.2539-1.8887-0.7607-2.4634c-0.5073-0.5752-1.1353-0.8623-1.8838-0.8623
				s-1.3784,0.2871-1.8887,0.8623C63.5462,24.0118,63.2913,24.8399,63.2913,25.921z"/>
			<path style="fill:#A03628;" d="M83.6497,31.3722h-2.8691v-5.564c0-1.1768-0.0615-1.9385-0.1836-2.2842
				c-0.1226-0.3452-0.3218-0.6138-0.5977-0.8057c-0.2754-0.1914-0.6074-0.2876-0.9951-0.2876c-0.4971,0-0.9429,0.1372-1.3379,0.4106
				c-0.3945,0.2739-0.665,0.6367-0.8115,1.0884s-0.2192,1.2866-0.2192,2.5049v4.9375h-2.8691V20.4703h2.6646v1.6016
				c0.9463-1.2319,2.1372-1.8481,3.5737-1.8481c0.6328,0,1.2114,0.1147,1.7354,0.3442c0.5244,0.229,0.9209,0.5215,1.1895,0.8774
				c0.269,0.356,0.4561,0.7598,0.5615,1.2114s0.1587,1.0981,0.1587,1.9399V31.3722z"/>
			<path style="fill:#A03628;" d="M85.5487,28.2618l2.8789-0.4414c0.1226,0.561,0.3711,0.9873,0.7456,1.2778
				c0.374,0.291,0.8984,0.4365,1.5723,0.4365c0.7417,0,1.2998-0.1367,1.6743-0.4106c0.252-0.1914,0.3779-0.4482,0.3779-0.77
				c0-0.2188-0.0684-0.4004-0.2046-0.5439c-0.1426-0.1367-0.4629-0.2637-0.9595-0.3799c-2.3145-0.5132-3.7813-0.9819-4.4004-1.4063
				c-0.8579-0.5889-1.2866-1.4067-1.2866-2.4536c0-0.9443,0.3711-1.7383,1.1128-2.3818c0.7422-0.6431,1.8921-0.9648,3.4512-0.9648
				c1.4839,0,2.5864,0.2432,3.3081,0.729c0.7212,0.4858,1.2183,1.2046,1.4902,2.1558l-2.7056,0.5029
				c-0.1157-0.4243-0.335-0.7495-0.6582-0.9751c-0.3237-0.2261-0.7847-0.3389-1.3838-0.3389c-0.7554,0-1.2964,0.106-1.623,0.3184
				c-0.2183,0.1504-0.3267,0.3457-0.3267,0.585c0,0.2056,0.0952,0.3799,0.2856,0.5234c0.2588,0.1919,1.1519,0.4619,2.6802,0.811
				c1.5278,0.3491,2.5947,0.7769,3.2007,1.2832c0.5991,0.5132,0.8984,1.2285,0.8984,2.1455c0,0.9995-0.415,1.8579-1.2456,2.5767
				s-2.0591,1.0781-3.6855,1.0781c-1.4771,0-2.646-0.3013-3.5073-0.9038C86.3773,30.1129,85.8138,29.295,85.5487,28.2618z"/>
			<path style="fill:#A03628;" d="M104.4671,27.9024l2.8589,0.4824c-0.3677,1.0542-0.9478,1.8564-1.7407,2.4072
				c-0.793,0.5513-1.7852,0.8267-2.9761,0.8267c-1.8857,0-3.2813-0.6196-4.186-1.8584c-0.7148-0.9922-1.0723-2.2446-1.0723-3.7568
				c0-1.8071,0.4697-3.2217,1.4092-4.2451c0.939-1.0229,2.127-1.5347,3.563-1.5347c1.6133,0,2.8857,0.5356,3.8184,1.6064
				c0.9326,1.0713,1.3784,2.7119,1.3379,4.9224h-7.188c0.0205,0.856,0.252,1.521,0.6943,1.9966
				c0.4424,0.4761,0.9937,0.7139,1.6538,0.7139c0.4492,0,0.8271-0.1235,1.1333-0.3696
				C104.0794,28.8468,104.3104,28.4498,104.4671,27.9024z M104.6307,24.9869c-0.0205-0.835-0.2349-1.4692-0.6436-1.9043
				c-0.4082-0.4346-0.9053-0.6519-1.4902-0.6519c-0.6265,0-1.1436,0.2295-1.5522,0.688c-0.4082,0.4585-0.6089,1.0815-0.6021,1.8682
				H104.6307z"/>
			<path style="fill:#A03628;" d="M112.6248,20.4703v10.563c0,1.3892-0.0903,2.3696-0.2705,2.9414
				c-0.1807,0.5713-0.5278,1.0176-1.0415,1.3394c-0.5142,0.3218-1.1689,0.4824-1.9653,0.4824c-0.2861,0-0.5938-0.0254-0.9238-0.0767
				c-0.3301-0.0518-0.686-0.1284-1.0674-0.231l0.5005-2.4639c0.1362,0.0273,0.2637,0.0493,0.3828,0.0664s0.23,0.0259,0.332,0.0259
				c0.2925,0,0.5322-0.0635,0.7197-0.1899c0.187-0.1265,0.3115-0.2788,0.3726-0.4565c0.0615-0.1782,0.0918-0.7119,0.0918-1.6016
				V20.4703H112.6248z M109.7557,18.9918v-2.6689h2.8691v2.6689H109.7557z"/>
			<path style="fill:#A03628;" d="M114.9632,25.7672c0-0.958,0.2349-1.8853,0.7041-2.7817
				c0.4697-0.8965,1.1353-1.5811,1.9961-2.0532c0.8613-0.4722,1.8228-0.7085,2.8843-0.7085c1.6406,0,2.9849,0.5356,4.0332,1.6064
				c1.0479,1.0713,1.5723,2.4248,1.5723,4.0601c0,1.6494-0.5293,3.0166-1.5879,4.1011c-1.0586,1.085-2.3906,1.6274-3.9971,1.6274
				c-0.9937,0-1.9414-0.2261-2.8433-0.6777c-0.9023-0.4517-1.5879-1.1138-2.0576-1.9863
				C115.1981,28.0821,114.9632,27.0196,114.9632,25.7672z M117.9036,25.921c0,1.0815,0.2549,1.9097,0.7656,2.4844
				c0.5103,0.5747,1.1401,0.8623,1.8887,0.8623s1.3765-0.2876,1.8838-0.8623c0.5068-0.5747,0.7607-1.4097,0.7607-2.5049
				c0-1.0674-0.2539-1.8887-0.7607-2.4634c-0.5073-0.5752-1.1353-0.8623-1.8838-0.8623s-1.3784,0.2871-1.8887,0.8623
				C118.1585,24.0118,117.9036,24.8399,117.9036,25.921z"/>
			<path style="fill:#A03628;" d="M127.3885,28.2618l2.8789-0.4414c0.1226,0.561,0.3711,0.9873,0.7456,1.2778
				c0.374,0.291,0.8984,0.4365,1.5723,0.4365c0.7417,0,1.2998-0.1367,1.6743-0.4106c0.252-0.1914,0.3779-0.4482,0.3779-0.77
				c0-0.2188-0.0684-0.4004-0.2046-0.5439c-0.1426-0.1367-0.4629-0.2637-0.9595-0.3799c-2.3145-0.5132-3.7813-0.9819-4.4004-1.4063
				c-0.8579-0.5889-1.2866-1.4067-1.2866-2.4536c0-0.9443,0.3711-1.7383,1.1128-2.3818c0.7422-0.6431,1.8921-0.9648,3.4512-0.9648
				c1.4839,0,2.5864,0.2432,3.3081,0.729c0.7212,0.4858,1.2183,1.2046,1.4902,2.1558l-2.7056,0.5029
				c-0.1157-0.4243-0.335-0.7495-0.6582-0.9751c-0.3237-0.2261-0.7847-0.3389-1.3838-0.3389c-0.7554,0-1.2964,0.106-1.623,0.3184
				c-0.2183,0.1504-0.3267,0.3457-0.3267,0.585c0,0.2056,0.0952,0.3799,0.2856,0.5234c0.2588,0.1919,1.1519,0.4619,2.6802,0.811
				c1.5278,0.3491,2.5947,0.7769,3.2007,1.2832c0.5991,0.5132,0.8984,1.2285,0.8984,2.1455c0,0.9995-0.415,1.8579-1.2456,2.5767
				s-2.0591,1.0781-3.6855,1.0781c-1.4771,0-2.646-0.3013-3.5073-0.9038C128.2171,30.1129,127.6536,29.295,127.3885,28.2618z"/>
			<path style="fill:#A03628;" d="M145.7557,20.4703h2.6753v1.6016c0.3472-0.5479,0.8169-0.9927,1.4087-1.335
				c0.5923-0.3418,1.249-0.5132,1.9707-0.5132c1.2593,0,2.3276,0.4966,3.2061,1.4888c0.8779,0.9922,1.3169,2.3745,1.3169,4.147
				c0,1.8208-0.4424,3.2354-1.3271,4.2451c-0.8853,1.0093-1.957,1.5142-3.2163,1.5142c-0.5991,0-1.1416-0.1201-1.6284-0.3594
				c-0.4868-0.2397-0.999-0.6504-1.5366-1.2319v5.4922h-2.8691V20.4703z M148.5941,25.7364c0,1.2251,0.2417,2.1299,0.7251,2.7153
				c0.4834,0.585,1.0723,0.8774,1.7661,0.8774c0.667,0,1.2217-0.2686,1.6646-0.8057c0.4424-0.5371,0.6636-1.4185,0.6636-2.6436
				c0-1.1426-0.228-1.9912-0.6841-2.5459c-0.4561-0.5542-1.021-0.8315-1.6948-0.8315c-0.7012,0-1.2832,0.2725-1.7461,0.8164
				S148.5941,24.669,148.5941,25.7364z"/>
			<path style="fill:#A03628;" d="M160.7542,23.796l-2.6035-0.4722c0.2925-1.0537,0.7964-1.834,1.5107-2.3403
				c0.7148-0.5063,1.7769-0.7598,3.1855-0.7598c1.2798,0,2.2324,0.1523,2.8589,0.457c0.626,0.3047,1.0669,0.6914,1.3223,1.1597
				c0.2554,0.4692,0.3828,1.3296,0.3828,2.582l-0.0308,3.3672c0,0.958,0.0459,1.6646,0.1382,2.1196
				c0.0918,0.4551,0.2637,0.9429,0.5151,1.4629h-2.8379c-0.0752-0.1914-0.167-0.4756-0.2759-0.8521
				c-0.0479-0.1709-0.0815-0.2837-0.1021-0.3389c-0.4902,0.479-1.0142,0.8384-1.5723,1.0781
				c-0.5581,0.2393-1.1538,0.3594-1.7866,0.3594c-1.1167,0-1.9961-0.3047-2.6396-0.9141c-0.6431-0.6089-0.9648-1.3789-0.9648-2.3096
				c0-0.6157,0.1465-1.165,0.4395-1.6475c0.2925-0.4824,0.7026-0.8521,1.23-1.1089c0.5273-0.2563,1.2881-0.4805,2.2817-0.6724
				c1.3413-0.2529,2.27-0.4893,2.7876-0.708v-0.2876c0-0.5542-0.1362-0.9497-0.4087-1.1855
				c-0.272-0.2363-0.7861-0.3545-1.5415-0.3545c-0.5103,0-0.9087,0.1011-1.1943,0.3032
				C161.1624,22.9356,160.931,23.2896,160.7542,23.796z M164.5931,26.1368c-0.3677,0.123-0.9497,0.2705-1.7461,0.4414
				s-1.3169,0.3389-1.562,0.5029c-0.3745,0.2671-0.5615,0.6055-0.5615,1.0161c0,0.4043,0.1499,0.7529,0.4492,1.0474
				s0.6807,0.4414,1.1436,0.4414c0.5171,0,1.0107-0.1709,1.4805-0.5132c0.3472-0.2603,0.5752-0.5786,0.6841-0.9551
				c0.0747-0.2461,0.1123-0.7148,0.1123-1.4063V26.1368z"/>
			<path style="fill:#A03628;" d="M172.9852,31.3722h-2.8687V20.4703h2.6646v1.5498c0.4561-0.7319,0.8662-1.2144,1.2305-1.4473
				c0.3638-0.2324,0.7773-0.3491,1.2402-0.3491c0.6538,0,1.2832,0.1816,1.8892,0.5439l-0.8882,2.5151
				c-0.4834-0.3145-0.9326-0.4722-1.3477-0.4722c-0.4019,0-0.7422,0.1113-1.021,0.3335c-0.2793,0.2227-0.499,0.625-0.6587,1.2065
				c-0.1602,0.5815-0.2402,1.7998-0.2402,3.6543V31.3722z"/>
			<path style="fill:#A03628;" d="M180.5203,23.796l-2.6035-0.4722c0.2925-1.0537,0.7964-1.834,1.5107-2.3403
				c0.7148-0.5063,1.7769-0.7598,3.1855-0.7598c1.2798,0,2.2324,0.1523,2.8589,0.457c0.626,0.3047,1.0669,0.6914,1.3223,1.1597
				c0.2554,0.4692,0.3828,1.3296,0.3828,2.582l-0.0308,3.3672c0,0.958,0.0459,1.6646,0.1382,2.1196
				c0.0918,0.4551,0.2637,0.9429,0.5151,1.4629h-2.8379c-0.0752-0.1914-0.167-0.4756-0.2759-0.8521
				c-0.0479-0.1709-0.0815-0.2837-0.1021-0.3389c-0.4902,0.479-1.0142,0.8384-1.5723,1.0781
				c-0.5581,0.2393-1.1538,0.3594-1.7866,0.3594c-1.1167,0-1.9961-0.3047-2.6396-0.9141c-0.6431-0.6089-0.9648-1.3789-0.9648-2.3096
				c0-0.6157,0.1465-1.165,0.4395-1.6475c0.2925-0.4824,0.7026-0.8521,1.23-1.1089c0.5273-0.2563,1.2881-0.4805,2.2817-0.6724
				c1.3413-0.2529,2.27-0.4893,2.7876-0.708v-0.2876c0-0.5542-0.1362-0.9497-0.4087-1.1855
				c-0.272-0.2363-0.7861-0.3545-1.5415-0.3545c-0.5103,0-0.9087,0.1011-1.1943,0.3032
				C180.9285,22.9356,180.6971,23.2896,180.5203,23.796z M184.3592,26.1368c-0.3677,0.123-0.9497,0.2705-1.7461,0.4414
				s-1.3169,0.3389-1.562,0.5029c-0.3745,0.2671-0.5615,0.6055-0.5615,1.0161c0,0.4043,0.1499,0.7529,0.4492,1.0474
				s0.6807,0.4414,1.1436,0.4414c0.5171,0,1.0107-0.1709,1.4805-0.5132c0.3472-0.2603,0.5752-0.5786,0.6841-0.9551
				c0.0747-0.2461,0.1123-0.7148,0.1123-1.4063V26.1368z"/>
			<path style="fill:#A03628;" d="M205.2689,23.6935l-2.8281,0.5132c-0.0952-0.5679-0.3115-0.9956-0.6484-1.2832
				c-0.3369-0.2871-0.7739-0.4312-1.3115-0.4312c-0.7148,0-1.2852,0.2485-1.7104,0.7446s-0.6382,1.3257-0.6382,2.4893
				c0,1.2935,0.2163,2.207,0.6484,2.7407c0.4321,0.5342,1.0122,0.8008,1.7407,0.8008c0.5444,0,0.9902-0.1558,1.3374-0.4668
				c0.3472-0.3115,0.5923-0.8472,0.7354-1.6069l2.8179,0.4824c-0.293,1.3008-0.8545,2.2827-1.6846,2.9463
				c-0.8306,0.6641-1.9434,0.9961-3.3389,0.9961c-1.5859,0-2.8501-0.5034-3.793-1.5093s-1.4141-2.3984-1.4141-4.1782
				c0-1.7998,0.4731-3.2007,1.4194-4.2036c0.9458-1.0024,2.2256-1.5039,3.8389-1.5039c1.3203,0,2.3701,0.2861,3.1499,0.8574
				C204.369,21.6524,204.9285,22.5235,205.2689,23.6935z"/>
			<path style="fill:#A03628;" d="M206.7801,25.7672c0-0.958,0.2349-1.8853,0.7041-2.7817
				c0.4697-0.8965,1.1353-1.5811,1.9961-2.0532c0.8613-0.4722,1.8228-0.7085,2.8843-0.7085c1.6406,0,2.9849,0.5356,4.0332,1.6064
				c1.0479,1.0713,1.5723,2.4248,1.5723,4.0601c0,1.6494-0.5293,3.0166-1.5879,4.1011c-1.0586,1.085-2.3906,1.6274-3.9971,1.6274
				c-0.9937,0-1.9414-0.2261-2.8433-0.6777c-0.9023-0.4517-1.5879-1.1138-2.0576-1.9863
				C207.015,28.0821,206.7801,27.0196,206.7801,25.7672z M209.7205,25.921c0,1.0815,0.2549,1.9097,0.7656,2.4844
				c0.5103,0.5747,1.1401,0.8623,1.8887,0.8623s1.3765-0.2876,1.8838-0.8623c0.5068-0.5747,0.7607-1.4097,0.7607-2.5049
				c0-1.0674-0.2539-1.8887-0.7607-2.4634c-0.5073-0.5752-1.1353-0.8623-1.8838-0.8623s-1.3784,0.2871-1.8887,0.8623
				C209.9754,24.0118,209.7205,24.8399,209.7205,25.921z"/>
			<path style="fill:#A03628;" d="M230.0789,31.3722h-2.8691v-5.564c0-1.1768-0.0615-1.9385-0.1836-2.2842
				c-0.1226-0.3452-0.3218-0.6138-0.5977-0.8057c-0.2754-0.1914-0.6074-0.2876-0.9951-0.2876c-0.4971,0-0.9429,0.1372-1.3379,0.4106
				c-0.3945,0.2739-0.665,0.6367-0.8115,1.0884s-0.2192,1.2866-0.2192,2.5049v4.9375h-2.8691V20.4703h2.6646v1.6016
				c0.9463-1.2319,2.1372-1.8481,3.5737-1.8481c0.6328,0,1.2114,0.1147,1.7354,0.3442c0.5244,0.229,0.9209,0.5215,1.1895,0.8774
				c0.269,0.356,0.4561,0.7598,0.5615,1.2114s0.1587,1.0981,0.1587,1.9399V31.3722z"/>
			<path style="fill:#A03628;" d="M231.9783,28.2618l2.8789-0.4414c0.1226,0.561,0.3711,0.9873,0.7456,1.2778
				c0.374,0.291,0.8984,0.4365,1.5723,0.4365c0.7417,0,1.2998-0.1367,1.6743-0.4106c0.252-0.1914,0.3779-0.4482,0.3779-0.77
				c0-0.2188-0.0684-0.4004-0.2046-0.5439c-0.1426-0.1367-0.4629-0.2637-0.9595-0.3799c-2.3145-0.5132-3.7813-0.9819-4.4004-1.4063
				c-0.8579-0.5889-1.2866-1.4067-1.2866-2.4536c0-0.9443,0.3711-1.7383,1.1128-2.3818c0.7422-0.6431,1.8921-0.9648,3.4512-0.9648
				c1.4839,0,2.5864,0.2432,3.3081,0.729c0.7212,0.4858,1.2183,1.2046,1.4902,2.1558l-2.7056,0.5029
				c-0.1157-0.4243-0.335-0.7495-0.6582-0.9751c-0.3237-0.2261-0.7847-0.3389-1.3838-0.3389c-0.7554,0-1.2964,0.106-1.623,0.3184
				c-0.2183,0.1504-0.3267,0.3457-0.3267,0.585c0,0.2056,0.0952,0.3799,0.2856,0.5234c0.2588,0.1919,1.1519,0.4619,2.6802,0.811
				c1.5278,0.3491,2.5947,0.7769,3.2007,1.2832c0.5991,0.5132,0.8984,1.2285,0.8984,2.1455c0,0.9995-0.415,1.8579-1.2456,2.5767
				s-2.0591,1.0781-3.6855,1.0781c-1.4771,0-2.646-0.3013-3.5073-0.9038C232.807,30.1129,232.2435,29.295,231.9783,28.2618z"/>
			<path style="fill:#A03628;" d="M249.5902,20.4703v2.2993h-1.9604v4.3936c0,0.8896,0.0186,1.4082,0.0562,1.5552
				c0.0376,0.1475,0.1226,0.269,0.2554,0.3647s0.2944,0.1436,0.4849,0.1436c0.2656,0,0.6499-0.0923,1.1538-0.2773l0.2451,2.2383
				c-0.6675,0.2871-1.4229,0.4312-2.2666,0.4312c-0.5176,0-0.9839-0.0874-1.3989-0.2622c-0.415-0.1743-0.7197-0.3999-0.9136-0.6772
				c-0.1943-0.2773-0.3286-0.6519-0.4033-1.124c-0.0615-0.3354-0.0918-1.0127-0.0918-2.0327v-4.7529h-1.3174v-2.2993h1.3174v-2.166
				l2.8789-1.6836v3.8496H249.5902z"/>
			<path style="fill:#A03628;" d="M254.327,31.3722h-2.8687V20.4703h2.6646v1.5498c0.4561-0.7319,0.8662-1.2144,1.2305-1.4473
				c0.3638-0.2324,0.7774-0.3491,1.2402-0.3491c0.6538,0,1.2832,0.1816,1.8892,0.5439l-0.8882,2.5151
				c-0.4834-0.3145-0.9326-0.4722-1.3477-0.4722c-0.4019,0-0.7422,0.1113-1.021,0.3335c-0.2793,0.2227-0.499,0.625-0.6587,1.2065
				c-0.1602,0.5815-0.2402,1.7998-0.2402,3.6543V31.3722z"/>
			<path style="fill:#A03628;" d="M266.8548,31.3722v-1.6323c-0.395,0.582-0.9141,1.0405-1.5571,1.3755
				c-0.6431,0.3354-1.3223,0.5034-2.0371,0.5034c-0.728,0-1.3818-0.1611-1.96-0.4829c-0.5786-0.3213-0.9976-0.7729-1.2559-1.355
				c-0.2588-0.5815-0.3882-1.3857-0.3882-2.4121v-6.8984h2.8691v5.0093c0,1.5332,0.0527,2.4727,0.1582,2.8179
				c0.1055,0.3457,0.2979,0.6196,0.5767,0.8213c0.2793,0.2021,0.6333,0.3027,1.062,0.3027c0.4902,0,0.9292-0.1348,1.3169-0.4053
				c0.3882-0.27,0.6538-0.6055,0.7964-1.0059c0.1431-0.4004,0.2144-1.3809,0.2144-2.9414v-4.5986h2.8691v10.9019H266.8548z"/>
			<path style="fill:#A03628;" d="M272.4906,18.9918v-2.6689h2.8687v2.6689H272.4906z M272.4906,31.3722V20.4703h2.8687v10.9019
				H272.4906z"/>
			<path style="fill:#A03628;" d="M281.0462,31.3722h-2.8687V20.4703h2.6646v1.5498c0.4561-0.7319,0.8662-1.2144,1.2305-1.4473
				c0.3638-0.2324,0.7773-0.3491,1.2402-0.3491c0.6538,0,1.2832,0.1816,1.8892,0.5439l-0.8882,2.5151
				c-0.4834-0.3145-0.9326-0.4722-1.3477-0.4722c-0.4019,0-0.7422,0.1113-1.021,0.3335c-0.2793,0.2227-0.499,0.625-0.6587,1.2065
				c-0.1602,0.5815-0.2402,1.7998-0.2402,3.6543V31.3722z"/>
			<path style="fill:#A03628;" d="M299.3836,31.3722v-1.6323c-0.395,0.582-0.9141,1.0405-1.5571,1.3755
				c-0.6431,0.3354-1.3223,0.5034-2.0371,0.5034c-0.728,0-1.3818-0.1611-1.96-0.4829c-0.5786-0.3213-0.9976-0.7729-1.2559-1.355
				c-0.2588-0.5815-0.3882-1.3857-0.3882-2.4121v-6.8984h2.8691v5.0093c0,1.5332,0.0527,2.4727,0.1582,2.8179
				c0.1055,0.3457,0.2979,0.6196,0.5767,0.8213c0.2793,0.2021,0.6333,0.3027,1.062,0.3027c0.4902,0,0.9292-0.1348,1.3169-0.4053
				c0.3882-0.27,0.6538-0.6055,0.7964-1.0059c0.1431-0.4004,0.2144-1.3809,0.2144-2.9414v-4.5986h2.8691v10.9019H299.3836z"/>
			<path style="fill:#A03628;" d="M314.8822,31.3722h-2.8691v-5.564c0-1.1768-0.0615-1.9385-0.1836-2.2842
				c-0.1226-0.3452-0.3218-0.6138-0.5977-0.8057c-0.2754-0.1914-0.6074-0.2876-0.9951-0.2876c-0.4971,0-0.9429,0.1372-1.3379,0.4106
				c-0.3945,0.2739-0.665,0.6367-0.8115,1.0884s-0.2192,1.2866-0.2192,2.5049v4.9375h-2.8691V20.4703h2.6646v1.6016
				c0.9463-1.2319,2.1372-1.8481,3.5737-1.8481c0.6328,0,1.2114,0.1147,1.7354,0.3442c0.5244,0.229,0.9209,0.5215,1.1895,0.8774
				c0.269,0.356,0.4561,0.7598,0.5615,1.2114s0.1587,1.0981,0.1587,1.9399V31.3722z"/>
			<path style="fill:#A03628;" d="M333.0555,23.6935l-2.8281,0.5132c-0.0952-0.5679-0.3115-0.9956-0.6484-1.2832
				c-0.3369-0.2871-0.7739-0.4312-1.3115-0.4312c-0.7148,0-1.2852,0.2485-1.7104,0.7446s-0.6382,1.3257-0.6382,2.4893
				c0,1.2935,0.2163,2.207,0.6484,2.7407c0.4321,0.5342,1.0122,0.8008,1.7407,0.8008c0.5444,0,0.9902-0.1558,1.3374-0.4668
				c0.3472-0.3115,0.5923-0.8472,0.7354-1.6069l2.8179,0.4824c-0.293,1.3008-0.8545,2.2827-1.6846,2.9463
				c-0.8306,0.6641-1.9434,0.9961-3.3389,0.9961c-1.5859,0-2.8501-0.5034-3.793-1.5093s-1.4141-2.3984-1.4141-4.1782
				c0-1.7998,0.4731-3.2007,1.4194-4.2036c0.9458-1.0024,2.2256-1.5039,3.8389-1.5039c1.3203,0,2.3701,0.2861,3.1499,0.8574
				C332.1556,21.6524,332.7152,22.5235,333.0555,23.6935z"/>
			<path style="fill:#A03628;" d="M342.367,31.3722v-1.6323c-0.395,0.582-0.9141,1.0405-1.5571,1.3755
				c-0.6431,0.3354-1.3223,0.5034-2.0371,0.5034c-0.728,0-1.3818-0.1611-1.96-0.4829c-0.5786-0.3213-0.9976-0.7729-1.2559-1.355
				c-0.2588-0.5815-0.3882-1.3857-0.3882-2.4121v-6.8984h2.8691v5.0093c0,1.5332,0.0527,2.4727,0.1582,2.8179
				c0.1055,0.3457,0.2979,0.6196,0.5767,0.8213c0.2793,0.2021,0.6333,0.3027,1.062,0.3027c0.4902,0,0.9292-0.1348,1.3169-0.4053
				c0.3882-0.27,0.6538-0.6055,0.7964-1.0059c0.1431-0.4004,0.2144-1.3809,0.2144-2.9414v-4.5986h2.8691v10.9019H342.367z"/>
			<path style="fill:#A03628;" d="M354.2816,27.9024l2.8589,0.4824c-0.3677,1.0542-0.9478,1.8564-1.7407,2.4072
				c-0.793,0.5513-1.7852,0.8267-2.9761,0.8267c-1.8857,0-3.2813-0.6196-4.186-1.8584c-0.7148-0.9922-1.0723-2.2446-1.0723-3.7568
				c0-1.8071,0.4697-3.2217,1.4092-4.2451c0.939-1.0229,2.127-1.5347,3.563-1.5347c1.6133,0,2.8857,0.5356,3.8184,1.6064
				c0.9326,1.0713,1.3784,2.7119,1.3379,4.9224h-7.188c0.0205,0.856,0.252,1.521,0.6943,1.9966
				c0.4424,0.4761,0.9937,0.7139,1.6538,0.7139c0.4492,0,0.8271-0.1235,1.1333-0.3696
				C353.8939,28.8468,354.1248,28.4498,354.2816,27.9024z M354.4452,24.9869c-0.0205-0.835-0.2349-1.4692-0.6436-1.9043
				c-0.4082-0.4346-0.9053-0.6519-1.4902-0.6519c-0.6265,0-1.1436,0.2295-1.5522,0.688c-0.4082,0.4585-0.6089,1.0815-0.6021,1.8682
				H354.4452z"/>
			<path style="fill:#A03628;" d="M358.6209,28.2618l2.8789-0.4414c0.1226,0.561,0.3711,0.9873,0.7456,1.2778
				c0.374,0.291,0.8984,0.4365,1.5723,0.4365c0.7417,0,1.2998-0.1367,1.6743-0.4106c0.252-0.1914,0.3779-0.4482,0.3779-0.77
				c0-0.2188-0.0684-0.4004-0.2046-0.5439c-0.1426-0.1367-0.4629-0.2637-0.9595-0.3799c-2.3145-0.5132-3.7813-0.9819-4.4004-1.4063
				c-0.8579-0.5889-1.2866-1.4067-1.2866-2.4536c0-0.9443,0.3711-1.7383,1.1128-2.3818c0.7422-0.6431,1.8921-0.9648,3.4512-0.9648
				c1.4839,0,2.5864,0.2432,3.3081,0.729c0.7212,0.4858,1.2183,1.2046,1.4902,2.1558l-2.7056,0.5029
				c-0.1157-0.4243-0.335-0.7495-0.6582-0.9751c-0.3237-0.2261-0.7847-0.3389-1.3838-0.3389c-0.7554,0-1.2964,0.106-1.623,0.3184
				c-0.2183,0.1504-0.3267,0.3457-0.3267,0.585c0,0.2056,0.0952,0.3799,0.2856,0.5234c0.2588,0.1919,1.1519,0.4619,2.6802,0.811
				c1.5278,0.3491,2.5947,0.7769,3.2007,1.2832c0.5991,0.5132,0.8984,1.2285,0.8984,2.1455c0,0.9995-0.415,1.8579-1.2456,2.5767
				s-2.0591,1.0781-3.6855,1.0781c-1.4771,0-2.646-0.3013-3.5073-0.9038C359.4496,30.1129,358.8861,29.295,358.6209,28.2618z"/>
			<path style="fill:#A03628;" d="M376.2332,20.4703v2.2993h-1.9604v4.3936c0,0.8896,0.0186,1.4082,0.0562,1.5552
				c0.0376,0.1475,0.1226,0.269,0.2554,0.3647s0.2944,0.1436,0.4849,0.1436c0.2656,0,0.6499-0.0923,1.1538-0.2773l0.2451,2.2383
				c-0.6675,0.2871-1.4229,0.4312-2.2666,0.4312c-0.5176,0-0.9839-0.0874-1.3989-0.2622c-0.415-0.1743-0.7197-0.3999-0.9136-0.6772
				c-0.1943-0.2773-0.3286-0.6519-0.4033-1.124c-0.0615-0.3354-0.0918-1.0127-0.0918-2.0327v-4.7529h-1.3174v-2.2993h1.3174v-2.166
				l2.8789-1.6836v3.8496H376.2332z"/>
			<path style="fill:#A03628;" d="M378.224,18.9918v-2.6689h2.8687v2.6689H378.224z M378.224,31.3722V20.4703h2.8687v10.9019
				H378.224z"/>
			<path style="fill:#A03628;" d="M383.37,25.7672c0-0.958,0.2349-1.8853,0.7041-2.7817c0.4697-0.8965,1.1353-1.5811,1.9961-2.0532
				c0.8613-0.4722,1.8228-0.7085,2.8843-0.7085c1.6406,0,2.9849,0.5356,4.0332,1.6064c1.0479,1.0713,1.5723,2.4248,1.5723,4.0601
				c0,1.6494-0.5293,3.0166-1.5879,4.1011c-1.0586,1.085-2.3906,1.6274-3.9971,1.6274c-0.9937,0-1.9414-0.2261-2.8433-0.6777
				c-0.9023-0.4517-1.5879-1.1138-2.0576-1.9863C383.6048,28.0821,383.37,27.0196,383.37,25.7672z M386.3104,25.921
				c0,1.0815,0.2549,1.9097,0.7656,2.4844c0.5103,0.5747,1.1401,0.8623,1.8887,0.8623s1.3765-0.2876,1.8838-0.8623
				c0.5068-0.5747,0.7607-1.4097,0.7607-2.5049c0-1.0674-0.2539-1.8887-0.7607-2.4634c-0.5073-0.5752-1.1353-0.8623-1.8838-0.8623
				s-1.3784,0.2871-1.8887,0.8623C386.5653,24.0118,386.3104,24.8399,386.3104,25.921z"/>
			<path style="fill:#A03628;" d="M406.6688,31.3722h-2.8691v-5.564c0-1.1768-0.0615-1.9385-0.1836-2.2842
				c-0.1226-0.3452-0.3218-0.6138-0.5977-0.8057c-0.2754-0.1914-0.6074-0.2876-0.9951-0.2876c-0.4971,0-0.9429,0.1372-1.3379,0.4106
				c-0.3945,0.2739-0.665,0.6367-0.8115,1.0884s-0.2192,1.2866-0.2192,2.5049v4.9375h-2.8691V20.4703h2.6646v1.6016
				c0.9463-1.2319,2.1372-1.8481,3.5737-1.8481c0.6328,0,1.2114,0.1147,1.7354,0.3442c0.5244,0.229,0.9209,0.5215,1.1895,0.8774
				c0.269,0.356,0.4561,0.7598,0.5615,1.2114s0.1587,1.0981,0.1587,1.9399V31.3722z"/>
			<path style="fill:#A03628;" d="M411.7225,23.796l-2.6035-0.4722c0.2925-1.0537,0.7964-1.834,1.5107-2.3403
				c0.7148-0.5063,1.7769-0.7598,3.1855-0.7598c1.2798,0,2.2324,0.1523,2.8589,0.457c0.626,0.3047,1.0669,0.6914,1.3223,1.1597
				c0.2554,0.4692,0.3828,1.3296,0.3828,2.582l-0.0308,3.3672c0,0.958,0.0459,1.6646,0.1382,2.1196
				c0.0918,0.4551,0.2637,0.9429,0.5151,1.4629h-2.8379c-0.0752-0.1914-0.167-0.4756-0.2759-0.8521
				c-0.0479-0.1709-0.0815-0.2837-0.1021-0.3389c-0.4902,0.479-1.0142,0.8384-1.5723,1.0781
				c-0.5581,0.2393-1.1538,0.3594-1.7866,0.3594c-1.1167,0-1.9961-0.3047-2.6396-0.9141c-0.6431-0.6089-0.9648-1.3789-0.9648-2.3096
				c0-0.6157,0.1465-1.165,0.4395-1.6475c0.2925-0.4824,0.7026-0.8521,1.23-1.1089c0.5273-0.2563,1.2881-0.4805,2.2817-0.6724
				c1.3413-0.2529,2.27-0.4893,2.7876-0.708v-0.2876c0-0.5542-0.1362-0.9497-0.4087-1.1855
				c-0.272-0.2363-0.7861-0.3545-1.5415-0.3545c-0.5103,0-0.9087,0.1011-1.1943,0.3032
				C412.1307,22.9356,411.8993,23.2896,411.7225,23.796z M415.5614,26.1368c-0.3677,0.123-0.9497,0.2705-1.7461,0.4414
				s-1.3169,0.3389-1.562,0.5029c-0.3745,0.2671-0.5615,0.6055-0.5615,1.0161c0,0.4043,0.1499,0.7529,0.4492,1.0474
				s0.6807,0.4414,1.1436,0.4414c0.5171,0,1.0107-0.1709,1.4805-0.5132c0.3472-0.2603,0.5752-0.5786,0.6841-0.9551
				c0.0747-0.2461,0.1123-0.7148,0.1123-1.4063V26.1368z"/>
			<path style="fill:#A03628;" d="M423.9535,31.3722h-2.8687V20.4703h2.6646v1.5498c0.4561-0.7319,0.8662-1.2144,1.2305-1.4473
				c0.3638-0.2324,0.7773-0.3491,1.2402-0.3491c0.6538,0,1.2832,0.1816,1.8892,0.5439l-0.8882,2.5151
				c-0.4834-0.3145-0.9326-0.4722-1.3477-0.4722c-0.4019,0-0.7422,0.1113-1.021,0.3335c-0.2793,0.2227-0.499,0.625-0.6587,1.2065
				c-0.1602,0.5815-0.2402,1.7998-0.2402,3.6543V31.3722z"/>
			<path style="fill:#A03628;" d="M429.3446,18.9918v-2.6689h2.8687v2.6689H429.3446z M429.3446,31.3722V20.4703h2.8687v10.9019
				H429.3446z"/>
			<path style="fill:#A03628;" d="M434.4906,25.7672c0-0.958,0.2349-1.8853,0.7041-2.7817
				c0.4697-0.8965,1.1353-1.5811,1.9961-2.0532c0.8613-0.4722,1.8228-0.7085,2.8843-0.7085c1.6406,0,2.9849,0.5356,4.0332,1.6064
				c1.0479,1.0713,1.5723,2.4248,1.5723,4.0601c0,1.6494-0.5293,3.0166-1.5879,4.1011c-1.0586,1.085-2.3906,1.6274-3.9971,1.6274
				c-0.9937,0-1.9414-0.2261-2.8433-0.6777c-0.9023-0.4517-1.5879-1.1138-2.0576-1.9863
				C434.7254,28.0821,434.4906,27.0196,434.4906,25.7672z M437.431,25.921c0,1.0815,0.2549,1.9097,0.7656,2.4844
				c0.5103,0.5747,1.1401,0.8623,1.8887,0.8623s1.3765-0.2876,1.8838-0.8623c0.5068-0.5747,0.7607-1.4097,0.7607-2.5049
				c0-1.0674-0.2539-1.8887-0.7607-2.4634c-0.5073-0.5752-1.1353-0.8623-1.8838-0.8623s-1.3784,0.2871-1.8887,0.8623
				C437.6859,24.0118,437.431,24.8399,437.431,25.921z"/>
		</g>
	</g>
</g>
</svg>
