<?xml version="1.0" encoding="utf-8"?>
<!-- Generator: Adobe Illustrator 21.0.2, SVG Export Plug-In . SVG Version: 6.00 Build 0)  -->
<svg version="1.1" id="Capa_1" xmlns="http://www.w3.org/2000/svg" xmlns:xlink="http://www.w3.org/1999/xlink" x="0px" y="0px"
	 viewBox="0 0 127.0977 40.9182" style="enable-background:new 0 0 127.0977 40.9182;" xml:space="preserve">
<g>
	<g>
		
			<rect x="31.8184" y="8.6557" transform="matrix(-1 -4.495660e-11 4.495660e-11 -1 149.05 40.918)" style="fill:#EB7F03;" width="85.4132" height="23.6067"/>
		<polygon style="fill:#EB7F03;" points="0,20.459 32.3557,39.1396 32.3557,1.7784 		"/>
	</g>
	<path style="fill:#EB7F03;" d="M126.9297,17.7992c1.6867,13.383-9.5679,24.6377-22.951,22.951
		c-9.1185-1.1494-16.482-8.5128-17.6312-17.6312C84.6608,9.736,95.9153-1.5187,109.2984,0.168
		C118.417,1.3171,125.7805,8.6807,126.9297,17.7992z"/>
	<path style="fill:#F2F6E1;" d="M123.505,18.2482c1.4019,11.1242-7.9531,20.4792-19.0772,19.0771
		c-7.5795-0.9552-13.7001-7.0758-14.6555-14.6553c-1.4019-11.1241,7.953-20.4793,19.0771-19.0774
		C116.429,4.5478,122.5498,10.6686,123.505,18.2482z"/>
	<g>
		<path style="fill:#EB7F03;" d="M105.3693,21.3622c0,3.1475-0.4961,5.498-1.4883,7.0508s-2.5098,2.3291-4.5527,2.3291
			c-1.96,0-3.4502-0.7949-4.4717-2.3857c-1.0215-1.5898-1.5322-3.9209-1.5322-6.9941c0-3.1719,0.4941-5.5264,1.4824-7.0625
			s2.4951-2.3047,4.5215-2.3047c1.9766,0,3.4775,0.8018,4.5029,2.4043S105.3693,18.3231,105.3693,21.3622z M95.4172,21.3622
			c0,2.6494,0.3115,4.5781,0.9346,5.7861c0.6221,1.208,1.6143,1.8125,2.9766,1.8125c1.3789,0,2.377-0.6123,2.9961-1.8369
			c0.6182-1.2256,0.9277-3.1455,0.9277-5.7617c0-2.6152-0.3096-4.5313-0.9277-5.748c-0.6191-1.2168-1.6172-1.8252-2.9961-1.8252
			c-1.3623,0-2.3545,0.6006-2.9766,1.7998C95.7287,16.7889,95.4172,18.7137,95.4172,21.3622z"/>
		<path style="fill:#EB7F03;" d="M119.1711,16.5672c0,1.1621-0.3262,2.1133-0.9775,2.8525
			c-0.6523,0.7383-1.5762,1.2324-2.7725,1.4814v0.0996c1.4619,0.1836,2.5459,0.6484,3.252,1.3955
			c0.7051,0.7471,1.0586,1.7275,1.0586,2.9395c0,1.7363-0.6025,3.0703-1.8066,4.0049s-2.9141,1.4014-5.1318,1.4014
			c-0.9629,0-1.8457-0.0723-2.6465-0.2178c-0.8018-0.1455-1.5801-0.4004-2.3359-0.7666v-1.9678
			c0.7891,0.3906,1.6299,0.6875,2.5225,0.8906c0.8926,0.2041,1.7373,0.3057,2.5352,0.3057c3.1465,0,4.7207-1.2334,4.7207-3.7002
			c0-2.209-1.7354-3.3135-5.207-3.3135h-1.7939v-1.7813h1.8193c1.4199,0,2.5449-0.3135,3.375-0.9404
			c0.8311-0.627,1.2461-1.4961,1.2461-2.6094c0-0.8887-0.3057-1.5859-0.916-2.0928c-0.6104-0.5059-1.4385-0.7598-2.4844-0.7598
			c-0.7979,0-1.5488,0.1084-2.2549,0.3242s-1.5117,0.6143-2.417,1.1953l-1.0459-1.3945c0.7471-0.5898,1.6084-1.0527,2.585-1.3896
			c0.9756-0.3359,2.0029-0.5039,3.083-0.5039c1.7686,0,3.1426,0.4043,4.123,1.2148
			C118.6808,14.0448,119.1711,15.1551,119.1711,16.5672z"/>
	</g>
</g>
</svg>
