<?xml version="1.0" encoding="utf-8"?>
<!-- Generator: Adobe Illustrator 21.0.2, SVG Export Plug-In . SVG Version: 6.00 Build 0)  -->
<svg version="1.1" id="Capa_1" xmlns="http://www.w3.org/2000/svg" xmlns:xlink="http://www.w3.org/1999/xlink" x="0px" y="0px"
	 viewBox="0 0 383.7006 217.7141" style="enable-background:new 0 0 383.7006 217.7141;" xml:space="preserve">
<g>
	<polygon style="fill:#CED3D6;" points="183.1913,55.0879 305.9631,26.5332 333.1977,57.3118 383.7006,48.2735 383.7006,126.9581 
		201.3077,109.649 189.6956,114.3874 	"/>
	<g>
		<g>
			<path d="M227.7537,72.5335V56.5169h4.8398l2.9063,10.9258l2.874-10.9258h4.8506v16.0166h-3.0049V59.9251l-3.1787,12.6084h-3.1143
				l-3.168-12.6084v12.6084H227.7537z"/>
			<path d="M253.1336,68.8411l3.0596,0.5127c-0.3936,1.1221-1.0147,1.9766-1.8633,2.5625s-1.9102,0.8799-3.1846,0.8799
				c-2.0176,0-3.5107-0.6592-4.4795-1.9775c-0.7646-1.0566-1.1475-2.3896-1.1475-3.999c0-1.9229,0.5029-3.4287,1.5078-4.5176
				s2.2764-1.6338,3.8135-1.6338c1.7256,0,3.0879,0.5703,4.0859,1.71s1.4746,2.8857,1.4307,5.2393h-7.6914
				c0.0225,0.9102,0.2695,1.6182,0.7432,2.125c0.4736,0.5059,1.0635,0.7588,1.7695,0.7588c0.4814,0,0.8857-0.1309,1.2129-0.3936
				C252.7186,69.846,252.9657,69.4232,253.1336,68.8411z M253.3084,65.7376c-0.0215-0.8887-0.251-1.5635-0.6885-2.0264
				c-0.4365-0.4629-0.9688-0.6943-1.5947-0.6943c-0.6699,0-1.2236,0.2441-1.6611,0.7324c-0.4365,0.4883-0.6514,1.1514-0.6445,1.9883
				H253.3084z M249.3866,59.5101l1.5078-3.2666h3.4414l-3.0049,3.2666H249.3866z"/>
			<path d="M264.1795,60.931v2.4473h-2.0977v4.6758c0,0.9473,0.0195,1.499,0.0605,1.6553c0.0391,0.1563,0.1309,0.2861,0.2725,0.3877
				c0.1426,0.1025,0.3154,0.1533,0.5195,0.1533c0.2842,0,0.6953-0.0986,1.2344-0.2949l0.2617,2.3818
				c-0.7139,0.3057-1.5225,0.459-2.4248,0.459c-0.5537,0-1.0527-0.0938-1.4971-0.2793s-0.7705-0.4258-0.9775-0.7207
				c-0.208-0.2949-0.3516-0.6943-0.4316-1.1963c-0.0654-0.3574-0.0986-1.0781-0.0986-2.1631v-5.0586h-1.4092V60.931h1.4092v-2.3057
				l3.0811-1.792v4.0977H264.1795z"/>
			<path d="M265.5995,66.5677c0-1.0195,0.252-2.0059,0.7539-2.96c0.5029-0.9541,1.2148-1.6826,2.1367-2.1855
				c0.9209-0.5029,1.9502-0.7539,3.0859-0.7539c1.7549,0,3.1943,0.5703,4.3154,1.71c1.1221,1.1396,1.6826,2.5801,1.6826,4.3213
				c0,1.7549-0.5664,3.21-1.6992,4.3643c-1.1318,1.1543-2.5576,1.7324-4.2773,1.7324c-1.0635,0-2.0771-0.2412-3.042-0.7217
				c-0.9658-0.4805-1.6992-1.1855-2.2021-2.1143C265.8514,69.0316,265.5995,67.9007,265.5995,66.5677z M268.7459,66.7318
				c0,1.1514,0.2734,2.0322,0.8203,2.6445c0.5459,0.6113,1.2197,0.918,2.0205,0.918c0.8018,0,1.4736-0.3066,2.0156-0.918
				c0.543-0.6123,0.8145-1.501,0.8145-2.666c0-1.1367-0.2715-2.0107-0.8145-2.6221c-0.542-0.6123-1.2139-0.918-2.0156-0.918
				c-0.8008,0-1.4746,0.3057-2.0205,0.918C269.0194,64.6995,268.7459,65.5814,268.7459,66.7318z"/>
			<path d="M290.619,72.5335h-2.8516v-1.7041c-0.4727,0.6621-1.0322,1.1563-1.6768,1.4805
				c-0.6445,0.3232-1.2949,0.4863-1.9502,0.4863c-1.333,0-2.4746-0.5371-3.4248-1.6123c-0.9512-1.0742-1.4258-2.5723-1.4258-4.4951
				c0-1.9668,0.4619-3.4619,1.3877-4.4854c0.9248-1.0234,2.0938-1.5352,3.5068-1.5352c1.2959,0,2.418,0.5391,3.3652,1.6172v-5.7686
				h3.0693V72.5335z M282.4256,66.4808c0,1.2383,0.1709,2.1338,0.5127,2.6875c0.4961,0.8018,1.1875,1.2021,2.0762,1.2021
				c0.7061,0,1.3076-0.3008,1.8027-0.9014s0.7432-1.499,0.7432-2.6934c0-1.333-0.2402-2.292-0.7217-2.8789
				c-0.4805-0.5859-1.0957-0.8799-1.8457-0.8799c-0.7285,0-1.3389,0.29-1.8301,0.8691
				C282.6707,64.4652,282.4256,65.3304,282.4256,66.4808z"/>
			<path d="M292.9354,66.5677c0-1.0195,0.252-2.0059,0.7539-2.96c0.5029-0.9541,1.2148-1.6826,2.1367-2.1855
				c0.9209-0.5029,1.9502-0.7539,3.0859-0.7539c1.7549,0,3.1943,0.5703,4.3154,1.71c1.1221,1.1396,1.6826,2.5801,1.6826,4.3213
				c0,1.7549-0.5664,3.21-1.6992,4.3643c-1.1318,1.1543-2.5576,1.7324-4.2773,1.7324c-1.0635,0-2.0771-0.2412-3.042-0.7217
				c-0.9658-0.4805-1.6992-1.1855-2.2021-2.1143C293.1873,69.0316,292.9354,67.9007,292.9354,66.5677z M296.0819,66.7318
				c0,1.1514,0.2734,2.0322,0.8203,2.6445c0.5459,0.6113,1.2197,0.918,2.0205,0.918c0.8018,0,1.4736-0.3066,2.0156-0.918
				c0.543-0.6123,0.8145-1.501,0.8145-2.666c0-1.1367-0.2715-2.0107-0.8145-2.6221c-0.542-0.6123-1.2139-0.918-2.0156-0.918
				c-0.8008,0-1.4746,0.3057-2.0205,0.918C296.3553,64.6995,296.0819,65.5814,296.0819,66.7318z"/>
			<path d="M306.2323,69.223l3.0811-0.4697c0.1309,0.5977,0.3965,1.0508,0.7979,1.3604c0.4004,0.3096,0.9609,0.4639,1.6826,0.4639
				c0.793,0,1.3906-0.1455,1.791-0.4365c0.2695-0.2041,0.4043-0.4775,0.4043-0.8193c0-0.2334-0.0723-0.4268-0.2178-0.5791
				c-0.1533-0.1455-0.4961-0.2803-1.0273-0.4043c-2.4766-0.5459-4.0459-1.0449-4.709-1.4971c-0.918-0.626-1.377-1.4971-1.377-2.6113
				c0-1.0049,0.3975-1.8496,1.1914-2.5342s2.0244-1.0273,3.6924-1.0273c1.5879,0,2.7676,0.2588,3.54,0.7754
				c0.7725,0.5176,1.3037,1.2822,1.5947,2.2949l-2.8945,0.5352c-0.124-0.4512-0.3594-0.7979-0.7051-1.0381
				s-0.8398-0.3604-1.4805-0.3604c-0.8086,0-1.3877,0.1133-1.7373,0.3389c-0.2324,0.1602-0.3496,0.3682-0.3496,0.623
				c0,0.2178,0.1025,0.4043,0.3066,0.5566c0.2764,0.2041,1.2324,0.4922,2.8672,0.8633c1.6357,0.3711,2.7773,0.8271,3.4258,1.3652
				c0.6406,0.5469,0.9609,1.3076,0.9609,2.2842c0,1.0635-0.4443,1.9775-1.333,2.7422s-2.2031,1.1475-3.9434,1.1475
				c-1.5811,0-2.832-0.3213-3.7529-0.9619C307.119,71.1937,306.5164,70.3226,306.2323,69.223z"/>
			<path d="M246.3485,99.3841V83.3675h3.2344v16.0166H246.3485z"/>
			<path d="M263.1961,99.3841h-3.0703v-5.9219c0-1.252-0.0654-2.0625-0.1963-2.4307s-0.3447-0.6533-0.6396-0.8574
				s-0.6494-0.3066-1.0645-0.3066c-0.5322,0-1.0098,0.1465-1.4316,0.4375c-0.4229,0.291-0.7119,0.6777-0.8682,1.1582
				c-0.1572,0.4805-0.2354,1.3691-0.2354,2.666v5.2549h-3.0703V87.7816h2.8516v1.7041c1.0127-1.3115,2.2871-1.9668,3.8242-1.9668
				c0.6777,0,1.2959,0.1221,1.8574,0.3662c0.5605,0.2441,0.9844,0.5557,1.2725,0.9336c0.2881,0.3789,0.4883,0.8086,0.6016,1.29
				c0.1123,0.4805,0.1689,1.1689,0.1689,2.0645V99.3841z"/>
			<path d="M271.6307,87.7816v2.4473h-2.0977v4.6758c0,0.9473,0.0195,1.499,0.0605,1.6553
				c0.0391,0.1563,0.1309,0.2861,0.2725,0.3877c0.1426,0.1025,0.3154,0.1533,0.5195,0.1533c0.2842,0,0.6953-0.0986,1.2344-0.2949
				l0.2617,2.3818c-0.7139,0.3057-1.5225,0.459-2.4248,0.459c-0.5537,0-1.0527-0.0938-1.4971-0.2793s-0.7705-0.4258-0.9775-0.7207
				c-0.208-0.2949-0.3516-0.6943-0.4316-1.1963c-0.0654-0.3574-0.0986-1.0781-0.0986-2.1631v-5.0586h-1.4092v-2.4473h1.4092v-2.3057
				l3.0811-1.792v4.0977H271.6307z"/>
			<path d="M280.4803,95.6917l3.0596,0.5127c-0.3936,1.1221-1.0146,1.9766-1.8633,2.5625s-1.9102,0.8799-3.1846,0.8799
				c-2.0176,0-3.5107-0.6592-4.4795-1.9775c-0.7646-1.0566-1.1475-2.3896-1.1475-3.999c0-1.9229,0.5029-3.4287,1.5078-4.5176
				s2.2764-1.6338,3.8135-1.6338c1.7256,0,3.0879,0.5703,4.0859,1.71s1.4746,2.8857,1.4307,5.2393h-7.6914
				c0.0225,0.9102,0.2695,1.6182,0.7432,2.125c0.4736,0.5059,1.0635,0.7588,1.7695,0.7588c0.4814,0,0.8857-0.1309,1.2129-0.3936
				C280.0653,96.6966,280.3123,96.2738,280.4803,95.6917z M280.6551,92.5882c-0.0215-0.8887-0.251-1.5635-0.6885-2.0264
				c-0.4365-0.4629-0.9688-0.6943-1.5947-0.6943c-0.6699,0-1.2236,0.2441-1.6611,0.7324c-0.4365,0.4883-0.6514,1.1514-0.6445,1.9883
				H280.6551z"/>
			<path d="M289.1444,99.3841h-3.0703V87.7816h2.8516v1.6494c0.4883-0.7793,0.9268-1.293,1.3164-1.54
				c0.3896-0.248,0.832-0.3721,1.3281-0.3721c0.6992,0,1.373,0.1934,2.0215,0.5791l-0.9512,2.6768
				c-0.5176-0.335-0.998-0.5029-1.4424-0.5029c-0.4297,0-0.7939,0.1191-1.0918,0.3555c-0.2988,0.2363-0.5342,0.665-0.7051,1.2842
				s-0.2568,1.915-0.2568,3.8887V99.3841z"/>
			<path d="M297.2079,91.3206l-2.7861-0.502c0.3135-1.1221,0.8525-1.9521,1.6172-2.4912s1.9014-0.8086,3.4092-0.8086
				c1.3691,0,2.3887,0.1621,3.0586,0.4863s1.1416,0.7354,1.415,1.2344s0.4092,1.415,0.4092,2.748l-0.0322,3.583
				c0,1.0205,0.0488,1.7725,0.1475,2.2568s0.2822,1.0029,0.5518,1.5566h-3.0371c-0.0801-0.2041-0.1787-0.5059-0.2949-0.9072
				c-0.0518-0.1816-0.0879-0.3018-0.1094-0.3604c-0.5244,0.5098-1.0859,0.8926-1.6826,1.1475
				c-0.5977,0.2549-1.2344,0.3828-1.9121,0.3828c-1.1943,0-2.1357-0.3242-2.8242-0.9727s-1.0322-1.4678-1.0322-2.458
				c0-0.6563,0.1563-1.2402,0.4697-1.7539c0.3125-0.5137,0.752-0.9072,1.3164-1.1797c0.5645-0.2734,1.3779-0.5117,2.4414-0.7158
				c1.4355-0.2695,2.4297-0.5205,2.9834-0.7539v-0.3057c0-0.5898-0.1465-1.0107-0.4375-1.2627
				c-0.291-0.251-0.8408-0.377-1.6494-0.377c-0.5469,0-0.9727,0.1084-1.2783,0.3232S297.3973,90.7825,297.2079,91.3206z
				 M301.3163,93.8118c-0.3936,0.1318-1.0166,0.2881-1.8682,0.4697c-0.8525,0.1826-1.4102,0.3613-1.6719,0.5361
				c-0.4004,0.2832-0.6016,0.6445-0.6016,1.0811c0,0.4297,0.1602,0.8018,0.4814,1.1143c0.3203,0.3135,0.7275,0.4697,1.2236,0.4697
				c0.5527,0,1.0811-0.1816,1.584-0.5459c0.3711-0.2764,0.6152-0.6152,0.7324-1.0166c0.0801-0.2617,0.1201-0.7607,0.1201-1.4961
				V93.8118z"/>
			<path d="M317.4735,91.2122l-3.0264,0.5459c-0.1016-0.6045-0.333-1.0596-0.6934-1.3662c-0.3604-0.3057-0.8291-0.458-1.4043-0.458
				c-0.7646,0-1.375,0.2637-1.8301,0.792s-0.6826,1.4111-0.6826,2.6494c0,1.376,0.2314,2.3486,0.6943,2.917
				c0.4619,0.5684,1.083,0.8525,1.8623,0.8525c0.583,0,1.0596-0.166,1.4316-0.498c0.3711-0.3311,0.6338-0.9014,0.7861-1.709
				l3.0156,0.5127c-0.3135,1.3848-0.9141,2.4297-1.8027,3.1357c-0.8887,0.707-2.0791,1.0605-3.5723,1.0605
				c-1.6973,0-3.0508-0.5361-4.0596-1.6064s-1.5127-2.5527-1.5127-4.4463c0-1.916,0.5059-3.4072,1.5186-4.4746
				c1.0127-1.0664,2.3818-1.6006,4.1084-1.6006c1.4131,0,2.5361,0.3047,3.3701,0.9121
				C316.5106,89.0394,317.1092,89.9661,317.4735,91.2122z"/>
			<path d="M325.1219,87.7816v2.4473h-2.0977v4.6758c0,0.9473,0.0195,1.499,0.0605,1.6553
				c0.0391,0.1563,0.1309,0.2861,0.2725,0.3877c0.1426,0.1025,0.3154,0.1533,0.5195,0.1533c0.2842,0,0.6953-0.0986,1.2344-0.2949
				l0.2617,2.3818c-0.7139,0.3057-1.5225,0.459-2.4248,0.459c-0.5537,0-1.0527-0.0938-1.4971-0.2793s-0.7705-0.4258-0.9775-0.7207
				c-0.208-0.2949-0.3516-0.6943-0.4316-1.1963c-0.0654-0.3574-0.0986-1.0781-0.0986-2.1631v-5.0586h-1.4092v-2.4473h1.4092v-2.3057
				l3.0811-1.792v4.0977H325.1219z"/>
			<path d="M327.2528,86.2083v-2.8408h3.0693v2.8408H327.2528z M327.2528,99.3841V87.7816h3.0693v11.6025H327.2528z"/>
			<path d="M336.659,99.3841l-4.6758-11.6025h3.2227l2.1855,5.9209l0.6338,1.9775c0.167-0.502,0.2734-0.834,0.3164-0.9941
				c0.1025-0.3271,0.2119-0.6553,0.3281-0.9834l2.207-5.9209h3.1572l-4.6104,11.6025H336.659z"/>
			<path d="M345.203,93.4183c0-1.0195,0.252-2.0059,0.7539-2.96c0.5029-0.9541,1.2148-1.6826,2.1367-2.1855
				c0.9209-0.5029,1.9502-0.7539,3.0859-0.7539c1.7549,0,3.1943,0.5703,4.3154,1.71c1.1221,1.1396,1.6826,2.5801,1.6826,4.3213
				c0,1.7549-0.5664,3.21-1.6992,4.3643c-1.1318,1.1543-2.5576,1.7324-4.2773,1.7324c-1.0635,0-2.0771-0.2412-3.042-0.7217
				c-0.9658-0.4805-1.6992-1.1855-2.2021-2.1143C345.4549,95.8821,345.203,94.7513,345.203,93.4183z M348.3495,93.5823
				c0,1.1514,0.2734,2.0322,0.8203,2.6445c0.5459,0.6113,1.2197,0.918,2.0205,0.918c0.8018,0,1.4736-0.3066,2.0156-0.918
				c0.543-0.6123,0.8145-1.501,0.8145-2.666c0-1.1367-0.2715-2.0107-0.8145-2.6221c-0.542-0.6123-1.2139-0.918-2.0156-0.918
				c-0.8008,0-1.4746,0.3057-2.0205,0.918C348.6229,91.5501,348.3495,92.432,348.3495,93.5823z"/>
			<path d="M358.4998,96.0736l3.0811-0.4697c0.1309,0.5977,0.3965,1.0508,0.7979,1.3604c0.4004,0.3096,0.9609,0.4639,1.6826,0.4639
				c0.793,0,1.3906-0.1455,1.791-0.4365c0.2695-0.2041,0.4043-0.4775,0.4043-0.8193c0-0.2334-0.0723-0.4268-0.2178-0.5791
				c-0.1533-0.1455-0.4961-0.2803-1.0273-0.4043c-2.4766-0.5459-4.0459-1.0449-4.709-1.4971c-0.918-0.626-1.377-1.4971-1.377-2.6113
				c0-1.0049,0.3975-1.8496,1.1914-2.5342s2.0244-1.0273,3.6924-1.0273c1.5879,0,2.7676,0.2588,3.54,0.7754
				c0.7725,0.5176,1.3037,1.2822,1.5947,2.2949l-2.8945,0.5352c-0.124-0.4512-0.3594-0.7979-0.7051-1.0381
				s-0.8398-0.3604-1.4805-0.3604c-0.8086,0-1.3877,0.1133-1.7373,0.3389c-0.2324,0.1602-0.3496,0.3682-0.3496,0.623
				c0,0.2178,0.1025,0.4043,0.3066,0.5566c0.2764,0.2041,1.2324,0.4922,2.8672,0.8633c1.6357,0.3711,2.7773,0.8271,3.4258,1.3652
				c0.6406,0.5469,0.9609,1.3076,0.9609,2.2842c0,1.0635-0.4443,1.9775-1.333,2.7422s-2.2031,1.1475-3.9434,1.1475
				c-1.5811,0-2.832-0.3213-3.7529-0.9619C359.3866,98.0443,358.784,97.1732,358.4998,96.0736z"/>
		</g>
	</g>
	<g>
		<circle id="Background_2_1_" style="fill:#F9B046;" cx="109.764" cy="101.4878" r="101.4877"/>
		<g id="Notification_Massage_1_">
			<g id="Line_2_">
				<g>
					
						<rect x="133.153" y="113.4254" transform="matrix(0.9331 -0.3596 0.3596 0.9331 -32.1595 56.1725)" style="fill:#FFFFFF;" width="3.5282" height="2.2174"/>
					
						<rect x="138.0561" y="111.5357" transform="matrix(0.9331 -0.3596 0.3596 0.9331 -31.1521 57.8094)" style="fill:#FFFFFF;" width="3.5298" height="2.2174"/>
					
						<rect x="142.9596" y="109.6466" transform="matrix(0.9331 -0.3596 0.3596 0.9331 -30.1448 59.4461)" style="fill:#FFFFFF;" width="3.5296" height="2.2169"/>
					
						<rect x="147.8646" y="107.757" transform="matrix(0.933 -0.3598 0.3598 0.933 -29.1474 61.1208)" style="fill:#FFFFFF;" width="3.528" height="2.2167"/>
					
						<rect x="152.7678" y="105.8675" transform="matrix(0.9332 -0.3593 0.3593 0.9332 -28.1181 62.6718)" style="fill:#FFFFFF;" width="3.5287" height="2.2158"/>
					
						<rect x="157.672" y="103.9776" transform="matrix(0.933 -0.3598 0.3598 0.933 -27.131 64.3967)" style="fill:#FFFFFF;" width="3.5281" height="2.2163"/>
					
						<rect x="162.5752" y="102.0879" transform="matrix(0.9331 -0.3596 0.3596 0.9331 -26.115 65.9936)" style="fill:#FFFFFF;" width="3.5283" height="2.2169"/>
				</g>
				<g>
					
						<rect x="118.7062" y="97.2235" transform="matrix(0.7866 -0.6174 0.6174 0.7866 -35.0078 95.3673)" style="fill:#FFFFFF;" width="3.5285" height="2.2167"/>
					
						<rect x="122.8396" y="93.9797" transform="matrix(0.7869 -0.6171 0.6171 0.7869 -32.1238 97.1531)" style="fill:#FFFFFF;" width="3.529" height="2.2163"/>
					
						<rect x="126.9739" y="90.7355" transform="matrix(0.7866 -0.6174 0.6174 0.7866 -29.2376 99.0867)" style="fill:#FFFFFF;" width="3.5286" height="2.2168"/>
					
						<rect x="131.1087" y="87.491" transform="matrix(0.7867 -0.6174 0.6174 0.7867 -26.3531 100.9356)" style="fill:#FFFFFF;" width="3.5282" height="2.2171"/>
					
						<rect x="135.2433" y="84.2469" transform="matrix(0.7866 -0.6174 0.6174 0.7866 -23.4669 102.8079)" style="fill:#FFFFFF;" width="3.5281" height="2.2173"/>
					
						<rect x="139.3775" y="81.0022" transform="matrix(0.7866 -0.6174 0.6174 0.7866 -20.5812 104.6674)" style="fill:#FFFFFF;" width="3.5285" height="2.2168"/>
					
						<rect x="143.5108" y="77.7581" transform="matrix(0.7866 -0.6174 0.6174 0.7866 -17.6961 106.5281)" style="fill:#FFFFFF;" width="3.5286" height="2.2167"/>
				</g>
				<g>
					
						<rect x="107.6943" y="82.0655" transform="matrix(0.4898 -0.8719 0.8719 0.4898 -16.6659 137.8703)" style="fill:#FFFFFF;" width="3.5283" height="2.2167"/>
					
						<rect x="110.2695" y="77.485" transform="matrix(0.4901 -0.8716 0.8716 0.4901 -11.384 137.7245)" style="fill:#FFFFFF;" width="3.5292" height="2.2165"/>
					
						<rect x="112.8454" y="72.9036" transform="matrix(0.4902 -0.8716 0.8716 0.4902 -6.0794 137.6308)" style="fill:#FFFFFF;" width="3.5283" height="2.2172"/>
					
						<rect x="115.4211" y="68.3232" transform="matrix(0.4899 -0.8718 0.8718 0.4899 -0.7534 137.5748)" style="fill:#FFFFFF;" width="3.5281" height="2.216"/>
					
						<rect x="117.9964" y="63.7426" transform="matrix(0.4905 -0.8715 0.8715 0.4905 4.5075 137.4108)" style="fill:#FFFFFF;" width="3.5292" height="2.2165"/>
					
						<rect x="120.5724" y="59.1611" transform="matrix(0.4897 -0.8719 0.8719 0.4897 9.8798 137.4195)" style="fill:#FFFFFF;" width="3.5283" height="2.2168"/>
					
						<rect x="123.147" y="54.5807" transform="matrix(0.4898 -0.8719 0.8719 0.4898 15.1817 137.3195)" style="fill:#FFFFFF;" width="3.5283" height="2.2168"/>
				</g>
				<g>
					<g>
						<path style="fill:#EDEDED;" d="M39.8013,139.6263l-1.6083,1.4555c0,0,0.8283,0.9264,1.715,1.8033
							c0.4434,0.4397,0.8942,0.8706,1.2433,1.1886c0.1775,0.1589,0.3266,0.2906,0.4296,0.3838
							c0.1032,0.0894,0.1628,0.1403,0.1628,0.1403l1.4159-1.6442c0,0-0.0559-0.0484-0.1541-0.133
							c-0.0945-0.0844-0.2297-0.2049-0.3925-0.3502c-0.3253-0.2955-0.7537-0.7053-1.1748-1.1226
							C40.5949,140.5131,39.8013,139.6263,39.8013,139.6263z"/>
						<path style="fill:#EDEDED;" d="M35.4693,134.0361l-1.8145,1.1899c0,0,0.0421,0.0645,0.1166,0.18
							c0.0745,0.1144,0.1788,0.2783,0.3143,0.4684c0.2696,0.3825,0.6161,0.9017,0.9924,1.3972
							c0.7327,1.0071,1.5263,1.9647,1.5263,1.9647l1.678-1.3749c0,0-0.759-0.9153-1.4581-1.8766
							c-0.3601-0.4732-0.688-0.9674-0.9451-1.3315c-0.128-0.1813-0.2286-0.3365-0.2981-0.4458
							C35.5103,134.0982,35.4693,134.0361,35.4693,134.0361z"/>
						<path style="fill:#EDEDED;" d="M32.1991,127.8735l-2.0466,0.7353c0,0,0.1068,0.2968,0.3055,0.7265
							c0.1962,0.4296,0.4359,1.0146,0.7266,1.5748c0.1416,0.2819,0.2819,0.5639,0.4136,0.8285
							c0.1416,0.2595,0.2744,0.5017,0.3875,0.709c0.2273,0.4149,0.38,0.6919,0.38,0.6919l1.8902-1.0645
							c0,0-0.1403-0.2558-0.3513-0.6409c-0.1056-0.1924-0.2286-0.4173-0.3603-0.6582c-0.123-0.2446-0.2534-0.5067-0.3838-0.7688
							c-0.272-0.5179-0.4943-1.0606-0.6768-1.4592C32.2986,128.1492,32.1991,127.8735,32.1991,127.8735z"/>
						<path style="fill:#EDEDED;" d="M30.3872,121.1606l-2.1772,0.2111c0,0,0.046,0.3117,0.1131,0.78
							c0.0522,0.4706,0.206,1.0842,0.329,1.7014c0.0572,0.3106,0.1405,0.6148,0.2198,0.8992
							c0.0771,0.2856,0.149,0.5515,0.2113,0.7798c0.0583,0.2299,0.1166,0.4173,0.1626,0.5477
							c0.0434,0.1304,0.0684,0.2049,0.0684,0.2049l2.1038-0.5663c0,0-0.0237-0.0682-0.0634-0.19
							c-0.0434-0.1204-0.0969-0.2955-0.1514-0.5078c-0.0585-0.2113-0.1256-0.4583-0.1975-0.7228
							c-0.0745-0.2645-0.1527-0.5466-0.2062-0.8346c-0.1142-0.5738-0.2595-1.1414-0.3068-1.5787
							C30.4293,121.45,30.3872,121.1606,30.3872,121.1606z"/>
						<path style="fill:#EDEDED;" d="M30.5138,114.2167l-2.1647-0.3253c0,0-0.0436,0.3117-0.1081,0.7798
							c-0.0335,0.2347-0.0721,0.508-0.1118,0.8011c-0.0436,0.2919-0.046,0.6086-0.0721,0.9229
							c-0.0199,0.3141-0.0397,0.6284-0.0583,0.924c-0.0125,0.2944,0,0.5712-0.0013,0.8072c0.005,0.4732,0.0074,0.7886,0.0074,0.7886
							l2.1884-0.0346c0,0-0.0013-0.2932-0.0063-0.7316c0.0013-0.2198-0.0112-0.4756,0-0.7502
							c0.0175-0.2731,0.0361-0.565,0.0548-0.8581c0.0248-0.2906,0.0261-0.585,0.0671-0.8559
							c0.0373-0.272,0.0732-0.5254,0.1043-0.7426C30.474,114.5073,30.5138,114.2167,30.5138,114.2167z"/>
						<path style="fill:#EDEDED;" d="M32.7457,107.638l-2.0045-0.8408c0,0-0.1367,0.2843-0.3417,0.7104
							c-0.1017,0.2137-0.2209,0.4633-0.3476,0.729c-0.1069,0.2757-0.2211,0.57-0.3353,0.8633
							c-0.1144,0.2944-0.2273,0.5887-0.3353,0.8644c-0.1081,0.2744-0.1714,0.544-0.2448,0.7687
							c-0.1353,0.4534-0.2273,0.7552-0.2273,0.7552l2.1275,0.4993c0,0,0.0846-0.2808,0.2124-0.7005
							c0.0684-0.2087,0.1267-0.4583,0.2286-0.7143c0.0993-0.2545,0.2062-0.5278,0.313-0.7998
							c0.1056-0.2733,0.2124-0.5453,0.3117-0.8011c0.1192-0.2472,0.231-0.4782,0.3254-0.6757
							C32.619,107.9012,32.7457,107.638,32.7457,107.638z"/>
						<path style="fill:#EDEDED;" d="M36.1685,101.4058l-1.8816-1.0805c0,0-0.6036,1.0619-1.2072,2.1249
							c-0.5974,1.0805-1.1947,2.161-1.1947,2.161l1.9263,0.9999c0,0,0.5799-1.0494,1.1599-2.099
							C35.5699,102.459,36.1685,101.4058,36.1685,101.4058z"/>
					</g>
					<g>
						<polygon style="fill:#EDEDED;" points="39.8335,95.166 37.9694,94.0557 35.4866,98.2561 37.3608,99.3503 						"/>
						<polygon style="fill:#EDEDED;" points="43.5359,88.9214 41.6642,87.826 39.1889,92.0091 41.0532,93.1194 						"/>
						<path style="fill:#EDEDED;" d="M47.1251,82.5762l-1.9088-1.0295c0,0-0.5838,1.0593-1.1675,2.1187
							c-0.5887,1.0568-1.1947,2.1064-1.1947,2.1064l1.8816,1.0805c0,0,0.611-1.0582,1.2072-2.1288
							c0.3018-0.5315,0.5924-1.0718,0.8147-1.4755C46.9774,82.8444,47.1251,82.5762,47.1251,82.5762z"/>
						<path style="fill:#EDEDED;" d="M50.3965,76.0174l-1.9758-0.8931c0,0-0.1256,0.2733-0.3143,0.6819
							c-0.1839,0.4111-0.4447,0.9538-0.7092,1.4941c-0.2595,0.5429-0.5291,1.0818-0.7364,1.4829
							c-0.2062,0.4024-0.3428,0.672-0.3428,0.672l1.9287,0.9935c0,0,0.1392-0.2731,0.3491-0.6843
							c0.2111-0.4085,0.4855-0.96,0.7513-1.5152c0.272-0.5527,0.539-1.1079,0.7279-1.5313
							C50.2687,76.298,50.3965,76.0174,50.3965,76.0174z"/>
						<path style="fill:#EDEDED;" d="M53.0605,69.1331l-2.069-0.6483c0,0-0.0932,0.2832-0.231,0.7079
							c-0.133,0.4261-0.3329,0.9887-0.5415,1.5489c-0.1975,0.5626-0.4186,1.1189-0.5874,1.5351
							c-0.1666,0.4173-0.277,0.6941-0.277,0.6941l2.0059,0.8284c0,0,0.1142-0.2882,0.2869-0.7204
							c0.1738-0.4296,0.4035-1.006,0.6097-1.5921c0.2148-0.5812,0.4247-1.1662,0.5626-1.6133
							C52.9649,69.43,53.0605,69.1331,53.0605,69.1331z"/>
						<path style="fill:#EDEDED;" d="M54.6541,61.8526l-2.1549-0.2459c0,0-0.0075,0.0734-0.0199,0.2012
							c-0.0197,0.1267-0.0458,0.3092-0.0783,0.528c-0.0671,0.437-0.1352,1.022-0.2619,1.6008
							c-0.1118,0.5799-0.2224,1.1601-0.3366,1.591c-0.1043,0.4309-0.1738,0.7191-0.1738,0.7191l2.1014,0.5365
							c0,0,0.0732-0.3042,0.1837-0.7601c0.1205-0.4532,0.2385-1.0693,0.3577-1.6854c0.133-0.6122,0.2075-1.2394,0.2795-1.7052
							c0.0335-0.2334,0.0622-0.4285,0.082-0.5639C54.6466,61.9309,54.6541,61.8526,54.6541,61.8526z"/>
						<path style="fill:#EDEDED;" d="M54.5497,54.3337l-2.145,0.3217c0,0,0.0423,0.2882,0.1056,0.7215
							c0.0535,0.4335,0.087,1.0172,0.1403,1.5984c0.0224,0.585,0.0261,1.1699,0.0386,1.6085
							c-0.0149,0.4396-0.0261,0.7314-0.0261,0.7314l2.1685,0.0745c0,0,0.0112-0.3167,0.0274-0.7899
							c-0.0125-0.4756-0.0162-1.109-0.0423-1.7424c-0.0559-0.6321-0.0944-1.2655-0.1515-1.7376
							C54.5956,54.648,54.5497,54.3337,54.5497,54.3337z"/>
					</g>
				</g>
				<g>
					<g>
						<path style="fill:#EDEDED;" d="M94.0269,137.1571l-1.9796,0.5801c0,0-0.4497-1.1066-0.8298-2.2355
							c-0.19-0.5639-0.3713-1.1316-0.4967-1.5625c-0.0609-0.2174-0.1118-0.4-0.1479-0.5267
							c-0.0335-0.1254-0.0522-0.1975-0.0522-0.1975l2.0604-0.3354c0,0,0.0175,0.0684,0.0484,0.1876
							c0.0335,0.1155,0.0796,0.2819,0.1367,0.4807c0.1155,0.4024,0.2869,0.9402,0.4695,1.4768
							C93.5973,136.099,94.0269,137.1571,94.0269,137.1571z"/>
						<path style="fill:#EDEDED;" d="M97.03,143.2988l-1.8369,0.8719c0,0-0.0384-0.0647-0.1067-0.1802
							c-0.0684-0.1129-0.1652-0.2757-0.2733-0.4756c-0.2172-0.3987-0.5203-0.9227-0.7899-1.4619
							c-0.5626-1.0693-1.0544-2.1635-1.0544-2.1635l1.9401-0.6731c0,0,0.4706,1.047,1.006,2.0653
							c0.2571,0.5142,0.5464,1.0135,0.7538,1.3935c0.1019,0.19,0.1951,0.3454,0.2597,0.4535
							C96.9928,143.2367,97.03,143.2988,97.03,143.2988z"/>
						<path style="fill:#EDEDED;" d="M100.9981,148.8714l-1.5399,1.2769c0,0-0.2124-0.2286-0.503-0.5937
							c-0.2919-0.3627-0.698-0.8359-1.0608-1.3376c-0.1863-0.2483-0.3713-0.4956-0.5464-0.729
							c-0.1652-0.2373-0.3191-0.4596-0.4521-0.6496c-0.2632-0.3813-0.4383-0.6358-0.4383-0.6358l1.7599-0.9924
							c0,0,0.1626,0.236,0.4072,0.59c0.1218,0.1762,0.2659,0.3824,0.4186,0.6023c0.1615,0.2161,0.334,0.4471,0.5067,0.6768
							c0.334,0.4657,0.713,0.9043,0.9823,1.242C100.8007,148.6603,100.9981,148.8714,100.9981,148.8714z"/>
						<path style="fill:#EDEDED;" d="M106.0877,153.5487l-1.1375,1.6319c0,0-0.2534-0.1863-0.6347-0.467
							c-0.3899-0.267-0.8594-0.6856-1.3475-1.0805c-0.2459-0.1949-0.4769-0.4073-0.6919-0.6084
							c-0.2161-0.1988-0.4173-0.3851-0.5898-0.544c-0.1751-0.1565-0.3156-0.2932-0.4087-0.3925
							c-0.0956-0.0982-0.1502-0.1541-0.1502-0.1541l1.417-1.4021c0,0,0.051,0.0522,0.1392,0.1427
							c0.087,0.092,0.2161,0.2187,0.3787,0.3651c0.1602,0.1479,0.3465,0.3204,0.5477,0.5056
							c0.1988,0.1863,0.4125,0.3838,0.6409,0.565c0.4535,0.3676,0.8868,0.7577,1.2482,1.006
							C105.8519,153.376,106.0877,153.5487,106.0877,153.5487z"/>
						<path style="fill:#EDEDED;" d="M112.228,156.7927l-0.6619,1.8805c0,0-0.293-0.1155-0.7316-0.2895
							c-0.2198-0.0868-0.4756-0.1874-0.75-0.2955c-0.2746-0.108-0.554-0.2571-0.8396-0.3888
							c-0.2845-0.1354-0.5687-0.2707-0.8359-0.3974c-0.2645-0.133-0.5004-0.2757-0.7079-0.3888
							c-0.4123-0.2323-0.688-0.3851-0.688-0.3851l0.9887-1.7262c0,0,0.2558,0.1427,0.6383,0.3564
							c0.1926,0.1056,0.4125,0.2398,0.6571,0.3627c0.2472,0.1166,0.5117,0.2433,0.7763,0.3689
							c0.2657,0.1203,0.5227,0.2619,0.7787,0.3601c0.2545,0.1006,0.4929,0.1937,0.6968,0.2744
							C111.956,156.6859,112.228,156.7927,112.228,156.7927z"/>
						<path style="fill:#EDEDED;" d="M118.9708,158.1862l-0.1416,2.0008c0,0-0.3081-0.0285-0.7712-0.0708
							c-0.2323-0.0224-0.5019-0.0471-0.7925-0.0745c-0.288-0.0471-0.5948-0.098-0.9028-0.149
							c-0.3068-0.0496-0.6148-0.1017-0.903-0.149c-0.2882-0.0471-0.5527-0.1267-0.7811-0.1751
							c-0.4572-0.1105-0.7614-0.1826-0.7614-0.1826l0.4942-1.9349c0,0,0.2821,0.067,0.7055,0.1688
							c0.2137,0.0447,0.4583,0.1192,0.7252,0.1615c0.2683,0.0434,0.554,0.0894,0.8396,0.1366
							c0.2845,0.046,0.5701,0.0932,0.837,0.1367c0.2696,0.0248,0.5205,0.0471,0.7353,0.0671
							C118.6839,158.1601,118.9708,158.1862,118.9708,158.1862z"/>
						<path style="fill:#EDEDED;" d="M125.9296,158.4619l0.1242,2.0194c0,0-1.196-0.0309-2.392-0.062
							c-1.2072-0.046-2.4144-0.0907-2.4144-0.0907l-0.0348-2.0144c0,0,1.1737,0.0434,2.3473,0.087
							C124.7447,158.4321,125.9296,158.4619,125.9296,158.4619z"/>
					</g>
					<g>
						<polygon style="fill:#EDEDED;" points="133.0013,158.5513 133.1578,160.5697 128.3911,160.5224 128.2521,158.5042 						"/>
						<polygon style="fill:#EDEDED;" points="140.0955,158.611 140.2357,160.6304 135.4852,160.5846 135.3287,158.5662 						"/>
						<path style="fill:#EDEDED;" d="M147.2256,158.8097l0.0671,2.017c0,0-1.1835-0.046-2.3671-0.092
							c-1.1837-0.0397-2.3697-0.0634-2.3697-0.0634l-0.123-2.0181c0,0,1.1947,0.0237,2.3932,0.0647
							c0.5999,0.0149,1.1998,0.0434,1.6495,0.0607C146.9264,158.7972,147.2256,158.8097,147.2256,158.8097z"/>
						<path style="fill:#EDEDED;" d="M154.4054,159.3649l-0.082,2.0045c0,0-0.2944-0.0311-0.7351-0.0795
							c-0.441-0.0509-1.031-0.1054-1.6197-0.1539c-0.5887-0.0548-1.1785-0.1006-1.6219-0.128
							c-0.4434-0.0311-0.7377-0.0522-0.7377-0.0522l-0.0274-2.0133c0,0,0.3005,0.0213,0.7526,0.0522
							c0.4508,0.0287,1.0531,0.0745,1.6567,0.1304c0.6036,0.051,1.2061,0.1056,1.6593,0.1591
							C154.1036,159.3327,154.4054,159.3649,154.4054,159.3649z"/>
						<path style="fill:#EDEDED;" d="M161.6039,160.5596l-0.3364,1.9612c0,0-0.2895-0.062-0.7217-0.1565
							c-0.4322-0.1006-1.0121-0.2111-1.5947-0.3154c-0.5786-0.1144-1.1625-0.2062-1.6021-0.272
							c-0.4371-0.0684-0.7303-0.1144-0.7303-0.1144l0.1528-1.9958c0,0,0.3031,0.0471,0.7564,0.1179
							c0.4534,0.0697,1.0582,0.1639,1.6618,0.282c0.6049,0.1092,1.2098,0.2236,1.6606,0.329
							C161.3021,160.4951,161.6039,160.5596,161.6039,160.5596z"/>
						<path style="fill:#EDEDED;" d="M168.682,162.7989l-0.7279,1.8344c0,0-0.0671-0.0285-0.185-0.0807
							c-0.1192-0.046-0.2906-0.1131-0.4969-0.1926c-0.4123-0.1565-0.9551-0.3838-1.5164-0.5626
							c-0.5576-0.19-1.1154-0.3825-1.5425-0.498c-0.4235-0.1243-0.7066-0.2073-0.7066-0.2073l0.4495-1.9326
							c0,0,0.2994,0.0883,0.7465,0.2198c0.4509,0.1229,1.042,0.3254,1.6344,0.528c0.5948,0.1887,1.1761,0.4322,1.6157,0.5986
							c0.2198,0.0857,0.4024,0.1565,0.5304,0.2062C168.6099,162.768,168.682,162.7989,168.682,162.7989z"/>
						<path style="fill:#EDEDED;" d="M175.2247,166.5051l-1.221,1.5524c0,0-0.2334-0.1727-0.5861-0.4309
							c-0.3566-0.2522-0.8532-0.5602-1.3389-0.8819c-0.5017-0.2992-1.0134-0.585-1.3922-0.8059
							c-0.3912-0.1988-0.652-0.3329-0.652-0.3329l0.8842-1.761c0,0,0.2807,0.144,0.7031,0.3588
							c0.411,0.2385,0.965,0.5477,1.5077,0.8732c0.5304,0.3478,1.0681,0.6843,1.4568,0.9589
							C174.9701,166.3161,175.2247,166.5051,175.2247,166.5051z"/>
					</g>
				</g>
			</g>
			<g id="Command_3_">
				<polygon style="fill:#184F78;" points="75.3117,204.5914 57.795,217.7141 40.7998,179.9618 51.0884,172.2541 				"/>
				
					<rect x="55.8288" y="170.8642" transform="matrix(0.8003 -0.5995 0.5995 0.8003 -102.5257 74.0744)" style="opacity:0.2;" width="8.2513" height="40.2153"/>
				<path style="fill:#FFFFFF;" d="M131.0838,125.4764c2.0703,2.7646,1.509,6.6843-1.2545,8.7548L23.7599,191.9853
					c-5.8385,2.6366-7.8293-0.0211-9.8998-2.7846L2.0913,173.4899c-2.0716-2.7646-3.3669-5.9429-0.1341-9.4514l88.293-82.6384
					c2.7646-2.0703,6.6843-1.5077,8.7559,1.2556L131.0838,125.4764z"/>
				<path style="fill:#184F78;" d="M5.4656,160.7547l-3.5085,3.2838c-3.2328,3.5085-1.9375,6.6867,0.1341,9.4514l11.7689,15.7109
					c2.0705,2.7635,4.0612,5.4212,9.8998,2.7846l3.6229-1.9723L5.4656,160.7547z"/>
				<path style="fill:#184F78;" d="M90.2502,81.4001l-5.7578,5.3901l38.3769,51.2302l6.96-3.7893
					c2.7635-2.0705,3.3248-5.9902,1.2545-8.7548L99.0061,82.6557C96.9345,79.8924,93.0148,79.3298,90.2502,81.4001z"/>
				<path style="opacity:0.2;" d="M8.152,181.5812l5.7081,7.6195c2.0705,2.7635,4.0612,5.4212,9.8998,2.7846l106.0694-57.7541
					c2.7635-2.0705,3.3248-5.9902,1.2545-8.7548l-17.2685-23.0496L8.152,181.5812z"/>
			</g>
			<g id="Mail_1_">
				<g id="Envelop_3_">
					<g id="Envelop_4_">
						<path style="fill:#FF3E03;" d="M167.3146,202.5421c0,1.0369-0.8409,1.879-1.8792,1.879H139.539
							c-1.0382,0-1.879-0.8421-1.879-1.879v-27.9854c0-1.0384,0.8407-1.8792,1.879-1.8792h25.8964
							c1.0382,0,1.8792,0.8407,1.8792,1.8792V202.5421z"/>
						<path style="opacity:0.6;fill:#0F0F0F;" d="M138.3331,188.5487h28.9815l-10.5978,7.5972c0,0-8.6156,1.9574-10.1034,0.8607
							c-1.4879-1.0954-6.8136-4.6984-6.8136-4.6984L138.3331,188.5487z"/>
						<rect x="140.5053" y="175.3142" style="fill:#E8E8E6;" width="23.9638" height="26.2355"/>
						<path style="fill:#00EAA6;" d="M138.3331,188.5487H137.66v13.9934c0,1.0369,0.8407,1.879,1.879,1.879h25.8964
							c1.0382,0,1.8792-0.8421,1.8792-1.879v-13.9934l-14.8267,7.9362L138.3331,188.5487z"/>
						<path style="opacity:0.2;" d="M139.539,204.4211h25.8964c1.0382,0,1.8792-0.8421,1.8792-1.879v-13.9934l-14.8267,7.9362
							l-14.3261,7.3315C138.5045,204.1877,138.9939,204.4211,139.539,204.4211z"/>
					</g>
					<g id="Text_2_" style="opacity:0.4;">
						<rect x="143.4028" y="177.8206" style="opacity:0.7;" width="19.2656" height="0.7042"/>
						<rect x="143.4028" y="179.0737" style="opacity:0.7;" width="19.2656" height="0.7042"/>
						<rect x="143.4028" y="180.4038" style="opacity:0.7;" width="19.2656" height="0.7055"/>
						<rect x="143.4028" y="181.6967" style="opacity:0.7;" width="19.2656" height="0.7042"/>
						<rect x="143.4028" y="183.3412" style="opacity:0.7;" width="19.2656" height="0.7055"/>
						<rect x="143.4028" y="185.2997" style="opacity:0.7;" width="19.2656" height="0.7042"/>
						<rect x="143.4028" y="186.6697" style="opacity:0.7;" width="19.2656" height="0.7053"/>
						<rect x="143.4028" y="187.9613" style="opacity:0.7;" width="19.2656" height="0.7055"/>
						<rect x="143.4028" y="189.4492" style="opacity:0.7;" width="19.2656" height="0.7053"/>
					</g>
				</g>
				<g id="Envelop_1_">
					<g id="Envelop_2_">
						<path style="fill:#FF3E03;" d="M219.47,173.3879c0,1.781-1.4456,3.2267-3.2266,3.2267h-44.4416
							c-1.7821,0-3.2267-1.4457-3.2267-3.2267v-48.0258c0-1.7823,1.4445-3.2253,3.2267-3.2253h44.4416
							c1.781,0,3.2266,1.443,3.2266,3.2253V173.3879z"/>
						<path style="opacity:0.6;fill:#0F0F0F;" d="M169.7301,149.3757H219.47l-18.1899,13.0357c0,0-14.7844,3.3608-17.338,1.4792
							c-2.5535-1.8816-11.6919-8.064-11.6919-8.064L169.7301,149.3757z"/>
						<rect x="173.4586" y="126.6612" style="fill:#E8E8E6;" width="41.1278" height="45.0253"/>
						<path style="fill:#00EAA6;" d="M169.7301,149.3757h-1.155v24.0122c0,1.781,1.4445,3.2267,3.2267,3.2267h44.4416
							c1.781,0,3.2266-1.4457,3.2266-3.2267v-24.0122l-25.448,13.6182L169.7301,149.3757z"/>
						<path style="opacity:0.2;" d="M171.8017,176.6146h44.4416c1.781,0,3.2266-1.4457,3.2266-3.2267v-24.0122l-25.448,13.6182
							l-24.5849,12.5824C170.0258,176.2135,170.8654,176.6146,171.8017,176.6146z"/>
					</g>
					<g id="Text_1_" style="opacity:0.4;">
						<rect x="178.4327" y="130.9622" style="opacity:0.7;" width="33.0625" height="1.2096"/>
						<rect x="178.4327" y="133.1134" style="opacity:0.7;" width="33.0625" height="1.2083"/>
						<rect x="178.4327" y="135.3974" style="opacity:0.7;" width="33.0625" height="1.2096"/>
						<rect x="178.4327" y="137.6154" style="opacity:0.7;" width="33.0625" height="1.2098"/>
						<rect x="178.4327" y="140.4385" style="opacity:0.7;" width="33.0625" height="1.2083"/>
						<rect x="178.4327" y="143.798" style="opacity:0.7;" width="33.0625" height="1.2096"/>
						<rect x="178.4327" y="146.1491" style="opacity:0.7;" width="33.0625" height="1.2096"/>
						<rect x="178.4327" y="148.3673" style="opacity:0.7;" width="33.0625" height="1.2096"/>
						<rect x="178.4327" y="150.9207" style="opacity:0.7;" width="33.0625" height="1.2098"/>
					</g>
				</g>
			</g>
			<g id="Document_4_">
				<g>
					<path style="fill-rule:evenodd;clip-rule:evenodd;fill:#FF3E03;" d="M181.0085,18.6681h-26.1472
						c-0.1118-0.0037-0.2236-0.0088-0.3465-0.0088c-5.7839,0-11.569,0-17.3516,0c-1.4742,0-2.6814,1.2085-2.6814,2.6813v24.7774
						c0,1.473,1.2072,2.6802,2.6814,2.6802h42.463c1.473,0,2.6815-1.2072,2.6815-2.6802V22.2115v-2.2456
						C182.3077,19.2505,181.7227,18.6681,181.0085,18.6681z M155.2549,18.6929h-0.0011H155.2549z M155.6014,18.7363h-0.0037
						H155.6014z M157.7265,21.5419c0.0099,0.0112,0.0173,0.0224,0.0285,0.0335C157.7438,21.5643,157.7364,21.5531,157.7265,21.5419z
						 M157.5415,21.2726c0.0024,0.0048,0.0048,0.0099,0.0061,0.0149C157.5464,21.2824,157.5439,21.2774,157.5415,21.2726z
						 M157.6235,21.4104c0.0061,0.0086,0.0112,0.0173,0.0173,0.0261C157.6347,21.4277,157.6296,21.419,157.6235,21.4104z
						 M157.8532,21.6675c0.0136,0.0112,0.0261,0.0235,0.041,0.036C157.8793,21.691,157.8668,21.6787,157.8532,21.6675z
						 M158.0072,21.783c0.0186,0.0123,0.036,0.0261,0.0559,0.0373C158.0432,21.8091,158.0259,21.7953,158.0072,21.783z
						 M158.1936,21.8884c0.0235,0.0112,0.0447,0.025,0.0708,0.0362C158.2394,21.9134,158.217,21.8996,158.1936,21.8884z
						 M158.4134,21.9816c0.0298,0.0101,0.0559,0.0224,0.0868,0.0324C158.4693,22.004,158.4432,21.9917,158.4134,21.9816z
						 M158.6729,22.0611c0.0348,0.0088,0.067,0.0186,0.1043,0.0274C158.7399,22.0798,158.7077,22.0699,158.6729,22.0611z
						 M158.9734,22.1258c0.0423,0.0061,0.0796,0.0149,0.123,0.021C159.0529,22.1407,159.0157,22.1319,158.9734,22.1258z
						 M159.33,22.1729c0.0447,0.005,0.0844,0.0099,0.1304,0.0136C159.4144,22.1828,159.3747,22.178,159.33,22.1729z
						 M159.7558,22.2027c0.0399,0.0024,0.0771,0.005,0.1192,0.0061C159.8329,22.2078,159.7957,22.2052,159.7558,22.2027z"/>
					<path style="opacity:0.1;fill-rule:evenodd;clip-rule:evenodd;fill:#020202;" d="M181.0085,18.6681h-26.1472
						c4.4586,0.1688,0.2683,3.6365,5.4808,3.5433h21.9656v-2.2456C182.3077,19.2505,181.7227,18.6681,181.0085,18.6681z"/>
					<path style="fill-rule:evenodd;clip-rule:evenodd;fill:#FABE00;" d="M160.3421,22.2115h19.5424
						c-0.4085-1.3786-1.6891-2.3933-3.1944-2.3933h-19.5287C157.5216,20.8776,157.0124,22.2711,160.3421,22.2115z"/>
					<rect x="147.8131" y="27.1371" style="fill-rule:evenodd;clip-rule:evenodd;fill:#E6E8E8;" width="21.1595" height="12.3153"/>
					<rect x="149.6972" y="31.315" style="fill-rule:evenodd;clip-rule:evenodd;" width="17.3913" height="0.8186"/>
					<rect x="149.6972" y="32.6837" style="fill-rule:evenodd;clip-rule:evenodd;" width="17.3913" height="0.8197"/>
					<rect x="149.6972" y="34.0524" style="fill-rule:evenodd;clip-rule:evenodd;" width="17.3913" height="0.8197"/>
					<rect x="149.6972" y="35.4223" style="fill-rule:evenodd;clip-rule:evenodd;" width="17.3913" height="0.8184"/>
					<path style="opacity:0.2;" d="M172.5123,48.7983h7.1139c1.473,0,2.6815-1.2072,2.6815-2.6802V31.0904
						C180.4397,37.084,177.2404,44.9444,172.5123,48.7983z"/>
				</g>
				<g id="Document_5_">
					<path style="fill-rule:evenodd;clip-rule:evenodd;fill:#F7D959;" d="M199.6183,30.6717H168.277
						c-0.1341-0.005-0.2682-0.0088-0.4147-0.0088c-6.9328,0-13.8654,0-20.7981,0c-1.7661,0-3.2144,1.3589-3.2144,3.0156v27.8686
						c0,1.6569,1.4483,3.0156,3.2144,3.0156h50.896c1.7648,0,3.2129-1.3587,3.2129-3.0156V34.6572v-2.5249
						C201.1731,31.3275,200.474,30.6717,199.6183,30.6717z M168.7491,30.7002h-0.0013H168.7491z M169.1638,30.7487h-0.0024H169.1638
						z M171.7112,33.9045c0.0112,0.0125,0.0224,0.025,0.0347,0.0373C171.7336,33.9295,171.7224,33.917,171.7112,33.9045z
						 M171.4901,33.6016c0.0024,0.0062,0.005,0.0112,0.0088,0.016C171.4951,33.6128,171.4925,33.6065,171.4901,33.6016z
						 M171.5882,33.7555c0.0075,0.0101,0.0136,0.0199,0.0211,0.0298C171.6018,33.7754,171.5957,33.7656,171.5882,33.7555z
						 M171.8639,34.045c0.016,0.0136,0.0309,0.0285,0.0484,0.041C171.8949,34.0735,171.88,34.0586,171.8639,34.045z
						 M172.0489,34.1754c0.0224,0.0149,0.0423,0.0285,0.0671,0.0421C172.0912,34.2039,172.0713,34.1903,172.0489,34.1754z
						 M172.2712,34.2946c0.0287,0.0123,0.0548,0.0272,0.0857,0.0397C172.326,34.3218,172.2999,34.3069,172.2712,34.2946z
						 M172.5357,34.399c0.0348,0.0123,0.0671,0.0248,0.1043,0.036C172.6028,34.4237,172.5706,34.4113,172.5357,34.399z
						 M172.8463,34.4884c0.0423,0.0099,0.0796,0.0224,0.1243,0.0309C172.9258,34.5107,172.8886,34.4983,172.8463,34.4884z
						 M173.2077,34.5603c0.0484,0.0075,0.0944,0.0175,0.1466,0.025C173.3021,34.5778,173.2561,34.5677,173.2077,34.5603z
						 M173.6349,34.6151c0.0522,0.0048,0.0995,0.0112,0.1554,0.0149C173.7343,34.6262,173.687,34.6199,173.6349,34.6151z
						 M174.1442,34.6486c0.0484,0.0011,0.0932,0.0048,0.1427,0.0061C174.2374,34.6534,174.1926,34.6497,174.1442,34.6486z"/>
					<path style="opacity:0.1;fill-rule:evenodd;clip-rule:evenodd;fill:#020202;" d="M199.6183,30.6717H168.277
						c5.3443,0.19,0.3231,4.0911,6.5701,3.9854h26.326v-2.5249C201.1731,31.3275,200.474,30.6717,199.6183,30.6717z"/>
					<path style="fill-rule:evenodd;clip-rule:evenodd;fill:#F9623E;" d="M174.8471,34.6572h23.4235
						c-0.4892-1.55-2.0243-2.6925-3.8302-2.6925h-23.4062C171.4664,33.1569,170.8566,34.7242,174.8471,34.6572z"/>
					<rect x="159.8304" y="40.1976" style="fill-rule:evenodd;clip-rule:evenodd;fill:#E6E8E8;" width="25.3612" height="13.853"/>
					<rect x="162.0883" y="44.8973" style="fill-rule:evenodd;clip-rule:evenodd;fill:#FF3E03;" width="20.8441" height="0.9216"/>
					<rect x="162.0883" y="46.4374" style="fill-rule:evenodd;clip-rule:evenodd;fill:#FF3E03;" width="20.8441" height="0.9203"/>
					<rect x="162.0883" y="47.9773" style="fill-rule:evenodd;clip-rule:evenodd;fill:#FF3E03;" width="20.8441" height="0.9216"/>
					<rect x="162.0883" y="49.5161" style="fill-rule:evenodd;clip-rule:evenodd;fill:#FF3E03;" width="20.8441" height="0.9229"/>
				</g>
			</g>
			<g id="Command_1_">
				<g>
					<path style="fill:#FF3E03;" d="M68.779,23.6609c15.7457,0,28.5107,9.7705,28.5107,21.8238
						c0,8.4107-6.2212,15.706-15.3273,19.35c1.0209,2.2529,2.9224,5.1119,6.4173,7.2357c0,0-6.3354-2.6579-9.6637-6.1267
						c-3.0951,0.8819-6.4421,1.365-9.937,1.365c-15.7457,0-28.5107-9.7707-28.5107-21.824S53.0333,23.6609,68.779,23.6609z"/>
					<g>
						<circle style="opacity:0.1;" cx="85.961" cy="45.4847" r="2.4181"/>
						<circle style="opacity:0.1;" cx="76.7325" cy="45.4847" r="2.4181"/>
						<circle style="opacity:0.1;" cx="68.1422" cy="45.4847" r="2.4184"/>
						<circle style="opacity:0.1;" cx="59.6144" cy="45.4847" r="2.4181"/>
						<circle style="opacity:0.1;" cx="50.5779" cy="45.4847" r="2.4181"/>
					</g>
					<path style="opacity:0.1;" d="M97.2897,45.4847c-0.0013,8.4107-6.2212,15.706-15.3273,19.35
						c1.0209,2.2529,2.9224,5.1119,6.4173,7.2357c0,0-6.3354-2.6579-9.6637-6.1267c-3.0951,0.8819-6.4421,1.365-9.937,1.365
						c-15.7457,0-28.5107-9.7707-28.5107-21.824H97.2897z"/>
				</g>
				<g>
					<path style="fill:#FFFFFF;" d="M57.1963,17.0423c-15.7457,0-28.5094,9.7707-28.5094,21.824
						c0,8.4105,6.2199,15.7059,15.326,19.3498c-1.0209,2.2531-2.9224,5.112-6.4173,7.2357c0,0,6.3354-2.6577,9.6637-6.1265
						c3.0951,0.8817,6.4421,1.3648,9.937,1.3648c15.7457,0,28.5107-9.7705,28.5107-21.8238S72.942,17.0423,57.1963,17.0423z"/>
					<g>
						<circle style="opacity:0.1;" cx="40.0143" cy="38.8663" r="2.4181"/>
						<circle style="opacity:0.1;" cx="49.2431" cy="38.8663" r="2.4184"/>
						<circle style="opacity:0.1;" cx="57.8331" cy="38.8663" r="2.4184"/>
						<circle style="opacity:0.1;" cx="66.3609" cy="38.8663" r="2.4181"/>
						<circle style="opacity:0.1;" cx="75.3974" cy="38.8663" r="2.4181"/>
					</g>
					<path style="opacity:0.1;" d="M28.6869,38.8663c0,8.4105,6.2199,15.7059,15.326,19.3498
						c-1.0209,2.2531-2.9224,5.112-6.4173,7.2357c0,0,6.3354-2.6577,9.6637-6.1265c3.0951,0.8817,6.4421,1.3648,9.937,1.3648
						c15.7457,0,28.5107-9.7705,28.5107-21.8238H28.6869z"/>
				</g>
			</g>
		</g>
	</g>
</g>
</svg>
