<?xml version="1.0" encoding="utf-8"?>
<!-- Generator: Adobe Illustrator 21.0.2, SVG Export Plug-In . SVG Version: 6.00 Build 0)  -->
<svg version="1.1" id="Capa_1" xmlns="http://www.w3.org/2000/svg" xmlns:xlink="http://www.w3.org/1999/xlink" x="0px" y="0px"
	 viewBox="0 0 237.4951 21.2988" style="enable-background:new 0 0 237.4951 21.2988;" xml:space="preserve">
<g>
	<path style="fill:#C9452F;" d="M12.9346,21.0059V6.6064L12.8027,7.5L7.9248,21.0059H6.9287L2.0068,7.5L1.8896,6.6064v14.3994H0V0
		h0.9814l6.3721,17.2266l0.0586,0.7764l0.0586-0.7764L13.8281,0h0.9961v21.0059H12.9346z"/>
	<path style="fill:#C9452F;" d="M28.396,18.6035c-0.2295,0.5371-0.5444,1.0059-0.9448,1.4063s-0.8691,0.7153-1.4063,0.9448
		s-1.1084,0.3442-1.7139,0.3442h-1.2012c-0.6055,0-1.1768-0.1147-1.7139-0.3442s-1.0059-0.5444-1.4063-0.9448
		s-0.7153-0.8691-0.9448-1.4063s-0.3442-1.1084-0.3442-1.7139v-6.7676c0-0.6055,0.1147-1.1768,0.3442-1.7139
		s0.5444-1.0059,0.9448-1.4063s0.8691-0.7153,1.4063-0.9448s1.1084-0.3442,1.7139-0.3442h1.2012
		c0.6055,0,1.1768,0.1147,1.7139,0.3442s1.0059,0.5444,1.4063,0.9448s0.7153,0.8691,0.9448,1.4063s0.3442,1.1084,0.3442,1.7139
		v3.5303h-8.2178v3.3398c0,0.3613,0.0684,0.7007,0.2051,1.0181s0.3223,0.5933,0.5566,0.8276s0.5103,0.4199,0.8276,0.5566
		s0.6567,0.2051,1.0181,0.2051h1.2012c0.3613,0,0.7007-0.0684,1.0181-0.2051s0.5933-0.3223,0.8276-0.5566
		s0.4199-0.5103,0.5566-0.8276s0.2051-0.6567,0.2051-1.0181v-0.9961l1.8018,0.293v0.6006
		C28.7402,17.4951,28.6255,18.0664,28.396,18.6035z M26.9385,10.0195c0-0.3613-0.0684-0.7007-0.2051-1.0181
		s-0.3223-0.5933-0.5566-0.8276s-0.5103-0.4199-0.8276-0.5566s-0.6567-0.2051-1.0181-0.2051h-1.2012
		c-0.3613,0-0.7007,0.0684-1.0181,0.2051s-0.5933,0.3223-0.8276,0.5566s-0.4199,0.5103-0.5566,0.8276s-0.2051,0.6567-0.2051,1.0181
		v2.2266h6.416V10.0195z M22.9834,3.6035h-1.3477L24.0234,0h3.0029L22.9834,3.6035z"/>
	<path style="fill:#C9452F;" d="M37.8076,21.0059c-0.5469,0-1.062-0.1025-1.5454-0.3076s-0.9033-0.4883-1.2598-0.8496
		s-0.6396-0.7813-0.8496-1.2598s-0.3149-0.9912-0.3149-1.5381V7.7197h-2.6953V6.0059h2.6953V2.4023l1.8018-0.293v3.8965h3.8086
		v1.7139h-3.8086v9.4189c0,0.3027,0.0562,0.5835,0.1685,0.8423s0.2661,0.4858,0.4614,0.6812s0.4248,0.3491,0.6885,0.4614
		s0.5469,0.1685,0.8496,0.1685h1.6406v1.7139H37.8076z"/>
	<path style="fill:#C9452F;" d="M52.4341,18.6035c-0.2295,0.5371-0.5444,1.0059-0.9448,1.4063s-0.8691,0.7153-1.4063,0.9448
		s-1.1084,0.3442-1.7139,0.3442H47.168c-0.6055,0-1.1768-0.1147-1.7139-0.3442s-1.0059-0.5444-1.4063-0.9448
		s-0.7153-0.8691-0.9448-1.4063s-0.3442-1.1084-0.3442-1.7139v-6.7676c0-0.6055,0.1147-1.1768,0.3442-1.7139
		s0.5444-1.0059,0.9448-1.4063s0.8691-0.7153,1.4063-0.9448s1.1084-0.3442,1.7139-0.3442h1.2012
		c0.6055,0,1.1768,0.1147,1.7139,0.3442s1.0059,0.5444,1.4063,0.9448s0.7153,0.8691,0.9448,1.4063s0.3442,1.1084,0.3442,1.7139
		v6.7676C52.7783,17.4951,52.6636,18.0664,52.4341,18.6035z M50.9766,10.0195c0-0.3613-0.0684-0.7007-0.2051-1.0181
		s-0.3223-0.5933-0.5566-0.8276s-0.5103-0.4199-0.8276-0.5566s-0.6567-0.2051-1.0181-0.2051H47.168
		c-0.3613,0-0.7007,0.0684-1.0181,0.2051s-0.5933,0.3223-0.8276,0.5566s-0.4199,0.5103-0.5566,0.8276s-0.2051,0.6567-0.2051,1.0181
		v6.9727c0,0.3613,0.0684,0.7007,0.2051,1.0181s0.3223,0.5933,0.5566,0.8276s0.5103,0.4199,0.8276,0.5566
		s0.6567,0.2051,1.0181,0.2051h1.2012c0.3613,0,0.7007-0.0684,1.0181-0.2051s0.5933-0.3223,0.8276-0.5566
		s0.4199-0.5103,0.5566-0.8276s0.2051-0.6567,0.2051-1.0181V10.0195z"/>
	<path style="fill:#C9452F;" d="M65.8008,21.0059l-0.9961-1.5234c-0.4102,0.5566-0.9229,0.9985-1.5381,1.3257
		s-1.2891,0.4907-2.0215,0.4907H60.791c-0.6055,0-1.1768-0.1147-1.7139-0.3442s-1.0059-0.5444-1.4063-0.9448
		s-0.7153-0.8691-0.9448-1.4063s-0.3442-1.1084-0.3442-1.7139v-6.7676c0-0.6055,0.1147-1.1768,0.3442-1.7139
		s0.5444-1.0059,0.9448-1.4063s0.8691-0.7153,1.4063-0.9448s1.1084-0.3442,1.7139-0.3442h0.4541
		c0.6738,0,1.2988,0.1367,1.875,0.4102s1.0693,0.6543,1.4795,1.1426V0h1.8018v21.0059H65.8008z M64.5996,10.0195
		c0-0.3613-0.0684-0.7007-0.2051-1.0181s-0.3223-0.5933-0.5566-0.8276s-0.5103-0.4199-0.8276-0.5566s-0.6567-0.2051-1.0181-0.2051
		H60.791c-0.3613,0-0.7007,0.0684-1.0181,0.2051s-0.5933,0.3223-0.8276,0.5566s-0.4199,0.5103-0.5566,0.8276
		s-0.2051,0.6567-0.2051,1.0181v6.9727c0,0.3613,0.0684,0.7007,0.2051,1.0181s0.3223,0.5933,0.5566,0.8276
		s0.5103,0.4199,0.8276,0.5566s0.6567,0.2051,1.0181,0.2051h1.2012c0.3613,0,0.7007-0.0684,1.0181-0.2051
		s0.5933-0.3223,0.8276-0.5566s0.4199-0.5103,0.5566-0.8276s0.2051-0.6567,0.2051-1.0181V10.0195z"/>
	<path style="fill:#C9452F;" d="M79.6802,18.6035c-0.2295,0.5371-0.5444,1.0059-0.9448,1.4063s-0.8691,0.7153-1.4063,0.9448
		s-1.1084,0.3442-1.7139,0.3442h-1.2012c-0.6055,0-1.1768-0.1147-1.7139-0.3442s-1.0059-0.5444-1.4063-0.9448
		s-0.7153-0.8691-0.9448-1.4063s-0.3442-1.1084-0.3442-1.7139v-6.7676c0-0.6055,0.1147-1.1768,0.3442-1.7139
		s0.5444-1.0059,0.9448-1.4063s0.8691-0.7153,1.4063-0.9448s1.1084-0.3442,1.7139-0.3442h1.2012
		c0.6055,0,1.1768,0.1147,1.7139,0.3442s1.0059,0.5444,1.4063,0.9448s0.7153,0.8691,0.9448,1.4063s0.3442,1.1084,0.3442,1.7139
		v6.7676C80.0244,17.4951,79.9097,18.0664,79.6802,18.6035z M78.2227,10.0195c0-0.3613-0.0684-0.7007-0.2051-1.0181
		s-0.3223-0.5933-0.5566-0.8276s-0.5103-0.4199-0.8276-0.5566s-0.6567-0.2051-1.0181-0.2051h-1.2012
		c-0.3613,0-0.7007,0.0684-1.0181,0.2051s-0.5933,0.3223-0.8276,0.5566s-0.4199,0.5103-0.5566,0.8276s-0.2051,0.6567-0.2051,1.0181
		v6.9727c0,0.3613,0.0684,0.7007,0.2051,1.0181s0.3223,0.5933,0.5566,0.8276s0.5103,0.4199,0.8276,0.5566
		s0.6567,0.2051,1.0181,0.2051h1.2012c0.3613,0,0.7007-0.0684,1.0181-0.2051s0.5933-0.3223,0.8276-0.5566
		s0.4199-0.5103,0.5566-0.8276s0.2051-0.6567,0.2051-1.0181V10.0195z"/>
	<path style="fill:#C9452F;" d="M93.9404,17.1973c0,0.6055-0.1221,1.1597-0.3662,1.6626s-0.5762,0.9351-0.9961,1.2964
		s-0.9058,0.6421-1.4575,0.8423s-1.1304,0.3003-1.7358,0.3003h-1.2012c-0.6055,0-1.1841-0.1147-1.7358-0.3442
		s-1.0352-0.5444-1.4502-0.9448s-0.7471-0.8691-0.9961-1.4063s-0.3735-1.1084-0.3735-1.7139v-0.6006l1.8018-0.293v0.9961
		c0,0.3613,0.0757,0.7007,0.2271,1.0181s0.354,0.5933,0.6079,0.8276s0.5469,0.4199,0.8789,0.5566s0.6787,0.2051,1.04,0.2051h1.2012
		c0.3613,0,0.708-0.0537,1.04-0.1611s0.6274-0.2612,0.8862-0.4614s0.4639-0.4419,0.6152-0.7251s0.2271-0.6055,0.2271-0.9668
		c0-0.5371-0.1172-0.9766-0.3516-1.3184s-0.5444-0.6274-0.9302-0.8569s-0.8252-0.4199-1.3184-0.5713s-0.9985-0.3027-1.5161-0.4541
		s-1.0229-0.3247-1.5161-0.52s-0.9326-0.4517-1.3184-0.769s-0.6958-0.7153-0.9302-1.1938s-0.3516-1.0742-0.3516-1.7871
		c0-0.6055,0.1172-1.1597,0.3516-1.6626s0.5518-0.9351,0.9521-1.2964s0.8667-0.6421,1.3989-0.8423s1.1011-0.3003,1.7065-0.3003
		h1.0547c0.6055,0,1.1768,0.1147,1.7139,0.3442s1.0059,0.5444,1.4063,0.9448s0.7153,0.8691,0.9448,1.4063
		s0.3442,1.1084,0.3442,1.7139v0.0586l-1.8018,0.293v-0.4541c0-0.3613-0.0684-0.7007-0.2051-1.0181s-0.3223-0.5933-0.5566-0.8276
		s-0.5103-0.4199-0.8276-0.5566s-0.6567-0.2051-1.0181-0.2051h-1.0547c-0.3613,0-0.7007,0.0537-1.0181,0.1611
		s-0.5933,0.2612-0.8276,0.4614s-0.4199,0.4419-0.5566,0.7251s-0.2051,0.6055-0.2051,0.9668c0,0.5176,0.1172,0.9399,0.3516,1.2671
		s0.5444,0.603,0.9302,0.8276s0.8252,0.4126,1.3184,0.564s0.9961,0.3076,1.5088,0.4688s1.0156,0.3442,1.5088,0.5493
		s0.9326,0.4688,1.3184,0.791s0.6958,0.7251,0.9302,1.2085S93.9404,16.4844,93.9404,17.1973z"/>
	<path style="fill:#C9452F;" d="M104.751,2.4023V0h2.0947v2.4023H104.751z M104.8975,21.0059v-15h1.8018v15H104.8975z"/>
	<path style="fill:#C9452F;" d="M119.1211,21.0059V10.0195c0-0.3613-0.0684-0.7007-0.2051-1.0181s-0.3223-0.5933-0.5566-0.8276
		s-0.5103-0.4199-0.8276-0.5566s-0.6567-0.2051-1.0181-0.2051h-1.2012c-0.3613,0-0.7007,0.0684-1.0181,0.2051
		s-0.5933,0.3223-0.8276,0.5566s-0.4199,0.5103-0.5566,0.8276s-0.2051,0.6567-0.2051,1.0181v10.9863h-1.8018v-15h0.6006
		l0.9814,1.5234c0.4102-0.5566,0.9253-0.9985,1.5454-1.3257s1.2964-0.4907,2.0288-0.4907h0.4541
		c0.6055,0,1.1768,0.1147,1.7139,0.3442s1.0059,0.5444,1.4063,0.9448s0.7153,0.8691,0.9448,1.4063s0.3442,1.1084,0.3442,1.7139
		v10.8838H119.1211z"/>
	<path style="fill:#C9452F;" d="M129.9902,21.0059c-0.5469,0-1.062-0.1025-1.5454-0.3076s-0.9033-0.4883-1.2598-0.8496
		s-0.6396-0.7813-0.8496-1.2598s-0.3149-0.9912-0.3149-1.5381V7.7197h-2.6953V6.0059h2.6953V2.4023l1.8018-0.293v3.8965h3.8086
		v1.7139h-3.8086v9.4189c0,0.3027,0.0562,0.5835,0.1685,0.8423s0.2661,0.4858,0.4614,0.6812s0.4248,0.3491,0.6885,0.4614
		s0.5469,0.1685,0.8496,0.1685h1.6406v1.7139H129.9902z"/>
	<path style="fill:#C9452F;" d="M144.6167,18.6035c-0.2295,0.5371-0.5444,1.0059-0.9448,1.4063s-0.8691,0.7153-1.4063,0.9448
		s-1.1084,0.3442-1.7139,0.3442h-1.2012c-0.6055,0-1.1768-0.1147-1.7139-0.3442s-1.0059-0.5444-1.4063-0.9448
		s-0.7153-0.8691-0.9448-1.4063s-0.3442-1.1084-0.3442-1.7139v-6.7676c0-0.6055,0.1147-1.1768,0.3442-1.7139
		s0.5444-1.0059,0.9448-1.4063s0.8691-0.7153,1.4063-0.9448s1.1084-0.3442,1.7139-0.3442h1.2012
		c0.6055,0,1.1768,0.1147,1.7139,0.3442s1.0059,0.5444,1.4063,0.9448s0.7153,0.8691,0.9448,1.4063s0.3442,1.1084,0.3442,1.7139
		v3.5303h-8.2178v3.3398c0,0.3613,0.0684,0.7007,0.2051,1.0181s0.3223,0.5933,0.5566,0.8276s0.5103,0.4199,0.8276,0.5566
		s0.6567,0.2051,1.0181,0.2051h1.2012c0.3613,0,0.7007-0.0684,1.0181-0.2051s0.5933-0.3223,0.8276-0.5566
		s0.4199-0.5103,0.5566-0.8276s0.2051-0.6567,0.2051-1.0181v-0.9961l1.8018,0.293v0.6006
		C144.9609,17.4951,144.8462,18.0664,144.6167,18.6035z M143.1592,10.0195c0-0.3613-0.0684-0.7007-0.2051-1.0181
		s-0.3223-0.5933-0.5566-0.8276s-0.5103-0.4199-0.8276-0.5566s-0.6567-0.2051-1.0181-0.2051h-1.2012
		c-0.3613,0-0.7007,0.0684-1.0181,0.2051s-0.5933,0.3223-0.8276,0.5566s-0.4199,0.5103-0.5566,0.8276s-0.2051,0.6567-0.2051,1.0181
		v2.2266h6.416V10.0195z"/>
	<path style="fill:#C9452F;" d="M152.9736,7.7197c-0.3613,0-0.7007,0.0684-1.0181,0.2051s-0.5933,0.3223-0.8276,0.5566
		s-0.4199,0.5103-0.5566,0.8276s-0.2051,0.6567-0.2051,1.0181v10.6787h-1.8018v-15h0.6006l0.9814,1.5234
		c0.4102-0.5566,0.9253-0.9985,1.5454-1.3257s1.2964-0.4907,2.0288-0.4907h1.0547v2.0068H152.9736z"/>
	<path style="fill:#C9452F;" d="M166.5967,21.0059l-0.9961-1.4941c-0.4102,0.5371-0.9229,0.9692-1.5381,1.2964
		s-1.2891,0.4907-2.0215,0.4907h-0.4541c-0.6055,0-1.1768-0.1147-1.7139-0.3442s-1.0059-0.5444-1.4063-0.9448
		s-0.7153-0.8691-0.9448-1.4063s-0.3442-1.1084-0.3442-1.7139v-0.1465c0-0.6055,0.1147-1.1768,0.3442-1.7139
		s0.5444-1.0059,0.9448-1.4063s0.8691-0.7153,1.4063-0.9448s1.1084-0.3442,1.7139-0.3442h3.8086v-2.3145
		c0-0.3613-0.0684-0.7007-0.2051-1.0181s-0.3223-0.5933-0.5566-0.8276s-0.5103-0.4199-0.8276-0.5566s-0.6567-0.2051-1.0181-0.2051
		h-1.0547c-0.3613,0-0.7007,0.0684-1.0181,0.2051s-0.5933,0.3223-0.8276,0.5566s-0.4199,0.5103-0.5566,0.8276
		s-0.2051,0.6567-0.2051,1.0181v0.542l-1.8018-0.293v-0.1465c0-0.6055,0.1147-1.1768,0.3442-1.7139s0.5444-1.0059,0.9448-1.4063
		s0.8691-0.7153,1.4063-0.9448s1.1084-0.3442,1.7139-0.3442h1.0547c0.6055,0,1.1768,0.1147,1.7139,0.3442
		s1.0059,0.5444,1.4063,0.9448s0.7153,0.8691,0.9448,1.4063s0.3442,1.1084,0.3442,1.7139v10.8838H166.5967z M165.3955,13.7402
		h-3.8086c-0.3613,0-0.7007,0.0684-1.0181,0.2051s-0.5933,0.3247-0.8276,0.564s-0.4199,0.5176-0.5566,0.835
		s-0.2051,0.6567-0.2051,1.0181v0.6299c0,0.3613,0.0684,0.7007,0.2051,1.0181s0.3223,0.5933,0.5566,0.8276
		s0.5103,0.4199,0.8276,0.5566s0.6567,0.2051,1.0181,0.2051h1.2012c0.3613,0,0.7007-0.0684,1.0181-0.2051
		s0.5933-0.3223,0.8276-0.5566s0.4199-0.5103,0.5566-0.8276s0.2051-0.6567,0.2051-1.0181V13.7402z"/>
	<path style="fill:#C9452F;" d="M180.4761,18.6035c-0.2295,0.5371-0.5444,1.0059-0.9448,1.4063s-0.8691,0.7153-1.4063,0.9448
		s-1.1084,0.3442-1.7139,0.3442H175.21c-0.6055,0-1.1768-0.1147-1.7139-0.3442s-1.0059-0.5444-1.4063-0.9448
		s-0.7153-0.8691-0.9448-1.4063s-0.3442-1.1084-0.3442-1.7139v-6.7676c0-0.6055,0.1147-1.1768,0.3442-1.7139
		s0.5444-1.0059,0.9448-1.4063s0.8691-0.7153,1.4063-0.9448s1.1084-0.3442,1.7139-0.3442h1.2012
		c0.6055,0,1.1768,0.1147,1.7139,0.3442s1.0059,0.5444,1.4063,0.9448s0.7153,0.8691,0.9448,1.4063s0.3442,1.1084,0.3442,1.7139
		v0.6006l-1.8018,0.293v-0.9961c0-0.3613-0.0684-0.7007-0.2051-1.0181s-0.3223-0.5933-0.5566-0.8276s-0.5103-0.4199-0.8276-0.5566
		s-0.6567-0.2051-1.0181-0.2051H175.21c-0.3613,0-0.7007,0.0684-1.0181,0.2051s-0.5933,0.3223-0.8276,0.5566
		s-0.4199,0.5103-0.5566,0.8276s-0.2051,0.6567-0.2051,1.0181v6.9727c0,0.3613,0.0684,0.7007,0.2051,1.0181
		s0.3223,0.5933,0.5566,0.8276s0.5103,0.4199,0.8276,0.5566s0.6567,0.2051,1.0181,0.2051h1.2012
		c0.3613,0,0.7007-0.0684,1.0181-0.2051s0.5933-0.3223,0.8276-0.5566s0.4199-0.5103,0.5566-0.8276s0.2051-0.6567,0.2051-1.0181
		v-0.9961l1.8018,0.293v0.6006C180.8203,17.4951,180.7056,18.0664,180.4761,18.6035z"/>
	<path style="fill:#C9452F;" d="M189.8877,21.0059c-0.5469,0-1.062-0.1025-1.5454-0.3076s-0.9033-0.4883-1.2598-0.8496
		s-0.6396-0.7813-0.8496-1.2598s-0.3149-0.9912-0.3149-1.5381V7.7197h-2.6953V6.0059h2.6953V2.4023l1.8018-0.293v3.8965h3.8086
		v1.7139h-3.8086v9.4189c0,0.3027,0.0562,0.5835,0.1685,0.8423s0.2661,0.4858,0.4614,0.6812s0.4248,0.3491,0.6885,0.4614
		s0.5469,0.1685,0.8496,0.1685h1.6406v1.7139H189.8877z"/>
	<path style="fill:#C9452F;" d="M195.293,2.4023V0h2.0947v2.4023H195.293z M195.4395,21.0059v-15h1.8018v15H195.4395z"/>
	<path style="fill:#C9452F;" d="M206.1475,21.0059h-0.8936l-5.3174-15h1.8018l3.9111,11.3672l0.0586,0.7764l0.0586-0.7764
		l3.8965-11.3672h1.8018L206.1475,21.0059z"/>
	<path style="fill:#C9452F;" d="M223.2349,18.6035c-0.2295,0.5371-0.5444,1.0059-0.9448,1.4063s-0.8691,0.7153-1.4063,0.9448
		s-1.1084,0.3442-1.7139,0.3442h-1.2012c-0.6055,0-1.1768-0.1147-1.7139-0.3442s-1.0059-0.5444-1.4063-0.9448
		s-0.7153-0.8691-0.9448-1.4063s-0.3442-1.1084-0.3442-1.7139v-6.7676c0-0.6055,0.1147-1.1768,0.3442-1.7139
		s0.5444-1.0059,0.9448-1.4063s0.8691-0.7153,1.4063-0.9448s1.1084-0.3442,1.7139-0.3442h1.2012
		c0.6055,0,1.1768,0.1147,1.7139,0.3442s1.0059,0.5444,1.4063,0.9448s0.7153,0.8691,0.9448,1.4063s0.3442,1.1084,0.3442,1.7139
		v6.7676C223.5791,17.4951,223.4644,18.0664,223.2349,18.6035z M221.7773,10.0195c0-0.3613-0.0684-0.7007-0.2051-1.0181
		s-0.3223-0.5933-0.5566-0.8276s-0.5103-0.4199-0.8276-0.5566s-0.6567-0.2051-1.0181-0.2051h-1.2012
		c-0.3613,0-0.7007,0.0684-1.0181,0.2051s-0.5933,0.3223-0.8276,0.5566s-0.4199,0.5103-0.5566,0.8276s-0.2051,0.6567-0.2051,1.0181
		v6.9727c0,0.3613,0.0684,0.7007,0.2051,1.0181s0.3223,0.5933,0.5566,0.8276s0.5103,0.4199,0.8276,0.5566
		s0.6567,0.2051,1.0181,0.2051h1.2012c0.3613,0,0.7007-0.0684,1.0181-0.2051s0.5933-0.3223,0.8276-0.5566
		s0.4199-0.5103,0.5566-0.8276s0.2051-0.6567,0.2051-1.0181V10.0195z"/>
	<path style="fill:#C9452F;" d="M237.4951,17.1973c0,0.6055-0.1221,1.1597-0.3662,1.6626s-0.5762,0.9351-0.9961,1.2964
		s-0.9058,0.6421-1.4575,0.8423s-1.1304,0.3003-1.7358,0.3003h-1.2012c-0.6055,0-1.1841-0.1147-1.7358-0.3442
		s-1.0352-0.5444-1.4502-0.9448s-0.7471-0.8691-0.9961-1.4063s-0.3735-1.1084-0.3735-1.7139v-0.6006l1.8018-0.293v0.9961
		c0,0.3613,0.0757,0.7007,0.2271,1.0181s0.354,0.5933,0.6079,0.8276s0.5469,0.4199,0.8789,0.5566s0.6787,0.2051,1.04,0.2051h1.2012
		c0.3613,0,0.708-0.0537,1.04-0.1611s0.6274-0.2612,0.8862-0.4614s0.4639-0.4419,0.6152-0.7251s0.2271-0.6055,0.2271-0.9668
		c0-0.5371-0.1172-0.9766-0.3516-1.3184s-0.5444-0.6274-0.9302-0.8569s-0.8252-0.4199-1.3184-0.5713s-0.9985-0.3027-1.5161-0.4541
		s-1.0229-0.3247-1.5161-0.52s-0.9326-0.4517-1.3184-0.769s-0.6958-0.7153-0.9302-1.1938s-0.3516-1.0742-0.3516-1.7871
		c0-0.6055,0.1172-1.1597,0.3516-1.6626s0.5518-0.9351,0.9521-1.2964s0.8667-0.6421,1.3989-0.8423s1.1011-0.3003,1.7065-0.3003
		h1.0547c0.6055,0,1.1768,0.1147,1.7139,0.3442s1.0059,0.5444,1.4063,0.9448s0.7153,0.8691,0.9448,1.4063
		s0.3442,1.1084,0.3442,1.7139v0.0586l-1.8018,0.293v-0.4541c0-0.3613-0.0684-0.7007-0.2051-1.0181s-0.3223-0.5933-0.5566-0.8276
		s-0.5103-0.4199-0.8276-0.5566s-0.6567-0.2051-1.0181-0.2051h-1.0547c-0.3613,0-0.7007,0.0537-1.0181,0.1611
		s-0.5933,0.2612-0.8276,0.4614s-0.4199,0.4419-0.5566,0.7251s-0.2051,0.6055-0.2051,0.9668c0,0.5176,0.1172,0.9399,0.3516,1.2671
		s0.5444,0.603,0.9302,0.8276s0.8252,0.4126,1.3184,0.564s0.9961,0.3076,1.5088,0.4688s1.0156,0.3442,1.5088,0.5493
		s0.9326,0.4688,1.3184,0.791s0.6958,0.7251,0.9302,1.2085S237.4951,16.4844,237.4951,17.1973z"/>
</g>
</svg>
