<?xml version="1.0" encoding="utf-8"?>
<!-- Generator: Adobe Illustrator 21.0.2, SVG Export Plug-In . SVG Version: 6.00 Build 0)  -->
<svg version="1.1" id="Capa_1" xmlns="http://www.w3.org/2000/svg" xmlns:xlink="http://www.w3.org/1999/xlink" x="0px" y="0px"
	 viewBox="0 0 934.8945 416.1718" style="enable-background:new 0 0 934.8945 416.1718;" xml:space="preserve">
<g>
	<polygon style="fill:#FFFFFF;stroke:#093751;stroke-miterlimit:10;" points="934.3945,400.5428 493.0876,400.5428 
		472.7579,415.5428 453.7575,400.5428 0.5,400.5428 0.5,0.5 934.3945,0.5 	"/>
	<polygon style="fill:#F9CA35;" points="113.1667,35.0529 0.5,35.0529 0.5,8.7487 113.1667,8.7487 125.1667,21.9008 	"/>
	<g>
		<path d="M25.1854,29.6752V19.1157l-0.0967,0.6553l-3.5771,9.9043h-0.7305l-3.6094-9.9043l-0.0859-0.6553v10.5596H15.7V14.2709
			h0.7197l4.6729,12.6328l0.043,0.5693l0.043-0.5693l4.6621-12.6328h0.7305v15.4043H25.1854z"/>
		<path d="M36.5237,27.9135c-0.1685,0.394-0.3994,0.7378-0.6929,1.0313c-0.2939,0.2939-0.6377,0.5249-1.0313,0.6929
			c-0.394,0.168-0.813,0.2524-1.2568,0.2524h-0.8809c-0.4443,0-0.8633-0.0845-1.2568-0.2524
			c-0.394-0.168-0.7378-0.3989-1.0313-0.6929c-0.2939-0.2935-0.5249-0.6372-0.6929-1.0313
			c-0.1685-0.3936-0.2524-0.8125-0.2524-1.2568v-4.9629c0-0.4438,0.084-0.8628,0.2524-1.2568
			c0.168-0.3936,0.3989-0.7373,0.6929-1.0313c0.2935-0.2935,0.6372-0.5244,1.0313-0.6929c0.3936-0.168,0.8125-0.2524,1.2568-0.2524
			h0.8809c0.4438,0,0.8628,0.0845,1.2568,0.2524c0.3936,0.1685,0.7373,0.3994,1.0313,0.6929
			c0.2935,0.2939,0.5244,0.6377,0.6929,1.0313c0.168,0.394,0.2524,0.813,0.2524,1.2568v4.9629
			C36.7762,27.101,36.6917,27.52,36.5237,27.9135z M35.4549,21.6186c0-0.2646-0.0503-0.5137-0.1504-0.7466
			c-0.1006-0.2324-0.2363-0.4351-0.4082-0.6069s-0.3745-0.3076-0.6069-0.4082c-0.2329-0.1001-0.4819-0.1504-0.7466-0.1504h-0.8809
			c-0.2651,0-0.5142,0.0503-0.7466,0.1504c-0.2329,0.1006-0.4351,0.2363-0.6069,0.4082s-0.3081,0.3745-0.4082,0.6069
			c-0.1006,0.2329-0.1504,0.4819-0.1504,0.7466v5.1133c0,0.2651,0.0498,0.5142,0.1504,0.7466
			c0.1001,0.2329,0.2363,0.4351,0.4082,0.6069s0.374,0.3081,0.6069,0.4082c0.2324,0.1006,0.4814,0.1504,0.7466,0.1504h0.8809
			c0.2646,0,0.5137-0.0498,0.7466-0.1504c0.2324-0.1001,0.4351-0.2363,0.6069-0.4082s0.3076-0.374,0.4082-0.6069
			c0.1001-0.2324,0.1504-0.4814,0.1504-0.7466V21.6186z"/>
		<path d="M46.326,29.6752l-0.7305-1.1172c-0.3008,0.4082-0.6768,0.7324-1.1279,0.9722s-0.9453,0.3599-1.4824,0.3599h-0.333
			c-0.4443,0-0.8633-0.0845-1.2568-0.2524c-0.394-0.168-0.7378-0.3989-1.0313-0.6929c-0.2939-0.2935-0.5249-0.6372-0.6929-1.0313
			c-0.1685-0.3936-0.2524-0.8125-0.2524-1.2568v-4.9629c0-0.4438,0.084-0.8628,0.2524-1.2568
			c0.168-0.3936,0.3989-0.7373,0.6929-1.0313c0.2935-0.2935,0.6372-0.5244,1.0313-0.6929c0.3936-0.168,0.8125-0.2524,1.2568-0.2524
			h0.333c0.4941,0,0.9521,0.1006,1.375,0.3008c0.4224,0.2007,0.7842,0.48,1.085,0.8379v-5.3281h1.3213v15.4043H46.326z
			 M45.4451,21.6186c0-0.2646-0.0503-0.5137-0.1504-0.7466c-0.1006-0.2324-0.2363-0.4351-0.4082-0.6069
			s-0.3745-0.3076-0.6069-0.4082c-0.2329-0.1001-0.4819-0.1504-0.7466-0.1504h-0.8809c-0.2651,0-0.5142,0.0503-0.7466,0.1504
			c-0.2329,0.1006-0.4351,0.2363-0.6069,0.4082s-0.3081,0.3745-0.4082,0.6069c-0.1006,0.2329-0.1504,0.4819-0.1504,0.7466v5.1133
			c0,0.2651,0.0498,0.5142,0.1504,0.7466c0.1001,0.2329,0.2363,0.4351,0.4082,0.6069s0.374,0.3081,0.6069,0.4082
			c0.2324,0.1006,0.4814,0.1504,0.7466,0.1504h0.8809c0.2646,0,0.5137-0.0498,0.7466-0.1504
			c0.2324-0.1001,0.4351-0.2363,0.6069-0.4082s0.3076-0.374,0.4082-0.6069c0.1001-0.2324,0.1504-0.4814,0.1504-0.7466V21.6186z"/>
		<path d="M56.5042,27.9135c-0.1685,0.394-0.3994,0.7378-0.6929,1.0313c-0.2939,0.2939-0.6377,0.5249-1.0313,0.6929
			c-0.394,0.168-0.813,0.2524-1.2568,0.2524h-0.8809c-0.4443,0-0.8633-0.0845-1.2568-0.2524
			c-0.394-0.168-0.7378-0.3989-1.0313-0.6929c-0.2939-0.2935-0.5249-0.6372-0.6929-1.0313
			C49.493,27.52,49.409,27.101,49.409,26.6567v-4.9629c0-0.4438,0.084-0.8628,0.2524-1.2568
			c0.168-0.3936,0.3989-0.7373,0.6929-1.0313c0.2935-0.2935,0.6372-0.5244,1.0313-0.6929c0.3936-0.168,0.8125-0.2524,1.2568-0.2524
			h0.8809c0.4438,0,0.8628,0.0845,1.2568,0.2524c0.3936,0.1685,0.7373,0.3994,1.0313,0.6929
			c0.2935,0.2939,0.5244,0.6377,0.6929,1.0313c0.168,0.394,0.2524,0.813,0.2524,1.2568v2.5889h-6.0264v2.4492
			c0,0.2651,0.0498,0.5142,0.1504,0.7466c0.1001,0.2329,0.2363,0.4351,0.4082,0.6069s0.374,0.3081,0.6069,0.4082
			c0.2324,0.1006,0.4814,0.1504,0.7466,0.1504h0.8809c0.2646,0,0.5137-0.0498,0.7466-0.1504
			c0.2324-0.1001,0.4351-0.2363,0.6069-0.4082s0.3076-0.374,0.4082-0.6069c0.1001-0.2324,0.1504-0.4814,0.1504-0.7466v-0.7305
			l1.3213,0.2148v0.4404C56.7567,27.101,56.6722,27.52,56.5042,27.9135z M55.4354,21.6186c0-0.2646-0.0503-0.5137-0.1504-0.7466
			c-0.1006-0.2324-0.2363-0.4351-0.4082-0.6069s-0.3745-0.3076-0.6069-0.4082c-0.2329-0.1001-0.4819-0.1504-0.7466-0.1504h-0.8809
			c-0.2651,0-0.5142,0.0503-0.7466,0.1504c-0.2329,0.1006-0.4351,0.2363-0.6069,0.4082s-0.3081,0.3745-0.4082,0.6069
			c-0.1006,0.2329-0.1504,0.4819-0.1504,0.7466v1.6328h4.7051V21.6186z"/>
		<path d="M59.8397,29.6752V14.2709h1.3213v15.4043H59.8397z"/>
		<path d="M71.1243,27.9135c-0.1685,0.394-0.3994,0.7378-0.6929,1.0313c-0.2939,0.2939-0.6377,0.5249-1.0313,0.6929
			c-0.394,0.168-0.813,0.2524-1.2568,0.2524h-0.8809c-0.4443,0-0.8633-0.0845-1.2568-0.2524
			c-0.394-0.168-0.7378-0.3989-1.0313-0.6929c-0.2939-0.2935-0.5249-0.6372-0.6929-1.0313
			c-0.1685-0.3936-0.2524-0.8125-0.2524-1.2568v-4.9629c0-0.4438,0.084-0.8628,0.2524-1.2568
			c0.168-0.3936,0.3989-0.7373,0.6929-1.0313c0.2935-0.2935,0.6372-0.5244,1.0313-0.6929c0.3936-0.168,0.8125-0.2524,1.2568-0.2524
			h0.8809c0.4438,0,0.8628,0.0845,1.2568,0.2524c0.3936,0.1685,0.7373,0.3994,1.0313,0.6929
			c0.2935,0.2939,0.5244,0.6377,0.6929,1.0313c0.168,0.394,0.2524,0.813,0.2524,1.2568v4.9629
			C71.3768,27.101,71.2923,27.52,71.1243,27.9135z M70.0555,21.6186c0-0.2646-0.0503-0.5137-0.1504-0.7466
			c-0.1006-0.2324-0.2363-0.4351-0.4082-0.6069s-0.3745-0.3076-0.6069-0.4082c-0.2329-0.1001-0.4819-0.1504-0.7466-0.1504h-0.8809
			c-0.2651,0-0.5142,0.0503-0.7466,0.1504c-0.2329,0.1006-0.4351,0.2363-0.6069,0.4082s-0.3081,0.3745-0.4082,0.6069
			c-0.1006,0.2329-0.1504,0.4819-0.1504,0.7466v5.1133c0,0.2651,0.0498,0.5142,0.1504,0.7466
			c0.1001,0.2329,0.2363,0.4351,0.4082,0.6069s0.374,0.3081,0.6069,0.4082c0.2324,0.1006,0.4814,0.1504,0.7466,0.1504h0.8809
			c0.2646,0,0.5137-0.0498,0.7466-0.1504c0.2324-0.1001,0.4351-0.2363,0.6069-0.4082s0.3076-0.374,0.4082-0.6069
			c0.1001-0.2324,0.1504-0.4814,0.1504-0.7466V21.6186z"/>
		<path d="M86.1312,27.5805c-0.1973,0.4585-0.4673,0.8594-0.811,1.2031s-0.7451,0.6143-1.2031,0.811
			c-0.4585,0.1968-0.9492,0.2954-1.4717,0.2954h-0.4404c-0.5229,0-1.0151-0.0986-1.4771-0.2954s-0.8647-0.4673-1.2085-0.811
			s-0.6143-0.7446-0.811-1.2031c-0.1973-0.458-0.2954-0.9487-0.2954-1.4717v-0.6123l1.3857-0.2256v0.8379
			c0,0.3438,0.0645,0.6646,0.1934,0.9614c0.1289,0.2974,0.3062,0.5586,0.5317,0.7842s0.4868,0.4028,0.7842,0.5317
			c0.2969,0.1289,0.6177,0.1934,0.9614,0.1934h0.3115c0.3364,0,0.6553-0.0645,0.9561-0.1934s0.562-0.3062,0.7842-0.5317
			c0.2217-0.2256,0.3975-0.4868,0.5264-0.7842c0.1289-0.2969,0.1934-0.6177,0.1934-0.9614V14.2709h1.3857v11.8379
			C86.4266,26.6318,86.3279,27.1225,86.1312,27.5805z"/>
		<path d="M95.2889,26.0873h-4.877l-1.0098,3.5879h-1.4395l4.5117-15.4043h0.7305l4.5332,15.4043h-1.4287L95.2889,26.0873z
			 M90.7879,24.766h4.1357l-2.0303-7.1006l-0.043-0.5693l-0.043,0.5693L90.7879,24.766z"/>
		<path d="M108.0882,27.3657c-0.1973,0.4585-0.4673,0.8594-0.811,1.2031s-0.7466,0.6143-1.2085,0.811
			c-0.4619,0.1973-0.9546,0.2954-1.4771,0.2954h-4.877V14.2709h4.877c0.5225,0,1.0151,0.0986,1.4771,0.2954
			c0.4619,0.1973,0.8647,0.4673,1.2085,0.811s0.6138,0.7466,0.811,1.2085c0.1968,0.4619,0.2954,0.9546,0.2954,1.4771v7.8311
			C108.3836,26.4169,108.285,26.9076,108.0882,27.3657z M106.9979,18.0629c0-0.3438-0.0645-0.6641-0.1934-0.9614
			c-0.1289-0.2969-0.3062-0.5586-0.5317-0.7842s-0.4873-0.4028-0.7842-0.5317c-0.2974-0.1289-0.6177-0.1934-0.9614-0.1934h-3.4268
			v12.7617h3.4268c0.3438,0,0.6641-0.0645,0.9614-0.1934c0.2969-0.1289,0.5586-0.3042,0.7842-0.5264
			c0.2256-0.2217,0.4028-0.4814,0.5317-0.7788c0.1289-0.2969,0.1934-0.6177,0.1934-0.9614V18.0629z"/>
	</g>
</g>
</svg>
