<?xml version="1.0" encoding="utf-8"?>
<!-- Generator: Adobe Illustrator 21.0.2, SVG Export Plug-In . SVG Version: 6.00 Build 0)  -->
<svg version="1.1" id="Capa_1" xmlns="http://www.w3.org/2000/svg" xmlns:xlink="http://www.w3.org/1999/xlink" x="0px" y="0px"
	 viewBox="0 0 265 50.576" style="enable-background:new 0 0 265 50.576;" xml:space="preserve">
<g>
	<g id="XMLID_5524_">
		<polygon id="XMLID_5525_" style="fill:#A03628;" points="243.1899,0.0001 265,25.2881 243.1899,50.576 223.3365,50.576 
			245.1466,25.2881 223.3365,0.0001 198.1899,0.0001 		"/>
	</g>
	<g id="XMLID_5521_">
		<polygon id="XMLID_5522_" style="fill:#A03628;" points="21.8101,50.5759 0,25.2879 21.8101,0 41.6635,0 19.8534,25.2879 
			41.6635,50.5759 21.8101,50.5759 		"/>
	</g>
	<polygon id="XMLID_5519_" style="fill:#C9452F;" points="47.671,0 217.329,0.0001 239.1391,25.2881 217.329,50.576 47.671,50.5759 
		25.8609,25.2879 	"/>
	<g>
		<g>
			<path style="fill:#FFFFFF;" d="M67.8327,7.8293h5.5537c1.252,0,2.207,0.0962,2.8633,0.2876
				c0.8838,0.2603,1.6396,0.7222,2.2695,1.3857c0.6289,0.6641,1.1084,1.4766,1.4365,2.438
				c0.3291,0.9619,0.4932,2.1475,0.4932,3.5571c0,1.2388-0.1543,2.3062-0.4619,3.2026c-0.377,1.0952-0.9141,1.9814-1.6123,2.6587
				c-0.5264,0.5137-1.2383,0.9141-2.1348,1.2012c-0.6709,0.2124-1.5674,0.3184-2.6895,0.3184h-5.7178V7.8293z M70.8708,10.3752
				v9.9678h2.2686c0.8486,0,1.4619-0.0479,1.8379-0.1436c0.4932-0.123,0.9014-0.332,1.2266-0.6265
				c0.3252-0.2939,0.5908-0.7783,0.7959-1.4521c0.2051-0.6743,0.3076-1.5928,0.3076-2.7563s-0.1025-2.0566-0.3076-2.6797
				c-0.2051-0.6226-0.4932-1.1084-0.8623-1.4575c-0.3701-0.3491-0.8389-0.585-1.4063-0.7085
				c-0.4248-0.0957-1.2559-0.1436-2.4951-0.1436H70.8708z"/>
			<path style="fill:#FFFFFF;" d="M89.318,19.4089l2.874,0.4824c-0.3691,1.0542-0.9531,1.8564-1.75,2.4072
				c-0.7969,0.5513-1.7949,0.8267-2.9922,0.8267c-1.8955,0-3.2988-0.6196-4.209-1.8584c-0.7188-0.9922-1.0781-2.2446-1.0781-3.7568
				c0-1.8071,0.4727-3.2217,1.417-4.2451c0.9443-1.0229,2.1387-1.5347,3.583-1.5347c1.6211,0,2.9014,0.5356,3.8389,1.6064
				c0.9375,1.0713,1.3857,2.7119,1.3447,4.9224h-7.2266c0.0205,0.856,0.2529,1.521,0.6973,1.9966
				c0.4453,0.4761,1,0.7139,1.6631,0.7139c0.4521,0,0.832-0.1235,1.1396-0.3696C88.9284,20.3533,89.1608,19.9563,89.318,19.4089z
				 M89.4821,16.4934c-0.0205-0.835-0.2363-1.4692-0.6465-1.9043c-0.4102-0.4346-0.9102-0.6519-1.499-0.6519
				c-0.6299,0-1.1494,0.2295-1.5605,0.688c-0.4102,0.4585-0.6123,1.0815-0.6055,1.8682H89.4821z"/>
			<path style="fill:#FFFFFF;" d="M99.6969,11.9768v2.2993h-1.9717v4.3936c0,0.8896,0.0186,1.4082,0.0566,1.5552
				c0.0371,0.1475,0.123,0.269,0.2568,0.3647s0.2959,0.1436,0.4873,0.1436c0.2666,0,0.6533-0.0923,1.1602-0.2773l0.2461,2.2383
				c-0.6709,0.2871-1.4297,0.4312-2.2783,0.4312c-0.5205,0-0.9893-0.0874-1.4063-0.2622c-0.418-0.1743-0.7246-0.3999-0.9189-0.6772
				c-0.1953-0.2773-0.3301-0.6519-0.4053-1.124c-0.0625-0.3354-0.0928-1.0127-0.0928-2.0327v-4.7529h-1.3242v-2.2993h1.3242v-2.166
				l2.8945-1.6836v3.8496H99.6969z"/>
			<path style="fill:#FFFFFF;" d="M108.0114,19.4089l2.874,0.4824c-0.3691,1.0542-0.9531,1.8564-1.75,2.4072
				c-0.7969,0.5513-1.7949,0.8267-2.9922,0.8267c-1.8955,0-3.2988-0.6196-4.209-1.8584c-0.7188-0.9922-1.0781-2.2446-1.0781-3.7568
				c0-1.8071,0.4727-3.2217,1.417-4.2451c0.9443-1.0229,2.1387-1.5347,3.583-1.5347c1.6211,0,2.9014,0.5356,3.8389,1.6064
				c0.9375,1.0713,1.3857,2.7119,1.3447,4.9224h-7.2266c0.0205,0.856,0.2529,1.521,0.6973,1.9966
				c0.4453,0.4761,1,0.7139,1.6631,0.7139c0.4521,0,0.832-0.1235,1.1396-0.3696C107.6217,20.3533,107.8541,19.9563,108.0114,19.4089
				z M108.1754,16.4934c-0.0205-0.835-0.2363-1.4692-0.6465-1.9043c-0.4102-0.4346-0.9102-0.6519-1.499-0.6519
				c-0.6299,0-1.1494,0.2295-1.5605,0.688c-0.4102,0.4585-0.6123,1.0815-0.6055,1.8682H108.1754z"/>
			<path style="fill:#FFFFFF;" d="M116.152,22.8787h-2.8848V11.9768h2.6797v1.5498c0.458-0.7319,0.8701-1.2144,1.2363-1.4473
				c0.3662-0.2324,0.7822-0.3491,1.248-0.3491c0.6563,0,1.2891,0.1816,1.8984,0.5439l-0.8926,2.5151
				c-0.4863-0.3145-0.9375-0.4722-1.3555-0.4722c-0.4033,0-0.7461,0.1113-1.0264,0.3335c-0.2803,0.2227-0.501,0.625-0.6621,1.2065
				s-0.2412,1.7998-0.2412,3.6543V22.8787z"/>
			<path style="fill:#FFFFFF;" d="M121.3561,11.9768h2.6592v1.4883c0.9512-1.1563,2.084-1.7349,3.3975-1.7349
				c0.6982,0,1.3047,0.144,1.8174,0.4312c0.5137,0.2876,0.9346,0.7222,1.2627,1.3037c0.4785-0.5815,0.9961-1.0161,1.5498-1.3037
				c0.5547-0.2871,1.1465-0.4312,1.7764-0.4312c0.8008,0,1.4785,0.1626,2.0322,0.4878c0.5547,0.3252,0.9688,0.8022,1.2422,1.4321
				c0.1982,0.4653,0.2979,1.2183,0.2979,2.2583v6.9702h-2.8848v-6.231c0-1.0815-0.0986-1.7793-0.2979-2.0942
				c-0.2666-0.4106-0.6768-0.6162-1.2314-0.6162c-0.4043,0-0.7842,0.1235-1.1396,0.3696c-0.3555,0.2466-0.6123,0.6074-0.7695,1.083
				c-0.1582,0.4761-0.2363,1.2271-0.2363,2.2534v5.2354h-2.8848v-5.9746c0-1.0605-0.0508-1.7451-0.1543-2.0532
				c-0.1025-0.3076-0.2617-0.5371-0.4766-0.6875c-0.2158-0.1504-0.5088-0.2261-0.8779-0.2261c-0.4453,0-0.8457,0.1201-1.2012,0.3594
				c-0.3555,0.2397-0.6104,0.5854-0.7646,1.0371s-0.2314,1.2007-0.2314,2.248v5.2969h-2.8848V11.9768z"/>
			<path style="fill:#FFFFFF;" d="M140.2653,10.4983V7.8293h2.8848v2.6689H140.2653z M140.2653,22.8787V11.9768h2.8848v10.9019
				H140.2653z"/>
			<path style="fill:#FFFFFF;" d="M156.0231,22.8787h-2.8848v-5.564c0-1.1768-0.0615-1.9385-0.1846-2.2842
				c-0.123-0.3452-0.3232-0.6138-0.6006-0.8057c-0.2773-0.1914-0.6113-0.2876-1.001-0.2876c-0.5,0-0.9482,0.1372-1.3447,0.4106
				c-0.3975,0.2739-0.6689,0.6367-0.8164,1.0884s-0.2207,1.2866-0.2207,2.5049v4.9375h-2.8848V11.9768h2.6797v1.6016
				c0.9512-1.2319,2.1484-1.8481,3.5928-1.8481c0.6367,0,1.2178,0.1147,1.7451,0.3442c0.5273,0.229,0.9258,0.5215,1.1963,0.8774
				c0.2695,0.356,0.458,0.7598,0.5645,1.2114c0.1055,0.4517,0.1592,1.0981,0.1592,1.9399V22.8787z"/>
			<path style="fill:#FFFFFF;" d="M161.1051,15.3025l-2.6182-0.4722c0.2939-1.0537,0.8008-1.834,1.5195-2.3403
				s1.7861-0.7598,3.2031-0.7598c1.2861,0,2.2441,0.1523,2.874,0.457s1.0723,0.6914,1.3291,1.1597
				c0.2568,0.4692,0.3848,1.3296,0.3848,2.582l-0.0303,3.3672c0,0.958,0.0459,1.6646,0.1387,2.1196
				c0.0918,0.4551,0.2646,0.9429,0.5186,1.4629H165.57c-0.0752-0.1914-0.167-0.4756-0.2764-0.8521
				c-0.0488-0.1709-0.083-0.2837-0.1035-0.3389c-0.4922,0.479-1.0195,0.8384-1.5801,1.0781
				c-0.5615,0.2393-1.1602,0.3594-1.7969,0.3594c-1.1221,0-2.0068-0.3047-2.6533-0.9141c-0.6475-0.6089-0.9707-1.3789-0.9707-2.3096
				c0-0.6157,0.1475-1.165,0.4414-1.6475c0.2949-0.4824,0.707-0.8521,1.2373-1.1089c0.5303-0.2563,1.2949-0.4805,2.2939-0.6724
				c1.3486-0.2529,2.2832-0.4893,2.8027-0.708v-0.2876c0-0.5542-0.1367-0.9497-0.4102-1.1855
				c-0.2744-0.2363-0.791-0.3545-1.5508-0.3545c-0.5127,0-0.9131,0.1011-1.2002,0.3032
				C161.5153,14.4421,161.2829,14.7961,161.1051,15.3025z M164.9645,17.6433c-0.3691,0.123-0.9541,0.2705-1.7549,0.4414
				s-1.3242,0.3389-1.5713,0.5029c-0.376,0.2671-0.5645,0.6055-0.5645,1.0161c0,0.4043,0.1504,0.7529,0.4521,1.0474
				c0.3008,0.2944,0.6836,0.4414,1.1494,0.4414c0.5205,0,1.0166-0.1709,1.4883-0.5132c0.3496-0.2603,0.5781-0.5786,0.6885-0.9551
				c0.0752-0.2461,0.1123-0.7148,0.1123-1.4063V17.6433z"/>
			<path style="fill:#FFFFFF;" d="M173.403,22.8787h-2.8848V11.9768h2.6797v1.5498c0.458-0.7319,0.8701-1.2144,1.2363-1.4473
				c0.3662-0.2324,0.7822-0.3491,1.248-0.3491c0.6563,0,1.2891,0.1816,1.8984,0.5439l-0.8926,2.5151
				c-0.4863-0.3145-0.9375-0.4722-1.3555-0.4722c-0.4033,0-0.7461,0.1113-1.0264,0.3335c-0.2803,0.2227-0.501,0.625-0.6621,1.2065
				s-0.2412,1.7998-0.2412,3.6543V22.8787z"/>
			<path style="fill:#FFFFFF;" d="M184.6637,22.8787V7.8293h2.8848v15.0493H184.6637z"/>
			<path style="fill:#FFFFFF;" d="M192.6608,15.3025l-2.6182-0.4722c0.2939-1.0537,0.8008-1.834,1.5195-2.3403
				s1.7861-0.7598,3.2031-0.7598c1.2861,0,2.2441,0.1523,2.874,0.457s1.0723,0.6914,1.3291,1.1597
				c0.2568,0.4692,0.3848,1.3296,0.3848,2.582l-0.0303,3.3672c0,0.958,0.0459,1.6646,0.1387,2.1196
				c0.0918,0.4551,0.2646,0.9429,0.5186,1.4629h-2.8545c-0.0752-0.1914-0.167-0.4756-0.2764-0.8521
				c-0.0488-0.1709-0.083-0.2837-0.1035-0.3389c-0.4922,0.479-1.0195,0.8384-1.5801,1.0781
				c-0.5615,0.2393-1.1602,0.3594-1.7969,0.3594c-1.1221,0-2.0068-0.3047-2.6533-0.9141c-0.6475-0.6089-0.9707-1.3789-0.9707-2.3096
				c0-0.6157,0.1475-1.165,0.4414-1.6475c0.2949-0.4824,0.707-0.8521,1.2373-1.1089c0.5303-0.2563,1.2949-0.4805,2.2939-0.6724
				c1.3486-0.2529,2.2832-0.4893,2.8027-0.708v-0.2876c0-0.5542-0.1367-0.9497-0.4102-1.1855
				c-0.2744-0.2363-0.791-0.3545-1.5508-0.3545c-0.5127,0-0.9131,0.1011-1.2002,0.3032
				C193.071,14.4421,192.8385,14.7961,192.6608,15.3025z M196.5202,17.6433c-0.3691,0.123-0.9541,0.2705-1.7549,0.4414
				s-1.3242,0.3389-1.5713,0.5029c-0.376,0.2671-0.5645,0.6055-0.5645,1.0161c0,0.4043,0.1504,0.7529,0.4521,1.0474
				c0.3008,0.2944,0.6836,0.4414,1.1494,0.4414c0.5205,0,1.0166-0.1709,1.4883-0.5132c0.3496-0.2603,0.5781-0.5786,0.6885-0.9551
				c0.0752-0.2461,0.1123-0.7148,0.1123-1.4063V17.6433z"/>
			<path style="fill:#FFFFFF;" d="M85.2887,31.9768h2.6895v1.6016c0.3496-0.5479,0.8213-0.9927,1.417-1.335
				c0.5957-0.3418,1.2559-0.5132,1.9814-0.5132c1.2656,0,2.3398,0.4966,3.2227,1.4888s1.3242,2.3745,1.3242,4.147
				c0,1.8208-0.4443,3.2354-1.334,4.2451c-0.8896,1.0093-1.9678,1.5142-3.2334,1.5142c-0.6025,0-1.1484-0.1201-1.6377-0.3594
				c-0.4893-0.2397-1.0049-0.6504-1.5449-1.2319v5.4922h-2.8848V31.9768z M88.1422,37.2429c0,1.2251,0.2432,2.1299,0.7295,2.7153
				c0.4854,0.585,1.0781,0.8774,1.7754,0.8774c0.6709,0,1.2285-0.2686,1.6738-0.8057c0.4443-0.5371,0.667-1.4185,0.667-2.6436
				c0-1.1426-0.2295-1.9912-0.6875-2.5459c-0.459-0.5542-1.0264-0.8315-1.7041-0.8315c-0.7051,0-1.29,0.2725-1.7559,0.8164
				C88.3756,35.3694,88.1422,36.1755,88.1422,37.2429z"/>
			<path style="fill:#FFFFFF;" d="M97.5456,37.2737c0-0.958,0.2363-1.8853,0.708-2.7817c0.4727-0.8965,1.1416-1.5811,2.0068-2.0532
				c0.8662-0.4722,1.833-0.7085,2.9004-0.7085c1.6494,0,3.001,0.5356,4.0547,1.6064c1.0537,1.0713,1.5811,2.4248,1.5811,4.0601
				c0,1.6494-0.5322,3.0166-1.5967,4.1011c-1.0635,1.085-2.4033,1.6274-4.0186,1.6274c-0.999,0-1.9521-0.2261-2.8594-0.6777
				c-0.9063-0.4517-1.5957-1.1138-2.0684-1.9863C97.7819,39.5886,97.5456,38.5261,97.5456,37.2737z M100.5016,37.4275
				c0,1.0815,0.2568,1.9097,0.7705,2.4844c0.5127,0.5747,1.1455,0.8623,1.8984,0.8623s1.3848-0.2876,1.8945-0.8623
				s0.7646-1.4097,0.7646-2.5049c0-1.0674-0.2549-1.8887-0.7646-2.4634c-0.5098-0.5752-1.1416-0.8623-1.8945-0.8623
				s-1.3857,0.2871-1.8984,0.8623C100.7584,35.5183,100.5016,36.3464,100.5016,37.4275z"/>
			<path style="fill:#FFFFFF;" d="M110.9323,42.8787V27.8293h2.8848v5.4204c0.8896-1.0127,1.9434-1.5195,3.1621-1.5195
				c1.3271,0,2.4258,0.481,3.2949,1.4424s1.3037,2.3423,1.3037,4.1421c0,1.8618-0.4434,3.2954-1.3291,4.3013
				c-0.8867,1.0059-1.9629,1.5093-3.2285,1.5093c-0.623,0-1.2373-0.1558-1.8428-0.4673s-1.1279-0.7715-1.5654-1.3809v1.6016
				H110.9323z M113.7965,37.1917c0,1.1289,0.1777,1.9644,0.5342,2.5049c0.499,0.7666,1.1631,1.1494,1.9912,1.1494
				c0.6367,0,1.1787-0.272,1.627-0.8159s0.6719-1.4014,0.6719-2.5718c0-1.2451-0.2256-2.1436-0.6768-2.6943
				c-0.4521-0.5508-1.0303-0.8267-1.7354-0.8267c-0.6914,0-1.2656,0.269-1.7246,0.8062
				C114.026,35.2805,113.7965,36.0969,113.7965,37.1917z"/>
			<path style="fill:#FFFFFF;" d="M123.8971,42.8787V27.8293h2.8848v15.0493H123.8971z"/>
			<path style="fill:#FFFFFF;" d="M131.8942,35.3025l-2.6182-0.4722c0.2939-1.0537,0.8008-1.834,1.5195-2.3403
				s1.7861-0.7598,3.2031-0.7598c1.2861,0,2.2441,0.1523,2.874,0.457s1.0723,0.6914,1.3291,1.1597
				c0.2568,0.4692,0.3848,1.3296,0.3848,2.582l-0.0303,3.3672c0,0.958,0.0459,1.6646,0.1387,2.1196
				c0.0918,0.4551,0.2646,0.9429,0.5186,1.4629h-2.8545c-0.0752-0.1914-0.167-0.4756-0.2764-0.8521
				c-0.0488-0.1709-0.083-0.2837-0.1035-0.3389c-0.4922,0.479-1.0195,0.8384-1.5801,1.0781
				c-0.5615,0.2393-1.1602,0.3594-1.7969,0.3594c-1.1221,0-2.0068-0.3047-2.6533-0.9141c-0.6475-0.6089-0.9707-1.3789-0.9707-2.3096
				c0-0.6157,0.1475-1.165,0.4414-1.6475c0.2949-0.4824,0.707-0.8521,1.2373-1.1089c0.5303-0.2563,1.2949-0.4805,2.2939-0.6724
				c1.3486-0.2529,2.2832-0.4893,2.8027-0.708v-0.2876c0-0.5542-0.1367-0.9497-0.4102-1.1855
				c-0.2744-0.2363-0.791-0.3545-1.5508-0.3545c-0.5127,0-0.9131,0.1011-1.2002,0.3032
				C132.3044,34.4421,132.0719,34.7961,131.8942,35.3025z M135.7536,37.6433c-0.3691,0.123-0.9541,0.2705-1.7549,0.4414
				s-1.3242,0.3389-1.5713,0.5029c-0.376,0.2671-0.5645,0.6055-0.5645,1.0161c0,0.4043,0.1504,0.7529,0.4521,1.0474
				c0.3008,0.2944,0.6836,0.4414,1.1494,0.4414c0.5205,0,1.0166-0.1709,1.4883-0.5132c0.3496-0.2603,0.5781-0.5786,0.6885-0.9551
				c0.0752-0.2461,0.1123-0.7148,0.1123-1.4063V37.6433z"/>
			<path style="fill:#FFFFFF;" d="M150.9362,35.2l-2.8438,0.5132c-0.0957-0.5679-0.3125-0.9956-0.6514-1.2832
				c-0.3389-0.2871-0.7783-0.4312-1.3193-0.4312c-0.7188,0-1.292,0.2485-1.7197,0.7446s-0.6416,1.3257-0.6416,2.4893
				c0,1.2935,0.2178,2.207,0.6523,2.7407c0.4346,0.5342,1.0176,0.8008,1.75,0.8008c0.5479,0,0.9961-0.1558,1.3447-0.4668
				c0.3496-0.3115,0.5957-0.8472,0.7393-1.6069l2.833,0.4824c-0.2939,1.3008-0.8584,2.2827-1.6934,2.9463
				c-0.835,0.6641-1.9541,0.9961-3.3564,0.9961c-1.5947,0-2.8662-0.5034-3.8145-1.5093c-0.9473-1.0059-1.4209-2.3984-1.4209-4.1782
				c0-1.7998,0.4756-3.2007,1.4268-4.2036c0.9512-1.0024,2.2373-1.5039,3.8594-1.5039c1.3281,0,2.3838,0.2861,3.167,0.8574
				S150.5944,34.03,150.9362,35.2z"/>
			<path style="fill:#FFFFFF;" d="M153.1227,30.4983v-2.6689h2.8848v2.6689H153.1227z M153.1227,42.8787V31.9768h2.8848v10.9019
				H153.1227z"/>
			<path style="fill:#FFFFFF;" d="M158.2965,37.2737c0-0.958,0.2363-1.8853,0.708-2.7817c0.4727-0.8965,1.1416-1.5811,2.0068-2.0532
				c0.8662-0.4722,1.833-0.7085,2.9004-0.7085c1.6494,0,3.001,0.5356,4.0547,1.6064c1.0537,1.0713,1.5811,2.4248,1.5811,4.0601
				c0,1.6494-0.5322,3.0166-1.5967,4.1011c-1.0635,1.085-2.4033,1.6274-4.0186,1.6274c-0.999,0-1.9521-0.2261-2.8594-0.6777
				c-0.9063-0.4517-1.5957-1.1138-2.0684-1.9863C158.5329,39.5886,158.2965,38.5261,158.2965,37.2737z M161.2526,37.4275
				c0,1.0815,0.2568,1.9097,0.7705,2.4844c0.5127,0.5747,1.1455,0.8623,1.8984,0.8623s1.3848-0.2876,1.8945-0.8623
				s0.7646-1.4097,0.7646-2.5049c0-1.0674-0.2549-1.8887-0.7646-2.4634c-0.5098-0.5752-1.1416-0.8623-1.8945-0.8623
				s-1.3857,0.2871-1.8984,0.8623C161.5094,35.5183,161.2526,36.3464,161.2526,37.4275z M162.4645,30.6423l1.416-3.0693h3.2344
				l-2.8232,3.0693H162.4645z"/>
			<path style="fill:#FFFFFF;" d="M181.7233,42.8787h-2.8848v-5.564c0-1.1768-0.0615-1.9385-0.1846-2.2842
				c-0.123-0.3452-0.3232-0.6138-0.6006-0.8057c-0.2773-0.1914-0.6113-0.2876-1.001-0.2876c-0.5,0-0.9482,0.1372-1.3447,0.4106
				c-0.3975,0.2739-0.6689,0.6367-0.8164,1.0884s-0.2207,1.2866-0.2207,2.5049v4.9375h-2.8848V31.9768h2.6797v1.6016
				c0.9512-1.2319,2.1484-1.8481,3.5928-1.8481c0.6367,0,1.2178,0.1147,1.7451,0.3442c0.5273,0.229,0.9258,0.5215,1.1963,0.8774
				c0.2695,0.356,0.458,0.7598,0.5645,1.2114c0.1055,0.4517,0.1592,1.0981,0.1592,1.9399V42.8787z"/>
		</g>
	</g>
</g>
</svg>
