<?xml version="1.0" encoding="utf-8"?>
<!-- Generator: Adobe Illustrator 21.0.2, SVG Export Plug-In . SVG Version: 6.00 Build 0)  -->
<svg version="1.1" id="Capa_1" xmlns="http://www.w3.org/2000/svg" xmlns:xlink="http://www.w3.org/1999/xlink" x="0px" y="0px"
	 viewBox="0 0 265 50.576" style="enable-background:new 0 0 265 50.576;" xml:space="preserve">
<g>
	<g id="XMLID_5504_">
		<polygon id="XMLID_5505_" style="fill:#A03628;" points="243.1899,0.0001 265,25.2881 243.1899,50.576 223.3365,50.576 
			245.1466,25.2881 223.3365,0.0001 198.1899,0.0001 		"/>
	</g>
	<g id="XMLID_5501_">
		<polygon id="XMLID_5502_" style="fill:#A03628;" points="21.8101,50.5759 0,25.2879 21.8101,0 41.6635,0 19.8534,25.2879 
			41.6635,50.5759 21.8101,50.5759 		"/>
	</g>
	<polygon id="XMLID_5499_" style="fill:#C9452F;" points="47.671,0 217.329,0.0001 239.1391,25.2881 217.329,50.576 47.671,50.5759 
		25.8609,25.2879 	"/>
	<g>
		<g>
			<path style="fill:#FFFFFF;" d="M47.3942,7.8295h5.5537c1.252,0,2.207,0.0962,2.8633,0.2876
				c0.8838,0.2603,1.6396,0.7222,2.2695,1.3857c0.6289,0.6641,1.1084,1.4766,1.4365,2.438
				c0.3291,0.9619,0.4932,2.1475,0.4932,3.5571c0,1.2388-0.1543,2.3062-0.4619,3.2026c-0.377,1.0952-0.9141,1.9814-1.6123,2.6587
				c-0.5264,0.5137-1.2383,0.9141-2.1348,1.2012c-0.6709,0.2124-1.5674,0.3184-2.6895,0.3184h-5.7178V7.8295z M50.4323,10.3754
				v9.9678h2.2686c0.8486,0,1.4619-0.0479,1.8379-0.1436c0.4932-0.123,0.9014-0.332,1.2266-0.6265
				c0.3252-0.2939,0.5908-0.7783,0.7959-1.4521c0.2051-0.6743,0.3076-1.5928,0.3076-2.7563s-0.1025-2.0566-0.3076-2.6797
				c-0.2051-0.6226-0.4932-1.1084-0.8623-1.4575c-0.3701-0.3491-0.8389-0.585-1.4063-0.7085
				c-0.4248-0.0957-1.2559-0.1436-2.4951-0.1436H50.4323z"/>
			<path style="fill:#FFFFFF;" d="M68.8795,19.409l2.874,0.4824c-0.3691,1.0542-0.9531,1.8564-1.75,2.4072
				c-0.7969,0.5513-1.7949,0.8267-2.9922,0.8267c-1.8955,0-3.2988-0.6196-4.209-1.8584c-0.7188-0.9922-1.0781-2.2446-1.0781-3.7568
				c0-1.8071,0.4727-3.2217,1.417-4.2451c0.9443-1.0229,2.1387-1.5347,3.583-1.5347c1.6211,0,2.9014,0.5356,3.8389,1.6064
				c0.9375,1.0713,1.3857,2.7119,1.3447,4.9224h-7.2266c0.0205,0.856,0.2529,1.521,0.6973,1.9966
				c0.4453,0.4761,1,0.7139,1.6631,0.7139c0.4521,0,0.832-0.1235,1.1396-0.3696C68.4899,20.3534,68.7223,19.9564,68.8795,19.409z
				 M69.0436,16.4935c-0.0205-0.835-0.2363-1.4692-0.6465-1.9043c-0.4102-0.4346-0.9102-0.6519-1.499-0.6519
				c-0.6299,0-1.1494,0.2295-1.5605,0.688c-0.4102,0.4585-0.6123,1.0815-0.6055,1.8682H69.0436z"/>
			<path style="fill:#FFFFFF;" d="M83.7643,15.2001l-2.8438,0.5132c-0.0957-0.5679-0.3125-0.9956-0.6514-1.2832
				c-0.3389-0.2871-0.7783-0.4312-1.3193-0.4312c-0.7188,0-1.292,0.2485-1.7197,0.7446s-0.6416,1.3257-0.6416,2.4893
				c0,1.2935,0.2178,2.207,0.6523,2.7407c0.4346,0.5342,1.0176,0.8008,1.75,0.8008c0.5479,0,0.9961-0.1558,1.3447-0.4668
				c0.3496-0.3115,0.5957-0.8472,0.7393-1.6069l2.833,0.4824c-0.2939,1.3008-0.8584,2.2827-1.6934,2.9463
				c-0.835,0.6641-1.9541,0.9961-3.3564,0.9961c-1.5947,0-2.8662-0.5034-3.8145-1.5093c-0.9473-1.0059-1.4209-2.3984-1.4209-4.1782
				c0-1.7998,0.4756-3.2007,1.4268-4.2036c0.9512-1.0024,2.2373-1.5039,3.8594-1.5039c1.3281,0,2.3838,0.2861,3.167,0.8574
				S83.4225,14.0301,83.7643,15.2001z"/>
			<path style="fill:#FFFFFF;" d="M85.9508,10.4984V7.8295h2.8848v2.6689H85.9508z M85.9508,22.8788V11.9769h2.8848v10.9019H85.9508
				z"/>
			<path style="fill:#FFFFFF;" d="M101.7907,22.8788H99.111v-1.6016c-0.4443,0.623-0.9697,1.0869-1.5752,1.3911
				c-0.6064,0.3042-1.2168,0.457-1.833,0.457c-1.252,0-2.3252-0.5049-3.2178-1.5142c-0.8936-1.0098-1.3398-2.418-1.3398-4.2246
				c0-1.8477,0.4346-3.2524,1.3037-4.2139s1.9678-1.4424,3.2949-1.4424c1.2188,0,2.2725,0.5068,3.1621,1.5195V7.8295h2.8848V22.8788
				z M94.0915,17.1918c0,1.1636,0.1602,2.0054,0.4824,2.5254c0.4648,0.7529,1.1152,1.1289,1.9502,1.1289
				c0.6641,0,1.2285-0.2822,1.6943-0.8467c0.4648-0.5645,0.6973-1.4082,0.6973-2.5308c0-1.252-0.2256-2.1538-0.6768-2.7046
				c-0.4521-0.5508-1.0303-0.8267-1.7354-0.8267c-0.6846,0-1.2578,0.272-1.7197,0.8164
				C94.3219,15.2977,94.0915,16.1102,94.0915,17.1918z"/>
			<path style="fill:#FFFFFF;" d="M104.6344,10.4984V7.8295h2.8848v2.6689H104.6344z M104.6344,22.8788V11.9769h2.8848v10.9019
				H104.6344z"/>
			<path style="fill:#FFFFFF;" d="M113.237,22.8788h-2.8848V11.9769h2.6797v1.5498c0.458-0.7319,0.8701-1.2144,1.2363-1.4473
				c0.3662-0.2324,0.7822-0.3491,1.248-0.3491c0.6563,0,1.2891,0.1816,1.8984,0.5439l-0.8926,2.5151
				c-0.4863-0.3145-0.9375-0.4722-1.3555-0.4722c-0.4033,0-0.7461,0.1113-1.0264,0.3335c-0.2803,0.2227-0.501,0.625-0.6621,1.2065
				c-0.1611,0.5815-0.2412,1.7998-0.2412,3.6543V22.8788z"/>
			<path style="fill:#FFFFFF;" d="M130.8112,19.409l2.874,0.4824c-0.3691,1.0542-0.9531,1.8564-1.75,2.4072
				c-0.7969,0.5513-1.7949,0.8267-2.9922,0.8267c-1.8955,0-3.2988-0.6196-4.209-1.8584c-0.7188-0.9922-1.0781-2.2446-1.0781-3.7568
				c0-1.8071,0.4727-3.2217,1.417-4.2451c0.9443-1.0229,2.1387-1.5347,3.583-1.5347c1.6211,0,2.9014,0.5356,3.8389,1.6064
				c0.9375,1.0713,1.3857,2.7119,1.3447,4.9224h-7.2266c0.0205,0.856,0.2529,1.521,0.6973,1.9966
				c0.4453,0.4761,1,0.7139,1.6631,0.7139c0.4521,0,0.832-0.1235,1.1396-0.3696C130.4215,20.3534,130.654,19.9564,130.8112,19.409z
				 M130.9753,16.4935c-0.0205-0.835-0.2363-1.4692-0.6465-1.9043c-0.4102-0.4346-0.9102-0.6519-1.499-0.6519
				c-0.6299,0-1.1494,0.2295-1.5606,0.688c-0.4102,0.4585-0.6123,1.0815-0.6055,1.8682H130.9753z"/>
			<path style="fill:#FFFFFF;" d="M136.1901,22.8788V7.8295h2.8848v15.0493H136.1901z"/>
			<path style="fill:#FFFFFF;" d="M152.8727,11.9769v2.2993h-1.9717v4.3936c0,0.8896,0.0186,1.4082,0.0566,1.5552
				c0.0371,0.1475,0.123,0.269,0.2568,0.3647s0.2959,0.1436,0.4873,0.1436c0.2666,0,0.6533-0.0923,1.1602-0.2773l0.2461,2.2383
				c-0.6709,0.2871-1.4297,0.4312-2.2783,0.4312c-0.5205,0-0.9893-0.0874-1.4063-0.2622c-0.418-0.1743-0.7246-0.3999-0.9189-0.6772
				c-0.1953-0.2773-0.3301-0.6519-0.4053-1.124c-0.0625-0.3354-0.0928-1.0127-0.0928-2.0327v-4.7529h-1.3242v-2.2993h1.3242v-2.166
				l2.8945-1.6836v3.8496H152.8727z"/>
			<path style="fill:#FFFFFF;" d="M157.0299,15.3026l-2.6182-0.4722c0.2939-1.0537,0.8008-1.834,1.5195-2.3403
				s1.7861-0.7598,3.2031-0.7598c1.2861,0,2.2441,0.1523,2.874,0.457s1.0723,0.6914,1.3291,1.1597
				c0.2568,0.4692,0.3848,1.3296,0.3848,2.582l-0.0303,3.3672c0,0.958,0.0459,1.6646,0.1387,2.1196
				c0.0918,0.4551,0.2646,0.9429,0.5186,1.4629h-2.8545c-0.0752-0.1914-0.167-0.4756-0.2764-0.8521
				c-0.0488-0.1709-0.083-0.2837-0.1035-0.3389c-0.4922,0.479-1.0195,0.8384-1.5801,1.0781
				c-0.5615,0.2393-1.1602,0.3594-1.7969,0.3594c-1.1221,0-2.0068-0.3047-2.6533-0.9141c-0.6475-0.6089-0.9707-1.3789-0.9707-2.3096
				c0-0.6157,0.1475-1.165,0.4414-1.6475c0.2949-0.4824,0.707-0.8521,1.2373-1.1089c0.5303-0.2563,1.2949-0.4805,2.2939-0.6724
				c1.3486-0.2529,2.2832-0.4893,2.8027-0.708v-0.2876c0-0.5542-0.1367-0.9497-0.4102-1.1855
				c-0.2744-0.2363-0.791-0.3545-1.5508-0.3545c-0.5127,0-0.9131,0.1011-1.2002,0.3032
				C157.4401,14.4422,157.2077,14.7963,157.0299,15.3026z M160.8893,17.6434c-0.3691,0.123-0.9541,0.2705-1.7549,0.4414
				s-1.3242,0.3389-1.5713,0.5029c-0.376,0.2671-0.5645,0.6055-0.5645,1.0161c0,0.4043,0.1504,0.7529,0.4521,1.0474
				c0.3008,0.2944,0.6836,0.4414,1.1494,0.4414c0.5205,0,1.0166-0.1709,1.4883-0.5132c0.3496-0.2603,0.5781-0.5786,0.6885-0.9551
				c0.0752-0.2461,0.1123-0.7148,0.1123-1.4063V17.6434z"/>
			<path style="fill:#FFFFFF;" d="M166.3503,11.9769h2.6592v1.4883c0.9512-1.1563,2.084-1.7349,3.3975-1.7349
				c0.6982,0,1.3047,0.144,1.8174,0.4312c0.5137,0.2876,0.9346,0.7222,1.2627,1.3037c0.4785-0.5815,0.9961-1.0161,1.5498-1.3037
				c0.5547-0.2871,1.1465-0.4312,1.7764-0.4312c0.8008,0,1.4785,0.1626,2.0322,0.4878c0.5547,0.3252,0.9688,0.8022,1.2422,1.4321
				c0.1982,0.4653,0.2979,1.2183,0.2979,2.2583v6.9702h-2.8848v-6.231c0-1.0815-0.0986-1.7793-0.2979-2.0942
				c-0.2666-0.4106-0.6768-0.6162-1.2314-0.6162c-0.4043,0-0.7842,0.1235-1.1396,0.3696c-0.3555,0.2466-0.6123,0.6074-0.7695,1.083
				c-0.1582,0.4761-0.2363,1.2271-0.2363,2.2534v5.2354h-2.8848v-5.9746c0-1.0605-0.0508-1.7451-0.1543-2.0532
				c-0.1025-0.3076-0.2617-0.5371-0.4766-0.6875c-0.2158-0.1504-0.5088-0.2261-0.8779-0.2261c-0.4453,0-0.8457,0.1201-1.2012,0.3594
				c-0.3555,0.2397-0.6104,0.5854-0.7646,1.0371s-0.2314,1.2007-0.2314,2.248v5.2969h-2.8848V11.9769z"/>
			<path style="fill:#FFFFFF;" d="M187.4157,15.3026l-2.6182-0.4722c0.2939-1.0537,0.8008-1.834,1.5195-2.3403
				s1.7861-0.7598,3.2031-0.7598c1.2861,0,2.2441,0.1523,2.874,0.457s1.0723,0.6914,1.3291,1.1597
				c0.2568,0.4692,0.3848,1.3296,0.3848,2.582l-0.0303,3.3672c0,0.958,0.0459,1.6646,0.1387,2.1196
				c0.0918,0.4551,0.2646,0.9429,0.5186,1.4629h-2.8545c-0.0752-0.1914-0.167-0.4756-0.2764-0.8521
				c-0.0488-0.1709-0.083-0.2837-0.1035-0.3389c-0.4922,0.479-1.0195,0.8384-1.5801,1.0781
				c-0.5615,0.2393-1.1602,0.3594-1.7969,0.3594c-1.1221,0-2.0068-0.3047-2.6533-0.9141c-0.6475-0.6089-0.9707-1.3789-0.9707-2.3096
				c0-0.6157,0.1475-1.165,0.4414-1.6475c0.2949-0.4824,0.707-0.8521,1.2373-1.1089c0.5303-0.2563,1.2949-0.4805,2.2939-0.6724
				c1.3486-0.2529,2.2832-0.4893,2.8027-0.708v-0.2876c0-0.5542-0.1367-0.9497-0.4102-1.1855
				c-0.2744-0.2363-0.791-0.3545-1.5508-0.3545c-0.5127,0-0.9131,0.1011-1.2002,0.3032
				C187.8258,14.4422,187.5934,14.7963,187.4157,15.3026z M191.2751,17.6434c-0.3691,0.123-0.9541,0.2705-1.7549,0.4414
				s-1.3242,0.3389-1.5713,0.5029c-0.376,0.2671-0.5645,0.6055-0.5645,1.0161c0,0.4043,0.1504,0.7529,0.4521,1.0474
				c0.3008,0.2944,0.6836,0.4414,1.1494,0.4414c0.5205,0,1.0166-0.1709,1.4883-0.5132c0.3496-0.2603,0.5781-0.5786,0.6885-0.9551
				c0.0752-0.2461,0.1123-0.7148,0.1123-1.4063V17.6434z"/>
			<path style="fill:#FFFFFF;" d="M206.8688,22.8788h-2.8848v-5.564c0-1.1768-0.0615-1.9385-0.1846-2.2842
				c-0.123-0.3452-0.3232-0.6138-0.6006-0.8057c-0.2773-0.1914-0.6113-0.2876-1.001-0.2876c-0.5,0-0.9482,0.1372-1.3447,0.4106
				c-0.3975,0.2739-0.6689,0.6367-0.8164,1.0884s-0.2207,1.2866-0.2207,2.5049v4.9375h-2.8848V11.9769h2.6797v1.6016
				c0.9512-1.2319,2.1484-1.8481,3.5928-1.8481c0.6367,0,1.2178,0.1147,1.7451,0.3442c0.5273,0.229,0.9258,0.5215,1.1963,0.8774
				c0.2695,0.356,0.458,0.7598,0.5645,1.2114c0.1055,0.4517,0.1592,1.0981,0.1592,1.9399V22.8788z M199.6725,10.5087h-1.3145
				c-0.0068-0.1572-0.0098-0.2803-0.0098-0.3691c0-0.7188,0.1748-1.2715,0.5234-1.6582c0.3486-0.3862,0.7969-0.5801,1.3447-0.5801
				c0.2393,0,0.4619,0.0259,0.667,0.0771c0.2061,0.0513,0.5801,0.1987,1.124,0.4414c0.5439,0.2432,0.9707,0.3643,1.2783,0.3643
				c0.2188,0,0.4023-0.0684,0.5488-0.2051c0.1475-0.1367,0.2412-0.3662,0.2832-0.688h1.334
				c-0.0068,0.9238-0.1797,1.5845-0.5186,1.9814s-0.7744,0.5952-1.3086,0.5952c-0.2324,0-0.4619-0.0239-0.6875-0.0718
				c-0.1582-0.041-0.5518-0.1812-1.1807-0.4209c-0.6299-0.2393-1.0879-0.3594-1.376-0.3594c-0.2188,0-0.3896,0.0669-0.5127,0.2002
				C199.7438,9.9496,199.6794,10.1805,199.6725,10.5087z"/>
			<path style="fill:#FFFFFF;" d="M209.1266,17.2738c0-0.958,0.2363-1.8853,0.708-2.7817c0.4727-0.8965,1.1416-1.5811,2.0068-2.0532
				c0.8662-0.4722,1.833-0.7085,2.9004-0.7085c1.6494,0,3.001,0.5356,4.0547,1.6064c1.0537,1.0713,1.5811,2.4248,1.5811,4.0601
				c0,1.6494-0.5322,3.0166-1.5967,4.1011c-1.0635,1.085-2.4033,1.6274-4.0186,1.6274c-0.999,0-1.9521-0.2261-2.8594-0.6777
				c-0.9063-0.4517-1.5957-1.1138-2.0684-1.9863C209.3629,19.5887,209.1266,18.5262,209.1266,17.2738z M212.0827,17.4276
				c0,1.0815,0.2568,1.9097,0.7705,2.4844c0.5127,0.5747,1.1455,0.8623,1.8984,0.8623s1.3848-0.2876,1.8945-0.8623
				s0.7646-1.4097,0.7646-2.5049c0-1.0674-0.2549-1.8887-0.7646-2.4634c-0.5098-0.5752-1.1416-0.8623-1.8945-0.8623
				s-1.3857,0.2871-1.8984,0.8623C212.3395,15.5184,212.0827,16.3465,212.0827,17.4276z"/>
			<path style="fill:#FFFFFF;" d="M77.236,42.8788h-2.6797v-1.6016c-0.4443,0.623-0.9697,1.0869-1.5752,1.3911
				c-0.6064,0.3042-1.2168,0.457-1.833,0.457c-1.252,0-2.3252-0.5049-3.2178-1.5142c-0.8936-1.0098-1.3398-2.418-1.3398-4.2246
				c0-1.8477,0.4346-3.2524,1.3037-4.2139s1.9678-1.4424,3.2949-1.4424c1.2188,0,2.2725,0.5068,3.1621,1.5195v-5.4204h2.8848
				V42.8788z M69.5368,37.1918c0,1.1636,0.1602,2.0054,0.4824,2.5254c0.4648,0.7529,1.1152,1.1289,1.9502,1.1289
				c0.6641,0,1.2285-0.2822,1.6943-0.8467c0.4648-0.5645,0.6973-1.4082,0.6973-2.5308c0-1.252-0.2256-2.1538-0.6768-2.7046
				c-0.4521-0.5508-1.0303-0.8267-1.7354-0.8267c-0.6846,0-1.2578,0.272-1.7197,0.8164
				C69.7672,35.2977,69.5368,36.1102,69.5368,37.1918z"/>
			<path style="fill:#FFFFFF;" d="M86.3922,39.409l2.874,0.4824c-0.3691,1.0542-0.9531,1.8564-1.75,2.4072
				c-0.7969,0.5513-1.7949,0.8267-2.9922,0.8267c-1.8955,0-3.2988-0.6196-4.209-1.8584c-0.7188-0.9922-1.0781-2.2446-1.0781-3.7568
				c0-1.8071,0.4727-3.2217,1.417-4.2451c0.9443-1.0229,2.1387-1.5347,3.583-1.5347c1.6211,0,2.9014,0.5356,3.8389,1.6064
				c0.9375,1.0713,1.3857,2.7119,1.3447,4.9224H82.194c0.0205,0.856,0.2529,1.521,0.6973,1.9966
				c0.4453,0.4761,1,0.7139,1.6631,0.7139c0.4521,0,0.832-0.1235,1.1396-0.3696C86.0026,40.3534,86.235,39.9564,86.3922,39.409z
				 M86.5563,36.4935c-0.0205-0.835-0.2363-1.4692-0.6465-1.9043c-0.4102-0.4346-0.9102-0.6519-1.499-0.6519
				c-0.6299,0-1.1494,0.2295-1.5605,0.688c-0.4102,0.4585-0.6123,1.0815-0.6055,1.8682H86.5563z"/>
			<path style="fill:#FFFFFF;" d="M97.6129,42.8788V27.8295h2.8848v15.0493H97.6129z"/>
			<path style="fill:#FFFFFF;" d="M105.61,35.3026l-2.6182-0.4722c0.2939-1.0537,0.8008-1.834,1.5195-2.3403
				c0.7188-0.5063,1.7861-0.7598,3.2031-0.7598c1.2861,0,2.2441,0.1523,2.874,0.457c0.6299,0.3047,1.0723,0.6914,1.3291,1.1597
				c0.2568,0.4692,0.3848,1.3296,0.3848,2.582l-0.0303,3.3672c0,0.958,0.0459,1.6646,0.1387,2.1196
				c0.0918,0.4551,0.2646,0.9429,0.5186,1.4629h-2.8545c-0.0752-0.1914-0.167-0.4756-0.2764-0.8521
				c-0.0488-0.1709-0.083-0.2837-0.1035-0.3389c-0.4922,0.479-1.0195,0.8384-1.5801,1.0781
				c-0.5615,0.2393-1.1602,0.3594-1.7969,0.3594c-1.1221,0-2.0068-0.3047-2.6533-0.9141c-0.6475-0.6089-0.9707-1.3789-0.9707-2.3096
				c0-0.6157,0.1475-1.165,0.4414-1.6475c0.2949-0.4824,0.707-0.8521,1.2373-1.1089c0.5303-0.2563,1.2949-0.4805,2.2939-0.6724
				c1.3486-0.2529,2.2832-0.4893,2.8027-0.708v-0.2876c0-0.5542-0.1367-0.9497-0.4102-1.1855
				c-0.2744-0.2363-0.791-0.3545-1.5508-0.3545c-0.5127,0-0.9131,0.1011-1.2002,0.3032
				C106.0202,34.4422,105.7877,34.7962,105.61,35.3026z M109.4694,37.6434c-0.3691,0.123-0.9541,0.2705-1.7549,0.4414
				s-1.3242,0.3389-1.5713,0.5029c-0.376,0.2671-0.5645,0.6055-0.5645,1.0161c0,0.4043,0.1504,0.7529,0.4521,1.0474
				c0.3008,0.2944,0.6836,0.4414,1.1494,0.4414c0.5205,0,1.0166-0.1709,1.4883-0.5132c0.3496-0.2603,0.5781-0.5786,0.6885-0.9551
				c0.0752-0.2461,0.1123-0.7148,0.1123-1.4063V37.6434z"/>
			<path style="fill:#FFFFFF;" d="M120.7711,31.9769h2.6592v1.4883c0.9512-1.1563,2.084-1.7349,3.3975-1.7349
				c0.6982,0,1.3047,0.144,1.8174,0.4312c0.5137,0.2876,0.9346,0.7222,1.2627,1.3037c0.4785-0.5815,0.9961-1.0161,1.5498-1.3037
				c0.5547-0.2871,1.1465-0.4312,1.7764-0.4312c0.8008,0,1.4785,0.1626,2.0322,0.4878c0.5547,0.3252,0.9688,0.8022,1.2422,1.4321
				c0.1982,0.4653,0.2979,1.2183,0.2979,2.2583v6.9702h-2.8848v-6.231c0-1.0815-0.0986-1.7793-0.2979-2.0942
				c-0.2666-0.4106-0.6768-0.6162-1.2314-0.6162c-0.4043,0-0.7842,0.1235-1.1396,0.3696c-0.3555,0.2466-0.6123,0.6074-0.7695,1.083
				c-0.1582,0.4761-0.2363,1.2271-0.2363,2.2534v5.2354h-2.8848v-5.9746c0-1.0605-0.0508-1.7451-0.1543-2.0532
				c-0.1025-0.3076-0.2617-0.5371-0.4766-0.6875c-0.2158-0.1504-0.5088-0.2261-0.8779-0.2261c-0.4453,0-0.8457,0.1201-1.2012,0.3594
				c-0.3555,0.2397-0.6104,0.5854-0.7646,1.0371s-0.2314,1.2007-0.2314,2.248v5.2969h-2.8848V31.9769z"/>
			<path style="fill:#FFFFFF;" d="M146.8561,42.8788v-1.6323c-0.3965,0.582-0.9189,1.0405-1.5654,1.3755
				c-0.6465,0.3354-1.3291,0.5034-2.0479,0.5034c-0.7324,0-1.3896-0.1611-1.9707-0.4829c-0.582-0.3213-1.0029-0.7729-1.2627-1.355
				c-0.2607-0.5815-0.3906-1.3857-0.3906-2.4121v-6.8984h2.8848v5.0093c0,1.5332,0.0527,2.4727,0.1592,2.8179
				c0.1064,0.3457,0.2988,0.6196,0.5801,0.8213c0.2803,0.2021,0.6367,0.3027,1.0674,0.3027c0.4932,0,0.9346-0.1348,1.3242-0.4053
				c0.3906-0.27,0.6572-0.6055,0.8008-1.0059s0.2158-1.3809,0.2158-2.9414v-4.5986h2.8848v10.9019H146.8561z"/>
			<path style="fill:#FFFFFF;" d="M158.8356,39.409l2.874,0.4824c-0.3691,1.0542-0.9531,1.8564-1.75,2.4072
				c-0.7969,0.5513-1.7949,0.8267-2.9922,0.8267c-1.8955,0-3.2988-0.6196-4.209-1.8584c-0.7188-0.9922-1.0781-2.2446-1.0781-3.7568
				c0-1.8071,0.4727-3.2217,1.417-4.2451c0.9443-1.0229,2.1387-1.5347,3.583-1.5347c1.6211,0,2.9014,0.5356,3.8389,1.6064
				c0.9375,1.0713,1.3857,2.7119,1.3447,4.9224h-7.2266c0.0205,0.856,0.2529,1.521,0.6973,1.9966
				c0.4453,0.4761,1,0.7139,1.6631,0.7139c0.4521,0,0.832-0.1235,1.1396-0.3696C158.446,40.3534,158.6784,39.9564,158.8356,39.409z
				 M158.9997,36.4935c-0.0205-0.835-0.2363-1.4692-0.6465-1.9043c-0.4102-0.4346-0.9102-0.6519-1.499-0.6519
				c-0.6299,0-1.1494,0.2295-1.5605,0.688c-0.4102,0.4585-0.6123,1.0815-0.6055,1.8682H158.9997z"/>
			<path style="fill:#FFFFFF;" d="M163.1999,39.7684l2.8945-0.4414c0.123,0.561,0.373,0.9873,0.749,1.2778
				c0.377,0.291,0.9033,0.4365,1.5811,0.4365c0.7461,0,1.3076-0.1367,1.6836-0.4106c0.2529-0.1914,0.3799-0.4482,0.3799-0.77
				c0-0.2188-0.0684-0.4004-0.2051-0.5439c-0.1436-0.1367-0.4658-0.2637-0.9648-0.3799c-2.3271-0.5132-3.8018-0.9819-4.4248-1.4063
				c-0.8623-0.5889-1.293-1.4067-1.293-2.4536c0-0.9443,0.3721-1.7383,1.1182-2.3818c0.7461-0.6431,1.9023-0.9648,3.4697-0.9648
				c1.4922,0,2.6006,0.2432,3.3262,0.729c0.7256,0.4858,1.2256,1.2046,1.499,2.1558l-2.7207,0.5029
				c-0.1162-0.4243-0.3369-0.7495-0.6621-0.9751c-0.3252-0.2261-0.7891-0.3389-1.3906-0.3389c-0.7598,0-1.3037,0.106-1.6318,0.3184
				c-0.2197,0.1504-0.3291,0.3457-0.3291,0.585c0,0.2056,0.0957,0.3799,0.2871,0.5234c0.2607,0.1919,1.1582,0.4619,2.6953,0.811
				c1.5361,0.3491,2.6084,0.7769,3.2178,1.2832c0.6025,0.5132,0.9033,1.2285,0.9033,2.1455c0,0.9995-0.417,1.8579-1.252,2.5767
				s-2.0703,1.0781-3.7061,1.0781c-1.4854,0-2.6602-0.3013-3.5264-0.9038C164.0329,41.6195,163.4665,40.8016,163.1999,39.7684z"/>
			<path style="fill:#FFFFFF;" d="M180.9069,31.9769v2.2993h-1.9717v4.3936c0,0.8896,0.0186,1.4082,0.0566,1.5552
				c0.0371,0.1475,0.123,0.269,0.2568,0.3647s0.2959,0.1436,0.4873,0.1436c0.2666,0,0.6533-0.0923,1.1602-0.2773l0.2461,2.2383
				c-0.6709,0.2871-1.4297,0.4312-2.2783,0.4312c-0.5205,0-0.9893-0.0874-1.4063-0.2622c-0.418-0.1743-0.7246-0.3999-0.9189-0.6772
				c-0.1953-0.2773-0.3301-0.6519-0.4053-1.124c-0.0625-0.3354-0.0928-1.0127-0.0928-2.0327v-4.7529h-1.3242v-2.2993h1.3242v-2.166
				l2.8945-1.6836v3.8496H180.9069z"/>
			<path style="fill:#FFFFFF;" d="M185.6706,42.8788h-2.8848V31.9769h2.6797v1.5498c0.458-0.7319,0.8701-1.2144,1.2363-1.4473
				c0.3662-0.2324,0.7822-0.3491,1.248-0.3491c0.6563,0,1.2891,0.1816,1.8984,0.5439l-0.8926,2.5151
				c-0.4863-0.3145-0.9375-0.4722-1.3555-0.4722c-0.4033,0-0.7461,0.1113-1.0264,0.3335c-0.2803,0.2227-0.501,0.625-0.6621,1.2065
				s-0.2412,1.7998-0.2412,3.6543V42.8788z"/>
			<path style="fill:#FFFFFF;" d="M193.2467,35.3026l-2.6182-0.4722c0.2939-1.0537,0.8008-1.834,1.5195-2.3403
				c0.7188-0.5063,1.7861-0.7598,3.2031-0.7598c1.2861,0,2.2441,0.1523,2.874,0.457c0.6299,0.3047,1.0723,0.6914,1.3291,1.1597
				c0.2568,0.4692,0.3848,1.3296,0.3848,2.582l-0.0303,3.3672c0,0.958,0.0459,1.6646,0.1387,2.1196
				c0.0918,0.4551,0.2646,0.9429,0.5186,1.4629h-2.8545c-0.0752-0.1914-0.167-0.4756-0.2764-0.8521
				c-0.0488-0.1709-0.083-0.2837-0.1035-0.3389c-0.4922,0.479-1.0195,0.8384-1.5801,1.0781
				c-0.5615,0.2393-1.1602,0.3594-1.7969,0.3594c-1.1221,0-2.0068-0.3047-2.6533-0.9141c-0.6475-0.6089-0.9707-1.3789-0.9707-2.3096
				c0-0.6157,0.1475-1.165,0.4414-1.6475c0.2949-0.4824,0.707-0.8521,1.2373-1.1089c0.5303-0.2563,1.2949-0.4805,2.2939-0.6724
				c1.3486-0.2529,2.2832-0.4893,2.8027-0.708v-0.2876c0-0.5542-0.1367-0.9497-0.4102-1.1855
				c-0.2744-0.2363-0.791-0.3545-1.5508-0.3545c-0.5127,0-0.9131,0.1011-1.2002,0.3032
				C193.6569,34.4422,193.4245,34.7962,193.2467,35.3026z M197.1061,37.6434c-0.3691,0.123-0.9541,0.2705-1.7549,0.4414
				s-1.3242,0.3389-1.5713,0.5029c-0.376,0.2671-0.5645,0.6055-0.5645,1.0161c0,0.4043,0.1504,0.7529,0.4521,1.0474
				c0.3008,0.2944,0.6836,0.4414,1.1494,0.4414c0.5205,0,1.0166-0.1709,1.4883-0.5132c0.3496-0.2603,0.5781-0.5786,0.6885-0.9551
				c0.0752-0.2461,0.1123-0.7148,0.1123-1.4063V37.6434z"/>
		</g>
	</g>
</g>
</svg>
