<?xml version="1.0" encoding="utf-8"?>
<!-- Generator: Adobe Illustrator 21.0.2, SVG Export Plug-In . SVG Version: 6.00 Build 0)  -->
<svg version="1.1" id="Capa_1" xmlns="http://www.w3.org/2000/svg" xmlns:xlink="http://www.w3.org/1999/xlink" x="0px" y="0px"
	 viewBox="0 0 341.8117 40.9182" style="enable-background:new 0 0 341.8117 40.9182;" xml:space="preserve">
<g>
	<g>
		<g>
			<rect x="31.0541" y="8.6556" style="fill:#E8AF2E;" width="310.7576" height="23.6066"/>
		</g>
		<path style="fill:#E8AF2E;" d="M40.7502,17.7993c1.6867,13.383-9.5679,24.6376-22.951,22.9508
			C8.6807,39.6009,1.3172,32.2375,0.168,23.1189C-1.5187,9.7361,9.7358-1.5186,23.1189,0.168
			C32.2375,1.3172,39.6009,8.6806,40.7502,17.7993z"/>
		<path style="fill:#F2F6E1;" d="M37.3254,18.2483c1.4019,11.1242-7.9533,20.4792-19.0774,19.0771
			c-7.5795-0.9553-13.7-7.076-14.6553-14.6555C2.1908,11.5457,11.5459,2.1908,22.6701,3.5928
			C30.2496,4.548,36.3702,10.6687,37.3254,18.2483z"/>
		<g>
			<path style="fill:#E8AF2E;" d="M19.1892,21.3623c0,3.1475-0.4961,5.498-1.4883,7.0508s-2.5098,2.3291-4.5527,2.3291
				c-1.96,0-3.4502-0.7949-4.4717-2.3857c-1.0215-1.5898-1.5322-3.9209-1.5322-6.9941c0-3.1719,0.4941-5.5264,1.4824-7.0625
				s2.4951-2.3047,4.5215-2.3047c1.9766,0,3.4775,0.8018,4.5029,2.4043S19.1892,18.3232,19.1892,21.3623z M9.2371,21.3623
				c0,2.6494,0.3115,4.5781,0.9346,5.7861c0.6221,1.208,1.6143,1.8125,2.9766,1.8125c1.3789,0,2.377-0.6123,2.9961-1.8369
				c0.6182-1.2256,0.9277-3.1455,0.9277-5.7617c0-2.6152-0.3096-4.5313-0.9277-5.748c-0.6191-1.2168-1.6172-1.8252-2.9961-1.8252
				c-1.3623,0-2.3545,0.6006-2.9766,1.7998C9.5486,16.7891,9.2371,18.7139,9.2371,21.3623z"/>
			<path style="fill:#E8AF2E;" d="M34.5349,26.3076h-2.7022v4.1855h-1.9805v-4.1855h-8.8574v-1.8057l8.6455-12.3193h2.1924v12.2441
				h2.7022V26.3076z M29.8523,24.4267V18.373c0-1.1875,0.041-2.5283,0.124-4.0234h-0.0996
				c-0.3984,0.7969-0.7725,1.457-1.1211,1.9805l-5.6924,8.0967H29.8523z"/>
		</g>
	</g>
	<g>
		<g>
			<path style="fill:#FFFFFF;" d="M109.6609,20.1489h1.8604c0.0098,0.3223,0.0146,0.5078,0.0146,0.5566
				c0,0.5566-0.106,1.0364-0.3188,1.4392c-0.2119,0.4028-0.6274,0.8557-1.2451,1.3586s-0.9873,0.8545-1.1094,1.0547
				s-0.1831,0.4272-0.1831,0.6812c0,0.376,0.1611,0.7068,0.4834,0.9924s0.7544,0.4285,1.2964,0.4285
				c0.5225,0,0.957-0.1453,1.3037-0.4358s0.5908-0.7483,0.7324-1.3733l1.8896,0.2417c-0.083,0.6104-0.2563,1.1182-0.52,1.5234
				c-0.3613,0.5518-0.8315,0.9595-1.4097,1.2231c-0.5791,0.2637-1.2173,0.3955-1.9155,0.3955c-1.1768,0-2.1157-0.3088-2.8159-0.9265
				c-0.7012-0.6177-1.0513-1.3318-1.0513-2.1423c0-0.3125,0.062-0.6165,0.187-0.9119c0.124-0.2954,0.3193-0.592,0.5859-0.8899
				c0.2656-0.2979,0.6895-0.686,1.2705-1.1646c0.4248-0.3418,0.6895-0.6262,0.7949-0.8533
				C109.6155,21.1194,109.6658,20.7202,109.6609,20.1489z M111.5212,17.3804v2.0581h-2.0581v-2.0581H111.5212z"/>
			<path style="fill:#FFFFFF;" d="M116.1795,14.4214h3.9624c0.8936,0,1.5747,0.0684,2.0435,0.2051
				c0.6299,0.1855,1.1694,0.5151,1.6187,0.9888c0.4492,0.4736,0.791,1.0535,1.0254,1.7395s0.3516,1.532,0.3516,2.5378
				c0,0.8838-0.1099,1.6455-0.3296,2.2852c-0.2686,0.7813-0.6519,1.4136-1.1499,1.897c-0.376,0.3662-0.8838,0.6519-1.5234,0.8569
				c-0.4785,0.1514-1.1182,0.2271-1.9189,0.2271h-4.0796V14.4214z M118.3474,16.2378v7.1118h1.6187
				c0.6055,0,1.0425-0.0342,1.311-0.1025c0.3516-0.0879,0.6431-0.2368,0.875-0.4468s0.4214-0.5554,0.5679-1.0364
				s0.2197-1.1365,0.2197-1.9666s-0.0732-1.4673-0.2197-1.9116s-0.3516-0.791-0.6152-1.04s-0.5981-0.4175-1.0034-0.5054
				c-0.3027-0.0684-0.896-0.1025-1.7798-0.1025H118.3474z"/>
			<path style="fill:#FFFFFF;" d="M126.5286,21.1597c0-0.6836,0.1685-1.3452,0.5054-1.9849s0.814-1.1279,1.4321-1.4648
				c0.6172-0.3369,1.3071-0.5054,2.0688-0.5054c1.1768,0,2.1411,0.3821,2.8931,1.1462s1.1279,1.7297,1.1279,2.8967
				c0,1.1768-0.3799,2.1521-1.1387,2.926c-0.7598,0.7739-1.7153,1.1609-2.8677,1.1609c-0.7129,0-1.3931-0.1611-2.0396-0.4834
				c-0.6475-0.3223-1.1392-0.7947-1.4761-1.4172S126.5286,22.0532,126.5286,21.1597z M128.638,21.2695
				c0,0.7715,0.1831,1.3623,0.5493,1.7725s0.8179,0.6152,1.355,0.6152s0.9873-0.2051,1.3516-0.6152
				c0.3633-0.4102,0.5454-1.0059,0.5454-1.7871c0-0.7617-0.1821-1.3477-0.5454-1.7578c-0.3643-0.4102-0.8145-0.6152-1.3516-0.6152
				s-0.9888,0.2051-1.355,0.6152S128.638,20.498,128.638,21.2695z"/>
			<path style="fill:#FFFFFF;" d="M143.2424,25.1587h-2.0581V21.189c0-0.8398-0.0439-1.3831-0.1318-1.6296
				s-0.2305-0.4382-0.4287-0.575c-0.1973-0.1367-0.4355-0.2051-0.7139-0.2051c-0.3564,0-0.6763,0.0977-0.9595,0.293
				s-0.4775,0.4541-0.5825,0.7764s-0.1572,0.918-0.1572,1.7871v3.5229h-2.0581v-7.7783h1.9116v1.1426
				c0.6787-0.8789,1.5332-1.3184,2.5635-1.3184c0.4541,0,0.8691,0.0818,1.2451,0.2454s0.6602,0.3723,0.8535,0.6262
				c0.1924,0.2539,0.3267,0.542,0.4023,0.8643s0.1138,0.7837,0.1138,1.3843V25.1587z"/>
			<path style="fill:#FFFFFF;" d="M152.4636,25.1587h-1.9116v-1.1426c-0.3174,0.4443-0.6924,0.7751-1.124,0.9924
				c-0.4326,0.2173-0.8682,0.3259-1.3076,0.3259c-0.8936,0-1.6592-0.3601-2.2959-1.0803c-0.6377-0.7202-0.9561-1.7249-0.9561-3.0139
				c0-1.3184,0.3101-2.3206,0.9302-3.0066s1.4038-1.0291,2.3511-1.0291c0.8691,0,1.6211,0.3613,2.2559,1.084v-3.8672h2.0581V25.1587
				z M146.9705,21.1011c0,0.8301,0.1147,1.4307,0.3442,1.8018c0.332,0.5371,0.7959,0.8057,1.3916,0.8057
				c0.4736,0,0.8765-0.2014,1.2085-0.6042s0.498-1.0046,0.498-1.8054c0-0.8936-0.1611-1.5369-0.4834-1.9299
				s-0.7349-0.5896-1.2378-0.5896c-0.4883,0-0.8975,0.1941-1.2266,0.5823C147.135,19.7497,146.9705,20.3296,146.9705,21.1011z"/>
			<path style="fill:#FFFFFF;" d="M158.9968,22.6831l2.0508,0.3442c-0.2637,0.752-0.6802,1.3245-1.249,1.7175
				s-1.2803,0.5896-2.1348,0.5896c-1.3525,0-2.3535-0.4419-3.0029-1.3257c-0.5127-0.708-0.769-1.6016-0.769-2.6807
				c0-1.2891,0.3369-2.2986,1.0107-3.0286s1.5259-1.095,2.5562-1.095c1.1572,0,2.0703,0.3821,2.7393,1.1462
				s0.9888,1.9348,0.9595,3.512h-5.1563c0.0146,0.6104,0.1807,1.0852,0.498,1.4246s0.7129,0.509,1.1865,0.509
				c0.3223,0,0.5933-0.0879,0.813-0.2637S158.8845,23.0737,158.9968,22.6831z M159.114,20.603
				c-0.0146-0.5957-0.1685-1.0486-0.4614-1.3586s-0.6494-0.4651-1.0693-0.4651c-0.4492,0-0.8203,0.1636-1.1133,0.4907
				s-0.437,0.7715-0.4321,1.333H159.114z"/>
			<path style="fill:#FFFFFF;" d="M167.2586,22.3901h-1.8677c-0.0049-0.2686-0.0073-0.4321-0.0073-0.4907
				c0-0.6055,0.1001-1.1035,0.3003-1.4941s0.6006-0.8301,1.2012-1.3184s0.9595-0.8081,1.0767-0.9595
				c0.1807-0.2393,0.271-0.5029,0.271-0.791c0-0.4004-0.1602-0.7434-0.4795-1.0291c-0.3203-0.2856-0.751-0.4285-1.293-0.4285
				c-0.5225,0-0.9595,0.1489-1.311,0.4468s-0.5933,0.752-0.7251,1.3623l-1.8896-0.2344c0.0537-0.874,0.4258-1.6162,1.1172-2.2266
				c0.6904-0.6104,1.5977-0.9155,2.7207-0.9155c1.1816,0,2.1216,0.3088,2.8198,0.9265s1.0474,1.3367,1.0474,2.157
				c0,0.4541-0.1279,0.8838-0.3848,1.2891c-0.2559,0.4053-0.8042,0.957-1.644,1.6553c-0.4346,0.3613-0.7046,0.6519-0.8091,0.8716
				C167.2962,21.4307,167.2488,21.8237,167.2586,22.3901z M165.3909,25.1587v-2.0581h2.0581v2.0581H165.3909z"/>
			<path style="fill:#FFFFFF;" d="M178.8162,20.1489h1.8604c0.0098,0.3223,0.0146,0.5078,0.0146,0.5566
				c0,0.5566-0.106,1.0364-0.3188,1.4392c-0.2119,0.4028-0.6274,0.8557-1.2451,1.3586s-0.9873,0.8545-1.1094,1.0547
				s-0.1831,0.4272-0.1831,0.6812c0,0.376,0.1611,0.7068,0.4834,0.9924s0.7544,0.4285,1.2964,0.4285
				c0.5225,0,0.957-0.1453,1.3037-0.4358s0.5908-0.7483,0.7324-1.3733l1.8896,0.2417c-0.083,0.6104-0.2563,1.1182-0.52,1.5234
				c-0.3613,0.5518-0.8315,0.9595-1.4097,1.2231c-0.5791,0.2637-1.2173,0.3955-1.9155,0.3955c-1.1768,0-2.1157-0.3088-2.8159-0.9265
				c-0.7012-0.6177-1.0513-1.3318-1.0513-2.1423c0-0.3125,0.062-0.6165,0.187-0.9119c0.124-0.2954,0.3193-0.592,0.5859-0.8899
				c0.2656-0.2979,0.6895-0.686,1.2705-1.1646c0.4248-0.3418,0.6895-0.6262,0.7949-0.8533
				C178.7708,21.1194,178.8211,20.7202,178.8162,20.1489z M180.6765,17.3804v2.0581h-2.0581v-2.0581H180.6765z"/>
			<path style="fill:#FFFFFF;" d="M185.3421,25.1587V14.4214h3.479c1.3184,0,2.1777,0.0537,2.5781,0.1611
				c0.6152,0.1611,1.1304,0.5115,1.5454,1.051c0.415,0.5395,0.6226,1.2366,0.6226,2.0911c0,0.6592-0.1196,1.2134-0.3589,1.6626
				s-0.5435,0.802-0.9116,1.0583c-0.3691,0.2563-0.7437,0.426-1.1245,0.509c-0.5176,0.1025-1.2671,0.1538-2.2485,0.1538H187.51
				v4.0503H185.3421z M187.51,16.2378v3.0469h1.1865c0.8545,0,1.4258-0.0562,1.7139-0.1685s0.5137-0.2881,0.6772-0.5273
				s0.2456-0.5176,0.2456-0.835c0-0.3906-0.1147-0.7129-0.3442-0.9668s-0.52-0.4126-0.8716-0.4761
				c-0.2588-0.0488-0.7788-0.0732-1.5601-0.0732H187.51z"/>
			<path style="fill:#FFFFFF;" d="M194.8562,21.1597c0-0.6836,0.1685-1.3452,0.5054-1.9849s0.814-1.1279,1.4321-1.4648
				c0.6172-0.3369,1.3071-0.5054,2.0688-0.5054c1.1768,0,2.1411,0.3821,2.8931,1.1462s1.1279,1.7297,1.1279,2.8967
				c0,1.1768-0.3799,2.1521-1.1387,2.926c-0.7598,0.7739-1.7153,1.1609-2.8677,1.1609c-0.7129,0-1.3931-0.1611-2.0396-0.4834
				c-0.6475-0.3223-1.1392-0.7947-1.4761-1.4172S194.8562,22.0532,194.8562,21.1597z M196.9656,21.2695
				c0,0.7715,0.1831,1.3623,0.5493,1.7725s0.8179,0.6152,1.355,0.6152s0.9873-0.2051,1.3516-0.6152
				c0.3633-0.4102,0.5454-1.0059,0.5454-1.7871c0-0.7617-0.1821-1.3477-0.5454-1.7578c-0.3643-0.4102-0.8145-0.6152-1.3516-0.6152
				s-0.9888,0.2051-1.355,0.6152S196.9656,20.498,196.9656,21.2695z"/>
			<path style="fill:#FFFFFF;" d="M206.4651,25.1587h-2.0581v-7.7783h1.9116v1.106c0.3271-0.5225,0.6211-0.8667,0.8828-1.0327
				c0.2607-0.166,0.5576-0.249,0.8896-0.249c0.4688,0,0.9204,0.1294,1.355,0.3882l-0.6372,1.7944
				c-0.3467-0.2246-0.6689-0.3369-0.9668-0.3369c-0.2881,0-0.5322,0.0793-0.7324,0.238s-0.3579,0.4456-0.4727,0.8606
				s-0.1719,1.2842-0.1719,2.6074V25.1587z"/>
			<path style="fill:#FFFFFF;" d="M219.5828,28.1177v-3.9111c-0.2686,0.3467-0.603,0.6213-1.0034,0.824s-0.8325,0.304-1.2964,0.304
				c-0.8838,0-1.6113-0.332-2.1826-0.9961c-0.6738-0.7764-1.0107-1.8286-1.0107-3.1567c0-1.25,0.3159-2.2253,0.9487-2.926
				c0.6318-0.7007,1.417-1.051,2.3545-1.051c0.5176,0,0.9653,0.1099,1.3438,0.3296s0.7144,0.5518,1.0073,0.9961v-1.1499h1.897
				v10.7373H219.5828z M219.6487,21.1743c0-0.7959-0.1626-1.3879-0.4873-1.7761s-0.731-0.5823-1.2192-0.5823
				c-0.498,0-0.9146,0.1978-1.2485,0.5933c-0.335,0.3955-0.502,1.0229-0.502,1.8823c0,0.8545,0.1611,1.4709,0.4834,1.8494
				s0.7202,0.5676,1.1938,0.5676s0.8887-0.2124,1.2451-0.6372S219.6487,22.0142,219.6487,21.1743z"/>
			<path style="fill:#FFFFFF;" d="M228.782,25.1587v-1.1646c-0.2832,0.415-0.6553,0.7422-1.1172,0.9814
				c-0.4609,0.2393-0.9482,0.3589-1.4609,0.3589c-0.5225,0-0.9912-0.1147-1.4063-0.3442s-0.7153-0.5518-0.9009-0.9668
				s-0.2783-0.9888-0.2783-1.7212v-4.9219h2.0581v3.5742c0,1.0938,0.0376,1.7639,0.1133,2.0105s0.2139,0.4419,0.4141,0.5859
				s0.4541,0.2161,0.7617,0.2161c0.3516,0,0.6665-0.0964,0.9448-0.2893s0.4688-0.4321,0.5713-0.7178s0.1538-0.9851,0.1538-2.0984
				v-3.2813h2.0581v7.7783H228.782z"/>
			<path style="fill:#FFFFFF;" d="M237.3294,22.6831l2.0508,0.3442c-0.2637,0.752-0.6802,1.3245-1.249,1.7175
				s-1.2803,0.5896-2.1348,0.5896c-1.3525,0-2.3535-0.4419-3.0029-1.3257c-0.5127-0.708-0.769-1.6016-0.769-2.6807
				c0-1.2891,0.3369-2.2986,1.0107-3.0286s1.5259-1.095,2.5562-1.095c1.1572,0,2.0703,0.3821,2.7393,1.1462
				s0.9888,1.9348,0.9595,3.512h-5.1563c0.0146,0.6104,0.1807,1.0852,0.498,1.4246s0.7129,0.509,1.1865,0.509
				c0.3223,0,0.5933-0.0879,0.813-0.2637S237.2171,23.0737,237.3294,22.6831z M237.4465,20.603
				c-0.0146-0.5957-0.1685-1.0486-0.4614-1.3586s-0.6494-0.4651-1.0693-0.4651c-0.4492,0-0.8203,0.1636-1.1133,0.4907
				s-0.437,0.7715-0.4321,1.333H237.4465z M234.8172,16.4282l1.0107-2.1899h2.3071l-2.0142,2.1899H234.8172z"/>
			<path style="fill:#FFFFFF;" d="M245.5911,22.3901h-1.8677c-0.0049-0.2686-0.0073-0.4321-0.0073-0.4907
				c0-0.6055,0.1001-1.1035,0.3003-1.4941s0.6006-0.8301,1.2012-1.3184s0.9595-0.8081,1.0767-0.9595
				c0.1807-0.2393,0.271-0.5029,0.271-0.791c0-0.4004-0.1602-0.7434-0.4795-1.0291c-0.3203-0.2856-0.751-0.4285-1.293-0.4285
				c-0.5225,0-0.9595,0.1489-1.311,0.4468s-0.5933,0.752-0.7251,1.3623l-1.8896-0.2344c0.0537-0.874,0.4258-1.6162,1.1172-2.2266
				c0.6904-0.6104,1.5977-0.9155,2.7207-0.9155c1.1816,0,2.1216,0.3088,2.8198,0.9265s1.0474,1.3367,1.0474,2.157
				c0,0.4541-0.1279,0.8838-0.3848,1.2891c-0.2559,0.4053-0.8042,0.957-1.644,1.6553c-0.4346,0.3613-0.7046,0.6519-0.8091,0.8716
				C245.6287,21.4307,245.5813,21.8237,245.5911,22.3901z M243.7234,25.1587v-2.0581h2.0581v2.0581H243.7234z"/>
		</g>
	</g>
</g>
</svg>
