<?xml version="1.0" encoding="utf-8"?>
<!-- Generator: Adobe Illustrator 21.0.2, SVG Export Plug-In . SVG Version: 6.00 Build 0)  -->
<svg version="1.1" id="Capa_1" xmlns="http://www.w3.org/2000/svg" xmlns:xlink="http://www.w3.org/1999/xlink" x="0px" y="0px"
	 viewBox="0 0 210.8714 256.313" style="enable-background:new 0 0 210.8714 256.313;" xml:space="preserve">
<g>
	<ellipse style="fill:#2A4690;" cx="103.6121" cy="25.5898" rx="49.5894" ry="25.5898"/>
	<g>
		<path style="fill:#FFFFFF;" d="M89.8719,31.2762V18.0303h2.6968v10.9957h6.7046v2.2501H89.8719z"/>
		<path style="fill:#FFFFFF;" d="M100.9861,20.4172l1.2568-2.7239h2.8701l-2.5054,2.7239H100.9861z M101.1775,31.2762v-9.6748
			h2.5596v9.6748H101.1775z"/>
		<path style="fill:#FFFFFF;" d="M115.2342,31.2762h-2.3779V29.855c-0.3945,0.5527-0.8608,0.9642-1.3984,1.2344
			c-0.5371,0.2701-1.0796,0.4054-1.626,0.4054c-1.1113,0-2.0635-0.4478-2.856-1.3438c-0.7925-0.8958-1.189-2.1454-1.189-3.7487
			c0-1.6399,0.3857-2.8864,1.1572-3.7396c0.771-0.8533,1.7456-1.28,2.9243-1.28c1.0806,0,2.0161,0.4496,2.8057,1.3483V17.921h2.5601
			V31.2762z M108.4017,26.2293c0,1.0325,0.1426,1.7795,0.4282,2.241c0.4126,0.6682,0.9897,1.0022,1.731,1.0022
			c0.5889,0,1.0898-0.2506,1.5029-0.7516c0.4131-0.5011,0.6196-1.2495,0.6196-2.2456c0-1.1115-0.2007-1.9116-0.6016-2.4005
			c-0.4009-0.4888-0.9141-0.7334-1.5396-0.7334c-0.6074,0-1.1157,0.2415-1.5259,0.7242
			C108.6067,24.5485,108.4017,25.2697,108.4017,26.2293z"/>
		<path style="fill:#FFFFFF;" d="M123.3602,28.197l2.5508,0.4282c-0.3281,0.9353-0.8457,1.6475-1.5532,2.1362
			c-0.7075,0.489-1.5928,0.7334-2.6558,0.7334c-1.6821,0-2.9272-0.5496-3.7349-1.6489c-0.6377-0.8805-0.9565-1.9919-0.9565-3.3342
			c0-1.6033,0.4189-2.8589,1.2568-3.767c0.8384-0.9078,1.8979-1.3619,3.1797-1.3619c1.4395,0,2.5747,0.4753,3.4072,1.4258
			c0.8315,0.9506,1.2295,2.4065,1.1934,4.3682h-6.4136c0.0181,0.7593,0.2246,1.3499,0.6196,1.7719
			c0.3945,0.4222,0.8867,0.6332,1.4756,0.6332c0.4009,0,0.7378-0.1093,1.0112-0.328
			C123.014,29.0351,123.2205,28.6829,123.3602,28.197z M123.5057,25.6098c-0.0181-0.7408-0.2095-1.3042-0.5737-1.6899
			c-0.3643-0.3856-0.8076-0.5785-1.3301-0.5785c-0.5591,0-1.0205,0.2036-1.3848,0.6105s-0.5435,0.9596-0.5376,1.658H123.5057z"/>
		<path style="fill:#FFFFFF;" d="M130.5843,31.2762h-2.5596v-9.6748h2.3774v1.3756c0.4067-0.6498,0.7729-1.0779,1.0977-1.2844
			c0.3252-0.2064,0.6938-0.3098,1.1069-0.3098c0.583,0,1.145,0.161,1.6855,0.4829l-0.7925,2.2319
			c-0.4316-0.2793-0.8325-0.4191-1.2026-0.4191c-0.3584,0-0.6621,0.0988-0.9111,0.296c-0.249,0.1974-0.4448,0.5543-0.5874,1.0704
			c-0.1431,0.5162-0.2144,1.5974-0.2144,3.2432V31.2762z"/>
	</g>
	<ellipse style="fill:#E27E05;" cx="45.4692" cy="84.8393" rx="41.6593" ry="22.2936"/>
	<g>
		<ellipse style="fill:#FFFFFF;" cx="45.4692" cy="84.7442" rx="36.4097" ry="18.6867"/>
	</g>
	<g>
		<path d="M23.1966,84.7518l1.0718,0.2706c-0.2246,0.88-0.6289,1.551-1.2124,2.0131c-0.5835,0.4622-1.2969,0.6931-2.1401,0.6931
			c-0.8726,0-1.5825-0.1776-2.1289-0.533c-0.5469-0.3552-0.9629-0.8699-1.2485-1.5437c-0.2852-0.6737-0.4277-1.3972-0.4277-2.1704
			c0-0.8431,0.1611-1.5786,0.4829-2.2064c0.3223-0.6278,0.7808-1.1046,1.3755-1.4304c0.5947-0.3259,1.249-0.4889,1.9634-0.4889
			c0.8101,0,1.4912,0.2063,2.0435,0.6187s0.937,0.9923,1.1543,1.7397l-1.0547,0.2485c-0.188-0.5891-0.4604-1.0181-0.8174-1.2869
			c-0.3574-0.2688-0.8066-0.4032-1.3477-0.4032c-0.6226,0-1.1426,0.1492-1.5605,0.4474s-0.7114,0.6986-0.8809,1.2012
			s-0.2539,1.0209-0.2539,1.5547c0,0.6886,0.1001,1.2897,0.3008,1.8032c0.2007,0.5137,0.5127,0.8976,0.9365,1.1516
			c0.4233,0.254,0.8813,0.3811,1.375,0.3811c0.6001,0,1.1084-0.1731,1.5244-0.5192S23.0496,85.4329,23.1966,84.7518z"/>
		<path d="M25.0911,84.6579c0-1.0862,0.3018-1.8907,0.9058-2.4136c0.5044-0.4344,1.1191-0.6517,1.8447-0.6517
			c0.8062,0,1.4653,0.2643,1.9771,0.7926s0.7681,1.2583,0.7681,2.1898c0,0.7548-0.1133,1.3485-0.3398,1.7811
			c-0.2266,0.4327-0.5562,0.7687-0.9888,1.0079s-0.9048,0.359-1.4165,0.359c-0.8213,0-1.4849-0.2632-1.9912-0.7898
			C25.3445,86.4068,25.0911,85.6484,25.0911,84.6579z M26.1131,84.6579c0,0.7511,0.1636,1.3135,0.4912,1.6873
			c0.3276,0.3737,0.7402,0.5605,1.2373,0.5605c0.4932,0,0.9038-0.1879,1.2314-0.5634c0.3276-0.3756,0.4917-0.948,0.4917-1.7177
			c0-0.7253-0.165-1.2748-0.4941-1.6486c-0.3296-0.3737-0.7393-0.5605-1.229-0.5605c-0.4971,0-0.9097,0.1859-1.2373,0.5577
			C26.2767,83.3453,26.1131,83.9067,26.1131,84.6579z"/>
		<path d="M31.7518,87.5905v-5.8654h0.8945v0.834c0.4312-0.6443,1.0532-0.9666,1.8667-0.9666c0.3535,0,0.6787,0.0636,0.9751,0.1906
			c0.2964,0.1271,0.5181,0.2937,0.6655,0.4999c0.147,0.2062,0.2505,0.451,0.3091,0.7345c0.0371,0.1842,0.0552,0.5063,0.0552,0.9666
			v3.6064h-0.9941v-3.5677c0-0.405-0.0386-0.7079-0.1157-0.9086c-0.0776-0.2007-0.2148-0.3608-0.4116-0.4805
			s-0.4277-0.1796-0.6929-0.1796c-0.4238,0-0.7891,0.1345-1.0967,0.4032c-0.3071,0.2688-0.4609,0.7787-0.4609,1.5299v3.2032H31.7518
			z"/>
		<path d="M37.6448,85.8398l0.9829-0.1547c0.0552,0.394,0.209,0.6959,0.4609,0.9058c0.2524,0.2098,0.605,0.3148,1.0576,0.3148
			c0.4565,0,0.7954-0.093,1.0166-0.2789c0.2207-0.1859,0.3311-0.4041,0.3311-0.6544c0-0.2246-0.0977-0.4014-0.2925-0.5303
			c-0.1362-0.0884-0.4751-0.2006-1.0161-0.3369c-0.729-0.1841-1.2344-0.3433-1.5161-0.4777s-0.4956-0.3203-0.6406-0.5579
			c-0.1455-0.2374-0.2183-0.4998-0.2183-0.787c0-0.2614,0.0596-0.5034,0.1797-0.7263c0.1191-0.2227,0.2822-0.4077,0.4888-0.5551
			c0.1543-0.114,0.3652-0.2107,0.6323-0.2899c0.2666-0.0791,0.5532-0.1188,0.8584-0.1188c0.4604,0,0.8647,0.0663,1.2124,0.1989
			c0.3481,0.1326,0.605,0.312,0.7705,0.5385s0.2798,0.5294,0.3423,0.9086L41.323,83.371c-0.0444-0.3019-0.1724-0.5376-0.3838-0.7069
			c-0.2119-0.1693-0.5112-0.2542-0.8975-0.2542c-0.457,0-0.7827,0.0756-0.9775,0.2264c-0.1953,0.151-0.293,0.3278-0.293,0.5303
			c0,0.1289,0.0405,0.2449,0.1216,0.3479c0.0811,0.1068,0.208,0.1952,0.3809,0.2651c0.0996,0.0369,0.3921,0.1215,0.8784,0.254
			c0.7031,0.1877,1.1938,0.3416,1.4717,0.4612s0.4961,0.2937,0.6543,0.5219c0.1587,0.2284,0.2378,0.5118,0.2378,0.8506
			c0,0.3314-0.0967,0.6434-0.29,0.9362s-0.4722,0.5192-0.8369,0.6793c-0.3643,0.1602-0.7769,0.2402-1.2368,0.2402
			c-0.7622,0-1.3433-0.1583-1.7427-0.475S37.7552,86.462,37.6448,85.8398z"/>
		<path d="M47.5418,87.5905v-0.8616c-0.4565,0.6627-1.0767,0.9941-1.8608,0.9941c-0.3462,0-0.6694-0.0663-0.9692-0.1989
			c-0.3003-0.1326-0.5229-0.2991-0.6685-0.4998s-0.2476-0.4464-0.3066-0.7374c-0.0405-0.1951-0.0605-0.5044-0.0605-0.9277v-3.6342
			h0.9941v3.2531c0,0.5192,0.02,0.869,0.0605,1.0493c0.0625,0.2615,0.1953,0.4667,0.3979,0.6158
			c0.2021,0.149,0.4526,0.2236,0.751,0.2236s0.5781-0.0764,0.8394-0.2292c0.2612-0.1527,0.4463-0.3607,0.5552-0.624
			c0.1084-0.2632,0.1626-0.6453,0.1626-1.146v-3.1426h0.9941v5.8654H47.5418z"/>
		<path d="M49.9666,87.5905V79.494h0.9941v8.0966H49.9666z"/>
		<path d="M54.6717,86.7014l0.1436,0.8782c-0.2798,0.0588-0.5303,0.0883-0.751,0.0883c-0.3608,0-0.6406-0.0571-0.8394-0.1711
			c-0.1987-0.1141-0.3389-0.2642-0.4199-0.4502c-0.0811-0.1858-0.1216-0.577-0.1216-1.1736v-3.3745h-0.729v-0.7732h0.729v-1.4525
			l0.9888-0.5964v2.049h0.9995v0.7732h-0.9995v3.4298c0,0.2836,0.0176,0.4658,0.0522,0.5468
			c0.0352,0.0811,0.0923,0.1455,0.1714,0.1932c0.0791,0.048,0.1924,0.0718,0.3398,0.0718
			C54.346,86.7399,54.4915,86.7271,54.6717,86.7014z"/>
		<path d="M55.2737,84.6579c0-1.0862,0.3018-1.8907,0.9058-2.4136c0.5044-0.4344,1.1191-0.6517,1.8447-0.6517
			c0.8062,0,1.4653,0.2643,1.9771,0.7926s0.7681,1.2583,0.7681,2.1898c0,0.7548-0.1133,1.3485-0.3398,1.7811
			c-0.2266,0.4327-0.5562,0.7687-0.9888,1.0079s-0.9048,0.359-1.4165,0.359c-0.8213,0-1.4849-0.2632-1.9912-0.7898
			C55.5271,86.4068,55.2737,85.6484,55.2737,84.6579z M56.2957,84.6579c0,0.7511,0.1636,1.3135,0.4912,1.6873
			c0.3276,0.3737,0.7402,0.5605,1.2373,0.5605c0.4932,0,0.9038-0.1879,1.2314-0.5634c0.3276-0.3756,0.4917-0.948,0.4917-1.7177
			c0-0.7253-0.165-1.2748-0.4941-1.6486c-0.3296-0.3737-0.7393-0.5605-1.229-0.5605c-0.4971,0-0.9097,0.1859-1.2373,0.5577
			C56.4593,83.3453,56.2957,83.9067,56.2957,84.6579z"/>
		<path d="M61.9231,87.5905v-5.8654h0.895v0.8892c0.228-0.416,0.439-0.6903,0.6323-0.8229s0.4058-0.1989,0.6377-0.1989
			c0.335,0,0.6758,0.1068,1.022,0.3203l-0.3428,0.9224c-0.2427-0.1436-0.4858-0.2153-0.729-0.2153
			c-0.2173,0-0.4121,0.0653-0.5854,0.196c-0.1729,0.1307-0.2964,0.312-0.3696,0.5439c-0.1108,0.3535-0.166,0.7401-0.166,1.1598
			v3.0708H61.9231z"/>
		<path d="M72.3118,87.5905h-0.9941v-6.3348c-0.2393,0.2284-0.5532,0.4567-0.9414,0.6849
			c-0.3887,0.2283-0.7373,0.3995-1.0469,0.5135v-0.9609c0.5562-0.2614,1.042-0.578,1.458-0.95
			c0.416-0.3718,0.7109-0.7327,0.8838-1.0825h0.6406V87.5905z"/>
	</g>
	<ellipse style="fill:#E5A61A;" cx="32.0787" cy="199.9295" rx="32.0787" ry="18.3436"/>
	<g>
		<ellipse style="fill:#FFFFFF;" cx="32.0787" cy="200.6422" rx="28.0363" ry="15.5624"/>
	</g>
	<g>
		<path d="M18.7757,194.0526h1.0718v4.6779c0,0.8137-0.0923,1.46-0.2764,1.9386s-0.5166,0.868-0.9971,1.1681
			s-1.1108,0.4501-1.8916,0.4501c-0.7583,0-1.3789-0.1307-1.8608-0.3921c-0.4824-0.2615-0.8267-0.6398-1.0332-1.135
			c-0.2061-0.4951-0.3091-1.1718-0.3091-2.0297v-4.6779h1.0713v4.6724c0,0.7032,0.0654,1.2216,0.1963,1.5547
			c0.1309,0.3333,0.3555,0.5901,0.6738,0.7704c0.3184,0.1805,0.7075,0.2706,1.168,0.2706c0.7881,0,1.3496-0.1785,1.6846-0.5356
			s0.5024-1.0438,0.5024-2.0601V194.0526z"/>
		<path d="M21.1067,200.3984l0.9829-0.1547c0.0552,0.394,0.209,0.6959,0.4609,0.9058c0.2524,0.2098,0.605,0.3148,1.0576,0.3148
			c0.4565,0,0.7954-0.093,1.0166-0.2789c0.2207-0.1859,0.3311-0.4041,0.3311-0.6544c0-0.2246-0.0977-0.4014-0.2925-0.5303
			c-0.1362-0.0884-0.4751-0.2006-1.0161-0.3369c-0.729-0.1841-1.2344-0.3433-1.5161-0.4777s-0.4956-0.3203-0.6406-0.5579
			c-0.1455-0.2374-0.2183-0.4998-0.2183-0.787c0-0.2614,0.0596-0.5034,0.1797-0.7263c0.1191-0.2227,0.2822-0.4077,0.4888-0.5551
			c0.1543-0.114,0.3652-0.2107,0.6323-0.2899c0.2666-0.0791,0.5532-0.1188,0.8584-0.1188c0.4604,0,0.8647,0.0663,1.2124,0.1989
			c0.3481,0.1326,0.605,0.312,0.7705,0.5385s0.2798,0.5294,0.3423,0.9086l-0.9717,0.1326
			c-0.0444-0.3019-0.1724-0.5376-0.3838-0.7069c-0.2119-0.1693-0.5112-0.2542-0.8975-0.2542c-0.457,0-0.7827,0.0756-0.9775,0.2264
			c-0.1953,0.151-0.293,0.3278-0.293,0.5303c0,0.1289,0.0405,0.2449,0.1216,0.3479c0.0811,0.1068,0.208,0.1952,0.3809,0.2651
			c0.0996,0.0369,0.3921,0.1215,0.8784,0.254c0.7031,0.1877,1.1938,0.3416,1.4717,0.4612s0.4961,0.2937,0.6543,0.5219
			c0.1587,0.2284,0.2378,0.5118,0.2378,0.8506c0,0.3314-0.0967,0.6434-0.29,0.9362s-0.4722,0.5192-0.8369,0.6793
			c-0.3643,0.1602-0.7769,0.2402-1.2368,0.2402c-0.7622,0-1.3433-0.1583-1.7427-0.475S21.2171,201.0206,21.1067,200.3984z"/>
		<path d="M31.0032,202.1491v-0.8616c-0.4565,0.6627-1.0767,0.9941-1.8608,0.9941c-0.3462,0-0.6694-0.0663-0.9692-0.1989
			c-0.3003-0.1326-0.5229-0.2991-0.6685-0.4998s-0.2476-0.4464-0.3066-0.7374c-0.0405-0.1951-0.0605-0.5044-0.0605-0.9277v-3.6342
			h0.9941v3.2531c0,0.5192,0.02,0.869,0.0605,1.0493c0.0625,0.2615,0.1953,0.4667,0.3979,0.6158
			c0.2021,0.149,0.4526,0.2236,0.751,0.2236s0.5781-0.0764,0.8394-0.2292c0.2612-0.1527,0.4463-0.3607,0.5552-0.624
			c0.1084-0.2632,0.1626-0.6453,0.1626-1.146v-3.1426h0.9941v5.8654H31.0032z"/>
		<path d="M37.2771,201.4256c-0.3682,0.313-0.7227,0.5339-1.063,0.6627c-0.3403,0.1289-0.7061,0.1934-1.0962,0.1934
			c-0.6445,0-1.1396-0.1575-1.4858-0.4722c-0.3462-0.3148-0.519-0.717-0.519-1.2068c0-0.2872,0.0654-0.5496,0.1963-0.7871
			c0.1304-0.2374,0.3018-0.428,0.5132-0.5715c0.2119-0.1437,0.4502-0.2522,0.7153-0.3259c0.1953-0.0515,0.4897-0.1012,0.8838-0.149
			c0.8027-0.0957,1.3936-0.2098,1.7729-0.3424c0.0034-0.1362,0.0054-0.2228,0.0054-0.2596c0-0.4049-0.0938-0.6903-0.2817-0.8561
			c-0.2539-0.2245-0.6313-0.3368-1.1318-0.3368c-0.4678,0-0.813,0.0819-1.0356,0.2457c-0.2231,0.1638-0.3877,0.4539-0.4946,0.8699
			l-0.9717-0.1326c0.0884-0.416,0.2334-0.752,0.436-1.0079c0.2026-0.2559,0.4951-0.4529,0.8784-0.5909
			c0.3828-0.1381,0.8262-0.2072,1.3311-0.2072c0.5005,0,0.9072,0.059,1.2202,0.1768c0.313,0.1179,0.543,0.2661,0.6904,0.4446
			c0.1475,0.1787,0.2505,0.4042,0.3096,0.6766c0.0327,0.1693,0.0493,0.4749,0.0493,0.9167v1.3256
			c0,0.9242,0.0215,1.5087,0.0635,1.7534c0.0425,0.245,0.1265,0.4797,0.2515,0.7042h-1.0381
			C37.3729,201.9429,37.3069,201.7017,37.2771,201.4256z M37.1946,199.2054c-0.3608,0.1473-0.9023,0.2726-1.624,0.3756
			c-0.4087,0.0588-0.6978,0.1251-0.8667,0.1987c-0.1694,0.0737-0.3003,0.1814-0.3926,0.3231
			c-0.0918,0.1418-0.1377,0.2992-0.1377,0.4723c0,0.265,0.1001,0.486,0.3008,0.6627s0.4941,0.265,0.8809,0.265
			c0.3828,0,0.7236-0.0836,1.022-0.2512c0.2983-0.1675,0.5171-0.3967,0.6572-0.6876c0.1064-0.2245,0.1602-0.5559,0.1602-0.9941
			V199.2054z"/>
		<path d="M39.7298,202.1491v-5.8654h0.895v0.8892c0.228-0.416,0.439-0.6903,0.6323-0.8229s0.4058-0.1989,0.6377-0.1989
			c0.335,0,0.6758,0.1068,1.022,0.3203l-0.3428,0.9224c-0.2427-0.1436-0.4858-0.2153-0.729-0.2153
			c-0.2173,0-0.4121,0.0653-0.5854,0.196c-0.1729,0.1307-0.2964,0.312-0.3696,0.5439c-0.1108,0.3535-0.166,0.7401-0.166,1.1598
			v3.0708H39.7298z"/>
		<path d="M43.513,195.1957v-1.1432h0.9941v1.1432H43.513z M43.513,202.1491v-5.8654h0.9941v5.8654H43.513z"/>
		<path d="M45.6502,199.2165c0-1.0862,0.3018-1.8907,0.9058-2.4136c0.5044-0.4344,1.1191-0.6517,1.8447-0.6517
			c0.8062,0,1.4653,0.2643,1.9771,0.7926s0.7681,1.2583,0.7681,2.1898c0,0.7548-0.1133,1.3485-0.3398,1.7811
			c-0.2266,0.4327-0.5562,0.7687-0.9888,1.0079s-0.9048,0.359-1.4165,0.359c-0.8213,0-1.4849-0.2632-1.9912-0.7898
			C45.9036,200.9654,45.6502,200.207,45.6502,199.2165z M46.6722,199.2165c0,0.7511,0.1636,1.3135,0.4912,1.6873
			c0.3276,0.3737,0.7402,0.5605,1.2373,0.5605c0.4932,0,0.9038-0.1879,1.2314-0.5634c0.3276-0.3756,0.4917-0.948,0.4917-1.7177
			c0-0.7253-0.165-1.2748-0.4941-1.6486c-0.3296-0.3737-0.7393-0.5605-1.229-0.5605c-0.4971,0-0.9097,0.1859-1.2373,0.5577
			C46.8357,197.9039,46.6722,198.4653,46.6722,199.2165z"/>
		<path d="M33.1463,212.5175h-0.9941v-6.3348c-0.2393,0.2284-0.5532,0.4567-0.9414,0.6849
			c-0.3887,0.2283-0.7373,0.3995-1.0469,0.5135v-0.9609c0.5562-0.2614,1.042-0.578,1.458-0.95
			c0.416-0.3718,0.7109-0.7327,0.8838-1.0825h0.6406V212.5175z"/>
	</g>
	<ellipse style="fill:#E5A61A;" cx="71.7948" cy="237.2566" rx="32.0787" ry="18.3436"/>
	<g>
		<ellipse style="fill:#FFFFFF;" cx="71.7948" cy="237.9693" rx="28.0363" ry="15.5624"/>
	</g>
	<g>
		<path d="M58.4915,231.3807h1.0718v4.6779c0,0.8137-0.0923,1.46-0.2764,1.9386s-0.5166,0.868-0.9971,1.1681
			s-1.1108,0.4501-1.8916,0.4501c-0.7583,0-1.3789-0.1307-1.8608-0.3921c-0.4824-0.2615-0.8267-0.6398-1.0332-1.135
			c-0.2061-0.4951-0.3091-1.1718-0.3091-2.0297v-4.6779h1.0713v4.6724c0,0.7032,0.0654,1.2216,0.1963,1.5547
			c0.1309,0.3333,0.3555,0.5901,0.6738,0.7704c0.3184,0.1805,0.7075,0.2706,1.168,0.2706c0.7881,0,1.3496-0.1785,1.6846-0.5356
			s0.5024-1.0438,0.5024-2.0601V231.3807z"/>
		<path d="M60.8226,237.7265l0.9829-0.1547c0.0552,0.394,0.209,0.6959,0.4609,0.9058c0.2524,0.2098,0.605,0.3148,1.0576,0.3148
			c0.4565,0,0.7954-0.093,1.0166-0.2789c0.2207-0.1859,0.3311-0.4041,0.3311-0.6544c0-0.2246-0.0977-0.4014-0.2925-0.5303
			c-0.1362-0.0884-0.4751-0.2006-1.0161-0.3369c-0.729-0.1841-1.2344-0.3433-1.5161-0.4777s-0.4956-0.3203-0.6406-0.5579
			c-0.1455-0.2374-0.2183-0.4998-0.2183-0.787c0-0.2614,0.0596-0.5034,0.1797-0.7263c0.1191-0.2227,0.2822-0.4077,0.4888-0.5551
			c0.1543-0.114,0.3652-0.2107,0.6323-0.2899c0.2666-0.0791,0.5532-0.1188,0.8584-0.1188c0.4604,0,0.8647,0.0663,1.2124,0.1989
			c0.3481,0.1326,0.605,0.312,0.7705,0.5385s0.2798,0.5294,0.3423,0.9086l-0.9717,0.1326
			c-0.0444-0.3019-0.1724-0.5376-0.3838-0.7069c-0.2119-0.1693-0.5112-0.2542-0.8975-0.2542c-0.457,0-0.7827,0.0756-0.9775,0.2264
			c-0.1953,0.151-0.293,0.3278-0.293,0.5303c0,0.1289,0.0405,0.2449,0.1216,0.3479c0.0811,0.1068,0.208,0.1952,0.3809,0.2651
			c0.0996,0.0369,0.3921,0.1215,0.8784,0.254c0.7031,0.1877,1.1938,0.3416,1.4717,0.4612s0.4961,0.2937,0.6543,0.5219
			c0.1587,0.2284,0.2378,0.5118,0.2378,0.8506c0,0.3314-0.0967,0.6434-0.29,0.9362s-0.4722,0.5192-0.8369,0.6793
			c-0.3643,0.1602-0.7769,0.2402-1.2368,0.2402c-0.7622,0-1.3433-0.1583-1.7427-0.475S60.9329,238.3487,60.8226,237.7265z"/>
		<path d="M70.719,239.4772v-0.8616c-0.4565,0.6627-1.0767,0.9941-1.8608,0.9941c-0.3462,0-0.6694-0.0663-0.9692-0.1989
			c-0.3003-0.1326-0.5229-0.2991-0.6685-0.4998s-0.2476-0.4464-0.3066-0.7374c-0.0405-0.1951-0.0605-0.5044-0.0605-0.9277v-3.6342
			h0.9941v3.2531c0,0.5192,0.02,0.869,0.0605,1.0493c0.0625,0.2615,0.1953,0.4667,0.3979,0.6158
			c0.2021,0.149,0.4526,0.2236,0.751,0.2236s0.5781-0.0764,0.8394-0.2292c0.2612-0.1527,0.4463-0.3607,0.5552-0.624
			c0.1084-0.2632,0.1626-0.6453,0.1626-1.146v-3.1426h0.9941v5.8654H70.719z"/>
		<path d="M76.993,238.7537c-0.3682,0.313-0.7227,0.5339-1.063,0.6627c-0.3403,0.1289-0.7061,0.1934-1.0962,0.1934
			c-0.6445,0-1.1396-0.1575-1.4858-0.4722c-0.3462-0.3148-0.519-0.717-0.519-1.2068c0-0.2872,0.0654-0.5496,0.1963-0.7871
			c0.1304-0.2374,0.3018-0.428,0.5132-0.5715c0.2119-0.1437,0.4502-0.2522,0.7153-0.3259c0.1953-0.0515,0.4897-0.1012,0.8838-0.149
			c0.8027-0.0957,1.3936-0.2098,1.7729-0.3424c0.0034-0.1362,0.0054-0.2228,0.0054-0.2596c0-0.4049-0.0938-0.6903-0.2817-0.8561
			c-0.2539-0.2245-0.6313-0.3368-1.1318-0.3368c-0.4678,0-0.813,0.0819-1.0356,0.2457c-0.2231,0.1638-0.3877,0.4539-0.4946,0.8699
			l-0.9717-0.1326c0.0884-0.416,0.2334-0.752,0.436-1.0079c0.2026-0.2559,0.4951-0.4529,0.8784-0.5909
			c0.3828-0.1381,0.8262-0.2072,1.3311-0.2072c0.5005,0,0.9072,0.059,1.2202,0.1768c0.313,0.1179,0.543,0.2661,0.6904,0.4446
			c0.1475,0.1787,0.2505,0.4042,0.3096,0.6766c0.0327,0.1693,0.0493,0.4749,0.0493,0.9167v1.3256
			c0,0.9242,0.0215,1.5087,0.0635,1.7534c0.0425,0.245,0.1265,0.4797,0.2515,0.7042h-1.0381
			C77.0887,239.2711,77.0228,239.0298,76.993,238.7537z M76.9104,236.5335c-0.3608,0.1473-0.9023,0.2726-1.624,0.3756
			c-0.4087,0.0588-0.6978,0.1251-0.8667,0.1987c-0.1694,0.0737-0.3003,0.1814-0.3926,0.3231
			c-0.0918,0.1418-0.1377,0.2992-0.1377,0.4723c0,0.265,0.1001,0.486,0.3008,0.6627s0.4941,0.265,0.8809,0.265
			c0.3828,0,0.7236-0.0836,1.022-0.2512c0.2983-0.1675,0.5171-0.3967,0.6572-0.6876c0.1064-0.2245,0.1602-0.5559,0.1602-0.9941
			V236.5335z"/>
		<path d="M79.4456,239.4772v-5.8654h0.895v0.8892c0.228-0.416,0.439-0.6903,0.6323-0.8229s0.4058-0.1989,0.6377-0.1989
			c0.335,0,0.6758,0.1068,1.022,0.3203l-0.3428,0.9224c-0.2427-0.1436-0.4858-0.2153-0.729-0.2153
			c-0.2173,0-0.4121,0.0653-0.5854,0.196c-0.1729,0.1307-0.2964,0.312-0.3696,0.5439c-0.1108,0.3535-0.166,0.7401-0.166,1.1598
			v3.0708H79.4456z"/>
		<path d="M83.2288,232.5239v-1.1432h0.9941v1.1432H83.2288z M83.2288,239.4772v-5.8654h0.9941v5.8654H83.2288z"/>
		<path d="M85.366,236.5446c0-1.0862,0.3018-1.8907,0.9058-2.4136c0.5044-0.4344,1.1191-0.6517,1.8447-0.6517
			c0.8062,0,1.4653,0.2643,1.9771,0.7926s0.7681,1.2583,0.7681,2.1898c0,0.7548-0.1133,1.3485-0.3398,1.7811
			c-0.2266,0.4327-0.5562,0.7687-0.9888,1.0079s-0.9048,0.359-1.4165,0.359c-0.8213,0-1.4849-0.2632-1.9912-0.7898
			C85.6194,238.2935,85.366,237.5351,85.366,236.5446z M86.388,236.5446c0,0.7511,0.1636,1.3135,0.4912,1.6873
			c0.3276,0.3737,0.7402,0.5605,1.2373,0.5605c0.4932,0,0.9038-0.1879,1.2314-0.5634c0.3276-0.3756,0.4917-0.948,0.4917-1.7177
			c0-0.7253-0.165-1.2748-0.4941-1.6486c-0.3296-0.3737-0.7393-0.5605-1.229-0.5605c-0.4971,0-0.9097,0.1859-1.2373,0.5577
			C86.5516,235.232,86.388,235.7934,86.388,236.5446z"/>
		<path d="M74.3426,248.8902v0.9554h-5.3521c-0.0073-0.2393,0.0313-0.4695,0.1162-0.6903c0.1362-0.3646,0.354-0.7235,0.6543-1.077
			s0.7339-0.7622,1.3008-1.2261c0.8799-0.7217,1.4746-1.2932,1.7837-1.7148c0.3096-0.4216,0.4639-0.8202,0.4639-1.1958
			c0-0.3939-0.1406-0.7262-0.4224-0.9968s-0.6489-0.406-1.1016-0.406c-0.479,0-0.8618,0.1437-1.1489,0.4308
			c-0.2871,0.2872-0.4326,0.6849-0.4365,1.193l-1.0215-0.105c0.0698-0.7621,0.333-1.3429,0.7896-1.7424
			c0.4565-0.3994,1.0698-0.5992,1.8394-0.5992c0.7769,0,1.3916,0.2155,1.8447,0.6462c0.4526,0.4308,0.6792,0.9646,0.6792,1.6016
			c0,0.3241-0.0664,0.6426-0.1987,0.9556c-0.1328,0.313-0.3525,0.6425-0.6602,0.9885c-0.3076,0.3462-0.8184,0.8212-1.5327,1.4249
			c-0.5962,0.5007-0.9795,0.8405-1.1484,1.019c-0.1694,0.1786-0.3096,0.358-0.4199,0.5385H74.3426z"/>
	</g>
	<ellipse style="fill:#E5A61A;" cx="140.1541" cy="237.9693" rx="32.0787" ry="18.3436"/>
	<g>
		<ellipse style="fill:#FFFFFF;" cx="140.1541" cy="238.6821" rx="28.0363" ry="15.5624"/>
	</g>
	<g>
		<path d="M126.8509,232.0926h1.0718v4.6779c0,0.8137-0.0923,1.46-0.2764,1.9386s-0.5166,0.868-0.9971,1.1681
			s-1.1108,0.4501-1.8916,0.4501c-0.7583,0-1.3789-0.1307-1.8608-0.3921c-0.4824-0.2615-0.8267-0.6398-1.0332-1.135
			c-0.2061-0.4951-0.3091-1.1718-0.3091-2.0297v-4.6779h1.0713v4.6724c0,0.7032,0.0654,1.2216,0.1963,1.5547
			c0.1309,0.3333,0.3555,0.5901,0.6738,0.7704c0.3184,0.1805,0.7075,0.2706,1.168,0.2706c0.7881,0,1.3496-0.1785,1.6846-0.5356
			s0.5024-1.0438,0.5024-2.0601V232.0926z"/>
		<path d="M129.1819,238.4384l0.9829-0.1547c0.0552,0.394,0.209,0.6959,0.4609,0.9058c0.2524,0.2098,0.605,0.3148,1.0576,0.3148
			c0.4565,0,0.7954-0.093,1.0166-0.2789c0.2207-0.1859,0.3311-0.4041,0.3311-0.6544c0-0.2246-0.0977-0.4014-0.2925-0.5303
			c-0.1362-0.0884-0.4751-0.2006-1.0161-0.3369c-0.729-0.1841-1.2344-0.3433-1.5161-0.4777s-0.4956-0.3203-0.6406-0.5579
			c-0.1455-0.2374-0.2183-0.4998-0.2183-0.787c0-0.2614,0.0596-0.5034,0.1797-0.7263c0.1191-0.2227,0.2822-0.4077,0.4888-0.5551
			c0.1543-0.114,0.3652-0.2107,0.6323-0.2899c0.2666-0.0791,0.5532-0.1188,0.8584-0.1188c0.4604,0,0.8647,0.0663,1.2124,0.1989
			c0.3481,0.1326,0.605,0.312,0.7705,0.5385s0.2798,0.5294,0.3423,0.9086l-0.9717,0.1326
			c-0.0444-0.3019-0.1724-0.5376-0.3838-0.7069c-0.2119-0.1693-0.5112-0.2542-0.8975-0.2542c-0.457,0-0.7827,0.0756-0.9775,0.2264
			c-0.1953,0.151-0.293,0.3278-0.293,0.5303c0,0.1289,0.0405,0.2449,0.1216,0.3479c0.0811,0.1068,0.208,0.1952,0.3809,0.2651
			c0.0996,0.0369,0.3921,0.1215,0.8784,0.254c0.7031,0.1877,1.1938,0.3416,1.4717,0.4612s0.4961,0.2937,0.6543,0.5219
			c0.1587,0.2284,0.2378,0.5118,0.2378,0.8506c0,0.3314-0.0967,0.6434-0.29,0.9362s-0.4722,0.5192-0.8369,0.6793
			c-0.3643,0.1602-0.7769,0.2402-1.2368,0.2402c-0.7622,0-1.3433-0.1583-1.7427-0.475S129.2923,239.0606,129.1819,238.4384z"/>
		<path d="M139.0784,240.1891v-0.8616c-0.4565,0.6627-1.0767,0.9941-1.8608,0.9941c-0.3462,0-0.6694-0.0663-0.9692-0.1989
			c-0.3003-0.1326-0.5229-0.2991-0.6685-0.4998s-0.2476-0.4464-0.3066-0.7374c-0.0405-0.1951-0.0605-0.5044-0.0605-0.9277v-3.6342
			h0.9941v3.2531c0,0.5192,0.02,0.869,0.0605,1.0493c0.0625,0.2615,0.1953,0.4667,0.3979,0.6158
			c0.2021,0.149,0.4526,0.2236,0.751,0.2236s0.5781-0.0764,0.8394-0.2292c0.2612-0.1527,0.4463-0.3607,0.5552-0.624
			c0.1084-0.2632,0.1626-0.6453,0.1626-1.146v-3.1426h0.9941v5.8654H139.0784z"/>
		<path d="M145.3523,239.4656c-0.3682,0.313-0.7227,0.5339-1.063,0.6627c-0.3403,0.1289-0.7061,0.1934-1.0962,0.1934
			c-0.6445,0-1.1396-0.1575-1.4858-0.4722c-0.3462-0.3148-0.519-0.717-0.519-1.2068c0-0.2872,0.0654-0.5496,0.1963-0.7871
			c0.1304-0.2374,0.3018-0.428,0.5132-0.5715c0.2119-0.1437,0.4502-0.2522,0.7153-0.3259c0.1953-0.0515,0.4897-0.1012,0.8838-0.149
			c0.8027-0.0957,1.3936-0.2098,1.7729-0.3424c0.0034-0.1362,0.0054-0.2228,0.0054-0.2596c0-0.4049-0.0938-0.6903-0.2817-0.8561
			c-0.2539-0.2245-0.6313-0.3368-1.1318-0.3368c-0.4678,0-0.813,0.0819-1.0356,0.2457c-0.2231,0.1638-0.3877,0.4539-0.4946,0.8699
			l-0.9717-0.1326c0.0884-0.416,0.2334-0.752,0.436-1.0079c0.2026-0.2559,0.4951-0.4529,0.8784-0.5909
			c0.3828-0.1381,0.8262-0.2072,1.3311-0.2072c0.5005,0,0.9072,0.059,1.2202,0.1768c0.313,0.1179,0.543,0.2661,0.6904,0.4446
			c0.1475,0.1787,0.2505,0.4042,0.3096,0.6766c0.0327,0.1693,0.0493,0.4749,0.0493,0.9167v1.3256
			c0,0.9242,0.0215,1.5087,0.0635,1.7534c0.0425,0.245,0.1265,0.4797,0.2515,0.7042h-1.0381
			C145.448,239.983,145.3821,239.7418,145.3523,239.4656z M145.2698,237.2454c-0.3608,0.1473-0.9023,0.2726-1.624,0.3756
			c-0.4087,0.0588-0.6978,0.1251-0.8667,0.1987c-0.1694,0.0737-0.3003,0.1814-0.3926,0.3231
			c-0.0918,0.1418-0.1377,0.2992-0.1377,0.4723c0,0.265,0.1001,0.486,0.3008,0.6627s0.4941,0.265,0.8809,0.265
			c0.3828,0,0.7236-0.0836,1.022-0.2512c0.2983-0.1675,0.5171-0.3967,0.6572-0.6876c0.1064-0.2245,0.1602-0.5559,0.1602-0.9941
			V237.2454z"/>
		<path d="M147.805,240.1891v-5.8654h0.895v0.8892c0.228-0.416,0.439-0.6903,0.6323-0.8229s0.4058-0.1989,0.6377-0.1989
			c0.335,0,0.6758,0.1068,1.022,0.3203l-0.3428,0.9224c-0.2427-0.1436-0.4858-0.2153-0.729-0.2153
			c-0.2173,0-0.4121,0.0653-0.5854,0.196c-0.1729,0.1307-0.2964,0.312-0.3696,0.5439c-0.1108,0.3535-0.166,0.7401-0.166,1.1598
			v3.0708H147.805z"/>
		<path d="M151.5882,233.2358v-1.1432h0.9941v1.1432H151.5882z M151.5882,240.1891v-5.8654h0.9941v5.8654H151.5882z"/>
		<path d="M153.7254,237.2565c0-1.0862,0.3018-1.8907,0.9058-2.4136c0.5044-0.4344,1.1191-0.6517,1.8447-0.6517
			c0.8062,0,1.4653,0.2643,1.9771,0.7926s0.7681,1.2583,0.7681,2.1898c0,0.7548-0.1133,1.3485-0.3398,1.7811
			c-0.2266,0.4327-0.5562,0.7687-0.9888,1.0079s-0.9048,0.359-1.4165,0.359c-0.8213,0-1.4849-0.2632-1.9912-0.7898
			C153.9788,239.0054,153.7254,238.247,153.7254,237.2565z M154.7474,237.2565c0,0.7511,0.1636,1.3135,0.4912,1.6873
			c0.3276,0.3737,0.7402,0.5605,1.2373,0.5605c0.4932,0,0.9038-0.1879,1.2314-0.5634c0.3276-0.3756,0.4917-0.948,0.4917-1.7177
			c0-0.7253-0.165-1.2748-0.4941-1.6486c-0.3296-0.3737-0.7393-0.5605-1.229-0.5605c-0.4971,0-0.9097,0.1859-1.2373,0.5577
			C154.9109,235.9439,154.7474,236.5053,154.7474,237.2565z"/>
		<path d="M137.4827,248.4202l0.9941-0.1326c0.1138,0.5634,0.3081,0.9692,0.5825,1.2178s0.6084,0.3728,1.0024,0.3728
			c0.4673,0,0.8623-0.162,1.1846-0.486s0.4834-0.7253,0.4834-1.2041c0-0.4564-0.1494-0.833-0.4473-1.1294
			c-0.2983-0.2964-0.6777-0.4446-1.1377-0.4446c-0.188,0-0.4219,0.0369-0.7017,0.1105l0.1104-0.8727
			c0.0664,0.0074,0.1196,0.0111,0.1602,0.0111c0.4233,0,0.8047-0.1105,1.1436-0.3314c0.3384-0.2209,0.5078-0.5614,0.5078-1.0217
			c0-0.3645-0.123-0.6664-0.3696-0.9058c-0.2471-0.2393-0.5654-0.359-0.9556-0.359c-0.3867,0-0.709,0.1216-0.9668,0.3645
			c-0.2578,0.243-0.4233,0.6075-0.4971,1.0936l-0.9941-0.1768c0.1216-0.6664,0.3979-1.1827,0.8286-1.5492
			c0.4307-0.3663,0.9663-0.5496,1.6069-0.5496c0.4419,0,0.8486,0.0948,1.2207,0.2844c0.3721,0.1897,0.6563,0.4484,0.8535,0.776
			c0.1968,0.3278,0.2954,0.6757,0.2954,1.0438c0,0.3499-0.0938,0.6683-0.2817,0.9554c-0.188,0.2872-0.4658,0.5155-0.834,0.6848
			c0.4785,0.1105,0.8506,0.3397,1.1157,0.6876c0.2651,0.348,0.3975,0.7834,0.3975,1.3062c0,0.707-0.2578,1.3063-0.7729,1.7977
			c-0.5156,0.4916-1.1675,0.7373-1.9551,0.7373c-0.7109,0-1.3008-0.2117-1.7705-0.6351
			C137.8167,249.6426,137.5486,249.0939,137.4827,248.4202z"/>
	</g>
	<ellipse style="fill:#E5A61A;" cx="178.7928" cy="200.6422" rx="32.0787" ry="18.3436"/>
	<g>
		<ellipse style="fill:#FFFFFF;" cx="178.7928" cy="201.355" rx="28.0363" ry="15.5624"/>
	</g>
	<g>
		<path d="M165.4895,194.7654h1.0718v4.6779c0,0.8137-0.0923,1.46-0.2764,1.9386s-0.5166,0.868-0.9971,1.1681
			s-1.1108,0.4501-1.8916,0.4501c-0.7583,0-1.3789-0.1307-1.8608-0.3921c-0.4824-0.2615-0.8267-0.6398-1.0332-1.135
			c-0.2061-0.4951-0.3091-1.1718-0.3091-2.0297v-4.6779h1.0713v4.6724c0,0.7032,0.0654,1.2216,0.1963,1.5547
			c0.1309,0.3333,0.3555,0.5901,0.6738,0.7704c0.3184,0.1805,0.7075,0.2706,1.168,0.2706c0.7881,0,1.3496-0.1785,1.6846-0.5356
			s0.5024-1.0438,0.5024-2.0601V194.7654z"/>
		<path d="M167.8206,201.1113l0.9829-0.1547c0.0552,0.394,0.209,0.6959,0.4609,0.9058c0.2524,0.2098,0.605,0.3148,1.0576,0.3148
			c0.4565,0,0.7954-0.093,1.0166-0.2789c0.2207-0.1859,0.3311-0.4041,0.3311-0.6544c0-0.2246-0.0977-0.4014-0.2925-0.5303
			c-0.1362-0.0884-0.4751-0.2006-1.0161-0.3369c-0.729-0.1841-1.2344-0.3433-1.5161-0.4777s-0.4956-0.3203-0.6406-0.5579
			c-0.1455-0.2374-0.2183-0.4998-0.2183-0.787c0-0.2614,0.0596-0.5034,0.1797-0.7263c0.1191-0.2227,0.2822-0.4077,0.4888-0.5551
			c0.1543-0.114,0.3652-0.2107,0.6323-0.2899c0.2666-0.0791,0.5532-0.1188,0.8584-0.1188c0.4604,0,0.8647,0.0663,1.2124,0.1989
			c0.3481,0.1326,0.605,0.312,0.7705,0.5385s0.2798,0.5294,0.3423,0.9086l-0.9717,0.1326
			c-0.0444-0.3019-0.1724-0.5376-0.3838-0.7069c-0.2119-0.1693-0.5112-0.2542-0.8975-0.2542c-0.457,0-0.7827,0.0756-0.9775,0.2264
			c-0.1953,0.151-0.293,0.3278-0.293,0.5303c0,0.1289,0.0405,0.2449,0.1216,0.3479c0.0811,0.1068,0.208,0.1952,0.3809,0.2651
			c0.0996,0.0369,0.3921,0.1215,0.8784,0.254c0.7031,0.1877,1.1938,0.3416,1.4717,0.4612s0.4961,0.2937,0.6543,0.5219
			c0.1587,0.2284,0.2378,0.5118,0.2378,0.8506c0,0.3314-0.0967,0.6434-0.29,0.9362s-0.4722,0.5192-0.8369,0.6793
			c-0.3643,0.1602-0.7769,0.2402-1.2368,0.2402c-0.7622,0-1.3433-0.1583-1.7427-0.475S167.931,201.7335,167.8206,201.1113z"/>
		<path d="M177.7171,202.862v-0.8616c-0.4565,0.6627-1.0767,0.9941-1.8608,0.9941c-0.3462,0-0.6694-0.0663-0.9692-0.1989
			c-0.3003-0.1326-0.5229-0.2991-0.6685-0.4998s-0.2476-0.4464-0.3066-0.7374c-0.0405-0.1951-0.0605-0.5044-0.0605-0.9277v-3.6342
			h0.9941v3.2531c0,0.5192,0.02,0.869,0.0605,1.0493c0.0625,0.2615,0.1953,0.4667,0.3979,0.6158
			c0.2021,0.149,0.4526,0.2236,0.751,0.2236s0.5781-0.0764,0.8394-0.2292c0.2612-0.1527,0.4463-0.3607,0.5552-0.624
			c0.1084-0.2632,0.1626-0.6453,0.1626-1.146v-3.1426h0.9941v5.8654H177.7171z"/>
		<path d="M183.991,202.1385c-0.3682,0.313-0.7227,0.5339-1.063,0.6627c-0.3403,0.1289-0.7061,0.1934-1.0962,0.1934
			c-0.6445,0-1.1396-0.1575-1.4858-0.4722c-0.3462-0.3148-0.519-0.717-0.519-1.2068c0-0.2872,0.0654-0.5496,0.1963-0.7871
			c0.1304-0.2374,0.3018-0.428,0.5132-0.5715c0.2119-0.1437,0.4502-0.2522,0.7153-0.3259c0.1953-0.0515,0.4897-0.1012,0.8838-0.149
			c0.8027-0.0957,1.3936-0.2098,1.7729-0.3424c0.0034-0.1362,0.0054-0.2228,0.0054-0.2596c0-0.4049-0.0938-0.6903-0.2817-0.8561
			c-0.2539-0.2245-0.6313-0.3368-1.1318-0.3368c-0.4678,0-0.813,0.0819-1.0356,0.2457c-0.2231,0.1638-0.3877,0.4539-0.4946,0.8699
			l-0.9717-0.1326c0.0884-0.416,0.2334-0.752,0.436-1.0079c0.2026-0.2559,0.4951-0.4529,0.8784-0.5909
			c0.3828-0.1381,0.8262-0.2072,1.3311-0.2072c0.5005,0,0.9072,0.059,1.2202,0.1768c0.313,0.1179,0.543,0.2661,0.6904,0.4446
			c0.1475,0.1787,0.2505,0.4042,0.3096,0.6766c0.0327,0.1693,0.0493,0.4749,0.0493,0.9167v1.3256
			c0,0.9242,0.0215,1.5087,0.0635,1.7534c0.0425,0.245,0.1265,0.4797,0.2515,0.7042h-1.0381
			C184.0867,202.6558,184.0208,202.4146,183.991,202.1385z M183.9085,199.9183c-0.3608,0.1473-0.9023,0.2726-1.624,0.3756
			c-0.4087,0.0588-0.6978,0.1251-0.8667,0.1987c-0.1694,0.0737-0.3003,0.1814-0.3926,0.3231
			c-0.0918,0.1418-0.1377,0.2992-0.1377,0.4723c0,0.265,0.1001,0.486,0.3008,0.6627s0.4941,0.265,0.8809,0.265
			c0.3828,0,0.7236-0.0836,1.022-0.2512c0.2983-0.1675,0.5171-0.3967,0.6572-0.6876c0.1064-0.2245,0.1602-0.5559,0.1602-0.9941
			V199.9183z"/>
		<path d="M186.4436,202.862v-5.8654h0.895v0.8892c0.228-0.416,0.439-0.6903,0.6323-0.8229s0.4058-0.1989,0.6377-0.1989
			c0.335,0,0.6758,0.1068,1.022,0.3203l-0.3428,0.9224c-0.2427-0.1436-0.4858-0.2153-0.729-0.2153
			c-0.2173,0-0.4121,0.0653-0.5854,0.196c-0.1729,0.1307-0.2964,0.312-0.3696,0.5439c-0.1108,0.3535-0.166,0.7401-0.166,1.1598
			v3.0708H186.4436z"/>
		<path d="M190.2269,195.9086v-1.1432h0.9941v1.1432H190.2269z M190.2269,202.862v-5.8654h0.9941v5.8654H190.2269z"/>
		<path d="M192.3641,199.9294c0-1.0862,0.3018-1.8907,0.9058-2.4136c0.5044-0.4344,1.1191-0.6517,1.8447-0.6517
			c0.8062,0,1.4653,0.2643,1.9771,0.7926s0.7681,1.2583,0.7681,2.1898c0,0.7548-0.1133,1.3485-0.3398,1.7811
			c-0.2266,0.4327-0.5562,0.7687-0.9888,1.0079s-0.9048,0.359-1.4165,0.359c-0.8213,0-1.4849-0.2632-1.9912-0.7898
			C192.6175,201.6783,192.3641,200.9199,192.3641,199.9294z M193.386,199.9294c0,0.7511,0.1636,1.3135,0.4912,1.6873
			c0.3276,0.3737,0.7402,0.5605,1.2373,0.5605c0.4932,0,0.9038-0.1879,1.2314-0.5634c0.3276-0.3756,0.4917-0.948,0.4917-1.7177
			c0-0.7253-0.165-1.2748-0.4941-1.6486c-0.3296-0.3737-0.7393-0.5605-1.229-0.5605c-0.4971,0-0.9097,0.1859-1.2373,0.5577
			C193.5496,198.6168,193.386,199.1782,193.386,199.9294z"/>
		<path d="M179.3025,213.2304v-1.9386h-3.5127v-0.9113l3.6948-5.2467h0.812v5.2467h1.0933v0.9113h-1.0933v1.9386H179.3025z
			 M179.3025,210.3806v-3.6506l-2.5352,3.6506H179.3025z"/>
	</g>
	<ellipse style="fill:#BC514A;" cx="161.2355" cy="84.8393" rx="41.6593" ry="22.2936"/>
	<g>
		<ellipse style="fill:#FFFFFF;" cx="161.2355" cy="84.7442" rx="36.4097" ry="18.6867"/>
	</g>
	<g>
		<path d="M141.0975,87.5905l3.1094-8.0966h1.1543l3.314,8.0966h-1.2207l-0.9443-2.4521h-3.3857l-0.8892,2.4521H141.0975z
			 M143.4339,84.2657h2.7446l-0.8447-2.2423c-0.2578-0.6812-0.4497-1.2407-0.5747-1.679c-0.103,0.5192-0.2485,1.0347-0.436,1.5464
			L143.4339,84.2657z"/>
		<path d="M149.4041,87.5905v-5.8654h0.8945v0.834c0.4312-0.6443,1.0532-0.9666,1.8667-0.9666c0.3535,0,0.6787,0.0636,0.9751,0.1906
			c0.2964,0.1271,0.5181,0.2937,0.6655,0.4999c0.147,0.2062,0.2505,0.451,0.3091,0.7345c0.0371,0.1842,0.0552,0.5063,0.0552,0.9666
			v3.6064h-0.9941v-3.5677c0-0.405-0.0386-0.7079-0.1157-0.9086c-0.0776-0.2007-0.2148-0.3608-0.4116-0.4805
			s-0.4277-0.1796-0.6929-0.1796c-0.4238,0-0.7891,0.1345-1.0967,0.4032c-0.3071,0.2688-0.4609,0.7787-0.4609,1.5299v3.2032
			H149.4041z"/>
		<path d="M159.5218,86.867c-0.3682,0.313-0.7227,0.5339-1.063,0.6627c-0.3403,0.1289-0.7061,0.1934-1.0962,0.1934
			c-0.6445,0-1.1396-0.1575-1.4858-0.4722c-0.3462-0.3148-0.519-0.717-0.519-1.2068c0-0.2872,0.0654-0.5496,0.1963-0.7871
			c0.1304-0.2374,0.3018-0.428,0.5132-0.5715c0.2119-0.1437,0.4502-0.2522,0.7153-0.3259c0.1953-0.0515,0.4897-0.1012,0.8838-0.149
			c0.8027-0.0957,1.3936-0.2098,1.7729-0.3424c0.0034-0.1362,0.0054-0.2228,0.0054-0.2596c0-0.4049-0.0938-0.6903-0.2817-0.8561
			c-0.2539-0.2245-0.6313-0.3368-1.1318-0.3368c-0.4678,0-0.813,0.0819-1.0356,0.2457c-0.2231,0.1638-0.3877,0.4539-0.4946,0.8699
			l-0.9717-0.1326c0.0884-0.416,0.2334-0.752,0.436-1.0079c0.2026-0.2559,0.4951-0.4529,0.8784-0.5909
			c0.3828-0.1381,0.8262-0.2072,1.3311-0.2072c0.5005,0,0.9072,0.059,1.2202,0.1768c0.313,0.1179,0.543,0.2661,0.6904,0.4446
			c0.1475,0.1787,0.2505,0.4042,0.3096,0.6766c0.0327,0.1693,0.0493,0.4749,0.0493,0.9167v1.3256
			c0,0.9242,0.0215,1.5087,0.0635,1.7534c0.0425,0.245,0.1265,0.4797,0.2515,0.7042h-1.0381
			C159.6175,87.3843,159.5516,87.1431,159.5218,86.867z M159.4393,84.6468c-0.3608,0.1473-0.9023,0.2726-1.624,0.3756
			c-0.4087,0.0588-0.6978,0.1251-0.8667,0.1987c-0.1694,0.0737-0.3003,0.1814-0.3926,0.3231
			c-0.0918,0.1418-0.1377,0.2992-0.1377,0.4723c0,0.265,0.1001,0.486,0.3008,0.6627s0.4941,0.265,0.8809,0.265
			c0.3828,0,0.7236-0.0836,1.022-0.2512c0.2983-0.1675,0.5171-0.3967,0.6572-0.6876c0.1064-0.2245,0.1602-0.5559,0.1602-0.9941
			V84.6468z"/>
		<path d="M161.9632,87.5905V79.494h0.9941v8.0966H161.9632z"/>
		<path d="M164.5037,80.6371V79.494h0.9941v1.1432H164.5037z M164.5037,87.5905v-5.8654h0.9941v5.8654H164.5037z"/>
		<path d="M166.6136,85.8398l0.9829-0.1547c0.0552,0.394,0.209,0.6959,0.4609,0.9058c0.2524,0.2098,0.605,0.3148,1.0576,0.3148
			c0.4565,0,0.7954-0.093,1.0166-0.2789c0.2207-0.1859,0.3311-0.4041,0.3311-0.6544c0-0.2246-0.0977-0.4014-0.2925-0.5303
			c-0.1362-0.0884-0.4751-0.2006-1.0161-0.3369c-0.729-0.1841-1.2344-0.3433-1.5161-0.4777s-0.4956-0.3203-0.6406-0.5579
			c-0.1455-0.2374-0.2183-0.4998-0.2183-0.787c0-0.2614,0.0596-0.5034,0.1797-0.7263c0.1191-0.2227,0.2822-0.4077,0.4888-0.5551
			c0.1543-0.114,0.3652-0.2107,0.6323-0.2899c0.2666-0.0791,0.5532-0.1188,0.8584-0.1188c0.4604,0,0.8647,0.0663,1.2124,0.1989
			c0.3481,0.1326,0.605,0.312,0.7705,0.5385s0.2798,0.5294,0.3423,0.9086l-0.9717,0.1326
			c-0.0444-0.3019-0.1724-0.5376-0.3838-0.7069c-0.2119-0.1693-0.5112-0.2542-0.8975-0.2542c-0.457,0-0.7827,0.0756-0.9775,0.2264
			c-0.1953,0.151-0.293,0.3278-0.293,0.5303c0,0.1289,0.0405,0.2449,0.1216,0.3479c0.0811,0.1068,0.208,0.1952,0.3809,0.2651
			c0.0996,0.0369,0.3921,0.1215,0.8784,0.254c0.7031,0.1877,1.1938,0.3416,1.4717,0.4612s0.4961,0.2937,0.6543,0.5219
			c0.1587,0.2284,0.2378,0.5118,0.2378,0.8506c0,0.3314-0.0967,0.6434-0.29,0.9362s-0.4722,0.5192-0.8369,0.6793
			c-0.3643,0.1602-0.7769,0.2402-1.2368,0.2402c-0.7622,0-1.3433-0.1583-1.7427-0.475S166.7239,86.462,166.6136,85.8398z"/>
		<path d="M174.8367,86.7014l0.1436,0.8782c-0.2798,0.0588-0.5303,0.0883-0.751,0.0883c-0.3608,0-0.6406-0.0571-0.8394-0.1711
			c-0.1987-0.1141-0.3389-0.2642-0.4199-0.4502c-0.0811-0.1858-0.1216-0.577-0.1216-1.1736v-3.3745h-0.729v-0.7732h0.729v-1.4525
			l0.9888-0.5964v2.049h0.9995v0.7732h-0.9995v3.4298c0,0.2836,0.0176,0.4658,0.0522,0.5468
			c0.0352,0.0811,0.0923,0.1455,0.1714,0.1932c0.0791,0.048,0.1924,0.0718,0.3398,0.0718
			C174.511,86.7399,174.6565,86.7271,174.8367,86.7014z"/>
		<path d="M179.636,86.867c-0.3682,0.313-0.7227,0.5339-1.063,0.6627c-0.3403,0.1289-0.7061,0.1934-1.0962,0.1934
			c-0.6445,0-1.1396-0.1575-1.4858-0.4722c-0.3462-0.3148-0.519-0.717-0.519-1.2068c0-0.2872,0.0654-0.5496,0.1963-0.7871
			c0.1304-0.2374,0.3018-0.428,0.5132-0.5715c0.2119-0.1437,0.4502-0.2522,0.7153-0.3259c0.1953-0.0515,0.4897-0.1012,0.8838-0.149
			c0.8027-0.0957,1.3936-0.2098,1.7729-0.3424c0.0034-0.1362,0.0054-0.2228,0.0054-0.2596c0-0.4049-0.0938-0.6903-0.2817-0.8561
			c-0.2539-0.2245-0.6313-0.3368-1.1318-0.3368c-0.4678,0-0.813,0.0819-1.0356,0.2457c-0.2231,0.1638-0.3877,0.4539-0.4946,0.8699
			l-0.9717-0.1326c0.0884-0.416,0.2334-0.752,0.436-1.0079c0.2026-0.2559,0.4951-0.4529,0.8784-0.5909
			c0.3828-0.1381,0.8262-0.2072,1.3311-0.2072c0.5005,0,0.9072,0.059,1.2202,0.1768c0.313,0.1179,0.543,0.2661,0.6904,0.4446
			c0.1475,0.1787,0.2505,0.4042,0.3096,0.6766c0.0327,0.1693,0.0493,0.4749,0.0493,0.9167v1.3256
			c0,0.9242,0.0215,1.5087,0.0635,1.7534c0.0425,0.245,0.1265,0.4797,0.2515,0.7042h-1.0381
			C179.7317,87.3843,179.6658,87.1431,179.636,86.867z M179.5535,84.6468c-0.3608,0.1473-0.9023,0.2726-1.624,0.3756
			c-0.4087,0.0588-0.6978,0.1251-0.8667,0.1987c-0.1694,0.0737-0.3003,0.1814-0.3926,0.3231
			c-0.0918,0.1418-0.1377,0.2992-0.1377,0.4723c0,0.265,0.1001,0.486,0.3008,0.6627s0.4941,0.265,0.8809,0.265
			c0.3828,0,0.7236-0.0836,1.022-0.2512c0.2983-0.1675,0.5171-0.3967,0.6572-0.6876c0.1064-0.2245,0.1602-0.5559,0.1602-0.9941
			V84.6468z"/>
	</g>
	<ellipse style="fill:#E27E05;" cx="45.4692" cy="134.2336" rx="41.6593" ry="22.2936"/>
	<g>
		<ellipse style="fill:#FFFFFF;" cx="45.4692" cy="134.1385" rx="36.4097" ry="18.6867"/>
	</g>
	<g>
		<path d="M23.1966,134.1463l1.0718,0.2706c-0.2246,0.88-0.6289,1.551-1.2124,2.0131c-0.5835,0.4622-1.2969,0.6931-2.1401,0.6931
			c-0.8726,0-1.5825-0.1776-2.1289-0.533c-0.5469-0.3552-0.9629-0.8699-1.2485-1.5437c-0.2852-0.6737-0.4277-1.3972-0.4277-2.1704
			c0-0.8431,0.1611-1.5786,0.4829-2.2064c0.3223-0.6278,0.7808-1.1046,1.3755-1.4304c0.5947-0.3259,1.249-0.4889,1.9634-0.4889
			c0.8101,0,1.4912,0.2063,2.0435,0.6187s0.937,0.9923,1.1543,1.7397l-1.0547,0.2485c-0.188-0.5891-0.4604-1.0181-0.8174-1.2869
			c-0.3574-0.2688-0.8066-0.4032-1.3477-0.4032c-0.6226,0-1.1426,0.1492-1.5605,0.4474s-0.7114,0.6986-0.8809,1.2012
			s-0.2539,1.0209-0.2539,1.5547c0,0.6886,0.1001,1.2897,0.3008,1.8032c0.2007,0.5137,0.5127,0.8976,0.9365,1.1516
			c0.4233,0.254,0.8813,0.3811,1.375,0.3811c0.6001,0,1.1084-0.1731,1.5244-0.5192S23.0496,134.8275,23.1966,134.1463z"/>
		<path d="M25.0911,134.0524c0-1.0862,0.3018-1.8907,0.9058-2.4136c0.5044-0.4344,1.1191-0.6517,1.8447-0.6517
			c0.8062,0,1.4653,0.2643,1.9771,0.7926s0.7681,1.2583,0.7681,2.1898c0,0.7548-0.1133,1.3485-0.3398,1.7811
			c-0.2266,0.4327-0.5562,0.7687-0.9888,1.0079s-0.9048,0.359-1.4165,0.359c-0.8213,0-1.4849-0.2632-1.9912-0.7898
			C25.3445,135.8013,25.0911,135.0429,25.0911,134.0524z M26.1131,134.0524c0,0.7511,0.1636,1.3135,0.4912,1.6873
			c0.3276,0.3737,0.7402,0.5605,1.2373,0.5605c0.4932,0,0.9038-0.1879,1.2314-0.5634c0.3276-0.3756,0.4917-0.948,0.4917-1.7177
			c0-0.7253-0.165-1.2748-0.4941-1.6486c-0.3296-0.3737-0.7393-0.5605-1.229-0.5605c-0.4971,0-0.9097,0.1859-1.2373,0.5577
			C26.2767,132.7398,26.1131,133.3012,26.1131,134.0524z"/>
		<path d="M31.7518,136.985v-5.8654h0.8945v0.834c0.4312-0.6443,1.0532-0.9666,1.8667-0.9666c0.3535,0,0.6787,0.0636,0.9751,0.1906
			c0.2964,0.1271,0.5181,0.2937,0.6655,0.4999c0.147,0.2062,0.2505,0.451,0.3091,0.7345c0.0371,0.1842,0.0552,0.5063,0.0552,0.9666
			v3.6064h-0.9941v-3.5677c0-0.405-0.0386-0.7079-0.1157-0.9086c-0.0776-0.2007-0.2148-0.3608-0.4116-0.4805
			s-0.4277-0.1796-0.6929-0.1796c-0.4238,0-0.7891,0.1345-1.0967,0.4032c-0.3071,0.2688-0.4609,0.7787-0.4609,1.5299v3.2032H31.7518
			z"/>
		<path d="M37.6448,135.2343l0.9829-0.1547c0.0552,0.394,0.209,0.6959,0.4609,0.9058c0.2524,0.2098,0.605,0.3148,1.0576,0.3148
			c0.4565,0,0.7954-0.093,1.0166-0.2789c0.2207-0.1859,0.3311-0.4041,0.3311-0.6544c0-0.2246-0.0977-0.4014-0.2925-0.5303
			c-0.1362-0.0884-0.4751-0.2006-1.0161-0.3369c-0.729-0.1841-1.2344-0.3433-1.5161-0.4777s-0.4956-0.3203-0.6406-0.5579
			c-0.1455-0.2374-0.2183-0.4998-0.2183-0.787c0-0.2614,0.0596-0.5034,0.1797-0.7263c0.1191-0.2227,0.2822-0.4077,0.4888-0.5551
			c0.1543-0.114,0.3652-0.2107,0.6323-0.2899c0.2666-0.0791,0.5532-0.1188,0.8584-0.1188c0.4604,0,0.8647,0.0663,1.2124,0.1989
			c0.3481,0.1326,0.605,0.312,0.7705,0.5385s0.2798,0.5294,0.3423,0.9086l-0.9717,0.1326
			c-0.0444-0.3019-0.1724-0.5376-0.3838-0.7069c-0.2119-0.1693-0.5112-0.2542-0.8975-0.2542c-0.457,0-0.7827,0.0756-0.9775,0.2264
			c-0.1953,0.151-0.293,0.3278-0.293,0.5303c0,0.1289,0.0405,0.2449,0.1216,0.3479c0.0811,0.1068,0.208,0.1952,0.3809,0.2651
			c0.0996,0.0369,0.3921,0.1215,0.8784,0.254c0.7031,0.1877,1.1938,0.3416,1.4717,0.4612s0.4961,0.2937,0.6543,0.5219
			c0.1587,0.2284,0.2378,0.5118,0.2378,0.8506c0,0.3314-0.0967,0.6434-0.29,0.9362s-0.4722,0.5192-0.8369,0.6793
			c-0.3643,0.1602-0.7769,0.2402-1.2368,0.2402c-0.7622,0-1.3433-0.1583-1.7427-0.475S37.7552,135.8565,37.6448,135.2343z"/>
		<path d="M47.5418,136.985v-0.8616c-0.4565,0.6627-1.0767,0.9941-1.8608,0.9941c-0.3462,0-0.6694-0.0663-0.9692-0.1989
			c-0.3003-0.1326-0.5229-0.2991-0.6685-0.4998s-0.2476-0.4464-0.3066-0.7374c-0.0405-0.1951-0.0605-0.5044-0.0605-0.9277v-3.6342
			h0.9941v3.2531c0,0.5192,0.02,0.869,0.0605,1.0493c0.0625,0.2615,0.1953,0.4667,0.3979,0.6158
			c0.2021,0.149,0.4526,0.2236,0.751,0.2236s0.5781-0.0764,0.8394-0.2292c0.2612-0.1527,0.4463-0.3607,0.5552-0.624
			c0.1084-0.2632,0.1626-0.6453,0.1626-1.146v-3.1426h0.9941v5.8654H47.5418z"/>
		<path d="M49.9666,136.985v-8.0966h0.9941v8.0966H49.9666z"/>
		<path d="M54.6717,136.0959l0.1436,0.8782c-0.2798,0.0588-0.5303,0.0883-0.751,0.0883c-0.3608,0-0.6406-0.0571-0.8394-0.1711
			c-0.1987-0.1141-0.3389-0.2642-0.4199-0.4502c-0.0811-0.1858-0.1216-0.577-0.1216-1.1736v-3.3745h-0.729v-0.7732h0.729v-1.4525
			l0.9888-0.5964v2.049h0.9995v0.7732h-0.9995v3.4298c0,0.2836,0.0176,0.4658,0.0522,0.5468
			c0.0352,0.0811,0.0923,0.1455,0.1714,0.1932c0.0791,0.048,0.1924,0.0718,0.3398,0.0718
			C54.346,136.1345,54.4915,136.1216,54.6717,136.0959z"/>
		<path d="M55.2737,134.0524c0-1.0862,0.3018-1.8907,0.9058-2.4136c0.5044-0.4344,1.1191-0.6517,1.8447-0.6517
			c0.8062,0,1.4653,0.2643,1.9771,0.7926s0.7681,1.2583,0.7681,2.1898c0,0.7548-0.1133,1.3485-0.3398,1.7811
			c-0.2266,0.4327-0.5562,0.7687-0.9888,1.0079s-0.9048,0.359-1.4165,0.359c-0.8213,0-1.4849-0.2632-1.9912-0.7898
			C55.5271,135.8013,55.2737,135.0429,55.2737,134.0524z M56.2957,134.0524c0,0.7511,0.1636,1.3135,0.4912,1.6873
			c0.3276,0.3737,0.7402,0.5605,1.2373,0.5605c0.4932,0,0.9038-0.1879,1.2314-0.5634c0.3276-0.3756,0.4917-0.948,0.4917-1.7177
			c0-0.7253-0.165-1.2748-0.4941-1.6486c-0.3296-0.3737-0.7393-0.5605-1.229-0.5605c-0.4971,0-0.9097,0.1859-1.2373,0.5577
			C56.4593,132.7398,56.2957,133.3012,56.2957,134.0524z"/>
		<path d="M61.9231,136.985v-5.8654h0.895v0.8892c0.228-0.416,0.439-0.6903,0.6323-0.8229s0.4058-0.1989,0.6377-0.1989
			c0.335,0,0.6758,0.1068,1.022,0.3203l-0.3428,0.9224c-0.2427-0.1436-0.4858-0.2153-0.729-0.2153
			c-0.2173,0-0.4121,0.0653-0.5854,0.196c-0.1729,0.1307-0.2964,0.312-0.3696,0.5439c-0.1108,0.3535-0.166,0.7401-0.166,1.1598
			v3.0708H61.9231z"/>
		<path d="M73.7923,136.0296v0.9554h-5.3521c-0.0073-0.2393,0.0313-0.4695,0.1162-0.6903c0.1362-0.3646,0.354-0.7235,0.6543-1.077
			s0.7339-0.7622,1.3008-1.2261c0.8799-0.7217,1.4746-1.2932,1.7837-1.7148c0.3096-0.4216,0.4639-0.8202,0.4639-1.1958
			c0-0.3939-0.1406-0.7262-0.4224-0.9968s-0.6489-0.406-1.1016-0.406c-0.479,0-0.8618,0.1437-1.1489,0.4308
			c-0.2871,0.2872-0.4326,0.6849-0.4365,1.193l-1.0215-0.105c0.0698-0.7621,0.333-1.3429,0.7896-1.7424
			c0.4565-0.3994,1.0698-0.5992,1.8394-0.5992c0.7769,0,1.3916,0.2155,1.8447,0.6462c0.4526,0.4308,0.6792,0.9646,0.6792,1.6016
			c0,0.3241-0.0664,0.6426-0.1987,0.9556c-0.1328,0.313-0.3525,0.6425-0.6602,0.9885c-0.3076,0.3462-0.8184,0.8212-1.5327,1.4249
			c-0.5962,0.5007-0.9795,0.8405-1.1484,1.019c-0.1694,0.1786-0.3096,0.358-0.4199,0.5385H73.7923z"/>
	</g>
	<g>
		<g>
			
				<line style="fill:none;stroke:#424140;stroke-width:0.5;stroke-miterlimit:10;" x1="103.6121" y1="51.1799" x2="103.6121" y2="52.6799"/>
			
				<line style="fill:none;stroke:#424140;stroke-width:0.5;stroke-miterlimit:10;stroke-dasharray:2.9267,2.9267;" x1="103.6121" y1="55.6061" x2="103.6121" y2="165.3561"/>
			
				<line style="fill:none;stroke:#424140;stroke-width:0.5;stroke-miterlimit:10;" x1="103.6121" y1="166.8195" x2="103.6121" y2="168.3195"/>
		</g>
	</g>
	<polyline style="fill:none;stroke:#424140;stroke-width:0.5;stroke-miterlimit:10;stroke-dasharray:3,3;" points="
		32.0787,178.5336 32.0787,172.7432 178.7928,172.7432 178.7928,178.5336 	"/>
	
		<line style="fill:none;stroke:#424140;stroke-width:0.5;stroke-miterlimit:10;stroke-dasharray:3,3;" x1="76.6547" y1="172.7432" x2="76.6547" y2="216.9174"/>
	
		<line style="fill:none;stroke:#424140;stroke-width:0.5;stroke-miterlimit:10;stroke-dasharray:3,3;" x1="134.3805" y1="172.7432" x2="134.3805" y2="216.9174"/>
	
		<line style="fill:none;stroke:#424140;stroke-width:0.5;stroke-miterlimit:10;stroke-dasharray:3,3;" x1="119.5762" y1="83.0181" x2="87.6642" y2="83.0181"/>
	
		<line style="fill:none;stroke:#424140;stroke-width:0.5;stroke-miterlimit:10;stroke-dasharray:3,3;" x1="103.5658" y1="134.1385" x2="87.6642" y2="134.1385"/>
	<g>
		<path style="fill:#348EA9;" d="M78.1006,15.7223c1.1265,0,2.0392-0.9137,2.0392-2.0382c0-1.1242-0.9127-2.0362-2.0392-2.0362
			c-1.1238,0-2.0348,0.9121-2.0348,2.0362C76.0658,14.8086,76.9768,15.7223,78.1006,15.7223z M82.7559,18.338
			c0-1.0269-0.8325-1.8581-1.8581-1.8581h-5.7241c-1.0239,0-1.8561,0.8312-1.8561,1.8581l0.0057,7.4993
			c0,0.4484,0.3629,0.8119,0.8102,0.8119c0.4474,0,0.8102-0.3635,0.8102-0.8119v-6.8542h0.3432v18.3323
			c0,0.6711,0.5442,1.215,1.2173,1.215c0.6688,0,1.2127-0.5439,1.2127-1.215V27.2774h0.6644v10.0351
			c0,0.6727,0.5442,1.218,1.2173,1.218c0.669,0,1.2133-0.5452,1.2133-1.218V18.9832h0.3269v6.8269
			c0,0.4491,0.3628,0.8132,0.8112,0.8132c0.4491,0,0.8119-0.3641,0.8119-0.8132L82.7559,18.338z"/>
	</g>
</g>
</svg>
