<?xml version="1.0" encoding="utf-8"?>
<!-- Generator: Adobe Illustrator 21.0.2, SVG Export Plug-In . SVG Version: 6.00 Build 0)  -->
<svg version="1.1" id="Capa_1" xmlns="http://www.w3.org/2000/svg" xmlns:xlink="http://www.w3.org/1999/xlink" x="0px" y="0px"
	 viewBox="0 0 210.5815 134.1717" style="enable-background:new 0 0 210.5815 134.1717;" xml:space="preserve">
<g id="Creat_Idea_1_">
	<g id="Laptop_3_">
		<g>
			<rect x="72.5094" y="43.8117" style="fill-rule:evenodd;clip-rule:evenodd;fill:#003333;" width="77.5327" height="3.6002"/>
			<path style="fill-rule:evenodd;clip-rule:evenodd;fill:#34495E;" d="M168.9001,0H52.2822c-5.3454,0-6.9956,3.3564-5.9638,7.3229
				c-0.0009-0.0492,0.0068-0.0954,0.0087-0.1436c-0.0101,0.2679,0.0111,0.5397,0.0844,0.8173l8.44,31.8582
				c1.2753,4.8379,2.4194,4.9882,8.7118,4.9786l97.5068-0.0096c5.0634,0,7.5311,0.0096,8.5335-4.8465l6.5739-31.9806
				c0.025-0.1215,0.0347-0.2429,0.0444-0.3644c0.0009,0.0029,0.0019,0.0058,0.0019,0.0087l0.3191-2.7096
				C176.993,1.041,171.8728,0,168.9001,0z M46.3783,6.7551c-0.015,0.0752-0.0294,0.1504-0.0381,0.2266
				C46.3488,6.9055,46.3633,6.8303,46.3783,6.7551z M46.6313,6.0139c-0.0179,0.0366-0.039,0.0723-0.0559,0.1099
				C46.5922,6.0862,46.6134,6.0505,46.6313,6.0139z M46.4872,6.3589c-0.0217,0.0617-0.0453,0.1225-0.0627,0.1851
				C46.4424,6.4814,46.4655,6.4207,46.4872,6.3589z M51.2474,3.2397c0.176-0.0155,0.3524-0.0241,0.5283-0.0241
				C51.5998,3.2156,51.4234,3.2243,51.2474,3.2397z M48.0049,4.4456c0.0121-0.0087,0.0236-0.0184,0.0361-0.027
				C48.0289,4.4272,48.0169,4.4369,48.0049,4.4456z M48.3875,4.1893c0.0251-0.0155,0.0487-0.0309,0.0743-0.0463
				C48.4362,4.1583,48.4126,4.1738,48.3875,4.1893z M48.8054,3.954c0.0372-0.0192,0.0737-0.0386,0.1113-0.0568
				C48.8791,3.9154,48.842,3.9348,48.8054,3.954z M49.2536,3.7439c0.0492-0.0213,0.0979-0.0405,0.1475-0.0607
				C49.3515,3.7034,49.3027,3.7227,49.2536,3.7439z M49.7254,3.5636c0.0631-0.0213,0.1267-0.0395,0.1904-0.0597
				C49.8522,3.5231,49.7885,3.5424,49.7254,3.5636z M50.218,3.418c0.0795-0.0202,0.1595-0.0366,0.2386-0.0539
				C50.3775,3.3814,50.2975,3.3978,50.218,3.418z M50.7269,3.3081c0.1027-0.0174,0.2063-0.0289,0.309-0.0414
				C50.9332,3.2792,50.8296,3.2908,50.7269,3.3081z"/>
			<path style="opacity:0.5;fill-rule:evenodd;clip-rule:evenodd;" d="M52.2822,0h116.6178c2.9727,0,8.093,1.041,7.6429,4.9314
				l-0.3191,2.7096c-0.4299-2.0155-2.9438-4.4254-5.4094-4.4254H51.7757c-2.6816,0-5.4856,1.8565-5.4572,4.1073
				C45.2866,3.3564,46.9369,0,52.2822,0L52.2822,0z"/>
			<polygon style="opacity:0.8;fill-rule:evenodd;clip-rule:evenodd;fill:#FFFFFF;" points="52.2537,5.4664 170.9724,5.3344 
				164.5683,42.443 59.6995,42.4709 			"/>
			<path style="fill-rule:evenodd;clip-rule:evenodd;fill:#ECF0F1;" d="M58.0869,45.9207h107.0626
				c1.7726,0,3.2262,1.4536,3.2262,3.2253v59.0366c0,1.7726-1.4535,3.2262-3.2262,3.2262H58.0869
				c-1.7726,0-3.2257-1.4536-3.2257-3.2262V49.146C54.8611,47.3743,56.3143,45.9207,58.0869,45.9207L58.0869,45.9207z"/>
			<rect x="96.4506" y="91.4386" style="fill-rule:evenodd;clip-rule:evenodd;fill:#003333;" width="30.3265" height="15.8737"/>
			<rect x="60.4899" y="51.4517" style="opacity:0.3;fill-rule:evenodd;clip-rule:evenodd;" width="102.2565" height="37.1704"/>
			<path style="opacity:0.3;" d="M123.9586,99.5229c0,3.7795-0.6535,6.8457-1.4593,6.8457H99.9915
				c-0.8068,0-1.4603-3.0662-1.4603-6.8457l0,0c0-3.7786,0.6535-6.8438,1.4603-6.8438h22.5078
				C123.3051,92.6791,123.9586,95.7444,123.9586,99.5229L123.9586,99.5229z"/>
		</g>
		<g id="Light_2_">
			<polygon style="opacity:0.5;fill:#FFFFFF;" points="124.7231,5.3391 99.7134,5.3344 73.4964,42.4632 91.0098,42.4546 			"/>
			<polygon style="opacity:0.5;fill:#FFFFFF;" points="137.1199,5.371 104.5016,42.4546 108.0078,42.4546 149.1012,5.343 			"/>
		</g>
		<g id="Keyboard_1_">
			<path style="fill-rule:evenodd;clip-rule:evenodd;fill:#333333;" d="M62.7035,53.6494h4.7473
				c0.2805,0,0.5032,0.2998,0.5032,0.6613v5.1116c0,0.3625-0.2227,0.6613-0.5032,0.6613h-4.7473
				c-0.2814,0-0.5138-0.2988-0.5138-0.6613v-5.1116C62.1898,53.9492,62.4221,53.6494,62.7035,53.6494L62.7035,53.6494z"/>
			<path style="fill-rule:evenodd;clip-rule:evenodd;fill:#333333;" d="M70.4052,53.6494h4.7463
				c0.2809,0,0.5133,0.2998,0.5133,0.6613v5.1116c0,0.3625-0.2324,0.6613-0.5133,0.6613h-4.7463
				c-0.2809,0-0.5133-0.2988-0.5133-0.6613v-5.1116C69.8919,53.9492,70.1242,53.6494,70.4052,53.6494L70.4052,53.6494z"/>
			<path style="fill-rule:evenodd;clip-rule:evenodd;fill:#333333;" d="M78.1165,53.6494h4.7366
				c0.2805,0,0.5133,0.2998,0.5133,0.6613v5.1116c0,0.3625-0.2328,0.6613-0.5133,0.6613h-4.7366
				c-0.2814,0-0.5142-0.2988-0.5142-0.6613v-5.1116C77.6023,53.9492,77.835,53.6494,78.1165,53.6494L78.1165,53.6494z"/>
			<path style="fill-rule:evenodd;clip-rule:evenodd;fill:#333333;" d="M85.8172,53.6494h4.7372
				c0.2906,0,0.5133,0.2998,0.5133,0.6613v5.1116c0,0.3625-0.2227,0.6613-0.5133,0.6613h-4.7372
				c-0.281,0-0.5133-0.2988-0.5133-0.6613v-5.1116C85.3039,53.9492,85.5362,53.6494,85.8172,53.6494L85.8172,53.6494z"/>
			<path style="fill-rule:evenodd;clip-rule:evenodd;fill:#333333;" d="M93.5184,53.6494h4.7472
				c0.281,0,0.5133,0.2998,0.5133,0.6613v5.1116c0,0.3625-0.2323,0.6613-0.5133,0.6613h-4.7472
				c-0.281,0-0.5133-0.2988-0.5133-0.6613v-5.1116C93.0051,53.9492,93.2374,53.6494,93.5184,53.6494L93.5184,53.6494z"/>
			<path style="fill-rule:evenodd;clip-rule:evenodd;fill:#333333;" d="M101.2296,53.6494h4.7377
				c0.2805,0,0.5128,0.2998,0.5128,0.6613v5.1116c0,0.3625-0.2323,0.6613-0.5128,0.6613h-4.7377
				c-0.2809,0-0.5133-0.2988-0.5133-0.6613v-5.1116C100.7163,53.9492,100.9487,53.6494,101.2296,53.6494L101.2296,53.6494z"/>
			<path style="fill-rule:evenodd;clip-rule:evenodd;fill:#333333;" d="M108.9313,53.6494h4.7367
				c0.2911,0,0.5127,0.2998,0.5127,0.6613v5.1116c0,0.3625-0.2217,0.6613-0.5127,0.6613h-4.7367
				c-0.281,0-0.5133-0.2988-0.5133-0.6613v-5.1116C108.418,53.9492,108.6503,53.6494,108.9313,53.6494L108.9313,53.6494z"/>
			<path style="fill-rule:evenodd;clip-rule:evenodd;fill:#333333;" d="M116.632,53.6494h4.7472
				c0.2805,0,0.5128,0.2998,0.5128,0.6613v5.1116c0,0.3625-0.2323,0.6613-0.5128,0.6613h-4.7472
				c-0.2805,0-0.5129-0.2988-0.5129-0.6613v-5.1116C116.1191,53.9492,116.3515,53.6494,116.632,53.6494L116.632,53.6494z"/>
			<path style="fill-rule:evenodd;clip-rule:evenodd;fill:#333333;" d="M124.3442,53.6494h4.7367
				c0.2805,0,0.5127,0.2998,0.5127,0.6613v5.1116c0,0.3625-0.2322,0.6613-0.5127,0.6613h-4.7367
				c-0.2921,0-0.5147-0.2988-0.5147-0.6613v-5.1116C123.8295,53.9492,124.0522,53.6494,124.3442,53.6494L124.3442,53.6494z"/>
			<path style="fill-rule:evenodd;clip-rule:evenodd;fill:#333333;" d="M132.0449,53.6494h4.7375
				c0.2902,0,0.5139,0.2998,0.5139,0.6613v5.1116c0,0.3625-0.2237,0.6613-0.5139,0.6613h-4.7375
				c-0.2815,0-0.5139-0.2988-0.5139-0.6613v-5.1116C131.5311,53.9492,131.7634,53.6494,132.0449,53.6494L132.0449,53.6494z"/>
			<path style="fill-rule:evenodd;clip-rule:evenodd;fill:#333333;" d="M139.7456,53.6494h4.7482
				c0.2805,0,0.5118,0.2998,0.5118,0.6613v5.1116c0,0.3625-0.2313,0.6613-0.5118,0.6613h-4.7482
				c-0.2805,0-0.5119-0.2988-0.5119-0.6613v-5.1116C139.2338,53.9492,139.4651,53.6494,139.7456,53.6494L139.7456,53.6494z"/>
			<path style="fill-rule:evenodd;clip-rule:evenodd;fill:#333333;" d="M74.27,62.5781h4.7377c0.2809,0,0.5128,0.2988,0.5128,0.6612
				v5.1116c0,0.3615-0.2318,0.6602-0.5128,0.6602H74.27c-0.2814,0-0.5133-0.2988-0.5133-0.6602v-5.1116
				C73.7567,62.8769,73.9885,62.5781,74.27,62.5781L74.27,62.5781z"/>
			<path style="fill-rule:evenodd;clip-rule:evenodd;fill:#333333;" d="M81.9706,62.5781h4.7473
				c0.2814,0,0.5138,0.2988,0.5138,0.6612v5.1116c0,0.3615-0.2324,0.6602-0.5138,0.6602h-4.7473
				c-0.2795,0-0.5123-0.2988-0.5123-0.6602v-5.1116C81.4584,62.8769,81.6912,62.5781,81.9706,62.5781L81.9706,62.5781z"/>
			<path style="fill-rule:evenodd;clip-rule:evenodd;fill:#333333;" d="M89.6728,62.5781h4.7468
				c0.2805,0,0.5138,0.2988,0.5138,0.6612v5.1116c0,0.3615-0.2333,0.6602-0.5138,0.6602h-4.7468
				c-0.2809,0-0.5036-0.2988-0.5036-0.6602v-5.1116C89.1692,62.8769,89.3919,62.5781,89.6728,62.5781L89.6728,62.5781z"/>
			<path style="fill-rule:evenodd;clip-rule:evenodd;fill:#333333;" d="M97.3836,62.5781h4.7372
				c0.281,0,0.5133,0.2988,0.5133,0.6612v5.1116c0,0.3615-0.2323,0.6602-0.5133,0.6602h-4.7372
				c-0.2809,0-0.5128-0.2988-0.5128-0.6602v-5.1116C96.8708,62.8769,97.1027,62.5781,97.3836,62.5781L97.3836,62.5781z"/>
			<path style="fill-rule:evenodd;clip-rule:evenodd;fill:#333333;" d="M105.0853,62.5781h4.7468
				c0.2805,0,0.5041,0.2988,0.5041,0.6612v5.1116c0,0.3615-0.2236,0.6602-0.5041,0.6602h-4.7468
				c-0.281,0-0.5133-0.2988-0.5133-0.6602v-5.1116C104.572,62.8769,104.8043,62.5781,105.0853,62.5781L105.0853,62.5781z"/>
			<path style="fill-rule:evenodd;clip-rule:evenodd;fill:#333333;" d="M112.7868,62.5781h4.7463
				c0.2815,0,0.5137,0.2988,0.5137,0.6612v5.1116c0,0.3615-0.2322,0.6602-0.5137,0.6602h-4.7463
				c-0.2814,0-0.5147-0.2988-0.5147-0.6602v-5.1116C112.2721,62.8769,112.5055,62.5781,112.7868,62.5781L112.7868,62.5781z"/>
			<path style="fill-rule:evenodd;clip-rule:evenodd;fill:#333333;" d="M120.4982,62.5781h4.7367
				c0.2805,0,0.5127,0.2988,0.5127,0.6612v5.1116c0,0.3615-0.2322,0.6602-0.5127,0.6602h-4.7367
				c-0.2815,0-0.5147-0.2988-0.5147-0.6602v-5.1116C119.9835,62.8769,120.2167,62.5781,120.4982,62.5781L120.4982,62.5781z"/>
			<path style="fill-rule:evenodd;clip-rule:evenodd;fill:#333333;" d="M128.1979,62.5781h4.7482
				c0.2795,0,0.5032,0.2988,0.5032,0.6612v5.1116c0,0.3615-0.2237,0.6602-0.5032,0.6602h-4.7482
				c-0.2805,0-0.5129-0.2988-0.5129-0.6602v-5.1116C127.6851,62.8769,127.9174,62.5781,128.1979,62.5781L128.1979,62.5781z"/>
			<path style="fill-rule:evenodd;clip-rule:evenodd;fill:#333333;" d="M135.8996,62.5781h4.7472
				c0.2805,0,0.5118,0.2988,0.5118,0.6612v5.1116c0,0.3615-0.2313,0.6602-0.5118,0.6602h-4.7472
				c-0.2805,0-0.5129-0.2988-0.5129-0.6602v-5.1116C135.3867,62.8769,135.6191,62.5781,135.8996,62.5781L135.8996,62.5781z"/>
			<path style="fill-rule:evenodd;clip-rule:evenodd;fill:#333333;" d="M143.6108,62.5781h4.7386
				c0.2805,0,0.5118,0.2988,0.5118,0.6612v5.1116c0,0.3615-0.2313,0.6602-0.5118,0.6602h-4.7386
				c-0.2815,0-0.5147-0.2988-0.5147-0.6602v-5.1116C143.0961,62.8769,143.3293,62.5781,143.6108,62.5781L143.6108,62.5781z"/>
			<path style="fill-rule:evenodd;clip-rule:evenodd;fill:#333333;" d="M147.4579,53.6494h4.7357
				c0.2815,0,0.5147,0.2998,0.5147,0.6613v5.1116c0,0.3625-0.2332,0.6613-0.5147,0.6613h-4.7357
				c-0.2902,0-0.5139-0.2988-0.5139-0.6613v-5.1116C146.944,53.9492,147.1677,53.6494,147.4579,53.6494L147.4579,53.6494z"/>
			<path style="fill-rule:evenodd;clip-rule:evenodd;fill:#333333;" d="M155.1586,53.6494h4.7367
				c0.2814,0,0.5127,0.2998,0.5127,0.6613v5.1116c0,0.3625-0.2313,0.6613-0.5127,0.6613h-4.7367
				c-0.2815,0-0.5139-0.2988-0.5139-0.6613v-5.1116C154.6447,53.9492,154.877,53.6494,155.1586,53.6494L155.1586,53.6494z"/>
			<path style="fill-rule:evenodd;clip-rule:evenodd;fill:#333333;" d="M151.4388,62.5781h8.4565
				c0.2814,0,0.5127,0.2988,0.5127,0.6612v5.1116c0,0.3615-0.2313,0.6602-0.5127,0.6602h-8.4565
				c-0.2815,0-0.5157-0.2988-0.5157-0.6602v-5.1116C150.923,62.8769,151.1573,62.5781,151.4388,62.5781L151.4388,62.5781z"/>
			<path style="fill-rule:evenodd;clip-rule:evenodd;fill:#333333;" d="M62.7807,62.5781h8.7774
				c0.2805,0,0.5123,0.2988,0.5123,0.6612v5.1116c0,0.3615-0.2318,0.6602-0.5123,0.6602h-8.7774
				c-0.2906,0-0.5133-0.2988-0.5133-0.6602v-5.1116C62.2674,62.8769,62.4901,62.5781,62.7807,62.5781L62.7807,62.5781z"/>
			<path style="fill-rule:evenodd;clip-rule:evenodd;fill:#333333;" d="M62.7807,71.5059h10.482
				c0.281,0,0.5133,0.2988,0.5133,0.6602v5.1136c0,0.3615-0.2323,0.6603-0.5133,0.6603h-10.482
				c-0.2906,0-0.5133-0.2988-0.5133-0.6603v-5.1136C62.2674,71.8046,62.4901,71.5059,62.7807,71.5059L62.7807,71.5059z"/>
			<path style="fill-rule:evenodd;clip-rule:evenodd;fill:#333333;" d="M62.7807,80.4346h4.7275
				c0.2814,0,0.5138,0.2988,0.5138,0.6603v5.1126c0,0.3615-0.2324,0.6613-0.5138,0.6613h-4.7275
				c-0.2906,0-0.5133-0.2998-0.5133-0.6613v-5.1126C62.2674,80.7334,62.4901,80.4346,62.7807,80.4346L62.7807,80.4346z"/>
			<path style="fill-rule:evenodd;clip-rule:evenodd;fill:#333333;" d="M70.4727,80.4346h4.727c0.281,0,0.5143,0.2988,0.5143,0.6603
				v5.1126c0,0.3615-0.2333,0.6613-0.5143,0.6613h-4.727c-0.2805,0-0.5133-0.2998-0.5133-0.6613v-5.1126
				C69.9594,80.7334,70.1922,80.4346,70.4727,80.4346L70.4727,80.4346z"/>
			<path style="fill-rule:evenodd;clip-rule:evenodd;fill:#333333;" d="M78.1642,80.4346h4.7275
				c0.2911,0,0.5133,0.2988,0.5133,0.6603v5.1126c0,0.3615-0.2222,0.6613-0.5133,0.6613h-4.7275
				c-0.2805,0-0.5128-0.2998-0.5128-0.6613v-5.1126C77.6514,80.7334,77.8837,80.4346,78.1642,80.4346L78.1642,80.4346z"/>
			<path style="fill-rule:evenodd;clip-rule:evenodd;fill:#333333;" d="M85.8562,80.4346h49.2587
				c0.2902,0,0.5147,0.2988,0.5147,0.6603v5.1126c0,0.3615-0.2245,0.6613-0.5147,0.6613H85.8562
				c-0.281,0-0.5133-0.2998-0.5133-0.6613v-5.1126C85.3429,80.7334,85.5752,80.4346,85.8562,80.4346L85.8562,80.4346z"/>
			<path style="fill-rule:evenodd;clip-rule:evenodd;fill:#333333;" d="M76.1105,71.5935h4.7367
				c0.2819,0,0.5138,0.2989,0.5138,0.6603v5.1126c0,0.3615-0.2318,0.6602-0.5138,0.6602h-4.7367
				c-0.2814,0-0.5133-0.2988-0.5133-0.6602v-5.1126C75.5973,71.8924,75.8291,71.5935,76.1105,71.5935L76.1105,71.5935z"/>
			<path style="fill-rule:evenodd;clip-rule:evenodd;fill:#333333;" d="M83.8123,71.5935h4.7463
				c0.281,0,0.5133,0.2989,0.5133,0.6603v5.1126c0,0.3615-0.2323,0.6602-0.5133,0.6602h-4.7463
				c-0.281,0-0.5133-0.2988-0.5133-0.6602v-5.1126C83.299,71.8924,83.5312,71.5935,83.8123,71.5935L83.8123,71.5935z"/>
			<path style="fill-rule:evenodd;clip-rule:evenodd;fill:#333333;" d="M91.5134,71.5935h4.7468
				c0.281,0,0.5138,0.2989,0.5138,0.6603v5.1126c0,0.3615-0.2328,0.6602-0.5138,0.6602h-4.7468
				c-0.2809,0-0.5036-0.2988-0.5036-0.6602v-5.1126C91.0098,71.8924,91.2324,71.5935,91.5134,71.5935L91.5134,71.5935z"/>
			<path style="fill-rule:evenodd;clip-rule:evenodd;fill:#333333;" d="M99.2242,71.5935h4.7377
				c0.2805,0,0.5128,0.2989,0.5128,0.6603v5.1126c0,0.3615-0.2323,0.6602-0.5128,0.6602h-4.7377
				c-0.2809,0-0.5128-0.2988-0.5128-0.6602v-5.1126C98.7114,71.8924,98.9432,71.5935,99.2242,71.5935L99.2242,71.5935z"/>
			<path style="fill-rule:evenodd;clip-rule:evenodd;fill:#333333;" d="M106.9259,71.5935h4.7468
				c0.2814,0,0.5032,0.2989,0.5032,0.6603v5.1126c0,0.3615-0.2218,0.6602-0.5032,0.6602h-4.7468
				c-0.2805,0-0.5133-0.2988-0.5133-0.6602v-5.1126C106.4126,71.8924,106.6454,71.5935,106.9259,71.5935L106.9259,71.5935z"/>
			<path style="fill-rule:evenodd;clip-rule:evenodd;fill:#333333;" d="M114.628,71.5935h4.7453
				c0.2805,0,0.5137,0.2989,0.5137,0.6603v5.1126c0,0.3615-0.2332,0.6602-0.5137,0.6602h-4.7453
				c-0.2815,0-0.5147-0.2988-0.5147-0.6602v-5.1126C114.1133,71.8924,114.3465,71.5935,114.628,71.5935L114.628,71.5935z"/>
			<path style="fill-rule:evenodd;clip-rule:evenodd;fill:#333333;" d="M122.3374,71.5935h4.7385
				c0.2795,0,0.5129,0.2989,0.5129,0.6603v5.1126c0,0.3615-0.2334,0.6602-0.5129,0.6602h-4.7385
				c-0.2815,0-0.5129-0.2988-0.5129-0.6602v-5.1126C121.8245,71.8924,122.0559,71.5935,122.3374,71.5935L122.3374,71.5935z"/>
			<path style="fill-rule:evenodd;clip-rule:evenodd;fill:#333333;" d="M130.0389,71.5935h4.7464
				c0.2815,0,0.5051,0.2989,0.5051,0.6603v5.1126c0,0.3615-0.2235,0.6602-0.5051,0.6602h-4.7464
				c-0.2814,0-0.5127-0.2988-0.5127-0.6602v-5.1126C129.5262,71.8924,129.7576,71.5935,130.0389,71.5935L130.0389,71.5935z"/>
			<path style="fill-rule:evenodd;clip-rule:evenodd;fill:#333333;" d="M137.7406,71.5935h8.8246
				c0.2805,0,0.5147,0.2989,0.5147,0.6603v5.1126c0,0.3615-0.2342,0.6602-0.5147,0.6602h-8.8246
				c-0.2815,0-0.5128-0.2988-0.5128-0.6602v-5.1126C137.2278,71.8924,137.4591,71.5935,137.7406,71.5935L137.7406,71.5935z"/>
			<path style="fill-rule:evenodd;clip-rule:evenodd;fill:#333333;" d="M149.3538,71.5059h10.4931
				c0.2805,0,0.5139,0.2988,0.5139,0.6602v5.1136c0,0.3615-0.2334,0.6603-0.5139,0.6603h-10.4931
				c-0.2795,0-0.5118-0.2988-0.5118-0.6603v-5.1136C148.842,71.8046,149.0744,71.5059,149.3538,71.5059L149.3538,71.5059z"/>
			<path style="fill-rule:evenodd;clip-rule:evenodd;fill:#333333;" d="M150.2965,80.4346h3.952
				c0.0964,0,0.1842,0.1002,0.1842,0.2227v1.7716c0,0.1244-0.0878,0.2246-0.1842,0.2246h-3.952
				c-0.0973,0-0.1754-0.1003-0.1754-0.2246v-1.7716C150.1212,80.5348,150.1992,80.4346,150.2965,80.4346L150.2965,80.4346z"/>
			<path style="fill-rule:evenodd;clip-rule:evenodd;fill:#333333;" d="M150.2965,84.2864h3.952
				c0.0964,0,0.1842,0.1002,0.1842,0.2256v1.7582c0,0.1243-0.0878,0.2236-0.1842,0.2236h-3.952
				c-0.0973,0-0.1754-0.0993-0.1754-0.2236v-1.7582C150.1212,84.3866,150.1992,84.2864,150.2965,84.2864L150.2965,84.2864z"/>
			<path style="fill-rule:evenodd;clip-rule:evenodd;fill:#333333;" d="M144.434,84.2864h3.953
				c0.0975,0,0.1842,0.1002,0.1842,0.2256v1.7582c0,0.1243-0.0868,0.2236-0.1842,0.2236h-3.953
				c-0.0963,0-0.1735-0.0993-0.1735-0.2236v-1.7582C144.2605,84.3866,144.3377,84.2864,144.434,84.2864L144.434,84.2864z"/>
			<path style="fill-rule:evenodd;clip-rule:evenodd;fill:#333333;" d="M156.1465,84.2864h3.952
				c0.0974,0,0.1745,0.1002,0.1745,0.2256v1.7582c0,0.1243-0.0771,0.2236-0.1745,0.2236h-3.952
				c-0.0973,0-0.1841-0.0993-0.1841-0.2236v-1.7582C155.9624,84.3866,156.0492,84.2864,156.1465,84.2864L156.1465,84.2864z"/>
			<path style="fill-rule:evenodd;clip-rule:evenodd;fill:#333333;" d="M137.5556,80.4346h4.7482
				c0.2815,0,0.5137,0.2988,0.5137,0.6603v5.1126c0,0.3615-0.2322,0.6613-0.5137,0.6613h-4.7482
				c-0.2795,0-0.5118-0.2998-0.5118-0.6613v-5.1126C137.0437,80.7334,137.2761,80.4346,137.5556,80.4346L137.5556,80.4346z"/>
		</g>
	</g>
	<g id="Hand_2_">
		<path style="fill:#EFC762;" d="M105.3398,103.2243l0.0168,1.5249c0,0-1.334,0.9196-1.4464,0.9128l-0.0067-0.6545v-0.8126V85.8257
			c0-1.0767-0.8728-1.95-1.9505-1.95h-0.1085c-1.0772,0-1.9505,0.8733-1.9505,1.95v10.0372
			c-0.4198,0.2506-0.9562,0.2564-1.2458-0.0916V80.5165c0-1.0777-0.8738-1.951-1.951-1.951h-0.1079
			c-1.0777,0-1.951,0.8733-1.951,1.951v15.3387c-0.2843,0.2024-0.7567,0.1668-1.0839-0.0048V84.6343
			c0-1.0777-0.8733-1.951-1.9505-1.951h-0.1084c-1.0772,0-1.9505,0.8733-1.9505,1.951v11.7
			c-0.3779,0.2438-0.8859,0.2236-1.1919-0.0328v-6.1411c0-1.0767-0.8733-1.95-1.951-1.95h-0.1079c-1.0777,0-1.951,0.8733-1.951,1.95
			v13.167v6.0148v2.6007l2.1115,3.1462l-0.0173,14.9618c4.4885,1.9259,9.2559,3.3245,14.225,4.1207l0.1056-18.5958l3.1356-3.633
			v-1.9057c1.3914-0.6294,2.8932-2.0348,4.2673-3.6831l-0.1692-5.5675C106.6603,100.055,105.2993,101.7216,105.3398,103.2243z"/>
		<path style="fill:#EFC762;" d="M136.9425,97.9228h-0.108c-1.0776,0-1.9509,0.8733-1.9509,1.951v6.1411
			c-0.3065,0.2554-0.8145,0.2757-1.1924,0.0318V94.3467c0-1.0777-0.8733-1.951-1.9499-1.951h-0.109
			c-1.0766,0-1.9499,0.8733-1.9499,1.951v11.216c-0.3278,0.1716-0.8001,0.2073-1.0844,0.0049V90.2289
			c0-1.0777-0.8733-1.951-1.951-1.951h-0.1079c-1.0767,0-1.9511,0.8733-1.9511,1.951v15.2548
			c-0.29,0.3479-0.826,0.3422-1.2463,0.0916V95.5391c0-1.0777-0.8723-1.951-1.9499-1.951h-0.109
			c-1.0766,0-1.9499,0.8733-1.9499,1.951v18.3683v0.8126l-0.0068,0.6555c-0.1118,0.0058-1.4459-0.9138-1.4459-0.9138l0.0163-1.5239
			c0.0405-1.5037-1.3205-3.1703-2.6613-2.4387l-0.1697,5.5676c1.3746,1.6483,2.8764,3.0537,4.2673,3.6831v1.9056l3.1355,3.633
			l0.0483,8.4275c5.0085-1.0217,9.7933-2.6633,14.2697-4.8369l-0.0048-4.0773l2.1118-3.1462v-2.6006v-6.0148V99.8738
			C138.8934,98.7961,138.0201,97.9228,136.9425,97.9228z"/>
		<path style="fill:#EFEFEF;" d="M87.6259,91.0964c0,0.7094-0.5745,1.2839-1.2834,1.2839l0,0c-0.7085,0-1.283-0.5745-1.283-1.2839
			v-0.9475c0-0.7085,0.5745-1.283,1.283-1.283l0,0c0.7089,0,1.2834,0.5745,1.2834,1.283V91.0964z"/>
		<path style="fill:#EFEFEF;" d="M92.6798,85.5693c0,0.7085-0.575,1.283-1.2835,1.283l0,0c-0.7085,0-1.2834-0.5745-1.2834-1.283
			v-0.9475c0-0.7085,0.5749-1.283,1.2834-1.283l0,0c0.7085,0,1.2835,0.5745,1.2835,1.283V85.5693z"/>
		<path style="fill:#EFEFEF;" d="M97.9702,81.6607c0,0.7085-0.5745,1.2829-1.2835,1.2829l0,0c-0.7085,0-1.2829-0.5744-1.2829-1.2829
			v-0.9475c0-0.7085,0.5744-1.283,1.2829-1.283l0,0c0.709,0,1.2835,0.5745,1.2835,1.283V81.6607z"/>
		<path style="fill:#EFEFEF;" d="M103.142,86.9949c0,0.7095-0.574,1.283-1.283,1.283l0,0c-0.709,0-1.283-0.5735-1.283-1.283v-0.9475
			c0-0.7085,0.574-1.283,1.283-1.283l0,0c0.709,0,1.283,0.5745,1.283,1.283V86.9949z"/>
		<path style="fill:#EFEFEF;" d="M106.8878,101.9394v0.9466c0,0.6863,0.5393,1.2453,1.2165,1.28l-0.1026-3.3794
			c-0.0598-0.0328-0.1191-0.0588-0.1784-0.082C107.284,100.856,106.8878,101.3514,106.8878,101.9394z"/>
		<path style="fill:#EFEFEF;" d="M116.3524,111.6595v0.9465c0,0.6863-0.5387,1.2454-1.2164,1.2801l0.1031-3.3795
			c0.0599-0.0328,0.1177-0.0588,0.1774-0.0819C115.9562,110.5761,116.3524,111.0705,116.3524,111.6595z"/>
		<path style="fill:#EFEFEF;" d="M122.5667,96.8654c0,0.7094-0.5744,1.2839-1.2829,1.2839l0,0
			c-0.7085,0-1.2829-0.5745-1.2829-1.2839v-0.9475c0-0.7085,0.5744-1.283,1.2829-1.283l0,0c0.7085,0,1.2829,0.5745,1.2829,1.283
			V96.8654z"/>
		<path style="fill:#EFEFEF;" d="M127.9366,91.4174c0,0.7085-0.5744,1.2829-1.2829,1.2829l0,0
			c-0.7095,0-1.2839-0.5744-1.2839-1.2829v-0.9475c0-0.7085,0.5744-1.283,1.2839-1.283l0,0c0.7085,0,1.2829,0.5745,1.2829,1.283
			V91.4174z"/>
		<path style="fill:#EFEFEF;" d="M132.9905,95.4446c0,0.7085-0.5746,1.283-1.2839,1.283l0,0c-0.7076,0-1.282-0.5745-1.282-1.283
			v-0.9475c0-0.7085,0.5744-1.283,1.282-1.283l0,0c0.7094,0,1.2839,0.5745,1.2839,1.283V95.4446z"/>
		<path style="fill:#EFEFEF;" d="M138.2014,101.1297c0,0.7085-0.5746,1.283-1.2831,1.283l0,0c-0.7085,0-1.2829-0.5745-1.2829-1.283
			v-0.9475c0-0.7085,0.5744-1.283,1.2829-1.283l0,0c0.7085,0,1.2831,0.5745,1.2831,1.283V101.1297z"/>
	</g>
	<g id="Point_1_">
		<g>
			<polygon style="fill:#F1C40F;" points="8.2599,68.4753 7.9799,67.2752 24.1374,63.8804 24.4175,65.0814 			"/>
			<polygon style="fill:#F1C40F;" points="13.3378,51.2715 14.1976,50.4309 25.9289,62.6253 25.0696,63.4668 			"/>
			<polygon style="fill:#F1C40F;" points="12.1705,52.2575 13.2438,52.8648 5.4496,67.4256 4.3763,66.8183 			"/>
			
				<ellipse transform="matrix(0.805 -0.5932 0.5932 0.805 -39.5923 15.8966)" style="fill:#F46464;" cx="4.3881" cy="68.1818" rx="4.3408" ry="4.4738"/>
			
				<ellipse transform="matrix(0.8051 -0.5932 0.5932 0.8051 -27.6205 18.1299)" style="fill:#F46464;" cx="13.7755" cy="51.0912" rx="3.6059" ry="3.7164"/>
			
				<ellipse transform="matrix(0.805 -0.5933 0.5933 0.805 -32.4151 28.7557)" style="fill:#F46464;" cx="27.5384" cy="63.6907" rx="5.4756" ry="5.6435"/>
		</g>
		<g>
			<polygon style="fill:#F1C40F;" points="43.6837,61.6065 43.902,61.2643 48.6266,64.3951 48.4092,64.7383 			"/>
			<g>
				<polygon style="fill:#F1C40F;" points="49.017,63.4803 48.6131,63.5353 47.721,57.9532 48.1244,57.8993 				"/>
				<polygon style="fill:#F1C40F;" points="43.3737,61.1795 43.1068,60.8594 47.3301,57.3045 47.5976,57.6236 				"/>
				<path style="fill:#F46464;" d="M48.0578,63.5102c0.682-0.428,1.5948-0.2063,2.0397,0.4945
					c0.4443,0.7017,0.2511,1.6165-0.4309,2.0445c-0.6825,0.4289-1.5953,0.2082-2.0401-0.4935
					C47.1822,64.8549,47.375,63.9391,48.0578,63.5102z"/>
				<path style="fill:#F46464;" d="M42.6517,59.9698c0.5668-0.3557,1.3254-0.1726,1.6951,0.4106
					c0.3687,0.5822,0.2087,1.3427-0.3581,1.6984c-0.5673,0.3557-1.3254,0.1726-1.6951-0.4097
					C41.9245,61.0869,42.085,60.3255,42.6517,59.9698z"/>
				<path style="fill:#F46464;" d="M46.6925,55.1945c0.8612-0.5397,2.0131-0.2612,2.5736,0.6237
					c0.5605,0.8849,0.3171,2.0396-0.5432,2.5794c-0.8607,0.5398-2.0131,0.2612-2.5741-0.6227
					C45.5888,56.8901,45.8322,55.7343,46.6925,55.1945z"/>
			</g>
		</g>
		<g>
			<polygon style="fill:#F1C40F;" points="35.1622,43.0213 34.4421,43.1177 32.8493,33.1518 33.5688,33.0554 			"/>
			<polygon style="fill:#F1C40F;" points="25.0859,38.9112 24.6098,38.3396 32.1514,31.9932 32.6275,32.5638 			"/>
			<polygon style="fill:#F1C40F;" points="25.6402,39.6756 26.0282,39.0644 34.4648,44.6552 34.0783,45.2672 			"/>
			<path style="fill:#F46464;" d="M33.4498,43.0753c1.2179-0.7644,2.8484-0.3701,3.6421,0.882
				c0.7942,1.2521,0.4492,2.887-0.7692,3.6523c-1.2179,0.7644-2.8489,0.3701-3.6417-0.882
				C31.8863,45.4745,32.231,43.8397,33.4498,43.0753z"/>
			<path style="fill:#F46464;" d="M23.7972,36.752c1.0116-0.6352,2.3664-0.3075,3.0257,0.7326
				c0.6588,1.0401,0.3735,2.3992-0.6386,3.0344c-1.0131,0.6353-2.3674,0.3065-3.0267-0.7325
				C22.4983,38.7454,22.7846,37.3872,23.7972,36.752z"/>
			<path style="fill:#F46464;" d="M31.013,28.2253c1.537-0.9639,3.5939-0.4656,4.5945,1.1133
				c1.0015,1.5789,0.5663,3.6407-0.9697,4.6056c-1.5374,0.9648-3.5954,0.4674-4.5955-1.1114
				C29.0409,31.2529,29.4756,29.1902,31.013,28.2253z"/>
		</g>
	</g>
	<g id="Document_1_">
		<path style="fill:#3F3F3F;" d="M182.7939,20.1236c0,0,0.5957-3.0874,0.7586-3.0874c0.1628,0,0.7585,0.0896,3.2493,0.7219
			c2.4927,0.6314,4.6055,1.1731,4.6055,1.1731s0.9196,0.2709,1.1375-0.3519c0.2159-0.6227,0.108-0.6227,1.3533-0.2978
			c1.2463,0.3249,3.1423,0.8666,3.1423,0.8666s0.5957,0.2169,0.5957,0.6507c0,0.4328,0,0.7576,0,0.7576l1.95,0.4878
			c0,0,0.7587,0.1619,0.3788,1.4622c-0.3788,1.3003-4.6576,16.2506-4.6576,16.2506L182.7939,20.1236z"/>
		<path style="fill:#F1C40F;" d="M182.4689,19.7988c0,0,0.5957-3.0884,0.7587-3.0884c0.1619,0,0.7587,0.0906,3.2503,0.7229
			c2.4908,0.6313,4.6036,1.1731,4.6036,1.1731s0.9215,0.2708,1.1375-0.3519c0.2169-0.6227,0.1089-0.6227,1.3542-0.2978
			c1.2463,0.3248,3.1414,0.8666,3.1414,0.8666s0.5957,0.2169,0.5957,0.6496c0,0.4338,0,0.7586,0,0.7586l1.9509,0.4877
			c0,0,0.7576,0.1629,0.3788,1.4623c-0.3788,1.3003-4.6586,16.2506-4.6586,16.2506L182.4689,19.7988z"/>
		<path style="fill:#4C4C4C;" d="M195.6273,37.6388l-3.0826-14.5907c0,0,0.1619-0.6497-0.8675-1.0295
			c-1.0295-0.3788-1.6252-0.4328-1.6252-0.4328s0.1812-1.0835-0.9388-1.4083c-1.1191-0.3248-4.4235-1.3543-4.4235-1.3543
			l-0.4867,0.3248v0.3788l-6.4467-2.004l-0.6323,0.2352l3.7746,13.7946l14.4086,7.2043L195.6273,37.6388z"/>
		<path style="fill:#E67E22;" d="M195.3074,38.757l-3.2503-15.384c0,0,0.1619-0.6497-0.8675-1.0285
			c-1.0286-0.3798-1.6252-0.4338-1.6252-0.4338s0.1812-1.0834-0.9379-1.4083c-1.1201-0.3248-4.4233-1.3543-4.4233-1.3543
			l-0.4878,0.7046l-6.4465-2.004c0,0-0.3249-0.5427,0,1.0284c0.3247,1.5712,3.1423,13.0003,3.1423,13.0003L195.3074,38.757z"/>
	</g>
	<g id="Concept_1_">
		<g id="Board_1_">
			<path style="fill-rule:evenodd;clip-rule:evenodd;fill:#F39C12;" d="M173.9837,52.9429h34.2487
				c1.2936,0,2.3491,1.1393,2.3491,2.536v44.7236c0,1.3957-1.0555,2.5408-2.3491,2.5408h-34.2487
				c-1.2888,0-2.3491-1.1451-2.3491-2.5408V55.4789C171.6346,54.0822,172.6949,52.9429,173.9837,52.9429L173.9837,52.9429z"/>
			<rect x="173.5287" y="55.154" style="fill-rule:evenodd;clip-rule:evenodd;fill:#E6E6E6;" width="35.1635" height="45.3723"/>
			<polygon style="fill-rule:evenodd;clip-rule:evenodd;fill:#474646;" points="183.8078,47.9604 198.4131,47.9604 198.4131,55.154 
				197.5995,55.154 197.5995,48.88 184.5733,48.88 184.5733,55.154 183.8078,55.154 			"/>
			<path style="fill-rule:evenodd;clip-rule:evenodd;fill:#D84848;" d="M182.6511,52.2478h16.9148
				c0.3528,0,0.6381,0.3133,0.6381,0.695v3.2262c0,0.3817-0.2853,0.6902-0.6381,0.6902h-16.9148c-0.3489,0-0.64-0.3085-0.64-0.6902
				v-3.2262C182.0112,52.5612,182.3022,52.2478,182.6511,52.2478L182.6511,52.2478z"/>
			<path style="opacity:0.2;fill-rule:evenodd;clip-rule:evenodd;fill:#231F20;" d="M190.6988,52.2478h8.8671
				c0.3528,0,0.6381,0.3133,0.6381,0.695v3.2262c0,0.3817-0.2853,0.6902-0.6381,0.6902h-8.8671V52.2478z"/>
			<path style="opacity:0.1;fill-rule:evenodd;clip-rule:evenodd;fill:#231F20;" d="M190.6988,52.9429h17.5336
				c1.2936,0,2.3491,1.1393,2.3491,2.536v44.7236c0,1.3957-1.0555,2.5408-2.3491,2.5408h-17.5336V52.9429z"/>
		</g>
		<g id="Paragraph_1_">
			<rect x="177.8856" y="63.6297" style="fill-rule:evenodd;clip-rule:evenodd;fill:#4D4D4D;" width="25.6257" height="0.8309"/>
			<rect x="177.8856" y="65.6115" style="fill-rule:evenodd;clip-rule:evenodd;fill:#336699;" width="25.6257" height="0.8309"/>
			<rect x="177.8856" y="67.4565" style="fill-rule:evenodd;clip-rule:evenodd;fill:#4D4D4D;" width="25.6257" height="0.8309"/>
			<rect x="177.8856" y="69.4383" style="fill-rule:evenodd;clip-rule:evenodd;fill:#4D4D4D;" width="25.6257" height="0.8309"/>
			<rect x="177.8856" y="71.3777" style="fill-rule:evenodd;clip-rule:evenodd;fill:#336699;" width="25.6257" height="0.826"/>
			<rect x="177.8856" y="73.2178" style="fill-rule:evenodd;clip-rule:evenodd;fill:#4D4D4D;" width="25.6257" height="0.8319"/>
			<rect x="177.8856" y="75.2044" style="fill-rule:evenodd;clip-rule:evenodd;fill:#4D4D4D;" width="25.6257" height="0.827"/>
		</g>
		<g id="Diagram_2_">
			<rect x="177.3419" y="96.9251" style="fill-rule:evenodd;clip-rule:evenodd;fill:#4D4D4D;" width="25.6257" height="0.6825"/>
			<path style="fill-rule:evenodd;clip-rule:evenodd;fill:#FF6633;" d="M179.6371,89.9329L179.6371,89.9329
				c0.3681,0,0.6738,0.2718,0.6738,0.5996v6.2153h-1.3467v-6.2153C178.9642,90.2047,179.264,89.9329,179.6371,89.9329
				L179.6371,89.9329z"/>
			<path style="fill-rule:evenodd;clip-rule:evenodd;fill:#0056A3;" d="M182.2425,89.1946L182.2425,89.1946
				c0.3673,0,0.6728,0.3027,0.6728,0.6651v6.8881h-1.3457v-6.8881C181.5696,89.4973,181.8695,89.1946,182.2425,89.1946
				L182.2425,89.1946z"/>
			<path style="fill-rule:evenodd;clip-rule:evenodd;fill:#FF6633;" d="M184.847,89.9589L184.847,89.9589
				c0.3683,0,0.6728,0.2718,0.6728,0.6005v6.2404h-1.3455v-6.2404C184.1742,90.2308,184.475,89.9589,184.847,89.9589
				L184.847,89.9589z"/>
			<path style="fill-rule:evenodd;clip-rule:evenodd;fill:#0056A3;" d="M187.6654,86.4195L187.6654,86.4195
				c0.3683,0,0.6729,0.4106,0.6729,0.9109v9.4695h-1.3457v-9.4695C186.9926,86.8301,187.2934,86.4195,187.6654,86.4195
				L187.6654,86.4195z"/>
			<path style="fill-rule:evenodd;clip-rule:evenodd;fill:#FF6633;" d="M190.3972,90.2616L190.3972,90.2616
				c0.372,0,0.6728,0.2593,0.6728,0.5774v5.9608h-1.3457V90.839C189.7243,90.521,190.029,90.2616,190.3972,90.2616L190.3972,90.2616
				z"/>
			<path style="fill-rule:evenodd;clip-rule:evenodd;fill:#0056A3;" d="M193.1713,92.8902h0.0049
				c0.3681,0,0.668,0.1542,0.668,0.3441v3.5655h-1.3418v-3.5655C192.5024,93.0444,192.8031,92.8902,193.1713,92.8902
				L193.1713,92.8902z"/>
			<path style="fill-rule:evenodd;clip-rule:evenodd;fill:#0056A3;" d="M196.0332,86.4542L196.0332,86.4542
				c0.373,0,0.6728,0.4097,0.6728,0.9109v9.4348h-1.3408v-9.4348C195.3652,86.8638,195.665,86.4542,196.0332,86.4542
				L196.0332,86.4542z"/>
			<path style="fill-rule:evenodd;clip-rule:evenodd;fill:#33CC99;" d="M198.5114,87.1405L198.5114,87.1405
				c0.3691,0,0.6747,0.3846,0.6747,0.8502v8.8092h-1.3476v-8.8092C197.8385,87.5251,198.145,87.1405,198.5114,87.1405
				L198.5114,87.1405z"/>
			<path style="fill-rule:evenodd;clip-rule:evenodd;fill:#FF6633;" d="M200.7736,84.7451L200.7736,84.7451
				c0.373,0,0.6729,0.4753,0.6729,1.0574v10.9973h-1.3467V85.8026C200.0999,85.2204,200.4055,84.7451,200.7736,84.7451
				L200.7736,84.7451z"/>
			<rect x="204.5647" y="86.9506" style="fill-rule:evenodd;clip-rule:evenodd;fill:#FF6633;" width="2.3925" height="2.1321"/>
			<rect x="204.5647" y="90.4901" style="fill-rule:evenodd;clip-rule:evenodd;fill:#33CC99;" width="2.3925" height="2.1322"/>
			<rect x="204.5647" y="94.1067" style="fill-rule:evenodd;clip-rule:evenodd;fill:#0056A3;" width="2.3925" height="2.1321"/>
		</g>
	</g>
	<g id="Cup_1_">
		<path style="fill:#EDEDED;" d="M48.3027,93.5881c5.3478-4.3694,6.1406-12.2474,1.7707-17.5952
			c-4.3698-5.3468-12.2474-6.1402-17.5952-1.7697c-4.9121,4.0137-5.9681,10.9828-2.7231,16.2361
			c-0.0882,0.0492-0.1749,0.1032-0.2554,0.1697l-2.8551,2.3317c-0.747,0.6112-0.8578,1.7129-0.2473,2.4609
			c0.6116,0.748,1.7134,0.8588,2.4604,0.2478l2.8551-2.3327c0.0862-0.0703,0.1614-0.1484,0.2299-0.2294
			C36.4485,97.2519,43.4244,97.5748,48.3027,93.5881z"/>
		
			<ellipse transform="matrix(0.7744 -0.6328 0.6328 0.7744 -43.9775 44.4902)" style="fill:#88604A;" cx="40.3904" cy="83.9054" rx="10.3299" ry="10.3299"/>
		
			<ellipse transform="matrix(0.7744 -0.6327 0.6327 0.7744 -43.9774 44.4896)" style="fill:#785741;" cx="40.3903" cy="83.9056" rx="5.7993" ry="5.7995"/>
		<path style="opacity:0.2;" d="M49.525,79.0813c-0.3157-0.5957-0.6926-1.1702-1.1355-1.7119
			c-3.6098-4.4176-10.1177-5.0721-14.5353-1.4632c-0.7061,0.5783-1.3051,1.2348-1.817,1.9393
			C35.888,77.1264,42.5414,76.5673,49.525,79.0813z"/>
	</g>
</g>
</svg>
