<?xml version="1.0" encoding="utf-8"?>
<!-- Generator: Adobe Illustrator 21.0.2, SVG Export Plug-In . SVG Version: 6.00 Build 0)  -->
<svg version="1.1" id="Capa_1" xmlns="http://www.w3.org/2000/svg" xmlns:xlink="http://www.w3.org/1999/xlink" x="0px" y="0px"
	 viewBox="0 0 127.0977 40.9181" style="enable-background:new 0 0 127.0977 40.9181;" xml:space="preserve">
<g>
	<g>
		
			<rect x="31.8184" y="8.6558" transform="matrix(-1 -4.495660e-11 4.495660e-11 -1 149.05 40.9182)" style="fill:#225379;" width="85.4132" height="23.6067"/>
		<polygon style="fill:#225379;" points="0,20.4591 32.3557,39.1397 32.3557,1.7785 		"/>
	</g>
	<path style="fill:#1B4361;" d="M126.9297,17.7992c1.6868,13.383-9.5679,24.6378-22.951,22.951
		c-9.1185-1.1494-16.482-8.5128-17.6312-17.6313C84.6609,9.736,95.9153-1.5185,109.2981,0.168
		C118.4168,1.3171,125.7803,8.6805,126.9297,17.7992z"/>
	<path style="fill:#F2F6E1;" d="M123.505,18.2479c1.4022,11.1244-7.953,20.4796-19.0772,19.0775
		c-7.5795-0.9553-13.7001-7.076-14.6555-14.6555C88.3703,11.546,97.7251,2.191,108.8491,3.5927
		C116.4287,4.5478,122.5496,10.6684,123.505,18.2479z"/>
	<g>
		<path style="fill:#225379;" d="M105.3693,21.3624c0,3.1475-0.4961,5.498-1.4883,7.0508s-2.5098,2.3291-4.5527,2.3291
			c-1.96,0-3.4502-0.7949-4.4717-2.3857c-1.0215-1.5898-1.5322-3.9209-1.5322-6.9941c0-3.1719,0.4941-5.5264,1.4824-7.0625
			s2.4951-2.3047,4.5215-2.3047c1.9766,0,3.4775,0.8018,4.5029,2.4043S105.3693,18.3233,105.3693,21.3624z M95.4172,21.3624
			c0,2.6494,0.3115,4.5781,0.9346,5.7861c0.6221,1.208,1.6143,1.8125,2.9766,1.8125c1.3789,0,2.377-0.6123,2.9961-1.8369
			c0.6182-1.2256,0.9277-3.1455,0.9277-5.7617c0-2.6152-0.3096-4.5313-0.9277-5.748c-0.6191-1.2168-1.6172-1.8252-2.9961-1.8252
			c-1.3623,0-2.3545,0.6006-2.9766,1.7998C95.7287,16.7891,95.4172,18.7139,95.4172,21.3624z"/>
		<path style="fill:#225379;" d="M115.5461,30.4932h-2.0176V17.5137c0-1.0791,0.0332-2.1006,0.0996-3.0645
			c-0.1748,0.1748-0.3701,0.3574-0.5859,0.5479c-0.2158,0.1914-1.2041,1.001-2.9648,2.4297l-1.0957-1.4199l4.8203-3.7246h1.7441
			V30.4932z"/>
	</g>
</g>
</svg>
