<?xml version="1.0" encoding="utf-8"?>
<!-- Generator: Adobe Illustrator 21.0.2, SVG Export Plug-In . SVG Version: 6.00 Build 0)  -->
<svg version="1.1" id="Capa_1" xmlns="http://www.w3.org/2000/svg" xmlns:xlink="http://www.w3.org/1999/xlink" x="0px" y="0px"
	 viewBox="0 0 1090.3942 507.5647" style="enable-background:new 0 0 1090.3942 507.5647;" xml:space="preserve">
<g>
	<g>
		<polyline style="fill:none;stroke:#D8D8D8;stroke-miterlimit:10;" points="23.1659,378.2618 190.0411,177.5509 365.4856,285.6247 
			523.8354,185.2773 699.28,320.3603 874.7245,239.3091 1067.2289,23.1652 		"/>
		<circle style="fill:#D8D8D8;" cx="190.0401" cy="177.5518" r="23.164"/>
		<circle style="fill:#D8D8D8;" cx="365.1955" cy="285.9934" r="23.164"/>
		<circle style="fill:#D8D8D8;" cx="23.1651" cy="378.2616" r="23.1649"/>
		<circle style="fill:#D8D8D8;" cx="527.8689" cy="189.134" r="23.1656"/>
		<circle style="fill:#D8D8D8;" cx="696.7111" cy="320.5395" r="23.164"/>
		<circle style="fill:#D8D8D8;" cx="874.6904" cy="244.4221" r="23.1641"/>
		<circle style="fill:#D8D8D8;" cx="1067.2296" cy="23.1646" r="23.164"/>
	</g>
	<g>
		<polyline style="fill:none;stroke:#D8D8D8;stroke-miterlimit:10;" points="23.1659,484.3988 225.355,432.3065 313.0769,347.383 
			418.7942,436.16 523.8354,328.0862 812.4895,428.4342 936.5487,276.913 1022.7014,304.9332 1067.2289,189.1341 		"/>
		<circle style="fill:#D8D8D8;" cx="1067.2296" cy="189.134" r="23.1648"/>
		<circle style="fill:#D8D8D8;" cx="1025.1807" cy="309.1574" r="23.1648"/>
		<circle style="fill:#D8D8D8;" cx="931.2897" cy="274.21" r="23.1648"/>
		<ellipse style="fill:#D8D8D8;" cx="813.4558" cy="424.5913" rx="23.1656" ry="23.1627"/>
		<circle style="fill:#D8D8D8;" cx="527.8689" cy="328.6541" r="23.1648"/>
		<circle style="fill:#D8D8D8;" cx="420.4612" cy="436.0605" r="23.1631"/>
		<circle style="fill:#D8D8D8;" cx="318.8668" cy="343.7036" r="23.1649"/>
		<ellipse style="fill:#D8D8D8;" cx="227.0982" cy="431.2939" rx="23.1656" ry="23.1623"/>
		<circle style="fill:#D8D8D8;" cx="23.1651" cy="484.4005" r="23.1635"/>
	</g>
</g>
</svg>
