<?xml version="1.0" encoding="utf-8"?>
<!-- Generator: Adobe Illustrator 21.0.2, SVG Export Plug-In . SVG Version: 6.00 Build 0)  -->
<svg version="1.1" id="Capa_1" xmlns="http://www.w3.org/2000/svg" xmlns:xlink="http://www.w3.org/1999/xlink" x="0px" y="0px"
	 viewBox="0 0 472.3906 208.8599" style="enable-background:new 0 0 472.3906 208.8599;" xml:space="preserve">
<g>
	<g>
		<path style="fill:#2A4690;" d="M25.9878,6.7866v72.335h-7.1177V6.7866H0V0h44.8579v6.7866H25.9878z"/>
		<path style="fill:#2A4690;" d="M85.8257,70.0728c-0.8647,2.0234-2.0508,3.7891-3.5586,5.2969
			c-1.5088,1.5088-3.2744,2.6948-5.2969,3.5591c-2.0234,0.8638-4.1753,1.2964-6.4556,1.2964h-4.5244
			c-2.2813,0-4.4331-0.4326-6.4556-1.2964c-2.0234-0.8643-3.7891-2.0503-5.2969-3.5591c-1.5088-1.5078-2.6948-3.2734-3.5591-5.2969
			c-0.8643-2.0225-1.2964-4.1743-1.2964-6.4556V38.126c0-2.2803,0.4321-4.4321,1.2964-6.4556
			c0.8643-2.0225,2.0503-3.7881,3.5591-5.2969c1.5078-1.5078,3.2734-2.6938,5.2969-3.5586
			c2.0225-0.8638,4.1743-1.2969,6.4556-1.2969h4.5244c2.2803,0,4.4321,0.4331,6.4556,1.2969
			c2.0225,0.8647,3.7881,2.0508,5.2969,3.5586c1.5078,1.5088,2.6938,3.2744,3.5586,5.2969
			c0.8638,2.0234,1.2969,4.1753,1.2969,6.4556v13.2974H56.1689v12.5801c0,1.3613,0.2568,2.6396,0.7725,3.835
			c0.5146,1.1958,1.2139,2.2344,2.0967,3.1172s1.9214,1.582,3.1172,2.0967c1.1948,0.5156,2.4736,0.7725,3.835,0.7725h4.5244
			c1.3604,0,2.6387-0.2568,3.8345-0.7725c1.1948-0.5146,2.2349-1.2139,3.1177-2.0967s1.5811-1.9214,2.0967-3.1172
			c0.5146-1.1953,0.7725-2.4736,0.7725-3.835v-3.752l6.7866,1.1035v2.2622C87.1226,65.8984,86.6895,68.0503,85.8257,70.0728z
			 M80.3359,37.7397c0-1.3604-0.2578-2.6387-0.7725-3.8345c-0.5156-1.1948-1.2139-2.2349-2.0967-3.1177
			s-1.9229-1.5811-3.1177-2.0967c-1.1958-0.5146-2.4741-0.7725-3.8345-0.7725h-4.5244c-1.3613,0-2.6401,0.2578-3.835,0.7725
			c-1.1958,0.5156-2.2344,1.2139-3.1172,2.0967s-1.582,1.9229-2.0967,3.1177c-0.5156,1.1958-0.7725,2.4741-0.7725,3.8345v8.3867
			h24.167V37.7397z M65.4385,13.5732h-5.0762L69.356,0h11.311L65.4385,13.5732z"/>
		<path style="fill:#2A4690;" d="M137.1387,70.0728c-0.8647,2.0234-2.0508,3.7891-3.5586,5.2969
			c-1.5088,1.5088-3.2744,2.6948-5.2969,3.5591c-2.0234,0.8638-4.1753,1.2964-6.4556,1.2964h-4.5244
			c-2.2813,0-4.4331-0.4326-6.4556-1.2964c-2.0234-0.8643-3.7891-2.0503-5.2969-3.5591c-1.5088-1.5078-2.6948-3.2734-3.5591-5.2969
			c-0.8643-2.0225-1.2964-4.1743-1.2964-6.4556V38.126c0-2.2803,0.4321-4.4321,1.2964-6.4556
			c0.8643-2.0225,2.0503-3.7881,3.5591-5.2969c1.5078-1.5078,3.2734-2.6938,5.2969-3.5586
			c2.0225-0.8638,4.1743-1.2969,6.4556-1.2969h4.5244c2.2803,0,4.4321,0.4331,6.4556,1.2969
			c2.0225,0.8647,3.7881,2.0508,5.2969,3.5586c1.5078,1.5088,2.6938,3.2744,3.5586,5.2969
			c0.8638,2.0234,1.2969,4.1753,1.2969,6.4556v2.2622l-6.7866,1.1035v-3.752c0-1.3604-0.2578-2.6387-0.7725-3.8345
			c-0.5156-1.1948-1.2139-2.2349-2.0967-3.1177s-1.9229-1.5811-3.1177-2.0967c-1.1958-0.5146-2.4741-0.7725-3.8345-0.7725h-4.5244
			c-1.3613,0-2.6401,0.2578-3.835,0.7725c-1.1958,0.5156-2.2344,1.2139-3.1172,2.0967s-1.582,1.9229-2.0967,3.1177
			c-0.5156,1.1958-0.7725,2.4741-0.7725,3.8345v26.2637c0,1.3613,0.2568,2.6396,0.7725,3.835
			c0.5146,1.1958,1.2139,2.2344,2.0967,3.1172s1.9214,1.582,3.1172,2.0967c1.1948,0.5156,2.4736,0.7725,3.835,0.7725h4.5244
			c1.3604,0,2.6387-0.2568,3.8345-0.7725c1.1948-0.5146,2.2349-1.2139,3.1177-2.0967s1.5811-1.9214,2.0967-3.1172
			c0.5146-1.1953,0.7725-2.4736,0.7725-3.835v-3.752l6.7866,1.1035v2.2622C138.4355,65.8984,138.0024,68.0503,137.1387,70.0728z"/>
		<path style="fill:#2A4690;" d="M182.9619,79.1216V37.7397c0-1.3604-0.2578-2.6387-0.7725-3.8345
			c-0.5156-1.1948-1.2139-2.2349-2.0967-3.1177s-1.9229-1.5811-3.1172-2.0967c-1.1963-0.5146-2.4746-0.7725-3.835-0.7725h-4.5244
			c-1.3613,0-2.6396,0.2578-3.835,0.7725c-1.1953,0.5156-2.2344,1.2139-3.1172,2.0967s-1.582,1.9229-2.0967,3.1177
			c-0.5156,1.1958-0.7725,2.4741-0.7725,3.8345v41.3818h-6.7871v-56.5h2.2627l3.6963,5.7383
			c1.5449-2.0967,3.4854-3.7603,5.8213-4.9932c2.3359-1.2319,4.8828-1.8486,7.6416-1.8486h1.7109
			c2.2803,0,4.4316,0.4331,6.4551,1.2969c2.0225,0.8647,3.7881,2.0508,5.2969,3.5586c1.5078,1.5088,2.6943,3.2744,3.5596,5.2969
			c0.8633,2.0234,1.2959,4.1753,1.2959,6.4556v40.9956H182.9619z"/>
		<path style="fill:#2A4690;" d="M205.0322,9.0488V0h7.8896v9.0488H205.0322z M205.584,79.1216v-56.5h6.7861v56.5H205.584z"/>
		<path style="fill:#2A4690;" d="M264.6504,70.0728c-0.8652,2.0234-2.0518,3.7891-3.5596,5.2969
			c-1.5088,1.5088-3.2744,2.6948-5.2969,3.5591c-2.0234,0.8638-4.1748,1.2964-6.4551,1.2964h-4.5244
			c-2.2813,0-4.4336-0.4326-6.4561-1.2964c-2.0234-0.8643-3.7891-2.0503-5.2969-3.5591c-1.5078-1.5078-2.6943-3.2734-3.5586-5.2969
			c-0.8643-2.0225-1.2969-4.1743-1.2969-6.4556V38.126c0-2.2803,0.4326-4.4321,1.2969-6.4556
			c0.8643-2.0225,2.0508-3.7881,3.5586-5.2969c1.5078-1.5078,3.2734-2.6938,5.2969-3.5586
			c2.0225-0.8638,4.1748-1.2969,6.4561-1.2969h4.5244c2.2803,0,4.4316,0.4331,6.4551,1.2969
			c2.0225,0.8647,3.7881,2.0508,5.2969,3.5586c1.5078,1.5088,2.6943,3.2744,3.5596,5.2969
			c0.8633,2.0234,1.2959,4.1753,1.2959,6.4556v2.2622l-6.7861,1.1035v-3.752c0-1.3604-0.2578-2.6387-0.7725-3.8345
			c-0.5156-1.1948-1.2139-2.2349-2.0967-3.1177s-1.9229-1.5811-3.1172-2.0967c-1.1963-0.5146-2.4746-0.7725-3.835-0.7725h-4.5244
			c-1.3613,0-2.6396,0.2578-3.835,0.7725c-1.1953,0.5156-2.2344,1.2139-3.1172,2.0967s-1.582,1.9229-2.0967,3.1177
			c-0.5156,1.1958-0.7725,2.4741-0.7725,3.8345v26.2637c0,1.3613,0.2568,2.6396,0.7725,3.835
			c0.5146,1.1958,1.2139,2.2344,2.0967,3.1172s1.9219,1.582,3.1172,2.0967c1.1953,0.5156,2.4736,0.7725,3.835,0.7725h4.5244
			c1.3604,0,2.6387-0.2568,3.835-0.7725c1.1943-0.5146,2.2344-1.2139,3.1172-2.0967s1.5811-1.9214,2.0967-3.1172
			c0.5146-1.1953,0.7725-2.4736,0.7725-3.835v-3.752l6.7861,1.1035v2.2622C265.9463,65.8984,265.5137,68.0503,264.6504,70.0728z"/>
		<path style="fill:#2A4690;" d="M314.9971,79.1216l-3.752-5.6279c-1.5449,2.0234-3.4766,3.6509-5.7939,4.8833
			c-2.3174,1.2319-4.8555,1.8481-7.6143,1.8481h-1.71c-2.2813,0-4.4336-0.4326-6.4561-1.2964
			c-2.0234-0.8643-3.7891-2.0503-5.2969-3.5591c-1.5078-1.5078-2.6943-3.2734-3.5586-5.2969
			c-0.8643-2.0225-1.2969-4.1743-1.2969-6.4556v-0.5518c0-2.2803,0.4326-4.4321,1.2969-6.4556
			c0.8643-2.0225,2.0508-3.7881,3.5586-5.2969c1.5078-1.5078,3.2734-2.6938,5.2969-3.5586
			c2.0225-0.8638,4.1748-1.2969,6.4561-1.2969h14.3457v-8.7178c0-1.3604-0.2578-2.6387-0.7725-3.8345
			c-0.5156-1.1948-1.2139-2.2349-2.0967-3.1177s-1.9229-1.5811-3.1172-2.0967c-1.1963-0.5146-2.4746-0.7725-3.835-0.7725h-3.9727
			c-1.3613,0-2.6396,0.2578-3.835,0.7725c-1.1953,0.5156-2.2344,1.2139-3.1172,2.0967s-1.582,1.9229-2.0967,3.1177
			c-0.5156,1.1958-0.7725,2.4741-0.7725,3.8345v2.0415l-6.7871-1.1035V38.126c0-2.2803,0.4326-4.4321,1.2969-6.4556
			c0.8643-2.0225,2.0508-3.7881,3.5586-5.2969c1.5078-1.5078,3.2734-2.6938,5.2969-3.5586
			c2.0225-0.8638,4.1748-1.2969,6.4561-1.2969h3.9727c2.2803,0,4.4316,0.4331,6.4551,1.2969
			c2.0225,0.8647,3.7881,2.0508,5.2969,3.5586c1.5078,1.5088,2.6943,3.2744,3.5596,5.2969
			c0.8633,2.0234,1.2959,4.1753,1.2959,6.4556v40.9956H314.9971z M310.4727,51.7544H296.127c-1.3613,0-2.6396,0.2578-3.835,0.7725
			c-1.1953,0.5156-2.2344,1.2236-3.1172,2.1245c-0.8828,0.9019-1.582,1.9502-2.0967,3.145
			c-0.5156,1.1958-0.7725,2.4741-0.7725,3.8345v2.3726c0,1.3613,0.2568,2.6396,0.7725,3.835
			c0.5146,1.1958,1.2139,2.2344,2.0967,3.1172s1.9219,1.582,3.1172,2.0967c1.1953,0.5156,2.4736,0.7725,3.835,0.7725h4.5244
			c1.3604,0,2.6387-0.2568,3.835-0.7725c1.1943-0.5146,2.2344-1.2139,3.1172-2.0967s1.5811-1.9214,2.0967-3.1172
			c0.5146-1.1953,0.7725-2.4736,0.7725-3.835V51.7544z"/>
		<path style="fill:#2A4690;" d="M369.6758,64.7759c0,2.2813-0.46,4.3687-1.3789,6.2627c-0.9199,1.8945-2.1709,3.5225-3.752,4.8828
			c-1.582,1.3613-3.4121,2.4189-5.4902,3.1729c-2.0781,0.7534-4.2578,1.1309-6.5381,1.1309h-4.5244
			c-2.2813,0-4.4609-0.4326-6.5381-1.2964c-2.0791-0.8643-3.8994-2.0503-5.4629-3.5591c-1.5635-1.5078-2.8135-3.2734-3.752-5.2969
			c-0.9375-2.0225-1.4072-4.1743-1.4072-6.4556V61.355l6.7871-1.1035v3.752c0,1.3613,0.2842,2.6396,0.8555,3.835
			c0.5693,1.1958,1.333,2.2344,2.2891,3.1172s2.0596,1.582,3.3105,2.0967c1.25,0.5156,2.5566,0.7725,3.918,0.7725h4.5244
			c1.3604,0,2.666-0.2017,3.917-0.6069c1.25-0.4043,2.3633-0.9839,3.3389-1.7378c0.9736-0.7539,1.7461-1.6641,2.3174-2.7314
			c0.5693-1.0664,0.8545-2.2803,0.8545-3.6416c0-2.0225-0.4414-3.6777-1.3242-4.9658c-0.8828-1.2871-2.0508-2.3628-3.5029-3.2275
			c-1.4541-0.8638-3.1094-1.5811-4.9658-2.1519c-1.8584-0.5698-3.7617-1.1396-5.7109-1.7104
			c-1.9502-0.5698-3.8535-1.2227-5.7109-1.959c-1.8574-0.7354-3.5127-1.7007-4.9658-2.8965
			c-1.4531-1.1948-2.6211-2.6943-3.5039-4.4971c-0.8828-1.8018-1.3242-4.0459-1.3242-6.7314c0-2.2803,0.4414-4.3672,1.3242-6.2622
			c0.8828-1.894,2.0781-3.522,3.5869-4.8833c1.5078-1.3604,3.2637-2.418,5.2695-3.1724c2.0039-0.7534,4.1465-1.1313,6.4277-1.1313
			h3.9727c2.2803,0,4.4316,0.4331,6.4551,1.2969c2.0225,0.8647,3.7881,2.0508,5.2969,3.5586
			c1.5078,1.5088,2.6943,3.2744,3.5596,5.2969c0.8633,2.0234,1.2959,4.1753,1.2959,6.4556v0.2207l-6.7861,1.1035v-1.7104
			c0-1.3604-0.2578-2.6387-0.7725-3.8345c-0.5156-1.1948-1.2139-2.2349-2.0967-3.1177s-1.9229-1.5811-3.1172-2.0967
			c-1.1963-0.5146-2.4746-0.7725-3.835-0.7725h-3.9727c-1.3613,0-2.6396,0.2026-3.835,0.6069
			c-1.1953,0.4053-2.2344,0.9849-3.1172,1.7383c-0.8828,0.7544-1.582,1.6646-2.0967,2.731
			c-0.5156,1.0674-0.7725,2.2813-0.7725,3.6416c0,1.9502,0.4414,3.541,1.3242,4.7729c0.8828,1.2329,2.0498,2.2715,3.5039,3.1172
			c1.4521,0.8467,3.1074,1.5547,4.9658,2.1245c1.8564,0.5708,3.752,1.1587,5.6826,1.7656c1.9316,0.6069,3.8252,1.2964,5.6836,2.0688
			c1.8564,0.7725,3.5117,1.7656,4.9658,2.9795c1.4521,1.2139,2.6201,2.7314,3.5029,4.5522S369.6758,62.0913,369.6758,64.7759z"/>
	</g>
	<g>
		<g>
			<path style="fill:#3B86B1;" d="M114.7461,118.9702l-1.501-2.2949c-0.6177,0.8384-1.3901,1.5044-2.3169,1.9971
				s-1.9419,0.7393-3.0454,0.7393h-0.6841c-0.9121,0-1.7729-0.1733-2.5815-0.5186c-0.8096-0.3457-1.5156-0.8198-2.1187-1.4233
				c-0.6035-0.603-1.0781-1.3091-1.4233-2.1187c-0.3457-0.8086-0.5186-1.6694-0.5186-2.5815v-10.1953
				c0-0.9121,0.1729-1.7725,0.5186-2.582c0.3452-0.8086,0.8198-1.5151,1.4233-2.1182c0.603-0.603,1.3091-1.0776,2.1187-1.4233
				c0.8086-0.3457,1.6694-0.5186,2.5815-0.5186h0.6841c1.0151,0,1.9565,0.2061,2.8247,0.6177
				c0.8677,0.4121,1.6108,0.9858,2.229,1.7212V87.3257h2.7144v31.6445H114.7461z M112.9365,102.4199
				c0-0.5444-0.103-1.0557-0.3091-1.5337s-0.4854-0.894-0.8384-1.2471c-0.3535-0.353-0.769-0.6323-1.2471-0.8384
				s-0.9897-0.3091-1.5337-0.3091h-1.8096c-0.5444,0-1.0557,0.103-1.5337,0.3091s-0.8936,0.4854-1.2466,0.8384
				s-0.6328,0.769-0.8389,1.2471s-0.3086,0.9893-0.3086,1.5337v10.5039c0,0.5444,0.1025,1.0557,0.3086,1.5337
				s0.4858,0.8936,0.8389,1.2466s0.7686,0.6328,1.2466,0.8389s0.9893,0.3086,1.5337,0.3086h1.8096
				c0.5439,0,1.0557-0.1025,1.5337-0.3086s0.8936-0.4858,1.2471-0.8389c0.353-0.353,0.6323-0.7686,0.8384-1.2466
				s0.3091-0.9893,0.3091-1.5337V102.4199z"/>
			<path style="fill:#3B86B1;" d="M135.6543,115.3511c-0.3457,0.8096-0.8198,1.5156-1.4233,2.1187
				c-0.603,0.6035-1.3096,1.0776-2.1182,1.4233c-0.8096,0.3452-1.6699,0.5186-2.582,0.5186h-1.8096
				c-0.9121,0-1.7729-0.1733-2.5815-0.5186c-0.8096-0.3457-1.5156-0.8198-2.1187-1.4233c-0.6035-0.603-1.0781-1.3091-1.4233-2.1187
				c-0.3457-0.8086-0.5186-1.6694-0.5186-2.5815v-10.1953c0-0.9121,0.1729-1.7725,0.5186-2.582
				c0.3452-0.8086,0.8198-1.5151,1.4233-2.1182c0.603-0.603,1.3091-1.0776,2.1187-1.4233c0.8086-0.3457,1.6694-0.5186,2.5815-0.5186
				h1.8096c0.9121,0,1.7725,0.1729,2.582,0.5186c0.8086,0.3457,1.5151,0.8203,2.1182,1.4233
				c0.6035,0.603,1.0776,1.3096,1.4233,2.1182c0.3457,0.8096,0.519,1.6699,0.519,2.582v5.3184h-12.3799v5.0313
				c0,0.5444,0.1025,1.0557,0.3086,1.5337s0.4858,0.8936,0.8389,1.2466s0.7686,0.6328,1.2466,0.8389s0.9893,0.3086,1.5337,0.3086
				h1.8096c0.5439,0,1.0557-0.1025,1.5337-0.3086s0.8936-0.4858,1.2471-0.8389c0.353-0.353,0.6323-0.7686,0.8384-1.2466
				s0.3091-0.9893,0.3091-1.5337v-1.5005l2.7144,0.4414v0.9048C136.1733,113.6816,136,114.5425,135.6543,115.3511z
				 M133.459,102.4199c0-0.5444-0.103-1.0557-0.3091-1.5337s-0.4854-0.894-0.8384-1.2471c-0.3535-0.353-0.769-0.6323-1.2471-0.8384
				s-0.9897-0.3091-1.5337-0.3091h-1.8096c-0.5444,0-1.0557,0.103-1.5337,0.3091s-0.8936,0.4854-1.2466,0.8384
				s-0.6328,0.769-0.8389,1.2471s-0.3086,0.9893-0.3086,1.5337v3.354h9.6655V102.4199z"/>
		</g>
	</g>
	<g>
		<g>
			<path style="fill:#3B86B1;" d="M68.4302,206.938l-1.501-2.2949c-0.6177,0.8389-1.3901,1.5039-2.3169,1.9971
				c-0.9268,0.4922-1.9419,0.7393-3.0454,0.7393h-0.6841c-0.9121,0-1.7729-0.1729-2.5815-0.5186
				c-0.8096-0.3457-1.5156-0.8203-2.1187-1.4238c-0.6035-0.6025-1.0781-1.3086-1.4233-2.1182
				c-0.3457-0.8086-0.5186-1.6699-0.5186-2.582v-10.1953c0-0.9111,0.1729-1.7725,0.5186-2.5811
				c0.3452-0.8096,0.8198-1.5156,1.4233-2.1191c0.603-0.6025,1.3091-1.0771,2.1187-1.4229
				c0.8086-0.3457,1.6694-0.5186,2.5815-0.5186h0.6841c1.0151,0,1.9565,0.2061,2.8247,0.6172
				c0.8677,0.4121,1.6108,0.9863,2.229,1.7217v-10.9453h2.7144v31.6445H68.4302z M66.6206,190.3872
				c0-0.5439-0.103-1.0547-0.3091-1.5332s-0.4854-0.8936-0.8384-1.2471c-0.3535-0.3525-0.769-0.6318-1.2471-0.8389
				c-0.478-0.2051-0.9897-0.3086-1.5337-0.3086h-1.8096c-0.5444,0-1.0557,0.1035-1.5337,0.3086
				c-0.478,0.207-0.8936,0.4863-1.2466,0.8389c-0.353,0.3535-0.6328,0.7686-0.8389,1.2471s-0.3086,0.9893-0.3086,1.5332v10.5039
				c0,0.5449,0.1025,1.0566,0.3086,1.5342c0.2061,0.4785,0.4858,0.8936,0.8389,1.2471c0.353,0.3525,0.7686,0.6328,1.2466,0.8379
				c0.478,0.2061,0.9893,0.3096,1.5337,0.3096h1.8096c0.5439,0,1.0557-0.1035,1.5337-0.3096
				c0.478-0.2051,0.8936-0.4854,1.2471-0.8379c0.353-0.3535,0.6323-0.7686,0.8384-1.2471c0.2061-0.4775,0.3091-0.9893,0.3091-1.5342
				V190.3872z"/>
			<path style="fill:#3B86B1;" d="M89.3384,203.3188c-0.3457,0.8096-0.8198,1.5156-1.4233,2.1182
				c-0.603,0.6035-1.3096,1.0781-2.1182,1.4238c-0.8096,0.3457-1.6699,0.5186-2.582,0.5186h-1.8096
				c-0.9121,0-1.7729-0.1729-2.5815-0.5186c-0.8096-0.3457-1.5156-0.8203-2.1187-1.4238c-0.6035-0.6025-1.0781-1.3086-1.4233-2.1182
				c-0.3457-0.8086-0.5186-1.6699-0.5186-2.582v-10.1953c0-0.9111,0.1729-1.7725,0.5186-2.5811
				c0.3452-0.8096,0.8198-1.5156,1.4233-2.1191c0.603-0.6025,1.3091-1.0771,2.1187-1.4229
				c0.8086-0.3457,1.6694-0.5186,2.5815-0.5186h1.8096c0.9121,0,1.7725,0.1729,2.582,0.5186
				c0.8086,0.3457,1.5151,0.8203,2.1182,1.4229c0.6035,0.6035,1.0776,1.3096,1.4233,2.1191c0.3457,0.8086,0.519,1.6699,0.519,2.5811
				v5.3184H77.4775v5.0313c0,0.5449,0.1025,1.0566,0.3086,1.5342c0.2061,0.4785,0.4858,0.8936,0.8389,1.2471
				c0.353,0.3525,0.7686,0.6328,1.2466,0.8379c0.478,0.2061,0.9893,0.3096,1.5337,0.3096h1.8096
				c0.5439,0,1.0557-0.1035,1.5337-0.3096c0.478-0.2051,0.8936-0.4854,1.2471-0.8379c0.353-0.3535,0.6323-0.7686,0.8384-1.2471
				c0.2061-0.4775,0.3091-0.9893,0.3091-1.5342v-1.5l2.7144,0.4414v0.9043C89.8574,201.6489,89.6841,202.5103,89.3384,203.3188z
				 M87.1431,190.3872c0-0.5439-0.103-1.0547-0.3091-1.5332s-0.4854-0.8936-0.8384-1.2471
				c-0.3535-0.3525-0.769-0.6318-1.2471-0.8389c-0.478-0.2051-0.9897-0.3086-1.5337-0.3086h-1.8096
				c-0.5444,0-1.0557,0.1035-1.5337,0.3086c-0.478,0.207-0.8936,0.4863-1.2466,0.8389c-0.353,0.3535-0.6328,0.7686-0.8389,1.2471
				s-0.3086,0.9893-0.3086,1.5332v3.3545h9.6655V190.3872z"/>
		</g>
	</g>
	<g>
		<g>
			<path style="fill:#3B86B1;" d="M168.7168,138.6177l-13.9805-21.9937h-6.3594v21.9937h-4.6367V87.083h16.3516
				c1.748,0,3.3906,0.3296,4.9238,0.9883c1.5332,0.6592,2.875,1.5635,4.0254,2.7134c1.1484,1.1499,2.0527,2.4976,2.7129,4.043
				c0.6582,1.5454,0.9883,3.1929,0.9883,4.9414v4.1689c0,1.749-0.3301,3.396-0.9883,4.9414
				c-0.6602,1.5449-1.5645,2.8926-2.7129,4.043c-1.1504,1.1499-2.4922,2.0547-4.0254,2.7134
				c-1.5332,0.6592-3.1758,0.9883-4.9238,0.9883l13.9805,21.9937H168.7168z M168.1055,99.769c0-1.1499-0.2148-2.2222-0.6465-3.2163
				s-1.0176-1.8687-1.7617-2.6235c-0.7422-0.7549-1.6113-1.3477-2.6055-1.7788c-0.9941-0.4316-2.0664-0.647-3.2148-0.647h-11.5
				v20.7002h11.5c1.1484,0,2.2207-0.2158,3.2148-0.647s1.8633-1.0244,2.6055-1.7788c0.7441-0.7549,1.3301-1.6289,1.7617-2.6235
				c0.4316-0.9941,0.6465-2.0664,0.6465-3.2163V99.769z"/>
			<path style="fill:#3B86B1;" d="M205.1758,132.7241c-0.5635,1.3179-1.3359,2.4678-2.3184,3.4497
				c-0.9824,0.9829-2.1328,1.7554-3.4492,2.3179c-1.3184,0.563-2.7197,0.8447-4.2051,0.8447h-2.9473
				c-1.4854,0-2.8867-0.2817-4.2041-0.8447c-1.3184-0.5625-2.4678-1.335-3.4502-2.3179c-0.9824-0.9819-1.7559-2.1318-2.3184-3.4497
				c-0.5625-1.3174-0.8447-2.7192-0.8447-4.2051v-16.603c0-1.4854,0.2822-2.8867,0.8447-4.2046
				c0.5625-1.3174,1.3359-2.4673,2.3184-3.4502c0.9824-0.9819,2.1318-1.7549,3.4502-2.3179
				c1.3174-0.563,2.7188-0.8447,4.2041-0.8447h2.9473c1.4854,0,2.8867,0.2817,4.2051,0.8447
				c1.3164,0.563,2.4668,1.3359,3.4492,2.3179c0.9824,0.9829,1.7549,2.1328,2.3184,3.4502
				c0.5625,1.3179,0.8447,2.7192,0.8447,4.2046v8.6611h-20.1611v8.1934c0,0.8867,0.167,1.7197,0.5029,2.498
				c0.335,0.7788,0.791,1.4556,1.3652,2.0303c0.5752,0.5752,1.252,1.0303,2.0313,1.3657c0.7783,0.3359,1.6104,0.5029,2.4971,0.5029
				h2.9473c0.8857,0,1.7188-0.167,2.498-0.5029c0.7773-0.3354,1.4551-0.7905,2.0303-1.3657
				c0.5752-0.5747,1.0293-1.2515,1.3652-2.0303c0.335-0.7783,0.5029-1.6113,0.5029-2.498v-2.4434l4.4209,0.7188v1.4731
				C206.0205,130.0049,205.7383,131.4067,205.1758,132.7241z M201.5996,111.6646c0-0.8862-0.168-1.7188-0.5029-2.498
				c-0.3359-0.7778-0.79-1.4551-1.3652-2.0303s-1.2529-1.0298-2.0303-1.3657c-0.7793-0.335-1.6123-0.5029-2.498-0.5029h-2.9473
				c-0.8867,0-1.7188,0.168-2.4971,0.5029c-0.7793,0.3359-1.4561,0.7905-2.0313,1.3657c-0.5742,0.5752-1.0303,1.2524-1.3652,2.0303
				c-0.3359,0.7793-0.5029,1.6118-0.5029,2.498v5.4624h15.7402V111.6646z"/>
			<path style="fill:#3B86B1;" d="M238.5977,132.7241c-0.5635,1.3179-1.3359,2.4678-2.3184,3.4497
				c-0.9824,0.9829-2.1328,1.7554-3.4492,2.3179c-1.3184,0.563-2.7197,0.8447-4.2051,0.8447h-2.9473
				c-1.4854,0-2.8867-0.2817-4.2041-0.8447c-1.3184-0.5625-2.4678-1.335-3.4502-2.3179c-0.9824-0.9819-1.7559-2.1318-2.3184-3.4497
				c-0.5625-1.3174-0.8447-2.7192-0.8447-4.2051v-16.603c0-1.4854,0.2822-2.8867,0.8447-4.2046
				c0.5625-1.3174,1.3359-2.4673,2.3184-3.4502c0.9824-0.9819,2.1318-1.7549,3.4502-2.3179
				c1.3174-0.563,2.7188-0.8447,4.2041-0.8447h2.9473c1.4854,0,2.8867,0.2817,4.2051,0.8447
				c1.3164,0.563,2.4668,1.3359,3.4492,2.3179c0.9824,0.9829,1.7549,2.1328,2.3184,3.4502
				c0.5625,1.3179,0.8447,2.7192,0.8447,4.2046v1.4736l-4.4209,0.7188v-2.4438c0-0.8862-0.168-1.7188-0.5029-2.498
				c-0.3359-0.7778-0.79-1.4551-1.3652-2.0303s-1.2529-1.0298-2.0303-1.3657c-0.7793-0.335-1.6123-0.5029-2.498-0.5029h-2.9473
				c-0.8867,0-1.7188,0.168-2.4971,0.5029c-0.7793,0.3359-1.4561,0.7905-2.0313,1.3657c-0.5742,0.5752-1.0303,1.2524-1.3652,2.0303
				c-0.3359,0.7793-0.5029,1.6118-0.5029,2.498v17.106c0,0.8867,0.167,1.7197,0.5029,2.498c0.335,0.7788,0.791,1.4556,1.3652,2.0303
				c0.5752,0.5752,1.252,1.0303,2.0313,1.3657c0.7783,0.3359,1.6104,0.5029,2.4971,0.5029h2.9473
				c0.8857,0,1.7188-0.167,2.498-0.5029c0.7773-0.3354,1.4551-0.7905,2.0303-1.3657c0.5752-0.5747,1.0293-1.2515,1.3652-2.0303
				c0.335-0.7783,0.5029-1.6113,0.5029-2.498v-2.4434l4.4209,0.7188v1.4731C239.4424,130.0049,239.1602,131.4067,238.5977,132.7241z
				"/>
			<path style="fill:#3B86B1;" d="M272.0195,132.7241c-0.5635,1.3179-1.3359,2.4678-2.3184,3.4497
				c-0.9824,0.9829-2.1328,1.7554-3.4492,2.3179c-1.3184,0.563-2.7197,0.8447-4.2051,0.8447h-2.9473
				c-1.4854,0-2.8867-0.2817-4.2041-0.8447c-1.3184-0.5625-2.4678-1.335-3.4502-2.3179c-0.9824-0.9819-1.7559-2.1318-2.3184-3.4497
				c-0.5625-1.3174-0.8447-2.7192-0.8447-4.2051v-16.603c0-1.4854,0.2822-2.8867,0.8447-4.2046
				c0.5625-1.3174,1.3359-2.4673,2.3184-3.4502c0.9824-0.9819,2.1318-1.7549,3.4502-2.3179
				c1.3174-0.563,2.7188-0.8447,4.2041-0.8447h2.9473c1.4854,0,2.8867,0.2817,4.2051,0.8447
				c1.3164,0.563,2.4668,1.3359,3.4492,2.3179c0.9824,0.9829,1.7549,2.1328,2.3184,3.4502
				c0.5625,1.3179,0.8447,2.7192,0.8447,4.2046v16.603C272.8643,130.0049,272.582,131.4067,272.0195,132.7241z M268.4434,111.6646
				c0-0.8862-0.168-1.7188-0.5029-2.498c-0.3359-0.7778-0.79-1.4551-1.3652-2.0303s-1.2529-1.0298-2.0303-1.3657
				c-0.7793-0.335-1.6123-0.5029-2.498-0.5029h-2.9473c-0.8867,0-1.7188,0.168-2.4971,0.5029
				c-0.7793,0.3359-1.4561,0.7905-2.0313,1.3657c-0.5742,0.5752-1.0303,1.2524-1.3652,2.0303
				c-0.3359,0.7793-0.5029,1.6118-0.5029,2.498v17.106c0,0.8867,0.167,1.7197,0.5029,2.498c0.335,0.7788,0.791,1.4556,1.3652,2.0303
				c0.5752,0.5752,1.252,1.0303,2.0313,1.3657c0.7783,0.3359,1.6104,0.5029,2.4971,0.5029h2.9473
				c0.8857,0,1.7188-0.167,2.498-0.5029c0.7773-0.3354,1.4551-0.7905,2.0303-1.3657c0.5752-0.5747,1.0293-1.2515,1.3652-2.0303
				c0.335-0.7783,0.5029-1.6113,0.5029-2.498V111.6646z"/>
			<path style="fill:#3B86B1;" d="M283.1777,138.6177V87.083h4.4209v51.5347H283.1777z"/>
			<path style="fill:#3B86B1;" d="M321.6494,132.7241c-0.5635,1.3179-1.3359,2.4678-2.3184,3.4497
				c-0.9824,0.9829-2.1328,1.7554-3.4492,2.3179c-1.3184,0.563-2.7197,0.8447-4.2051,0.8447h-2.9473
				c-1.4854,0-2.8867-0.2817-4.2041-0.8447c-1.3184-0.5625-2.4678-1.335-3.4502-2.3179c-0.9824-0.9819-1.7559-2.1318-2.3184-3.4497
				c-0.5625-1.3174-0.8447-2.7192-0.8447-4.2051v-16.603c0-1.4854,0.2822-2.8867,0.8447-4.2046
				c0.5625-1.3174,1.3359-2.4673,2.3184-3.4502c0.9824-0.9819,2.1318-1.7549,3.4502-2.3179
				c1.3174-0.563,2.7188-0.8447,4.2041-0.8447h2.9473c1.4854,0,2.8867,0.2817,4.2051,0.8447
				c1.3164,0.563,2.4668,1.3359,3.4492,2.3179c0.9824,0.9829,1.7549,2.1328,2.3184,3.4502
				c0.5625,1.3179,0.8447,2.7192,0.8447,4.2046v8.6611H302.333v8.1934c0,0.8867,0.167,1.7197,0.5029,2.498
				c0.335,0.7788,0.791,1.4556,1.3652,2.0303c0.5752,0.5752,1.252,1.0303,2.0313,1.3657c0.7783,0.3359,1.6104,0.5029,2.4971,0.5029
				h2.9473c0.8857,0,1.7188-0.167,2.498-0.5029c0.7773-0.3354,1.4551-0.7905,2.0303-1.3657
				c0.5752-0.5747,1.0293-1.2515,1.3652-2.0303c0.335-0.7783,0.5029-1.6113,0.5029-2.498v-2.4434l4.4209,0.7188v1.4731
				C322.4941,130.0049,322.2119,131.4067,321.6494,132.7241z M318.0732,111.6646c0-0.8862-0.168-1.7188-0.5029-2.498
				c-0.3359-0.7778-0.79-1.4551-1.3652-2.0303s-1.2529-1.0298-2.0303-1.3657c-0.7793-0.335-1.6123-0.5029-2.498-0.5029h-2.9473
				c-0.8867,0-1.7188,0.168-2.4971,0.5029c-0.7793,0.3359-1.4561,0.7905-2.0313,1.3657c-0.5742,0.5752-1.0303,1.2524-1.3652,2.0303
				c-0.3359,0.7793-0.5029,1.6118-0.5029,2.498v5.4624h15.7402V111.6646z"/>
			<path style="fill:#3B86B1;" d="M355.0723,132.7241c-0.5635,1.3179-1.3359,2.4678-2.3184,3.4497
				c-0.9824,0.9829-2.1328,1.7554-3.4492,2.3179c-1.3184,0.563-2.7197,0.8447-4.2051,0.8447h-2.9473
				c-1.4854,0-2.8867-0.2817-4.2041-0.8447c-1.3184-0.5625-2.4678-1.335-3.4502-2.3179c-0.9824-0.9819-1.7559-2.1318-2.3184-3.4497
				c-0.5625-1.3174-0.8447-2.7192-0.8447-4.2051v-16.603c0-1.4854,0.2822-2.8867,0.8447-4.2046
				c0.5625-1.3174,1.3359-2.4673,2.3184-3.4502c0.9824-0.9819,2.1318-1.7549,3.4502-2.3179
				c1.3174-0.563,2.7188-0.8447,4.2041-0.8447h2.9473c1.4854,0,2.8867,0.2817,4.2051,0.8447
				c1.3164,0.563,2.4668,1.3359,3.4492,2.3179c0.9824,0.9829,1.7549,2.1328,2.3184,3.4502
				c0.5625,1.3179,0.8447,2.7192,0.8447,4.2046v1.4736l-4.4209,0.7188v-2.4438c0-0.8862-0.168-1.7188-0.5029-2.498
				c-0.3359-0.7778-0.79-1.4551-1.3652-2.0303s-1.2529-1.0298-2.0303-1.3657c-0.7793-0.335-1.6123-0.5029-2.498-0.5029h-2.9473
				c-0.8867,0-1.7188,0.168-2.4971,0.5029c-0.7793,0.3359-1.4561,0.7905-2.0313,1.3657c-0.5742,0.5752-1.0303,1.2524-1.3652,2.0303
				c-0.3359,0.7793-0.5029,1.6118-0.5029,2.498v17.106c0,0.8867,0.167,1.7197,0.5029,2.498c0.335,0.7788,0.791,1.4556,1.3652,2.0303
				c0.5752,0.5752,1.252,1.0303,2.0313,1.3657c0.7783,0.3359,1.6104,0.5029,2.4971,0.5029h2.9473
				c0.8857,0,1.7188-0.167,2.498-0.5029c0.7773-0.3354,1.4551-0.7905,2.0303-1.3657c0.5752-0.5747,1.0293-1.2515,1.3652-2.0303
				c0.335-0.7783,0.5029-1.6113,0.5029-2.498v-2.4434l4.4209,0.7188v1.4731C355.917,130.0049,355.6348,131.4067,355.0723,132.7241z"
				/>
			<path style="fill:#3B86B1;" d="M388.4941,132.7241c-0.5635,1.3179-1.3359,2.4678-2.3184,3.4497
				c-0.9824,0.9829-2.1328,1.7554-3.4492,2.3179c-1.3184,0.563-2.7197,0.8447-4.2051,0.8447h-2.9473
				c-1.4854,0-2.8867-0.2817-4.2041-0.8447c-1.3184-0.5625-2.4678-1.335-3.4502-2.3179c-0.9824-0.9819-1.7559-2.1318-2.3184-3.4497
				c-0.5625-1.3174-0.8447-2.7192-0.8447-4.2051v-16.603c0-1.4854,0.2822-2.8867,0.8447-4.2046
				c0.5625-1.3174,1.3359-2.4673,2.3184-3.4502c0.9824-0.9819,2.1318-1.7549,3.4502-2.3179
				c1.3174-0.563,2.7188-0.8447,4.2041-0.8447h2.9473c1.4854,0,2.8867,0.2817,4.2051,0.8447
				c1.3164,0.563,2.4668,1.3359,3.4492,2.3179c0.9824,0.9829,1.7549,2.1328,2.3184,3.4502
				c0.5625,1.3179,0.8447,2.7192,0.8447,4.2046v1.4736l-4.4209,0.7188v-2.4438c0-0.8862-0.168-1.7188-0.5029-2.498
				c-0.3359-0.7778-0.79-1.4551-1.3652-2.0303s-1.2529-1.0298-2.0303-1.3657c-0.7793-0.335-1.6123-0.5029-2.498-0.5029h-2.9473
				c-0.8867,0-1.7188,0.168-2.4971,0.5029c-0.7793,0.3359-1.4561,0.7905-2.0313,1.3657c-0.5742,0.5752-1.0303,1.2524-1.3652,2.0303
				c-0.3359,0.7793-0.5029,1.6118-0.5029,2.498v17.106c0,0.8867,0.167,1.7197,0.5029,2.498c0.335,0.7788,0.791,1.4556,1.3652,2.0303
				c0.5752,0.5752,1.252,1.0303,2.0313,1.3657c0.7783,0.3359,1.6104,0.5029,2.4971,0.5029h2.9473
				c0.8857,0,1.7188-0.167,2.498-0.5029c0.7773-0.3354,1.4551-0.7905,2.0303-1.3657c0.5752-0.5747,1.0293-1.2515,1.3652-2.0303
				c0.335-0.7783,0.5029-1.6113,0.5029-2.498v-2.4434l4.4209,0.7188v1.4731C389.3389,130.0049,389.0566,131.4067,388.4941,132.7241z
				"/>
			<path style="fill:#3B86B1;" d="M399.293,92.9766V87.083h5.1396v5.8936H399.293z M399.6523,138.6177v-36.8003h4.4209v36.8003
				H399.6523z"/>
			<path style="fill:#3B86B1;" d="M438.124,132.7241c-0.5635,1.3179-1.3359,2.4678-2.3184,3.4497
				c-0.9824,0.9829-2.1328,1.7554-3.4492,2.3179c-1.3184,0.563-2.7197,0.8447-4.2051,0.8447h-2.9473
				c-1.4854,0-2.8867-0.2817-4.2041-0.8447c-1.3184-0.5625-2.4678-1.335-3.4502-2.3179c-0.9824-0.9819-1.7559-2.1318-2.3184-3.4497
				c-0.5625-1.3174-0.8447-2.7192-0.8447-4.2051v-16.603c0-1.4854,0.2822-2.8867,0.8447-4.2046
				c0.5625-1.3174,1.3359-2.4673,2.3184-3.4502c0.9824-0.9819,2.1318-1.7549,3.4502-2.3179
				c1.3174-0.563,2.7188-0.8447,4.2041-0.8447h2.9473c1.4854,0,2.8867,0.2817,4.2051,0.8447
				c1.3164,0.563,2.4668,1.3359,3.4492,2.3179c0.9824,0.9829,1.7549,2.1328,2.3184,3.4502
				c0.5625,1.3179,0.8447,2.7192,0.8447,4.2046v16.603C438.9688,130.0049,438.6865,131.4067,438.124,132.7241z M434.5479,111.6646
				c0-0.8862-0.168-1.7188-0.5029-2.498c-0.3359-0.7778-0.79-1.4551-1.3652-2.0303s-1.2529-1.0298-2.0303-1.3657
				c-0.7793-0.335-1.6123-0.5029-2.498-0.5029h-2.9473c-0.8867,0-1.7188,0.168-2.4971,0.5029
				c-0.7793,0.3359-1.4561,0.7905-2.0313,1.3657c-0.5742,0.5752-1.0303,1.2524-1.3652,2.0303
				c-0.3359,0.7793-0.5029,1.6118-0.5029,2.498v17.106c0,0.8867,0.167,1.7197,0.5029,2.498c0.335,0.7788,0.791,1.4556,1.3652,2.0303
				c0.5752,0.5752,1.252,1.0303,2.0313,1.3657c0.7783,0.3359,1.6104,0.5029,2.4971,0.5029h2.9473
				c0.8857,0,1.7188-0.167,2.498-0.5029c0.7773-0.3354,1.4551-0.7905,2.0303-1.3657c0.5752-0.5747,1.0293-1.2515,1.3652-2.0303
				c0.335-0.7783,0.5029-1.6113,0.5029-2.498V111.6646z M424.8447,95.9238h-3.3057l5.8574-8.8408h7.3672L424.8447,95.9238z"/>
			<path style="fill:#3B86B1;" d="M467.9697,138.6177v-26.9531c0-0.8862-0.168-1.7188-0.5029-2.498
				c-0.3359-0.7778-0.79-1.4551-1.3652-2.0303s-1.2529-1.0298-2.0303-1.3657c-0.7793-0.335-1.6123-0.5029-2.498-0.5029h-2.9473
				c-0.8867,0-1.7188,0.168-2.4971,0.5029c-0.7793,0.3359-1.4561,0.7905-2.0313,1.3657c-0.5742,0.5752-1.0303,1.2524-1.3652,2.0303
				c-0.3359,0.7793-0.5029,1.6118-0.5029,2.498v26.9531h-4.4209v-36.8003h1.4736l2.4082,3.7378
				c1.0059-1.3657,2.2695-2.4497,3.791-3.2524s3.1807-1.2041,4.9775-1.2041h1.1143c1.4854,0,2.8867,0.2817,4.2051,0.8447
				c1.3164,0.563,2.4668,1.3359,3.4492,2.3179c0.9824,0.9829,1.7549,2.1328,2.3184,3.4502
				c0.5625,1.3179,0.8447,2.7192,0.8447,4.2046v26.7017H467.9697z"/>
		</g>
	</g>
	<g>
		<path style="fill:#2A4690;" d="M130.9121,198.0308c-0.8452,1.9658-2.0044,3.6865-3.479,5.1611s-3.2026,2.6348-5.1841,3.4785
			c-1.9814,0.8457-4.0938,1.2676-6.3359,1.2676H94.9927v-66.0791h20.9204c2.2422,0,4.3545,0.4224,6.3359,1.2671
			c1.9814,0.8452,3.7095,2.0044,5.1841,3.479s2.6338,3.2026,3.479,5.1841c0.8447,1.9814,1.2676,4.0942,1.2676,6.3359v33.5923
			C132.1797,193.9604,131.7568,196.0649,130.9121,198.0308z M126.2354,158.125c0-1.4746-0.2769-2.8486-0.8296-4.124
			c-0.5532-1.2744-1.3135-2.396-2.2813-3.3638c-0.9673-0.9678-2.0894-1.728-3.3638-2.2813
			c-1.2749-0.5527-2.6494-0.8291-4.124-0.8291H100.937V202.27h14.6997c1.4746,0,2.8491-0.2764,4.124-0.8291
			c1.2744-0.5527,2.3965-1.3057,3.3638-2.2578c0.9678-0.9521,1.728-2.0664,2.2813-3.3408c0.5527-1.2744,0.8296-2.6504,0.8296-4.125
			V158.125z"/>
		<path style="fill:#2A4690;" d="M174.0664,207.938l-3.1328-4.7002c-1.291,1.6895-2.9043,3.0488-4.8398,4.0781
			c-1.9336,1.0293-4.0547,1.5439-6.3574,1.5439h-1.4297c-1.9043,0-3.7012-0.3613-5.3906-1.083s-3.1641-1.7119-4.4238-2.9727
			c-1.2598-1.2588-2.25-2.7334-2.9727-4.4238c-0.7227-1.6885-1.082-3.4854-1.082-5.3906v-0.4609
			c0-1.9043,0.3594-3.7021,1.082-5.3916s1.7129-3.1641,2.9727-4.4238c1.2598-1.2588,2.7344-2.25,4.4238-2.9717
			s3.4863-1.083,5.3906-1.083h11.9805v-7.2808c0-1.1362-0.2148-2.2041-0.6445-3.2026c-0.4297-0.998-1.0137-1.8662-1.75-2.6035
			c-0.7383-0.7373-1.6055-1.3208-2.6035-1.751c-1-0.4302-2.0664-0.6455-3.2031-0.6455h-3.3184
			c-1.1367,0-2.2051,0.2153-3.2031,0.6455s-1.8652,1.0137-2.6035,1.751c-0.7363,0.7373-1.3203,1.6055-1.75,2.6035
			c-0.4316,0.9985-0.6445,2.0664-0.6445,3.2026v1.7046l-5.668-0.9214v-0.4609c0-1.9043,0.3594-3.7012,1.082-5.3911
			c0.7207-1.6895,1.7129-3.1641,2.9727-4.4238c1.2598-1.2593,2.7344-2.25,4.4238-2.9722c1.6895-0.7217,3.4863-1.083,5.3906-1.083
			h3.3184c1.9043,0,3.7012,0.3613,5.3906,1.083c1.6895,0.7222,3.1641,1.7129,4.4238,2.9722c1.2598,1.2598,2.25,2.7344,2.9727,4.4238
			c0.7207,1.6899,1.082,3.4868,1.082,5.3911v34.2378H174.0664z M170.2871,185.0825h-11.9805c-1.1367,0-2.2051,0.2148-3.2012,0.6445
			c-1,0.4307-1.8672,1.0215-2.6055,1.7744c-0.7363,0.7529-1.3203,1.6289-1.75,2.627s-0.6445,2.0664-0.6445,3.2021v1.9814
			c0,1.1367,0.2148,2.2051,0.6445,3.2021c0.4297,0.999,1.0137,1.8662,1.75,2.6035c0.7383,0.7373,1.6055,1.3213,2.6055,1.752
			c0.9961,0.4297,2.0645,0.6445,3.2012,0.6445h3.7793c1.1367,0,2.2031-0.2148,3.2031-0.6445
			c0.998-0.4307,1.8652-1.0146,2.6035-1.752c0.7363-0.7373,1.3203-1.6045,1.75-2.6035c0.4297-0.9971,0.6445-2.0654,0.6445-3.2021
			V185.0825z"/>
		<path style="fill:#2A4690;" d="M204.4795,207.938c-1.7207,0-3.3408-0.3223-4.8613-0.9678s-2.8418-1.5361-3.9629-2.6729
			c-1.1211-1.1357-2.0127-2.457-2.6729-3.9629c-0.6602-1.5049-0.9902-3.1172-0.9902-4.8379v-29.3535h-8.4785v-5.3911h8.4785V149.416
			l5.668-0.9214v12.2573h11.9805v5.3911h-11.9805v29.6299c0,0.9521,0.1758,1.8359,0.5293,2.6494
			c0.3535,0.8145,0.8369,1.5283,1.4521,2.1426c0.6143,0.6152,1.3359,1.0986,2.166,1.4521c0.8291,0.3535,1.7197,0.5293,2.6719,0.5293
			h5.1611v5.3916H204.4795z"/>
		<path style="fill:#2A4690;" d="M250.4902,200.3804c-0.7217,1.6904-1.7129,3.165-2.9717,4.4238
			c-1.2598,1.2607-2.7344,2.251-4.4238,2.9727s-3.4873,1.083-5.3916,1.083h-3.7783c-1.9053,0-3.7021-0.3613-5.3916-1.083
			s-3.1641-1.7119-4.4238-2.9727c-1.2598-1.2588-2.25-2.7334-2.9717-4.4238c-0.7227-1.6885-1.083-3.4854-1.083-5.3906v-21.2896
			c0-1.9043,0.3604-3.7012,1.083-5.3911c0.7217-1.6895,1.7119-3.1641,2.9717-4.4238c1.2598-1.2593,2.7344-2.25,4.4238-2.9722
			c1.6895-0.7217,3.4863-1.083,5.3916-1.083h3.7783c1.9043,0,3.7021,0.3613,5.3916,1.083c1.6895,0.7222,3.1641,1.7129,4.4238,2.9722
			c1.2588,1.2598,2.25,2.7344,2.9717,4.4238c0.7217,1.6899,1.083,3.4868,1.083,5.3911v21.2896
			C251.5732,196.895,251.2119,198.6919,250.4902,200.3804z M245.9053,173.3779c0-1.1362-0.2148-2.2041-0.6445-3.2026
			c-0.4307-0.998-1.0137-1.8662-1.751-2.6035s-1.6055-1.3208-2.6035-1.751c-0.999-0.4302-2.0664-0.6455-3.2031-0.6455h-3.7783
			c-1.1367,0-2.2051,0.2153-3.2021,0.6455c-0.999,0.4302-1.8672,1.0137-2.6045,1.751c-0.7363,0.7373-1.3203,1.6055-1.751,2.6035
			c-0.4297,0.9985-0.6445,2.0664-0.6445,3.2026v21.9341c0,1.1367,0.2148,2.2051,0.6445,3.2021
			c0.4307,0.999,1.0146,1.8662,1.751,2.6035c0.7373,0.7373,1.6055,1.3213,2.6045,1.752c0.9971,0.4297,2.0654,0.6445,3.2021,0.6445
			h3.7783c1.1367,0,2.2041-0.2148,3.2031-0.6445c0.998-0.4307,1.8662-1.0146,2.6035-1.752s1.3203-1.6045,1.751-2.6035
			c0.4297-0.9971,0.6445-2.0654,0.6445-3.2021V173.3779z"/>
		<path style="fill:#2A4690;" d="M295.3496,195.9575c0,1.9043-0.3848,3.6475-1.1523,5.2295
			c-0.7676,1.583-1.8125,2.9424-3.1328,4.0781c-1.3213,1.1367-2.8496,2.0205-4.585,2.6494
			c-1.7363,0.6299-3.5566,0.9453-5.4609,0.9453h-3.7783c-1.9053,0-3.7256-0.3613-5.4609-1.083s-3.2559-1.7119-4.5615-2.9727
			c-1.3066-1.2588-2.3506-2.7334-3.1338-4.4238c-0.7832-1.6885-1.1748-3.4854-1.1748-5.3906v-1.8896l5.668-0.9219v3.1338
			c0,1.1367,0.2373,2.2051,0.7139,3.2021c0.4766,0.999,1.1133,1.8662,1.9121,2.6035s1.7207,1.3213,2.7656,1.752
			c1.0439,0.4297,2.1348,0.6445,3.2715,0.6445h3.7783c1.1367,0,2.2275-0.168,3.2715-0.5068
			c1.0439-0.3379,1.9736-0.8213,2.7881-1.4512c0.8135-0.6299,1.459-1.3896,1.9355-2.2813c0.4756-0.8906,0.7139-1.9043,0.7139-3.041
			c0-1.6895-0.3682-3.0723-1.1055-4.1475s-1.7129-1.9736-2.9268-2.6953s-2.5957-1.3213-4.1465-1.7979
			c-1.5518-0.4756-3.1416-0.9512-4.7695-1.4277c-1.6289-0.4766-3.2188-1.0215-4.7695-1.6367
			c-1.5518-0.6143-2.9336-1.4199-4.1475-2.4189c-1.2139-0.998-2.1885-2.25-2.9258-3.7554
			c-0.7373-1.5049-1.1055-3.3789-1.1055-5.6221c0-1.9043,0.3682-3.6475,1.1055-5.23c0.7373-1.5815,1.7354-2.9409,2.9951-4.0781
			c1.2598-1.1362,2.7266-2.0195,4.4004-2.6494c1.6748-0.6294,3.4639-0.9448,5.3691-0.9448h3.3174
			c1.9043,0,3.7012,0.3613,5.3916,1.083c1.6895,0.7222,3.1641,1.7129,4.4238,2.9722c1.2588,1.2598,2.25,2.7344,2.9717,4.4238
			c0.7217,1.6899,1.083,3.4868,1.083,5.3911v0.1846l-5.668,0.9214v-1.4282c0-1.1362-0.2148-2.2041-0.6445-3.2026
			c-0.4307-0.998-1.0137-1.8662-1.751-2.6035s-1.6064-1.3208-2.6035-1.751c-0.999-0.4302-2.0664-0.6455-3.2031-0.6455h-3.3174
			c-1.1367,0-2.2051,0.1694-3.2031,0.5068c-0.998,0.3389-1.8662,0.8223-2.6035,1.4517c-0.7373,0.6299-1.3213,1.3906-1.751,2.2813
			c-0.4307,0.8911-0.6445,1.9048-0.6445,3.041c0,1.6289,0.3682,2.957,1.1055,3.9858c0.7373,1.0298,1.7119,1.8975,2.9258,2.6035
			c1.2139,0.707,2.5957,1.2988,4.1475,1.7744c1.5508,0.4766,3.1338,0.9678,4.7461,1.4746c1.6133,0.5068,3.1953,1.083,4.7461,1.7275
			c1.5518,0.6455,2.9336,1.4746,4.1475,2.4883c1.2139,1.0146,2.1895,2.2813,2.9268,3.8018S295.3496,193.7153,295.3496,195.9575z"/>
	</g>
</g>
</svg>
