<?xml version="1.0" encoding="utf-8"?>
<!-- Generator: Adobe Illustrator 21.0.2, SVG Export Plug-In . SVG Version: 6.00 Build 0)  -->
<svg version="1.1" id="Capa_1" xmlns="http://www.w3.org/2000/svg" xmlns:xlink="http://www.w3.org/1999/xlink" x="0px" y="0px"
	 viewBox="0 0 17.2108 15.6823" style="enable-background:new 0 0 17.2108 15.6823;" xml:space="preserve">
<g id="XMLID_61_">
	<g>
		<path id="XMLID_5171_" style="fill:#A03628;" d="M7.9453,8.3995H0.5584C0.2501,8.3995,0,8.1496,0,7.8411
			c0-0.3084,0.2501-0.5584,0.5584-0.5584h7.3869c0.3083,0,0.5584,0.25,0.5584,0.5584C8.5037,8.1496,8.2537,8.3995,7.9453,8.3995z"/>
		<polygon id="XMLID_5168_" style="fill:#A03628;" points="7.3277,5.6307 11.1564,7.8411 7.3277,10.0517 		"/>
		<g id="XMLID_4236_">
			<path id="XMLID_4557_" style="fill:#A03628;" d="M7.3277,10.6101c-0.0964,0-0.1928-0.025-0.2792-0.0748
				c-0.1728-0.0997-0.2792-0.284-0.2792-0.4836v-4.421c0-0.1995,0.1064-0.3838,0.2792-0.4836c0.1728-0.0997,0.3856-0.0997,0.5584,0
				l3.8287,2.2105c0.1728,0.0997,0.2792,0.284,0.2792,0.4836c0,0.1995-0.1064,0.3838-0.2792,0.4836l-3.8287,2.2105
				C7.5206,10.5852,7.4241,10.6101,7.3277,10.6101z M7.8861,6.5978v2.4867l2.1535-1.2433L7.8861,6.5978z"/>
			<path id="XMLID_4418_" style="fill:#A03628;" d="M9.3697,15.6823c-1.5962,0-3.1324-0.4754-4.4424-1.3748
				c-1.3061-0.8966-2.2989-2.1532-2.8711-3.6339c-0.0663-0.1718-0.0438-0.3652,0.0603-0.5171
				c0.1041-0.1519,0.2764-0.2426,0.4606-0.2426h2.5502c0.3083,0,0.5584,0.25,0.5584,0.5584c0,0.3084-0.2501,0.5584-0.5584,0.5584
				H3.4457c1.1598,2.1716,3.4045,3.5347,5.9239,3.5347c3.7078,0,6.7244-3.0165,6.7244-6.7244s-3.0165-6.7243-6.7243-6.7243
				c-2.5195,0-4.764,1.3631-5.9239,3.5347h1.3818c0.6798-0.965,1.6582-1.6955,2.7855-2.0734
				c0.5685-0.1905,1.1595-0.2871,1.7566-0.2871c3.0603,0,5.5501,2.4898,5.5501,5.5501s-2.4898,5.5501-5.5501,5.5501
				c-0.5971,0-1.1881-0.0965-1.7564-0.287c-0.2924-0.098-0.4501-0.4144-0.3521-0.7069c0.098-0.2924,0.4143-0.45,0.7069-0.3521
				c0.4537,0.152,0.9253,0.2292,1.4016,0.2292c2.4445,0,4.4333-1.9888,4.4333-4.4333S11.8142,3.408,9.3697,3.408
				c-0.4763,0-0.9479,0.0771-1.4018,0.2292C6.986,3.9663,6.1455,4.6295,5.6013,5.5048C5.4995,5.6687,5.3201,5.7684,5.1271,5.7684
				H2.577c-0.1842,0-0.3564-0.0907-0.4606-0.2426C2.0124,5.3739,1.9897,5.1804,2.0561,5.0086
				c0.5723-1.4807,1.565-2.7372,2.8711-3.6339C6.2373,0.4754,7.7735,0,9.3697,0c4.3236,0,7.8411,3.5175,7.8411,7.8411
				S13.6933,15.6823,9.3697,15.6823z"/>
		</g>
	</g>
</g>
</svg>
