<?xml version="1.0" encoding="utf-8"?>
<!-- Generator: Adobe Illustrator 21.0.2, SVG Export Plug-In . SVG Version: 6.00 Build 0)  -->
<svg version="1.1" id="Capa_1" xmlns="http://www.w3.org/2000/svg" xmlns:xlink="http://www.w3.org/1999/xlink" x="0px" y="0px"
	 viewBox="0 0 65.3059 66.6849" style="enable-background:new 0 0 65.3059 66.6849;" xml:space="preserve">
<g id="XMLID_5204_">
	<circle style="fill:#FFFFFF;" cx="25.0233" cy="25.0233" r="22.375"/>
	<path id="XMLID_5215_" style="fill:#FFFFFF;" d="M44.8236,37.7996L61.922,55.4462c2.1598,2.1599,2.1598,5.6939,0,7.8538
		c-2.1599,2.1599-5.6945,2.1599-7.8544,0L36.6227,45.3068"/>
	<path id="XMLID_5212_" style="fill:#3B86B1;" d="M57.9945,66.6849c-1.8733,0-3.7463-0.7133-5.1722-2.1394L35.3766,46.5522
		c-0.6876-0.6882-0.6876-1.8033,0-2.4909c0.6882-0.6876,1.8027-0.6876,2.4909,0L55.313,62.0551c1.4785,1.4785,3.8846,1.479,5.3635,0
		c1.4789-1.4789,1.4789-3.8851,0-5.3639L43.5781,39.045c-0.6876-0.6882-0.6876-1.8033,0-2.4909
		c0.6883-0.6876,1.8027-0.6876,2.4909,0l17.0984,17.6468c2.8514,2.8514,2.8514,7.4921,0,10.3442
		C61.7409,65.9716,59.8679,66.6849,57.9945,66.6849L57.9945,66.6849z M57.9945,66.6849"/>
	<path id="XMLID_5209_" style="fill:#FFFFFF;stroke:#3B86B1;stroke-width:1.7139;stroke-miterlimit:10;" d="M25.023,13.3114
		c1.9738,0,3.5742,1.6004,3.5742,3.5742v4.4669h4.4674c1.9738,0,3.5736,1.6003,3.5736,3.5741s-1.5999,3.5742-3.5736,3.5742h-4.4674
		v4.4669c0,1.9736-1.6004,3.5741-3.5742,3.5741s-3.5736-1.6004-3.5736-3.5741v-4.4669H16.982c-1.9738,0-3.5742-1.6004-3.5742-3.5742
		s1.6004-3.5741,3.5742-3.5741h4.4674v-4.4669C21.4494,14.9113,23.0493,13.3114,25.023,13.3114L25.023,13.3114z M25.023,13.3114"/>
	<path id="XMLID_5205_" style="fill:#3B86B1;" d="M25.023,50.0466C11.2252,50.0466,0,38.821,0,25.023C0,11.2256,11.2252,0,25.023,0
		c13.798,0,25.0236,11.2251,25.0236,25.023S38.821,50.0466,25.023,50.0466L25.023,50.0466z M25.0231,5.4721
		c-10.7807,0-19.551,8.7708-19.551,19.551c0,10.7809,8.7708,19.5515,19.551,19.5515c10.7809,0,19.5515-8.7706,19.5515-19.5515
		C44.5746,14.2428,35.8039,5.4721,25.0231,5.4721L25.0231,5.4721z M25.023,3.5223"/>
</g>
</svg>
